<svg 
  baseProfile="tiny"
  preserveAspectRatio="keep"
  version="1.2"
  viewBox="0 0 2400 150"
  height="100%" width="100%"
  xmlns="http://www.w3.org/2000/svg"
  xmlns:ev="http://www.w3.org/2001/xml-events"
  xmlns:xlink="http://www.w3.org/1999/xlink"
>
  <g>
    <rect width="8" height="32.56133880084118" x="4" y="58.71933059957941" rx="4" ry="4" fill="black" />
    <rect width="8" height="19.43105063618343" x="20" y="65.28447468190828" rx="4" ry="4" fill="black" />
    <rect width="8" height="36.94563254588387" x="36" y="56.527183727058066" rx="4" ry="4" fill="black" />
    <rect width="8" height="28.652457632229606" x="52" y="60.673771183885194" rx="4" ry="4" fill="black" />
    <rect width="8" height="38.93770692525326" x="68" y="55.531146537373374" rx="4" ry="4" fill="black" />
    <rect width="8" height="20.156674336579755" x="84" y="64.92166283171012" rx="4" ry="4" fill="black" />
    <rect width="8" height="32.570567513945555" x="100" y="58.714716243027226" rx="4" ry="4" fill="black" />
    <rect width="8" height="28.43846951461546" x="116" y="60.78076524269227" rx="4" ry="4" fill="black" />
    <rect width="8" height="38.73270977198741" x="132" y="55.6336451140063" rx="4" ry="4" fill="black" />
    <rect width="8" height="86.1024045890689" x="148" y="31.94879770546555" rx="4" ry="4" fill="black" />
    <rect width="8" height="123.03302505226361" x="164" y="13.483487473868195" rx="4" ry="4" fill="black" />
    <rect width="8" height="119.8714275716044" x="180" y="15.0642862141978" rx="4" ry="4" fill="black" />
    <rect width="8" height="113.36961786438069" x="196" y="18.315191067809657" rx="4" ry="4" fill="black" />
    <rect width="8" height="117.24556320214352" x="212" y="16.377218398928242" rx="4" ry="4" fill="black" />
    <rect width="8" height="125.91053851794561" x="228" y="12.044730741027195" rx="4" ry="4" fill="black" />
    <rect width="8" height="120.20345316921359" x="244" y="14.898273415393206" rx="4" ry="4" fill="black" />
    <rect width="8" height="112.36434036701196" x="260" y="18.81782981649402" rx="4" ry="4" fill="black" />
    <rect width="8" height="114.91524199731359" x="276" y="17.542379001343207" rx="4" ry="4" fill="black" />
    <rect width="8" height="121.56694531977097" x="292" y="14.216527340114517" rx="4" ry="4" fill="black" />
    <rect width="8" height="118.76398956624337" x="308" y="15.618005216878316" rx="4" ry="4" fill="black" />
    <rect width="8" height="112.54946633140162" x="324" y="18.72526683429919" rx="4" ry="4" fill="black" />
    <rect width="8" height="115.93717767448474" x="340" y="17.031411162757628" rx="4" ry="4" fill="black" />
    <rect width="8" height="121.20400807782377" x="356" y="14.397995961088114" rx="4" ry="4" fill="black" />
    <rect width="8" height="117.57755304036357" x="372" y="16.211223479818216" rx="4" ry="4" fill="black" />
    <rect width="8" height="109.38480788420296" x="388" y="20.30759605789852" rx="4" ry="4" fill="black" />
    <rect width="8" height="114.61585071687136" x="404" y="17.692074641564318" rx="4" ry="4" fill="black" />
    <rect width="8" height="123.45429849783527" x="420" y="13.272850751082366" rx="4" ry="4" fill="black" />
    <rect width="8" height="119.6129437062778" x="436" y="15.193528146861098" rx="4" ry="4" fill="black" />
    <rect width="8" height="113.00861555399693" x="452" y="18.495692223001534" rx="4" ry="4" fill="black" />
    <rect width="8" height="118.29369254886429" x="468" y="15.853153725567857" rx="4" ry="4" fill="black" />
    <rect width="8" height="124.05533938493555" x="484" y="12.972330307532225" rx="4" ry="4" fill="black" />
    <rect width="8" height="117.55114250465603" x="500" y="16.224428747671986" rx="4" ry="4" fill="black" />
    <rect width="8" height="113.25468529648444" x="516" y="18.37265735175778" rx="4" ry="4" fill="black" />
    <rect width="8" height="118.67229867682634" x="532" y="15.663850661586828" rx="4" ry="4" fill="black" />
    <rect width="8" height="123.87877971567511" x="548" y="13.060610142162446" rx="4" ry="4" fill="black" />
    <rect width="8" height="116.92785811227435" x="564" y="16.536070943862825" rx="4" ry="4" fill="black" />
    <rect width="8" height="111.55352617593991" x="580" y="19.223236912030046" rx="4" ry="4" fill="black" />
    <rect width="8" height="117.8647502876864" x="596" y="16.067624856156797" rx="4" ry="4" fill="black" />
    <rect width="8" height="19.865382141215285" x="612" y="65.06730892939235" rx="4" ry="4" fill="black" />
    <rect width="8" height="19.97322858928069" x="628" y="65.01338570535965" rx="4" ry="4" fill="black" />
    <rect width="8" height="36.421546540321586" x="644" y="56.78922672983921" rx="4" ry="4" fill="black" />
    <rect width="8" height="21.518454006140978" x="660" y="64.24077299692951" rx="4" ry="4" fill="black" />
    <rect width="8" height="8" x="676" y="71" rx="4" ry="4" fill="black" />
    <rect width="8" height="116.43213111413938" x="692" y="16.78393444293031" rx="4" ry="4" fill="black" />
    <rect width="8" height="112.18053033338052" x="708" y="18.90973483330974" rx="4" ry="4" fill="black" />
    <rect width="8" height="121.00973765367075" x="724" y="14.495131173164623" rx="4" ry="4" fill="black" />
    <rect width="8" height="124.57845393523557" x="740" y="12.710773032382214" rx="4" ry="4" fill="black" />
    <rect width="8" height="54.0923565724831" x="756" y="47.95382171375845" rx="4" ry="4" fill="black" />
    <rect width="8" height="110.562700372878" x="772" y="19.718649813561" rx="4" ry="4" fill="black" />
    <rect width="8" height="121.86324454126743" x="788" y="14.068377729366283" rx="4" ry="4" fill="black" />
    <rect width="8" height="123.31799615442517" x="804" y="13.341001922787413" rx="4" ry="4" fill="black" />
    <rect width="8" height="119.76808070152593" x="820" y="15.115959649237034" rx="4" ry="4" fill="black" />
    <rect width="8" height="113.62468760757606" x="836" y="18.187656196211968" rx="4" ry="4" fill="black" />
    <rect width="8" height="123.20539790405485" x="852" y="13.397301047972576" rx="4" ry="4" fill="black" />
    <rect width="8" height="123.10710867453925" x="868" y="13.446445662730376" rx="4" ry="4" fill="black" />
    <rect width="8" height="115.68618995638944" x="884" y="17.15690502180528" rx="4" ry="4" fill="black" />
    <rect width="8" height="112.19689759773307" x="900" y="18.901551201133465" rx="4" ry="4" fill="black" />
    <rect width="8" height="120.35195607991359" x="916" y="14.824021960043204" rx="4" ry="4" fill="black" />
    <rect width="8" height="117.67111915901765" x="932" y="16.164440420491175" rx="4" ry="4" fill="black" />
    <rect width="8" height="107.95522170272152" x="948" y="21.022389148639242" rx="4" ry="4" fill="black" />
    <rect width="8" height="99.0411374903615" x="964" y="25.479431254819247" rx="4" ry="4" fill="black" />
    <rect width="8" height="109.81648800725019" x="980" y="20.091755996374907" rx="4" ry="4" fill="black" />
    <rect width="8" height="106.1783403408564" x="996" y="21.910829829571803" rx="4" ry="4" fill="black" />
    <rect width="8" height="91.03027063952474" x="1012" y="29.484864680237628" rx="4" ry="4" fill="black" />
    <rect width="8" height="84.37466324940364" x="1028" y="32.81266837529818" rx="4" ry="4" fill="black" />
    <rect width="8" height="97.67145143818455" x="1044" y="26.164274280907726" rx="4" ry="4" fill="black" />
    <rect width="8" height="108.3128794159375" x="1060" y="20.84356029203125" rx="4" ry="4" fill="black" />
    <rect width="8" height="89.80321878337817" x="1076" y="30.098390608310915" rx="4" ry="4" fill="black" />
    <rect width="8" height="87.49833477695879" x="1092" y="31.250832611520607" rx="4" ry="4" fill="black" />
    <rect width="8" height="94.34334420435135" x="1108" y="27.828327897824323" rx="4" ry="4" fill="black" />
    <rect width="8" height="82.97241889925094" x="1124" y="33.51379055037453" rx="4" ry="4" fill="black" />
    <rect width="8" height="65.77439021403245" x="1140" y="42.112804892983775" rx="4" ry="4" fill="black" />
    <rect width="8" height="43.3899713535608" x="1156" y="53.305014323219595" rx="4" ry="4" fill="black" />
    <rect width="8" height="36.571049250781165" x="1172" y="56.71447537460942" rx="4" ry="4" fill="black" />
    <rect width="8" height="16.07859304266007" x="1188" y="66.96070347866997" rx="4" ry="4" fill="black" />
    <rect width="8" height="8" x="1204" y="71" rx="4" ry="4" fill="black" />
    <rect width="8" height="34.2323466746234" x="1220" y="57.8838266626883" rx="4" ry="4" fill="black" />
    <rect width="8" height="27.161548089085834" x="1236" y="61.41922595545708" rx="4" ry="4" fill="black" />
    <rect width="8" height="27.629162501895593" x="1252" y="61.185418749052204" rx="4" ry="4" fill="black" />
    <rect width="8" height="8" x="1268" y="71" rx="4" ry="4" fill="black" />
    <rect width="8" height="8" x="1284" y="71" rx="4" ry="4" fill="black" />
    <rect width="8" height="8" x="1300" y="71" rx="4" ry="4" fill="black" />
    <rect width="8" height="8" x="1316" y="71" rx="4" ry="4" fill="black" />
    <rect width="8" height="8" x="1332" y="71" rx="4" ry="4" fill="black" />
    <rect width="8" height="25.735220595931036" x="1348" y="62.13238970203448" rx="4" ry="4" fill="black" />
    <rect width="8" height="8" x="1364" y="71" rx="4" ry="4" fill="black" />
    <rect width="8" height="8" x="1380" y="71" rx="4" ry="4" fill="black" />
    <rect width="8" height="8" x="1396" y="71" rx="4" ry="4" fill="black" />
    <rect width="8" height="27.453278742802297" x="1412" y="61.27336062859885" rx="4" ry="4" fill="black" />
    <rect width="8" height="24.703683569940633" x="1428" y="62.64815821502968" rx="4" ry="4" fill="black" />
    <rect width="8" height="31.91271760728742" x="1444" y="59.04364119635629" rx="4" ry="4" fill="black" />
    <rect width="8" height="33.915553967872434" x="1460" y="58.04222301606379" rx="4" ry="4" fill="black" />
    <rect width="8" height="39.74358225995932" x="1476" y="55.128208870020345" rx="4" ry="4" fill="black" />
    <rect width="8" height="37.339724375896665" x="1492" y="56.33013781205167" rx="4" ry="4" fill="black" />
    <rect width="8" height="49.90979045724155" x="1508" y="50.04510477137923" rx="4" ry="4" fill="black" />
    <rect width="8" height="42.88110295678677" x="1524" y="53.55944852160661" rx="4" ry="4" fill="black" />
    <rect width="8" height="48.56293805205463" x="1540" y="50.71853097397268" rx="4" ry="4" fill="black" />
    <rect width="8" height="136.56500047209062" x="1556" y="6.717499763954692" rx="4" ry="4" fill="black" />
    <rect width="8" height="138.31822546742296" x="1572" y="5.840887266288519" rx="4" ry="4" fill="black" />
    <rect width="8" height="123.2522916424912" x="1588" y="13.3738541787544" rx="4" ry="4" fill="black" />
    <rect width="8" height="123.08308805786417" x="1604" y="13.458455971067913" rx="4" ry="4" fill="black" />
    <rect width="8" height="129.15804250606124" x="1620" y="10.420978746969382" rx="4" ry="4" fill="black" />
    <rect width="8" height="150" x="1636" y="0" rx="4" ry="4" fill="black" />
    <rect width="8" height="125.72674458533142" x="1652" y="12.136627707334291" rx="4" ry="4" fill="black" />
    <rect width="8" height="136.82138913501527" x="1668" y="6.589305432492367" rx="4" ry="4" fill="black" />
    <rect width="8" height="139.0721881749718" x="1684" y="5.463905912514093" rx="4" ry="4" fill="black" />
    <rect width="8" height="132.32291709868778" x="1700" y="8.838541450656109" rx="4" ry="4" fill="black" />
    <rect width="8" height="140.92396153057038" x="1716" y="4.53801923471481" rx="4" ry="4" fill="black" />
    <rect width="8" height="124.59295902538392" x="1732" y="12.70352048730804" rx="4" ry="4" fill="black" />
    <rect width="8" height="127.9067199350081" x="1748" y="11.04664003249595" rx="4" ry="4" fill="black" />
    <rect width="8" height="123.86756974127783" x="1764" y="13.066215129361083" rx="4" ry="4" fill="black" />
    <rect width="8" height="123.77116098602366" x="1780" y="13.11441950698817" rx="4" ry="4" fill="black" />
    <rect width="8" height="123.99555365124502" x="1796" y="13.002223174377491" rx="4" ry="4" fill="black" />
    <rect width="8" height="125.83285572669186" x="1812" y="12.08357213665407" rx="4" ry="4" fill="black" />
    <rect width="8" height="125.24212735049647" x="1828" y="12.378936324751763" rx="4" ry="4" fill="black" />
    <rect width="8" height="121.03917219471253" x="1844" y="14.480413902643733" rx="4" ry="4" fill="black" />
    <rect width="8" height="127.49463146979745" x="1860" y="11.252684265101273" rx="4" ry="4" fill="black" />
    <rect width="8" height="133.27810128065468" x="1876" y="8.36094935967266" rx="4" ry="4" fill="black" />
    <rect width="8" height="126.63808135268432" x="1892" y="11.680959323657838" rx="4" ry="4" fill="black" />
    <rect width="8" height="115.5520618997054" x="1908" y="17.223969050147304" rx="4" ry="4" fill="black" />
    <rect width="8" height="123.88905254252194" x="1924" y="13.055473728739031" rx="4" ry="4" fill="black" />
    <rect width="8" height="128.12517323454833" x="1940" y="10.937413382725836" rx="4" ry="4" fill="black" />
    <rect width="8" height="127.58037649002247" x="1956" y="11.209811754988763" rx="4" ry="4" fill="black" />
    <rect width="8" height="118.60214272939466" x="1972" y="15.698928635302671" rx="4" ry="4" fill="black" />
    <rect width="8" height="125.43725351392203" x="1988" y="12.281373243038985" rx="4" ry="4" fill="black" />
    <rect width="8" height="125.45054783563141" x="2004" y="12.274726082184294" rx="4" ry="4" fill="black" />
    <rect width="8" height="125.71463168335103" x="2020" y="12.142684158324485" rx="4" ry="4" fill="black" />
    <rect width="8" height="116.81209117924487" x="2036" y="16.593954410377563" rx="4" ry="4" fill="black" />
    <rect width="8" height="125.64276292847161" x="2052" y="12.178618535764194" rx="4" ry="4" fill="black" />
    <rect width="8" height="125.9254127133224" x="2068" y="12.0372936433388" rx="4" ry="4" fill="black" />
    <rect width="8" height="125.89058381006838" x="2084" y="12.054708094965811" rx="4" ry="4" fill="black" />
    <rect width="8" height="116.56990880209447" x="2100" y="16.715045598952763" rx="4" ry="4" fill="black" />
    <rect width="8" height="124.11206393882706" x="2116" y="12.943968030586468" rx="4" ry="4" fill="black" />
    <rect width="8" height="123.84743645705643" x="2132" y="13.076281771471784" rx="4" ry="4" fill="black" />
    <rect width="8" height="125.39561630323507" x="2148" y="12.302191848382463" rx="4" ry="4" fill="black" />
    <rect width="8" height="114.61603648325324" x="2164" y="17.69198175837338" rx="4" ry="4" fill="black" />
    <rect width="8" height="121.67718590943365" x="2180" y="14.161407045283177" rx="4" ry="4" fill="black" />
    <rect width="8" height="120.6448048245634" x="2196" y="14.677597587718303" rx="4" ry="4" fill="black" />
    <rect width="8" height="117.9054054233297" x="2212" y="16.04729728833515" rx="4" ry="4" fill="black" />
    <rect width="8" height="109.47840454919282" x="2228" y="20.26079772540359" rx="4" ry="4" fill="black" />
    <rect width="8" height="121.77043702784343" x="2244" y="14.114781486078286" rx="4" ry="4" fill="black" />
    <rect width="8" height="121.77119682360245" x="2260" y="14.114401588198774" rx="4" ry="4" fill="black" />
    <rect width="8" height="115.36155870700121" x="2276" y="17.319220646499396" rx="4" ry="4" fill="black" />
    <rect width="8" height="107.81785809863038" x="2292" y="21.09107095068481" rx="4" ry="4" fill="black" />
    <rect width="8" height="119.85072060539814" x="2308" y="15.074639697300931" rx="4" ry="4" fill="black" />
    <rect width="8" height="123.07292806244591" x="2324" y="13.463535968777045" rx="4" ry="4" fill="black" />
    <rect width="8" height="116.48566800807467" x="2340" y="16.757165995962666" rx="4" ry="4" fill="black" />
    <rect width="8" height="110.0666382289651" x="2356" y="19.966680885517448" rx="4" ry="4" fill="black" />
    <rect width="8" height="122.64735287638098" x="2372" y="13.676323561809511" rx="4" ry="4" fill="black" />
    <rect width="8" height="37.9363579021496" x="2388" y="56.031821048925195" rx="4" ry="4" fill="black" />
  </g>
</svg>