<svg 
  baseProfile="tiny"
  preserveAspectRatio="keep"
  version="1.2"
  viewBox="0 0 2400 150"
  height="100%" width="100%"
  xmlns="http://www.w3.org/2000/svg"
  xmlns:ev="http://www.w3.org/2001/xml-events"
  xmlns:xlink="http://www.w3.org/1999/xlink"
>
  <g>
    <rect width="8" height="91.77763133822394" x="4" y="29.11118433088803" rx="4" ry="4" fill="black" />
    <rect width="8" height="80.43539850631902" x="20" y="34.78230074684049" rx="4" ry="4" fill="black" />
    <rect width="8" height="84.58359273751611" x="36" y="32.70820363124194" rx="4" ry="4" fill="black" />
    <rect width="8" height="92.56972395765945" x="52" y="28.715138021170276" rx="4" ry="4" fill="black" />
    <rect width="8" height="99.18971914590041" x="68" y="25.405140427049794" rx="4" ry="4" fill="black" />
    <rect width="8" height="94.84597416629147" x="84" y="27.577012916854265" rx="4" ry="4" fill="black" />
    <rect width="8" height="84.30946247678668" x="100" y="32.84526876160666" rx="4" ry="4" fill="black" />
    <rect width="8" height="82.62110730538517" x="116" y="33.68944634730742" rx="4" ry="4" fill="black" />
    <rect width="8" height="92.31080957260164" x="132" y="28.84459521369918" rx="4" ry="4" fill="black" />
    <rect width="8" height="98.55358829468234" x="148" y="25.72320585265883" rx="4" ry="4" fill="black" />
    <rect width="8" height="150" x="164" y="0" rx="4" ry="4" fill="black" />
    <rect width="8" height="100.07853712050797" x="180" y="24.960731439746013" rx="4" ry="4" fill="black" />
    <rect width="8" height="86.88623556418187" x="196" y="31.556882217909063" rx="4" ry="4" fill="black" />
    <rect width="8" height="119.37594436456043" x="212" y="15.312027817719787" rx="4" ry="4" fill="black" />
    <rect width="8" height="106.95064923185454" x="228" y="21.52467538407273" rx="4" ry="4" fill="black" />
    <rect width="8" height="119.3244848014422" x="244" y="15.337757599278902" rx="4" ry="4" fill="black" />
    <rect width="8" height="112.11654415799596" x="260" y="18.94172792100202" rx="4" ry="4" fill="black" />
    <rect width="8" height="88.23999152985266" x="276" y="30.88000423507367" rx="4" ry="4" fill="black" />
    <rect width="8" height="125.46632233709808" x="292" y="12.266838831450961" rx="4" ry="4" fill="black" />
    <rect width="8" height="100.49256862121386" x="308" y="24.75371568939307" rx="4" ry="4" fill="black" />
    <rect width="8" height="101.5663994546926" x="324" y="24.2168002726537" rx="4" ry="4" fill="black" />
    <rect width="8" height="109.05221251814967" x="340" y="20.473893740925163" rx="4" ry="4" fill="black" />
    <rect width="8" height="94.97838253986309" x="356" y="27.510808730068455" rx="4" ry="4" fill="black" />
    <rect width="8" height="132.41158078393255" x="372" y="8.794209608033725" rx="4" ry="4" fill="black" />
    <rect width="8" height="100.5847762907682" x="388" y="24.707611854615898" rx="4" ry="4" fill="black" />
    <rect width="8" height="105.90358185175226" x="404" y="22.048209074123868" rx="4" ry="4" fill="black" />
    <rect width="8" height="121.35551590079827" x="420" y="14.322242049600867" rx="4" ry="4" fill="black" />
    <rect width="8" height="98.32859776718925" x="436" y="25.835701116405374" rx="4" ry="4" fill="black" />
    <rect width="8" height="124.73423867243321" x="452" y="12.632880663783396" rx="4" ry="4" fill="black" />
    <rect width="8" height="102.1971399916844" x="468" y="23.901430004157803" rx="4" ry="4" fill="black" />
    <rect width="8" height="102.27796653408373" x="484" y="23.861016732958134" rx="4" ry="4" fill="black" />
    <rect width="8" height="112.21696804871165" x="500" y="18.891515975644175" rx="4" ry="4" fill="black" />
    <rect width="8" height="102.47500631032705" x="516" y="23.762496844836477" rx="4" ry="4" fill="black" />
    <rect width="8" height="53.041965963200624" x="532" y="48.47901701839969" rx="4" ry="4" fill="black" />
    <rect width="8" height="117.69440346185853" x="548" y="16.152798269070736" rx="4" ry="4" fill="black" />
    <rect width="8" height="104.6251490467813" x="564" y="22.68742547660935" rx="4" ry="4" fill="black" />
    <rect width="8" height="137.99205799106363" x="580" y="6.003971004468184" rx="4" ry="4" fill="black" />
    <rect width="8" height="105.8288952281639" x="596" y="22.08555238591805" rx="4" ry="4" fill="black" />
    <rect width="8" height="97.9574119565306" x="612" y="26.021294021734697" rx="4" ry="4" fill="black" />
    <rect width="8" height="112.24228450267526" x="628" y="18.87885774866237" rx="4" ry="4" fill="black" />
    <rect width="8" height="132.88714196136684" x="644" y="8.556429019316582" rx="4" ry="4" fill="black" />
    <rect width="8" height="143.43293050852145" x="660" y="3.2835347457392743" rx="4" ry="4" fill="black" />
    <rect width="8" height="117.05330309204987" x="676" y="16.473348453975063" rx="4" ry="4" fill="black" />
    <rect width="8" height="101.84980943198231" x="692" y="24.075095284008846" rx="4" ry="4" fill="black" />
    <rect width="8" height="108.72593386292205" x="708" y="20.637033068538976" rx="4" ry="4" fill="black" />
    <rect width="8" height="98.43357755125108" x="724" y="25.783211224374462" rx="4" ry="4" fill="black" />
    <rect width="8" height="108.29296461966989" x="740" y="20.853517690165056" rx="4" ry="4" fill="black" />
    <rect width="8" height="119.91197865967881" x="756" y="15.044010670160596" rx="4" ry="4" fill="black" />
    <rect width="8" height="104.58177935664136" x="772" y="22.70911032167932" rx="4" ry="4" fill="black" />
    <rect width="8" height="135.95855356074043" x="788" y="7.020723219629787" rx="4" ry="4" fill="black" />
    <rect width="8" height="66.31471533608133" x="804" y="41.84264233195933" rx="4" ry="4" fill="black" />
    <rect width="8" height="51.588662228146504" x="820" y="49.20566888592675" rx="4" ry="4" fill="black" />
    <rect width="8" height="90.2156451779361" x="836" y="29.892177411031952" rx="4" ry="4" fill="black" />
    <rect width="8" height="55.48010260942496" x="852" y="47.25994869528752" rx="4" ry="4" fill="black" />
    <rect width="8" height="147.00968950846377" x="868" y="1.4951552457681174" rx="4" ry="4" fill="black" />
    <rect width="8" height="76.34160135150705" x="884" y="36.829199324246474" rx="4" ry="4" fill="black" />
    <rect width="8" height="62.66633604161047" x="900" y="43.66683197919477" rx="4" ry="4" fill="black" />
    <rect width="8" height="85.29450704476679" x="916" y="32.352746477616606" rx="4" ry="4" fill="black" />
    <rect width="8" height="67.57018329370055" x="932" y="41.214908353149724" rx="4" ry="4" fill="black" />
    <rect width="8" height="111.58746650522262" x="948" y="19.20626674738869" rx="4" ry="4" fill="black" />
    <rect width="8" height="98.67016359611037" x="964" y="25.664918201944815" rx="4" ry="4" fill="black" />
    <rect width="8" height="96.60645568979902" x="980" y="26.69677215510049" rx="4" ry="4" fill="black" />
    <rect width="8" height="115.02823090894167" x="996" y="17.485884545529167" rx="4" ry="4" fill="black" />
    <rect width="8" height="107.00943954608874" x="1012" y="21.49528022695563" rx="4" ry="4" fill="black" />
    <rect width="8" height="105.35664039606415" x="1028" y="22.321679801967925" rx="4" ry="4" fill="black" />
    <rect width="8" height="111.62524004829015" x="1044" y="19.187379975854924" rx="4" ry="4" fill="black" />
    <rect width="8" height="97.61821831735017" x="1060" y="26.190890841324915" rx="4" ry="4" fill="black" />
    <rect width="8" height="117.01537918119064" x="1076" y="16.49231040940468" rx="4" ry="4" fill="black" />
    <rect width="8" height="107.55106565165582" x="1092" y="21.22446717417209" rx="4" ry="4" fill="black" />
    <rect width="8" height="104.05110266545285" x="1108" y="22.974448667273577" rx="4" ry="4" fill="black" />
    <rect width="8" height="113.08136555411382" x="1124" y="18.459317222943092" rx="4" ry="4" fill="black" />
    <rect width="8" height="93.1143168179545" x="1140" y="28.44284159102275" rx="4" ry="4" fill="black" />
    <rect width="8" height="65.30517922112783" x="1156" y="42.347410389436085" rx="4" ry="4" fill="black" />
    <rect width="8" height="46.8153153139517" x="1172" y="51.59234234302415" rx="4" ry="4" fill="black" />
    <rect width="8" height="44.3313350599467" x="1188" y="52.83433247002665" rx="4" ry="4" fill="black" />
    <rect width="8" height="79.07267722963036" x="1204" y="35.46366138518482" rx="4" ry="4" fill="black" />
    <rect width="8" height="52.784744252925364" x="1220" y="48.60762787353732" rx="4" ry="4" fill="black" />
    <rect width="8" height="65.84093716354575" x="1236" y="42.07953141822713" rx="4" ry="4" fill="black" />
    <rect width="8" height="111.15143226059205" x="1252" y="19.424283869703977" rx="4" ry="4" fill="black" />
    <rect width="8" height="94.9672314938945" x="1268" y="27.51638425305275" rx="4" ry="4" fill="black" />
    <rect width="8" height="94.00698833904876" x="1284" y="27.99650583047562" rx="4" ry="4" fill="black" />
    <rect width="8" height="66.95507805330743" x="1300" y="41.522460973346284" rx="4" ry="4" fill="black" />
    <rect width="8" height="55.23614012203065" x="1316" y="47.381929938984676" rx="4" ry="4" fill="black" />
    <rect width="8" height="137.0261385793736" x="1332" y="6.486930710313203" rx="4" ry="4" fill="black" />
    <rect width="8" height="116.70681323404507" x="1348" y="16.646593382977464" rx="4" ry="4" fill="black" />
    <rect width="8" height="128.12312921123655" x="1364" y="10.938435394381727" rx="4" ry="4" fill="black" />
    <rect width="8" height="101.54711253520038" x="1380" y="24.226443732399808" rx="4" ry="4" fill="black" />
    <rect width="8" height="91.7756423142229" x="1396" y="29.112178842888547" rx="4" ry="4" fill="black" />
    <rect width="8" height="116.01690884909908" x="1412" y="16.99154557545046" rx="4" ry="4" fill="black" />
    <rect width="8" height="108.05697069945555" x="1428" y="20.971514650272226" rx="4" ry="4" fill="black" />
    <rect width="8" height="113.59581941685343" x="1444" y="18.202090291573285" rx="4" ry="4" fill="black" />
    <rect width="8" height="109.70727968344643" x="1460" y="20.146360158276785" rx="4" ry="4" fill="black" />
    <rect width="8" height="89.58294646767393" x="1476" y="30.208526766163033" rx="4" ry="4" fill="black" />
    <rect width="8" height="125.16977140081303" x="1492" y="12.415114299593483" rx="4" ry="4" fill="black" />
    <rect width="8" height="103.36652923215766" x="1508" y="23.31673538392117" rx="4" ry="4" fill="black" />
    <rect width="8" height="109.80609949857548" x="1524" y="20.09695025071226" rx="4" ry="4" fill="black" />
    <rect width="8" height="107.12080277176274" x="1540" y="21.43959861411863" rx="4" ry="4" fill="black" />
    <rect width="8" height="96.63368010881781" x="1556" y="26.683159945591093" rx="4" ry="4" fill="black" />
    <rect width="8" height="132.51564897312727" x="1572" y="8.742175513436365" rx="4" ry="4" fill="black" />
    <rect width="8" height="97.96542909176586" x="1588" y="26.017285454117072" rx="4" ry="4" fill="black" />
    <rect width="8" height="39.5628803937316" x="1604" y="55.2185598031342" rx="4" ry="4" fill="black" />
    <rect width="8" height="120.10092403933957" x="1620" y="14.949537980330213" rx="4" ry="4" fill="black" />
    <rect width="8" height="99.17368351672683" x="1636" y="25.413158241636587" rx="4" ry="4" fill="black" />
    <rect width="8" height="125.9220935375261" x="1652" y="12.038953231236952" rx="4" ry="4" fill="black" />
    <rect width="8" height="102.58413649398683" x="1668" y="23.707931753006584" rx="4" ry="4" fill="black" />
    <rect width="8" height="103.96902091446063" x="1684" y="23.015489542769686" rx="4" ry="4" fill="black" />
    <rect width="8" height="123.68730478389064" x="1700" y="13.15634760805468" rx="4" ry="4" fill="black" />
    <rect width="8" height="101.60610721812155" x="1716" y="24.196946390939225" rx="4" ry="4" fill="black" />
    <rect width="8" height="92.55782818003624" x="1732" y="28.72108590998188" rx="4" ry="4" fill="black" />
    <rect width="8" height="106.19922524665154" x="1748" y="21.90038737667423" rx="4" ry="4" fill="black" />
    <rect width="8" height="102.27172282199652" x="1764" y="23.86413858900174" rx="4" ry="4" fill="black" />
    <rect width="8" height="117.02267287548123" x="1780" y="16.488663562259383" rx="4" ry="4" fill="black" />
    <rect width="8" height="108.78847392027203" x="1796" y="20.605763039863987" rx="4" ry="4" fill="black" />
    <rect width="8" height="95.0543986023958" x="1812" y="27.472800698802097" rx="4" ry="4" fill="black" />
    <rect width="8" height="106.89290022282488" x="1828" y="21.55354988858756" rx="4" ry="4" fill="black" />
    <rect width="8" height="97.57070010227064" x="1844" y="26.214649948864682" rx="4" ry="4" fill="black" />
    <rect width="8" height="140.9051136092464" x="1860" y="4.5474431953768" rx="4" ry="4" fill="black" />
    <rect width="8" height="110.01111620252794" x="1876" y="19.994441898736028" rx="4" ry="4" fill="black" />
    <rect width="8" height="98.52307605419637" x="1892" y="25.738461972901817" rx="4" ry="4" fill="black" />
    <rect width="8" height="116.21302498595533" x="1908" y="16.893487507022336" rx="4" ry="4" fill="black" />
    <rect width="8" height="96.97640850482125" x="1924" y="26.511795747589375" rx="4" ry="4" fill="black" />
    <rect width="8" height="109.38746227844" x="1940" y="20.30626886078" rx="4" ry="4" fill="black" />
    <rect width="8" height="110.06281581189465" x="1956" y="19.968592094052674" rx="4" ry="4" fill="black" />
    <rect width="8" height="100.18125287868149" x="1972" y="24.909373560659255" rx="4" ry="4" fill="black" />
    <rect width="8" height="127.09973008511967" x="1988" y="11.450134957440163" rx="4" ry="4" fill="black" />
    <rect width="8" height="98.76003500335676" x="2004" y="25.61998249832162" rx="4" ry="4" fill="black" />
    <rect width="8" height="107.41623289229173" x="2020" y="21.291883553854134" rx="4" ry="4" fill="black" />
    <rect width="8" height="119.93292429817576" x="2036" y="15.033537850912118" rx="4" ry="4" fill="black" />
    <rect width="8" height="110.0063810882864" x="2052" y="19.9968094558568" rx="4" ry="4" fill="black" />
    <rect width="8" height="146.54952660252232" x="2068" y="1.72523669873884" rx="4" ry="4" fill="black" />
    <rect width="8" height="100.94359919987082" x="2084" y="24.52820040006459" rx="4" ry="4" fill="black" />
    <rect width="8" height="99.60208722923826" x="2100" y="25.198956385380868" rx="4" ry="4" fill="black" />
    <rect width="8" height="119.95919485448296" x="2116" y="15.02040257275852" rx="4" ry="4" fill="black" />
    <rect width="8" height="110.91845520488836" x="2132" y="19.54077239755582" rx="4" ry="4" fill="black" />
    <rect width="8" height="123.96562662669834" x="2148" y="13.017186686650831" rx="4" ry="4" fill="black" />
    <rect width="8" height="102.48993929035801" x="2164" y="23.755030354820995" rx="4" ry="4" fill="black" />
    <rect width="8" height="94.48944810184308" x="2180" y="27.75527594907846" rx="4" ry="4" fill="black" />
    <rect width="8" height="129.41872604552287" x="2196" y="10.290636977238563" rx="4" ry="4" fill="black" />
    <rect width="8" height="108.60618288172876" x="2212" y="20.696908559135622" rx="4" ry="4" fill="black" />
    <rect width="8" height="100.09935215319997" x="2228" y="24.950323923400013" rx="4" ry="4" fill="black" />
    <rect width="8" height="104.09343367705992" x="2244" y="22.95328316147004" rx="4" ry="4" fill="black" />
    <rect width="8" height="90.42183734981641" x="2260" y="29.789081325091793" rx="4" ry="4" fill="black" />
    <rect width="8" height="126.7195201462226" x="2276" y="11.640239926888697" rx="4" ry="4" fill="black" />
    <rect width="8" height="104.16510302310827" x="2292" y="22.917448488445864" rx="4" ry="4" fill="black" />
    <rect width="8" height="101.93319473856674" x="2308" y="24.03340263071663" rx="4" ry="4" fill="black" />
    <rect width="8" height="91.0925276209962" x="2324" y="29.453736189501903" rx="4" ry="4" fill="black" />
    <rect width="8" height="55.88843408841861" x="2340" y="47.05578295579069" rx="4" ry="4" fill="black" />
    <rect width="8" height="138.38824949607056" x="2356" y="5.805875251964721" rx="4" ry="4" fill="black" />
    <rect width="8" height="59.00833917981215" x="2372" y="45.49583041009393" rx="4" ry="4" fill="black" />
    <rect width="8" height="8" x="2388" y="71" rx="4" ry="4" fill="black" />
  </g>
</svg>