<svg 
  baseProfile="tiny"
  preserveAspectRatio="keep"
  version="1.2"
  viewBox="0 0 2400 150"
  height="100%" width="100%"
  xmlns="http://www.w3.org/2000/svg"
  xmlns:ev="http://www.w3.org/2001/xml-events"
  xmlns:xlink="http://www.w3.org/1999/xlink"
>
  <g>
    <rect width="8" height="42.667758035825294" x="4" y="53.66612098208735" rx="4" ry="4" fill="black" />
    <rect width="8" height="44.18869396954562" x="20" y="52.90565301522719" rx="4" ry="4" fill="black" />
    <rect width="8" height="48.783593285737375" x="36" y="50.608203357131316" rx="4" ry="4" fill="black" />
    <rect width="8" height="57.063911892771216" x="52" y="46.46804405361439" rx="4" ry="4" fill="black" />
    <rect width="8" height="49.96229700135091" x="68" y="50.01885149932454" rx="4" ry="4" fill="black" />
    <rect width="8" height="53.169357502791556" x="84" y="48.41532124860422" rx="4" ry="4" fill="black" />
    <rect width="8" height="52.321607752357714" x="100" y="48.83919612382114" rx="4" ry="4" fill="black" />
    <rect width="8" height="54.49351745057216" x="116" y="47.753241274713915" rx="4" ry="4" fill="black" />
    <rect width="8" height="97.40993532101551" x="132" y="26.295032339492245" rx="4" ry="4" fill="black" />
    <rect width="8" height="103.3843999311937" x="148" y="23.30780003440315" rx="4" ry="4" fill="black" />
    <rect width="8" height="99.47637122168452" x="164" y="25.261814389157742" rx="4" ry="4" fill="black" />
    <rect width="8" height="98.64897567604363" x="180" y="25.675512161978183" rx="4" ry="4" fill="black" />
    <rect width="8" height="98.89517512456344" x="196" y="25.55241243771828" rx="4" ry="4" fill="black" />
    <rect width="8" height="103.10768799564588" x="212" y="23.446156002177062" rx="4" ry="4" fill="black" />
    <rect width="8" height="98.83334565925638" x="228" y="25.58332717037181" rx="4" ry="4" fill="black" />
    <rect width="8" height="103.55342615054201" x="244" y="23.223286924728995" rx="4" ry="4" fill="black" />
    <rect width="8" height="102.3332617237499" x="260" y="23.83336913812505" rx="4" ry="4" fill="black" />
    <rect width="8" height="102.69308930074939" x="276" y="23.653455349625304" rx="4" ry="4" fill="black" />
    <rect width="8" height="100.50128528927577" x="292" y="24.749357355362115" rx="4" ry="4" fill="black" />
    <rect width="8" height="109.779216304651" x="308" y="20.1103918476745" rx="4" ry="4" fill="black" />
    <rect width="8" height="104.93782073179479" x="324" y="22.531089634102607" rx="4" ry="4" fill="black" />
    <rect width="8" height="96.96926500339018" x="340" y="26.51536749830491" rx="4" ry="4" fill="black" />
    <rect width="8" height="103.55206599431827" x="356" y="23.223967002840865" rx="4" ry="4" fill="black" />
    <rect width="8" height="102.09277557149136" x="372" y="23.95361221425432" rx="4" ry="4" fill="black" />
    <rect width="8" height="93.61702321731626" x="388" y="28.19148839134187" rx="4" ry="4" fill="black" />
    <rect width="8" height="105.45541111481678" x="404" y="22.27229444259161" rx="4" ry="4" fill="black" />
    <rect width="8" height="100.65621123934044" x="420" y="24.671894380329782" rx="4" ry="4" fill="black" />
    <rect width="8" height="100.92247635454537" x="436" y="24.538761822727317" rx="4" ry="4" fill="black" />
    <rect width="8" height="107.58070452453154" x="452" y="21.20964773773423" rx="4" ry="4" fill="black" />
    <rect width="8" height="109.61256363893311" x="468" y="20.193718180533445" rx="4" ry="4" fill="black" />
    <rect width="8" height="112.93714642244535" x="484" y="18.531426788777324" rx="4" ry="4" fill="black" />
    <rect width="8" height="121.08470411882057" x="500" y="14.457647940589716" rx="4" ry="4" fill="black" />
    <rect width="8" height="117.28535219337782" x="516" y="16.35732390331109" rx="4" ry="4" fill="black" />
    <rect width="8" height="116.49981816736401" x="532" y="16.750090916317994" rx="4" ry="4" fill="black" />
    <rect width="8" height="121.71094003467095" x="548" y="14.144529982664523" rx="4" ry="4" fill="black" />
    <rect width="8" height="115.32233261764563" x="564" y="17.338833691177186" rx="4" ry="4" fill="black" />
    <rect width="8" height="117.26486759905383" x="580" y="16.367566200473085" rx="4" ry="4" fill="black" />
    <rect width="8" height="121.18471370532798" x="596" y="14.40764314733601" rx="4" ry="4" fill="black" />
    <rect width="8" height="115.51850049202214" x="612" y="17.24074975398893" rx="4" ry="4" fill="black" />
    <rect width="8" height="119.81340875728931" x="628" y="15.093295621355345" rx="4" ry="4" fill="black" />
    <rect width="8" height="118.65854539642906" x="644" y="15.670727301785469" rx="4" ry="4" fill="black" />
    <rect width="8" height="121.4358188295471" x="660" y="14.282090585226449" rx="4" ry="4" fill="black" />
    <rect width="8" height="118.66782878565846" x="676" y="15.666085607170771" rx="4" ry="4" fill="black" />
    <rect width="8" height="124.05106735021056" x="692" y="12.97446632489472" rx="4" ry="4" fill="black" />
    <rect width="8" height="121.619047449275" x="708" y="14.1904762753625" rx="4" ry="4" fill="black" />
    <rect width="8" height="131.2521781077399" x="724" y="9.373910946130053" rx="4" ry="4" fill="black" />
    <rect width="8" height="125.0757868668345" x="740" y="12.462106566582747" rx="4" ry="4" fill="black" />
    <rect width="8" height="135.2035852868918" x="756" y="7.398207356554096" rx="4" ry="4" fill="black" />
    <rect width="8" height="123.09572639474504" x="772" y="13.452136802627479" rx="4" ry="4" fill="black" />
    <rect width="8" height="122.92720953530463" x="788" y="13.536395232347687" rx="4" ry="4" fill="black" />
    <rect width="8" height="122.11327036904764" x="804" y="13.94336481547618" rx="4" ry="4" fill="black" />
    <rect width="8" height="120.71385857654877" x="820" y="14.643070711725613" rx="4" ry="4" fill="black" />
    <rect width="8" height="118.4293695373563" x="836" y="15.785315231321853" rx="4" ry="4" fill="black" />
    <rect width="8" height="129.2768460910793" x="852" y="10.361576954460347" rx="4" ry="4" fill="black" />
    <rect width="8" height="123.42039026357347" x="868" y="13.289804868213267" rx="4" ry="4" fill="black" />
    <rect width="8" height="128.99535670905232" x="884" y="10.502321645473842" rx="4" ry="4" fill="black" />
    <rect width="8" height="140.29360595024264" x="900" y="4.853197024878682" rx="4" ry="4" fill="black" />
    <rect width="8" height="136.9295083260687" x="916" y="6.535245836965643" rx="4" ry="4" fill="black" />
    <rect width="8" height="67.6230604262967" x="932" y="41.18846978685165" rx="4" ry="4" fill="black" />
    <rect width="8" height="72.59994152862198" x="948" y="38.70002923568901" rx="4" ry="4" fill="black" />
    <rect width="8" height="70.56155376485549" x="964" y="39.719223117572255" rx="4" ry="4" fill="black" />
    <rect width="8" height="72.11731301680574" x="980" y="38.94134349159713" rx="4" ry="4" fill="black" />
    <rect width="8" height="68.51052192114837" x="996" y="40.744739039425816" rx="4" ry="4" fill="black" />
    <rect width="8" height="67.88733380018415" x="1012" y="41.056333099907924" rx="4" ry="4" fill="black" />
    <rect width="8" height="78.3222432585621" x="1028" y="35.83887837071895" rx="4" ry="4" fill="black" />
    <rect width="8" height="74.91854045394278" x="1044" y="37.54072977302861" rx="4" ry="4" fill="black" />
    <rect width="8" height="62.79973309469178" x="1060" y="43.600133452654106" rx="4" ry="4" fill="black" />
    <rect width="8" height="64.67271519250068" x="1076" y="42.66364240374966" rx="4" ry="4" fill="black" />
    <rect width="8" height="57.849068154667634" x="1092" y="46.07546592266618" rx="4" ry="4" fill="black" />
    <rect width="8" height="84.50109478486318" x="1108" y="32.74945260756841" rx="4" ry="4" fill="black" />
    <rect width="8" height="89.23791931538474" x="1124" y="30.381040342307628" rx="4" ry="4" fill="black" />
    <rect width="8" height="83.9169648162123" x="1140" y="33.04151759189385" rx="4" ry="4" fill="black" />
    <rect width="8" height="114.86771583781064" x="1156" y="17.566142081094682" rx="4" ry="4" fill="black" />
    <rect width="8" height="117.50752402946017" x="1172" y="16.246237985269914" rx="4" ry="4" fill="black" />
    <rect width="8" height="112.30805572161051" x="1188" y="18.845972139194743" rx="4" ry="4" fill="black" />
    <rect width="8" height="124.85563989445521" x="1204" y="12.572180052772396" rx="4" ry="4" fill="black" />
    <rect width="8" height="113.65849629794916" x="1220" y="18.170751851025422" rx="4" ry="4" fill="black" />
    <rect width="8" height="117.28734847559497" x="1236" y="16.356325762202516" rx="4" ry="4" fill="black" />
    <rect width="8" height="121.49175731894316" x="1252" y="14.254121340528421" rx="4" ry="4" fill="black" />
    <rect width="8" height="118.33199038143108" x="1268" y="15.834004809284458" rx="4" ry="4" fill="black" />
    <rect width="8" height="122.76354777115681" x="1284" y="13.618226114421596" rx="4" ry="4" fill="black" />
    <rect width="8" height="134.72680062969437" x="1300" y="7.636599685152817" rx="4" ry="4" fill="black" />
    <rect width="8" height="129.06673691203457" x="1316" y="10.466631543982714" rx="4" ry="4" fill="black" />
    <rect width="8" height="130.29172905685567" x="1332" y="9.854135471572164" rx="4" ry="4" fill="black" />
    <rect width="8" height="122.45237270719974" x="1348" y="13.773813646400129" rx="4" ry="4" fill="black" />
    <rect width="8" height="128.27459895747134" x="1364" y="10.86270052126433" rx="4" ry="4" fill="black" />
    <rect width="8" height="128.21950028327703" x="1380" y="10.890249858361486" rx="4" ry="4" fill="black" />
    <rect width="8" height="132.4506352689223" x="1396" y="8.774682365538851" rx="4" ry="4" fill="black" />
    <rect width="8" height="129.09559608937985" x="1412" y="10.452201955310073" rx="4" ry="4" fill="black" />
    <rect width="8" height="130.84575791534033" x="1428" y="9.577121042329836" rx="4" ry="4" fill="black" />
    <rect width="8" height="134.84769308237762" x="1444" y="7.576153458811191" rx="4" ry="4" fill="black" />
    <rect width="8" height="101.42636290643648" x="1460" y="24.28681854678176" rx="4" ry="4" fill="black" />
    <rect width="8" height="130.9275412063192" x="1476" y="9.536229396840397" rx="4" ry="4" fill="black" />
    <rect width="8" height="121.85115916535827" x="1492" y="14.074420417320866" rx="4" ry="4" fill="black" />
    <rect width="8" height="132.25715204589514" x="1508" y="8.87142397705243" rx="4" ry="4" fill="black" />
    <rect width="8" height="140.11987840484719" x="1524" y="4.9400607975764075" rx="4" ry="4" fill="black" />
    <rect width="8" height="133.201973658418" x="1540" y="8.399013170790994" rx="4" ry="4" fill="black" />
    <rect width="8" height="141.2121726247821" x="1556" y="4.3939136876089435" rx="4" ry="4" fill="black" />
    <rect width="8" height="131.30589287347757" x="1572" y="9.347053563261213" rx="4" ry="4" fill="black" />
    <rect width="8" height="130.13444502883414" x="1588" y="9.932777485582932" rx="4" ry="4" fill="black" />
    <rect width="8" height="129.29809602498923" x="1604" y="10.350951987505383" rx="4" ry="4" fill="black" />
    <rect width="8" height="125.84954390685274" x="1620" y="12.075228046573628" rx="4" ry="4" fill="black" />
    <rect width="8" height="123.26730940352249" x="1636" y="13.366345298238755" rx="4" ry="4" fill="black" />
    <rect width="8" height="135.0707919390637" x="1652" y="7.464604030468152" rx="4" ry="4" fill="black" />
    <rect width="8" height="133.89591003058965" x="1668" y="8.052044984705176" rx="4" ry="4" fill="black" />
    <rect width="8" height="136.40019608794938" x="1684" y="6.799901956025309" rx="4" ry="4" fill="black" />
    <rect width="8" height="144.6941392549316" x="1700" y="2.6529303725342004" rx="4" ry="4" fill="black" />
    <rect width="8" height="150" x="1716" y="0" rx="4" ry="4" fill="black" />
    <rect width="8" height="121.50298426092357" x="1732" y="14.248507869538216" rx="4" ry="4" fill="black" />
    <rect width="8" height="123.88938999368114" x="1748" y="13.055305003159432" rx="4" ry="4" fill="black" />
    <rect width="8" height="123.87418404105296" x="1764" y="13.062907979473522" rx="4" ry="4" fill="black" />
    <rect width="8" height="122.68123351785117" x="1780" y="13.659383241074416" rx="4" ry="4" fill="black" />
    <rect width="8" height="124.68565763021753" x="1796" y="12.657171184891233" rx="4" ry="4" fill="black" />
    <rect width="8" height="128.72702487473077" x="1812" y="10.636487562634613" rx="4" ry="4" fill="black" />
    <rect width="8" height="123.95227399773218" x="1828" y="13.023863001133911" rx="4" ry="4" fill="black" />
    <rect width="8" height="122.46148353851665" x="1844" y="13.769258230741677" rx="4" ry="4" fill="black" />
    <rect width="8" height="117.77192842237932" x="1860" y="16.11403578881034" rx="4" ry="4" fill="black" />
    <rect width="8" height="120.93292043940546" x="1876" y="14.533539780297268" rx="4" ry="4" fill="black" />
    <rect width="8" height="120.34848604483622" x="1892" y="14.82575697758189" rx="4" ry="4" fill="black" />
    <rect width="8" height="124.69083830564911" x="1908" y="12.654580847175446" rx="4" ry="4" fill="black" />
    <rect width="8" height="126.42698012085447" x="1924" y="11.786509939572767" rx="4" ry="4" fill="black" />
    <rect width="8" height="122.36398715099955" x="1940" y="13.818006424500226" rx="4" ry="4" fill="black" />
    <rect width="8" height="131.9949142205504" x="1956" y="9.002542889724793" rx="4" ry="4" fill="black" />
    <rect width="8" height="127.932474801755" x="1972" y="11.033762599122497" rx="4" ry="4" fill="black" />
    <rect width="8" height="115.27132720502011" x="1988" y="17.364336397489943" rx="4" ry="4" fill="black" />
    <rect width="8" height="127.35358446999352" x="2004" y="11.32320776500324" rx="4" ry="4" fill="black" />
    <rect width="8" height="119.7307554794492" x="2020" y="15.1346222602754" rx="4" ry="4" fill="black" />
    <rect width="8" height="119.44004082323411" x="2036" y="15.279979588382943" rx="4" ry="4" fill="black" />
    <rect width="8" height="120.92503620541352" x="2052" y="14.53748189729324" rx="4" ry="4" fill="black" />
    <rect width="8" height="127.21430415310614" x="2068" y="11.39284792344693" rx="4" ry="4" fill="black" />
    <rect width="8" height="131.38720111664318" x="2084" y="9.306399441678408" rx="4" ry="4" fill="black" />
    <rect width="8" height="132.29711943341175" x="2100" y="8.851440283294124" rx="4" ry="4" fill="black" />
    <rect width="8" height="133.5239375112099" x="2116" y="8.238031244395046" rx="4" ry="4" fill="black" />
    <rect width="8" height="97.916687881548" x="2132" y="26.041656059226" rx="4" ry="4" fill="black" />
    <rect width="8" height="98.9858369088681" x="2148" y="25.507081545565953" rx="4" ry="4" fill="black" />
    <rect width="8" height="97.96799579362094" x="2164" y="26.01600210318953" rx="4" ry="4" fill="black" />
    <rect width="8" height="96.40710693290244" x="2180" y="26.79644653354878" rx="4" ry="4" fill="black" />
    <rect width="8" height="101.5857069862369" x="2196" y="24.20714650688155" rx="4" ry="4" fill="black" />
    <rect width="8" height="97.13469373376188" x="2212" y="26.43265313311906" rx="4" ry="4" fill="black" />
    <rect width="8" height="97.72833939084724" x="2228" y="26.13583030457638" rx="4" ry="4" fill="black" />
    <rect width="8" height="97.90826667857014" x="2244" y="26.04586666071493" rx="4" ry="4" fill="black" />
    <rect width="8" height="102.90069657545018" x="2260" y="23.54965171227491" rx="4" ry="4" fill="black" />
    <rect width="8" height="101.18683404131025" x="2276" y="24.406582979344876" rx="4" ry="4" fill="black" />
    <rect width="8" height="105.33154085379407" x="2292" y="22.334229573102967" rx="4" ry="4" fill="black" />
    <rect width="8" height="106.70078899737992" x="2308" y="21.64960550131004" rx="4" ry="4" fill="black" />
    <rect width="8" height="109.03243096561802" x="2324" y="20.48378451719099" rx="4" ry="4" fill="black" />
    <rect width="8" height="90.28995312048387" x="2340" y="29.855023439758064" rx="4" ry="4" fill="black" />
    <rect width="8" height="100.77178720643165" x="2356" y="24.614106396784173" rx="4" ry="4" fill="black" />
    <rect width="8" height="8" x="2372" y="71" rx="4" ry="4" fill="black" />
    <rect width="8" height="8" x="2388" y="71" rx="4" ry="4" fill="black" />
  </g>
</svg>