<svg 
  baseProfile="tiny"
  preserveAspectRatio="true"
  version="1.2"
  viewBox="0 0 2400 150"
  height="100%" width="100%"
  xmlns="http://www.w3.org/2000/svg"
  xmlns:ev="http://www.w3.org/2001/xml-events"
  xmlns:xlink="http://www.w3.org/1999/xlink"
>
  <g>
    <rect width="8" height="107.5409307787262" x="4" y="21.229534610636897" rx="4" ry="4" fill="black" />
    <rect width="8" height="113.7786412232172" x="20" y="18.110679388391397" rx="4" ry="4" fill="black" />
    <rect width="8" height="122.55969814052905" x="36" y="13.720150929735475" rx="4" ry="4" fill="black" />
    <rect width="8" height="125.20943943272056" x="52" y="12.395280283639721" rx="4" ry="4" fill="black" />
    <rect width="8" height="123.92723694627655" x="68" y="13.036381526861724" rx="4" ry="4" fill="black" />
    <rect width="8" height="122.4022068997334" x="84" y="13.7988965501333" rx="4" ry="4" fill="black" />
    <rect width="8" height="118.35837506733154" x="100" y="15.820812466334232" rx="4" ry="4" fill="black" />
    <rect width="8" height="113.53529451260907" x="116" y="18.232352743695465" rx="4" ry="4" fill="black" />
    <rect width="8" height="110.75668979975421" x="132" y="19.621655100122894" rx="4" ry="4" fill="black" />
    <rect width="8" height="110.45676222223514" x="148" y="19.77161888888243" rx="4" ry="4" fill="black" />
    <rect width="8" height="109.69522801143621" x="164" y="20.152385994281893" rx="4" ry="4" fill="black" />
    <rect width="8" height="106.7242728825707" x="180" y="21.63786355871465" rx="4" ry="4" fill="black" />
    <rect width="8" height="107.5021857153695" x="196" y="21.248907142315247" rx="4" ry="4" fill="black" />
    <rect width="8" height="116.47266436795789" x="212" y="16.763667816021055" rx="4" ry="4" fill="black" />
    <rect width="8" height="109.65835480682694" x="228" y="20.170822596586532" rx="4" ry="4" fill="black" />
    <rect width="8" height="137.30268066483234" x="244" y="6.348659667583831" rx="4" ry="4" fill="black" />
    <rect width="8" height="132.42114201821624" x="260" y="8.789428990891878" rx="4" ry="4" fill="black" />
    <rect width="8" height="112.8860880500588" x="276" y="18.5569559749706" rx="4" ry="4" fill="black" />
    <rect width="8" height="143.41442682335412" x="292" y="3.29278658832294" rx="4" ry="4" fill="black" />
    <rect width="8" height="122.59091945505308" x="308" y="13.704540272473459" rx="4" ry="4" fill="black" />
    <rect width="8" height="107.87338836541802" x="324" y="21.06330581729099" rx="4" ry="4" fill="black" />
    <rect width="8" height="127.5734112380737" x="340" y="11.213294380963148" rx="4" ry="4" fill="black" />
    <rect width="8" height="112.19387959343429" x="356" y="18.903060203282855" rx="4" ry="4" fill="black" />
    <rect width="8" height="111.42227069057395" x="372" y="19.288864654713024" rx="4" ry="4" fill="black" />
    <rect width="8" height="118.60357358839437" x="388" y="15.698213205802816" rx="4" ry="4" fill="black" />
    <rect width="8" height="112.08585101718234" x="404" y="18.957074491408832" rx="4" ry="4" fill="black" />
    <rect width="8" height="121.56593923548701" x="420" y="14.217030382256496" rx="4" ry="4" fill="black" />
    <rect width="8" height="122.30948428879985" x="436" y="13.845257855600074" rx="4" ry="4" fill="black" />
    <rect width="8" height="125.70689323127381" x="452" y="12.146553384363095" rx="4" ry="4" fill="black" />
    <rect width="8" height="122.88909618727834" x="468" y="13.55545190636083" rx="4" ry="4" fill="black" />
    <rect width="8" height="114.29751142094554" x="484" y="17.85124428952723" rx="4" ry="4" fill="black" />
    <rect width="8" height="127.763078066486" x="500" y="11.118460966756999" rx="4" ry="4" fill="black" />
    <rect width="8" height="118.83380575728592" x="516" y="15.583097121357042" rx="4" ry="4" fill="black" />
    <rect width="8" height="97.58236378339353" x="532" y="26.208818108303234" rx="4" ry="4" fill="black" />
    <rect width="8" height="120.215217754751" x="548" y="14.892391122624502" rx="4" ry="4" fill="black" />
    <rect width="8" height="112.2991781123078" x="564" y="18.8504109438461" rx="4" ry="4" fill="black" />
    <rect width="8" height="100.5671471350776" x="580" y="24.716426432461198" rx="4" ry="4" fill="black" />
    <rect width="8" height="124.77910611501733" x="596" y="12.610446942491336" rx="4" ry="4" fill="black" />
    <rect width="8" height="41.78220871228093" x="612" y="54.10889564385954" rx="4" ry="4" fill="black" />
    <rect width="8" height="47.337181041903534" x="628" y="51.33140947904823" rx="4" ry="4" fill="black" />
    <rect width="8" height="49.203652895853104" x="644" y="50.398173552073445" rx="4" ry="4" fill="black" />
    <rect width="8" height="56.745326878674454" x="660" y="46.62733656066277" rx="4" ry="4" fill="black" />
    <rect width="8" height="68.01323685415606" x="676" y="40.99338157292197" rx="4" ry="4" fill="black" />
    <rect width="8" height="53.08000798261951" x="692" y="48.45999600869024" rx="4" ry="4" fill="black" />
    <rect width="8" height="45.45031588625812" x="708" y="52.27484205687094" rx="4" ry="4" fill="black" />
    <rect width="8" height="52.944674687480514" x="724" y="48.52766265625974" rx="4" ry="4" fill="black" />
    <rect width="8" height="51.86920767915046" x="740" y="49.06539616042477" rx="4" ry="4" fill="black" />
    <rect width="8" height="67.40913176851761" x="756" y="41.295434115741195" rx="4" ry="4" fill="black" />
    <rect width="8" height="51.849414990149896" x="772" y="49.07529250492505" rx="4" ry="4" fill="black" />
    <rect width="8" height="52.80812734782489" x="788" y="48.59593632608755" rx="4" ry="4" fill="black" />
    <rect width="8" height="71.41470513167046" x="804" y="39.29264743416477" rx="4" ry="4" fill="black" />
    <rect width="8" height="49.57101340945226" x="820" y="50.21449329527387" rx="4" ry="4" fill="black" />
    <rect width="8" height="68.91652683768788" x="836" y="40.54173658115606" rx="4" ry="4" fill="black" />
    <rect width="8" height="69.82633269922222" x="852" y="40.08683365038889" rx="4" ry="4" fill="black" />
    <rect width="8" height="78.59606077720109" x="868" y="35.701969611399456" rx="4" ry="4" fill="black" />
    <rect width="8" height="63.21619589366006" x="884" y="43.39190205316997" rx="4" ry="4" fill="black" />
    <rect width="8" height="65.31066962207692" x="900" y="42.34466518896154" rx="4" ry="4" fill="black" />
    <rect width="8" height="62.423780380555364" x="916" y="43.788109809722314" rx="4" ry="4" fill="black" />
    <rect width="8" height="62.332869609926625" x="932" y="43.833565195036684" rx="4" ry="4" fill="black" />
    <rect width="8" height="62.66655089419764" x="948" y="43.66672455290118" rx="4" ry="4" fill="black" />
    <rect width="8" height="111.81894693095646" x="964" y="19.09052653452177" rx="4" ry="4" fill="black" />
    <rect width="8" height="99.92950587567881" x="980" y="25.035247062160593" rx="4" ry="4" fill="black" />
    <rect width="8" height="121.1042270069546" x="996" y="14.447886496522699" rx="4" ry="4" fill="black" />
    <rect width="8" height="119.72188031037803" x="1012" y="15.139059844810987" rx="4" ry="4" fill="black" />
    <rect width="8" height="150" x="1028" y="0" rx="4" ry="4" fill="black" />
    <rect width="8" height="143.7422370608286" x="1044" y="3.128881469585707" rx="4" ry="4" fill="black" />
    <rect width="8" height="127.39192824511818" x="1060" y="11.30403587744091" rx="4" ry="4" fill="black" />
    <rect width="8" height="128.85684756975272" x="1076" y="10.571576215123642" rx="4" ry="4" fill="black" />
    <rect width="8" height="139.59010839093938" x="1092" y="5.204945804530311" rx="4" ry="4" fill="black" />
    <rect width="8" height="117.89670810612613" x="1108" y="16.051645946936937" rx="4" ry="4" fill="black" />
    <rect width="8" height="116.16015448735287" x="1124" y="16.919922756323565" rx="4" ry="4" fill="black" />
    <rect width="8" height="127.52864242149849" x="1140" y="11.235678789250755" rx="4" ry="4" fill="black" />
    <rect width="8" height="111.60181760004453" x="1156" y="19.199091199977737" rx="4" ry="4" fill="black" />
    <rect width="8" height="111.8154968305733" x="1172" y="19.092251584713352" rx="4" ry="4" fill="black" />
    <rect width="8" height="114.7405614781079" x="1188" y="17.629719260946047" rx="4" ry="4" fill="black" />
    <rect width="8" height="109.37659249392837" x="1204" y="20.311703753035815" rx="4" ry="4" fill="black" />
    <rect width="8" height="124.55026448412825" x="1220" y="12.724867757935876" rx="4" ry="4" fill="black" />
    <rect width="8" height="125.5097683055922" x="1236" y="12.245115847203898" rx="4" ry="4" fill="black" />
    <rect width="8" height="129.58180154616625" x="1252" y="10.209099226916877" rx="4" ry="4" fill="black" />
    <rect width="8" height="117.26053383719108" x="1268" y="16.369733081404462" rx="4" ry="4" fill="black" />
    <rect width="8" height="95.80939520844018" x="1284" y="27.09530239577991" rx="4" ry="4" fill="black" />
    <rect width="8" height="59.42541211628451" x="1300" y="45.28729394185774" rx="4" ry="4" fill="black" />
    <rect width="8" height="56.711186070680036" x="1316" y="46.64440696465998" rx="4" ry="4" fill="black" />
    <rect width="8" height="55.07315749137688" x="1332" y="47.463421254311555" rx="4" ry="4" fill="black" />
    <rect width="8" height="57.95827801297352" x="1348" y="46.02086099351324" rx="4" ry="4" fill="black" />
    <rect width="8" height="55.51502445199057" x="1364" y="47.242487774004715" rx="4" ry="4" fill="black" />
    <rect width="8" height="59.57932492436993" x="1380" y="45.210337537815036" rx="4" ry="4" fill="black" />
    <rect width="8" height="56.79727001409654" x="1396" y="46.60136499295173" rx="4" ry="4" fill="black" />
    <rect width="8" height="55.44735690801068" x="1412" y="47.27632154599466" rx="4" ry="4" fill="black" />
    <rect width="8" height="54.406553682618195" x="1428" y="47.7967231586909" rx="4" ry="4" fill="black" />
    <rect width="8" height="62.653756402824364" x="1444" y="43.673121798587815" rx="4" ry="4" fill="black" />
    <rect width="8" height="133.45061040685763" x="1460" y="8.274694796571183" rx="4" ry="4" fill="black" />
    <rect width="8" height="131.22941285766308" x="1476" y="9.38529357116846" rx="4" ry="4" fill="black" />
    <rect width="8" height="136.53538154696105" x="1492" y="6.732309226519476" rx="4" ry="4" fill="black" />
    <rect width="8" height="117.23377361652993" x="1508" y="16.383113191735035" rx="4" ry="4" fill="black" />
    <rect width="8" height="112.83905761751423" x="1524" y="18.580471191242886" rx="4" ry="4" fill="black" />
    <rect width="8" height="119.32670979727338" x="1540" y="15.33664510136331" rx="4" ry="4" fill="black" />
    <rect width="8" height="103.78920786936226" x="1556" y="23.10539606531887" rx="4" ry="4" fill="black" />
    <rect width="8" height="114.78390887278925" x="1572" y="17.608045563605373" rx="4" ry="4" fill="black" />
    <rect width="8" height="108.70673714932832" x="1588" y="20.64663142533584" rx="4" ry="4" fill="black" />
    <rect width="8" height="117.94000893898097" x="1604" y="16.029995530509517" rx="4" ry="4" fill="black" />
    <rect width="8" height="122.46375068876681" x="1620" y="13.768124655616596" rx="4" ry="4" fill="black" />
    <rect width="8" height="123.23215433309362" x="1636" y="13.383922833453191" rx="4" ry="4" fill="black" />
    <rect width="8" height="136.88905145185475" x="1652" y="6.555474274072623" rx="4" ry="4" fill="black" />
    <rect width="8" height="62.67659260400574" x="1668" y="43.661703697997126" rx="4" ry="4" fill="black" />
    <rect width="8" height="54.013553802273016" x="1684" y="47.993223098863496" rx="4" ry="4" fill="black" />
    <rect width="8" height="61.02556471049902" x="1700" y="44.48721764475049" rx="4" ry="4" fill="black" />
    <rect width="8" height="60.65873553654867" x="1716" y="44.67063223172566" rx="4" ry="4" fill="black" />
    <rect width="8" height="63.601419432800604" x="1732" y="43.199290283599694" rx="4" ry="4" fill="black" />
    <rect width="8" height="60.76130975074832" x="1748" y="44.61934512462584" rx="4" ry="4" fill="black" />
    <rect width="8" height="115.81979645314371" x="1764" y="17.090101773428145" rx="4" ry="4" fill="black" />
    <rect width="8" height="110.80998325800955" x="1780" y="19.595008370995224" rx="4" ry="4" fill="black" />
    <rect width="8" height="124.49562194335071" x="1796" y="12.752189028324644" rx="4" ry="4" fill="black" />
    <rect width="8" height="118.29370551351042" x="1812" y="15.853147243244791" rx="4" ry="4" fill="black" />
    <rect width="8" height="124.99158430702401" x="1828" y="12.504207846487994" rx="4" ry="4" fill="black" />
    <rect width="8" height="135.04029814874255" x="1844" y="7.479850925628725" rx="4" ry="4" fill="black" />
    <rect width="8" height="125.89414276417828" x="1860" y="12.052928617910858" rx="4" ry="4" fill="black" />
    <rect width="8" height="129.8791674314427" x="1876" y="10.060416284278645" rx="4" ry="4" fill="black" />
    <rect width="8" height="125.16979331243913" x="1892" y="12.415103343780437" rx="4" ry="4" fill="black" />
    <rect width="8" height="120.62327505819766" x="1908" y="14.688362470901168" rx="4" ry="4" fill="black" />
    <rect width="8" height="117.99747238118957" x="1924" y="16.001263809405216" rx="4" ry="4" fill="black" />
    <rect width="8" height="109.46194119557745" x="1940" y="20.269029402211274" rx="4" ry="4" fill="black" />
    <rect width="8" height="114.18486202759459" x="1956" y="17.907568986202705" rx="4" ry="4" fill="black" />
    <rect width="8" height="110.44451494231762" x="1972" y="19.777742528841188" rx="4" ry="4" fill="black" />
    <rect width="8" height="104.94189253203791" x="1988" y="22.529053733981044" rx="4" ry="4" fill="black" />
    <rect width="8" height="121.02345535215773" x="2004" y="14.488272323921137" rx="4" ry="4" fill="black" />
    <rect width="8" height="125.4592560051926" x="2020" y="12.2703719974037" rx="4" ry="4" fill="black" />
    <rect width="8" height="128.50323697940098" x="2036" y="10.74838151029951" rx="4" ry="4" fill="black" />
    <rect width="8" height="140.2878206247292" x="2052" y="4.856089687635404" rx="4" ry="4" fill="black" />
    <rect width="8" height="64.34449792594543" x="2068" y="42.827751037027284" rx="4" ry="4" fill="black" />
    <rect width="8" height="55.90166488085316" x="2084" y="47.04916755957342" rx="4" ry="4" fill="black" />
    <rect width="8" height="62.66387782624217" x="2100" y="43.668061086878915" rx="4" ry="4" fill="black" />
    <rect width="8" height="59.08169555541556" x="2116" y="45.45915222229222" rx="4" ry="4" fill="black" />
    <rect width="8" height="62.51494494419345" x="2132" y="43.74252752790328" rx="4" ry="4" fill="black" />
    <rect width="8" height="59.74152061811026" x="2148" y="45.12923969094487" rx="4" ry="4" fill="black" />
    <rect width="8" height="59.289502786986276" x="2164" y="45.35524860650686" rx="4" ry="4" fill="black" />
    <rect width="8" height="63.790981153655316" x="2180" y="43.104509423172345" rx="4" ry="4" fill="black" />
    <rect width="8" height="61.26994316225785" x="2196" y="44.36502841887108" rx="4" ry="4" fill="black" />
    <rect width="8" height="66.63902130640429" x="2212" y="41.680489346797856" rx="4" ry="4" fill="black" />
    <rect width="8" height="58.17005004931195" x="2228" y="45.91497497534402" rx="4" ry="4" fill="black" />
    <rect width="8" height="66.56388250298816" x="2244" y="41.71805874850592" rx="4" ry="4" fill="black" />
    <rect width="8" height="63.44481502479675" x="2260" y="43.27759248760162" rx="4" ry="4" fill="black" />
    <rect width="8" height="70.36659186319561" x="2276" y="39.816704068402196" rx="4" ry="4" fill="black" />
    <rect width="8" height="64.01891627759625" x="2292" y="42.990541861201876" rx="4" ry="4" fill="black" />
    <rect width="8" height="61.58915183092721" x="2308" y="44.205424084536396" rx="4" ry="4" fill="black" />
    <rect width="8" height="60.472209574747936" x="2324" y="44.76389521262603" rx="4" ry="4" fill="black" />
    <rect width="8" height="63.92441807472185" x="2340" y="43.03779096263908" rx="4" ry="4" fill="black" />
    <rect width="8" height="63.002910976954595" x="2356" y="43.4985445115227" rx="4" ry="4" fill="black" />
    <rect width="8" height="74.16241532097642" x="2372" y="37.91879233951179" rx="4" ry="4" fill="black" />
    <rect width="8" height="8" x="2388" y="71" rx="4" ry="4" fill="black" />
  </g>
</svg>