<svg 
  baseProfile="tiny"
  preserveAspectRatio="keep"
  version="1.2"
  viewBox="0 0 2400 150"
  height="100%" width="100%"
  xmlns="http://www.w3.org/2000/svg"
  xmlns:ev="http://www.w3.org/2001/xml-events"
  xmlns:xlink="http://www.w3.org/1999/xlink"
>
  <g>
    <rect width="8" height="100.27059987614244" x="4" y="24.86470006192878" rx="4" ry="4" fill="black" />
    <rect width="8" height="98.14478612663265" x="20" y="25.927606936683674" rx="4" ry="4" fill="black" />
    <rect width="8" height="112.26107805587517" x="36" y="18.869460972062413" rx="4" ry="4" fill="black" />
    <rect width="8" height="105.01463025422846" x="52" y="22.492684872885768" rx="4" ry="4" fill="black" />
    <rect width="8" height="101.30214976831562" x="68" y="24.348925115842192" rx="4" ry="4" fill="black" />
    <rect width="8" height="112.80996307721203" x="84" y="18.595018461393984" rx="4" ry="4" fill="black" />
    <rect width="8" height="122.27578577514994" x="100" y="13.86210711242503" rx="4" ry="4" fill="black" />
    <rect width="8" height="117.41279251530781" x="116" y="16.293603742346093" rx="4" ry="4" fill="black" />
    <rect width="8" height="106.88178361586752" x="132" y="21.55910819206624" rx="4" ry="4" fill="black" />
    <rect width="8" height="116.87193343706183" x="148" y="16.564033281469086" rx="4" ry="4" fill="black" />
    <rect width="8" height="140.9797880168477" x="164" y="4.510105991576154" rx="4" ry="4" fill="black" />
    <rect width="8" height="117.402054753919" x="180" y="16.2989726230405" rx="4" ry="4" fill="black" />
    <rect width="8" height="102.64502587397764" x="196" y="23.677487063011178" rx="4" ry="4" fill="black" />
    <rect width="8" height="112.60035727542459" x="212" y="18.699821362287707" rx="4" ry="4" fill="black" />
    <rect width="8" height="150" x="228" y="0" rx="4" ry="4" fill="black" />
    <rect width="8" height="108.35573669277676" x="244" y="20.82213165361162" rx="4" ry="4" fill="black" />
    <rect width="8" height="130.14526824041312" x="260" y="9.927365879793442" rx="4" ry="4" fill="black" />
    <rect width="8" height="108.27506752781" x="276" y="20.862466236095003" rx="4" ry="4" fill="black" />
    <rect width="8" height="128.15324149538904" x="292" y="10.92337925230548" rx="4" ry="4" fill="black" />
    <rect width="8" height="145.08998575911878" x="308" y="2.4550071204406123" rx="4" ry="4" fill="black" />
    <rect width="8" height="114.76466451871397" x="324" y="17.617667740643014" rx="4" ry="4" fill="black" />
    <rect width="8" height="101.54895230537363" x="340" y="24.225523847313184" rx="4" ry="4" fill="black" />
    <rect width="8" height="140.2635098982113" x="356" y="4.868245050894345" rx="4" ry="4" fill="black" />
    <rect width="8" height="128.9406554130493" x="372" y="10.529672293475343" rx="4" ry="4" fill="black" />
    <rect width="8" height="101.00146062609473" x="388" y="24.499269686952637" rx="4" ry="4" fill="black" />
    <rect width="8" height="104.34624860512089" x="404" y="22.826875697439554" rx="4" ry="4" fill="black" />
    <rect width="8" height="140.66102056309467" x="420" y="4.669489718452667" rx="4" ry="4" fill="black" />
    <rect width="8" height="125.79414404874015" x="436" y="12.102927975629925" rx="4" ry="4" fill="black" />
    <rect width="8" height="113.56670411613577" x="452" y="18.216647941932116" rx="4" ry="4" fill="black" />
    <rect width="8" height="109.42478800730021" x="468" y="20.287605996349896" rx="4" ry="4" fill="black" />
    <rect width="8" height="113.77403426899396" x="484" y="18.11298286550302" rx="4" ry="4" fill="black" />
    <rect width="8" height="117.86415880825967" x="500" y="16.067920595870163" rx="4" ry="4" fill="black" />
    <rect width="8" height="110.33280824790764" x="516" y="19.833595876046182" rx="4" ry="4" fill="black" />
    <rect width="8" height="106.4080765229671" x="532" y="21.795961738516453" rx="4" ry="4" fill="black" />
    <rect width="8" height="111.9680572359104" x="548" y="19.015971382044803" rx="4" ry="4" fill="black" />
    <rect width="8" height="137.08672602702717" x="564" y="6.456636986486416" rx="4" ry="4" fill="black" />
    <rect width="8" height="116.03793677208792" x="580" y="16.98103161395604" rx="4" ry="4" fill="black" />
    <rect width="8" height="110.20073048434364" x="596" y="19.89963475782818" rx="4" ry="4" fill="black" />
    <rect width="8" height="140.6970985062257" x="612" y="4.65145074688715" rx="4" ry="4" fill="black" />
    <rect width="8" height="129.7910710155226" x="628" y="10.104464492238705" rx="4" ry="4" fill="black" />
    <rect width="8" height="103.82196479545388" x="644" y="23.08901760227306" rx="4" ry="4" fill="black" />
    <rect width="8" height="113.00644011548327" x="660" y="18.496779942258364" rx="4" ry="4" fill="black" />
    <rect width="8" height="115.09906245503865" x="676" y="17.450468772480676" rx="4" ry="4" fill="black" />
    <rect width="8" height="105.40693694570201" x="692" y="22.296531527148993" rx="4" ry="4" fill="black" />
    <rect width="8" height="134.83368447305054" x="708" y="7.5831577634747305" rx="4" ry="4" fill="black" />
    <rect width="8" height="108.65819774135669" x="724" y="20.670901129321656" rx="4" ry="4" fill="black" />
    <rect width="8" height="126.06147811928588" x="740" y="11.96926094035706" rx="4" ry="4" fill="black" />
    <rect width="8" height="48.98785573138059" x="756" y="50.506072134309704" rx="4" ry="4" fill="black" />
    <rect width="8" height="45.96691211002456" x="772" y="52.01654394498772" rx="4" ry="4" fill="black" />
    <rect width="8" height="44.48510585737136" x="788" y="52.75744707131432" rx="4" ry="4" fill="black" />
    <rect width="8" height="53.659275829086994" x="804" y="48.1703620854565" rx="4" ry="4" fill="black" />
    <rect width="8" height="62.480786291906966" x="820" y="43.75960685404652" rx="4" ry="4" fill="black" />
    <rect width="8" height="49.13700274489949" x="836" y="50.431498627550255" rx="4" ry="4" fill="black" />
    <rect width="8" height="55.10571224973632" x="852" y="47.44714387513184" rx="4" ry="4" fill="black" />
    <rect width="8" height="61.85780524113164" x="868" y="44.07109737943418" rx="4" ry="4" fill="black" />
    <rect width="8" height="64.13062664741406" x="884" y="42.93468667629297" rx="4" ry="4" fill="black" />
    <rect width="8" height="71.37369463907058" x="900" y="39.31315268046471" rx="4" ry="4" fill="black" />
    <rect width="8" height="63.92038800362275" x="916" y="43.039805998188626" rx="4" ry="4" fill="black" />
    <rect width="8" height="49.82021599652467" x="932" y="50.08989200173767" rx="4" ry="4" fill="black" />
    <rect width="8" height="52.799322368861695" x="948" y="48.60033881556915" rx="4" ry="4" fill="black" />
    <rect width="8" height="77.06280612781164" x="964" y="36.46859693609418" rx="4" ry="4" fill="black" />
    <rect width="8" height="101.1243131573017" x="980" y="24.43784342134915" rx="4" ry="4" fill="black" />
    <rect width="8" height="125.00932691519111" x="996" y="12.495336542404445" rx="4" ry="4" fill="black" />
    <rect width="8" height="106.38890335025332" x="1012" y="21.805548324873342" rx="4" ry="4" fill="black" />
    <rect width="8" height="119.2119068902421" x="1028" y="15.394046554878948" rx="4" ry="4" fill="black" />
    <rect width="8" height="113.27824321277097" x="1044" y="18.360878393614513" rx="4" ry="4" fill="black" />
    <rect width="8" height="119.6254492986534" x="1060" y="15.187275350673303" rx="4" ry="4" fill="black" />
    <rect width="8" height="103.4479873464658" x="1076" y="23.276006326767103" rx="4" ry="4" fill="black" />
    <rect width="8" height="115.15842549674772" x="1092" y="17.420787251626138" rx="4" ry="4" fill="black" />
    <rect width="8" height="101.00615228532342" x="1108" y="24.496923857338288" rx="4" ry="4" fill="black" />
    <rect width="8" height="127.11031930044467" x="1124" y="11.444840349777664" rx="4" ry="4" fill="black" />
    <rect width="8" height="102.94730114155799" x="1140" y="23.526349429221007" rx="4" ry="4" fill="black" />
    <rect width="8" height="111.26790691471724" x="1156" y="19.366046542641378" rx="4" ry="4" fill="black" />
    <rect width="8" height="104.37439919841732" x="1172" y="22.81280040079134" rx="4" ry="4" fill="black" />
    <rect width="8" height="124.65341961387688" x="1188" y="12.673290193061561" rx="4" ry="4" fill="black" />
    <rect width="8" height="98.7333162422806" x="1204" y="25.633341878859703" rx="4" ry="4" fill="black" />
    <rect width="8" height="124.03100296672942" x="1220" y="12.984498516635291" rx="4" ry="4" fill="black" />
    <rect width="8" height="122.36913516212654" x="1236" y="13.81543241893673" rx="4" ry="4" fill="black" />
    <rect width="8" height="121.51444805066407" x="1252" y="14.242775974667964" rx="4" ry="4" fill="black" />
    <rect width="8" height="99.76507376976265" x="1268" y="25.117463115118674" rx="4" ry="4" fill="black" />
    <rect width="8" height="118.99008002470661" x="1284" y="15.504959987646693" rx="4" ry="4" fill="black" />
    <rect width="8" height="113.91357193045529" x="1300" y="18.043214034772355" rx="4" ry="4" fill="black" />
    <rect width="8" height="120.74538542133186" x="1316" y="14.62730728933407" rx="4" ry="4" fill="black" />
    <rect width="8" height="109.66172811606168" x="1332" y="20.16913594196916" rx="4" ry="4" fill="black" />
    <rect width="8" height="107.96207276275732" x="1348" y="21.018963618621342" rx="4" ry="4" fill="black" />
    <rect width="8" height="117.53347496675445" x="1364" y="16.233262516622773" rx="4" ry="4" fill="black" />
    <rect width="8" height="121.6414336630913" x="1380" y="14.179283168454347" rx="4" ry="4" fill="black" />
    <rect width="8" height="108.45032733837337" x="1396" y="20.774836330813315" rx="4" ry="4" fill="black" />
    <rect width="8" height="108.53762200285351" x="1412" y="20.731188998573245" rx="4" ry="4" fill="black" />
    <rect width="8" height="125.34731815541801" x="1428" y="12.326340922290996" rx="4" ry="4" fill="black" />
    <rect width="8" height="125.34295407218566" x="1444" y="12.328522963907169" rx="4" ry="4" fill="black" />
    <rect width="8" height="108.96472625799588" x="1460" y="20.51763687100206" rx="4" ry="4" fill="black" />
    <rect width="8" height="109.79420156773311" x="1476" y="20.102899216133444" rx="4" ry="4" fill="black" />
    <rect width="8" height="84.04710964739934" x="1492" y="32.97644517630033" rx="4" ry="4" fill="black" />
    <rect width="8" height="119.96458120287221" x="1508" y="15.017709398563895" rx="4" ry="4" fill="black" />
    <rect width="8" height="100.12397264806847" x="1524" y="24.938013675965763" rx="4" ry="4" fill="black" />
    <rect width="8" height="110.48858452711274" x="1540" y="19.755707736443632" rx="4" ry="4" fill="black" />
    <rect width="8" height="117.97917675532439" x="1556" y="16.010411622337806" rx="4" ry="4" fill="black" />
    <rect width="8" height="124.87355326720461" x="1572" y="12.563223366397693" rx="4" ry="4" fill="black" />
    <rect width="8" height="112.58686571478793" x="1588" y="18.706567142606033" rx="4" ry="4" fill="black" />
    <rect width="8" height="108.21793050931547" x="1604" y="20.891034745342267" rx="4" ry="4" fill="black" />
    <rect width="8" height="126.39613714781774" x="1620" y="11.80193142609113" rx="4" ry="4" fill="black" />
    <rect width="8" height="118.6432163405477" x="1636" y="15.678391829726152" rx="4" ry="4" fill="black" />
    <rect width="8" height="100.80140853097305" x="1652" y="24.599295734513476" rx="4" ry="4" fill="black" />
    <rect width="8" height="105.08780977478794" x="1668" y="22.45609511260603" rx="4" ry="4" fill="black" />
    <rect width="8" height="110.647765558793" x="1684" y="19.6761172206035" rx="4" ry="4" fill="black" />
    <rect width="8" height="123.43434292847493" x="1700" y="13.282828535762533" rx="4" ry="4" fill="black" />
    <rect width="8" height="136.43867344685194" x="1716" y="6.780663276574032" rx="4" ry="4" fill="black" />
    <rect width="8" height="110.3644625170874" x="1732" y="19.817768741456298" rx="4" ry="4" fill="black" />
    <rect width="8" height="116.83145236411453" x="1748" y="16.584273817942737" rx="4" ry="4" fill="black" />
    <rect width="8" height="127.88075907245229" x="1764" y="11.059620463773854" rx="4" ry="4" fill="black" />
    <rect width="8" height="101.31503053403047" x="1780" y="24.342484732984765" rx="4" ry="4" fill="black" />
    <rect width="8" height="119.67842078656084" x="1796" y="15.160789606719582" rx="4" ry="4" fill="black" />
    <rect width="8" height="109.53199605726577" x="1812" y="20.234001971367114" rx="4" ry="4" fill="black" />
    <rect width="8" height="120.01655498453978" x="1828" y="14.99172250773011" rx="4" ry="4" fill="black" />
    <rect width="8" height="102.30883377802483" x="1844" y="23.845583110987583" rx="4" ry="4" fill="black" />
    <rect width="8" height="102.81332219586966" x="1860" y="23.59333890206517" rx="4" ry="4" fill="black" />
    <rect width="8" height="121.42899353333996" x="1876" y="14.285503233330019" rx="4" ry="4" fill="black" />
    <rect width="8" height="129.80597868306106" x="1892" y="10.097010658469472" rx="4" ry="4" fill="black" />
    <rect width="8" height="102.83604612487969" x="1908" y="23.581976937560157" rx="4" ry="4" fill="black" />
    <rect width="8" height="107.25062315230497" x="1924" y="21.374688423847516" rx="4" ry="4" fill="black" />
    <rect width="8" height="115.16988947364113" x="1940" y="17.415055263179433" rx="4" ry="4" fill="black" />
    <rect width="8" height="136.55324827791375" x="1956" y="6.723375861043124" rx="4" ry="4" fill="black" />
    <rect width="8" height="106.3565297083793" x="1972" y="21.82173514581035" rx="4" ry="4" fill="black" />
    <rect width="8" height="109.68148230803097" x="1988" y="20.159258845984517" rx="4" ry="4" fill="black" />
    <rect width="8" height="113.64113024899203" x="2004" y="18.179434875503986" rx="4" ry="4" fill="black" />
    <rect width="8" height="119.5663084577428" x="2020" y="15.216845771128597" rx="4" ry="4" fill="black" />
    <rect width="8" height="105.85097163009117" x="2036" y="22.074514184954417" rx="4" ry="4" fill="black" />
    <rect width="8" height="118.1364349132687" x="2052" y="15.93178254336565" rx="4" ry="4" fill="black" />
    <rect width="8" height="107.96971377046896" x="2068" y="21.01514311476552" rx="4" ry="4" fill="black" />
    <rect width="8" height="120.99073160510834" x="2084" y="14.504634197445831" rx="4" ry="4" fill="black" />
    <rect width="8" height="109.3258323788234" x="2100" y="20.337083810588297" rx="4" ry="4" fill="black" />
    <rect width="8" height="115.33864786627262" x="2116" y="17.33067606686369" rx="4" ry="4" fill="black" />
    <rect width="8" height="114.37653474733122" x="2132" y="17.81173262633439" rx="4" ry="4" fill="black" />
    <rect width="8" height="124.66534014198542" x="2148" y="12.667329929007288" rx="4" ry="4" fill="black" />
    <rect width="8" height="104.84821582790035" x="2164" y="22.575892086049826" rx="4" ry="4" fill="black" />
    <rect width="8" height="119.2202013674716" x="2180" y="15.389899316264199" rx="4" ry="4" fill="black" />
    <rect width="8" height="112.36807768422759" x="2196" y="18.815961157886207" rx="4" ry="4" fill="black" />
    <rect width="8" height="122.69385050948527" x="2212" y="13.653074745257364" rx="4" ry="4" fill="black" />
    <rect width="8" height="126.03142346790561" x="2228" y="11.984288266047194" rx="4" ry="4" fill="black" />
    <rect width="8" height="107.08262299688789" x="2244" y="21.458688501556054" rx="4" ry="4" fill="black" />
    <rect width="8" height="113.01715718855671" x="2260" y="18.491421405721645" rx="4" ry="4" fill="black" />
    <rect width="8" height="113.66230735675984" x="2276" y="18.16884632162008" rx="4" ry="4" fill="black" />
    <rect width="8" height="79.0296562737272" x="2292" y="35.4851718631364" rx="4" ry="4" fill="black" />
    <rect width="8" height="71.40296544215369" x="2308" y="39.29851727892316" rx="4" ry="4" fill="black" />
    <rect width="8" height="60.22035980311556" x="2324" y="44.88982009844222" rx="4" ry="4" fill="black" />
    <rect width="8" height="96.07256192891856" x="2340" y="26.96371903554072" rx="4" ry="4" fill="black" />
    <rect width="8" height="104.52198289611003" x="2356" y="22.739008551944984" rx="4" ry="4" fill="black" />
    <rect width="8" height="34.663954029815564" x="2372" y="57.66802298509222" rx="4" ry="4" fill="black" />
    <rect width="8" height="8" x="2388" y="71" rx="4" ry="4" fill="black" />
  </g>
</svg>