<svg 
  baseProfile="tiny"
  preserveAspectRatio="keep"
  version="1.2"
  viewBox="0 0 2400 150"
  height="100%" width="100%"
  xmlns="http://www.w3.org/2000/svg"
  xmlns:ev="http://www.w3.org/2001/xml-events"
  xmlns:xlink="http://www.w3.org/1999/xlink"
>
  <g>
    <rect width="8" height="95.48404372398736" x="4" y="27.257978138006322" rx="4" ry="4" fill="black" />
    <rect width="8" height="98.45182545603967" x="20" y="25.774087271980164" rx="4" ry="4" fill="black" />
    <rect width="8" height="93.56983047028575" x="36" y="28.215084764857124" rx="4" ry="4" fill="black" />
    <rect width="8" height="120.25234785905646" x="52" y="14.873826070471772" rx="4" ry="4" fill="black" />
    <rect width="8" height="91.41191388901517" x="68" y="29.294043055492416" rx="4" ry="4" fill="black" />
    <rect width="8" height="90.13347817695382" x="84" y="29.933260911523092" rx="4" ry="4" fill="black" />
    <rect width="8" height="111.8176523130765" x="100" y="19.091173843461753" rx="4" ry="4" fill="black" />
    <rect width="8" height="95.6462652915537" x="116" y="27.17686735422315" rx="4" ry="4" fill="black" />
    <rect width="8" height="88.18945189600386" x="132" y="30.90527405199807" rx="4" ry="4" fill="black" />
    <rect width="8" height="104.05412193517768" x="148" y="22.972939032411162" rx="4" ry="4" fill="black" />
    <rect width="8" height="118.95272278351356" x="164" y="15.523638608243218" rx="4" ry="4" fill="black" />
    <rect width="8" height="93.65476689850081" x="180" y="28.172616550749595" rx="4" ry="4" fill="black" />
    <rect width="8" height="91.77365476157865" x="196" y="29.113172619210673" rx="4" ry="4" fill="black" />
    <rect width="8" height="110.25925188917354" x="212" y="19.87037405541323" rx="4" ry="4" fill="black" />
    <rect width="8" height="108.93407168774344" x="228" y="20.53296415612828" rx="4" ry="4" fill="black" />
    <rect width="8" height="82.11790075919846" x="244" y="33.94104962040077" rx="4" ry="4" fill="black" />
    <rect width="8" height="87.60777523556821" x="260" y="31.196112382215894" rx="4" ry="4" fill="black" />
    <rect width="8" height="116.2122602544101" x="276" y="16.89386987279495" rx="4" ry="4" fill="black" />
    <rect width="8" height="97.62814841185404" x="292" y="26.18592579407298" rx="4" ry="4" fill="black" />
    <rect width="8" height="93.1924965669664" x="308" y="28.4037517165168" rx="4" ry="4" fill="black" />
    <rect width="8" height="96.78063920282504" x="324" y="26.60968039858748" rx="4" ry="4" fill="black" />
    <rect width="8" height="116.50246813457387" x="340" y="16.748765932713063" rx="4" ry="4" fill="black" />
    <rect width="8" height="94.13592515208313" x="356" y="27.932037423958434" rx="4" ry="4" fill="black" />
    <rect width="8" height="89.7350376123786" x="372" y="30.132481193810698" rx="4" ry="4" fill="black" />
    <rect width="8" height="114.04739775780678" x="388" y="17.97630112109661" rx="4" ry="4" fill="black" />
    <rect width="8" height="92.66547453918936" x="404" y="28.66726273040532" rx="4" ry="4" fill="black" />
    <rect width="8" height="103.17606045156107" x="420" y="23.411969774219465" rx="4" ry="4" fill="black" />
    <rect width="8" height="107.81972475985013" x="436" y="21.090137620074934" rx="4" ry="4" fill="black" />
    <rect width="8" height="135.0097670283439" x="452" y="7.495116485828049" rx="4" ry="4" fill="black" />
    <rect width="8" height="128.37857725779477" x="468" y="10.810711371102613" rx="4" ry="4" fill="black" />
    <rect width="8" height="90.00249254322736" x="484" y="29.99875372838632" rx="4" ry="4" fill="black" />
    <rect width="8" height="114.49340544181882" x="500" y="17.75329727909059" rx="4" ry="4" fill="black" />
    <rect width="8" height="93.10774667540161" x="516" y="28.446126662299193" rx="4" ry="4" fill="black" />
    <rect width="8" height="103.74154148427466" x="532" y="23.12922925786267" rx="4" ry="4" fill="black" />
    <rect width="8" height="104.76382492652223" x="548" y="22.618087536738884" rx="4" ry="4" fill="black" />
    <rect width="8" height="143.93954779651568" x="564" y="3.0302261017421586" rx="4" ry="4" fill="black" />
    <rect width="8" height="104.34658195776198" x="580" y="22.826709021119008" rx="4" ry="4" fill="black" />
    <rect width="8" height="102.50286182310215" x="596" y="23.748569088448924" rx="4" ry="4" fill="black" />
    <rect width="8" height="111.77087359627976" x="612" y="19.114563201860122" rx="4" ry="4" fill="black" />
    <rect width="8" height="117.46425641852674" x="628" y="16.267871790736628" rx="4" ry="4" fill="black" />
    <rect width="8" height="90.74345582364069" x="644" y="29.628272088179656" rx="4" ry="4" fill="black" />
    <rect width="8" height="85.37792983892056" x="660" y="32.31103508053972" rx="4" ry="4" fill="black" />
    <rect width="8" height="96.82441903505051" x="676" y="26.587790482474745" rx="4" ry="4" fill="black" />
    <rect width="8" height="43.49699885161688" x="692" y="53.25150057419156" rx="4" ry="4" fill="black" />
    <rect width="8" height="31.434325300661257" x="708" y="59.28283734966937" rx="4" ry="4" fill="black" />
    <rect width="8" height="22.1247163050091" x="724" y="63.93764184749545" rx="4" ry="4" fill="black" />
    <rect width="8" height="32.49701731739183" x="740" y="58.75149134130409" rx="4" ry="4" fill="black" />
    <rect width="8" height="23.67509495862734" x="756" y="63.16245252068633" rx="4" ry="4" fill="black" />
    <rect width="8" height="35.60780655266761" x="772" y="57.196096723666194" rx="4" ry="4" fill="black" />
    <rect width="8" height="25.77761823926114" x="788" y="62.11119088036943" rx="4" ry="4" fill="black" />
    <rect width="8" height="45.91069814164731" x="804" y="52.04465092917634" rx="4" ry="4" fill="black" />
    <rect width="8" height="37.063480797579075" x="820" y="56.46825960121046" rx="4" ry="4" fill="black" />
    <rect width="8" height="35.77014503386005" x="836" y="57.11492748306998" rx="4" ry="4" fill="black" />
    <rect width="8" height="29.90644393023013" x="852" y="60.04677803488494" rx="4" ry="4" fill="black" />
    <rect width="8" height="38.69936798692809" x="868" y="55.65031600653596" rx="4" ry="4" fill="black" />
    <rect width="8" height="30.35736366435176" x="884" y="59.82131816782412" rx="4" ry="4" fill="black" />
    <rect width="8" height="42.53637532744967" x="900" y="53.73181233627517" rx="4" ry="4" fill="black" />
    <rect width="8" height="47.515357515447754" x="916" y="51.24232124227612" rx="4" ry="4" fill="black" />
    <rect width="8" height="29.891894328396152" x="932" y="60.054052835801926" rx="4" ry="4" fill="black" />
    <rect width="8" height="39.92681118796712" x="948" y="55.03659440601644" rx="4" ry="4" fill="black" />
    <rect width="8" height="30.662935596468266" x="964" y="59.66853220176587" rx="4" ry="4" fill="black" />
    <rect width="8" height="38.278827502767065" x="980" y="55.86058624861647" rx="4" ry="4" fill="black" />
    <rect width="8" height="31.950283670053526" x="996" y="59.02485816497324" rx="4" ry="4" fill="black" />
    <rect width="8" height="46.778299739262586" x="1012" y="51.6108501303687" rx="4" ry="4" fill="black" />
    <rect width="8" height="38.90821607089226" x="1028" y="55.545891964553874" rx="4" ry="4" fill="black" />
    <rect width="8" height="45.503718578252915" x="1044" y="52.24814071087354" rx="4" ry="4" fill="black" />
    <rect width="8" height="41.93152064244786" x="1060" y="54.034239678776075" rx="4" ry="4" fill="black" />
    <rect width="8" height="44.58993712949547" x="1076" y="52.705031435252266" rx="4" ry="4" fill="black" />
    <rect width="8" height="39.61369208096116" x="1092" y="55.19315395951942" rx="4" ry="4" fill="black" />
    <rect width="8" height="78.35061778590456" x="1108" y="35.82469110704772" rx="4" ry="4" fill="black" />
    <rect width="8" height="61.29180886358836" x="1124" y="44.35409556820582" rx="4" ry="4" fill="black" />
    <rect width="8" height="65.5412937525822" x="1140" y="42.2293531237089" rx="4" ry="4" fill="black" />
    <rect width="8" height="56.92062411476502" x="1156" y="46.53968794261749" rx="4" ry="4" fill="black" />
    <rect width="8" height="61.96381714298833" x="1172" y="44.018091428505834" rx="4" ry="4" fill="black" />
    <rect width="8" height="70.3688565884113" x="1188" y="39.81557170579435" rx="4" ry="4" fill="black" />
    <rect width="8" height="68.25942808685622" x="1204" y="40.87028595657189" rx="4" ry="4" fill="black" />
    <rect width="8" height="78.43330417050299" x="1220" y="35.783347914748504" rx="4" ry="4" fill="black" />
    <rect width="8" height="85.56825337316427" x="1236" y="32.215873313417866" rx="4" ry="4" fill="black" />
    <rect width="8" height="75.37483208276574" x="1252" y="37.31258395861713" rx="4" ry="4" fill="black" />
    <rect width="8" height="67.84710714966072" x="1268" y="41.07644642516964" rx="4" ry="4" fill="black" />
    <rect width="8" height="79.23732194232328" x="1284" y="35.38133902883836" rx="4" ry="4" fill="black" />
    <rect width="8" height="87.23900667106568" x="1300" y="31.38049666446716" rx="4" ry="4" fill="black" />
    <rect width="8" height="79.31909127648139" x="1316" y="35.340454361759306" rx="4" ry="4" fill="black" />
    <rect width="8" height="85.86106908378959" x="1332" y="32.069465458105206" rx="4" ry="4" fill="black" />
    <rect width="8" height="73.78768207572091" x="1348" y="38.106158962139546" rx="4" ry="4" fill="black" />
    <rect width="8" height="69.91734240076414" x="1364" y="40.04132879961793" rx="4" ry="4" fill="black" />
    <rect width="8" height="76.07108226961931" x="1380" y="36.964458865190345" rx="4" ry="4" fill="black" />
    <rect width="8" height="85.08587607692542" x="1396" y="32.45706196153729" rx="4" ry="4" fill="black" />
    <rect width="8" height="89.30128596130346" x="1412" y="30.34935701934827" rx="4" ry="4" fill="black" />
    <rect width="8" height="98.31789501334171" x="1428" y="25.841052493329144" rx="4" ry="4" fill="black" />
    <rect width="8" height="68.19421133219436" x="1444" y="40.90289433390282" rx="4" ry="4" fill="black" />
    <rect width="8" height="77.06533919883748" x="1460" y="36.46733040058126" rx="4" ry="4" fill="black" />
    <rect width="8" height="81.14931450554808" x="1476" y="34.42534274722596" rx="4" ry="4" fill="black" />
    <rect width="8" height="75.5278308303075" x="1492" y="37.23608458484625" rx="4" ry="4" fill="black" />
    <rect width="8" height="47.11833695736531" x="1508" y="51.44083152131735" rx="4" ry="4" fill="black" />
    <rect width="8" height="49.079212983451164" x="1524" y="50.46039350827442" rx="4" ry="4" fill="black" />
    <rect width="8" height="39.53953289496949" x="1540" y="55.23023355251526" rx="4" ry="4" fill="black" />
    <rect width="8" height="98.161247210526" x="1556" y="25.919376394737" rx="4" ry="4" fill="black" />
    <rect width="8" height="88.80723942086514" x="1572" y="30.596380289567428" rx="4" ry="4" fill="black" />
    <rect width="8" height="117.18799685643457" x="1588" y="16.406001571782717" rx="4" ry="4" fill="black" />
    <rect width="8" height="95.30054233349031" x="1604" y="27.349728833254844" rx="4" ry="4" fill="black" />
    <rect width="8" height="108.08105405816472" x="1620" y="20.959472970917638" rx="4" ry="4" fill="black" />
    <rect width="8" height="119.00839662810212" x="1636" y="15.49580168594894" rx="4" ry="4" fill="black" />
    <rect width="8" height="117.43559655015866" x="1652" y="16.282201724920668" rx="4" ry="4" fill="black" />
    <rect width="8" height="123.84764956526257" x="1668" y="13.076175217368714" rx="4" ry="4" fill="black" />
    <rect width="8" height="98.1195263259458" x="1684" y="25.9402368370271" rx="4" ry="4" fill="black" />
    <rect width="8" height="122.34375309340544" x="1700" y="13.82812345329728" rx="4" ry="4" fill="black" />
    <rect width="8" height="96.23804285904228" x="1716" y="26.88097857047886" rx="4" ry="4" fill="black" />
    <rect width="8" height="113.03157585817078" x="1732" y="18.48421207091461" rx="4" ry="4" fill="black" />
    <rect width="8" height="110.19395099211594" x="1748" y="19.903024503942028" rx="4" ry="4" fill="black" />
    <rect width="8" height="139.3626872800499" x="1764" y="5.318656359975051" rx="4" ry="4" fill="black" />
    <rect width="8" height="112.54427723262707" x="1780" y="18.727861383686466" rx="4" ry="4" fill="black" />
    <rect width="8" height="119.72640457680238" x="1796" y="15.13679771159881" rx="4" ry="4" fill="black" />
    <rect width="8" height="119.9445283879649" x="1812" y="15.027735806017553" rx="4" ry="4" fill="black" />
    <rect width="8" height="120.03795548357427" x="1828" y="14.981022258212867" rx="4" ry="4" fill="black" />
    <rect width="8" height="106.07938675364514" x="1844" y="21.96030662317743" rx="4" ry="4" fill="black" />
    <rect width="8" height="119.94531591585267" x="1860" y="15.027342042073663" rx="4" ry="4" fill="black" />
    <rect width="8" height="118.72233405153855" x="1876" y="15.638832974230723" rx="4" ry="4" fill="black" />
    <rect width="8" height="115.9569064977587" x="1892" y="17.021546751120653" rx="4" ry="4" fill="black" />
    <rect width="8" height="96.82326873984742" x="1908" y="26.58836563007629" rx="4" ry="4" fill="black" />
    <rect width="8" height="120.17734115373806" x="1924" y="14.911329423130972" rx="4" ry="4" fill="black" />
    <rect width="8" height="146.27594818677971" x="1940" y="1.8620259066101426" rx="4" ry="4" fill="black" />
    <rect width="8" height="133.83274500282846" x="1956" y="8.08362749858577" rx="4" ry="4" fill="black" />
    <rect width="8" height="105.80882137298453" x="1972" y="22.095589313507737" rx="4" ry="4" fill="black" />
    <rect width="8" height="145.58981007779784" x="1988" y="2.205094961101082" rx="4" ry="4" fill="black" />
    <rect width="8" height="106.1603016450239" x="2004" y="21.919849177488047" rx="4" ry="4" fill="black" />
    <rect width="8" height="107.48129540565789" x="2020" y="21.259352297171056" rx="4" ry="4" fill="black" />
    <rect width="8" height="114.6418499603573" x="2036" y="17.679075019821347" rx="4" ry="4" fill="black" />
    <rect width="8" height="136.75981594981377" x="2052" y="6.620092025093115" rx="4" ry="4" fill="black" />
    <rect width="8" height="119.53127187763351" x="2068" y="15.234364061183243" rx="4" ry="4" fill="black" />
    <rect width="8" height="116.40315996123132" x="2084" y="16.798420019384338" rx="4" ry="4" fill="black" />
    <rect width="8" height="121.55592156632571" x="2100" y="14.222039216837146" rx="4" ry="4" fill="black" />
    <rect width="8" height="104.9187730791785" x="2116" y="22.540613460410754" rx="4" ry="4" fill="black" />
    <rect width="8" height="110.32018048379092" x="2132" y="19.83990975810454" rx="4" ry="4" fill="black" />
    <rect width="8" height="108.92102431985867" x="2148" y="20.539487840070663" rx="4" ry="4" fill="black" />
    <rect width="8" height="150" x="2164" y="0" rx="4" ry="4" fill="black" />
    <rect width="8" height="105.36549981466676" x="2180" y="22.31725009266662" rx="4" ry="4" fill="black" />
    <rect width="8" height="105.04688200109611" x="2196" y="22.476558999451946" rx="4" ry="4" fill="black" />
    <rect width="8" height="34.72057417621198" x="2212" y="57.63971291189401" rx="4" ry="4" fill="black" />
    <rect width="8" height="28.90598954791348" x="2228" y="60.54700522604326" rx="4" ry="4" fill="black" />
    <rect width="8" height="40.40892446570708" x="2244" y="54.795537767146456" rx="4" ry="4" fill="black" />
    <rect width="8" height="30.136419450115856" x="2260" y="59.931790274942074" rx="4" ry="4" fill="black" />
    <rect width="8" height="36.65379822818505" x="2276" y="56.67310088590747" rx="4" ry="4" fill="black" />
    <rect width="8" height="30.581443741902486" x="2292" y="59.709278129048755" rx="4" ry="4" fill="black" />
    <rect width="8" height="30.310712718850887" x="2308" y="59.84464364057456" rx="4" ry="4" fill="black" />
    <rect width="8" height="16.519638963707806" x="2324" y="66.7401805181461" rx="4" ry="4" fill="black" />
    <rect width="8" height="8" x="2340" y="71" rx="4" ry="4" fill="black" />
    <rect width="8" height="8" x="2356" y="71" rx="4" ry="4" fill="black" />
    <rect width="8" height="8" x="2372" y="71" rx="4" ry="4" fill="black" />
    <rect width="8" height="8" x="2388" y="71" rx="4" ry="4" fill="black" />
  </g>
</svg>