<svg 
  baseProfile="tiny"
  preserveAspectRatio="keep"
  version="1.2"
  viewBox="0 0 2400 150"
  height="100%" width="100%"
  xmlns="http://www.w3.org/2000/svg"
  xmlns:ev="http://www.w3.org/2001/xml-events"
  xmlns:xlink="http://www.w3.org/1999/xlink"
>
  <g>
    <rect width="8" height="57.520935071220215" x="4" y="46.239532464389896" rx="4" ry="4" fill="black" />
    <rect width="8" height="59.36159491517033" x="20" y="45.319202542414835" rx="4" ry="4" fill="black" />
    <rect width="8" height="50.78389649921051" x="36" y="49.60805175039474" rx="4" ry="4" fill="black" />
    <rect width="8" height="124.69169934280664" x="52" y="12.654150328596678" rx="4" ry="4" fill="black" />
    <rect width="8" height="55.63182296112062" x="68" y="47.18408851943969" rx="4" ry="4" fill="black" />
    <rect width="8" height="44.659413549763414" x="84" y="52.67029322511829" rx="4" ry="4" fill="black" />
    <rect width="8" height="99.77605503191714" x="100" y="25.11197248404143" rx="4" ry="4" fill="black" />
    <rect width="8" height="49.70645671175565" x="116" y="50.146771644122175" rx="4" ry="4" fill="black" />
    <rect width="8" height="53.94074303466702" x="132" y="48.02962848266649" rx="4" ry="4" fill="black" />
    <rect width="8" height="130.68410579964853" x="148" y="9.657947100175733" rx="4" ry="4" fill="black" />
    <rect width="8" height="50.22097219165428" x="164" y="49.88951390417286" rx="4" ry="4" fill="black" />
    <rect width="8" height="83.11341277690518" x="180" y="33.44329361154741" rx="4" ry="4" fill="black" />
    <rect width="8" height="105.45589283689857" x="196" y="22.272053581550715" rx="4" ry="4" fill="black" />
    <rect width="8" height="104.41342700947031" x="212" y="22.793286495264844" rx="4" ry="4" fill="black" />
    <rect width="8" height="115.98907208883358" x="228" y="17.00546395558321" rx="4" ry="4" fill="black" />
    <rect width="8" height="100.49559717280843" x="244" y="24.752201413595785" rx="4" ry="4" fill="black" />
    <rect width="8" height="98.20362745843843" x="260" y="25.898186270780784" rx="4" ry="4" fill="black" />
    <rect width="8" height="132.3034591968311" x="276" y="8.848270401584443" rx="4" ry="4" fill="black" />
    <rect width="8" height="112.4211396739943" x="292" y="18.789430163002848" rx="4" ry="4" fill="black" />
    <rect width="8" height="110.8676534733497" x="308" y="19.566173263325148" rx="4" ry="4" fill="black" />
    <rect width="8" height="150" x="324" y="0" rx="4" ry="4" fill="black" />
    <rect width="8" height="108.19590170933739" x="340" y="20.902049145331304" rx="4" ry="4" fill="black" />
    <rect width="8" height="107.41512380383462" x="356" y="21.29243809808269" rx="4" ry="4" fill="black" />
    <rect width="8" height="117.90508910092471" x="372" y="16.047455449537644" rx="4" ry="4" fill="black" />
    <rect width="8" height="105.50868894302752" x="388" y="22.24565552848624" rx="4" ry="4" fill="black" />
    <rect width="8" height="116.5965896450816" x="404" y="16.701705177459203" rx="4" ry="4" fill="black" />
    <rect width="8" height="115.19408919905419" x="420" y="17.402955400472905" rx="4" ry="4" fill="black" />
    <rect width="8" height="113.1574896844785" x="436" y="18.421255157760747" rx="4" ry="4" fill="black" />
    <rect width="8" height="128.92852990818426" x="452" y="10.53573504590787" rx="4" ry="4" fill="black" />
    <rect width="8" height="111.31087746500718" x="468" y="19.34456126749641" rx="4" ry="4" fill="black" />
    <rect width="8" height="109.2901375552538" x="484" y="20.354931222373096" rx="4" ry="4" fill="black" />
    <rect width="8" height="145.72917985366317" x="500" y="2.1354100731684156" rx="4" ry="4" fill="black" />
    <rect width="8" height="109.11080196512266" x="516" y="20.44459901743867" rx="4" ry="4" fill="black" />
    <rect width="8" height="114.95335116894876" x="532" y="17.52332441552562" rx="4" ry="4" fill="black" />
    <rect width="8" height="137.10717027264042" x="548" y="6.4464148636797916" rx="4" ry="4" fill="black" />
    <rect width="8" height="118.2298955020118" x="564" y="15.8850522489941" rx="4" ry="4" fill="black" />
    <rect width="8" height="122.2908907342284" x="580" y="13.854554632885801" rx="4" ry="4" fill="black" />
    <rect width="8" height="115.663067614056" x="596" y="17.168466192971998" rx="4" ry="4" fill="black" />
    <rect width="8" height="115.51282691766949" x="612" y="17.243586541165257" rx="4" ry="4" fill="black" />
    <rect width="8" height="112.03523838355585" x="628" y="18.982380808222075" rx="4" ry="4" fill="black" />
    <rect width="8" height="108.93565697572757" x="644" y="20.532171512136216" rx="4" ry="4" fill="black" />
    <rect width="8" height="115.2312283087778" x="660" y="17.3843858456111" rx="4" ry="4" fill="black" />
    <rect width="8" height="114.39969386674665" x="676" y="17.800153066626677" rx="4" ry="4" fill="black" />
    <rect width="8" height="119.32213710439547" x="692" y="15.338931447802267" rx="4" ry="4" fill="black" />
    <rect width="8" height="125.18289133296345" x="708" y="12.408554333518275" rx="4" ry="4" fill="black" />
    <rect width="8" height="126.47120031148087" x="724" y="11.764399844259565" rx="4" ry="4" fill="black" />
    <rect width="8" height="117.72254101537419" x="740" y="16.138729492312905" rx="4" ry="4" fill="black" />
    <rect width="8" height="117.16608456714958" x="756" y="16.41695771642521" rx="4" ry="4" fill="black" />
    <rect width="8" height="115.34529770372653" x="772" y="17.327351148136735" rx="4" ry="4" fill="black" />
    <rect width="8" height="115.67410220367667" x="788" y="17.162948898161666" rx="4" ry="4" fill="black" />
    <rect width="8" height="119.77202702091589" x="804" y="15.113986489542057" rx="4" ry="4" fill="black" />
    <rect width="8" height="116.3353228015563" x="820" y="16.83233859922185" rx="4" ry="4" fill="black" />
    <rect width="8" height="118.51282598984092" x="836" y="15.74358700507954" rx="4" ry="4" fill="black" />
    <rect width="8" height="140.9692020389565" x="852" y="4.515398980521752" rx="4" ry="4" fill="black" />
    <rect width="8" height="114.57506046944133" x="868" y="17.712469765279337" rx="4" ry="4" fill="black" />
    <rect width="8" height="115.88204172263056" x="884" y="17.05897913868472" rx="4" ry="4" fill="black" />
    <rect width="8" height="144.6876771363199" x="900" y="2.6561614318400473" rx="4" ry="4" fill="black" />
    <rect width="8" height="112.065401831699" x="916" y="18.967299084150497" rx="4" ry="4" fill="black" />
    <rect width="8" height="115.80706714968751" x="932" y="17.096466425156244" rx="4" ry="4" fill="black" />
    <rect width="8" height="127.50630848284119" x="948" y="11.246845758579404" rx="4" ry="4" fill="black" />
    <rect width="8" height="123.775818971249" x="964" y="13.112090514375502" rx="4" ry="4" fill="black" />
    <rect width="8" height="126.56499487984658" x="980" y="11.71750256007671" rx="4" ry="4" fill="black" />
    <rect width="8" height="119.80526430581747" x="996" y="15.097367847091263" rx="4" ry="4" fill="black" />
    <rect width="8" height="8" x="1012" y="71" rx="4" ry="4" fill="black" />
    <rect width="8" height="8" x="1028" y="71" rx="4" ry="4" fill="black" />
    <rect width="8" height="45.77609944306028" x="1044" y="52.11195027846986" rx="4" ry="4" fill="black" />
    <rect width="8" height="8" x="1060" y="71" rx="4" ry="4" fill="black" />
    <rect width="8" height="144.6437894984932" x="1076" y="2.678105250753404" rx="4" ry="4" fill="black" />
    <rect width="8" height="25.646313815042767" x="1092" y="62.17684309247862" rx="4" ry="4" fill="black" />
    <rect width="8" height="60.99282453324898" x="1108" y="44.50358773337551" rx="4" ry="4" fill="black" />
    <rect width="8" height="43.60174274541301" x="1124" y="53.19912862729349" rx="4" ry="4" fill="black" />
    <rect width="8" height="8" x="1140" y="71" rx="4" ry="4" fill="black" />
    <rect width="8" height="90.54886359796886" x="1156" y="29.72556820101557" rx="4" ry="4" fill="black" />
    <rect width="8" height="16.020492471788987" x="1172" y="66.9897537641055" rx="4" ry="4" fill="black" />
    <rect width="8" height="88.77374258230866" x="1188" y="30.61312870884567" rx="4" ry="4" fill="black" />
    <rect width="8" height="51.82545672334985" x="1204" y="49.08727163832508" rx="4" ry="4" fill="black" />
    <rect width="8" height="50.04657378970971" x="1220" y="49.976713105145144" rx="4" ry="4" fill="black" />
    <rect width="8" height="79.74212003633082" x="1236" y="35.12893998183459" rx="4" ry="4" fill="black" />
    <rect width="8" height="51.06128722250759" x="1252" y="49.469356388746206" rx="4" ry="4" fill="black" />
    <rect width="8" height="97.50020907481841" x="1268" y="26.249895462590793" rx="4" ry="4" fill="black" />
    <rect width="8" height="83.19389029144943" x="1284" y="33.40305485427528" rx="4" ry="4" fill="black" />
    <rect width="8" height="61.533458918980564" x="1300" y="44.23327054050972" rx="4" ry="4" fill="black" />
    <rect width="8" height="86.01177784299814" x="1316" y="31.99411107850093" rx="4" ry="4" fill="black" />
    <rect width="8" height="73.1833268046408" x="1332" y="38.4083365976796" rx="4" ry="4" fill="black" />
    <rect width="8" height="78.02314346504576" x="1348" y="35.98842826747712" rx="4" ry="4" fill="black" />
    <rect width="8" height="129.57568268088247" x="1364" y="10.212158659558767" rx="4" ry="4" fill="black" />
    <rect width="8" height="101.05785920887124" x="1380" y="24.471070395564382" rx="4" ry="4" fill="black" />
    <rect width="8" height="99.51968387417084" x="1396" y="25.24015806291458" rx="4" ry="4" fill="black" />
    <rect width="8" height="133.12170560669034" x="1412" y="8.43914719665483" rx="4" ry="4" fill="black" />
    <rect width="8" height="98.85344836125574" x="1428" y="25.573275819372128" rx="4" ry="4" fill="black" />
    <rect width="8" height="105.02893837764144" x="1444" y="22.48553081117928" rx="4" ry="4" fill="black" />
    <rect width="8" height="121.26255387523821" x="1460" y="14.368723062380894" rx="4" ry="4" fill="black" />
    <rect width="8" height="104.88494351259341" x="1476" y="22.557528243703295" rx="4" ry="4" fill="black" />
    <rect width="8" height="127.37178509949742" x="1492" y="11.314107450251292" rx="4" ry="4" fill="black" />
    <rect width="8" height="113.52311603395562" x="1508" y="18.23844198302219" rx="4" ry="4" fill="black" />
    <rect width="8" height="112.12124368927206" x="1524" y="18.93937815536397" rx="4" ry="4" fill="black" />
    <rect width="8" height="128.95874790184047" x="1540" y="10.520626049079766" rx="4" ry="4" fill="black" />
    <rect width="8" height="106.9486801267006" x="1556" y="21.525659936649703" rx="4" ry="4" fill="black" />
    <rect width="8" height="102.8406624255046" x="1572" y="23.579668787247698" rx="4" ry="4" fill="black" />
    <rect width="8" height="145.436273669285" x="1588" y="2.2818631653575068" rx="4" ry="4" fill="black" />
    <rect width="8" height="113.56120460158996" x="1604" y="18.219397699205018" rx="4" ry="4" fill="black" />
    <rect width="8" height="117.7610802190431" x="1620" y="16.119459890478453" rx="4" ry="4" fill="black" />
    <rect width="8" height="136.25035609092518" x="1636" y="6.87482195453741" rx="4" ry="4" fill="black" />
    <rect width="8" height="119.66275994523738" x="1652" y="15.168620027381309" rx="4" ry="4" fill="black" />
    <rect width="8" height="124.61475664548803" x="1668" y="12.692621677255985" rx="4" ry="4" fill="black" />
    <rect width="8" height="128.95505083447142" x="1684" y="10.52247458276429" rx="4" ry="4" fill="black" />
    <rect width="8" height="109.77206416547756" x="1700" y="20.11396791726122" rx="4" ry="4" fill="black" />
    <rect width="8" height="130.62457814221014" x="1716" y="9.68771092889493" rx="4" ry="4" fill="black" />
    <rect width="8" height="114.98580748713047" x="1732" y="17.507096256434764" rx="4" ry="4" fill="black" />
    <rect width="8" height="111.11563379533276" x="1748" y="19.442183102333622" rx="4" ry="4" fill="black" />
    <rect width="8" height="134.00108227582726" x="1764" y="7.999458862086371" rx="4" ry="4" fill="black" />
    <rect width="8" height="120.34754074757402" x="1780" y="14.826229626212992" rx="4" ry="4" fill="black" />
    <rect width="8" height="113.75456886485097" x="1796" y="18.122715567574517" rx="4" ry="4" fill="black" />
    <rect width="8" height="117.9178206657829" x="1812" y="16.04108966710855" rx="4" ry="4" fill="black" />
    <rect width="8" height="119.34133428747772" x="1828" y="15.32933285626114" rx="4" ry="4" fill="black" />
    <rect width="8" height="116.58456744302319" x="1844" y="16.707716278488405" rx="4" ry="4" fill="black" />
    <rect width="8" height="125.42699391071577" x="1860" y="12.286503044642117" rx="4" ry="4" fill="black" />
    <rect width="8" height="118.74270217320434" x="1876" y="15.628648913397832" rx="4" ry="4" fill="black" />
    <rect width="8" height="125.0331841714584" x="1892" y="12.4834079142708" rx="4" ry="4" fill="black" />
    <rect width="8" height="119.0927143931086" x="1908" y="15.453642803445703" rx="4" ry="4" fill="black" />
    <rect width="8" height="123.6976424463626" x="1924" y="13.151178776818703" rx="4" ry="4" fill="black" />
    <rect width="8" height="116.2309244420884" x="1940" y="16.884537778955803" rx="4" ry="4" fill="black" />
    <rect width="8" height="115.07558037486415" x="1956" y="17.462209812567927" rx="4" ry="4" fill="black" />
    <rect width="8" height="106.24082186180162" x="1972" y="21.87958906909919" rx="4" ry="4" fill="black" />
    <rect width="8" height="131.06689477817372" x="1988" y="9.46655261091314" rx="4" ry="4" fill="black" />
    <rect width="8" height="116.38766350236159" x="2004" y="16.806168248819205" rx="4" ry="4" fill="black" />
    <rect width="8" height="113.83066121401215" x="2020" y="18.084669392993924" rx="4" ry="4" fill="black" />
    <rect width="8" height="135.70815150336884" x="2036" y="7.1459242483155805" rx="4" ry="4" fill="black" />
    <rect width="8" height="120.58409004982342" x="2052" y="14.707954975088292" rx="4" ry="4" fill="black" />
    <rect width="8" height="124.7496539362824" x="2068" y="12.6251730318588" rx="4" ry="4" fill="black" />
    <rect width="8" height="131.94558962917358" x="2084" y="9.027205185413209" rx="4" ry="4" fill="black" />
    <rect width="8" height="118.33011154467776" x="2100" y="15.834944227661119" rx="4" ry="4" fill="black" />
    <rect width="8" height="128.26004076138724" x="2116" y="10.869979619306378" rx="4" ry="4" fill="black" />
    <rect width="8" height="118.13273002100011" x="2132" y="15.933634989499943" rx="4" ry="4" fill="black" />
    <rect width="8" height="113.48233315981949" x="2148" y="18.258833420090255" rx="4" ry="4" fill="black" />
    <rect width="8" height="138.18316683116547" x="2164" y="5.908416584417267" rx="4" ry="4" fill="black" />
    <rect width="8" height="125.85190359520307" x="2180" y="12.074048202398465" rx="4" ry="4" fill="black" />
    <rect width="8" height="106.5023842858567" x="2196" y="21.748807857071647" rx="4" ry="4" fill="black" />
    <rect width="8" height="60.88354374909441" x="2212" y="44.5582281254528" rx="4" ry="4" fill="black" />
    <rect width="8" height="92.02243401936191" x="2228" y="28.988782990319045" rx="4" ry="4" fill="black" />
    <rect width="8" height="32.41845022022099" x="2244" y="58.790774889889505" rx="4" ry="4" fill="black" />
    <rect width="8" height="23.763459771652766" x="2260" y="63.11827011417362" rx="4" ry="4" fill="black" />
    <rect width="8" height="86.07033895317767" x="2276" y="31.964830523411166" rx="4" ry="4" fill="black" />
    <rect width="8" height="8" x="2292" y="71" rx="4" ry="4" fill="black" />
    <rect width="8" height="8" x="2308" y="71" rx="4" ry="4" fill="black" />
    <rect width="8" height="50.82679263664704" x="2324" y="49.58660368167648" rx="4" ry="4" fill="black" />
    <rect width="8" height="8" x="2340" y="71" rx="4" ry="4" fill="black" />
    <rect width="8" height="8" x="2356" y="71" rx="4" ry="4" fill="black" />
    <rect width="8" height="8" x="2372" y="71" rx="4" ry="4" fill="black" />
    <rect width="8" height="8" x="2388" y="71" rx="4" ry="4" fill="black" />
  </g>
</svg>