<svg 
  baseProfile="tiny"
  preserveAspectRatio="keep"
  version="1.2"
  viewBox="0 0 2400 150"
  height="100%" width="100%"
  xmlns="http://www.w3.org/2000/svg"
  xmlns:ev="http://www.w3.org/2001/xml-events"
  xmlns:xlink="http://www.w3.org/1999/xlink"
>
  <g>
    <rect width="8" height="28.620841708618954" x="4" y="60.68957914569052" rx="4" ry="4" fill="black" />
    <rect width="8" height="29.269308021234217" x="20" y="60.36534598938289" rx="4" ry="4" fill="black" />
    <rect width="8" height="28.267377797909287" x="36" y="60.866311101045355" rx="4" ry="4" fill="black" />
    <rect width="8" height="17.72381159879763" x="52" y="66.13809420060119" rx="4" ry="4" fill="black" />
    <rect width="8" height="64.56179753385014" x="68" y="42.71910123307493" rx="4" ry="4" fill="black" />
    <rect width="8" height="33.51823095942127" x="84" y="58.24088452028937" rx="4" ry="4" fill="black" />
    <rect width="8" height="32.10627710749081" x="100" y="58.946861446254594" rx="4" ry="4" fill="black" />
    <rect width="8" height="23.505698680251818" x="116" y="63.247150659874094" rx="4" ry="4" fill="black" />
    <rect width="8" height="32.60059644305587" x="132" y="58.69970177847206" rx="4" ry="4" fill="black" />
    <rect width="8" height="46.00356988239422" x="148" y="51.99821505880289" rx="4" ry="4" fill="black" />
    <rect width="8" height="35.5449331080398" x="164" y="57.2275334459801" rx="4" ry="4" fill="black" />
    <rect width="8" height="67.86455513071876" x="180" y="41.06772243464062" rx="4" ry="4" fill="black" />
    <rect width="8" height="59.80362285655973" x="196" y="45.09818857172014" rx="4" ry="4" fill="black" />
    <rect width="8" height="86.3917723264243" x="212" y="31.80411383678785" rx="4" ry="4" fill="black" />
    <rect width="8" height="67.22652029914964" x="228" y="41.38673985042518" rx="4" ry="4" fill="black" />
    <rect width="8" height="67.8442970575105" x="244" y="41.07785147124475" rx="4" ry="4" fill="black" />
    <rect width="8" height="30.76940112255865" x="260" y="59.615299438720676" rx="4" ry="4" fill="black" />
    <rect width="8" height="35.419130861615365" x="276" y="57.290434569192314" rx="4" ry="4" fill="black" />
    <rect width="8" height="84.4443610467791" x="292" y="32.77781947661045" rx="4" ry="4" fill="black" />
    <rect width="8" height="85.27016375443621" x="308" y="32.364918122781894" rx="4" ry="4" fill="black" />
    <rect width="8" height="53.563088760499376" x="324" y="48.218455619750316" rx="4" ry="4" fill="black" />
    <rect width="8" height="45.1483753623855" x="340" y="52.425812318807246" rx="4" ry="4" fill="black" />
    <rect width="8" height="71.19462712790666" x="356" y="39.40268643604667" rx="4" ry="4" fill="black" />
    <rect width="8" height="58.18155220824588" x="372" y="45.90922389587706" rx="4" ry="4" fill="black" />
    <rect width="8" height="89.10155139627523" x="388" y="30.449224301862387" rx="4" ry="4" fill="black" />
    <rect width="8" height="56.63899446844642" x="404" y="46.680502765776794" rx="4" ry="4" fill="black" />
    <rect width="8" height="52.621965449406325" x="420" y="48.689017275296834" rx="4" ry="4" fill="black" />
    <rect width="8" height="64.79691842597872" x="436" y="42.60154078701064" rx="4" ry="4" fill="black" />
    <rect width="8" height="56.35590648370122" x="452" y="46.82204675814939" rx="4" ry="4" fill="black" />
    <rect width="8" height="56.452283516466636" x="468" y="46.77385824176668" rx="4" ry="4" fill="black" />
    <rect width="8" height="59.27845135453235" x="484" y="45.360774322733825" rx="4" ry="4" fill="black" />
    <rect width="8" height="67.20235667350086" x="500" y="41.39882166324957" rx="4" ry="4" fill="black" />
    <rect width="8" height="54.22689543216006" x="516" y="47.88655228391997" rx="4" ry="4" fill="black" />
    <rect width="8" height="55.45000226027001" x="532" y="47.274998869864994" rx="4" ry="4" fill="black" />
    <rect width="8" height="56.190707493132564" x="548" y="46.90464625343372" rx="4" ry="4" fill="black" />
    <rect width="8" height="72.24085534171063" x="564" y="38.879572329144686" rx="4" ry="4" fill="black" />
    <rect width="8" height="56.082785463770485" x="580" y="46.95860726811476" rx="4" ry="4" fill="black" />
    <rect width="8" height="52.86091321378305" x="596" y="48.569543393108475" rx="4" ry="4" fill="black" />
    <rect width="8" height="42.649285204122044" x="612" y="53.67535739793898" rx="4" ry="4" fill="black" />
    <rect width="8" height="52.23854277168104" x="628" y="48.88072861415948" rx="4" ry="4" fill="black" />
    <rect width="8" height="53.443397531714105" x="644" y="48.278301234142944" rx="4" ry="4" fill="black" />
    <rect width="8" height="45.877606482878086" x="660" y="52.06119675856095" rx="4" ry="4" fill="black" />
    <rect width="8" height="64.68059632481139" x="676" y="42.659701837594305" rx="4" ry="4" fill="black" />
    <rect width="8" height="81.96023895634644" x="692" y="34.01988052182678" rx="4" ry="4" fill="black" />
    <rect width="8" height="54.55311383471333" x="708" y="47.723443082643335" rx="4" ry="4" fill="black" />
    <rect width="8" height="41.08377942211989" x="724" y="54.458110288940055" rx="4" ry="4" fill="black" />
    <rect width="8" height="67.35811877424135" x="740" y="41.320940612879326" rx="4" ry="4" fill="black" />
    <rect width="8" height="41.865797484762524" x="756" y="54.06710125761874" rx="4" ry="4" fill="black" />
    <rect width="8" height="55.2877067119421" x="772" y="47.356146644028954" rx="4" ry="4" fill="black" />
    <rect width="8" height="88.22392934901791" x="788" y="30.888035325491046" rx="4" ry="4" fill="black" />
    <rect width="8" height="84.78538786075457" x="804" y="32.607306069622716" rx="4" ry="4" fill="black" />
    <rect width="8" height="80.48113913290545" x="820" y="34.75943043354727" rx="4" ry="4" fill="black" />
    <rect width="8" height="72.94860439185759" x="836" y="38.52569780407121" rx="4" ry="4" fill="black" />
    <rect width="8" height="89.501132444582" x="852" y="30.249433777709" rx="4" ry="4" fill="black" />
    <rect width="8" height="88.46173517014054" x="868" y="30.76913241492973" rx="4" ry="4" fill="black" />
    <rect width="8" height="91.22692853318158" x="884" y="29.38653573340921" rx="4" ry="4" fill="black" />
    <rect width="8" height="85.86946225582936" x="900" y="32.06526887208532" rx="4" ry="4" fill="black" />
    <rect width="8" height="97.92840176710232" x="916" y="26.035799116448842" rx="4" ry="4" fill="black" />
    <rect width="8" height="88.3425219260571" x="932" y="30.82873903697145" rx="4" ry="4" fill="black" />
    <rect width="8" height="87.08574279480781" x="948" y="31.457128602596093" rx="4" ry="4" fill="black" />
    <rect width="8" height="88.34362386602325" x="964" y="30.828188066988375" rx="4" ry="4" fill="black" />
    <rect width="8" height="90.52401710657925" x="980" y="29.737991446710375" rx="4" ry="4" fill="black" />
    <rect width="8" height="89.80711148364247" x="996" y="30.096444258178764" rx="4" ry="4" fill="black" />
    <rect width="8" height="113.69072554075314" x="1012" y="18.154637229623432" rx="4" ry="4" fill="black" />
    <rect width="8" height="100.18820686517492" x="1028" y="24.90589656741254" rx="4" ry="4" fill="black" />
    <rect width="8" height="85.40677550290651" x="1044" y="32.296612248546744" rx="4" ry="4" fill="black" />
    <rect width="8" height="122.44483712794336" x="1060" y="13.77758143602832" rx="4" ry="4" fill="black" />
    <rect width="8" height="99.30152294352106" x="1076" y="25.349238528239468" rx="4" ry="4" fill="black" />
    <rect width="8" height="150" x="1092" y="0" rx="4" ry="4" fill="black" />
    <rect width="8" height="97.13515230884654" x="1108" y="26.43242384557673" rx="4" ry="4" fill="black" />
    <rect width="8" height="89.0362548180731" x="1124" y="30.481872590963448" rx="4" ry="4" fill="black" />
    <rect width="8" height="91.13357529721517" x="1140" y="29.433212351392413" rx="4" ry="4" fill="black" />
    <rect width="8" height="110.7055104782733" x="1156" y="19.64724476086335" rx="4" ry="4" fill="black" />
    <rect width="8" height="88.71399868837845" x="1172" y="30.643000655810773" rx="4" ry="4" fill="black" />
    <rect width="8" height="99.88185101411639" x="1188" y="25.059074492941804" rx="4" ry="4" fill="black" />
    <rect width="8" height="118.04609237501076" x="1204" y="15.97695381249462" rx="4" ry="4" fill="black" />
    <rect width="8" height="102.26392496809777" x="1220" y="23.868037515951116" rx="4" ry="4" fill="black" />
    <rect width="8" height="102.38185962605581" x="1236" y="23.809070186972093" rx="4" ry="4" fill="black" />
    <rect width="8" height="85.53307301438402" x="1252" y="32.23346349280799" rx="4" ry="4" fill="black" />
    <rect width="8" height="88.51655479795852" x="1268" y="30.74172260102074" rx="4" ry="4" fill="black" />
    <rect width="8" height="38.70623474327871" x="1284" y="55.64688262836064" rx="4" ry="4" fill="black" />
    <rect width="8" height="18.245282869559695" x="1300" y="65.87735856522015" rx="4" ry="4" fill="black" />
    <rect width="8" height="42.187493773031406" x="1316" y="53.9062531134843" rx="4" ry="4" fill="black" />
    <rect width="8" height="44.212103261231576" x="1332" y="52.89394836938421" rx="4" ry="4" fill="black" />
    <rect width="8" height="60.97986080710474" x="1348" y="44.51006959644763" rx="4" ry="4" fill="black" />
    <rect width="8" height="60.36734783014439" x="1364" y="44.81632608492781" rx="4" ry="4" fill="black" />
    <rect width="8" height="61.92925583639063" x="1380" y="44.03537208180468" rx="4" ry="4" fill="black" />
    <rect width="8" height="32.0121872819384" x="1396" y="58.9939063590308" rx="4" ry="4" fill="black" />
    <rect width="8" height="60.78650188037586" x="1412" y="44.606749059812074" rx="4" ry="4" fill="black" />
    <rect width="8" height="59.865075097281746" x="1428" y="45.06746245135913" rx="4" ry="4" fill="black" />
    <rect width="8" height="48.14026055248076" x="1444" y="50.92986972375962" rx="4" ry="4" fill="black" />
    <rect width="8" height="66.43302423792895" x="1460" y="41.783487881035526" rx="4" ry="4" fill="black" />
    <rect width="8" height="51.38732252222226" x="1476" y="49.30633873888887" rx="4" ry="4" fill="black" />
    <rect width="8" height="56.24157953973859" x="1492" y="46.87921023013071" rx="4" ry="4" fill="black" />
    <rect width="8" height="46.92265535479679" x="1508" y="51.538672322601606" rx="4" ry="4" fill="black" />
    <rect width="8" height="59.75472297789325" x="1524" y="45.122638511053374" rx="4" ry="4" fill="black" />
    <rect width="8" height="72.28125992413493" x="1540" y="38.859370037932536" rx="4" ry="4" fill="black" />
    <rect width="8" height="89.86518002284386" x="1556" y="30.06740998857807" rx="4" ry="4" fill="black" />
    <rect width="8" height="97.32867523461493" x="1572" y="26.335662382692533" rx="4" ry="4" fill="black" />
    <rect width="8" height="86.398417407525" x="1588" y="31.8007912962375" rx="4" ry="4" fill="black" />
    <rect width="8" height="86.03413435739762" x="1604" y="31.98293282130119" rx="4" ry="4" fill="black" />
    <rect width="8" height="89.0219602147028" x="1620" y="30.4890198926486" rx="4" ry="4" fill="black" />
    <rect width="8" height="85.93349940921705" x="1636" y="32.033250295391476" rx="4" ry="4" fill="black" />
    <rect width="8" height="87.39227734885417" x="1652" y="31.303861325572917" rx="4" ry="4" fill="black" />
    <rect width="8" height="90.22864290112487" x="1668" y="29.885678549437564" rx="4" ry="4" fill="black" />
    <rect width="8" height="89.18875232075759" x="1684" y="30.405623839621207" rx="4" ry="4" fill="black" />
    <rect width="8" height="97.97678353037101" x="1700" y="26.011608234814496" rx="4" ry="4" fill="black" />
    <rect width="8" height="93.90961514367106" x="1716" y="28.04519242816447" rx="4" ry="4" fill="black" />
    <rect width="8" height="93.49554015249394" x="1732" y="28.252229923753028" rx="4" ry="4" fill="black" />
    <rect width="8" height="90.27138235639036" x="1748" y="29.86430882180482" rx="4" ry="4" fill="black" />
    <rect width="8" height="107.69858213918182" x="1764" y="21.15070893040909" rx="4" ry="4" fill="black" />
    <rect width="8" height="102.17217782259695" x="1780" y="23.913911088701525" rx="4" ry="4" fill="black" />
    <rect width="8" height="102.5006287755353" x="1796" y="23.749685612232348" rx="4" ry="4" fill="black" />
    <rect width="8" height="94.4069603769149" x="1812" y="27.796519811542552" rx="4" ry="4" fill="black" />
    <rect width="8" height="94.12496778114475" x="1828" y="27.937516109427627" rx="4" ry="4" fill="black" />
    <rect width="8" height="100.67559720508166" x="1844" y="24.66220139745917" rx="4" ry="4" fill="black" />
    <rect width="8" height="99.3877837706757" x="1860" y="25.306108114662152" rx="4" ry="4" fill="black" />
    <rect width="8" height="91.17822134318678" x="1876" y="29.41088932840661" rx="4" ry="4" fill="black" />
    <rect width="8" height="84.82454974127927" x="1892" y="32.587725129360365" rx="4" ry="4" fill="black" />
    <rect width="8" height="91.82917393748953" x="1908" y="29.085413031255236" rx="4" ry="4" fill="black" />
    <rect width="8" height="96.39227392397535" x="1924" y="26.803863038012324" rx="4" ry="4" fill="black" />
    <rect width="8" height="114.7265342479088" x="1940" y="17.6367328760456" rx="4" ry="4" fill="black" />
    <rect width="8" height="100.8893377951064" x="1956" y="24.5553311024468" rx="4" ry="4" fill="black" />
    <rect width="8" height="95.38982495188503" x="1972" y="27.305087524057484" rx="4" ry="4" fill="black" />
    <rect width="8" height="93.78192004699065" x="1988" y="28.109039976504675" rx="4" ry="4" fill="black" />
    <rect width="8" height="96.47842846595194" x="2004" y="26.760785767024032" rx="4" ry="4" fill="black" />
    <rect width="8" height="96.02374485957799" x="2020" y="26.988127570211006" rx="4" ry="4" fill="black" />
    <rect width="8" height="102.60905034059998" x="2036" y="23.69547482970001" rx="4" ry="4" fill="black" />
    <rect width="8" height="104.60727920330781" x="2052" y="22.696360398346094" rx="4" ry="4" fill="black" />
    <rect width="8" height="96.8088469441695" x="2068" y="26.59557652791525" rx="4" ry="4" fill="black" />
    <rect width="8" height="105.50406642301844" x="2084" y="22.24796678849078" rx="4" ry="4" fill="black" />
    <rect width="8" height="108.18373721220041" x="2100" y="20.908131393899794" rx="4" ry="4" fill="black" />
    <rect width="8" height="102.83881779314551" x="2116" y="23.580591103427246" rx="4" ry="4" fill="black" />
    <rect width="8" height="96.11739483096855" x="2132" y="26.941302584515725" rx="4" ry="4" fill="black" />
    <rect width="8" height="91.09180536009723" x="2148" y="29.454097319951387" rx="4" ry="4" fill="black" />
    <rect width="8" height="95.0122453125812" x="2164" y="27.4938773437094" rx="4" ry="4" fill="black" />
    <rect width="8" height="106.05994369170071" x="2180" y="21.970028154149645" rx="4" ry="4" fill="black" />
    <rect width="8" height="100.306876130649" x="2196" y="24.8465619346755" rx="4" ry="4" fill="black" />
    <rect width="8" height="94.61803235994319" x="2212" y="27.690983820028407" rx="4" ry="4" fill="black" />
    <rect width="8" height="98.02462813425147" x="2228" y="25.987685932874264" rx="4" ry="4" fill="black" />
    <rect width="8" height="98.28625273569438" x="2244" y="25.856873632152812" rx="4" ry="4" fill="black" />
    <rect width="8" height="79.92198603590141" x="2260" y="35.039006982049294" rx="4" ry="4" fill="black" />
    <rect width="8" height="33.936663461319355" x="2276" y="58.03166826934032" rx="4" ry="4" fill="black" />
    <rect width="8" height="21.478680635271882" x="2292" y="64.26065968236406" rx="4" ry="4" fill="black" />
    <rect width="8" height="20.11310113126342" x="2308" y="64.94344943436829" rx="4" ry="4" fill="black" />
    <rect width="8" height="8" x="2324" y="71" rx="4" ry="4" fill="black" />
    <rect width="8" height="8" x="2340" y="71" rx="4" ry="4" fill="black" />
    <rect width="8" height="8" x="2356" y="71" rx="4" ry="4" fill="black" />
    <rect width="8" height="8" x="2372" y="71" rx="4" ry="4" fill="black" />
    <rect width="8" height="8" x="2388" y="71" rx="4" ry="4" fill="black" />
  </g>
</svg>