<svg 
  baseProfile="tiny"
  preserveAspectRatio="true"
  version="1.2"
  viewBox="0 0 2400 150"
  height="100%" width="100%"
  xmlns="http://www.w3.org/2000/svg"
  xmlns:ev="http://www.w3.org/2001/xml-events"
  xmlns:xlink="http://www.w3.org/1999/xlink"
>
  <g>
    <rect width="8" height="52.57061644640516" x="4" y="48.71469177679742" rx="4" ry="4" fill="black" />
    <rect width="8" height="53.14437689101849" x="20" y="48.42781155449076" rx="4" ry="4" fill="black" />
    <rect width="8" height="112.42800520420846" x="36" y="18.78599739789577" rx="4" ry="4" fill="black" />
    <rect width="8" height="83.13534851552815" x="52" y="33.432325742235925" rx="4" ry="4" fill="black" />
    <rect width="8" height="69.04206906421001" x="68" y="40.478965467894994" rx="4" ry="4" fill="black" />
    <rect width="8" height="92.38421885186155" x="84" y="28.807890574069226" rx="4" ry="4" fill="black" />
    <rect width="8" height="81.03002600780853" x="100" y="34.484986996095735" rx="4" ry="4" fill="black" />
    <rect width="8" height="74.88667980352729" x="116" y="37.55666009823636" rx="4" ry="4" fill="black" />
    <rect width="8" height="68.25341754243738" x="132" y="40.87329122878131" rx="4" ry="4" fill="black" />
    <rect width="8" height="118.90120411304662" x="148" y="15.549397943476691" rx="4" ry="4" fill="black" />
    <rect width="8" height="94.17300647477218" x="164" y="27.91349676261391" rx="4" ry="4" fill="black" />
    <rect width="8" height="73.84080484704029" x="180" y="38.079597576479856" rx="4" ry="4" fill="black" />
    <rect width="8" height="77.53348394889456" x="196" y="36.23325802555272" rx="4" ry="4" fill="black" />
    <rect width="8" height="57.90017259725514" x="212" y="46.04991370137243" rx="4" ry="4" fill="black" />
    <rect width="8" height="48.01352947031576" x="228" y="50.99323526484212" rx="4" ry="4" fill="black" />
    <rect width="8" height="76.38858382161044" x="244" y="36.80570808919478" rx="4" ry="4" fill="black" />
    <rect width="8" height="116.33091326218266" x="260" y="16.83454336890867" rx="4" ry="4" fill="black" />
    <rect width="8" height="100.46797077828246" x="276" y="24.766014610858768" rx="4" ry="4" fill="black" />
    <rect width="8" height="73.20580912284773" x="292" y="38.39709543857614" rx="4" ry="4" fill="black" />
    <rect width="8" height="64.29313225840905" x="308" y="42.85343387079548" rx="4" ry="4" fill="black" />
    <rect width="8" height="64.15573471083734" x="324" y="42.92213264458133" rx="4" ry="4" fill="black" />
    <rect width="8" height="81.2765962494445" x="340" y="34.36170187527775" rx="4" ry="4" fill="black" />
    <rect width="8" height="78.67333263976103" x="356" y="35.663333680119486" rx="4" ry="4" fill="black" />
    <rect width="8" height="70.5208225487712" x="372" y="39.7395887256144" rx="4" ry="4" fill="black" />
    <rect width="8" height="110.69807525698951" x="388" y="19.650962371505244" rx="4" ry="4" fill="black" />
    <rect width="8" height="91.63997046270129" x="404" y="29.180014768649357" rx="4" ry="4" fill="black" />
    <rect width="8" height="54.59721799771359" x="420" y="47.70139100114321" rx="4" ry="4" fill="black" />
    <rect width="8" height="50.64220432178217" x="436" y="49.67889783910891" rx="4" ry="4" fill="black" />
    <rect width="8" height="68.3903730108542" x="452" y="40.8048134945729" rx="4" ry="4" fill="black" />
    <rect width="8" height="78.49127787927712" x="468" y="35.75436106036144" rx="4" ry="4" fill="black" />
    <rect width="8" height="86.2705750801159" x="484" y="31.864712459942048" rx="4" ry="4" fill="black" />
    <rect width="8" height="112.53930808221715" x="500" y="18.730345958891427" rx="4" ry="4" fill="black" />
    <rect width="8" height="93.44202308351655" x="516" y="28.278988458241727" rx="4" ry="4" fill="black" />
    <rect width="8" height="68.99256988719632" x="532" y="40.50371505640184" rx="4" ry="4" fill="black" />
    <rect width="8" height="81.8959314862721" x="548" y="34.05203425686395" rx="4" ry="4" fill="black" />
    <rect width="8" height="49.244979455933255" x="564" y="50.377510272033376" rx="4" ry="4" fill="black" />
    <rect width="8" height="73.79251332886419" x="580" y="38.103743335567906" rx="4" ry="4" fill="black" />
    <rect width="8" height="63.928037950523034" x="596" y="43.03598102473848" rx="4" ry="4" fill="black" />
    <rect width="8" height="141.82124363341924" x="612" y="4.089378183290378" rx="4" ry="4" fill="black" />
    <rect width="8" height="104.76258283299195" x="628" y="22.618708583504024" rx="4" ry="4" fill="black" />
    <rect width="8" height="86.95572286140784" x="644" y="31.522138569296082" rx="4" ry="4" fill="black" />
    <rect width="8" height="60.74459923012788" x="660" y="44.62770038493606" rx="4" ry="4" fill="black" />
    <rect width="8" height="66.75164840013602" x="676" y="41.62417579993199" rx="4" ry="4" fill="black" />
    <rect width="8" height="56.075943439011205" x="692" y="46.962028280494394" rx="4" ry="4" fill="black" />
    <rect width="8" height="74.46202129999239" x="708" y="37.76898935000381" rx="4" ry="4" fill="black" />
    <rect width="8" height="86.39693171233242" x="724" y="31.80153414383379" rx="4" ry="4" fill="black" />
    <rect width="8" height="95.67612604451247" x="740" y="27.161936977743764" rx="4" ry="4" fill="black" />
    <rect width="8" height="90.20079037556218" x="756" y="29.89960481221891" rx="4" ry="4" fill="black" />
    <rect width="8" height="62.25172455162011" x="772" y="43.87413772418995" rx="4" ry="4" fill="black" />
    <rect width="8" height="67.14247923507958" x="788" y="41.42876038246021" rx="4" ry="4" fill="black" />
    <rect width="8" height="60.661821793237124" x="804" y="44.66908910338144" rx="4" ry="4" fill="black" />
    <rect width="8" height="108.92869226542476" x="820" y="20.53565386728762" rx="4" ry="4" fill="black" />
    <rect width="8" height="61.82752047635533" x="836" y="44.086239761822334" rx="4" ry="4" fill="black" />
    <rect width="8" height="123.45600718959483" x="852" y="13.271996405202586" rx="4" ry="4" fill="black" />
    <rect width="8" height="97.24771872112039" x="868" y="26.376140639439804" rx="4" ry="4" fill="black" />
    <rect width="8" height="85.60887491473643" x="884" y="32.195562542631784" rx="4" ry="4" fill="black" />
    <rect width="8" height="67.35977510949513" x="900" y="41.320112445252434" rx="4" ry="4" fill="black" />
    <rect width="8" height="79.53235337488462" x="916" y="35.23382331255769" rx="4" ry="4" fill="black" />
    <rect width="8" height="124.6748655522573" x="932" y="12.66256722387135" rx="4" ry="4" fill="black" />
    <rect width="8" height="99.09250010681896" x="948" y="25.45374994659052" rx="4" ry="4" fill="black" />
    <rect width="8" height="68.49908166522138" x="964" y="40.75045916738931" rx="4" ry="4" fill="black" />
    <rect width="8" height="89.6292881397552" x="980" y="30.185355930122398" rx="4" ry="4" fill="black" />
    <rect width="8" height="83.52388452158074" x="996" y="33.23805773920963" rx="4" ry="4" fill="black" />
    <rect width="8" height="83.66907183053738" x="1012" y="33.16546408473131" rx="4" ry="4" fill="black" />
    <rect width="8" height="75.82822426008275" x="1028" y="37.085887869958626" rx="4" ry="4" fill="black" />
    <rect width="8" height="98.35267171410293" x="1044" y="25.823664142948537" rx="4" ry="4" fill="black" />
    <rect width="8" height="86.85444521855857" x="1060" y="31.572777390720717" rx="4" ry="4" fill="black" />
    <rect width="8" height="133.6195333101832" x="1076" y="8.190233344908407" rx="4" ry="4" fill="black" />
    <rect width="8" height="107.68799882556685" x="1092" y="21.156000587216575" rx="4" ry="4" fill="black" />
    <rect width="8" height="92.60580801620026" x="1108" y="28.69709599189987" rx="4" ry="4" fill="black" />
    <rect width="8" height="96.26057863091192" x="1124" y="26.86971068454404" rx="4" ry="4" fill="black" />
    <rect width="8" height="89.55213845013935" x="1140" y="30.223930774930324" rx="4" ry="4" fill="black" />
    <rect width="8" height="81.81171637046744" x="1156" y="34.09414181476628" rx="4" ry="4" fill="black" />
    <rect width="8" height="68.54082472725734" x="1172" y="40.72958763637133" rx="4" ry="4" fill="black" />
    <rect width="8" height="83.09476139742605" x="1188" y="33.45261930128697" rx="4" ry="4" fill="black" />
    <rect width="8" height="114.87475918994399" x="1204" y="17.562620405028007" rx="4" ry="4" fill="black" />
    <rect width="8" height="95.42793893126873" x="1220" y="27.286030534365636" rx="4" ry="4" fill="black" />
    <rect width="8" height="86.8522919768175" x="1236" y="31.57385401159125" rx="4" ry="4" fill="black" />
    <rect width="8" height="84.43953857546752" x="1252" y="32.78023071226624" rx="4" ry="4" fill="black" />
    <rect width="8" height="84.77138936528227" x="1268" y="32.61430531735886" rx="4" ry="4" fill="black" />
    <rect width="8" height="112.13048610239562" x="1284" y="18.93475694880219" rx="4" ry="4" fill="black" />
    <rect width="8" height="63.82811188071156" x="1300" y="43.08594405964422" rx="4" ry="4" fill="black" />
    <rect width="8" height="122.66913174009511" x="1316" y="13.665434129952445" rx="4" ry="4" fill="black" />
    <rect width="8" height="97.03619087606371" x="1332" y="26.481904561968143" rx="4" ry="4" fill="black" />
    <rect width="8" height="82.97240626058588" x="1348" y="33.51379686970706" rx="4" ry="4" fill="black" />
    <rect width="8" height="73.80286010383203" x="1364" y="38.098569948083984" rx="4" ry="4" fill="black" />
    <rect width="8" height="69.08643718200949" x="1380" y="40.456781408995255" rx="4" ry="4" fill="black" />
    <rect width="8" height="130.0311656457827" x="1396" y="9.984417177108654" rx="4" ry="4" fill="black" />
    <rect width="8" height="114.24423055537882" x="1412" y="17.87788472231059" rx="4" ry="4" fill="black" />
    <rect width="8" height="101.56453745713479" x="1428" y="24.217731271432605" rx="4" ry="4" fill="black" />
    <rect width="8" height="78.50433492746792" x="1444" y="35.74783253626604" rx="4" ry="4" fill="black" />
    <rect width="8" height="119.76236722202009" x="1460" y="15.118816388989956" rx="4" ry="4" fill="black" />
    <rect width="8" height="109.24133187217888" x="1476" y="20.379334063910562" rx="4" ry="4" fill="black" />
    <rect width="8" height="98.01675440649818" x="1492" y="25.99162279675091" rx="4" ry="4" fill="black" />
    <rect width="8" height="113.02488492636431" x="1508" y="18.487557536817846" rx="4" ry="4" fill="black" />
    <rect width="8" height="130.27497411065036" x="1524" y="9.862512944674819" rx="4" ry="4" fill="black" />
    <rect width="8" height="104.2716653158305" x="1540" y="22.864167342084748" rx="4" ry="4" fill="black" />
    <rect width="8" height="88.8105422102719" x="1556" y="30.594728894864048" rx="4" ry="4" fill="black" />
    <rect width="8" height="137.3608954177373" x="1572" y="6.319552291131345" rx="4" ry="4" fill="black" />
    <rect width="8" height="111.54795735882759" x="1588" y="19.226021320586206" rx="4" ry="4" fill="black" />
    <rect width="8" height="95.84573764354126" x="1604" y="27.077131178229372" rx="4" ry="4" fill="black" />
    <rect width="8" height="100.08236902957776" x="1620" y="24.95881548521112" rx="4" ry="4" fill="black" />
    <rect width="8" height="130.95414731022558" x="1636" y="9.52292634488721" rx="4" ry="4" fill="black" />
    <rect width="8" height="99.37601308977364" x="1652" y="25.311993455113182" rx="4" ry="4" fill="black" />
    <rect width="8" height="97.070039265139" x="1668" y="26.4649803674305" rx="4" ry="4" fill="black" />
    <rect width="8" height="89.29153385023041" x="1684" y="30.354233074884796" rx="4" ry="4" fill="black" />
    <rect width="8" height="99.93475722612608" x="1700" y="25.03262138693696" rx="4" ry="4" fill="black" />
    <rect width="8" height="134.73923324932426" x="1716" y="7.630383375337871" rx="4" ry="4" fill="black" />
    <rect width="8" height="124.1884080037732" x="1732" y="12.905795998113398" rx="4" ry="4" fill="black" />
    <rect width="8" height="131.8499261465042" x="1748" y="9.075036926747899" rx="4" ry="4" fill="black" />
    <rect width="8" height="111.97111479622848" x="1764" y="19.01444260188576" rx="4" ry="4" fill="black" />
    <rect width="8" height="100.18801035510347" x="1780" y="24.905994822448264" rx="4" ry="4" fill="black" />
    <rect width="8" height="87.41207850275813" x="1796" y="31.293960748620933" rx="4" ry="4" fill="black" />
    <rect width="8" height="104.82792539609613" x="1812" y="22.586037301951933" rx="4" ry="4" fill="black" />
    <rect width="8" height="81.12250097883016" x="1828" y="34.43874951058492" rx="4" ry="4" fill="black" />
    <rect width="8" height="90.71629905747606" x="1844" y="29.641850471261968" rx="4" ry="4" fill="black" />
    <rect width="8" height="150" x="1860" y="0" rx="4" ry="4" fill="black" />
    <rect width="8" height="129.69256034416793" x="1876" y="10.153719827916035" rx="4" ry="4" fill="black" />
    <rect width="8" height="113.60423983135519" x="1892" y="18.197880084322406" rx="4" ry="4" fill="black" />
    <rect width="8" height="96.57228894458179" x="1908" y="26.713855527709107" rx="4" ry="4" fill="black" />
    <rect width="8" height="139.5843919008993" x="1924" y="5.207804049550347" rx="4" ry="4" fill="black" />
    <rect width="8" height="110.9958447688039" x="1940" y="19.502077615598047" rx="4" ry="4" fill="black" />
    <rect width="8" height="106.21940723775214" x="1956" y="21.89029638112393" rx="4" ry="4" fill="black" />
    <rect width="8" height="81.74157103221519" x="1972" y="34.129214483892405" rx="4" ry="4" fill="black" />
    <rect width="8" height="88.766830458638" x="1988" y="30.616584770681" rx="4" ry="4" fill="black" />
    <rect width="8" height="94.18263438551642" x="2004" y="27.90868280724179" rx="4" ry="4" fill="black" />
    <rect width="8" height="96.66425509221807" x="2020" y="26.667872453890965" rx="4" ry="4" fill="black" />
    <rect width="8" height="79.0821874638597" x="2036" y="35.45890626807015" rx="4" ry="4" fill="black" />
    <rect width="8" height="83.53069565603306" x="2052" y="33.23465217198347" rx="4" ry="4" fill="black" />
    <rect width="8" height="148.08062955223153" x="2068" y="0.9596852238842359" rx="4" ry="4" fill="black" />
    <rect width="8" height="117.11908966719206" x="2084" y="16.44045516640397" rx="4" ry="4" fill="black" />
    <rect width="8" height="126.22903823553585" x="2100" y="11.885480882232073" rx="4" ry="4" fill="black" />
    <rect width="8" height="115.90498369405556" x="2116" y="17.04750815297222" rx="4" ry="4" fill="black" />
    <rect width="8" height="87.91182395804005" x="2132" y="31.044088020979977" rx="4" ry="4" fill="black" />
    <rect width="8" height="80.10593539313027" x="2148" y="34.94703230343487" rx="4" ry="4" fill="black" />
    <rect width="8" height="62.88853798298783" x="2164" y="43.555731008506086" rx="4" ry="4" fill="black" />
    <rect width="8" height="53.46865781918804" x="2180" y="48.26567109040598" rx="4" ry="4" fill="black" />
    <rect width="8" height="37.75183822875205" x="2196" y="56.124080885623975" rx="4" ry="4" fill="black" />
    <rect width="8" height="46.91237825262295" x="2212" y="51.54381087368853" rx="4" ry="4" fill="black" />
    <rect width="8" height="48.490811131872206" x="2228" y="50.7545944340639" rx="4" ry="4" fill="black" />
    <rect width="8" height="56.68352155277518" x="2244" y="46.65823922361241" rx="4" ry="4" fill="black" />
    <rect width="8" height="52.06625217384621" x="2260" y="48.966873913076896" rx="4" ry="4" fill="black" />
    <rect width="8" height="40.6835057991548" x="2276" y="54.6582471004226" rx="4" ry="4" fill="black" />
    <rect width="8" height="31.70491967926976" x="2292" y="59.14754016036512" rx="4" ry="4" fill="black" />
    <rect width="8" height="8" x="2308" y="71" rx="4" ry="4" fill="black" />
    <rect width="8" height="8" x="2324" y="71" rx="4" ry="4" fill="black" />
    <rect width="8" height="8" x="2340" y="71" rx="4" ry="4" fill="black" />
    <rect width="8" height="8" x="2356" y="71" rx="4" ry="4" fill="black" />
    <rect width="8" height="8" x="2372" y="71" rx="4" ry="4" fill="black" />
    <rect width="8" height="8" x="2388" y="71" rx="4" ry="4" fill="black" />
  </g>
</svg>