<svg 
  baseProfile="tiny"
  preserveAspectRatio="keep"
  version="1.2"
  viewBox="0 0 2400 150"
  height="100%" width="100%"
  xmlns="http://www.w3.org/2000/svg"
  xmlns:ev="http://www.w3.org/2001/xml-events"
  xmlns:xlink="http://www.w3.org/1999/xlink"
>
  <g>
    <rect width="8" height="8" x="4" y="71" rx="4" ry="4" fill="black" />
    <rect width="8" height="16.654724885165283" x="20" y="66.67263755741736" rx="4" ry="4" fill="black" />
    <rect width="8" height="8" x="36" y="71" rx="4" ry="4" fill="black" />
    <rect width="8" height="26.02359868186792" x="52" y="61.98820065906604" rx="4" ry="4" fill="black" />
    <rect width="8" height="8" x="68" y="71" rx="4" ry="4" fill="black" />
    <rect width="8" height="8" x="84" y="71" rx="4" ry="4" fill="black" />
    <rect width="8" height="8" x="100" y="71" rx="4" ry="4" fill="black" />
    <rect width="8" height="8" x="116" y="71" rx="4" ry="4" fill="black" />
    <rect width="8" height="8" x="132" y="71" rx="4" ry="4" fill="black" />
    <rect width="8" height="8" x="148" y="71" rx="4" ry="4" fill="black" />
    <rect width="8" height="8" x="164" y="71" rx="4" ry="4" fill="black" />
    <rect width="8" height="8" x="180" y="71" rx="4" ry="4" fill="black" />
    <rect width="8" height="8" x="196" y="71" rx="4" ry="4" fill="black" />
    <rect width="8" height="22.3620928136043" x="212" y="63.81895359319785" rx="4" ry="4" fill="black" />
    <rect width="8" height="8" x="228" y="71" rx="4" ry="4" fill="black" />
    <rect width="8" height="8" x="244" y="71" rx="4" ry="4" fill="black" />
    <rect width="8" height="8" x="260" y="71" rx="4" ry="4" fill="black" />
    <rect width="8" height="17.093069953604132" x="276" y="66.45346502319794" rx="4" ry="4" fill="black" />
    <rect width="8" height="20.324662319330635" x="292" y="64.83766884033469" rx="4" ry="4" fill="black" />
    <rect width="8" height="23.245152127378113" x="308" y="63.37742393631095" rx="4" ry="4" fill="black" />
    <rect width="8" height="8" x="324" y="71" rx="4" ry="4" fill="black" />
    <rect width="8" height="8" x="340" y="71" rx="4" ry="4" fill="black" />
    <rect width="8" height="8" x="356" y="71" rx="4" ry="4" fill="black" />
    <rect width="8" height="8" x="372" y="71" rx="4" ry="4" fill="black" />
    <rect width="8" height="8" x="388" y="71" rx="4" ry="4" fill="black" />
    <rect width="8" height="19.57889845726896" x="404" y="65.21055077136552" rx="4" ry="4" fill="black" />
    <rect width="8" height="8" x="420" y="71" rx="4" ry="4" fill="black" />
    <rect width="8" height="8" x="436" y="71" rx="4" ry="4" fill="black" />
    <rect width="8" height="8" x="452" y="71" rx="4" ry="4" fill="black" />
    <rect width="8" height="22.14287672384267" x="468" y="63.92856163807866" rx="4" ry="4" fill="black" />
    <rect width="8" height="8" x="484" y="71" rx="4" ry="4" fill="black" />
    <rect width="8" height="16.881371432763558" x="500" y="66.55931428361822" rx="4" ry="4" fill="black" />
    <rect width="8" height="8" x="516" y="71" rx="4" ry="4" fill="black" />
    <rect width="8" height="8" x="532" y="71" rx="4" ry="4" fill="black" />
    <rect width="8" height="41.1419183897162" x="548" y="54.429040805141895" rx="4" ry="4" fill="black" />
    <rect width="8" height="83.36022748464713" x="564" y="33.31988625767644" rx="4" ry="4" fill="black" />
    <rect width="8" height="60.662670235057" x="580" y="44.668664882471504" rx="4" ry="4" fill="black" />
    <rect width="8" height="54.36348441655401" x="596" y="47.818257791723" rx="4" ry="4" fill="black" />
    <rect width="8" height="28.797905171275065" x="612" y="60.60104741436247" rx="4" ry="4" fill="black" />
    <rect width="8" height="86.0129711323158" x="628" y="31.9935144338421" rx="4" ry="4" fill="black" />
    <rect width="8" height="70.50376615978243" x="644" y="39.748116920108785" rx="4" ry="4" fill="black" />
    <rect width="8" height="99.0631597485805" x="660" y="25.46842012570975" rx="4" ry="4" fill="black" />
    <rect width="8" height="86.0915629211331" x="676" y="31.954218539433448" rx="4" ry="4" fill="black" />
    <rect width="8" height="93.797542757311" x="692" y="28.101228621344497" rx="4" ry="4" fill="black" />
    <rect width="8" height="79.6172217357249" x="708" y="35.19138913213755" rx="4" ry="4" fill="black" />
    <rect width="8" height="62.55585245117949" x="724" y="43.722073774410255" rx="4" ry="4" fill="black" />
    <rect width="8" height="47.164696884766435" x="740" y="51.41765155761678" rx="4" ry="4" fill="black" />
    <rect width="8" height="65.41654909868247" x="756" y="42.29172545065877" rx="4" ry="4" fill="black" />
    <rect width="8" height="78.00430072369699" x="772" y="35.99784963815151" rx="4" ry="4" fill="black" />
    <rect width="8" height="77.17636181438087" x="788" y="36.411819092809566" rx="4" ry="4" fill="black" />
    <rect width="8" height="85.35186278255564" x="804" y="32.32406860872218" rx="4" ry="4" fill="black" />
    <rect width="8" height="70.61240286725099" x="820" y="39.693798566374504" rx="4" ry="4" fill="black" />
    <rect width="8" height="88.3445694737354" x="836" y="30.827715263132298" rx="4" ry="4" fill="black" />
    <rect width="8" height="70.70434369187718" x="852" y="39.64782815406141" rx="4" ry="4" fill="black" />
    <rect width="8" height="50.98859464509631" x="868" y="49.50570267745184" rx="4" ry="4" fill="black" />
    <rect width="8" height="51.37840423487006" x="884" y="49.31079788256497" rx="4" ry="4" fill="black" />
    <rect width="8" height="82.11499859230862" x="900" y="33.94250070384569" rx="4" ry="4" fill="black" />
    <rect width="8" height="67.7872987339106" x="916" y="41.1063506330447" rx="4" ry="4" fill="black" />
    <rect width="8" height="102.51658121084078" x="932" y="23.74170939457961" rx="4" ry="4" fill="black" />
    <rect width="8" height="83.05094763974104" x="948" y="33.47452618012948" rx="4" ry="4" fill="black" />
    <rect width="8" height="94.42242371994936" x="964" y="27.788788140025318" rx="4" ry="4" fill="black" />
    <rect width="8" height="81.94339342745403" x="980" y="34.02830328627299" rx="4" ry="4" fill="black" />
    <rect width="8" height="65.68915862317854" x="996" y="42.15542068841073" rx="4" ry="4" fill="black" />
    <rect width="8" height="48.79730081651216" x="1012" y="50.60134959174392" rx="4" ry="4" fill="black" />
    <rect width="8" height="57.2700533119916" x="1028" y="46.3649733440042" rx="4" ry="4" fill="black" />
    <rect width="8" height="81.9531036409675" x="1044" y="34.02344817951625" rx="4" ry="4" fill="black" />
    <rect width="8" height="69.64688414527514" x="1060" y="40.17655792736243" rx="4" ry="4" fill="black" />
    <rect width="8" height="89.92944542259191" x="1076" y="30.035277288704044" rx="4" ry="4" fill="black" />
    <rect width="8" height="66.86417263586246" x="1092" y="41.56791368206877" rx="4" ry="4" fill="black" />
    <rect width="8" height="104.99130616268998" x="1108" y="22.50434691865501" rx="4" ry="4" fill="black" />
    <rect width="8" height="69.84231964426934" x="1124" y="40.07884017786533" rx="4" ry="4" fill="black" />
    <rect width="8" height="51.818926503356934" x="1140" y="49.09053674832153" rx="4" ry="4" fill="black" />
    <rect width="8" height="76.13478396692068" x="1156" y="36.93260801653966" rx="4" ry="4" fill="black" />
    <rect width="8" height="79.82104848730191" x="1172" y="35.089475756349046" rx="4" ry="4" fill="black" />
    <rect width="8" height="103.51975548846322" x="1188" y="23.24012225576839" rx="4" ry="4" fill="black" />
    <rect width="8" height="99.04959534577715" x="1204" y="25.475202327111425" rx="4" ry="4" fill="black" />
    <rect width="8" height="105.53058095856544" x="1220" y="22.23470952071728" rx="4" ry="4" fill="black" />
    <rect width="8" height="100.61373741590384" x="1236" y="24.69313129204808" rx="4" ry="4" fill="black" />
    <rect width="8" height="96.54524834101746" x="1252" y="26.727375829491272" rx="4" ry="4" fill="black" />
    <rect width="8" height="83.98633952989837" x="1268" y="33.00683023505081" rx="4" ry="4" fill="black" />
    <rect width="8" height="76.81320271139634" x="1284" y="36.59339864430183" rx="4" ry="4" fill="black" />
    <rect width="8" height="85.56064802999651" x="1300" y="32.21967598500174" rx="4" ry="4" fill="black" />
    <rect width="8" height="97.44715348571287" x="1316" y="26.276423257143563" rx="4" ry="4" fill="black" />
    <rect width="8" height="113.06661485682793" x="1332" y="18.466692571586037" rx="4" ry="4" fill="black" />
    <rect width="8" height="120.44911705513994" x="1348" y="14.775441472430032" rx="4" ry="4" fill="black" />
    <rect width="8" height="95.73602049467524" x="1364" y="27.131989752662378" rx="4" ry="4" fill="black" />
    <rect width="8" height="83.10006662946547" x="1380" y="33.44996668526726" rx="4" ry="4" fill="black" />
    <rect width="8" height="77.99372855937392" x="1396" y="36.00313572031304" rx="4" ry="4" fill="black" />
    <rect width="8" height="77.30572853788259" x="1412" y="36.34713573105871" rx="4" ry="4" fill="black" />
    <rect width="8" height="57.95270300513564" x="1428" y="46.02364849743218" rx="4" ry="4" fill="black" />
    <rect width="8" height="149.11060617694136" x="1444" y="0.44469691152932" rx="4" ry="4" fill="black" />
    <rect width="8" height="91.06148415340995" x="1460" y="29.469257923295025" rx="4" ry="4" fill="black" />
    <rect width="8" height="134.27470174734657" x="1476" y="7.8626491263267155" rx="4" ry="4" fill="black" />
    <rect width="8" height="111.73740480804425" x="1492" y="19.131297595977877" rx="4" ry="4" fill="black" />
    <rect width="8" height="150" x="1508" y="0" rx="4" ry="4" fill="black" />
    <rect width="8" height="107.85990753005493" x="1524" y="21.070046234972537" rx="4" ry="4" fill="black" />
    <rect width="8" height="90.70798556184437" x="1540" y="29.646007219077816" rx="4" ry="4" fill="black" />
    <rect width="8" height="75.23855788557803" x="1556" y="37.380721057210984" rx="4" ry="4" fill="black" />
    <rect width="8" height="102.5484236013375" x="1572" y="23.725788199331248" rx="4" ry="4" fill="black" />
    <rect width="8" height="110.80211283997953" x="1588" y="19.598943580010236" rx="4" ry="4" fill="black" />
    <rect width="8" height="143.93840898538147" x="1604" y="3.0307955073092643" rx="4" ry="4" fill="black" />
    <rect width="8" height="137.22824413406627" x="1620" y="6.385877932966864" rx="4" ry="4" fill="black" />
    <rect width="8" height="111.47134501622615" x="1636" y="19.264327491886924" rx="4" ry="4" fill="black" />
    <rect width="8" height="92.06026331182687" x="1652" y="28.969868344086564" rx="4" ry="4" fill="black" />
    <rect width="8" height="66.2987918578618" x="1668" y="41.8506040710691" rx="4" ry="4" fill="black" />
    <rect width="8" height="74.72337588438825" x="1684" y="37.63831205780588" rx="4" ry="4" fill="black" />
    <rect width="8" height="54.71210321868217" x="1700" y="47.64394839065892" rx="4" ry="4" fill="black" />
    <rect width="8" height="112.19036943964106" x="1716" y="18.90481528017947" rx="4" ry="4" fill="black" />
    <rect width="8" height="106.45400500752221" x="1732" y="21.772997496238894" rx="4" ry="4" fill="black" />
    <rect width="8" height="131.27038386946498" x="1748" y="9.36480806526751" rx="4" ry="4" fill="black" />
    <rect width="8" height="112.7693493340791" x="1764" y="18.615325332960452" rx="4" ry="4" fill="black" />
    <rect width="8" height="125.90183629124041" x="1780" y="12.049081854379793" rx="4" ry="4" fill="black" />
    <rect width="8" height="93.3454101434975" x="1796" y="28.32729492825125" rx="4" ry="4" fill="black" />
    <rect width="8" height="77.10866611317182" x="1812" y="36.44566694341409" rx="4" ry="4" fill="black" />
    <rect width="8" height="104.37678975192848" x="1828" y="22.811605124035758" rx="4" ry="4" fill="black" />
    <rect width="8" height="68.55271593342611" x="1844" y="40.72364203328694" rx="4" ry="4" fill="black" />
    <rect width="8" height="131.23854995868652" x="1860" y="9.38072502065674" rx="4" ry="4" fill="black" />
    <rect width="8" height="134.38945298034366" x="1876" y="7.805273509828169" rx="4" ry="4" fill="black" />
    <rect width="8" height="90.22438140273111" x="1892" y="29.887809298634444" rx="4" ry="4" fill="black" />
    <rect width="8" height="89.21557235058474" x="1908" y="30.392213824707632" rx="4" ry="4" fill="black" />
    <rect width="8" height="97.25574455484424" x="1924" y="26.37212772257788" rx="4" ry="4" fill="black" />
    <rect width="8" height="105.55061854460565" x="1940" y="22.224690727697173" rx="4" ry="4" fill="black" />
    <rect width="8" height="92.52842428649734" x="1956" y="28.73578785675133" rx="4" ry="4" fill="black" />
    <rect width="8" height="76.65535702581276" x="1972" y="36.67232148709362" rx="4" ry="4" fill="black" />
    <rect width="8" height="120.97071759778083" x="1988" y="14.514641201109583" rx="4" ry="4" fill="black" />
    <rect width="8" height="113.1464413628328" x="2004" y="18.4267793185836" rx="4" ry="4" fill="black" />
    <rect width="8" height="109.31082658398861" x="2020" y="20.344586708005693" rx="4" ry="4" fill="black" />
    <rect width="8" height="119.49468480635039" x="2036" y="15.252657596824804" rx="4" ry="4" fill="black" />
    <rect width="8" height="129.61365109843982" x="2052" y="10.193174450780091" rx="4" ry="4" fill="black" />
    <rect width="8" height="127.56888162532869" x="2068" y="11.215559187335657" rx="4" ry="4" fill="black" />
    <rect width="8" height="130.7346023233008" x="2084" y="9.632698838349597" rx="4" ry="4" fill="black" />
    <rect width="8" height="73.7493358859666" x="2100" y="38.1253320570167" rx="4" ry="4" fill="black" />
    <rect width="8" height="123.61428909989176" x="2116" y="13.192855450054118" rx="4" ry="4" fill="black" />
    <rect width="8" height="131.8193654675287" x="2132" y="9.090317266235644" rx="4" ry="4" fill="black" />
    <rect width="8" height="99.80020719580833" x="2148" y="25.099896402095837" rx="4" ry="4" fill="black" />
    <rect width="8" height="92.68653813602371" x="2164" y="28.656730931988143" rx="4" ry="4" fill="black" />
    <rect width="8" height="104.147104154943" x="2180" y="22.926447922528503" rx="4" ry="4" fill="black" />
    <rect width="8" height="50.777255051767504" x="2196" y="49.61137247411625" rx="4" ry="4" fill="black" />
    <rect width="8" height="22.155328303923323" x="2212" y="63.92233584803834" rx="4" ry="4" fill="black" />
    <rect width="8" height="8" x="2228" y="71" rx="4" ry="4" fill="black" />
    <rect width="8" height="8" x="2244" y="71" rx="4" ry="4" fill="black" />
    <rect width="8" height="8" x="2260" y="71" rx="4" ry="4" fill="black" />
    <rect width="8" height="8" x="2276" y="71" rx="4" ry="4" fill="black" />
    <rect width="8" height="8" x="2292" y="71" rx="4" ry="4" fill="black" />
    <rect width="8" height="8" x="2308" y="71" rx="4" ry="4" fill="black" />
    <rect width="8" height="8" x="2324" y="71" rx="4" ry="4" fill="black" />
    <rect width="8" height="8" x="2340" y="71" rx="4" ry="4" fill="black" />
    <rect width="8" height="8" x="2356" y="71" rx="4" ry="4" fill="black" />
    <rect width="8" height="8" x="2372" y="71" rx="4" ry="4" fill="black" />
    <rect width="8" height="8" x="2388" y="71" rx="4" ry="4" fill="black" />
  </g>
</svg>