<svg 
  baseProfile="tiny"
  preserveAspectRatio="true"
  version="1.2"
  viewBox="0 0 2400 150"
  height="100%" width="100%"
  xmlns="http://www.w3.org/2000/svg"
  xmlns:ev="http://www.w3.org/2001/xml-events"
  xmlns:xlink="http://www.w3.org/1999/xlink"
>
  <g>
    <rect width="8" height="8" x="4" y="71" rx="4" ry="4" fill="black" />
    <rect width="8" height="31.523899457885854" x="20" y="59.23805027105708" rx="4" ry="4" fill="black" />
    <rect width="8" height="25.079752436004505" x="36" y="62.46012378199775" rx="4" ry="4" fill="black" />
    <rect width="8" height="56.86717056845444" x="52" y="46.56641471577278" rx="4" ry="4" fill="black" />
    <rect width="8" height="35.18464125144209" x="68" y="57.407679374278956" rx="4" ry="4" fill="black" />
    <rect width="8" height="109.77404551458415" x="84" y="20.112977242707927" rx="4" ry="4" fill="black" />
    <rect width="8" height="73.49079700303858" x="100" y="38.25460149848071" rx="4" ry="4" fill="black" />
    <rect width="8" height="148.38182366260432" x="116" y="0.8090881686978406" rx="4" ry="4" fill="black" />
    <rect width="8" height="99.50869465599439" x="132" y="25.245652672002805" rx="4" ry="4" fill="black" />
    <rect width="8" height="36.655213555151825" x="148" y="56.67239322242409" rx="4" ry="4" fill="black" />
    <rect width="8" height="104.27075177666491" x="164" y="22.864624111667545" rx="4" ry="4" fill="black" />
    <rect width="8" height="61.84550011529961" x="180" y="44.07724994235019" rx="4" ry="4" fill="black" />
    <rect width="8" height="137.89620260950213" x="196" y="6.051898695248937" rx="4" ry="4" fill="black" />
    <rect width="8" height="66.74067023629873" x="212" y="41.62966488185064" rx="4" ry="4" fill="black" />
    <rect width="8" height="108.5613265996063" x="228" y="20.71933670019685" rx="4" ry="4" fill="black" />
    <rect width="8" height="101.36302795604993" x="244" y="24.318486021975033" rx="4" ry="4" fill="black" />
    <rect width="8" height="118.33987874079084" x="260" y="15.830060629604581" rx="4" ry="4" fill="black" />
    <rect width="8" height="93.38039530522498" x="276" y="28.30980234738751" rx="4" ry="4" fill="black" />
    <rect width="8" height="80.51880138932738" x="292" y="34.74059930533631" rx="4" ry="4" fill="black" />
    <rect width="8" height="114.249461495897" x="308" y="17.875269252051503" rx="4" ry="4" fill="black" />
    <rect width="8" height="60.00554777491172" x="324" y="44.99722611254414" rx="4" ry="4" fill="black" />
    <rect width="8" height="99.3616091977648" x="340" y="25.319195401117597" rx="4" ry="4" fill="black" />
    <rect width="8" height="71.53788627747728" x="356" y="39.23105686126136" rx="4" ry="4" fill="black" />
    <rect width="8" height="115.86062300807774" x="372" y="17.06968849596113" rx="4" ry="4" fill="black" />
    <rect width="8" height="96.0790338846407" x="388" y="26.960483057679653" rx="4" ry="4" fill="black" />
    <rect width="8" height="126.8814870934113" x="404" y="11.559256453294353" rx="4" ry="4" fill="black" />
    <rect width="8" height="85.06004752017813" x="420" y="32.469976239910935" rx="4" ry="4" fill="black" />
    <rect width="8" height="48.49415040473427" x="436" y="50.752924797632865" rx="4" ry="4" fill="black" />
    <rect width="8" height="110.18872942002716" x="452" y="19.90563528998642" rx="4" ry="4" fill="black" />
    <rect width="8" height="68.74266792634974" x="468" y="40.62866603682513" rx="4" ry="4" fill="black" />
    <rect width="8" height="136.30317472151245" x="484" y="6.848412639243776" rx="4" ry="4" fill="black" />
    <rect width="8" height="87.70315219101903" x="500" y="31.148423904490485" rx="4" ry="4" fill="black" />
    <rect width="8" height="116.36880454347957" x="516" y="16.815597728260215" rx="4" ry="4" fill="black" />
    <rect width="8" height="73.03653123958415" x="532" y="38.481734380207925" rx="4" ry="4" fill="black" />
    <rect width="8" height="127.76568131749106" x="548" y="11.117159341254471" rx="4" ry="4" fill="black" />
    <rect width="8" height="88.65090898480004" x="564" y="30.67454550759998" rx="4" ry="4" fill="black" />
    <rect width="8" height="50.854264939733135" x="580" y="49.572867530133436" rx="4" ry="4" fill="black" />
    <rect width="8" height="91.38003694072471" x="596" y="29.309981529637646" rx="4" ry="4" fill="black" />
    <rect width="8" height="98.98813216782341" x="612" y="25.505933916088296" rx="4" ry="4" fill="black" />
    <rect width="8" height="120.23108327937457" x="628" y="14.884458360312713" rx="4" ry="4" fill="black" />
    <rect width="8" height="68.96968870938323" x="644" y="40.51515564530838" rx="4" ry="4" fill="black" />
    <rect width="8" height="134.7742191293028" x="660" y="7.6128904353486035" rx="4" ry="4" fill="black" />
    <rect width="8" height="106.12452677759764" x="676" y="21.93773661120118" rx="4" ry="4" fill="black" />
    <rect width="8" height="150" x="692" y="0" rx="4" ry="4" fill="black" />
    <rect width="8" height="113.40318433834652" x="708" y="18.29840783082674" rx="4" ry="4" fill="black" />
    <rect width="8" height="132.48883939137096" x="724" y="8.75558030431452" rx="4" ry="4" fill="black" />
    <rect width="8" height="140.87097962175696" x="740" y="4.5645101891215205" rx="4" ry="4" fill="black" />
    <rect width="8" height="94.44955888054388" x="756" y="27.775220559728062" rx="4" ry="4" fill="black" />
    <rect width="8" height="123.99289376021298" x="772" y="13.00355311989351" rx="4" ry="4" fill="black" />
    <rect width="8" height="93.7279284697716" x="788" y="28.1360357651142" rx="4" ry="4" fill="black" />
    <rect width="8" height="121.10964360088542" x="804" y="14.44517819955729" rx="4" ry="4" fill="black" />
    <rect width="8" height="89.50115270810818" x="820" y="30.24942364594591" rx="4" ry="4" fill="black" />
    <rect width="8" height="137.8323523913825" x="836" y="6.08382380430875" rx="4" ry="4" fill="black" />
    <rect width="8" height="108.66656600639111" x="852" y="20.666716996804446" rx="4" ry="4" fill="black" />
    <rect width="8" height="131.37016668540747" x="868" y="9.314916657296266" rx="4" ry="4" fill="black" />
    <rect width="8" height="102.12965772823942" x="884" y="23.93517113588029" rx="4" ry="4" fill="black" />
    <rect width="8" height="65.27752585402716" x="900" y="42.36123707298642" rx="4" ry="4" fill="black" />
    <rect width="8" height="113.52341076348617" x="916" y="18.238294618256916" rx="4" ry="4" fill="black" />
    <rect width="8" height="82.19880442246317" x="932" y="33.900597788768415" rx="4" ry="4" fill="black" />
    <rect width="8" height="123.39552477297839" x="948" y="13.302237613510805" rx="4" ry="4" fill="black" />
    <rect width="8" height="92.0789297239052" x="964" y="28.960535138047398" rx="4" ry="4" fill="black" />
    <rect width="8" height="120.80701006312795" x="980" y="14.596494968436026" rx="4" ry="4" fill="black" />
    <rect width="8" height="102.99277390531992" x="996" y="23.50361304734004" rx="4" ry="4" fill="black" />
    <rect width="8" height="130.4326923937765" x="1012" y="9.783653803111747" rx="4" ry="4" fill="black" />
    <rect width="8" height="125.39763968463555" x="1028" y="12.301180157682225" rx="4" ry="4" fill="black" />
    <rect width="8" height="86.24781963802565" x="1044" y="31.876090180987177" rx="4" ry="4" fill="black" />
    <rect width="8" height="115.16193070509526" x="1060" y="17.41903464745237" rx="4" ry="4" fill="black" />
    <rect width="8" height="83.46668409973742" x="1076" y="33.26665795013129" rx="4" ry="4" fill="black" />
    <rect width="8" height="129.5896269210037" x="1092" y="10.205186539498143" rx="4" ry="4" fill="black" />
    <rect width="8" height="81.15622880285069" x="1108" y="34.421885598574654" rx="4" ry="4" fill="black" />
    <rect width="8" height="114.92971175741195" x="1124" y="17.535144121294024" rx="4" ry="4" fill="black" />
    <rect width="8" height="105.42036569189227" x="1140" y="22.289817154053864" rx="4" ry="4" fill="black" />
    <rect width="8" height="138.66680403902075" x="1156" y="5.666597980489627" rx="4" ry="4" fill="black" />
    <rect width="8" height="108.6134528926984" x="1172" y="20.693273553650798" rx="4" ry="4" fill="black" />
    <rect width="8" height="93.20288676191612" x="1188" y="28.39855661904194" rx="4" ry="4" fill="black" />
    <rect width="8" height="127.28344387823816" x="1204" y="11.35827806088092" rx="4" ry="4" fill="black" />
    <rect width="8" height="77.3224738127521" x="1220" y="36.33876309362395" rx="4" ry="4" fill="black" />
    <rect width="8" height="136.2532790378978" x="1236" y="6.873360481051094" rx="4" ry="4" fill="black" />
    <rect width="8" height="109.18074064795687" x="1252" y="20.409629676021567" rx="4" ry="4" fill="black" />
    <rect width="8" height="120.29297844496644" x="1268" y="14.853510777516782" rx="4" ry="4" fill="black" />
    <rect width="8" height="97.78266626036078" x="1284" y="26.108666869819608" rx="4" ry="4" fill="black" />
    <rect width="8" height="133.77603613187895" x="1300" y="8.111981934060523" rx="4" ry="4" fill="black" />
    <rect width="8" height="122.53731921879039" x="1316" y="13.731340390604807" rx="4" ry="4" fill="black" />
    <rect width="8" height="93.82441197170311" x="1332" y="28.087794014148443" rx="4" ry="4" fill="black" />
    <rect width="8" height="109.15440817412258" x="1348" y="20.42279591293871" rx="4" ry="4" fill="black" />
    <rect width="8" height="76.65925024646815" x="1364" y="36.670374876765926" rx="4" ry="4" fill="black" />
    <rect width="8" height="121.32803281722347" x="1380" y="14.335983591388263" rx="4" ry="4" fill="black" />
    <rect width="8" height="85.67715448021407" x="1396" y="32.161422759892965" rx="4" ry="4" fill="black" />
    <rect width="8" height="126.5142442482999" x="1412" y="11.742877875850048" rx="4" ry="4" fill="black" />
    <rect width="8" height="92.26674683669907" x="1428" y="28.866626581650465" rx="4" ry="4" fill="black" />
    <rect width="8" height="129.7809465322743" x="1444" y="10.10952673386285" rx="4" ry="4" fill="black" />
    <rect width="8" height="101.00703101475104" x="1460" y="24.496484492624482" rx="4" ry="4" fill="black" />
    <rect width="8" height="132.32213930605334" x="1476" y="8.838930346973328" rx="4" ry="4" fill="black" />
    <rect width="8" height="102.25405263745782" x="1492" y="23.87297368127109" rx="4" ry="4" fill="black" />
    <rect width="8" height="96.57051253384036" x="1508" y="26.71474373307982" rx="4" ry="4" fill="black" />
    <rect width="8" height="116.3425439599194" x="1524" y="16.8287280200403" rx="4" ry="4" fill="black" />
    <rect width="8" height="82.9706562143723" x="1540" y="33.51467189281385" rx="4" ry="4" fill="black" />
    <rect width="8" height="119.34868095141078" x="1556" y="15.325659524294608" rx="4" ry="4" fill="black" />
    <rect width="8" height="107.1283767994963" x="1572" y="21.435811600251853" rx="4" ry="4" fill="black" />
    <rect width="8" height="131.09968681151295" x="1588" y="9.450156594243524" rx="4" ry="4" fill="black" />
    <rect width="8" height="120.7449073199565" x="1604" y="14.627546340021752" rx="4" ry="4" fill="black" />
    <rect width="8" height="136.0442794816126" x="1620" y="6.9778602591937045" rx="4" ry="4" fill="black" />
    <rect width="8" height="124.26691204672" x="1636" y="12.866543976640003" rx="4" ry="4" fill="black" />
    <rect width="8" height="89.80433979986677" x="1652" y="30.097830100066616" rx="4" ry="4" fill="black" />
    <rect width="8" height="113.08776423284766" x="1668" y="18.45611788357617" rx="4" ry="4" fill="black" />
    <rect width="8" height="103.20523927492067" x="1684" y="23.397380362539664" rx="4" ry="4" fill="black" />
    <rect width="8" height="136.2863416997522" x="1700" y="6.8568291501239" rx="4" ry="4" fill="black" />
    <rect width="8" height="103.29063301661651" x="1716" y="23.354683491691745" rx="4" ry="4" fill="black" />
    <rect width="8" height="129.1267083616346" x="1732" y="10.4366458191827" rx="4" ry="4" fill="black" />
    <rect width="8" height="103.83124541337516" x="1748" y="23.08437729331242" rx="4" ry="4" fill="black" />
    <rect width="8" height="130.43455028627815" x="1764" y="9.782724856860924" rx="4" ry="4" fill="black" />
    <rect width="8" height="147.15373572449337" x="1780" y="1.4231321377533135" rx="4" ry="4" fill="black" />
    <rect width="8" height="83.97914975824648" x="1796" y="33.01042512087676" rx="4" ry="4" fill="black" />
    <rect width="8" height="115.9192755649538" x="1812" y="17.040362217523104" rx="4" ry="4" fill="black" />
    <rect width="8" height="76.82957148189644" x="1828" y="36.58521425905178" rx="4" ry="4" fill="black" />
    <rect width="8" height="123.7170566082145" x="1844" y="13.141471695892747" rx="4" ry="4" fill="black" />
    <rect width="8" height="138.67446075557646" x="1860" y="5.662769622211769" rx="4" ry="4" fill="black" />
    <rect width="8" height="134.4629697250631" x="1876" y="7.768515137468455" rx="4" ry="4" fill="black" />
    <rect width="8" height="103.7877744182452" x="1892" y="23.106112790877397" rx="4" ry="4" fill="black" />
    <rect width="8" height="140.94938527582173" x="1908" y="4.525307362089137" rx="4" ry="4" fill="black" />
    <rect width="8" height="110.00866099166326" x="1924" y="19.99566950416837" rx="4" ry="4" fill="black" />
    <rect width="8" height="98.08821542118753" x="1940" y="25.955892289406236" rx="4" ry="4" fill="black" />
    <rect width="8" height="123.83429100598785" x="1956" y="13.082854497006075" rx="4" ry="4" fill="black" />
    <rect width="8" height="107.7288330832438" x="1972" y="21.1355834583781" rx="4" ry="4" fill="black" />
    <rect width="8" height="133.53929257008917" x="1988" y="8.230353714955413" rx="4" ry="4" fill="black" />
    <rect width="8" height="96.4855839492742" x="2004" y="26.7572080253629" rx="4" ry="4" fill="black" />
    <rect width="8" height="116.57932458786134" x="2020" y="16.710337706069332" rx="4" ry="4" fill="black" />
    <rect width="8" height="79.59444069453446" x="2036" y="35.20277965273277" rx="4" ry="4" fill="black" />
    <rect width="8" height="113.29929434043856" x="2052" y="18.350352829780718" rx="4" ry="4" fill="black" />
    <rect width="8" height="89.20665448404857" x="2068" y="30.396672757975715" rx="4" ry="4" fill="black" />
    <rect width="8" height="17.830047995542543" x="2084" y="66.08497600222873" rx="4" ry="4" fill="black" />
    <rect width="8" height="91.75844614519839" x="2100" y="29.120776927400804" rx="4" ry="4" fill="black" />
    <rect width="8" height="47.633380105218436" x="2116" y="51.18330994739078" rx="4" ry="4" fill="black" />
    <rect width="8" height="103.81688849904299" x="2132" y="23.091555750478506" rx="4" ry="4" fill="black" />
    <rect width="8" height="56.04016196531331" x="2148" y="46.97991901734335" rx="4" ry="4" fill="black" />
    <rect width="8" height="108.29380319727134" x="2164" y="20.853098401364328" rx="4" ry="4" fill="black" />
    <rect width="8" height="77.88023524836109" x="2180" y="36.059882375819456" rx="4" ry="4" fill="black" />
    <rect width="8" height="113.81837517120711" x="2196" y="18.090812414396446" rx="4" ry="4" fill="black" />
    <rect width="8" height="77.97076883921949" x="2212" y="36.014615580390256" rx="4" ry="4" fill="black" />
    <rect width="8" height="8" x="2228" y="71" rx="4" ry="4" fill="black" />
    <rect width="8" height="86.66129057760011" x="2244" y="31.669354711199944" rx="4" ry="4" fill="black" />
    <rect width="8" height="8" x="2260" y="71" rx="4" ry="4" fill="black" />
    <rect width="8" height="8" x="2276" y="71" rx="4" ry="4" fill="black" />
    <rect width="8" height="8" x="2292" y="71" rx="4" ry="4" fill="black" />
    <rect width="8" height="8" x="2308" y="71" rx="4" ry="4" fill="black" />
    <rect width="8" height="8" x="2324" y="71" rx="4" ry="4" fill="black" />
    <rect width="8" height="8" x="2340" y="71" rx="4" ry="4" fill="black" />
    <rect width="8" height="8" x="2356" y="71" rx="4" ry="4" fill="black" />
    <rect width="8" height="8" x="2372" y="71" rx="4" ry="4" fill="black" />
    <rect width="8" height="8" x="2388" y="71" rx="4" ry="4" fill="black" />
  </g>
</svg>