<svg 
  baseProfile="tiny"
  preserveAspectRatio="true"
  version="1.2"
  viewBox="0 0 2400 150"
  height="100%" width="100%"
  xmlns="http://www.w3.org/2000/svg"
  xmlns:ev="http://www.w3.org/2001/xml-events"
  xmlns:xlink="http://www.w3.org/1999/xlink"
>
  <g>
    <rect width="8" height="36.61295324882692" x="4" y="56.69352337558654" rx="4" ry="4" fill="black" />
    <rect width="8" height="40.151239004361095" x="20" y="54.924380497819456" rx="4" ry="4" fill="black" />
    <rect width="8" height="36.725154978791494" x="36" y="56.63742251060425" rx="4" ry="4" fill="black" />
    <rect width="8" height="40.84596914031657" x="52" y="54.577015429841715" rx="4" ry="4" fill="black" />
    <rect width="8" height="43.96837413215323" x="68" y="53.015812933923385" rx="4" ry="4" fill="black" />
    <rect width="8" height="83.63047162308928" x="84" y="33.18476418845536" rx="4" ry="4" fill="black" />
    <rect width="8" height="38.44517493548174" x="100" y="55.777412532259135" rx="4" ry="4" fill="black" />
    <rect width="8" height="43.27203359443038" x="116" y="53.36398320278481" rx="4" ry="4" fill="black" />
    <rect width="8" height="36.06543923969056" x="132" y="56.96728038015472" rx="4" ry="4" fill="black" />
    <rect width="8" height="33.29739168133363" x="148" y="58.35130415933318" rx="4" ry="4" fill="black" />
    <rect width="8" height="55.81722308056786" x="164" y="47.09138845971607" rx="4" ry="4" fill="black" />
    <rect width="8" height="49.02758578876542" x="180" y="50.48620710561729" rx="4" ry="4" fill="black" />
    <rect width="8" height="47.07397300692696" x="196" y="51.46301349653652" rx="4" ry="4" fill="black" />
    <rect width="8" height="37.138982773975236" x="212" y="56.43050861301238" rx="4" ry="4" fill="black" />
    <rect width="8" height="39.94833514387432" x="228" y="55.02583242806284" rx="4" ry="4" fill="black" />
    <rect width="8" height="53.633739705985604" x="244" y="48.1831301470072" rx="4" ry="4" fill="black" />
    <rect width="8" height="56.870472851687175" x="260" y="46.564763574156416" rx="4" ry="4" fill="black" />
    <rect width="8" height="58.86375576237936" x="276" y="45.56812211881032" rx="4" ry="4" fill="black" />
    <rect width="8" height="54.902459753452895" x="292" y="47.548770123273556" rx="4" ry="4" fill="black" />
    <rect width="8" height="39.89748505724765" x="308" y="55.051257471376175" rx="4" ry="4" fill="black" />
    <rect width="8" height="53.29718046775949" x="324" y="48.351409766120256" rx="4" ry="4" fill="black" />
    <rect width="8" height="51.104157219784305" x="340" y="49.44792139010785" rx="4" ry="4" fill="black" />
    <rect width="8" height="57.09006573161152" x="356" y="46.45496713419424" rx="4" ry="4" fill="black" />
    <rect width="8" height="54.32027908205551" x="372" y="47.83986045897225" rx="4" ry="4" fill="black" />
    <rect width="8" height="59.733484218065314" x="388" y="45.13325789096734" rx="4" ry="4" fill="black" />
    <rect width="8" height="44.876723360886544" x="404" y="52.56163831955673" rx="4" ry="4" fill="black" />
    <rect width="8" height="46.7687558237592" x="420" y="51.6156220881204" rx="4" ry="4" fill="black" />
    <rect width="8" height="52.539882246397966" x="436" y="48.73005887680102" rx="4" ry="4" fill="black" />
    <rect width="8" height="49.080365046727145" x="452" y="50.45981747663643" rx="4" ry="4" fill="black" />
    <rect width="8" height="55.830712737290064" x="468" y="47.084643631354965" rx="4" ry="4" fill="black" />
    <rect width="8" height="45.58665189985064" x="484" y="52.20667405007468" rx="4" ry="4" fill="black" />
    <rect width="8" height="94.83016054182688" x="500" y="27.584919729086558" rx="4" ry="4" fill="black" />
    <rect width="8" height="66.49349445180763" x="516" y="41.75325277409618" rx="4" ry="4" fill="black" />
    <rect width="8" height="60.94615481594553" x="532" y="44.52692259202723" rx="4" ry="4" fill="black" />
    <rect width="8" height="72.89597709738946" x="548" y="38.55201145130527" rx="4" ry="4" fill="black" />
    <rect width="8" height="63.56940709218004" x="564" y="43.21529645390998" rx="4" ry="4" fill="black" />
    <rect width="8" height="77.63177360578639" x="580" y="36.184113197106804" rx="4" ry="4" fill="black" />
    <rect width="8" height="72.4481664946656" x="596" y="38.7759167526672" rx="4" ry="4" fill="black" />
    <rect width="8" height="72.73949450383726" x="612" y="38.63025274808137" rx="4" ry="4" fill="black" />
    <rect width="8" height="55.39642301873719" x="628" y="47.30178849063141" rx="4" ry="4" fill="black" />
    <rect width="8" height="75.35762887411393" x="644" y="37.321185562943036" rx="4" ry="4" fill="black" />
    <rect width="8" height="69.79467759580511" x="660" y="40.102661202097444" rx="4" ry="4" fill="black" />
    <rect width="8" height="61.66585704586689" x="676" y="44.16707147706656" rx="4" ry="4" fill="black" />
    <rect width="8" height="85.84098601363476" x="692" y="32.07950699318262" rx="4" ry="4" fill="black" />
    <rect width="8" height="89.12549128140564" x="708" y="30.437254359297178" rx="4" ry="4" fill="black" />
    <rect width="8" height="66.25177626400091" x="724" y="41.874111867999545" rx="4" ry="4" fill="black" />
    <rect width="8" height="72.77779691802064" x="740" y="38.61110154098968" rx="4" ry="4" fill="black" />
    <rect width="8" height="85.99843300563549" x="756" y="32.000783497182255" rx="4" ry="4" fill="black" />
    <rect width="8" height="75.03912902507393" x="772" y="37.48043548746303" rx="4" ry="4" fill="black" />
    <rect width="8" height="99.71279402762532" x="788" y="25.14360298618734" rx="4" ry="4" fill="black" />
    <rect width="8" height="86.17870018908783" x="804" y="31.910649905456083" rx="4" ry="4" fill="black" />
    <rect width="8" height="76.936164489261" x="820" y="36.5319177553695" rx="4" ry="4" fill="black" />
    <rect width="8" height="84.34139988697025" x="836" y="32.829300056514874" rx="4" ry="4" fill="black" />
    <rect width="8" height="83.45615361223689" x="852" y="33.271923193881555" rx="4" ry="4" fill="black" />
    <rect width="8" height="89.41736255724996" x="868" y="30.29131872137502" rx="4" ry="4" fill="black" />
    <rect width="8" height="75.47819562593165" x="884" y="37.260902187034176" rx="4" ry="4" fill="black" />
    <rect width="8" height="73.86827089559712" x="900" y="38.06586455220144" rx="4" ry="4" fill="black" />
    <rect width="8" height="36.41818808143562" x="916" y="56.790905959282185" rx="4" ry="4" fill="black" />
    <rect width="8" height="115.45783175559608" x="932" y="17.271084122201962" rx="4" ry="4" fill="black" />
    <rect width="8" height="75.38669834154126" x="948" y="37.30665082922937" rx="4" ry="4" fill="black" />
    <rect width="8" height="25.832621947181895" x="964" y="62.083689026409054" rx="4" ry="4" fill="black" />
    <rect width="8" height="55.27457312481534" x="980" y="47.36271343759233" rx="4" ry="4" fill="black" />
    <rect width="8" height="36.597598401506204" x="996" y="56.7012007992469" rx="4" ry="4" fill="black" />
    <rect width="8" height="67.03851372279154" x="1012" y="41.48074313860423" rx="4" ry="4" fill="black" />
    <rect width="8" height="28.170436579009184" x="1028" y="60.914781710495404" rx="4" ry="4" fill="black" />
    <rect width="8" height="70.5264159432744" x="1044" y="39.7367920283628" rx="4" ry="4" fill="black" />
    <rect width="8" height="56.16036946155026" x="1060" y="46.91981526922487" rx="4" ry="4" fill="black" />
    <rect width="8" height="89.1599509083823" x="1076" y="30.42002454580885" rx="4" ry="4" fill="black" />
    <rect width="8" height="25.36194660161816" x="1092" y="62.31902669919092" rx="4" ry="4" fill="black" />
    <rect width="8" height="8" x="1108" y="71" rx="4" ry="4" fill="black" />
    <rect width="8" height="60.08740341992733" x="1124" y="44.95629829003634" rx="4" ry="4" fill="black" />
    <rect width="8" height="30.32456872786222" x="1140" y="59.83771563606889" rx="4" ry="4" fill="black" />
    <rect width="8" height="43.08771978279161" x="1156" y="53.456140108604195" rx="4" ry="4" fill="black" />
    <rect width="8" height="34.568521479424064" x="1172" y="57.71573926028797" rx="4" ry="4" fill="black" />
    <rect width="8" height="106.2861399841428" x="1188" y="21.856930007928597" rx="4" ry="4" fill="black" />
    <rect width="8" height="72.61323167832663" x="1204" y="38.693384160836686" rx="4" ry="4" fill="black" />
    <rect width="8" height="38.18855340113323" x="1220" y="55.90572329943339" rx="4" ry="4" fill="black" />
    <rect width="8" height="71.74762307606169" x="1236" y="39.12618846196916" rx="4" ry="4" fill="black" />
    <rect width="8" height="55.02129745229771" x="1252" y="47.48935127385114" rx="4" ry="4" fill="black" />
    <rect width="8" height="106.9222074053798" x="1268" y="21.538896297310103" rx="4" ry="4" fill="black" />
    <rect width="8" height="48.251850133829855" x="1284" y="50.87407493308507" rx="4" ry="4" fill="black" />
    <rect width="8" height="105.82187059416434" x="1300" y="22.08906470291783" rx="4" ry="4" fill="black" />
    <rect width="8" height="88.25988892964939" x="1316" y="30.870055535175304" rx="4" ry="4" fill="black" />
    <rect width="8" height="104.31966698639333" x="1332" y="22.840166506803335" rx="4" ry="4" fill="black" />
    <rect width="8" height="44.342320851023636" x="1348" y="52.828839574488185" rx="4" ry="4" fill="black" />
    <rect width="8" height="33.83209123916509" x="1364" y="58.08395438041745" rx="4" ry="4" fill="black" />
    <rect width="8" height="98.71679143790375" x="1380" y="25.641604281048124" rx="4" ry="4" fill="black" />
    <rect width="8" height="56.998709534424044" x="1396" y="46.500645232787974" rx="4" ry="4" fill="black" />
    <rect width="8" height="103.13819462312401" x="1412" y="23.430902688437996" rx="4" ry="4" fill="black" />
    <rect width="8" height="85.16848261020058" x="1428" y="32.41575869489971" rx="4" ry="4" fill="black" />
    <rect width="8" height="134.29054682572553" x="1444" y="7.854726587137236" rx="4" ry="4" fill="black" />
    <rect width="8" height="74.48948027445832" x="1460" y="37.75525986277084" rx="4" ry="4" fill="black" />
    <rect width="8" height="37.18419451060974" x="1476" y="56.40790274469513" rx="4" ry="4" fill="black" />
    <rect width="8" height="101.06787582222019" x="1492" y="24.466062088889906" rx="4" ry="4" fill="black" />
    <rect width="8" height="73.13090630989407" x="1508" y="38.434546845052964" rx="4" ry="4" fill="black" />
    <rect width="8" height="134.45335777036826" x="1524" y="7.773321114815872" rx="4" ry="4" fill="black" />
    <rect width="8" height="87.84099911957944" x="1540" y="31.079500440210282" rx="4" ry="4" fill="black" />
    <rect width="8" height="149.58710962834823" x="1556" y="0.2064451858258849" rx="4" ry="4" fill="black" />
    <rect width="8" height="124.07405475689346" x="1572" y="12.96297262155327" rx="4" ry="4" fill="black" />
    <rect width="8" height="75.66471705621366" x="1588" y="37.16764147189317" rx="4" ry="4" fill="black" />
    <rect width="8" height="90.62342704996365" x="1604" y="29.688286475018174" rx="4" ry="4" fill="black" />
    <rect width="8" height="76.17391427861213" x="1620" y="36.913042860693935" rx="4" ry="4" fill="black" />
    <rect width="8" height="113.42979109449061" x="1636" y="18.285104452754695" rx="4" ry="4" fill="black" />
    <rect width="8" height="71.57777939937591" x="1652" y="39.21111030031204" rx="4" ry="4" fill="black" />
    <rect width="8" height="101.10798441686808" x="1668" y="24.44600779156596" rx="4" ry="4" fill="black" />
    <rect width="8" height="111.80567797790003" x="1684" y="19.097161011049984" rx="4" ry="4" fill="black" />
    <rect width="8" height="121.81177947409252" x="1700" y="14.094110262953741" rx="4" ry="4" fill="black" />
    <rect width="8" height="101.60008416951807" x="1716" y="24.199957915240965" rx="4" ry="4" fill="black" />
    <rect width="8" height="93.00862107946901" x="1732" y="28.495689460265496" rx="4" ry="4" fill="black" />
    <rect width="8" height="97.07749925498712" x="1748" y="26.46125037250644" rx="4" ry="4" fill="black" />
    <rect width="8" height="81.79312080599874" x="1764" y="34.10343959700063" rx="4" ry="4" fill="black" />
    <rect width="8" height="90.87587085381811" x="1780" y="29.562064573090943" rx="4" ry="4" fill="black" />
    <rect width="8" height="80.00330085126191" x="1796" y="34.998349574369044" rx="4" ry="4" fill="black" />
    <rect width="8" height="130.8448428781923" x="1812" y="9.577578560903845" rx="4" ry="4" fill="black" />
    <rect width="8" height="103.9961400430561" x="1828" y="23.00192997847195" rx="4" ry="4" fill="black" />
    <rect width="8" height="86.84779651927853" x="1844" y="31.576101740360734" rx="4" ry="4" fill="black" />
    <rect width="8" height="98.61966712464844" x="1860" y="25.690166437675778" rx="4" ry="4" fill="black" />
    <rect width="8" height="78.95113126450691" x="1876" y="35.524434367746544" rx="4" ry="4" fill="black" />
    <rect width="8" height="133.0036418224932" x="1892" y="8.498179088753403" rx="4" ry="4" fill="black" />
    <rect width="8" height="94.57532153240008" x="1908" y="27.71233923379996" rx="4" ry="4" fill="black" />
    <rect width="8" height="130.59242590113487" x="1924" y="9.703787049432563" rx="4" ry="4" fill="black" />
    <rect width="8" height="102.74231580540109" x="1940" y="23.628842097299454" rx="4" ry="4" fill="black" />
    <rect width="8" height="123.23967407077906" x="1956" y="13.38016296461047" rx="4" ry="4" fill="black" />
    <rect width="8" height="100.75612307278287" x="1972" y="24.621938463608565" rx="4" ry="4" fill="black" />
    <rect width="8" height="96.10155419710166" x="1988" y="26.94922290144917" rx="4" ry="4" fill="black" />
    <rect width="8" height="116.52291457216363" x="2004" y="16.738542713918186" rx="4" ry="4" fill="black" />
    <rect width="8" height="83.29440706570533" x="2020" y="33.352796467147336" rx="4" ry="4" fill="black" />
    <rect width="8" height="114.06213767302594" x="2036" y="17.968931163487028" rx="4" ry="4" fill="black" />
    <rect width="8" height="104.67320171798117" x="2052" y="22.663399141009414" rx="4" ry="4" fill="black" />
    <rect width="8" height="150" x="2068" y="0" rx="4" ry="4" fill="black" />
    <rect width="8" height="79.89637228154338" x="2084" y="35.05181385922831" rx="4" ry="4" fill="black" />
    <rect width="8" height="48.34456660429771" x="2100" y="50.827716697851145" rx="4" ry="4" fill="black" />
    <rect width="8" height="97.84502418495816" x="2116" y="26.07748790752092" rx="4" ry="4" fill="black" />
    <rect width="8" height="60.82223568092988" x="2132" y="44.58888215953506" rx="4" ry="4" fill="black" />
    <rect width="8" height="91.05673238013722" x="2148" y="29.47163380993139" rx="4" ry="4" fill="black" />
    <rect width="8" height="51.598609666531864" x="2164" y="49.200695166734064" rx="4" ry="4" fill="black" />
    <rect width="8" height="132.37537989385373" x="2180" y="8.812310053073134" rx="4" ry="4" fill="black" />
    <rect width="8" height="68.10925120081305" x="2196" y="40.945374399593476" rx="4" ry="4" fill="black" />
    <rect width="8" height="44.83193216275994" x="2212" y="52.58403391862003" rx="4" ry="4" fill="black" />
    <rect width="8" height="79.72721517544541" x="2228" y="35.136392412277296" rx="4" ry="4" fill="black" />
    <rect width="8" height="51.34015486470507" x="2244" y="49.329922567647465" rx="4" ry="4" fill="black" />
    <rect width="8" height="67.72432477923283" x="2260" y="41.137837610383585" rx="4" ry="4" fill="black" />
    <rect width="8" height="39.04957103643205" x="2276" y="55.47521448178398" rx="4" ry="4" fill="black" />
    <rect width="8" height="118.48713172879147" x="2292" y="15.756434135604266" rx="4" ry="4" fill="black" />
    <rect width="8" height="36.03596606446157" x="2308" y="56.98201696776921" rx="4" ry="4" fill="black" />
    <rect width="8" height="112.05252585604565" x="2324" y="18.973737071977176" rx="4" ry="4" fill="black" />
    <rect width="8" height="65.84869352782098" x="2340" y="42.07565323608951" rx="4" ry="4" fill="black" />
    <rect width="8" height="45.67112582955843" x="2356" y="52.16443708522078" rx="4" ry="4" fill="black" />
    <rect width="8" height="8" x="2372" y="71" rx="4" ry="4" fill="black" />
    <rect width="8" height="8" x="2388" y="71" rx="4" ry="4" fill="black" />
  </g>
</svg>