<svg 
  baseProfile="tiny"
  preserveAspectRatio="true"
  version="1.2"
  viewBox="0 0 2400 150"
  height="100%" width="100%"
  xmlns="http://www.w3.org/2000/svg"
  xmlns:ev="http://www.w3.org/2001/xml-events"
  xmlns:xlink="http://www.w3.org/1999/xlink"
>
  <g>
    <rect width="8" height="66.3064312735818" x="4" y="41.8467843632091" rx="4" ry="4" fill="black" />
    <rect width="8" height="33.33369797026136" x="20" y="58.333151014869316" rx="4" ry="4" fill="black" />
    <rect width="8" height="85.48067928924526" x="36" y="32.25966035537737" rx="4" ry="4" fill="black" />
    <rect width="8" height="50.50019983397138" x="52" y="49.74990008301431" rx="4" ry="4" fill="black" />
    <rect width="8" height="32.97115177654368" x="68" y="58.51442411172816" rx="4" ry="4" fill="black" />
    <rect width="8" height="71.34214778846558" x="84" y="39.32892610576721" rx="4" ry="4" fill="black" />
    <rect width="8" height="67.87158610667235" x="100" y="41.06420694666382" rx="4" ry="4" fill="black" />
    <rect width="8" height="34.08847847113372" x="116" y="57.95576076443314" rx="4" ry="4" fill="black" />
    <rect width="8" height="75.24092827262" x="132" y="37.37953586369" rx="4" ry="4" fill="black" />
    <rect width="8" height="52.89752889819741" x="148" y="48.551235550901296" rx="4" ry="4" fill="black" />
    <rect width="8" height="31.106049809110058" x="164" y="59.44697509544497" rx="4" ry="4" fill="black" />
    <rect width="8" height="56.72949250441136" x="180" y="46.63525374779432" rx="4" ry="4" fill="black" />
    <rect width="8" height="35.82007480006756" x="196" y="57.08996259996622" rx="4" ry="4" fill="black" />
    <rect width="8" height="8" x="212" y="71" rx="4" ry="4" fill="black" />
    <rect width="8" height="51.36970147236137" x="228" y="49.315149263819315" rx="4" ry="4" fill="black" />
    <rect width="8" height="45.81091652080973" x="244" y="52.09454173959514" rx="4" ry="4" fill="black" />
    <rect width="8" height="29.99361087902434" x="260" y="60.00319456048783" rx="4" ry="4" fill="black" />
    <rect width="8" height="57.14638262853341" x="276" y="46.42680868573329" rx="4" ry="4" fill="black" />
    <rect width="8" height="90.23079709207097" x="292" y="29.884601453964514" rx="4" ry="4" fill="black" />
    <rect width="8" height="76.10270703199566" x="308" y="36.94864648400217" rx="4" ry="4" fill="black" />
    <rect width="8" height="71.73728794089948" x="324" y="39.13135602955026" rx="4" ry="4" fill="black" />
    <rect width="8" height="57.57600552073398" x="340" y="46.21199723963301" rx="4" ry="4" fill="black" />
    <rect width="8" height="73.7613970975558" x="356" y="38.1193014512221" rx="4" ry="4" fill="black" />
    <rect width="8" height="8" x="372" y="71" rx="4" ry="4" fill="black" />
    <rect width="8" height="74.59983694298425" x="388" y="37.70008152850787" rx="4" ry="4" fill="black" />
    <rect width="8" height="46.480225206336975" x="404" y="51.759887396831516" rx="4" ry="4" fill="black" />
    <rect width="8" height="62.57069963443134" x="420" y="43.714650182784325" rx="4" ry="4" fill="black" />
    <rect width="8" height="99.757275269516" x="436" y="25.121362365242" rx="4" ry="4" fill="black" />
    <rect width="8" height="74.17710975681314" x="452" y="37.91144512159343" rx="4" ry="4" fill="black" />
    <rect width="8" height="8" x="468" y="71" rx="4" ry="4" fill="black" />
    <rect width="8" height="94.24258108004553" x="484" y="27.878709459977237" rx="4" ry="4" fill="black" />
    <rect width="8" height="62.28272003951392" x="500" y="43.85863998024304" rx="4" ry="4" fill="black" />
    <rect width="8" height="63.796587630438594" x="516" y="43.1017061847807" rx="4" ry="4" fill="black" />
    <rect width="8" height="71.57212617594513" x="532" y="39.213936912027435" rx="4" ry="4" fill="black" />
    <rect width="8" height="97.35835520103049" x="548" y="26.320822399484754" rx="4" ry="4" fill="black" />
    <rect width="8" height="92.72117739451981" x="564" y="28.639411302740093" rx="4" ry="4" fill="black" />
    <rect width="8" height="103.10696919190569" x="580" y="23.446515404047155" rx="4" ry="4" fill="black" />
    <rect width="8" height="70.18936457496193" x="596" y="39.905317712519036" rx="4" ry="4" fill="black" />
    <rect width="8" height="105.79986617077718" x="612" y="22.10006691461141" rx="4" ry="4" fill="black" />
    <rect width="8" height="127.42593361551052" x="628" y="11.287033192244742" rx="4" ry="4" fill="black" />
    <rect width="8" height="84.49759680174888" x="644" y="32.75120159912556" rx="4" ry="4" fill="black" />
    <rect width="8" height="81.40009660646804" x="660" y="34.29995169676598" rx="4" ry="4" fill="black" />
    <rect width="8" height="135.59138955423907" x="676" y="7.204305222880464" rx="4" ry="4" fill="black" />
    <rect width="8" height="115.49466263397458" x="692" y="17.252668683012708" rx="4" ry="4" fill="black" />
    <rect width="8" height="50.21572581125759" x="708" y="49.89213709437121" rx="4" ry="4" fill="black" />
    <rect width="8" height="142.1552194300273" x="724" y="3.9223902849863492" rx="4" ry="4" fill="black" />
    <rect width="8" height="123.13725065265236" x="740" y="13.431374673673822" rx="4" ry="4" fill="black" />
    <rect width="8" height="125.26632755093591" x="756" y="12.366836224532044" rx="4" ry="4" fill="black" />
    <rect width="8" height="8" x="772" y="71" rx="4" ry="4" fill="black" />
    <rect width="8" height="140.36146037420278" x="788" y="4.819269812898611" rx="4" ry="4" fill="black" />
    <rect width="8" height="107.31142593371601" x="804" y="21.344287033141995" rx="4" ry="4" fill="black" />
    <rect width="8" height="98.82664697817756" x="820" y="25.586676510911218" rx="4" ry="4" fill="black" />
    <rect width="8" height="80.41096154069916" x="836" y="34.79451922965042" rx="4" ry="4" fill="black" />
    <rect width="8" height="136.96603912846174" x="852" y="6.516980435769128" rx="4" ry="4" fill="black" />
    <rect width="8" height="112.16558819479604" x="868" y="18.917205902601978" rx="4" ry="4" fill="black" />
    <rect width="8" height="83.7701202473807" x="884" y="33.11493987630965" rx="4" ry="4" fill="black" />
    <rect width="8" height="47.465988640591235" x="900" y="51.26700567970438" rx="4" ry="4" fill="black" />
    <rect width="8" height="115.19299755106402" x="916" y="17.403501224467988" rx="4" ry="4" fill="black" />
    <rect width="8" height="121.76708414731534" x="932" y="14.116457926342328" rx="4" ry="4" fill="black" />
    <rect width="8" height="97.93821629333576" x="948" y="26.030891853332122" rx="4" ry="4" fill="black" />
    <rect width="8" height="82.61363308724972" x="964" y="33.69318345637514" rx="4" ry="4" fill="black" />
    <rect width="8" height="144.63803581252267" x="980" y="2.6809820937386633" rx="4" ry="4" fill="black" />
    <rect width="8" height="111.65149183779357" x="996" y="19.174254081103214" rx="4" ry="4" fill="black" />
    <rect width="8" height="80.58922980515324" x="1012" y="34.70538509742338" rx="4" ry="4" fill="black" />
    <rect width="8" height="108.97267671820967" x="1028" y="20.513661640895165" rx="4" ry="4" fill="black" />
    <rect width="8" height="150" x="1044" y="0" rx="4" ry="4" fill="black" />
    <rect width="8" height="129.36016280063674" x="1060" y="10.319918599681628" rx="4" ry="4" fill="black" />
    <rect width="8" height="96.1260395059591" x="1076" y="26.93698024702045" rx="4" ry="4" fill="black" />
    <rect width="8" height="108.85503586830507" x="1092" y="20.572482065847467" rx="4" ry="4" fill="black" />
    <rect width="8" height="146.40877947846204" x="1108" y="1.7956102607689814" rx="4" ry="4" fill="black" />
    <rect width="8" height="148.73335384140475" x="1124" y="0.6333230792976252" rx="4" ry="4" fill="black" />
    <rect width="8" height="96.74707864094668" x="1140" y="26.62646067952666" rx="4" ry="4" fill="black" />
    <rect width="8" height="74.72370745292328" x="1156" y="37.63814627353836" rx="4" ry="4" fill="black" />
    <rect width="8" height="116.53944390124748" x="1172" y="16.73027804937626" rx="4" ry="4" fill="black" />
    <rect width="8" height="123.84186927318159" x="1188" y="13.079065363409207" rx="4" ry="4" fill="black" />
    <rect width="8" height="79.70434288130076" x="1204" y="35.14782855934962" rx="4" ry="4" fill="black" />
    <rect width="8" height="42.92657462525458" x="1220" y="53.53671268737271" rx="4" ry="4" fill="black" />
    <rect width="8" height="125.2197941596696" x="1236" y="12.390102920165198" rx="4" ry="4" fill="black" />
    <rect width="8" height="104.3294294682673" x="1252" y="22.835285265866347" rx="4" ry="4" fill="black" />
    <rect width="8" height="41.64410755237638" x="1268" y="54.17794622381181" rx="4" ry="4" fill="black" />
    <rect width="8" height="71.30475323987608" x="1284" y="39.34762338006196" rx="4" ry="4" fill="black" />
    <rect width="8" height="101.92424028283848" x="1300" y="24.03787985858076" rx="4" ry="4" fill="black" />
    <rect width="8" height="83.7034642063562" x="1316" y="33.1482678968219" rx="4" ry="4" fill="black" />
    <rect width="8" height="77.3428005232146" x="1332" y="36.3285997383927" rx="4" ry="4" fill="black" />
    <rect width="8" height="59.029040087594815" x="1348" y="45.485479956202596" rx="4" ry="4" fill="black" />
    <rect width="8" height="84.33994372005422" x="1364" y="32.83002813997289" rx="4" ry="4" fill="black" />
    <rect width="8" height="100.55093058980438" x="1380" y="24.72453470509781" rx="4" ry="4" fill="black" />
    <rect width="8" height="74.01132391706982" x="1396" y="37.99433804146509" rx="4" ry="4" fill="black" />
    <rect width="8" height="42.72718134983362" x="1412" y="53.63640932508319" rx="4" ry="4" fill="black" />
    <rect width="8" height="112.50535791492139" x="1428" y="18.747321042539305" rx="4" ry="4" fill="black" />
    <rect width="8" height="91.64018744257146" x="1444" y="29.17990627871427" rx="4" ry="4" fill="black" />
    <rect width="8" height="55.74549699881718" x="1460" y="47.12725150059141" rx="4" ry="4" fill="black" />
    <rect width="8" height="86.9799054359164" x="1476" y="31.510047282041803" rx="4" ry="4" fill="black" />
    <rect width="8" height="108.74662876133948" x="1492" y="20.62668561933026" rx="4" ry="4" fill="black" />
    <rect width="8" height="82.68821310914335" x="1508" y="33.655893445428326" rx="4" ry="4" fill="black" />
    <rect width="8" height="88.7374101676427" x="1524" y="30.631294916178653" rx="4" ry="4" fill="black" />
    <rect width="8" height="82.3930705734243" x="1540" y="33.80346471328785" rx="4" ry="4" fill="black" />
    <rect width="8" height="102.52748410808385" x="1556" y="23.736257945958073" rx="4" ry="4" fill="black" />
    <rect width="8" height="98.70152712817153" x="1572" y="25.649236435914233" rx="4" ry="4" fill="black" />
    <rect width="8" height="93.45605261790459" x="1588" y="28.271973691047705" rx="4" ry="4" fill="black" />
    <rect width="8" height="57.43836008236664" x="1604" y="46.28081995881668" rx="4" ry="4" fill="black" />
    <rect width="8" height="100.65719512684656" x="1620" y="24.67140243657672" rx="4" ry="4" fill="black" />
    <rect width="8" height="114.00140724570007" x="1636" y="17.999296377149967" rx="4" ry="4" fill="black" />
    <rect width="8" height="94.46990113243976" x="1652" y="27.76504943378012" rx="4" ry="4" fill="black" />
    <rect width="8" height="45.80385357634333" x="1668" y="52.098073211828336" rx="4" ry="4" fill="black" />
    <rect width="8" height="123.31721776389024" x="1684" y="13.34139111805488" rx="4" ry="4" fill="black" />
    <rect width="8" height="110.67937880734426" x="1700" y="19.660310596327868" rx="4" ry="4" fill="black" />
    <rect width="8" height="85.09611663477945" x="1716" y="32.451941682610276" rx="4" ry="4" fill="black" />
    <rect width="8" height="94.93913886382245" x="1732" y="27.530430568088775" rx="4" ry="4" fill="black" />
    <rect width="8" height="128.1363295009314" x="1748" y="10.931835249534302" rx="4" ry="4" fill="black" />
    <rect width="8" height="119.54047737565855" x="1764" y="15.229761312170723" rx="4" ry="4" fill="black" />
    <rect width="8" height="108.47710935329218" x="1780" y="20.76144532335391" rx="4" ry="4" fill="black" />
    <rect width="8" height="78.56877778368192" x="1796" y="35.71561110815904" rx="4" ry="4" fill="black" />
    <rect width="8" height="118.65377149704108" x="1812" y="15.673114251479461" rx="4" ry="4" fill="black" />
    <rect width="8" height="131.67613176415674" x="1828" y="9.161934117921632" rx="4" ry="4" fill="black" />
    <rect width="8" height="88.52735765747651" x="1844" y="30.736321171261743" rx="4" ry="4" fill="black" />
    <rect width="8" height="85.3381400018424" x="1860" y="32.3309299990788" rx="4" ry="4" fill="black" />
    <rect width="8" height="143.86594893959673" x="1876" y="3.067025530201633" rx="4" ry="4" fill="black" />
    <rect width="8" height="126.90691982597521" x="1892" y="11.546540087012396" rx="4" ry="4" fill="black" />
    <rect width="8" height="60.83631169983223" x="1908" y="44.58184415008388" rx="4" ry="4" fill="black" />
    <rect width="8" height="144.17424213850023" x="1924" y="2.9128789307498835" rx="4" ry="4" fill="black" />
    <rect width="8" height="127.45659570479268" x="1940" y="11.271702147603662" rx="4" ry="4" fill="black" />
    <rect width="8" height="118.13708593162389" x="1956" y="15.931457034188057" rx="4" ry="4" fill="black" />
    <rect width="8" height="24.877336478291234" x="1972" y="62.56133176085439" rx="4" ry="4" fill="black" />
    <rect width="8" height="144.91953053745402" x="1988" y="2.5402347312729887" rx="4" ry="4" fill="black" />
    <rect width="8" height="111.5843367163568" x="2004" y="19.2078316418216" rx="4" ry="4" fill="black" />
    <rect width="8" height="61.16187224862193" x="2020" y="44.419063875689034" rx="4" ry="4" fill="black" />
    <rect width="8" height="68.83706029196168" x="2036" y="40.58146985401916" rx="4" ry="4" fill="black" />
    <rect width="8" height="106.44340587080288" x="2052" y="21.77829706459856" rx="4" ry="4" fill="black" />
    <rect width="8" height="84.12447146588167" x="2068" y="32.937764267059165" rx="4" ry="4" fill="black" />
    <rect width="8" height="90.45598965125329" x="2084" y="29.772005174373355" rx="4" ry="4" fill="black" />
    <rect width="8" height="66.17601732158718" x="2100" y="41.91199133920641" rx="4" ry="4" fill="black" />
    <rect width="8" height="93.67209263956595" x="2116" y="28.163953680217027" rx="4" ry="4" fill="black" />
    <rect width="8" height="118.1509070357852" x="2132" y="15.924546482107402" rx="4" ry="4" fill="black" />
    <rect width="8" height="69.8646836889444" x="2148" y="40.0676581555278" rx="4" ry="4" fill="black" />
    <rect width="8" height="33.97834658410242" x="2164" y="58.010826707948794" rx="4" ry="4" fill="black" />
    <rect width="8" height="117.18155323061686" x="2180" y="16.409223384691572" rx="4" ry="4" fill="black" />
    <rect width="8" height="89.96127580078586" x="2196" y="30.019362099607072" rx="4" ry="4" fill="black" />
    <rect width="8" height="38.61020109264322" x="2212" y="55.69489945367839" rx="4" ry="4" fill="black" />
    <rect width="8" height="88.67603648986656" x="2228" y="30.66198175506672" rx="4" ry="4" fill="black" />
    <rect width="8" height="93.75450128667221" x="2244" y="28.122749356663896" rx="4" ry="4" fill="black" />
    <rect width="8" height="69.95667692091789" x="2260" y="40.02166153954106" rx="4" ry="4" fill="black" />
    <rect width="8" height="75.73780831509474" x="2276" y="37.13109584245263" rx="4" ry="4" fill="black" />
    <rect width="8" height="58.519703142258294" x="2292" y="45.74014842887085" rx="4" ry="4" fill="black" />
    <rect width="8" height="81.06531238447222" x="2308" y="34.46734380776389" rx="4" ry="4" fill="black" />
    <rect width="8" height="104.64011390594624" x="2324" y="22.67994304702688" rx="4" ry="4" fill="black" />
    <rect width="8" height="46.48348170736699" x="2340" y="51.758259146316504" rx="4" ry="4" fill="black" />
    <rect width="8" height="19.697087767754553" x="2356" y="65.15145611612272" rx="4" ry="4" fill="black" />
    <rect width="8" height="8" x="2372" y="71" rx="4" ry="4" fill="black" />
    <rect width="8" height="46.87367930650431" x="2388" y="51.56316034674785" rx="4" ry="4" fill="black" />
  </g>
</svg>