<svg 
  baseProfile="tiny"
  preserveAspectRatio="true"
  version="1.2"
  viewBox="0 0 2400 150"
  height="100%" width="100%"
  xmlns="http://www.w3.org/2000/svg"
  xmlns:ev="http://www.w3.org/2001/xml-events"
  xmlns:xlink="http://www.w3.org/1999/xlink"
>
  <g>
    <rect width="8" height="54.90714026224065" x="4" y="47.54642986887967" rx="4" ry="4" fill="black" />
    <rect width="8" height="35.256318842495276" x="20" y="57.37184057875236" rx="4" ry="4" fill="black" />
    <rect width="8" height="44.35675704034457" x="36" y="52.82162147982771" rx="4" ry="4" fill="black" />
    <rect width="8" height="44.33421745300404" x="52" y="52.83289127349798" rx="4" ry="4" fill="black" />
    <rect width="8" height="63.27665174484001" x="68" y="43.361674127579995" rx="4" ry="4" fill="black" />
    <rect width="8" height="52.19367146656456" x="84" y="48.903164266717724" rx="4" ry="4" fill="black" />
    <rect width="8" height="115.83559813308491" x="100" y="17.082200933457543" rx="4" ry="4" fill="black" />
    <rect width="8" height="116.42000561869526" x="116" y="16.78999719065237" rx="4" ry="4" fill="black" />
    <rect width="8" height="124.82437047097527" x="132" y="12.587814764512366" rx="4" ry="4" fill="black" />
    <rect width="8" height="106.83796621061015" x="148" y="21.581016894694926" rx="4" ry="4" fill="black" />
    <rect width="8" height="112.16826873193804" x="164" y="18.91586563403098" rx="4" ry="4" fill="black" />
    <rect width="8" height="122.66904858450619" x="180" y="13.665475707746907" rx="4" ry="4" fill="black" />
    <rect width="8" height="123.2005073244505" x="196" y="13.39974633777475" rx="4" ry="4" fill="black" />
    <rect width="8" height="111.72558153586931" x="212" y="19.137209232065345" rx="4" ry="4" fill="black" />
    <rect width="8" height="122.34677954657916" x="228" y="13.826610226710422" rx="4" ry="4" fill="black" />
    <rect width="8" height="127.55310472266143" x="244" y="11.223447638669285" rx="4" ry="4" fill="black" />
    <rect width="8" height="115.72120788972029" x="260" y="17.139396055139855" rx="4" ry="4" fill="black" />
    <rect width="8" height="120.48764448717368" x="276" y="14.756177756413159" rx="4" ry="4" fill="black" />
    <rect width="8" height="133.97341131401362" x="292" y="8.013294342993191" rx="4" ry="4" fill="black" />
    <rect width="8" height="109.81931845342908" x="308" y="20.09034077328546" rx="4" ry="4" fill="black" />
    <rect width="8" height="126.42241537860797" x="324" y="11.788792310696017" rx="4" ry="4" fill="black" />
    <rect width="8" height="134.08439365507468" x="340" y="7.957803172462661" rx="4" ry="4" fill="black" />
    <rect width="8" height="124.50422761342327" x="356" y="12.747886193288366" rx="4" ry="4" fill="black" />
    <rect width="8" height="120.65929064420743" x="372" y="14.670354677896285" rx="4" ry="4" fill="black" />
    <rect width="8" height="120.50265259313221" x="388" y="14.748673703433894" rx="4" ry="4" fill="black" />
    <rect width="8" height="116.15552645370627" x="404" y="16.922236773146864" rx="4" ry="4" fill="black" />
    <rect width="8" height="123.44820029741744" x="420" y="13.275899851291278" rx="4" ry="4" fill="black" />
    <rect width="8" height="132.46478692177362" x="436" y="8.767606539113189" rx="4" ry="4" fill="black" />
    <rect width="8" height="124.63844514235646" x="452" y="12.68077742882177" rx="4" ry="4" fill="black" />
    <rect width="8" height="117.23666763072066" x="468" y="16.38166618463967" rx="4" ry="4" fill="black" />
    <rect width="8" height="127.07955678192477" x="484" y="11.460221609037617" rx="4" ry="4" fill="black" />
    <rect width="8" height="125.14250880166219" x="500" y="12.428745599168906" rx="4" ry="4" fill="black" />
    <rect width="8" height="126.69713238933547" x="516" y="11.651433805332267" rx="4" ry="4" fill="black" />
    <rect width="8" height="141.68469583855608" x="532" y="4.1576520807219595" rx="4" ry="4" fill="black" />
    <rect width="8" height="116.9752113324396" x="548" y="16.5123943337802" rx="4" ry="4" fill="black" />
    <rect width="8" height="85.95663342580464" x="564" y="32.02168328709768" rx="4" ry="4" fill="black" />
    <rect width="8" height="80.6023716235056" x="580" y="34.6988141882472" rx="4" ry="4" fill="black" />
    <rect width="8" height="72.16139549397653" x="596" y="38.919302253011736" rx="4" ry="4" fill="black" />
    <rect width="8" height="93.72986494774057" x="612" y="28.135067526129717" rx="4" ry="4" fill="black" />
    <rect width="8" height="92.03866957197725" x="628" y="28.980665214011374" rx="4" ry="4" fill="black" />
    <rect width="8" height="143.5343249127543" x="644" y="3.23283754362285" rx="4" ry="4" fill="black" />
    <rect width="8" height="135.08441110408162" x="660" y="7.457794447959188" rx="4" ry="4" fill="black" />
    <rect width="8" height="136.85609775791198" x="676" y="6.571951121044009" rx="4" ry="4" fill="black" />
    <rect width="8" height="124.07435333385145" x="692" y="12.962823333074276" rx="4" ry="4" fill="black" />
    <rect width="8" height="130.04796288299406" x="708" y="9.976018558502972" rx="4" ry="4" fill="black" />
    <rect width="8" height="139.05380286227847" x="724" y="5.473098568860763" rx="4" ry="4" fill="black" />
    <rect width="8" height="120.63739307791411" x="740" y="14.681303461042944" rx="4" ry="4" fill="black" />
    <rect width="8" height="135.1170266399716" x="756" y="7.441486680014194" rx="4" ry="4" fill="black" />
    <rect width="8" height="131.3330257166156" x="772" y="9.333487141692203" rx="4" ry="4" fill="black" />
    <rect width="8" height="135.10273998510152" x="788" y="7.448630007449239" rx="4" ry="4" fill="black" />
    <rect width="8" height="144.90846285292375" x="804" y="2.545768573538126" rx="4" ry="4" fill="black" />
    <rect width="8" height="139.95583198771288" x="820" y="5.022084006143558" rx="4" ry="4" fill="black" />
    <rect width="8" height="137.51435990474823" x="836" y="6.242820047625884" rx="4" ry="4" fill="black" />
    <rect width="8" height="132.25074664519803" x="852" y="8.874626677400983" rx="4" ry="4" fill="black" />
    <rect width="8" height="133.94405186896557" x="868" y="8.027974065517213" rx="4" ry="4" fill="black" />
    <rect width="8" height="147.92788951705015" x="884" y="1.0360552414749264" rx="4" ry="4" fill="black" />
    <rect width="8" height="141.295150432494" x="900" y="4.352424783752994" rx="4" ry="4" fill="black" />
    <rect width="8" height="138.88284703393984" x="916" y="5.55857648303008" rx="4" ry="4" fill="black" />
    <rect width="8" height="138.99452942873117" x="932" y="5.502735285634415" rx="4" ry="4" fill="black" />
    <rect width="8" height="134.94997730800443" x="948" y="7.5250113459977825" rx="4" ry="4" fill="black" />
    <rect width="8" height="137.63794292367362" x="964" y="6.18102853816319" rx="4" ry="4" fill="black" />
    <rect width="8" height="142.07647978644817" x="980" y="3.9617601067759125" rx="4" ry="4" fill="black" />
    <rect width="8" height="145.59661111285612" x="996" y="2.201694443571938" rx="4" ry="4" fill="black" />
    <rect width="8" height="42.22703749975824" x="1012" y="53.88648125012088" rx="4" ry="4" fill="black" />
    <rect width="8" height="49.53614515653418" x="1028" y="50.231927421732905" rx="4" ry="4" fill="black" />
    <rect width="8" height="27.81003129737326" x="1044" y="61.09498435131337" rx="4" ry="4" fill="black" />
    <rect width="8" height="56.44451734150914" x="1060" y="46.77774132924543" rx="4" ry="4" fill="black" />
    <rect width="8" height="32.94984885726054" x="1076" y="58.525075571369726" rx="4" ry="4" fill="black" />
    <rect width="8" height="41.96549280184837" x="1092" y="54.017253599075815" rx="4" ry="4" fill="black" />
    <rect width="8" height="30.36496959669622" x="1108" y="59.81751520165189" rx="4" ry="4" fill="black" />
    <rect width="8" height="49.85342216678877" x="1124" y="50.07328891660562" rx="4" ry="4" fill="black" />
    <rect width="8" height="42.46454808163562" x="1140" y="53.76772595918219" rx="4" ry="4" fill="black" />
    <rect width="8" height="39.309957380232134" x="1156" y="55.34502130988393" rx="4" ry="4" fill="black" />
    <rect width="8" height="35.1762564907523" x="1172" y="57.411871754623846" rx="4" ry="4" fill="black" />
    <rect width="8" height="84.84472359739314" x="1188" y="32.57763820130343" rx="4" ry="4" fill="black" />
    <rect width="8" height="105.83935741359335" x="1204" y="22.080321293203326" rx="4" ry="4" fill="black" />
    <rect width="8" height="96.044022444575" x="1220" y="26.977988777712497" rx="4" ry="4" fill="black" />
    <rect width="8" height="99.91172274538069" x="1236" y="25.044138627309657" rx="4" ry="4" fill="black" />
    <rect width="8" height="112.83024022021074" x="1252" y="18.58487988989463" rx="4" ry="4" fill="black" />
    <rect width="8" height="109.9198484776271" x="1268" y="20.04007576118645" rx="4" ry="4" fill="black" />
    <rect width="8" height="112.18888330049406" x="1284" y="18.905558349752972" rx="4" ry="4" fill="black" />
    <rect width="8" height="106.49385737625293" x="1300" y="21.753071311873533" rx="4" ry="4" fill="black" />
    <rect width="8" height="107.75986192779311" x="1316" y="21.120069036103445" rx="4" ry="4" fill="black" />
    <rect width="8" height="120.90916620988993" x="1332" y="14.545416895055034" rx="4" ry="4" fill="black" />
    <rect width="8" height="126.34574647391764" x="1348" y="11.827126763041178" rx="4" ry="4" fill="black" />
    <rect width="8" height="124.1518477311754" x="1364" y="12.924076134412303" rx="4" ry="4" fill="black" />
    <rect width="8" height="116.85437511646293" x="1380" y="16.572812441768534" rx="4" ry="4" fill="black" />
    <rect width="8" height="117.10873751455162" x="1396" y="16.44563124272419" rx="4" ry="4" fill="black" />
    <rect width="8" height="132.00045011660748" x="1412" y="8.99977494169626" rx="4" ry="4" fill="black" />
    <rect width="8" height="121.0837779853033" x="1428" y="14.45811100734835" rx="4" ry="4" fill="black" />
    <rect width="8" height="122.72676940855816" x="1444" y="13.636615295720922" rx="4" ry="4" fill="black" />
    <rect width="8" height="116.90145116038869" x="1460" y="16.549274419805656" rx="4" ry="4" fill="black" />
    <rect width="8" height="124.27339485244507" x="1476" y="12.863302573777467" rx="4" ry="4" fill="black" />
    <rect width="8" height="126.6562461576445" x="1492" y="11.671876921177748" rx="4" ry="4" fill="black" />
    <rect width="8" height="131.02813174684408" x="1508" y="9.485934126577959" rx="4" ry="4" fill="black" />
    <rect width="8" height="122.1435171632052" x="1524" y="13.928241418397398" rx="4" ry="4" fill="black" />
    <rect width="8" height="121.75160646296831" x="1540" y="14.124196768515844" rx="4" ry="4" fill="black" />
    <rect width="8" height="132.70528846563573" x="1556" y="8.647355767182134" rx="4" ry="4" fill="black" />
    <rect width="8" height="144.38893824082382" x="1572" y="2.8055308795880904" rx="4" ry="4" fill="black" />
    <rect width="8" height="133.92055102542767" x="1588" y="8.039724487286165" rx="4" ry="4" fill="black" />
    <rect width="8" height="142.07039407478604" x="1604" y="3.9648029626069814" rx="4" ry="4" fill="black" />
    <rect width="8" height="124.48849086480578" x="1620" y="12.755754567597108" rx="4" ry="4" fill="black" />
    <rect width="8" height="126.74276068377014" x="1636" y="11.628619658114928" rx="4" ry="4" fill="black" />
    <rect width="8" height="141.94474260264107" x="1652" y="4.0276286986794645" rx="4" ry="4" fill="black" />
    <rect width="8" height="119.37178854824576" x="1668" y="15.31410572587712" rx="4" ry="4" fill="black" />
    <rect width="8" height="131.50849359538032" x="1684" y="9.245753202309842" rx="4" ry="4" fill="black" />
    <rect width="8" height="135.23861638475168" x="1700" y="7.38069180762416" rx="4" ry="4" fill="black" />
    <rect width="8" height="131.38399830529593" x="1716" y="9.308000847352034" rx="4" ry="4" fill="black" />
    <rect width="8" height="147.01236428122644" x="1732" y="1.4938178593867804" rx="4" ry="4" fill="black" />
    <rect width="8" height="128.99914362534793" x="1748" y="10.500428187326037" rx="4" ry="4" fill="black" />
    <rect width="8" height="138.2543719328282" x="1764" y="5.872814033585897" rx="4" ry="4" fill="black" />
    <rect width="8" height="133.48666396308886" x="1780" y="8.25666801845557" rx="4" ry="4" fill="black" />
    <rect width="8" height="146.48170499503274" x="1796" y="1.7591475024836285" rx="4" ry="4" fill="black" />
    <rect width="8" height="135.5492285684203" x="1812" y="7.225385715789855" rx="4" ry="4" fill="black" />
    <rect width="8" height="137.5515799790532" x="1828" y="6.224210010473399" rx="4" ry="4" fill="black" />
    <rect width="8" height="135.11657711134816" x="1844" y="7.441711444325918" rx="4" ry="4" fill="black" />
    <rect width="8" height="126.17325602134999" x="1860" y="11.913371989325007" rx="4" ry="4" fill="black" />
    <rect width="8" height="148.0496641915412" x="1876" y="0.9751679042293944" rx="4" ry="4" fill="black" />
    <rect width="8" height="150" x="1892" y="0" rx="4" ry="4" fill="black" />
    <rect width="8" height="126.15213807267247" x="1908" y="11.923930963663764" rx="4" ry="4" fill="black" />
    <rect width="8" height="102.92270940376594" x="1924" y="23.538645298117032" rx="4" ry="4" fill="black" />
    <rect width="8" height="90.86689654140874" x="1940" y="29.566551729295632" rx="4" ry="4" fill="black" />
    <rect width="8" height="86.60706962818986" x="1956" y="31.69646518590507" rx="4" ry="4" fill="black" />
    <rect width="8" height="58.91657160372865" x="1972" y="45.54171419813568" rx="4" ry="4" fill="black" />
    <rect width="8" height="75.78404852789907" x="1988" y="37.10797573605046" rx="4" ry="4" fill="black" />
    <rect width="8" height="52.4087912482893" x="2004" y="48.79560437585535" rx="4" ry="4" fill="black" />
    <rect width="8" height="61.42091838251348" x="2020" y="44.28954080874326" rx="4" ry="4" fill="black" />
    <rect width="8" height="58.14742554524304" x="2036" y="45.92628722737848" rx="4" ry="4" fill="black" />
    <rect width="8" height="68.26148713656904" x="2052" y="40.86925643171548" rx="4" ry="4" fill="black" />
    <rect width="8" height="53.54463132105988" x="2068" y="48.22768433947006" rx="4" ry="4" fill="black" />
    <rect width="8" height="64.09685979115851" x="2084" y="42.951570104420746" rx="4" ry="4" fill="black" />
    <rect width="8" height="62.45185777677961" x="2100" y="43.7740711116102" rx="4" ry="4" fill="black" />
    <rect width="8" height="59.80744154038237" x="2116" y="45.096279229808815" rx="4" ry="4" fill="black" />
    <rect width="8" height="43.991933680626275" x="2132" y="53.00403315968686" rx="4" ry="4" fill="black" />
    <rect width="8" height="60.93479352570209" x="2148" y="44.532603237148955" rx="4" ry="4" fill="black" />
    <rect width="8" height="44.581640195167644" x="2164" y="52.70917990241618" rx="4" ry="4" fill="black" />
    <rect width="8" height="54.9338037942982" x="2180" y="47.5330981028509" rx="4" ry="4" fill="black" />
    <rect width="8" height="34.182290714041244" x="2196" y="57.90885464297938" rx="4" ry="4" fill="black" />
    <rect width="8" height="53.09565784298289" x="2212" y="48.452171078508556" rx="4" ry="4" fill="black" />
    <rect width="8" height="21.212162599553164" x="2228" y="64.39391870022342" rx="4" ry="4" fill="black" />
    <rect width="8" height="49.20361090306886" x="2244" y="50.39819454846557" rx="4" ry="4" fill="black" />
    <rect width="8" height="45.4786115590896" x="2260" y="52.2606942204552" rx="4" ry="4" fill="black" />
    <rect width="8" height="40.72234657939319" x="2276" y="54.638826710303405" rx="4" ry="4" fill="black" />
    <rect width="8" height="24.586655281949085" x="2292" y="62.70667235902546" rx="4" ry="4" fill="black" />
    <rect width="8" height="49.874231656953775" x="2308" y="50.06288417152311" rx="4" ry="4" fill="black" />
    <rect width="8" height="8" x="2324" y="71" rx="4" ry="4" fill="black" />
    <rect width="8" height="8" x="2340" y="71" rx="4" ry="4" fill="black" />
    <rect width="8" height="33.13813235239119" x="2356" y="58.43093382380441" rx="4" ry="4" fill="black" />
    <rect width="8" height="42.558985409737694" x="2372" y="53.720507295131156" rx="4" ry="4" fill="black" />
    <rect width="8" height="8" x="2388" y="71" rx="4" ry="4" fill="black" />
  </g>
</svg>