<svg 
  baseProfile="tiny"
  preserveAspectRatio="true"
  version="1.2"
  viewBox="0 0 2400 150"
  height="100%" width="100%"
  xmlns="http://www.w3.org/2000/svg"
  xmlns:ev="http://www.w3.org/2001/xml-events"
  xmlns:xlink="http://www.w3.org/1999/xlink"
>
  <g>
    <rect width="8" height="79.86026494991678" x="4" y="35.06986752504161" rx="4" ry="4" fill="black" />
    <rect width="8" height="80.25439664428379" x="20" y="34.87280167785811" rx="4" ry="4" fill="black" />
    <rect width="8" height="78.3337842305596" x="36" y="35.8331078847202" rx="4" ry="4" fill="black" />
    <rect width="8" height="82.45773588021993" x="52" y="33.771132059890036" rx="4" ry="4" fill="black" />
    <rect width="8" height="80.2813444754042" x="68" y="34.8593277622979" rx="4" ry="4" fill="black" />
    <rect width="8" height="43.181816024819625" x="84" y="53.40909198759019" rx="4" ry="4" fill="black" />
    <rect width="8" height="131.01495164802992" x="100" y="9.49252417598504" rx="4" ry="4" fill="black" />
    <rect width="8" height="136.34030909398456" x="116" y="6.829845453007721" rx="4" ry="4" fill="black" />
    <rect width="8" height="130.25351462314288" x="132" y="9.873242688428562" rx="4" ry="4" fill="black" />
    <rect width="8" height="134.06410473667856" x="148" y="7.967947631660721" rx="4" ry="4" fill="black" />
    <rect width="8" height="127.88564871492605" x="164" y="11.057175642536976" rx="4" ry="4" fill="black" />
    <rect width="8" height="136.07691419940195" x="180" y="6.961542900299023" rx="4" ry="4" fill="black" />
    <rect width="8" height="130.42138563163823" x="196" y="9.789307184180885" rx="4" ry="4" fill="black" />
    <rect width="8" height="133.5497070536367" x="212" y="8.225146473181653" rx="4" ry="4" fill="black" />
    <rect width="8" height="118.00221034530975" x="228" y="15.998894827345126" rx="4" ry="4" fill="black" />
    <rect width="8" height="101.17667227031129" x="244" y="24.411663864844357" rx="4" ry="4" fill="black" />
    <rect width="8" height="90.89794501246085" x="260" y="29.551027493769574" rx="4" ry="4" fill="black" />
    <rect width="8" height="78.25711975122681" x="276" y="35.871440124386595" rx="4" ry="4" fill="black" />
    <rect width="8" height="70.22010112292315" x="292" y="39.88994943853842" rx="4" ry="4" fill="black" />
    <rect width="8" height="75.77928935640863" x="308" y="37.11035532179569" rx="4" ry="4" fill="black" />
    <rect width="8" height="55.076877723011975" x="324" y="47.46156113849401" rx="4" ry="4" fill="black" />
    <rect width="8" height="58.14514662455472" x="340" y="45.927426687722644" rx="4" ry="4" fill="black" />
    <rect width="8" height="60.892852715040085" x="356" y="44.55357364247996" rx="4" ry="4" fill="black" />
    <rect width="8" height="54.439444974157624" x="372" y="47.78027751292119" rx="4" ry="4" fill="black" />
    <rect width="8" height="55.73597555787153" x="388" y="47.13201222106424" rx="4" ry="4" fill="black" />
    <rect width="8" height="67.86662491336793" x="404" y="41.066687543316036" rx="4" ry="4" fill="black" />
    <rect width="8" height="62.02428013237934" x="420" y="43.98785993381033" rx="4" ry="4" fill="black" />
    <rect width="8" height="59.54156092198024" x="436" y="45.229219539009875" rx="4" ry="4" fill="black" />
    <rect width="8" height="69.9469401811691" x="452" y="40.02652990941545" rx="4" ry="4" fill="black" />
    <rect width="8" height="63.055500674935274" x="468" y="43.47224966253236" rx="4" ry="4" fill="black" />
    <rect width="8" height="76.1179282471199" x="484" y="36.94103587644005" rx="4" ry="4" fill="black" />
    <rect width="8" height="76.94628728663014" x="500" y="36.52685635668493" rx="4" ry="4" fill="black" />
    <rect width="8" height="83.32074481074727" x="516" y="33.339627594626364" rx="4" ry="4" fill="black" />
    <rect width="8" height="85.32940100709935" x="532" y="32.335299496450325" rx="4" ry="4" fill="black" />
    <rect width="8" height="82.86904945283447" x="548" y="33.56547527358276" rx="4" ry="4" fill="black" />
    <rect width="8" height="81.63478691004423" x="564" y="34.18260654497789" rx="4" ry="4" fill="black" />
    <rect width="8" height="61.01217927661515" x="580" y="44.49391036169243" rx="4" ry="4" fill="black" />
    <rect width="8" height="67.9592363634395" x="596" y="41.02038181828025" rx="4" ry="4" fill="black" />
    <rect width="8" height="58.67451753558711" x="612" y="45.66274123220644" rx="4" ry="4" fill="black" />
    <rect width="8" height="68.50598061621857" x="628" y="40.74700969189072" rx="4" ry="4" fill="black" />
    <rect width="8" height="53.573606491064126" x="644" y="48.21319675446794" rx="4" ry="4" fill="black" />
    <rect width="8" height="59.309012432003236" x="660" y="45.34549378399838" rx="4" ry="4" fill="black" />
    <rect width="8" height="76.79462631931239" x="676" y="36.60268684034381" rx="4" ry="4" fill="black" />
    <rect width="8" height="74.67011772376584" x="692" y="37.66494113811708" rx="4" ry="4" fill="black" />
    <rect width="8" height="68.65898975383325" x="708" y="40.67050512308337" rx="4" ry="4" fill="black" />
    <rect width="8" height="68.47345091708367" x="724" y="40.763274541458166" rx="4" ry="4" fill="black" />
    <rect width="8" height="64.08283688501444" x="740" y="42.95858155749278" rx="4" ry="4" fill="black" />
    <rect width="8" height="61.85525650681573" x="756" y="44.07237174659214" rx="4" ry="4" fill="black" />
    <rect width="8" height="89.2005891209681" x="772" y="30.399705439515948" rx="4" ry="4" fill="black" />
    <rect width="8" height="62.77619381616083" x="788" y="43.61190309191959" rx="4" ry="4" fill="black" />
    <rect width="8" height="57.234867314970835" x="804" y="46.38256634251458" rx="4" ry="4" fill="black" />
    <rect width="8" height="55.90310644363493" x="820" y="47.04844677818254" rx="4" ry="4" fill="black" />
    <rect width="8" height="38.717325271950806" x="836" y="55.641337364024594" rx="4" ry="4" fill="black" />
    <rect width="8" height="50.407808052464624" x="852" y="49.79609597376769" rx="4" ry="4" fill="black" />
    <rect width="8" height="46.613325395212335" x="868" y="51.69333730239383" rx="4" ry="4" fill="black" />
    <rect width="8" height="51.592539791019725" x="884" y="49.203730104490134" rx="4" ry="4" fill="black" />
    <rect width="8" height="73.71415014018385" x="900" y="38.14292492990808" rx="4" ry="4" fill="black" />
    <rect width="8" height="67.16171462568148" x="916" y="41.41914268715926" rx="4" ry="4" fill="black" />
    <rect width="8" height="66.94133539898546" x="932" y="41.52933230050727" rx="4" ry="4" fill="black" />
    <rect width="8" height="77.90993264501532" x="948" y="36.04503367749234" rx="4" ry="4" fill="black" />
    <rect width="8" height="47.364753374671835" x="964" y="51.31762331266408" rx="4" ry="4" fill="black" />
    <rect width="8" height="75.0020654213719" x="980" y="37.49896728931405" rx="4" ry="4" fill="black" />
    <rect width="8" height="54.73400558927046" x="996" y="47.632997205364774" rx="4" ry="4" fill="black" />
    <rect width="8" height="48.839252242581665" x="1012" y="50.58037387870917" rx="4" ry="4" fill="black" />
    <rect width="8" height="59.52999041731083" x="1028" y="45.235004791344586" rx="4" ry="4" fill="black" />
    <rect width="8" height="77.16592210761391" x="1044" y="36.417038946193045" rx="4" ry="4" fill="black" />
    <rect width="8" height="58.66439425883017" x="1060" y="45.667802870584914" rx="4" ry="4" fill="black" />
    <rect width="8" height="65.82657827439961" x="1076" y="42.086710862800196" rx="4" ry="4" fill="black" />
    <rect width="8" height="76.95735191555454" x="1092" y="36.52132404222273" rx="4" ry="4" fill="black" />
    <rect width="8" height="97.97135318900132" x="1108" y="26.01432340549934" rx="4" ry="4" fill="black" />
    <rect width="8" height="99.38788919125896" x="1124" y="25.306055404370518" rx="4" ry="4" fill="black" />
    <rect width="8" height="113.73655100464015" x="1140" y="18.131724497679926" rx="4" ry="4" fill="black" />
    <rect width="8" height="123.93051627774791" x="1156" y="13.034741861126044" rx="4" ry="4" fill="black" />
    <rect width="8" height="128.19860382110525" x="1172" y="10.900698089447374" rx="4" ry="4" fill="black" />
    <rect width="8" height="133.68649451196805" x="1188" y="8.156752744015975" rx="4" ry="4" fill="black" />
    <rect width="8" height="138.95410177946337" x="1204" y="5.522949110268314" rx="4" ry="4" fill="black" />
    <rect width="8" height="140.43358930864065" x="1220" y="4.783205345679676" rx="4" ry="4" fill="black" />
    <rect width="8" height="141.49379706530587" x="1236" y="4.253101467347065" rx="4" ry="4" fill="black" />
    <rect width="8" height="142.0379323205418" x="1252" y="3.9810338397290934" rx="4" ry="4" fill="black" />
    <rect width="8" height="140.17315818577802" x="1268" y="4.913420907110989" rx="4" ry="4" fill="black" />
    <rect width="8" height="143.71237764726638" x="1284" y="3.1438111763668104" rx="4" ry="4" fill="black" />
    <rect width="8" height="144.74239246608983" x="1300" y="2.6288037669550874" rx="4" ry="4" fill="black" />
    <rect width="8" height="139.4528057436743" x="1316" y="5.273597128162848" rx="4" ry="4" fill="black" />
    <rect width="8" height="143.97002934689962" x="1332" y="3.014985326550189" rx="4" ry="4" fill="black" />
    <rect width="8" height="142.45639406848105" x="1348" y="3.771802965759477" rx="4" ry="4" fill="black" />
    <rect width="8" height="140.83468713036953" x="1364" y="4.5826564348152345" rx="4" ry="4" fill="black" />
    <rect width="8" height="146.95572104391675" x="1380" y="1.5221394780416233" rx="4" ry="4" fill="black" />
    <rect width="8" height="150" x="1396" y="0" rx="4" ry="4" fill="black" />
    <rect width="8" height="135.2384532330736" x="1412" y="7.380773383463193" rx="4" ry="4" fill="black" />
    <rect width="8" height="124.2562788306099" x="1428" y="12.87186058469505" rx="4" ry="4" fill="black" />
    <rect width="8" height="104.3348083508659" x="1444" y="22.83259582456705" rx="4" ry="4" fill="black" />
    <rect width="8" height="89.85557759841694" x="1460" y="30.07221120079153" rx="4" ry="4" fill="black" />
    <rect width="8" height="90.07678075324385" x="1476" y="29.961609623378074" rx="4" ry="4" fill="black" />
    <rect width="8" height="72.73769291311415" x="1492" y="38.63115354344293" rx="4" ry="4" fill="black" />
    <rect width="8" height="63.69404506396952" x="1508" y="43.15297746801524" rx="4" ry="4" fill="black" />
    <rect width="8" height="73.24013924778303" x="1524" y="38.37993037610848" rx="4" ry="4" fill="black" />
    <rect width="8" height="67.81053771969589" x="1540" y="41.09473114015206" rx="4" ry="4" fill="black" />
    <rect width="8" height="54.06509552750571" x="1556" y="47.96745223624714" rx="4" ry="4" fill="black" />
    <rect width="8" height="64.61979318322325" x="1572" y="42.690103408388374" rx="4" ry="4" fill="black" />
    <rect width="8" height="52.901832837309016" x="1588" y="48.54908358134549" rx="4" ry="4" fill="black" />
    <rect width="8" height="60.42659176975726" x="1604" y="44.78670411512137" rx="4" ry="4" fill="black" />
    <rect width="8" height="68.32186221920063" x="1620" y="40.83906889039969" rx="4" ry="4" fill="black" />
    <rect width="8" height="64.92182651731123" x="1636" y="42.539086741344384" rx="4" ry="4" fill="black" />
    <rect width="8" height="55.285882649093956" x="1652" y="47.35705867545302" rx="4" ry="4" fill="black" />
    <rect width="8" height="67.08239446751936" x="1668" y="41.45880276624032" rx="4" ry="4" fill="black" />
    <rect width="8" height="60.18571645850813" x="1684" y="44.90714177074594" rx="4" ry="4" fill="black" />
    <rect width="8" height="57.34036110000223" x="1700" y="46.32981944999889" rx="4" ry="4" fill="black" />
    <rect width="8" height="64.72141971107958" x="1716" y="42.63929014446021" rx="4" ry="4" fill="black" />
    <rect width="8" height="60.509146943415054" x="1732" y="44.74542652829247" rx="4" ry="4" fill="black" />
    <rect width="8" height="47.05396073037245" x="1748" y="51.473019634813774" rx="4" ry="4" fill="black" />
    <rect width="8" height="55.404785506880195" x="1764" y="47.297607246559906" rx="4" ry="4" fill="black" />
    <rect width="8" height="46.97792242188154" x="1780" y="51.51103878905923" rx="4" ry="4" fill="black" />
    <rect width="8" height="55.97150290219002" x="1796" y="47.01424854890499" rx="4" ry="4" fill="black" />
    <rect width="8" height="54.38713975581466" x="1812" y="47.80643012209267" rx="4" ry="4" fill="black" />
    <rect width="8" height="52.07376704248465" x="1828" y="48.96311647875768" rx="4" ry="4" fill="black" />
    <rect width="8" height="32.29279811090195" x="1844" y="58.85360094454903" rx="4" ry="4" fill="black" />
    <rect width="8" height="42.18369272577907" x="1860" y="53.908153637110466" rx="4" ry="4" fill="black" />
    <rect width="8" height="49.83505918709838" x="1876" y="50.08247040645081" rx="4" ry="4" fill="black" />
    <rect width="8" height="38.55896288376405" x="1892" y="55.72051855811797" rx="4" ry="4" fill="black" />
    <rect width="8" height="22.937475018918985" x="1908" y="63.531262490540506" rx="4" ry="4" fill="black" />
    <rect width="8" height="50.27466759966278" x="1924" y="49.86266620016861" rx="4" ry="4" fill="black" />
    <rect width="8" height="34.61915411048393" x="1940" y="57.69042294475803" rx="4" ry="4" fill="black" />
    <rect width="8" height="41.84815674191558" x="1956" y="54.07592162904221" rx="4" ry="4" fill="black" />
    <rect width="8" height="42.31155842286325" x="1972" y="53.84422078856838" rx="4" ry="4" fill="black" />
    <rect width="8" height="56.625990359390016" x="1988" y="46.68700482030499" rx="4" ry="4" fill="black" />
    <rect width="8" height="68.86655392176529" x="2004" y="40.566723039117356" rx="4" ry="4" fill="black" />
    <rect width="8" height="58.860778631018576" x="2020" y="45.56961068449071" rx="4" ry="4" fill="black" />
    <rect width="8" height="72.45580982224313" x="2036" y="38.77209508887844" rx="4" ry="4" fill="black" />
    <rect width="8" height="62.113038082393956" x="2052" y="43.94348095880302" rx="4" ry="4" fill="black" />
    <rect width="8" height="61.72286848474266" x="2068" y="44.13856575762867" rx="4" ry="4" fill="black" />
    <rect width="8" height="80.18068293989035" x="2084" y="34.90965853005483" rx="4" ry="4" fill="black" />
    <rect width="8" height="53.39791704368979" x="2100" y="48.301041478155106" rx="4" ry="4" fill="black" />
    <rect width="8" height="42.49597780211012" x="2116" y="53.75201109894494" rx="4" ry="4" fill="black" />
    <rect width="8" height="31.235739167887232" x="2132" y="59.382130416056384" rx="4" ry="4" fill="black" />
    <rect width="8" height="36.8577119555017" x="2148" y="56.57114402224915" rx="4" ry="4" fill="black" />
    <rect width="8" height="37.74251572812693" x="2164" y="56.128742135936534" rx="4" ry="4" fill="black" />
    <rect width="8" height="31.871409570223058" x="2180" y="59.064295214888475" rx="4" ry="4" fill="black" />
    <rect width="8" height="33.219166125585396" x="2196" y="58.390416937207306" rx="4" ry="4" fill="black" />
    <rect width="8" height="25.375651670113427" x="2212" y="62.312174164943286" rx="4" ry="4" fill="black" />
    <rect width="8" height="43.066595597389245" x="2228" y="53.46670220130538" rx="4" ry="4" fill="black" />
    <rect width="8" height="82.99300186893197" x="2244" y="33.503499065534015" rx="4" ry="4" fill="black" />
    <rect width="8" height="66.071004162004" x="2260" y="41.964497918998" rx="4" ry="4" fill="black" />
    <rect width="8" height="48.53338575031787" x="2276" y="50.73330712484106" rx="4" ry="4" fill="black" />
    <rect width="8" height="8" x="2292" y="71" rx="4" ry="4" fill="black" />
    <rect width="8" height="33.143114153077356" x="2308" y="58.42844292346132" rx="4" ry="4" fill="black" />
    <rect width="8" height="8" x="2324" y="71" rx="4" ry="4" fill="black" />
    <rect width="8" height="8" x="2340" y="71" rx="4" ry="4" fill="black" />
    <rect width="8" height="21.466230515214015" x="2356" y="64.26688474239299" rx="4" ry="4" fill="black" />
    <rect width="8" height="18.123466463581245" x="2372" y="65.93826676820937" rx="4" ry="4" fill="black" />
    <rect width="8" height="8" x="2388" y="71" rx="4" ry="4" fill="black" />
  </g>
</svg>