<svg 
  baseProfile="tiny"
  preserveAspectRatio="keep"
  version="1.2"
  viewBox="0 0 2400 150"
  height="100%" width="100%"
  xmlns="http://www.w3.org/2000/svg"
  xmlns:ev="http://www.w3.org/2001/xml-events"
  xmlns:xlink="http://www.w3.org/1999/xlink"
>
  <g>
    <rect width="8" height="27.877781989518954" x="4" y="61.061109005240525" rx="4" ry="4" fill="black" />
    <rect width="8" height="19.640649912933597" x="20" y="65.1796750435332" rx="4" ry="4" fill="black" />
    <rect width="8" height="17.066955320880204" x="36" y="66.4665223395599" rx="4" ry="4" fill="black" />
    <rect width="8" height="8" x="52" y="71" rx="4" ry="4" fill="black" />
    <rect width="8" height="8" x="68" y="71" rx="4" ry="4" fill="black" />
    <rect width="8" height="30.31329765347335" x="84" y="59.84335117326333" rx="4" ry="4" fill="black" />
    <rect width="8" height="8" x="100" y="71" rx="4" ry="4" fill="black" />
    <rect width="8" height="18.624453911024627" x="116" y="65.68777304448768" rx="4" ry="4" fill="black" />
    <rect width="8" height="8" x="132" y="71" rx="4" ry="4" fill="black" />
    <rect width="8" height="8" x="148" y="71" rx="4" ry="4" fill="black" />
    <rect width="8" height="22.839577814007104" x="164" y="63.58021109299645" rx="4" ry="4" fill="black" />
    <rect width="8" height="26.694545591226778" x="180" y="61.65272720438661" rx="4" ry="4" fill="black" />
    <rect width="8" height="20.878713790751352" x="196" y="64.56064310462432" rx="4" ry="4" fill="black" />
    <rect width="8" height="23.448416480532714" x="212" y="63.27579175973364" rx="4" ry="4" fill="black" />
    <rect width="8" height="8" x="228" y="71" rx="4" ry="4" fill="black" />
    <rect width="8" height="8" x="244" y="71" rx="4" ry="4" fill="black" />
    <rect width="8" height="17.57555674701358" x="260" y="66.2122216264932" rx="4" ry="4" fill="black" />
    <rect width="8" height="17.979576948132195" x="276" y="66.0102115259339" rx="4" ry="4" fill="black" />
    <rect width="8" height="19.592346881050897" x="292" y="65.20382655947455" rx="4" ry="4" fill="black" />
    <rect width="8" height="8" x="308" y="71" rx="4" ry="4" fill="black" />
    <rect width="8" height="8" x="324" y="71" rx="4" ry="4" fill="black" />
    <rect width="8" height="69.67310244184957" x="340" y="40.16344877907522" rx="4" ry="4" fill="black" />
    <rect width="8" height="125.69483052242359" x="356" y="12.152584738788207" rx="4" ry="4" fill="black" />
    <rect width="8" height="82.39904740072599" x="372" y="33.800476299637005" rx="4" ry="4" fill="black" />
    <rect width="8" height="67.61330911475024" x="388" y="41.19334544262488" rx="4" ry="4" fill="black" />
    <rect width="8" height="65.1300668949653" x="404" y="42.43496655251735" rx="4" ry="4" fill="black" />
    <rect width="8" height="115.24793145330271" x="420" y="17.376034273348644" rx="4" ry="4" fill="black" />
    <rect width="8" height="87.08107135243606" x="436" y="31.459464323781972" rx="4" ry="4" fill="black" />
    <rect width="8" height="73.8123272754674" x="452" y="38.0938363622663" rx="4" ry="4" fill="black" />
    <rect width="8" height="68.16334069884199" x="468" y="40.918329650579004" rx="4" ry="4" fill="black" />
    <rect width="8" height="58.61407165966131" x="484" y="45.69296417016935" rx="4" ry="4" fill="black" />
    <rect width="8" height="80.7732484720163" x="500" y="34.61337576399185" rx="4" ry="4" fill="black" />
    <rect width="8" height="91.70805382202914" x="516" y="29.14597308898543" rx="4" ry="4" fill="black" />
    <rect width="8" height="91.02720435963278" x="532" y="29.486397820183612" rx="4" ry="4" fill="black" />
    <rect width="8" height="109.24687057917373" x="548" y="20.376564710413135" rx="4" ry="4" fill="black" />
    <rect width="8" height="94.80129880537673" x="564" y="27.599350597311634" rx="4" ry="4" fill="black" />
    <rect width="8" height="111.60681383144009" x="580" y="19.196593084279954" rx="4" ry="4" fill="black" />
    <rect width="8" height="77.21508686627864" x="596" y="36.39245656686068" rx="4" ry="4" fill="black" />
    <rect width="8" height="97.36842747277652" x="612" y="26.31578626361174" rx="4" ry="4" fill="black" />
    <rect width="8" height="69.63671729522517" x="628" y="40.181641352387416" rx="4" ry="4" fill="black" />
    <rect width="8" height="71.5814800552444" x="644" y="39.2092599723778" rx="4" ry="4" fill="black" />
    <rect width="8" height="86.32868536867099" x="660" y="31.835657315664506" rx="4" ry="4" fill="black" />
    <rect width="8" height="80.07454310392522" x="676" y="34.96272844803739" rx="4" ry="4" fill="black" />
    <rect width="8" height="71.71899247126025" x="692" y="39.140503764369875" rx="4" ry="4" fill="black" />
    <rect width="8" height="75.23418271994989" x="708" y="37.38290864002506" rx="4" ry="4" fill="black" />
    <rect width="8" height="79.71667185507782" x="724" y="35.14166407246109" rx="4" ry="4" fill="black" />
    <rect width="8" height="67.366471187098" x="740" y="41.316764406451" rx="4" ry="4" fill="black" />
    <rect width="8" height="73.72796372796968" x="756" y="38.13601813601516" rx="4" ry="4" fill="black" />
    <rect width="8" height="62.287626807568905" x="772" y="43.85618659621555" rx="4" ry="4" fill="black" />
    <rect width="8" height="109.06508345817825" x="788" y="20.467458270910875" rx="4" ry="4" fill="black" />
    <rect width="8" height="67.55185147546065" x="804" y="41.224074262269674" rx="4" ry="4" fill="black" />
    <rect width="8" height="72.13596291753439" x="820" y="38.93201854123281" rx="4" ry="4" fill="black" />
    <rect width="8" height="84.99327331316296" x="836" y="32.50336334341852" rx="4" ry="4" fill="black" />
    <rect width="8" height="85.91314989550705" x="852" y="32.04342505224648" rx="4" ry="4" fill="black" />
    <rect width="8" height="103.05550304399337" x="868" y="23.472248478003316" rx="4" ry="4" fill="black" />
    <rect width="8" height="64.26336264981232" x="884" y="42.86831867509384" rx="4" ry="4" fill="black" />
    <rect width="8" height="80.37163515702157" x="900" y="34.814182421489214" rx="4" ry="4" fill="black" />
    <rect width="8" height="100.59796252150639" x="916" y="24.701018739246805" rx="4" ry="4" fill="black" />
    <rect width="8" height="89.90155433235581" x="932" y="30.049222833822093" rx="4" ry="4" fill="black" />
    <rect width="8" height="105.09718645636215" x="948" y="22.451406771818924" rx="4" ry="4" fill="black" />
    <rect width="8" height="62.94089421137435" x="964" y="43.52955289431283" rx="4" ry="4" fill="black" />
    <rect width="8" height="61.557157134376006" x="980" y="44.221421432811994" rx="4" ry="4" fill="black" />
    <rect width="8" height="91.82826054085382" x="996" y="29.08586972957309" rx="4" ry="4" fill="black" />
    <rect width="8" height="140.7861569296433" x="1012" y="4.606921535178344" rx="4" ry="4" fill="black" />
    <rect width="8" height="84.20510788824443" x="1028" y="32.897446055877786" rx="4" ry="4" fill="black" />
    <rect width="8" height="137.68545571785037" x="1044" y="6.157272141074813" rx="4" ry="4" fill="black" />
    <rect width="8" height="51.03539589045382" x="1060" y="49.482302054773086" rx="4" ry="4" fill="black" />
    <rect width="8" height="75.58127639968264" x="1076" y="37.20936180015868" rx="4" ry="4" fill="black" />
    <rect width="8" height="140.30228354189347" x="1092" y="4.848858229053263" rx="4" ry="4" fill="black" />
    <rect width="8" height="83.45666833765813" x="1108" y="33.271665831170935" rx="4" ry="4" fill="black" />
    <rect width="8" height="147.7206950913925" x="1124" y="1.139652454303743" rx="4" ry="4" fill="black" />
    <rect width="8" height="84.69629365769302" x="1140" y="32.65185317115349" rx="4" ry="4" fill="black" />
    <rect width="8" height="143.02197485968523" x="1156" y="3.489012570157385" rx="4" ry="4" fill="black" />
    <rect width="8" height="80.80888367497163" x="1172" y="34.59555816251419" rx="4" ry="4" fill="black" />
    <rect width="8" height="143.64666510290536" x="1188" y="3.1766674485473203" rx="4" ry="4" fill="black" />
    <rect width="8" height="69.83542901190529" x="1204" y="40.082285494047355" rx="4" ry="4" fill="black" />
    <rect width="8" height="113.79709857492301" x="1220" y="18.101450712538494" rx="4" ry="4" fill="black" />
    <rect width="8" height="61.570314234472335" x="1236" y="44.21484288276383" rx="4" ry="4" fill="black" />
    <rect width="8" height="89.6172113119948" x="1252" y="30.191394344002603" rx="4" ry="4" fill="black" />
    <rect width="8" height="122.16156702332276" x="1268" y="13.91921648833862" rx="4" ry="4" fill="black" />
    <rect width="8" height="81.39928990106286" x="1284" y="34.30035504946857" rx="4" ry="4" fill="black" />
    <rect width="8" height="141.0817256217765" x="1300" y="4.459137189111743" rx="4" ry="4" fill="black" />
    <rect width="8" height="95.36041488925729" x="1316" y="27.319792555371357" rx="4" ry="4" fill="black" />
    <rect width="8" height="140.7234841290209" x="1332" y="4.638257935489548" rx="4" ry="4" fill="black" />
    <rect width="8" height="61.5892636889919" x="1348" y="44.20536815550405" rx="4" ry="4" fill="black" />
    <rect width="8" height="149.13398399978462" x="1364" y="0.4330080001076908" rx="4" ry="4" fill="black" />
    <rect width="8" height="57.03928863268146" x="1380" y="46.48035568365927" rx="4" ry="4" fill="black" />
    <rect width="8" height="109.17046793525827" x="1396" y="20.414766032370864" rx="4" ry="4" fill="black" />
    <rect width="8" height="67.41646506682174" x="1412" y="41.29176746658913" rx="4" ry="4" fill="black" />
    <rect width="8" height="89.18009992789727" x="1428" y="30.409950036051363" rx="4" ry="4" fill="black" />
    <rect width="8" height="128.83824720977503" x="1444" y="10.580876395112483" rx="4" ry="4" fill="black" />
    <rect width="8" height="79.41114749759947" x="1460" y="35.294426251200264" rx="4" ry="4" fill="black" />
    <rect width="8" height="137.73032131810288" x="1476" y="6.1348393409485595" rx="4" ry="4" fill="black" />
    <rect width="8" height="116.14403127731663" x="1492" y="16.927984361341686" rx="4" ry="4" fill="black" />
    <rect width="8" height="138.04948956402202" x="1508" y="5.9752552179889875" rx="4" ry="4" fill="black" />
    <rect width="8" height="60.26395525452131" x="1524" y="44.86802237273935" rx="4" ry="4" fill="black" />
    <rect width="8" height="149.21499513728887" x="1540" y="0.3925024313555667" rx="4" ry="4" fill="black" />
    <rect width="8" height="74.1750023452739" x="1556" y="37.91249882736305" rx="4" ry="4" fill="black" />
    <rect width="8" height="105.95759063584902" x="1572" y="22.021204682075492" rx="4" ry="4" fill="black" />
    <rect width="8" height="51.88450160860653" x="1588" y="49.057749195696736" rx="4" ry="4" fill="black" />
    <rect width="8" height="92.58569388503453" x="1604" y="28.707153057482735" rx="4" ry="4" fill="black" />
    <rect width="8" height="130.38873869564912" x="1620" y="9.805630652175438" rx="4" ry="4" fill="black" />
    <rect width="8" height="92.61735873310045" x="1636" y="28.691320633449777" rx="4" ry="4" fill="black" />
    <rect width="8" height="130.02817802746878" x="1652" y="9.985910986265608" rx="4" ry="4" fill="black" />
    <rect width="8" height="109.3601211457328" x="1668" y="20.319939427133598" rx="4" ry="4" fill="black" />
    <rect width="8" height="141.19495301530563" x="1684" y="4.402523492347186" rx="4" ry="4" fill="black" />
    <rect width="8" height="65.44231021703352" x="1700" y="42.27884489148324" rx="4" ry="4" fill="black" />
    <rect width="8" height="147.9151545551236" x="1716" y="1.0424227224382037" rx="4" ry="4" fill="black" />
    <rect width="8" height="108.26437443488322" x="1732" y="20.86781278255839" rx="4" ry="4" fill="black" />
    <rect width="8" height="80.39119405388476" x="1748" y="34.80440297305762" rx="4" ry="4" fill="black" />
    <rect width="8" height="89.9862150731906" x="1764" y="30.006892463404697" rx="4" ry="4" fill="black" />
    <rect width="8" height="88.45846173245299" x="1780" y="30.770769133773506" rx="4" ry="4" fill="black" />
    <rect width="8" height="139.820396616447" x="1796" y="5.0898016917765005" rx="4" ry="4" fill="black" />
    <rect width="8" height="96.93525882634917" x="1812" y="26.532370586825415" rx="4" ry="4" fill="black" />
    <rect width="8" height="138.39796378857184" x="1828" y="5.801018105714078" rx="4" ry="4" fill="black" />
    <rect width="8" height="125.71166786200878" x="1844" y="12.14416606899561" rx="4" ry="4" fill="black" />
    <rect width="8" height="150" x="1860" y="0" rx="4" ry="4" fill="black" />
    <rect width="8" height="70.48886659101247" x="1876" y="39.755566704493766" rx="4" ry="4" fill="black" />
    <rect width="8" height="140.38993571258" x="1892" y="4.805032143709994" rx="4" ry="4" fill="black" />
    <rect width="8" height="86.55812892558731" x="1908" y="31.720935537206344" rx="4" ry="4" fill="black" />
    <rect width="8" height="92.99927229514178" x="1924" y="28.50036385242911" rx="4" ry="4" fill="black" />
    <rect width="8" height="71.30865049484231" x="1940" y="39.345674752578844" rx="4" ry="4" fill="black" />
    <rect width="8" height="79.68268465167128" x="1956" y="35.15865767416436" rx="4" ry="4" fill="black" />
    <rect width="8" height="142.08826151390676" x="1972" y="3.955869243046621" rx="4" ry="4" fill="black" />
    <rect width="8" height="85.15708603793942" x="1988" y="32.42145698103029" rx="4" ry="4" fill="black" />
    <rect width="8" height="63.220914763451965" x="2004" y="43.38954261827402" rx="4" ry="4" fill="black" />
    <rect width="8" height="64.66444977019496" x="2020" y="42.66777511490252" rx="4" ry="4" fill="black" />
    <rect width="8" height="144.965447253463" x="2036" y="2.5172763732685013" rx="4" ry="4" fill="black" />
    <rect width="8" height="90.55748393711282" x="2052" y="29.72125803144359" rx="4" ry="4" fill="black" />
    <rect width="8" height="128.7731095194851" x="2068" y="10.613445240257448" rx="4" ry="4" fill="black" />
    <rect width="8" height="38.30616213331662" x="2084" y="55.84691893334169" rx="4" ry="4" fill="black" />
    <rect width="8" height="44.13704943840421" x="2100" y="52.9314752807979" rx="4" ry="4" fill="black" />
    <rect width="8" height="75.00561183810106" x="2116" y="37.49719408094947" rx="4" ry="4" fill="black" />
    <rect width="8" height="41.71769849230932" x="2132" y="54.14115075384534" rx="4" ry="4" fill="black" />
    <rect width="8" height="40.230983804917095" x="2148" y="54.884508097541456" rx="4" ry="4" fill="black" />
    <rect width="8" height="54.24332065969052" x="2164" y="47.878339670154745" rx="4" ry="4" fill="black" />
    <rect width="8" height="35.52966925941884" x="2180" y="57.23516537029058" rx="4" ry="4" fill="black" />
    <rect width="8" height="50.00025000183782" x="2196" y="49.99987499908109" rx="4" ry="4" fill="black" />
    <rect width="8" height="21.801150423288355" x="2212" y="64.09942478835582" rx="4" ry="4" fill="black" />
    <rect width="8" height="47.34314324538164" x="2228" y="51.32842837730918" rx="4" ry="4" fill="black" />
    <rect width="8" height="30.416335033089275" x="2244" y="59.791832483455366" rx="4" ry="4" fill="black" />
    <rect width="8" height="58.786753042603536" x="2260" y="45.60662347869823" rx="4" ry="4" fill="black" />
    <rect width="8" height="90.1625048794352" x="2276" y="29.918747560282398" rx="4" ry="4" fill="black" />
    <rect width="8" height="35.47735308222752" x="2292" y="57.26132345888624" rx="4" ry="4" fill="black" />
    <rect width="8" height="64.35082404281943" x="2308" y="42.82458797859029" rx="4" ry="4" fill="black" />
    <rect width="8" height="54.4656558592576" x="2324" y="47.7671720703712" rx="4" ry="4" fill="black" />
    <rect width="8" height="47.95842363277581" x="2340" y="51.0207881836121" rx="4" ry="4" fill="black" />
    <rect width="8" height="47.09529328467598" x="2356" y="51.452353357662005" rx="4" ry="4" fill="black" />
    <rect width="8" height="52.95957914160405" x="2372" y="48.520210429197974" rx="4" ry="4" fill="black" />
    <rect width="8" height="8" x="2388" y="71" rx="4" ry="4" fill="black" />
  </g>
</svg>