<svg 
  baseProfile="tiny"
  preserveAspectRatio="keep"
  version="1.2"
  viewBox="0 0 2400 150"
  height="100%" width="100%"
  xmlns="http://www.w3.org/2000/svg"
  xmlns:ev="http://www.w3.org/2001/xml-events"
  xmlns:xlink="http://www.w3.org/1999/xlink"
>
  <g>
    <rect width="8" height="8" x="4" y="71" rx="4" ry="4" fill="black" />
    <rect width="8" height="29.29763099718772" x="20" y="60.35118450140614" rx="4" ry="4" fill="black" />
    <rect width="8" height="42.49926304703692" x="36" y="53.75036847648154" rx="4" ry="4" fill="black" />
    <rect width="8" height="102.12229874438812" x="52" y="23.93885062780594" rx="4" ry="4" fill="black" />
    <rect width="8" height="72.68450021152799" x="68" y="38.657749894236005" rx="4" ry="4" fill="black" />
    <rect width="8" height="119.71818584944232" x="84" y="15.14090707527884" rx="4" ry="4" fill="black" />
    <rect width="8" height="17.863586626349964" x="100" y="66.06820668682502" rx="4" ry="4" fill="black" />
    <rect width="8" height="59.35737763940578" x="116" y="45.32131118029711" rx="4" ry="4" fill="black" />
    <rect width="8" height="111.3522685585079" x="132" y="19.32386572074605" rx="4" ry="4" fill="black" />
    <rect width="8" height="76.31619849568901" x="148" y="36.841900752155496" rx="4" ry="4" fill="black" />
    <rect width="8" height="8" x="164" y="71" rx="4" ry="4" fill="black" />
    <rect width="8" height="49.215905914470206" x="180" y="50.3920470427649" rx="4" ry="4" fill="black" />
    <rect width="8" height="125.65254871463982" x="196" y="12.17372564268009" rx="4" ry="4" fill="black" />
    <rect width="8" height="56.778670273920426" x="212" y="46.61066486303979" rx="4" ry="4" fill="black" />
    <rect width="8" height="106.31201979097798" x="228" y="21.843990104511008" rx="4" ry="4" fill="black" />
    <rect width="8" height="95.40756554433001" x="244" y="27.296217227834994" rx="4" ry="4" fill="black" />
    <rect width="8" height="44.93684227852359" x="260" y="52.53157886073821" rx="4" ry="4" fill="black" />
    <rect width="8" height="96.56995633088337" x="276" y="26.715021834558314" rx="4" ry="4" fill="black" />
    <rect width="8" height="64.84199602757222" x="292" y="42.57900198621389" rx="4" ry="4" fill="black" />
    <rect width="8" height="77.97042702060145" x="308" y="36.014786489699276" rx="4" ry="4" fill="black" />
    <rect width="8" height="8" x="324" y="71" rx="4" ry="4" fill="black" />
    <rect width="8" height="123.13974447934996" x="340" y="13.430127760325021" rx="4" ry="4" fill="black" />
    <rect width="8" height="76.76384312476183" x="356" y="36.61807843761908" rx="4" ry="4" fill="black" />
    <rect width="8" height="77.85834396990145" x="372" y="36.07082801504927" rx="4" ry="4" fill="black" />
    <rect width="8" height="148.43291498927215" x="388" y="0.7835425053639256" rx="4" ry="4" fill="black" />
    <rect width="8" height="8" x="404" y="71" rx="4" ry="4" fill="black" />
    <rect width="8" height="49.23406715117122" x="420" y="50.38296642441439" rx="4" ry="4" fill="black" />
    <rect width="8" height="46.58006824511142" x="436" y="51.70996587744429" rx="4" ry="4" fill="black" />
    <rect width="8" height="105.89388119473831" x="452" y="22.053059402630844" rx="4" ry="4" fill="black" />
    <rect width="8" height="85.66821509267405" x="468" y="32.16589245366298" rx="4" ry="4" fill="black" />
    <rect width="8" height="126.31838228648148" x="484" y="11.84080885675926" rx="4" ry="4" fill="black" />
    <rect width="8" height="83.3074886762302" x="500" y="33.3462556618849" rx="4" ry="4" fill="black" />
    <rect width="8" height="63.7298527411232" x="516" y="43.135073629438395" rx="4" ry="4" fill="black" />
    <rect width="8" height="131.02858051535682" x="532" y="9.485709742321589" rx="4" ry="4" fill="black" />
    <rect width="8" height="87.15119634240224" x="548" y="31.424401828798878" rx="4" ry="4" fill="black" />
    <rect width="8" height="50.21823338428667" x="564" y="49.89088330785667" rx="4" ry="4" fill="black" />
    <rect width="8" height="41.82514443833174" x="580" y="54.08742778083413" rx="4" ry="4" fill="black" />
    <rect width="8" height="136.04822297740353" x="596" y="6.975888511298237" rx="4" ry="4" fill="black" />
    <rect width="8" height="88.09999140554642" x="612" y="30.95000429722679" rx="4" ry="4" fill="black" />
    <rect width="8" height="98.20288027765804" x="628" y="25.89855986117098" rx="4" ry="4" fill="black" />
    <rect width="8" height="117.9079472617587" x="644" y="16.046026369120653" rx="4" ry="4" fill="black" />
    <rect width="8" height="48.63986025124892" x="660" y="50.68006987437554" rx="4" ry="4" fill="black" />
    <rect width="8" height="62.61619231402479" x="676" y="43.69190384298761" rx="4" ry="4" fill="black" />
    <rect width="8" height="69.85503334221578" x="692" y="40.07248332889211" rx="4" ry="4" fill="black" />
    <rect width="8" height="97.18273057140209" x="708" y="26.408634714298955" rx="4" ry="4" fill="black" />
    <rect width="8" height="27.70954378558309" x="724" y="61.14522810720845" rx="4" ry="4" fill="black" />
    <rect width="8" height="129.47911897591982" x="740" y="10.260440512040091" rx="4" ry="4" fill="black" />
    <rect width="8" height="89.31124127843427" x="756" y="30.344379360782867" rx="4" ry="4" fill="black" />
    <rect width="8" height="85.54464163568379" x="772" y="32.227679182158106" rx="4" ry="4" fill="black" />
    <rect width="8" height="144.27643470554864" x="788" y="2.861782647225681" rx="4" ry="4" fill="black" />
    <rect width="8" height="38.45171748234047" x="804" y="55.774141258829765" rx="4" ry="4" fill="black" />
    <rect width="8" height="58.07044663631609" x="820" y="45.964776681841954" rx="4" ry="4" fill="black" />
    <rect width="8" height="71.51567072533567" x="836" y="39.242164637332166" rx="4" ry="4" fill="black" />
    <rect width="8" height="135.18148944974965" x="852" y="7.409255275125176" rx="4" ry="4" fill="black" />
    <rect width="8" height="98.479484678146" x="868" y="25.760257660927003" rx="4" ry="4" fill="black" />
    <rect width="8" height="82.43774096394795" x="884" y="33.78112951802603" rx="4" ry="4" fill="black" />
    <rect width="8" height="49.85659679969002" x="900" y="50.071701600154995" rx="4" ry="4" fill="black" />
    <rect width="8" height="90.78214581919696" x="916" y="29.608927090401522" rx="4" ry="4" fill="black" />
    <rect width="8" height="120.89675376158134" x="932" y="14.551623119209331" rx="4" ry="4" fill="black" />
    <rect width="8" height="104.98719762759897" x="948" y="22.506401186200513" rx="4" ry="4" fill="black" />
    <rect width="8" height="50.00697175277622" x="964" y="49.99651412361189" rx="4" ry="4" fill="black" />
    <rect width="8" height="52.970186369535796" x="980" y="48.5149068152321" rx="4" ry="4" fill="black" />
    <rect width="8" height="131.26840844963456" x="996" y="9.365795775182718" rx="4" ry="4" fill="black" />
    <rect width="8" height="86.32285553889793" x="1012" y="31.838572230551037" rx="4" ry="4" fill="black" />
    <rect width="8" height="117.12380657888781" x="1028" y="16.438096710556096" rx="4" ry="4" fill="black" />
    <rect width="8" height="105.93808644954322" x="1044" y="22.03095677522839" rx="4" ry="4" fill="black" />
    <rect width="8" height="61.328662702540086" x="1060" y="44.33566864872996" rx="4" ry="4" fill="black" />
    <rect width="8" height="90.90236868674565" x="1076" y="29.548815656627177" rx="4" ry="4" fill="black" />
    <rect width="8" height="71.2501604892229" x="1092" y="39.37491975538855" rx="4" ry="4" fill="black" />
    <rect width="8" height="77.9356350248069" x="1108" y="36.03218248759655" rx="4" ry="4" fill="black" />
    <rect width="8" height="26.53720651341463" x="1124" y="61.731396743292684" rx="4" ry="4" fill="black" />
    <rect width="8" height="132.53002698222483" x="1140" y="8.734986508887587" rx="4" ry="4" fill="black" />
    <rect width="8" height="86.8072594227802" x="1156" y="31.596370288609897" rx="4" ry="4" fill="black" />
    <rect width="8" height="78.37185346826914" x="1172" y="35.81407326586543" rx="4" ry="4" fill="black" />
    <rect width="8" height="144.13225563737464" x="1188" y="2.9338721813126796" rx="4" ry="4" fill="black" />
    <rect width="8" height="8" x="1204" y="71" rx="4" ry="4" fill="black" />
    <rect width="8" height="42.65634303126503" x="1220" y="53.67182848436748" rx="4" ry="4" fill="black" />
    <rect width="8" height="60.907127649440966" x="1236" y="44.54643617527952" rx="4" ry="4" fill="black" />
    <rect width="8" height="110.67649429251168" x="1252" y="19.66175285374416" rx="4" ry="4" fill="black" />
    <rect width="8" height="90.61045131557827" x="1268" y="29.694774342210863" rx="4" ry="4" fill="black" />
    <rect width="8" height="126.73084316453574" x="1284" y="11.63457841773213" rx="4" ry="4" fill="black" />
    <rect width="8" height="106.94716664429728" x="1300" y="21.52641667785136" rx="4" ry="4" fill="black" />
    <rect width="8" height="66.32069869620659" x="1316" y="41.839650651896704" rx="4" ry="4" fill="black" />
    <rect width="8" height="140.86171701905084" x="1332" y="4.569141490474578" rx="4" ry="4" fill="black" />
    <rect width="8" height="94.94806289979107" x="1348" y="27.525968550104466" rx="4" ry="4" fill="black" />
    <rect width="8" height="47.95685342745967" x="1364" y="51.02157328627017" rx="4" ry="4" fill="black" />
    <rect width="8" height="65.19163774535501" x="1380" y="42.404181127322495" rx="4" ry="4" fill="black" />
    <rect width="8" height="135.74896723421733" x="1396" y="7.125516382891334" rx="4" ry="4" fill="black" />
    <rect width="8" height="91.36912293686406" x="1412" y="29.31543853156797" rx="4" ry="4" fill="black" />
    <rect width="8" height="114.56365479077586" x="1428" y="17.71817260461207" rx="4" ry="4" fill="black" />
    <rect width="8" height="121.42791851384932" x="1444" y="14.28604074307534" rx="4" ry="4" fill="black" />
    <rect width="8" height="64.7483576018021" x="1460" y="42.62582119909895" rx="4" ry="4" fill="black" />
    <rect width="8" height="96.14280070701011" x="1476" y="26.928599646494945" rx="4" ry="4" fill="black" />
    <rect width="8" height="80.08478787703464" x="1492" y="34.95760606148268" rx="4" ry="4" fill="black" />
    <rect width="8" height="90.701099619531" x="1508" y="29.649450190234496" rx="4" ry="4" fill="black" />
    <rect width="8" height="44.36513005947882" x="1524" y="52.81743497026059" rx="4" ry="4" fill="black" />
    <rect width="8" height="131.870892660124" x="1540" y="9.064553669937993" rx="4" ry="4" fill="black" />
    <rect width="8" height="89.9305478564113" x="1556" y="30.034726071794353" rx="4" ry="4" fill="black" />
    <rect width="8" height="91.32582984881687" x="1572" y="29.337085075591567" rx="4" ry="4" fill="black" />
    <rect width="8" height="150" x="1588" y="0" rx="4" ry="4" fill="black" />
    <rect width="8" height="34.43989910929937" x="1604" y="57.78005044535031" rx="4" ry="4" fill="black" />
    <rect width="8" height="52.02574852328258" x="1620" y="48.98712573835871" rx="4" ry="4" fill="black" />
    <rect width="8" height="60.23299930222064" x="1636" y="44.88350034888968" rx="4" ry="4" fill="black" />
    <rect width="8" height="119.0418055746592" x="1652" y="15.479097212670403" rx="4" ry="4" fill="black" />
    <rect width="8" height="90.2313891851324" x="1668" y="29.8843054074338" rx="4" ry="4" fill="black" />
    <rect width="8" height="119.81042141918358" x="1684" y="15.094789290408208" rx="4" ry="4" fill="black" />
    <rect width="8" height="106.37253899371481" x="1700" y="21.813730503142594" rx="4" ry="4" fill="black" />
    <rect width="8" height="75.23211992327144" x="1716" y="37.38394003836428" rx="4" ry="4" fill="black" />
    <rect width="8" height="113.58931039532888" x="1732" y="18.20534480233556" rx="4" ry="4" fill="black" />
    <rect width="8" height="97.27745716901721" x="1748" y="26.361271415491395" rx="4" ry="4" fill="black" />
    <rect width="8" height="31.544748695962614" x="1764" y="59.227625652018695" rx="4" ry="4" fill="black" />
    <rect width="8" height="45.994486553946615" x="1780" y="52.00275672302669" rx="4" ry="4" fill="black" />
    <rect width="8" height="132.47736588480646" x="1796" y="8.76131705759677" rx="4" ry="4" fill="black" />
    <rect width="8" height="73.6639459169752" x="1812" y="38.1680270415124" rx="4" ry="4" fill="black" />
    <rect width="8" height="109.96587452235441" x="1828" y="20.017062738822794" rx="4" ry="4" fill="black" />
    <rect width="8" height="71.80229085626868" x="1844" y="39.09885457186566" rx="4" ry="4" fill="black" />
    <rect width="8" height="52.931948167782835" x="1860" y="48.53402591610858" rx="4" ry="4" fill="black" />
    <rect width="8" height="68.28934430166605" x="1876" y="40.855327849166976" rx="4" ry="4" fill="black" />
    <rect width="8" height="75.3758401409934" x="1892" y="37.3120799295033" rx="4" ry="4" fill="black" />
    <rect width="8" height="87.2339471462504" x="1908" y="31.3830264268748" rx="4" ry="4" fill="black" />
    <rect width="8" height="20.922402861911213" x="1924" y="64.53879856904439" rx="4" ry="4" fill="black" />
    <rect width="8" height="130.24412957952754" x="1940" y="9.877935210236231" rx="4" ry="4" fill="black" />
    <rect width="8" height="84.63171943241682" x="1956" y="32.68414028379159" rx="4" ry="4" fill="black" />
    <rect width="8" height="84.84944567977911" x="1972" y="32.575277160110446" rx="4" ry="4" fill="black" />
    <rect width="8" height="104.83397354959564" x="1988" y="22.58301322520218" rx="4" ry="4" fill="black" />
    <rect width="8" height="23.07560289249816" x="2004" y="63.46219855375092" rx="4" ry="4" fill="black" />
    <rect width="8" height="40.221422207709274" x="2020" y="54.88928889614536" rx="4" ry="4" fill="black" />
    <rect width="8" height="53.59156455984446" x="2036" y="48.20421772007777" rx="4" ry="4" fill="black" />
    <rect width="8" height="116.67413356311978" x="2052" y="16.66293321844011" rx="4" ry="4" fill="black" />
    <rect width="8" height="75.8269453509542" x="2068" y="37.0865273245229" rx="4" ry="4" fill="black" />
    <rect width="8" height="116.73428606550728" x="2084" y="16.63285696724636" rx="4" ry="4" fill="black" />
    <rect width="8" height="81.0234538779804" x="2100" y="34.4882730610098" rx="4" ry="4" fill="black" />
    <rect width="8" height="56.80756172545904" x="2116" y="46.59621913727048" rx="4" ry="4" fill="black" />
    <rect width="8" height="74.51116362319246" x="2132" y="37.74441818840377" rx="4" ry="4" fill="black" />
    <rect width="8" height="88.14718637973262" x="2148" y="30.92640681013369" rx="4" ry="4" fill="black" />
    <rect width="8" height="26.107612154780465" x="2164" y="61.946193922609766" rx="4" ry="4" fill="black" />
    <rect width="8" height="31.153436789830973" x="2180" y="59.42328160508451" rx="4" ry="4" fill="black" />
    <rect width="8" height="123.66836482098196" x="2196" y="13.165817589509018" rx="4" ry="4" fill="black" />
    <rect width="8" height="69.4407729856708" x="2212" y="40.2796135071646" rx="4" ry="4" fill="black" />
    <rect width="8" height="106.1435004340867" x="2228" y="21.928249782956648" rx="4" ry="4" fill="black" />
    <rect width="8" height="68.6158914842486" x="2244" y="40.6920542578757" rx="4" ry="4" fill="black" />
    <rect width="8" height="30.908543075019196" x="2260" y="59.5457284624904" rx="4" ry="4" fill="black" />
    <rect width="8" height="61.8751967255871" x="2276" y="44.06240163720645" rx="4" ry="4" fill="black" />
    <rect width="8" height="66.64674406582336" x="2292" y="41.67662796708832" rx="4" ry="4" fill="black" />
    <rect width="8" height="74.43623177423629" x="2308" y="37.781884112881855" rx="4" ry="4" fill="black" />
    <rect width="8" height="8" x="2324" y="71" rx="4" ry="4" fill="black" />
    <rect width="8" height="127.36596900417065" x="2340" y="11.317015497914674" rx="4" ry="4" fill="black" />
    <rect width="8" height="76.21499594807635" x="2356" y="36.892502025961825" rx="4" ry="4" fill="black" />
    <rect width="8" height="72.29560682637613" x="2372" y="38.852196586811935" rx="4" ry="4" fill="black" />
    <rect width="8" height="84.73874329781071" x="2388" y="32.63062835109464" rx="4" ry="4" fill="black" />
  </g>
</svg>