<svg 
  baseProfile="tiny"
  preserveAspectRatio="keep"
  version="1.2"
  viewBox="0 0 2400 150"
  height="100%" width="100%"
  xmlns="http://www.w3.org/2000/svg"
  xmlns:ev="http://www.w3.org/2001/xml-events"
  xmlns:xlink="http://www.w3.org/1999/xlink"
>
  <g>
    <rect width="8" height="149.92356130084852" x="4" y="0.03821934957574058" rx="4" ry="4" fill="black" />
    <rect width="8" height="139.57690745380873" x="20" y="5.211546273095635" rx="4" ry="4" fill="black" />
    <rect width="8" height="130.00768066365964" x="36" y="9.99615966817018" rx="4" ry="4" fill="black" />
    <rect width="8" height="126.86302101583226" x="52" y="11.56848949208387" rx="4" ry="4" fill="black" />
    <rect width="8" height="121.81007621355191" x="68" y="14.094961893224045" rx="4" ry="4" fill="black" />
    <rect width="8" height="112.83214662686007" x="84" y="18.583926686569967" rx="4" ry="4" fill="black" />
    <rect width="8" height="101.33740099317602" x="100" y="24.33129950341199" rx="4" ry="4" fill="black" />
    <rect width="8" height="93.55639292193904" x="116" y="28.221803539030482" rx="4" ry="4" fill="black" />
    <rect width="8" height="135.2499400026016" x="132" y="7.375029998699205" rx="4" ry="4" fill="black" />
    <rect width="8" height="103.06397699509567" x="148" y="23.468011502452164" rx="4" ry="4" fill="black" />
    <rect width="8" height="104.17911590528757" x="164" y="22.910442047356213" rx="4" ry="4" fill="black" />
    <rect width="8" height="101.8504773468738" x="180" y="24.0747613265631" rx="4" ry="4" fill="black" />
    <rect width="8" height="97.77158016485997" x="196" y="26.114209917570015" rx="4" ry="4" fill="black" />
    <rect width="8" height="95.19560325699459" x="212" y="27.402198371502706" rx="4" ry="4" fill="black" />
    <rect width="8" height="95.73501707440474" x="228" y="27.13249146279763" rx="4" ry="4" fill="black" />
    <rect width="8" height="102.02545292824826" x="244" y="23.98727353587587" rx="4" ry="4" fill="black" />
    <rect width="8" height="139.2762856528498" x="260" y="5.361857173575103" rx="4" ry="4" fill="black" />
    <rect width="8" height="99.39846980209266" x="276" y="25.30076509895367" rx="4" ry="4" fill="black" />
    <rect width="8" height="96.81410765290283" x="292" y="26.592946173548583" rx="4" ry="4" fill="black" />
    <rect width="8" height="99.86509406611452" x="308" y="25.06745296694274" rx="4" ry="4" fill="black" />
    <rect width="8" height="102.3348354043908" x="324" y="23.8325822978046" rx="4" ry="4" fill="black" />
    <rect width="8" height="99.2998521792196" x="340" y="25.3500739103902" rx="4" ry="4" fill="black" />
    <rect width="8" height="102.26912082675621" x="356" y="23.865439586621896" rx="4" ry="4" fill="black" />
    <rect width="8" height="104.3761656659237" x="372" y="22.811917167038153" rx="4" ry="4" fill="black" />
    <rect width="8" height="100.24102241750866" x="388" y="24.87948879124567" rx="4" ry="4" fill="black" />
    <rect width="8" height="100.28333882376684" x="404" y="24.85833058811658" rx="4" ry="4" fill="black" />
    <rect width="8" height="100.24345857129096" x="420" y="24.87827071435452" rx="4" ry="4" fill="black" />
    <rect width="8" height="105.42744557474937" x="436" y="22.286277212625315" rx="4" ry="4" fill="black" />
    <rect width="8" height="109.57833230878447" x="452" y="20.210833845607766" rx="4" ry="4" fill="black" />
    <rect width="8" height="111.67275464542023" x="468" y="19.163622677289887" rx="4" ry="4" fill="black" />
    <rect width="8" height="110.34285614055631" x="484" y="19.828571929721846" rx="4" ry="4" fill="black" />
    <rect width="8" height="106.52584011226205" x="500" y="21.737079943868977" rx="4" ry="4" fill="black" />
    <rect width="8" height="106.7812263583356" x="516" y="21.6093868208322" rx="4" ry="4" fill="black" />
    <rect width="8" height="109.5700837056415" x="532" y="20.214958147179253" rx="4" ry="4" fill="black" />
    <rect width="8" height="114.0644911786367" x="548" y="17.96775441068165" rx="4" ry="4" fill="black" />
    <rect width="8" height="111.68269636862523" x="564" y="19.158651815687385" rx="4" ry="4" fill="black" />
    <rect width="8" height="107.79364419885482" x="580" y="21.10317790057259" rx="4" ry="4" fill="black" />
    <rect width="8" height="110.49578402720776" x="596" y="19.75210798639612" rx="4" ry="4" fill="black" />
    <rect width="8" height="110.64922078888391" x="612" y="19.675389605558046" rx="4" ry="4" fill="black" />
    <rect width="8" height="119.39548876787167" x="628" y="15.302255616064166" rx="4" ry="4" fill="black" />
    <rect width="8" height="71.27552689010702" x="644" y="39.36223655494649" rx="4" ry="4" fill="black" />
    <rect width="8" height="18.465410324180247" x="660" y="65.76729483790987" rx="4" ry="4" fill="black" />
    <rect width="8" height="20.11096721906144" x="676" y="64.94451639046927" rx="4" ry="4" fill="black" />
    <rect width="8" height="114.44101093600621" x="692" y="17.779494531996896" rx="4" ry="4" fill="black" />
    <rect width="8" height="124.10454957690769" x="708" y="12.947725211546157" rx="4" ry="4" fill="black" />
    <rect width="8" height="112.82904199465496" x="724" y="18.58547900267252" rx="4" ry="4" fill="black" />
    <rect width="8" height="108.0492733248658" x="740" y="20.975363337567103" rx="4" ry="4" fill="black" />
    <rect width="8" height="103.38302788958508" x="756" y="23.30848605520746" rx="4" ry="4" fill="black" />
    <rect width="8" height="100.99522827295787" x="772" y="24.502385863521063" rx="4" ry="4" fill="black" />
    <rect width="8" height="104.52342437960333" x="788" y="22.738287810198337" rx="4" ry="4" fill="black" />
    <rect width="8" height="108.05149310763018" x="804" y="20.97425344618491" rx="4" ry="4" fill="black" />
    <rect width="8" height="145.0195153964363" x="820" y="2.490242301781848" rx="4" ry="4" fill="black" />
    <rect width="8" height="105.01593690582052" x="836" y="22.492031547089738" rx="4" ry="4" fill="black" />
    <rect width="8" height="101.25288540580362" x="852" y="24.373557297098188" rx="4" ry="4" fill="black" />
    <rect width="8" height="103.72455665978873" x="868" y="23.137721670105634" rx="4" ry="4" fill="black" />
    <rect width="8" height="105.48633492913167" x="884" y="22.256832535434164" rx="4" ry="4" fill="black" />
    <rect width="8" height="31.089556505822046" x="900" y="59.45522174708898" rx="4" ry="4" fill="black" />
    <rect width="8" height="26.698945590890034" x="916" y="61.65052720455498" rx="4" ry="4" fill="black" />
    <rect width="8" height="25.26322073811904" x="932" y="62.368389630940484" rx="4" ry="4" fill="black" />
    <rect width="8" height="140.56165261554196" x="948" y="4.71917369222902" rx="4" ry="4" fill="black" />
    <rect width="8" height="70.2538866331298" x="964" y="39.8730566834351" rx="4" ry="4" fill="black" />
    <rect width="8" height="67.16798891938366" x="980" y="41.41600554030817" rx="4" ry="4" fill="black" />
    <rect width="8" height="68.94920953878203" x="996" y="40.525395230608986" rx="4" ry="4" fill="black" />
    <rect width="8" height="111.92383002456498" x="1012" y="19.03808498771751" rx="4" ry="4" fill="black" />
    <rect width="8" height="86.59054278449659" x="1028" y="31.704728607751704" rx="4" ry="4" fill="black" />
    <rect width="8" height="81.95890693019979" x="1044" y="34.020546534900106" rx="4" ry="4" fill="black" />
    <rect width="8" height="82.96573907015421" x="1060" y="33.51713046492289" rx="4" ry="4" fill="black" />
    <rect width="8" height="150" x="1076" y="0" rx="4" ry="4" fill="black" />
    <rect width="8" height="91.41719289940437" x="1092" y="29.291403550297815" rx="4" ry="4" fill="black" />
    <rect width="8" height="88.75254238196969" x="1108" y="30.623728809015155" rx="4" ry="4" fill="black" />
    <rect width="8" height="89.6702407906826" x="1124" y="30.1648796046587" rx="4" ry="4" fill="black" />
    <rect width="8" height="127.23664231643352" x="1140" y="11.381678841783241" rx="4" ry="4" fill="black" />
    <rect width="8" height="92.69345883180566" x="1156" y="28.65327058409717" rx="4" ry="4" fill="black" />
    <rect width="8" height="91.71734945475659" x="1172" y="29.141325272621707" rx="4" ry="4" fill="black" />
    <rect width="8" height="91.62821878472425" x="1188" y="29.185890607637873" rx="4" ry="4" fill="black" />
    <rect width="8" height="94.34256196247547" x="1204" y="27.828719018762264" rx="4" ry="4" fill="black" />
    <rect width="8" height="97.96905649254713" x="1220" y="26.015471753726437" rx="4" ry="4" fill="black" />
    <rect width="8" height="101.18514773768312" x="1236" y="24.407426131158438" rx="4" ry="4" fill="black" />
    <rect width="8" height="94.69590504374563" x="1252" y="27.652047478127187" rx="4" ry="4" fill="black" />
    <rect width="8" height="74.56468753191385" x="1268" y="37.717656234043076" rx="4" ry="4" fill="black" />
    <rect width="8" height="96.17312282921411" x="1284" y="26.913438585392946" rx="4" ry="4" fill="black" />
    <rect width="8" height="103.38823688853721" x="1300" y="23.305881555731396" rx="4" ry="4" fill="black" />
    <rect width="8" height="103.97931934554687" x="1316" y="23.010340327226565" rx="4" ry="4" fill="black" />
    <rect width="8" height="122.27011603369442" x="1332" y="13.86494198315279" rx="4" ry="4" fill="black" />
    <rect width="8" height="106.20359070372855" x="1348" y="21.898204648135724" rx="4" ry="4" fill="black" />
    <rect width="8" height="103.87531036155076" x="1364" y="23.06234481922462" rx="4" ry="4" fill="black" />
    <rect width="8" height="97.2104687595857" x="1380" y="26.394765620207153" rx="4" ry="4" fill="black" />
    <rect width="8" height="144.9489961488762" x="1396" y="2.5255019255618976" rx="4" ry="4" fill="black" />
    <rect width="8" height="97.23312669399938" x="1412" y="26.38343665300031" rx="4" ry="4" fill="black" />
    <rect width="8" height="102.74020340695469" x="1428" y="23.629898296522654" rx="4" ry="4" fill="black" />
    <rect width="8" height="104.71342780011534" x="1444" y="22.64328609994233" rx="4" ry="4" fill="black" />
    <rect width="8" height="117.20382789164354" x="1460" y="16.39808605417823" rx="4" ry="4" fill="black" />
    <rect width="8" height="93.94694042544471" x="1476" y="28.026529787277646" rx="4" ry="4" fill="black" />
    <rect width="8" height="98.33091384851915" x="1492" y="25.834543075740427" rx="4" ry="4" fill="black" />
    <rect width="8" height="98.99604808299874" x="1508" y="25.50197595850063" rx="4" ry="4" fill="black" />
    <rect width="8" height="112.83736157292672" x="1524" y="18.581319213536638" rx="4" ry="4" fill="black" />
    <rect width="8" height="104.00133741193412" x="1540" y="22.99933129403294" rx="4" ry="4" fill="black" />
    <rect width="8" height="106.6577553195837" x="1556" y="21.67112234020815" rx="4" ry="4" fill="black" />
    <rect width="8" height="104.15863556988774" x="1572" y="22.920682215056132" rx="4" ry="4" fill="black" />
    <rect width="8" height="120.46413662356333" x="1588" y="14.767931688218333" rx="4" ry="4" fill="black" />
    <rect width="8" height="102.32339543146472" x="1604" y="23.83830228426764" rx="4" ry="4" fill="black" />
    <rect width="8" height="107.26070377808232" x="1620" y="21.369648110958842" rx="4" ry="4" fill="black" />
    <rect width="8" height="110.9956486751341" x="1636" y="19.502175662432947" rx="4" ry="4" fill="black" />
    <rect width="8" height="112.26629250469853" x="1652" y="18.866853747650737" rx="4" ry="4" fill="black" />
    <rect width="8" height="112.049707520287" x="1668" y="18.9751462398565" rx="4" ry="4" fill="black" />
    <rect width="8" height="108.48539091246552" x="1684" y="20.75730454376724" rx="4" ry="4" fill="black" />
    <rect width="8" height="113.65798494152087" x="1700" y="18.171007529239567" rx="4" ry="4" fill="black" />
    <rect width="8" height="113.86419978597782" x="1716" y="18.06790010701109" rx="4" ry="4" fill="black" />
    <rect width="8" height="113.05848280328813" x="1732" y="18.470758598355935" rx="4" ry="4" fill="black" />
    <rect width="8" height="114.18612807690482" x="1748" y="17.90693596154759" rx="4" ry="4" fill="black" />
    <rect width="8" height="87.07348390414151" x="1764" y="31.463258047929244" rx="4" ry="4" fill="black" />
    <rect width="8" height="83.75538842369633" x="1780" y="33.122305788151834" rx="4" ry="4" fill="black" />
    <rect width="8" height="79.78286657416885" x="1796" y="35.108566712915575" rx="4" ry="4" fill="black" />
    <rect width="8" height="80.29325924603774" x="1812" y="34.85337037698113" rx="4" ry="4" fill="black" />
    <rect width="8" height="85.5284036932859" x="1828" y="32.23579815335705" rx="4" ry="4" fill="black" />
    <rect width="8" height="114.62336051058628" x="1844" y="17.68831974470686" rx="4" ry="4" fill="black" />
    <rect width="8" height="116.08671692080932" x="1860" y="16.95664153959534" rx="4" ry="4" fill="black" />
    <rect width="8" height="114.62906085265084" x="1876" y="17.68546957367458" rx="4" ry="4" fill="black" />
    <rect width="8" height="104.47855496318573" x="1892" y="22.760722518407135" rx="4" ry="4" fill="black" />
    <rect width="8" height="110.54447777572375" x="1908" y="19.727761112138126" rx="4" ry="4" fill="black" />
    <rect width="8" height="111.35755133126763" x="1924" y="19.321224334366185" rx="4" ry="4" fill="black" />
    <rect width="8" height="113.83156079024283" x="1940" y="18.084219604878584" rx="4" ry="4" fill="black" />
    <rect width="8" height="125.70194518262707" x="1956" y="12.149027408686464" rx="4" ry="4" fill="black" />
    <rect width="8" height="109.81226055457684" x="1972" y="20.09386972271158" rx="4" ry="4" fill="black" />
    <rect width="8" height="105.52127178845099" x="1988" y="22.239364105774506" rx="4" ry="4" fill="black" />
    <rect width="8" height="106.80165039459281" x="2004" y="21.599174802703594" rx="4" ry="4" fill="black" />
    <rect width="8" height="131.4124491010045" x="2020" y="9.293775449497744" rx="4" ry="4" fill="black" />
    <rect width="8" height="111.48448551688958" x="2036" y="19.25775724155521" rx="4" ry="4" fill="black" />
    <rect width="8" height="109.89263287942953" x="2052" y="20.053683560285236" rx="4" ry="4" fill="black" />
    <rect width="8" height="104.53015802269047" x="2068" y="22.734920988654764" rx="4" ry="4" fill="black" />
    <rect width="8" height="142.73944949932937" x="2084" y="3.630275250335316" rx="4" ry="4" fill="black" />
    <rect width="8" height="107.93437659216406" x="2100" y="21.03281170391797" rx="4" ry="4" fill="black" />
    <rect width="8" height="106.38142061302611" x="2116" y="21.809289693486946" rx="4" ry="4" fill="black" />
    <rect width="8" height="73.9185626158593" x="2132" y="38.04071869207035" rx="4" ry="4" fill="black" />
    <rect width="8" height="149.4840169525874" x="2148" y="0.25799152370629486" rx="4" ry="4" fill="black" />
    <rect width="8" height="99.96646884203257" x="2164" y="25.016765578983716" rx="4" ry="4" fill="black" />
    <rect width="8" height="99.58711167749857" x="2180" y="25.206444161250715" rx="4" ry="4" fill="black" />
    <rect width="8" height="100.16806927558218" x="2196" y="24.915965362208908" rx="4" ry="4" fill="black" />
    <rect width="8" height="101.51956139285492" x="2212" y="24.240219303572538" rx="4" ry="4" fill="black" />
    <rect width="8" height="106.01095162704802" x="2228" y="21.994524186475992" rx="4" ry="4" fill="black" />
    <rect width="8" height="108.96306361466094" x="2244" y="20.51846819266953" rx="4" ry="4" fill="black" />
    <rect width="8" height="109.82169527850574" x="2260" y="20.08915236074713" rx="4" ry="4" fill="black" />
    <rect width="8" height="107.98013114736946" x="2276" y="21.00993442631527" rx="4" ry="4" fill="black" />
    <rect width="8" height="107.14810872443314" x="2292" y="21.42594563778343" rx="4" ry="4" fill="black" />
    <rect width="8" height="109.55197417065011" x="2308" y="20.224012914674944" rx="4" ry="4" fill="black" />
    <rect width="8" height="111.32623078692492" x="2324" y="19.336884606537538" rx="4" ry="4" fill="black" />
    <rect width="8" height="113.44173010767653" x="2340" y="18.279134946161733" rx="4" ry="4" fill="black" />
    <rect width="8" height="110.15714561692697" x="2356" y="19.921427191536516" rx="4" ry="4" fill="black" />
    <rect width="8" height="111.79319778800489" x="2372" y="19.103401105997555" rx="4" ry="4" fill="black" />
    <rect width="8" height="8" x="2388" y="71" rx="4" ry="4" fill="black" />
  </g>
</svg>