<svg 
  baseProfile="tiny"
  preserveAspectRatio="keep"
  version="1.2"
  viewBox="0 0 2400 150"
  height="100%" width="100%"
  xmlns="http://www.w3.org/2000/svg"
  xmlns:ev="http://www.w3.org/2001/xml-events"
  xmlns:xlink="http://www.w3.org/1999/xlink"
>
  <g>
    <rect width="8" height="8" x="4" y="71" rx="4" ry="4" fill="black" />
    <rect width="8" height="8" x="20" y="71" rx="4" ry="4" fill="black" />
    <rect width="8" height="8" x="36" y="71" rx="4" ry="4" fill="black" />
    <rect width="8" height="8" x="52" y="71" rx="4" ry="4" fill="black" />
    <rect width="8" height="8" x="68" y="71" rx="4" ry="4" fill="black" />
    <rect width="8" height="8" x="84" y="71" rx="4" ry="4" fill="black" />
    <rect width="8" height="8" x="100" y="71" rx="4" ry="4" fill="black" />
    <rect width="8" height="16.13397251166689" x="116" y="66.93301374416656" rx="4" ry="4" fill="black" />
    <rect width="8" height="8" x="132" y="71" rx="4" ry="4" fill="black" />
    <rect width="8" height="17.92070237649834" x="148" y="66.03964881175082" rx="4" ry="4" fill="black" />
    <rect width="8" height="22.980987333956225" x="164" y="63.50950633302189" rx="4" ry="4" fill="black" />
    <rect width="8" height="17.24345592994917" x="180" y="66.37827203502542" rx="4" ry="4" fill="black" />
    <rect width="8" height="22.846296686371275" x="196" y="63.57685165681436" rx="4" ry="4" fill="black" />
    <rect width="8" height="23.48325563479494" x="212" y="63.25837218260253" rx="4" ry="4" fill="black" />
    <rect width="8" height="20.796687186399666" x="228" y="64.60165640680017" rx="4" ry="4" fill="black" />
    <rect width="8" height="27.459844427744283" x="244" y="61.27007778612786" rx="4" ry="4" fill="black" />
    <rect width="8" height="17.373498786351806" x="260" y="66.3132506068241" rx="4" ry="4" fill="black" />
    <rect width="8" height="17.786732022092867" x="276" y="66.10663398895356" rx="4" ry="4" fill="black" />
    <rect width="8" height="20.710882625641396" x="292" y="64.6445586871793" rx="4" ry="4" fill="black" />
    <rect width="8" height="18.25504381993665" x="308" y="65.87247809003168" rx="4" ry="4" fill="black" />
    <rect width="8" height="19.30497545678872" x="324" y="65.34751227160564" rx="4" ry="4" fill="black" />
    <rect width="8" height="18.996695523078326" x="340" y="65.50165223846084" rx="4" ry="4" fill="black" />
    <rect width="8" height="20.67877205229284" x="356" y="64.66061397385359" rx="4" ry="4" fill="black" />
    <rect width="8" height="23.260525412094" x="372" y="63.369737293953" rx="4" ry="4" fill="black" />
    <rect width="8" height="19.015016770488895" x="388" y="65.49249161475555" rx="4" ry="4" fill="black" />
    <rect width="8" height="23.227657577046077" x="404" y="63.38617121147696" rx="4" ry="4" fill="black" />
    <rect width="8" height="25.954339339125116" x="420" y="62.02283033043744" rx="4" ry="4" fill="black" />
    <rect width="8" height="21.535022096366312" x="436" y="64.23248895181685" rx="4" ry="4" fill="black" />
    <rect width="8" height="24.530288392421625" x="452" y="62.73485580378919" rx="4" ry="4" fill="black" />
    <rect width="8" height="21.55390753832317" x="468" y="64.22304623083842" rx="4" ry="4" fill="black" />
    <rect width="8" height="21.220668021036158" x="484" y="64.38966598948193" rx="4" ry="4" fill="black" />
    <rect width="8" height="26.977749817384744" x="500" y="61.511125091307626" rx="4" ry="4" fill="black" />
    <rect width="8" height="19.735086995576943" x="516" y="65.13245650221153" rx="4" ry="4" fill="black" />
    <rect width="8" height="24.3037587513734" x="532" y="62.848120624313296" rx="4" ry="4" fill="black" />
    <rect width="8" height="26.693509407563276" x="548" y="61.65324529621836" rx="4" ry="4" fill="black" />
    <rect width="8" height="24.26920403412231" x="564" y="62.865397982938845" rx="4" ry="4" fill="black" />
    <rect width="8" height="16.783076970662602" x="580" y="66.6084615146687" rx="4" ry="4" fill="black" />
    <rect width="8" height="22.91064066240827" x="596" y="63.544679668795865" rx="4" ry="4" fill="black" />
    <rect width="8" height="21.861976506782348" x="612" y="64.06901174660882" rx="4" ry="4" fill="black" />
    <rect width="8" height="20.017092090403715" x="628" y="64.99145395479815" rx="4" ry="4" fill="black" />
    <rect width="8" height="19.991977571078706" x="644" y="65.00401121446065" rx="4" ry="4" fill="black" />
    <rect width="8" height="22.321044004674853" x="660" y="63.83947799766257" rx="4" ry="4" fill="black" />
    <rect width="8" height="20.906257793686464" x="676" y="64.54687110315678" rx="4" ry="4" fill="black" />
    <rect width="8" height="16.74182433446038" x="692" y="66.62908783276981" rx="4" ry="4" fill="black" />
    <rect width="8" height="21.952998623139028" x="708" y="64.02350068843049" rx="4" ry="4" fill="black" />
    <rect width="8" height="22.946305159344096" x="724" y="63.526847420327954" rx="4" ry="4" fill="black" />
    <rect width="8" height="22.442989066615723" x="740" y="63.77850546669214" rx="4" ry="4" fill="black" />
    <rect width="8" height="19.72861497898583" x="756" y="65.13569251050708" rx="4" ry="4" fill="black" />
    <rect width="8" height="21.35992753001544" x="772" y="64.32003623499227" rx="4" ry="4" fill="black" />
    <rect width="8" height="22.766789143482757" x="788" y="63.61660542825862" rx="4" ry="4" fill="black" />
    <rect width="8" height="16.854733728603204" x="804" y="66.5726331356984" rx="4" ry="4" fill="black" />
    <rect width="8" height="25.298947888117542" x="820" y="62.35052605594123" rx="4" ry="4" fill="black" />
    <rect width="8" height="21.903328899412074" x="836" y="64.04833555029396" rx="4" ry="4" fill="black" />
    <rect width="8" height="19.329760740285504" x="852" y="65.33511962985725" rx="4" ry="4" fill="black" />
    <rect width="8" height="27.18807996951709" x="868" y="61.405960015241455" rx="4" ry="4" fill="black" />
    <rect width="8" height="26.334190001595406" x="884" y="61.8329049992023" rx="4" ry="4" fill="black" />
    <rect width="8" height="18.34786205404392" x="900" y="65.82606897297804" rx="4" ry="4" fill="black" />
    <rect width="8" height="20.441747879953187" x="916" y="64.7791260600234" rx="4" ry="4" fill="black" />
    <rect width="8" height="25.726630120151327" x="932" y="62.136684939924336" rx="4" ry="4" fill="black" />
    <rect width="8" height="25.253361109072298" x="948" y="62.37331944546385" rx="4" ry="4" fill="black" />
    <rect width="8" height="18.712151562644454" x="964" y="65.64392421867777" rx="4" ry="4" fill="black" />
    <rect width="8" height="21.845523872212404" x="980" y="64.0772380638938" rx="4" ry="4" fill="black" />
    <rect width="8" height="20.07737279476988" x="996" y="64.96131360261506" rx="4" ry="4" fill="black" />
    <rect width="8" height="8" x="1012" y="71" rx="4" ry="4" fill="black" />
    <rect width="8" height="8" x="1028" y="71" rx="4" ry="4" fill="black" />
    <rect width="8" height="8" x="1044" y="71" rx="4" ry="4" fill="black" />
    <rect width="8" height="8" x="1060" y="71" rx="4" ry="4" fill="black" />
    <rect width="8" height="84.03731117507296" x="1076" y="32.98134441246352" rx="4" ry="4" fill="black" />
    <rect width="8" height="102.72296538475977" x="1092" y="23.638517307620113" rx="4" ry="4" fill="black" />
    <rect width="8" height="113.47728844051433" x="1108" y="18.261355779742836" rx="4" ry="4" fill="black" />
    <rect width="8" height="128.28881229018452" x="1124" y="10.855593854907738" rx="4" ry="4" fill="black" />
    <rect width="8" height="98.57827357015296" x="1140" y="25.71086321492352" rx="4" ry="4" fill="black" />
    <rect width="8" height="130.39553505200527" x="1156" y="9.802232473997364" rx="4" ry="4" fill="black" />
    <rect width="8" height="77.89284066916903" x="1172" y="36.053579665415484" rx="4" ry="4" fill="black" />
    <rect width="8" height="148.82876264012165" x="1188" y="0.5856186799391736" rx="4" ry="4" fill="black" />
    <rect width="8" height="96.75852178769394" x="1204" y="26.62073910615303" rx="4" ry="4" fill="black" />
    <rect width="8" height="108.60543880513102" x="1220" y="20.697280597434492" rx="4" ry="4" fill="black" />
    <rect width="8" height="88.75920780149137" x="1236" y="30.620396099254314" rx="4" ry="4" fill="black" />
    <rect width="8" height="112.22464510902476" x="1252" y="18.88767744548762" rx="4" ry="4" fill="black" />
    <rect width="8" height="133.88921580947314" x="1268" y="8.055392095263429" rx="4" ry="4" fill="black" />
    <rect width="8" height="106.21715514561261" x="1284" y="21.891422427193696" rx="4" ry="4" fill="black" />
    <rect width="8" height="126.91811873317073" x="1300" y="11.540940633414635" rx="4" ry="4" fill="black" />
    <rect width="8" height="138.56340364744273" x="1316" y="5.718298176278637" rx="4" ry="4" fill="black" />
    <rect width="8" height="139.00586431136406" x="1332" y="5.497067844317968" rx="4" ry="4" fill="black" />
    <rect width="8" height="108.5584252607895" x="1348" y="20.720787369605247" rx="4" ry="4" fill="black" />
    <rect width="8" height="134.85808733420947" x="1364" y="7.570956332895264" rx="4" ry="4" fill="black" />
    <rect width="8" height="70.65750411523395" x="1380" y="39.671247942383026" rx="4" ry="4" fill="black" />
    <rect width="8" height="130.27293094760097" x="1396" y="9.863534526199516" rx="4" ry="4" fill="black" />
    <rect width="8" height="124.29384226301426" x="1412" y="12.853078868492872" rx="4" ry="4" fill="black" />
    <rect width="8" height="116.1269667340132" x="1428" y="16.936516632993403" rx="4" ry="4" fill="black" />
    <rect width="8" height="115.596782034744" x="1444" y="17.201608982628002" rx="4" ry="4" fill="black" />
    <rect width="8" height="109.12433601379502" x="1460" y="20.437831993102492" rx="4" ry="4" fill="black" />
    <rect width="8" height="124.76087646289716" x="1476" y="12.61956176855142" rx="4" ry="4" fill="black" />
    <rect width="8" height="107.911001308729" x="1492" y="21.0444993456355" rx="4" ry="4" fill="black" />
    <rect width="8" height="130.09304331848605" x="1508" y="9.953478340756973" rx="4" ry="4" fill="black" />
    <rect width="8" height="118.84219958512213" x="1524" y="15.578900207438934" rx="4" ry="4" fill="black" />
    <rect width="8" height="111.88381359970971" x="1540" y="19.058093200145144" rx="4" ry="4" fill="black" />
    <rect width="8" height="111.49708924567406" x="1556" y="19.25145537716297" rx="4" ry="4" fill="black" />
    <rect width="8" height="99.45341167530827" x="1572" y="25.273294162345863" rx="4" ry="4" fill="black" />
    <rect width="8" height="103.30568432943308" x="1588" y="23.34715783528346" rx="4" ry="4" fill="black" />
    <rect width="8" height="115.16636842294083" x="1604" y="17.416815788529583" rx="4" ry="4" fill="black" />
    <rect width="8" height="150" x="1620" y="0" rx="4" ry="4" fill="black" />
    <rect width="8" height="100.80570235369593" x="1636" y="24.597148823152033" rx="4" ry="4" fill="black" />
    <rect width="8" height="133.0261001960966" x="1652" y="8.486949901951704" rx="4" ry="4" fill="black" />
    <rect width="8" height="93.50117739847063" x="1668" y="28.249411300764685" rx="4" ry="4" fill="black" />
    <rect width="8" height="129.04125871594192" x="1684" y="10.47937064202904" rx="4" ry="4" fill="black" />
    <rect width="8" height="102.26489475482094" x="1700" y="23.86755262258953" rx="4" ry="4" fill="black" />
    <rect width="8" height="141.6143686516128" x="1716" y="4.1928156741935965" rx="4" ry="4" fill="black" />
    <rect width="8" height="93.68346681374089" x="1732" y="28.158266593129554" rx="4" ry="4" fill="black" />
    <rect width="8" height="95.17040257654702" x="1748" y="27.41479871172649" rx="4" ry="4" fill="black" />
    <rect width="8" height="101.11686272289963" x="1764" y="24.441568638550187" rx="4" ry="4" fill="black" />
    <rect width="8" height="94.58722916261452" x="1780" y="27.70638541869274" rx="4" ry="4" fill="black" />
    <rect width="8" height="104.11259053934515" x="1796" y="22.943704730327426" rx="4" ry="4" fill="black" />
    <rect width="8" height="91.1544628685091" x="1812" y="29.42276856574545" rx="4" ry="4" fill="black" />
    <rect width="8" height="109.34517416590002" x="1828" y="20.32741291704999" rx="4" ry="4" fill="black" />
    <rect width="8" height="86.14738379374546" x="1844" y="31.92630810312727" rx="4" ry="4" fill="black" />
    <rect width="8" height="118.3301978022044" x="1860" y="15.834901098897802" rx="4" ry="4" fill="black" />
    <rect width="8" height="75.50820708550418" x="1876" y="37.24589645724791" rx="4" ry="4" fill="black" />
    <rect width="8" height="100.69036510795178" x="1892" y="24.65481744602411" rx="4" ry="4" fill="black" />
    <rect width="8" height="79.41327043617078" x="1908" y="35.29336478191461" rx="4" ry="4" fill="black" />
    <rect width="8" height="96.88975338547252" x="1924" y="26.55512330726374" rx="4" ry="4" fill="black" />
    <rect width="8" height="70.11494962598917" x="1940" y="39.942525187005415" rx="4" ry="4" fill="black" />
    <rect width="8" height="57.93989440348201" x="1956" y="46.03005279825899" rx="4" ry="4" fill="black" />
    <rect width="8" height="72.47319852043555" x="1972" y="38.76340073978223" rx="4" ry="4" fill="black" />
    <rect width="8" height="74.79067242045694" x="1988" y="37.60466378977153" rx="4" ry="4" fill="black" />
    <rect width="8" height="39.612541597039304" x="2004" y="55.19372920148035" rx="4" ry="4" fill="black" />
    <rect width="8" height="38.34865468466821" x="2020" y="55.82567265766589" rx="4" ry="4" fill="black" />
    <rect width="8" height="35.796658731010695" x="2036" y="57.10167063449465" rx="4" ry="4" fill="black" />
    <rect width="8" height="55.29353998812106" x="2052" y="47.353230005939466" rx="4" ry="4" fill="black" />
    <rect width="8" height="43.75839476475867" x="2068" y="53.12080261762067" rx="4" ry="4" fill="black" />
    <rect width="8" height="25.605404508468155" x="2084" y="62.19729774576592" rx="4" ry="4" fill="black" />
    <rect width="8" height="48.60267549309728" x="2100" y="50.69866225345136" rx="4" ry="4" fill="black" />
    <rect width="8" height="41.92165289625376" x="2116" y="54.03917355187312" rx="4" ry="4" fill="black" />
    <rect width="8" height="44.328342344633775" x="2132" y="52.835828827683116" rx="4" ry="4" fill="black" />
    <rect width="8" height="41.91486198335973" x="2148" y="54.042569008320136" rx="4" ry="4" fill="black" />
    <rect width="8" height="25.735107349360504" x="2164" y="62.13244632531975" rx="4" ry="4" fill="black" />
    <rect width="8" height="34.21544910414348" x="2180" y="57.892275447928256" rx="4" ry="4" fill="black" />
    <rect width="8" height="19.102062235844606" x="2196" y="65.4489688820777" rx="4" ry="4" fill="black" />
    <rect width="8" height="8" x="2212" y="71" rx="4" ry="4" fill="black" />
    <rect width="8" height="8" x="2228" y="71" rx="4" ry="4" fill="black" />
    <rect width="8" height="8" x="2244" y="71" rx="4" ry="4" fill="black" />
    <rect width="8" height="8" x="2260" y="71" rx="4" ry="4" fill="black" />
    <rect width="8" height="8" x="2276" y="71" rx="4" ry="4" fill="black" />
    <rect width="8" height="8" x="2292" y="71" rx="4" ry="4" fill="black" />
    <rect width="8" height="8" x="2308" y="71" rx="4" ry="4" fill="black" />
    <rect width="8" height="8" x="2324" y="71" rx="4" ry="4" fill="black" />
    <rect width="8" height="8" x="2340" y="71" rx="4" ry="4" fill="black" />
    <rect width="8" height="8" x="2356" y="71" rx="4" ry="4" fill="black" />
    <rect width="8" height="8" x="2372" y="71" rx="4" ry="4" fill="black" />
    <rect width="8" height="8" x="2388" y="71" rx="4" ry="4" fill="black" />
  </g>
</svg>