<svg 
  baseProfile="tiny"
  preserveAspectRatio="true"
  version="1.2"
  viewBox="0 0 2400 150"
  height="100%" width="100%"
  xmlns="http://www.w3.org/2000/svg"
  xmlns:ev="http://www.w3.org/2001/xml-events"
  xmlns:xlink="http://www.w3.org/1999/xlink"
>
  <g>
    <rect width="8" height="68.89364815916883" x="4" y="40.55317592041558" rx="4" ry="4" fill="black" />
    <rect width="8" height="113.78854678373949" x="20" y="18.105726608130254" rx="4" ry="4" fill="black" />
    <rect width="8" height="71.87658125275024" x="36" y="39.06170937362488" rx="4" ry="4" fill="black" />
    <rect width="8" height="111.09692476007316" x="52" y="19.451537619963418" rx="4" ry="4" fill="black" />
    <rect width="8" height="76.43437696587334" x="68" y="36.78281151706333" rx="4" ry="4" fill="black" />
    <rect width="8" height="103.74437119653113" x="84" y="23.127814401734433" rx="4" ry="4" fill="black" />
    <rect width="8" height="125.554841040836" x="100" y="12.222579479582002" rx="4" ry="4" fill="black" />
    <rect width="8" height="68.83506077644459" x="116" y="40.582469611777704" rx="4" ry="4" fill="black" />
    <rect width="8" height="94.47662364487442" x="132" y="27.76168817756279" rx="4" ry="4" fill="black" />
    <rect width="8" height="70.79729561510237" x="148" y="39.601352192448815" rx="4" ry="4" fill="black" />
    <rect width="8" height="101.36886673000448" x="164" y="24.315566634997758" rx="4" ry="4" fill="black" />
    <rect width="8" height="82.3696663567331" x="180" y="33.81516682163345" rx="4" ry="4" fill="black" />
    <rect width="8" height="100.49510131856877" x="196" y="24.752449340715614" rx="4" ry="4" fill="black" />
    <rect width="8" height="117.7264622165638" x="212" y="16.1367688917181" rx="4" ry="4" fill="black" />
    <rect width="8" height="96.93104479197717" x="228" y="26.534477604011414" rx="4" ry="4" fill="black" />
    <rect width="8" height="96.49130595279688" x="244" y="26.75434702360156" rx="4" ry="4" fill="black" />
    <rect width="8" height="51.88001728065332" x="260" y="49.05999135967334" rx="4" ry="4" fill="black" />
    <rect width="8" height="95.00788897384473" x="276" y="27.496055513077636" rx="4" ry="4" fill="black" />
    <rect width="8" height="62.83227822684066" x="292" y="43.58386088657967" rx="4" ry="4" fill="black" />
    <rect width="8" height="103.22528730177437" x="308" y="23.387356349112814" rx="4" ry="4" fill="black" />
    <rect width="8" height="67.91782595408556" x="324" y="41.04108702295722" rx="4" ry="4" fill="black" />
    <rect width="8" height="135.16259451848813" x="340" y="7.418702740755933" rx="4" ry="4" fill="black" />
    <rect width="8" height="116.331371899177" x="356" y="16.8343140504115" rx="4" ry="4" fill="black" />
    <rect width="8" height="59.855292558551746" x="372" y="45.072353720724124" rx="4" ry="4" fill="black" />
    <rect width="8" height="85.02742555885114" x="388" y="32.48628722057443" rx="4" ry="4" fill="black" />
    <rect width="8" height="56.819343793694344" x="404" y="46.59032810315283" rx="4" ry="4" fill="black" />
    <rect width="8" height="86.38342214061593" x="420" y="31.808288929692033" rx="4" ry="4" fill="black" />
    <rect width="8" height="75.63856228429772" x="436" y="37.18071885785114" rx="4" ry="4" fill="black" />
    <rect width="8" height="100.27935742138791" x="452" y="24.860321289306043" rx="4" ry="4" fill="black" />
    <rect width="8" height="103.40701943225837" x="468" y="23.296490283870817" rx="4" ry="4" fill="black" />
    <rect width="8" height="131.92927179421395" x="484" y="9.035364102893027" rx="4" ry="4" fill="black" />
    <rect width="8" height="91.83761722384087" x="500" y="29.081191388079567" rx="4" ry="4" fill="black" />
    <rect width="8" height="45.25898622944021" x="516" y="52.370506885279895" rx="4" ry="4" fill="black" />
    <rect width="8" height="85.32477308464043" x="532" y="32.33761345767979" rx="4" ry="4" fill="black" />
    <rect width="8" height="51.25364813048793" x="548" y="49.373175934756034" rx="4" ry="4" fill="black" />
    <rect width="8" height="105.24721280137372" x="564" y="22.37639359931314" rx="4" ry="4" fill="black" />
    <rect width="8" height="68.13695309520915" x="580" y="40.931523452395425" rx="4" ry="4" fill="black" />
    <rect width="8" height="120.30041149551312" x="596" y="14.849794252243441" rx="4" ry="4" fill="black" />
    <rect width="8" height="101.92111821170113" x="612" y="24.039440894149436" rx="4" ry="4" fill="black" />
    <rect width="8" height="106.95354832762597" x="628" y="21.523225836187017" rx="4" ry="4" fill="black" />
    <rect width="8" height="85.25634001783838" x="644" y="32.37182999108081" rx="4" ry="4" fill="black" />
    <rect width="8" height="50.61910982354241" x="660" y="49.6904450882288" rx="4" ry="4" fill="black" />
    <rect width="8" height="81.94868574234727" x="676" y="34.02565712882637" rx="4" ry="4" fill="black" />
    <rect width="8" height="85.97043751461085" x="692" y="32.014781242694575" rx="4" ry="4" fill="black" />
    <rect width="8" height="113.74680031329692" x="708" y="18.126599843351542" rx="4" ry="4" fill="black" />
    <rect width="8" height="89.3962053184552" x="724" y="30.3018973407724" rx="4" ry="4" fill="black" />
    <rect width="8" height="116.47333946468359" x="740" y="16.763330267658205" rx="4" ry="4" fill="black" />
    <rect width="8" height="99.71145666475424" x="756" y="25.14427166762288" rx="4" ry="4" fill="black" />
    <rect width="8" height="129.01229647776427" x="772" y="10.493851761117867" rx="4" ry="4" fill="black" />
    <rect width="8" height="95.92160851007428" x="788" y="27.03919574496286" rx="4" ry="4" fill="black" />
    <rect width="8" height="74.94686458161554" x="804" y="37.52656770919223" rx="4" ry="4" fill="black" />
    <rect width="8" height="110.43490189689167" x="820" y="19.782549051554163" rx="4" ry="4" fill="black" />
    <rect width="8" height="83.1731201454802" x="836" y="33.4134399272599" rx="4" ry="4" fill="black" />
    <rect width="8" height="130.80798768253734" x="852" y="9.596006158731328" rx="4" ry="4" fill="black" />
    <rect width="8" height="89.47486079874542" x="868" y="30.262569600627288" rx="4" ry="4" fill="black" />
    <rect width="8" height="133.11027291915482" x="884" y="8.444863540422588" rx="4" ry="4" fill="black" />
    <rect width="8" height="97.38950056239236" x="900" y="26.30524971880382" rx="4" ry="4" fill="black" />
    <rect width="8" height="150" x="916" y="0" rx="4" ry="4" fill="black" />
    <rect width="8" height="98.02902494103014" x="932" y="25.985487529484928" rx="4" ry="4" fill="black" />
    <rect width="8" height="123.00277886850967" x="948" y="13.498610565745167" rx="4" ry="4" fill="black" />
    <rect width="8" height="96.23443105442087" x="964" y="26.882784472789567" rx="4" ry="4" fill="black" />
    <rect width="8" height="72.91513903998346" x="980" y="38.54243048000827" rx="4" ry="4" fill="black" />
    <rect width="8" height="103.27787395914808" x="996" y="23.36106302042596" rx="4" ry="4" fill="black" />
    <rect width="8" height="82.79566377151318" x="1012" y="33.60216811424341" rx="4" ry="4" fill="black" />
    <rect width="8" height="120.5277502167992" x="1028" y="14.736124891600397" rx="4" ry="4" fill="black" />
    <rect width="8" height="109.47225408886494" x="1044" y="20.26387295556753" rx="4" ry="4" fill="black" />
    <rect width="8" height="111.65416720425966" x="1060" y="19.172916397870168" rx="4" ry="4" fill="black" />
    <rect width="8" height="93.50152110606268" x="1076" y="28.24923944696866" rx="4" ry="4" fill="black" />
    <rect width="8" height="122.27038041340926" x="1092" y="13.864809793295372" rx="4" ry="4" fill="black" />
    <rect width="8" height="115.06832675372233" x="1108" y="17.465836623138834" rx="4" ry="4" fill="black" />
    <rect width="8" height="57.77828435799764" x="1124" y="46.110857821001176" rx="4" ry="4" fill="black" />
    <rect width="8" height="88.93639547687515" x="1140" y="30.531802261562426" rx="4" ry="4" fill="black" />
    <rect width="8" height="95.46483240437048" x="1156" y="27.26758379781476" rx="4" ry="4" fill="black" />
    <rect width="8" height="129.19218656299648" x="1172" y="10.403906718501759" rx="4" ry="4" fill="black" />
    <rect width="8" height="75.40078022192509" x="1188" y="37.299609889037455" rx="4" ry="4" fill="black" />
    <rect width="8" height="101.04715144932115" x="1204" y="24.476424275339426" rx="4" ry="4" fill="black" />
    <rect width="8" height="99.54952638648301" x="1220" y="25.225236806758495" rx="4" ry="4" fill="black" />
    <rect width="8" height="121.09537231025134" x="1236" y="14.452313844874332" rx="4" ry="4" fill="black" />
    <rect width="8" height="93.74770211570963" x="1252" y="28.126148942145186" rx="4" ry="4" fill="black" />
    <rect width="8" height="50.53853986482773" x="1268" y="49.73073006758614" rx="4" ry="4" fill="black" />
    <rect width="8" height="125.30512985903651" x="1284" y="12.347435070481744" rx="4" ry="4" fill="black" />
    <rect width="8" height="105.99433740530549" x="1300" y="22.002831297347257" rx="4" ry="4" fill="black" />
    <rect width="8" height="108.07195987481121" x="1316" y="20.964020062594393" rx="4" ry="4" fill="black" />
    <rect width="8" height="92.5643976027743" x="1332" y="28.717801198612847" rx="4" ry="4" fill="black" />
    <rect width="8" height="115.3490537794941" x="1348" y="17.32547311025295" rx="4" ry="4" fill="black" />
    <rect width="8" height="93.06637275732363" x="1364" y="28.466813621338183" rx="4" ry="4" fill="black" />
    <rect width="8" height="124.22649609270842" x="1380" y="12.886751953645792" rx="4" ry="4" fill="black" />
    <rect width="8" height="102.68432825524152" x="1396" y="23.657835872379238" rx="4" ry="4" fill="black" />
    <rect width="8" height="91.77167477668537" x="1412" y="29.114162611657314" rx="4" ry="4" fill="black" />
    <rect width="8" height="144.92828676174693" x="1428" y="2.535856619126534" rx="4" ry="4" fill="black" />
    <rect width="8" height="83.92551205559963" x="1444" y="33.03724397220019" rx="4" ry="4" fill="black" />
    <rect width="8" height="117.38243153242672" x="1460" y="16.30878423378664" rx="4" ry="4" fill="black" />
    <rect width="8" height="91.46082843006252" x="1476" y="29.26958578496874" rx="4" ry="4" fill="black" />
    <rect width="8" height="115.98639632080409" x="1492" y="17.006801839597955" rx="4" ry="4" fill="black" />
    <rect width="8" height="99.87024693294958" x="1508" y="25.064876533525208" rx="4" ry="4" fill="black" />
    <rect width="8" height="119.05866835156328" x="1524" y="15.470665824218358" rx="4" ry="4" fill="black" />
    <rect width="8" height="144.5028986481219" x="1540" y="2.7485506759390432" rx="4" ry="4" fill="black" />
    <rect width="8" height="95.25916958594321" x="1556" y="27.370415207028394" rx="4" ry="4" fill="black" />
    <rect width="8" height="109.48304408990786" x="1572" y="20.258477955046068" rx="4" ry="4" fill="black" />
    <rect width="8" height="93.78704962500908" x="1588" y="28.106475187495462" rx="4" ry="4" fill="black" />
    <rect width="8" height="118.78566806597067" x="1604" y="15.607165967014666" rx="4" ry="4" fill="black" />
    <rect width="8" height="91.6508644247274" x="1620" y="29.1745677876363" rx="4" ry="4" fill="black" />
    <rect width="8" height="118.81362555296126" x="1636" y="15.593187223519372" rx="4" ry="4" fill="black" />
    <rect width="8" height="91.51657399637477" x="1652" y="29.241713001812613" rx="4" ry="4" fill="black" />
    <rect width="8" height="135.55395905970988" x="1668" y="7.223020470145059" rx="4" ry="4" fill="black" />
    <rect width="8" height="123.9406668336284" x="1684" y="13.0296665831858" rx="4" ry="4" fill="black" />
    <rect width="8" height="126.20244064712774" x="1700" y="11.898779676436128" rx="4" ry="4" fill="black" />
    <rect width="8" height="104.57706476741045" x="1716" y="22.711467616294776" rx="4" ry="4" fill="black" />
    <rect width="8" height="81.71290801045296" x="1732" y="34.14354599477352" rx="4" ry="4" fill="black" />
    <rect width="8" height="99.91309983520085" x="1748" y="25.043450082399573" rx="4" ry="4" fill="black" />
    <rect width="8" height="92.43446089128679" x="1764" y="28.782769554356605" rx="4" ry="4" fill="black" />
    <rect width="8" height="112.75909954868996" x="1780" y="18.62045022565502" rx="4" ry="4" fill="black" />
    <rect width="8" height="121.83987739905396" x="1796" y="14.08006130047302" rx="4" ry="4" fill="black" />
    <rect width="8" height="120.30979728151082" x="1812" y="14.845101359244588" rx="4" ry="4" fill="black" />
    <rect width="8" height="91.63257705895431" x="1828" y="29.183711470522844" rx="4" ry="4" fill="black" />
    <rect width="8" height="112.37381335082416" x="1844" y="18.813093324587918" rx="4" ry="4" fill="black" />
    <rect width="8" height="96.85466976260103" x="1860" y="26.572665118699483" rx="4" ry="4" fill="black" />
    <rect width="8" height="57.93199545881502" x="1876" y="46.034002270592495" rx="4" ry="4" fill="black" />
    <rect width="8" height="106.03464739488116" x="1892" y="21.98267630255942" rx="4" ry="4" fill="black" />
    <rect width="8" height="84.40773701011366" x="1908" y="32.79613149494317" rx="4" ry="4" fill="black" />
    <rect width="8" height="120.48789110341984" x="1924" y="14.75605444829008" rx="4" ry="4" fill="black" />
    <rect width="8" height="87.03960470733196" x="1940" y="31.48019764633402" rx="4" ry="4" fill="black" />
    <rect width="8" height="112.62686699021471" x="1956" y="18.686566504892646" rx="4" ry="4" fill="black" />
    <rect width="8" height="95.41867170428135" x="1972" y="27.290664147859324" rx="4" ry="4" fill="black" />
    <rect width="8" height="125.30368759142098" x="1988" y="12.34815620428951" rx="4" ry="4" fill="black" />
    <rect width="8" height="98.18829212172031" x="2004" y="25.905853939139845" rx="4" ry="4" fill="black" />
    <rect width="8" height="80.73884181333786" x="2020" y="34.63057909333107" rx="4" ry="4" fill="black" />
    <rect width="8" height="104.46097639322865" x="2036" y="22.769511803385676" rx="4" ry="4" fill="black" />
    <rect width="8" height="83.83927713561957" x="2052" y="33.080361432190216" rx="4" ry="4" fill="black" />
    <rect width="8" height="92.59809628406222" x="2068" y="28.70095185796889" rx="4" ry="4" fill="black" />
    <rect width="8" height="56.57387955869001" x="2084" y="46.713060220654995" rx="4" ry="4" fill="black" />
    <rect width="8" height="105.52106175590771" x="2100" y="22.239469122046145" rx="4" ry="4" fill="black" />
    <rect width="8" height="86.21936545538689" x="2116" y="31.890317272306554" rx="4" ry="4" fill="black" />
    <rect width="8" height="97.81331246499309" x="2132" y="26.093343767503455" rx="4" ry="4" fill="black" />
    <rect width="8" height="69.82584470879935" x="2148" y="40.087077645600324" rx="4" ry="4" fill="black" />
    <rect width="8" height="21.342754107930162" x="2164" y="64.32862294603493" rx="4" ry="4" fill="black" />
    <rect width="8" height="72.82024295940688" x="2180" y="38.58987852029656" rx="4" ry="4" fill="black" />
    <rect width="8" height="37.04741433318233" x="2196" y="56.476292833408834" rx="4" ry="4" fill="black" />
    <rect width="8" height="97.11845635722426" x="2212" y="26.44077182138787" rx="4" ry="4" fill="black" />
    <rect width="8" height="59.164738612724655" x="2228" y="45.417630693637676" rx="4" ry="4" fill="black" />
    <rect width="8" height="93.33995794864698" x="2244" y="28.33002102567651" rx="4" ry="4" fill="black" />
    <rect width="8" height="74.70264535024378" x="2260" y="37.64867732487811" rx="4" ry="4" fill="black" />
    <rect width="8" height="94.98915193245652" x="2276" y="27.50542403377174" rx="4" ry="4" fill="black" />
    <rect width="8" height="60.713223791653135" x="2292" y="44.64338810417343" rx="4" ry="4" fill="black" />
    <rect width="8" height="8" x="2308" y="71" rx="4" ry="4" fill="black" />
    <rect width="8" height="80.98730647116199" x="2324" y="34.50634676441901" rx="4" ry="4" fill="black" />
    <rect width="8" height="8" x="2340" y="71" rx="4" ry="4" fill="black" />
    <rect width="8" height="8" x="2356" y="71" rx="4" ry="4" fill="black" />
    <rect width="8" height="8" x="2372" y="71" rx="4" ry="4" fill="black" />
    <rect width="8" height="8" x="2388" y="71" rx="4" ry="4" fill="black" />
  </g>
</svg>