<svg 
  baseProfile="tiny"
  preserveAspectRatio="keep"
  version="1.2"
  viewBox="0 0 2400 150"
  height="100%" width="100%"
  xmlns="http://www.w3.org/2000/svg"
  xmlns:ev="http://www.w3.org/2001/xml-events"
  xmlns:xlink="http://www.w3.org/1999/xlink"
>
  <g>
    <rect width="8" height="8" x="4" y="71" rx="4" ry="4" fill="black" />
    <rect width="8" height="24.298174594375595" x="20" y="62.8509127028122" rx="4" ry="4" fill="black" />
    <rect width="8" height="19.24862199150876" x="36" y="65.37568900424561" rx="4" ry="4" fill="black" />
    <rect width="8" height="29.328297970714807" x="52" y="60.3358510146426" rx="4" ry="4" fill="black" />
    <rect width="8" height="22.69732644223846" x="68" y="63.65133677888077" rx="4" ry="4" fill="black" />
    <rect width="8" height="41.15154923122172" x="84" y="54.42422538438914" rx="4" ry="4" fill="black" />
    <rect width="8" height="31.034247073384915" x="100" y="59.48287646330754" rx="4" ry="4" fill="black" />
    <rect width="8" height="47.635852099108774" x="116" y="51.18207395044561" rx="4" ry="4" fill="black" />
    <rect width="8" height="38.683765076030646" x="132" y="55.65811746198467" rx="4" ry="4" fill="black" />
    <rect width="8" height="50.44804411747253" x="148" y="49.77597794126373" rx="4" ry="4" fill="black" />
    <rect width="8" height="37.33872922602402" x="164" y="56.33063538698799" rx="4" ry="4" fill="black" />
    <rect width="8" height="40.46424434338274" x="180" y="54.76787782830863" rx="4" ry="4" fill="black" />
    <rect width="8" height="18.491908318125013" x="196" y="65.7540458409375" rx="4" ry="4" fill="black" />
    <rect width="8" height="34.76838113055823" x="212" y="57.61580943472089" rx="4" ry="4" fill="black" />
    <rect width="8" height="16.253833813578368" x="228" y="66.87308309321082" rx="4" ry="4" fill="black" />
    <rect width="8" height="39.36469637438827" x="244" y="55.31765181280586" rx="4" ry="4" fill="black" />
    <rect width="8" height="57.22108139880652" x="260" y="46.38945930059674" rx="4" ry="4" fill="black" />
    <rect width="8" height="69.5495919065627" x="276" y="40.22520404671865" rx="4" ry="4" fill="black" />
    <rect width="8" height="62.580616410206275" x="292" y="43.70969179489686" rx="4" ry="4" fill="black" />
    <rect width="8" height="77.11895381383133" x="308" y="36.44052309308434" rx="4" ry="4" fill="black" />
    <rect width="8" height="65.97636195820851" x="324" y="42.01181902089574" rx="4" ry="4" fill="black" />
    <rect width="8" height="91.6151063829233" x="340" y="29.19244680853835" rx="4" ry="4" fill="black" />
    <rect width="8" height="95.78157736061925" x="356" y="27.109211319690374" rx="4" ry="4" fill="black" />
    <rect width="8" height="105.54559951723046" x="372" y="22.22720024138477" rx="4" ry="4" fill="black" />
    <rect width="8" height="87.45697107016836" x="388" y="31.271514464915818" rx="4" ry="4" fill="black" />
    <rect width="8" height="96.83860761850676" x="404" y="26.58069619074662" rx="4" ry="4" fill="black" />
    <rect width="8" height="88.3398709046403" x="420" y="30.830064547679846" rx="4" ry="4" fill="black" />
    <rect width="8" height="65.05586002712407" x="436" y="42.472069986437965" rx="4" ry="4" fill="black" />
    <rect width="8" height="51.56152083988121" x="452" y="49.219239580059394" rx="4" ry="4" fill="black" />
    <rect width="8" height="49.35367158267446" x="468" y="50.323164208662774" rx="4" ry="4" fill="black" />
    <rect width="8" height="65.71177690253747" x="484" y="42.14411154873127" rx="4" ry="4" fill="black" />
    <rect width="8" height="59.94856680891611" x="500" y="45.025716595541944" rx="4" ry="4" fill="black" />
    <rect width="8" height="65.44701376580556" x="516" y="42.27649311709722" rx="4" ry="4" fill="black" />
    <rect width="8" height="83.65739984117518" x="532" y="33.17130007941241" rx="4" ry="4" fill="black" />
    <rect width="8" height="79.07570594513608" x="548" y="35.46214702743196" rx="4" ry="4" fill="black" />
    <rect width="8" height="78.81751391370517" x="564" y="35.591243043147415" rx="4" ry="4" fill="black" />
    <rect width="8" height="74.77095205854272" x="580" y="37.61452397072864" rx="4" ry="4" fill="black" />
    <rect width="8" height="79.48183728473819" x="596" y="35.259081357630905" rx="4" ry="4" fill="black" />
    <rect width="8" height="84.86899536585183" x="612" y="32.565502317074085" rx="4" ry="4" fill="black" />
    <rect width="8" height="73.85823157120268" x="628" y="38.07088421439866" rx="4" ry="4" fill="black" />
    <rect width="8" height="88.42667936583322" x="644" y="30.78666031708339" rx="4" ry="4" fill="black" />
    <rect width="8" height="102.77448375080145" x="660" y="23.612758124599274" rx="4" ry="4" fill="black" />
    <rect width="8" height="128.07218770033074" x="676" y="10.963906149834628" rx="4" ry="4" fill="black" />
    <rect width="8" height="115.25661133074796" x="692" y="17.37169433462602" rx="4" ry="4" fill="black" />
    <rect width="8" height="116.35498774742246" x="708" y="16.822506126288772" rx="4" ry="4" fill="black" />
    <rect width="8" height="117.51379271065464" x="724" y="16.24310364467268" rx="4" ry="4" fill="black" />
    <rect width="8" height="100.7734804086855" x="740" y="24.61325979565725" rx="4" ry="4" fill="black" />
    <rect width="8" height="101.39845146698804" x="756" y="24.300774266505982" rx="4" ry="4" fill="black" />
    <rect width="8" height="111.47301515575295" x="772" y="19.263492422123527" rx="4" ry="4" fill="black" />
    <rect width="8" height="102.33389141948608" x="788" y="23.83305429025696" rx="4" ry="4" fill="black" />
    <rect width="8" height="106.87875108944469" x="804" y="21.560624455277654" rx="4" ry="4" fill="black" />
    <rect width="8" height="95.75727026714685" x="820" y="27.121364866426575" rx="4" ry="4" fill="black" />
    <rect width="8" height="110.57245466670054" x="836" y="19.71377266664973" rx="4" ry="4" fill="black" />
    <rect width="8" height="133.77407507782863" x="852" y="8.112962461085687" rx="4" ry="4" fill="black" />
    <rect width="8" height="114.37459649504943" x="868" y="17.812701752475284" rx="4" ry="4" fill="black" />
    <rect width="8" height="136.37977247342326" x="884" y="6.810113763288371" rx="4" ry="4" fill="black" />
    <rect width="8" height="124.69052514781752" x="900" y="12.654737426091238" rx="4" ry="4" fill="black" />
    <rect width="8" height="113.24011163239412" x="916" y="18.37994418380294" rx="4" ry="4" fill="black" />
    <rect width="8" height="94.215333521805" x="932" y="27.892333239097503" rx="4" ry="4" fill="black" />
    <rect width="8" height="104.16131563321352" x="948" y="22.91934218339324" rx="4" ry="4" fill="black" />
    <rect width="8" height="86.98221084562205" x="964" y="31.508894577188975" rx="4" ry="4" fill="black" />
    <rect width="8" height="88.72575821280195" x="980" y="30.637120893599025" rx="4" ry="4" fill="black" />
    <rect width="8" height="115.2568124559166" x="996" y="17.3715937720417" rx="4" ry="4" fill="black" />
    <rect width="8" height="133.05888732818994" x="1012" y="8.47055633590503" rx="4" ry="4" fill="black" />
    <rect width="8" height="105.41574208343582" x="1028" y="22.292128958282092" rx="4" ry="4" fill="black" />
    <rect width="8" height="125.0471304149569" x="1044" y="12.476434792521552" rx="4" ry="4" fill="black" />
    <rect width="8" height="134.4722487967257" x="1060" y="7.763875601637153" rx="4" ry="4" fill="black" />
    <rect width="8" height="128.806335337174" x="1076" y="10.596832331412998" rx="4" ry="4" fill="black" />
    <rect width="8" height="134.72129391776602" x="1092" y="7.6393530411169905" rx="4" ry="4" fill="black" />
    <rect width="8" height="127.26545480340225" x="1108" y="11.367272598298875" rx="4" ry="4" fill="black" />
    <rect width="8" height="87.59049899432212" x="1124" y="31.20475050283894" rx="4" ry="4" fill="black" />
    <rect width="8" height="44.61170904225429" x="1140" y="52.694145478872855" rx="4" ry="4" fill="black" />
    <rect width="8" height="49.475991192758386" x="1156" y="50.26200440362081" rx="4" ry="4" fill="black" />
    <rect width="8" height="44.64465980621909" x="1172" y="52.67767009689045" rx="4" ry="4" fill="black" />
    <rect width="8" height="33.40377049944302" x="1188" y="58.298114750278486" rx="4" ry="4" fill="black" />
    <rect width="8" height="42.76024537791607" x="1204" y="53.61987731104196" rx="4" ry="4" fill="black" />
    <rect width="8" height="33.76604332801653" x="1220" y="58.11697833599173" rx="4" ry="4" fill="black" />
    <rect width="8" height="42.17602975194488" x="1236" y="53.91198512402756" rx="4" ry="4" fill="black" />
    <rect width="8" height="66.5366909108075" x="1252" y="41.73165454459625" rx="4" ry="4" fill="black" />
    <rect width="8" height="92.39573947331401" x="1268" y="28.802130263342995" rx="4" ry="4" fill="black" />
    <rect width="8" height="85.37441274548756" x="1284" y="32.31279362725622" rx="4" ry="4" fill="black" />
    <rect width="8" height="82.15383697748189" x="1300" y="33.923081511259056" rx="4" ry="4" fill="black" />
    <rect width="8" height="73.77635355374724" x="1316" y="38.11182322312638" rx="4" ry="4" fill="black" />
    <rect width="8" height="75.71902157868607" x="1332" y="37.140489210656966" rx="4" ry="4" fill="black" />
    <rect width="8" height="66.86997875838374" x="1348" y="41.56501062080813" rx="4" ry="4" fill="black" />
    <rect width="8" height="65.89182141407268" x="1364" y="42.05408929296366" rx="4" ry="4" fill="black" />
    <rect width="8" height="53.74132635102691" x="1380" y="48.12933682448654" rx="4" ry="4" fill="black" />
    <rect width="8" height="71.55282443884869" x="1396" y="39.223587780575656" rx="4" ry="4" fill="black" />
    <rect width="8" height="65.17248602014426" x="1412" y="42.41375698992787" rx="4" ry="4" fill="black" />
    <rect width="8" height="73.62136074941903" x="1428" y="38.18931962529049" rx="4" ry="4" fill="black" />
    <rect width="8" height="86.86097440721049" x="1444" y="31.569512796394754" rx="4" ry="4" fill="black" />
    <rect width="8" height="103.68973373704361" x="1460" y="23.155133131478195" rx="4" ry="4" fill="black" />
    <rect width="8" height="92.29666436993152" x="1476" y="28.85166781503424" rx="4" ry="4" fill="black" />
    <rect width="8" height="99.12797456258622" x="1492" y="25.43601271870689" rx="4" ry="4" fill="black" />
    <rect width="8" height="91.7976016895715" x="1508" y="29.101199155214253" rx="4" ry="4" fill="black" />
    <rect width="8" height="101.1666193973333" x="1524" y="24.416690301333347" rx="4" ry="4" fill="black" />
    <rect width="8" height="79.91407275325558" x="1540" y="35.04296362337221" rx="4" ry="4" fill="black" />
    <rect width="8" height="66.83674394516204" x="1556" y="41.58162802741898" rx="4" ry="4" fill="black" />
    <rect width="8" height="63.9593951350746" x="1572" y="43.0203024324627" rx="4" ry="4" fill="black" />
    <rect width="8" height="78.44699078497764" x="1588" y="35.77650460751118" rx="4" ry="4" fill="black" />
    <rect width="8" height="85.74329132864679" x="1604" y="32.128354335676605" rx="4" ry="4" fill="black" />
    <rect width="8" height="140.24245686139136" x="1620" y="4.87877156930432" rx="4" ry="4" fill="black" />
    <rect width="8" height="129.66192763401594" x="1636" y="10.16903618299203" rx="4" ry="4" fill="black" />
    <rect width="8" height="95.76090504300726" x="1652" y="27.119547478496372" rx="4" ry="4" fill="black" />
    <rect width="8" height="105.52640880987248" x="1668" y="22.23679559506376" rx="4" ry="4" fill="black" />
    <rect width="8" height="96.32519596297301" x="1684" y="26.837402018513494" rx="4" ry="4" fill="black" />
    <rect width="8" height="75.15470058970506" x="1700" y="37.42264970514747" rx="4" ry="4" fill="black" />
    <rect width="8" height="96.1784073007596" x="1716" y="26.9107963496202" rx="4" ry="4" fill="black" />
    <rect width="8" height="103.81056533071167" x="1732" y="23.094717334644166" rx="4" ry="4" fill="black" />
    <rect width="8" height="110.43951506511358" x="1748" y="19.78024246744321" rx="4" ry="4" fill="black" />
    <rect width="8" height="32.18880126335404" x="1764" y="58.90559936832298" rx="4" ry="4" fill="black" />
    <rect width="8" height="130.0107508276645" x="1780" y="9.994624586167745" rx="4" ry="4" fill="black" />
    <rect width="8" height="33.19825744094781" x="1796" y="58.40087127952609" rx="4" ry="4" fill="black" />
    <rect width="8" height="133.53884713185641" x="1812" y="8.230576434071793" rx="4" ry="4" fill="black" />
    <rect width="8" height="84.79143229378649" x="1828" y="32.60428385310676" rx="4" ry="4" fill="black" />
    <rect width="8" height="94.08799225148576" x="1844" y="27.95600387425712" rx="4" ry="4" fill="black" />
    <rect width="8" height="105.0418940231999" x="1860" y="22.47905298840005" rx="4" ry="4" fill="black" />
    <rect width="8" height="136.43735728403675" x="1876" y="6.781321357981625" rx="4" ry="4" fill="black" />
    <rect width="8" height="117.6603742913958" x="1892" y="16.1698128543021" rx="4" ry="4" fill="black" />
    <rect width="8" height="113.82536855434273" x="1908" y="18.087315722828635" rx="4" ry="4" fill="black" />
    <rect width="8" height="120.88194388776708" x="1924" y="14.55902805611646" rx="4" ry="4" fill="black" />
    <rect width="8" height="147.95557108428542" x="1940" y="1.022214457857288" rx="4" ry="4" fill="black" />
    <rect width="8" height="119.04363380556316" x="1956" y="15.47818309721842" rx="4" ry="4" fill="black" />
    <rect width="8" height="145.71368077751177" x="1972" y="2.1431596112441156" rx="4" ry="4" fill="black" />
    <rect width="8" height="150" x="1988" y="0" rx="4" ry="4" fill="black" />
    <rect width="8" height="148.91880563590888" x="2004" y="0.5405971820455591" rx="4" ry="4" fill="black" />
    <rect width="8" height="119.27350163968823" x="2020" y="15.363249180155883" rx="4" ry="4" fill="black" />
    <rect width="8" height="104.9668580792522" x="2036" y="22.516570960373897" rx="4" ry="4" fill="black" />
    <rect width="8" height="115.45713733794385" x="2052" y="17.271431331028076" rx="4" ry="4" fill="black" />
    <rect width="8" height="101.88623539339295" x="2068" y="24.056882303303524" rx="4" ry="4" fill="black" />
    <rect width="8" height="115.80497804975316" x="2084" y="17.09751097512342" rx="4" ry="4" fill="black" />
    <rect width="8" height="118.69539869530146" x="2100" y="15.652300652349268" rx="4" ry="4" fill="black" />
    <rect width="8" height="38.761284422902925" x="2116" y="55.61935778854854" rx="4" ry="4" fill="black" />
    <rect width="8" height="45.50906031986924" x="2132" y="52.24546984006538" rx="4" ry="4" fill="black" />
    <rect width="8" height="21.034563244789563" x="2148" y="64.48271837760522" rx="4" ry="4" fill="black" />
    <rect width="8" height="45.944501836842505" x="2164" y="52.02774908157875" rx="4" ry="4" fill="black" />
    <rect width="8" height="23.90724827140076" x="2180" y="63.04637586429962" rx="4" ry="4" fill="black" />
    <rect width="8" height="39.80319215642885" x="2196" y="55.098403921785575" rx="4" ry="4" fill="black" />
    <rect width="8" height="19.44354505621229" x="2212" y="65.27822747189386" rx="4" ry="4" fill="black" />
    <rect width="8" height="39.06894019817543" x="2228" y="55.46552990091229" rx="4" ry="4" fill="black" />
    <rect width="8" height="8" x="2244" y="71" rx="4" ry="4" fill="black" />
    <rect width="8" height="8" x="2260" y="71" rx="4" ry="4" fill="black" />
    <rect width="8" height="8" x="2276" y="71" rx="4" ry="4" fill="black" />
    <rect width="8" height="8" x="2292" y="71" rx="4" ry="4" fill="black" />
    <rect width="8" height="8" x="2308" y="71" rx="4" ry="4" fill="black" />
    <rect width="8" height="8" x="2324" y="71" rx="4" ry="4" fill="black" />
    <rect width="8" height="70.11845891103336" x="2340" y="39.94077054448332" rx="4" ry="4" fill="black" />
    <rect width="8" height="59.746316035469974" x="2356" y="45.12684198226501" rx="4" ry="4" fill="black" />
    <rect width="8" height="25.692608001016882" x="2372" y="62.15369599949156" rx="4" ry="4" fill="black" />
    <rect width="8" height="22.601982223083912" x="2388" y="63.699008888458046" rx="4" ry="4" fill="black" />
  </g>
</svg>