<svg 
  baseProfile="tiny"
  preserveAspectRatio="true"
  version="1.2"
  viewBox="0 0 2400 150"
  height="100%" width="100%"
  xmlns="http://www.w3.org/2000/svg"
  xmlns:ev="http://www.w3.org/2001/xml-events"
  xmlns:xlink="http://www.w3.org/1999/xlink"
>
  <g>
    <rect width="8" height="34.203799918604425" x="4" y="57.898100040697784" rx="4" ry="4" fill="black" />
    <rect width="8" height="8" x="20" y="71" rx="4" ry="4" fill="black" />
    <rect width="8" height="39.123858565591064" x="36" y="55.43807071720447" rx="4" ry="4" fill="black" />
    <rect width="8" height="8" x="52" y="71" rx="4" ry="4" fill="black" />
    <rect width="8" height="44.36207203988098" x="68" y="52.81896398005951" rx="4" ry="4" fill="black" />
    <rect width="8" height="36.82422828899581" x="84" y="56.587885855502094" rx="4" ry="4" fill="black" />
    <rect width="8" height="63.41977939898678" x="100" y="43.29011030050661" rx="4" ry="4" fill="black" />
    <rect width="8" height="44.97913304264384" x="116" y="52.51043347867808" rx="4" ry="4" fill="black" />
    <rect width="8" height="70.14860088934104" x="132" y="39.92569955532948" rx="4" ry="4" fill="black" />
    <rect width="8" height="42.69737017916121" x="148" y="53.651314910419394" rx="4" ry="4" fill="black" />
    <rect width="8" height="68.9266226763246" x="164" y="40.5366886618377" rx="4" ry="4" fill="black" />
    <rect width="8" height="106.27307799884733" x="180" y="21.863461000576336" rx="4" ry="4" fill="black" />
    <rect width="8" height="121.58783125509025" x="196" y="14.206084372454875" rx="4" ry="4" fill="black" />
    <rect width="8" height="103.4304668304172" x="212" y="23.2847665847914" rx="4" ry="4" fill="black" />
    <rect width="8" height="86.04645230871202" x="228" y="31.97677384564399" rx="4" ry="4" fill="black" />
    <rect width="8" height="82.98658158691585" x="244" y="33.50670920654208" rx="4" ry="4" fill="black" />
    <rect width="8" height="103.95733769419488" x="260" y="23.02133115290256" rx="4" ry="4" fill="black" />
    <rect width="8" height="107.40126842844546" x="276" y="21.29936578577727" rx="4" ry="4" fill="black" />
    <rect width="8" height="111.4360113395544" x="292" y="19.2819943302228" rx="4" ry="4" fill="black" />
    <rect width="8" height="91.94473075482215" x="308" y="29.027634622588927" rx="4" ry="4" fill="black" />
    <rect width="8" height="111.875459787971" x="324" y="19.062270106014502" rx="4" ry="4" fill="black" />
    <rect width="8" height="85.02089099539708" x="340" y="32.48955450230146" rx="4" ry="4" fill="black" />
    <rect width="8" height="76.63095902383617" x="356" y="36.684520488081915" rx="4" ry="4" fill="black" />
    <rect width="8" height="45.975113694277766" x="372" y="52.01244315286112" rx="4" ry="4" fill="black" />
    <rect width="8" height="78.9800606030536" x="388" y="35.5099696984732" rx="4" ry="4" fill="black" />
    <rect width="8" height="69.75314167884689" x="404" y="40.123429160576556" rx="4" ry="4" fill="black" />
    <rect width="8" height="92.68551102921884" x="420" y="28.657244485390578" rx="4" ry="4" fill="black" />
    <rect width="8" height="80.66208291516566" x="436" y="34.66895854241717" rx="4" ry="4" fill="black" />
    <rect width="8" height="82.06078815241683" x="452" y="33.96960592379158" rx="4" ry="4" fill="black" />
    <rect width="8" height="62.61722766340022" x="468" y="43.691386168299886" rx="4" ry="4" fill="black" />
    <rect width="8" height="56.07810281936673" x="484" y="46.96094859031663" rx="4" ry="4" fill="black" />
    <rect width="8" height="78.05967490921581" x="500" y="35.97016254539209" rx="4" ry="4" fill="black" />
    <rect width="8" height="73.63641101041402" x="516" y="38.18179449479299" rx="4" ry="4" fill="black" />
    <rect width="8" height="119.67416564109037" x="532" y="15.162917179454816" rx="4" ry="4" fill="black" />
    <rect width="8" height="105.4399505399258" x="548" y="22.2800247300371" rx="4" ry="4" fill="black" />
    <rect width="8" height="115.48410312100056" x="564" y="17.25794843949972" rx="4" ry="4" fill="black" />
    <rect width="8" height="131.73869230263242" x="580" y="9.130653848683792" rx="4" ry="4" fill="black" />
    <rect width="8" height="77.09306113662845" x="596" y="36.453469431685775" rx="4" ry="4" fill="black" />
    <rect width="8" height="127.68272775226602" x="612" y="11.15863612386699" rx="4" ry="4" fill="black" />
    <rect width="8" height="150" x="628" y="0" rx="4" ry="4" fill="black" />
    <rect width="8" height="132.43216293566635" x="644" y="8.783918532166823" rx="4" ry="4" fill="black" />
    <rect width="8" height="123.83431446897154" x="660" y="13.08284276551423" rx="4" ry="4" fill="black" />
    <rect width="8" height="94.99568404892513" x="676" y="27.502157975537436" rx="4" ry="4" fill="black" />
    <rect width="8" height="101.2539329209287" x="692" y="24.373033539535648" rx="4" ry="4" fill="black" />
    <rect width="8" height="66.16995171938142" x="708" y="41.91502414030929" rx="4" ry="4" fill="black" />
    <rect width="8" height="30.07116858170795" x="724" y="59.964415709146024" rx="4" ry="4" fill="black" />
    <rect width="8" height="29.344670364219056" x="740" y="60.32766481789047" rx="4" ry="4" fill="black" />
    <rect width="8" height="22.522297292016173" x="756" y="63.73885135399191" rx="4" ry="4" fill="black" />
    <rect width="8" height="36.62053645796917" x="772" y="56.68973177101542" rx="4" ry="4" fill="black" />
    <rect width="8" height="29.670584601475294" x="788" y="60.16470769926235" rx="4" ry="4" fill="black" />
    <rect width="8" height="41.41152191435321" x="804" y="54.29423904282339" rx="4" ry="4" fill="black" />
    <rect width="8" height="27.709789098594037" x="820" y="61.145105450702985" rx="4" ry="4" fill="black" />
    <rect width="8" height="50.08145702859437" x="836" y="49.959271485702814" rx="4" ry="4" fill="black" />
    <rect width="8" height="35.55797848711545" x="852" y="57.221010756442276" rx="4" ry="4" fill="black" />
    <rect width="8" height="50.92885438228811" x="868" y="49.535572808855946" rx="4" ry="4" fill="black" />
    <rect width="8" height="46.49734037585189" x="884" y="51.751329812074054" rx="4" ry="4" fill="black" />
    <rect width="8" height="68.77694366598679" x="900" y="40.611528167006604" rx="4" ry="4" fill="black" />
    <rect width="8" height="46.74096769891957" x="916" y="51.62951615054021" rx="4" ry="4" fill="black" />
    <rect width="8" height="69.43360425874094" x="932" y="40.28319787062953" rx="4" ry="4" fill="black" />
    <rect width="8" height="33.33083850941135" x="948" y="58.334580745294325" rx="4" ry="4" fill="black" />
    <rect width="8" height="126.29787123323914" x="964" y="11.851064383380432" rx="4" ry="4" fill="black" />
    <rect width="8" height="119.59653227443242" x="980" y="15.20173386278379" rx="4" ry="4" fill="black" />
    <rect width="8" height="121.97317397078139" x="996" y="14.013413014609306" rx="4" ry="4" fill="black" />
    <rect width="8" height="59.91275767057542" x="1012" y="45.04362116471229" rx="4" ry="4" fill="black" />
    <rect width="8" height="106.90978742699664" x="1028" y="21.545106286501678" rx="4" ry="4" fill="black" />
    <rect width="8" height="133.94046602432684" x="1044" y="8.029766987836581" rx="4" ry="4" fill="black" />
    <rect width="8" height="106.94697711487103" x="1060" y="21.526511442564484" rx="4" ry="4" fill="black" />
    <rect width="8" height="124.29398748792379" x="1076" y="12.853006256038107" rx="4" ry="4" fill="black" />
    <rect width="8" height="105.4578428137796" x="1092" y="22.271078593110197" rx="4" ry="4" fill="black" />
    <rect width="8" height="115.97605539478889" x="1108" y="17.011972302605557" rx="4" ry="4" fill="black" />
    <rect width="8" height="107.06436443642569" x="1124" y="21.467817781787154" rx="4" ry="4" fill="black" />
    <rect width="8" height="80.61812754969748" x="1140" y="34.69093622515126" rx="4" ry="4" fill="black" />
    <rect width="8" height="118.56946642978396" x="1156" y="15.715266785108021" rx="4" ry="4" fill="black" />
    <rect width="8" height="126.23301936841307" x="1172" y="11.883490315793466" rx="4" ry="4" fill="black" />
    <rect width="8" height="125.0476026514123" x="1188" y="12.476198674293848" rx="4" ry="4" fill="black" />
    <rect width="8" height="99.0213252557271" x="1204" y="25.489337372136447" rx="4" ry="4" fill="black" />
    <rect width="8" height="132.3307733123949" x="1220" y="8.834613343802545" rx="4" ry="4" fill="black" />
    <rect width="8" height="111.66150683170454" x="1236" y="19.16924658414773" rx="4" ry="4" fill="black" />
    <rect width="8" height="121.96235092671772" x="1252" y="14.01882453664114" rx="4" ry="4" fill="black" />
    <rect width="8" height="99.94081683638747" x="1268" y="25.029591581806265" rx="4" ry="4" fill="black" />
    <rect width="8" height="137.4365856970984" x="1284" y="6.281707151450803" rx="4" ry="4" fill="black" />
    <rect width="8" height="98.75689029317894" x="1300" y="25.62155485341053" rx="4" ry="4" fill="black" />
    <rect width="8" height="111.95308324977958" x="1316" y="19.02345837511021" rx="4" ry="4" fill="black" />
    <rect width="8" height="92.35946755174568" x="1332" y="28.82026622412716" rx="4" ry="4" fill="black" />
    <rect width="8" height="125.09500030221731" x="1348" y="12.452499848891343" rx="4" ry="4" fill="black" />
    <rect width="8" height="105.8536282780205" x="1364" y="22.073185860989753" rx="4" ry="4" fill="black" />
    <rect width="8" height="99.78940240345847" x="1380" y="25.105298798270766" rx="4" ry="4" fill="black" />
    <rect width="8" height="107.88949569927284" x="1396" y="21.05525215036358" rx="4" ry="4" fill="black" />
    <rect width="8" height="118.69952819245307" x="1412" y="15.650235903773464" rx="4" ry="4" fill="black" />
    <rect width="8" height="105.27365631513837" x="1428" y="22.363171842430816" rx="4" ry="4" fill="black" />
    <rect width="8" height="97.26665655646708" x="1444" y="26.36667172176646" rx="4" ry="4" fill="black" />
    <rect width="8" height="122.44500884763626" x="1460" y="13.77749557618187" rx="4" ry="4" fill="black" />
    <rect width="8" height="128.58378515446978" x="1476" y="10.70810742276511" rx="4" ry="4" fill="black" />
    <rect width="8" height="130.80818070796158" x="1492" y="9.595909646019209" rx="4" ry="4" fill="black" />
    <rect width="8" height="124.43867186566857" x="1508" y="12.780664067165716" rx="4" ry="4" fill="black" />
    <rect width="8" height="109.28746340388943" x="1524" y="20.356268298055284" rx="4" ry="4" fill="black" />
    <rect width="8" height="130.6041587202153" x="1540" y="9.697920639892345" rx="4" ry="4" fill="black" />
    <rect width="8" height="118.71504503114348" x="1556" y="15.642477484428262" rx="4" ry="4" fill="black" />
    <rect width="8" height="124.19240339897104" x="1572" y="12.903798300514481" rx="4" ry="4" fill="black" />
    <rect width="8" height="103.13243224902783" x="1588" y="23.433783875486085" rx="4" ry="4" fill="black" />
    <rect width="8" height="111.59329717830971" x="1604" y="19.203351410845144" rx="4" ry="4" fill="black" />
    <rect width="8" height="136.11222899793162" x="1620" y="6.943885501034188" rx="4" ry="4" fill="black" />
    <rect width="8" height="104.32385251168684" x="1636" y="22.83807374415658" rx="4" ry="4" fill="black" />
    <rect width="8" height="112.70518111027017" x="1652" y="18.647409444864913" rx="4" ry="4" fill="black" />
    <rect width="8" height="108.83224992239693" x="1668" y="20.583875038801537" rx="4" ry="4" fill="black" />
    <rect width="8" height="121.69606846383226" x="1684" y="14.151965768083869" rx="4" ry="4" fill="black" />
    <rect width="8" height="134.9608674390176" x="1700" y="7.519566280491205" rx="4" ry="4" fill="black" />
    <rect width="8" height="133.8718760287694" x="1716" y="8.064061985615297" rx="4" ry="4" fill="black" />
    <rect width="8" height="120.48548460939269" x="1732" y="14.757257695303657" rx="4" ry="4" fill="black" />
    <rect width="8" height="68.78637749263697" x="1748" y="40.606811253681514" rx="4" ry="4" fill="black" />
    <rect width="8" height="90.4014558596842" x="1764" y="29.799272070157897" rx="4" ry="4" fill="black" />
    <rect width="8" height="68.19810391680795" x="1780" y="40.900948041596024" rx="4" ry="4" fill="black" />
    <rect width="8" height="79.82842281143897" x="1796" y="35.085788594280515" rx="4" ry="4" fill="black" />
    <rect width="8" height="77.15910039964001" x="1812" y="36.420449800179995" rx="4" ry="4" fill="black" />
    <rect width="8" height="60.14024688770791" x="1828" y="44.92987655614604" rx="4" ry="4" fill="black" />
    <rect width="8" height="69.25513628686522" x="1844" y="40.37243185656739" rx="4" ry="4" fill="black" />
    <rect width="8" height="81.10114514894951" x="1860" y="34.44942742552524" rx="4" ry="4" fill="black" />
    <rect width="8" height="60.7690536573874" x="1876" y="44.6154731713063" rx="4" ry="4" fill="black" />
    <rect width="8" height="86.5606789818659" x="1892" y="31.719660509067047" rx="4" ry="4" fill="black" />
    <rect width="8" height="57.19259598904292" x="1908" y="46.403702005478536" rx="4" ry="4" fill="black" />
    <rect width="8" height="71.26955971817124" x="1924" y="39.36522014091438" rx="4" ry="4" fill="black" />
    <rect width="8" height="54.23779315132421" x="1940" y="47.881103424337894" rx="4" ry="4" fill="black" />
    <rect width="8" height="80.79137906969349" x="1956" y="34.604310465153254" rx="4" ry="4" fill="black" />
    <rect width="8" height="68.2733840676486" x="1972" y="40.8633079661757" rx="4" ry="4" fill="black" />
    <rect width="8" height="94.15597056209711" x="1988" y="27.922014718951445" rx="4" ry="4" fill="black" />
    <rect width="8" height="52.94891345745047" x="2004" y="48.52554327127476" rx="4" ry="4" fill="black" />
    <rect width="8" height="89.88131529468848" x="2020" y="30.05934235265576" rx="4" ry="4" fill="black" />
    <rect width="8" height="62.760803692917044" x="2036" y="43.619598153541475" rx="4" ry="4" fill="black" />
    <rect width="8" height="94.73090013028235" x="2052" y="27.634549934858825" rx="4" ry="4" fill="black" />
    <rect width="8" height="53.22557970952721" x="2068" y="48.387210145236395" rx="4" ry="4" fill="black" />
    <rect width="8" height="21.06009794339295" x="2084" y="64.46995102830353" rx="4" ry="4" fill="black" />
    <rect width="8" height="16.373556156653848" x="2100" y="66.81322192167308" rx="4" ry="4" fill="black" />
    <rect width="8" height="31.191108928786047" x="2116" y="59.404445535606975" rx="4" ry="4" fill="black" />
    <rect width="8" height="8" x="2132" y="71" rx="4" ry="4" fill="black" />
    <rect width="8" height="35.67167401956282" x="2148" y="57.164162990218585" rx="4" ry="4" fill="black" />
    <rect width="8" height="17.10453935159556" x="2164" y="66.44773032420223" rx="4" ry="4" fill="black" />
    <rect width="8" height="42.4461341318781" x="2180" y="53.77693293406095" rx="4" ry="4" fill="black" />
    <rect width="8" height="8" x="2196" y="71" rx="4" ry="4" fill="black" />
    <rect width="8" height="52.25187660118101" x="2212" y="48.874061699409495" rx="4" ry="4" fill="black" />
    <rect width="8" height="18.922525198782953" x="2228" y="65.53873740060853" rx="4" ry="4" fill="black" />
    <rect width="8" height="53.827999460080036" x="2244" y="48.08600026995998" rx="4" ry="4" fill="black" />
    <rect width="8" height="22.627376602269948" x="2260" y="63.686311698865026" rx="4" ry="4" fill="black" />
    <rect width="8" height="59.011632313378065" x="2276" y="45.494183843310964" rx="4" ry="4" fill="black" />
    <rect width="8" height="25.207511445355255" x="2292" y="62.396244277322374" rx="4" ry="4" fill="black" />
    <rect width="8" height="62.234913830985846" x="2308" y="43.88254308450708" rx="4" ry="4" fill="black" />
    <rect width="8" height="8" x="2324" y="71" rx="4" ry="4" fill="black" />
    <rect width="8" height="8" x="2340" y="71" rx="4" ry="4" fill="black" />
    <rect width="8" height="8" x="2356" y="71" rx="4" ry="4" fill="black" />
    <rect width="8" height="8" x="2372" y="71" rx="4" ry="4" fill="black" />
    <rect width="8" height="8" x="2388" y="71" rx="4" ry="4" fill="black" />
  </g>
</svg>