<svg 
  baseProfile="tiny"
  preserveAspectRatio="true"
  version="1.2"
  viewBox="0 0 2400 150"
  height="100%" width="100%"
  xmlns="http://www.w3.org/2000/svg"
  xmlns:ev="http://www.w3.org/2001/xml-events"
  xmlns:xlink="http://www.w3.org/1999/xlink"
>
  <g>
    <rect width="8" height="41.197492074450196" x="4" y="54.4012539627749" rx="4" ry="4" fill="black" />
    <rect width="8" height="39.340687756511464" x="20" y="55.329656121744264" rx="4" ry="4" fill="black" />
    <rect width="8" height="45.91110081447677" x="36" y="52.044449592761616" rx="4" ry="4" fill="black" />
    <rect width="8" height="46.9750030514194" x="52" y="51.5124984742903" rx="4" ry="4" fill="black" />
    <rect width="8" height="41.235312748014934" x="68" y="54.38234362599253" rx="4" ry="4" fill="black" />
    <rect width="8" height="111.87507146278222" x="84" y="19.062464268608892" rx="4" ry="4" fill="black" />
    <rect width="8" height="118.33784591715774" x="100" y="15.831077041421132" rx="4" ry="4" fill="black" />
    <rect width="8" height="112.91580374227199" x="116" y="18.542098128864005" rx="4" ry="4" fill="black" />
    <rect width="8" height="117.32440531787098" x="132" y="16.33779734106451" rx="4" ry="4" fill="black" />
    <rect width="8" height="110.48709395987413" x="148" y="19.756453020062935" rx="4" ry="4" fill="black" />
    <rect width="8" height="124.2675340682087" x="164" y="12.866232965895648" rx="4" ry="4" fill="black" />
    <rect width="8" height="117.33699408827812" x="180" y="16.33150295586094" rx="4" ry="4" fill="black" />
    <rect width="8" height="125.27269624266529" x="196" y="12.363651878667355" rx="4" ry="4" fill="black" />
    <rect width="8" height="125.63876599147544" x="212" y="12.180617004262281" rx="4" ry="4" fill="black" />
    <rect width="8" height="129.51616768118058" x="228" y="10.241916159409712" rx="4" ry="4" fill="black" />
    <rect width="8" height="126.39269464958353" x="244" y="11.803652675208234" rx="4" ry="4" fill="black" />
    <rect width="8" height="119.06234493683215" x="260" y="15.468827531583926" rx="4" ry="4" fill="black" />
    <rect width="8" height="122.76520565145796" x="276" y="13.61739717427102" rx="4" ry="4" fill="black" />
    <rect width="8" height="121.06715108454368" x="292" y="14.46642445772816" rx="4" ry="4" fill="black" />
    <rect width="8" height="126.63941962894499" x="308" y="11.680290185527504" rx="4" ry="4" fill="black" />
    <rect width="8" height="128.6823013042748" x="324" y="10.6588493478626" rx="4" ry="4" fill="black" />
    <rect width="8" height="121.07152991069864" x="340" y="14.464235044650678" rx="4" ry="4" fill="black" />
    <rect width="8" height="124.41378170269067" x="356" y="12.793109148654665" rx="4" ry="4" fill="black" />
    <rect width="8" height="114.77189508672991" x="372" y="17.614052456635044" rx="4" ry="4" fill="black" />
    <rect width="8" height="123.11651514427125" x="388" y="13.441742427864376" rx="4" ry="4" fill="black" />
    <rect width="8" height="133.30976776007043" x="404" y="8.345116119964786" rx="4" ry="4" fill="black" />
    <rect width="8" height="138.6186615212026" x="420" y="5.6906692393987015" rx="4" ry="4" fill="black" />
    <rect width="8" height="138.68120096081" x="436" y="5.659399519594999" rx="4" ry="4" fill="black" />
    <rect width="8" height="124.41169087137457" x="452" y="12.794154564312713" rx="4" ry="4" fill="black" />
    <rect width="8" height="129.54695853272506" x="468" y="10.226520733637471" rx="4" ry="4" fill="black" />
    <rect width="8" height="129.95293562427466" x="484" y="10.02353218786267" rx="4" ry="4" fill="black" />
    <rect width="8" height="127.16358456728322" x="500" y="11.418207716358388" rx="4" ry="4" fill="black" />
    <rect width="8" height="137.26274061708705" x="516" y="6.368629691456476" rx="4" ry="4" fill="black" />
    <rect width="8" height="124.0441216038614" x="532" y="12.9779391980693" rx="4" ry="4" fill="black" />
    <rect width="8" height="129.24890625207513" x="548" y="10.375546873962435" rx="4" ry="4" fill="black" />
    <rect width="8" height="118.91709417675003" x="564" y="15.541452911624987" rx="4" ry="4" fill="black" />
    <rect width="8" height="126.58071242051741" x="580" y="11.709643789741293" rx="4" ry="4" fill="black" />
    <rect width="8" height="88.25581149040008" x="596" y="30.87209425479996" rx="4" ry="4" fill="black" />
    <rect width="8" height="98.48120864958852" x="612" y="25.759395675205738" rx="4" ry="4" fill="black" />
    <rect width="8" height="100.15452950869457" x="628" y="24.922735245652717" rx="4" ry="4" fill="black" />
    <rect width="8" height="86.24362507568603" x="644" y="31.878187462156987" rx="4" ry="4" fill="black" />
    <rect width="8" height="95.22197764600244" x="660" y="27.38901117699878" rx="4" ry="4" fill="black" />
    <rect width="8" height="92.28633620843745" x="676" y="28.856831895781276" rx="4" ry="4" fill="black" />
    <rect width="8" height="83.93553741597056" x="692" y="33.03223129201472" rx="4" ry="4" fill="black" />
    <rect width="8" height="76.61819347817935" x="708" y="36.690903260910325" rx="4" ry="4" fill="black" />
    <rect width="8" height="85.71268040875582" x="724" y="32.14365979562209" rx="4" ry="4" fill="black" />
    <rect width="8" height="92.70213566417631" x="740" y="28.648932167911845" rx="4" ry="4" fill="black" />
    <rect width="8" height="73.18526417494677" x="756" y="38.40736791252662" rx="4" ry="4" fill="black" />
    <rect width="8" height="98.69975825640223" x="772" y="25.650120871798883" rx="4" ry="4" fill="black" />
    <rect width="8" height="84.70677693901521" x="788" y="32.64661153049239" rx="4" ry="4" fill="black" />
    <rect width="8" height="91.61145667698955" x="804" y="29.194271661505226" rx="4" ry="4" fill="black" />
    <rect width="8" height="81.04383183207777" x="820" y="34.478084083961114" rx="4" ry="4" fill="black" />
    <rect width="8" height="87.68539029594794" x="836" y="31.15730485202603" rx="4" ry="4" fill="black" />
    <rect width="8" height="104.00531381314838" x="852" y="22.997343093425812" rx="4" ry="4" fill="black" />
    <rect width="8" height="80.40850553364878" x="868" y="34.79574723317561" rx="4" ry="4" fill="black" />
    <rect width="8" height="88.52172132656366" x="884" y="30.739139336718168" rx="4" ry="4" fill="black" />
    <rect width="8" height="42.9192703128799" x="900" y="53.54036484356005" rx="4" ry="4" fill="black" />
    <rect width="8" height="57.33567057268293" x="916" y="46.332164713658536" rx="4" ry="4" fill="black" />
    <rect width="8" height="58.65554574426116" x="932" y="45.67222712786942" rx="4" ry="4" fill="black" />
    <rect width="8" height="69.72592848590092" x="948" y="40.13703575704954" rx="4" ry="4" fill="black" />
    <rect width="8" height="110.65382922473442" x="964" y="19.67308538763279" rx="4" ry="4" fill="black" />
    <rect width="8" height="131.50419182306214" x="980" y="9.247904088468928" rx="4" ry="4" fill="black" />
    <rect width="8" height="131.16976308103352" x="996" y="9.415118459483239" rx="4" ry="4" fill="black" />
    <rect width="8" height="129.8143345188416" x="1012" y="10.092832740579198" rx="4" ry="4" fill="black" />
    <rect width="8" height="133.22592456054846" x="1028" y="8.387037719725768" rx="4" ry="4" fill="black" />
    <rect width="8" height="120.13657575538258" x="1044" y="14.93171212230871" rx="4" ry="4" fill="black" />
    <rect width="8" height="121.60142300895532" x="1060" y="14.199288495522339" rx="4" ry="4" fill="black" />
    <rect width="8" height="121.87683920890922" x="1076" y="14.061580395545391" rx="4" ry="4" fill="black" />
    <rect width="8" height="121.32397461707224" x="1092" y="14.33801269146388" rx="4" ry="4" fill="black" />
    <rect width="8" height="134.07644708509355" x="1108" y="7.961776457453226" rx="4" ry="4" fill="black" />
    <rect width="8" height="135.9540524485277" x="1124" y="7.022973775736148" rx="4" ry="4" fill="black" />
    <rect width="8" height="131.1253738797848" x="1140" y="9.437313060107599" rx="4" ry="4" fill="black" />
    <rect width="8" height="131.0012347662191" x="1156" y="9.499382616890443" rx="4" ry="4" fill="black" />
    <rect width="8" height="138.78248106621476" x="1172" y="5.6087594668926215" rx="4" ry="4" fill="black" />
    <rect width="8" height="138.47693528862254" x="1188" y="5.761532355688729" rx="4" ry="4" fill="black" />
    <rect width="8" height="129.71444278620777" x="1204" y="10.142778606896115" rx="4" ry="4" fill="black" />
    <rect width="8" height="128.582097981647" x="1220" y="10.708951009176502" rx="4" ry="4" fill="black" />
    <rect width="8" height="135.61537311979595" x="1236" y="7.192313440102026" rx="4" ry="4" fill="black" />
    <rect width="8" height="138.1973197111019" x="1252" y="5.901340144449051" rx="4" ry="4" fill="black" />
    <rect width="8" height="142.00378143423015" x="1268" y="3.9981092828849256" rx="4" ry="4" fill="black" />
    <rect width="8" height="131.5723151829689" x="1284" y="9.213842408515546" rx="4" ry="4" fill="black" />
    <rect width="8" height="133.34521908646857" x="1300" y="8.327390456765713" rx="4" ry="4" fill="black" />
    <rect width="8" height="136.32026517335336" x="1316" y="6.839867413323319" rx="4" ry="4" fill="black" />
    <rect width="8" height="150" x="1332" y="0" rx="4" ry="4" fill="black" />
    <rect width="8" height="133.5024729978565" x="1348" y="8.24876350107175" rx="4" ry="4" fill="black" />
    <rect width="8" height="130.08190591955648" x="1364" y="9.959047040221762" rx="4" ry="4" fill="black" />
    <rect width="8" height="140.19384112522135" x="1380" y="4.903079437389323" rx="4" ry="4" fill="black" />
    <rect width="8" height="131.75554089875152" x="1396" y="9.12222955062424" rx="4" ry="4" fill="black" />
    <rect width="8" height="138.10314159143448" x="1412" y="5.9484292042827605" rx="4" ry="4" fill="black" />
    <rect width="8" height="133.5271021938049" x="1428" y="8.236448903097553" rx="4" ry="4" fill="black" />
    <rect width="8" height="136.15270337166746" x="1444" y="6.923648314166272" rx="4" ry="4" fill="black" />
    <rect width="8" height="132.2624926130231" x="1460" y="8.868753693488443" rx="4" ry="4" fill="black" />
    <rect width="8" height="147.0795278793563" x="1476" y="1.4602360603218472" rx="4" ry="4" fill="black" />
    <rect width="8" height="125.20024288621609" x="1492" y="12.399878556891956" rx="4" ry="4" fill="black" />
    <rect width="8" height="137.05956815995626" x="1508" y="6.470215920021872" rx="4" ry="4" fill="black" />
    <rect width="8" height="130.4935434203449" x="1524" y="9.753228289827547" rx="4" ry="4" fill="black" />
    <rect width="8" height="131.5450104139283" x="1540" y="9.227494793035845" rx="4" ry="4" fill="black" />
    <rect width="8" height="134.30336902447843" x="1556" y="7.848315487760786" rx="4" ry="4" fill="black" />
    <rect width="8" height="127.44079982827336" x="1572" y="11.279600085863322" rx="4" ry="4" fill="black" />
    <rect width="8" height="123.08212088426579" x="1588" y="13.458939557867104" rx="4" ry="4" fill="black" />
    <rect width="8" height="124.70514737402375" x="1604" y="12.647426312988124" rx="4" ry="4" fill="black" />
    <rect width="8" height="139.03555873878716" x="1620" y="5.48222063060642" rx="4" ry="4" fill="black" />
    <rect width="8" height="120.3229374907831" x="1636" y="14.838531254608448" rx="4" ry="4" fill="black" />
    <rect width="8" height="132.77667503158014" x="1652" y="8.61166248420993" rx="4" ry="4" fill="black" />
    <rect width="8" height="124.8622787272805" x="1668" y="12.568860636359751" rx="4" ry="4" fill="black" />
    <rect width="8" height="131.84852062837246" x="1684" y="9.075739685813772" rx="4" ry="4" fill="black" />
    <rect width="8" height="129.08130829171162" x="1700" y="10.459345854144189" rx="4" ry="4" fill="black" />
    <rect width="8" height="132.32528757209897" x="1716" y="8.837356213950514" rx="4" ry="4" fill="black" />
    <rect width="8" height="131.974785861063" x="1732" y="9.012607069468501" rx="4" ry="4" fill="black" />
    <rect width="8" height="130.48287327424805" x="1748" y="9.758563362875975" rx="4" ry="4" fill="black" />
    <rect width="8" height="127.91903103685628" x="1764" y="11.040484481571859" rx="4" ry="4" fill="black" />
    <rect width="8" height="143.48842013982494" x="1780" y="3.2557899300875306" rx="4" ry="4" fill="black" />
    <rect width="8" height="133.70385699058804" x="1796" y="8.148071504705982" rx="4" ry="4" fill="black" />
    <rect width="8" height="129.7537796983761" x="1812" y="10.123110150811954" rx="4" ry="4" fill="black" />
    <rect width="8" height="133.70946345866474" x="1828" y="8.145268270667628" rx="4" ry="4" fill="black" />
    <rect width="8" height="128.60202915103284" x="1844" y="10.698985424483581" rx="4" ry="4" fill="black" />
    <rect width="8" height="133.1109756658799" x="1860" y="8.444512167060054" rx="4" ry="4" fill="black" />
    <rect width="8" height="136.75240321211842" x="1876" y="6.623798393940788" rx="4" ry="4" fill="black" />
    <rect width="8" height="133.5109535280028" x="1892" y="8.2445232359986" rx="4" ry="4" fill="black" />
    <rect width="8" height="137.4181380689901" x="1908" y="6.2909309655049555" rx="4" ry="4" fill="black" />
    <rect width="8" height="145.48735127552607" x="1924" y="2.256324362236967" rx="4" ry="4" fill="black" />
    <rect width="8" height="133.29994377459502" x="1940" y="8.35002811270249" rx="4" ry="4" fill="black" />
    <rect width="8" height="135.2994059314318" x="1956" y="7.350297034284097" rx="4" ry="4" fill="black" />
    <rect width="8" height="137.45031256289525" x="1972" y="6.2748437185523755" rx="4" ry="4" fill="black" />
    <rect width="8" height="137.7061534786672" x="1988" y="6.146923260666398" rx="4" ry="4" fill="black" />
    <rect width="8" height="141.12574365660836" x="2004" y="4.437128171695818" rx="4" ry="4" fill="black" />
    <rect width="8" height="131.91471589064273" x="2020" y="9.042642054678637" rx="4" ry="4" fill="black" />
    <rect width="8" height="131.58243590707485" x="2036" y="9.208782046462574" rx="4" ry="4" fill="black" />
    <rect width="8" height="140.3836429785547" x="2052" y="4.808178510722655" rx="4" ry="4" fill="black" />
    <rect width="8" height="132.33056919684526" x="2068" y="8.83471540157737" rx="4" ry="4" fill="black" />
    <rect width="8" height="132.9628166809167" x="2084" y="8.518591659541656" rx="4" ry="4" fill="black" />
    <rect width="8" height="131.15206121865933" x="2100" y="9.423969390670337" rx="4" ry="4" fill="black" />
    <rect width="8" height="130.9058149086947" x="2116" y="9.547092545652646" rx="4" ry="4" fill="black" />
    <rect width="8" height="132.0102502580585" x="2132" y="8.994874870970747" rx="4" ry="4" fill="black" />
    <rect width="8" height="131.74945052713394" x="2148" y="9.125274736433028" rx="4" ry="4" fill="black" />
    <rect width="8" height="129.59903403419622" x="2164" y="10.200482982901889" rx="4" ry="4" fill="black" />
    <rect width="8" height="130.79414253328625" x="2180" y="9.602928733356876" rx="4" ry="4" fill="black" />
    <rect width="8" height="131.90043969638336" x="2196" y="9.04978015180832" rx="4" ry="4" fill="black" />
    <rect width="8" height="131.1584173074409" x="2212" y="9.420791346279543" rx="4" ry="4" fill="black" />
    <rect width="8" height="130.91473316204898" x="2228" y="9.542633418975512" rx="4" ry="4" fill="black" />
    <rect width="8" height="127.98783595774061" x="2244" y="11.006082021129693" rx="4" ry="4" fill="black" />
    <rect width="8" height="127.86590793643163" x="2260" y="11.067046031784187" rx="4" ry="4" fill="black" />
    <rect width="8" height="128.01242008366722" x="2276" y="10.993789958166388" rx="4" ry="4" fill="black" />
    <rect width="8" height="128.66842052617756" x="2292" y="10.665789736911222" rx="4" ry="4" fill="black" />
    <rect width="8" height="127.16009770556605" x="2308" y="11.419951147216977" rx="4" ry="4" fill="black" />
    <rect width="8" height="129.0899159743368" x="2324" y="10.455042012831598" rx="4" ry="4" fill="black" />
    <rect width="8" height="129.12392620721965" x="2340" y="10.438036896390173" rx="4" ry="4" fill="black" />
    <rect width="8" height="128.24786293732" x="2356" y="10.876068531339996" rx="4" ry="4" fill="black" />
    <rect width="8" height="103.93910649249734" x="2372" y="23.030446753751328" rx="4" ry="4" fill="black" />
    <rect width="8" height="8" x="2388" y="71" rx="4" ry="4" fill="black" />
  </g>
</svg>