<svg 
  baseProfile="tiny"
  preserveAspectRatio="keep"
  version="1.2"
  viewBox="0 0 2000.000000 400.000000"
  height="100%" width="100%"
  xmlns="http://www.w3.org/2000/svg"
  xmlns:ev="http://www.w3.org/2001/xml-events"
  xmlns:xlink="http://www.w3.org/1999/xlink"
>
  <g>
    <rect width="8" height="48.214487720783005" x="1" y="175.8927561396085" rx="5" ry="5" fill="white" />
    <rect width="8" height="67.12164951722086" x="11" y="166.43917524138956" rx="5" ry="5" fill="white" />
    <rect width="8" height="43.636039292010274" x="21" y="178.18198035399487" rx="5" ry="5" fill="white" />
    <rect width="8" height="62.84695097646412" x="31" y="168.57652451176793" rx="5" ry="5" fill="white" />
    <rect width="8" height="36.071928413101695" x="41" y="181.96403579344914" rx="5" ry="5" fill="white" />
    <rect width="8" height="39.07624181731908" x="51" y="180.46187909134045" rx="5" ry="5" fill="white" />
    <rect width="8" height="30.156655619360002" x="61" y="184.92167219032" rx="5" ry="5" fill="white" />
    <rect width="8" height="44.66199077393818" x="71" y="177.66900461303092" rx="5" ry="5" fill="white" />
    <rect width="8" height="47.898089526087986" x="81" y="176.050955236956" rx="5" ry="5" fill="white" />
    <rect width="8" height="53.7940783437767" x="91" y="173.10296082811166" rx="5" ry="5" fill="white" />
    <rect width="8" height="43.900453111887266" x="101" y="178.04977344405637" rx="5" ry="5" fill="white" />
    <rect width="8" height="64.1186732235948" x="111" y="167.9406633882026" rx="5" ry="5" fill="white" />
    <rect width="8" height="52.09069634881294" x="121" y="173.95465182559354" rx="5" ry="5" fill="white" />
    <rect width="8" height="58.590759766301915" x="131" y="170.70462011684904" rx="5" ry="5" fill="white" />
    <rect width="8" height="47.95568106775323" x="141" y="176.02215946612338" rx="5" ry="5" fill="white" />
    <rect width="8" height="55.816442840676395" x="151" y="172.0917785796618" rx="5" ry="5" fill="white" />
    <rect width="8" height="30.201274902232882" x="161" y="184.89936254888357" rx="5" ry="5" fill="white" />
    <rect width="8" height="57.328813814494694" x="171" y="171.33559309275265" rx="5" ry="5" fill="white" />
    <rect width="8" height="34.963885488868875" x="181" y="182.51805725556557" rx="5" ry="5" fill="white" />
    <rect width="8" height="68.08223764112896" x="191" y="165.95888117943554" rx="5" ry="5" fill="white" />
    <rect width="8" height="53.25526420572939" x="201" y="173.3723678971353" rx="5" ry="5" fill="white" />
    <rect width="8" height="71.53362359244122" x="211" y="164.23318820377938" rx="5" ry="5" fill="white" />
    <rect width="8" height="54.01361860613999" x="221" y="172.99319069693001" rx="5" ry="5" fill="white" />
    <rect width="8" height="67.01149561375517" x="231" y="166.4942521931224" rx="5" ry="5" fill="white" />
    <rect width="8" height="46.23390489488169" x="241" y="176.88304755255916" rx="5" ry="5" fill="white" />
    <rect width="8" height="46.40469787698479" x="251" y="176.7976510615076" rx="5" ry="5" fill="white" />
    <rect width="8" height="48.360935983265236" x="261" y="175.8195320083674" rx="5" ry="5" fill="white" />
    <rect width="8" height="54.27352788809785" x="271" y="172.86323605595106" rx="5" ry="5" fill="white" />
    <rect width="8" height="56.21642400269777" x="281" y="171.89178799865113" rx="5" ry="5" fill="white" />
    <rect width="8" height="59.323617741964576" x="291" y="170.3381911290177" rx="5" ry="5" fill="white" />
    <rect width="8" height="65.38139449794741" x="301" y="167.30930275102628" rx="5" ry="5" fill="white" />
    <rect width="8" height="54.001214309739154" x="311" y="172.99939284513042" rx="5" ry="5" fill="white" />
    <rect width="8" height="30.19953640548374" x="321" y="184.90023179725813" rx="5" ry="5" fill="white" />
    <rect width="8" height="63.57505027912846" x="331" y="168.21247486043578" rx="5" ry="5" fill="white" />
    <rect width="8" height="49.770673499395954" x="341" y="175.11466325030202" rx="5" ry="5" fill="white" />
    <rect width="8" height="66.30677420546198" x="351" y="166.846612897269" rx="5" ry="5" fill="white" />
    <rect width="8" height="46.672796609759914" x="361" y="176.66360169512004" rx="5" ry="5" fill="white" />
    <rect width="8" height="62.913021182309826" x="371" y="168.5434894088451" rx="5" ry="5" fill="white" />
    <rect width="8" height="47.71357330265164" x="381" y="176.14321334867418" rx="5" ry="5" fill="white" />
    <rect width="8" height="73.36318886426295" x="391" y="163.31840556786852" rx="5" ry="5" fill="white" />
    <rect width="8" height="41.41707506444477" x="401" y="179.29146246777762" rx="5" ry="5" fill="white" />
    <rect width="8" height="62.84071049650124" x="411" y="168.57964475174938" rx="5" ry="5" fill="white" />
    <rect width="8" height="31.182717380895497" x="421" y="184.40864130955225" rx="5" ry="5" fill="white" />
    <rect width="8" height="62.61962865046835" x="431" y="168.69018567476581" rx="5" ry="5" fill="white" />
    <rect width="8" height="34.04771019673246" x="441" y="182.97614490163377" rx="5" ry="5" fill="white" />
    <rect width="8" height="30.541860806210035" x="451" y="184.729069596895" rx="5" ry="5" fill="white" />
    <rect width="8" height="38.30055957817513" x="461" y="180.84972021091244" rx="5" ry="5" fill="white" />
    <rect width="8" height="45.224877769597875" x="471" y="177.38756111520107" rx="5" ry="5" fill="white" />
    <rect width="8" height="47.86498953098229" x="481" y="176.06750523450884" rx="5" ry="5" fill="white" />
    <rect width="8" height="65.60250726861656" x="491" y="167.1987463656917" rx="5" ry="5" fill="white" />
    <rect width="8" height="56.84626570829818" x="501" y="171.5768671458509" rx="5" ry="5" fill="white" />
    <rect width="8" height="63.25355537755492" x="511" y="168.37322231122255" rx="5" ry="5" fill="white" />
    <rect width="8" height="51.83438533377968" x="521" y="174.08280733311017" rx="5" ry="5" fill="white" />
    <rect width="8" height="61.34341929021403" x="531" y="169.328290354893" rx="5" ry="5" fill="white" />
    <rect width="8" height="36.535384302831645" x="541" y="181.73230784858418" rx="5" ry="5" fill="white" />
    <rect width="8" height="49.25003638042841" x="551" y="175.3749818097858" rx="5" ry="5" fill="white" />
    <rect width="8" height="30.08851134046166" x="561" y="184.95574432976917" rx="5" ry="5" fill="white" />
    <rect width="8" height="62.97271470118198" x="571" y="168.513642649409" rx="5" ry="5" fill="white" />
    <rect width="8" height="60.20694868683213" x="581" y="169.89652565658395" rx="5" ry="5" fill="white" />
    <rect width="8" height="72.05726250276778" x="591" y="163.9713687486161" rx="5" ry="5" fill="white" />
    <rect width="8" height="57.70172396069827" x="601" y="171.14913801965088" rx="5" ry="5" fill="white" />
    <rect width="8" height="71.81366907269575" x="611" y="164.09316546365213" rx="5" ry="5" fill="white" />
    <rect width="8" height="45.56881533047778" x="621" y="177.2155923347611" rx="5" ry="5" fill="white" />
    <rect width="8" height="74.53367998163372" x="631" y="162.73316000918314" rx="5" ry="5" fill="white" />
    <rect width="8" height="59.77092048104298" x="641" y="170.1145397594785" rx="5" ry="5" fill="white" />
    <rect width="8" height="60.71157206724689" x="651" y="169.64421396637655" rx="5" ry="5" fill="white" />
    <rect width="8" height="59.08028003712921" x="661" y="170.4598599814354" rx="5" ry="5" fill="white" />
    <rect width="8" height="51.49628635596224" x="671" y="174.25185682201888" rx="5" ry="5" fill="white" />
    <rect width="8" height="57.10605705451325" x="681" y="171.44697147274337" rx="5" ry="5" fill="white" />
    <rect width="8" height="57.80659903837135" x="691" y="171.09670048081432" rx="5" ry="5" fill="white" />
    <rect width="8" height="45.84357492320951" x="701" y="177.07821253839523" rx="5" ry="5" fill="white" />
    <rect width="8" height="56.77376709641288" x="711" y="171.61311645179356" rx="5" ry="5" fill="white" />
    <rect width="8" height="55.767460697558114" x="721" y="172.11626965122093" rx="5" ry="5" fill="white" />
    <rect width="8" height="60.38752937098221" x="731" y="169.8062353145089" rx="5" ry="5" fill="white" />
    <rect width="8" height="55.92459943919914" x="741" y="172.03770028040043" rx="5" ry="5" fill="white" />
    <rect width="8" height="63.378288208282626" x="751" y="168.31085589585868" rx="5" ry="5" fill="white" />
    <rect width="8" height="53.25811478180614" x="761" y="173.37094260909691" rx="5" ry="5" fill="white" />
    <rect width="8" height="70.07370297437416" x="771" y="164.96314851281292" rx="5" ry="5" fill="white" />
    <rect width="8" height="49.35541494964486" x="781" y="175.32229252517757" rx="5" ry="5" fill="white" />
    <rect width="8" height="62.99160089739875" x="791" y="168.50419955130062" rx="5" ry="5" fill="white" />
    <rect width="8" height="50.20754313413078" x="801" y="174.8962284329346" rx="5" ry="5" fill="white" />
    <rect width="8" height="71.11770104260118" x="811" y="164.4411494786994" rx="5" ry="5" fill="white" />
    <rect width="8" height="49.75758350462981" x="821" y="175.1212082476851" rx="5" ry="5" fill="white" />
    <rect width="8" height="71.12153214778274" x="831" y="164.4392339261086" rx="5" ry="5" fill="white" />
    <rect width="8" height="48.66073024853916" x="841" y="175.66963487573042" rx="5" ry="5" fill="white" />
    <rect width="8" height="46.38375661559834" x="851" y="176.80812169220084" rx="5" ry="5" fill="white" />
    <rect width="8" height="57.6806663794016" x="861" y="171.1596668102992" rx="5" ry="5" fill="white" />
    <rect width="8" height="54.26361605431417" x="871" y="172.8681919728429" rx="5" ry="5" fill="white" />
    <rect width="8" height="57.19235925991464" x="881" y="171.4038203700427" rx="5" ry="5" fill="white" />
    <rect width="8" height="61.76533327436741" x="891" y="169.11733336281628" rx="5" ry="5" fill="white" />
    <rect width="8" height="52.8706714167539" x="901" y="173.56466429162305" rx="5" ry="5" fill="white" />
    <rect width="8" height="59.437619555608165" x="911" y="170.2811902221959" rx="5" ry="5" fill="white" />
    <rect width="8" height="48.35893879173472" x="921" y="175.82053060413264" rx="5" ry="5" fill="white" />
    <rect width="8" height="56.19107614591928" x="931" y="171.90446192704036" rx="5" ry="5" fill="white" />
    <rect width="8" height="41.31726308932498" x="941" y="179.34136845533752" rx="5" ry="5" fill="white" />
    <rect width="8" height="69.87982342485208" x="951" y="165.06008828757396" rx="5" ry="5" fill="white" />
    <rect width="8" height="64.7663911905648" x="961" y="167.61680440471758" rx="5" ry="5" fill="white" />
    <rect width="8" height="75.62070870154031" x="971" y="162.18964564922985" rx="5" ry="5" fill="white" />
    <rect width="8" height="55.728073799111144" x="981" y="172.13596310044443" rx="5" ry="5" fill="white" />
    <rect width="8" height="65.79372301240572" x="991" y="167.10313849379713" rx="5" ry="5" fill="white" />
    <rect width="8" height="39.46813274327317" x="1001" y="180.26593362836343" rx="5" ry="5" fill="white" />
    <rect width="8" height="72.58624553807915" x="1011" y="163.70687723096043" rx="5" ry="5" fill="white" />
    <rect width="8" height="47.92655750762446" x="1021" y="176.03672124618777" rx="5" ry="5" fill="white" />
    <rect width="8" height="72.16321076256536" x="1031" y="163.91839461871731" rx="5" ry="5" fill="white" />
    <rect width="8" height="52.42773982668123" x="1041" y="173.7861300866594" rx="5" ry="5" fill="white" />
    <rect width="8" height="62.44796344842488" x="1051" y="168.77601827578755" rx="5" ry="5" fill="white" />
    <rect width="8" height="58.037240597761866" x="1061" y="170.98137970111907" rx="5" ry="5" fill="white" />
    <rect width="8" height="56.58244863424989" x="1071" y="171.70877568287506" rx="5" ry="5" fill="white" />
    <rect width="8" height="49.119118966575805" x="1081" y="175.4404405167121" rx="5" ry="5" fill="white" />
    <rect width="8" height="51.82233337670764" x="1091" y="174.08883331164617" rx="5" ry="5" fill="white" />
    <rect width="8" height="55.941688787597386" x="1101" y="172.0291556062013" rx="5" ry="5" fill="white" />
    <rect width="8" height="66.85483376533321" x="1111" y="166.5725831173334" rx="5" ry="5" fill="white" />
    <rect width="8" height="54.98635730688749" x="1121" y="172.50682134655625" rx="5" ry="5" fill="white" />
    <rect width="8" height="68.09298159565603" x="1131" y="165.95350920217197" rx="5" ry="5" fill="white" />
    <rect width="8" height="45.822640571477194" x="1141" y="177.0886797142614" rx="5" ry="5" fill="white" />
    <rect width="8" height="64.94518186021143" x="1151" y="167.52740906989428" rx="5" ry="5" fill="white" />
    <rect width="8" height="54.6542056471589" x="1161" y="172.67289717642055" rx="5" ry="5" fill="white" />
    <rect width="8" height="62.9852895140218" x="1171" y="168.5073552429891" rx="5" ry="5" fill="white" />
    <rect width="8" height="42.30128477353745" x="1181" y="178.84935761323126" rx="5" ry="5" fill="white" />
    <rect width="8" height="65.87752837564953" x="1191" y="167.06123581217523" rx="5" ry="5" fill="white" />
    <rect width="8" height="48.87469931054597" x="1201" y="175.56265034472702" rx="5" ry="5" fill="white" />
    <rect width="8" height="75.17788763622984" x="1211" y="162.41105618188507" rx="5" ry="5" fill="white" />
    <rect width="8" height="62.06104611462674" x="1221" y="168.96947694268664" rx="5" ry="5" fill="white" />
    <rect width="8" height="73.29424204190121" x="1231" y="163.3528789790494" rx="5" ry="5" fill="white" />
    <rect width="8" height="66.37248756712142" x="1241" y="166.8137562164393" rx="5" ry="5" fill="white" />
    <rect width="8" height="46.3508103086172" x="1251" y="176.8245948456914" rx="5" ry="5" fill="white" />
    <rect width="8" height="49.85186750164111" x="1261" y="175.07406624917945" rx="5" ry="5" fill="white" />
    <rect width="8" height="47.29991044881641" x="1271" y="176.35004477559178" rx="5" ry="5" fill="white" />
    <rect width="8" height="40.52870867506574" x="1281" y="179.73564566246714" rx="5" ry="5" fill="white" />
    <rect width="8" height="61.13019915792535" x="1291" y="169.43490042103733" rx="5" ry="5" fill="white" />
    <rect width="8" height="68.27496052737312" x="1301" y="165.86251973631343" rx="5" ry="5" fill="white" />
    <rect width="8" height="75.21904420528247" x="1311" y="162.39047789735878" rx="5" ry="5" fill="white" />
    <rect width="8" height="58.84841775097451" x="1321" y="170.57579112451273" rx="5" ry="5" fill="white" />
    <rect width="8" height="61.646798514721254" x="1331" y="169.17660074263938" rx="5" ry="5" fill="white" />
    <rect width="8" height="65.97600937473149" x="1341" y="167.01199531263427" rx="5" ry="5" fill="white" />
    <rect width="8" height="69.98763521674293" x="1351" y="165.00618239162853" rx="5" ry="5" fill="white" />
    <rect width="8" height="58.16179237186717" x="1361" y="170.9191038140664" rx="5" ry="5" fill="white" />
    <rect width="8" height="67.57207458019585" x="1371" y="166.2139627099021" rx="5" ry="5" fill="white" />
    <rect width="8" height="62.17350308656776" x="1381" y="168.91324845671613" rx="5" ry="5" fill="white" />
    <rect width="8" height="65.40313445880903" x="1391" y="167.29843277059547" rx="5" ry="5" fill="white" />
    <rect width="8" height="50.59188792879957" x="1401" y="174.70405603560022" rx="5" ry="5" fill="white" />
    <rect width="8" height="65.72574500249542" x="1411" y="167.1371274987523" rx="5" ry="5" fill="white" />
    <rect width="8" height="48.32939962046439" x="1421" y="175.8353001897678" rx="5" ry="5" fill="white" />
    <rect width="8" height="74.88819612830314" x="1431" y="162.55590193584842" rx="5" ry="5" fill="white" />
    <rect width="8" height="65.27726004444297" x="1441" y="167.3613699777785" rx="5" ry="5" fill="white" />
    <rect width="8" height="63.079223797861125" x="1451" y="168.46038810106944" rx="5" ry="5" fill="white" />
    <rect width="8" height="68.29525564135777" x="1461" y="165.85237217932112" rx="5" ry="5" fill="white" />
    <rect width="8" height="52.18505830774487" x="1471" y="173.90747084612758" rx="5" ry="5" fill="white" />
    <rect width="8" height="62.62805931375082" x="1481" y="168.68597034312458" rx="5" ry="5" fill="white" />
    <rect width="8" height="75.06097046386256" x="1491" y="162.46951476806873" rx="5" ry="5" fill="white" />
    <rect width="8" height="74.05247463107773" x="1501" y="162.97376268446112" rx="5" ry="5" fill="white" />
    <rect width="8" height="77.80704351567881" x="1511" y="161.0964782421606" rx="5" ry="5" fill="white" />
    <rect width="8" height="60.117812793820924" x="1521" y="169.94109360308954" rx="5" ry="5" fill="white" />
    <rect width="8" height="78.03221202099988" x="1531" y="160.98389398950007" rx="5" ry="5" fill="white" />
    <rect width="8" height="70.09438314692066" x="1541" y="164.95280842653966" rx="5" ry="5" fill="white" />
    <rect width="8" height="86.27182929670606" x="1551" y="156.86408535164696" rx="5" ry="5" fill="white" />
    <rect width="8" height="66.42190717906713" x="1561" y="166.78904641046643" rx="5" ry="5" fill="white" />
    <rect width="8" height="83.84510745235397" x="1571" y="158.077446273823" rx="5" ry="5" fill="white" />
    <rect width="8" height="81.05331895567596" x="1581" y="159.473340522162" rx="5" ry="5" fill="white" />
    <rect width="8" height="80.87035708584534" x="1591" y="159.56482145707733" rx="5" ry="5" fill="white" />
    <rect width="8" height="76.16956638460867" x="1601" y="161.91521680769566" rx="5" ry="5" fill="white" />
    <rect width="8" height="82.03195068287252" x="1611" y="158.98402465856373" rx="5" ry="5" fill="white" />
    <rect width="8" height="74.70139879501856" x="1621" y="162.6493006024907" rx="5" ry="5" fill="white" />
    <rect width="8" height="85.81984904187743" x="1631" y="157.09007547906128" rx="5" ry="5" fill="white" />
    <rect width="8" height="65.24422653565705" x="1641" y="167.37788673217148" rx="5" ry="5" fill="white" />
    <rect width="8" height="55.43312213201109" x="1651" y="172.28343893399446" rx="5" ry="5" fill="white" />
    <rect width="8" height="58.03227758093341" x="1661" y="170.9838612095333" rx="5" ry="5" fill="white" />
    <rect width="8" height="58.95547080042706" x="1671" y="170.52226459978647" rx="5" ry="5" fill="white" />
    <rect width="8" height="60.21362435690503" x="1681" y="169.89318782154749" rx="5" ry="5" fill="white" />
    <rect width="8" height="63.399033936932014" x="1691" y="168.300483031534" rx="5" ry="5" fill="white" />
    <rect width="8" height="70.08793444088856" x="1701" y="164.95603277955573" rx="5" ry="5" fill="white" />
    <rect width="8" height="63.75949551264102" x="1711" y="168.1202522436795" rx="5" ry="5" fill="white" />
    <rect width="8" height="60.93933164547796" x="1721" y="169.530334177261" rx="5" ry="5" fill="white" />
    <rect width="8" height="67.15226453284093" x="1731" y="166.42386773357953" rx="5" ry="5" fill="white" />
    <rect width="8" height="61.14757417230362" x="1741" y="169.4262129138482" rx="5" ry="5" fill="white" />
    <rect width="8" height="70.10658636602561" x="1751" y="164.9467068169872" rx="5" ry="5" fill="white" />
    <rect width="8" height="54.61146508809338" x="1761" y="172.6942674559533" rx="5" ry="5" fill="white" />
    <rect width="8" height="70.33962382870898" x="1771" y="164.83018808564552" rx="5" ry="5" fill="white" />
    <rect width="8" height="58.37056016610291" x="1781" y="170.81471991694855" rx="5" ry="5" fill="white" />
    <rect width="8" height="81.32119630517029" x="1791" y="159.33940184741485" rx="5" ry="5" fill="white" />
    <rect width="8" height="60.753564219632295" x="1801" y="169.62321789018387" rx="5" ry="5" fill="white" />
    <rect width="8" height="76.43627347147105" x="1811" y="161.78186326426447" rx="5" ry="5" fill="white" />
    <rect width="8" height="65.86693483285615" x="1821" y="167.06653258357193" rx="5" ry="5" fill="white" />
    <rect width="8" height="80.46580416767726" x="1831" y="159.76709791616136" rx="5" ry="5" fill="white" />
    <rect width="8" height="53.799811749826034" x="1841" y="173.10009412508697" rx="5" ry="5" fill="white" />
    <rect width="8" height="61.39556391276428" x="1851" y="169.30221804361787" rx="5" ry="5" fill="white" />
    <rect width="8" height="55.92501999123755" x="1861" y="172.03749000438123" rx="5" ry="5" fill="white" />
    <rect width="8" height="62.08222111072191" x="1871" y="168.95888944463906" rx="5" ry="5" fill="white" />
    <rect width="8" height="64.42291826766964" x="1881" y="167.7885408661652" rx="5" ry="5" fill="white" />
    <rect width="8" height="59.129031014454824" x="1891" y="170.4354844927726" rx="5" ry="5" fill="white" />
    <rect width="8" height="62.97648917981883" x="1901" y="168.5117554100906" rx="5" ry="5" fill="white" />
    <rect width="8" height="74.02890462027987" x="1911" y="162.98554768986006" rx="5" ry="5" fill="white" />
    <rect width="8" height="65.33939697515108" x="1921" y="167.33030151242446" rx="5" ry="5" fill="white" />
    <rect width="8" height="78.08732763688283" x="1931" y="160.95633618155858" rx="5" ry="5" fill="white" />
    <rect width="8" height="62.29347082690177" x="1941" y="168.85326458654913" rx="5" ry="5" fill="white" />
    <rect width="8" height="63.900175691623794" x="1951" y="168.0499121541881" rx="5" ry="5" fill="white" />
    <rect width="8" height="41.05746457637605" x="1961" y="179.47126771181198" rx="5" ry="5" fill="white" />
    <rect width="8" height="55.433049488221066" x="1971" y="172.28347525588947" rx="5" ry="5" fill="white" />
    <rect width="8" height="31.15010172719732" x="1981" y="184.42494913640135" rx="5" ry="5" fill="white" />
    <rect width="8" height="60.40161660462889" x="1991" y="169.79919169768556" rx="5" ry="5" fill="white" />
  </g>
</svg>