<svg 
  baseProfile="tiny"
  preserveAspectRatio="keep"
  version="1.2"
  viewBox="0 0 2000.000000 400.000000"
  height="100%" width="100%"
  xmlns="http://www.w3.org/2000/svg"
  xmlns:ev="http://www.w3.org/2001/xml-events"
  xmlns:xlink="http://www.w3.org/1999/xlink"
>
  <g>
    <rect width="8" height="29.89818166001797" x="1" y="185.05090916999103" rx="5" ry="5" fill="white" />
    <rect width="8" height="48.715631619699664" x="11" y="175.64218419015018" rx="5" ry="5" fill="white" />
    <rect width="8" height="40.23867169306345" x="21" y="179.88066415346827" rx="5" ry="5" fill="white" />
    <rect width="8" height="37.075670045270456" x="31" y="181.46216497736478" rx="5" ry="5" fill="white" />
    <rect width="8" height="31.555375165488837" x="41" y="184.22231241725558" rx="5" ry="5" fill="white" />
    <rect width="8" height="34.585494561675375" x="51" y="182.7072527191623" rx="5" ry="5" fill="white" />
    <rect width="8" height="28.28802376831094" x="61" y="185.85598811584453" rx="5" ry="5" fill="white" />
    <rect width="8" height="37.849969434662405" x="71" y="181.0750152826688" rx="5" ry="5" fill="white" />
    <rect width="8" height="39.573360547021416" x="81" y="180.2133197264893" rx="5" ry="5" fill="white" />
    <rect width="8" height="34.70704212766933" x="91" y="182.64647893616532" rx="5" ry="5" fill="white" />
    <rect width="8" height="32.9938741719824" x="101" y="183.5030629140088" rx="5" ry="5" fill="white" />
    <rect width="8" height="47.114352926982974" x="111" y="176.4428235365085" rx="5" ry="5" fill="white" />
    <rect width="8" height="33.670240529480175" x="121" y="183.16487973525992" rx="5" ry="5" fill="white" />
    <rect width="8" height="45.60725587343226" x="131" y="177.19637206328386" rx="5" ry="5" fill="white" />
    <rect width="8" height="45.58156758472023" x="141" y="177.20921620763988" rx="5" ry="5" fill="white" />
    <rect width="8" height="56.14649784649974" x="151" y="171.92675107675012" rx="5" ry="5" fill="white" />
    <rect width="8" height="54.14343607918022" x="161" y="172.9282819604099" rx="5" ry="5" fill="white" />
    <rect width="8" height="59.938374608500844" x="171" y="170.03081269574957" rx="5" ry="5" fill="white" />
    <rect width="8" height="60.489011907008305" x="181" y="169.75549404649584" rx="5" ry="5" fill="white" />
    <rect width="8" height="54.16807948044195" x="191" y="172.915960259779" rx="5" ry="5" fill="white" />
    <rect width="8" height="64.72329065520796" x="201" y="167.63835467239602" rx="5" ry="5" fill="white" />
    <rect width="8" height="62.97021490872397" x="211" y="168.51489254563802" rx="5" ry="5" fill="white" />
    <rect width="8" height="79.25983546259332" x="221" y="160.37008226870336" rx="5" ry="5" fill="white" />
    <rect width="8" height="87.314511794184" x="231" y="156.342744102908" rx="5" ry="5" fill="white" />
    <rect width="8" height="80.33757986290269" x="241" y="159.83121006854867" rx="5" ry="5" fill="white" />
    <rect width="8" height="78.25835684124895" x="251" y="160.87082157937553" rx="5" ry="5" fill="white" />
    <rect width="8" height="67.60958568247837" x="261" y="166.1952071587608" rx="5" ry="5" fill="white" />
    <rect width="8" height="75.1320749632922" x="271" y="162.4339625183539" rx="5" ry="5" fill="white" />
    <rect width="8" height="75.29083984198502" x="281" y="162.3545800790075" rx="5" ry="5" fill="white" />
    <rect width="8" height="88.92845803991307" x="291" y="155.53577098004348" rx="5" ry="5" fill="white" />
    <rect width="8" height="87.17448695541454" x="301" y="156.41275652229274" rx="5" ry="5" fill="white" />
    <rect width="8" height="75.09317115375815" x="311" y="162.45341442312093" rx="5" ry="5" fill="white" />
    <rect width="8" height="92.05159079635635" x="321" y="153.97420460182184" rx="5" ry="5" fill="white" />
    <rect width="8" height="68.26941055065858" x="331" y="165.86529472467072" rx="5" ry="5" fill="white" />
    <rect width="8" height="70.23316040114412" x="341" y="164.88341979942794" rx="5" ry="5" fill="white" />
    <rect width="8" height="79.80929618373113" x="351" y="160.09535190813443" rx="5" ry="5" fill="white" />
    <rect width="8" height="85.57346104666675" x="361" y="157.21326947666662" rx="5" ry="5" fill="white" />
    <rect width="8" height="95.6730089501311" x="371" y="152.16349552493443" rx="5" ry="5" fill="white" />
    <rect width="8" height="100.11095459025086" x="381" y="149.94452270487457" rx="5" ry="5" fill="white" />
    <rect width="8" height="116.92483221926504" x="391" y="141.53758389036747" rx="5" ry="5" fill="white" />
    <rect width="8" height="107.1459188808046" x="401" y="146.42704055959769" rx="5" ry="5" fill="white" />
    <rect width="8" height="101.93470291091464" x="411" y="149.03264854454267" rx="5" ry="5" fill="white" />
    <rect width="8" height="95.79115495187366" x="421" y="152.10442252406318" rx="5" ry="5" fill="white" />
    <rect width="8" height="103.84590965156433" x="431" y="148.07704517421783" rx="5" ry="5" fill="white" />
    <rect width="8" height="100.57979758986338" x="441" y="149.71010120506833" rx="5" ry="5" fill="white" />
    <rect width="8" height="108.01517341891812" x="451" y="145.99241329054092" rx="5" ry="5" fill="white" />
    <rect width="8" height="118.66584558627697" x="461" y="140.6670772068615" rx="5" ry="5" fill="white" />
    <rect width="8" height="90.36951158127607" x="471" y="154.81524420936196" rx="5" ry="5" fill="white" />
    <rect width="8" height="94.40462623565688" x="481" y="152.79768688217155" rx="5" ry="5" fill="white" />
    <rect width="8" height="88.33489737945425" x="491" y="155.8325513102729" rx="5" ry="5" fill="white" />
    <rect width="8" height="99.03698361690928" x="501" y="150.48150819154534" rx="5" ry="5" fill="white" />
    <rect width="8" height="103.09155808673465" x="511" y="148.45422095663267" rx="5" ry="5" fill="white" />
    <rect width="8" height="116.4650458095514" x="521" y="141.7674770952243" rx="5" ry="5" fill="white" />
    <rect width="8" height="93.882822292488" x="531" y="153.058588853756" rx="5" ry="5" fill="white" />
    <rect width="8" height="92.15620957944455" x="541" y="153.92189521027774" rx="5" ry="5" fill="white" />
    <rect width="8" height="68.09461652050229" x="551" y="165.95269173974884" rx="5" ry="5" fill="white" />
    <rect width="8" height="87.01090963187704" x="561" y="156.49454518406148" rx="5" ry="5" fill="white" />
    <rect width="8" height="93.69749369878726" x="571" y="153.15125315060638" rx="5" ry="5" fill="white" />
    <rect width="8" height="109.84370799869454" x="581" y="145.07814600065274" rx="5" ry="5" fill="white" />
    <rect width="8" height="96.06156807661696" x="591" y="151.96921596169153" rx="5" ry="5" fill="white" />
    <rect width="8" height="106.98469061042388" x="601" y="146.50765469478807" rx="5" ry="5" fill="white" />
    <rect width="8" height="81.36336231607874" x="611" y="159.31831884196063" rx="5" ry="5" fill="white" />
    <rect width="8" height="89.28810350556769" x="621" y="155.35594824721616" rx="5" ry="5" fill="white" />
    <rect width="8" height="90.17851229683266" x="631" y="154.91074385158367" rx="5" ry="5" fill="white" />
    <rect width="8" height="113.43672521498387" x="641" y="143.28163739250806" rx="5" ry="5" fill="white" />
    <rect width="8" height="98.1899056035675" x="651" y="150.90504719821627" rx="5" ry="5" fill="white" />
    <rect width="8" height="93.88500598950937" x="661" y="153.05749700524532" rx="5" ry="5" fill="white" />
    <rect width="8" height="91.66467002178649" x="671" y="154.16766498910675" rx="5" ry="5" fill="white" />
    <rect width="8" height="88.78564426531719" x="681" y="155.60717786734142" rx="5" ry="5" fill="white" />
    <rect width="8" height="70.26473843829064" x="691" y="164.86763078085468" rx="5" ry="5" fill="white" />
    <rect width="8" height="66.38418536953158" x="701" y="166.80790731523422" rx="5" ry="5" fill="white" />
    <rect width="8" height="85.67377681762652" x="711" y="157.16311159118675" rx="5" ry="5" fill="white" />
    <rect width="8" height="94.71777510302337" x="721" y="152.64111244848831" rx="5" ry="5" fill="white" />
    <rect width="8" height="105.44043726259795" x="731" y="147.27978136870104" rx="5" ry="5" fill="white" />
    <rect width="8" height="103.46383557581053" x="741" y="148.26808221209473" rx="5" ry="5" fill="white" />
    <rect width="8" height="91.56647198717066" x="751" y="154.21676400641468" rx="5" ry="5" fill="white" />
    <rect width="8" height="91.09361634818573" x="761" y="154.45319182590714" rx="5" ry="5" fill="white" />
    <rect width="8" height="112.80140373501486" x="771" y="143.59929813249258" rx="5" ry="5" fill="white" />
    <rect width="8" height="93.8403745588273" x="781" y="153.07981272058635" rx="5" ry="5" fill="white" />
    <rect width="8" height="95.38302596564363" x="791" y="152.30848701717818" rx="5" ry="5" fill="white" />
    <rect width="8" height="86.33147251205556" x="801" y="156.83426374397223" rx="5" ry="5" fill="white" />
    <rect width="8" height="94.66873342279347" x="811" y="152.66563328860326" rx="5" ry="5" fill="white" />
    <rect width="8" height="96.65131243131937" x="821" y="151.67434378434032" rx="5" ry="5" fill="white" />
    <rect width="8" height="108.88502158183364" x="831" y="145.55748920908317" rx="5" ry="5" fill="white" />
    <rect width="8" height="86.5379991945339" x="841" y="156.73100040273306" rx="5" ry="5" fill="white" />
    <rect width="8" height="87.26084160074726" x="851" y="156.36957919962637" rx="5" ry="5" fill="white" />
    <rect width="8" height="82.37863873332904" x="861" y="158.8106806333355" rx="5" ry="5" fill="white" />
    <rect width="8" height="87.18458175381336" x="871" y="156.40770912309333" rx="5" ry="5" fill="white" />
    <rect width="8" height="81.43467013206322" x="881" y="159.2826649339684" rx="5" ry="5" fill="white" />
    <rect width="8" height="97.06377523746626" x="891" y="151.46811238126688" rx="5" ry="5" fill="white" />
    <rect width="8" height="104.1547864609156" x="901" y="147.9226067695422" rx="5" ry="5" fill="white" />
    <rect width="8" height="94.2996704952478" x="911" y="152.8501647523761" rx="5" ry="5" fill="white" />
    <rect width="8" height="91.58197804628311" x="921" y="154.20901097685845" rx="5" ry="5" fill="white" />
    <rect width="8" height="95.4483575556718" x="931" y="152.2758212221641" rx="5" ry="5" fill="white" />
    <rect width="8" height="94.47155860043284" x="941" y="152.76422069978358" rx="5" ry="5" fill="white" />
    <rect width="8" height="113.17967324715141" x="951" y="143.4101633764243" rx="5" ry="5" fill="white" />
    <rect width="8" height="114.80698663547551" x="961" y="142.59650668226226" rx="5" ry="5" fill="white" />
    <rect width="8" height="98.67242599349593" x="971" y="150.66378700325203" rx="5" ry="5" fill="white" />
    <rect width="8" height="106.23480078008154" x="981" y="146.88259960995924" rx="5" ry="5" fill="white" />
    <rect width="8" height="106.00523682659649" x="991" y="146.99738158670175" rx="5" ry="5" fill="white" />
    <rect width="8" height="104.33105833359568" x="1001" y="147.83447083320215" rx="5" ry="5" fill="white" />
    <rect width="8" height="103.05992025058333" x="1011" y="148.47003987470833" rx="5" ry="5" fill="white" />
    <rect width="8" height="113.98581097135593" x="1021" y="143.00709451432203" rx="5" ry="5" fill="white" />
    <rect width="8" height="90.24315306735787" x="1031" y="154.87842346632107" rx="5" ry="5" fill="white" />
    <rect width="8" height="92.26530801738035" x="1041" y="153.86734599130983" rx="5" ry="5" fill="white" />
    <rect width="8" height="93.15796670065004" x="1051" y="153.42101664967498" rx="5" ry="5" fill="white" />
    <rect width="8" height="98.43412643364566" x="1061" y="150.78293678317718" rx="5" ry="5" fill="white" />
    <rect width="8" height="102.86072172859522" x="1071" y="148.5696391357024" rx="5" ry="5" fill="white" />
    <rect width="8" height="113.47877149142104" x="1081" y="143.26061425428946" rx="5" ry="5" fill="white" />
    <rect width="8" height="98.27025267584857" x="1091" y="150.86487366207572" rx="5" ry="5" fill="white" />
    <rect width="8" height="91.03100169246882" x="1101" y="154.4844991537656" rx="5" ry="5" fill="white" />
    <rect width="8" height="85.10473919652473" x="1111" y="157.44763040173763" rx="5" ry="5" fill="white" />
    <rect width="8" height="104.17012546239921" x="1121" y="147.9149372688004" rx="5" ry="5" fill="white" />
    <rect width="8" height="102.87504663640232" x="1131" y="148.56247668179884" rx="5" ry="5" fill="white" />
    <rect width="8" height="113.44999388825978" x="1141" y="143.27500305587012" rx="5" ry="5" fill="white" />
    <rect width="8" height="120.7758561371999" x="1151" y="139.61207193140007" rx="5" ry="5" fill="white" />
    <rect width="8" height="91.92262822693021" x="1161" y="154.0386858865349" rx="5" ry="5" fill="white" />
    <rect width="8" height="97.0399470343023" x="1171" y="151.48002648284884" rx="5" ry="5" fill="white" />
    <rect width="8" height="93.20322416791967" x="1181" y="153.39838791604018" rx="5" ry="5" fill="white" />
    <rect width="8" height="106.07709565578453" x="1191" y="146.96145217210773" rx="5" ry="5" fill="white" />
    <rect width="8" height="112.80558496182994" x="1201" y="143.59720751908503" rx="5" ry="5" fill="white" />
    <rect width="8" height="114.49122480706781" x="1211" y="142.7543875964661" rx="5" ry="5" fill="white" />
    <rect width="8" height="97.33622065788047" x="1221" y="151.33188967105977" rx="5" ry="5" fill="white" />
    <rect width="8" height="99.24386932490185" x="1231" y="150.37806533754906" rx="5" ry="5" fill="white" />
    <rect width="8" height="94.20731262717513" x="1241" y="152.89634368641242" rx="5" ry="5" fill="white" />
    <rect width="8" height="96.07578261621363" x="1251" y="151.96210869189318" rx="5" ry="5" fill="white" />
    <rect width="8" height="111.51979132660408" x="1261" y="144.24010433669795" rx="5" ry="5" fill="white" />
    <rect width="8" height="119.08239750074902" x="1271" y="140.45880124962548" rx="5" ry="5" fill="white" />
    <rect width="8" height="99.31545042137466" x="1281" y="150.34227478931268" rx="5" ry="5" fill="white" />
    <rect width="8" height="108.81009729907237" x="1291" y="145.59495135046382" rx="5" ry="5" fill="white" />
    <rect width="8" height="82.72014150623028" x="1301" y="158.63992924688486" rx="5" ry="5" fill="white" />
    <rect width="8" height="93.62467906182823" x="1311" y="153.18766046908587" rx="5" ry="5" fill="white" />
    <rect width="8" height="92.42655658482856" x="1321" y="153.7867217075857" rx="5" ry="5" fill="white" />
    <rect width="8" height="120.84310146177305" x="1331" y="139.5784492691135" rx="5" ry="5" fill="white" />
    <rect width="8" height="102.49720101443698" x="1341" y="148.7513994927815" rx="5" ry="5" fill="white" />
    <rect width="8" height="102.6644118358504" x="1351" y="148.6677940820748" rx="5" ry="5" fill="white" />
    <rect width="8" height="85.1670343252827" x="1361" y="157.41648283735864" rx="5" ry="5" fill="white" />
    <rect width="8" height="98.99966067328039" x="1371" y="150.5001696633598" rx="5" ry="5" fill="white" />
    <rect width="8" height="73.70989494889164" x="1381" y="163.14505252555418" rx="5" ry="5" fill="white" />
    <rect width="8" height="97.1443248731639" x="1391" y="151.42783756341805" rx="5" ry="5" fill="white" />
    <rect width="8" height="104.75627065453277" x="1401" y="147.6218646727336" rx="5" ry="5" fill="white" />
    <rect width="8" height="99.9644397243257" x="1411" y="150.01778013783715" rx="5" ry="5" fill="white" />
    <rect width="8" height="98.15009265554453" x="1421" y="150.92495367222773" rx="5" ry="5" fill="white" />
    <rect width="8" height="100.72937586134513" x="1431" y="149.63531206932743" rx="5" ry="5" fill="white" />
    <rect width="8" height="93.8056529505242" x="1441" y="153.0971735247379" rx="5" ry="5" fill="white" />
    <rect width="8" height="111.27492349360126" x="1451" y="144.36253825319938" rx="5" ry="5" fill="white" />
    <rect width="8" height="111.61199748374962" x="1461" y="144.19400125812518" rx="5" ry="5" fill="white" />
    <rect width="8" height="105.35763052017897" x="1471" y="147.3211847399105" rx="5" ry="5" fill="white" />
    <rect width="8" height="97.15814029359464" x="1481" y="151.42092985320267" rx="5" ry="5" fill="white" />
    <rect width="8" height="97.86312766976063" x="1491" y="151.0684361651197" rx="5" ry="5" fill="white" />
    <rect width="8" height="92.26733202512185" x="1501" y="153.86633398743908" rx="5" ry="5" fill="white" />
    <rect width="8" height="98.0264872084235" x="1511" y="150.98675639578823" rx="5" ry="5" fill="white" />
    <rect width="8" height="110.35372521880913" x="1521" y="144.82313739059543" rx="5" ry="5" fill="white" />
    <rect width="8" height="99.0840744720196" x="1531" y="150.4579627639902" rx="5" ry="5" fill="white" />
    <rect width="8" height="104.30310487794576" x="1541" y="147.84844756102711" rx="5" ry="5" fill="white" />
    <rect width="8" height="92.47904191685643" x="1551" y="153.76047904157178" rx="5" ry="5" fill="white" />
    <rect width="8" height="96.07439959970992" x="1561" y="151.96280020014504" rx="5" ry="5" fill="white" />
    <rect width="8" height="94.38094183037802" x="1571" y="152.809529084811" rx="5" ry="5" fill="white" />
    <rect width="8" height="112.57794278676852" x="1581" y="143.71102860661574" rx="5" ry="5" fill="white" />
    <rect width="8" height="71.597746408843" x="1591" y="164.2011267955785" rx="5" ry="5" fill="white" />
    <rect width="8" height="74.25173319392357" x="1601" y="162.87413340303823" rx="5" ry="5" fill="white" />
    <rect width="8" height="86.0050252670836" x="1611" y="156.9974873664582" rx="5" ry="5" fill="white" />
    <rect width="8" height="74.18128687023165" x="1621" y="162.90935656488418" rx="5" ry="5" fill="white" />
    <rect width="8" height="78.86637413785621" x="1631" y="160.5668129310719" rx="5" ry="5" fill="white" />
    <rect width="8" height="68.04542110763026" x="1641" y="165.97728944618487" rx="5" ry="5" fill="white" />
    <rect width="8" height="86.14732614675344" x="1651" y="156.92633692662326" rx="5" ry="5" fill="white" />
    <rect width="8" height="63.62935580528204" x="1661" y="168.18532209735898" rx="5" ry="5" fill="white" />
    <rect width="8" height="87.68144185040455" x="1671" y="156.15927907479772" rx="5" ry="5" fill="white" />
    <rect width="8" height="55.30000713908632" x="1681" y="172.34999643045683" rx="5" ry="5" fill="white" />
    <rect width="8" height="69.8722867539099" x="1691" y="165.06385662304504" rx="5" ry="5" fill="white" />
    <rect width="8" height="61.261539564342606" x="1701" y="169.3692302178287" rx="5" ry="5" fill="white" />
    <rect width="8" height="76.89880563829773" x="1711" y="161.55059718085113" rx="5" ry="5" fill="white" />
    <rect width="8" height="80.5171747864728" x="1721" y="159.74141260676362" rx="5" ry="5" fill="white" />
    <rect width="8" height="71.75199651869515" x="1731" y="164.12400174065243" rx="5" ry="5" fill="white" />
    <rect width="8" height="94.30664751790113" x="1741" y="152.84667624104944" rx="5" ry="5" fill="white" />
    <rect width="8" height="66.1926892004701" x="1751" y="166.90365539976494" rx="5" ry="5" fill="white" />
    <rect width="8" height="71.93407693247981" x="1761" y="164.0329615337601" rx="5" ry="5" fill="white" />
    <rect width="8" height="84.14645657239053" x="1771" y="157.92677171380473" rx="5" ry="5" fill="white" />
    <rect width="8" height="66.42246439194248" x="1781" y="166.78876780402877" rx="5" ry="5" fill="white" />
    <rect width="8" height="100.81953858257586" x="1791" y="149.59023070871206" rx="5" ry="5" fill="white" />
    <rect width="8" height="77.11297354598928" x="1801" y="161.44351322700535" rx="5" ry="5" fill="white" />
    <rect width="8" height="82.03331005520918" x="1811" y="158.9833449723954" rx="5" ry="5" fill="white" />
    <rect width="8" height="53.46241592867569" x="1821" y="173.26879203566216" rx="5" ry="5" fill="white" />
    <rect width="8" height="62.0908919099239" x="1831" y="168.95455404503804" rx="5" ry="5" fill="white" />
    <rect width="8" height="77.08480006902131" x="1841" y="161.45759996548935" rx="5" ry="5" fill="white" />
    <rect width="8" height="69.20727311382112" x="1851" y="165.39636344308946" rx="5" ry="5" fill="white" />
    <rect width="8" height="82.2246874692817" x="1861" y="158.88765626535914" rx="5" ry="5" fill="white" />
    <rect width="8" height="54.3389929040203" x="1871" y="172.83050354798985" rx="5" ry="5" fill="white" />
    <rect width="8" height="69.88322782965909" x="1881" y="165.05838608517047" rx="5" ry="5" fill="white" />
    <rect width="8" height="61.244038119445236" x="1891" y="169.37798094027738" rx="5" ry="5" fill="white" />
    <rect width="8" height="41.389200315183686" x="1901" y="179.30539984240815" rx="5" ry="5" fill="white" />
    <rect width="8" height="69.6133876457476" x="1911" y="165.1933061771262" rx="5" ry="5" fill="white" />
    <rect width="8" height="38.34084392242728" x="1921" y="180.82957803878637" rx="5" ry="5" fill="white" />
    <rect width="8" height="25.3552330350009" x="1931" y="187.32238348249956" rx="5" ry="5" fill="white" />
    <rect width="8" height="37.02024692821377" x="1941" y="181.4898765358931" rx="5" ry="5" fill="white" />
    <rect width="8" height="31.02533700757837" x="1951" y="184.48733149621083" rx="5" ry="5" fill="white" />
    <rect width="8" height="21.705754962305093" x="1961" y="189.14712251884745" rx="5" ry="5" fill="white" />
    <rect width="8" height="22.696129085022367" x="1971" y="188.6519354574888" rx="5" ry="5" fill="white" />
    <rect width="8" height="24.867356225963224" x="1981" y="187.56632188701838" rx="5" ry="5" fill="white" />
    <rect width="8" height="14.083071461898664" x="1991" y="192.95846426905067" rx="5" ry="5" fill="white" />
  </g>
</svg>