<svg 
  baseProfile="tiny"
  preserveAspectRatio="keep"
  version="1.2"
  viewBox="0 0 2000.000000 400.000000"
  height="100%" width="100%"
  xmlns="http://www.w3.org/2000/svg"
  xmlns:ev="http://www.w3.org/2001/xml-events"
  xmlns:xlink="http://www.w3.org/1999/xlink"
>
  <g>
    <rect width="8" height="28.59452327612278" x="1" y="185.7027383619386" rx="5" ry="5" fill="white" />
    <rect width="8" height="27.38859673473112" x="11" y="186.30570163263445" rx="5" ry="5" fill="white" />
    <rect width="8" height="25.398338711893164" x="21" y="187.3008306440534" rx="5" ry="5" fill="white" />
    <rect width="8" height="24.620302972978056" x="31" y="187.68984851351098" rx="5" ry="5" fill="white" />
    <rect width="8" height="21.657699444350705" x="41" y="189.17115027782464" rx="5" ry="5" fill="white" />
    <rect width="8" height="41.960056609197125" x="51" y="179.01997169540144" rx="5" ry="5" fill="white" />
    <rect width="8" height="28.129270948788243" x="61" y="185.93536452560588" rx="5" ry="5" fill="white" />
    <rect width="8" height="53.919528268146266" x="71" y="173.04023586592686" rx="5" ry="5" fill="white" />
    <rect width="8" height="52.774954286143924" x="81" y="173.61252285692802" rx="5" ry="5" fill="white" />
    <rect width="8" height="50.91259669145229" x="91" y="174.54370165427386" rx="5" ry="5" fill="white" />
    <rect width="8" height="43.32666486719583" x="101" y="178.33666756640207" rx="5" ry="5" fill="white" />
    <rect width="8" height="37.20942203939073" x="111" y="181.39528898030463" rx="5" ry="5" fill="white" />
    <rect width="8" height="34.87803710203748" x="121" y="182.56098144898127" rx="5" ry="5" fill="white" />
    <rect width="8" height="50.086418653077445" x="131" y="174.95679067346128" rx="5" ry="5" fill="white" />
    <rect width="8" height="70.15725544601476" x="141" y="164.92137227699263" rx="5" ry="5" fill="white" />
    <rect width="8" height="58.02525430091296" x="151" y="170.98737284954353" rx="5" ry="5" fill="white" />
    <rect width="8" height="51.579133809918496" x="161" y="174.21043309504074" rx="5" ry="5" fill="white" />
    <rect width="8" height="42.25851965747335" x="171" y="178.87074017126332" rx="5" ry="5" fill="white" />
    <rect width="8" height="36.13347206025336" x="181" y="181.9332639698733" rx="5" ry="5" fill="white" />
    <rect width="8" height="50.34382929764975" x="191" y="174.82808535117513" rx="5" ry="5" fill="white" />
    <rect width="8" height="60.78807647544764" x="201" y="169.6059617622762" rx="5" ry="5" fill="white" />
    <rect width="8" height="69.36477261812732" x="211" y="165.31761369093635" rx="5" ry="5" fill="white" />
    <rect width="8" height="55.85088181027995" x="221" y="172.07455909486004" rx="5" ry="5" fill="white" />
    <rect width="8" height="51.239120666812376" x="231" y="174.38043966659382" rx="5" ry="5" fill="white" />
    <rect width="8" height="40.77008772569976" x="241" y="179.61495613715013" rx="5" ry="5" fill="white" />
    <rect width="8" height="38.50308259427022" x="251" y="180.7484587028649" rx="5" ry="5" fill="white" />
    <rect width="8" height="51.756023896894874" x="261" y="174.12198805155256" rx="5" ry="5" fill="white" />
    <rect width="8" height="63.85620379970075" x="271" y="168.0718981001496" rx="5" ry="5" fill="white" />
    <rect width="8" height="61.970866049043806" x="281" y="169.0145669754781" rx="5" ry="5" fill="white" />
    <rect width="8" height="50.19905632667251" x="291" y="174.90047183666374" rx="5" ry="5" fill="white" />
    <rect width="8" height="46.725220100294926" x="301" y="176.63738994985255" rx="5" ry="5" fill="white" />
    <rect width="8" height="47.34180984866612" x="311" y="176.32909507566694" rx="5" ry="5" fill="white" />
    <rect width="8" height="69.55968337243301" x="321" y="165.2201583137835" rx="5" ry="5" fill="white" />
    <rect width="8" height="33.18687415212519" x="331" y="183.4065629239374" rx="5" ry="5" fill="white" />
    <rect width="8" height="65.40633753424987" x="341" y="167.29683123287506" rx="5" ry="5" fill="white" />
    <rect width="8" height="55.442624150812314" x="351" y="172.27868792459384" rx="5" ry="5" fill="white" />
    <rect width="8" height="58.760675063569" x="361" y="170.6196624682155" rx="5" ry="5" fill="white" />
    <rect width="8" height="63.64091400071381" x="371" y="168.1795429996431" rx="5" ry="5" fill="white" />
    <rect width="8" height="66.01732747787995" x="381" y="166.99133626106004" rx="5" ry="5" fill="white" />
    <rect width="8" height="36.88351308613972" x="391" y="181.55824345693014" rx="5" ry="5" fill="white" />
    <rect width="8" height="49.22773521829124" x="401" y="175.38613239085439" rx="5" ry="5" fill="white" />
    <rect width="8" height="65.17128764832553" x="411" y="167.41435617583724" rx="5" ry="5" fill="white" />
    <rect width="8" height="53.249462368687695" x="421" y="173.37526881565614" rx="5" ry="5" fill="white" />
    <rect width="8" height="47.59942908186374" x="431" y="176.20028545906814" rx="5" ry="5" fill="white" />
    <rect width="8" height="44.11666331078611" x="441" y="177.94166834460694" rx="5" ry="5" fill="white" />
    <rect width="8" height="50.99174848896531" x="451" y="174.50412575551735" rx="5" ry="5" fill="white" />
    <rect width="8" height="66.15442157914224" x="461" y="166.92278921042887" rx="5" ry="5" fill="white" />
    <rect width="8" height="50.771120738563546" x="471" y="174.61443963071824" rx="5" ry="5" fill="white" />
    <rect width="8" height="53.680426681787495" x="481" y="173.15978665910626" rx="5" ry="5" fill="white" />
    <rect width="8" height="49.44403758908555" x="491" y="175.27798120545722" rx="5" ry="5" fill="white" />
    <rect width="8" height="54.33617811699941" x="501" y="172.8319109415003" rx="5" ry="5" fill="white" />
    <rect width="8" height="48.09862329712189" x="511" y="175.95068835143906" rx="5" ry="5" fill="white" />
    <rect width="8" height="44.66929338158561" x="521" y="177.6653533092072" rx="5" ry="5" fill="white" />
    <rect width="8" height="37.53103861567558" x="531" y="181.2344806921622" rx="5" ry="5" fill="white" />
    <rect width="8" height="36.243319829588714" x="541" y="181.87834008520565" rx="5" ry="5" fill="white" />
    <rect width="8" height="31.847548218521627" x="551" y="184.07622589073918" rx="5" ry="5" fill="white" />
    <rect width="8" height="32.74408195276092" x="561" y="183.62795902361955" rx="5" ry="5" fill="white" />
    <rect width="8" height="33.011776278024115" x="571" y="183.49411186098794" rx="5" ry="5" fill="white" />
    <rect width="8" height="35.37071247879804" x="581" y="182.31464376060097" rx="5" ry="5" fill="white" />
    <rect width="8" height="36.1497418027195" x="591" y="181.92512909864024" rx="5" ry="5" fill="white" />
    <rect width="8" height="31.971531157933963" x="601" y="184.01423442103302" rx="5" ry="5" fill="white" />
    <rect width="8" height="28.460626332566118" x="611" y="185.76968683371695" rx="5" ry="5" fill="white" />
    <rect width="8" height="37.67720098590559" x="621" y="181.1613995070472" rx="5" ry="5" fill="white" />
    <rect width="8" height="36.19639062696686" x="631" y="181.90180468651658" rx="5" ry="5" fill="white" />
    <rect width="8" height="38.355693820645776" x="641" y="180.8221530896771" rx="5" ry="5" fill="white" />
    <rect width="8" height="26.826974776187967" x="651" y="186.58651261190602" rx="5" ry="5" fill="white" />
    <rect width="8" height="24.883297613116223" x="661" y="187.5583511934419" rx="5" ry="5" fill="white" />
    <rect width="8" height="26.389641882757502" x="671" y="186.80517905862126" rx="5" ry="5" fill="white" />
    <rect width="8" height="26.64936036020711" x="681" y="186.67531981989646" rx="5" ry="5" fill="white" />
    <rect width="8" height="25.098804407930686" x="691" y="187.45059779603466" rx="5" ry="5" fill="white" />
    <rect width="8" height="29.430434758959706" x="701" y="185.28478262052016" rx="5" ry="5" fill="white" />
    <rect width="8" height="28.250108609383695" x="711" y="185.87494569530816" rx="5" ry="5" fill="white" />
    <rect width="8" height="28.253488070230954" x="721" y="185.87325596488452" rx="5" ry="5" fill="white" />
    <rect width="8" height="28.08644014337622" x="731" y="185.9567799283119" rx="5" ry="5" fill="white" />
    <rect width="8" height="28.687144826549243" x="741" y="185.65642758672539" rx="5" ry="5" fill="white" />
    <rect width="8" height="31.541782866614536" x="751" y="184.22910856669273" rx="5" ry="5" fill="white" />
    <rect width="8" height="40.72572744063684" x="761" y="179.63713627968158" rx="5" ry="5" fill="white" />
    <rect width="8" height="37.324326930315245" x="771" y="181.33783653484238" rx="5" ry="5" fill="white" />
    <rect width="8" height="36.97191810012742" x="781" y="181.5140409499363" rx="5" ry="5" fill="white" />
    <rect width="8" height="37.359570490097624" x="791" y="181.3202147549512" rx="5" ry="5" fill="white" />
    <rect width="8" height="36.915751135041624" x="801" y="181.5421244324792" rx="5" ry="5" fill="white" />
    <rect width="8" height="32.34148484521728" x="811" y="183.82925757739136" rx="5" ry="5" fill="white" />
    <rect width="8" height="34.69240855851592" x="821" y="182.65379572074204" rx="5" ry="5" fill="white" />
    <rect width="8" height="31.7327720196098" x="831" y="184.1336139901951" rx="5" ry="5" fill="white" />
    <rect width="8" height="36.378673279446986" x="841" y="181.81066336027652" rx="5" ry="5" fill="white" />
    <rect width="8" height="35.917628394718584" x="851" y="182.0411858026407" rx="5" ry="5" fill="white" />
    <rect width="8" height="39.035743748935786" x="861" y="180.4821281255321" rx="5" ry="5" fill="white" />
    <rect width="8" height="38.62090983706262" x="871" y="180.68954508146868" rx="5" ry="5" fill="white" />
    <rect width="8" height="31.09957784388432" x="881" y="184.45021107805783" rx="5" ry="5" fill="white" />
    <rect width="8" height="28.59840810516621" x="891" y="185.7007959474169" rx="5" ry="5" fill="white" />
    <rect width="8" height="32.91470188009008" x="901" y="183.54264905995495" rx="5" ry="5" fill="white" />
    <rect width="8" height="39.777594705919974" x="911" y="180.11120264704002" rx="5" ry="5" fill="white" />
    <rect width="8" height="40.104086634379755" x="921" y="179.94795668281012" rx="5" ry="5" fill="white" />
    <rect width="8" height="36.92502999909821" x="931" y="181.53748500045089" rx="5" ry="5" fill="white" />
    <rect width="8" height="41.33662033313176" x="941" y="179.33168983343413" rx="5" ry="5" fill="white" />
    <rect width="8" height="43.24148996298937" x="951" y="178.37925501850532" rx="5" ry="5" fill="white" />
    <rect width="8" height="40.72109325007242" x="961" y="179.63945337496378" rx="5" ry="5" fill="white" />
    <rect width="8" height="37.2477081799032" x="971" y="181.3761459100484" rx="5" ry="5" fill="white" />
    <rect width="8" height="36.57051579489977" x="981" y="181.7147421025501" rx="5" ry="5" fill="white" />
    <rect width="8" height="36.52275113729125" x="991" y="181.73862443135437" rx="5" ry="5" fill="white" />
    <rect width="8" height="30.689729229716207" x="1001" y="184.6551353851419" rx="5" ry="5" fill="white" />
    <rect width="8" height="29.789416444719137" x="1011" y="185.10529177764045" rx="5" ry="5" fill="white" />
    <rect width="8" height="28.79642368670463" x="1021" y="185.60178815664767" rx="5" ry="5" fill="white" />
    <rect width="8" height="28.357442542528577" x="1031" y="185.8212787287357" rx="5" ry="5" fill="white" />
    <rect width="8" height="24.20657268117086" x="1041" y="187.89671365941456" rx="5" ry="5" fill="white" />
    <rect width="8" height="23.88588461730756" x="1051" y="188.05705769134622" rx="5" ry="5" fill="white" />
    <rect width="8" height="21.68373854087085" x="1061" y="189.15813072956456" rx="5" ry="5" fill="white" />
    <rect width="8" height="23.36670030745237" x="1071" y="188.3166498462738" rx="5" ry="5" fill="white" />
    <rect width="8" height="18.81373128910338" x="1081" y="190.5931343554483" rx="5" ry="5" fill="white" />
    <rect width="8" height="36.29421754208386" x="1091" y="181.85289122895807" rx="5" ry="5" fill="white" />
    <rect width="8" height="34.63821577997786" x="1101" y="182.68089211001106" rx="5" ry="5" fill="white" />
    <rect width="8" height="48.56660896707751" x="1111" y="175.71669551646124" rx="5" ry="5" fill="white" />
    <rect width="8" height="43.07688752842604" x="1121" y="178.461556235787" rx="5" ry="5" fill="white" />
    <rect width="8" height="38.96366104307422" x="1131" y="180.51816947846288" rx="5" ry="5" fill="white" />
    <rect width="8" height="49.02071063310842" x="1141" y="175.4896446834458" rx="5" ry="5" fill="white" />
    <rect width="8" height="55.74098576842545" x="1151" y="172.12950711578728" rx="5" ry="5" fill="white" />
    <rect width="8" height="41.80251962699531" x="1161" y="179.09874018650234" rx="5" ry="5" fill="white" />
    <rect width="8" height="43.070681108744296" x="1171" y="178.46465944562786" rx="5" ry="5" fill="white" />
    <rect width="8" height="28.937413427502996" x="1181" y="185.5312932862485" rx="5" ry="5" fill="white" />
    <rect width="8" height="26.75757613261252" x="1191" y="186.62121193369373" rx="5" ry="5" fill="white" />
    <rect width="8" height="29.961633799668512" x="1201" y="185.01918310016575" rx="5" ry="5" fill="white" />
    <rect width="8" height="29.550866368320904" x="1211" y="185.22456681583955" rx="5" ry="5" fill="white" />
    <rect width="8" height="25.367624816537514" x="1221" y="187.31618759173125" rx="5" ry="5" fill="white" />
    <rect width="8" height="22.152667211602406" x="1231" y="188.9236663941988" rx="5" ry="5" fill="white" />
    <rect width="8" height="18.63765440030801" x="1241" y="190.681172799846" rx="5" ry="5" fill="white" />
    <rect width="8" height="15.648128222269975" x="1251" y="192.175935888865" rx="5" ry="5" fill="white" />
    <rect width="8" height="14.871480010299686" x="1261" y="192.56425999485015" rx="5" ry="5" fill="white" />
    <rect width="8" height="14.191132388031555" x="1271" y="192.9044338059842" rx="5" ry="5" fill="white" />
    <rect width="8" height="15.44682181030987" x="1281" y="192.27658909484506" rx="5" ry="5" fill="white" />
    <rect width="8" height="15.33912292747725" x="1291" y="192.33043853626137" rx="5" ry="5" fill="white" />
    <rect width="8" height="14.979372691876414" x="1301" y="192.5103136540618" rx="5" ry="5" fill="white" />
    <rect width="8" height="13.579976976097493" x="1311" y="193.21001151195125" rx="5" ry="5" fill="white" />
    <rect width="8" height="12.66728045560584" x="1321" y="193.66635977219707" rx="5" ry="5" fill="white" />
    <rect width="8" height="35.522574794473286" x="1331" y="182.23871260276337" rx="5" ry="5" fill="white" />
    <rect width="8" height="32.37838847480103" x="1341" y="183.8108057625995" rx="5" ry="5" fill="white" />
    <rect width="8" height="34.18232060050186" x="1351" y="182.90883969974908" rx="5" ry="5" fill="white" />
    <rect width="8" height="30.207254377209843" x="1361" y="184.89637281139508" rx="5" ry="5" fill="white" />
    <rect width="8" height="33.7308858271763" x="1371" y="183.13455708641186" rx="5" ry="5" fill="white" />
    <rect width="8" height="31.572401213580186" x="1381" y="184.2137993932099" rx="5" ry="5" fill="white" />
    <rect width="8" height="34.56479330834575" x="1391" y="182.71760334582711" rx="5" ry="5" fill="white" />
    <rect width="8" height="27.245610137268635" x="1401" y="186.3771949313657" rx="5" ry="5" fill="white" />
    <rect width="8" height="24.283320614622887" x="1411" y="187.85833969268856" rx="5" ry="5" fill="white" />
    <rect width="8" height="28.795789753705396" x="1421" y="185.6021051231473" rx="5" ry="5" fill="white" />
    <rect width="8" height="17.314632958099725" x="1431" y="191.34268352095015" rx="5" ry="5" fill="white" />
    <rect width="8" height="16.196240498492482" x="1441" y="191.90187975075375" rx="5" ry="5" fill="white" />
    <rect width="8" height="14.935631412480724" x="1451" y="192.53218429375963" rx="5" ry="5" fill="white" />
    <rect width="8" height="12.729989222846786" x="1461" y="193.63500538857662" rx="5" ry="5" fill="white" />
    <rect width="8" height="11.131920430831524" x="1471" y="194.43403978458423" rx="5" ry="5" fill="white" />
    <rect width="8" height="12.087436376219562" x="1481" y="193.95628181189022" rx="5" ry="5" fill="white" />
    <rect width="8" height="10.103708555453348" x="1491" y="194.94814572227332" rx="5" ry="5" fill="white" />
    <rect width="8" height="10.167460410318895" x="1501" y="194.91626979484056" rx="5" ry="5" fill="white" />
    <rect width="8" height="11.663288194083966" x="1511" y="194.168355902958" rx="5" ry="5" fill="white" />
    <rect width="8" height="32.62362023406462" x="1521" y="183.6881898829677" rx="5" ry="5" fill="white" />
    <rect width="8" height="31.65669813226735" x="1531" y="184.17165093386632" rx="5" ry="5" fill="white" />
    <rect width="8" height="37.97966457166198" x="1541" y="181.010167714169" rx="5" ry="5" fill="white" />
    <rect width="8" height="38.25105695000819" x="1551" y="180.8744715249959" rx="5" ry="5" fill="white" />
    <rect width="8" height="43.49868357710928" x="1561" y="178.25065821144537" rx="5" ry="5" fill="white" />
    <rect width="8" height="39.959162467127626" x="1571" y="180.0204187664362" rx="5" ry="5" fill="white" />
    <rect width="8" height="34.36898118845376" x="1581" y="182.81550940577313" rx="5" ry="5" fill="white" />
    <rect width="8" height="36.58521903888735" x="1591" y="181.7073904805563" rx="5" ry="5" fill="white" />
    <rect width="8" height="36.246965403961354" x="1601" y="181.87651729801934" rx="5" ry="5" fill="white" />
    <rect width="8" height="28.874895103079307" x="1611" y="185.56255244846034" rx="5" ry="5" fill="white" />
    <rect width="8" height="24.814336915980704" x="1621" y="187.59283154200966" rx="5" ry="5" fill="white" />
    <rect width="8" height="27.73352850402103" x="1631" y="186.1332357479895" rx="5" ry="5" fill="white" />
    <rect width="8" height="37.00693303354562" x="1641" y="181.49653348322718" rx="5" ry="5" fill="white" />
    <rect width="8" height="30.6252388673437" x="1651" y="184.68738056632816" rx="5" ry="5" fill="white" />
    <rect width="8" height="26.556048839488422" x="1661" y="186.7219755802558" rx="5" ry="5" fill="white" />
    <rect width="8" height="27.562136039341222" x="1671" y="186.2189319803294" rx="5" ry="5" fill="white" />
    <rect width="8" height="29.085918263345306" x="1681" y="185.45704086832734" rx="5" ry="5" fill="white" />
    <rect width="8" height="20.104571792450106" x="1691" y="189.94771410377496" rx="5" ry="5" fill="white" />
    <rect width="8" height="26.57351407148292" x="1701" y="186.71324296425854" rx="5" ry="5" fill="white" />
    <rect width="8" height="30.706992819621416" x="1711" y="184.6465035901893" rx="5" ry="5" fill="white" />
    <rect width="8" height="36.45828204520033" x="1721" y="181.77085897739983" rx="5" ry="5" fill="white" />
    <rect width="8" height="19.602917652934494" x="1731" y="190.19854117353276" rx="5" ry="5" fill="white" />
    <rect width="8" height="30.68416917472498" x="1741" y="184.65791541263752" rx="5" ry="5" fill="white" />
    <rect width="8" height="35.50837857962634" x="1751" y="182.24581071018684" rx="5" ry="5" fill="white" />
    <rect width="8" height="39.52896910247403" x="1761" y="180.23551544876298" rx="5" ry="5" fill="white" />
    <rect width="8" height="29.95030077157244" x="1771" y="185.0248496142138" rx="5" ry="5" fill="white" />
    <rect width="8" height="43.974512402794154" x="1781" y="178.0127437986029" rx="5" ry="5" fill="white" />
    <rect width="8" height="51.786749318759306" x="1791" y="174.10662534062035" rx="5" ry="5" fill="white" />
    <rect width="8" height="54.77747327170095" x="1801" y="172.61126336414952" rx="5" ry="5" fill="white" />
    <rect width="8" height="39.27155562531128" x="1811" y="180.36422218734435" rx="5" ry="5" fill="white" />
    <rect width="8" height="54.65762072735523" x="1821" y="172.6711896363224" rx="5" ry="5" fill="white" />
    <rect width="8" height="67.65508741548612" x="1831" y="166.17245629225692" rx="5" ry="5" fill="white" />
    <rect width="8" height="68.53089582020196" x="1841" y="165.734552089899" rx="5" ry="5" fill="white" />
    <rect width="8" height="69.110068186045" x="1851" y="165.4449659069775" rx="5" ry="5" fill="white" />
    <rect width="8" height="67.48477933627676" x="1861" y="166.25761033186163" rx="5" ry="5" fill="white" />
    <rect width="8" height="76.96227372560331" x="1871" y="161.51886313719834" rx="5" ry="5" fill="white" />
    <rect width="8" height="84.17990310944042" x="1881" y="157.91004844527978" rx="5" ry="5" fill="white" />
    <rect width="8" height="85.00759701872352" x="1891" y="157.49620149063824" rx="5" ry="5" fill="white" />
    <rect width="8" height="83.28811814611747" x="1901" y="158.35594092694126" rx="5" ry="5" fill="white" />
    <rect width="8" height="86.99984023075726" x="1911" y="156.50007988462136" rx="5" ry="5" fill="white" />
    <rect width="8" height="88.454018290272" x="1921" y="155.772990854864" rx="5" ry="5" fill="white" />
    <rect width="8" height="79.19156450030988" x="1931" y="160.40421774984506" rx="5" ry="5" fill="white" />
    <rect width="8" height="90.86167064699418" x="1941" y="154.5691646765029" rx="5" ry="5" fill="white" />
    <rect width="8" height="85.6778600746938" x="1951" y="157.1610699626531" rx="5" ry="5" fill="white" />
    <rect width="8" height="72.83770118744488" x="1961" y="163.58114940627758" rx="5" ry="5" fill="white" />
    <rect width="8" height="71.6563236486277" x="1971" y="164.17183817568616" rx="5" ry="5" fill="white" />
    <rect width="8" height="56.440744303381166" x="1981" y="171.77962784830942" rx="5" ry="5" fill="white" />
    <rect width="8" height="78.92991293215924" x="1991" y="160.53504353392037" rx="5" ry="5" fill="white" />
  </g>
</svg>