<svg 
  baseProfile="tiny"
  preserveAspectRatio="keep"
  version="1.2"
  viewBox="0 0 2000.000000 400.000000"
  height="100%" width="100%"
  xmlns="http://www.w3.org/2000/svg"
  xmlns:ev="http://www.w3.org/2001/xml-events"
  xmlns:xlink="http://www.w3.org/1999/xlink"
>
  <g>
    <rect width="8" height="91.05046116212165" x="1" y="154.47476941893916" rx="5" ry="5" fill="white" />
    <rect width="8" height="61.26218922121603" x="11" y="169.36890538939198" rx="5" ry="5" fill="white" />
    <rect width="8" height="94.16673599421117" x="21" y="152.9166320028944" rx="5" ry="5" fill="white" />
    <rect width="8" height="66.1045577852322" x="31" y="166.9477211073839" rx="5" ry="5" fill="white" />
    <rect width="8" height="78.85989480688895" x="41" y="160.5700525965555" rx="5" ry="5" fill="white" />
    <rect width="8" height="59.65566510330592" x="51" y="170.17216744834704" rx="5" ry="5" fill="white" />
    <rect width="8" height="69.21440436368927" x="61" y="165.39279781815537" rx="5" ry="5" fill="white" />
    <rect width="8" height="65.77174865778626" x="71" y="167.11412567110688" rx="5" ry="5" fill="white" />
    <rect width="8" height="72.36226111141455" x="81" y="163.81886944429272" rx="5" ry="5" fill="white" />
    <rect width="8" height="67.95585731572221" x="91" y="166.0220713421389" rx="5" ry="5" fill="white" />
    <rect width="8" height="76.63408960818533" x="101" y="161.68295519590734" rx="5" ry="5" fill="white" />
    <rect width="8" height="70.35961647120003" x="111" y="164.8201917644" rx="5" ry="5" fill="white" />
    <rect width="8" height="62.01621613164665" x="121" y="168.99189193417666" rx="5" ry="5" fill="white" />
    <rect width="8" height="64.21435996693147" x="131" y="167.89282001653427" rx="5" ry="5" fill="white" />
    <rect width="8" height="57.907649114031464" x="141" y="171.04617544298426" rx="5" ry="5" fill="white" />
    <rect width="8" height="85.07579300106592" x="151" y="157.46210349946705" rx="5" ry="5" fill="white" />
    <rect width="8" height="125.99893535912778" x="161" y="137.0005323204361" rx="5" ry="5" fill="white" />
    <rect width="8" height="130.6371509692654" x="171" y="134.6814245153673" rx="5" ry="5" fill="white" />
    <rect width="8" height="126.70764995955994" x="181" y="136.64617502022003" rx="5" ry="5" fill="white" />
    <rect width="8" height="124.37100866345065" x="191" y="137.81449566827467" rx="5" ry="5" fill="white" />
    <rect width="8" height="123.90604228562212" x="201" y="138.04697885718895" rx="5" ry="5" fill="white" />
    <rect width="8" height="124.95993378471384" x="211" y="137.5200331076431" rx="5" ry="5" fill="white" />
    <rect width="8" height="123.30781864587446" x="221" y="138.34609067706276" rx="5" ry="5" fill="white" />
    <rect width="8" height="125.03653150561324" x="231" y="137.48173424719337" rx="5" ry="5" fill="white" />
    <rect width="8" height="126.34695197847465" x="241" y="136.82652401076268" rx="5" ry="5" fill="white" />
    <rect width="8" height="128.6545267452749" x="251" y="135.67273662736255" rx="5" ry="5" fill="white" />
    <rect width="8" height="126.44772652640646" x="261" y="136.7761367367968" rx="5" ry="5" fill="white" />
    <rect width="8" height="123.1710333957943" x="271" y="138.41448330210284" rx="5" ry="5" fill="white" />
    <rect width="8" height="119.26085780185096" x="281" y="140.3695710990745" rx="5" ry="5" fill="white" />
    <rect width="8" height="122.4852797117996" x="291" y="138.7573601441002" rx="5" ry="5" fill="white" />
    <rect width="8" height="122.8218187898268" x="301" y="138.5890906050866" rx="5" ry="5" fill="white" />
    <rect width="8" height="123.35624320559492" x="311" y="138.32187839720254" rx="5" ry="5" fill="white" />
    <rect width="8" height="117.71425469811896" x="321" y="141.14287265094052" rx="5" ry="5" fill="white" />
    <rect width="8" height="117.39328589809213" x="331" y="141.30335705095393" rx="5" ry="5" fill="white" />
    <rect width="8" height="125.85102406846893" x="341" y="137.07448796576554" rx="5" ry="5" fill="white" />
    <rect width="8" height="127.29917240012271" x="351" y="136.35041379993865" rx="5" ry="5" fill="white" />
    <rect width="8" height="124.6490032292139" x="361" y="137.67549838539304" rx="5" ry="5" fill="white" />
    <rect width="8" height="126.65932245428617" x="371" y="136.67033877285692" rx="5" ry="5" fill="white" />
    <rect width="8" height="123.38387370411346" x="381" y="138.30806314794327" rx="5" ry="5" fill="white" />
    <rect width="8" height="123.58283576664546" x="391" y="138.20858211667726" rx="5" ry="5" fill="white" />
    <rect width="8" height="120.62875994744557" x="401" y="139.6856200262772" rx="5" ry="5" fill="white" />
    <rect width="8" height="127.8390550446216" x="411" y="136.0804724776892" rx="5" ry="5" fill="white" />
    <rect width="8" height="126.04321797848111" x="421" y="136.97839101075945" rx="5" ry="5" fill="white" />
    <rect width="8" height="127.4190910829127" x="431" y="136.29045445854365" rx="5" ry="5" fill="white" />
    <rect width="8" height="125.69288295716636" x="441" y="137.1535585214168" rx="5" ry="5" fill="white" />
    <rect width="8" height="119.41235080970569" x="451" y="140.29382459514716" rx="5" ry="5" fill="white" />
    <rect width="8" height="120.86613540490781" x="461" y="139.5669322975461" rx="5" ry="5" fill="white" />
    <rect width="8" height="123.8933389060618" x="471" y="138.0533305469691" rx="5" ry="5" fill="white" />
    <rect width="8" height="123.3326525072777" x="481" y="138.33367374636114" rx="5" ry="5" fill="white" />
    <rect width="8" height="128.30523389145444" x="491" y="135.84738305427277" rx="5" ry="5" fill="white" />
    <rect width="8" height="119.76517321431834" x="501" y="140.11741339284083" rx="5" ry="5" fill="white" />
    <rect width="8" height="118.73356613109776" x="511" y="140.63321693445113" rx="5" ry="5" fill="white" />
    <rect width="8" height="125.0214868535835" x="521" y="137.48925657320825" rx="5" ry="5" fill="white" />
    <rect width="8" height="123.5053563586048" x="531" y="138.2473218206976" rx="5" ry="5" fill="white" />
    <rect width="8" height="125.06391386261254" x="541" y="137.46804306869373" rx="5" ry="5" fill="white" />
    <rect width="8" height="124.62382509341701" x="551" y="137.6880874532915" rx="5" ry="5" fill="white" />
    <rect width="8" height="120.14786697890962" x="561" y="139.92606651054518" rx="5" ry="5" fill="white" />
    <rect width="8" height="124.10496025733866" x="571" y="137.94751987133066" rx="5" ry="5" fill="white" />
    <rect width="8" height="129.65216743494773" x="581" y="135.17391628252614" rx="5" ry="5" fill="white" />
    <rect width="8" height="129.71099484778145" x="591" y="135.1445025761093" rx="5" ry="5" fill="white" />
    <rect width="8" height="126.39400303062138" x="601" y="136.8029984846893" rx="5" ry="5" fill="white" />
    <rect width="8" height="128.0229540435251" x="611" y="135.98852297823746" rx="5" ry="5" fill="white" />
    <rect width="8" height="120.84371691180723" x="621" y="139.57814154409638" rx="5" ry="5" fill="white" />
    <rect width="8" height="129.92139418701427" x="631" y="135.03930290649288" rx="5" ry="5" fill="white" />
    <rect width="8" height="123.41989509500596" x="641" y="138.29005245249704" rx="5" ry="5" fill="white" />
    <rect width="8" height="129.97569040904514" x="651" y="135.01215479547744" rx="5" ry="5" fill="white" />
    <rect width="8" height="123.24711919076259" x="661" y="138.3764404046187" rx="5" ry="5" fill="white" />
    <rect width="8" height="127.2221727084651" x="671" y="136.38891364576745" rx="5" ry="5" fill="white" />
    <rect width="8" height="123.34340416254588" x="681" y="138.32829791872706" rx="5" ry="5" fill="white" />
    <rect width="8" height="127.95254998713486" x="691" y="136.02372500643258" rx="5" ry="5" fill="white" />
    <rect width="8" height="123.87392660498891" x="701" y="138.06303669750554" rx="5" ry="5" fill="white" />
    <rect width="8" height="123.33797719550641" x="711" y="138.3310114022468" rx="5" ry="5" fill="white" />
    <rect width="8" height="127.8785813356875" x="721" y="136.06070933215625" rx="5" ry="5" fill="white" />
    <rect width="8" height="120.17465750925447" x="731" y="139.91267124537276" rx="5" ry="5" fill="white" />
    <rect width="8" height="119.7342675229981" x="741" y="140.13286623850095" rx="5" ry="5" fill="white" />
    <rect width="8" height="123.1195882021984" x="751" y="138.44020589890079" rx="5" ry="5" fill="white" />
    <rect width="8" height="134.357071516001" x="761" y="132.82146424199948" rx="5" ry="5" fill="white" />
    <rect width="8" height="131.0539223283654" x="771" y="134.4730388358173" rx="5" ry="5" fill="white" />
    <rect width="8" height="130.79157587924607" x="781" y="134.60421206037697" rx="5" ry="5" fill="white" />
    <rect width="8" height="127.12867567185828" x="791" y="136.43566216407086" rx="5" ry="5" fill="white" />
    <rect width="8" height="125.443730195322" x="801" y="137.278134902339" rx="5" ry="5" fill="white" />
    <rect width="8" height="121.81377217042181" x="811" y="139.0931139147891" rx="5" ry="5" fill="white" />
    <rect width="8" height="109.24763397163323" x="821" y="145.37618301418337" rx="5" ry="5" fill="white" />
    <rect width="8" height="92.36353181209338" x="831" y="153.81823409395332" rx="5" ry="5" fill="white" />
    <rect width="8" height="80.0285395307109" x="841" y="159.98573023464456" rx="5" ry="5" fill="white" />
    <rect width="8" height="91.09838313460848" x="851" y="154.45080843269577" rx="5" ry="5" fill="white" />
    <rect width="8" height="62.78372760968821" x="861" y="168.6081361951559" rx="5" ry="5" fill="white" />
    <rect width="8" height="68.96431693639578" x="871" y="165.5178415318021" rx="5" ry="5" fill="white" />
    <rect width="8" height="69.8432642265154" x="881" y="165.07836788674229" rx="5" ry="5" fill="white" />
    <rect width="8" height="70.98376968269872" x="891" y="164.50811515865064" rx="5" ry="5" fill="white" />
    <rect width="8" height="70.58547665465393" x="901" y="164.70726167267304" rx="5" ry="5" fill="white" />
    <rect width="8" height="80.82314334904342" x="911" y="159.58842832547828" rx="5" ry="5" fill="white" />
    <rect width="8" height="101.00897504986057" x="921" y="149.49551247506972" rx="5" ry="5" fill="white" />
    <rect width="8" height="102.08055967629485" x="931" y="148.95972016185257" rx="5" ry="5" fill="white" />
    <rect width="8" height="119.39987421438549" x="941" y="140.30006289280726" rx="5" ry="5" fill="white" />
    <rect width="8" height="90.88682289714043" x="951" y="154.5565885514298" rx="5" ry="5" fill="white" />
    <rect width="8" height="97.38069232949857" x="961" y="151.3096538352507" rx="5" ry="5" fill="white" />
    <rect width="8" height="83.50519641191867" x="971" y="158.24740179404066" rx="5" ry="5" fill="white" />
    <rect width="8" height="92.33514832940605" x="981" y="153.832425835297" rx="5" ry="5" fill="white" />
    <rect width="8" height="89.60988188754658" x="991" y="155.1950590562267" rx="5" ry="5" fill="white" />
    <rect width="8" height="111.05709804460653" x="1001" y="144.47145097769675" rx="5" ry="5" fill="white" />
    <rect width="8" height="112.1687630851726" x="1011" y="143.9156184574137" rx="5" ry="5" fill="white" />
    <rect width="8" height="128.06500610715634" x="1021" y="135.96749694642182" rx="5" ry="5" fill="white" />
    <rect width="8" height="87.49099691657798" x="1031" y="156.25450154171102" rx="5" ry="5" fill="white" />
    <rect width="8" height="100.97614410588065" x="1041" y="149.5119279470597" rx="5" ry="5" fill="white" />
    <rect width="8" height="84.18112303762561" x="1051" y="157.90943848118718" rx="5" ry="5" fill="white" />
    <rect width="8" height="82.63895540334187" x="1061" y="158.68052229832907" rx="5" ry="5" fill="white" />
    <rect width="8" height="79.92900770269122" x="1071" y="160.03549614865437" rx="5" ry="5" fill="white" />
    <rect width="8" height="93.3473253322762" x="1081" y="153.3263373338619" rx="5" ry="5" fill="white" />
    <rect width="8" height="79.84062969874458" x="1091" y="160.0796851506277" rx="5" ry="5" fill="white" />
    <rect width="8" height="94.83704150891823" x="1101" y="152.5814792455409" rx="5" ry="5" fill="white" />
    <rect width="8" height="86.79778200461789" x="1111" y="156.60110899769106" rx="5" ry="5" fill="white" />
    <rect width="8" height="84.9071157748846" x="1121" y="157.5464421125577" rx="5" ry="5" fill="white" />
    <rect width="8" height="81.05302234307467" x="1131" y="159.47348882846268" rx="5" ry="5" fill="white" />
    <rect width="8" height="54.75602022463899" x="1141" y="172.6219898876805" rx="5" ry="5" fill="white" />
    <rect width="8" height="62.19473505998005" x="1151" y="168.90263247000996" rx="5" ry="5" fill="white" />
    <rect width="8" height="101.46741387883871" x="1161" y="149.26629306058064" rx="5" ry="5" fill="white" />
    <rect width="8" height="89.25935216891897" x="1171" y="155.37032391554052" rx="5" ry="5" fill="white" />
    <rect width="8" height="133.80339409545476" x="1181" y="133.0983029522726" rx="5" ry="5" fill="white" />
    <rect width="8" height="132.61573928602584" x="1191" y="133.6921303569871" rx="5" ry="5" fill="white" />
    <rect width="8" height="129.93340139280338" x="1201" y="135.0332993035983" rx="5" ry="5" fill="white" />
    <rect width="8" height="124.70629920420654" x="1211" y="137.64685039789674" rx="5" ry="5" fill="white" />
    <rect width="8" height="128.76091619716482" x="1221" y="135.6195419014176" rx="5" ry="5" fill="white" />
    <rect width="8" height="128.41516645225556" x="1231" y="135.79241677387222" rx="5" ry="5" fill="white" />
    <rect width="8" height="129.79055634270543" x="1241" y="135.10472182864729" rx="5" ry="5" fill="white" />
    <rect width="8" height="126.63140730468558" x="1251" y="136.6842963476572" rx="5" ry="5" fill="white" />
    <rect width="8" height="126.877639172521" x="1261" y="136.5611804137395" rx="5" ry="5" fill="white" />
    <rect width="8" height="130.13121067394616" x="1271" y="134.93439466302692" rx="5" ry="5" fill="white" />
    <rect width="8" height="127.0448817349193" x="1281" y="136.47755913254036" rx="5" ry="5" fill="white" />
    <rect width="8" height="127.41530086975914" x="1291" y="136.29234956512045" rx="5" ry="5" fill="white" />
    <rect width="8" height="126.8900175416609" x="1301" y="136.55499122916956" rx="5" ry="5" fill="white" />
    <rect width="8" height="127.8303094727676" x="1311" y="136.08484526361622" rx="5" ry="5" fill="white" />
    <rect width="8" height="126.11227988068019" x="1321" y="136.9438600596599" rx="5" ry="5" fill="white" />
    <rect width="8" height="126.19845629889987" x="1331" y="136.90077185055006" rx="5" ry="5" fill="white" />
    <rect width="8" height="124.3247103094034" x="1341" y="137.8376448452983" rx="5" ry="5" fill="white" />
    <rect width="8" height="128.35271190962226" x="1351" y="135.82364404518887" rx="5" ry="5" fill="white" />
    <rect width="8" height="128.66763401139542" x="1361" y="135.6661829943023" rx="5" ry="5" fill="white" />
    <rect width="8" height="128.7461895684048" x="1371" y="135.6269052157976" rx="5" ry="5" fill="white" />
    <rect width="8" height="126.03291298868288" x="1381" y="136.98354350565856" rx="5" ry="5" fill="white" />
    <rect width="8" height="126.75370114805958" x="1391" y="136.6231494259702" rx="5" ry="5" fill="white" />
    <rect width="8" height="123.92802413680457" x="1401" y="138.03598793159773" rx="5" ry="5" fill="white" />
    <rect width="8" height="130.76111980966496" x="1411" y="134.61944009516753" rx="5" ry="5" fill="white" />
    <rect width="8" height="127.45701327200672" x="1421" y="136.27149336399663" rx="5" ry="5" fill="white" />
    <rect width="8" height="132.48606721021284" x="1431" y="133.7569663948936" rx="5" ry="5" fill="white" />
    <rect width="8" height="128.7409121156254" x="1441" y="135.6295439421873" rx="5" ry="5" fill="white" />
    <rect width="8" height="124.82637460848223" x="1451" y="137.58681269575888" rx="5" ry="5" fill="white" />
    <rect width="8" height="124.44194100193411" x="1461" y="137.77902949903296" rx="5" ry="5" fill="white" />
    <rect width="8" height="128.30950664481057" x="1471" y="135.84524667759473" rx="5" ry="5" fill="white" />
    <rect width="8" height="126.82098298283218" x="1481" y="136.58950850858392" rx="5" ry="5" fill="white" />
    <rect width="8" height="101.46652050833566" x="1491" y="149.26673974583218" rx="5" ry="5" fill="white" />
    <rect width="8" height="99.81675821235704" x="1501" y="150.09162089382147" rx="5" ry="5" fill="white" />
    <rect width="8" height="127.90267679520578" x="1511" y="136.04866160239712" rx="5" ry="5" fill="white" />
    <rect width="8" height="125.21918225246512" x="1521" y="137.39040887376746" rx="5" ry="5" fill="white" />
    <rect width="8" height="136.93794624707127" x="1531" y="131.53102687646435" rx="5" ry="5" fill="white" />
    <rect width="8" height="131.54599031769297" x="1541" y="134.22700484115353" rx="5" ry="5" fill="white" />
    <rect width="8" height="130.68265801164583" x="1551" y="134.6586709941771" rx="5" ry="5" fill="white" />
    <rect width="8" height="128.74843825333667" x="1561" y="135.62578087333168" rx="5" ry="5" fill="white" />
    <rect width="8" height="129.9045813911076" x="1571" y="135.0477093044462" rx="5" ry="5" fill="white" />
    <rect width="8" height="128.24237083364469" x="1581" y="135.87881458317764" rx="5" ry="5" fill="white" />
    <rect width="8" height="135.57751951345546" x="1591" y="132.21124024327227" rx="5" ry="5" fill="white" />
    <rect width="8" height="127.88596995299113" x="1601" y="136.05701502350445" rx="5" ry="5" fill="white" />
    <rect width="8" height="132.39065245547172" x="1611" y="133.80467377226415" rx="5" ry="5" fill="white" />
    <rect width="8" height="127.45981053647995" x="1621" y="136.27009473176003" rx="5" ry="5" fill="white" />
    <rect width="8" height="124.65294547793371" x="1631" y="137.67352726103314" rx="5" ry="5" fill="white" />
    <rect width="8" height="131.1044058333548" x="1641" y="134.4477970833226" rx="5" ry="5" fill="white" />
    <rect width="8" height="131.38652597946762" x="1651" y="134.3067370102662" rx="5" ry="5" fill="white" />
    <rect width="8" height="99.5694264977084" x="1661" y="150.2152867511458" rx="5" ry="5" fill="white" />
    <rect width="8" height="92.37738633393403" x="1671" y="153.81130683303297" rx="5" ry="5" fill="white" />
    <rect width="8" height="112.87048727191032" x="1681" y="143.56475636404485" rx="5" ry="5" fill="white" />
    <rect width="8" height="101.39732959834792" x="1691" y="149.30133520082603" rx="5" ry="5" fill="white" />
    <rect width="8" height="91.48555877923168" x="1701" y="154.25722061038417" rx="5" ry="5" fill="white" />
    <rect width="8" height="93.02321499423424" x="1711" y="153.48839250288287" rx="5" ry="5" fill="white" />
    <rect width="8" height="94.47026392465422" x="1721" y="152.7648680376729" rx="5" ry="5" fill="white" />
    <rect width="8" height="88.86151656072923" x="1731" y="155.5692417196354" rx="5" ry="5" fill="white" />
    <rect width="8" height="98.04196012248" x="1741" y="150.97901993876" rx="5" ry="5" fill="white" />
    <rect width="8" height="90.79601442565695" x="1751" y="154.60199278717153" rx="5" ry="5" fill="white" />
    <rect width="8" height="96.35049239522911" x="1761" y="151.82475380238543" rx="5" ry="5" fill="white" />
    <rect width="8" height="90.15276453793587" x="1771" y="154.92361773103207" rx="5" ry="5" fill="white" />
    <rect width="8" height="92.93216409245065" x="1781" y="153.53391795377468" rx="5" ry="5" fill="white" />
    <rect width="8" height="88.05608787064264" x="1791" y="155.9719560646787" rx="5" ry="5" fill="white" />
    <rect width="8" height="87.66464747728904" x="1801" y="156.1676762613555" rx="5" ry="5" fill="white" />
    <rect width="8" height="95.0001843424427" x="1811" y="152.49990782877865" rx="5" ry="5" fill="white" />
    <rect width="8" height="91.23496709189855" x="1821" y="154.38251645405072" rx="5" ry="5" fill="white" />
    <rect width="8" height="77.96885783382743" x="1831" y="161.0155710830863" rx="5" ry="5" fill="white" />
    <rect width="8" height="82.8770983461662" x="1841" y="158.56145082691688" rx="5" ry="5" fill="white" />
    <rect width="8" height="79.57716368849935" x="1851" y="160.21141815575032" rx="5" ry="5" fill="white" />
    <rect width="8" height="84.46983846491588" x="1861" y="157.76508076754206" rx="5" ry="5" fill="white" />
    <rect width="8" height="81.775180919865" x="1871" y="159.11240954006752" rx="5" ry="5" fill="white" />
    <rect width="8" height="78.33100607049622" x="1881" y="160.8344969647519" rx="5" ry="5" fill="white" />
    <rect width="8" height="83.42028527868325" x="1891" y="158.28985736065837" rx="5" ry="5" fill="white" />
    <rect width="8" height="93.45537590798455" x="1901" y="153.27231204600773" rx="5" ry="5" fill="white" />
    <rect width="8" height="105.16633915412503" x="1911" y="147.4168304229375" rx="5" ry="5" fill="white" />
    <rect width="8" height="99.70586726380886" x="1921" y="150.14706636809558" rx="5" ry="5" fill="white" />
    <rect width="8" height="121.24160418252394" x="1931" y="139.37919790873804" rx="5" ry="5" fill="white" />
    <rect width="8" height="106.99628543657636" x="1941" y="146.5018572817118" rx="5" ry="5" fill="white" />
    <rect width="8" height="106.20034292231209" x="1951" y="146.89982853884396" rx="5" ry="5" fill="white" />
    <rect width="8" height="113.25412467344836" x="1961" y="143.37293766327582" rx="5" ry="5" fill="white" />
    <rect width="8" height="109.24102243966145" x="1971" y="145.37948878016928" rx="5" ry="5" fill="white" />
    <rect width="8" height="108.52394567918084" x="1981" y="145.7380271604096" rx="5" ry="5" fill="white" />
    <rect width="8" height="112.72735222941466" x="1991" y="143.63632388529265" rx="5" ry="5" fill="white" />
  </g>
</svg>