<svg 
  baseProfile="tiny"
  preserveAspectRatio="keep"
  version="1.2"
  viewBox="0 0 2000.000000 400.000000"
  height="100%" width="100%"
  xmlns="http://www.w3.org/2000/svg"
  xmlns:ev="http://www.w3.org/2001/xml-events"
  xmlns:xlink="http://www.w3.org/1999/xlink"
>
  <g>
    <rect width="8" height="138.36454434401006" x="1" y="130.817727827995" rx="5" ry="5" fill="white" />
    <rect width="8" height="127.93170283768396" x="11" y="136.03414858115804" rx="5" ry="5" fill="white" />
    <rect width="8" height="58.738752598764435" x="21" y="170.63062370061778" rx="5" ry="5" fill="white" />
    <rect width="8" height="140.38201560189663" x="31" y="129.8089921990517" rx="5" ry="5" fill="white" />
    <rect width="8" height="69.5750655225974" x="41" y="165.2124672387013" rx="5" ry="5" fill="white" />
    <rect width="8" height="100.26150427481764" x="51" y="149.86924786259118" rx="5" ry="5" fill="white" />
    <rect width="8" height="100.72616574039523" x="61" y="149.63691712980238" rx="5" ry="5" fill="white" />
    <rect width="8" height="75.60953808581128" x="71" y="162.19523095709437" rx="5" ry="5" fill="white" />
    <rect width="8" height="40.39014228615693" x="81" y="179.80492885692155" rx="5" ry="5" fill="white" />
    <rect width="8" height="72.41741212562454" x="91" y="163.79129393718773" rx="5" ry="5" fill="white" />
    <rect width="8" height="42.12534123984536" x="101" y="178.93732938007733" rx="5" ry="5" fill="white" />
    <rect width="8" height="59.575731507469854" x="111" y="170.21213424626507" rx="5" ry="5" fill="white" />
    <rect width="8" height="58.78435007510594" x="121" y="170.60782496244704" rx="5" ry="5" fill="white" />
    <rect width="8" height="60.119014851046934" x="131" y="169.94049257447654" rx="5" ry="5" fill="white" />
    <rect width="8" height="53.940482826220006" x="141" y="173.02975858689" rx="5" ry="5" fill="white" />
    <rect width="8" height="64.58436406328369" x="151" y="167.70781796835814" rx="5" ry="5" fill="white" />
    <rect width="8" height="73.51048409532109" x="161" y="163.24475795233946" rx="5" ry="5" fill="white" />
    <rect width="8" height="157.64122664829677" x="171" y="121.17938667585162" rx="5" ry="5" fill="white" />
    <rect width="8" height="96.25139647388711" x="181" y="151.87430176305645" rx="5" ry="5" fill="white" />
    <rect width="8" height="87.24024223525228" x="191" y="156.37987888237387" rx="5" ry="5" fill="white" />
    <rect width="8" height="50.836435265853595" x="201" y="174.5817823670732" rx="5" ry="5" fill="white" />
    <rect width="8" height="73.85843934815806" x="211" y="163.07078032592096" rx="5" ry="5" fill="white" />
    <rect width="8" height="47.27267226028557" x="221" y="176.36366386985722" rx="5" ry="5" fill="white" />
    <rect width="8" height="63.22565608397361" x="231" y="168.3871719580132" rx="5" ry="5" fill="white" />
    <rect width="8" height="61.41531903320298" x="241" y="169.2923404833985" rx="5" ry="5" fill="white" />
    <rect width="8" height="47.17907276466322" x="251" y="176.4104636176684" rx="5" ry="5" fill="white" />
    <rect width="8" height="64.19194913447897" x="261" y="167.9040254327605" rx="5" ry="5" fill="white" />
    <rect width="8" height="87.13112570074439" x="271" y="156.4344371496278" rx="5" ry="5" fill="white" />
    <rect width="8" height="105.6580174484695" x="281" y="147.17099127576526" rx="5" ry="5" fill="white" />
    <rect width="8" height="75.57377278048381" x="291" y="162.2131136097581" rx="5" ry="5" fill="white" />
    <rect width="8" height="142.38548401937172" x="301" y="128.80725799031416" rx="5" ry="5" fill="white" />
    <rect width="8" height="117.78873886776368" x="311" y="141.10563056611815" rx="5" ry="5" fill="white" />
    <rect width="8" height="102.060630087174" x="321" y="148.969684956413" rx="5" ry="5" fill="white" />
    <rect width="8" height="102.60553913972659" x="331" y="148.6972304301367" rx="5" ry="5" fill="white" />
    <rect width="8" height="85.78137973957004" x="341" y="157.10931013021496" rx="5" ry="5" fill="white" />
    <rect width="8" height="65.8308560484581" x="351" y="167.08457197577096" rx="5" ry="5" fill="white" />
    <rect width="8" height="50.449217747667554" x="361" y="174.77539112616623" rx="5" ry="5" fill="white" />
    <rect width="8" height="72.9274567418924" x="371" y="163.5362716290538" rx="5" ry="5" fill="white" />
    <rect width="8" height="53.79700768032545" x="381" y="173.10149615983727" rx="5" ry="5" fill="white" />
    <rect width="8" height="85.99058724038294" x="391" y="157.00470637980854" rx="5" ry="5" fill="white" />
    <rect width="8" height="74.35171523651643" x="401" y="162.82414238174178" rx="5" ry="5" fill="white" />
    <rect width="8" height="98.133676414103" x="411" y="150.9331617929485" rx="5" ry="5" fill="white" />
    <rect width="8" height="86.91669871077734" x="421" y="156.54165064461134" rx="5" ry="5" fill="white" />
    <rect width="8" height="113.35973185167319" x="431" y="143.3201340741634" rx="5" ry="5" fill="white" />
    <rect width="8" height="134.81273083682507" x="441" y="132.59363458158748" rx="5" ry="5" fill="white" />
    <rect width="8" height="81.97752844259938" x="451" y="159.01123577870032" rx="5" ry="5" fill="white" />
    <rect width="8" height="99.14038833018901" x="461" y="150.4298058349055" rx="5" ry="5" fill="white" />
    <rect width="8" height="77.41970152101077" x="471" y="161.2901492394946" rx="5" ry="5" fill="white" />
    <rect width="8" height="59.54738672967541" x="481" y="170.2263066351623" rx="5" ry="5" fill="white" />
    <rect width="8" height="68.79987194027998" x="491" y="165.60006402986" rx="5" ry="5" fill="white" />
    <rect width="8" height="57.22753843376177" x="501" y="171.38623078311912" rx="5" ry="5" fill="white" />
    <rect width="8" height="61.56104196822471" x="511" y="169.21947901588766" rx="5" ry="5" fill="white" />
    <rect width="8" height="68.19967202310521" x="521" y="165.9001639884474" rx="5" ry="5" fill="white" />
    <rect width="8" height="108.25453071360592" x="531" y="145.87273464319705" rx="5" ry="5" fill="white" />
    <rect width="8" height="96.125374123188" x="541" y="151.937312938406" rx="5" ry="5" fill="white" />
    <rect width="8" height="115.94316624592362" x="551" y="142.02841687703818" rx="5" ry="5" fill="white" />
    <rect width="8" height="116.52224590423745" x="561" y="141.73887704788126" rx="5" ry="5" fill="white" />
    <rect width="8" height="109.33691988162953" x="571" y="145.33154005918524" rx="5" ry="5" fill="white" />
    <rect width="8" height="111.2831549036433" x="581" y="144.35842254817834" rx="5" ry="5" fill="white" />
    <rect width="8" height="107.93833321025032" x="591" y="146.03083339487483" rx="5" ry="5" fill="white" />
    <rect width="8" height="140.94210269197197" x="601" y="129.52894865401402" rx="5" ry="5" fill="white" />
    <rect width="8" height="100.49162622216848" x="611" y="149.75418688891577" rx="5" ry="5" fill="white" />
    <rect width="8" height="95.7139724920992" x="621" y="152.1430137539504" rx="5" ry="5" fill="white" />
    <rect width="8" height="89.68817671953062" x="631" y="155.1559116402347" rx="5" ry="5" fill="white" />
    <rect width="8" height="94.49451656188923" x="641" y="152.7527417190554" rx="5" ry="5" fill="white" />
    <rect width="8" height="88.66904127107425" x="651" y="155.66547936446287" rx="5" ry="5" fill="white" />
    <rect width="8" height="116.56580077558489" x="661" y="141.71709961220756" rx="5" ry="5" fill="white" />
    <rect width="8" height="154.1438640329106" x="671" y="122.9280679835447" rx="5" ry="5" fill="white" />
    <rect width="8" height="140.00270408975433" x="681" y="129.99864795512283" rx="5" ry="5" fill="white" />
    <rect width="8" height="111.58875363863845" x="691" y="144.2056231806808" rx="5" ry="5" fill="white" />
    <rect width="8" height="115.9582014384102" x="701" y="142.0208992807949" rx="5" ry="5" fill="white" />
    <rect width="8" height="105.8287408066732" x="711" y="147.0856295966634" rx="5" ry="5" fill="white" />
    <rect width="8" height="107.34591145263803" x="721" y="146.327044273681" rx="5" ry="5" fill="white" />
    <rect width="8" height="125.07656888529432" x="731" y="137.46171555735285" rx="5" ry="5" fill="white" />
    <rect width="8" height="113.74118347863104" x="741" y="143.12940826068447" rx="5" ry="5" fill="white" />
    <rect width="8" height="99.0940171012232" x="751" y="150.4529914493884" rx="5" ry="5" fill="white" />
    <rect width="8" height="91.25057872999382" x="761" y="154.37471063500308" rx="5" ry="5" fill="white" />
    <rect width="8" height="123.77401840759879" x="771" y="138.11299079620062" rx="5" ry="5" fill="white" />
    <rect width="8" height="94.04670932132531" x="781" y="152.97664533933735" rx="5" ry="5" fill="white" />
    <rect width="8" height="105.71627120534063" x="791" y="147.1418643973297" rx="5" ry="5" fill="white" />
    <rect width="8" height="142.05365049827384" x="801" y="128.97317475086308" rx="5" ry="5" fill="white" />
    <rect width="8" height="134.587243710503" x="811" y="132.7063781447485" rx="5" ry="5" fill="white" />
    <rect width="8" height="103.0026477141105" x="821" y="148.49867614294476" rx="5" ry="5" fill="white" />
    <rect width="8" height="103.42979059610336" x="831" y="148.2851047019483" rx="5" ry="5" fill="white" />
    <rect width="8" height="105.70502547665622" x="841" y="147.1474872616719" rx="5" ry="5" fill="white" />
    <rect width="8" height="91.07514841124757" x="851" y="154.4624257943762" rx="5" ry="5" fill="white" />
    <rect width="8" height="127.27908471292362" x="861" y="136.36045764353818" rx="5" ry="5" fill="white" />
    <rect width="8" height="133.4387237425955" x="871" y="133.28063812870226" rx="5" ry="5" fill="white" />
    <rect width="8" height="96.310693988159" x="881" y="151.8446530059205" rx="5" ry="5" fill="white" />
    <rect width="8" height="101.43470529203005" x="891" y="149.28264735398497" rx="5" ry="5" fill="white" />
    <rect width="8" height="95.66059760846728" x="901" y="152.16970119576635" rx="5" ry="5" fill="white" />
    <rect width="8" height="119.48801810385994" x="911" y="140.25599094807004" rx="5" ry="5" fill="white" />
    <rect width="8" height="85.27349027575345" x="921" y="157.36325486212328" rx="5" ry="5" fill="white" />
    <rect width="8" height="129.3700012838725" x="931" y="135.31499935806374" rx="5" ry="5" fill="white" />
    <rect width="8" height="136.78666876411233" x="941" y="131.60666561794383" rx="5" ry="5" fill="white" />
    <rect width="8" height="130.09858801672465" x="951" y="134.95070599163768" rx="5" ry="5" fill="white" />
    <rect width="8" height="101.10213166880698" x="961" y="149.4489341655965" rx="5" ry="5" fill="white" />
    <rect width="8" height="108.5213391984623" x="971" y="145.73933040076884" rx="5" ry="5" fill="white" />
    <rect width="8" height="100.28094735005703" x="981" y="149.85952632497148" rx="5" ry="5" fill="white" />
    <rect width="8" height="115.70802144189656" x="991" y="142.14598927905172" rx="5" ry="5" fill="white" />
    <rect width="8" height="143.74672808856198" x="1001" y="128.126635955719" rx="5" ry="5" fill="white" />
    <rect width="8" height="118.1621805313647" x="1011" y="140.91890973431765" rx="5" ry="5" fill="white" />
    <rect width="8" height="86.81740932755075" x="1021" y="156.59129533622462" rx="5" ry="5" fill="white" />
    <rect width="8" height="91.38441956001728" x="1031" y="154.30779021999138" rx="5" ry="5" fill="white" />
    <rect width="8" height="100.31225298903617" x="1041" y="149.84387350548192" rx="5" ry="5" fill="white" />
    <rect width="8" height="99.20620797356972" x="1051" y="150.39689601321516" rx="5" ry="5" fill="white" />
    <rect width="8" height="100.76031399770866" x="1061" y="149.61984300114568" rx="5" ry="5" fill="white" />
    <rect width="8" height="115.83251183215437" x="1071" y="142.08374408392282" rx="5" ry="5" fill="white" />
    <rect width="8" height="124.5559923644671" x="1081" y="137.72200381776645" rx="5" ry="5" fill="white" />
    <rect width="8" height="111.51316192209408" x="1091" y="144.24341903895296" rx="5" ry="5" fill="white" />
    <rect width="8" height="80.59073381611059" x="1101" y="159.70463309194471" rx="5" ry="5" fill="white" />
    <rect width="8" height="123.56455071039387" x="1111" y="138.21772464480307" rx="5" ry="5" fill="white" />
    <rect width="8" height="98.38769766521021" x="1121" y="150.8061511673949" rx="5" ry="5" fill="white" />
    <rect width="8" height="131.58666213898246" x="1131" y="134.20666893050878" rx="5" ry="5" fill="white" />
    <rect width="8" height="115.83438476144757" x="1141" y="142.08280761927622" rx="5" ry="5" fill="white" />
    <rect width="8" height="96.48474221899711" x="1151" y="151.75762889050145" rx="5" ry="5" fill="white" />
    <rect width="8" height="91.88409995877747" x="1161" y="154.05795002061126" rx="5" ry="5" fill="white" />
    <rect width="8" height="100.41138746802298" x="1171" y="149.7943062659885" rx="5" ry="5" fill="white" />
    <rect width="8" height="98.4775706816711" x="1181" y="150.76121465916447" rx="5" ry="5" fill="white" />
    <rect width="8" height="100.8437841395156" x="1191" y="149.5781079302422" rx="5" ry="5" fill="white" />
    <rect width="8" height="153.64646418013174" x="1201" y="123.17676790993413" rx="5" ry="5" fill="white" />
    <rect width="8" height="136.55091231819222" x="1211" y="131.7245438409039" rx="5" ry="5" fill="white" />
    <rect width="8" height="117.30887194699471" x="1221" y="141.34556402650264" rx="5" ry="5" fill="white" />
    <rect width="8" height="100.45271087359211" x="1231" y="149.77364456320396" rx="5" ry="5" fill="white" />
    <rect width="8" height="93.72095810695983" x="1241" y="153.1395209465201" rx="5" ry="5" fill="white" />
    <rect width="8" height="106.57312978036873" x="1251" y="146.71343510981563" rx="5" ry="5" fill="white" />
    <rect width="8" height="110.1548786780084" x="1261" y="144.9225606609958" rx="5" ry="5" fill="white" />
    <rect width="8" height="140.24954986444575" x="1271" y="129.87522506777714" rx="5" ry="5" fill="white" />
    <rect width="8" height="100.09503660951893" x="1281" y="149.95248169524052" rx="5" ry="5" fill="white" />
    <rect width="8" height="103.8244463083291" x="1291" y="148.08777684583544" rx="5" ry="5" fill="white" />
    <rect width="8" height="88.65262920778622" x="1301" y="155.6736853961069" rx="5" ry="5" fill="white" />
    <rect width="8" height="94.36254401152246" x="1311" y="152.81872799423877" rx="5" ry="5" fill="white" />
    <rect width="8" height="107.96760490355841" x="1321" y="146.0161975482208" rx="5" ry="5" fill="white" />
    <rect width="8" height="115.39091743007165" x="1331" y="142.30454128496416" rx="5" ry="5" fill="white" />
    <rect width="8" height="108.04231235618936" x="1341" y="145.97884382190531" rx="5" ry="5" fill="white" />
    <rect width="8" height="108.92167111984044" x="1351" y="145.5391644400798" rx="5" ry="5" fill="white" />
    <rect width="8" height="124.61436130170473" x="1361" y="137.69281934914764" rx="5" ry="5" fill="white" />
    <rect width="8" height="93.52877273696069" x="1371" y="153.23561363151964" rx="5" ry="5" fill="white" />
    <rect width="8" height="107.43324784720502" x="1381" y="146.28337607639747" rx="5" ry="5" fill="white" />
    <rect width="8" height="127.97790448505503" x="1391" y="136.01104775747248" rx="5" ry="5" fill="white" />
    <rect width="8" height="175.8509120022906" x="1401" y="112.0745439988547" rx="5" ry="5" fill="white" />
    <rect width="8" height="124.57777636764402" x="1411" y="137.711111816178" rx="5" ry="5" fill="white" />
    <rect width="8" height="106.35339325202982" x="1421" y="146.82330337398508" rx="5" ry="5" fill="white" />
    <rect width="8" height="110.135178422806" x="1431" y="144.932410788597" rx="5" ry="5" fill="white" />
    <rect width="8" height="99.638984954371" x="1441" y="150.1805075228145" rx="5" ry="5" fill="white" />
    <rect width="8" height="104.60411666141964" x="1451" y="147.69794166929017" rx="5" ry="5" fill="white" />
    <rect width="8" height="99.20161354069778" x="1461" y="150.3991932296511" rx="5" ry="5" fill="white" />
    <rect width="8" height="172.51115266547654" x="1471" y="113.74442366726173" rx="5" ry="5" fill="white" />
    <rect width="8" height="114.11212209059738" x="1481" y="142.9439389547013" rx="5" ry="5" fill="white" />
    <rect width="8" height="122.07302631090104" x="1491" y="138.9634868445495" rx="5" ry="5" fill="white" />
    <rect width="8" height="107.11287149015149" x="1501" y="146.44356425492424" rx="5" ry="5" fill="white" />
    <rect width="8" height="93.8620997669776" x="1511" y="153.0689501165112" rx="5" ry="5" fill="white" />
    <rect width="8" height="107.9294317793495" x="1521" y="146.03528411032525" rx="5" ry="5" fill="white" />
    <rect width="8" height="114.43143489946476" x="1531" y="142.78428255026762" rx="5" ry="5" fill="white" />
    <rect width="8" height="128.1589056711436" x="1541" y="135.9205471644282" rx="5" ry="5" fill="white" />
    <rect width="8" height="95.14800556842758" x="1551" y="152.4259972157862" rx="5" ry="5" fill="white" />
    <rect width="8" height="94.96408775477583" x="1561" y="152.51795612261208" rx="5" ry="5" fill="white" />
    <rect width="8" height="92.43413721671922" x="1571" y="153.78293139164037" rx="5" ry="5" fill="white" />
    <rect width="8" height="97.8514590515695" x="1581" y="151.07427047421524" rx="5" ry="5" fill="white" />
    <rect width="8" height="106.16895845628949" x="1591" y="146.91552077185526" rx="5" ry="5" fill="white" />
    <rect width="8" height="104.88470440860702" x="1601" y="147.55764779569648" rx="5" ry="5" fill="white" />
    <rect width="8" height="93.1340785841673" x="1611" y="153.43296070791635" rx="5" ry="5" fill="white" />
    <rect width="8" height="79.64681706797101" x="1621" y="160.1765914660145" rx="5" ry="5" fill="white" />
    <rect width="8" height="78.08182415900315" x="1631" y="160.95908792049843" rx="5" ry="5" fill="white" />
    <rect width="8" height="79.83039802555275" x="1641" y="160.08480098722362" rx="5" ry="5" fill="white" />
    <rect width="8" height="78.75816898842791" x="1651" y="160.62091550578606" rx="5" ry="5" fill="white" />
    <rect width="8" height="75.96236287403602" x="1661" y="162.018818562982" rx="5" ry="5" fill="white" />
    <rect width="8" height="94.74941414782349" x="1671" y="152.62529292608826" rx="5" ry="5" fill="white" />
    <rect width="8" height="89.95860888003511" x="1681" y="155.02069555998244" rx="5" ry="5" fill="white" />
    <rect width="8" height="90.06867778896063" x="1691" y="154.9656611055197" rx="5" ry="5" fill="white" />
    <rect width="8" height="83.14823728435307" x="1701" y="158.42588135782347" rx="5" ry="5" fill="white" />
    <rect width="8" height="93.54319622681122" x="1711" y="153.22840188659438" rx="5" ry="5" fill="white" />
    <rect width="8" height="84.10524828859978" x="1721" y="157.9473758557001" rx="5" ry="5" fill="white" />
    <rect width="8" height="96.32203514257645" x="1731" y="151.83898242871177" rx="5" ry="5" fill="white" />
    <rect width="8" height="86.00413978100786" x="1741" y="156.99793010949605" rx="5" ry="5" fill="white" />
    <rect width="8" height="95.4449015817422" x="1751" y="152.2775492091289" rx="5" ry="5" fill="white" />
    <rect width="8" height="90.55823260006777" x="1761" y="154.72088369996612" rx="5" ry="5" fill="white" />
    <rect width="8" height="85.87094190140199" x="1771" y="157.064529049299" rx="5" ry="5" fill="white" />
    <rect width="8" height="43.10641856257663" x="1781" y="178.4467907187117" rx="5" ry="5" fill="white" />
    <rect width="8" height="43.63089958086759" x="1791" y="178.1845502095662" rx="5" ry="5" fill="white" />
    <rect width="8" height="10.312530710420303" x="1801" y="194.84373464478986" rx="5" ry="5" fill="white" />
    <rect width="8" height="36.52818953738511" x="1811" y="181.73590523130744" rx="5" ry="5" fill="white" />
    <rect width="8" height="8" x="1821" y="196" rx="5" ry="5" fill="white" />
    <rect width="8" height="36.84140558649046" x="1831" y="181.57929720675477" rx="5" ry="5" fill="white" />
    <rect width="8" height="8" x="1841" y="196" rx="5" ry="5" fill="white" />
    <rect width="8" height="39.27110124711151" x="1851" y="180.36444937644424" rx="5" ry="5" fill="white" />
    <rect width="8" height="17.611948396180026" x="1861" y="191.19402580191" rx="5" ry="5" fill="white" />
    <rect width="8" height="115.25259355217968" x="1871" y="142.37370322391016" rx="5" ry="5" fill="white" />
    <rect width="8" height="39.063518980074925" x="1881" y="180.46824050996253" rx="5" ry="5" fill="white" />
    <rect width="8" height="40.590893062573876" x="1891" y="179.70455346871307" rx="5" ry="5" fill="white" />
    <rect width="8" height="14.214788140422371" x="1901" y="192.89260592978883" rx="5" ry="5" fill="white" />
    <rect width="8" height="54.396286587357864" x="1911" y="172.80185670632108" rx="5" ry="5" fill="white" />
    <rect width="8" height="21.07364424627926" x="1921" y="189.46317787686036" rx="5" ry="5" fill="white" />
    <rect width="8" height="49.947879091110394" x="1931" y="175.0260604544448" rx="5" ry="5" fill="white" />
    <rect width="8" height="35.90336875815278" x="1941" y="182.0483156209236" rx="5" ry="5" fill="white" />
    <rect width="8" height="44.986457650788694" x="1951" y="177.50677117460566" rx="5" ry="5" fill="white" />
    <rect width="8" height="23.86065576747805" x="1961" y="188.06967211626096" rx="5" ry="5" fill="white" />
    <rect width="8" height="46.91419063601938" x="1971" y="176.5429046819903" rx="5" ry="5" fill="white" />
    <rect width="8" height="34.96633219710288" x="1981" y="182.51683390144856" rx="5" ry="5" fill="white" />
    <rect width="8" height="51.69052375537956" x="1991" y="174.15473812231022" rx="5" ry="5" fill="white" />
  </g>
</svg>