<svg 
  baseProfile="tiny"
  preserveAspectRatio="keep"
  version="1.2"
  viewBox="0 0 2000.000000 400.000000"
  height="100%" width="100%"
  xmlns="http://www.w3.org/2000/svg"
  xmlns:ev="http://www.w3.org/2001/xml-events"
  xmlns:xlink="http://www.w3.org/1999/xlink"
>
  <g>
    <rect width="8" height="108.08452367518287" x="1" y="145.95773816240856" rx="5" ry="5" fill="white" />
    <rect width="8" height="99.87769718969585" x="11" y="150.0611514051521" rx="5" ry="5" fill="white" />
    <rect width="8" height="88.92102050574306" x="21" y="155.53948974712847" rx="5" ry="5" fill="white" />
    <rect width="8" height="97.43246466457401" x="31" y="151.283767667713" rx="5" ry="5" fill="white" />
    <rect width="8" height="97.04589111975194" x="41" y="151.47705444012402" rx="5" ry="5" fill="white" />
    <rect width="8" height="87.80770240691311" x="51" y="156.09614879654345" rx="5" ry="5" fill="white" />
    <rect width="8" height="94.2026254029049" x="61" y="152.89868729854754" rx="5" ry="5" fill="white" />
    <rect width="8" height="92.81551856929659" x="71" y="153.5922407153517" rx="5" ry="5" fill="white" />
    <rect width="8" height="91.85124032906211" x="81" y="154.07437983546896" rx="5" ry="5" fill="white" />
    <rect width="8" height="92.95507188833136" x="91" y="153.52246405583432" rx="5" ry="5" fill="white" />
    <rect width="8" height="98.92519878516649" x="101" y="150.53740060741677" rx="5" ry="5" fill="white" />
    <rect width="8" height="103.03927289300114" x="111" y="148.48036355349944" rx="5" ry="5" fill="white" />
    <rect width="8" height="95.32523165832345" x="121" y="152.33738417083828" rx="5" ry="5" fill="white" />
    <rect width="8" height="110.35897052618981" x="131" y="144.8205147369051" rx="5" ry="5" fill="white" />
    <rect width="8" height="133.97700321213188" x="141" y="133.01149839393406" rx="5" ry="5" fill="white" />
    <rect width="8" height="118.02005930436674" x="151" y="140.98997034781664" rx="5" ry="5" fill="white" />
    <rect width="8" height="113.80451926719084" x="161" y="143.0977403664046" rx="5" ry="5" fill="white" />
    <rect width="8" height="110.57502028761286" x="171" y="144.71248985619357" rx="5" ry="5" fill="white" />
    <rect width="8" height="101.79004446842748" x="181" y="149.10497776578626" rx="5" ry="5" fill="white" />
    <rect width="8" height="103.49788587810775" x="191" y="148.25105706094612" rx="5" ry="5" fill="white" />
    <rect width="8" height="92.37670166573723" x="201" y="153.81164916713138" rx="5" ry="5" fill="white" />
    <rect width="8" height="89.42606814456954" x="211" y="155.28696592771524" rx="5" ry="5" fill="white" />
    <rect width="8" height="95.87505901964433" x="221" y="152.06247049017784" rx="5" ry="5" fill="white" />
    <rect width="8" height="101.00370309972895" x="231" y="149.49814845013552" rx="5" ry="5" fill="white" />
    <rect width="8" height="104.52453680870445" x="241" y="147.73773159564777" rx="5" ry="5" fill="white" />
    <rect width="8" height="99.0812766785016" x="251" y="150.4593616607492" rx="5" ry="5" fill="white" />
    <rect width="8" height="111.635348382323" x="261" y="144.1823258088385" rx="5" ry="5" fill="white" />
    <rect width="8" height="117.6459368357807" x="271" y="141.17703158210963" rx="5" ry="5" fill="white" />
    <rect width="8" height="109.41944151628881" x="281" y="145.2902792418556" rx="5" ry="5" fill="white" />
    <rect width="8" height="113.41093053873068" x="291" y="143.29453473063467" rx="5" ry="5" fill="white" />
    <rect width="8" height="111.06578552261715" x="301" y="144.46710723869143" rx="5" ry="5" fill="white" />
    <rect width="8" height="111.38072384063005" x="311" y="144.309638079685" rx="5" ry="5" fill="white" />
    <rect width="8" height="107.37544894759709" x="321" y="146.31227552620146" rx="5" ry="5" fill="white" />
    <rect width="8" height="95.04871754679436" x="331" y="152.47564122660282" rx="5" ry="5" fill="white" />
    <rect width="8" height="91.11441224805417" x="341" y="154.4427938759729" rx="5" ry="5" fill="white" />
    <rect width="8" height="103.78881820777835" x="351" y="148.1055908961108" rx="5" ry="5" fill="white" />
    <rect width="8" height="103.44777768232977" x="361" y="148.2761111588351" rx="5" ry="5" fill="white" />
    <rect width="8" height="113.2399970929145" x="371" y="143.38000145354275" rx="5" ry="5" fill="white" />
    <rect width="8" height="100.82751696005188" x="381" y="149.58624151997407" rx="5" ry="5" fill="white" />
    <rect width="8" height="132.64334068822942" x="391" y="133.6783296558853" rx="5" ry="5" fill="white" />
    <rect width="8" height="136.48038882328" x="401" y="131.75980558836" rx="5" ry="5" fill="white" />
    <rect width="8" height="144.5827931063447" x="411" y="127.70860344682765" rx="5" ry="5" fill="white" />
    <rect width="8" height="131.1793808465983" x="421" y="134.41030957670085" rx="5" ry="5" fill="white" />
    <rect width="8" height="118.89065698152763" x="431" y="140.5546715092362" rx="5" ry="5" fill="white" />
    <rect width="8" height="111.85129639608498" x="441" y="144.0743518019575" rx="5" ry="5" fill="white" />
    <rect width="8" height="112.22380463242763" x="451" y="143.88809768378619" rx="5" ry="5" fill="white" />
    <rect width="8" height="123.6252310891364" x="461" y="138.1873844554318" rx="5" ry="5" fill="white" />
    <rect width="8" height="106.05698849499394" x="471" y="146.97150575250302" rx="5" ry="5" fill="white" />
    <rect width="8" height="113.73776477422135" x="481" y="143.13111761288934" rx="5" ry="5" fill="white" />
    <rect width="8" height="114.64309360245781" x="491" y="142.67845319877108" rx="5" ry="5" fill="white" />
    <rect width="8" height="119.29012977280662" x="501" y="140.3549351135967" rx="5" ry="5" fill="white" />
    <rect width="8" height="115.49508372155104" x="511" y="142.25245813922447" rx="5" ry="5" fill="white" />
    <rect width="8" height="113.6499125808864" x="521" y="143.1750437095568" rx="5" ry="5" fill="white" />
    <rect width="8" height="116.59114246222192" x="531" y="141.70442876888904" rx="5" ry="5" fill="white" />
    <rect width="8" height="116.61231580168202" x="541" y="141.69384209915899" rx="5" ry="5" fill="white" />
    <rect width="8" height="113.7092448235929" x="551" y="143.14537758820356" rx="5" ry="5" fill="white" />
    <rect width="8" height="128.33149425431984" x="561" y="135.83425287284007" rx="5" ry="5" fill="white" />
    <rect width="8" height="121.78999735046683" x="571" y="139.1050013247666" rx="5" ry="5" fill="white" />
    <rect width="8" height="125.50076309039721" x="581" y="137.2496184548014" rx="5" ry="5" fill="white" />
    <rect width="8" height="113.23856522713743" x="591" y="143.3807173864313" rx="5" ry="5" fill="white" />
    <rect width="8" height="102.56904025235207" x="601" y="148.71547987382397" rx="5" ry="5" fill="white" />
    <rect width="8" height="113.62354537833784" x="611" y="143.18822731083108" rx="5" ry="5" fill="white" />
    <rect width="8" height="114.61346004676905" x="621" y="142.69326997661548" rx="5" ry="5" fill="white" />
    <rect width="8" height="119.2831165236111" x="631" y="140.35844173819444" rx="5" ry="5" fill="white" />
    <rect width="8" height="113.28131861601791" x="641" y="143.35934069199104" rx="5" ry="5" fill="white" />
    <rect width="8" height="119.19270596193674" x="651" y="140.40364701903164" rx="5" ry="5" fill="white" />
    <rect width="8" height="139.25417799600822" x="661" y="130.37291100199587" rx="5" ry="5" fill="white" />
    <rect width="8" height="123.75138687996512" x="671" y="138.12430656001743" rx="5" ry="5" fill="white" />
    <rect width="8" height="114.45048363638787" x="681" y="142.77475818180608" rx="5" ry="5" fill="white" />
    <rect width="8" height="103.28142260667002" x="691" y="148.35928869666498" rx="5" ry="5" fill="white" />
    <rect width="8" height="96.96550911309372" x="701" y="151.51724544345313" rx="5" ry="5" fill="white" />
    <rect width="8" height="99.79745359500531" x="711" y="150.10127320249734" rx="5" ry="5" fill="white" />
    <rect width="8" height="97.65831069640201" x="721" y="151.170844651799" rx="5" ry="5" fill="white" />
    <rect width="8" height="85.75681804785744" x="731" y="157.12159097607127" rx="5" ry="5" fill="white" />
    <rect width="8" height="95.76800671093793" x="741" y="152.11599664453104" rx="5" ry="5" fill="white" />
    <rect width="8" height="86.87153877092138" x="751" y="156.56423061453933" rx="5" ry="5" fill="white" />
    <rect width="8" height="85.94066019866227" x="761" y="157.02966990066886" rx="5" ry="5" fill="white" />
    <rect width="8" height="69.01963022267292" x="771" y="165.49018488866355" rx="5" ry="5" fill="white" />
    <rect width="8" height="79.95864327410469" x="781" y="160.02067836294765" rx="5" ry="5" fill="white" />
    <rect width="8" height="71.32610607409411" x="791" y="164.33694696295294" rx="5" ry="5" fill="white" />
    <rect width="8" height="69.60912693953667" x="801" y="165.19543653023166" rx="5" ry="5" fill="white" />
    <rect width="8" height="58.80387702125785" x="811" y="170.59806148937108" rx="5" ry="5" fill="white" />
    <rect width="8" height="63.10984713316983" x="821" y="168.4450764334151" rx="5" ry="5" fill="white" />
    <rect width="8" height="59.34654073957966" x="831" y="170.32672963021017" rx="5" ry="5" fill="white" />
    <rect width="8" height="51.590980715666355" x="841" y="174.2045096421668" rx="5" ry="5" fill="white" />
    <rect width="8" height="59.595805372667655" x="851" y="170.20209731366617" rx="5" ry="5" fill="white" />
    <rect width="8" height="61.049285952682496" x="861" y="169.47535702365874" rx="5" ry="5" fill="white" />
    <rect width="8" height="81.0115766720067" x="871" y="159.49421166399665" rx="5" ry="5" fill="white" />
    <rect width="8" height="68.64585258108333" x="881" y="165.67707370945834" rx="5" ry="5" fill="white" />
    <rect width="8" height="94.5134910744845" x="891" y="152.74325446275776" rx="5" ry="5" fill="white" />
    <rect width="8" height="81.6139907853955" x="901" y="159.19300460730224" rx="5" ry="5" fill="white" />
    <rect width="8" height="87.99913826786265" x="911" y="156.00043086606868" rx="5" ry="5" fill="white" />
    <rect width="8" height="71.35605385542897" x="921" y="164.32197307228552" rx="5" ry="5" fill="white" />
    <rect width="8" height="97.31673503539336" x="931" y="151.3416324823033" rx="5" ry="5" fill="white" />
    <rect width="8" height="86.25296503308194" x="941" y="156.87351748345904" rx="5" ry="5" fill="white" />
    <rect width="8" height="85.88438235588268" x="951" y="157.05780882205866" rx="5" ry="5" fill="white" />
    <rect width="8" height="76.54117547506473" x="961" y="161.72941226246763" rx="5" ry="5" fill="white" />
    <rect width="8" height="89.47538390715533" x="971" y="155.26230804642233" rx="5" ry="5" fill="white" />
    <rect width="8" height="82.87617319753289" x="981" y="158.56191340123354" rx="5" ry="5" fill="white" />
    <rect width="8" height="79.55134832822938" x="991" y="160.2243258358853" rx="5" ry="5" fill="white" />
    <rect width="8" height="83.2096168466488" x="1001" y="158.3951915766756" rx="5" ry="5" fill="white" />
    <rect width="8" height="86.56027079501901" x="1011" y="156.7198646024905" rx="5" ry="5" fill="white" />
    <rect width="8" height="92.96074819812094" x="1021" y="153.51962590093953" rx="5" ry="5" fill="white" />
    <rect width="8" height="101.65856102984954" x="1031" y="149.17071948507524" rx="5" ry="5" fill="white" />
    <rect width="8" height="107.3010163025804" x="1041" y="146.34949184870982" rx="5" ry="5" fill="white" />
    <rect width="8" height="105.10183251442638" x="1051" y="147.4490837427868" rx="5" ry="5" fill="white" />
    <rect width="8" height="102.5962087409632" x="1061" y="148.7018956295184" rx="5" ry="5" fill="white" />
    <rect width="8" height="96.43693913398803" x="1071" y="151.78153043300597" rx="5" ry="5" fill="white" />
    <rect width="8" height="104.41233622340513" x="1081" y="147.79383188829743" rx="5" ry="5" fill="white" />
    <rect width="8" height="92.78903186583125" x="1091" y="153.60548406708438" rx="5" ry="5" fill="white" />
    <rect width="8" height="86.94627514788554" x="1101" y="156.52686242605722" rx="5" ry="5" fill="white" />
    <rect width="8" height="87.25506189292291" x="1111" y="156.37246905353854" rx="5" ry="5" fill="white" />
    <rect width="8" height="95.52532349870913" x="1121" y="152.23733825064545" rx="5" ry="5" fill="white" />
    <rect width="8" height="92.09228660857353" x="1131" y="153.95385669571323" rx="5" ry="5" fill="white" />
    <rect width="8" height="95.60787474159696" x="1141" y="152.19606262920152" rx="5" ry="5" fill="white" />
    <rect width="8" height="99.24228055499394" x="1151" y="150.37885972250302" rx="5" ry="5" fill="white" />
    <rect width="8" height="98.31782415214626" x="1161" y="150.84108792392686" rx="5" ry="5" fill="white" />
    <rect width="8" height="99.20064749446009" x="1171" y="150.39967625276995" rx="5" ry="5" fill="white" />
    <rect width="8" height="99.93585259206101" x="1181" y="150.0320737039695" rx="5" ry="5" fill="white" />
    <rect width="8" height="101.40620559260594" x="1191" y="149.29689720369703" rx="5" ry="5" fill="white" />
    <rect width="8" height="96.4740181912319" x="1201" y="151.76299090438405" rx="5" ry="5" fill="white" />
    <rect width="8" height="121.46482270411558" x="1211" y="139.2675886479422" rx="5" ry="5" fill="white" />
    <rect width="8" height="137.23019438526077" x="1221" y="131.3849028073696" rx="5" ry="5" fill="white" />
    <rect width="8" height="135.66087155097006" x="1231" y="132.16956422451497" rx="5" ry="5" fill="white" />
    <rect width="8" height="130.00513714218894" x="1241" y="134.99743142890554" rx="5" ry="5" fill="white" />
    <rect width="8" height="124.94449337608238" x="1251" y="137.5277533119588" rx="5" ry="5" fill="white" />
    <rect width="8" height="124.618127389206" x="1261" y="137.690936305397" rx="5" ry="5" fill="white" />
    <rect width="8" height="127.05468215432406" x="1271" y="136.47265892283798" rx="5" ry="5" fill="white" />
    <rect width="8" height="122.1347721497349" x="1281" y="138.93261392513256" rx="5" ry="5" fill="white" />
    <rect width="8" height="126.44484403741032" x="1291" y="136.77757798129483" rx="5" ry="5" fill="white" />
    <rect width="8" height="128.11136678482643" x="1301" y="135.94431660758679" rx="5" ry="5" fill="white" />
    <rect width="8" height="124.9442565204147" x="1311" y="137.52787173979266" rx="5" ry="5" fill="white" />
    <rect width="8" height="126.90207430348485" x="1321" y="136.5489628482576" rx="5" ry="5" fill="white" />
    <rect width="8" height="125.34617315475982" x="1331" y="137.3269134226201" rx="5" ry="5" fill="white" />
    <rect width="8" height="122.75931092155903" x="1341" y="138.62034453922047" rx="5" ry="5" fill="white" />
    <rect width="8" height="128.51248270701998" x="1351" y="135.74375864649" rx="5" ry="5" fill="white" />
    <rect width="8" height="130.6173150985592" x="1361" y="134.6913424507204" rx="5" ry="5" fill="white" />
    <rect width="8" height="121.45604035008543" x="1371" y="139.27197982495727" rx="5" ry="5" fill="white" />
    <rect width="8" height="118.85453352123827" x="1381" y="140.57273323938085" rx="5" ry="5" fill="white" />
    <rect width="8" height="127.06552292894628" x="1391" y="136.46723853552686" rx="5" ry="5" fill="white" />
    <rect width="8" height="133.70426613907176" x="1401" y="133.14786693046412" rx="5" ry="5" fill="white" />
    <rect width="8" height="125.67654984505697" x="1411" y="137.16172507747152" rx="5" ry="5" fill="white" />
    <rect width="8" height="125.70916432023147" x="1421" y="137.14541783988426" rx="5" ry="5" fill="white" />
    <rect width="8" height="130.35942934053185" x="1431" y="134.82028532973408" rx="5" ry="5" fill="white" />
    <rect width="8" height="126.22950436647318" x="1441" y="136.8852478167634" rx="5" ry="5" fill="white" />
    <rect width="8" height="124.96386281824981" x="1451" y="137.5180685908751" rx="5" ry="5" fill="white" />
    <rect width="8" height="125.75149442521966" x="1461" y="137.12425278739016" rx="5" ry="5" fill="white" />
    <rect width="8" height="121.90857597133133" x="1471" y="139.04571201433433" rx="5" ry="5" fill="white" />
    <rect width="8" height="125.53969329896964" x="1481" y="137.2301533505152" rx="5" ry="5" fill="white" />
    <rect width="8" height="120.99386435864415" x="1491" y="139.50306782067793" rx="5" ry="5" fill="white" />
    <rect width="8" height="125.2346176679616" x="1501" y="137.38269116601919" rx="5" ry="5" fill="white" />
    <rect width="8" height="121.9650745128661" x="1511" y="139.01746274356697" rx="5" ry="5" fill="white" />
    <rect width="8" height="122.10515530946854" x="1521" y="138.94742234526572" rx="5" ry="5" fill="white" />
    <rect width="8" height="133.401653268782" x="1531" y="133.299173365609" rx="5" ry="5" fill="white" />
    <rect width="8" height="120.60110052834747" x="1541" y="139.69944973582625" rx="5" ry="5" fill="white" />
    <rect width="8" height="118.7817141857626" x="1551" y="140.6091429071187" rx="5" ry="5" fill="white" />
    <rect width="8" height="125.1428669850976" x="1561" y="137.4285665074512" rx="5" ry="5" fill="white" />
    <rect width="8" height="106.12598544729812" x="1571" y="146.93700727635093" rx="5" ry="5" fill="white" />
    <rect width="8" height="95.91619783685839" x="1581" y="152.0419010815708" rx="5" ry="5" fill="white" />
    <rect width="8" height="85.16974342402763" x="1591" y="157.4151282879862" rx="5" ry="5" fill="white" />
    <rect width="8" height="81.03976069692295" x="1601" y="159.48011965153853" rx="5" ry="5" fill="white" />
    <rect width="8" height="76.31015340805983" x="1611" y="161.8449232959701" rx="5" ry="5" fill="white" />
    <rect width="8" height="76.0530849780934" x="1621" y="161.9734575109533" rx="5" ry="5" fill="white" />
    <rect width="8" height="75.89724978745419" x="1631" y="162.0513751062729" rx="5" ry="5" fill="white" />
    <rect width="8" height="67.71625778731362" x="1641" y="166.1418711063432" rx="5" ry="5" fill="white" />
    <rect width="8" height="106.28383629922126" x="1651" y="146.85808185038937" rx="5" ry="5" fill="white" />
    <rect width="8" height="101.4189637116638" x="1661" y="149.2905181441681" rx="5" ry="5" fill="white" />
    <rect width="8" height="101.26696969519679" x="1671" y="149.3665151524016" rx="5" ry="5" fill="white" />
    <rect width="8" height="96.97881911599572" x="1681" y="151.51059044200213" rx="5" ry="5" fill="white" />
    <rect width="8" height="92.29866924710139" x="1691" y="153.8506653764493" rx="5" ry="5" fill="white" />
    <rect width="8" height="90.01329494757209" x="1701" y="154.99335252621395" rx="5" ry="5" fill="white" />
    <rect width="8" height="89.05626904344328" x="1711" y="155.47186547827835" rx="5" ry="5" fill="white" />
    <rect width="8" height="88.22550033565314" x="1721" y="155.88724983217344" rx="5" ry="5" fill="white" />
    <rect width="8" height="86.60194377476913" x="1731" y="156.69902811261545" rx="5" ry="5" fill="white" />
    <rect width="8" height="73.77107043399778" x="1741" y="163.1144647830011" rx="5" ry="5" fill="white" />
    <rect width="8" height="79.72968868331246" x="1751" y="160.13515565834376" rx="5" ry="5" fill="white" />
    <rect width="8" height="72.1184491502041" x="1761" y="163.94077542489794" rx="5" ry="5" fill="white" />
    <rect width="8" height="69.89533716122979" x="1771" y="165.0523314193851" rx="5" ry="5" fill="white" />
    <rect width="8" height="54.98130386222096" x="1781" y="172.50934806888952" rx="5" ry="5" fill="white" />
    <rect width="8" height="50.60760035304494" x="1791" y="174.69619982347754" rx="5" ry="5" fill="white" />
    <rect width="8" height="54.62737080221226" x="1801" y="172.68631459889386" rx="5" ry="5" fill="white" />
    <rect width="8" height="46.451293563902695" x="1811" y="176.77435321804865" rx="5" ry="5" fill="white" />
    <rect width="8" height="53.106382578986135" x="1821" y="173.44680871050693" rx="5" ry="5" fill="white" />
    <rect width="8" height="45.27836349208047" x="1831" y="177.36081825395976" rx="5" ry="5" fill="white" />
    <rect width="8" height="33.45014894167188" x="1841" y="183.27492552916405" rx="5" ry="5" fill="white" />
    <rect width="8" height="42.96469836961801" x="1851" y="178.517650815191" rx="5" ry="5" fill="white" />
    <rect width="8" height="53.57903645141862" x="1861" y="173.21048177429068" rx="5" ry="5" fill="white" />
    <rect width="8" height="24.022614649421453" x="1871" y="187.9886926752893" rx="5" ry="5" fill="white" />
    <rect width="8" height="30.24078244644293" x="1881" y="184.87960877677853" rx="5" ry="5" fill="white" />
    <rect width="8" height="24.45402438801942" x="1891" y="187.77298780599028" rx="5" ry="5" fill="white" />
    <rect width="8" height="18.642359653390745" x="1901" y="190.67882017330462" rx="5" ry="5" fill="white" />
    <rect width="8" height="12.269432260554693" x="1911" y="193.86528386972265" rx="5" ry="5" fill="white" />
    <rect width="8" height="8" x="1921" y="196" rx="5" ry="5" fill="white" />
    <rect width="8" height="14.055840702756942" x="1931" y="192.97207964862153" rx="5" ry="5" fill="white" />
    <rect width="8" height="11.493609581656429" x="1941" y="194.2531952091718" rx="5" ry="5" fill="white" />
    <rect width="8" height="18.442004606000577" x="1951" y="190.7789976969997" rx="5" ry="5" fill="white" />
    <rect width="8" height="25.672797704326012" x="1961" y="187.163601147837" rx="5" ry="5" fill="white" />
    <rect width="8" height="15.17059566344374" x="1971" y="192.41470216827813" rx="5" ry="5" fill="white" />
    <rect width="8" height="32.01638984942449" x="1981" y="183.99180507528774" rx="5" ry="5" fill="white" />
    <rect width="8" height="22.05407687339714" x="1991" y="188.97296156330142" rx="5" ry="5" fill="white" />
  </g>
</svg>