<svg 
  baseProfile="tiny"
  preserveAspectRatio="keep"
  version="1.2"
  viewBox="0 0 2000.000000 400.000000"
  height="100%" width="100%"
  xmlns="http://www.w3.org/2000/svg"
  xmlns:ev="http://www.w3.org/2001/xml-events"
  xmlns:xlink="http://www.w3.org/1999/xlink"
>
  <g>
    <rect width="8" height="41.04596261096224" x="1" y="179.47701869451888" rx="5" ry="5" fill="white" />
    <rect width="8" height="28.170087370732265" x="11" y="185.91495631463386" rx="5" ry="5" fill="white" />
    <rect width="8" height="39.11960503240299" x="21" y="180.4401974837985" rx="5" ry="5" fill="white" />
    <rect width="8" height="31.27097034133345" x="31" y="184.36451482933327" rx="5" ry="5" fill="white" />
    <rect width="8" height="32.56036644173988" x="41" y="183.71981677913007" rx="5" ry="5" fill="white" />
    <rect width="8" height="29.34305558319923" x="51" y="185.3284722084004" rx="5" ry="5" fill="white" />
    <rect width="8" height="32.9152659090344" x="61" y="183.5423670454828" rx="5" ry="5" fill="white" />
    <rect width="8" height="37.649744008348144" x="71" y="181.17512799582593" rx="5" ry="5" fill="white" />
    <rect width="8" height="35.50978320167459" x="81" y="182.24510839916272" rx="5" ry="5" fill="white" />
    <rect width="8" height="45.91926264288443" x="91" y="177.0403686785578" rx="5" ry="5" fill="white" />
    <rect width="8" height="48.37825019330715" x="101" y="175.81087490334642" rx="5" ry="5" fill="white" />
    <rect width="8" height="44.187171686394144" x="111" y="177.90641415680292" rx="5" ry="5" fill="white" />
    <rect width="8" height="40.700576234498484" x="121" y="179.64971188275075" rx="5" ry="5" fill="white" />
    <rect width="8" height="58.002061931272266" x="131" y="170.99896903436388" rx="5" ry="5" fill="white" />
    <rect width="8" height="43.204576579463506" x="141" y="178.39771171026825" rx="5" ry="5" fill="white" />
    <rect width="8" height="53.845031878875204" x="151" y="173.0774840605624" rx="5" ry="5" fill="white" />
    <rect width="8" height="33.437514130186386" x="161" y="183.2812429349068" rx="5" ry="5" fill="white" />
    <rect width="8" height="82.67581449950562" x="171" y="158.66209275024718" rx="5" ry="5" fill="white" />
    <rect width="8" height="97.2426741217551" x="181" y="151.37866293912245" rx="5" ry="5" fill="white" />
    <rect width="8" height="94.11574340302384" x="191" y="152.9421282984881" rx="5" ry="5" fill="white" />
    <rect width="8" height="103.30034436008233" x="201" y="148.34982781995882" rx="5" ry="5" fill="white" />
    <rect width="8" height="111.0334658350219" x="211" y="144.48326708248905" rx="5" ry="5" fill="white" />
    <rect width="8" height="111.87816562137527" x="221" y="144.06091718931236" rx="5" ry="5" fill="white" />
    <rect width="8" height="121.99095779655286" x="231" y="139.00452110172358" rx="5" ry="5" fill="white" />
    <rect width="8" height="106.86548618385243" x="241" y="146.56725690807377" rx="5" ry="5" fill="white" />
    <rect width="8" height="140.96918822951844" x="251" y="129.5154058852408" rx="5" ry="5" fill="white" />
    <rect width="8" height="106.41594071600716" x="261" y="146.7920296419964" rx="5" ry="5" fill="white" />
    <rect width="8" height="124.28356305338666" x="271" y="137.85821847330666" rx="5" ry="5" fill="white" />
    <rect width="8" height="98.54234315736662" x="281" y="150.72882842131668" rx="5" ry="5" fill="white" />
    <rect width="8" height="106.6596365806768" x="291" y="146.6701817096616" rx="5" ry="5" fill="white" />
    <rect width="8" height="102.30269715049351" x="301" y="148.84865142475326" rx="5" ry="5" fill="white" />
    <rect width="8" height="96.88529735802207" x="311" y="151.55735132098897" rx="5" ry="5" fill="white" />
    <rect width="8" height="94.11851442733543" x="321" y="152.9407427863323" rx="5" ry="5" fill="white" />
    <rect width="8" height="92.70088542927998" x="331" y="153.64955728536" rx="5" ry="5" fill="white" />
    <rect width="8" height="71.96811364310973" x="341" y="164.01594317844513" rx="5" ry="5" fill="white" />
    <rect width="8" height="100.19492717939352" x="351" y="149.90253641030324" rx="5" ry="5" fill="white" />
    <rect width="8" height="102.70153381797202" x="361" y="148.649233091014" rx="5" ry="5" fill="white" />
    <rect width="8" height="101.98283077211403" x="371" y="149.008584613943" rx="5" ry="5" fill="white" />
    <rect width="8" height="122.41363749203589" x="381" y="138.79318125398206" rx="5" ry="5" fill="white" />
    <rect width="8" height="102.46458077229393" x="391" y="148.76770961385304" rx="5" ry="5" fill="white" />
    <rect width="8" height="121.05472604619085" x="401" y="139.47263697690457" rx="5" ry="5" fill="white" />
    <rect width="8" height="94.50357852296007" x="411" y="152.74821073851996" rx="5" ry="5" fill="white" />
    <rect width="8" height="127.35414051020145" x="421" y="136.32292974489928" rx="5" ry="5" fill="white" />
    <rect width="8" height="77.68459512666863" x="431" y="161.1577024366657" rx="5" ry="5" fill="white" />
    <rect width="8" height="95.259651908352" x="441" y="152.370174045824" rx="5" ry="5" fill="white" />
    <rect width="8" height="102.86318632303362" x="451" y="148.56840683848318" rx="5" ry="5" fill="white" />
    <rect width="8" height="103.76261584230784" x="461" y="148.1186920788461" rx="5" ry="5" fill="white" />
    <rect width="8" height="96.3607199850569" x="471" y="151.81964000747155" rx="5" ry="5" fill="white" />
    <rect width="8" height="69.54801380172438" x="481" y="165.2259930991378" rx="5" ry="5" fill="white" />
    <rect width="8" height="72.48654240226242" x="491" y="163.75672879886878" rx="5" ry="5" fill="white" />
    <rect width="8" height="62.89347839348434" x="501" y="168.55326080325784" rx="5" ry="5" fill="white" />
    <rect width="8" height="83.29691132221785" x="511" y="158.35154433889107" rx="5" ry="5" fill="white" />
    <rect width="8" height="77.29466434943258" x="521" y="161.3526678252837" rx="5" ry="5" fill="white" />
    <rect width="8" height="87.22424104982332" x="531" y="156.38787947508834" rx="5" ry="5" fill="white" />
    <rect width="8" height="101.66661570619387" x="541" y="149.16669214690307" rx="5" ry="5" fill="white" />
    <rect width="8" height="107.06581287583059" x="551" y="146.4670935620847" rx="5" ry="5" fill="white" />
    <rect width="8" height="113.24565122952028" x="561" y="143.37717438523987" rx="5" ry="5" fill="white" />
    <rect width="8" height="118.09791452496172" x="571" y="140.95104273751915" rx="5" ry="5" fill="white" />
    <rect width="8" height="91.55409700473813" x="581" y="154.22295149763093" rx="5" ry="5" fill="white" />
    <rect width="8" height="136.1213909792552" x="591" y="131.93930451037238" rx="5" ry="5" fill="white" />
    <rect width="8" height="103.61681141159835" x="601" y="148.19159429420083" rx="5" ry="5" fill="white" />
    <rect width="8" height="118.4653668825035" x="611" y="140.76731655874823" rx="5" ry="5" fill="white" />
    <rect width="8" height="112.86647895540864" x="621" y="143.56676052229568" rx="5" ry="5" fill="white" />
    <rect width="8" height="102.57211459153754" x="631" y="148.71394270423121" rx="5" ry="5" fill="white" />
    <rect width="8" height="91.91544670100413" x="641" y="154.04227664949792" rx="5" ry="5" fill="white" />
    <rect width="8" height="87.50389010754928" x="651" y="156.24805494622535" rx="5" ry="5" fill="white" />
    <rect width="8" height="70.71369379983815" x="661" y="164.64315310008092" rx="5" ry="5" fill="white" />
    <rect width="8" height="101.6176754569593" x="671" y="149.19116227152034" rx="5" ry="5" fill="white" />
    <rect width="8" height="90.5819077720435" x="681" y="154.70904611397825" rx="5" ry="5" fill="white" />
    <rect width="8" height="98.97104499235526" x="691" y="150.51447750382238" rx="5" ry="5" fill="white" />
    <rect width="8" height="113.04079567614309" x="701" y="143.47960216192845" rx="5" ry="5" fill="white" />
    <rect width="8" height="106.10509383702605" x="711" y="146.94745308148697" rx="5" ry="5" fill="white" />
    <rect width="8" height="119.76999520999898" x="721" y="140.11500239500052" rx="5" ry="5" fill="white" />
    <rect width="8" height="98.31888957440036" x="731" y="150.8405552127998" rx="5" ry="5" fill="white" />
    <rect width="8" height="133.54115164951412" x="741" y="133.22942417524294" rx="5" ry="5" fill="white" />
    <rect width="8" height="105.66156194436715" x="751" y="147.16921902781644" rx="5" ry="5" fill="white" />
    <rect width="8" height="125.49392307671772" x="761" y="137.25303846164115" rx="5" ry="5" fill="white" />
    <rect width="8" height="115.4617396242086" x="771" y="142.2691301878957" rx="5" ry="5" fill="white" />
    <rect width="8" height="110.04283197317758" x="781" y="144.9785840134112" rx="5" ry="5" fill="white" />
    <rect width="8" height="111.31481619361165" x="791" y="144.34259190319418" rx="5" ry="5" fill="white" />
    <rect width="8" height="104.37078115126795" x="801" y="147.81460942436604" rx="5" ry="5" fill="white" />
    <rect width="8" height="103.582359478074" x="811" y="148.208820260963" rx="5" ry="5" fill="white" />
    <rect width="8" height="93.51538073538629" x="821" y="153.24230963230684" rx="5" ry="5" fill="white" />
    <rect width="8" height="77.73874654517577" x="831" y="161.1306267274121" rx="5" ry="5" fill="white" />
    <rect width="8" height="104.07229773613018" x="841" y="147.96385113193492" rx="5" ry="5" fill="white" />
    <rect width="8" height="103.51020105224504" x="851" y="148.24489947387747" rx="5" ry="5" fill="white" />
    <rect width="8" height="106.52585696975278" x="861" y="146.7370715151236" rx="5" ry="5" fill="white" />
    <rect width="8" height="125.96588084501306" x="871" y="137.01705957749346" rx="5" ry="5" fill="white" />
    <rect width="8" height="105.2599922105976" x="881" y="147.3700038947012" rx="5" ry="5" fill="white" />
    <rect width="8" height="129.83468200623977" x="891" y="135.08265899688013" rx="5" ry="5" fill="white" />
    <rect width="8" height="99.05500067639029" x="901" y="150.47249966180485" rx="5" ry="5" fill="white" />
    <rect width="8" height="139.29912460510744" x="911" y="130.3504376974463" rx="5" ry="5" fill="white" />
    <rect width="8" height="105.33459247908074" x="921" y="147.33270376045962" rx="5" ry="5" fill="white" />
    <rect width="8" height="120.67555929798633" x="931" y="139.66222035100685" rx="5" ry="5" fill="white" />
    <rect width="8" height="116.7413552723331" x="941" y="141.62932236383347" rx="5" ry="5" fill="white" />
    <rect width="8" height="118.74740958369526" x="951" y="140.62629520815238" rx="5" ry="5" fill="white" />
    <rect width="8" height="123.03050077536297" x="961" y="138.48474961231852" rx="5" ry="5" fill="white" />
    <rect width="8" height="115.35267975488559" x="971" y="142.32366012255721" rx="5" ry="5" fill="white" />
    <rect width="8" height="117.434544028235" x="981" y="141.2827279858825" rx="5" ry="5" fill="white" />
    <rect width="8" height="114.62192789391636" x="991" y="142.68903605304183" rx="5" ry="5" fill="white" />
    <rect width="8" height="95.83312652117205" x="1001" y="152.08343673941397" rx="5" ry="5" fill="white" />
    <rect width="8" height="102.57603553241334" x="1011" y="148.71198223379332" rx="5" ry="5" fill="white" />
    <rect width="8" height="119.31812436838133" x="1021" y="140.34093781580933" rx="5" ry="5" fill="white" />
    <rect width="8" height="112.11058603892965" x="1031" y="143.94470698053516" rx="5" ry="5" fill="white" />
    <rect width="8" height="130.63602967621978" x="1041" y="134.6819851618901" rx="5" ry="5" fill="white" />
    <rect width="8" height="106.84092034962009" x="1051" y="146.57953982518995" rx="5" ry="5" fill="white" />
    <rect width="8" height="135.83411799075782" x="1061" y="132.0829410046211" rx="5" ry="5" fill="white" />
    <rect width="8" height="118.08358246131058" x="1071" y="140.9582087693447" rx="5" ry="5" fill="white" />
    <rect width="8" height="136.735938592363" x="1081" y="131.6320307038185" rx="5" ry="5" fill="white" />
    <rect width="8" height="120.14508060981734" x="1091" y="139.92745969509133" rx="5" ry="5" fill="white" />
    <rect width="8" height="119.89741302139316" x="1101" y="140.05129348930342" rx="5" ry="5" fill="white" />
    <rect width="8" height="117.58526014332938" x="1111" y="141.2073699283353" rx="5" ry="5" fill="white" />
    <rect width="8" height="117.34969359586506" x="1121" y="141.32515320206747" rx="5" ry="5" fill="white" />
    <rect width="8" height="109.10108225142994" x="1131" y="145.44945887428503" rx="5" ry="5" fill="white" />
    <rect width="8" height="101.91664381755791" x="1141" y="149.04167809122106" rx="5" ry="5" fill="white" />
    <rect width="8" height="88.18579331585615" x="1151" y="155.90710334207193" rx="5" ry="5" fill="white" />
    <rect width="8" height="110.69286780870327" x="1161" y="144.65356609564836" rx="5" ry="5" fill="white" />
    <rect width="8" height="103.73361110814332" x="1171" y="148.13319444592832" rx="5" ry="5" fill="white" />
    <rect width="8" height="111.43410823481759" x="1181" y="144.2829458825912" rx="5" ry="5" fill="white" />
    <rect width="8" height="122.38205714436651" x="1191" y="138.80897142781674" rx="5" ry="5" fill="white" />
    <rect width="8" height="116.82809051541841" x="1201" y="141.5859547422908" rx="5" ry="5" fill="white" />
    <rect width="8" height="122.18764384321877" x="1211" y="138.9061780783906" rx="5" ry="5" fill="white" />
    <rect width="8" height="108.16230262203436" x="1221" y="145.91884868898282" rx="5" ry="5" fill="white" />
    <rect width="8" height="139.73523776782653" x="1231" y="130.13238111608672" rx="5" ry="5" fill="white" />
    <rect width="8" height="112.43099599405058" x="1241" y="143.7845020029747" rx="5" ry="5" fill="white" />
    <rect width="8" height="129.35372536076324" x="1251" y="135.32313731961838" rx="5" ry="5" fill="white" />
    <rect width="8" height="117.7578339868941" x="1261" y="141.12108300655296" rx="5" ry="5" fill="white" />
    <rect width="8" height="116.59350787078833" x="1271" y="141.70324606460582" rx="5" ry="5" fill="white" />
    <rect width="8" height="117.4201984648053" x="1281" y="141.28990076759735" rx="5" ry="5" fill="white" />
    <rect width="8" height="110.9439134613006" x="1291" y="144.5280432693497" rx="5" ry="5" fill="white" />
    <rect width="8" height="111.03238122634589" x="1301" y="144.48380938682706" rx="5" ry="5" fill="white" />
    <rect width="8" height="110.2725211339362" x="1311" y="144.8637394330319" rx="5" ry="5" fill="white" />
    <rect width="8" height="101.864445581543" x="1321" y="149.0677772092285" rx="5" ry="5" fill="white" />
    <rect width="8" height="119.36312066988873" x="1331" y="140.31843966505562" rx="5" ry="5" fill="white" />
    <rect width="8" height="117.7836880398276" x="1341" y="141.1081559800862" rx="5" ry="5" fill="white" />
    <rect width="8" height="113.19039209738979" x="1351" y="143.4048039513051" rx="5" ry="5" fill="white" />
    <rect width="8" height="131.3917303917687" x="1361" y="134.30413480411565" rx="5" ry="5" fill="white" />
    <rect width="8" height="111.25519358666844" x="1371" y="144.37240320666578" rx="5" ry="5" fill="white" />
    <rect width="8" height="125.42986654134818" x="1381" y="137.2850667293259" rx="5" ry="5" fill="white" />
    <rect width="8" height="103.41868032762042" x="1391" y="148.29065983618977" rx="5" ry="5" fill="white" />
    <rect width="8" height="138.26214560562474" x="1401" y="130.86892719718765" rx="5" ry="5" fill="white" />
    <rect width="8" height="112.91660305880598" x="1411" y="143.541698470597" rx="5" ry="5" fill="white" />
    <rect width="8" height="126.40372661146021" x="1421" y="136.79813669426989" rx="5" ry="5" fill="white" />
    <rect width="8" height="109.17633434713008" x="1431" y="145.41183282643496" rx="5" ry="5" fill="white" />
    <rect width="8" height="111.68010315275635" x="1441" y="144.1599484236218" rx="5" ry="5" fill="white" />
    <rect width="8" height="117.16324314973608" x="1451" y="141.41837842513195" rx="5" ry="5" fill="white" />
    <rect width="8" height="111.46724006205211" x="1461" y="144.26637996897395" rx="5" ry="5" fill="white" />
    <rect width="8" height="101.75649006444232" x="1471" y="149.12175496777883" rx="5" ry="5" fill="white" />
    <rect width="8" height="118.43644528995875" x="1481" y="140.7817773550206" rx="5" ry="5" fill="white" />
    <rect width="8" height="106.66226869279647" x="1491" y="146.66886565360176" rx="5" ry="5" fill="white" />
    <rect width="8" height="116.87384035946305" x="1501" y="141.56307982026848" rx="5" ry="5" fill="white" />
    <rect width="8" height="111.00076156203542" x="1511" y="144.49961921898228" rx="5" ry="5" fill="white" />
    <rect width="8" height="109.46052191763131" x="1521" y="145.26973904118435" rx="5" ry="5" fill="white" />
    <rect width="8" height="128.0504742542106" x="1531" y="135.9747628728947" rx="5" ry="5" fill="white" />
    <rect width="8" height="106.19211974263519" x="1541" y="146.9039401286824" rx="5" ry="5" fill="white" />
    <rect width="8" height="126.79030790215636" x="1551" y="136.60484604892181" rx="5" ry="5" fill="white" />
    <rect width="8" height="117.64834596360036" x="1561" y="141.1758270181998" rx="5" ry="5" fill="white" />
    <rect width="8" height="134.25939533959266" x="1571" y="132.87030233020369" rx="5" ry="5" fill="white" />
    <rect width="8" height="111.09615331222243" x="1581" y="144.45192334388878" rx="5" ry="5" fill="white" />
    <rect width="8" height="122.1575318085588" x="1591" y="138.9212340957206" rx="5" ry="5" fill="white" />
    <rect width="8" height="113.83032082882065" x="1601" y="143.0848395855897" rx="5" ry="5" fill="white" />
    <rect width="8" height="108.66898113729052" x="1611" y="145.66550943135474" rx="5" ry="5" fill="white" />
    <rect width="8" height="101.79330904895194" x="1621" y="149.10334547552404" rx="5" ry="5" fill="white" />
    <rect width="8" height="104.98777752114475" x="1631" y="147.50611123942764" rx="5" ry="5" fill="white" />
    <rect width="8" height="87.71256796051729" x="1641" y="156.14371601974136" rx="5" ry="5" fill="white" />
    <rect width="8" height="109.02491701503156" x="1651" y="145.4875414924842" rx="5" ry="5" fill="white" />
    <rect width="8" height="99.41449824709284" x="1661" y="150.29275087645357" rx="5" ry="5" fill="white" />
    <rect width="8" height="106.24608052678815" x="1671" y="146.87695973660593" rx="5" ry="5" fill="white" />
    <rect width="8" height="121.92608072573947" x="1681" y="139.03695963713028" rx="5" ry="5" fill="white" />
    <rect width="8" height="110.50152091521039" x="1691" y="144.7492395423948" rx="5" ry="5" fill="white" />
    <rect width="8" height="122.32535283501038" x="1701" y="138.8373235824948" rx="5" ry="5" fill="white" />
    <rect width="8" height="97.45486419542769" x="1711" y="151.27256790228614" rx="5" ry="5" fill="white" />
    <rect width="8" height="140.4253975184885" x="1721" y="129.78730124075577" rx="5" ry="5" fill="white" />
    <rect width="8" height="110.75252510672082" x="1731" y="144.62373744663958" rx="5" ry="5" fill="white" />
    <rect width="8" height="129.1082614384617" x="1741" y="135.44586928076916" rx="5" ry="5" fill="white" />
    <rect width="8" height="110.17661637496758" x="1751" y="144.9116918125162" rx="5" ry="5" fill="white" />
    <rect width="8" height="107.69379496016552" x="1761" y="146.15310251991724" rx="5" ry="5" fill="white" />
    <rect width="8" height="113.22001777643655" x="1771" y="143.38999111178174" rx="5" ry="5" fill="white" />
    <rect width="8" height="103.46685239442246" x="1781" y="148.26657380278877" rx="5" ry="5" fill="white" />
    <rect width="8" height="93.43335805903361" x="1791" y="153.2833209704832" rx="5" ry="5" fill="white" />
    <rect width="8" height="81.02184286831726" x="1801" y="159.48907856584137" rx="5" ry="5" fill="white" />
    <rect width="8" height="89.65585104295678" x="1811" y="155.1720744785216" rx="5" ry="5" fill="white" />
    <rect width="8" height="79.46240969087609" x="1821" y="160.26879515456196" rx="5" ry="5" fill="white" />
    <rect width="8" height="116.95737272580133" x="1831" y="141.52131363709933" rx="5" ry="5" fill="white" />
    <rect width="8" height="101.61769539670186" x="1841" y="149.19115230164908" rx="5" ry="5" fill="white" />
    <rect width="8" height="98.7768372889689" x="1851" y="150.61158135551554" rx="5" ry="5" fill="white" />
    <rect width="8" height="75.73266599094156" x="1861" y="162.13366700452923" rx="5" ry="5" fill="white" />
    <rect width="8" height="74.69320969233397" x="1871" y="162.653395153833" rx="5" ry="5" fill="white" />
    <rect width="8" height="83.48107905227248" x="1881" y="158.25946047386375" rx="5" ry="5" fill="white" />
    <rect width="8" height="83.71368086935385" x="1891" y="158.14315956532306" rx="5" ry="5" fill="white" />
    <rect width="8" height="78.17880094910906" x="1901" y="160.91059952544546" rx="5" ry="5" fill="white" />
    <rect width="8" height="57.24330152352827" x="1911" y="171.37834923823587" rx="5" ry="5" fill="white" />
    <rect width="8" height="86.15375763972004" x="1921" y="156.92312118014" rx="5" ry="5" fill="white" />
    <rect width="8" height="95.15992091419183" x="1931" y="152.42003954290408" rx="5" ry="5" fill="white" />
    <rect width="8" height="102.36408354962809" x="1941" y="148.81795822518595" rx="5" ry="5" fill="white" />
    <rect width="8" height="72.96172699326446" x="1951" y="163.51913650336778" rx="5" ry="5" fill="white" />
    <rect width="8" height="46.37802355576734" x="1961" y="176.81098822211632" rx="5" ry="5" fill="white" />
    <rect width="8" height="28.674780530898442" x="1971" y="185.66260973455078" rx="5" ry="5" fill="white" />
    <rect width="8" height="21.32087555304078" x="1981" y="189.33956222347962" rx="5" ry="5" fill="white" />
    <rect width="8" height="21.367536116405695" x="1991" y="189.31623194179716" rx="5" ry="5" fill="white" />
  </g>
</svg>