<svg 
  baseProfile="tiny"
  preserveAspectRatio="keep"
  version="1.2"
  viewBox="0 0 2000.000000 400.000000"
  height="100%" width="100%"
  xmlns="http://www.w3.org/2000/svg"
  xmlns:ev="http://www.w3.org/2001/xml-events"
  xmlns:xlink="http://www.w3.org/1999/xlink"
>
  <g>
    <rect width="8" height="30.048168938982737" x="1" y="184.97591553050864" rx="5" ry="5" fill="white" />
    <rect width="8" height="40.85896870829737" x="11" y="179.57051564585132" rx="5" ry="5" fill="white" />
    <rect width="8" height="40.86852039775702" x="21" y="179.56573980112148" rx="5" ry="5" fill="white" />
    <rect width="8" height="32.446657384409455" x="31" y="183.77667130779528" rx="5" ry="5" fill="white" />
    <rect width="8" height="42.490207522523335" x="41" y="178.75489623873833" rx="5" ry="5" fill="white" />
    <rect width="8" height="34.25698305954353" x="51" y="182.87150847022824" rx="5" ry="5" fill="white" />
    <rect width="8" height="47.413881978524394" x="61" y="176.2930590107378" rx="5" ry="5" fill="white" />
    <rect width="8" height="133.58297754217966" x="71" y="133.20851122891017" rx="5" ry="5" fill="white" />
    <rect width="8" height="152.55131907746133" x="81" y="123.72434046126934" rx="5" ry="5" fill="white" />
    <rect width="8" height="130.73180182124412" x="91" y="134.63409908937794" rx="5" ry="5" fill="white" />
    <rect width="8" height="140.73720279729181" x="101" y="129.63139860135408" rx="5" ry="5" fill="white" />
    <rect width="8" height="139.39264625716535" x="111" y="130.30367687141734" rx="5" ry="5" fill="white" />
    <rect width="8" height="140.7325629862052" x="121" y="129.6337185068974" rx="5" ry="5" fill="white" />
    <rect width="8" height="144.39769357623027" x="131" y="127.80115321188487" rx="5" ry="5" fill="white" />
    <rect width="8" height="142.26712212135953" x="141" y="128.86643893932023" rx="5" ry="5" fill="white" />
    <rect width="8" height="126.94772227640725" x="151" y="136.52613886179637" rx="5" ry="5" fill="white" />
    <rect width="8" height="129.42276938678617" x="161" y="135.2886153066069" rx="5" ry="5" fill="white" />
    <rect width="8" height="124.33163048670856" x="171" y="137.83418475664573" rx="5" ry="5" fill="white" />
    <rect width="8" height="123.92394103020553" x="181" y="138.03802948489724" rx="5" ry="5" fill="white" />
    <rect width="8" height="133.1023598735291" x="191" y="133.44882006323544" rx="5" ry="5" fill="white" />
    <rect width="8" height="124.89170267394289" x="201" y="137.55414866302857" rx="5" ry="5" fill="white" />
    <rect width="8" height="126.15842446541463" x="211" y="136.9207877672927" rx="5" ry="5" fill="white" />
    <rect width="8" height="119.206950174781" x="221" y="140.3965249126095" rx="5" ry="5" fill="white" />
    <rect width="8" height="126.70657352243819" x="231" y="136.6467132387809" rx="5" ry="5" fill="white" />
    <rect width="8" height="125.26635422093646" x="241" y="137.36682288953176" rx="5" ry="5" fill="white" />
    <rect width="8" height="138.27514814427087" x="251" y="130.86242592786456" rx="5" ry="5" fill="white" />
    <rect width="8" height="134.13846255028318" x="261" y="132.9307687248584" rx="5" ry="5" fill="white" />
    <rect width="8" height="123.71705287608745" x="271" y="138.14147356195627" rx="5" ry="5" fill="white" />
    <rect width="8" height="126.32777944607092" x="281" y="136.83611027696455" rx="5" ry="5" fill="white" />
    <rect width="8" height="129.50185178918113" x="291" y="135.24907410540942" rx="5" ry="5" fill="white" />
    <rect width="8" height="128.97685046357927" x="301" y="135.51157476821038" rx="5" ry="5" fill="white" />
    <rect width="8" height="123.8976949178391" x="311" y="138.05115254108046" rx="5" ry="5" fill="white" />
    <rect width="8" height="128.23850782880828" x="321" y="135.88074608559586" rx="5" ry="5" fill="white" />
    <rect width="8" height="129.21692145310436" x="331" y="135.39153927344782" rx="5" ry="5" fill="white" />
    <rect width="8" height="123.99498232454202" x="341" y="138.00250883772898" rx="5" ry="5" fill="white" />
    <rect width="8" height="124.34780273068182" x="351" y="137.8260986346591" rx="5" ry="5" fill="white" />
    <rect width="8" height="131.23100039680773" x="361" y="134.38449980159612" rx="5" ry="5" fill="white" />
    <rect width="8" height="128.05474619553107" x="371" y="135.97262690223448" rx="5" ry="5" fill="white" />
    <rect width="8" height="121.55023511763787" x="381" y="139.22488244118108" rx="5" ry="5" fill="white" />
    <rect width="8" height="124.738414580986" x="391" y="137.630792709507" rx="5" ry="5" fill="white" />
    <rect width="8" height="123.0853901936366" x="401" y="138.4573049031817" rx="5" ry="5" fill="white" />
    <rect width="8" height="117.94874221538791" x="411" y="141.02562889230603" rx="5" ry="5" fill="white" />
    <rect width="8" height="105.38386265981674" x="421" y="147.30806867009164" rx="5" ry="5" fill="white" />
    <rect width="8" height="104.52425697074605" x="431" y="147.737871514627" rx="5" ry="5" fill="white" />
    <rect width="8" height="107.01455802119355" x="441" y="146.4927209894032" rx="5" ry="5" fill="white" />
    <rect width="8" height="117.56385290462556" x="451" y="141.21807354768723" rx="5" ry="5" fill="white" />
    <rect width="8" height="112.82358839390385" x="461" y="143.58820580304808" rx="5" ry="5" fill="white" />
    <rect width="8" height="121.18096176481845" x="471" y="139.40951911759078" rx="5" ry="5" fill="white" />
    <rect width="8" height="118.18990859550406" x="481" y="140.90504570224797" rx="5" ry="5" fill="white" />
    <rect width="8" height="112.7934119334344" x="491" y="143.6032940332828" rx="5" ry="5" fill="white" />
    <rect width="8" height="117.69167888566294" x="501" y="141.15416055716852" rx="5" ry="5" fill="white" />
    <rect width="8" height="120.30298380952725" x="511" y="139.84850809523638" rx="5" ry="5" fill="white" />
    <rect width="8" height="123.04625816191887" x="521" y="138.47687091904055" rx="5" ry="5" fill="white" />
    <rect width="8" height="113.20253222523482" x="531" y="143.3987338873826" rx="5" ry="5" fill="white" />
    <rect width="8" height="116.24546243295173" x="541" y="141.87726878352413" rx="5" ry="5" fill="white" />
    <rect width="8" height="106.38785367567797" x="551" y="146.806073162161" rx="5" ry="5" fill="white" />
    <rect width="8" height="117.43532842452007" x="561" y="141.28233578773995" rx="5" ry="5" fill="white" />
    <rect width="8" height="114.94706438807225" x="571" y="142.52646780596388" rx="5" ry="5" fill="white" />
    <rect width="8" height="121.89970467827393" x="581" y="139.05014766086305" rx="5" ry="5" fill="white" />
    <rect width="8" height="120.27691447708865" x="591" y="139.86154276145567" rx="5" ry="5" fill="white" />
    <rect width="8" height="114.51702794976705" x="601" y="142.74148602511647" rx="5" ry="5" fill="white" />
    <rect width="8" height="116.42667173125318" x="611" y="141.7866641343734" rx="5" ry="5" fill="white" />
    <rect width="8" height="120.03520373590497" x="621" y="139.9823981320475" rx="5" ry="5" fill="white" />
    <rect width="8" height="120.92913549112309" x="631" y="139.53543225443846" rx="5" ry="5" fill="white" />
    <rect width="8" height="114.9912461381015" x="641" y="142.50437693094926" rx="5" ry="5" fill="white" />
    <rect width="8" height="117.742241179418" x="651" y="141.128879410291" rx="5" ry="5" fill="white" />
    <rect width="8" height="110.48384229430744" x="661" y="144.75807885284627" rx="5" ry="5" fill="white" />
    <rect width="8" height="118.4786592661643" x="671" y="140.76067036691785" rx="5" ry="5" fill="white" />
    <rect width="8" height="114.49040199946168" x="681" y="142.75479900026914" rx="5" ry="5" fill="white" />
    <rect width="8" height="121.73954354189391" x="691" y="139.13022822905305" rx="5" ry="5" fill="white" />
    <rect width="8" height="114.81330174787034" x="701" y="142.59334912606482" rx="5" ry="5" fill="white" />
    <rect width="8" height="115.97089714436954" x="711" y="142.01455142781523" rx="5" ry="5" fill="white" />
    <rect width="8" height="120.86110708616702" x="721" y="139.5694464569165" rx="5" ry="5" fill="white" />
    <rect width="8" height="121.40942458932693" x="731" y="139.29528770533653" rx="5" ry="5" fill="white" />
    <rect width="8" height="122.75033142299476" x="741" y="138.62483428850263" rx="5" ry="5" fill="white" />
    <rect width="8" height="118.01664492340238" x="751" y="140.9916775382988" rx="5" ry="5" fill="white" />
    <rect width="8" height="122.43098011974985" x="761" y="138.78450994012508" rx="5" ry="5" fill="white" />
    <rect width="8" height="112.0297565946905" x="771" y="143.98512170265474" rx="5" ry="5" fill="white" />
    <rect width="8" height="120.29101962782991" x="781" y="139.85449018608506" rx="5" ry="5" fill="white" />
    <rect width="8" height="114.39913111677352" x="791" y="142.80043444161325" rx="5" ry="5" fill="white" />
    <rect width="8" height="117.4303300136101" x="801" y="141.28483499319495" rx="5" ry="5" fill="white" />
    <rect width="8" height="113.79605863056359" x="811" y="143.1019706847182" rx="5" ry="5" fill="white" />
    <rect width="8" height="117.28389204505407" x="821" y="141.35805397747296" rx="5" ry="5" fill="white" />
    <rect width="8" height="118.77121790383727" x="831" y="140.61439104808136" rx="5" ry="5" fill="white" />
    <rect width="8" height="123.7116988829334" x="841" y="138.14415055853328" rx="5" ry="5" fill="white" />
    <rect width="8" height="124.14230004322219" x="851" y="137.9288499783889" rx="5" ry="5" fill="white" />
    <rect width="8" height="116.05155224405107" x="861" y="141.97422387797445" rx="5" ry="5" fill="white" />
    <rect width="8" height="119.50148951457224" x="871" y="140.24925524271387" rx="5" ry="5" fill="white" />
    <rect width="8" height="121.59293685949335" x="881" y="139.20353157025332" rx="5" ry="5" fill="white" />
    <rect width="8" height="122.69803214983928" x="891" y="138.65098392508037" rx="5" ry="5" fill="white" />
    <rect width="8" height="113.02592359948504" x="901" y="143.48703820025747" rx="5" ry="5" fill="white" />
    <rect width="8" height="120.95407204751933" x="911" y="139.52296397624033" rx="5" ry="5" fill="white" />
    <rect width="8" height="116.80101380394574" x="921" y="141.59949309802712" rx="5" ry="5" fill="white" />
    <rect width="8" height="116.25022761769365" x="931" y="141.87488619115317" rx="5" ry="5" fill="white" />
    <rect width="8" height="123.06484814714283" x="941" y="138.4675759264286" rx="5" ry="5" fill="white" />
    <rect width="8" height="115.63726785099415" x="951" y="142.18136607450293" rx="5" ry="5" fill="white" />
    <rect width="8" height="120.30012079423464" x="961" y="139.84993960288267" rx="5" ry="5" fill="white" />
    <rect width="8" height="118.19551035166637" x="971" y="140.90224482416681" rx="5" ry="5" fill="white" />
    <rect width="8" height="127.24903487431148" x="981" y="136.37548256284427" rx="5" ry="5" fill="white" />
    <rect width="8" height="117.37289208109895" x="991" y="141.31355395945053" rx="5" ry="5" fill="white" />
    <rect width="8" height="112.0884149877343" x="1001" y="143.95579250613287" rx="5" ry="5" fill="white" />
    <rect width="8" height="104.91025673951513" x="1011" y="147.54487163024243" rx="5" ry="5" fill="white" />
    <rect width="8" height="129.0774025593823" x="1021" y="135.46129872030883" rx="5" ry="5" fill="white" />
    <rect width="8" height="107.6611824569718" x="1031" y="146.1694087715141" rx="5" ry="5" fill="white" />
    <rect width="8" height="112.82952121222682" x="1041" y="143.58523939388658" rx="5" ry="5" fill="white" />
    <rect width="8" height="126.42709821424609" x="1051" y="136.78645089287696" rx="5" ry="5" fill="white" />
    <rect width="8" height="126.67761667710099" x="1061" y="136.6611916614495" rx="5" ry="5" fill="white" />
    <rect width="8" height="124.60566144214988" x="1071" y="137.69716927892506" rx="5" ry="5" fill="white" />
    <rect width="8" height="116.01331229425142" x="1081" y="141.9933438528743" rx="5" ry="5" fill="white" />
    <rect width="8" height="124.12310238303104" x="1091" y="137.93844880848448" rx="5" ry="5" fill="white" />
    <rect width="8" height="118.75477439060246" x="1101" y="140.62261280469878" rx="5" ry="5" fill="white" />
    <rect width="8" height="118.43023438526463" x="1111" y="140.7848828073677" rx="5" ry="5" fill="white" />
    <rect width="8" height="115.62438894346528" x="1121" y="142.18780552826735" rx="5" ry="5" fill="white" />
    <rect width="8" height="119.90008991065615" x="1131" y="140.04995504467192" rx="5" ry="5" fill="white" />
    <rect width="8" height="117.42852405216398" x="1141" y="141.285737973918" rx="5" ry="5" fill="white" />
    <rect width="8" height="117.05065670076418" x="1151" y="141.4746716496179" rx="5" ry="5" fill="white" />
    <rect width="8" height="83.8329953693082" x="1161" y="158.0835023153459" rx="5" ry="5" fill="white" />
    <rect width="8" height="124.67599246947097" x="1171" y="137.6620037652645" rx="5" ry="5" fill="white" />
    <rect width="8" height="119.56069036094028" x="1181" y="140.21965481952986" rx="5" ry="5" fill="white" />
    <rect width="8" height="110.20396054020276" x="1191" y="144.89801972989864" rx="5" ry="5" fill="white" />
    <rect width="8" height="116.65415332548943" x="1201" y="141.67292333725527" rx="5" ry="5" fill="white" />
    <rect width="8" height="119.53972216009412" x="1211" y="140.23013891995294" rx="5" ry="5" fill="white" />
    <rect width="8" height="121.25519903650628" x="1221" y="139.37240048174687" rx="5" ry="5" fill="white" />
    <rect width="8" height="107.63460575220716" x="1231" y="146.18269712389642" rx="5" ry="5" fill="white" />
    <rect width="8" height="119.6675234822153" x="1241" y="140.16623825889235" rx="5" ry="5" fill="white" />
    <rect width="8" height="108.4522153495807" x="1251" y="145.77389232520966" rx="5" ry="5" fill="white" />
    <rect width="8" height="117.44525646723804" x="1261" y="141.27737176638098" rx="5" ry="5" fill="white" />
    <rect width="8" height="111.55456764391849" x="1271" y="144.22271617804074" rx="5" ry="5" fill="white" />
    <rect width="8" height="120.15434762035564" x="1281" y="139.9228261898222" rx="5" ry="5" fill="white" />
    <rect width="8" height="119.37608770308468" x="1291" y="140.31195614845765" rx="5" ry="5" fill="white" />
    <rect width="8" height="109.70043541728036" x="1301" y="145.14978229135983" rx="5" ry="5" fill="white" />
    <rect width="8" height="119.95870509718274" x="1311" y="140.02064745140862" rx="5" ry="5" fill="white" />
    <rect width="8" height="118.8392180539828" x="1321" y="140.5803909730086" rx="5" ry="5" fill="white" />
    <rect width="8" height="121.98438412413246" x="1331" y="139.00780793793376" rx="5" ry="5" fill="white" />
    <rect width="8" height="112.19395123119833" x="1341" y="143.90302438440085" rx="5" ry="5" fill="white" />
    <rect width="8" height="119.24733523918827" x="1351" y="140.37633238040587" rx="5" ry="5" fill="white" />
    <rect width="8" height="108.20766755370201" x="1361" y="145.896166223149" rx="5" ry="5" fill="white" />
    <rect width="8" height="117.93239481308942" x="1371" y="141.03380259345528" rx="5" ry="5" fill="white" />
    <rect width="8" height="114.87044606378625" x="1381" y="142.56477696810688" rx="5" ry="5" fill="white" />
    <rect width="8" height="122.26591145497162" x="1391" y="138.8670442725142" rx="5" ry="5" fill="white" />
    <rect width="8" height="116.45582150016993" x="1401" y="141.77208924991504" rx="5" ry="5" fill="white" />
    <rect width="8" height="124.20689521589172" x="1411" y="137.89655239205413" rx="5" ry="5" fill="white" />
    <rect width="8" height="118.89942468621773" x="1421" y="140.55028765689113" rx="5" ry="5" fill="white" />
    <rect width="8" height="115.27089624160753" x="1431" y="142.36455187919623" rx="5" ry="5" fill="white" />
    <rect width="8" height="115.87811321248722" x="1441" y="142.0609433937564" rx="5" ry="5" fill="white" />
    <rect width="8" height="112.72056427914387" x="1451" y="143.63971786042805" rx="5" ry="5" fill="white" />
    <rect width="8" height="117.9659869195594" x="1461" y="141.0170065402203" rx="5" ry="5" fill="white" />
    <rect width="8" height="109.49350648153049" x="1471" y="145.25324675923474" rx="5" ry="5" fill="white" />
    <rect width="8" height="120.81892256449578" x="1481" y="139.5905387177521" rx="5" ry="5" fill="white" />
    <rect width="8" height="114.3963227122903" x="1491" y="142.80183864385486" rx="5" ry="5" fill="white" />
    <rect width="8" height="121.40868931498542" x="1501" y="139.2956553425073" rx="5" ry="5" fill="white" />
    <rect width="8" height="118.32861078627914" x="1511" y="140.83569460686044" rx="5" ry="5" fill="white" />
    <rect width="8" height="113.58549267214255" x="1521" y="143.20725366392873" rx="5" ry="5" fill="white" />
    <rect width="8" height="117.55499188607064" x="1531" y="141.22250405696468" rx="5" ry="5" fill="white" />
    <rect width="8" height="119.8912239839091" x="1541" y="140.05438800804546" rx="5" ry="5" fill="white" />
    <rect width="8" height="116.90905809467525" x="1551" y="141.54547095266238" rx="5" ry="5" fill="white" />
    <rect width="8" height="121.31341086969255" x="1561" y="139.3432945651537" rx="5" ry="5" fill="white" />
    <rect width="8" height="125.7397396105536" x="1571" y="137.1301301947232" rx="5" ry="5" fill="white" />
    <rect width="8" height="112.16112156832632" x="1581" y="143.91943921583683" rx="5" ry="5" fill="white" />
    <rect width="8" height="115.3118955174415" x="1591" y="142.34405224127926" rx="5" ry="5" fill="white" />
    <rect width="8" height="113.60645818997273" x="1601" y="143.19677090501364" rx="5" ry="5" fill="white" />
    <rect width="8" height="72.38039486338151" x="1611" y="163.80980256830924" rx="5" ry="5" fill="white" />
    <rect width="8" height="62.370218974552316" x="1621" y="168.81489051272385" rx="5" ry="5" fill="white" />
    <rect width="8" height="51.84174819499938" x="1631" y="174.07912590250032" rx="5" ry="5" fill="white" />
    <rect width="8" height="53.77866335447594" x="1641" y="173.11066832276202" rx="5" ry="5" fill="white" />
    <rect width="8" height="51.791224476704166" x="1651" y="174.10438776164793" rx="5" ry="5" fill="white" />
    <rect width="8" height="49.565932524569305" x="1661" y="175.21703373771535" rx="5" ry="5" fill="white" />
    <rect width="8" height="39.489412569543646" x="1671" y="180.25529371522816" rx="5" ry="5" fill="white" />
    <rect width="8" height="37.23156638628583" x="1681" y="181.3842168068571" rx="5" ry="5" fill="white" />
    <rect width="8" height="39.33937277143079" x="1691" y="180.3303136142846" rx="5" ry="5" fill="white" />
    <rect width="8" height="46.73669956805841" x="1701" y="176.6316502159708" rx="5" ry="5" fill="white" />
    <rect width="8" height="48.23405046774361" x="1711" y="175.8829747661282" rx="5" ry="5" fill="white" />
    <rect width="8" height="45.17202145487267" x="1721" y="177.41398927256367" rx="5" ry="5" fill="white" />
    <rect width="8" height="47.09467431755467" x="1731" y="176.45266284122266" rx="5" ry="5" fill="white" />
    <rect width="8" height="42.25404350599531" x="1741" y="178.87297824700235" rx="5" ry="5" fill="white" />
    <rect width="8" height="44.30279699530792" x="1751" y="177.84860150234604" rx="5" ry="5" fill="white" />
    <rect width="8" height="50.42531611441095" x="1761" y="174.7873419427945" rx="5" ry="5" fill="white" />
    <rect width="8" height="50.04829040806031" x="1771" y="174.97585479596984" rx="5" ry="5" fill="white" />
    <rect width="8" height="46.68780961832485" x="1781" y="176.65609519083756" rx="5" ry="5" fill="white" />
    <rect width="8" height="40.78692500537729" x="1791" y="179.60653749731136" rx="5" ry="5" fill="white" />
    <rect width="8" height="39.847209368914164" x="1801" y="180.07639531554292" rx="5" ry="5" fill="white" />
    <rect width="8" height="42.21219648505898" x="1811" y="178.8939017574705" rx="5" ry="5" fill="white" />
    <rect width="8" height="45.36800292274694" x="1821" y="177.31599853862653" rx="5" ry="5" fill="white" />
    <rect width="8" height="49.42846901998419" x="1831" y="175.28576549000792" rx="5" ry="5" fill="white" />
    <rect width="8" height="43.17209301698624" x="1841" y="178.41395349150687" rx="5" ry="5" fill="white" />
    <rect width="8" height="41.678318537915324" x="1851" y="179.16084073104233" rx="5" ry="5" fill="white" />
    <rect width="8" height="35.49733184671041" x="1861" y="182.2513340766448" rx="5" ry="5" fill="white" />
    <rect width="8" height="41.64873274698331" x="1871" y="179.17563362650833" rx="5" ry="5" fill="white" />
    <rect width="8" height="48.715167181150704" x="1881" y="175.64241640942464" rx="5" ry="5" fill="white" />
    <rect width="8" height="52.59502006694672" x="1891" y="173.70248996652663" rx="5" ry="5" fill="white" />
    <rect width="8" height="53.58218551569548" x="1901" y="173.20890724215226" rx="5" ry="5" fill="white" />
    <rect width="8" height="44.68219615243695" x="1911" y="177.6589019237815" rx="5" ry="5" fill="white" />
    <rect width="8" height="32.740148139042844" x="1921" y="183.62992593047858" rx="5" ry="5" fill="white" />
    <rect width="8" height="35.03988061568158" x="1931" y="182.48005969215922" rx="5" ry="5" fill="white" />
    <rect width="8" height="45.130891075902404" x="1941" y="177.4345544620488" rx="5" ry="5" fill="white" />
    <rect width="8" height="40.88309979857743" x="1951" y="179.5584501007113" rx="5" ry="5" fill="white" />
    <rect width="8" height="17.892868976640305" x="1961" y="191.05356551167984" rx="5" ry="5" fill="white" />
    <rect width="8" height="8" x="1971" y="196" rx="5" ry="5" fill="white" />
    <rect width="8" height="8" x="1981" y="196" rx="5" ry="5" fill="white" />
    <rect width="8" height="8" x="1991" y="196" rx="5" ry="5" fill="white" />
  </g>
</svg>