<svg 
  baseProfile="tiny"
  preserveAspectRatio="keep"
  version="1.2"
  viewBox="0 0 2000.000000 400.000000"
  height="100%" width="100%"
  xmlns="http://www.w3.org/2000/svg"
  xmlns:ev="http://www.w3.org/2001/xml-events"
  xmlns:xlink="http://www.w3.org/1999/xlink"
>
  <g>
    <rect width="8" height="32.39392693951556" x="1" y="183.80303653024222" rx="5" ry="5" fill="white" />
    <rect width="8" height="26.317614254213883" x="11" y="186.84119287289306" rx="5" ry="5" fill="white" />
    <rect width="8" height="43.50838760920679" x="21" y="178.2458061953966" rx="5" ry="5" fill="white" />
    <rect width="8" height="37.73976902947279" x="31" y="181.13011548526362" rx="5" ry="5" fill="white" />
    <rect width="8" height="64.33166436598859" x="41" y="167.83416781700572" rx="5" ry="5" fill="white" />
    <rect width="8" height="49.565460166396946" x="51" y="175.2172699168015" rx="5" ry="5" fill="white" />
    <rect width="8" height="55.68061014937249" x="61" y="172.15969492531374" rx="5" ry="5" fill="white" />
    <rect width="8" height="42.37117318466997" x="71" y="178.81441340766503" rx="5" ry="5" fill="white" />
    <rect width="8" height="61.87694045987438" x="81" y="169.0615297700628" rx="5" ry="5" fill="white" />
    <rect width="8" height="50.23157045760171" x="91" y="174.88421477119914" rx="5" ry="5" fill="white" />
    <rect width="8" height="57.21422428302092" x="101" y="171.39288785848953" rx="5" ry="5" fill="white" />
    <rect width="8" height="40.87679757760447" x="111" y="179.56160121119777" rx="5" ry="5" fill="white" />
    <rect width="8" height="58.309710632018366" x="121" y="170.8451446839908" rx="5" ry="5" fill="white" />
    <rect width="8" height="35.586858248825834" x="131" y="182.2065708755871" rx="5" ry="5" fill="white" />
    <rect width="8" height="53.10001281624203" x="141" y="173.44999359187898" rx="5" ry="5" fill="white" />
    <rect width="8" height="29.319799346079307" x="151" y="185.34010032696034" rx="5" ry="5" fill="white" />
    <rect width="8" height="49.284908024305594" x="161" y="175.3575459878472" rx="5" ry="5" fill="white" />
    <rect width="8" height="39.101582122795456" x="171" y="180.44920893860228" rx="5" ry="5" fill="white" />
    <rect width="8" height="50.28911088651755" x="181" y="174.85544455674122" rx="5" ry="5" fill="white" />
    <rect width="8" height="27.40165926745219" x="191" y="186.2991703662739" rx="5" ry="5" fill="white" />
    <rect width="8" height="44.88021016947252" x="201" y="177.55989491526373" rx="5" ry="5" fill="white" />
    <rect width="8" height="82.45043449171835" x="211" y="158.77478275414083" rx="5" ry="5" fill="white" />
    <rect width="8" height="103.20742526438585" x="221" y="148.39628736780708" rx="5" ry="5" fill="white" />
    <rect width="8" height="69.63793275544987" x="231" y="165.18103362227507" rx="5" ry="5" fill="white" />
    <rect width="8" height="81.04016060659893" x="241" y="159.47991969670053" rx="5" ry="5" fill="white" />
    <rect width="8" height="91.37108048401737" x="251" y="154.3144597579913" rx="5" ry="5" fill="white" />
    <rect width="8" height="74.70114905041" x="261" y="162.649425474795" rx="5" ry="5" fill="white" />
    <rect width="8" height="74.24011486049125" x="271" y="162.87994256975438" rx="5" ry="5" fill="white" />
    <rect width="8" height="83.04137726893967" x="281" y="158.47931136553018" rx="5" ry="5" fill="white" />
    <rect width="8" height="88.29659583635886" x="291" y="155.85170208182058" rx="5" ry="5" fill="white" />
    <rect width="8" height="81.61279020645559" x="301" y="159.1936048967722" rx="5" ry="5" fill="white" />
    <rect width="8" height="72.93983019392573" x="311" y="163.53008490303714" rx="5" ry="5" fill="white" />
    <rect width="8" height="81.82156863016205" x="321" y="159.08921568491897" rx="5" ry="5" fill="white" />
    <rect width="8" height="88.24164416650576" x="331" y="155.87917791674712" rx="5" ry="5" fill="white" />
    <rect width="8" height="76.48995272577125" x="341" y="161.7550236371144" rx="5" ry="5" fill="white" />
    <rect width="8" height="77.44498002140902" x="351" y="161.27750998929548" rx="5" ry="5" fill="white" />
    <rect width="8" height="80.87887918207268" x="361" y="159.56056040896365" rx="5" ry="5" fill="white" />
    <rect width="8" height="75.13690281985596" x="371" y="162.43154859007203" rx="5" ry="5" fill="white" />
    <rect width="8" height="96.32454499336289" x="381" y="151.83772750331855" rx="5" ry="5" fill="white" />
    <rect width="8" height="95.98365222397261" x="391" y="152.0081738880137" rx="5" ry="5" fill="white" />
    <rect width="8" height="66.80496682508966" x="401" y="166.59751658745517" rx="5" ry="5" fill="white" />
    <rect width="8" height="89.78974834226582" x="411" y="155.10512582886707" rx="5" ry="5" fill="white" />
    <rect width="8" height="77.60478561828266" x="421" y="161.19760719085866" rx="5" ry="5" fill="white" />
    <rect width="8" height="85.52158190758045" x="431" y="157.23920904620977" rx="5" ry="5" fill="white" />
    <rect width="8" height="83.38445053785613" x="441" y="158.30777473107193" rx="5" ry="5" fill="white" />
    <rect width="8" height="80.80405163580612" x="451" y="159.59797418209695" rx="5" ry="5" fill="white" />
    <rect width="8" height="97.69902198549745" x="461" y="151.15048900725128" rx="5" ry="5" fill="white" />
    <rect width="8" height="79.20220668440149" x="471" y="160.39889665779924" rx="5" ry="5" fill="white" />
    <rect width="8" height="90.6224382266344" x="481" y="154.6887808866828" rx="5" ry="5" fill="white" />
    <rect width="8" height="82.72461804817326" x="491" y="158.63769097591336" rx="5" ry="5" fill="white" />
    <rect width="8" height="87.5158951815048" x="501" y="156.2420524092476" rx="5" ry="5" fill="white" />
    <rect width="8" height="87.54369087591313" x="511" y="156.22815456204344" rx="5" ry="5" fill="white" />
    <rect width="8" height="84.01249621276605" x="521" y="157.99375189361697" rx="5" ry="5" fill="white" />
    <rect width="8" height="86.21095848136406" x="531" y="156.89452075931797" rx="5" ry="5" fill="white" />
    <rect width="8" height="89.9164039667542" x="541" y="155.0417980166229" rx="5" ry="5" fill="white" />
    <rect width="8" height="91.37831261955962" x="551" y="154.3108436902202" rx="5" ry="5" fill="white" />
    <rect width="8" height="105.51745410706084" x="561" y="147.24127294646956" rx="5" ry="5" fill="white" />
    <rect width="8" height="79.33104933327725" x="571" y="160.33447533336138" rx="5" ry="5" fill="white" />
    <rect width="8" height="88.62776445503363" x="581" y="155.6861177724832" rx="5" ry="5" fill="white" />
    <rect width="8" height="91.37298584145547" x="591" y="154.31350707927226" rx="5" ry="5" fill="white" />
    <rect width="8" height="90.91241495906624" x="601" y="154.54379252046687" rx="5" ry="5" fill="white" />
    <rect width="8" height="79.27088143840734" x="611" y="160.36455928079633" rx="5" ry="5" fill="white" />
    <rect width="8" height="90.73529511872384" x="621" y="154.63235244063807" rx="5" ry="5" fill="white" />
    <rect width="8" height="83.78696712735616" x="631" y="158.10651643632193" rx="5" ry="5" fill="white" />
    <rect width="8" height="88.77587849144983" x="641" y="155.6120607542751" rx="5" ry="5" fill="white" />
    <rect width="8" height="86.67290364775778" x="651" y="156.6635481761211" rx="5" ry="5" fill="white" />
    <rect width="8" height="91.88689842248982" x="661" y="154.0565507887551" rx="5" ry="5" fill="white" />
    <rect width="8" height="77.96706032376125" x="671" y="161.01646983811938" rx="5" ry="5" fill="white" />
    <rect width="8" height="91.59639810474609" x="681" y="154.20180094762696" rx="5" ry="5" fill="white" />
    <rect width="8" height="83.74047304713514" x="691" y="158.12976347643243" rx="5" ry="5" fill="white" />
    <rect width="8" height="95.2337563413508" x="701" y="152.3831218293246" rx="5" ry="5" fill="white" />
    <rect width="8" height="84.81902136292203" x="711" y="157.59048931853897" rx="5" ry="5" fill="white" />
    <rect width="8" height="95.27121068077575" x="721" y="152.36439465961212" rx="5" ry="5" fill="white" />
    <rect width="8" height="91.61784943305436" x="731" y="154.19107528347283" rx="5" ry="5" fill="white" />
    <rect width="8" height="90.73454785559993" x="741" y="154.63272607220003" rx="5" ry="5" fill="white" />
    <rect width="8" height="80.31313718593486" x="751" y="159.84343140703257" rx="5" ry="5" fill="white" />
    <rect width="8" height="92.11374736571997" x="761" y="153.94312631714" rx="5" ry="5" fill="white" />
    <rect width="8" height="82.55783186362147" x="771" y="158.72108406818927" rx="5" ry="5" fill="white" />
    <rect width="8" height="87.36850688633885" x="781" y="156.31574655683056" rx="5" ry="5" fill="white" />
    <rect width="8" height="80.89984024854144" x="791" y="159.5500798757293" rx="5" ry="5" fill="white" />
    <rect width="8" height="88.65413614568008" x="801" y="155.67293192715996" rx="5" ry="5" fill="white" />
    <rect width="8" height="80.40048815183629" x="811" y="159.79975592408186" rx="5" ry="5" fill="white" />
    <rect width="8" height="93.64858116131347" x="821" y="153.17570941934326" rx="5" ry="5" fill="white" />
    <rect width="8" height="101.71120121622235" x="831" y="149.14439939188884" rx="5" ry="5" fill="white" />
    <rect width="8" height="88.17762775194574" x="841" y="155.91118612402713" rx="5" ry="5" fill="white" />
    <rect width="8" height="88.15390686212963" x="851" y="155.92304656893518" rx="5" ry="5" fill="white" />
    <rect width="8" height="84.5714477395564" x="861" y="157.7142761302218" rx="5" ry="5" fill="white" />
    <rect width="8" height="85.49210943197953" x="871" y="157.25394528401023" rx="5" ry="5" fill="white" />
    <rect width="8" height="81.0930089246853" x="881" y="159.45349553765735" rx="5" ry="5" fill="white" />
    <rect width="8" height="88.5420819907674" x="891" y="155.72895900461629" rx="5" ry="5" fill="white" />
    <rect width="8" height="92.55064285194598" x="901" y="153.724678574027" rx="5" ry="5" fill="white" />
    <rect width="8" height="85.94033208757101" x="911" y="157.0298339562145" rx="5" ry="5" fill="white" />
    <rect width="8" height="85.0983755495522" x="921" y="157.4508122252239" rx="5" ry="5" fill="white" />
    <rect width="8" height="84.54780083933659" x="931" y="157.72609958033172" rx="5" ry="5" fill="white" />
    <rect width="8" height="85.25308317381575" x="941" y="157.37345841309212" rx="5" ry="5" fill="white" />
    <rect width="8" height="82.56183464149662" x="951" y="158.7190826792517" rx="5" ry="5" fill="white" />
    <rect width="8" height="88.02151843317435" x="961" y="155.9892407834128" rx="5" ry="5" fill="white" />
    <rect width="8" height="91.01789701377193" x="971" y="154.49105149311404" rx="5" ry="5" fill="white" />
    <rect width="8" height="92.20608913441946" x="981" y="153.89695543279026" rx="5" ry="5" fill="white" />
    <rect width="8" height="83.14539245254122" x="991" y="158.4273037737294" rx="5" ry="5" fill="white" />
    <rect width="8" height="88.30992176185273" x="1001" y="155.84503911907365" rx="5" ry="5" fill="white" />
    <rect width="8" height="78.95394748846353" x="1011" y="160.52302625576823" rx="5" ry="5" fill="white" />
    <rect width="8" height="89.82380231366916" x="1021" y="155.08809884316543" rx="5" ry="5" fill="white" />
    <rect width="8" height="78.56416225178621" x="1031" y="160.71791887410689" rx="5" ry="5" fill="white" />
    <rect width="8" height="87.11361990456855" x="1041" y="156.44319004771572" rx="5" ry="5" fill="white" />
    <rect width="8" height="81.40144014735237" x="1051" y="159.2992799263238" rx="5" ry="5" fill="white" />
    <rect width="8" height="74.89374291613885" x="1061" y="162.55312854193056" rx="5" ry="5" fill="white" />
    <rect width="8" height="61.35779103834964" x="1071" y="169.32110448082517" rx="5" ry="5" fill="white" />
    <rect width="8" height="75.69607644064466" x="1081" y="162.15196177967766" rx="5" ry="5" fill="white" />
    <rect width="8" height="55.23055493601743" x="1091" y="172.3847225319913" rx="5" ry="5" fill="white" />
    <rect width="8" height="62.962399375802505" x="1101" y="168.51880031209873" rx="5" ry="5" fill="white" />
    <rect width="8" height="61.35370031701489" x="1111" y="169.32314984149255" rx="5" ry="5" fill="white" />
    <rect width="8" height="66.82499331686928" x="1121" y="166.58750334156537" rx="5" ry="5" fill="white" />
    <rect width="8" height="55.342534946408904" x="1131" y="172.32873252679553" rx="5" ry="5" fill="white" />
    <rect width="8" height="61.73890568962545" x="1141" y="169.1305471551873" rx="5" ry="5" fill="white" />
    <rect width="8" height="67.75786467163452" x="1151" y="166.12106766418273" rx="5" ry="5" fill="white" />
    <rect width="8" height="71.44531836232765" x="1161" y="164.27734081883617" rx="5" ry="5" fill="white" />
    <rect width="8" height="55.80343745495917" x="1171" y="172.0982812725204" rx="5" ry="5" fill="white" />
    <rect width="8" height="66.74567370694754" x="1181" y="166.62716314652624" rx="5" ry="5" fill="white" />
    <rect width="8" height="64.16438059814152" x="1191" y="167.91780970092924" rx="5" ry="5" fill="white" />
    <rect width="8" height="67.8907928028754" x="1201" y="166.0546035985623" rx="5" ry="5" fill="white" />
    <rect width="8" height="58.92180930056904" x="1211" y="170.53909534971547" rx="5" ry="5" fill="white" />
    <rect width="8" height="68.13717181766476" x="1221" y="165.93141409116762" rx="5" ry="5" fill="white" />
    <rect width="8" height="57.63473184842166" x="1231" y="171.18263407578917" rx="5" ry="5" fill="white" />
    <rect width="8" height="61.22121863447558" x="1241" y="169.3893906827622" rx="5" ry="5" fill="white" />
    <rect width="8" height="56.02817039918416" x="1251" y="171.98591480040793" rx="5" ry="5" fill="white" />
    <rect width="8" height="52.46764540649509" x="1261" y="173.76617729675246" rx="5" ry="5" fill="white" />
    <rect width="8" height="49.89544515785887" x="1271" y="175.05227742107056" rx="5" ry="5" fill="white" />
    <rect width="8" height="60.24222106145712" x="1281" y="169.87888946927143" rx="5" ry="5" fill="white" />
    <rect width="8" height="55.72050424487037" x="1291" y="172.13974787756482" rx="5" ry="5" fill="white" />
    <rect width="8" height="58.25052788150382" x="1301" y="170.87473605924808" rx="5" ry="5" fill="white" />
    <rect width="8" height="56.276011674778545" x="1311" y="171.86199416261073" rx="5" ry="5" fill="white" />
    <rect width="8" height="67.10839752479251" x="1321" y="166.44580123760375" rx="5" ry="5" fill="white" />
    <rect width="8" height="62.51309466990782" x="1331" y="168.74345266504608" rx="5" ry="5" fill="white" />
    <rect width="8" height="64.42713137897458" x="1341" y="167.7864343105127" rx="5" ry="5" fill="white" />
    <rect width="8" height="60.43362172081458" x="1351" y="169.7831891395927" rx="5" ry="5" fill="white" />
    <rect width="8" height="64.48148179335121" x="1361" y="167.75925910332438" rx="5" ry="5" fill="white" />
    <rect width="8" height="59.03899110139707" x="1371" y="170.48050444930146" rx="5" ry="5" fill="white" />
    <rect width="8" height="63.28615887674353" x="1381" y="168.35692056162824" rx="5" ry="5" fill="white" />
    <rect width="8" height="58.90117379939668" x="1391" y="170.54941310030165" rx="5" ry="5" fill="white" />
    <rect width="8" height="62.21650399860722" x="1401" y="168.8917480006964" rx="5" ry="5" fill="white" />
    <rect width="8" height="61.5473510169863" x="1411" y="169.22632449150686" rx="5" ry="5" fill="white" />
    <rect width="8" height="67.70349958778824" x="1421" y="166.14825020610587" rx="5" ry="5" fill="white" />
    <rect width="8" height="63.44484743029003" x="1431" y="168.27757628485497" rx="5" ry="5" fill="white" />
    <rect width="8" height="66.95825232352195" x="1441" y="166.52087383823903" rx="5" ry="5" fill="white" />
    <rect width="8" height="69.09042485882426" x="1451" y="165.45478757058788" rx="5" ry="5" fill="white" />
    <rect width="8" height="68.13383124404146" x="1461" y="165.93308437797927" rx="5" ry="5" fill="white" />
    <rect width="8" height="64.50888760548753" x="1471" y="167.74555619725624" rx="5" ry="5" fill="white" />
    <rect width="8" height="69.36461354790306" x="1481" y="165.31769322604848" rx="5" ry="5" fill="white" />
    <rect width="8" height="60.63794761419163" x="1491" y="169.6810261929042" rx="5" ry="5" fill="white" />
    <rect width="8" height="68.6539421425081" x="1501" y="165.67302892874596" rx="5" ry="5" fill="white" />
    <rect width="8" height="74.27718865644076" x="1511" y="162.8614056717796" rx="5" ry="5" fill="white" />
    <rect width="8" height="73.28012228671795" x="1521" y="163.359938856641" rx="5" ry="5" fill="white" />
    <rect width="8" height="58.88113189218978" x="1531" y="170.5594340539051" rx="5" ry="5" fill="white" />
    <rect width="8" height="69.88569552799872" x="1541" y="165.05715223600063" rx="5" ry="5" fill="white" />
    <rect width="8" height="61.88202095701584" x="1551" y="169.0589895214921" rx="5" ry="5" fill="white" />
    <rect width="8" height="70.96618442563599" x="1561" y="164.516907787182" rx="5" ry="5" fill="white" />
    <rect width="8" height="62.21734378531043" x="1571" y="168.89132810734478" rx="5" ry="5" fill="white" />
    <rect width="8" height="73.23734189539238" x="1581" y="163.3813290523038" rx="5" ry="5" fill="white" />
    <rect width="8" height="61.21641376785626" x="1591" y="169.39179311607188" rx="5" ry="5" fill="white" />
    <rect width="8" height="73.367942019408" x="1601" y="163.316028990296" rx="5" ry="5" fill="white" />
    <rect width="8" height="63.49853608454601" x="1611" y="168.250731957727" rx="5" ry="5" fill="white" />
    <rect width="8" height="70.49370492528449" x="1621" y="164.75314753735776" rx="5" ry="5" fill="white" />
    <rect width="8" height="60.84374950454444" x="1631" y="169.57812524772777" rx="5" ry="5" fill="white" />
    <rect width="8" height="73.7319640140053" x="1641" y="163.13401799299734" rx="5" ry="5" fill="white" />
    <rect width="8" height="63.2555545371852" x="1651" y="168.3722227314074" rx="5" ry="5" fill="white" />
    <rect width="8" height="71.78407721990861" x="1661" y="164.1079613900457" rx="5" ry="5" fill="white" />
    <rect width="8" height="58.15630302196237" x="1671" y="170.92184848901883" rx="5" ry="5" fill="white" />
    <rect width="8" height="79.78824209432656" x="1681" y="160.10587895283672" rx="5" ry="5" fill="white" />
    <rect width="8" height="57.03482563031571" x="1691" y="171.48258718484215" rx="5" ry="5" fill="white" />
    <rect width="8" height="71.51732251986385" x="1701" y="164.24133874006807" rx="5" ry="5" fill="white" />
    <rect width="8" height="64.9385715248894" x="1711" y="167.5307142375553" rx="5" ry="5" fill="white" />
    <rect width="8" height="77.22028670357889" x="1721" y="161.38985664821055" rx="5" ry="5" fill="white" />
    <rect width="8" height="60.99338877133837" x="1731" y="169.50330561433083" rx="5" ry="5" fill="white" />
    <rect width="8" height="63.51255770130617" x="1741" y="168.24372114934692" rx="5" ry="5" fill="white" />
    <rect width="8" height="63.15632035787867" x="1751" y="168.42183982106067" rx="5" ry="5" fill="white" />
    <rect width="8" height="63.93410946281494" x="1761" y="168.03294526859253" rx="5" ry="5" fill="white" />
    <rect width="8" height="60.57833485806341" x="1771" y="169.7108325709683" rx="5" ry="5" fill="white" />
    <rect width="8" height="55.47853524267884" x="1781" y="172.26073237866058" rx="5" ry="5" fill="white" />
    <rect width="8" height="48.04592592193567" x="1791" y="175.97703703903215" rx="5" ry="5" fill="white" />
    <rect width="8" height="42.974043252081195" x="1801" y="178.5129783739594" rx="5" ry="5" fill="white" />
    <rect width="8" height="24.23025167611671" x="1811" y="187.88487416194164" rx="5" ry="5" fill="white" />
    <rect width="8" height="20.135222269592195" x="1821" y="189.9323888652039" rx="5" ry="5" fill="white" />
    <rect width="8" height="8" x="1831" y="196" rx="5" ry="5" fill="white" />
    <rect width="8" height="21.03331993522996" x="1841" y="189.48334003238503" rx="5" ry="5" fill="white" />
    <rect width="8" height="8" x="1851" y="196" rx="5" ry="5" fill="white" />
    <rect width="8" height="24.72226036280801" x="1861" y="187.638869818596" rx="5" ry="5" fill="white" />
    <rect width="8" height="15.777710755432011" x="1871" y="192.111144622284" rx="5" ry="5" fill="white" />
    <rect width="8" height="29.562949429410086" x="1881" y="185.21852528529496" rx="5" ry="5" fill="white" />
    <rect width="8" height="19.067897646809236" x="1891" y="190.46605117659539" rx="5" ry="5" fill="white" />
    <rect width="8" height="32.34399258370605" x="1901" y="183.82800370814698" rx="5" ry="5" fill="white" />
    <rect width="8" height="21.4765694323754" x="1911" y="189.2617152838123" rx="5" ry="5" fill="white" />
    <rect width="8" height="33.248955822936644" x="1921" y="183.37552208853168" rx="5" ry="5" fill="white" />
    <rect width="8" height="18.317791563987793" x="1931" y="190.8411042180061" rx="5" ry="5" fill="white" />
    <rect width="8" height="34.74754863996905" x="1941" y="182.62622568001547" rx="5" ry="5" fill="white" />
    <rect width="8" height="21.417845591466907" x="1951" y="189.29107720426654" rx="5" ry="5" fill="white" />
    <rect width="8" height="35.71814897714709" x="1961" y="182.14092551142645" rx="5" ry="5" fill="white" />
    <rect width="8" height="18.27045783470095" x="1971" y="190.86477108264953" rx="5" ry="5" fill="white" />
    <rect width="8" height="35.771288669208005" x="1981" y="182.114355665396" rx="5" ry="5" fill="white" />
    <rect width="8" height="21.299066335497752" x="1991" y="189.35046683225113" rx="5" ry="5" fill="white" />
  </g>
</svg>