<svg 
  baseProfile="tiny"
  preserveAspectRatio="keep"
  version="1.2"
  viewBox="0 0 2000.000000 400.000000"
  height="100%" width="100%"
  xmlns="http://www.w3.org/2000/svg"
  xmlns:ev="http://www.w3.org/2001/xml-events"
  xmlns:xlink="http://www.w3.org/1999/xlink"
>
  <g>
    <rect width="8" height="20.340265459664188" x="1" y="189.8298672701679" rx="5" ry="5" fill="white" />
    <rect width="8" height="13.554906995860176" x="11" y="193.22254650206992" rx="5" ry="5" fill="white" />
    <rect width="8" height="12.267848774767277" x="21" y="193.86607561261636" rx="5" ry="5" fill="white" />
    <rect width="8" height="58.674136158171684" x="31" y="170.66293192091416" rx="5" ry="5" fill="white" />
    <rect width="8" height="31.33948804725869" x="41" y="184.33025597637067" rx="5" ry="5" fill="white" />
    <rect width="8" height="28.608728512641935" x="51" y="185.69563574367902" rx="5" ry="5" fill="white" />
    <rect width="8" height="29.126185841809367" x="61" y="185.4369070790953" rx="5" ry="5" fill="white" />
    <rect width="8" height="24.12440455268054" x="71" y="187.93779772365974" rx="5" ry="5" fill="white" />
    <rect width="8" height="21.243609445760665" x="81" y="189.37819527711966" rx="5" ry="5" fill="white" />
    <rect width="8" height="36.71176171777592" x="91" y="181.64411914111204" rx="5" ry="5" fill="white" />
    <rect width="8" height="38.43408010032754" x="101" y="180.78295994983623" rx="5" ry="5" fill="white" />
    <rect width="8" height="38.53114132336592" x="111" y="180.73442933831703" rx="5" ry="5" fill="white" />
    <rect width="8" height="36.72740636202765" x="121" y="181.63629681898618" rx="5" ry="5" fill="white" />
    <rect width="8" height="32.248590095206644" x="131" y="183.8757049523967" rx="5" ry="5" fill="white" />
    <rect width="8" height="49.874526893853975" x="141" y="175.06273655307302" rx="5" ry="5" fill="white" />
    <rect width="8" height="41.29848651196021" x="151" y="179.3507567440199" rx="5" ry="5" fill="white" />
    <rect width="8" height="34.23231208222823" x="161" y="182.88384395888588" rx="5" ry="5" fill="white" />
    <rect width="8" height="39.51630348157867" x="171" y="180.24184825921066" rx="5" ry="5" fill="white" />
    <rect width="8" height="34.88556478802627" x="181" y="182.55721760598686" rx="5" ry="5" fill="white" />
    <rect width="8" height="40.72228869151994" x="191" y="179.63885565424002" rx="5" ry="5" fill="white" />
    <rect width="8" height="23.171778071323352" x="201" y="188.41411096433833" rx="5" ry="5" fill="white" />
    <rect width="8" height="27.88969766055665" x="211" y="186.05515116972168" rx="5" ry="5" fill="white" />
    <rect width="8" height="49.15468008467702" x="221" y="175.4226599576615" rx="5" ry="5" fill="white" />
    <rect width="8" height="39.35115555640773" x="231" y="180.32442222179614" rx="5" ry="5" fill="white" />
    <rect width="8" height="38.21579429470013" x="241" y="180.89210285264994" rx="5" ry="5" fill="white" />
    <rect width="8" height="53.74207913520962" x="251" y="173.1289604323952" rx="5" ry="5" fill="white" />
    <rect width="8" height="45.66701395094084" x="261" y="177.1664930245296" rx="5" ry="5" fill="white" />
    <rect width="8" height="38.362064540575595" x="271" y="180.8189677297122" rx="5" ry="5" fill="white" />
    <rect width="8" height="39.72835485175428" x="281" y="180.13582257412287" rx="5" ry="5" fill="white" />
    <rect width="8" height="31.49238424069466" x="291" y="184.25380787965267" rx="5" ry="5" fill="white" />
    <rect width="8" height="32.950485220495665" x="301" y="183.52475738975215" rx="5" ry="5" fill="white" />
    <rect width="8" height="27.94486652845645" x="311" y="186.02756673577179" rx="5" ry="5" fill="white" />
    <rect width="8" height="29.763101171180423" x="321" y="185.11844941440978" rx="5" ry="5" fill="white" />
    <rect width="8" height="26.118140480414286" x="331" y="186.94092975979285" rx="5" ry="5" fill="white" />
    <rect width="8" height="26.871906077796616" x="341" y="186.5640469611017" rx="5" ry="5" fill="white" />
    <rect width="8" height="56.54582363703008" x="351" y="171.72708818148496" rx="5" ry="5" fill="white" />
    <rect width="8" height="48.51905646906926" x="361" y="175.74047176546537" rx="5" ry="5" fill="white" />
    <rect width="8" height="46.1798287490787" x="371" y="176.91008562546065" rx="5" ry="5" fill="white" />
    <rect width="8" height="37.49155089602338" x="381" y="181.2542245519883" rx="5" ry="5" fill="white" />
    <rect width="8" height="35.85961105537038" x="391" y="182.07019447231482" rx="5" ry="5" fill="white" />
    <rect width="8" height="30.582331241701315" x="401" y="184.70883437914935" rx="5" ry="5" fill="white" />
    <rect width="8" height="50.67067557821608" x="411" y="174.66466221089195" rx="5" ry="5" fill="white" />
    <rect width="8" height="40.68151780694169" x="421" y="179.65924109652914" rx="5" ry="5" fill="white" />
    <rect width="8" height="44.76737716219552" x="431" y="177.61631141890223" rx="5" ry="5" fill="white" />
    <rect width="8" height="52.697092487217255" x="441" y="173.65145375639136" rx="5" ry="5" fill="white" />
    <rect width="8" height="41.193647798559454" x="451" y="179.40317610072026" rx="5" ry="5" fill="white" />
    <rect width="8" height="36.58620161434962" x="461" y="181.70689919282518" rx="5" ry="5" fill="white" />
    <rect width="8" height="30.110660867614637" x="471" y="184.9446695661927" rx="5" ry="5" fill="white" />
    <rect width="8" height="50.23236279461069" x="481" y="174.88381860269465" rx="5" ry="5" fill="white" />
    <rect width="8" height="44.85135066493399" x="491" y="177.574324667533" rx="5" ry="5" fill="white" />
    <rect width="8" height="41.14954261542613" x="501" y="179.42522869228694" rx="5" ry="5" fill="white" />
    <rect width="8" height="43.31737835368112" x="511" y="178.34131082315943" rx="5" ry="5" fill="white" />
    <rect width="8" height="39.183592347720555" x="521" y="180.40820382613973" rx="5" ry="5" fill="white" />
    <rect width="8" height="37.252498809257794" x="531" y="181.3737505953711" rx="5" ry="5" fill="white" />
    <rect width="8" height="58.443318291593435" x="541" y="170.7783408542033" rx="5" ry="5" fill="white" />
    <rect width="8" height="54.04474167466977" x="551" y="172.97762916266512" rx="5" ry="5" fill="white" />
    <rect width="8" height="57.61144629668653" x="561" y="171.19427685165672" rx="5" ry="5" fill="white" />
    <rect width="8" height="69.47316533443724" x="571" y="165.2634173327814" rx="5" ry="5" fill="white" />
    <rect width="8" height="71.8960869857667" x="581" y="164.05195650711664" rx="5" ry="5" fill="white" />
    <rect width="8" height="51.336318437439" x="591" y="174.3318407812805" rx="5" ry="5" fill="white" />
    <rect width="8" height="63.331766676853654" x="601" y="168.33411666157318" rx="5" ry="5" fill="white" />
    <rect width="8" height="51.42385263942676" x="611" y="174.28807368028663" rx="5" ry="5" fill="white" />
    <rect width="8" height="49.76132307846633" x="621" y="175.11933846076684" rx="5" ry="5" fill="white" />
    <rect width="8" height="57.173816244439394" x="631" y="171.4130918777803" rx="5" ry="5" fill="white" />
    <rect width="8" height="51.51620204153833" x="641" y="174.24189897923083" rx="5" ry="5" fill="white" />
    <rect width="8" height="52.668143866032565" x="651" y="173.66592806698372" rx="5" ry="5" fill="white" />
    <rect width="8" height="47.54241697660403" x="661" y="176.22879151169798" rx="5" ry="5" fill="white" />
    <rect width="8" height="42.913546727952166" x="671" y="178.54322663602392" rx="5" ry="5" fill="white" />
    <rect width="8" height="53.661736707988524" x="681" y="173.16913164600572" rx="5" ry="5" fill="white" />
    <rect width="8" height="68.70191055367687" x="691" y="165.64904472316158" rx="5" ry="5" fill="white" />
    <rect width="8" height="65.6709246203741" x="701" y="167.16453768981296" rx="5" ry="5" fill="white" />
    <rect width="8" height="63.95317519680756" x="711" y="168.02341240159623" rx="5" ry="5" fill="white" />
    <rect width="8" height="51.39109289597178" x="721" y="174.3044535520141" rx="5" ry="5" fill="white" />
    <rect width="8" height="47.64000857645948" x="731" y="176.17999571177026" rx="5" ry="5" fill="white" />
    <rect width="8" height="60.08743642111878" x="741" y="169.9562817894406" rx="5" ry="5" fill="white" />
    <rect width="8" height="50.189687608324384" x="751" y="174.9051561958378" rx="5" ry="5" fill="white" />
    <rect width="8" height="46.54666513980991" x="761" y="176.72666743009503" rx="5" ry="5" fill="white" />
    <rect width="8" height="45.29733395038896" x="771" y="177.3513330248055" rx="5" ry="5" fill="white" />
    <rect width="8" height="51.51877571384051" x="781" y="174.24061214307974" rx="5" ry="5" fill="white" />
    <rect width="8" height="58.45973936564774" x="791" y="170.77013031717613" rx="5" ry="5" fill="white" />
    <rect width="8" height="42.697134187327975" x="801" y="178.65143290633603" rx="5" ry="5" fill="white" />
    <rect width="8" height="50.270597018037456" x="811" y="174.86470149098128" rx="5" ry="5" fill="white" />
    <rect width="8" height="71.78769554259834" x="821" y="164.10615222870084" rx="5" ry="5" fill="white" />
    <rect width="8" height="81.73267624505038" x="831" y="159.13366187747482" rx="5" ry="5" fill="white" />
    <rect width="8" height="67.97235497266777" x="841" y="166.01382251366613" rx="5" ry="5" fill="white" />
    <rect width="8" height="42.019942547403645" x="851" y="178.9900287262982" rx="5" ry="5" fill="white" />
    <rect width="8" height="69.68296074690882" x="861" y="165.1585196265456" rx="5" ry="5" fill="white" />
    <rect width="8" height="62.89315535731072" x="871" y="168.55342232134464" rx="5" ry="5" fill="white" />
    <rect width="8" height="44.343735401952046" x="881" y="177.828132299024" rx="5" ry="5" fill="white" />
    <rect width="8" height="48.54777089164761" x="891" y="175.7261145541762" rx="5" ry="5" fill="white" />
    <rect width="8" height="54.40913016892625" x="901" y="172.79543491553687" rx="5" ry="5" fill="white" />
    <rect width="8" height="48.09050461362824" x="911" y="175.95474769318588" rx="5" ry="5" fill="white" />
    <rect width="8" height="73.18868263796415" x="921" y="163.40565868101794" rx="5" ry="5" fill="white" />
    <rect width="8" height="75.01110061545224" x="931" y="162.4944496922739" rx="5" ry="5" fill="white" />
    <rect width="8" height="51.10501802152431" x="941" y="174.44749098923785" rx="5" ry="5" fill="white" />
    <rect width="8" height="62.80732669187953" x="951" y="168.59633665406022" rx="5" ry="5" fill="white" />
    <rect width="8" height="62.79246808494959" x="961" y="168.6037659575252" rx="5" ry="5" fill="white" />
    <rect width="8" height="53.877087810144786" x="971" y="173.06145609492762" rx="5" ry="5" fill="white" />
    <rect width="8" height="51.305593044924336" x="981" y="174.34720347753785" rx="5" ry="5" fill="white" />
    <rect width="8" height="69.3903627709288" x="991" y="165.3048186145356" rx="5" ry="5" fill="white" />
    <rect width="8" height="57.1017976557921" x="1001" y="171.44910117210395" rx="5" ry="5" fill="white" />
    <rect width="8" height="45.778752270134596" x="1011" y="177.1106238649327" rx="5" ry="5" fill="white" />
    <rect width="8" height="63.250380989224986" x="1021" y="168.3748095053875" rx="5" ry="5" fill="white" />
    <rect width="8" height="60.481589477835016" x="1031" y="169.75920526108249" rx="5" ry="5" fill="white" />
    <rect width="8" height="68.47066924094172" x="1041" y="165.76466537952913" rx="5" ry="5" fill="white" />
    <rect width="8" height="63.59124538983447" x="1051" y="168.20437730508277" rx="5" ry="5" fill="white" />
    <rect width="8" height="64.06174888430026" x="1061" y="167.96912555784988" rx="5" ry="5" fill="white" />
    <rect width="8" height="57.53528889697716" x="1071" y="171.23235555151143" rx="5" ry="5" fill="white" />
    <rect width="8" height="63.67557975555845" x="1081" y="168.16221012222078" rx="5" ry="5" fill="white" />
    <rect width="8" height="58.711668771723936" x="1091" y="170.64416561413805" rx="5" ry="5" fill="white" />
    <rect width="8" height="66.0854587000696" x="1101" y="166.9572706499652" rx="5" ry="5" fill="white" />
    <rect width="8" height="62.053851660949675" x="1111" y="168.97307416952515" rx="5" ry="5" fill="white" />
    <rect width="8" height="60.14186880773739" x="1121" y="169.9290655961313" rx="5" ry="5" fill="white" />
    <rect width="8" height="61.446311813313116" x="1131" y="169.27684409334344" rx="5" ry="5" fill="white" />
    <rect width="8" height="50.372356516183224" x="1141" y="174.81382174190838" rx="5" ry="5" fill="white" />
    <rect width="8" height="46.17225700584841" x="1151" y="176.9138714970758" rx="5" ry="5" fill="white" />
    <rect width="8" height="48.15229135493684" x="1161" y="175.92385432253158" rx="5" ry="5" fill="white" />
    <rect width="8" height="51.91497301865541" x="1171" y="174.0425134906723" rx="5" ry="5" fill="white" />
    <rect width="8" height="52.04780176220124" x="1181" y="173.97609911889938" rx="5" ry="5" fill="white" />
    <rect width="8" height="51.069924279807545" x="1191" y="174.46503786009623" rx="5" ry="5" fill="white" />
    <rect width="8" height="61.49006598031176" x="1201" y="169.2549670098441" rx="5" ry="5" fill="white" />
    <rect width="8" height="63.129064306625395" x="1211" y="168.4354678466873" rx="5" ry="5" fill="white" />
    <rect width="8" height="79.85315977635298" x="1221" y="160.0734201118235" rx="5" ry="5" fill="white" />
    <rect width="8" height="50.77908063467197" x="1231" y="174.61045968266401" rx="5" ry="5" fill="white" />
    <rect width="8" height="67.67540073511127" x="1241" y="166.16229963244436" rx="5" ry="5" fill="white" />
    <rect width="8" height="60.34395357502804" x="1251" y="169.828023212486" rx="5" ry="5" fill="white" />
    <rect width="8" height="47.904652613390084" x="1261" y="176.04767369330494" rx="5" ry="5" fill="white" />
    <rect width="8" height="53.41420001461476" x="1271" y="173.2928999926926" rx="5" ry="5" fill="white" />
    <rect width="8" height="52.16195053387701" x="1281" y="173.9190247330615" rx="5" ry="5" fill="white" />
    <rect width="8" height="49.06032077983017" x="1291" y="175.4698396100849" rx="5" ry="5" fill="white" />
    <rect width="8" height="61.20706283161146" x="1301" y="169.39646858419428" rx="5" ry="5" fill="white" />
    <rect width="8" height="52.66188214724916" x="1311" y="173.6690589263754" rx="5" ry="5" fill="white" />
    <rect width="8" height="65.22426751957654" x="1321" y="167.38786624021174" rx="5" ry="5" fill="white" />
    <rect width="8" height="68.58252396433583" x="1331" y="165.70873801783208" rx="5" ry="5" fill="white" />
    <rect width="8" height="62.48263129544833" x="1341" y="168.75868435227585" rx="5" ry="5" fill="white" />
    <rect width="8" height="70.22365669427302" x="1351" y="164.8881716528635" rx="5" ry="5" fill="white" />
    <rect width="8" height="56.406116458852104" x="1361" y="171.79694177057394" rx="5" ry="5" fill="white" />
    <rect width="8" height="66.87137845917606" x="1371" y="166.56431077041196" rx="5" ry="5" fill="white" />
    <rect width="8" height="76.73667952877936" x="1381" y="161.63166023561033" rx="5" ry="5" fill="white" />
    <rect width="8" height="72.43520600461196" x="1391" y="163.78239699769404" rx="5" ry="5" fill="white" />
    <rect width="8" height="73.58318847760042" x="1401" y="163.2084057611998" rx="5" ry="5" fill="white" />
    <rect width="8" height="63.343675610969626" x="1411" y="168.3281621945152" rx="5" ry="5" fill="white" />
    <rect width="8" height="65.69321786830875" x="1421" y="167.15339106584563" rx="5" ry="5" fill="white" />
    <rect width="8" height="69.28515669785536" x="1431" y="165.35742165107231" rx="5" ry="5" fill="white" />
    <rect width="8" height="51.883606009243834" x="1441" y="174.05819699537807" rx="5" ry="5" fill="white" />
    <rect width="8" height="76.13383521637458" x="1451" y="161.93308239181272" rx="5" ry="5" fill="white" />
    <rect width="8" height="60.45143614126856" x="1461" y="169.7742819293657" rx="5" ry="5" fill="white" />
    <rect width="8" height="67.63888670183228" x="1471" y="166.18055664908385" rx="5" ry="5" fill="white" />
    <rect width="8" height="61.4774298456106" x="1481" y="169.2612850771947" rx="5" ry="5" fill="white" />
    <rect width="8" height="55.57062947561593" x="1491" y="172.21468526219203" rx="5" ry="5" fill="white" />
    <rect width="8" height="51.93537852605289" x="1501" y="174.03231073697356" rx="5" ry="5" fill="white" />
    <rect width="8" height="60.079876654860556" x="1511" y="169.96006167256974" rx="5" ry="5" fill="white" />
    <rect width="8" height="61.46666453349493" x="1521" y="169.26666773325255" rx="5" ry="5" fill="white" />
    <rect width="8" height="60.69626658245284" x="1531" y="169.65186670877358" rx="5" ry="5" fill="white" />
    <rect width="8" height="66.68836562654376" x="1541" y="166.65581718672811" rx="5" ry="5" fill="white" />
    <rect width="8" height="67.83369979513371" x="1551" y="166.08315010243314" rx="5" ry="5" fill="white" />
    <rect width="8" height="68.13008665064068" x="1561" y="165.93495667467965" rx="5" ry="5" fill="white" />
    <rect width="8" height="65.9403781295276" x="1571" y="167.02981093523618" rx="5" ry="5" fill="white" />
    <rect width="8" height="59.98585182055759" x="1581" y="170.00707408972121" rx="5" ry="5" fill="white" />
    <rect width="8" height="77.9678562492482" x="1591" y="161.0160718753759" rx="5" ry="5" fill="white" />
    <rect width="8" height="66.8568149027264" x="1601" y="166.5715925486368" rx="5" ry="5" fill="white" />
    <rect width="8" height="60.67205624190194" x="1611" y="169.66397187904903" rx="5" ry="5" fill="white" />
    <rect width="8" height="76.43519985080314" x="1621" y="161.78240007459843" rx="5" ry="5" fill="white" />
    <rect width="8" height="45.09172380836215" x="1631" y="177.45413809581893" rx="5" ry="5" fill="white" />
    <rect width="8" height="44.02171220398878" x="1641" y="177.9891438980056" rx="5" ry="5" fill="white" />
    <rect width="8" height="49.93796585002245" x="1651" y="175.03101707498877" rx="5" ry="5" fill="white" />
    <rect width="8" height="43.43118932439029" x="1661" y="178.28440533780486" rx="5" ry="5" fill="white" />
    <rect width="8" height="31.868681210060057" x="1671" y="184.06565939496997" rx="5" ry="5" fill="white" />
    <rect width="8" height="33.82303799112263" x="1681" y="183.08848100443868" rx="5" ry="5" fill="white" />
    <rect width="8" height="49.577983923957795" x="1691" y="175.2110080380211" rx="5" ry="5" fill="white" />
    <rect width="8" height="64.23302926020328" x="1701" y="167.88348536989835" rx="5" ry="5" fill="white" />
    <rect width="8" height="47.68292952218624" x="1711" y="176.1585352389069" rx="5" ry="5" fill="white" />
    <rect width="8" height="47.864263323324174" x="1721" y="176.06786833833792" rx="5" ry="5" fill="white" />
    <rect width="8" height="45.13162652990536" x="1731" y="177.43418673504732" rx="5" ry="5" fill="white" />
    <rect width="8" height="53.659273578538546" x="1741" y="173.17036321073073" rx="5" ry="5" fill="white" />
    <rect width="8" height="37.78979715095171" x="1751" y="181.10510142452415" rx="5" ry="5" fill="white" />
    <rect width="8" height="37.643029735812135" x="1761" y="181.17848513209393" rx="5" ry="5" fill="white" />
    <rect width="8" height="32.10620243816134" x="1771" y="183.94689878091933" rx="5" ry="5" fill="white" />
    <rect width="8" height="28.893739908565713" x="1781" y="185.55313004571715" rx="5" ry="5" fill="white" />
    <rect width="8" height="27.669507633542416" x="1791" y="186.1652461832288" rx="5" ry="5" fill="white" />
    <rect width="8" height="30.69427607693359" x="1801" y="184.6528619615332" rx="5" ry="5" fill="white" />
    <rect width="8" height="28.358858169299676" x="1811" y="185.82057091535017" rx="5" ry="5" fill="white" />
    <rect width="8" height="29.27247950371227" x="1821" y="185.36376024814388" rx="5" ry="5" fill="white" />
    <rect width="8" height="28.006054489920277" x="1831" y="185.99697275503985" rx="5" ry="5" fill="white" />
    <rect width="8" height="31.35425131043736" x="1841" y="184.32287434478133" rx="5" ry="5" fill="white" />
    <rect width="8" height="35.125162066838016" x="1851" y="182.437418966581" rx="5" ry="5" fill="white" />
    <rect width="8" height="28.43416017796291" x="1861" y="185.78291991101855" rx="5" ry="5" fill="white" />
    <rect width="8" height="30.543898576942674" x="1871" y="184.72805071152865" rx="5" ry="5" fill="white" />
    <rect width="8" height="27.74218570718897" x="1881" y="186.1289071464055" rx="5" ry="5" fill="white" />
    <rect width="8" height="30.071287382928457" x="1891" y="184.96435630853577" rx="5" ry="5" fill="white" />
    <rect width="8" height="27.84713129727422" x="1901" y="186.07643435136288" rx="5" ry="5" fill="white" />
    <rect width="8" height="26.60640945660844" x="1911" y="186.69679527169578" rx="5" ry="5" fill="white" />
    <rect width="8" height="26.47407262750604" x="1921" y="186.762963686247" rx="5" ry="5" fill="white" />
    <rect width="8" height="28.134386466289946" x="1931" y="185.93280676685504" rx="5" ry="5" fill="white" />
    <rect width="8" height="14.602866765325334" x="1941" y="192.69856661733732" rx="5" ry="5" fill="white" />
    <rect width="8" height="12.280226934839614" x="1951" y="193.8598865325802" rx="5" ry="5" fill="white" />
    <rect width="8" height="8" x="1961" y="196" rx="5" ry="5" fill="white" />
    <rect width="8" height="8" x="1971" y="196" rx="5" ry="5" fill="white" />
    <rect width="8" height="8" x="1981" y="196" rx="5" ry="5" fill="white" />
    <rect width="8" height="8" x="1991" y="196" rx="5" ry="5" fill="white" />
  </g>
</svg>