<svg 
  baseProfile="tiny"
  preserveAspectRatio="keep"
  version="1.2"
  viewBox="0 0 2000.000000 400.000000"
  height="100%" width="100%"
  xmlns="http://www.w3.org/2000/svg"
  xmlns:ev="http://www.w3.org/2001/xml-events"
  xmlns:xlink="http://www.w3.org/1999/xlink"
>
  <g>
    <rect width="8" height="69.91488489334539" x="1" y="165.0425575533273" rx="5" ry="5" fill="white" />
    <rect width="8" height="85.56624444066193" x="11" y="157.21687777966903" rx="5" ry="5" fill="white" />
    <rect width="8" height="87.18377688426712" x="21" y="156.40811155786645" rx="5" ry="5" fill="white" />
    <rect width="8" height="71.03654691759263" x="31" y="164.48172654120367" rx="5" ry="5" fill="white" />
    <rect width="8" height="65.52998878428707" x="41" y="167.23500560785646" rx="5" ry="5" fill="white" />
    <rect width="8" height="49.43180078273005" x="51" y="175.28409960863496" rx="5" ry="5" fill="white" />
    <rect width="8" height="58.00146991083723" x="61" y="170.9992650445814" rx="5" ry="5" fill="white" />
    <rect width="8" height="71.43005033048298" x="71" y="164.28497483475851" rx="5" ry="5" fill="white" />
    <rect width="8" height="79.44579725049678" x="81" y="160.27710137475162" rx="5" ry="5" fill="white" />
    <rect width="8" height="88.5272222380727" x="91" y="155.73638888096366" rx="5" ry="5" fill="white" />
    <rect width="8" height="75.11079082192089" x="101" y="162.44460458903956" rx="5" ry="5" fill="white" />
    <rect width="8" height="59.521575019250086" x="111" y="170.23921249037497" rx="5" ry="5" fill="white" />
    <rect width="8" height="53.47402863196038" x="121" y="173.2629856840198" rx="5" ry="5" fill="white" />
    <rect width="8" height="62.84547133108636" x="131" y="168.57726433445683" rx="5" ry="5" fill="white" />
    <rect width="8" height="80.6699634359079" x="141" y="159.66501828204605" rx="5" ry="5" fill="white" />
    <rect width="8" height="76.09289665044331" x="151" y="161.95355167477834" rx="5" ry="5" fill="white" />
    <rect width="8" height="84.6845075546191" x="161" y="157.65774622269043" rx="5" ry="5" fill="white" />
    <rect width="8" height="65.57791988473357" x="171" y="167.21104005763323" rx="5" ry="5" fill="white" />
    <rect width="8" height="56.513292521176204" x="181" y="171.7433537394119" rx="5" ry="5" fill="white" />
    <rect width="8" height="45.005338785836116" x="191" y="177.49733060708195" rx="5" ry="5" fill="white" />
    <rect width="8" height="70.70252588678933" x="201" y="164.64873705660534" rx="5" ry="5" fill="white" />
    <rect width="8" height="102.78396123062139" x="211" y="148.6080193846893" rx="5" ry="5" fill="white" />
    <rect width="8" height="100.82949830414907" x="221" y="149.58525084792547" rx="5" ry="5" fill="white" />
    <rect width="8" height="110.10248984329698" x="231" y="144.9487550783515" rx="5" ry="5" fill="white" />
    <rect width="8" height="93.80475550926516" x="241" y="153.0976222453674" rx="5" ry="5" fill="white" />
    <rect width="8" height="79.53313713638258" x="251" y="160.2334314318087" rx="5" ry="5" fill="white" />
    <rect width="8" height="100.68487269675369" x="261" y="149.65756365162315" rx="5" ry="5" fill="white" />
    <rect width="8" height="87.02073866594453" x="271" y="156.48963066702774" rx="5" ry="5" fill="white" />
    <rect width="8" height="79.22676960472005" x="281" y="160.38661519763997" rx="5" ry="5" fill="white" />
    <rect width="8" height="105.07634433963982" x="291" y="147.46182783018008" rx="5" ry="5" fill="white" />
    <rect width="8" height="83.35314492922123" x="301" y="158.32342753538938" rx="5" ry="5" fill="white" />
    <rect width="8" height="57.141915814448716" x="311" y="171.42904209277563" rx="5" ry="5" fill="white" />
    <rect width="8" height="84.51848677426804" x="321" y="157.740756612866" rx="5" ry="5" fill="white" />
    <rect width="8" height="90.30014288031197" x="331" y="154.84992855984402" rx="5" ry="5" fill="white" />
    <rect width="8" height="126.80470749205067" x="341" y="136.59764625397466" rx="5" ry="5" fill="white" />
    <rect width="8" height="92.40445793302675" x="351" y="153.79777103348664" rx="5" ry="5" fill="white" />
    <rect width="8" height="64.02347992864063" x="361" y="167.98826003567967" rx="5" ry="5" fill="white" />
    <rect width="8" height="51.210167975426955" x="371" y="174.39491601228653" rx="5" ry="5" fill="white" />
    <rect width="8" height="76.06213224642065" x="381" y="161.96893387678966" rx="5" ry="5" fill="white" />
    <rect width="8" height="54.67917395573747" x="391" y="172.66041302213125" rx="5" ry="5" fill="white" />
    <rect width="8" height="105.56801952977335" x="401" y="147.21599023511334" rx="5" ry="5" fill="white" />
    <rect width="8" height="128.12823087648545" x="411" y="135.9358845617573" rx="5" ry="5" fill="white" />
    <rect width="8" height="84.88853228606831" x="421" y="157.55573385696584" rx="5" ry="5" fill="white" />
    <rect width="8" height="57.5914098885036" x="431" y="171.2042950557482" rx="5" ry="5" fill="white" />
    <rect width="8" height="58.684845522534225" x="441" y="170.6575772387329" rx="5" ry="5" fill="white" />
    <rect width="8" height="63.883644066762834" x="451" y="168.0581779666186" rx="5" ry="5" fill="white" />
    <rect width="8" height="65.0652962329456" x="461" y="167.46735188352721" rx="5" ry="5" fill="white" />
    <rect width="8" height="116.16716732177346" x="471" y="141.91641633911325" rx="5" ry="5" fill="white" />
    <rect width="8" height="109.72460356477558" x="481" y="145.1376982176122" rx="5" ry="5" fill="white" />
    <rect width="8" height="119.14672470576222" x="491" y="140.4266376471189" rx="5" ry="5" fill="white" />
    <rect width="8" height="79.02185830112094" x="501" y="160.48907084943954" rx="5" ry="5" fill="white" />
    <rect width="8" height="76.00803377082627" x="511" y="161.99598311458686" rx="5" ry="5" fill="white" />
    <rect width="8" height="89.87322665007436" x="521" y="155.06338667496283" rx="5" ry="5" fill="white" />
    <rect width="8" height="71.94628103652423" x="531" y="164.0268594817379" rx="5" ry="5" fill="white" />
    <rect width="8" height="110.63391739958328" x="541" y="144.68304130020834" rx="5" ry="5" fill="white" />
    <rect width="8" height="109.21021286125921" x="551" y="145.3948935693704" rx="5" ry="5" fill="white" />
    <rect width="8" height="88.61885292713008" x="561" y="155.69057353643495" rx="5" ry="5" fill="white" />
    <rect width="8" height="88.38436628988022" x="571" y="155.80781685505988" rx="5" ry="5" fill="white" />
    <rect width="8" height="81.19795775207199" x="581" y="159.401021123964" rx="5" ry="5" fill="white" />
    <rect width="8" height="105.0010495988446" x="591" y="147.4994752005777" rx="5" ry="5" fill="white" />
    <rect width="8" height="95.24993608378657" x="601" y="152.37503195810672" rx="5" ry="5" fill="white" />
    <rect width="8" height="98.88387124285526" x="611" y="150.55806437857237" rx="5" ry="5" fill="white" />
    <rect width="8" height="80.88027784861585" x="621" y="159.55986107569208" rx="5" ry="5" fill="white" />
    <rect width="8" height="71.45314957789549" x="631" y="164.27342521105226" rx="5" ry="5" fill="white" />
    <rect width="8" height="87.53016015948388" x="641" y="156.23491992025805" rx="5" ry="5" fill="white" />
    <rect width="8" height="79.23305711143543" x="651" y="160.3834714442823" rx="5" ry="5" fill="white" />
    <rect width="8" height="97.32812631430814" x="661" y="151.33593684284594" rx="5" ry="5" fill="white" />
    <rect width="8" height="95.91747725443433" x="671" y="152.04126137278283" rx="5" ry="5" fill="white" />
    <rect width="8" height="77.89172726758632" x="681" y="161.05413636620685" rx="5" ry="5" fill="white" />
    <rect width="8" height="87.97726982042678" x="691" y="156.0113650897866" rx="5" ry="5" fill="white" />
    <rect width="8" height="84.17048670091903" x="701" y="157.9147566495405" rx="5" ry="5" fill="white" />
    <rect width="8" height="77.86912501923001" x="711" y="161.065437490385" rx="5" ry="5" fill="white" />
    <rect width="8" height="76.3269087281588" x="721" y="161.8365456359206" rx="5" ry="5" fill="white" />
    <rect width="8" height="72.07942046110585" x="731" y="163.96028976944706" rx="5" ry="5" fill="white" />
    <rect width="8" height="74.5171231216669" x="741" y="162.74143843916656" rx="5" ry="5" fill="white" />
    <rect width="8" height="87.00568249696825" x="751" y="156.49715875151588" rx="5" ry="5" fill="white" />
    <rect width="8" height="74.47496119388494" x="761" y="162.76251940305752" rx="5" ry="5" fill="white" />
    <rect width="8" height="65.91649144044914" x="771" y="167.04175427977543" rx="5" ry="5" fill="white" />
    <rect width="8" height="114.06560371417743" x="781" y="142.9671981429113" rx="5" ry="5" fill="white" />
    <rect width="8" height="109.08131826724514" x="791" y="145.45934086637743" rx="5" ry="5" fill="white" />
    <rect width="8" height="99.49295164935891" x="801" y="150.25352417532054" rx="5" ry="5" fill="white" />
    <rect width="8" height="118.55209750131289" x="811" y="140.72395124934354" rx="5" ry="5" fill="white" />
    <rect width="8" height="112.68387870563099" x="821" y="143.6580606471845" rx="5" ry="5" fill="white" />
    <rect width="8" height="91.87949215770792" x="831" y="154.06025392114606" rx="5" ry="5" fill="white" />
    <rect width="8" height="116.61340686232965" x="841" y="141.69329656883517" rx="5" ry="5" fill="white" />
    <rect width="8" height="128.6690171570376" x="851" y="135.6654914214812" rx="5" ry="5" fill="white" />
    <rect width="8" height="93.07140776175567" x="861" y="153.46429611912217" rx="5" ry="5" fill="white" />
    <rect width="8" height="99.17298599955586" x="871" y="150.41350700022207" rx="5" ry="5" fill="white" />
    <rect width="8" height="91.65887319566463" x="881" y="154.1705634021677" rx="5" ry="5" fill="white" />
    <rect width="8" height="74.51673250848464" x="891" y="162.74163374575767" rx="5" ry="5" fill="white" />
    <rect width="8" height="75.65052976900168" x="901" y="162.17473511549917" rx="5" ry="5" fill="white" />
    <rect width="8" height="84.0720832274527" x="911" y="157.96395838627365" rx="5" ry="5" fill="white" />
    <rect width="8" height="84.00641356929323" x="921" y="157.9967932153534" rx="5" ry="5" fill="white" />
    <rect width="8" height="83.0767072010898" x="931" y="158.4616463994551" rx="5" ry="5" fill="white" />
    <rect width="8" height="75.66969843111374" x="941" y="162.16515078444314" rx="5" ry="5" fill="white" />
    <rect width="8" height="73.90578141895253" x="951" y="163.04710929052374" rx="5" ry="5" fill="white" />
    <rect width="8" height="69.73141639647174" x="961" y="165.13429180176414" rx="5" ry="5" fill="white" />
    <rect width="8" height="90.00528302189225" x="971" y="154.99735848905388" rx="5" ry="5" fill="white" />
    <rect width="8" height="84.43001137760794" x="981" y="157.78499431119604" rx="5" ry="5" fill="white" />
    <rect width="8" height="92.44257255355708" x="991" y="153.77871372322147" rx="5" ry="5" fill="white" />
    <rect width="8" height="82.65312123191563" x="1001" y="158.67343938404218" rx="5" ry="5" fill="white" />
    <rect width="8" height="81.87100856856324" x="1011" y="159.06449571571838" rx="5" ry="5" fill="white" />
    <rect width="8" height="90.13587353143274" x="1021" y="154.93206323428365" rx="5" ry="5" fill="white" />
    <rect width="8" height="72.75652556056366" x="1031" y="163.62173721971817" rx="5" ry="5" fill="white" />
    <rect width="8" height="92.38501665181481" x="1041" y="153.8074916740926" rx="5" ry="5" fill="white" />
    <rect width="8" height="79.49926264163797" x="1051" y="160.250368679181" rx="5" ry="5" fill="white" />
    <rect width="8" height="85.0946494296447" x="1061" y="157.45267528517763" rx="5" ry="5" fill="white" />
    <rect width="8" height="85.75950393472269" x="1071" y="157.12024803263864" rx="5" ry="5" fill="white" />
    <rect width="8" height="72.40435651857754" x="1081" y="163.79782174071124" rx="5" ry="5" fill="white" />
    <rect width="8" height="63.54152968806037" x="1091" y="168.2292351559698" rx="5" ry="5" fill="white" />
    <rect width="8" height="69.95064033404145" x="1101" y="165.02467983297927" rx="5" ry="5" fill="white" />
    <rect width="8" height="83.07292656669624" x="1111" y="158.46353671665187" rx="5" ry="5" fill="white" />
    <rect width="8" height="82.66766731853001" x="1121" y="158.666166340735" rx="5" ry="5" fill="white" />
    <rect width="8" height="76.49085513288644" x="1131" y="161.75457243355677" rx="5" ry="5" fill="white" />
    <rect width="8" height="72.58596239123786" x="1141" y="163.70701880438108" rx="5" ry="5" fill="white" />
    <rect width="8" height="80.91064548973864" x="1151" y="159.5446772551307" rx="5" ry="5" fill="white" />
    <rect width="8" height="77.22783932304218" x="1161" y="161.3860803384789" rx="5" ry="5" fill="white" />
    <rect width="8" height="99.49436311476848" x="1171" y="150.25281844261576" rx="5" ry="5" fill="white" />
    <rect width="8" height="120.22394714477645" x="1181" y="139.88802642761178" rx="5" ry="5" fill="white" />
    <rect width="8" height="124.43657731481925" x="1191" y="137.78171134259037" rx="5" ry="5" fill="white" />
    <rect width="8" height="120.56524102203312" x="1201" y="139.71737948898345" rx="5" ry="5" fill="white" />
    <rect width="8" height="98.1668515869458" x="1211" y="150.91657420652712" rx="5" ry="5" fill="white" />
    <rect width="8" height="117.43318977726737" x="1221" y="141.2834051113663" rx="5" ry="5" fill="white" />
    <rect width="8" height="87.02552750109932" x="1231" y="156.48723624945035" rx="5" ry="5" fill="white" />
    <rect width="8" height="99.57296190218341" x="1241" y="150.2135190489083" rx="5" ry="5" fill="white" />
    <rect width="8" height="89.06109271740455" x="1251" y="155.46945364129772" rx="5" ry="5" fill="white" />
    <rect width="8" height="90.665364667369" x="1261" y="154.6673176663155" rx="5" ry="5" fill="white" />
    <rect width="8" height="80.40222614720443" x="1271" y="159.79888692639778" rx="5" ry="5" fill="white" />
    <rect width="8" height="80.09654841963525" x="1281" y="159.95172579018237" rx="5" ry="5" fill="white" />
    <rect width="8" height="75.58747510938663" x="1291" y="162.2062624453067" rx="5" ry="5" fill="white" />
    <rect width="8" height="87.43882197833227" x="1301" y="156.28058901083386" rx="5" ry="5" fill="white" />
    <rect width="8" height="76.61391838254674" x="1311" y="161.69304080872664" rx="5" ry="5" fill="white" />
    <rect width="8" height="84.88609599292214" x="1321" y="157.55695200353892" rx="5" ry="5" fill="white" />
    <rect width="8" height="83.91655108884689" x="1331" y="158.04172445557657" rx="5" ry="5" fill="white" />
    <rect width="8" height="69.36808992424368" x="1341" y="165.31595503787815" rx="5" ry="5" fill="white" />
    <rect width="8" height="80.99336964070828" x="1351" y="159.50331517964585" rx="5" ry="5" fill="white" />
    <rect width="8" height="78.14937286146734" x="1361" y="160.92531356926634" rx="5" ry="5" fill="white" />
    <rect width="8" height="93.12989357648686" x="1371" y="153.43505321175655" rx="5" ry="5" fill="white" />
    <rect width="8" height="87.23224619756435" x="1381" y="156.38387690121783" rx="5" ry="5" fill="white" />
    <rect width="8" height="82.87558929762132" x="1391" y="158.56220535118933" rx="5" ry="5" fill="white" />
    <rect width="8" height="81.0503991392823" x="1401" y="159.47480043035884" rx="5" ry="5" fill="white" />
    <rect width="8" height="71.31599482354548" x="1411" y="164.34200258822727" rx="5" ry="5" fill="white" />
    <rect width="8" height="65.3206351251979" x="1421" y="167.33968243740105" rx="5" ry="5" fill="white" />
    <rect width="8" height="67.96200731244538" x="1431" y="166.0189963437773" rx="5" ry="5" fill="white" />
    <rect width="8" height="87.02748859696416" x="1441" y="156.4862557015179" rx="5" ry="5" fill="white" />
    <rect width="8" height="83.67772488000158" x="1451" y="158.16113755999922" rx="5" ry="5" fill="white" />
    <rect width="8" height="70.76586509152096" x="1461" y="164.61706745423953" rx="5" ry="5" fill="white" />
    <rect width="8" height="69.45851261034568" x="1471" y="165.27074369482716" rx="5" ry="5" fill="white" />
    <rect width="8" height="63.7255704560052" x="1481" y="168.1372147719974" rx="5" ry="5" fill="white" />
    <rect width="8" height="67.82026596745273" x="1491" y="166.08986701627364" rx="5" ry="5" fill="white" />
    <rect width="8" height="72.28683162894154" x="1501" y="163.85658418552924" rx="5" ry="5" fill="white" />
    <rect width="8" height="89.40895957193258" x="1511" y="155.2955202140337" rx="5" ry="5" fill="white" />
    <rect width="8" height="68.06329508899032" x="1521" y="165.96835245550483" rx="5" ry="5" fill="white" />
    <rect width="8" height="72.2594241657076" x="1531" y="163.8702879171462" rx="5" ry="5" fill="white" />
    <rect width="8" height="79.29059784254382" x="1541" y="160.35470107872808" rx="5" ry="5" fill="white" />
    <rect width="8" height="67.71113471883518" x="1551" y="166.1444326405824" rx="5" ry="5" fill="white" />
    <rect width="8" height="64.65064511594281" x="1561" y="167.6746774420286" rx="5" ry="5" fill="white" />
    <rect width="8" height="57.7827290538359" x="1571" y="171.10863547308205" rx="5" ry="5" fill="white" />
    <rect width="8" height="71.27587438314166" x="1581" y="164.3620628084292" rx="5" ry="5" fill="white" />
    <rect width="8" height="60.82202595932221" x="1591" y="169.5889870203389" rx="5" ry="5" fill="white" />
    <rect width="8" height="59.69244262874794" x="1601" y="170.15377868562604" rx="5" ry="5" fill="white" />
    <rect width="8" height="48.892697759307104" x="1611" y="175.55365112034644" rx="5" ry="5" fill="white" />
    <rect width="8" height="50.846182724925036" x="1621" y="174.57690863753749" rx="5" ry="5" fill="white" />
    <rect width="8" height="52.22016428441083" x="1631" y="173.8899178577946" rx="5" ry="5" fill="white" />
    <rect width="8" height="45.02565614029423" x="1641" y="177.48717192985288" rx="5" ry="5" fill="white" />
    <rect width="8" height="44.55327967663625" x="1651" y="177.72336016168188" rx="5" ry="5" fill="white" />
    <rect width="8" height="44.32250924193438" x="1661" y="177.83874537903282" rx="5" ry="5" fill="white" />
    <rect width="8" height="43.1515616656642" x="1671" y="178.4242191671679" rx="5" ry="5" fill="white" />
    <rect width="8" height="42.320311326291126" x="1681" y="178.83984433685444" rx="5" ry="5" fill="white" />
    <rect width="8" height="41.63737425021654" x="1691" y="179.18131287489172" rx="5" ry="5" fill="white" />
    <rect width="8" height="39.85748773294425" x="1701" y="180.07125613352787" rx="5" ry="5" fill="white" />
    <rect width="8" height="39.30837720365146" x="1711" y="180.34581139817428" rx="5" ry="5" fill="white" />
    <rect width="8" height="43.97500646775879" x="1721" y="178.0124967661206" rx="5" ry="5" fill="white" />
    <rect width="8" height="44.991146271023936" x="1731" y="177.50442686448804" rx="5" ry="5" fill="white" />
    <rect width="8" height="43.99177732311381" x="1741" y="178.0041113384431" rx="5" ry="5" fill="white" />
    <rect width="8" height="43.35949278366101" x="1751" y="178.32025360816948" rx="5" ry="5" fill="white" />
    <rect width="8" height="43.45185630141047" x="1761" y="178.27407184929476" rx="5" ry="5" fill="white" />
    <rect width="8" height="44.850958863694146" x="1771" y="177.57452056815293" rx="5" ry="5" fill="white" />
    <rect width="8" height="48.505653635792605" x="1781" y="175.7471731821037" rx="5" ry="5" fill="white" />
    <rect width="8" height="52.59645146824726" x="1791" y="173.70177426587637" rx="5" ry="5" fill="white" />
    <rect width="8" height="56.62517069156714" x="1801" y="171.68741465421644" rx="5" ry="5" fill="white" />
    <rect width="8" height="59.88332270395678" x="1811" y="170.05833864802162" rx="5" ry="5" fill="white" />
    <rect width="8" height="57.298276011299585" x="1821" y="171.3508619943502" rx="5" ry="5" fill="white" />
    <rect width="8" height="53.09972669930622" x="1831" y="173.4501366503469" rx="5" ry="5" fill="white" />
    <rect width="8" height="50.2095879665052" x="1841" y="174.8952060167474" rx="5" ry="5" fill="white" />
    <rect width="8" height="43.87626162583806" x="1851" y="178.06186918708096" rx="5" ry="5" fill="white" />
    <rect width="8" height="35.89070540107244" x="1861" y="182.0546472994638" rx="5" ry="5" fill="white" />
    <rect width="8" height="30.996459562715177" x="1871" y="184.5017702186424" rx="5" ry="5" fill="white" />
    <rect width="8" height="28.73736712898879" x="1881" y="185.6313164355056" rx="5" ry="5" fill="white" />
    <rect width="8" height="32.14716005988731" x="1891" y="183.92641997005634" rx="5" ry="5" fill="white" />
    <rect width="8" height="24.337805788385054" x="1901" y="187.8310971058075" rx="5" ry="5" fill="white" />
    <rect width="8" height="8" x="1911" y="196" rx="5" ry="5" fill="white" />
    <rect width="8" height="13.774765280730472" x="1921" y="193.11261735963475" rx="5" ry="5" fill="white" />
    <rect width="8" height="21.62824308357069" x="1931" y="189.18587845821466" rx="5" ry="5" fill="white" />
    <rect width="8" height="20.054200616290483" x="1941" y="189.97289969185476" rx="5" ry="5" fill="white" />
    <rect width="8" height="8" x="1951" y="196" rx="5" ry="5" fill="white" />
    <rect width="8" height="11.273971843989015" x="1961" y="194.3630140780055" rx="5" ry="5" fill="white" />
    <rect width="8" height="19.552658611976085" x="1971" y="190.22367069401196" rx="5" ry="5" fill="white" />
    <rect width="8" height="17.122972363382765" x="1981" y="191.43851381830862" rx="5" ry="5" fill="white" />
    <rect width="8" height="8" x="1991" y="196" rx="5" ry="5" fill="white" />
  </g>
</svg>