<svg 
  baseProfile="tiny"
  preserveAspectRatio="keep"
  version="1.2"
  viewBox="0 0 2000.000000 400.000000"
  height="100%" width="100%"
  xmlns="http://www.w3.org/2000/svg"
  xmlns:ev="http://www.w3.org/2001/xml-events"
  xmlns:xlink="http://www.w3.org/1999/xlink"
>
  <g>
    <rect width="8" height="15.572520377327123" x="1" y="192.21373981133644" rx="5" ry="5" fill="white" />
    <rect width="8" height="30.614662969696678" x="11" y="184.69266851515167" rx="5" ry="5" fill="white" />
    <rect width="8" height="8" x="21" y="196" rx="5" ry="5" fill="white" />
    <rect width="8" height="18.815946970623486" x="31" y="190.59202651468826" rx="5" ry="5" fill="white" />
    <rect width="8" height="8" x="41" y="196" rx="5" ry="5" fill="white" />
    <rect width="8" height="33.11516546414231" x="51" y="183.44241726792885" rx="5" ry="5" fill="white" />
    <rect width="8" height="21.682079945102053" x="61" y="189.15896002744898" rx="5" ry="5" fill="white" />
    <rect width="8" height="29.85142675024704" x="71" y="185.0742866248765" rx="5" ry="5" fill="white" />
    <rect width="8" height="23.714900775227488" x="81" y="188.14254961238626" rx="5" ry="5" fill="white" />
    <rect width="8" height="38.9808699415682" x="91" y="180.5095650292159" rx="5" ry="5" fill="white" />
    <rect width="8" height="27.602049520023403" x="101" y="186.1989752399883" rx="5" ry="5" fill="white" />
    <rect width="8" height="37.46627347467425" x="111" y="181.26686326266287" rx="5" ry="5" fill="white" />
    <rect width="8" height="28.037732745811084" x="121" y="185.98113362709447" rx="5" ry="5" fill="white" />
    <rect width="8" height="43.76665978960775" x="131" y="178.11667010519614" rx="5" ry="5" fill="white" />
    <rect width="8" height="31.048941254284607" x="141" y="184.4755293728577" rx="5" ry="5" fill="white" />
    <rect width="8" height="49.60766218011205" x="151" y="175.19616890994396" rx="5" ry="5" fill="white" />
    <rect width="8" height="33.83702718785071" x="161" y="183.08148640607465" rx="5" ry="5" fill="white" />
    <rect width="8" height="39.281033315402574" x="171" y="180.35948334229872" rx="5" ry="5" fill="white" />
    <rect width="8" height="31.435516237832772" x="181" y="184.28224188108362" rx="5" ry="5" fill="white" />
    <rect width="8" height="47.795713327929086" x="191" y="176.10214333603545" rx="5" ry="5" fill="white" />
    <rect width="8" height="30.02580866794992" x="201" y="184.98709566602503" rx="5" ry="5" fill="white" />
    <rect width="8" height="40.153632293882666" x="211" y="179.92318385305867" rx="5" ry="5" fill="white" />
    <rect width="8" height="32.82712037742076" x="221" y="183.5864398112896" rx="5" ry="5" fill="white" />
    <rect width="8" height="46.40109426012734" x="231" y="176.79945286993632" rx="5" ry="5" fill="white" />
    <rect width="8" height="35.78189835992464" x="241" y="182.10905082003768" rx="5" ry="5" fill="white" />
    <rect width="8" height="45.01668934336207" x="251" y="177.49165532831896" rx="5" ry="5" fill="white" />
    <rect width="8" height="35.74081866081782" x="261" y="182.1295906695911" rx="5" ry="5" fill="white" />
    <rect width="8" height="51.633165689101126" x="271" y="174.18341715544943" rx="5" ry="5" fill="white" />
    <rect width="8" height="30.701084585968452" x="281" y="184.64945770701578" rx="5" ry="5" fill="white" />
    <rect width="8" height="43.21059921742496" x="291" y="178.39470039128753" rx="5" ry="5" fill="white" />
    <rect width="8" height="40.64716188439776" x="301" y="179.67641905780113" rx="5" ry="5" fill="white" />
    <rect width="8" height="46.922457862729665" x="311" y="176.53877106863516" rx="5" ry="5" fill="white" />
    <rect width="8" height="29.01754443393904" x="321" y="185.49122778303047" rx="5" ry="5" fill="white" />
    <rect width="8" height="40.03175830853205" x="331" y="179.98412084573397" rx="5" ry="5" fill="white" />
    <rect width="8" height="49.21688565810549" x="341" y="175.39155717094727" rx="5" ry="5" fill="white" />
    <rect width="8" height="49.05471474894715" x="351" y="175.47264262552642" rx="5" ry="5" fill="white" />
    <rect width="8" height="27.64926933348484" x="361" y="186.1753653332576" rx="5" ry="5" fill="white" />
    <rect width="8" height="36.789872855225866" x="371" y="181.60506357238705" rx="5" ry="5" fill="white" />
    <rect width="8" height="86.45934768876369" x="381" y="156.77032615561816" rx="5" ry="5" fill="white" />
    <rect width="8" height="53.103826499490815" x="391" y="173.4480867502546" rx="5" ry="5" fill="white" />
    <rect width="8" height="90.55321282702802" x="401" y="154.723393586486" rx="5" ry="5" fill="white" />
    <rect width="8" height="43.74009634413756" x="411" y="178.12995182793122" rx="5" ry="5" fill="white" />
    <rect width="8" height="91.09257783720157" x="421" y="154.4537110813992" rx="5" ry="5" fill="white" />
    <rect width="8" height="50.1675732288182" x="431" y="174.9162133855909" rx="5" ry="5" fill="white" />
    <rect width="8" height="89.30795749917954" x="441" y="155.34602125041022" rx="5" ry="5" fill="white" />
    <rect width="8" height="48.95005786583564" x="451" y="175.5249710670822" rx="5" ry="5" fill="white" />
    <rect width="8" height="87.01183267169542" x="461" y="156.4940836641523" rx="5" ry="5" fill="white" />
    <rect width="8" height="48.928787600825146" x="471" y="175.53560619958742" rx="5" ry="5" fill="white" />
    <rect width="8" height="90.48201234305962" x="481" y="154.75899382847018" rx="5" ry="5" fill="white" />
    <rect width="8" height="66.49778292256158" x="491" y="166.75110853871922" rx="5" ry="5" fill="white" />
    <rect width="8" height="94.23830547836987" x="501" y="152.88084726081507" rx="5" ry="5" fill="white" />
    <rect width="8" height="64.63052192169091" x="511" y="167.68473903915455" rx="5" ry="5" fill="white" />
    <rect width="8" height="93.0165951975119" x="521" y="153.49170240124405" rx="5" ry="5" fill="white" />
    <rect width="8" height="52.27238975157642" x="531" y="173.86380512421178" rx="5" ry="5" fill="white" />
    <rect width="8" height="86.67631673294197" x="541" y="156.661841633529" rx="5" ry="5" fill="white" />
    <rect width="8" height="48.48931935898364" x="551" y="175.75534032050817" rx="5" ry="5" fill="white" />
    <rect width="8" height="89.189441686995" x="561" y="155.4052791565025" rx="5" ry="5" fill="white" />
    <rect width="8" height="57.167749643878054" x="571" y="171.41612517806098" rx="5" ry="5" fill="white" />
    <rect width="8" height="58.56044373204136" x="581" y="170.71977813397933" rx="5" ry="5" fill="white" />
    <rect width="8" height="46.162647009437016" x="591" y="176.9186764952815" rx="5" ry="5" fill="white" />
    <rect width="8" height="87.43005164760511" x="601" y="156.28497417619744" rx="5" ry="5" fill="white" />
    <rect width="8" height="48.16981177516575" x="611" y="175.91509411241714" rx="5" ry="5" fill="white" />
    <rect width="8" height="45.52281707371024" x="621" y="177.23859146314487" rx="5" ry="5" fill="white" />
    <rect width="8" height="45.07307817189643" x="631" y="177.46346091405178" rx="5" ry="5" fill="white" />
    <rect width="8" height="87.9344236708494" x="641" y="156.0327881645753" rx="5" ry="5" fill="white" />
    <rect width="8" height="45.23637201831713" x="651" y="177.38181399084144" rx="5" ry="5" fill="white" />
    <rect width="8" height="47.79948602587625" x="661" y="176.10025698706187" rx="5" ry="5" fill="white" />
    <rect width="8" height="49.15114608156854" x="671" y="175.42442695921574" rx="5" ry="5" fill="white" />
    <rect width="8" height="88.14977487555812" x="681" y="155.92511256222093" rx="5" ry="5" fill="white" />
    <rect width="8" height="49.54638307616474" x="691" y="175.22680846191764" rx="5" ry="5" fill="white" />
    <rect width="8" height="49.614861768765614" x="701" y="175.1925691156172" rx="5" ry="5" fill="white" />
    <rect width="8" height="51.400177824001915" x="711" y="174.29991108799905" rx="5" ry="5" fill="white" />
    <rect width="8" height="45.43085854751033" x="721" y="177.28457072624482" rx="5" ry="5" fill="white" />
    <rect width="8" height="61.65401277946334" x="731" y="169.17299361026832" rx="5" ry="5" fill="white" />
    <rect width="8" height="47.03406012450976" x="741" y="176.4829699377451" rx="5" ry="5" fill="white" />
    <rect width="8" height="89.29754504920378" x="751" y="155.3512274753981" rx="5" ry="5" fill="white" />
    <rect width="8" height="51.92593857022189" x="761" y="174.03703071488906" rx="5" ry="5" fill="white" />
    <rect width="8" height="97.6364529618773" x="771" y="151.18177351906135" rx="5" ry="5" fill="white" />
    <rect width="8" height="48.54282461915349" x="781" y="175.72858769042324" rx="5" ry="5" fill="white" />
    <rect width="8" height="91.68971282014499" x="791" y="154.1551435899275" rx="5" ry="5" fill="white" />
    <rect width="8" height="35.23431854367724" x="801" y="182.38284072816137" rx="5" ry="5" fill="white" />
    <rect width="8" height="61.85147156395473" x="811" y="169.07426421802262" rx="5" ry="5" fill="white" />
    <rect width="8" height="45.601560352281126" x="821" y="177.19921982385944" rx="5" ry="5" fill="white" />
    <rect width="8" height="100.54611872095887" x="831" y="149.72694063952056" rx="5" ry="5" fill="white" />
    <rect width="8" height="42.23657079063258" x="841" y="178.8817146046837" rx="5" ry="5" fill="white" />
    <rect width="8" height="95.16255612888914" x="851" y="152.41872193555542" rx="5" ry="5" fill="white" />
    <rect width="8" height="44.95684057792571" x="861" y="177.52157971103713" rx="5" ry="5" fill="white" />
    <rect width="8" height="96.96229601067085" x="871" y="151.51885199466457" rx="5" ry="5" fill="white" />
    <rect width="8" height="44.33774503982894" x="881" y="177.83112748008554" rx="5" ry="5" fill="white" />
    <rect width="8" height="77.49661884350103" x="891" y="161.25169057824948" rx="5" ry="5" fill="white" />
    <rect width="8" height="45.35201396873539" x="901" y="177.3239930156323" rx="5" ry="5" fill="white" />
    <rect width="8" height="97.74204763836674" x="911" y="151.12897618081664" rx="5" ry="5" fill="white" />
    <rect width="8" height="53.562316834775245" x="921" y="173.21884158261238" rx="5" ry="5" fill="white" />
    <rect width="8" height="119.57500179102438" x="931" y="140.21249910448782" rx="5" ry="5" fill="white" />
    <rect width="8" height="49.360203838567415" x="941" y="175.31989808071629" rx="5" ry="5" fill="white" />
    <rect width="8" height="97.18381531470588" x="951" y="151.40809234264705" rx="5" ry="5" fill="white" />
    <rect width="8" height="47.04612218207585" x="961" y="176.47693890896207" rx="5" ry="5" fill="white" />
    <rect width="8" height="94.59442517510219" x="971" y="152.7027874124489" rx="5" ry="5" fill="white" />
    <rect width="8" height="54.2919826734291" x="981" y="172.85400866328544" rx="5" ry="5" fill="white" />
    <rect width="8" height="99.74675315621135" x="991" y="150.12662342189432" rx="5" ry="5" fill="white" />
    <rect width="8" height="53.32123096430562" x="1001" y="173.33938451784718" rx="5" ry="5" fill="white" />
    <rect width="8" height="97.12875759982373" x="1011" y="151.43562120008812" rx="5" ry="5" fill="white" />
    <rect width="8" height="62.53775946270517" x="1021" y="168.73112026864743" rx="5" ry="5" fill="white" />
    <rect width="8" height="63.84081665826612" x="1031" y="168.07959167086693" rx="5" ry="5" fill="white" />
    <rect width="8" height="60.440710115621485" x="1041" y="169.77964494218926" rx="5" ry="5" fill="white" />
    <rect width="8" height="59.38144036208681" x="1051" y="170.30927981895658" rx="5" ry="5" fill="white" />
    <rect width="8" height="55.42400243975387" x="1061" y="172.28799878012308" rx="5" ry="5" fill="white" />
    <rect width="8" height="73.58233821182037" x="1071" y="163.20883089408983" rx="5" ry="5" fill="white" />
    <rect width="8" height="63.54711127431284" x="1081" y="168.22644436284358" rx="5" ry="5" fill="white" />
    <rect width="8" height="60.731981929479915" x="1091" y="169.63400903526005" rx="5" ry="5" fill="white" />
    <rect width="8" height="65.87441656672755" x="1101" y="167.06279171663624" rx="5" ry="5" fill="white" />
    <rect width="8" height="69.16474663412626" x="1111" y="165.41762668293688" rx="5" ry="5" fill="white" />
    <rect width="8" height="54.06091280667078" x="1121" y="172.9695435966646" rx="5" ry="5" fill="white" />
    <rect width="8" height="76.94757065825905" x="1131" y="161.52621467087047" rx="5" ry="5" fill="white" />
    <rect width="8" height="61.152649483430096" x="1141" y="169.42367525828496" rx="5" ry="5" fill="white" />
    <rect width="8" height="68.54359704532003" x="1151" y="165.72820147733998" rx="5" ry="5" fill="white" />
    <rect width="8" height="64.58703348164003" x="1161" y="167.70648325917998" rx="5" ry="5" fill="white" />
    <rect width="8" height="77.09318571330532" x="1171" y="161.45340714334733" rx="5" ry="5" fill="white" />
    <rect width="8" height="57.2655678335911" x="1181" y="171.36721608320445" rx="5" ry="5" fill="white" />
    <rect width="8" height="63.2457966684573" x="1191" y="168.37710166577136" rx="5" ry="5" fill="white" />
    <rect width="8" height="58.926306507537895" x="1201" y="170.53684674623105" rx="5" ry="5" fill="white" />
    <rect width="8" height="71.63418942503293" x="1211" y="164.18290528748355" rx="5" ry="5" fill="white" />
    <rect width="8" height="61.42909550963363" x="1221" y="169.2854522451832" rx="5" ry="5" fill="white" />
    <rect width="8" height="65.3761490323194" x="1231" y="167.3119254838403" rx="5" ry="5" fill="white" />
    <rect width="8" height="61.392432666461985" x="1241" y="169.303783666769" rx="5" ry="5" fill="white" />
    <rect width="8" height="69.09419849737354" x="1251" y="165.45290075131322" rx="5" ry="5" fill="white" />
    <rect width="8" height="56.98965742434308" x="1261" y="171.50517128782846" rx="5" ry="5" fill="white" />
    <rect width="8" height="60.507693224582326" x="1271" y="169.74615338770883" rx="5" ry="5" fill="white" />
    <rect width="8" height="60.01020619311169" x="1281" y="169.99489690344416" rx="5" ry="5" fill="white" />
    <rect width="8" height="64.38349311467482" x="1291" y="167.8082534426626" rx="5" ry="5" fill="white" />
    <rect width="8" height="56.50108773604683" x="1301" y="171.7494561319766" rx="5" ry="5" fill="white" />
    <rect width="8" height="60.85220341907225" x="1311" y="169.5738982904639" rx="5" ry="5" fill="white" />
    <rect width="8" height="56.72392497181947" x="1321" y="171.63803751409026" rx="5" ry="5" fill="white" />
    <rect width="8" height="54.66187303298851" x="1331" y="172.66906348350574" rx="5" ry="5" fill="white" />
    <rect width="8" height="39.73766736032595" x="1341" y="180.13116631983704" rx="5" ry="5" fill="white" />
    <rect width="8" height="79.71082009867328" x="1351" y="160.14458995066337" rx="5" ry="5" fill="white" />
    <rect width="8" height="30.197074533717043" x="1361" y="184.90146273314147" rx="5" ry="5" fill="white" />
    <rect width="8" height="50.00044995890435" x="1371" y="174.99977502054782" rx="5" ry="5" fill="white" />
    <rect width="8" height="75.93202962813693" x="1381" y="162.03398518593153" rx="5" ry="5" fill="white" />
    <rect width="8" height="57.81775333012826" x="1391" y="171.09112333493587" rx="5" ry="5" fill="white" />
    <rect width="8" height="87.37434819600371" x="1401" y="156.31282590199814" rx="5" ry="5" fill="white" />
    <rect width="8" height="51.74691102008261" x="1411" y="174.1265444899587" rx="5" ry="5" fill="white" />
    <rect width="8" height="89.4768460918365" x="1421" y="155.26157695408176" rx="5" ry="5" fill="white" />
    <rect width="8" height="30.54234252791726" x="1431" y="184.72882873604138" rx="5" ry="5" fill="white" />
    <rect width="8" height="37.869151240101075" x="1441" y="181.06542437994946" rx="5" ry="5" fill="white" />
    <rect width="8" height="52.40517385061013" x="1451" y="173.79741307469493" rx="5" ry="5" fill="white" />
    <rect width="8" height="89.1386742345319" x="1461" y="155.43066288273405" rx="5" ry="5" fill="white" />
    <rect width="8" height="48.88969602110264" x="1471" y="175.5551519894487" rx="5" ry="5" fill="white" />
    <rect width="8" height="88.7659646811302" x="1481" y="155.6170176594349" rx="5" ry="5" fill="white" />
    <rect width="8" height="54.4385151839719" x="1491" y="172.78074240801405" rx="5" ry="5" fill="white" />
    <rect width="8" height="91.5238567831417" x="1501" y="154.23807160842915" rx="5" ry="5" fill="white" />
    <rect width="8" height="66.77699752899845" x="1511" y="166.61150123550078" rx="5" ry="5" fill="white" />
    <rect width="8" height="72.11474948417955" x="1521" y="163.9426252579102" rx="5" ry="5" fill="white" />
    <rect width="8" height="56.53363553551968" x="1531" y="171.73318223224015" rx="5" ry="5" fill="white" />
    <rect width="8" height="90.83133778773087" x="1541" y="154.58433110613456" rx="5" ry="5" fill="white" />
    <rect width="8" height="70.86988358358057" x="1551" y="164.5650582082097" rx="5" ry="5" fill="white" />
    <rect width="8" height="117.07346413596314" x="1561" y="141.46326793201843" rx="5" ry="5" fill="white" />
    <rect width="8" height="74.69296005527113" x="1571" y="162.65351997236445" rx="5" ry="5" fill="white" />
    <rect width="8" height="96.8394689353709" x="1581" y="151.58026553231454" rx="5" ry="5" fill="white" />
    <rect width="8" height="70.51438285941126" x="1591" y="164.74280857029436" rx="5" ry="5" fill="white" />
    <rect width="8" height="94.13161325379122" x="1601" y="152.9341933731044" rx="5" ry="5" fill="white" />
    <rect width="8" height="58.76949432787254" x="1611" y="170.61525283606372" rx="5" ry="5" fill="white" />
    <rect width="8" height="93.8720214772719" x="1621" y="153.06398926136404" rx="5" ry="5" fill="white" />
    <rect width="8" height="72.42732548935949" x="1631" y="163.78633725532026" rx="5" ry="5" fill="white" />
    <rect width="8" height="103.8665738539735" x="1641" y="148.06671307301326" rx="5" ry="5" fill="white" />
    <rect width="8" height="71.27326391658046" x="1651" y="164.36336804170978" rx="5" ry="5" fill="white" />
    <rect width="8" height="78.66991571139799" x="1661" y="160.665042144301" rx="5" ry="5" fill="white" />
    <rect width="8" height="77.48906115643538" x="1671" y="161.25546942178232" rx="5" ry="5" fill="white" />
    <rect width="8" height="66.28864779665035" x="1681" y="166.85567610167482" rx="5" ry="5" fill="white" />
    <rect width="8" height="66.06474350609044" x="1691" y="166.96762824695477" rx="5" ry="5" fill="white" />
    <rect width="8" height="60.17949328245322" x="1701" y="169.9102533587734" rx="5" ry="5" fill="white" />
    <rect width="8" height="70.7092945708921" x="1711" y="164.64535271455395" rx="5" ry="5" fill="white" />
    <rect width="8" height="78.69484203691461" x="1721" y="160.6525789815427" rx="5" ry="5" fill="white" />
    <rect width="8" height="70.82248050156326" x="1731" y="164.58875974921835" rx="5" ry="5" fill="white" />
    <rect width="8" height="59.46282518270137" x="1741" y="170.26858740864932" rx="5" ry="5" fill="white" />
    <rect width="8" height="64.62337456861232" x="1751" y="167.68831271569383" rx="5" ry="5" fill="white" />
    <rect width="8" height="79.31986734433723" x="1761" y="160.34006632783138" rx="5" ry="5" fill="white" />
    <rect width="8" height="73.54979820434889" x="1771" y="163.22510089782554" rx="5" ry="5" fill="white" />
    <rect width="8" height="53.946640588067595" x="1781" y="173.02667970596622" rx="5" ry="5" fill="white" />
    <rect width="8" height="65.16998337553335" x="1791" y="167.41500831223334" rx="5" ry="5" fill="white" />
    <rect width="8" height="90.88238375567009" x="1801" y="154.55880812216495" rx="5" ry="5" fill="white" />
    <rect width="8" height="78.83665040070879" x="1811" y="160.5816747996456" rx="5" ry="5" fill="white" />
    <rect width="8" height="60.02212689242277" x="1821" y="169.98893655378862" rx="5" ry="5" fill="white" />
    <rect width="8" height="67.1149192750468" x="1831" y="166.4425403624766" rx="5" ry="5" fill="white" />
    <rect width="8" height="80.03601489468612" x="1841" y="159.98199255265695" rx="5" ry="5" fill="white" />
    <rect width="8" height="74.31382864339572" x="1851" y="162.84308567830215" rx="5" ry="5" fill="white" />
    <rect width="8" height="57.951391627097735" x="1861" y="171.02430418645113" rx="5" ry="5" fill="white" />
    <rect width="8" height="63.70520024446061" x="1871" y="168.1473998777697" rx="5" ry="5" fill="white" />
    <rect width="8" height="90.06141603376082" x="1881" y="154.9692919831196" rx="5" ry="5" fill="white" />
    <rect width="8" height="80.95756340263362" x="1891" y="159.52121829868318" rx="5" ry="5" fill="white" />
    <rect width="8" height="51.49858045422838" x="1901" y="174.2507097728858" rx="5" ry="5" fill="white" />
    <rect width="8" height="69.85558160265938" x="1911" y="165.0722091986703" rx="5" ry="5" fill="white" />
    <rect width="8" height="79.99540393041913" x="1921" y="160.00229803479044" rx="5" ry="5" fill="white" />
    <rect width="8" height="73.38300369052888" x="1931" y="163.30849815473556" rx="5" ry="5" fill="white" />
    <rect width="8" height="39.74401627852551" x="1941" y="180.12799186073724" rx="5" ry="5" fill="white" />
    <rect width="8" height="31.8391988688683" x="1951" y="184.08040056556584" rx="5" ry="5" fill="white" />
    <rect width="8" height="8" x="1961" y="196" rx="5" ry="5" fill="white" />
    <rect width="8" height="33.012685190643815" x="1971" y="183.4936574046781" rx="5" ry="5" fill="white" />
    <rect width="8" height="8" x="1981" y="196" rx="5" ry="5" fill="white" />
    <rect width="8" height="11.07462180160757" x="1991" y="194.4626890991962" rx="5" ry="5" fill="white" />
  </g>
</svg>