<svg 
  baseProfile="tiny"
  preserveAspectRatio="keep"
  version="1.2"
  viewBox="0 0 2000.000000 400.000000"
  height="100%" width="100%"
  xmlns="http://www.w3.org/2000/svg"
  xmlns:ev="http://www.w3.org/2001/xml-events"
  xmlns:xlink="http://www.w3.org/1999/xlink"
>
  <g>
    <rect width="8" height="8" x="1" y="196" rx="5" ry="5" fill="white" />
    <rect width="8" height="8" x="11" y="196" rx="5" ry="5" fill="white" />
    <rect width="8" height="8" x="21" y="196" rx="5" ry="5" fill="white" />
    <rect width="8" height="15.827442688637166" x="31" y="192.0862786556814" rx="5" ry="5" fill="white" />
    <rect width="8" height="8" x="41" y="196" rx="5" ry="5" fill="white" />
    <rect width="8" height="8" x="51" y="196" rx="5" ry="5" fill="white" />
    <rect width="8" height="8" x="61" y="196" rx="5" ry="5" fill="white" />
    <rect width="8" height="8" x="71" y="196" rx="5" ry="5" fill="white" />
    <rect width="8" height="20.31871284514022" x="81" y="189.8406435774299" rx="5" ry="5" fill="white" />
    <rect width="8" height="25.461756273007236" x="91" y="187.2691218634964" rx="5" ry="5" fill="white" />
    <rect width="8" height="20.23483789026693" x="101" y="189.88258105486653" rx="5" ry="5" fill="white" />
    <rect width="8" height="15.564328253651476" x="111" y="192.21783587317427" rx="5" ry="5" fill="white" />
    <rect width="8" height="11.432648517736135" x="121" y="194.28367574113193" rx="5" ry="5" fill="white" />
    <rect width="8" height="8" x="131" y="196" rx="5" ry="5" fill="white" />
    <rect width="8" height="8" x="141" y="196" rx="5" ry="5" fill="white" />
    <rect width="8" height="28.84956106613787" x="151" y="185.57521946693106" rx="5" ry="5" fill="white" />
    <rect width="8" height="57.86208973287089" x="161" y="171.06895513356454" rx="5" ry="5" fill="white" />
    <rect width="8" height="49.23287940976068" x="171" y="175.38356029511965" rx="5" ry="5" fill="white" />
    <rect width="8" height="39.16348600542632" x="181" y="180.41825699728685" rx="5" ry="5" fill="white" />
    <rect width="8" height="32.92461730851517" x="191" y="183.53769134574242" rx="5" ry="5" fill="white" />
    <rect width="8" height="44.3577649047414" x="201" y="177.82111754762929" rx="5" ry="5" fill="white" />
    <rect width="8" height="62.12813663275052" x="211" y="168.93593168362474" rx="5" ry="5" fill="white" />
    <rect width="8" height="52.08746139379695" x="221" y="173.95626930310152" rx="5" ry="5" fill="white" />
    <rect width="8" height="43.70192922198562" x="231" y="178.1490353890072" rx="5" ry="5" fill="white" />
    <rect width="8" height="38.48834792073409" x="241" y="180.75582603963295" rx="5" ry="5" fill="white" />
    <rect width="8" height="50.66525798141911" x="251" y="174.66737100929043" rx="5" ry="5" fill="white" />
    <rect width="8" height="57.66573137363796" x="261" y="171.167134313181" rx="5" ry="5" fill="white" />
    <rect width="8" height="45.69953026926683" x="271" y="177.1502348653666" rx="5" ry="5" fill="white" />
    <rect width="8" height="37.70401572960347" x="281" y="181.14799213519825" rx="5" ry="5" fill="white" />
    <rect width="8" height="32.683331055288775" x="291" y="183.65833447235562" rx="5" ry="5" fill="white" />
    <rect width="8" height="131.639501950127" x="301" y="134.1802490249365" rx="5" ry="5" fill="white" />
    <rect width="8" height="123.87410209156546" x="311" y="138.06294895421726" rx="5" ry="5" fill="white" />
    <rect width="8" height="123.44061572733939" x="321" y="138.2796921363303" rx="5" ry="5" fill="white" />
    <rect width="8" height="128.24236703196667" x="331" y="135.87881648401668" rx="5" ry="5" fill="white" />
    <rect width="8" height="129.54005501387445" x="341" y="135.22997249306277" rx="5" ry="5" fill="white" />
    <rect width="8" height="130.87806014537136" x="351" y="134.56096992731432" rx="5" ry="5" fill="white" />
    <rect width="8" height="122.23784895207301" x="361" y="138.8810755239635" rx="5" ry="5" fill="white" />
    <rect width="8" height="124.01245978403179" x="371" y="137.99377010798412" rx="5" ry="5" fill="white" />
    <rect width="8" height="127.03942385920746" x="381" y="136.48028807039628" rx="5" ry="5" fill="white" />
    <rect width="8" height="130.63224089500446" x="391" y="134.68387955249779" rx="5" ry="5" fill="white" />
    <rect width="8" height="120.91545276702018" x="401" y="139.54227361648992" rx="5" ry="5" fill="white" />
    <rect width="8" height="115.37821734101976" x="411" y="142.31089132949012" rx="5" ry="5" fill="white" />
    <rect width="8" height="117.17835048653487" x="421" y="141.41082475673255" rx="5" ry="5" fill="white" />
    <rect width="8" height="119.85077261647801" x="431" y="140.074613691761" rx="5" ry="5" fill="white" />
    <rect width="8" height="111.39716611207776" x="441" y="144.30141694396113" rx="5" ry="5" fill="white" />
    <rect width="8" height="93.5496197877443" x="451" y="153.22519010612785" rx="5" ry="5" fill="white" />
    <rect width="8" height="87.30313258033357" x="461" y="156.34843370983322" rx="5" ry="5" fill="white" />
    <rect width="8" height="87.37631511797895" x="471" y="156.31184244101053" rx="5" ry="5" fill="white" />
    <rect width="8" height="88.4786049225466" x="481" y="155.7606975387267" rx="5" ry="5" fill="white" />
    <rect width="8" height="91.20081634479111" x="491" y="154.39959182760444" rx="5" ry="5" fill="white" />
    <rect width="8" height="88.34629595089218" x="501" y="155.82685202455392" rx="5" ry="5" fill="white" />
    <rect width="8" height="88.27571778775643" x="511" y="155.86214110612178" rx="5" ry="5" fill="white" />
    <rect width="8" height="89.4258698135834" x="521" y="155.2870650932083" rx="5" ry="5" fill="white" />
    <rect width="8" height="90.82404672640025" x="531" y="154.58797663679988" rx="5" ry="5" fill="white" />
    <rect width="8" height="130.14401301438332" x="541" y="134.92799349280835" rx="5" ry="5" fill="white" />
    <rect width="8" height="127.85875946848687" x="551" y="136.07062026575656" rx="5" ry="5" fill="white" />
    <rect width="8" height="121.77561317161438" x="561" y="139.1121934141928" rx="5" ry="5" fill="white" />
    <rect width="8" height="123.36349598958432" x="571" y="138.31825200520785" rx="5" ry="5" fill="white" />
    <rect width="8" height="126.18358914464515" x="581" y="136.90820542767742" rx="5" ry="5" fill="white" />
    <rect width="8" height="122.27370111025067" x="591" y="138.86314944487467" rx="5" ry="5" fill="white" />
    <rect width="8" height="117.50550389129215" x="601" y="141.24724805435392" rx="5" ry="5" fill="white" />
    <rect width="8" height="112.10093070312519" x="611" y="143.9495346484374" rx="5" ry="5" fill="white" />
    <rect width="8" height="113.10673066932738" x="621" y="143.44663466533632" rx="5" ry="5" fill="white" />
    <rect width="8" height="115.29081020302155" x="631" y="142.3545948984892" rx="5" ry="5" fill="white" />
    <rect width="8" height="96.89608486007069" x="641" y="151.55195756996466" rx="5" ry="5" fill="white" />
    <rect width="8" height="93.2270943235776" x="651" y="153.3864528382112" rx="5" ry="5" fill="white" />
    <rect width="8" height="88.96209055690043" x="661" y="155.5189547215498" rx="5" ry="5" fill="white" />
    <rect width="8" height="86.73164051635719" x="671" y="156.6341797418214" rx="5" ry="5" fill="white" />
    <rect width="8" height="86.30217299438173" x="681" y="156.84891350280913" rx="5" ry="5" fill="white" />
    <rect width="8" height="95.7368408634327" x="691" y="152.13157956828366" rx="5" ry="5" fill="white" />
    <rect width="8" height="90.64386663797494" x="701" y="154.67806668101252" rx="5" ry="5" fill="white" />
    <rect width="8" height="89.35723841878712" x="711" y="155.32138079060644" rx="5" ry="5" fill="white" />
    <rect width="8" height="88.30380728236463" x="721" y="155.84809635881768" rx="5" ry="5" fill="white" />
    <rect width="8" height="112.49693765841926" x="731" y="143.75153117079037" rx="5" ry="5" fill="white" />
    <rect width="8" height="132.642799744628" x="741" y="133.678600127686" rx="5" ry="5" fill="white" />
    <rect width="8" height="123.3434269229597" x="751" y="138.32828653852016" rx="5" ry="5" fill="white" />
    <rect width="8" height="119.99872822782882" x="761" y="140.0006358860856" rx="5" ry="5" fill="white" />
    <rect width="8" height="121.45208387686368" x="771" y="139.27395806156815" rx="5" ry="5" fill="white" />
    <rect width="8" height="128.920074321342" x="781" y="135.539962839329" rx="5" ry="5" fill="white" />
    <rect width="8" height="135.80852042305602" x="791" y="132.09573978847197" rx="5" ry="5" fill="white" />
    <rect width="8" height="126.00992881480421" x="801" y="136.9950355925979" rx="5" ry="5" fill="white" />
    <rect width="8" height="118.03877389351247" x="811" y="140.98061305324376" rx="5" ry="5" fill="white" />
    <rect width="8" height="118.30650609976597" x="821" y="140.84674695011702" rx="5" ry="5" fill="white" />
    <rect width="8" height="121.77150659079041" x="831" y="139.1142467046048" rx="5" ry="5" fill="white" />
    <rect width="8" height="121.54637897644372" x="841" y="139.22681051177813" rx="5" ry="5" fill="white" />
    <rect width="8" height="115.2670375267399" x="851" y="142.36648123663005" rx="5" ry="5" fill="white" />
    <rect width="8" height="111.59447243235591" x="861" y="144.20276378382204" rx="5" ry="5" fill="white" />
    <rect width="8" height="114.39818031158393" x="871" y="142.80090984420804" rx="5" ry="5" fill="white" />
    <rect width="8" height="103.64943675055136" x="881" y="148.17528162472433" rx="5" ry="5" fill="white" />
    <rect width="8" height="102.69120511892078" x="891" y="148.6543974405396" rx="5" ry="5" fill="white" />
    <rect width="8" height="94.96032491452607" x="901" y="152.51983754273698" rx="5" ry="5" fill="white" />
    <rect width="8" height="90.79750287516765" x="911" y="154.60124856241617" rx="5" ry="5" fill="white" />
    <rect width="8" height="86.93637493161938" x="921" y="156.5318125341903" rx="5" ry="5" fill="white" />
    <rect width="8" height="87.46214002474787" x="931" y="156.26892998762605" rx="5" ry="5" fill="white" />
    <rect width="8" height="74.7520417942695" x="941" y="162.62397910286523" rx="5" ry="5" fill="white" />
    <rect width="8" height="68.68339591360507" x="951" y="165.65830204319747" rx="5" ry="5" fill="white" />
    <rect width="8" height="59.71972942637511" x="961" y="170.14013528681244" rx="5" ry="5" fill="white" />
    <rect width="8" height="55.80911043343433" x="971" y="172.09544478328283" rx="5" ry="5" fill="white" />
    <rect width="8" height="62.06266929749986" x="981" y="168.96866535125008" rx="5" ry="5" fill="white" />
    <rect width="8" height="52.97722552556057" x="991" y="173.5113872372197" rx="5" ry="5" fill="white" />
    <rect width="8" height="46.924399622516795" x="1001" y="176.5378001887416" rx="5" ry="5" fill="white" />
    <rect width="8" height="41.9948929211445" x="1011" y="179.00255353942777" rx="5" ry="5" fill="white" />
    <rect width="8" height="104.91440715765646" x="1021" y="147.54279642117177" rx="5" ry="5" fill="white" />
    <rect width="8" height="131.1525964517381" x="1031" y="134.42370177413096" rx="5" ry="5" fill="white" />
    <rect width="8" height="123.14173274816069" x="1041" y="138.42913362591966" rx="5" ry="5" fill="white" />
    <rect width="8" height="120.15958909912658" x="1051" y="139.9202054504367" rx="5" ry="5" fill="white" />
    <rect width="8" height="119.92635705357522" x="1061" y="140.0368214732124" rx="5" ry="5" fill="white" />
    <rect width="8" height="122.52705532306291" x="1071" y="138.73647233846856" rx="5" ry="5" fill="white" />
    <rect width="8" height="112.51922692627505" x="1081" y="143.74038653686247" rx="5" ry="5" fill="white" />
    <rect width="8" height="113.08958871346277" x="1091" y="143.4552056432686" rx="5" ry="5" fill="white" />
    <rect width="8" height="117.2082858113326" x="1101" y="141.3958570943337" rx="5" ry="5" fill="white" />
    <rect width="8" height="113.20012731610629" x="1111" y="143.39993634194684" rx="5" ry="5" fill="white" />
    <rect width="8" height="94.90458155954792" x="1121" y="152.54770922022604" rx="5" ry="5" fill="white" />
    <rect width="8" height="103.99764566736975" x="1131" y="148.00117716631513" rx="5" ry="5" fill="white" />
    <rect width="8" height="103.40701235104044" x="1141" y="148.2964938244798" rx="5" ry="5" fill="white" />
    <rect width="8" height="94.46133940669841" x="1151" y="152.7693302966508" rx="5" ry="5" fill="white" />
    <rect width="8" height="90.45053294850256" x="1161" y="154.77473352574873" rx="5" ry="5" fill="white" />
    <rect width="8" height="99.66397161351992" x="1171" y="150.16801419324003" rx="5" ry="5" fill="white" />
    <rect width="8" height="97.68479899500552" x="1181" y="151.15760050249725" rx="5" ry="5" fill="white" />
    <rect width="8" height="93.06654150127002" x="1191" y="153.466729249365" rx="5" ry="5" fill="white" />
    <rect width="8" height="86.95103819244858" x="1201" y="156.52448090377572" rx="5" ry="5" fill="white" />
    <rect width="8" height="86.89640760449416" x="1211" y="156.55179619775294" rx="5" ry="5" fill="white" />
    <rect width="8" height="123.7667267065766" x="1221" y="138.1166366467117" rx="5" ry="5" fill="white" />
    <rect width="8" height="119.40483642015309" x="1231" y="140.29758178992347" rx="5" ry="5" fill="white" />
    <rect width="8" height="120.22001481968174" x="1241" y="139.88999259015912" rx="5" ry="5" fill="white" />
    <rect width="8" height="120.6939354376335" x="1251" y="139.65303228118324" rx="5" ry="5" fill="white" />
    <rect width="8" height="116.08025402407532" x="1261" y="141.95987298796234" rx="5" ry="5" fill="white" />
    <rect width="8" height="97.7578073407135" x="1271" y="151.12109632964325" rx="5" ry="5" fill="white" />
    <rect width="8" height="96.67127638007034" x="1281" y="151.66436180996482" rx="5" ry="5" fill="white" />
    <rect width="8" height="89.27214186633422" x="1291" y="155.3639290668329" rx="5" ry="5" fill="white" />
    <rect width="8" height="82.68720026245576" x="1301" y="158.65639986877213" rx="5" ry="5" fill="white" />
    <rect width="8" height="106.75509538508823" x="1311" y="146.6224523074559" rx="5" ry="5" fill="white" />
    <rect width="8" height="130.3598322273989" x="1321" y="134.82008388630055" rx="5" ry="5" fill="white" />
    <rect width="8" height="135.0284488093553" x="1331" y="132.48577559532237" rx="5" ry="5" fill="white" />
    <rect width="8" height="128.53256743955535" x="1341" y="135.73371628022232" rx="5" ry="5" fill="white" />
    <rect width="8" height="121.4746933751978" x="1351" y="139.26265331240108" rx="5" ry="5" fill="white" />
    <rect width="8" height="123.84107094655208" x="1361" y="138.07946452672397" rx="5" ry="5" fill="white" />
    <rect width="8" height="114.56309615629712" x="1371" y="142.71845192185145" rx="5" ry="5" fill="white" />
    <rect width="8" height="111.91747332701487" x="1381" y="144.04126333649256" rx="5" ry="5" fill="white" />
    <rect width="8" height="109.63748833140347" x="1391" y="145.18125583429827" rx="5" ry="5" fill="white" />
    <rect width="8" height="112.91798970765386" x="1401" y="143.54100514617306" rx="5" ry="5" fill="white" />
    <rect width="8" height="99.59731669059467" x="1411" y="150.20134165470267" rx="5" ry="5" fill="white" />
    <rect width="8" height="100.22288414258591" x="1421" y="149.88855792870703" rx="5" ry="5" fill="white" />
    <rect width="8" height="98.61133778081836" x="1431" y="150.69433110959082" rx="5" ry="5" fill="white" />
    <rect width="8" height="89.02615627368131" x="1441" y="155.48692186315935" rx="5" ry="5" fill="white" />
    <rect width="8" height="87.66369638220955" x="1451" y="156.16815180889523" rx="5" ry="5" fill="white" />
    <rect width="8" height="85.00654627539954" x="1461" y="157.49672686230022" rx="5" ry="5" fill="white" />
    <rect width="8" height="82.68419300102487" x="1471" y="158.65790349948756" rx="5" ry="5" fill="white" />
    <rect width="8" height="83.5539901506498" x="1481" y="158.2230049246751" rx="5" ry="5" fill="white" />
    <rect width="8" height="82.35589437387418" x="1491" y="158.8220528130629" rx="5" ry="5" fill="white" />
    <rect width="8" height="80.75989564620396" x="1501" y="159.620052176898" rx="5" ry="5" fill="white" />
    <rect width="8" height="104.7687535123738" x="1511" y="147.6156232438131" rx="5" ry="5" fill="white" />
    <rect width="8" height="91.88889555114645" x="1521" y="154.05555222442678" rx="5" ry="5" fill="white" />
    <rect width="8" height="84.85039045469695" x="1531" y="157.57480477265153" rx="5" ry="5" fill="white" />
    <rect width="8" height="80.84629781052533" x="1541" y="159.57685109473732" rx="5" ry="5" fill="white" />
    <rect width="8" height="101.89892091826194" x="1551" y="149.05053954086904" rx="5" ry="5" fill="white" />
    <rect width="8" height="136.6626257984368" x="1561" y="131.6686871007816" rx="5" ry="5" fill="white" />
    <rect width="8" height="126.14007936150118" x="1571" y="136.9299603192494" rx="5" ry="5" fill="white" />
    <rect width="8" height="116.2573404647592" x="1581" y="141.8713297676204" rx="5" ry="5" fill="white" />
    <rect width="8" height="119.71657745186171" x="1591" y="140.14171127406914" rx="5" ry="5" fill="white" />
    <rect width="8" height="124.60575866235735" x="1601" y="137.69712066882133" rx="5" ry="5" fill="white" />
    <rect width="8" height="119.48873644000386" x="1611" y="140.25563177999805" rx="5" ry="5" fill="white" />
    <rect width="8" height="113.27756613991664" x="1621" y="143.36121693004168" rx="5" ry="5" fill="white" />
    <rect width="8" height="113.10246143911107" x="1631" y="143.44876928044448" rx="5" ry="5" fill="white" />
    <rect width="8" height="107.54271566940747" x="1641" y="146.22864216529626" rx="5" ry="5" fill="white" />
    <rect width="8" height="123.44562994223108" x="1651" y="138.27718502888445" rx="5" ry="5" fill="white" />
    <rect width="8" height="117.96874878011847" x="1661" y="141.01562560994077" rx="5" ry="5" fill="white" />
    <rect width="8" height="114.43773606753516" x="1671" y="142.7811319662324" rx="5" ry="5" fill="white" />
    <rect width="8" height="114.48667344402182" x="1681" y="142.7566632779891" rx="5" ry="5" fill="white" />
    <rect width="8" height="114.9779102036708" x="1691" y="142.51104489816458" rx="5" ry="5" fill="white" />
    <rect width="8" height="99.9434401292071" x="1701" y="150.02827993539645" rx="5" ry="5" fill="white" />
    <rect width="8" height="97.79112895439438" x="1711" y="151.10443552280282" rx="5" ry="5" fill="white" />
    <rect width="8" height="93.86917825453295" x="1721" y="153.06541087273354" rx="5" ry="5" fill="white" />
    <rect width="8" height="87.21011126994198" x="1731" y="156.394944365029" rx="5" ry="5" fill="white" />
    <rect width="8" height="95.60846341927929" x="1741" y="152.19576829036035" rx="5" ry="5" fill="white" />
    <rect width="8" height="104.32148616217636" x="1751" y="147.83925691891181" rx="5" ry="5" fill="white" />
    <rect width="8" height="94.03579420157654" x="1761" y="152.98210289921172" rx="5" ry="5" fill="white" />
    <rect width="8" height="89.51411697902051" x="1771" y="155.24294151048974" rx="5" ry="5" fill="white" />
    <rect width="8" height="73.3406155366927" x="1781" y="163.32969223165367" rx="5" ry="5" fill="white" />
    <rect width="8" height="50.81943381252817" x="1791" y="174.5902830937359" rx="5" ry="5" fill="white" />
    <rect width="8" height="45.792772439562505" x="1801" y="177.10361378021875" rx="5" ry="5" fill="white" />
    <rect width="8" height="39.04701945995131" x="1811" y="180.47649027002436" rx="5" ry="5" fill="white" />
    <rect width="8" height="36.49475247524479" x="1821" y="181.7526237623776" rx="5" ry="5" fill="white" />
    <rect width="8" height="35.222441311771036" x="1831" y="182.38877934411448" rx="5" ry="5" fill="white" />
    <rect width="8" height="32.62532823293985" x="1841" y="183.68733588353007" rx="5" ry="5" fill="white" />
    <rect width="8" height="33.55713741703637" x="1851" y="183.22143129148182" rx="5" ry="5" fill="white" />
    <rect width="8" height="32.46273860455337" x="1861" y="183.76863069772332" rx="5" ry="5" fill="white" />
    <rect width="8" height="34.643598066916766" x="1871" y="182.67820096654162" rx="5" ry="5" fill="white" />
    <rect width="8" height="30.454532422200636" x="1881" y="184.77273378889967" rx="5" ry="5" fill="white" />
    <rect width="8" height="22.87260411772923" x="1891" y="188.5636979411354" rx="5" ry="5" fill="white" />
    <rect width="8" height="8" x="1901" y="196" rx="5" ry="5" fill="white" />
    <rect width="8" height="8" x="1911" y="196" rx="5" ry="5" fill="white" />
    <rect width="8" height="10.171236519715022" x="1921" y="194.9143817401425" rx="5" ry="5" fill="white" />
    <rect width="8" height="10.070972336857762" x="1931" y="194.9645138315711" rx="5" ry="5" fill="white" />
    <rect width="8" height="18.248986717704422" x="1941" y="190.87550664114778" rx="5" ry="5" fill="white" />
    <rect width="8" height="16.388542122954046" x="1951" y="191.80572893852298" rx="5" ry="5" fill="white" />
    <rect width="8" height="11.603557493004287" x="1961" y="194.19822125349785" rx="5" ry="5" fill="white" />
    <rect width="8" height="8" x="1971" y="196" rx="5" ry="5" fill="white" />
    <rect width="8" height="8" x="1981" y="196" rx="5" ry="5" fill="white" />
    <rect width="8" height="8" x="1991" y="196" rx="5" ry="5" fill="white" />
  </g>
</svg>