<svg 
  baseProfile="tiny"
  preserveAspectRatio="keep"
  version="1.2"
  viewBox="0 0 2000.000000 400.000000"
  height="100%" width="100%"
  xmlns="http://www.w3.org/2000/svg"
  xmlns:ev="http://www.w3.org/2001/xml-events"
  xmlns:xlink="http://www.w3.org/1999/xlink"
>
  <g>
    <rect width="8" height="32.741936149348675" x="1" y="183.62903192532565" rx="5" ry="5" fill="white" />
    <rect width="8" height="8" x="11" y="196" rx="5" ry="5" fill="white" />
    <rect width="8" height="26.60985943788511" x="21" y="186.69507028105744" rx="5" ry="5" fill="white" />
    <rect width="8" height="38.390868168363006" x="31" y="180.8045659158185" rx="5" ry="5" fill="white" />
    <rect width="8" height="38.06072884399479" x="41" y="180.9696355780026" rx="5" ry="5" fill="white" />
    <rect width="8" height="23.016038862701702" x="51" y="188.49198056864915" rx="5" ry="5" fill="white" />
    <rect width="8" height="43.45523891997" x="61" y="178.272380540015" rx="5" ry="5" fill="white" />
    <rect width="8" height="26.0124322639195" x="71" y="186.99378386804025" rx="5" ry="5" fill="white" />
    <rect width="8" height="39.20052901470498" x="81" y="180.3997354926475" rx="5" ry="5" fill="white" />
    <rect width="8" height="8" x="91" y="196" rx="5" ry="5" fill="white" />
    <rect width="8" height="34.261254554802214" x="101" y="182.86937272259888" rx="5" ry="5" fill="white" />
    <rect width="8" height="81.31171071267084" x="111" y="159.34414464366458" rx="5" ry="5" fill="white" />
    <rect width="8" height="64.58087019296053" x="121" y="167.70956490351972" rx="5" ry="5" fill="white" />
    <rect width="8" height="65.04206642651495" x="131" y="167.47896678674252" rx="5" ry="5" fill="white" />
    <rect width="8" height="72.66596644198941" x="141" y="163.66701677900528" rx="5" ry="5" fill="white" />
    <rect width="8" height="53.5130035523091" x="151" y="173.24349822384545" rx="5" ry="5" fill="white" />
    <rect width="8" height="67.38693824003872" x="161" y="166.30653087998064" rx="5" ry="5" fill="white" />
    <rect width="8" height="58.245220653290396" x="171" y="170.8773896733548" rx="5" ry="5" fill="white" />
    <rect width="8" height="61.19405673734464" x="181" y="169.4029716313277" rx="5" ry="5" fill="white" />
    <rect width="8" height="40.376186708841246" x="191" y="179.81190664557937" rx="5" ry="5" fill="white" />
    <rect width="8" height="49.827620069743" x="201" y="175.0861899651285" rx="5" ry="5" fill="white" />
    <rect width="8" height="59.82115114911426" x="211" y="170.08942442544287" rx="5" ry="5" fill="white" />
    <rect width="8" height="61.10710330401871" x="221" y="169.44644834799064" rx="5" ry="5" fill="white" />
    <rect width="8" height="54.93382265241601" x="231" y="172.533088673792" rx="5" ry="5" fill="white" />
    <rect width="8" height="65.01896095943566" x="241" y="167.49051952028216" rx="5" ry="5" fill="white" />
    <rect width="8" height="63.67958777861532" x="251" y="168.16020611069234" rx="5" ry="5" fill="white" />
    <rect width="8" height="67.13307724223846" x="261" y="166.43346137888076" rx="5" ry="5" fill="white" />
    <rect width="8" height="69.53941083650797" x="271" y="165.23029458174602" rx="5" ry="5" fill="white" />
    <rect width="8" height="77.2944942978468" x="281" y="161.35275285107662" rx="5" ry="5" fill="white" />
    <rect width="8" height="77.9587739250049" x="291" y="161.02061303749755" rx="5" ry="5" fill="white" />
    <rect width="8" height="85.25841001075098" x="301" y="157.3707949946245" rx="5" ry="5" fill="white" />
    <rect width="8" height="53.22619193376663" x="311" y="173.38690403311668" rx="5" ry="5" fill="white" />
    <rect width="8" height="60.04212822533772" x="321" y="169.97893588733115" rx="5" ry="5" fill="white" />
    <rect width="8" height="68.61833087385621" x="331" y="165.6908345630719" rx="5" ry="5" fill="white" />
    <rect width="8" height="59.44437315403118" x="341" y="170.27781342298442" rx="5" ry="5" fill="white" />
    <rect width="8" height="57.48633174528403" x="351" y="171.256834127358" rx="5" ry="5" fill="white" />
    <rect width="8" height="65.83976718901565" x="361" y="167.08011640549216" rx="5" ry="5" fill="white" />
    <rect width="8" height="42.35635299946492" x="371" y="178.82182350026756" rx="5" ry="5" fill="white" />
    <rect width="8" height="59.174377878838115" x="381" y="170.41281106058094" rx="5" ry="5" fill="white" />
    <rect width="8" height="42.25468586096083" x="391" y="178.8726570695196" rx="5" ry="5" fill="white" />
    <rect width="8" height="61.139507503925806" x="401" y="169.4302462480371" rx="5" ry="5" fill="white" />
    <rect width="8" height="48.00458718488869" x="411" y="175.99770640755565" rx="5" ry="5" fill="white" />
    <rect width="8" height="54.55149081338428" x="421" y="172.72425459330788" rx="5" ry="5" fill="white" />
    <rect width="8" height="69.11838097254238" x="431" y="165.44080951372882" rx="5" ry="5" fill="white" />
    <rect width="8" height="68.6458931248528" x="441" y="165.6770534375736" rx="5" ry="5" fill="white" />
    <rect width="8" height="70.07644696887631" x="451" y="164.96177651556184" rx="5" ry="5" fill="white" />
    <rect width="8" height="89.53455895479594" x="461" y="155.23272052260202" rx="5" ry="5" fill="white" />
    <rect width="8" height="73.86700359265484" x="471" y="163.06649820367258" rx="5" ry="5" fill="white" />
    <rect width="8" height="70.59812488327015" x="481" y="164.70093755836493" rx="5" ry="5" fill="white" />
    <rect width="8" height="80.42251528292978" x="491" y="159.7887423585351" rx="5" ry="5" fill="white" />
    <rect width="8" height="79.25604926633744" x="501" y="160.3719753668313" rx="5" ry="5" fill="white" />
    <rect width="8" height="65.23276034343883" x="511" y="167.3836198282806" rx="5" ry="5" fill="white" />
    <rect width="8" height="71.06633915200663" x="521" y="164.46683042399667" rx="5" ry="5" fill="white" />
    <rect width="8" height="62.81171515723564" x="531" y="168.59414242138217" rx="5" ry="5" fill="white" />
    <rect width="8" height="70.64165919387924" x="541" y="164.67917040306037" rx="5" ry="5" fill="white" />
    <rect width="8" height="58.89493870946206" x="551" y="170.55253064526897" rx="5" ry="5" fill="white" />
    <rect width="8" height="62.12162540610247" x="561" y="168.93918729694877" rx="5" ry="5" fill="white" />
    <rect width="8" height="61.21012588774002" x="571" y="169.39493705613" rx="5" ry="5" fill="white" />
    <rect width="8" height="67.60874371531757" x="581" y="166.1956281423412" rx="5" ry="5" fill="white" />
    <rect width="8" height="50.17930497579268" x="591" y="174.91034751210367" rx="5" ry="5" fill="white" />
    <rect width="8" height="70.72776155391415" x="601" y="164.63611922304293" rx="5" ry="5" fill="white" />
    <rect width="8" height="62.76262594574741" x="611" y="168.6186870271263" rx="5" ry="5" fill="white" />
    <rect width="8" height="65.5549020388163" x="621" y="167.22254898059185" rx="5" ry="5" fill="white" />
    <rect width="8" height="68.4867390358612" x="631" y="165.7566304820694" rx="5" ry="5" fill="white" />
    <rect width="8" height="81.8905455932893" x="641" y="159.05472720335536" rx="5" ry="5" fill="white" />
    <rect width="8" height="78.30222842807703" x="651" y="160.8488857859615" rx="5" ry="5" fill="white" />
    <rect width="8" height="72.36463136355975" x="661" y="163.81768431822013" rx="5" ry="5" fill="white" />
    <rect width="8" height="71.36877248800344" x="671" y="164.31561375599827" rx="5" ry="5" fill="white" />
    <rect width="8" height="74.71256778970687" x="681" y="162.64371610514655" rx="5" ry="5" fill="white" />
    <rect width="8" height="72.7098188474897" x="691" y="163.64509057625514" rx="5" ry="5" fill="white" />
    <rect width="8" height="79.56822925928914" x="701" y="160.21588537035544" rx="5" ry="5" fill="white" />
    <rect width="8" height="77.13325986407763" x="711" y="161.4333700679612" rx="5" ry="5" fill="white" />
    <rect width="8" height="63.33709875842338" x="721" y="168.3314506207883" rx="5" ry="5" fill="white" />
    <rect width="8" height="69.21534245616905" x="731" y="165.39232877191546" rx="5" ry="5" fill="white" />
    <rect width="8" height="76.17033385742816" x="741" y="161.91483307128593" rx="5" ry="5" fill="white" />
    <rect width="8" height="51.20074502959101" x="751" y="174.3996274852045" rx="5" ry="5" fill="white" />
    <rect width="8" height="71.0324956372617" x="761" y="164.48375218136914" rx="5" ry="5" fill="white" />
    <rect width="8" height="52.41769118758194" x="771" y="173.79115440620905" rx="5" ry="5" fill="white" />
    <rect width="8" height="69.43736736749304" x="781" y="165.28131631625348" rx="5" ry="5" fill="white" />
    <rect width="8" height="61.241720144685196" x="791" y="169.3791399276574" rx="5" ry="5" fill="white" />
    <rect width="8" height="58.80717772633457" x="801" y="170.59641113683273" rx="5" ry="5" fill="white" />
    <rect width="8" height="73.34793125044932" x="811" y="163.32603437477533" rx="5" ry="5" fill="white" />
    <rect width="8" height="58.16194101244272" x="821" y="170.91902949377865" rx="5" ry="5" fill="white" />
    <rect width="8" height="67.42743636054131" x="831" y="166.28628181972934" rx="5" ry="5" fill="white" />
    <rect width="8" height="73.75012004495203" x="841" y="163.12493997752398" rx="5" ry="5" fill="white" />
    <rect width="8" height="66.27341915416332" x="851" y="166.86329042291834" rx="5" ry="5" fill="white" />
    <rect width="8" height="70.91503486223729" x="861" y="164.54248256888135" rx="5" ry="5" fill="white" />
    <rect width="8" height="73.66117616090058" x="871" y="163.1694119195497" rx="5" ry="5" fill="white" />
    <rect width="8" height="45.281935479023176" x="881" y="177.35903226048842" rx="5" ry="5" fill="white" />
    <rect width="8" height="20.94274487339619" x="891" y="189.5286275633019" rx="5" ry="5" fill="white" />
    <rect width="8" height="23.671647511497827" x="901" y="188.16417624425108" rx="5" ry="5" fill="white" />
    <rect width="8" height="16.7456743884624" x="911" y="191.6271628057688" rx="5" ry="5" fill="white" />
    <rect width="8" height="45.71485751823653" x="921" y="177.14257124088175" rx="5" ry="5" fill="white" />
    <rect width="8" height="11.790444814577322" x="931" y="194.10477759271134" rx="5" ry="5" fill="white" />
    <rect width="8" height="56.6927113469482" x="941" y="171.6536443265259" rx="5" ry="5" fill="white" />
    <rect width="8" height="8" x="951" y="196" rx="5" ry="5" fill="white" />
    <rect width="8" height="38.011534762093056" x="961" y="180.99423261895348" rx="5" ry="5" fill="white" />
    <rect width="8" height="8" x="971" y="196" rx="5" ry="5" fill="white" />
    <rect width="8" height="8" x="981" y="196" rx="5" ry="5" fill="white" />
    <rect width="8" height="8" x="991" y="196" rx="5" ry="5" fill="white" />
    <rect width="8" height="69.97980065516926" x="1001" y="165.01009967241538" rx="5" ry="5" fill="white" />
    <rect width="8" height="49.58014503780322" x="1011" y="175.2099274810984" rx="5" ry="5" fill="white" />
    <rect width="8" height="63.42734713922889" x="1021" y="168.28632643038554" rx="5" ry="5" fill="white" />
    <rect width="8" height="53.54272819025194" x="1031" y="173.22863590487404" rx="5" ry="5" fill="white" />
    <rect width="8" height="55.38861212620847" x="1041" y="172.30569393689575" rx="5" ry="5" fill="white" />
    <rect width="8" height="45.0706993636307" x="1051" y="177.46465031818465" rx="5" ry="5" fill="white" />
    <rect width="8" height="65.46897711972203" x="1061" y="167.265511440139" rx="5" ry="5" fill="white" />
    <rect width="8" height="46.32041850810832" x="1071" y="176.83979074594583" rx="5" ry="5" fill="white" />
    <rect width="8" height="51.11102742620337" x="1081" y="174.44448628689833" rx="5" ry="5" fill="white" />
    <rect width="8" height="48.197565015369754" x="1091" y="175.9012174923151" rx="5" ry="5" fill="white" />
    <rect width="8" height="56.262933495842915" x="1101" y="171.86853325207855" rx="5" ry="5" fill="white" />
    <rect width="8" height="54.7186836111323" x="1111" y="172.64065819443385" rx="5" ry="5" fill="white" />
    <rect width="8" height="55.91305454684951" x="1121" y="172.04347272657526" rx="5" ry="5" fill="white" />
    <rect width="8" height="36.23405564469974" x="1131" y="181.88297217765012" rx="5" ry="5" fill="white" />
    <rect width="8" height="52.00320525860159" x="1141" y="173.9983973706992" rx="5" ry="5" fill="white" />
    <rect width="8" height="29.88782347864661" x="1151" y="185.0560882606767" rx="5" ry="5" fill="white" />
    <rect width="8" height="48.55503846345207" x="1161" y="175.72248076827395" rx="5" ry="5" fill="white" />
    <rect width="8" height="42.558501564190315" x="1171" y="178.72074921790485" rx="5" ry="5" fill="white" />
    <rect width="8" height="57.76541371449094" x="1181" y="171.11729314275453" rx="5" ry="5" fill="white" />
    <rect width="8" height="57.12185822555319" x="1191" y="171.4390708872234" rx="5" ry="5" fill="white" />
    <rect width="8" height="52.74566563381846" x="1201" y="173.62716718309076" rx="5" ry="5" fill="white" />
    <rect width="8" height="52.07520973706473" x="1211" y="173.96239513146764" rx="5" ry="5" fill="white" />
    <rect width="8" height="64.32452675250275" x="1221" y="167.83773662374864" rx="5" ry="5" fill="white" />
    <rect width="8" height="43.378307435108944" x="1231" y="178.31084628244554" rx="5" ry="5" fill="white" />
    <rect width="8" height="48.91979238944635" x="1241" y="175.54010380527683" rx="5" ry="5" fill="white" />
    <rect width="8" height="51.518625416084305" x="1251" y="174.24068729195784" rx="5" ry="5" fill="white" />
    <rect width="8" height="49.886344069699106" x="1261" y="175.05682796515043" rx="5" ry="5" fill="white" />
    <rect width="8" height="47.858775420406666" x="1271" y="176.07061228979666" rx="5" ry="5" fill="white" />
    <rect width="8" height="49.34382953501725" x="1281" y="175.3280852324914" rx="5" ry="5" fill="white" />
    <rect width="8" height="51.494922184259636" x="1291" y="174.2525389078702" rx="5" ry="5" fill="white" />
    <rect width="8" height="71.82088600236565" x="1301" y="164.08955699881716" rx="5" ry="5" fill="white" />
    <rect width="8" height="58.46872391146425" x="1311" y="170.76563804426786" rx="5" ry="5" fill="white" />
    <rect width="8" height="48.90124667925984" x="1321" y="175.5493766603701" rx="5" ry="5" fill="white" />
    <rect width="8" height="46.87983341439458" x="1331" y="176.56008329280272" rx="5" ry="5" fill="white" />
    <rect width="8" height="66.98752681746426" x="1341" y="166.50623659126788" rx="5" ry="5" fill="white" />
    <rect width="8" height="43.58959722996384" x="1351" y="178.20520138501809" rx="5" ry="5" fill="white" />
    <rect width="8" height="65.78350792230184" x="1361" y="167.10824603884907" rx="5" ry="5" fill="white" />
    <rect width="8" height="48.08161066663579" x="1371" y="175.9591946666821" rx="5" ry="5" fill="white" />
    <rect width="8" height="57.739610555923036" x="1381" y="171.13019472203848" rx="5" ry="5" fill="white" />
    <rect width="8" height="49.899602061857834" x="1391" y="175.0501989690711" rx="5" ry="5" fill="white" />
    <rect width="8" height="68.43371361643906" x="1401" y="165.78314319178048" rx="5" ry="5" fill="white" />
    <rect width="8" height="49.55635478739113" x="1411" y="175.22182260630444" rx="5" ry="5" fill="white" />
    <rect width="8" height="62.962380213848725" x="1421" y="168.51880989307563" rx="5" ry="5" fill="white" />
    <rect width="8" height="59.826399253183325" x="1431" y="170.08680037340832" rx="5" ry="5" fill="white" />
    <rect width="8" height="54.01495599100099" x="1441" y="172.9925220044995" rx="5" ry="5" fill="white" />
    <rect width="8" height="49.79581370771914" x="1451" y="175.10209314614042" rx="5" ry="5" fill="white" />
    <rect width="8" height="46.71422619361111" x="1461" y="176.64288690319444" rx="5" ry="5" fill="white" />
    <rect width="8" height="61.50370115000675" x="1471" y="169.24814942499663" rx="5" ry="5" fill="white" />
    <rect width="8" height="51.40875494592424" x="1481" y="174.2956225270379" rx="5" ry="5" fill="white" />
    <rect width="8" height="60.45719671967442" x="1491" y="169.7714016401628" rx="5" ry="5" fill="white" />
    <rect width="8" height="54.757051799459155" x="1501" y="172.62147410027043" rx="5" ry="5" fill="white" />
    <rect width="8" height="44.73006589157299" x="1511" y="177.63496705421352" rx="5" ry="5" fill="white" />
    <rect width="8" height="61.86627614074145" x="1521" y="169.06686192962928" rx="5" ry="5" fill="white" />
    <rect width="8" height="51.63740298922818" x="1531" y="174.1812985053859" rx="5" ry="5" fill="white" />
    <rect width="8" height="62.626404172400285" x="1541" y="168.68679791379986" rx="5" ry="5" fill="white" />
    <rect width="8" height="53.68256558026886" x="1551" y="173.15871720986559" rx="5" ry="5" fill="white" />
    <rect width="8" height="52.580700019941126" x="1561" y="173.70964999002945" rx="5" ry="5" fill="white" />
    <rect width="8" height="43.74309617731133" x="1571" y="178.12845191134434" rx="5" ry="5" fill="white" />
    <rect width="8" height="43.178068865278505" x="1581" y="178.41096556736073" rx="5" ry="5" fill="white" />
    <rect width="8" height="43.21930857816196" x="1591" y="178.390345710919" rx="5" ry="5" fill="white" />
    <rect width="8" height="66.32223188325307" x="1601" y="166.83888405837348" rx="5" ry="5" fill="white" />
    <rect width="8" height="48.31879612807502" x="1611" y="175.8406019359625" rx="5" ry="5" fill="white" />
    <rect width="8" height="55.76864794146529" x="1621" y="172.11567602926735" rx="5" ry="5" fill="white" />
    <rect width="8" height="50.73334022605758" x="1631" y="174.6333298869712" rx="5" ry="5" fill="white" />
    <rect width="8" height="56.64917306462601" x="1641" y="171.675413467687" rx="5" ry="5" fill="white" />
    <rect width="8" height="42.029161711631055" x="1651" y="178.98541914418448" rx="5" ry="5" fill="white" />
    <rect width="8" height="62.00713902322212" x="1661" y="168.99643048838894" rx="5" ry="5" fill="white" />
    <rect width="8" height="61.6781579023009" x="1671" y="169.16092104884956" rx="5" ry="5" fill="white" />
    <rect width="8" height="62.32407211995036" x="1681" y="168.83796394002482" rx="5" ry="5" fill="white" />
    <rect width="8" height="41.27990290796866" x="1691" y="179.36004854601566" rx="5" ry="5" fill="white" />
    <rect width="8" height="62.90295039156683" x="1701" y="168.54852480421658" rx="5" ry="5" fill="white" />
    <rect width="8" height="52.02947874721953" x="1711" y="173.98526062639024" rx="5" ry="5" fill="white" />
    <rect width="8" height="55.6855191344616" x="1721" y="172.15724043276919" rx="5" ry="5" fill="white" />
    <rect width="8" height="53.23529234230912" x="1731" y="173.38235382884545" rx="5" ry="5" fill="white" />
    <rect width="8" height="56.377777077497335" x="1741" y="171.81111146125133" rx="5" ry="5" fill="white" />
    <rect width="8" height="52.56071818757152" x="1751" y="173.71964090621424" rx="5" ry="5" fill="white" />
    <rect width="8" height="53.56586614416151" x="1761" y="173.21706692791923" rx="5" ry="5" fill="white" />
    <rect width="8" height="41.548650746219785" x="1771" y="179.2256746268901" rx="5" ry="5" fill="white" />
    <rect width="8" height="55.87639216770628" x="1781" y="172.06180391614686" rx="5" ry="5" fill="white" />
    <rect width="8" height="30.312934141919317" x="1791" y="184.84353292904035" rx="5" ry="5" fill="white" />
    <rect width="8" height="70.25711395824918" x="1801" y="164.8714430208754" rx="5" ry="5" fill="white" />
    <rect width="8" height="47.55454649555308" x="1811" y="176.22272675222345" rx="5" ry="5" fill="white" />
    <rect width="8" height="52.33516072632084" x="1821" y="173.83241963683957" rx="5" ry="5" fill="white" />
    <rect width="8" height="50.9933545600236" x="1831" y="174.5033227199882" rx="5" ry="5" fill="white" />
    <rect width="8" height="47.15716575743564" x="1841" y="176.4214171212822" rx="5" ry="5" fill="white" />
    <rect width="8" height="50.42233365899856" x="1851" y="174.7888331705007" rx="5" ry="5" fill="white" />
    <rect width="8" height="49.248902928527414" x="1861" y="175.3755485357363" rx="5" ry="5" fill="white" />
    <rect width="8" height="34.09556154223638" x="1871" y="182.9522192288818" rx="5" ry="5" fill="white" />
    <rect width="8" height="74.72281978310039" x="1881" y="162.63859010844982" rx="5" ry="5" fill="white" />
    <rect width="8" height="51.886309960558584" x="1891" y="174.0568450197207" rx="5" ry="5" fill="white" />
    <rect width="8" height="52.59802061383895" x="1901" y="173.70098969308052" rx="5" ry="5" fill="white" />
    <rect width="8" height="43.14250148977007" x="1911" y="178.42874925511495" rx="5" ry="5" fill="white" />
    <rect width="8" height="46.087083530071446" x="1921" y="176.9564582349643" rx="5" ry="5" fill="white" />
    <rect width="8" height="22.849214385354085" x="1931" y="188.57539280732297" rx="5" ry="5" fill="white" />
    <rect width="8" height="27.152741848552246" x="1941" y="186.42362907572388" rx="5" ry="5" fill="white" />
    <rect width="8" height="14.15460978680052" x="1951" y="192.92269510659975" rx="5" ry="5" fill="white" />
    <rect width="8" height="13.711245623832433" x="1961" y="193.14437718808378" rx="5" ry="5" fill="white" />
    <rect width="8" height="11.025219265857855" x="1971" y="194.48739036707107" rx="5" ry="5" fill="white" />
    <rect width="8" height="42.52177259654679" x="1981" y="178.7391137017266" rx="5" ry="5" fill="white" />
    <rect width="8" height="8" x="1991" y="196" rx="5" ry="5" fill="white" />
  </g>
</svg>