<svg 
  baseProfile="tiny"
  preserveAspectRatio="keep"
  version="1.2"
  viewBox="0 0 2000.000000 400.000000"
  height="100%" width="100%"
  xmlns="http://www.w3.org/2000/svg"
  xmlns:ev="http://www.w3.org/2001/xml-events"
  xmlns:xlink="http://www.w3.org/1999/xlink"
>
  <g>
    <rect width="8" height="38.84347265522671" x="1" y="180.57826367238664" rx="5" ry="5" fill="white" />
    <rect width="8" height="41.94771006270697" x="11" y="179.02614496864652" rx="5" ry="5" fill="white" />
    <rect width="8" height="44.55561947334557" x="21" y="177.7221902633272" rx="5" ry="5" fill="white" />
    <rect width="8" height="40.989448178592696" x="31" y="179.50527591070366" rx="5" ry="5" fill="white" />
    <rect width="8" height="47.0665814049667" x="41" y="176.46670929751664" rx="5" ry="5" fill="white" />
    <rect width="8" height="49.12886195565448" x="51" y="175.43556902217276" rx="5" ry="5" fill="white" />
    <rect width="8" height="52.26509056586065" x="61" y="173.86745471706968" rx="5" ry="5" fill="white" />
    <rect width="8" height="52.10153636089222" x="71" y="173.9492318195539" rx="5" ry="5" fill="white" />
    <rect width="8" height="49.795783297775806" x="81" y="175.1021083511121" rx="5" ry="5" fill="white" />
    <rect width="8" height="47.664021058829185" x="91" y="176.1679894705854" rx="5" ry="5" fill="white" />
    <rect width="8" height="57.477015632072856" x="101" y="171.26149218396358" rx="5" ry="5" fill="white" />
    <rect width="8" height="49.20620384746174" x="111" y="175.39689807626914" rx="5" ry="5" fill="white" />
    <rect width="8" height="54.58043348427836" x="121" y="172.7097832578608" rx="5" ry="5" fill="white" />
    <rect width="8" height="54.49107781747665" x="131" y="172.75446109126167" rx="5" ry="5" fill="white" />
    <rect width="8" height="62.90886063812344" x="141" y="168.54556968093829" rx="5" ry="5" fill="white" />
    <rect width="8" height="61.84923033954046" x="151" y="169.07538483022978" rx="5" ry="5" fill="white" />
    <rect width="8" height="73.90682131269985" x="161" y="163.04658934365008" rx="5" ry="5" fill="white" />
    <rect width="8" height="73.231481142994" x="171" y="163.38425942850301" rx="5" ry="5" fill="white" />
    <rect width="8" height="82.70528857508265" x="181" y="158.64735571245868" rx="5" ry="5" fill="white" />
    <rect width="8" height="82.39654829315687" x="191" y="158.80172585342157" rx="5" ry="5" fill="white" />
    <rect width="8" height="77.13514729598606" x="201" y="161.43242635200698" rx="5" ry="5" fill="white" />
    <rect width="8" height="71.75464009384449" x="211" y="164.12267995307775" rx="5" ry="5" fill="white" />
    <rect width="8" height="81.10448369239099" x="221" y="159.4477581538045" rx="5" ry="5" fill="white" />
    <rect width="8" height="83.85583340949273" x="231" y="158.07208329525363" rx="5" ry="5" fill="white" />
    <rect width="8" height="80.10345108613299" x="241" y="159.94827445693352" rx="5" ry="5" fill="white" />
    <rect width="8" height="85.26761932851166" x="251" y="157.36619033574416" rx="5" ry="5" fill="white" />
    <rect width="8" height="91.24343757111885" x="261" y="154.37828121444056" rx="5" ry="5" fill="white" />
    <rect width="8" height="102.34795664649158" x="271" y="148.8260216767542" rx="5" ry="5" fill="white" />
    <rect width="8" height="93.44530565137192" x="281" y="153.27734717431403" rx="5" ry="5" fill="white" />
    <rect width="8" height="103.40817140724043" x="291" y="148.29591429637978" rx="5" ry="5" fill="white" />
    <rect width="8" height="104.05315863903317" x="301" y="147.9734206804834" rx="5" ry="5" fill="white" />
    <rect width="8" height="107.85325676267625" x="311" y="146.07337161866187" rx="5" ry="5" fill="white" />
    <rect width="8" height="92.92770196222992" x="321" y="153.53614901888506" rx="5" ry="5" fill="white" />
    <rect width="8" height="100.45962670988389" x="331" y="149.77018664505806" rx="5" ry="5" fill="white" />
    <rect width="8" height="98.0693335786524" x="341" y="150.9653332106738" rx="5" ry="5" fill="white" />
    <rect width="8" height="102.69185848477133" x="351" y="148.65407075761433" rx="5" ry="5" fill="white" />
    <rect width="8" height="94.33208909415978" x="361" y="152.83395545292012" rx="5" ry="5" fill="white" />
    <rect width="8" height="102.07675612029443" x="371" y="148.9616219398528" rx="5" ry="5" fill="white" />
    <rect width="8" height="98.64586312335946" x="381" y="150.67706843832028" rx="5" ry="5" fill="white" />
    <rect width="8" height="102.40271099784188" x="391" y="148.79864450107905" rx="5" ry="5" fill="white" />
    <rect width="8" height="93.78596010294672" x="401" y="153.10701994852664" rx="5" ry="5" fill="white" />
    <rect width="8" height="102.93275483893609" x="411" y="148.53362258053195" rx="5" ry="5" fill="white" />
    <rect width="8" height="98.86842960210075" x="421" y="150.56578519894964" rx="5" ry="5" fill="white" />
    <rect width="8" height="102.47404954113189" x="431" y="148.76297522943406" rx="5" ry="5" fill="white" />
    <rect width="8" height="91.89518812225323" x="441" y="154.0524059388734" rx="5" ry="5" fill="white" />
    <rect width="8" height="98.61629212447218" x="451" y="150.6918539377639" rx="5" ry="5" fill="white" />
    <rect width="8" height="93.05713325010251" x="461" y="153.47143337494873" rx="5" ry="5" fill="white" />
    <rect width="8" height="97.92215865614182" x="471" y="151.03892067192908" rx="5" ry="5" fill="white" />
    <rect width="8" height="93.35739362692496" x="481" y="153.32130318653753" rx="5" ry="5" fill="white" />
    <rect width="8" height="102.18821387604646" x="491" y="148.90589306197677" rx="5" ry="5" fill="white" />
    <rect width="8" height="94.14877642668617" x="501" y="152.92561178665693" rx="5" ry="5" fill="white" />
    <rect width="8" height="100.603602261205" x="511" y="149.69819886939752" rx="5" ry="5" fill="white" />
    <rect width="8" height="96.29262935611304" x="521" y="151.8536853219435" rx="5" ry="5" fill="white" />
    <rect width="8" height="102.49781175487153" x="531" y="148.75109412256424" rx="5" ry="5" fill="white" />
    <rect width="8" height="94.86258695768652" x="541" y="152.56870652115674" rx="5" ry="5" fill="white" />
    <rect width="8" height="101.20220427247668" x="551" y="149.39889786376165" rx="5" ry="5" fill="white" />
    <rect width="8" height="93.38018591355517" x="561" y="153.3099070432224" rx="5" ry="5" fill="white" />
    <rect width="8" height="101.56159387066064" x="571" y="149.21920306466967" rx="5" ry="5" fill="white" />
    <rect width="8" height="92.82745223728368" x="581" y="153.58627388135815" rx="5" ry="5" fill="white" />
    <rect width="8" height="101.8645907731539" x="591" y="149.06770461342305" rx="5" ry="5" fill="white" />
    <rect width="8" height="95.43378199928199" x="601" y="152.283109000359" rx="5" ry="5" fill="white" />
    <rect width="8" height="103.46518488517466" x="611" y="148.26740755741267" rx="5" ry="5" fill="white" />
    <rect width="8" height="94.81371967998554" x="621" y="152.59314016000724" rx="5" ry="5" fill="white" />
    <rect width="8" height="94.10548949023425" x="631" y="152.94725525488286" rx="5" ry="5" fill="white" />
    <rect width="8" height="45.27525256491045" x="641" y="177.36237371754478" rx="5" ry="5" fill="white" />
    <rect width="8" height="65.54505494743043" x="651" y="167.22747252628477" rx="5" ry="5" fill="white" />
    <rect width="8" height="53.06549462212688" x="661" y="173.46725268893655" rx="5" ry="5" fill="white" />
    <rect width="8" height="80.73460485110883" x="671" y="159.6326975744456" rx="5" ry="5" fill="white" />
    <rect width="8" height="63.967014211212295" x="681" y="168.01649289439385" rx="5" ry="5" fill="white" />
    <rect width="8" height="93.21042798737143" x="691" y="153.3947860063143" rx="5" ry="5" fill="white" />
    <rect width="8" height="47.55258765972496" x="701" y="176.22370617013752" rx="5" ry="5" fill="white" />
    <rect width="8" height="86.87669922343208" x="711" y="156.56165038828397" rx="5" ry="5" fill="white" />
    <rect width="8" height="47.09621905010391" x="721" y="176.45189047494804" rx="5" ry="5" fill="white" />
    <rect width="8" height="55.41876098371926" x="731" y="172.29061950814037" rx="5" ry="5" fill="white" />
    <rect width="8" height="55.1494560232747" x="741" y="172.42527198836265" rx="5" ry="5" fill="white" />
    <rect width="8" height="74.26836803825522" x="751" y="162.86581598087238" rx="5" ry="5" fill="white" />
    <rect width="8" height="48.11967517126764" x="761" y="175.94016241436617" rx="5" ry="5" fill="white" />
    <rect width="8" height="101.21333458381375" x="771" y="149.3933327080931" rx="5" ry="5" fill="white" />
    <rect width="8" height="54.43424681436163" x="781" y="172.78287659281918" rx="5" ry="5" fill="white" />
    <rect width="8" height="86.98525590751922" x="791" y="156.5073720462404" rx="5" ry="5" fill="white" />
    <rect width="8" height="59.57110335383696" x="801" y="170.2144483230815" rx="5" ry="5" fill="white" />
    <rect width="8" height="81.35793008780483" x="811" y="159.32103495609758" rx="5" ry="5" fill="white" />
    <rect width="8" height="78.42358884625055" x="821" y="160.78820557687473" rx="5" ry="5" fill="white" />
    <rect width="8" height="77.78246069428037" x="831" y="161.10876965285982" rx="5" ry="5" fill="white" />
    <rect width="8" height="73.8680493386222" x="841" y="163.0659753306889" rx="5" ry="5" fill="white" />
    <rect width="8" height="90.89534624974615" x="851" y="154.55232687512694" rx="5" ry="5" fill="white" />
    <rect width="8" height="72.14994993829686" x="861" y="163.92502503085157" rx="5" ry="5" fill="white" />
    <rect width="8" height="75.21166084991675" x="871" y="162.39416957504162" rx="5" ry="5" fill="white" />
    <rect width="8" height="69.36740850736275" x="881" y="165.31629574631862" rx="5" ry="5" fill="white" />
    <rect width="8" height="82.15567515139685" x="891" y="158.92216242430158" rx="5" ry="5" fill="white" />
    <rect width="8" height="85.45925456626236" x="901" y="157.27037271686882" rx="5" ry="5" fill="white" />
    <rect width="8" height="85.41501458911324" x="911" y="157.29249270544338" rx="5" ry="5" fill="white" />
    <rect width="8" height="86.72140974369604" x="921" y="156.63929512815199" rx="5" ry="5" fill="white" />
    <rect width="8" height="88.34834615789752" x="931" y="155.82582692105123" rx="5" ry="5" fill="white" />
    <rect width="8" height="84.38149007483042" x="941" y="157.8092549625848" rx="5" ry="5" fill="white" />
    <rect width="8" height="89.82696806224297" x="951" y="155.08651596887853" rx="5" ry="5" fill="white" />
    <rect width="8" height="88.20052805737886" x="961" y="155.89973597131058" rx="5" ry="5" fill="white" />
    <rect width="8" height="92.9860056266414" x="971" y="153.5069971866793" rx="5" ry="5" fill="white" />
    <rect width="8" height="91.3552371873476" x="981" y="154.3223814063262" rx="5" ry="5" fill="white" />
    <rect width="8" height="89.05022532117623" x="991" y="155.47488733941188" rx="5" ry="5" fill="white" />
    <rect width="8" height="92.93313622810503" x="1001" y="153.5334318859475" rx="5" ry="5" fill="white" />
    <rect width="8" height="98.56026743301112" x="1011" y="150.71986628349444" rx="5" ry="5" fill="white" />
    <rect width="8" height="91.63668364478774" x="1021" y="154.18165817760612" rx="5" ry="5" fill="white" />
    <rect width="8" height="89.72170023957192" x="1031" y="155.13914988021403" rx="5" ry="5" fill="white" />
    <rect width="8" height="87.35042771198059" x="1041" y="156.3247861440097" rx="5" ry="5" fill="white" />
    <rect width="8" height="91.29016660613496" x="1051" y="154.35491669693252" rx="5" ry="5" fill="white" />
    <rect width="8" height="91.64774385478765" x="1061" y="154.17612807260616" rx="5" ry="5" fill="white" />
    <rect width="8" height="92.11721536323236" x="1071" y="153.9413923183838" rx="5" ry="5" fill="white" />
    <rect width="8" height="92.25191132223544" x="1081" y="153.87404433888227" rx="5" ry="5" fill="white" />
    <rect width="8" height="94.51910390962287" x="1091" y="152.74044804518857" rx="5" ry="5" fill="white" />
    <rect width="8" height="96.07148600959215" x="1101" y="151.96425699520393" rx="5" ry="5" fill="white" />
    <rect width="8" height="92.15734913213696" x="1111" y="153.92132543393151" rx="5" ry="5" fill="white" />
    <rect width="8" height="93.06724051545547" x="1121" y="153.46637974227227" rx="5" ry="5" fill="white" />
    <rect width="8" height="97.62571257944866" x="1131" y="151.18714371027568" rx="5" ry="5" fill="white" />
    <rect width="8" height="97.70300057381777" x="1141" y="151.1484997130911" rx="5" ry="5" fill="white" />
    <rect width="8" height="97.97578112835929" x="1151" y="151.01210943582035" rx="5" ry="5" fill="white" />
    <rect width="8" height="97.8413533844123" x="1161" y="151.07932330779386" rx="5" ry="5" fill="white" />
    <rect width="8" height="100.25835958906602" x="1171" y="149.870820205467" rx="5" ry="5" fill="white" />
    <rect width="8" height="99.28722624181187" x="1181" y="150.35638687909406" rx="5" ry="5" fill="white" />
    <rect width="8" height="98.12423638369438" x="1191" y="150.9378818081528" rx="5" ry="5" fill="white" />
    <rect width="8" height="101.68174515648292" x="1201" y="149.15912742175854" rx="5" ry="5" fill="white" />
    <rect width="8" height="96.51815971120669" x="1211" y="151.74092014439665" rx="5" ry="5" fill="white" />
    <rect width="8" height="102.73143587139108" x="1221" y="148.63428206430444" rx="5" ry="5" fill="white" />
    <rect width="8" height="100.05520346379801" x="1231" y="149.972398268101" rx="5" ry="5" fill="white" />
    <rect width="8" height="100.4359473758426" x="1241" y="149.7820263120787" rx="5" ry="5" fill="white" />
    <rect width="8" height="102.78598655802891" x="1251" y="148.60700672098554" rx="5" ry="5" fill="white" />
    <rect width="8" height="107.51091103727963" x="1261" y="146.24454448136018" rx="5" ry="5" fill="white" />
    <rect width="8" height="99.47592141959383" x="1271" y="150.2620392902031" rx="5" ry="5" fill="white" />
    <rect width="8" height="99.39026666763507" x="1281" y="150.30486666618248" rx="5" ry="5" fill="white" />
    <rect width="8" height="99.87491540570117" x="1291" y="150.0625422971494" rx="5" ry="5" fill="white" />
    <rect width="8" height="108.90430399206348" x="1301" y="145.54784800396826" rx="5" ry="5" fill="white" />
    <rect width="8" height="101.06138990023823" x="1311" y="149.4693050498809" rx="5" ry="5" fill="white" />
    <rect width="8" height="108.78181640331232" x="1321" y="145.60909179834385" rx="5" ry="5" fill="white" />
    <rect width="8" height="105.80182328323018" x="1331" y="147.0990883583849" rx="5" ry="5" fill="white" />
    <rect width="8" height="109.0854821881882" x="1341" y="145.45725890590592" rx="5" ry="5" fill="white" />
    <rect width="8" height="100.96818726174712" x="1351" y="149.51590636912644" rx="5" ry="5" fill="white" />
    <rect width="8" height="106.85721008188673" x="1361" y="146.57139495905665" rx="5" ry="5" fill="white" />
    <rect width="8" height="101.25395044958962" x="1371" y="149.37302477520518" rx="5" ry="5" fill="white" />
    <rect width="8" height="110.55872142121873" x="1381" y="144.72063928939065" rx="5" ry="5" fill="white" />
    <rect width="8" height="106.1266279011317" x="1391" y="146.93668604943414" rx="5" ry="5" fill="white" />
    <rect width="8" height="110.9355066292139" x="1401" y="144.53224668539303" rx="5" ry="5" fill="white" />
    <rect width="8" height="101.10701958232133" x="1411" y="149.44649020883935" rx="5" ry="5" fill="white" />
    <rect width="8" height="105.44583991523606" x="1421" y="147.27708004238195" rx="5" ry="5" fill="white" />
    <rect width="8" height="92.55740111534585" x="1431" y="153.72129944232708" rx="5" ry="5" fill="white" />
    <rect width="8" height="97.6923919270743" x="1441" y="151.15380403646284" rx="5" ry="5" fill="white" />
    <rect width="8" height="95.83155897163952" x="1451" y="152.08422051418023" rx="5" ry="5" fill="white" />
    <rect width="8" height="103.09090112117174" x="1461" y="148.45454943941414" rx="5" ry="5" fill="white" />
    <rect width="8" height="109.07465263973506" x="1471" y="145.46267368013247" rx="5" ry="5" fill="white" />
    <rect width="8" height="111.37766424067598" x="1481" y="144.311167879662" rx="5" ry="5" fill="white" />
    <rect width="8" height="103.87412037858994" x="1491" y="148.06293981070502" rx="5" ry="5" fill="white" />
    <rect width="8" height="106.00937577174511" x="1501" y="146.99531211412744" rx="5" ry="5" fill="white" />
    <rect width="8" height="91.39631016565912" x="1511" y="154.30184491717046" rx="5" ry="5" fill="white" />
    <rect width="8" height="98.96847010807625" x="1521" y="150.51576494596188" rx="5" ry="5" fill="white" />
    <rect width="8" height="93.03501114635615" x="1531" y="153.48249442682192" rx="5" ry="5" fill="white" />
    <rect width="8" height="101.04291567709312" x="1541" y="149.47854216145345" rx="5" ry="5" fill="white" />
    <rect width="8" height="94.7921757584546" x="1551" y="152.6039121207727" rx="5" ry="5" fill="white" />
    <rect width="8" height="106.10559334078158" x="1561" y="146.9472033296092" rx="5" ry="5" fill="white" />
    <rect width="8" height="99.29404520595598" x="1571" y="150.35297739702202" rx="5" ry="5" fill="white" />
    <rect width="8" height="97.19951166062114" x="1581" y="151.40024416968942" rx="5" ry="5" fill="white" />
    <rect width="8" height="32.96005553859461" x="1591" y="183.5199722307027" rx="5" ry="5" fill="white" />
    <rect width="8" height="49.380369491978335" x="1601" y="175.30981525401083" rx="5" ry="5" fill="white" />
    <rect width="8" height="45.83775623071272" x="1611" y="177.08112188464364" rx="5" ry="5" fill="white" />
    <rect width="8" height="61.159513906063914" x="1621" y="169.42024304696804" rx="5" ry="5" fill="white" />
    <rect width="8" height="38.32506097744385" x="1631" y="180.83746951127807" rx="5" ry="5" fill="white" />
    <rect width="8" height="92.21519315789742" x="1641" y="153.89240342105128" rx="5" ry="5" fill="white" />
    <rect width="8" height="35.03812885881977" x="1651" y="182.4809355705901" rx="5" ry="5" fill="white" />
    <rect width="8" height="92.14026863992032" x="1661" y="153.92986568003982" rx="5" ry="5" fill="white" />
    <rect width="8" height="40.968192510428665" x="1671" y="179.51590374478567" rx="5" ry="5" fill="white" />
    <rect width="8" height="62.111889234545195" x="1681" y="168.9440553827274" rx="5" ry="5" fill="white" />
    <rect width="8" height="51.77241432073948" x="1691" y="174.11379283963026" rx="5" ry="5" fill="white" />
    <rect width="8" height="59.32303906837145" x="1701" y="170.33848046581429" rx="5" ry="5" fill="white" />
    <rect width="8" height="43.69783704528969" x="1711" y="178.15108147735515" rx="5" ry="5" fill="white" />
    <rect width="8" height="89.09152279829246" x="1721" y="155.45423860085378" rx="5" ry="5" fill="white" />
    <rect width="8" height="46.18528131021027" x="1731" y="176.90735934489487" rx="5" ry="5" fill="white" />
    <rect width="8" height="88.19461473282976" x="1741" y="155.9026926335851" rx="5" ry="5" fill="white" />
    <rect width="8" height="43.04545459979303" x="1751" y="178.47727270010347" rx="5" ry="5" fill="white" />
    <rect width="8" height="65.45032328706931" x="1761" y="167.27483835646535" rx="5" ry="5" fill="white" />
    <rect width="8" height="43.3851283085337" x="1771" y="178.30743584573315" rx="5" ry="5" fill="white" />
    <rect width="8" height="63.22878065915485" x="1781" y="168.38560967042258" rx="5" ry="5" fill="white" />
    <rect width="8" height="46.835520096417824" x="1791" y="176.58223995179108" rx="5" ry="5" fill="white" />
    <rect width="8" height="73.70082873327584" x="1801" y="163.14958563336208" rx="5" ry="5" fill="white" />
    <rect width="8" height="47.145283133461376" x="1811" y="176.42735843326932" rx="5" ry="5" fill="white" />
    <rect width="8" height="72.66667422918997" x="1821" y="163.666662885405" rx="5" ry="5" fill="white" />
    <rect width="8" height="43.32240761716561" x="1831" y="178.3387961914172" rx="5" ry="5" fill="white" />
    <rect width="8" height="61.42010378913183" x="1841" y="169.2899481054341" rx="5" ry="5" fill="white" />
    <rect width="8" height="47.347392695442295" x="1851" y="176.32630365227885" rx="5" ry="5" fill="white" />
    <rect width="8" height="53.311628757751926" x="1861" y="173.34418562112404" rx="5" ry="5" fill="white" />
    <rect width="8" height="64.49379254395241" x="1871" y="167.7531037280238" rx="5" ry="5" fill="white" />
    <rect width="8" height="95.05788554215768" x="1881" y="152.47105722892115" rx="5" ry="5" fill="white" />
    <rect width="8" height="90.51017664908451" x="1891" y="154.74491167545773" rx="5" ry="5" fill="white" />
    <rect width="8" height="88.53232199592001" x="1901" y="155.73383900203999" rx="5" ry="5" fill="white" />
    <rect width="8" height="93.05945742398549" x="1911" y="153.47027128800727" rx="5" ry="5" fill="white" />
    <rect width="8" height="66.4535554942407" x="1921" y="166.77322225287963" rx="5" ry="5" fill="white" />
    <rect width="8" height="63.699273177894746" x="1931" y="168.15036341105264" rx="5" ry="5" fill="white" />
    <rect width="8" height="70.73014944940293" x="1941" y="164.63492527529854" rx="5" ry="5" fill="white" />
    <rect width="8" height="54.9842138670365" x="1951" y="172.50789306648176" rx="5" ry="5" fill="white" />
    <rect width="8" height="28.663919175351936" x="1961" y="185.66804041232405" rx="5" ry="5" fill="white" />
    <rect width="8" height="8" x="1971" y="196" rx="5" ry="5" fill="white" />
    <rect width="8" height="8" x="1981" y="196" rx="5" ry="5" fill="white" />
    <rect width="8" height="8" x="1991" y="196" rx="5" ry="5" fill="white" />
  </g>
</svg>