<svg xmlns="http://www.w3.org/2000/svg" viewBox="0 0 2795.44 1056.11"><defs><style>.cls-1{fill:none;}.cls-2{fill:#fff;}</style></defs><title>2019</title><g id="Ebene_3" data-name="Ebene 3"><path d="M421.38,275.18v356h-80.5V526.68c0-57,.5-111,3-172-7.5,27-14.5,50.5-24,81l-61.5,195.5h-69l-61.5-195.5c-9.5-30.5-16.5-53.5-23.5-80.5,2,61,2.5,114.5,2.5,171.5v104.5H26.38v-356h126.5l47,153c8.5,28.5,17,59.5,24.5,88.5,7.5-29.5,16-61.5,24-90l46.5-151.5Z"/><path d="M468.42,495.68V275.18h84.5v221.5c0,46.5,27,69.5,70,69.5,43.5,0,70.5-23,70.5-69.5V275.18h84.5v220.5c0,94.5-62,143.5-155,143.5C533.42,639.18,468.42,590.18,468.42,495.68Z"/><path d="M805.67,514.18h82c1,48.5,33,59,77,59,40,0,60.5-14.5,60.5-41,0-24-15-33.5-64-42.5l-29-5.5c-75-13-119-47-119-111.5,0-60.5,46-105.5,139-105.5,97,0,145.5,43,148.5,116h-80c-2-33-19.5-50-67-50-37,0-54.5,13.5-54.5,36,0,25,16.5,35,60.5,43.5l30,5.5c85.5,15.5,123,48,123,108.5,0,75-60,112.5-151,112.5C860.17,639.18,806.17,591.18,805.67,514.18Z"/><path d="M1145.21,275.18h84.5v356h-84.5Z"/><path d="M1263,453.18c0-114.5,69-186,177.5-186,84.5,0,154.5,46.5,168.5,135.5h-85.5c-11-42-43-62.5-83-62.5-57.5,0-89.5,42.5-89.5,113,0,71,32,113,89.5,113,42,0,77-24.5,85-72H1610c-11,95-82,145-169.5,145C1334.51,639.18,1263,567.68,1263,453.18Z"/><path d="M110.88,750.68v64.5h163.5v71.5H110.88v144.5H26.38v-356h261.5v75.5Z"/><path d="M617.12,1031.18h-87c-5.5-10-8-22.5-8.5-39l-1.5-40c-1.5-43-20.5-52-52.5-52h-69v131h-84.5v-356h168.5c89.5,0,129,45.5,129,103,0,37.5-18.5,69-57.5,84.5,41,13.5,49,42.5,50.5,80l2.5,50C607.62,1007.68,611.12,1021.68,617.12,1031.18Zm-144-194.5c32.5,0,51.5-16.5,51.5-47.5,0-30.5-19-46.5-53-46.5h-73v94Z"/><path d="M813,667.18c-109,0-182.5,73.5-182.5,186,0,90.75,47.84,156.11,123.55,178h117.7c75.58-21.89,123.75-87.25,123.75-178C995.47,740.68,921.47,667.18,813,667.18Zm0,298.5c-57,0-94.5-42-94.5-112.5S756,740.68,813,740.68s95,42,95,112.5S870,965.68,813,965.68Z"/><path d="M1424.07,675.18v356h-80.5V926.68c0-57,.5-111,3-172-7.5,27-14.5,50.5-24,81l-61.5,195.5h-69l-61.5-195.5c-9.5-30.5-16.5-53.5-23.5-80.5,2,61,2.5,114.5,2.5,171.5v104.5h-80.5v-356h126.5l47,153c8.5,28.5,17,59.5,24.5,88.5,7.5-29.5,16-61.5,24-90l46.5-151.5Z"/><path d="M1859.06,961.18v70h-275l2-31.5c2.5-49,12-111,104.5-147l28-12.5c38.5-16,53.5-32,53.5-58.5,0-28.5-18-44.5-50-44.5-35,0-53.5,17.5-53.5,57h-80.5c-.5-75,41-127,136-127,84,0,132,46,132,106.5,0,64-36.5,95.5-102.5,125.5l-29.5,14c-28.5,13.5-42.5,24-45,48Z"/><path d="M1882,853.18c0-118,51.5-186,152-186s151.5,68,151.5,186-51,186-151.5,186S1882,971.18,1882,853.18Zm215.5,0c0-84.5-23-116-63.5-116-41,0-64,31.5-64,116s23,116,64,116S2097.46,937.68,2097.46,853.18Z"/><path d="M2371.8,1031.18h-84.5V808.68h-83v-57.5l8-.5c46.5-3,80.5-19,93-75.5h66.5Z"/><path d="M2693.44,846.68c0,122-48,193.5-145,193.5-74.5,0-125.5-36.5-135.5-101h77.5c6,27.5,26,39.5,57,39.5,44.5,0,65.5-30.5,69-107-18.5,25-49,39.5-87.5,39.5-81,0-121-57.5-121-117,0-78,59.5-126,139-126,34.5,0,65,9,88,26C2675.94,724.18,2693.44,776.68,2693.44,846.68Zm-87.5-54.5c0-33.5-23-58.5-59-58.5-36.5,0-59.5,25.5-59.5,58.5s23,58.5,59.5,58.5C2582.94,850.68,2605.94,825.68,2605.94,792.18Z"/><polyline points="202.82 0 1509.91 0 1798.91 1031.11 491.82 1031.11"/><path class="cls-1" d="M1724.06,913.18c-28.5,13.5-42.5,24-45,48h100.25L1761,895.73c-2.43,1.15-4.89,2.3-7.41,3.45Z"/><path class="cls-1" d="M1107.07,755.18c2,61,2.5,114.5,2.5,171.5v104.43h82.48l-61.48-195.43C1121.07,805.18,1114.07,782.18,1107.07,755.18Z"/><path class="cls-1" d="M1346.57,754.68c-7.5,27-14.5,50.5-24,81l-61.48,195.43h82.48V926.68C1343.57,869.68,1344.07,815.68,1346.57,754.68Z"/><path class="cls-1" d="M322.53,427.11,341,492.81c.21-45,.93-89.31,2.93-138.13C337.1,379.09,330.72,400.66,322.53,427.11Z"/><path class="cls-1" d="M521.62,992.18l-1.5-40c-1.5-43-20.5-52-52.5-52H455.13l36.69,130.93h38.27C524.61,1021.12,522.12,1008.64,521.62,992.18Z"/><path class="cls-1" d="M524.62,789.18c0-30.5-19-46.5-53-46.5H411l26.35,94h35.79C505.62,836.68,524.62,820.18,524.62,789.18Z"/><path class="cls-1" d="M611.62,778.18c0,37.5-18.5,69-57.5,84.5,41,13.5,49,42.5,50.5,80l2.5,50c.5,15,4,28.93,10,38.43H753.79c-75.58-21.95-123.32-87.27-123.32-177.93,0-112.5,73.5-186,182.5-186,108.5,0,182.5,73.5,182.5,186,0,90.66-48.07,156-123.51,177.93h157.11V675.18h126.5l47,153c8.5,28.5,17,59.5,24.5,88.5,7.5-29.5,16-61.5,24-90l46.5-151.5h126.5v355.93h160l2-31.43c2.5-49,12-111,104.5-147l28-12.5a184.63,184.63,0,0,0,23.6-11.57l-25.58-91.27c-31.44,1.79-48,19.46-48,56.84h-80.5c-.45-67.56,33.18-116.44,109.28-125.49L1509.91,0H202.82l84.25,300.59,7.81-25.41h126.5v356H379.73l12.33,44h90.56C572.12,675.18,611.62,720.68,611.62,778.18Zm828.89-511c84.5,0,154.5,46.5,168.5,135.5h-85.5c-11-42-43-62.5-83-62.5-57.5,0-89.5,42.5-89.5,113,0,71,32,113,89.5,113,42,0,77-24.5,85-72H1610c-11,95-82,145-169.5,145-106,0-177.5-71.5-177.5-186S1332,267.18,1440.51,267.18Zm-295.3,8h84.5v356h-84.5Zm-184,214.5-29-5.5c-75-13-119-47-119-111.5,0-60.5,46-105.5,139-105.5,97,0,145.5,43,148.5,116h-80c-2-33-19.5-50-67-50-37,0-54.5,13.5-54.5,36,0,25,16.5,35,60.5,43.5l30,5.5c85.5,15.5,123,48,123,108.5,0,75-60,112.5-151,112.5-101.5,0-155.5-48-156-125h82c1,48.5,33,59,77,59,40,0,60.5-14.5,60.5-41C1025.17,508.18,1010.17,498.68,961.17,489.68ZM468.42,275.18h84.5v221.5c0,46.5,27,69.5,70,69.5,43.5,0,70.5-23,70.5-69.5V275.18h84.5v220.5c0,94.5-62,143.5-155,143.5-89.5,0-154.5-49-154.5-143.5Z"/><path class="cls-1" d="M813,740.68c-57,0-94.5,42-94.5,112.5S756,965.68,813,965.68s95-42,95-112.5S870,740.68,813,740.68Z"/><path class="cls-2" d="M421.38,275.18H294.88l-7.81,25.41,35.46,126.52c8.19-26.45,14.57-48,21.35-72.43-2,48.82-2.72,93.15-2.93,138.13l38.78,138.37h41.65Z"/><path class="cls-2" d="M622.92,639.18c93,0,155-49,155-143.5V275.18h-84.5v221.5c0,46.5-27,69.5-70.5,69.5-43,0-70-23-70-69.5V275.18h-84.5v220.5C468.42,590.18,533.42,639.18,622.92,639.18Z"/><path class="cls-2" d="M964.67,573.18c-44,0-76-10.5-77-59h-82c.5,77,54.5,125,156,125,91,0,151-37.5,151-112.5,0-60.5-37.5-93-123-108.5l-30-5.5c-44-8.5-60.5-18.5-60.5-43.5,0-22.5,17.5-36,54.5-36,47.5,0,65,17,67,50h80c-3-73-51.5-116-148.5-116-93,0-139,45-139,105.5,0,64.5,44,98.5,119,111.5l29,5.5c49,9,64,18.5,64,42.5C1025.17,558.68,1004.67,573.18,964.67,573.18Z"/><rect class="cls-2" x="1145.21" y="275.18" width="84.5" height="356"/><path class="cls-2" d="M1440.51,639.18c87.5,0,158.5-50,169.5-145h-84.5c-8,47.5-43,72-85,72-57.5,0-89.5-42-89.5-113,0-70.5,32-113,89.5-113,40,0,72,20.5,83,62.5H1609c-14-89-84-135.5-168.5-135.5-108.5,0-177.5,71.5-177.5,186S1334.51,639.18,1440.51,639.18Z"/><path class="cls-2" d="M520.12,952.18l1.5,40c.5,16.46,3,28.94,8.47,38.93h87c-6-9.5-9.46-23.47-10-38.43l-2.5-50c-1.5-37.5-9.5-66.5-50.5-80,39-15.5,57.5-47,57.5-84.5,0-57.5-39.5-103-129-103H392.06L411,742.68h60.64c34,0,53,16,53,46.5,0,31-19,47.5-51.5,47.5H437.33l17.8,63.5h12.49C499.62,900.18,518.62,909.18,520.12,952.18Z"/><path class="cls-2" d="M995.47,853.18c0-112.5-74-186-182.5-186-109,0-182.5,73.5-182.5,186,0,90.66,47.74,156,123.32,177.93H872C947.4,1009.16,995.47,943.84,995.47,853.18ZM813,965.68c-57,0-94.5-42-94.5-112.5S756,740.68,813,740.68s95,42,95,112.5S870,965.68,813,965.68Z"/><path class="cls-2" d="M1297.57,675.18l-46.5,151.5c-8,28.5-16.5,60.5-24,90-7.5-29-16-60-24.5-88.5l-47-153h-126.5v355.93h80.5V926.68c0-57-.5-110.5-2.5-171.5,7,27,14,50,23.5,80.5l61.48,195.43h69l61.48-195.43c9.5-30.5,16.5-54,24-81-2.5,61-3,115-3,172v104.43h80.5V675.18Z"/><path class="cls-2" d="M1690.56,852.68c-92.5,36-102,98-104.5,147l-2,31.43h214.85l-19.6-69.93H1679.06c2.5-24,16.5-34.5,45-48l29.5-14c2.52-1.15,5-2.3,7.41-3.45l-18.81-67.12a184.63,184.63,0,0,1-23.6,11.57Z"/><path class="cls-2" d="M1588.06,794.18h80.5c0-37.38,16.58-55,48-56.84l-19.24-68.65C1621.24,677.74,1587.61,726.62,1588.06,794.18Z"/></g></svg>