<svg id="Ebene_1" data-name="Ebene 1" xmlns="http://www.w3.org/2000/svg" viewBox="0 0 1920.09 536.26"><title>logo</title><path d="M1543.58,290.77c0-43-16-77.16-43.88-98.43l-38.53,53.09c6.85,10.76,10.6,25.83,10.6,45.34,0,44.54-19.54,65.9-50.91,65.9-13.07,0-24-3.67-32.45-11l-36.57,50.39c19,11.27,42.27,17.43,69,17.43C1495.4,413.49,1543.58,365.31,1543.58,290.77Z"/><rect x="1576.76" y="86.68" width="67.72" height="60"/><rect x="1574.94" y="173.5" width="70.91" height="234.53"/><path d="M1848.56,84.41V201.68c-15-20.91-37.27-33.63-68.63-33.63-63.63,0-102.27,48.18-102.27,122.72s38.64,122.72,102.27,122.72c32.73,0,55.45-13.64,70.45-35.91V408h69.09V84.41Zm-49.08,272.26c-31.37,0-50-19.54-50-64.09s18.63-67.72,50-67.72c31.81,0,50.45,21.36,50.45,65.91S1831.29,356.67,1799.48,356.67Z"/><path d="M1456,238.86l-73.25,100.92c-8.56-10.91-13.29-27.15-13.29-49,0-44.55,19.55-65.91,51.36-65.91C1435.4,224.86,1447.35,229.51,1456,238.86Zm-111,152.86-96.47,132.92A29.88,29.88,0,0,1,1224.43,537H29.36A29.89,29.89,0,0,1-.53,507.08v-477A29.89,29.89,0,0,1,29.36.2h1599.9L1493.17,187.71c-19.51-12.7-44-19.66-72.31-19.66-75,0-123.17,48.18-123.17,122.72C1297.69,335.48,1315,370.68,1345.09,391.72Zm-234.21-181.4c-12.72-27.28-38.63-42.27-72.72-42.27-30.91,0-51.82,16.36-66.81,38.63V173.5H902.26V408h70.9V278.49c0-35.91,19.55-50,40.91-50,25,0,35,14.08,35,39.54V408H1120V278.49c0-35.91,19.09-50,40.45-50,25,0,35,14.08,35,39.54V408h70.91V255.77c0-56.36-31.82-87.72-82.27-87.72C1151.79,168.05,1126.79,186.68,1110.88,210.32ZM345.48,408V355.31H275.93c-15.9,0-31.36,0-47.26.45,10-11.81,19.54-23.18,29.08-35L340.93,218V173.5h-200v52.73H205c15.91,0,31.36,0,47.27-.46-10,11.82-19.55,23.18-29.09,35L140,363.49V408Zm135,5.46c74.54,0,122.72-48.18,122.72-122.72S555,168.05,480.47,168.05c-75,0-123.18,48.18-123.18,122.72S405.47,413.49,480.47,413.49Zm267.71,0c74.54,0,122.72-48.18,122.72-122.72S822.72,168.05,748.18,168.05c-75,0-123.18,48.18-123.18,122.72S673.18,413.49,748.18,413.49Zm50.91-122.72c0-44.55-19.55-65.91-50.91-65.91-31.82,0-51.36,21.36-51.36,65.91s19.54,65.9,51.36,65.9C779.54,356.67,799.09,335.31,799.09,290.77Zm-267.71,0c0-44.55-19.55-65.91-50.91-65.91-31.82,0-51.36,21.36-51.36,65.91s19.54,65.9,51.36,65.9C511.83,356.67,531.38,335.31,531.38,290.77Z"/></svg>