<svg xmlns="http://www.w3.org/2000/svg" viewBox="0 0 2795.44 1034.44"><defs><style>.cls-1{fill:none;}.cls-2{fill:#fff;}</style></defs><title>new_arrivals</title><g id="Ebene_2" data-name="Ebene 2"><path class="cls-1" d="M541.35,734h-73v94h74.5c32.5,0,51.5-16.5,51.5-47.5C594.35,750,575.35,734,541.35,734Z"/><path class="cls-1" d="M1649,739c-10,31-20.5,63.5-29.5,90L1599,890h100.5L1679,829C1669.53,802.51,1659,770,1649,739Z"/><path class="cls-1" d="M180.5,739c-10,31-20.5,63.5-29.5,90l-20.5,61H231l-20.5-61C201,802.51,190.5,770,180.5,739Z"/><path d="M107.5,568c0-54.5-.5-106.5-2-164.5,16.5,32.5,35.5,64,55.5,97l87,142h91v-356H258.5V361c0,55,.5,107,2,165.5-16.5-33-38.5-70-55.5-98l-87-142H27v356h80.5Z"/><polygon points="660.55 567.01 473.55 567.01 473.55 497.51 644.05 497.51 644.05 426.51 473.55 426.51 473.55 362.01 661.05 362.01 661.05 286.51 389.05 286.51 389.05 642.51 660.55 642.51 660.55 567.01"/><polygon points="760.84 286.51 672.34 286.51 727.02 486.17 773.72 339.78 760.84 286.51"/><path d="M131,666.51l-131,356H86.5l20.5-62H255l21,62h89.5l-134-356ZM130.5,890,151,829c9-26.5,19.5-59,29.5-90,10,31,20.5,63.5,30,90L231,890Z"/><path d="M552.35,666.51H383.85v356h84.5v-131h69c26.34,0,43.86,6.12,50.07,32.25L657.66,703.6C637.07,680.85,602.59,666.51,552.35,666.51ZM542.85,828h-74.5V734h73c34,0,53,16,53,46.5C594.35,811.51,575.35,828,542.85,828Z"/><path d="M1424.58,666.51,1373.08,823c-12,37.5-24.5,80.5-35.5,125-11.5-44.5-24.5-87.5-36.5-125l-38.5-115.86-41.91,131.38,66.41,184h100l124.5-356Z"/><path d="M1599.53,666.51l-131,356H1555l20.5-62h148l21,62H1834l-134-356ZM1599,890l20.5-61c9-26.5,19.5-59,29.5-90,10,31,20.5,63.5,30,90l20.5,61Z"/><polygon points="1936.88 666.51 1852.38 666.51 1852.38 1022.51 2099.88 1022.51 2099.88 947.01 1936.88 947.01 1936.88 666.51"/><path d="M2294.57,809.51l-30-5.5c-44-8.5-60.5-18.5-60.5-43.5,0-22.5,17.5-36,54.5-36,47.5,0,65,17,67,50h80c-3-73-51.5-116-148.5-116-93,0-139,45-139,105.5,0,64.5,44,98.5,119,111.5l29,5.5c49,9,64,18.5,64,42.5,0,26.5-20.5,41-60.5,41-44,0-76-10.5-77-59h-82c.5,77,54.5,125,156,125,91,0,151-37.5,151-112.51C2417.57,857.51,2380.07,825,2294.57,809.51Z"/><polygon points="1160.73 1022.51 554.67 1022.51 884.67 6.4 1490.73 6.4 1160.73 1022.51"/><path class="cls-1" d="M878.09,734h-73v94h74.5c32.5,0,51.5-16.5,51.5-47.5C931.09,750,912.09,734,878.09,734Z"/><path class="cls-1" d="M1158.58,666.51h90.5l13.5,40.64L1490.73-8H884.67L773.72,339.78l16.62,68.73c11,46,22,94,31.5,139.5,8.5-45.5,18-93.5,28-139.5l28.5-122h84.5l28.5,122c10.5,46,20,94,28,140.5,9.5-46.5,21-94.5,31.5-140.5l30-122h88l-97.5,356h-94.5l-29.5-126c-10-42-19-85.5-26.5-128.5-8,43-17,86.5-26.5,128.5l-30,126h-94.5L727,486.17,657.66,703.6c16.08,17.78,23.69,40.69,23.69,65.91,0,37.5-18.5,69-57.5,84.5,41,13.5,49,42.5,50.5,80l2.5,50c.5,15,4,29,10,38.5h-87c-5.5-10-8-22.5-8.5-39l-1.5-40a101,101,0,0,0-2.43-19.75l-32.75,102.68h606.06l59.94-187.91Zm-222,356c-5.5-10-8-22.5-8.5-39l-1.5-40c-1.5-43-20.5-52-52.5-52h-69v131h-84.5v-356h168.5c89.5,0,129,45.5,129,103,0,37.5-18.5,69-57.5,84.5,41,13.5,49,42.5,50.5,80l2.5,50c.5,15,4,29,10,38.5Zm205,0h-84.5v-356h84.5Z"/><path class="cls-2" d="M864.34,642.51l30-126c9.5-42,18.5-85.5,26.5-128.5,7.5,43,16.5,86.5,26.5,128.5l29.5,126h94.5l97.5-356h-88l-30,122c-10.5,46-22,94-31.5,140.5-8-46.5-17.5-94.5-28-140.5l-28.5-122h-84.5l-28.5,122c-10,46-19.5,94-28,139.5-9.5-45.5-20.5-93.5-31.5-139.5l-16.62-68.73L727,486.17l42.82,156.34Z"/><path class="cls-2" d="M591.35,983.52c.5,16.5,3,29,8.5,39h87c-6-9.5-9.5-23.5-10-38.5l-2.5-50c-1.5-37.5-9.5-66.5-50.5-80,39-15.5,57.5-47,57.5-84.5,0-25.22-7.61-48.13-23.69-65.91L587.42,923.76a101,101,0,0,1,2.43,19.75Z"/><path class="cls-2" d="M1011.09,934c-1.5-37.5-9.5-66.5-50.5-80,39-15.5,57.5-47,57.5-84.5,0-57.5-39.5-103-129-103H720.59v356h84.5v-131h69c32,0,51,9,52.5,52l1.5,40c.5,16.5,3,29,8.5,39h87c-6-9.5-9.5-23.5-10-38.5ZM879.59,828h-74.5V734h73c34,0,53,16,53,46.5C931.09,811.51,912.09,828,879.59,828Z"/><rect class="cls-2" x="1057.08" y="666.51" width="84.5" height="356"/><polygon class="cls-2" points="1158.58 666.51 1220.67 838.53 1262.58 707.15 1249.08 666.51 1158.58 666.51"/></g></svg>