<svg 
  baseProfile="tiny"
  preserveAspectRatio="keep"
  version="1.2"
  viewBox="0 0 2400 150"
  height="100%" width="100%"
  xmlns="http://www.w3.org/2000/svg"
  xmlns:ev="http://www.w3.org/2001/xml-events"
  xmlns:xlink="http://www.w3.org/1999/xlink"
>
  <g>
    <rect width="8" height="55.57163377877575" x="4" y="47.214183110612126" rx="4" ry="4" fill="black" />
    <rect width="8" height="8" x="20" y="71" rx="4" ry="4" fill="black" />
    <rect width="8" height="21.230611508126604" x="36" y="64.3846942459367" rx="4" ry="4" fill="black" />
    <rect width="8" height="52.30935809938434" x="52" y="48.84532095030783" rx="4" ry="4" fill="black" />
    <rect width="8" height="18.26139139298866" x="68" y="65.86930430350567" rx="4" ry="4" fill="black" />
    <rect width="8" height="41.77493563472014" x="84" y="54.11253218263993" rx="4" ry="4" fill="black" />
    <rect width="8" height="54.895857417242816" x="100" y="47.552071291378596" rx="4" ry="4" fill="black" />
    <rect width="8" height="18.00631878043762" x="116" y="65.99684060978119" rx="4" ry="4" fill="black" />
    <rect width="8" height="49.439520455023086" x="132" y="50.28023977248846" rx="4" ry="4" fill="black" />
    <rect width="8" height="57.5508222065385" x="148" y="46.22458889673075" rx="4" ry="4" fill="black" />
    <rect width="8" height="8" x="164" y="71" rx="4" ry="4" fill="black" />
    <rect width="8" height="64.2554112936183" x="180" y="42.87229435319085" rx="4" ry="4" fill="black" />
    <rect width="8" height="39.940497140133026" x="196" y="55.029751429933484" rx="4" ry="4" fill="black" />
    <rect width="8" height="31.993446837124985" x="212" y="59.003276581437504" rx="4" ry="4" fill="black" />
    <rect width="8" height="70.5781030930668" x="228" y="39.7109484534666" rx="4" ry="4" fill="black" />
    <rect width="8" height="18.349833586152617" x="244" y="65.8250832069237" rx="4" ry="4" fill="black" />
    <rect width="8" height="27.009708274070533" x="260" y="61.49514586296473" rx="4" ry="4" fill="black" />
    <rect width="8" height="45.96617299802905" x="276" y="52.016913500985474" rx="4" ry="4" fill="black" />
    <rect width="8" height="17.200278890437424" x="292" y="66.39986055478128" rx="4" ry="4" fill="black" />
    <rect width="8" height="55.84641773248997" x="308" y="47.076791133755016" rx="4" ry="4" fill="black" />
    <rect width="8" height="69.56018083561405" x="324" y="40.219909582192976" rx="4" ry="4" fill="black" />
    <rect width="8" height="8" x="340" y="71" rx="4" ry="4" fill="black" />
    <rect width="8" height="65.93405518473119" x="356" y="42.032972407634404" rx="4" ry="4" fill="black" />
    <rect width="8" height="66.59211739170243" x="372" y="41.703941304148785" rx="4" ry="4" fill="black" />
    <rect width="8" height="26.517658686889447" x="388" y="61.741170656555276" rx="4" ry="4" fill="black" />
    <rect width="8" height="111.74682776217398" x="404" y="19.12658611891301" rx="4" ry="4" fill="black" />
    <rect width="8" height="85.38541222481244" x="420" y="32.30729388759378" rx="4" ry="4" fill="black" />
    <rect width="8" height="81.71009737691551" x="436" y="34.14495131154224" rx="4" ry="4" fill="black" />
    <rect width="8" height="92.48424451365064" x="452" y="28.75787774317468" rx="4" ry="4" fill="black" />
    <rect width="8" height="82.92203857319838" x="468" y="33.53898071340081" rx="4" ry="4" fill="black" />
    <rect width="8" height="92.88028601290401" x="484" y="28.559856993547996" rx="4" ry="4" fill="black" />
    <rect width="8" height="88.38456301392907" x="500" y="30.807718493035466" rx="4" ry="4" fill="black" />
    <rect width="8" height="90.53917505792742" x="516" y="29.73041247103629" rx="4" ry="4" fill="black" />
    <rect width="8" height="61.82137232359598" x="532" y="44.08931383820201" rx="4" ry="4" fill="black" />
    <rect width="8" height="98.97242495138448" x="548" y="25.51378752430776" rx="4" ry="4" fill="black" />
    <rect width="8" height="86.88166731460677" x="564" y="31.559166342696614" rx="4" ry="4" fill="black" />
    <rect width="8" height="101.596785868931" x="580" y="24.201607065534503" rx="4" ry="4" fill="black" />
    <rect width="8" height="88.78252226595737" x="596" y="30.608738867021316" rx="4" ry="4" fill="black" />
    <rect width="8" height="87.59241791099589" x="612" y="31.203791044502054" rx="4" ry="4" fill="black" />
    <rect width="8" height="107.82696111342554" x="628" y="21.08651944328723" rx="4" ry="4" fill="black" />
    <rect width="8" height="83.49804179926286" x="644" y="33.25097910036857" rx="4" ry="4" fill="black" />
    <rect width="8" height="88.56790192776168" x="660" y="30.71604903611916" rx="4" ry="4" fill="black" />
    <rect width="8" height="100.91542602438572" x="676" y="24.542286987807138" rx="4" ry="4" fill="black" />
    <rect width="8" height="86.88001174372043" x="692" y="31.559994128139785" rx="4" ry="4" fill="black" />
    <rect width="8" height="111.77869682665869" x="708" y="19.110651586670656" rx="4" ry="4" fill="black" />
    <rect width="8" height="84.26145683891615" x="724" y="32.86927158054193" rx="4" ry="4" fill="black" />
    <rect width="8" height="85.28272303836141" x="740" y="32.358638480819295" rx="4" ry="4" fill="black" />
    <rect width="8" height="88.06144695948439" x="756" y="30.969276520257807" rx="4" ry="4" fill="black" />
    <rect width="8" height="108.5042833766244" x="772" y="20.7478583116878" rx="4" ry="4" fill="black" />
    <rect width="8" height="88.92749622671099" x="788" y="30.536251886644507" rx="4" ry="4" fill="black" />
    <rect width="8" height="121.25171113400235" x="804" y="14.374144432998825" rx="4" ry="4" fill="black" />
    <rect width="8" height="86.49158466482082" x="820" y="31.75420766758959" rx="4" ry="4" fill="black" />
    <rect width="8" height="85.38238632713566" x="836" y="32.30880683643217" rx="4" ry="4" fill="black" />
    <rect width="8" height="94.91082328950681" x="852" y="27.544588355246596" rx="4" ry="4" fill="black" />
    <rect width="8" height="86.95560392365465" x="868" y="31.522198038172675" rx="4" ry="4" fill="black" />
    <rect width="8" height="94.28844988605434" x="884" y="27.85577505697283" rx="4" ry="4" fill="black" />
    <rect width="8" height="97.90197817328438" x="900" y="26.04901091335781" rx="4" ry="4" fill="black" />
    <rect width="8" height="93.54098108775152" x="916" y="28.22950945612424" rx="4" ry="4" fill="black" />
    <rect width="8" height="69.94727923316587" x="932" y="40.026360383417064" rx="4" ry="4" fill="black" />
    <rect width="8" height="101.8219632110202" x="948" y="24.089018394489898" rx="4" ry="4" fill="black" />
    <rect width="8" height="85.47642872318067" x="964" y="32.26178563840966" rx="4" ry="4" fill="black" />
    <rect width="8" height="106.29818757843518" x="980" y="21.850906210782412" rx="4" ry="4" fill="black" />
    <rect width="8" height="96.57656379323805" x="996" y="26.711718103380974" rx="4" ry="4" fill="black" />
    <rect width="8" height="92.8818050390812" x="1012" y="28.5590974804594" rx="4" ry="4" fill="black" />
    <rect width="8" height="113.24357409819028" x="1028" y="18.37821295090486" rx="4" ry="4" fill="black" />
    <rect width="8" height="86.19917894530835" x="1044" y="31.900410527345826" rx="4" ry="4" fill="black" />
    <rect width="8" height="85.73877100048335" x="1060" y="32.13061449975832" rx="4" ry="4" fill="black" />
    <rect width="8" height="107.34828275492289" x="1076" y="21.325858622538554" rx="4" ry="4" fill="black" />
    <rect width="8" height="92.85512376937643" x="1092" y="28.572438115311783" rx="4" ry="4" fill="black" />
    <rect width="8" height="119.91544340334183" x="1108" y="15.042278298329087" rx="4" ry="4" fill="black" />
    <rect width="8" height="93.71793955690958" x="1124" y="28.141030221545208" rx="4" ry="4" fill="black" />
    <rect width="8" height="86.28056453079358" x="1140" y="31.85971773460321" rx="4" ry="4" fill="black" />
    <rect width="8" height="93.49321890644302" x="1156" y="28.25339054677849" rx="4" ry="4" fill="black" />
    <rect width="8" height="113.00649928320514" x="1172" y="18.496750358397428" rx="4" ry="4" fill="black" />
    <rect width="8" height="90.58091070885156" x="1188" y="29.70954464557422" rx="4" ry="4" fill="black" />
    <rect width="8" height="112.67131369289903" x="1204" y="18.664343153550483" rx="4" ry="4" fill="black" />
    <rect width="8" height="87.71723933984048" x="1220" y="31.141380330079762" rx="4" ry="4" fill="black" />
    <rect width="8" height="90.4740253668116" x="1236" y="29.7629873165942" rx="4" ry="4" fill="black" />
    <rect width="8" height="104.07799054071857" x="1252" y="22.961004729640713" rx="4" ry="4" fill="black" />
    <rect width="8" height="98.16581604226276" x="1268" y="25.91709197886862" rx="4" ry="4" fill="black" />
    <rect width="8" height="100.7793830512286" x="1284" y="24.610308474385697" rx="4" ry="4" fill="black" />
    <rect width="8" height="107.20394803080153" x="1300" y="21.398025984599236" rx="4" ry="4" fill="black" />
    <rect width="8" height="105.38841651922759" x="1316" y="22.305791740386205" rx="4" ry="4" fill="black" />
    <rect width="8" height="73.59633274931451" x="1332" y="38.20183362534274" rx="4" ry="4" fill="black" />
    <rect width="8" height="89.92317690701415" x="1348" y="30.038411546492924" rx="4" ry="4" fill="black" />
    <rect width="8" height="90.02887060105095" x="1364" y="29.985564699474523" rx="4" ry="4" fill="black" />
    <rect width="8" height="99.5688910425773" x="1380" y="25.215554478711347" rx="4" ry="4" fill="black" />
    <rect width="8" height="111.34329956635128" x="1396" y="19.32835021682436" rx="4" ry="4" fill="black" />
    <rect width="8" height="95.99332671769355" x="1412" y="27.003336641153226" rx="4" ry="4" fill="black" />
    <rect width="8" height="115.52368662213917" x="1428" y="17.238156688930417" rx="4" ry="4" fill="black" />
    <rect width="8" height="85.77136700456705" x="1444" y="32.11431649771647" rx="4" ry="4" fill="black" />
    <rect width="8" height="82.38788544634917" x="1460" y="33.80605727682541" rx="4" ry="4" fill="black" />
    <rect width="8" height="130.2575873416913" x="1476" y="9.871206329154347" rx="4" ry="4" fill="black" />
    <rect width="8" height="93.65589518609858" x="1492" y="28.172052406950712" rx="4" ry="4" fill="black" />
    <rect width="8" height="118.16807500367705" x="1508" y="15.915962498161477" rx="4" ry="4" fill="black" />
    <rect width="8" height="129.84173743542433" x="1524" y="10.079131282287833" rx="4" ry="4" fill="black" />
    <rect width="8" height="100.96714534673214" x="1540" y="24.51642732663393" rx="4" ry="4" fill="black" />
    <rect width="8" height="108.03478257214977" x="1556" y="20.982608713925117" rx="4" ry="4" fill="black" />
    <rect width="8" height="101.95887668154582" x="1572" y="24.02056165922709" rx="4" ry="4" fill="black" />
    <rect width="8" height="98.48059178512798" x="1588" y="25.759704107436008" rx="4" ry="4" fill="black" />
    <rect width="8" height="108.86248746281575" x="1604" y="20.568756268592125" rx="4" ry="4" fill="black" />
    <rect width="8" height="87.86464585937718" x="1620" y="31.06767707031141" rx="4" ry="4" fill="black" />
    <rect width="8" height="86.98265627945071" x="1636" y="31.508671860274646" rx="4" ry="4" fill="black" />
    <rect width="8" height="96.23194966555786" x="1652" y="26.88402516722107" rx="4" ry="4" fill="black" />
    <rect width="8" height="85.95344096780643" x="1668" y="32.023279516096785" rx="4" ry="4" fill="black" />
    <rect width="8" height="104.42243204338045" x="1684" y="22.788783978309773" rx="4" ry="4" fill="black" />
    <rect width="8" height="121.785569103111" x="1700" y="14.1072154484445" rx="4" ry="4" fill="black" />
    <rect width="8" height="97.01789195451366" x="1716" y="26.49105402274317" rx="4" ry="4" fill="black" />
    <rect width="8" height="109.4486679592926" x="1732" y="20.275666020353697" rx="4" ry="4" fill="black" />
    <rect width="8" height="100.78336161799119" x="1748" y="24.608319191004405" rx="4" ry="4" fill="black" />
    <rect width="8" height="90.8617345349605" x="1764" y="29.569132732519748" rx="4" ry="4" fill="black" />
    <rect width="8" height="94.46118393758536" x="1780" y="27.76940803120732" rx="4" ry="4" fill="black" />
    <rect width="8" height="103.52022015773007" x="1796" y="23.239889921134967" rx="4" ry="4" fill="black" />
    <rect width="8" height="99.75568097318737" x="1812" y="25.122159513406316" rx="4" ry="4" fill="black" />
    <rect width="8" height="111.67290636728258" x="1828" y="19.16354681635871" rx="4" ry="4" fill="black" />
    <rect width="8" height="86.14883833278192" x="1844" y="31.92558083360904" rx="4" ry="4" fill="black" />
    <rect width="8" height="87.55127100399149" x="1860" y="31.224364498004256" rx="4" ry="4" fill="black" />
    <rect width="8" height="101.2625425426057" x="1876" y="24.36872872869715" rx="4" ry="4" fill="black" />
    <rect width="8" height="91.8704986997988" x="1892" y="29.0647506501006" rx="4" ry="4" fill="black" />
    <rect width="8" height="122.99002188748638" x="1908" y="13.504989056256811" rx="4" ry="4" fill="black" />
    <rect width="8" height="125.25563273569092" x="1924" y="12.372183632154538" rx="4" ry="4" fill="black" />
    <rect width="8" height="95.0593607752079" x="1940" y="27.470319612396047" rx="4" ry="4" fill="black" />
    <rect width="8" height="116.95515303982543" x="1956" y="16.522423480087284" rx="4" ry="4" fill="black" />
    <rect width="8" height="109.7489145702634" x="1972" y="20.125542714868303" rx="4" ry="4" fill="black" />
    <rect width="8" height="112.5443178878707" x="1988" y="18.727841056064648" rx="4" ry="4" fill="black" />
    <rect width="8" height="123.77071686796911" x="2004" y="13.114641566015443" rx="4" ry="4" fill="black" />
    <rect width="8" height="113.0807604891424" x="2020" y="18.459619755428797" rx="4" ry="4" fill="black" />
    <rect width="8" height="104.58351264964699" x="2036" y="22.708243675176504" rx="4" ry="4" fill="black" />
    <rect width="8" height="137.65740816623725" x="2052" y="6.171295916881377" rx="4" ry="4" fill="black" />
    <rect width="8" height="129.89580964663875" x="2068" y="10.052095176680623" rx="4" ry="4" fill="black" />
    <rect width="8" height="150" x="2084" y="0" rx="4" ry="4" fill="black" />
    <rect width="8" height="81.94273125718685" x="2100" y="34.028634371406575" rx="4" ry="4" fill="black" />
    <rect width="8" height="35.05415468851427" x="2116" y="57.47292265574286" rx="4" ry="4" fill="black" />
    <rect width="8" height="49.17196711323879" x="2132" y="50.4140164433806" rx="4" ry="4" fill="black" />
    <rect width="8" height="52.861814903088394" x="2148" y="48.5690925484558" rx="4" ry="4" fill="black" />
    <rect width="8" height="8" x="2164" y="71" rx="4" ry="4" fill="black" />
    <rect width="8" height="59.810015711301375" x="2180" y="45.09499214434931" rx="4" ry="4" fill="black" />
    <rect width="8" height="36.85369412529582" x="2196" y="56.57315293735209" rx="4" ry="4" fill="black" />
    <rect width="8" height="8" x="2212" y="71" rx="4" ry="4" fill="black" />
    <rect width="8" height="57.057821478411675" x="2228" y="46.47108926079416" rx="4" ry="4" fill="black" />
    <rect width="8" height="8" x="2244" y="71" rx="4" ry="4" fill="black" />
    <rect width="8" height="17.451802348858408" x="2260" y="66.2740988255708" rx="4" ry="4" fill="black" />
    <rect width="8" height="45.051241607591216" x="2276" y="52.474379196204396" rx="4" ry="4" fill="black" />
    <rect width="8" height="8" x="2292" y="71" rx="4" ry="4" fill="black" />
    <rect width="8" height="8" x="2308" y="71" rx="4" ry="4" fill="black" />
    <rect width="8" height="8" x="2324" y="71" rx="4" ry="4" fill="black" />
    <rect width="8" height="8" x="2340" y="71" rx="4" ry="4" fill="black" />
    <rect width="8" height="8" x="2356" y="71" rx="4" ry="4" fill="black" />
    <rect width="8" height="8" x="2372" y="71" rx="4" ry="4" fill="black" />
    <rect width="8" height="8" x="2388" y="71" rx="4" ry="4" fill="black" />
  </g>
</svg>