<svg 
  baseProfile="tiny"
  preserveAspectRatio="true"
  version="1.2"
  viewBox="0 0 2400 150"
  height="100%" width="100%"
  xmlns="http://www.w3.org/2000/svg"
  xmlns:ev="http://www.w3.org/2001/xml-events"
  xmlns:xlink="http://www.w3.org/1999/xlink"
>
  <g>
    <rect width="8" height="8" x="4" y="71" rx="4" ry="4" fill="black" />
    <rect width="8" height="29.899896160847312" x="20" y="60.05005191957635" rx="4" ry="4" fill="black" />
    <rect width="8" height="8" x="36" y="71" rx="4" ry="4" fill="black" />
    <rect width="8" height="58.64338803302358" x="52" y="45.678305983488215" rx="4" ry="4" fill="black" />
    <rect width="8" height="8" x="68" y="71" rx="4" ry="4" fill="black" />
    <rect width="8" height="26.610088561056614" x="84" y="61.69495571947169" rx="4" ry="4" fill="black" />
    <rect width="8" height="108.79799374013973" x="100" y="20.601003129930135" rx="4" ry="4" fill="black" />
    <rect width="8" height="95.65858737864272" x="116" y="27.17070631067864" rx="4" ry="4" fill="black" />
    <rect width="8" height="115.95795068413831" x="132" y="17.021024657930845" rx="4" ry="4" fill="black" />
    <rect width="8" height="96.82859609403336" x="148" y="26.58570195298332" rx="4" ry="4" fill="black" />
    <rect width="8" height="100.12370856756584" x="164" y="24.93814571621708" rx="4" ry="4" fill="black" />
    <rect width="8" height="110.42765737208518" x="180" y="19.78617131395741" rx="4" ry="4" fill="black" />
    <rect width="8" height="91.81514122076018" x="196" y="29.09242938961991" rx="4" ry="4" fill="black" />
    <rect width="8" height="127.11836091268117" x="212" y="11.440819543659416" rx="4" ry="4" fill="black" />
    <rect width="8" height="86.5672621809946" x="228" y="31.716368909502698" rx="4" ry="4" fill="black" />
    <rect width="8" height="114.29529619715508" x="244" y="17.85235190142246" rx="4" ry="4" fill="black" />
    <rect width="8" height="87.39971311574253" x="260" y="31.300143442128736" rx="4" ry="4" fill="black" />
    <rect width="8" height="126.64403366424003" x="276" y="11.677983167879987" rx="4" ry="4" fill="black" />
    <rect width="8" height="150" x="292" y="0" rx="4" ry="4" fill="black" />
    <rect width="8" height="121.90889539147626" x="308" y="14.045552304261868" rx="4" ry="4" fill="black" />
    <rect width="8" height="78.81515687881524" x="324" y="35.59242156059238" rx="4" ry="4" fill="black" />
    <rect width="8" height="127.17959198530706" x="340" y="11.410204007346472" rx="4" ry="4" fill="black" />
    <rect width="8" height="136.6651911019429" x="356" y="6.6674044490285524" rx="4" ry="4" fill="black" />
    <rect width="8" height="99.22628809090929" x="372" y="25.386855954545354" rx="4" ry="4" fill="black" />
    <rect width="8" height="89.75175899030361" x="388" y="30.124120504848193" rx="4" ry="4" fill="black" />
    <rect width="8" height="133.19816278957322" x="404" y="8.400918605213391" rx="4" ry="4" fill="black" />
    <rect width="8" height="59.08541791605936" x="420" y="45.45729104197032" rx="4" ry="4" fill="black" />
    <rect width="8" height="47.586858109467364" x="436" y="51.20657094526632" rx="4" ry="4" fill="black" />
    <rect width="8" height="65.22517900735224" x="452" y="42.38741049632388" rx="4" ry="4" fill="black" />
    <rect width="8" height="56.66702064101209" x="468" y="46.66648967949396" rx="4" ry="4" fill="black" />
    <rect width="8" height="64.41011066747892" x="484" y="42.79494466626054" rx="4" ry="4" fill="black" />
    <rect width="8" height="60.366562657827934" x="500" y="44.816718671086036" rx="4" ry="4" fill="black" />
    <rect width="8" height="49.69161855025534" x="516" y="50.15419072487233" rx="4" ry="4" fill="black" />
    <rect width="8" height="71.39009802804956" x="532" y="39.30495098597522" rx="4" ry="4" fill="black" />
    <rect width="8" height="39.17577557442" x="548" y="55.41211221279" rx="4" ry="4" fill="black" />
    <rect width="8" height="54.82960205057968" x="564" y="47.58519897471016" rx="4" ry="4" fill="black" />
    <rect width="8" height="76.93180825889509" x="580" y="36.534095870552456" rx="4" ry="4" fill="black" />
    <rect width="8" height="79.52527392231553" x="596" y="35.23736303884223" rx="4" ry="4" fill="black" />
    <rect width="8" height="91.10118498396047" x="612" y="29.449407508019767" rx="4" ry="4" fill="black" />
    <rect width="8" height="79.33036279027397" x="628" y="35.33481860486302" rx="4" ry="4" fill="black" />
    <rect width="8" height="65.87571390688564" x="644" y="42.06214304655718" rx="4" ry="4" fill="black" />
    <rect width="8" height="81.79318392879742" x="660" y="34.10340803560129" rx="4" ry="4" fill="black" />
    <rect width="8" height="76.50437441193635" x="676" y="36.74781279403182" rx="4" ry="4" fill="black" />
    <rect width="8" height="87.06066703822518" x="692" y="31.469666480887412" rx="4" ry="4" fill="black" />
    <rect width="8" height="72.79155979246377" x="708" y="38.604220103768114" rx="4" ry="4" fill="black" />
    <rect width="8" height="67.00298180356307" x="724" y="41.49850909821846" rx="4" ry="4" fill="black" />
    <rect width="8" height="65.60187511824626" x="740" y="42.19906244087687" rx="4" ry="4" fill="black" />
    <rect width="8" height="65.22040890285423" x="756" y="42.389795548572884" rx="4" ry="4" fill="black" />
    <rect width="8" height="75.6776955150474" x="772" y="37.1611522424763" rx="4" ry="4" fill="black" />
    <rect width="8" height="75.0682990924332" x="788" y="37.4658504537834" rx="4" ry="4" fill="black" />
    <rect width="8" height="82.62704965103283" x="804" y="33.68647517448358" rx="4" ry="4" fill="black" />
    <rect width="8" height="74.62731175299874" x="820" y="37.68634412350063" rx="4" ry="4" fill="black" />
    <rect width="8" height="66.90268379178306" x="836" y="41.54865810410847" rx="4" ry="4" fill="black" />
    <rect width="8" height="77.12502315399956" x="852" y="36.43748842300022" rx="4" ry="4" fill="black" />
    <rect width="8" height="70.51619633094327" x="868" y="39.74190183452836" rx="4" ry="4" fill="black" />
    <rect width="8" height="77.37947973506895" x="884" y="36.31026013246552" rx="4" ry="4" fill="black" />
    <rect width="8" height="81.64779338785793" x="900" y="34.176103306071035" rx="4" ry="4" fill="black" />
    <rect width="8" height="77.62842835651131" x="916" y="36.185785821744346" rx="4" ry="4" fill="black" />
    <rect width="8" height="92.8952619982143" x="932" y="28.552369000892853" rx="4" ry="4" fill="black" />
    <rect width="8" height="76.03091352635897" x="948" y="36.984543236820514" rx="4" ry="4" fill="black" />
    <rect width="8" height="65.95896702658696" x="964" y="42.02051648670652" rx="4" ry="4" fill="black" />
    <rect width="8" height="79.8305491736609" x="980" y="35.08472541316955" rx="4" ry="4" fill="black" />
    <rect width="8" height="76.14320923299944" x="996" y="36.92839538350028" rx="4" ry="4" fill="black" />
    <rect width="8" height="84.87427944687002" x="1012" y="32.56286027656499" rx="4" ry="4" fill="black" />
    <rect width="8" height="69.68305057501766" x="1028" y="40.15847471249117" rx="4" ry="4" fill="black" />
    <rect width="8" height="69.31189379439603" x="1044" y="40.344053102801986" rx="4" ry="4" fill="black" />
    <rect width="8" height="92.98851513769759" x="1060" y="28.505742431151205" rx="4" ry="4" fill="black" />
    <rect width="8" height="78.68778689367272" x="1076" y="35.65610655316364" rx="4" ry="4" fill="black" />
    <rect width="8" height="81.69953211774074" x="1092" y="34.15023394112963" rx="4" ry="4" fill="black" />
    <rect width="8" height="73.40574713494128" x="1108" y="38.29712643252936" rx="4" ry="4" fill="black" />
    <rect width="8" height="70.0191354021733" x="1124" y="39.99043229891335" rx="4" ry="4" fill="black" />
    <rect width="8" height="96.20587214800513" x="1140" y="26.897063925997436" rx="4" ry="4" fill="black" />
    <rect width="8" height="73.95883360427898" x="1156" y="38.02058319786051" rx="4" ry="4" fill="black" />
    <rect width="8" height="80.45822664607145" x="1172" y="34.770886676964274" rx="4" ry="4" fill="black" />
    <rect width="8" height="74.71177628338957" x="1188" y="37.644111858305216" rx="4" ry="4" fill="black" />
    <rect width="8" height="66.04989254698675" x="1204" y="41.97505372650662" rx="4" ry="4" fill="black" />
    <rect width="8" height="77.44517315952886" x="1220" y="36.27741342023557" rx="4" ry="4" fill="black" />
    <rect width="8" height="98.94257454972691" x="1236" y="25.528712725136543" rx="4" ry="4" fill="black" />
    <rect width="8" height="97.78787167276877" x="1252" y="26.106064163615613" rx="4" ry="4" fill="black" />
    <rect width="8" height="97.8081007865912" x="1268" y="26.0959496067044" rx="4" ry="4" fill="black" />
    <rect width="8" height="72.35946969099835" x="1284" y="38.820265154500824" rx="4" ry="4" fill="black" />
    <rect width="8" height="80.15406874097074" x="1300" y="34.92296562951463" rx="4" ry="4" fill="black" />
    <rect width="8" height="52.18893349214904" x="1316" y="48.90553325392548" rx="4" ry="4" fill="black" />
    <rect width="8" height="88.83232734679451" x="1332" y="30.583836326602743" rx="4" ry="4" fill="black" />
    <rect width="8" height="51.3152931755779" x="1348" y="49.342353412211054" rx="4" ry="4" fill="black" />
    <rect width="8" height="75.67675788771633" x="1364" y="37.16162105614183" rx="4" ry="4" fill="black" />
    <rect width="8" height="84.17380275256434" x="1380" y="32.91309862371783" rx="4" ry="4" fill="black" />
    <rect width="8" height="79.23995057895435" x="1396" y="35.380024710522825" rx="4" ry="4" fill="black" />
    <rect width="8" height="83.27137609849765" x="1412" y="33.36431195075117" rx="4" ry="4" fill="black" />
    <rect width="8" height="82.96584572590096" x="1428" y="33.51707713704952" rx="4" ry="4" fill="black" />
    <rect width="8" height="68.50866371016241" x="1444" y="40.745668144918795" rx="4" ry="4" fill="black" />
    <rect width="8" height="104.20326184669646" x="1460" y="22.89836907665177" rx="4" ry="4" fill="black" />
    <rect width="8" height="77.42005066390371" x="1476" y="36.289974668048146" rx="4" ry="4" fill="black" />
    <rect width="8" height="97.84570665774905" x="1492" y="26.077146671125476" rx="4" ry="4" fill="black" />
    <rect width="8" height="76.54954750450368" x="1508" y="36.72522624774816" rx="4" ry="4" fill="black" />
    <rect width="8" height="68.54440821393439" x="1524" y="40.727795893032805" rx="4" ry="4" fill="black" />
    <rect width="8" height="53.85713559437378" x="1540" y="48.071432202813114" rx="4" ry="4" fill="black" />
    <rect width="8" height="54.0310715266827" x="1556" y="47.98446423665865" rx="4" ry="4" fill="black" />
    <rect width="8" height="81.13608348425474" x="1572" y="34.43195825787263" rx="4" ry="4" fill="black" />
    <rect width="8" height="72.7236997456938" x="1588" y="38.6381501271531" rx="4" ry="4" fill="black" />
    <rect width="8" height="67.36056740535932" x="1604" y="41.31971629732034" rx="4" ry="4" fill="black" />
    <rect width="8" height="80.46653089867733" x="1620" y="34.76673455066133" rx="4" ry="4" fill="black" />
    <rect width="8" height="83.11284559940951" x="1636" y="33.443577200295245" rx="4" ry="4" fill="black" />
    <rect width="8" height="96.29638083120291" x="1652" y="26.851809584398545" rx="4" ry="4" fill="black" />
    <rect width="8" height="76.51403567327925" x="1668" y="36.742982163360374" rx="4" ry="4" fill="black" />
    <rect width="8" height="68.23170288080144" x="1684" y="40.88414855959928" rx="4" ry="4" fill="black" />
    <rect width="8" height="84.37382441123886" x="1700" y="32.81308779438057" rx="4" ry="4" fill="black" />
    <rect width="8" height="84.52210774668346" x="1716" y="32.73894612665827" rx="4" ry="4" fill="black" />
    <rect width="8" height="91.42249126738152" x="1732" y="29.28875436630924" rx="4" ry="4" fill="black" />
    <rect width="8" height="93.43403110566955" x="1748" y="28.282984447165227" rx="4" ry="4" fill="black" />
    <rect width="8" height="71.02732076932534" x="1764" y="39.48633961533733" rx="4" ry="4" fill="black" />
    <rect width="8" height="89.94666783337043" x="1780" y="30.026666083314787" rx="4" ry="4" fill="black" />
    <rect width="8" height="79.76038929475706" x="1796" y="35.11980535262147" rx="4" ry="4" fill="black" />
    <rect width="8" height="100.21042984263174" x="1812" y="24.89478507868413" rx="4" ry="4" fill="black" />
    <rect width="8" height="77.12652819603838" x="1828" y="36.43673590198081" rx="4" ry="4" fill="black" />
    <rect width="8" height="57.152760529391784" x="1844" y="46.42361973530411" rx="4" ry="4" fill="black" />
    <rect width="8" height="103.57946558346967" x="1860" y="23.210267208265165" rx="4" ry="4" fill="black" />
    <rect width="8" height="65.81225880968012" x="1876" y="42.09387059515994" rx="4" ry="4" fill="black" />
    <rect width="8" height="57.78076320760593" x="1892" y="46.109618396197035" rx="4" ry="4" fill="black" />
    <rect width="8" height="64.49041810191382" x="1908" y="42.75479094904309" rx="4" ry="4" fill="black" />
    <rect width="8" height="48.573647074411426" x="1924" y="50.71317646279429" rx="4" ry="4" fill="black" />
    <rect width="8" height="79.05106556392616" x="1940" y="35.47446721803692" rx="4" ry="4" fill="black" />
    <rect width="8" height="73.74337925669046" x="1956" y="38.12831037165477" rx="4" ry="4" fill="black" />
    <rect width="8" height="61.64082021368569" x="1972" y="44.17958989315716" rx="4" ry="4" fill="black" />
    <rect width="8" height="50.04009496504038" x="1988" y="49.97995251747981" rx="4" ry="4" fill="black" />
    <rect width="8" height="66.89502245254972" x="2004" y="41.55248877372514" rx="4" ry="4" fill="black" />
    <rect width="8" height="53.0707351018722" x="2020" y="48.4646324490639" rx="4" ry="4" fill="black" />
    <rect width="8" height="56.19203100224087" x="2036" y="46.903984498879566" rx="4" ry="4" fill="black" />
    <rect width="8" height="52.53124767771523" x="2052" y="48.734376161142386" rx="4" ry="4" fill="black" />
    <rect width="8" height="56.040857276677016" x="2068" y="46.97957136166149" rx="4" ry="4" fill="black" />
    <rect width="8" height="58.85024993046157" x="2084" y="45.574875034769214" rx="4" ry="4" fill="black" />
    <rect width="8" height="55.920044292052644" x="2100" y="47.03997785397368" rx="4" ry="4" fill="black" />
    <rect width="8" height="52.35169908973441" x="2116" y="48.824150455132795" rx="4" ry="4" fill="black" />
    <rect width="8" height="54.069717262450986" x="2132" y="47.96514136877451" rx="4" ry="4" fill="black" />
    <rect width="8" height="52.51046341553452" x="2148" y="48.74476829223274" rx="4" ry="4" fill="black" />
    <rect width="8" height="60.667130818405624" x="2164" y="44.66643459079719" rx="4" ry="4" fill="black" />
    <rect width="8" height="51.99258930502296" x="2180" y="49.00370534748852" rx="4" ry="4" fill="black" />
    <rect width="8" height="51.747298582725286" x="2196" y="49.12635070863736" rx="4" ry="4" fill="black" />
    <rect width="8" height="52.25657766530885" x="2212" y="48.87171116734557" rx="4" ry="4" fill="black" />
    <rect width="8" height="63.501423342815976" x="2228" y="43.249288328592016" rx="4" ry="4" fill="black" />
    <rect width="8" height="58.865311132136405" x="2244" y="45.567344433931794" rx="4" ry="4" fill="black" />
    <rect width="8" height="62.278389456439626" x="2260" y="43.86080527178019" rx="4" ry="4" fill="black" />
    <rect width="8" height="52.59605543555759" x="2276" y="48.701972282221206" rx="4" ry="4" fill="black" />
    <rect width="8" height="60.84478236631921" x="2292" y="44.577608816840396" rx="4" ry="4" fill="black" />
    <rect width="8" height="52.74085943490804" x="2308" y="48.629570282545984" rx="4" ry="4" fill="black" />
    <rect width="8" height="67.43592435840698" x="2324" y="41.28203782079651" rx="4" ry="4" fill="black" />
    <rect width="8" height="53.74738678043507" x="2340" y="48.12630660978246" rx="4" ry="4" fill="black" />
    <rect width="8" height="65.36966616717702" x="2356" y="42.31516691641149" rx="4" ry="4" fill="black" />
    <rect width="8" height="79.64994477561889" x="2372" y="35.175027612190554" rx="4" ry="4" fill="black" />
    <rect width="8" height="8" x="2388" y="71" rx="4" ry="4" fill="black" />
  </g>
</svg>