<svg 
  baseProfile="tiny"
  preserveAspectRatio="keep"
  version="1.2"
  viewBox="0 0 2400 150"
  height="100%" width="100%"
  xmlns="http://www.w3.org/2000/svg"
  xmlns:ev="http://www.w3.org/2001/xml-events"
  xmlns:xlink="http://www.w3.org/1999/xlink"
>
  <g>
    <rect width="8" height="123.44644553410367" x="4" y="13.276777232948163" rx="4" ry="4" fill="black" />
    <rect width="8" height="101.28640515862622" x="20" y="24.35679742068689" rx="4" ry="4" fill="black" />
    <rect width="8" height="111.11727780900655" x="36" y="19.441361095496724" rx="4" ry="4" fill="black" />
    <rect width="8" height="105.69135130494263" x="52" y="22.154324347528686" rx="4" ry="4" fill="black" />
    <rect width="8" height="116.05885738015242" x="68" y="16.97057130992379" rx="4" ry="4" fill="black" />
    <rect width="8" height="104.14576803078803" x="84" y="22.927115984605983" rx="4" ry="4" fill="black" />
    <rect width="8" height="107.5991532714988" x="100" y="21.200423364250597" rx="4" ry="4" fill="black" />
    <rect width="8" height="108.81186420730114" x="116" y="20.59406789634943" rx="4" ry="4" fill="black" />
    <rect width="8" height="104.09105115191736" x="132" y="22.954474424041322" rx="4" ry="4" fill="black" />
    <rect width="8" height="105.60192438858141" x="148" y="22.199037805709295" rx="4" ry="4" fill="black" />
    <rect width="8" height="115.0274363740879" x="164" y="17.48628181295605" rx="4" ry="4" fill="black" />
    <rect width="8" height="103.92439531856208" x="180" y="23.03780234071896" rx="4" ry="4" fill="black" />
    <rect width="8" height="116.86364048141581" x="196" y="16.568179759292093" rx="4" ry="4" fill="black" />
    <rect width="8" height="129.68360649073716" x="212" y="10.158196754631419" rx="4" ry="4" fill="black" />
    <rect width="8" height="125.1355795772259" x="228" y="12.432210211387051" rx="4" ry="4" fill="black" />
    <rect width="8" height="119.45858324693648" x="244" y="15.270708376531758" rx="4" ry="4" fill="black" />
    <rect width="8" height="113.78351320257723" x="260" y="18.108243398711387" rx="4" ry="4" fill="black" />
    <rect width="8" height="116.06129542825101" x="276" y="16.969352285874493" rx="4" ry="4" fill="black" />
    <rect width="8" height="114.4348898144407" x="292" y="17.782555092779653" rx="4" ry="4" fill="black" />
    <rect width="8" height="118.23486666856616" x="308" y="15.882566665716922" rx="4" ry="4" fill="black" />
    <rect width="8" height="114.32173943591756" x="324" y="17.839130282041218" rx="4" ry="4" fill="black" />
    <rect width="8" height="110.82170616361519" x="340" y="19.589146918192405" rx="4" ry="4" fill="black" />
    <rect width="8" height="113.20675698157527" x="356" y="18.396621509212366" rx="4" ry="4" fill="black" />
    <rect width="8" height="119.37873130923586" x="372" y="15.31063434538207" rx="4" ry="4" fill="black" />
    <rect width="8" height="118.38757852812097" x="388" y="15.806210735939516" rx="4" ry="4" fill="black" />
    <rect width="8" height="118.34726848980468" x="404" y="15.826365755097662" rx="4" ry="4" fill="black" />
    <rect width="8" height="119.3786689402959" x="420" y="15.310665529852052" rx="4" ry="4" fill="black" />
    <rect width="8" height="123.54207355774996" x="436" y="13.22896322112502" rx="4" ry="4" fill="black" />
    <rect width="8" height="124.38253678313052" x="452" y="12.80873160843474" rx="4" ry="4" fill="black" />
    <rect width="8" height="121.25805858641564" x="468" y="14.370970706792178" rx="4" ry="4" fill="black" />
    <rect width="8" height="124.38917669745798" x="484" y="12.805411651271008" rx="4" ry="4" fill="black" />
    <rect width="8" height="114.10886674558341" x="500" y="17.945566627208294" rx="4" ry="4" fill="black" />
    <rect width="8" height="116.15029144787594" x="516" y="16.924854276062028" rx="4" ry="4" fill="black" />
    <rect width="8" height="115.09662536817041" x="532" y="17.451687315914796" rx="4" ry="4" fill="black" />
    <rect width="8" height="129.92404019430373" x="548" y="10.037979902848136" rx="4" ry="4" fill="black" />
    <rect width="8" height="125.49269109689585" x="564" y="12.253654451552073" rx="4" ry="4" fill="black" />
    <rect width="8" height="133.368647547538" x="580" y="8.315676226231005" rx="4" ry="4" fill="black" />
    <rect width="8" height="126.81420069671209" x="596" y="11.592899651643954" rx="4" ry="4" fill="black" />
    <rect width="8" height="135.7838465388372" x="612" y="7.108076730581402" rx="4" ry="4" fill="black" />
    <rect width="8" height="121.52894151466577" x="628" y="14.235529242667113" rx="4" ry="4" fill="black" />
    <rect width="8" height="124.90857597607324" x="644" y="12.545712011963381" rx="4" ry="4" fill="black" />
    <rect width="8" height="117.63929731784096" x="660" y="16.180351341079522" rx="4" ry="4" fill="black" />
    <rect width="8" height="119.07950770684047" x="676" y="15.460246146579763" rx="4" ry="4" fill="black" />
    <rect width="8" height="112.6557012416177" x="692" y="18.672149379191147" rx="4" ry="4" fill="black" />
    <rect width="8" height="122.66180776651265" x="708" y="13.669096116743674" rx="4" ry="4" fill="black" />
    <rect width="8" height="123.88382057162075" x="724" y="13.058089714189627" rx="4" ry="4" fill="black" />
    <rect width="8" height="126.5118183097733" x="740" y="11.744090845113348" rx="4" ry="4" fill="black" />
    <rect width="8" height="143.20984685663444" x="756" y="3.395076571682779" rx="4" ry="4" fill="black" />
    <rect width="8" height="130.20137006227603" x="772" y="9.899314968861987" rx="4" ry="4" fill="black" />
    <rect width="8" height="134.4028101205471" x="788" y="7.798594939726456" rx="4" ry="4" fill="black" />
    <rect width="8" height="126.03347600000961" x="804" y="11.983261999995193" rx="4" ry="4" fill="black" />
    <rect width="8" height="124.88676580375876" x="820" y="12.556617098120618" rx="4" ry="4" fill="black" />
    <rect width="8" height="123.53591522189745" x="836" y="13.232042389051273" rx="4" ry="4" fill="black" />
    <rect width="8" height="112.1784650458436" x="852" y="18.910767477078203" rx="4" ry="4" fill="black" />
    <rect width="8" height="120.04783028143429" x="868" y="14.976084859282857" rx="4" ry="4" fill="black" />
    <rect width="8" height="127.06104206594274" x="884" y="11.469478967028628" rx="4" ry="4" fill="black" />
    <rect width="8" height="123.61270302858756" x="900" y="13.19364848570622" rx="4" ry="4" fill="black" />
    <rect width="8" height="128.83888218482474" x="916" y="10.58055890758763" rx="4" ry="4" fill="black" />
    <rect width="8" height="132.78514920201272" x="932" y="8.607425398993641" rx="4" ry="4" fill="black" />
    <rect width="8" height="136.1331924081638" x="948" y="6.933403795918096" rx="4" ry="4" fill="black" />
    <rect width="8" height="128.96679205043532" x="964" y="10.516603974782342" rx="4" ry="4" fill="black" />
    <rect width="8" height="107.13481023061426" x="980" y="21.432594884692868" rx="4" ry="4" fill="black" />
    <rect width="8" height="105.21935833579188" x="996" y="22.39032083210406" rx="4" ry="4" fill="black" />
    <rect width="8" height="99.72732012337757" x="1012" y="25.136339938311217" rx="4" ry="4" fill="black" />
    <rect width="8" height="86.87888503420916" x="1028" y="31.56055748289542" rx="4" ry="4" fill="black" />
    <rect width="8" height="97.00225986267338" x="1044" y="26.498870068663308" rx="4" ry="4" fill="black" />
    <rect width="8" height="101.84278803193776" x="1060" y="24.07860598403112" rx="4" ry="4" fill="black" />
    <rect width="8" height="102.14180396490768" x="1076" y="23.92909801754616" rx="4" ry="4" fill="black" />
    <rect width="8" height="108.97243778738984" x="1092" y="20.513781106305082" rx="4" ry="4" fill="black" />
    <rect width="8" height="125.01098793584646" x="1108" y="12.494506032076771" rx="4" ry="4" fill="black" />
    <rect width="8" height="137.7147722906878" x="1124" y="6.142613854656105" rx="4" ry="4" fill="black" />
    <rect width="8" height="108.67966445694091" x="1140" y="20.660167771529544" rx="4" ry="4" fill="black" />
    <rect width="8" height="111.89297217037617" x="1156" y="19.053513914811916" rx="4" ry="4" fill="black" />
    <rect width="8" height="103.8398839883928" x="1172" y="23.0800580058036" rx="4" ry="4" fill="black" />
    <rect width="8" height="113.08973246895013" x="1188" y="18.455133765524934" rx="4" ry="4" fill="black" />
    <rect width="8" height="101.48290386260744" x="1204" y="24.258548068696278" rx="4" ry="4" fill="black" />
    <rect width="8" height="135.27091612049495" x="1220" y="7.364541939752527" rx="4" ry="4" fill="black" />
    <rect width="8" height="125.91911221841751" x="1236" y="12.040443890791245" rx="4" ry="4" fill="black" />
    <rect width="8" height="127.13939460842798" x="1252" y="11.430302695786011" rx="4" ry="4" fill="black" />
    <rect width="8" height="127.80318685575618" x="1268" y="11.09840657212191" rx="4" ry="4" fill="black" />
    <rect width="8" height="138.39520359860762" x="1284" y="5.802398200696189" rx="4" ry="4" fill="black" />
    <rect width="8" height="128.43765048172537" x="1300" y="10.781174759137315" rx="4" ry="4" fill="black" />
    <rect width="8" height="133.13846420089158" x="1316" y="8.430767899554212" rx="4" ry="4" fill="black" />
    <rect width="8" height="128.97780090799571" x="1332" y="10.511099546002143" rx="4" ry="4" fill="black" />
    <rect width="8" height="119.11476854171694" x="1348" y="15.44261572914153" rx="4" ry="4" fill="black" />
    <rect width="8" height="114.91883674012195" x="1364" y="17.540581629939027" rx="4" ry="4" fill="black" />
    <rect width="8" height="122.02124353711237" x="1380" y="13.989378231443816" rx="4" ry="4" fill="black" />
    <rect width="8" height="125.79452073907173" x="1396" y="12.102739630464136" rx="4" ry="4" fill="black" />
    <rect width="8" height="130.88423751094876" x="1412" y="9.557881244525618" rx="4" ry="4" fill="black" />
    <rect width="8" height="133.06589651813528" x="1428" y="8.467051740932362" rx="4" ry="4" fill="black" />
    <rect width="8" height="138.5462824699092" x="1444" y="5.726858765045407" rx="4" ry="4" fill="black" />
    <rect width="8" height="142.60815565579904" x="1460" y="3.695922172100481" rx="4" ry="4" fill="black" />
    <rect width="8" height="135.77297801728966" x="1476" y="7.11351099135517" rx="4" ry="4" fill="black" />
    <rect width="8" height="137.90336200683447" x="1492" y="6.048318996582765" rx="4" ry="4" fill="black" />
    <rect width="8" height="137.7321790026206" x="1508" y="6.133910498689701" rx="4" ry="4" fill="black" />
    <rect width="8" height="135.085081680532" x="1524" y="7.457459159734" rx="4" ry="4" fill="black" />
    <rect width="8" height="128.84368387451698" x="1540" y="10.578158062741508" rx="4" ry="4" fill="black" />
    <rect width="8" height="141.2689754947708" x="1556" y="4.365512252614593" rx="4" ry="4" fill="black" />
    <rect width="8" height="126.3863161343398" x="1572" y="11.806841932830103" rx="4" ry="4" fill="black" />
    <rect width="8" height="137.1343719209877" x="1588" y="6.432814039506155" rx="4" ry="4" fill="black" />
    <rect width="8" height="123.91905672822946" x="1604" y="13.040471635885268" rx="4" ry="4" fill="black" />
    <rect width="8" height="129.70861263875983" x="1620" y="10.145693680620084" rx="4" ry="4" fill="black" />
    <rect width="8" height="123.60031651430778" x="1636" y="13.199841742846111" rx="4" ry="4" fill="black" />
    <rect width="8" height="137.81843883057618" x="1652" y="6.090780584711908" rx="4" ry="4" fill="black" />
    <rect width="8" height="124.7461448854584" x="1668" y="12.626927557270797" rx="4" ry="4" fill="black" />
    <rect width="8" height="129.7591220078999" x="1684" y="10.120438996050055" rx="4" ry="4" fill="black" />
    <rect width="8" height="121.13809627172411" x="1700" y="14.430951864137946" rx="4" ry="4" fill="black" />
    <rect width="8" height="133.13917034498132" x="1716" y="8.430414827509338" rx="4" ry="4" fill="black" />
    <rect width="8" height="133.07758988439662" x="1732" y="8.461205057801692" rx="4" ry="4" fill="black" />
    <rect width="8" height="136.59694815103518" x="1748" y="6.701525924482411" rx="4" ry="4" fill="black" />
    <rect width="8" height="145.97616822410325" x="1764" y="2.0119158879483763" rx="4" ry="4" fill="black" />
    <rect width="8" height="132.7010543311593" x="1780" y="8.64947283442035" rx="4" ry="4" fill="black" />
    <rect width="8" height="150" x="1796" y="0" rx="4" ry="4" fill="black" />
    <rect width="8" height="137.17371978441753" x="1812" y="6.413140107791236" rx="4" ry="4" fill="black" />
    <rect width="8" height="141.830198229546" x="1828" y="4.084900885227" rx="4" ry="4" fill="black" />
    <rect width="8" height="134.945572181152" x="1844" y="7.527213909424006" rx="4" ry="4" fill="black" />
    <rect width="8" height="140.52193186005601" x="1860" y="4.739034069971993" rx="4" ry="4" fill="black" />
    <rect width="8" height="128.95697935286856" x="1876" y="10.521510323565721" rx="4" ry="4" fill="black" />
    <rect width="8" height="137.66856842479487" x="1892" y="6.165715787602565" rx="4" ry="4" fill="black" />
    <rect width="8" height="130.397300250189" x="1908" y="9.801349874905497" rx="4" ry="4" fill="black" />
    <rect width="8" height="142.89738644827693" x="1924" y="3.5513067758615335" rx="4" ry="4" fill="black" />
    <rect width="8" height="125.93702906995762" x="1940" y="12.031485465021191" rx="4" ry="4" fill="black" />
    <rect width="8" height="136.59118691596925" x="1956" y="6.704406542015377" rx="4" ry="4" fill="black" />
    <rect width="8" height="126.31958425941325" x="1972" y="11.840207870293376" rx="4" ry="4" fill="black" />
    <rect width="8" height="134.50075478086222" x="1988" y="7.749622609568888" rx="4" ry="4" fill="black" />
    <rect width="8" height="126.47174472960481" x="2004" y="11.764127635197596" rx="4" ry="4" fill="black" />
    <rect width="8" height="138.14525762010948" x="2020" y="5.927371189945262" rx="4" ry="4" fill="black" />
    <rect width="8" height="126.55648855487681" x="2036" y="11.721755722561596" rx="4" ry="4" fill="black" />
    <rect width="8" height="133.73330844845475" x="2052" y="8.133345775772625" rx="4" ry="4" fill="black" />
    <rect width="8" height="124.38523007108576" x="2068" y="12.807384964457121" rx="4" ry="4" fill="black" />
    <rect width="8" height="131.45486741212483" x="2084" y="9.272566293937587" rx="4" ry="4" fill="black" />
    <rect width="8" height="114.5955250047267" x="2100" y="17.702237497636652" rx="4" ry="4" fill="black" />
    <rect width="8" height="122.84019343529218" x="2116" y="13.57990328235391" rx="4" ry="4" fill="black" />
    <rect width="8" height="110.92834339831641" x="2132" y="19.535828300841793" rx="4" ry="4" fill="black" />
    <rect width="8" height="114.86328360605062" x="2148" y="17.568358196974692" rx="4" ry="4" fill="black" />
    <rect width="8" height="124.445841282289" x="2164" y="12.777079358855502" rx="4" ry="4" fill="black" />
    <rect width="8" height="114.3212333540367" x="2180" y="17.839383322981647" rx="4" ry="4" fill="black" />
    <rect width="8" height="129.8341233226627" x="2196" y="10.082938338668654" rx="4" ry="4" fill="black" />
    <rect width="8" height="113.71515298750137" x="2212" y="18.142423506249315" rx="4" ry="4" fill="black" />
    <rect width="8" height="102.43029166199386" x="2228" y="23.78485416900307" rx="4" ry="4" fill="black" />
    <rect width="8" height="111.87467636701963" x="2244" y="19.062661816490184" rx="4" ry="4" fill="black" />
    <rect width="8" height="106.70034143082512" x="2260" y="21.64982928458744" rx="4" ry="4" fill="black" />
    <rect width="8" height="118.72190340744793" x="2276" y="15.639048296276037" rx="4" ry="4" fill="black" />
    <rect width="8" height="107.47206754046569" x="2292" y="21.263966229767156" rx="4" ry="4" fill="black" />
    <rect width="8" height="115.87592779150744" x="2308" y="17.062036104246282" rx="4" ry="4" fill="black" />
    <rect width="8" height="115.44083857980645" x="2324" y="17.279580710096774" rx="4" ry="4" fill="black" />
    <rect width="8" height="114.28452069737145" x="2340" y="17.857739651314276" rx="4" ry="4" fill="black" />
    <rect width="8" height="113.60807094832043" x="2356" y="18.195964525839784" rx="4" ry="4" fill="black" />
    <rect width="8" height="119.81746217137717" x="2372" y="15.091268914311414" rx="4" ry="4" fill="black" />
    <rect width="8" height="8" x="2388" y="71" rx="4" ry="4" fill="black" />
  </g>
</svg>