<svg 
  baseProfile="tiny"
  preserveAspectRatio="true"
  version="1.2"
  viewBox="0 0 2400 150"
  height="100%" width="100%"
  xmlns="http://www.w3.org/2000/svg"
  xmlns:ev="http://www.w3.org/2001/xml-events"
  xmlns:xlink="http://www.w3.org/1999/xlink"
>
  <g>
    <rect width="8" height="73.90153997962624" x="4" y="38.04923001018688" rx="4" ry="4" fill="black" />
    <rect width="8" height="43.98345576748199" x="20" y="53.00827211625901" rx="4" ry="4" fill="black" />
    <rect width="8" height="48.71683842381839" x="36" y="50.641580788090806" rx="4" ry="4" fill="black" />
    <rect width="8" height="104.34867280376385" x="52" y="22.825663598118076" rx="4" ry="4" fill="black" />
    <rect width="8" height="106.61964355645122" x="68" y="21.69017822177439" rx="4" ry="4" fill="black" />
    <rect width="8" height="99.21064808464793" x="84" y="25.394675957676036" rx="4" ry="4" fill="black" />
    <rect width="8" height="110.98759430679256" x="100" y="19.50620284660372" rx="4" ry="4" fill="black" />
    <rect width="8" height="98.7972737053806" x="116" y="25.601363147309698" rx="4" ry="4" fill="black" />
    <rect width="8" height="118.05110722890785" x="132" y="15.974446385546074" rx="4" ry="4" fill="black" />
    <rect width="8" height="109.50803459963187" x="148" y="20.245982700184065" rx="4" ry="4" fill="black" />
    <rect width="8" height="104.83262755218993" x="164" y="22.583686223905033" rx="4" ry="4" fill="black" />
    <rect width="8" height="117.28744345316743" x="180" y="16.356278273416287" rx="4" ry="4" fill="black" />
    <rect width="8" height="102.59516108390602" x="196" y="23.70241945804699" rx="4" ry="4" fill="black" />
    <rect width="8" height="118.20100622347451" x="212" y="15.899496888262746" rx="4" ry="4" fill="black" />
    <rect width="8" height="110.35775867534976" x="228" y="19.82112066232512" rx="4" ry="4" fill="black" />
    <rect width="8" height="123.86982329874492" x="244" y="13.06508835062754" rx="4" ry="4" fill="black" />
    <rect width="8" height="128.36100581810376" x="260" y="10.819497090948119" rx="4" ry="4" fill="black" />
    <rect width="8" height="106.08360287324992" x="276" y="21.958198563375042" rx="4" ry="4" fill="black" />
    <rect width="8" height="130.98843172932678" x="292" y="9.505784135336611" rx="4" ry="4" fill="black" />
    <rect width="8" height="104.96528200867708" x="308" y="22.51735899566146" rx="4" ry="4" fill="black" />
    <rect width="8" height="114.43099539565279" x="324" y="17.784502302173607" rx="4" ry="4" fill="black" />
    <rect width="8" height="97.49832824346349" x="340" y="26.250835878268255" rx="4" ry="4" fill="black" />
    <rect width="8" height="111.46687589739318" x="356" y="19.26656205130341" rx="4" ry="4" fill="black" />
    <rect width="8" height="120.69604254949763" x="372" y="14.651978725251183" rx="4" ry="4" fill="black" />
    <rect width="8" height="114.23934240454855" x="388" y="17.880328797725724" rx="4" ry="4" fill="black" />
    <rect width="8" height="109.93627350755933" x="404" y="20.031863246220333" rx="4" ry="4" fill="black" />
    <rect width="8" height="113.56991576891377" x="420" y="18.215042115543113" rx="4" ry="4" fill="black" />
    <rect width="8" height="99.44362597688148" x="436" y="25.27818701155926" rx="4" ry="4" fill="black" />
    <rect width="8" height="131.9941855928246" x="452" y="9.002907203587696" rx="4" ry="4" fill="black" />
    <rect width="8" height="124.34159094745759" x="468" y="12.829204526271205" rx="4" ry="4" fill="black" />
    <rect width="8" height="103.2348334972136" x="484" y="23.3825832513932" rx="4" ry="4" fill="black" />
    <rect width="8" height="141.7196342115699" x="500" y="4.1401828942150445" rx="4" ry="4" fill="black" />
    <rect width="8" height="119.46227599403093" x="516" y="15.268862002984534" rx="4" ry="4" fill="black" />
    <rect width="8" height="94.915812549173" x="532" y="27.5420937254135" rx="4" ry="4" fill="black" />
    <rect width="8" height="122.25944121474127" x="548" y="13.870279392629364" rx="4" ry="4" fill="black" />
    <rect width="8" height="119.16990823084593" x="564" y="15.415045884577033" rx="4" ry="4" fill="black" />
    <rect width="8" height="100.94916678162953" x="580" y="24.525416609185235" rx="4" ry="4" fill="black" />
    <rect width="8" height="115.09966600487094" x="596" y="17.45016699756453" rx="4" ry="4" fill="black" />
    <rect width="8" height="128.86625380689514" x="612" y="10.566873096552428" rx="4" ry="4" fill="black" />
    <rect width="8" height="97.06562352294074" x="628" y="26.46718823852963" rx="4" ry="4" fill="black" />
    <rect width="8" height="86.1749659922913" x="644" y="31.912517003854347" rx="4" ry="4" fill="black" />
    <rect width="8" height="106.75130737065257" x="660" y="21.624346314673716" rx="4" ry="4" fill="black" />
    <rect width="8" height="87.3054672344558" x="676" y="31.347266382772098" rx="4" ry="4" fill="black" />
    <rect width="8" height="102.80227067426114" x="692" y="23.59886466286943" rx="4" ry="4" fill="black" />
    <rect width="8" height="87.96216290651097" x="708" y="31.018918546744516" rx="4" ry="4" fill="black" />
    <rect width="8" height="73.09554071377532" x="724" y="38.45222964311234" rx="4" ry="4" fill="black" />
    <rect width="8" height="72.21167145622499" x="740" y="38.894164271887504" rx="4" ry="4" fill="black" />
    <rect width="8" height="8" x="756" y="71" rx="4" ry="4" fill="black" />
    <rect width="8" height="43.59205210761234" x="772" y="53.20397394619383" rx="4" ry="4" fill="black" />
    <rect width="8" height="69.75616214928345" x="788" y="40.12191892535827" rx="4" ry="4" fill="black" />
    <rect width="8" height="28.67864778505814" x="804" y="60.660676107470934" rx="4" ry="4" fill="black" />
    <rect width="8" height="82.54263453454247" x="820" y="33.728682732728764" rx="4" ry="4" fill="black" />
    <rect width="8" height="100.7186303106275" x="836" y="24.64068484468625" rx="4" ry="4" fill="black" />
    <rect width="8" height="134.08082476090436" x="852" y="7.959587619547818" rx="4" ry="4" fill="black" />
    <rect width="8" height="122.71098947563405" x="868" y="13.644505262182975" rx="4" ry="4" fill="black" />
    <rect width="8" height="115.04453393915348" x="884" y="17.47773303042326" rx="4" ry="4" fill="black" />
    <rect width="8" height="126.16096027995802" x="900" y="11.91951986002099" rx="4" ry="4" fill="black" />
    <rect width="8" height="113.92772346710265" x="916" y="18.036138266448674" rx="4" ry="4" fill="black" />
    <rect width="8" height="108.33743357986232" x="932" y="20.83128321006884" rx="4" ry="4" fill="black" />
    <rect width="8" height="131.91304172483882" x="948" y="9.04347913758059" rx="4" ry="4" fill="black" />
    <rect width="8" height="129.32051280696655" x="964" y="10.339743596516726" rx="4" ry="4" fill="black" />
    <rect width="8" height="117.5636349552634" x="980" y="16.218182522368302" rx="4" ry="4" fill="black" />
    <rect width="8" height="99.33661868819937" x="996" y="25.331690655900317" rx="4" ry="4" fill="black" />
    <rect width="8" height="94.2269186999945" x="1012" y="27.88654065000275" rx="4" ry="4" fill="black" />
    <rect width="8" height="96.19625994546372" x="1028" y="26.90187002726814" rx="4" ry="4" fill="black" />
    <rect width="8" height="72.88390604033067" x="1044" y="38.558046979834664" rx="4" ry="4" fill="black" />
    <rect width="8" height="89.69136226157718" x="1060" y="30.15431886921141" rx="4" ry="4" fill="black" />
    <rect width="8" height="74.94840105826158" x="1076" y="37.52579947086921" rx="4" ry="4" fill="black" />
    <rect width="8" height="83.9481909397272" x="1092" y="33.0259045301364" rx="4" ry="4" fill="black" />
    <rect width="8" height="100.8081386946275" x="1108" y="24.59593065268625" rx="4" ry="4" fill="black" />
    <rect width="8" height="79.40579662883623" x="1124" y="35.297101685581886" rx="4" ry="4" fill="black" />
    <rect width="8" height="102.25466997916676" x="1140" y="23.87266501041662" rx="4" ry="4" fill="black" />
    <rect width="8" height="89.94845277308855" x="1156" y="30.025773613455726" rx="4" ry="4" fill="black" />
    <rect width="8" height="88.89715791360388" x="1172" y="30.55142104319806" rx="4" ry="4" fill="black" />
    <rect width="8" height="115.66622014520763" x="1188" y="17.166889927396184" rx="4" ry="4" fill="black" />
    <rect width="8" height="107.27820834809145" x="1204" y="21.360895825954273" rx="4" ry="4" fill="black" />
    <rect width="8" height="128.38457722074676" x="1220" y="10.807711389626618" rx="4" ry="4" fill="black" />
    <rect width="8" height="102.90756674619692" x="1236" y="23.54621662690154" rx="4" ry="4" fill="black" />
    <rect width="8" height="120.2362719264921" x="1252" y="14.881864036753953" rx="4" ry="4" fill="black" />
    <rect width="8" height="96.53918856156706" x="1268" y="26.73040571921647" rx="4" ry="4" fill="black" />
    <rect width="8" height="111.48309979369807" x="1284" y="19.258450103150963" rx="4" ry="4" fill="black" />
    <rect width="8" height="125.88071802995657" x="1300" y="12.059640985021716" rx="4" ry="4" fill="black" />
    <rect width="8" height="99.34729925610638" x="1316" y="25.32635037194681" rx="4" ry="4" fill="black" />
    <rect width="8" height="106.83327512294277" x="1332" y="21.583362438528617" rx="4" ry="4" fill="black" />
    <rect width="8" height="99.77241335057266" x="1348" y="25.11379332471367" rx="4" ry="4" fill="black" />
    <rect width="8" height="102.72779565334146" x="1364" y="23.63610217332927" rx="4" ry="4" fill="black" />
    <rect width="8" height="105.39637290411761" x="1380" y="22.301813547941194" rx="4" ry="4" fill="black" />
    <rect width="8" height="86.199359919011" x="1396" y="31.9003200404945" rx="4" ry="4" fill="black" />
    <rect width="8" height="91.05982781858562" x="1412" y="29.47008609070719" rx="4" ry="4" fill="black" />
    <rect width="8" height="98.82213417940429" x="1428" y="25.588932910297856" rx="4" ry="4" fill="black" />
    <rect width="8" height="78.66256115151594" x="1444" y="35.66871942424203" rx="4" ry="4" fill="black" />
    <rect width="8" height="119.09176059324956" x="1460" y="15.45411970337522" rx="4" ry="4" fill="black" />
    <rect width="8" height="107.47411140686478" x="1476" y="21.26294429656761" rx="4" ry="4" fill="black" />
    <rect width="8" height="120.77715255117032" x="1492" y="14.611423724414841" rx="4" ry="4" fill="black" />
    <rect width="8" height="138.8911556292933" x="1508" y="5.554422185353346" rx="4" ry="4" fill="black" />
    <rect width="8" height="114.08285802822073" x="1524" y="17.958570985889637" rx="4" ry="4" fill="black" />
    <rect width="8" height="110.20864268796736" x="1540" y="19.895678656016322" rx="4" ry="4" fill="black" />
    <rect width="8" height="123.80172105098686" x="1556" y="13.099139474506572" rx="4" ry="4" fill="black" />
    <rect width="8" height="132.6092874517828" x="1572" y="8.695356274108605" rx="4" ry="4" fill="black" />
    <rect width="8" height="111.14726656433056" x="1588" y="19.426366717834718" rx="4" ry="4" fill="black" />
    <rect width="8" height="111.86151133307324" x="1604" y="19.06924433346338" rx="4" ry="4" fill="black" />
    <rect width="8" height="128.58482216280646" x="1620" y="10.70758891859677" rx="4" ry="4" fill="black" />
    <rect width="8" height="110.90850676218832" x="1636" y="19.545746618905838" rx="4" ry="4" fill="black" />
    <rect width="8" height="126.4648411889456" x="1652" y="11.7675794055272" rx="4" ry="4" fill="black" />
    <rect width="8" height="106.2384548883284" x="1668" y="21.880772555835797" rx="4" ry="4" fill="black" />
    <rect width="8" height="108.83553734271209" x="1684" y="20.582231328643957" rx="4" ry="4" fill="black" />
    <rect width="8" height="124.06179972259585" x="1700" y="12.969100138702075" rx="4" ry="4" fill="black" />
    <rect width="8" height="90.01808364885986" x="1716" y="29.99095817557007" rx="4" ry="4" fill="black" />
    <rect width="8" height="136.43845855241878" x="1732" y="6.78077072379061" rx="4" ry="4" fill="black" />
    <rect width="8" height="131.0293453477591" x="1748" y="9.485327326120455" rx="4" ry="4" fill="black" />
    <rect width="8" height="104.34992689117729" x="1764" y="22.825036554411355" rx="4" ry="4" fill="black" />
    <rect width="8" height="150" x="1780" y="0" rx="4" ry="4" fill="black" />
    <rect width="8" height="132.40402909349052" x="1796" y="8.79798545325474" rx="4" ry="4" fill="black" />
    <rect width="8" height="109.37152366749844" x="1812" y="20.31423816625078" rx="4" ry="4" fill="black" />
    <rect width="8" height="124.96434361012295" x="1828" y="12.517828194938524" rx="4" ry="4" fill="black" />
    <rect width="8" height="117.17235638089498" x="1844" y="16.41382180955251" rx="4" ry="4" fill="black" />
    <rect width="8" height="114.33308630355839" x="1860" y="17.833456848220806" rx="4" ry="4" fill="black" />
    <rect width="8" height="119.74382393275285" x="1876" y="15.128088033623577" rx="4" ry="4" fill="black" />
    <rect width="8" height="137.3244001315009" x="1892" y="6.337799934249546" rx="4" ry="4" fill="black" />
    <rect width="8" height="110.48077196581207" x="1908" y="19.759614017093966" rx="4" ry="4" fill="black" />
    <rect width="8" height="110.89924427724696" x="1924" y="19.550377861376518" rx="4" ry="4" fill="black" />
    <rect width="8" height="129.04065878083105" x="1940" y="10.479670609584474" rx="4" ry="4" fill="black" />
    <rect width="8" height="115.51123224105798" x="1956" y="17.24438387947101" rx="4" ry="4" fill="black" />
    <rect width="8" height="119.57504517614531" x="1972" y="15.212477411927345" rx="4" ry="4" fill="black" />
    <rect width="8" height="120.8567497537705" x="1988" y="14.57162512311475" rx="4" ry="4" fill="black" />
    <rect width="8" height="117.78530089041362" x="2004" y="16.10734955479319" rx="4" ry="4" fill="black" />
    <rect width="8" height="93.43765639662493" x="2020" y="28.281171801687535" rx="4" ry="4" fill="black" />
    <rect width="8" height="93.69357328157751" x="2036" y="28.153213359211243" rx="4" ry="4" fill="black" />
    <rect width="8" height="97.7894030515919" x="2052" y="26.105298474204048" rx="4" ry="4" fill="black" />
    <rect width="8" height="104.7866783817251" x="2068" y="22.606660809137452" rx="4" ry="4" fill="black" />
    <rect width="8" height="90.99904684613132" x="2084" y="29.50047657693434" rx="4" ry="4" fill="black" />
    <rect width="8" height="101.31216061317707" x="2100" y="24.343919693411465" rx="4" ry="4" fill="black" />
    <rect width="8" height="107.79219387121373" x="2116" y="21.103903064393137" rx="4" ry="4" fill="black" />
    <rect width="8" height="91.1609128859564" x="2132" y="29.419543557021797" rx="4" ry="4" fill="black" />
    <rect width="8" height="106.06689456644091" x="2148" y="21.966552716779546" rx="4" ry="4" fill="black" />
    <rect width="8" height="102.63741049899788" x="2164" y="23.68129475050106" rx="4" ry="4" fill="black" />
    <rect width="8" height="79.33287749574971" x="2180" y="35.33356125212514" rx="4" ry="4" fill="black" />
    <rect width="8" height="109.88579041658605" x="2196" y="20.057104791706976" rx="4" ry="4" fill="black" />
    <rect width="8" height="88.56302672968461" x="2212" y="30.718486635157696" rx="4" ry="4" fill="black" />
    <rect width="8" height="75.377811016009" x="2228" y="37.3110944919955" rx="4" ry="4" fill="black" />
    <rect width="8" height="120.68229568902508" x="2244" y="14.658852155487459" rx="4" ry="4" fill="black" />
    <rect width="8" height="86.9621197555759" x="2260" y="31.51894012221205" rx="4" ry="4" fill="black" />
    <rect width="8" height="91.55401944882254" x="2276" y="29.222990275588728" rx="4" ry="4" fill="black" />
    <rect width="8" height="111.41373171247423" x="2292" y="19.293134143762884" rx="4" ry="4" fill="black" />
    <rect width="8" height="62.37824569449465" x="2308" y="43.810877152752674" rx="4" ry="4" fill="black" />
    <rect width="8" height="87.8415832299962" x="2324" y="31.0792083850019" rx="4" ry="4" fill="black" />
    <rect width="8" height="94.61924420474179" x="2340" y="27.690377897629105" rx="4" ry="4" fill="black" />
    <rect width="8" height="74.22615280307107" x="2356" y="37.88692359846446" rx="4" ry="4" fill="black" />
    <rect width="8" height="90.1383314282319" x="2372" y="29.930834285884053" rx="4" ry="4" fill="black" />
    <rect width="8" height="8" x="2388" y="71" rx="4" ry="4" fill="black" />
  </g>
</svg>