<svg 
  baseProfile="tiny"
  preserveAspectRatio="true"
  version="1.2"
  viewBox="0 0 2400 150"
  height="100%" width="100%"
  xmlns="http://www.w3.org/2000/svg"
  xmlns:ev="http://www.w3.org/2001/xml-events"
  xmlns:xlink="http://www.w3.org/1999/xlink"
>
  <g>
    <rect width="8" height="23.926360104887117" x="4" y="63.03681994755644" rx="4" ry="4" fill="black" />
    <rect width="8" height="8" x="20" y="71" rx="4" ry="4" fill="black" />
    <rect width="8" height="8" x="36" y="71" rx="4" ry="4" fill="black" />
    <rect width="8" height="29.887076407680162" x="52" y="60.05646179615992" rx="4" ry="4" fill="black" />
    <rect width="8" height="8" x="68" y="71" rx="4" ry="4" fill="black" />
    <rect width="8" height="8" x="84" y="71" rx="4" ry="4" fill="black" />
    <rect width="8" height="26.806945284001507" x="100" y="61.59652735799925" rx="4" ry="4" fill="black" />
    <rect width="8" height="26.745625141286073" x="116" y="61.627187429356965" rx="4" ry="4" fill="black" />
    <rect width="8" height="16.92736205233707" x="132" y="66.53631897383147" rx="4" ry="4" fill="black" />
    <rect width="8" height="22.75692369015336" x="148" y="63.62153815492332" rx="4" ry="4" fill="black" />
    <rect width="8" height="58.58177535238382" x="164" y="45.709112323808085" rx="4" ry="4" fill="black" />
    <rect width="8" height="57.700720771618386" x="180" y="46.149639614190804" rx="4" ry="4" fill="black" />
    <rect width="8" height="48.47737401283769" x="196" y="50.76131299358116" rx="4" ry="4" fill="black" />
    <rect width="8" height="120.5198483704338" x="212" y="14.740075814783097" rx="4" ry="4" fill="black" />
    <rect width="8" height="55.58634907604139" x="228" y="47.20682546197931" rx="4" ry="4" fill="black" />
    <rect width="8" height="61.99156592420946" x="244" y="44.00421703789527" rx="4" ry="4" fill="black" />
    <rect width="8" height="68.64821257753034" x="260" y="40.67589371123483" rx="4" ry="4" fill="black" />
    <rect width="8" height="132.6220508350705" x="276" y="8.688974582464752" rx="4" ry="4" fill="black" />
    <rect width="8" height="63.28026798383452" x="292" y="43.35986600808274" rx="4" ry="4" fill="black" />
    <rect width="8" height="48.428744225487705" x="308" y="50.78562788725615" rx="4" ry="4" fill="black" />
    <rect width="8" height="43.48998752251819" x="324" y="53.255006238740904" rx="4" ry="4" fill="black" />
    <rect width="8" height="63.09744585801741" x="340" y="43.451277070991296" rx="4" ry="4" fill="black" />
    <rect width="8" height="103.31358641806426" x="356" y="23.34320679096787" rx="4" ry="4" fill="black" />
    <rect width="8" height="98.61282594458933" x="372" y="25.693587027705334" rx="4" ry="4" fill="black" />
    <rect width="8" height="96.00410256124061" x="388" y="26.997948719379693" rx="4" ry="4" fill="black" />
    <rect width="8" height="97.72648479277073" x="404" y="26.136757603614633" rx="4" ry="4" fill="black" />
    <rect width="8" height="129.3333675968945" x="420" y="10.333316201552748" rx="4" ry="4" fill="black" />
    <rect width="8" height="94.89642679496372" x="436" y="27.551786602518142" rx="4" ry="4" fill="black" />
    <rect width="8" height="112.20429341973198" x="452" y="18.89785329013401" rx="4" ry="4" fill="black" />
    <rect width="8" height="103.91184292948473" x="468" y="23.044078535257633" rx="4" ry="4" fill="black" />
    <rect width="8" height="93.39550073615773" x="484" y="28.302249631921136" rx="4" ry="4" fill="black" />
    <rect width="8" height="112.1029523512359" x="500" y="18.94852382438205" rx="4" ry="4" fill="black" />
    <rect width="8" height="98.98405076571282" x="516" y="25.50797461714359" rx="4" ry="4" fill="black" />
    <rect width="8" height="102.63120098805985" x="532" y="23.684399505970077" rx="4" ry="4" fill="black" />
    <rect width="8" height="85.28299208204184" x="548" y="32.35850395897908" rx="4" ry="4" fill="black" />
    <rect width="8" height="103.50621042943457" x="564" y="23.246894785282713" rx="4" ry="4" fill="black" />
    <rect width="8" height="114.34512539806948" x="580" y="17.827437300965258" rx="4" ry="4" fill="black" />
    <rect width="8" height="104.19072121600475" x="596" y="22.904639391997627" rx="4" ry="4" fill="black" />
    <rect width="8" height="66.19384177011811" x="612" y="41.903079114940944" rx="4" ry="4" fill="black" />
    <rect width="8" height="77.16409491938101" x="628" y="36.41795254030949" rx="4" ry="4" fill="black" />
    <rect width="8" height="92.21319330495403" x="644" y="28.893403347522984" rx="4" ry="4" fill="black" />
    <rect width="8" height="92.27221106229733" x="660" y="28.863894468851335" rx="4" ry="4" fill="black" />
    <rect width="8" height="99.47049419427198" x="676" y="25.26475290286401" rx="4" ry="4" fill="black" />
    <rect width="8" height="77.70998035953997" x="692" y="36.145009820230015" rx="4" ry="4" fill="black" />
    <rect width="8" height="79.09655219540804" x="708" y="35.45172390229598" rx="4" ry="4" fill="black" />
    <rect width="8" height="70.01174596327157" x="724" y="39.99412701836422" rx="4" ry="4" fill="black" />
    <rect width="8" height="57.150869397471354" x="740" y="46.42456530126432" rx="4" ry="4" fill="black" />
    <rect width="8" height="65.55747149878198" x="756" y="42.22126425060901" rx="4" ry="4" fill="black" />
    <rect width="8" height="101.32984246488515" x="772" y="24.335078767557427" rx="4" ry="4" fill="black" />
    <rect width="8" height="91.53263583300631" x="788" y="29.233682083496845" rx="4" ry="4" fill="black" />
    <rect width="8" height="99.25091154882978" x="804" y="25.37454422558511" rx="4" ry="4" fill="black" />
    <rect width="8" height="85.50185763224678" x="820" y="32.24907118387661" rx="4" ry="4" fill="black" />
    <rect width="8" height="66.38059674490849" x="836" y="41.809701627545756" rx="4" ry="4" fill="black" />
    <rect width="8" height="75.06396075300272" x="852" y="37.46801962349864" rx="4" ry="4" fill="black" />
    <rect width="8" height="69.01341499599434" x="868" y="40.49329250200283" rx="4" ry="4" fill="black" />
    <rect width="8" height="86.07497958337744" x="884" y="31.96251020831128" rx="4" ry="4" fill="black" />
    <rect width="8" height="81.40766837590351" x="900" y="34.296165812048244" rx="4" ry="4" fill="black" />
    <rect width="8" height="85.28078957834863" x="916" y="32.359605210825684" rx="4" ry="4" fill="black" />
    <rect width="8" height="89.25433090473162" x="932" y="30.37283454763419" rx="4" ry="4" fill="black" />
    <rect width="8" height="84.83611062147747" x="948" y="32.58194468926126" rx="4" ry="4" fill="black" />
    <rect width="8" height="57.68987087926921" x="964" y="46.155064560365396" rx="4" ry="4" fill="black" />
    <rect width="8" height="76.4705035532517" x="980" y="36.76474822337415" rx="4" ry="4" fill="black" />
    <rect width="8" height="71.2301181779841" x="996" y="39.38494091100795" rx="4" ry="4" fill="black" />
    <rect width="8" height="81.57499919412099" x="1012" y="34.212500402939504" rx="4" ry="4" fill="black" />
    <rect width="8" height="101.38342374084888" x="1028" y="24.30828812957556" rx="4" ry="4" fill="black" />
    <rect width="8" height="108.82939359354249" x="1044" y="20.585303203228754" rx="4" ry="4" fill="black" />
    <rect width="8" height="106.34089456304605" x="1060" y="21.829552718476975" rx="4" ry="4" fill="black" />
    <rect width="8" height="96.97561111012968" x="1076" y="26.51219444493516" rx="4" ry="4" fill="black" />
    <rect width="8" height="99.69292790319992" x="1092" y="25.153536048400042" rx="4" ry="4" fill="black" />
    <rect width="8" height="99.80356143191831" x="1108" y="25.098219284040844" rx="4" ry="4" fill="black" />
    <rect width="8" height="122.07889234525923" x="1124" y="13.960553827370383" rx="4" ry="4" fill="black" />
    <rect width="8" height="101.14476232039975" x="1140" y="24.427618839800125" rx="4" ry="4" fill="black" />
    <rect width="8" height="112.65280083278242" x="1156" y="18.67359958360879" rx="4" ry="4" fill="black" />
    <rect width="8" height="103.99280801858113" x="1172" y="23.003595990709435" rx="4" ry="4" fill="black" />
    <rect width="8" height="100.06145792397342" x="1188" y="24.96927103801329" rx="4" ry="4" fill="black" />
    <rect width="8" height="98.27102171099499" x="1204" y="25.864489144502507" rx="4" ry="4" fill="black" />
    <rect width="8" height="109.84865531000555" x="1220" y="20.075672344997223" rx="4" ry="4" fill="black" />
    <rect width="8" height="150" x="1236" y="0" rx="4" ry="4" fill="black" />
    <rect width="8" height="106.3140086831574" x="1252" y="21.8429956584213" rx="4" ry="4" fill="black" />
    <rect width="8" height="106.40876007424727" x="1268" y="21.795619962876366" rx="4" ry="4" fill="black" />
    <rect width="8" height="129.25566333617678" x="1284" y="10.37216833191161" rx="4" ry="4" fill="black" />
    <rect width="8" height="109.92076559989981" x="1300" y="20.039617200050095" rx="4" ry="4" fill="black" />
    <rect width="8" height="106.24849694101852" x="1316" y="21.875751529490742" rx="4" ry="4" fill="black" />
    <rect width="8" height="99.1223443485566" x="1332" y="25.438827825721702" rx="4" ry="4" fill="black" />
    <rect width="8" height="104.0483395375838" x="1348" y="22.9758302312081" rx="4" ry="4" fill="black" />
    <rect width="8" height="121.25407394380214" x="1364" y="14.37296302809893" rx="4" ry="4" fill="black" />
    <rect width="8" height="115.90977476990123" x="1380" y="17.045112615049383" rx="4" ry="4" fill="black" />
    <rect width="8" height="128.05106735301695" x="1396" y="10.974466323491527" rx="4" ry="4" fill="black" />
    <rect width="8" height="116.72189735068947" x="1412" y="16.639051324655263" rx="4" ry="4" fill="black" />
    <rect width="8" height="93.43964197764446" x="1428" y="28.280179011177772" rx="4" ry="4" fill="black" />
    <rect width="8" height="112.39055827469767" x="1444" y="18.804720862651166" rx="4" ry="4" fill="black" />
    <rect width="8" height="127.49226417762587" x="1460" y="11.253867911187065" rx="4" ry="4" fill="black" />
    <rect width="8" height="104.86739735596379" x="1476" y="22.566301322018106" rx="4" ry="4" fill="black" />
    <rect width="8" height="125.83052112967738" x="1492" y="12.08473943516131" rx="4" ry="4" fill="black" />
    <rect width="8" height="115.36108449356416" x="1508" y="17.319457753217918" rx="4" ry="4" fill="black" />
    <rect width="8" height="114.23115080652107" x="1524" y="17.884424596739464" rx="4" ry="4" fill="black" />
    <rect width="8" height="75.40489407814592" x="1540" y="37.29755296092704" rx="4" ry="4" fill="black" />
    <rect width="8" height="82.67411349547488" x="1556" y="33.66294325226256" rx="4" ry="4" fill="black" />
    <rect width="8" height="104.52814844899633" x="1572" y="22.735925775501833" rx="4" ry="4" fill="black" />
    <rect width="8" height="119.95788065395192" x="1588" y="15.021059673024041" rx="4" ry="4" fill="black" />
    <rect width="8" height="119.54154164938599" x="1604" y="15.229229175307005" rx="4" ry="4" fill="black" />
    <rect width="8" height="102.76844126997253" x="1620" y="23.615779365013736" rx="4" ry="4" fill="black" />
    <rect width="8" height="137.35819797301113" x="1636" y="6.320901013494435" rx="4" ry="4" fill="black" />
    <rect width="8" height="144.86317068252765" x="1652" y="2.568414658736174" rx="4" ry="4" fill="black" />
    <rect width="8" height="91.34026989721414" x="1668" y="29.32986505139293" rx="4" ry="4" fill="black" />
    <rect width="8" height="85.35638124761923" x="1684" y="32.32180937619039" rx="4" ry="4" fill="black" />
    <rect width="8" height="83.57985876387166" x="1700" y="33.21007061806417" rx="4" ry="4" fill="black" />
    <rect width="8" height="100.51646127748145" x="1716" y="24.741769361259273" rx="4" ry="4" fill="black" />
    <rect width="8" height="109.69009113172648" x="1732" y="20.154954434136762" rx="4" ry="4" fill="black" />
    <rect width="8" height="112.85990971347445" x="1748" y="18.570045143262774" rx="4" ry="4" fill="black" />
    <rect width="8" height="114.83785061643083" x="1764" y="17.581074691784586" rx="4" ry="4" fill="black" />
    <rect width="8" height="112.25166667150745" x="1780" y="18.874166664246275" rx="4" ry="4" fill="black" />
    <rect width="8" height="104.44517928827985" x="1796" y="22.777410355860077" rx="4" ry="4" fill="black" />
    <rect width="8" height="91.63955673467909" x="1812" y="29.180221632660455" rx="4" ry="4" fill="black" />
    <rect width="8" height="105.09830883141169" x="1828" y="22.450845584294157" rx="4" ry="4" fill="black" />
    <rect width="8" height="123.82755327404989" x="1844" y="13.086223362975055" rx="4" ry="4" fill="black" />
    <rect width="8" height="108.24995356012059" x="1860" y="20.875023219939706" rx="4" ry="4" fill="black" />
    <rect width="8" height="106.84724959359012" x="1876" y="21.57637520320494" rx="4" ry="4" fill="black" />
    <rect width="8" height="117.38812623649244" x="1892" y="16.30593688175378" rx="4" ry="4" fill="black" />
    <rect width="8" height="117.1439213498221" x="1908" y="16.428039325088953" rx="4" ry="4" fill="black" />
    <rect width="8" height="106.83246174425835" x="1924" y="21.583769127870823" rx="4" ry="4" fill="black" />
    <rect width="8" height="116.18956789373952" x="1940" y="16.90521605313024" rx="4" ry="4" fill="black" />
    <rect width="8" height="111.2919214958803" x="1956" y="19.35403925205985" rx="4" ry="4" fill="black" />
    <rect width="8" height="126.725526956521" x="1972" y="11.637236521739503" rx="4" ry="4" fill="black" />
    <rect width="8" height="113.95122156065482" x="1988" y="18.024389219672592" rx="4" ry="4" fill="black" />
    <rect width="8" height="101.94008672659216" x="2004" y="24.029956636703922" rx="4" ry="4" fill="black" />
    <rect width="8" height="109.57392515784579" x="2020" y="20.213037421077104" rx="4" ry="4" fill="black" />
    <rect width="8" height="64.83276342003907" x="2036" y="42.583618289980464" rx="4" ry="4" fill="black" />
    <rect width="8" height="58.62063943380933" x="2052" y="45.689680283095335" rx="4" ry="4" fill="black" />
    <rect width="8" height="65.15625780883643" x="2068" y="42.421871095581785" rx="4" ry="4" fill="black" />
    <rect width="8" height="79.63644199296584" x="2084" y="35.18177900351708" rx="4" ry="4" fill="black" />
    <rect width="8" height="67.86948816484187" x="2100" y="41.065255917579066" rx="4" ry="4" fill="black" />
    <rect width="8" height="79.38078540802623" x="2116" y="35.309607295986886" rx="4" ry="4" fill="black" />
    <rect width="8" height="80.16007761583509" x="2132" y="34.919961192082454" rx="4" ry="4" fill="black" />
    <rect width="8" height="85.5525929676365" x="2148" y="32.22370351618175" rx="4" ry="4" fill="black" />
    <rect width="8" height="88.40979011478474" x="2164" y="30.79510494260763" rx="4" ry="4" fill="black" />
    <rect width="8" height="108.83711997770963" x="2180" y="20.581440011145183" rx="4" ry="4" fill="black" />
    <rect width="8" height="111.87292471023001" x="2196" y="19.063537644884995" rx="4" ry="4" fill="black" />
    <rect width="8" height="82.94424151796927" x="2212" y="33.52787924101536" rx="4" ry="4" fill="black" />
    <rect width="8" height="118.64690563157806" x="2228" y="15.676547184210968" rx="4" ry="4" fill="black" />
    <rect width="8" height="98.93104430153925" x="2244" y="25.534477849230377" rx="4" ry="4" fill="black" />
    <rect width="8" height="108.38790751189765" x="2260" y="20.806046244051174" rx="4" ry="4" fill="black" />
    <rect width="8" height="95.73392867905888" x="2276" y="27.13303566047056" rx="4" ry="4" fill="black" />
    <rect width="8" height="100.2852305440533" x="2292" y="24.857384727973347" rx="4" ry="4" fill="black" />
    <rect width="8" height="109.2689423282949" x="2308" y="20.36552883585255" rx="4" ry="4" fill="black" />
    <rect width="8" height="139.55390578138434" x="2324" y="5.223047109307828" rx="4" ry="4" fill="black" />
    <rect width="8" height="114.11383649445926" x="2340" y="17.943081752770368" rx="4" ry="4" fill="black" />
    <rect width="8" height="104.01452636466745" x="2356" y="22.992736817666277" rx="4" ry="4" fill="black" />
    <rect width="8" height="8" x="2372" y="71" rx="4" ry="4" fill="black" />
    <rect width="8" height="33.5704678231452" x="2388" y="58.214766088427396" rx="4" ry="4" fill="black" />
  </g>
</svg>