<svg 
  baseProfile="tiny"
  preserveAspectRatio="true"
  version="1.2"
  viewBox="0 0 2400 150"
  height="100%" width="100%"
  xmlns="http://www.w3.org/2000/svg"
  xmlns:ev="http://www.w3.org/2001/xml-events"
  xmlns:xlink="http://www.w3.org/1999/xlink"
>
  <g>
    <rect width="8" height="62.17157304756616" x="4" y="43.914213476216915" rx="4" ry="4" fill="black" />
    <rect width="8" height="18.81638176517968" x="20" y="65.59180911741016" rx="4" ry="4" fill="black" />
    <rect width="8" height="22.003070345747343" x="36" y="63.99846482712633" rx="4" ry="4" fill="black" />
    <rect width="8" height="8" x="52" y="71" rx="4" ry="4" fill="black" />
    <rect width="8" height="8" x="68" y="71" rx="4" ry="4" fill="black" />
    <rect width="8" height="17.425716504081684" x="84" y="66.28714174795915" rx="4" ry="4" fill="black" />
    <rect width="8" height="8" x="100" y="71" rx="4" ry="4" fill="black" />
    <rect width="8" height="8" x="116" y="71" rx="4" ry="4" fill="black" />
    <rect width="8" height="17.64910763069862" x="132" y="66.1754461846507" rx="4" ry="4" fill="black" />
    <rect width="8" height="35.39611838297188" x="148" y="57.30194080851406" rx="4" ry="4" fill="black" />
    <rect width="8" height="27.600556079947168" x="164" y="61.199721960026416" rx="4" ry="4" fill="black" />
    <rect width="8" height="8" x="180" y="71" rx="4" ry="4" fill="black" />
    <rect width="8" height="51.97897301238666" x="196" y="49.01051349380667" rx="4" ry="4" fill="black" />
    <rect width="8" height="56.907098399039214" x="212" y="46.54645080048039" rx="4" ry="4" fill="black" />
    <rect width="8" height="54.973218051475705" x="228" y="47.51339097426215" rx="4" ry="4" fill="black" />
    <rect width="8" height="65.28102351931781" x="244" y="42.35948824034109" rx="4" ry="4" fill="black" />
    <rect width="8" height="73.36833824763035" x="260" y="38.315830876184826" rx="4" ry="4" fill="black" />
    <rect width="8" height="71.20524877328882" x="276" y="39.39737561335559" rx="4" ry="4" fill="black" />
    <rect width="8" height="64.06930028677127" x="292" y="42.96534985661437" rx="4" ry="4" fill="black" />
    <rect width="8" height="50.91772007257558" x="308" y="49.54113996371221" rx="4" ry="4" fill="black" />
    <rect width="8" height="68.93018120737719" x="324" y="40.534909396311406" rx="4" ry="4" fill="black" />
    <rect width="8" height="53.86220851388353" x="340" y="48.068895743058235" rx="4" ry="4" fill="black" />
    <rect width="8" height="71.67253147335484" x="356" y="39.16373426332258" rx="4" ry="4" fill="black" />
    <rect width="8" height="106.28665432697076" x="372" y="21.85667283651462" rx="4" ry="4" fill="black" />
    <rect width="8" height="48.000265602603804" x="388" y="50.9998671986981" rx="4" ry="4" fill="black" />
    <rect width="8" height="54.77488417855317" x="404" y="47.61255791072341" rx="4" ry="4" fill="black" />
    <rect width="8" height="92.08340981586247" x="420" y="28.958295092068767" rx="4" ry="4" fill="black" />
    <rect width="8" height="75.03748881027157" x="436" y="37.481255594864216" rx="4" ry="4" fill="black" />
    <rect width="8" height="77.82922488781051" x="452" y="36.085387556094744" rx="4" ry="4" fill="black" />
    <rect width="8" height="66.41863378579998" x="468" y="41.79068310710001" rx="4" ry="4" fill="black" />
    <rect width="8" height="38.727974684554844" x="484" y="55.636012657722574" rx="4" ry="4" fill="black" />
    <rect width="8" height="61.522139751819914" x="500" y="44.23893012409005" rx="4" ry="4" fill="black" />
    <rect width="8" height="96.49228959635154" x="516" y="26.75385520182423" rx="4" ry="4" fill="black" />
    <rect width="8" height="87.98430924251835" x="532" y="31.007845378740825" rx="4" ry="4" fill="black" />
    <rect width="8" height="121.71014978933356" x="548" y="14.144925105333222" rx="4" ry="4" fill="black" />
    <rect width="8" height="57.53787823759828" x="564" y="46.23106088120086" rx="4" ry="4" fill="black" />
    <rect width="8" height="51.207200372732466" x="580" y="49.396399813633764" rx="4" ry="4" fill="black" />
    <rect width="8" height="63.03785952791401" x="596" y="43.481070236042996" rx="4" ry="4" fill="black" />
    <rect width="8" height="77.04728969594613" x="612" y="36.47635515202693" rx="4" ry="4" fill="black" />
    <rect width="8" height="72.35346153560852" x="628" y="38.82326923219574" rx="4" ry="4" fill="black" />
    <rect width="8" height="79.90680543333474" x="644" y="35.04659728333263" rx="4" ry="4" fill="black" />
    <rect width="8" height="54.091276641143956" x="660" y="47.95436167942802" rx="4" ry="4" fill="black" />
    <rect width="8" height="65.99251380776468" x="676" y="42.00374309611766" rx="4" ry="4" fill="black" />
    <rect width="8" height="79.99782841553053" x="692" y="35.00108579223473" rx="4" ry="4" fill="black" />
    <rect width="8" height="51.65665175173375" x="708" y="49.171674124133126" rx="4" ry="4" fill="black" />
    <rect width="8" height="55.597447889203295" x="724" y="47.20127605539835" rx="4" ry="4" fill="black" />
    <rect width="8" height="55.10683830116829" x="740" y="47.44658084941585" rx="4" ry="4" fill="black" />
    <rect width="8" height="60.20975189759596" x="756" y="44.89512405120202" rx="4" ry="4" fill="black" />
    <rect width="8" height="74.80139379701062" x="772" y="37.59930310149469" rx="4" ry="4" fill="black" />
    <rect width="8" height="84.92775387140797" x="788" y="32.536123064296014" rx="4" ry="4" fill="black" />
    <rect width="8" height="108.34915083735046" x="804" y="20.825424581324768" rx="4" ry="4" fill="black" />
    <rect width="8" height="80.54515635355145" x="820" y="34.727421823224276" rx="4" ry="4" fill="black" />
    <rect width="8" height="55.26188027011519" x="836" y="47.3690598649424" rx="4" ry="4" fill="black" />
    <rect width="8" height="49.05168843142709" x="852" y="50.47415578428645" rx="4" ry="4" fill="black" />
    <rect width="8" height="85.7083917336536" x="868" y="32.1458041331732" rx="4" ry="4" fill="black" />
    <rect width="8" height="92.17572509285979" x="884" y="28.912137453570104" rx="4" ry="4" fill="black" />
    <rect width="8" height="93.9993379728421" x="900" y="28.00033101357895" rx="4" ry="4" fill="black" />
    <rect width="8" height="54.988153163982915" x="916" y="47.50592341800854" rx="4" ry="4" fill="black" />
    <rect width="8" height="69.82163267904865" x="932" y="40.089183660475676" rx="4" ry="4" fill="black" />
    <rect width="8" height="73.27358234638275" x="948" y="38.36320882680862" rx="4" ry="4" fill="black" />
    <rect width="8" height="76.96276423838255" x="964" y="36.518617880808726" rx="4" ry="4" fill="black" />
    <rect width="8" height="70.34793452417591" x="980" y="39.826032737912044" rx="4" ry="4" fill="black" />
    <rect width="8" height="67.26517730638565" x="996" y="41.367411346807174" rx="4" ry="4" fill="black" />
    <rect width="8" height="41.05805025116215" x="1012" y="54.47097487441893" rx="4" ry="4" fill="black" />
    <rect width="8" height="38.49313010487695" x="1028" y="55.75343494756153" rx="4" ry="4" fill="black" />
    <rect width="8" height="56.02962235298053" x="1044" y="46.98518882350973" rx="4" ry="4" fill="black" />
    <rect width="8" height="27.672194652765565" x="1060" y="61.163902673617216" rx="4" ry="4" fill="black" />
    <rect width="8" height="43.21884854800588" x="1076" y="53.39057572599706" rx="4" ry="4" fill="black" />
    <rect width="8" height="104.39977119168299" x="1092" y="22.800114404158506" rx="4" ry="4" fill="black" />
    <rect width="8" height="101.5216033677347" x="1108" y="24.23919831613265" rx="4" ry="4" fill="black" />
    <rect width="8" height="112.40523329224999" x="1124" y="18.797383353875006" rx="4" ry="4" fill="black" />
    <rect width="8" height="76.39440771434542" x="1140" y="36.80279614282729" rx="4" ry="4" fill="black" />
    <rect width="8" height="108.92419582953464" x="1156" y="20.53790208523268" rx="4" ry="4" fill="black" />
    <rect width="8" height="82.08426073992355" x="1172" y="33.957869630038225" rx="4" ry="4" fill="black" />
    <rect width="8" height="150" x="1188" y="0" rx="4" ry="4" fill="black" />
    <rect width="8" height="109.25209923959856" x="1204" y="20.373950380200718" rx="4" ry="4" fill="black" />
    <rect width="8" height="109.09430222703993" x="1220" y="20.452848886480034" rx="4" ry="4" fill="black" />
    <rect width="8" height="87.25752286325704" x="1236" y="31.37123856837148" rx="4" ry="4" fill="black" />
    <rect width="8" height="116.2817036714438" x="1252" y="16.859148164278103" rx="4" ry="4" fill="black" />
    <rect width="8" height="94.37744268411844" x="1268" y="27.811278657940782" rx="4" ry="4" fill="black" />
    <rect width="8" height="131.5083229381632" x="1284" y="9.245838530918405" rx="4" ry="4" fill="black" />
    <rect width="8" height="67.46687873541545" x="1300" y="41.266560632292276" rx="4" ry="4" fill="black" />
    <rect width="8" height="74.5930541166686" x="1316" y="37.7034729416657" rx="4" ry="4" fill="black" />
    <rect width="8" height="102.8170270926049" x="1332" y="23.59148645369755" rx="4" ry="4" fill="black" />
    <rect width="8" height="113.98290866157194" x="1348" y="18.00854566921403" rx="4" ry="4" fill="black" />
    <rect width="8" height="49.19208589863804" x="1364" y="50.40395705068098" rx="4" ry="4" fill="black" />
    <rect width="8" height="75.54369784342772" x="1380" y="37.22815107828614" rx="4" ry="4" fill="black" />
    <rect width="8" height="88.1520019142658" x="1396" y="30.923999042867102" rx="4" ry="4" fill="black" />
    <rect width="8" height="81.29031613952783" x="1412" y="34.354841930236084" rx="4" ry="4" fill="black" />
    <rect width="8" height="99.38643010710285" x="1428" y="25.306784946448573" rx="4" ry="4" fill="black" />
    <rect width="8" height="60.88491919091586" x="1444" y="44.55754040454207" rx="4" ry="4" fill="black" />
    <rect width="8" height="99.74340031117234" x="1460" y="25.12829984441383" rx="4" ry="4" fill="black" />
    <rect width="8" height="65.75292013132477" x="1476" y="42.123539934337614" rx="4" ry="4" fill="black" />
    <rect width="8" height="107.34901380920492" x="1492" y="21.32549309539754" rx="4" ry="4" fill="black" />
    <rect width="8" height="18.769686674268623" x="1508" y="65.61515666286569" rx="4" ry="4" fill="black" />
    <rect width="8" height="61.76817377178722" x="1524" y="44.11591311410639" rx="4" ry="4" fill="black" />
    <rect width="8" height="51.02333405453762" x="1540" y="49.488332972731186" rx="4" ry="4" fill="black" />
    <rect width="8" height="86.71764778432393" x="1556" y="31.641176107838035" rx="4" ry="4" fill="black" />
    <rect width="8" height="106.3213568284228" x="1572" y="21.839321585788603" rx="4" ry="4" fill="black" />
    <rect width="8" height="36.80601981143673" x="1588" y="56.59699009428164" rx="4" ry="4" fill="black" />
    <rect width="8" height="62.79192521616359" x="1604" y="43.604037391918204" rx="4" ry="4" fill="black" />
    <rect width="8" height="76.32302831178913" x="1620" y="36.838485844105435" rx="4" ry="4" fill="black" />
    <rect width="8" height="78.89616228347812" x="1636" y="35.55191885826094" rx="4" ry="4" fill="black" />
    <rect width="8" height="69.2887753167376" x="1652" y="40.3556123416312" rx="4" ry="4" fill="black" />
    <rect width="8" height="99.80163617114026" x="1668" y="25.09918191442987" rx="4" ry="4" fill="black" />
    <rect width="8" height="41.70734966470552" x="1684" y="54.14632516764724" rx="4" ry="4" fill="black" />
    <rect width="8" height="52.40735320492973" x="1700" y="48.79632339753513" rx="4" ry="4" fill="black" />
    <rect width="8" height="90.08964484728111" x="1716" y="29.955177576359446" rx="4" ry="4" fill="black" />
    <rect width="8" height="81.81845544367596" x="1732" y="34.09077227816202" rx="4" ry="4" fill="black" />
    <rect width="8" height="76.20946606881124" x="1748" y="36.89526696559438" rx="4" ry="4" fill="black" />
    <rect width="8" height="60.147379383436835" x="1764" y="44.926310308281586" rx="4" ry="4" fill="black" />
    <rect width="8" height="57.88579013228646" x="1780" y="46.05710493385677" rx="4" ry="4" fill="black" />
    <rect width="8" height="50.937361439591065" x="1796" y="49.53131928020447" rx="4" ry="4" fill="black" />
    <rect width="8" height="37.276175007368515" x="1812" y="56.36191249631574" rx="4" ry="4" fill="black" />
    <rect width="8" height="40.5893606512083" x="1828" y="54.70531967439585" rx="4" ry="4" fill="black" />
    <rect width="8" height="61.07830908981686" x="1844" y="44.46084545509157" rx="4" ry="4" fill="black" />
    <rect width="8" height="55.015119833842235" x="1860" y="47.49244008307888" rx="4" ry="4" fill="black" />
    <rect width="8" height="42.77214364040174" x="1876" y="53.61392817979913" rx="4" ry="4" fill="black" />
    <rect width="8" height="43.25104431983734" x="1892" y="53.374477840081326" rx="4" ry="4" fill="black" />
    <rect width="8" height="20.676927608439197" x="1908" y="64.6615361957804" rx="4" ry="4" fill="black" />
    <rect width="8" height="53.885110718193424" x="1924" y="48.057444640903284" rx="4" ry="4" fill="black" />
    <rect width="8" height="30.51394111608305" x="1940" y="59.74302944195848" rx="4" ry="4" fill="black" />
    <rect width="8" height="92.17234264380417" x="1956" y="28.913828678097914" rx="4" ry="4" fill="black" />
    <rect width="8" height="107.30649539658586" x="1972" y="21.34675230170707" rx="4" ry="4" fill="black" />
    <rect width="8" height="60.29340518524524" x="1988" y="44.85329740737738" rx="4" ry="4" fill="black" />
    <rect width="8" height="30.104930943211894" x="2004" y="59.94753452839405" rx="4" ry="4" fill="black" />
    <rect width="8" height="53.16198407500377" x="2020" y="48.419007962498114" rx="4" ry="4" fill="black" />
    <rect width="8" height="25.816366154623882" x="2036" y="62.09181692268806" rx="4" ry="4" fill="black" />
    <rect width="8" height="24.664686187236175" x="2052" y="62.667656906381914" rx="4" ry="4" fill="black" />
    <rect width="8" height="8" x="2068" y="71" rx="4" ry="4" fill="black" />
    <rect width="8" height="8" x="2084" y="71" rx="4" ry="4" fill="black" />
    <rect width="8" height="8" x="2100" y="71" rx="4" ry="4" fill="black" />
    <rect width="8" height="8" x="2116" y="71" rx="4" ry="4" fill="black" />
    <rect width="8" height="8" x="2132" y="71" rx="4" ry="4" fill="black" />
    <rect width="8" height="20.150241774151315" x="2148" y="64.92487911292434" rx="4" ry="4" fill="black" />
    <rect width="8" height="21.365548335556994" x="2164" y="64.31722583222151" rx="4" ry="4" fill="black" />
    <rect width="8" height="19.65249260678817" x="2180" y="65.17375369660591" rx="4" ry="4" fill="black" />
    <rect width="8" height="8" x="2196" y="71" rx="4" ry="4" fill="black" />
    <rect width="8" height="26.3485393565252" x="2212" y="61.825730321737396" rx="4" ry="4" fill="black" />
    <rect width="8" height="8" x="2228" y="71" rx="4" ry="4" fill="black" />
    <rect width="8" height="8" x="2244" y="71" rx="4" ry="4" fill="black" />
    <rect width="8" height="8" x="2260" y="71" rx="4" ry="4" fill="black" />
    <rect width="8" height="34.14292041707789" x="2276" y="57.928539791461056" rx="4" ry="4" fill="black" />
    <rect width="8" height="40.461229193656095" x="2292" y="54.76938540317195" rx="4" ry="4" fill="black" />
    <rect width="8" height="22.004441751246237" x="2308" y="63.99777912437688" rx="4" ry="4" fill="black" />
    <rect width="8" height="8" x="2324" y="71" rx="4" ry="4" fill="black" />
    <rect width="8" height="27.29549211481355" x="2340" y="61.35225394259322" rx="4" ry="4" fill="black" />
    <rect width="8" height="8" x="2356" y="71" rx="4" ry="4" fill="black" />
    <rect width="8" height="8" x="2372" y="71" rx="4" ry="4" fill="black" />
    <rect width="8" height="8" x="2388" y="71" rx="4" ry="4" fill="black" />
  </g>
</svg>