<svg 
  baseProfile="tiny"
  preserveAspectRatio="true"
  version="1.2"
  viewBox="0 0 2400 150"
  height="100%" width="100%"
  xmlns="http://www.w3.org/2000/svg"
  xmlns:ev="http://www.w3.org/2001/xml-events"
  xmlns:xlink="http://www.w3.org/1999/xlink"
>
  <g>
    <rect width="8" height="48.01183102645444" x="4" y="50.99408448677278" rx="4" ry="4" fill="black" />
    <rect width="8" height="40.04582580506216" x="20" y="54.977087097468925" rx="4" ry="4" fill="black" />
    <rect width="8" height="54.080435020513306" x="36" y="47.95978248974335" rx="4" ry="4" fill="black" />
    <rect width="8" height="29.776687150478047" x="52" y="60.11165642476098" rx="4" ry="4" fill="black" />
    <rect width="8" height="52.60450184638558" x="68" y="48.69774907680721" rx="4" ry="4" fill="black" />
    <rect width="8" height="48.86863173734871" x="84" y="50.565684131325646" rx="4" ry="4" fill="black" />
    <rect width="8" height="42.66033304461912" x="100" y="53.66983347769044" rx="4" ry="4" fill="black" />
    <rect width="8" height="39.38252141718926" x="116" y="55.308739291405374" rx="4" ry="4" fill="black" />
    <rect width="8" height="72.06930066846529" x="132" y="38.965349665767356" rx="4" ry="4" fill="black" />
    <rect width="8" height="51.261177452289054" x="148" y="49.36941127385548" rx="4" ry="4" fill="black" />
    <rect width="8" height="43.17833809017326" x="164" y="53.410830954913365" rx="4" ry="4" fill="black" />
    <rect width="8" height="63.282155193003746" x="180" y="43.35892240349813" rx="4" ry="4" fill="black" />
    <rect width="8" height="58.592693144852355" x="196" y="45.703653427573826" rx="4" ry="4" fill="black" />
    <rect width="8" height="45.08009422565209" x="212" y="52.459952887173955" rx="4" ry="4" fill="black" />
    <rect width="8" height="71.50128438389127" x="228" y="39.24935780805436" rx="4" ry="4" fill="black" />
    <rect width="8" height="68.48861787430738" x="244" y="40.75569106284631" rx="4" ry="4" fill="black" />
    <rect width="8" height="64.8257465226771" x="260" y="42.58712673866145" rx="4" ry="4" fill="black" />
    <rect width="8" height="120.45344102700626" x="276" y="14.773279486496868" rx="4" ry="4" fill="black" />
    <rect width="8" height="132.70609882856402" x="292" y="8.646950585717988" rx="4" ry="4" fill="black" />
    <rect width="8" height="103.49325593665476" x="308" y="23.25337203167262" rx="4" ry="4" fill="black" />
    <rect width="8" height="86.07210302580859" x="324" y="31.963948487095706" rx="4" ry="4" fill="black" />
    <rect width="8" height="89.82209762542458" x="340" y="30.088951187287712" rx="4" ry="4" fill="black" />
    <rect width="8" height="96.927119519618" x="356" y="26.536440240191" rx="4" ry="4" fill="black" />
    <rect width="8" height="100.29394838134843" x="372" y="24.853025809325786" rx="4" ry="4" fill="black" />
    <rect width="8" height="98.91616466658488" x="388" y="25.541917666707562" rx="4" ry="4" fill="black" />
    <rect width="8" height="90.0181527414828" x="404" y="29.990923629258603" rx="4" ry="4" fill="black" />
    <rect width="8" height="106.18249369043943" x="420" y="21.908753154780285" rx="4" ry="4" fill="black" />
    <rect width="8" height="150" x="436" y="0" rx="4" ry="4" fill="black" />
    <rect width="8" height="131.24763824188867" x="452" y="9.376180879055667" rx="4" ry="4" fill="black" />
    <rect width="8" height="119.40899115876039" x="468" y="15.295504420619807" rx="4" ry="4" fill="black" />
    <rect width="8" height="124.0706175650153" x="484" y="12.964691217492351" rx="4" ry="4" fill="black" />
    <rect width="8" height="112.9110749161754" x="500" y="18.544462541912303" rx="4" ry="4" fill="black" />
    <rect width="8" height="134.68911415305354" x="516" y="7.655442923473231" rx="4" ry="4" fill="black" />
    <rect width="8" height="140.8635825438684" x="532" y="4.568208728065798" rx="4" ry="4" fill="black" />
    <rect width="8" height="120.60095625716565" x="548" y="14.699521871417176" rx="4" ry="4" fill="black" />
    <rect width="8" height="130.7090548321158" x="564" y="9.645472583942095" rx="4" ry="4" fill="black" />
    <rect width="8" height="118.25245391990128" x="580" y="15.873773040049358" rx="4" ry="4" fill="black" />
    <rect width="8" height="129.0653494793621" x="596" y="10.467325260318944" rx="4" ry="4" fill="black" />
    <rect width="8" height="107.1648330861945" x="612" y="21.417583456902747" rx="4" ry="4" fill="black" />
    <rect width="8" height="130.81947740719707" x="628" y="9.590261296401465" rx="4" ry="4" fill="black" />
    <rect width="8" height="123.37224903629127" x="644" y="13.313875481854367" rx="4" ry="4" fill="black" />
    <rect width="8" height="126.59303965107492" x="660" y="11.703480174462541" rx="4" ry="4" fill="black" />
    <rect width="8" height="119.2447326868774" x="676" y="15.3776336565613" rx="4" ry="4" fill="black" />
    <rect width="8" height="133.28493670408068" x="692" y="8.35753164795966" rx="4" ry="4" fill="black" />
    <rect width="8" height="144.2411862099231" x="708" y="2.879406895038457" rx="4" ry="4" fill="black" />
    <rect width="8" height="122.68037408629154" x="724" y="13.659812956854232" rx="4" ry="4" fill="black" />
    <rect width="8" height="129.95758263830356" x="740" y="10.021208680848218" rx="4" ry="4" fill="black" />
    <rect width="8" height="116.04640816277022" x="756" y="16.97679591861489" rx="4" ry="4" fill="black" />
    <rect width="8" height="128.48332818349513" x="772" y="10.758335908252434" rx="4" ry="4" fill="black" />
    <rect width="8" height="127.36524935287648" x="788" y="11.317375323561762" rx="4" ry="4" fill="black" />
    <rect width="8" height="120.96251020142833" x="804" y="14.518744899285835" rx="4" ry="4" fill="black" />
    <rect width="8" height="116.93001193678896" x="820" y="16.53499403160552" rx="4" ry="4" fill="black" />
    <rect width="8" height="126.13202482926525" x="836" y="11.933987585367376" rx="4" ry="4" fill="black" />
    <rect width="8" height="125.24412710337343" x="852" y="12.377936448313285" rx="4" ry="4" fill="black" />
    <rect width="8" height="88.39446521600162" x="868" y="30.80276739199919" rx="4" ry="4" fill="black" />
    <rect width="8" height="84.56837284664094" x="884" y="32.71581357667953" rx="4" ry="4" fill="black" />
    <rect width="8" height="80.22797244278789" x="900" y="34.886013778606056" rx="4" ry="4" fill="black" />
    <rect width="8" height="86.22728462029514" x="916" y="31.88635768985243" rx="4" ry="4" fill="black" />
    <rect width="8" height="77.68192438084111" x="932" y="36.159037809579445" rx="4" ry="4" fill="black" />
    <rect width="8" height="86.73121827653536" x="948" y="31.63439086173232" rx="4" ry="4" fill="black" />
    <rect width="8" height="80.43950842565624" x="964" y="34.78024578717188" rx="4" ry="4" fill="black" />
    <rect width="8" height="71.08130834321848" x="980" y="39.45934582839076" rx="4" ry="4" fill="black" />
    <rect width="8" height="69.44466791897993" x="996" y="40.277666040510034" rx="4" ry="4" fill="black" />
    <rect width="8" height="68.35208971565764" x="1012" y="40.82395514217118" rx="4" ry="4" fill="black" />
    <rect width="8" height="86.96582837037172" x="1028" y="31.517085814814138" rx="4" ry="4" fill="black" />
    <rect width="8" height="87.041964372592" x="1044" y="31.479017813703997" rx="4" ry="4" fill="black" />
    <rect width="8" height="94.21538092111041" x="1060" y="27.892309539444796" rx="4" ry="4" fill="black" />
    <rect width="8" height="81.10624286690282" x="1076" y="34.44687856654859" rx="4" ry="4" fill="black" />
    <rect width="8" height="99.92004888036797" x="1092" y="25.039975559816014" rx="4" ry="4" fill="black" />
    <rect width="8" height="114.3448968053591" x="1108" y="17.82755159732045" rx="4" ry="4" fill="black" />
    <rect width="8" height="140.37896937996467" x="1124" y="4.810515310017664" rx="4" ry="4" fill="black" />
    <rect width="8" height="124.71286178276803" x="1140" y="12.643569108615985" rx="4" ry="4" fill="black" />
    <rect width="8" height="123.99493823605957" x="1156" y="13.002530881970216" rx="4" ry="4" fill="black" />
    <rect width="8" height="124.6750278574807" x="1172" y="12.66248607125965" rx="4" ry="4" fill="black" />
    <rect width="8" height="128.98111604953317" x="1188" y="10.509441975233415" rx="4" ry="4" fill="black" />
    <rect width="8" height="122.46534773571709" x="1204" y="13.767326132141456" rx="4" ry="4" fill="black" />
    <rect width="8" height="136.60766054607907" x="1220" y="6.696169726960463" rx="4" ry="4" fill="black" />
    <rect width="8" height="130.35647389177768" x="1236" y="9.821763054111159" rx="4" ry="4" fill="black" />
    <rect width="8" height="132.3583300150865" x="1252" y="8.820834992456753" rx="4" ry="4" fill="black" />
    <rect width="8" height="130.2885857668911" x="1268" y="9.855707116554456" rx="4" ry="4" fill="black" />
    <rect width="8" height="136.80139828655572" x="1284" y="6.599300856722138" rx="4" ry="4" fill="black" />
    <rect width="8" height="123.68134572404897" x="1300" y="13.159327137975517" rx="4" ry="4" fill="black" />
    <rect width="8" height="133.8110100164148" x="1316" y="8.094494991792601" rx="4" ry="4" fill="black" />
    <rect width="8" height="120.84641749654315" x="1332" y="14.576791251728423" rx="4" ry="4" fill="black" />
    <rect width="8" height="130.94660319930995" x="1348" y="9.526698400345026" rx="4" ry="4" fill="black" />
    <rect width="8" height="123.11192990369729" x="1364" y="13.444035048151356" rx="4" ry="4" fill="black" />
    <rect width="8" height="132.49150127570053" x="1380" y="8.754249362149736" rx="4" ry="4" fill="black" />
    <rect width="8" height="80.93659074882378" x="1396" y="34.53170462558811" rx="4" ry="4" fill="black" />
    <rect width="8" height="91.36889089419518" x="1412" y="29.315554552902412" rx="4" ry="4" fill="black" />
    <rect width="8" height="88.98471709076209" x="1428" y="30.507641454618955" rx="4" ry="4" fill="black" />
    <rect width="8" height="76.02624627222768" x="1444" y="36.98687686388616" rx="4" ry="4" fill="black" />
    <rect width="8" height="101.76435857022898" x="1460" y="24.11782071488551" rx="4" ry="4" fill="black" />
    <rect width="8" height="81.2407834148764" x="1476" y="34.3796082925618" rx="4" ry="4" fill="black" />
    <rect width="8" height="79.6354526346032" x="1492" y="35.1822736826984" rx="4" ry="4" fill="black" />
    <rect width="8" height="88.30954008406611" x="1508" y="30.845229957966943" rx="4" ry="4" fill="black" />
    <rect width="8" height="94.76613612844666" x="1524" y="27.61693193577667" rx="4" ry="4" fill="black" />
    <rect width="8" height="134.30807950273356" x="1540" y="7.845960248633219" rx="4" ry="4" fill="black" />
    <rect width="8" height="121.56324344952982" x="1556" y="14.21837827523509" rx="4" ry="4" fill="black" />
    <rect width="8" height="135.7006216300323" x="1572" y="7.149689184983856" rx="4" ry="4" fill="black" />
    <rect width="8" height="126.10538667655734" x="1588" y="11.947306661721328" rx="4" ry="4" fill="black" />
    <rect width="8" height="126.32622703650908" x="1604" y="11.83688648174546" rx="4" ry="4" fill="black" />
    <rect width="8" height="129.79034225689128" x="1620" y="10.10482887155436" rx="4" ry="4" fill="black" />
    <rect width="8" height="139.70155706147045" x="1636" y="5.1492214692647735" rx="4" ry="4" fill="black" />
    <rect width="8" height="112.43568022547127" x="1652" y="18.782159887264363" rx="4" ry="4" fill="black" />
    <rect width="8" height="143.08935492539413" x="1668" y="3.4553225373029335" rx="4" ry="4" fill="black" />
    <rect width="8" height="117.9487553272429" x="1684" y="16.025622336378547" rx="4" ry="4" fill="black" />
    <rect width="8" height="122.14255210279342" x="1700" y="13.928723948603292" rx="4" ry="4" fill="black" />
    <rect width="8" height="128.3603510013707" x="1716" y="10.819824499314649" rx="4" ry="4" fill="black" />
    <rect width="8" height="133.1410053524328" x="1732" y="8.429497323783593" rx="4" ry="4" fill="black" />
    <rect width="8" height="127.33705448286916" x="1748" y="11.331472758565418" rx="4" ry="4" fill="black" />
    <rect width="8" height="134.2418796802467" x="1764" y="7.879060159876644" rx="4" ry="4" fill="black" />
    <rect width="8" height="127.27439728838587" x="1780" y="11.362801355807065" rx="4" ry="4" fill="black" />
    <rect width="8" height="120.15771280908375" x="1796" y="14.921143595458126" rx="4" ry="4" fill="black" />
    <rect width="8" height="123.17058556357306" x="1812" y="13.414707218213472" rx="4" ry="4" fill="black" />
    <rect width="8" height="143.07106845351132" x="1828" y="3.464465773244342" rx="4" ry="4" fill="black" />
    <rect width="8" height="132.02277723287415" x="1844" y="8.988611383562926" rx="4" ry="4" fill="black" />
    <rect width="8" height="116.86404779824211" x="1860" y="16.567976100878944" rx="4" ry="4" fill="black" />
    <rect width="8" height="129.4112658315126" x="1876" y="10.294367084243703" rx="4" ry="4" fill="black" />
    <rect width="8" height="134.75073552555799" x="1892" y="7.624632237221007" rx="4" ry="4" fill="black" />
    <rect width="8" height="123.87143963870935" x="1908" y="13.064280180645326" rx="4" ry="4" fill="black" />
    <rect width="8" height="127.97077743375257" x="1924" y="11.014611283123713" rx="4" ry="4" fill="black" />
    <rect width="8" height="132.0174773806495" x="1940" y="8.991261309675252" rx="4" ry="4" fill="black" />
    <rect width="8" height="103.3464744876768" x="1956" y="23.3267627561616" rx="4" ry="4" fill="black" />
    <rect width="8" height="83.384691162551" x="1972" y="33.3076544187245" rx="4" ry="4" fill="black" />
    <rect width="8" height="65.38803178231919" x="1988" y="42.305984108840406" rx="4" ry="4" fill="black" />
    <rect width="8" height="80.1136931228285" x="2004" y="34.94315343858575" rx="4" ry="4" fill="black" />
    <rect width="8" height="79.81605631794791" x="2020" y="35.091971841026044" rx="4" ry="4" fill="black" />
    <rect width="8" height="93.59460686351969" x="2036" y="28.202696568240157" rx="4" ry="4" fill="black" />
    <rect width="8" height="85.94598393388202" x="2052" y="32.02700803305899" rx="4" ry="4" fill="black" />
    <rect width="8" height="95.04139073332483" x="2068" y="27.479304633337584" rx="4" ry="4" fill="black" />
    <rect width="8" height="96.57737567749591" x="2084" y="26.711312161252046" rx="4" ry="4" fill="black" />
    <rect width="8" height="105.4369626758063" x="2100" y="22.28151866209685" rx="4" ry="4" fill="black" />
    <rect width="8" height="107.69987037524682" x="2116" y="21.15006481237659" rx="4" ry="4" fill="black" />
    <rect width="8" height="88.18488380637767" x="2132" y="30.907558096811165" rx="4" ry="4" fill="black" />
    <rect width="8" height="94.50047322512054" x="2148" y="27.749763387439728" rx="4" ry="4" fill="black" />
    <rect width="8" height="88.48246953701556" x="2164" y="30.75876523149222" rx="4" ry="4" fill="black" />
    <rect width="8" height="98.43859376608444" x="2180" y="25.78070311695778" rx="4" ry="4" fill="black" />
    <rect width="8" height="90.50700121818369" x="2196" y="29.746499390908156" rx="4" ry="4" fill="black" />
    <rect width="8" height="90.05591232701211" x="2212" y="29.972043836493945" rx="4" ry="4" fill="black" />
    <rect width="8" height="105.47470052572251" x="2228" y="22.262649737138744" rx="4" ry="4" fill="black" />
    <rect width="8" height="92.06250707067647" x="2244" y="28.968746464661763" rx="4" ry="4" fill="black" />
    <rect width="8" height="101.7704278877251" x="2260" y="24.114786056137447" rx="4" ry="4" fill="black" />
    <rect width="8" height="93.508232980694" x="2276" y="28.245883509652998" rx="4" ry="4" fill="black" />
    <rect width="8" height="100.10185705292554" x="2292" y="24.94907147353723" rx="4" ry="4" fill="black" />
    <rect width="8" height="87.54724317961164" x="2308" y="31.22637841019418" rx="4" ry="4" fill="black" />
    <rect width="8" height="99.81735896049771" x="2324" y="25.091320519751143" rx="4" ry="4" fill="black" />
    <rect width="8" height="93.26472578600118" x="2340" y="28.36763710699941" rx="4" ry="4" fill="black" />
    <rect width="8" height="88.06024472407303" x="2356" y="30.969877637963485" rx="4" ry="4" fill="black" />
    <rect width="8" height="96.47304814772552" x="2372" y="26.76347592613724" rx="4" ry="4" fill="black" />
    <rect width="8" height="8" x="2388" y="71" rx="4" ry="4" fill="black" />
  </g>
</svg>