<svg 
  baseProfile="tiny"
  preserveAspectRatio="keep"
  version="1.2"
  viewBox="0 0 2400 150"
  height="100%" width="100%"
  xmlns="http://www.w3.org/2000/svg"
  xmlns:ev="http://www.w3.org/2001/xml-events"
  xmlns:xlink="http://www.w3.org/1999/xlink"
>
  <g>
    <rect width="8" height="52.97778382671352" x="4" y="48.51110808664324" rx="4" ry="4" fill="black" />
    <rect width="8" height="114.44922456315948" x="20" y="17.775387718420262" rx="4" ry="4" fill="black" />
    <rect width="8" height="63.76280348355113" x="36" y="43.11859825822444" rx="4" ry="4" fill="black" />
    <rect width="8" height="49.50789728118023" x="52" y="50.24605135940989" rx="4" ry="4" fill="black" />
    <rect width="8" height="33.4153764004978" x="68" y="58.292311799751104" rx="4" ry="4" fill="black" />
    <rect width="8" height="99.43439096550706" x="84" y="25.28280451724647" rx="4" ry="4" fill="black" />
    <rect width="8" height="53.00244138915072" x="100" y="48.49877930542464" rx="4" ry="4" fill="black" />
    <rect width="8" height="42.67763227125094" x="116" y="53.66118386437453" rx="4" ry="4" fill="black" />
    <rect width="8" height="48.234322168230584" x="132" y="50.882838915884705" rx="4" ry="4" fill="black" />
    <rect width="8" height="65.76092617996814" x="148" y="42.11953691001593" rx="4" ry="4" fill="black" />
    <rect width="8" height="46.258641214768886" x="164" y="51.87067939261556" rx="4" ry="4" fill="black" />
    <rect width="8" height="89.59250050088295" x="180" y="30.203749749558526" rx="4" ry="4" fill="black" />
    <rect width="8" height="77.13941942312832" x="196" y="36.43029028843584" rx="4" ry="4" fill="black" />
    <rect width="8" height="55.85818632360668" x="212" y="47.07090683819666" rx="4" ry="4" fill="black" />
    <rect width="8" height="83.5152938922761" x="228" y="33.24235305386195" rx="4" ry="4" fill="black" />
    <rect width="8" height="110.90117325821785" x="244" y="19.549413370891074" rx="4" ry="4" fill="black" />
    <rect width="8" height="79.77398080872754" x="260" y="35.11300959563623" rx="4" ry="4" fill="black" />
    <rect width="8" height="92.04295096519091" x="276" y="28.978524517404544" rx="4" ry="4" fill="black" />
    <rect width="8" height="82.95036306523896" x="292" y="33.52481846738052" rx="4" ry="4" fill="black" />
    <rect width="8" height="68.77838620577089" x="308" y="40.61080689711456" rx="4" ry="4" fill="black" />
    <rect width="8" height="100.35876870194689" x="324" y="24.820615649026557" rx="4" ry="4" fill="black" />
    <rect width="8" height="47.10656397983986" x="340" y="51.44671801008007" rx="4" ry="4" fill="black" />
    <rect width="8" height="125.37433258342087" x="356" y="12.312833708289567" rx="4" ry="4" fill="black" />
    <rect width="8" height="116.21622115582724" x="372" y="16.89188942208638" rx="4" ry="4" fill="black" />
    <rect width="8" height="78.34284284421814" x="388" y="35.82857857789093" rx="4" ry="4" fill="black" />
    <rect width="8" height="100.09860374508085" x="404" y="24.950698127459574" rx="4" ry="4" fill="black" />
    <rect width="8" height="96.89029188613075" x="420" y="26.554854056934623" rx="4" ry="4" fill="black" />
    <rect width="8" height="93.7227805969629" x="436" y="28.138609701518547" rx="4" ry="4" fill="black" />
    <rect width="8" height="101.83673544925524" x="452" y="24.081632275372378" rx="4" ry="4" fill="black" />
    <rect width="8" height="63.46911093170528" x="468" y="43.26544453414736" rx="4" ry="4" fill="black" />
    <rect width="8" height="85.0641744058559" x="484" y="32.46791279707205" rx="4" ry="4" fill="black" />
    <rect width="8" height="111.19934491151137" x="500" y="19.400327544244313" rx="4" ry="4" fill="black" />
    <rect width="8" height="73.7606307776742" x="516" y="38.1196846111629" rx="4" ry="4" fill="black" />
    <rect width="8" height="112.42582530962399" x="532" y="18.787087345188006" rx="4" ry="4" fill="black" />
    <rect width="8" height="78.87307764503035" x="548" y="35.563461177484825" rx="4" ry="4" fill="black" />
    <rect width="8" height="129.7440188334336" x="564" y="10.127990583283193" rx="4" ry="4" fill="black" />
    <rect width="8" height="119.96430445965805" x="580" y="15.017847770170974" rx="4" ry="4" fill="black" />
    <rect width="8" height="44.24189720549046" x="596" y="52.87905139725477" rx="4" ry="4" fill="black" />
    <rect width="8" height="99.16156814584994" x="612" y="25.41921592707503" rx="4" ry="4" fill="black" />
    <rect width="8" height="114.15112735664262" x="628" y="17.92443632167869" rx="4" ry="4" fill="black" />
    <rect width="8" height="79.76443929643315" x="644" y="35.11778035178342" rx="4" ry="4" fill="black" />
    <rect width="8" height="119.80801505050565" x="660" y="15.095992474747177" rx="4" ry="4" fill="black" />
    <rect width="8" height="76.24587644185065" x="676" y="36.87706177907467" rx="4" ry="4" fill="black" />
    <rect width="8" height="105.95707566321268" x="692" y="22.02146216839366" rx="4" ry="4" fill="black" />
    <rect width="8" height="125.72033462785643" x="708" y="12.139832686071784" rx="4" ry="4" fill="black" />
    <rect width="8" height="87.32565431656137" x="724" y="31.337172841719315" rx="4" ry="4" fill="black" />
    <rect width="8" height="73.52983817847917" x="740" y="38.235080910760416" rx="4" ry="4" fill="black" />
    <rect width="8" height="38.87787596534619" x="756" y="55.561062017326904" rx="4" ry="4" fill="black" />
    <rect width="8" height="65.7363657601493" x="772" y="42.13181711992535" rx="4" ry="4" fill="black" />
    <rect width="8" height="99.93945661682957" x="788" y="25.030271691585213" rx="4" ry="4" fill="black" />
    <rect width="8" height="64.10954126391555" x="804" y="42.94522936804223" rx="4" ry="4" fill="black" />
    <rect width="8" height="59.80452109239715" x="820" y="45.097739453801424" rx="4" ry="4" fill="black" />
    <rect width="8" height="77.09958330505636" x="836" y="36.45020834747182" rx="4" ry="4" fill="black" />
    <rect width="8" height="65.8894814855519" x="852" y="42.05525925722405" rx="4" ry="4" fill="black" />
    <rect width="8" height="17.44833201118035" x="868" y="66.27583399440982" rx="4" ry="4" fill="black" />
    <rect width="8" height="90.43534271574525" x="884" y="29.782328642127375" rx="4" ry="4" fill="black" />
    <rect width="8" height="8" x="900" y="71" rx="4" ry="4" fill="black" />
    <rect width="8" height="95.09022561713654" x="916" y="27.45488719143173" rx="4" ry="4" fill="black" />
    <rect width="8" height="82.32700159868466" x="932" y="33.83649920065767" rx="4" ry="4" fill="black" />
    <rect width="8" height="53.09909688740956" x="948" y="48.45045155629522" rx="4" ry="4" fill="black" />
    <rect width="8" height="107.08668912832344" x="964" y="21.45665543583828" rx="4" ry="4" fill="black" />
    <rect width="8" height="132.6474039205716" x="980" y="8.676298039714197" rx="4" ry="4" fill="black" />
    <rect width="8" height="93.43525497376241" x="996" y="28.282372513118794" rx="4" ry="4" fill="black" />
    <rect width="8" height="114.27844813549343" x="1012" y="17.860775932253283" rx="4" ry="4" fill="black" />
    <rect width="8" height="65.79857029777074" x="1028" y="42.10071485111463" rx="4" ry="4" fill="black" />
    <rect width="8" height="131.29515700531883" x="1044" y="9.352421497340586" rx="4" ry="4" fill="black" />
    <rect width="8" height="85.01452189524733" x="1060" y="32.492739052376336" rx="4" ry="4" fill="black" />
    <rect width="8" height="86.73833870221392" x="1076" y="31.63083064889304" rx="4" ry="4" fill="black" />
    <rect width="8" height="85.03423512301245" x="1092" y="32.482882438493775" rx="4" ry="4" fill="black" />
    <rect width="8" height="119.18791138167803" x="1108" y="15.406044309160983" rx="4" ry="4" fill="black" />
    <rect width="8" height="129.09283641601544" x="1124" y="10.453581791992278" rx="4" ry="4" fill="black" />
    <rect width="8" height="112.04747167630862" x="1140" y="18.97626416184569" rx="4" ry="4" fill="black" />
    <rect width="8" height="131.76045685298809" x="1156" y="9.119771573505957" rx="4" ry="4" fill="black" />
    <rect width="8" height="100.2493467543572" x="1172" y="24.875326622821397" rx="4" ry="4" fill="black" />
    <rect width="8" height="136.27085222790822" x="1188" y="6.864573886045889" rx="4" ry="4" fill="black" />
    <rect width="8" height="102.8733044938592" x="1204" y="23.563347753070403" rx="4" ry="4" fill="black" />
    <rect width="8" height="127.79949568094919" x="1220" y="11.100252159525404" rx="4" ry="4" fill="black" />
    <rect width="8" height="109.3799032757633" x="1236" y="20.31004836211835" rx="4" ry="4" fill="black" />
    <rect width="8" height="110.09303639678274" x="1252" y="19.953481801608632" rx="4" ry="4" fill="black" />
    <rect width="8" height="96.12365569679099" x="1268" y="26.938172151604505" rx="4" ry="4" fill="black" />
    <rect width="8" height="128.0141437691269" x="1284" y="10.992928115436555" rx="4" ry="4" fill="black" />
    <rect width="8" height="141.41400756326254" x="1300" y="4.292996218368728" rx="4" ry="4" fill="black" />
    <rect width="8" height="84.10060175292325" x="1316" y="32.94969912353837" rx="4" ry="4" fill="black" />
    <rect width="8" height="115.4170308703723" x="1332" y="17.29148456481385" rx="4" ry="4" fill="black" />
    <rect width="8" height="117.76288506593498" x="1348" y="16.11855746703251" rx="4" ry="4" fill="black" />
    <rect width="8" height="150" x="1364" y="0" rx="4" ry="4" fill="black" />
    <rect width="8" height="123.79911490121684" x="1380" y="13.10044254939158" rx="4" ry="4" fill="black" />
    <rect width="8" height="141.5703735125093" x="1396" y="4.214813243745354" rx="4" ry="4" fill="black" />
    <rect width="8" height="117.59854311760822" x="1412" y="16.200728441195892" rx="4" ry="4" fill="black" />
    <rect width="8" height="91.07166467048214" x="1428" y="29.464167664758932" rx="4" ry="4" fill="black" />
    <rect width="8" height="142.58948884604717" x="1444" y="3.7052555769764126" rx="4" ry="4" fill="black" />
    <rect width="8" height="132.14747209668735" x="1460" y="8.926263951656324" rx="4" ry="4" fill="black" />
    <rect width="8" height="116.86102522069346" x="1476" y="16.56948738965327" rx="4" ry="4" fill="black" />
    <rect width="8" height="124.20656900255457" x="1492" y="12.896715498722713" rx="4" ry="4" fill="black" />
    <rect width="8" height="117.66645842785367" x="1508" y="16.166770786073165" rx="4" ry="4" fill="black" />
    <rect width="8" height="141.27640962225308" x="1524" y="4.361795188873458" rx="4" ry="4" fill="black" />
    <rect width="8" height="105.63112531862616" x="1540" y="22.18443734068692" rx="4" ry="4" fill="black" />
    <rect width="8" height="131.48623333361746" x="1556" y="9.256883333191269" rx="4" ry="4" fill="black" />
    <rect width="8" height="46.794393512954386" x="1572" y="51.60280324352281" rx="4" ry="4" fill="black" />
    <rect width="8" height="79.75678319203807" x="1588" y="35.121608403980964" rx="4" ry="4" fill="black" />
    <rect width="8" height="38.962056686251636" x="1604" y="55.518971656874186" rx="4" ry="4" fill="black" />
    <rect width="8" height="90.36807266993232" x="1620" y="29.81596366503384" rx="4" ry="4" fill="black" />
    <rect width="8" height="107.8320566124374" x="1636" y="21.0839716937813" rx="4" ry="4" fill="black" />
    <rect width="8" height="66.69583203342299" x="1652" y="41.652083983288506" rx="4" ry="4" fill="black" />
    <rect width="8" height="74.57177071888613" x="1668" y="37.714114640556936" rx="4" ry="4" fill="black" />
    <rect width="8" height="138.61867369807337" x="1684" y="5.690663150963317" rx="4" ry="4" fill="black" />
    <rect width="8" height="69.40888917230131" x="1700" y="40.29555541384934" rx="4" ry="4" fill="black" />
    <rect width="8" height="93.51986354951555" x="1716" y="28.240068225242226" rx="4" ry="4" fill="black" />
    <rect width="8" height="84.47325565908191" x="1732" y="32.76337217045904" rx="4" ry="4" fill="black" />
    <rect width="8" height="78.2654667477908" x="1748" y="35.8672666261046" rx="4" ry="4" fill="black" />
    <rect width="8" height="129.9104833101739" x="1764" y="10.044758344913049" rx="4" ry="4" fill="black" />
    <rect width="8" height="113.4826916272674" x="1780" y="18.2586541863663" rx="4" ry="4" fill="black" />
    <rect width="8" height="45.50527821856549" x="1796" y="52.24736089071725" rx="4" ry="4" fill="black" />
    <rect width="8" height="69.44344093983433" x="1812" y="40.278279530082834" rx="4" ry="4" fill="black" />
    <rect width="8" height="39.45042812746989" x="1828" y="55.274785936265054" rx="4" ry="4" fill="black" />
    <rect width="8" height="50.50929434974409" x="1844" y="49.74535282512795" rx="4" ry="4" fill="black" />
    <rect width="8" height="88.71912731182748" x="1860" y="30.64043634408626" rx="4" ry="4" fill="black" />
    <rect width="8" height="47.166747639694066" x="1876" y="51.41662618015297" rx="4" ry="4" fill="black" />
    <rect width="8" height="38.41782102160414" x="1892" y="55.79108948919793" rx="4" ry="4" fill="black" />
    <rect width="8" height="112.51037613108619" x="1908" y="18.744811934456905" rx="4" ry="4" fill="black" />
    <rect width="8" height="26.102043438368277" x="1924" y="61.948978280815865" rx="4" ry="4" fill="black" />
    <rect width="8" height="73.94915365188149" x="1940" y="38.025423174059256" rx="4" ry="4" fill="black" />
    <rect width="8" height="42.95183949000702" x="1956" y="53.52408025499649" rx="4" ry="4" fill="black" />
    <rect width="8" height="48.17513213972166" x="1972" y="50.91243393013917" rx="4" ry="4" fill="black" />
    <rect width="8" height="106.72486273758375" x="1988" y="21.637568631208126" rx="4" ry="4" fill="black" />
    <rect width="8" height="98.66114341376523" x="2004" y="25.669428293117384" rx="4" ry="4" fill="black" />
    <rect width="8" height="100.69739443311198" x="2020" y="24.65130278344401" rx="4" ry="4" fill="black" />
    <rect width="8" height="124.09693980344287" x="2036" y="12.951530098278567" rx="4" ry="4" fill="black" />
    <rect width="8" height="87.29492197582238" x="2052" y="31.352539012088812" rx="4" ry="4" fill="black" />
    <rect width="8" height="117.57167670167722" x="2068" y="16.21416164916139" rx="4" ry="4" fill="black" />
    <rect width="8" height="110.61292702125503" x="2084" y="19.693536489372484" rx="4" ry="4" fill="black" />
    <rect width="8" height="128.1276266616717" x="2100" y="10.936186669164144" rx="4" ry="4" fill="black" />
    <rect width="8" height="114.19484957099611" x="2116" y="17.902575214501944" rx="4" ry="4" fill="black" />
    <rect width="8" height="98.96867631199372" x="2132" y="25.51566184400314" rx="4" ry="4" fill="black" />
    <rect width="8" height="105.88985925016709" x="2148" y="22.055070374916454" rx="4" ry="4" fill="black" />
    <rect width="8" height="123.38831110421751" x="2164" y="13.305844447891246" rx="4" ry="4" fill="black" />
    <rect width="8" height="94.83133735974657" x="2180" y="27.584331320126715" rx="4" ry="4" fill="black" />
    <rect width="8" height="122.69196918589222" x="2196" y="13.65401540705389" rx="4" ry="4" fill="black" />
    <rect width="8" height="108.60342812638804" x="2212" y="20.69828593680598" rx="4" ry="4" fill="black" />
    <rect width="8" height="102.14007899231383" x="2228" y="23.929960503843084" rx="4" ry="4" fill="black" />
    <rect width="8" height="99.61770017540104" x="2244" y="25.19114991229948" rx="4" ry="4" fill="black" />
    <rect width="8" height="145.56775796903295" x="2260" y="2.216121015483523" rx="4" ry="4" fill="black" />
    <rect width="8" height="97.21416438092986" x="2276" y="26.39291780953507" rx="4" ry="4" fill="black" />
    <rect width="8" height="74.28791708681534" x="2292" y="37.85604145659233" rx="4" ry="4" fill="black" />
    <rect width="8" height="78.95026053102798" x="2308" y="35.52486973448601" rx="4" ry="4" fill="black" />
    <rect width="8" height="106.72308760828453" x="2324" y="21.638456195857735" rx="4" ry="4" fill="black" />
    <rect width="8" height="98.15091685828686" x="2340" y="25.92454157085657" rx="4" ry="4" fill="black" />
    <rect width="8" height="26.292703170108407" x="2356" y="61.853648414945795" rx="4" ry="4" fill="black" />
    <rect width="8" height="8" x="2372" y="71" rx="4" ry="4" fill="black" />
    <rect width="8" height="23.120598706423806" x="2388" y="63.4397006467881" rx="4" ry="4" fill="black" />
  </g>
</svg>