<svg 
  baseProfile="tiny"
  preserveAspectRatio="keep"
  version="1.2"
  viewBox="0 0 2400 150"
  height="100%" width="100%"
  xmlns="http://www.w3.org/2000/svg"
  xmlns:ev="http://www.w3.org/2001/xml-events"
  xmlns:xlink="http://www.w3.org/1999/xlink"
>
  <g>
    <rect width="8" height="78.68313136811457" x="4" y="35.65843431594271" rx="4" ry="4" fill="black" />
    <rect width="8" height="96.73924865999702" x="20" y="26.63037567000149" rx="4" ry="4" fill="black" />
    <rect width="8" height="77.45101798531941" x="36" y="36.274491007340295" rx="4" ry="4" fill="black" />
    <rect width="8" height="73.66496026643392" x="52" y="38.16751986678304" rx="4" ry="4" fill="black" />
    <rect width="8" height="77.08094744721821" x="68" y="36.459526276390896" rx="4" ry="4" fill="black" />
    <rect width="8" height="87.78176111881295" x="84" y="31.109119440593524" rx="4" ry="4" fill="black" />
    <rect width="8" height="88.55018016079612" x="100" y="30.72490991960194" rx="4" ry="4" fill="black" />
    <rect width="8" height="76.22010574551103" x="116" y="36.88994712724448" rx="4" ry="4" fill="black" />
    <rect width="8" height="94.7380608374382" x="132" y="27.6309695812809" rx="4" ry="4" fill="black" />
    <rect width="8" height="82.47435350557303" x="148" y="33.76282324721348" rx="4" ry="4" fill="black" />
    <rect width="8" height="117.34490805193741" x="164" y="16.327545974031295" rx="4" ry="4" fill="black" />
    <rect width="8" height="93.76932074191589" x="180" y="28.115339629042055" rx="4" ry="4" fill="black" />
    <rect width="8" height="93.05486722879014" x="196" y="28.472566385604928" rx="4" ry="4" fill="black" />
    <rect width="8" height="90.41003974281568" x="212" y="29.794980128592158" rx="4" ry="4" fill="black" />
    <rect width="8" height="78.99540118718383" x="228" y="35.502299406408085" rx="4" ry="4" fill="black" />
    <rect width="8" height="86.66649867852836" x="244" y="31.666750660735822" rx="4" ry="4" fill="black" />
    <rect width="8" height="97.70571628258794" x="260" y="26.14714185870603" rx="4" ry="4" fill="black" />
    <rect width="8" height="98.1256185337649" x="276" y="25.937190733117554" rx="4" ry="4" fill="black" />
    <rect width="8" height="91.78287501022865" x="292" y="29.108562494885675" rx="4" ry="4" fill="black" />
    <rect width="8" height="91.8878094229629" x="308" y="29.05609528851855" rx="4" ry="4" fill="black" />
    <rect width="8" height="100.25313045434896" x="324" y="24.87343477282552" rx="4" ry="4" fill="black" />
    <rect width="8" height="111.21618329561306" x="340" y="19.391908352193468" rx="4" ry="4" fill="black" />
    <rect width="8" height="123.76817947997549" x="356" y="13.115910260012257" rx="4" ry="4" fill="black" />
    <rect width="8" height="115.42103131231532" x="372" y="17.28948434384234" rx="4" ry="4" fill="black" />
    <rect width="8" height="109.90294960801444" x="388" y="20.04852519599278" rx="4" ry="4" fill="black" />
    <rect width="8" height="118.33167045814034" x="404" y="15.834164770929831" rx="4" ry="4" fill="black" />
    <rect width="8" height="116.98426389331745" x="420" y="16.507868053341276" rx="4" ry="4" fill="black" />
    <rect width="8" height="106.01481556722473" x="436" y="21.992592216387635" rx="4" ry="4" fill="black" />
    <rect width="8" height="114.13082871772421" x="452" y="17.934585641137893" rx="4" ry="4" fill="black" />
    <rect width="8" height="115.98833467346833" x="468" y="17.005832663265835" rx="4" ry="4" fill="black" />
    <rect width="8" height="109.98730305944639" x="484" y="20.006348470276805" rx="4" ry="4" fill="black" />
    <rect width="8" height="111.9809296894813" x="500" y="19.00953515525935" rx="4" ry="4" fill="black" />
    <rect width="8" height="116.03466175192256" x="516" y="16.982669124038722" rx="4" ry="4" fill="black" />
    <rect width="8" height="107.8492671863066" x="532" y="21.075366406846697" rx="4" ry="4" fill="black" />
    <rect width="8" height="117.46180152034432" x="548" y="16.26909923982784" rx="4" ry="4" fill="black" />
    <rect width="8" height="114.64766758586158" x="564" y="17.67616620706921" rx="4" ry="4" fill="black" />
    <rect width="8" height="122.24138021432982" x="580" y="13.879309892835089" rx="4" ry="4" fill="black" />
    <rect width="8" height="114.33673159217882" x="596" y="17.83163420391059" rx="4" ry="4" fill="black" />
    <rect width="8" height="116.72343444352327" x="612" y="16.638282778238363" rx="4" ry="4" fill="black" />
    <rect width="8" height="122.02591849566859" x="628" y="13.987040752165704" rx="4" ry="4" fill="black" />
    <rect width="8" height="118.78113921743358" x="644" y="15.609430391283212" rx="4" ry="4" fill="black" />
    <rect width="8" height="122.05971089519446" x="660" y="13.970144552402772" rx="4" ry="4" fill="black" />
    <rect width="8" height="119.78904059571565" x="676" y="15.105479702142176" rx="4" ry="4" fill="black" />
    <rect width="8" height="118.03954220889811" x="692" y="15.980228895550944" rx="4" ry="4" fill="black" />
    <rect width="8" height="116.22149445520158" x="708" y="16.88925277239921" rx="4" ry="4" fill="black" />
    <rect width="8" height="121.54038853969999" x="724" y="14.229805730150005" rx="4" ry="4" fill="black" />
    <rect width="8" height="107.45652535257067" x="740" y="21.271737323714667" rx="4" ry="4" fill="black" />
    <rect width="8" height="115.48414522554816" x="756" y="17.25792738722592" rx="4" ry="4" fill="black" />
    <rect width="8" height="116.16746922280178" x="772" y="16.916265388599108" rx="4" ry="4" fill="black" />
    <rect width="8" height="117.85799398195743" x="788" y="16.071003009021283" rx="4" ry="4" fill="black" />
    <rect width="8" height="115.62565482728927" x="804" y="17.187172586355366" rx="4" ry="4" fill="black" />
    <rect width="8" height="116.31406871095746" x="820" y="16.84296564452127" rx="4" ry="4" fill="black" />
    <rect width="8" height="120.62761306438905" x="836" y="14.686193467805474" rx="4" ry="4" fill="black" />
    <rect width="8" height="134.04134978931074" x="852" y="7.979325105344628" rx="4" ry="4" fill="black" />
    <rect width="8" height="140.64417507268152" x="868" y="4.67791246365924" rx="4" ry="4" fill="black" />
    <rect width="8" height="98.57743485855356" x="884" y="25.71128257072322" rx="4" ry="4" fill="black" />
    <rect width="8" height="107.31002123057198" x="900" y="21.34498938471401" rx="4" ry="4" fill="black" />
    <rect width="8" height="104.7712138180578" x="916" y="22.6143930909711" rx="4" ry="4" fill="black" />
    <rect width="8" height="118.37114273454438" x="932" y="15.814428632727811" rx="4" ry="4" fill="black" />
    <rect width="8" height="108.3744586526877" x="948" y="20.812770673656154" rx="4" ry="4" fill="black" />
    <rect width="8" height="109.68686301671437" x="964" y="20.156568491642815" rx="4" ry="4" fill="black" />
    <rect width="8" height="111.61738817547553" x="980" y="19.191305912262237" rx="4" ry="4" fill="black" />
    <rect width="8" height="122.0828213274587" x="996" y="13.958589336270649" rx="4" ry="4" fill="black" />
    <rect width="8" height="123.62215756230327" x="1012" y="13.188921218848364" rx="4" ry="4" fill="black" />
    <rect width="8" height="106.76453911945931" x="1028" y="21.617730440270343" rx="4" ry="4" fill="black" />
    <rect width="8" height="105.62485200143897" x="1044" y="22.187573999280517" rx="4" ry="4" fill="black" />
    <rect width="8" height="112.94079088863087" x="1060" y="18.529604555684564" rx="4" ry="4" fill="black" />
    <rect width="8" height="111.94252130669022" x="1076" y="19.028739346654888" rx="4" ry="4" fill="black" />
    <rect width="8" height="113.44853244206557" x="1092" y="18.275733778967215" rx="4" ry="4" fill="black" />
    <rect width="8" height="119.85840244205504" x="1108" y="15.070798778972481" rx="4" ry="4" fill="black" />
    <rect width="8" height="110.85755288963541" x="1124" y="19.571223555182293" rx="4" ry="4" fill="black" />
    <rect width="8" height="114.70369330515288" x="1140" y="17.64815334742356" rx="4" ry="4" fill="black" />
    <rect width="8" height="126.75381728409575" x="1156" y="11.623091357952127" rx="4" ry="4" fill="black" />
    <rect width="8" height="93.44343473901684" x="1172" y="28.27828263049158" rx="4" ry="4" fill="black" />
    <rect width="8" height="102.71853468736633" x="1188" y="23.640732656316835" rx="4" ry="4" fill="black" />
    <rect width="8" height="83.14245496565285" x="1204" y="33.42877251717358" rx="4" ry="4" fill="black" />
    <rect width="8" height="82.88303425650751" x="1220" y="33.55848287174624" rx="4" ry="4" fill="black" />
    <rect width="8" height="132.06312996438507" x="1236" y="8.968435017807465" rx="4" ry="4" fill="black" />
    <rect width="8" height="128.27814942008163" x="1252" y="10.860925289959184" rx="4" ry="4" fill="black" />
    <rect width="8" height="110.99582467643982" x="1268" y="19.502087661780088" rx="4" ry="4" fill="black" />
    <rect width="8" height="118.16564305781442" x="1284" y="15.91717847109279" rx="4" ry="4" fill="black" />
    <rect width="8" height="116.98154526620164" x="1300" y="16.509227366899182" rx="4" ry="4" fill="black" />
    <rect width="8" height="120.58367490761646" x="1316" y="14.708162546191772" rx="4" ry="4" fill="black" />
    <rect width="8" height="120.4062660714736" x="1332" y="14.796866964263202" rx="4" ry="4" fill="black" />
    <rect width="8" height="113.21138715199679" x="1348" y="18.394306424001606" rx="4" ry="4" fill="black" />
    <rect width="8" height="123.81313888150804" x="1364" y="13.09343055924598" rx="4" ry="4" fill="black" />
    <rect width="8" height="126.91788963150515" x="1380" y="11.541055184247426" rx="4" ry="4" fill="black" />
    <rect width="8" height="118.06260627440034" x="1396" y="15.968696862799831" rx="4" ry="4" fill="black" />
    <rect width="8" height="120.04887087823045" x="1412" y="14.975564560884777" rx="4" ry="4" fill="black" />
    <rect width="8" height="119.02066962069273" x="1428" y="15.489665189653635" rx="4" ry="4" fill="black" />
    <rect width="8" height="122.92348489634031" x="1444" y="13.538257551829844" rx="4" ry="4" fill="black" />
    <rect width="8" height="132.990424294386" x="1460" y="8.504787852806999" rx="4" ry="4" fill="black" />
    <rect width="8" height="138.33800027878033" x="1476" y="5.830999860609836" rx="4" ry="4" fill="black" />
    <rect width="8" height="132.5883182696246" x="1492" y="8.705840865187696" rx="4" ry="4" fill="black" />
    <rect width="8" height="139.01175832787825" x="1508" y="5.494120836060873" rx="4" ry="4" fill="black" />
    <rect width="8" height="122.9514649663265" x="1524" y="13.524267516836751" rx="4" ry="4" fill="black" />
    <rect width="8" height="150" x="1540" y="0" rx="4" ry="4" fill="black" />
    <rect width="8" height="138.1212917393288" x="1556" y="5.939354130335602" rx="4" ry="4" fill="black" />
    <rect width="8" height="133.41410883692487" x="1572" y="8.292945581537566" rx="4" ry="4" fill="black" />
    <rect width="8" height="135.6086801001492" x="1588" y="7.1956599499254" rx="4" ry="4" fill="black" />
    <rect width="8" height="139.91446303561548" x="1604" y="5.042768482192258" rx="4" ry="4" fill="black" />
    <rect width="8" height="136.11361875898578" x="1620" y="6.94319062050711" rx="4" ry="4" fill="black" />
    <rect width="8" height="138.79646536553048" x="1636" y="5.60176731723476" rx="4" ry="4" fill="black" />
    <rect width="8" height="135.78619452843935" x="1652" y="7.106902735780324" rx="4" ry="4" fill="black" />
    <rect width="8" height="140.43267672272174" x="1668" y="4.783661638639131" rx="4" ry="4" fill="black" />
    <rect width="8" height="139.44754991481088" x="1684" y="5.276225042594561" rx="4" ry="4" fill="black" />
    <rect width="8" height="137.46394313878136" x="1700" y="6.26802843060932" rx="4" ry="4" fill="black" />
    <rect width="8" height="127.3126452481622" x="1716" y="11.343677375918901" rx="4" ry="4" fill="black" />
    <rect width="8" height="126.79494011894975" x="1732" y="11.602529940525123" rx="4" ry="4" fill="black" />
    <rect width="8" height="134.36870673955113" x="1748" y="7.815646630224435" rx="4" ry="4" fill="black" />
    <rect width="8" height="131.49936487922216" x="1764" y="9.250317560388922" rx="4" ry="4" fill="black" />
    <rect width="8" height="131.00768515290392" x="1780" y="9.496157423548041" rx="4" ry="4" fill="black" />
    <rect width="8" height="128.77410813477422" x="1796" y="10.612945932612888" rx="4" ry="4" fill="black" />
    <rect width="8" height="123.31880258810133" x="1812" y="13.340598705949333" rx="4" ry="4" fill="black" />
    <rect width="8" height="129.15236111475525" x="1828" y="10.423819442622374" rx="4" ry="4" fill="black" />
    <rect width="8" height="125.58795540943255" x="1844" y="12.206022295283724" rx="4" ry="4" fill="black" />
    <rect width="8" height="127.77049877070712" x="1860" y="11.11475061464644" rx="4" ry="4" fill="black" />
    <rect width="8" height="123.90119666089653" x="1876" y="13.049401669551735" rx="4" ry="4" fill="black" />
    <rect width="8" height="117.3028364538204" x="1892" y="16.348581773089798" rx="4" ry="4" fill="black" />
    <rect width="8" height="136.73902943874478" x="1908" y="6.63048528062761" rx="4" ry="4" fill="black" />
    <rect width="8" height="118.7071228764044" x="1924" y="15.646438561797801" rx="4" ry="4" fill="black" />
    <rect width="8" height="124.5885463854638" x="1940" y="12.7057268072681" rx="4" ry="4" fill="black" />
    <rect width="8" height="139.81617142770406" x="1956" y="5.0919142861479685" rx="4" ry="4" fill="black" />
    <rect width="8" height="129.14146109755632" x="1972" y="10.429269451221842" rx="4" ry="4" fill="black" />
    <rect width="8" height="139.35594921674289" x="1988" y="5.322025391628557" rx="4" ry="4" fill="black" />
    <rect width="8" height="136.34031725389121" x="2004" y="6.829841373054393" rx="4" ry="4" fill="black" />
    <rect width="8" height="134.96529261720758" x="2020" y="7.51735369139621" rx="4" ry="4" fill="black" />
    <rect width="8" height="133.78701853592833" x="2036" y="8.106490732035837" rx="4" ry="4" fill="black" />
    <rect width="8" height="134.2270997933065" x="2052" y="7.886450103346746" rx="4" ry="4" fill="black" />
    <rect width="8" height="142.67804466803406" x="2068" y="3.660977665982969" rx="4" ry="4" fill="black" />
    <rect width="8" height="122.43357465637115" x="2084" y="13.783212671814425" rx="4" ry="4" fill="black" />
    <rect width="8" height="122.33493728178085" x="2100" y="13.832531359109574" rx="4" ry="4" fill="black" />
    <rect width="8" height="131.2259432201357" x="2116" y="9.387028389932155" rx="4" ry="4" fill="black" />
    <rect width="8" height="140.53529380366277" x="2132" y="4.732353098168616" rx="4" ry="4" fill="black" />
    <rect width="8" height="121.16648366318357" x="2148" y="14.416758168408215" rx="4" ry="4" fill="black" />
    <rect width="8" height="116.50669344114716" x="2164" y="16.74665327942642" rx="4" ry="4" fill="black" />
    <rect width="8" height="98.37021742380851" x="2180" y="25.814891288095744" rx="4" ry="4" fill="black" />
    <rect width="8" height="85.76903722007036" x="2196" y="32.11548138996482" rx="4" ry="4" fill="black" />
    <rect width="8" height="112.94024312220266" x="2212" y="18.52987843889867" rx="4" ry="4" fill="black" />
    <rect width="8" height="100.69929207263158" x="2228" y="24.65035396368421" rx="4" ry="4" fill="black" />
    <rect width="8" height="107.76913138980821" x="2244" y="21.115434305095896" rx="4" ry="4" fill="black" />
    <rect width="8" height="92.58229942912365" x="2260" y="28.708850285438174" rx="4" ry="4" fill="black" />
    <rect width="8" height="117.37436533299393" x="2276" y="16.312817333503034" rx="4" ry="4" fill="black" />
    <rect width="8" height="99.16463692652302" x="2292" y="25.417681536738492" rx="4" ry="4" fill="black" />
    <rect width="8" height="90.77440795743985" x="2308" y="29.612796021280076" rx="4" ry="4" fill="black" />
    <rect width="8" height="90.50681506868766" x="2324" y="29.74659246565617" rx="4" ry="4" fill="black" />
    <rect width="8" height="91.208890987956" x="2340" y="29.395554506022002" rx="4" ry="4" fill="black" />
    <rect width="8" height="91.41046488235236" x="2356" y="29.29476755882382" rx="4" ry="4" fill="black" />
    <rect width="8" height="70.48734401230779" x="2372" y="39.75632799384611" rx="4" ry="4" fill="black" />
    <rect width="8" height="8" x="2388" y="71" rx="4" ry="4" fill="black" />
  </g>
</svg>