<svg 
  baseProfile="tiny"
  preserveAspectRatio="keep"
  version="1.2"
  viewBox="0 0 2400 150"
  height="100%" width="100%"
  xmlns="http://www.w3.org/2000/svg"
  xmlns:ev="http://www.w3.org/2001/xml-events"
  xmlns:xlink="http://www.w3.org/1999/xlink"
>
  <g>
    <rect width="8" height="56.46037404889157" x="4" y="46.76981297555422" rx="4" ry="4" fill="black" />
    <rect width="8" height="53.15656462777509" x="20" y="48.42171768611246" rx="4" ry="4" fill="black" />
    <rect width="8" height="141.8831017140786" x="36" y="4.058449142960697" rx="4" ry="4" fill="black" />
    <rect width="8" height="91.07583823618057" x="52" y="29.462080881909714" rx="4" ry="4" fill="black" />
    <rect width="8" height="8" x="68" y="71" rx="4" ry="4" fill="black" />
    <rect width="8" height="73.32303967525179" x="84" y="38.338480162374104" rx="4" ry="4" fill="black" />
    <rect width="8" height="60.90779022420557" x="100" y="44.546104887897215" rx="4" ry="4" fill="black" />
    <rect width="8" height="104.11065151870254" x="116" y="22.94467424064873" rx="4" ry="4" fill="black" />
    <rect width="8" height="8" x="132" y="71" rx="4" ry="4" fill="black" />
    <rect width="8" height="60.26468617387392" x="148" y="44.867656913063044" rx="4" ry="4" fill="black" />
    <rect width="8" height="65.81126256275637" x="164" y="42.094368718621816" rx="4" ry="4" fill="black" />
    <rect width="8" height="73.33549506503113" x="180" y="38.33225246748444" rx="4" ry="4" fill="black" />
    <rect width="8" height="100.69289656037486" x="196" y="24.65355171981257" rx="4" ry="4" fill="black" />
    <rect width="8" height="8" x="212" y="71" rx="4" ry="4" fill="black" />
    <rect width="8" height="82.1597672328014" x="228" y="33.9201163835993" rx="4" ry="4" fill="black" />
    <rect width="8" height="58.876150848765334" x="244" y="45.56192457561733" rx="4" ry="4" fill="black" />
    <rect width="8" height="129.7870217129941" x="260" y="10.106489143502955" rx="4" ry="4" fill="black" />
    <rect width="8" height="24.786932004167177" x="276" y="62.606533997916415" rx="4" ry="4" fill="black" />
    <rect width="8" height="33.98624881104413" x="292" y="58.00687559447793" rx="4" ry="4" fill="black" />
    <rect width="8" height="90.46044389378889" x="308" y="29.769778053105554" rx="4" ry="4" fill="black" />
    <rect width="8" height="73.14191687590628" x="324" y="38.42904156204686" rx="4" ry="4" fill="black" />
    <rect width="8" height="95.10430706313535" x="340" y="27.447846468432324" rx="4" ry="4" fill="black" />
    <rect width="8" height="8" x="356" y="71" rx="4" ry="4" fill="black" />
    <rect width="8" height="67.66641257658576" x="372" y="41.16679371170712" rx="4" ry="4" fill="black" />
    <rect width="8" height="73.01899666911501" x="388" y="38.490501665442494" rx="4" ry="4" fill="black" />
    <rect width="8" height="83.60184527496986" x="404" y="33.19907736251507" rx="4" ry="4" fill="black" />
    <rect width="8" height="100.45102196031766" x="420" y="24.77448901984117" rx="4" ry="4" fill="black" />
    <rect width="8" height="35.40229239413964" x="436" y="57.29885380293018" rx="4" ry="4" fill="black" />
    <rect width="8" height="84.03658041460808" x="452" y="32.98170979269596" rx="4" ry="4" fill="black" />
    <rect width="8" height="64.12472809880911" x="468" y="42.93763595059544" rx="4" ry="4" fill="black" />
    <rect width="8" height="115.71865700895887" x="484" y="17.140671495520564" rx="4" ry="4" fill="black" />
    <rect width="8" height="37.138250362169046" x="500" y="56.43087481891548" rx="4" ry="4" fill="black" />
    <rect width="8" height="8" x="516" y="71" rx="4" ry="4" fill="black" />
    <rect width="8" height="92.27606622584308" x="532" y="28.86196688707846" rx="4" ry="4" fill="black" />
    <rect width="8" height="71.2133022363731" x="548" y="39.39334888181345" rx="4" ry="4" fill="black" />
    <rect width="8" height="18.30068963040545" x="564" y="65.84965518479727" rx="4" ry="4" fill="black" />
    <rect width="8" height="8" x="580" y="71" rx="4" ry="4" fill="black" />
    <rect width="8" height="43.77894530889363" x="596" y="53.11052734555318" rx="4" ry="4" fill="black" />
    <rect width="8" height="107.46580105275834" x="612" y="21.26709947362083" rx="4" ry="4" fill="black" />
    <rect width="8" height="86.89979193509495" x="628" y="31.550104032452523" rx="4" ry="4" fill="black" />
    <rect width="8" height="47.868763816124115" x="644" y="51.06561809193794" rx="4" ry="4" fill="black" />
    <rect width="8" height="38.657862758777455" x="660" y="55.67106862061127" rx="4" ry="4" fill="black" />
    <rect width="8" height="89.93902538908407" x="676" y="30.030487305457967" rx="4" ry="4" fill="black" />
    <rect width="8" height="83.21356926075475" x="692" y="33.393215369622624" rx="4" ry="4" fill="black" />
    <rect width="8" height="8" x="708" y="71" rx="4" ry="4" fill="black" />
    <rect width="8" height="108.60026007619582" x="724" y="20.69986996190209" rx="4" ry="4" fill="black" />
    <rect width="8" height="52.43100007049826" x="740" y="48.78449996475087" rx="4" ry="4" fill="black" />
    <rect width="8" height="95.76676414956839" x="756" y="27.116617925215806" rx="4" ry="4" fill="black" />
    <rect width="8" height="94.21059022768652" x="772" y="27.894704886156738" rx="4" ry="4" fill="black" />
    <rect width="8" height="60.06289817757737" x="788" y="44.96855091121132" rx="4" ry="4" fill="black" />
    <rect width="8" height="30.357664181707513" x="804" y="59.82116790914624" rx="4" ry="4" fill="black" />
    <rect width="8" height="60.44123356674041" x="820" y="44.779383216629796" rx="4" ry="4" fill="black" />
    <rect width="8" height="149.0141884423053" x="836" y="0.4929057788473443" rx="4" ry="4" fill="black" />
    <rect width="8" height="92.82719972171085" x="852" y="28.586400139144573" rx="4" ry="4" fill="black" />
    <rect width="8" height="39.12394168689771" x="868" y="55.438029156551146" rx="4" ry="4" fill="black" />
    <rect width="8" height="50.08778429900024" x="884" y="49.956107850499876" rx="4" ry="4" fill="black" />
    <rect width="8" height="113.4668526424262" x="900" y="18.266573678786898" rx="4" ry="4" fill="black" />
    <rect width="8" height="76.3252741087271" x="916" y="36.83736294563645" rx="4" ry="4" fill="black" />
    <rect width="8" height="8" x="932" y="71" rx="4" ry="4" fill="black" />
    <rect width="8" height="41.036347806206436" x="948" y="54.48182609689678" rx="4" ry="4" fill="black" />
    <rect width="8" height="51.34391688923825" x="964" y="49.32804155538088" rx="4" ry="4" fill="black" />
    <rect width="8" height="92.55846537437219" x="980" y="28.720767312813905" rx="4" ry="4" fill="black" />
    <rect width="8" height="83.64420061477936" x="996" y="33.17789969261032" rx="4" ry="4" fill="black" />
    <rect width="8" height="114.00562925908454" x="1012" y="17.99718537045773" rx="4" ry="4" fill="black" />
    <rect width="8" height="59.04257620889638" x="1028" y="45.47871189555181" rx="4" ry="4" fill="black" />
    <rect width="8" height="66.64091795935967" x="1044" y="41.679541020320166" rx="4" ry="4" fill="black" />
    <rect width="8" height="104.89347449928013" x="1060" y="22.553262750359934" rx="4" ry="4" fill="black" />
    <rect width="8" height="8" x="1076" y="71" rx="4" ry="4" fill="black" />
    <rect width="8" height="94.11409018502468" x="1092" y="27.94295490748766" rx="4" ry="4" fill="black" />
    <rect width="8" height="87.10844254776701" x="1108" y="31.445778726116494" rx="4" ry="4" fill="black" />
    <rect width="8" height="87.07286760500382" x="1124" y="31.46356619749809" rx="4" ry="4" fill="black" />
    <rect width="8" height="91.35280791271772" x="1140" y="29.32359604364114" rx="4" ry="4" fill="black" />
    <rect width="8" height="8" x="1156" y="71" rx="4" ry="4" fill="black" />
    <rect width="8" height="68.10689375189699" x="1172" y="40.946553124051505" rx="4" ry="4" fill="black" />
    <rect width="8" height="82.55705290316345" x="1188" y="33.721473548418274" rx="4" ry="4" fill="black" />
    <rect width="8" height="138.34748284643064" x="1204" y="5.8262585767846815" rx="4" ry="4" fill="black" />
    <rect width="8" height="25.047609952148143" x="1220" y="62.476195023925925" rx="4" ry="4" fill="black" />
    <rect width="8" height="104.52114772562163" x="1236" y="22.739426137189184" rx="4" ry="4" fill="black" />
    <rect width="8" height="77.24929257817989" x="1252" y="36.375353710910055" rx="4" ry="4" fill="black" />
    <rect width="8" height="70.2611206023138" x="1268" y="39.8694396988431" rx="4" ry="4" fill="black" />
    <rect width="8" height="110.76560308999575" x="1284" y="19.617198455002125" rx="4" ry="4" fill="black" />
    <rect width="8" height="21.40766395231275" x="1300" y="64.29616802384362" rx="4" ry="4" fill="black" />
    <rect width="8" height="78.48878653816985" x="1316" y="35.755606730915076" rx="4" ry="4" fill="black" />
    <rect width="8" height="72.72084977194201" x="1332" y="38.63957511402899" rx="4" ry="4" fill="black" />
    <rect width="8" height="108.2939457415663" x="1348" y="20.853027129216848" rx="4" ry="4" fill="black" />
    <rect width="8" height="22.46867820659832" x="1364" y="63.76566089670084" rx="4" ry="4" fill="black" />
    <rect width="8" height="24.244418486990583" x="1380" y="62.87779075650471" rx="4" ry="4" fill="black" />
    <rect width="8" height="95.34867628199473" x="1396" y="27.325661859002636" rx="4" ry="4" fill="black" />
    <rect width="8" height="99.20359422971079" x="1412" y="25.398202885144606" rx="4" ry="4" fill="black" />
    <rect width="8" height="140.46190614841942" x="1428" y="4.769046925790292" rx="4" ry="4" fill="black" />
    <rect width="8" height="17.424432334685015" x="1444" y="66.2877838326575" rx="4" ry="4" fill="black" />
    <rect width="8" height="93.06481443618061" x="1460" y="28.467592781909694" rx="4" ry="4" fill="black" />
    <rect width="8" height="75.1395776474481" x="1476" y="37.43021117627595" rx="4" ry="4" fill="black" />
    <rect width="8" height="107.43359959140184" x="1492" y="21.283200204299078" rx="4" ry="4" fill="black" />
    <rect width="8" height="18.469214147563306" x="1508" y="65.76539292621834" rx="4" ry="4" fill="black" />
    <rect width="8" height="56.882156781205246" x="1524" y="46.55892160939737" rx="4" ry="4" fill="black" />
    <rect width="8" height="82.76120980353745" x="1540" y="33.61939509823127" rx="4" ry="4" fill="black" />
    <rect width="8" height="64.61927438599939" x="1556" y="42.690362807000305" rx="4" ry="4" fill="black" />
    <rect width="8" height="114.35000658568619" x="1572" y="17.824996707156906" rx="4" ry="4" fill="black" />
    <rect width="8" height="26.91949278631586" x="1588" y="61.54025360684207" rx="4" ry="4" fill="black" />
    <rect width="8" height="40.54256891448041" x="1604" y="54.728715542759794" rx="4" ry="4" fill="black" />
    <rect width="8" height="83.33175995678536" x="1620" y="33.33412002160732" rx="4" ry="4" fill="black" />
    <rect width="8" height="90.6502728755039" x="1636" y="29.67486356224805" rx="4" ry="4" fill="black" />
    <rect width="8" height="150" x="1652" y="0" rx="4" ry="4" fill="black" />
    <rect width="8" height="50.94456152183937" x="1668" y="49.52771923908031" rx="4" ry="4" fill="black" />
    <rect width="8" height="68.3408348440959" x="1684" y="40.82958257795205" rx="4" ry="4" fill="black" />
    <rect width="8" height="55.106209561702" x="1700" y="47.446895219149" rx="4" ry="4" fill="black" />
    <rect width="8" height="102.7333355755391" x="1716" y="23.63333221223045" rx="4" ry="4" fill="black" />
    <rect width="8" height="53.132939592402955" x="1732" y="48.433530203798526" rx="4" ry="4" fill="black" />
    <rect width="8" height="25.14266426265621" x="1748" y="62.428667868671894" rx="4" ry="4" fill="black" />
    <rect width="8" height="140.59126896359024" x="1764" y="4.704365518204881" rx="4" ry="4" fill="black" />
    <rect width="8" height="99.87236001548426" x="1780" y="25.06381999225787" rx="4" ry="4" fill="black" />
    <rect width="8" height="105.84687171139986" x="1796" y="22.07656414430007" rx="4" ry="4" fill="black" />
    <rect width="8" height="16.565508689804346" x="1812" y="66.71724565509783" rx="4" ry="4" fill="black" />
    <rect width="8" height="62.70131741789312" x="1828" y="43.64934129105344" rx="4" ry="4" fill="black" />
    <rect width="8" height="101.37630084157125" x="1844" y="24.311849579214375" rx="4" ry="4" fill="black" />
    <rect width="8" height="128.38971317989962" x="1860" y="10.805143410050192" rx="4" ry="4" fill="black" />
    <rect width="8" height="64.41884254038352" x="1876" y="42.79057872980824" rx="4" ry="4" fill="black" />
    <rect width="8" height="39.8856708189178" x="1892" y="55.0571645905411" rx="4" ry="4" fill="black" />
    <rect width="8" height="70.38617184758299" x="1908" y="39.80691407620851" rx="4" ry="4" fill="black" />
    <rect width="8" height="92.25476588692268" x="1924" y="28.872617056538658" rx="4" ry="4" fill="black" />
    <rect width="8" height="130.23658897042134" x="1940" y="9.881705514789331" rx="4" ry="4" fill="black" />
    <rect width="8" height="46.02237112012869" x="1956" y="51.98881443993565" rx="4" ry="4" fill="black" />
    <rect width="8" height="136.48311797806704" x="1972" y="6.758441010966479" rx="4" ry="4" fill="black" />
    <rect width="8" height="81.51145943683001" x="1988" y="34.244270281584996" rx="4" ry="4" fill="black" />
    <rect width="8" height="88.26547872715078" x="2004" y="30.86726063642461" rx="4" ry="4" fill="black" />
    <rect width="8" height="8" x="2020" y="71" rx="4" ry="4" fill="black" />
    <rect width="8" height="8" x="2036" y="71" rx="4" ry="4" fill="black" />
    <rect width="8" height="68.52098890795037" x="2052" y="40.739505546024816" rx="4" ry="4" fill="black" />
    <rect width="8" height="117.00832762289959" x="2068" y="16.495836188550207" rx="4" ry="4" fill="black" />
    <rect width="8" height="113.69947619915482" x="2084" y="18.150261900422592" rx="4" ry="4" fill="black" />
    <rect width="8" height="137.3389760204902" x="2100" y="6.330511989754896" rx="4" ry="4" fill="black" />
    <rect width="8" height="55.52969309060524" x="2116" y="47.23515345469738" rx="4" ry="4" fill="black" />
    <rect width="8" height="88.37904485606643" x="2132" y="30.810477571966786" rx="4" ry="4" fill="black" />
    <rect width="8" height="110.51205885889401" x="2148" y="19.743970570552996" rx="4" ry="4" fill="black" />
    <rect width="8" height="18.418302630011247" x="2164" y="65.79084868499437" rx="4" ry="4" fill="black" />
    <rect width="8" height="128.38342900319236" x="2180" y="10.80828549840382" rx="4" ry="4" fill="black" />
    <rect width="8" height="63.790955957363245" x="2196" y="43.104522021318374" rx="4" ry="4" fill="black" />
    <rect width="8" height="105.7062683326366" x="2212" y="22.1468658336817" rx="4" ry="4" fill="black" />
    <rect width="8" height="99.49493115950986" x="2228" y="25.25253442024507" rx="4" ry="4" fill="black" />
    <rect width="8" height="51.03356668415178" x="2244" y="49.48321665792411" rx="4" ry="4" fill="black" />
    <rect width="8" height="72.43679942801116" x="2260" y="38.78160028599442" rx="4" ry="4" fill="black" />
    <rect width="8" height="93.06501091455556" x="2276" y="28.46749454272222" rx="4" ry="4" fill="black" />
    <rect width="8" height="122.83939644229733" x="2292" y="13.580301778851336" rx="4" ry="4" fill="black" />
    <rect width="8" height="21.211445360270766" x="2308" y="64.39427731986461" rx="4" ry="4" fill="black" />
    <rect width="8" height="108.70826832297283" x="2324" y="20.645865838513586" rx="4" ry="4" fill="black" />
    <rect width="8" height="49.882503559935095" x="2340" y="50.058748220032456" rx="4" ry="4" fill="black" />
    <rect width="8" height="52.59001606164134" x="2356" y="48.70499196917933" rx="4" ry="4" fill="black" />
    <rect width="8" height="106.23583409994046" x="2372" y="21.88208295002977" rx="4" ry="4" fill="black" />
    <rect width="8" height="37.170864534757655" x="2388" y="56.41456773262117" rx="4" ry="4" fill="black" />
  </g>
</svg>