<svg 
  baseProfile="tiny"
  preserveAspectRatio="keep"
  version="1.2"
  viewBox="0 0 2400 150"
  height="100%" width="100%"
  xmlns="http://www.w3.org/2000/svg"
  xmlns:ev="http://www.w3.org/2001/xml-events"
  xmlns:xlink="http://www.w3.org/1999/xlink"
>
  <g>
    <rect width="8" height="107.25279869254571" x="4" y="21.373600653727145" rx="4" ry="4" fill="black" />
    <rect width="8" height="116.55921930082626" x="20" y="16.72039034958687" rx="4" ry="4" fill="black" />
    <rect width="8" height="99.15285350275063" x="36" y="25.423573248624685" rx="4" ry="4" fill="black" />
    <rect width="8" height="96.41225113761377" x="52" y="26.793874431193117" rx="4" ry="4" fill="black" />
    <rect width="8" height="95.52179881283493" x="68" y="27.239100593582535" rx="4" ry="4" fill="black" />
    <rect width="8" height="71.19289466431799" x="84" y="39.403552667841005" rx="4" ry="4" fill="black" />
    <rect width="8" height="65.88865663527751" x="100" y="42.05567168236124" rx="4" ry="4" fill="black" />
    <rect width="8" height="67.78136254720167" x="116" y="41.10931872639917" rx="4" ry="4" fill="black" />
    <rect width="8" height="99.22517561404554" x="132" y="25.38741219297723" rx="4" ry="4" fill="black" />
    <rect width="8" height="100.27935481218654" x="148" y="24.86032259390673" rx="4" ry="4" fill="black" />
    <rect width="8" height="94.89947267334499" x="164" y="27.550263663327506" rx="4" ry="4" fill="black" />
    <rect width="8" height="115.63629862987439" x="180" y="17.181850685062805" rx="4" ry="4" fill="black" />
    <rect width="8" height="104.86583055810553" x="196" y="22.567084720947236" rx="4" ry="4" fill="black" />
    <rect width="8" height="76.36485732427593" x="212" y="36.817571337862034" rx="4" ry="4" fill="black" />
    <rect width="8" height="66.34014053890377" x="228" y="41.829929730548116" rx="4" ry="4" fill="black" />
    <rect width="8" height="84.73428093034241" x="244" y="32.632859534828796" rx="4" ry="4" fill="black" />
    <rect width="8" height="102.08912315268286" x="260" y="23.95543842365857" rx="4" ry="4" fill="black" />
    <rect width="8" height="97.81109656554078" x="276" y="26.09445171722961" rx="4" ry="4" fill="black" />
    <rect width="8" height="106.52811082968367" x="292" y="21.735944585158165" rx="4" ry="4" fill="black" />
    <rect width="8" height="110.1240626204854" x="308" y="19.937968689757298" rx="4" ry="4" fill="black" />
    <rect width="8" height="105.12101921411923" x="324" y="22.439490392940385" rx="4" ry="4" fill="black" />
    <rect width="8" height="75.10102536135916" x="340" y="37.44948731932042" rx="4" ry="4" fill="black" />
    <rect width="8" height="55.02969466724829" x="356" y="47.48515266637585" rx="4" ry="4" fill="black" />
    <rect width="8" height="56.60590449805309" x="372" y="46.697047750973454" rx="4" ry="4" fill="black" />
    <rect width="8" height="38.24923378394837" x="388" y="55.875383108025815" rx="4" ry="4" fill="black" />
    <rect width="8" height="42.22553233923773" x="404" y="53.887233830381135" rx="4" ry="4" fill="black" />
    <rect width="8" height="23.133009670651308" x="420" y="63.43349516467435" rx="4" ry="4" fill="black" />
    <rect width="8" height="21.023215142118957" x="436" y="64.48839242894053" rx="4" ry="4" fill="black" />
    <rect width="8" height="45.909460169350915" x="452" y="52.04526991532454" rx="4" ry="4" fill="black" />
    <rect width="8" height="50.75230800144913" x="468" y="49.62384599927543" rx="4" ry="4" fill="black" />
    <rect width="8" height="56.20510779258217" x="484" y="46.897446103708916" rx="4" ry="4" fill="black" />
    <rect width="8" height="62.41022238927766" x="500" y="43.79488880536117" rx="4" ry="4" fill="black" />
    <rect width="8" height="44.44438532502144" x="516" y="52.77780733748928" rx="4" ry="4" fill="black" />
    <rect width="8" height="116.79951432795008" x="532" y="16.60024283602496" rx="4" ry="4" fill="black" />
    <rect width="8" height="117.65896583728119" x="548" y="16.170517081359407" rx="4" ry="4" fill="black" />
    <rect width="8" height="117.30759831295262" x="564" y="16.34620084352369" rx="4" ry="4" fill="black" />
    <rect width="8" height="118.10517081774358" x="580" y="15.947414591128208" rx="4" ry="4" fill="black" />
    <rect width="8" height="124.49835970120047" x="596" y="12.750820149399765" rx="4" ry="4" fill="black" />
    <rect width="8" height="126.00837693176129" x="612" y="11.995811534119355" rx="4" ry="4" fill="black" />
    <rect width="8" height="103.44148552180938" x="628" y="23.27925723909531" rx="4" ry="4" fill="black" />
    <rect width="8" height="104.52910129613564" x="644" y="22.735449351932182" rx="4" ry="4" fill="black" />
    <rect width="8" height="115.81920854406503" x="660" y="17.090395727967483" rx="4" ry="4" fill="black" />
    <rect width="8" height="111.90663611661674" x="676" y="19.04668194169163" rx="4" ry="4" fill="black" />
    <rect width="8" height="133.27616406940808" x="692" y="8.361917965295959" rx="4" ry="4" fill="black" />
    <rect width="8" height="111.27318249352146" x="708" y="19.36340875323927" rx="4" ry="4" fill="black" />
    <rect width="8" height="114.18174082913046" x="724" y="17.90912958543477" rx="4" ry="4" fill="black" />
    <rect width="8" height="110.99839690769907" x="740" y="19.500801546150463" rx="4" ry="4" fill="black" />
    <rect width="8" height="115.99181704092003" x="756" y="17.004091479539987" rx="4" ry="4" fill="black" />
    <rect width="8" height="95.97156434239834" x="772" y="27.01421782880083" rx="4" ry="4" fill="black" />
    <rect width="8" height="105.67796993967755" x="788" y="22.161015030161224" rx="4" ry="4" fill="black" />
    <rect width="8" height="117.32394018091308" x="804" y="16.338029909543458" rx="4" ry="4" fill="black" />
    <rect width="8" height="127.09434629016025" x="820" y="11.452826854919877" rx="4" ry="4" fill="black" />
    <rect width="8" height="69.75564446833312" x="836" y="40.12217776583344" rx="4" ry="4" fill="black" />
    <rect width="8" height="51.362923147838806" x="852" y="49.31853842608059" rx="4" ry="4" fill="black" />
    <rect width="8" height="56.52026876619671" x="868" y="46.739865616901646" rx="4" ry="4" fill="black" />
    <rect width="8" height="65.26933203762758" x="884" y="42.36533398118621" rx="4" ry="4" fill="black" />
    <rect width="8" height="52.83214016826429" x="900" y="48.583929915867856" rx="4" ry="4" fill="black" />
    <rect width="8" height="55.14402881268978" x="916" y="47.42798559365511" rx="4" ry="4" fill="black" />
    <rect width="8" height="50.42486352122579" x="932" y="49.787568239387106" rx="4" ry="4" fill="black" />
    <rect width="8" height="39.270151105214154" x="948" y="55.36492444739292" rx="4" ry="4" fill="black" />
    <rect width="8" height="42.56698324154474" x="964" y="53.71650837922763" rx="4" ry="4" fill="black" />
    <rect width="8" height="48.27288952562081" x="980" y="50.863555237189594" rx="4" ry="4" fill="black" />
    <rect width="8" height="47.975711039001105" x="996" y="51.012144480499444" rx="4" ry="4" fill="black" />
    <rect width="8" height="60.01938433419451" x="1012" y="44.990307832902744" rx="4" ry="4" fill="black" />
    <rect width="8" height="64.24696732832342" x="1028" y="42.87651633583829" rx="4" ry="4" fill="black" />
    <rect width="8" height="96.24188049437005" x="1044" y="26.879059752814975" rx="4" ry="4" fill="black" />
    <rect width="8" height="87.675091489255" x="1060" y="31.162454255372502" rx="4" ry="4" fill="black" />
    <rect width="8" height="99.08854639203024" x="1076" y="25.45572680398488" rx="4" ry="4" fill="black" />
    <rect width="8" height="108.18967277889213" x="1092" y="20.905163610553934" rx="4" ry="4" fill="black" />
    <rect width="8" height="102.8922254675135" x="1108" y="23.55388726624325" rx="4" ry="4" fill="black" />
    <rect width="8" height="91.24818180141028" x="1124" y="29.37590909929486" rx="4" ry="4" fill="black" />
    <rect width="8" height="79.89566898742187" x="1140" y="35.052165506289064" rx="4" ry="4" fill="black" />
    <rect width="8" height="67.66093210974076" x="1156" y="41.16953394512962" rx="4" ry="4" fill="black" />
    <rect width="8" height="67.22644858493852" x="1172" y="41.38677570753074" rx="4" ry="4" fill="black" />
    <rect width="8" height="73.55251138912375" x="1188" y="38.223744305438125" rx="4" ry="4" fill="black" />
    <rect width="8" height="84.54607766644605" x="1204" y="32.726961166776974" rx="4" ry="4" fill="black" />
    <rect width="8" height="136.88743127203398" x="1220" y="6.556284363983011" rx="4" ry="4" fill="black" />
    <rect width="8" height="120.04129834145496" x="1236" y="14.97935082927252" rx="4" ry="4" fill="black" />
    <rect width="8" height="150" x="1252" y="0" rx="4" ry="4" fill="black" />
    <rect width="8" height="119.40727144353174" x="1268" y="15.29636427823413" rx="4" ry="4" fill="black" />
    <rect width="8" height="148.17093795934346" x="1284" y="0.914531020328269" rx="4" ry="4" fill="black" />
    <rect width="8" height="98.80091447167086" x="1300" y="25.599542764164568" rx="4" ry="4" fill="black" />
    <rect width="8" height="106.34259945187566" x="1316" y="21.82870027406217" rx="4" ry="4" fill="black" />
    <rect width="8" height="107.98490229735877" x="1332" y="21.007548851320614" rx="4" ry="4" fill="black" />
    <rect width="8" height="121.99635485133525" x="1348" y="14.001822574332373" rx="4" ry="4" fill="black" />
    <rect width="8" height="115.09657524106403" x="1364" y="17.451712379467985" rx="4" ry="4" fill="black" />
    <rect width="8" height="128.17638163644762" x="1380" y="10.911809181776192" rx="4" ry="4" fill="black" />
    <rect width="8" height="65.1500242155971" x="1396" y="42.42498789220145" rx="4" ry="4" fill="black" />
    <rect width="8" height="56.215666888414276" x="1412" y="46.89216655579286" rx="4" ry="4" fill="black" />
    <rect width="8" height="59.72388747152461" x="1428" y="45.13805626423769" rx="4" ry="4" fill="black" />
    <rect width="8" height="53.23853805528644" x="1444" y="48.38073097235678" rx="4" ry="4" fill="black" />
    <rect width="8" height="57.07961528879143" x="1460" y="46.460192355604285" rx="4" ry="4" fill="black" />
    <rect width="8" height="86.22856386496427" x="1476" y="31.885718067517864" rx="4" ry="4" fill="black" />
    <rect width="8" height="142.27772983998497" x="1492" y="3.8611350800075144" rx="4" ry="4" fill="black" />
    <rect width="8" height="129.3750614109656" x="1508" y="10.3124692945172" rx="4" ry="4" fill="black" />
    <rect width="8" height="115.23716727982377" x="1524" y="17.381416360088117" rx="4" ry="4" fill="black" />
    <rect width="8" height="103.22121399252607" x="1540" y="23.389393003736963" rx="4" ry="4" fill="black" />
    <rect width="8" height="113.05965483582872" x="1556" y="18.470172582085638" rx="4" ry="4" fill="black" />
    <rect width="8" height="63.95453891595072" x="1572" y="43.02273054202464" rx="4" ry="4" fill="black" />
    <rect width="8" height="46.7864465387442" x="1588" y="51.6067767306279" rx="4" ry="4" fill="black" />
    <rect width="8" height="41.80975047839971" x="1604" y="54.09512476080015" rx="4" ry="4" fill="black" />
    <rect width="8" height="39.49860725795196" x="1620" y="55.25069637102402" rx="4" ry="4" fill="black" />
    <rect width="8" height="43.68050905813228" x="1636" y="53.159745470933856" rx="4" ry="4" fill="black" />
    <rect width="8" height="52.28133981142164" x="1652" y="48.85933009428918" rx="4" ry="4" fill="black" />
    <rect width="8" height="80.64624033200839" x="1668" y="34.676879833995805" rx="4" ry="4" fill="black" />
    <rect width="8" height="70.30808495733129" x="1684" y="39.845957521334356" rx="4" ry="4" fill="black" />
    <rect width="8" height="73.28873531859769" x="1700" y="38.355632340701156" rx="4" ry="4" fill="black" />
    <rect width="8" height="49.58614180955515" x="1716" y="50.20692909522242" rx="4" ry="4" fill="black" />
    <rect width="8" height="28.91218984838894" x="1732" y="60.543905075805526" rx="4" ry="4" fill="black" />
    <rect width="8" height="60.788299529718806" x="1748" y="44.60585023514059" rx="4" ry="4" fill="black" />
    <rect width="8" height="42.89367942592133" x="1764" y="53.55316028703933" rx="4" ry="4" fill="black" />
    <rect width="8" height="51.26455251278004" x="1780" y="49.36772374360998" rx="4" ry="4" fill="black" />
    <rect width="8" height="47.82133801364253" x="1796" y="51.089330993178734" rx="4" ry="4" fill="black" />
    <rect width="8" height="60.83488373293778" x="1812" y="44.58255813353111" rx="4" ry="4" fill="black" />
    <rect width="8" height="105.49400038942252" x="1828" y="22.252999805288738" rx="4" ry="4" fill="black" />
    <rect width="8" height="105.83827567261993" x="1844" y="22.080862163690036" rx="4" ry="4" fill="black" />
    <rect width="8" height="106.42200627449827" x="1860" y="21.788996862750864" rx="4" ry="4" fill="black" />
    <rect width="8" height="120.72023390749332" x="1876" y="14.639883046253338" rx="4" ry="4" fill="black" />
    <rect width="8" height="114.88024235968332" x="1892" y="17.55987882015834" rx="4" ry="4" fill="black" />
    <rect width="8" height="132.09845201572452" x="1908" y="8.95077399213774" rx="4" ry="4" fill="black" />
    <rect width="8" height="115.4104520898804" x="1924" y="17.294773955059803" rx="4" ry="4" fill="black" />
    <rect width="8" height="117.00500908946623" x="1940" y="16.497495455266886" rx="4" ry="4" fill="black" />
    <rect width="8" height="111.55059586691962" x="1956" y="19.22470206654019" rx="4" ry="4" fill="black" />
    <rect width="8" height="118.23352987219108" x="1972" y="15.883235063904458" rx="4" ry="4" fill="black" />
    <rect width="8" height="109.18199898148774" x="1988" y="20.40900050925613" rx="4" ry="4" fill="black" />
    <rect width="8" height="93.21056391702082" x="2004" y="28.39471804148959" rx="4" ry="4" fill="black" />
    <rect width="8" height="51.70026985065929" x="2020" y="49.14986507467036" rx="4" ry="4" fill="black" />
    <rect width="8" height="51.8524274306309" x="2036" y="49.07378628468455" rx="4" ry="4" fill="black" />
    <rect width="8" height="65.071943349227" x="2052" y="42.4640283253865" rx="4" ry="4" fill="black" />
    <rect width="8" height="69.50514190828699" x="2068" y="40.24742904585651" rx="4" ry="4" fill="black" />
    <rect width="8" height="79.08767155796849" x="2084" y="35.456164221015754" rx="4" ry="4" fill="black" />
    <rect width="8" height="96.84888324808159" x="2100" y="26.575558375959204" rx="4" ry="4" fill="black" />
    <rect width="8" height="80.71621081849604" x="2116" y="34.64189459075198" rx="4" ry="4" fill="black" />
    <rect width="8" height="82.62522608285722" x="2132" y="33.68738695857139" rx="4" ry="4" fill="black" />
    <rect width="8" height="115.36275082082436" x="2148" y="17.31862458958782" rx="4" ry="4" fill="black" />
    <rect width="8" height="107.2405665820387" x="2164" y="21.379716708980652" rx="4" ry="4" fill="black" />
    <rect width="8" height="113.52185553990068" x="2180" y="18.239072230049658" rx="4" ry="4" fill="black" />
    <rect width="8" height="95.00366922104456" x="2196" y="27.49816538947772" rx="4" ry="4" fill="black" />
    <rect width="8" height="71.81443784573597" x="2212" y="39.09278107713202" rx="4" ry="4" fill="black" />
    <rect width="8" height="86.86752363986895" x="2228" y="31.566238180065525" rx="4" ry="4" fill="black" />
    <rect width="8" height="71.57799109087499" x="2244" y="39.211004454562506" rx="4" ry="4" fill="black" />
    <rect width="8" height="76.89408035692773" x="2260" y="36.552959821536135" rx="4" ry="4" fill="black" />
    <rect width="8" height="102.22869768462819" x="2276" y="23.885651157685906" rx="4" ry="4" fill="black" />
    <rect width="8" height="98.0010409926034" x="2292" y="25.999479503698304" rx="4" ry="4" fill="black" />
    <rect width="8" height="8" x="2308" y="71" rx="4" ry="4" fill="black" />
    <rect width="8" height="19.60671388495439" x="2324" y="65.1966430575228" rx="4" ry="4" fill="black" />
    <rect width="8" height="8" x="2340" y="71" rx="4" ry="4" fill="black" />
    <rect width="8" height="8" x="2356" y="71" rx="4" ry="4" fill="black" />
    <rect width="8" height="8" x="2372" y="71" rx="4" ry="4" fill="black" />
    <rect width="8" height="8" x="2388" y="71" rx="4" ry="4" fill="black" />
  </g>
</svg>