<svg 
  baseProfile="tiny"
  preserveAspectRatio="keep"
  version="1.2"
  viewBox="0 0 1280 200"
  height="100%" width="100%"
  xmlns="http://www.w3.org/2000/svg"
  xmlns:ev="http://www.w3.org/2001/xml-events"
  xmlns:xlink="http://www.w3.org/1999/xlink"
>
  <g>
    <rect width="18" height="92.2383986557074" x="1" y="53.8808006721463" rx="10" ry="10" fill="black" />
    <rect width="18" height="99.08067529908067" x="21" y="50.459662350459666" rx="10" ry="10" fill="black" />
    <rect width="18" height="36.60643724611882" x="41" y="81.69678137694059" rx="10" ry="10" fill="black" />
    <rect width="18" height="102.2095371029975" x="61" y="48.89523144850125" rx="10" ry="10" fill="black" />
    <rect width="18" height="92.70889989611916" x="81" y="53.64555005194042" rx="10" ry="10" fill="black" />
    <rect width="18" height="98.40778557310898" x="101" y="50.79610721344551" rx="10" ry="10" fill="black" />
    <rect width="18" height="85.58910214466974" x="121" y="57.20544892766513" rx="10" ry="10" fill="black" />
    <rect width="18" height="64.81953806651468" x="141" y="67.59023096674267" rx="10" ry="10" fill="black" />
    <rect width="18" height="38.14306982606196" x="161" y="80.92846508696903" rx="10" ry="10" fill="black" />
    <rect width="18" height="181.93107920718006" x="181" y="9.034460396409969" rx="10" ry="10" fill="black" />
    <rect width="18" height="90.52696187000984" x="201" y="54.73651906499508" rx="10" ry="10" fill="black" />
    <rect width="18" height="66.38658714577618" x="221" y="66.80670642711192" rx="10" ry="10" fill="black" />
    <rect width="18" height="97.91572932735573" x="241" y="51.04213533632213" rx="10" ry="10" fill="black" />
    <rect width="18" height="98.37107185603409" x="261" y="50.814464071982954" rx="10" ry="10" fill="black" />
    <rect width="18" height="75.71615722403781" x="281" y="62.14192138798109" rx="10" ry="10" fill="black" />
    <rect width="18" height="76.56167167748004" x="301" y="61.71916416125998" rx="10" ry="10" fill="black" />
    <rect width="18" height="58.00571131770952" x="321" y="70.99714434114524" rx="10" ry="10" fill="black" />
    <rect width="18" height="27.52683196302653" x="341" y="86.23658401848674" rx="10" ry="10" fill="black" />
    <rect width="18" height="81.8123103589515" x="361" y="59.09384482052425" rx="10" ry="10" fill="black" />
    <rect width="18" height="85.3224414587694" x="381" y="57.3387792706153" rx="10" ry="10" fill="black" />
    <rect width="18" height="92.00906209329463" x="401" y="53.995468953352685" rx="10" ry="10" fill="black" />
    <rect width="18" height="93.03640365237611" x="421" y="53.481798173811946" rx="10" ry="10" fill="black" />
    <rect width="18" height="37.65062501310222" x="441" y="81.17468749344889" rx="10" ry="10" fill="black" />
    <rect width="18" height="77.46304311657813" x="461" y="61.26847844171093" rx="10" ry="10" fill="black" />
    <rect width="18" height="38.071954114374954" x="481" y="80.96402294281252" rx="10" ry="10" fill="black" />
    <rect width="18" height="190.9506976590023" x="501" y="4.524651170498856" rx="10" ry="10" fill="black" />
    <rect width="18" height="92.29623450367389" x="521" y="53.85188274816306" rx="10" ry="10" fill="black" />
    <rect width="18" height="76.92595483140254" x="541" y="61.53702258429873" rx="10" ry="10" fill="black" />
    <rect width="18" height="100.39172559659681" x="561" y="49.80413720170159" rx="10" ry="10" fill="black" />
    <rect width="18" height="87.65034919583049" x="581" y="56.17482540208476" rx="10" ry="10" fill="black" />
    <rect width="18" height="76.68315426911637" x="601" y="61.658422865441814" rx="10" ry="10" fill="black" />
    <rect width="18" height="73.0813273129654" x="621" y="63.4593363435173" rx="10" ry="10" fill="black" />
    <rect width="18" height="40.065874909588835" x="641" y="79.96706254520558" rx="10" ry="10" fill="black" />
    <rect width="18" height="200" x="661" y="0" rx="10" ry="10" fill="black" />
    <rect width="18" height="52.36536905879154" x="681" y="73.81731547060423" rx="10" ry="10" fill="black" />
    <rect width="18" height="44.416808649163286" x="701" y="77.79159567541836" rx="10" ry="10" fill="black" />
    <rect width="18" height="91.19043060154148" x="721" y="54.40478469922926" rx="10" ry="10" fill="black" />
    <rect width="18" height="88.14934199770887" x="741" y="55.92532900114556" rx="10" ry="10" fill="black" />
    <rect width="18" height="80.6552714019453" x="761" y="59.67236429902735" rx="10" ry="10" fill="black" />
    <rect width="18" height="85.74639881842472" x="781" y="57.12680059078764" rx="10" ry="10" fill="black" />
    <rect width="18" height="30.72230118440838" x="801" y="84.63884940779582" rx="10" ry="10" fill="black" />
    <rect width="18" height="194.59987669863324" x="821" y="2.7000616506833808" rx="10" ry="10" fill="black" />
    <rect width="18" height="46.428523296206045" x="841" y="76.78573835189698" rx="10" ry="10" fill="black" />
    <rect width="18" height="92.1800561571319" x="861" y="53.90997192143405" rx="10" ry="10" fill="black" />
    <rect width="18" height="102.4362702755813" x="881" y="48.78186486220935" rx="10" ry="10" fill="black" />
    <rect width="18" height="40.135429981819954" x="901" y="79.93228500909002" rx="10" ry="10" fill="black" />
    <rect width="18" height="60.47101696087599" x="921" y="69.764491519562" rx="10" ry="10" fill="black" />
    <rect width="18" height="79.97900654838774" x="941" y="60.01049672580613" rx="10" ry="10" fill="black" />
    <rect width="18" height="60.2021168804897" x="961" y="69.89894155975514" rx="10" ry="10" fill="black" />
    <rect width="18" height="199.43359585858272" x="981" y="0.28320207070864" rx="10" ry="10" fill="black" />
    <rect width="18" height="42.75019962259137" x="1001" y="78.62490018870432" rx="10" ry="10" fill="black" />
    <rect width="18" height="67.2517253222502" x="1021" y="66.3741373388749" rx="10" ry="10" fill="black" />
    <rect width="18" height="108.02138586322559" x="1041" y="45.989307068387205" rx="10" ry="10" fill="black" />
    <rect width="18" height="56.09051581921608" x="1061" y="71.95474209039196" rx="10" ry="10" fill="black" />
    <rect width="18" height="55.854138525777856" x="1081" y="72.07293073711108" rx="10" ry="10" fill="black" />
    <rect width="18" height="84.53453873065222" x="1101" y="57.73273063467389" rx="10" ry="10" fill="black" />
    <rect width="18" height="51.15612354746434" x="1121" y="74.42193822626783" rx="10" ry="10" fill="black" />
    <rect width="18" height="38.81079744959497" x="1141" y="80.5946012752025" rx="10" ry="10" fill="black" />
    <rect width="18" height="40.9244577965529" x="1161" y="79.53777110172355" rx="10" ry="10" fill="black" />
    <rect width="18" height="46.50462650005965" x="1181" y="76.74768674997017" rx="10" ry="10" fill="black" />
    <rect width="18" height="68.80000815682577" x="1201" y="65.59999592158712" rx="10" ry="10" fill="black" />
    <rect width="18" height="18" x="1221" y="91" rx="10" ry="10" fill="black" />
    <rect width="18" height="18" x="1241" y="91" rx="10" ry="10" fill="black" />
    <rect width="18" height="18" x="1261" y="91" rx="10" ry="10" fill="black" />
  </g>
</svg>