<svg 
  baseProfile="tiny"
  preserveAspectRatio="keep"
  version="1.2"
  viewBox="0 0 2400 150"
  height="100%" width="100%"
  xmlns="http://www.w3.org/2000/svg"
  xmlns:ev="http://www.w3.org/2001/xml-events"
  xmlns:xlink="http://www.w3.org/1999/xlink"
>
  <g>
    <rect width="8" height="128.44964695679144" x="4" y="10.77517652160428" rx="4" ry="4" fill="black" />
    <rect width="8" height="117.0241287210697" x="20" y="16.48793563946515" rx="4" ry="4" fill="black" />
    <rect width="8" height="114.09308048203629" x="36" y="17.953459758981857" rx="4" ry="4" fill="black" />
    <rect width="8" height="122.8024032726924" x="52" y="13.598798363653799" rx="4" ry="4" fill="black" />
    <rect width="8" height="114.37425386192757" x="68" y="17.812873069036215" rx="4" ry="4" fill="black" />
    <rect width="8" height="125.48107056998069" x="84" y="12.259464715009656" rx="4" ry="4" fill="black" />
    <rect width="8" height="114.62646473999791" x="100" y="17.686767630001043" rx="4" ry="4" fill="black" />
    <rect width="8" height="110.43106320500736" x="116" y="19.78446839749632" rx="4" ry="4" fill="black" />
    <rect width="8" height="128.1995099018228" x="132" y="10.900245049088596" rx="4" ry="4" fill="black" />
    <rect width="8" height="113.83578928748562" x="148" y="18.082105356257188" rx="4" ry="4" fill="black" />
    <rect width="8" height="121.77143244054066" x="164" y="14.114283779729668" rx="4" ry="4" fill="black" />
    <rect width="8" height="115.12537365165724" x="180" y="17.43731317417138" rx="4" ry="4" fill="black" />
    <rect width="8" height="129.64663680015653" x="196" y="10.176681599921736" rx="4" ry="4" fill="black" />
    <rect width="8" height="128.83054117490605" x="212" y="10.584729412546977" rx="4" ry="4" fill="black" />
    <rect width="8" height="113.68500467864118" x="228" y="18.15749766067941" rx="4" ry="4" fill="black" />
    <rect width="8" height="121.01353131523643" x="244" y="14.493234342381783" rx="4" ry="4" fill="black" />
    <rect width="8" height="121.54252130011133" x="260" y="14.228739349944334" rx="4" ry="4" fill="black" />
    <rect width="8" height="114.39701593065475" x="276" y="17.801492034672627" rx="4" ry="4" fill="black" />
    <rect width="8" height="133.7560840487656" x="292" y="8.121957975617207" rx="4" ry="4" fill="black" />
    <rect width="8" height="116.71088383443241" x="308" y="16.644558082783796" rx="4" ry="4" fill="black" />
    <rect width="8" height="111.91764866206441" x="324" y="19.041175668967796" rx="4" ry="4" fill="black" />
    <rect width="8" height="134.040905199431" x="340" y="7.979547400284503" rx="4" ry="4" fill="black" />
    <rect width="8" height="116.00059654817818" x="356" y="16.99970172591091" rx="4" ry="4" fill="black" />
    <rect width="8" height="125.21832832720625" x="372" y="12.390835836396874" rx="4" ry="4" fill="black" />
    <rect width="8" height="48.339977503177586" x="388" y="50.83001124841121" rx="4" ry="4" fill="black" />
    <rect width="8" height="48.43461514050421" x="404" y="50.7826924297479" rx="4" ry="4" fill="black" />
    <rect width="8" height="56.11813223622145" x="420" y="46.94093388188928" rx="4" ry="4" fill="black" />
    <rect width="8" height="47.02521456975308" x="436" y="51.48739271512346" rx="4" ry="4" fill="black" />
    <rect width="8" height="61.117043245262465" x="452" y="44.44147837736877" rx="4" ry="4" fill="black" />
    <rect width="8" height="47.144366486320806" x="468" y="51.4278167568396" rx="4" ry="4" fill="black" />
    <rect width="8" height="48.07771958174097" x="484" y="50.96114020912951" rx="4" ry="4" fill="black" />
    <rect width="8" height="56.56518799318829" x="500" y="46.717406003405856" rx="4" ry="4" fill="black" />
    <rect width="8" height="46.417448674320624" x="516" y="51.79127566283969" rx="4" ry="4" fill="black" />
    <rect width="8" height="52.36293298436513" x="532" y="48.818533507817435" rx="4" ry="4" fill="black" />
    <rect width="8" height="44.84191990361107" x="548" y="52.579040048194464" rx="4" ry="4" fill="black" />
    <rect width="8" height="44.80111150781466" x="564" y="52.59944424609267" rx="4" ry="4" fill="black" />
    <rect width="8" height="109.03077254310283" x="580" y="20.484613728448586" rx="4" ry="4" fill="black" />
    <rect width="8" height="84.14096414561185" x="596" y="32.92951792719408" rx="4" ry="4" fill="black" />
    <rect width="8" height="91.96636576392324" x="612" y="29.016817118038382" rx="4" ry="4" fill="black" />
    <rect width="8" height="110.15120330252067" x="628" y="19.924398348739665" rx="4" ry="4" fill="black" />
    <rect width="8" height="86.07582325148698" x="644" y="31.96208837425651" rx="4" ry="4" fill="black" />
    <rect width="8" height="112.36266880699301" x="660" y="18.818665596503493" rx="4" ry="4" fill="black" />
    <rect width="8" height="89.09266456529816" x="676" y="30.453667717350918" rx="4" ry="4" fill="black" />
    <rect width="8" height="85.9289177445823" x="692" y="32.03554112770885" rx="4" ry="4" fill="black" />
    <rect width="8" height="124.06625904262816" x="708" y="12.96687047868592" rx="4" ry="4" fill="black" />
    <rect width="8" height="89.14309872103098" x="724" y="30.42845063948451" rx="4" ry="4" fill="black" />
    <rect width="8" height="97.80576655304286" x="740" y="26.09711672347857" rx="4" ry="4" fill="black" />
    <rect width="8" height="109.48278751159397" x="756" y="20.258606244203015" rx="4" ry="4" fill="black" />
    <rect width="8" height="114.0790658640148" x="772" y="17.960467067992603" rx="4" ry="4" fill="black" />
    <rect width="8" height="130.08857412718595" x="788" y="9.955712936407025" rx="4" ry="4" fill="black" />
    <rect width="8" height="117.5037800667884" x="804" y="16.248109966605803" rx="4" ry="4" fill="black" />
    <rect width="8" height="112.90142296133442" x="820" y="18.54928851933279" rx="4" ry="4" fill="black" />
    <rect width="8" height="135.63932228937878" x="836" y="7.180338855310609" rx="4" ry="4" fill="black" />
    <rect width="8" height="117.74473009314025" x="852" y="16.127634953429876" rx="4" ry="4" fill="black" />
    <rect width="8" height="125.16871038359875" x="868" y="12.415644808200625" rx="4" ry="4" fill="black" />
    <rect width="8" height="119.20506511057732" x="884" y="15.397467444711339" rx="4" ry="4" fill="black" />
    <rect width="8" height="118.07701052204325" x="900" y="15.961494738978374" rx="4" ry="4" fill="black" />
    <rect width="8" height="129.95385731308605" x="916" y="10.023071343456976" rx="4" ry="4" fill="black" />
    <rect width="8" height="116.55469621971086" x="932" y="16.72265189014457" rx="4" ry="4" fill="black" />
    <rect width="8" height="121.64172960916525" x="948" y="14.179135195417373" rx="4" ry="4" fill="black" />
    <rect width="8" height="124.08349381993905" x="964" y="12.958253090030475" rx="4" ry="4" fill="black" />
    <rect width="8" height="116.85753338706087" x="980" y="16.571233306469566" rx="4" ry="4" fill="black" />
    <rect width="8" height="129.6628178137622" x="996" y="10.168591093118906" rx="4" ry="4" fill="black" />
    <rect width="8" height="120.77166122575575" x="1012" y="14.614169387122125" rx="4" ry="4" fill="black" />
    <rect width="8" height="111.83024133159249" x="1028" y="19.084879334203755" rx="4" ry="4" fill="black" />
    <rect width="8" height="127.91344493190712" x="1044" y="11.043277534046439" rx="4" ry="4" fill="black" />
    <rect width="8" height="121.29891601595044" x="1060" y="14.35054199202478" rx="4" ry="4" fill="black" />
    <rect width="8" height="125.85902045509248" x="1076" y="12.070489772453762" rx="4" ry="4" fill="black" />
    <rect width="8" height="129.05270113765485" x="1092" y="10.473649431172575" rx="4" ry="4" fill="black" />
    <rect width="8" height="118.45711212013177" x="1108" y="15.771443939934116" rx="4" ry="4" fill="black" />
    <rect width="8" height="130.80685712738665" x="1124" y="9.596571436306675" rx="4" ry="4" fill="black" />
    <rect width="8" height="54.71038126051971" x="1140" y="47.644809369740145" rx="4" ry="4" fill="black" />
    <rect width="8" height="45.36452518296937" x="1156" y="52.31773740851531" rx="4" ry="4" fill="black" />
    <rect width="8" height="43.22171522870508" x="1172" y="53.38914238564746" rx="4" ry="4" fill="black" />
    <rect width="8" height="42.37177495176286" x="1188" y="53.81411252411857" rx="4" ry="4" fill="black" />
    <rect width="8" height="42.002352897582654" x="1204" y="53.99882355120867" rx="4" ry="4" fill="black" />
    <rect width="8" height="36.80440263363228" x="1220" y="56.59779868318386" rx="4" ry="4" fill="black" />
    <rect width="8" height="29.695617569486693" x="1236" y="60.15219121525665" rx="4" ry="4" fill="black" />
    <rect width="8" height="27.873306287203448" x="1252" y="61.063346856398276" rx="4" ry="4" fill="black" />
    <rect width="8" height="26.087516261979975" x="1268" y="61.956241869010015" rx="4" ry="4" fill="black" />
    <rect width="8" height="25.564786609072147" x="1284" y="62.21760669546393" rx="4" ry="4" fill="black" />
    <rect width="8" height="27.32501199839725" x="1300" y="61.33749400080137" rx="4" ry="4" fill="black" />
    <rect width="8" height="25.433579468775065" x="1316" y="62.28321026561247" rx="4" ry="4" fill="black" />
    <rect width="8" height="135.5742027704855" x="1332" y="7.2128986147572505" rx="4" ry="4" fill="black" />
    <rect width="8" height="131.31871995301734" x="1348" y="9.340640023491332" rx="4" ry="4" fill="black" />
    <rect width="8" height="143.99652003415625" x="1364" y="3.001739982921876" rx="4" ry="4" fill="black" />
    <rect width="8" height="130.5723168162159" x="1380" y="9.713841591892049" rx="4" ry="4" fill="black" />
    <rect width="8" height="132.64946394310635" x="1396" y="8.675268028446823" rx="4" ry="4" fill="black" />
    <rect width="8" height="134.1803356853219" x="1412" y="7.9098321573390535" rx="4" ry="4" fill="black" />
    <rect width="8" height="137.396214771598" x="1428" y="6.301892614200995" rx="4" ry="4" fill="black" />
    <rect width="8" height="136.14529245876633" x="1444" y="6.927353770616833" rx="4" ry="4" fill="black" />
    <rect width="8" height="133.55054019911645" x="1460" y="8.224729900441773" rx="4" ry="4" fill="black" />
    <rect width="8" height="143.34244714897468" x="1476" y="3.3287764255126575" rx="4" ry="4" fill="black" />
    <rect width="8" height="149.5709522209577" x="1492" y="0.21452388952114632" rx="4" ry="4" fill="black" />
    <rect width="8" height="140.50486631287342" x="1508" y="4.747566843563291" rx="4" ry="4" fill="black" />
    <rect width="8" height="133.78273471930297" x="1524" y="8.108632640348517" rx="4" ry="4" fill="black" />
    <rect width="8" height="137.8386563102655" x="1540" y="6.080671844867254" rx="4" ry="4" fill="black" />
    <rect width="8" height="138.3099938730324" x="1556" y="5.8450030634838015" rx="4" ry="4" fill="black" />
    <rect width="8" height="135.96909408198323" x="1572" y="7.015452959008385" rx="4" ry="4" fill="black" />
    <rect width="8" height="132.1927344091238" x="1588" y="8.9036327954381" rx="4" ry="4" fill="black" />
    <rect width="8" height="135.8297461128986" x="1604" y="7.085126943550705" rx="4" ry="4" fill="black" />
    <rect width="8" height="139.74833066544176" x="1620" y="5.125834667279122" rx="4" ry="4" fill="black" />
    <rect width="8" height="143.5164474680934" x="1636" y="3.2417762659533054" rx="4" ry="4" fill="black" />
    <rect width="8" height="138.85279108468532" x="1652" y="5.573604457657339" rx="4" ry="4" fill="black" />
    <rect width="8" height="141.61809670856587" x="1668" y="4.190951645717064" rx="4" ry="4" fill="black" />
    <rect width="8" height="135.61224612182536" x="1684" y="7.193876939087318" rx="4" ry="4" fill="black" />
    <rect width="8" height="143.06613848191134" x="1700" y="3.466930759044331" rx="4" ry="4" fill="black" />
    <rect width="8" height="142.0442622380796" x="1716" y="3.9778688809602016" rx="4" ry="4" fill="black" />
    <rect width="8" height="134.1563730446335" x="1732" y="7.921813477683244" rx="4" ry="4" fill="black" />
    <rect width="8" height="139.00172535562336" x="1748" y="5.499137322188318" rx="4" ry="4" fill="black" />
    <rect width="8" height="133.13663094684463" x="1764" y="8.431684526577683" rx="4" ry="4" fill="black" />
    <rect width="8" height="140.04349853510664" x="1780" y="4.978250732446682" rx="4" ry="4" fill="black" />
    <rect width="8" height="135.3186216983931" x="1796" y="7.340689150803456" rx="4" ry="4" fill="black" />
    <rect width="8" height="122.48691701254857" x="1812" y="13.756541493725713" rx="4" ry="4" fill="black" />
    <rect width="8" height="148.50089368895746" x="1828" y="0.7495531555212693" rx="4" ry="4" fill="black" />
    <rect width="8" height="135.20504676713588" x="1844" y="7.3974766164320584" rx="4" ry="4" fill="black" />
    <rect width="8" height="134.43498579738232" x="1860" y="7.782507101308838" rx="4" ry="4" fill="black" />
    <rect width="8" height="114.06424524322911" x="1876" y="17.967877378385445" rx="4" ry="4" fill="black" />
    <rect width="8" height="115.73415445625997" x="1892" y="17.132922771870014" rx="4" ry="4" fill="black" />
    <rect width="8" height="145.2739418463635" x="1908" y="2.3630290768182505" rx="4" ry="4" fill="black" />
    <rect width="8" height="132.45271053600112" x="1924" y="8.77364473199944" rx="4" ry="4" fill="black" />
    <rect width="8" height="124.50559587783124" x="1940" y="12.74720206108438" rx="4" ry="4" fill="black" />
    <rect width="8" height="140.49960111641306" x="1956" y="4.75019944179347" rx="4" ry="4" fill="black" />
    <rect width="8" height="147.02426577635453" x="1972" y="1.4878671118227373" rx="4" ry="4" fill="black" />
    <rect width="8" height="131.41004609441742" x="1988" y="9.294976952791288" rx="4" ry="4" fill="black" />
    <rect width="8" height="130.60121604183058" x="2004" y="9.699391979084709" rx="4" ry="4" fill="black" />
    <rect width="8" height="135.21798355793746" x="2020" y="7.391008221031271" rx="4" ry="4" fill="black" />
    <rect width="8" height="131.06642747129564" x="2036" y="9.46678626435218" rx="4" ry="4" fill="black" />
    <rect width="8" height="149.2080267257238" x="2052" y="0.395986637138094" rx="4" ry="4" fill="black" />
    <rect width="8" height="150" x="2068" y="0" rx="4" ry="4" fill="black" />
    <rect width="8" height="126.78728929531354" x="2084" y="11.606355352343229" rx="4" ry="4" fill="black" />
    <rect width="8" height="126.50137648436511" x="2100" y="11.749311757817445" rx="4" ry="4" fill="black" />
    <rect width="8" height="137.28611483000955" x="2116" y="6.356942584995224" rx="4" ry="4" fill="black" />
    <rect width="8" height="113.50788656049566" x="2132" y="18.24605671975217" rx="4" ry="4" fill="black" />
    <rect width="8" height="119.9212647665104" x="2148" y="15.039367616744798" rx="4" ry="4" fill="black" />
    <rect width="8" height="131.76493253656636" x="2164" y="9.117533731716819" rx="4" ry="4" fill="black" />
    <rect width="8" height="114.1315035783242" x="2180" y="17.9342482108379" rx="4" ry="4" fill="black" />
    <rect width="8" height="126.66424826770582" x="2196" y="11.667875866147092" rx="4" ry="4" fill="black" />
    <rect width="8" height="114.08101330179879" x="2212" y="17.959493349100605" rx="4" ry="4" fill="black" />
    <rect width="8" height="108.49145287533165" x="2228" y="20.754273562334177" rx="4" ry="4" fill="black" />
    <rect width="8" height="118.11675959464196" x="2244" y="15.941620202679019" rx="4" ry="4" fill="black" />
    <rect width="8" height="110.34441126175876" x="2260" y="19.827794369120618" rx="4" ry="4" fill="black" />
    <rect width="8" height="119.82836586039025" x="2276" y="15.085817069804875" rx="4" ry="4" fill="black" />
    <rect width="8" height="112.87217624349553" x="2292" y="18.563911878252235" rx="4" ry="4" fill="black" />
    <rect width="8" height="111.82484620128044" x="2308" y="19.08757689935978" rx="4" ry="4" fill="black" />
    <rect width="8" height="126.6406473672515" x="2324" y="11.679676316374248" rx="4" ry="4" fill="black" />
    <rect width="8" height="109.28809996428264" x="2340" y="20.35595001785868" rx="4" ry="4" fill="black" />
    <rect width="8" height="114.25524998625168" x="2356" y="17.872375006874158" rx="4" ry="4" fill="black" />
    <rect width="8" height="74.42513831288248" x="2372" y="37.78743084355876" rx="4" ry="4" fill="black" />
    <rect width="8" height="8" x="2388" y="71" rx="4" ry="4" fill="black" />
  </g>
</svg>