<svg 
  baseProfile="tiny"
  preserveAspectRatio="true"
  version="1.2"
  viewBox="0 0 2400 150"
  height="100%" width="100%"
  xmlns="http://www.w3.org/2000/svg"
  xmlns:ev="http://www.w3.org/2001/xml-events"
  xmlns:xlink="http://www.w3.org/1999/xlink"
>
  <g>
    <rect width="8" height="70.43919060853646" x="4" y="39.78040469573177" rx="4" ry="4" fill="black" />
    <rect width="8" height="48.16768032961262" x="20" y="50.91615983519369" rx="4" ry="4" fill="black" />
    <rect width="8" height="51.19420965899681" x="36" y="49.402895170501594" rx="4" ry="4" fill="black" />
    <rect width="8" height="56.352279675197245" x="52" y="46.823860162401374" rx="4" ry="4" fill="black" />
    <rect width="8" height="50.89944065539144" x="68" y="49.550279672304285" rx="4" ry="4" fill="black" />
    <rect width="8" height="57.21988127132911" x="84" y="46.39005936433544" rx="4" ry="4" fill="black" />
    <rect width="8" height="64.3871133946691" x="100" y="42.80644330266545" rx="4" ry="4" fill="black" />
    <rect width="8" height="61.165136597160625" x="116" y="44.41743170141969" rx="4" ry="4" fill="black" />
    <rect width="8" height="53.57412630052966" x="132" y="48.21293684973517" rx="4" ry="4" fill="black" />
    <rect width="8" height="60.119486316473875" x="148" y="44.94025684176306" rx="4" ry="4" fill="black" />
    <rect width="8" height="64.33427006930297" x="164" y="42.83286496534851" rx="4" ry="4" fill="black" />
    <rect width="8" height="44.12656609403477" x="180" y="52.936716952982614" rx="4" ry="4" fill="black" />
    <rect width="8" height="137.6414486176863" x="196" y="6.179275691156846" rx="4" ry="4" fill="black" />
    <rect width="8" height="135.2915211974601" x="212" y="7.35423940126995" rx="4" ry="4" fill="black" />
    <rect width="8" height="140.55970964451765" x="228" y="4.720145177741173" rx="4" ry="4" fill="black" />
    <rect width="8" height="131.23228215267403" x="244" y="9.383858923662984" rx="4" ry="4" fill="black" />
    <rect width="8" height="140.56385060920672" x="260" y="4.718074695396638" rx="4" ry="4" fill="black" />
    <rect width="8" height="138.39380516576855" x="276" y="5.803097417115723" rx="4" ry="4" fill="black" />
    <rect width="8" height="135.35289238803713" x="292" y="7.323553805981433" rx="4" ry="4" fill="black" />
    <rect width="8" height="139.55293197757248" x="308" y="5.223534011213758" rx="4" ry="4" fill="black" />
    <rect width="8" height="131.60552192848786" x="324" y="9.19723903575607" rx="4" ry="4" fill="black" />
    <rect width="8" height="133.7974805792795" x="340" y="8.101259710360253" rx="4" ry="4" fill="black" />
    <rect width="8" height="60.220838480406854" x="356" y="44.88958075979657" rx="4" ry="4" fill="black" />
    <rect width="8" height="64.15848694481355" x="372" y="42.92075652759323" rx="4" ry="4" fill="black" />
    <rect width="8" height="139.29710292329798" x="388" y="5.351448538351008" rx="4" ry="4" fill="black" />
    <rect width="8" height="133.01899209020928" x="404" y="8.49050395489536" rx="4" ry="4" fill="black" />
    <rect width="8" height="135.3844823090145" x="420" y="7.3077588454927564" rx="4" ry="4" fill="black" />
    <rect width="8" height="137.33237370778198" x="436" y="6.333813146109009" rx="4" ry="4" fill="black" />
    <rect width="8" height="126.57154183903873" x="452" y="11.714229080480635" rx="4" ry="4" fill="black" />
    <rect width="8" height="133.53769306654962" x="468" y="8.231153466725189" rx="4" ry="4" fill="black" />
    <rect width="8" height="63.451291066842664" x="484" y="43.27435446657867" rx="4" ry="4" fill="black" />
    <rect width="8" height="55.7736924329994" x="500" y="47.1131537835003" rx="4" ry="4" fill="black" />
    <rect width="8" height="46.81351939178641" x="516" y="51.5932403041068" rx="4" ry="4" fill="black" />
    <rect width="8" height="63.0639932496962" x="532" y="43.468003375151895" rx="4" ry="4" fill="black" />
    <rect width="8" height="53.603496542770934" x="548" y="48.19825172861454" rx="4" ry="4" fill="black" />
    <rect width="8" height="37.955202938245066" x="564" y="56.02239853087747" rx="4" ry="4" fill="black" />
    <rect width="8" height="141.22582899495555" x="580" y="4.3870855025222255" rx="4" ry="4" fill="black" />
    <rect width="8" height="147.08795841785113" x="596" y="1.4560207910744367" rx="4" ry="4" fill="black" />
    <rect width="8" height="140.77168999545515" x="612" y="4.614155002272426" rx="4" ry="4" fill="black" />
    <rect width="8" height="141.42297660741386" x="628" y="4.288511696293071" rx="4" ry="4" fill="black" />
    <rect width="8" height="145.85571757078762" x="644" y="2.072141214606191" rx="4" ry="4" fill="black" />
    <rect width="8" height="139.83088409743013" x="660" y="5.0845579512849355" rx="4" ry="4" fill="black" />
    <rect width="8" height="147.16938726823628" x="676" y="1.415306365881861" rx="4" ry="4" fill="black" />
    <rect width="8" height="144.04458793877592" x="692" y="2.9777060306120404" rx="4" ry="4" fill="black" />
    <rect width="8" height="139.86199977549344" x="708" y="5.069000112253278" rx="4" ry="4" fill="black" />
    <rect width="8" height="150" x="724" y="0" rx="4" ry="4" fill="black" />
    <rect width="8" height="138.6695563225945" x="740" y="5.665221838702749" rx="4" ry="4" fill="black" />
    <rect width="8" height="144.1738741753424" x="756" y="2.9130629123287974" rx="4" ry="4" fill="black" />
    <rect width="8" height="146.35093554994967" x="772" y="1.824532225025166" rx="4" ry="4" fill="black" />
    <rect width="8" height="139.79260559176467" x="788" y="5.103697204117665" rx="4" ry="4" fill="black" />
    <rect width="8" height="145.9474275439322" x="804" y="2.0262862280338965" rx="4" ry="4" fill="black" />
    <rect width="8" height="144.71537445592125" x="820" y="2.642312772039375" rx="4" ry="4" fill="black" />
    <rect width="8" height="140.86330750994514" x="836" y="4.568346245027428" rx="4" ry="4" fill="black" />
    <rect width="8" height="145.35975712653655" x="852" y="2.320121436731725" rx="4" ry="4" fill="black" />
    <rect width="8" height="139.76621195983552" x="868" y="5.116894020082242" rx="4" ry="4" fill="black" />
    <rect width="8" height="146.96928297188052" x="884" y="1.5153585140597414" rx="4" ry="4" fill="black" />
    <rect width="8" height="143.05555468722963" x="900" y="3.472222656385185" rx="4" ry="4" fill="black" />
    <rect width="8" height="140.85747227258085" x="916" y="4.571263863709575" rx="4" ry="4" fill="black" />
    <rect width="8" height="144.9418704061697" x="932" y="2.5290647969151507" rx="4" ry="4" fill="black" />
    <rect width="8" height="96.57410523372637" x="948" y="26.712947383136814" rx="4" ry="4" fill="black" />
    <rect width="8" height="76.11915968953983" x="964" y="36.940420155230086" rx="4" ry="4" fill="black" />
    <rect width="8" height="35.74501655354114" x="980" y="57.127491723229426" rx="4" ry="4" fill="black" />
    <rect width="8" height="48.71554985189308" x="996" y="50.64222507405346" rx="4" ry="4" fill="black" />
    <rect width="8" height="77.14488741954578" x="1012" y="36.42755629022711" rx="4" ry="4" fill="black" />
    <rect width="8" height="21.353313082220645" x="1028" y="64.32334345888968" rx="4" ry="4" fill="black" />
    <rect width="8" height="137.59528263007297" x="1044" y="6.202358684963514" rx="4" ry="4" fill="black" />
    <rect width="8" height="142.64095249788292" x="1060" y="3.6795237510585395" rx="4" ry="4" fill="black" />
    <rect width="8" height="126.92121054487748" x="1076" y="11.539394727561259" rx="4" ry="4" fill="black" />
    <rect width="8" height="139.4413776856567" x="1092" y="5.279311157171648" rx="4" ry="4" fill="black" />
    <rect width="8" height="133.19243380131465" x="1108" y="8.403783099342675" rx="4" ry="4" fill="black" />
    <rect width="8" height="133.39066010889923" x="1124" y="8.304669945550387" rx="4" ry="4" fill="black" />
    <rect width="8" height="147.02245930496852" x="1140" y="1.4887703475157394" rx="4" ry="4" fill="black" />
    <rect width="8" height="140.0005978626915" x="1156" y="4.999701068654247" rx="4" ry="4" fill="black" />
    <rect width="8" height="146.12551374378245" x="1172" y="1.9372431281087756" rx="4" ry="4" fill="black" />
    <rect width="8" height="141.8161748754014" x="1188" y="4.091912562299299" rx="4" ry="4" fill="black" />
    <rect width="8" height="145.9457085667716" x="1204" y="2.0271457166142" rx="4" ry="4" fill="black" />
    <rect width="8" height="149.15564586252793" x="1220" y="0.42217706873603333" rx="4" ry="4" fill="black" />
    <rect width="8" height="138.55837025542505" x="1236" y="5.720814872287477" rx="4" ry="4" fill="black" />
    <rect width="8" height="145.0846592702187" x="1252" y="2.457670364890646" rx="4" ry="4" fill="black" />
    <rect width="8" height="144.98117615407511" x="1268" y="2.5094119229624425" rx="4" ry="4" fill="black" />
    <rect width="8" height="137.92636592426612" x="1284" y="6.036817037866939" rx="4" ry="4" fill="black" />
    <rect width="8" height="147.84144464062072" x="1300" y="1.079277679689639" rx="4" ry="4" fill="black" />
    <rect width="8" height="80.44899332122968" x="1316" y="34.77550333938516" rx="4" ry="4" fill="black" />
    <rect width="8" height="70.13002642809496" x="1332" y="39.93498678595252" rx="4" ry="4" fill="black" />
    <rect width="8" height="75.32646126822192" x="1348" y="37.33676936588904" rx="4" ry="4" fill="black" />
    <rect width="8" height="138.95695194147984" x="1364" y="5.521524029260078" rx="4" ry="4" fill="black" />
    <rect width="8" height="146.62948589178274" x="1380" y="1.6852570541086322" rx="4" ry="4" fill="black" />
    <rect width="8" height="142.4612180048128" x="1396" y="3.7693909975936037" rx="4" ry="4" fill="black" />
    <rect width="8" height="137.81719656500528" x="1412" y="6.091401717497362" rx="4" ry="4" fill="black" />
    <rect width="8" height="147.08716666559144" x="1428" y="1.4564166672042802" rx="4" ry="4" fill="black" />
    <rect width="8" height="141.8074019230085" x="1444" y="4.096299038495744" rx="4" ry="4" fill="black" />
    <rect width="8" height="143.74397639017738" x="1460" y="3.12801180491131" rx="4" ry="4" fill="black" />
    <rect width="8" height="143.5811461898349" x="1476" y="3.2094269050825517" rx="4" ry="4" fill="black" />
    <rect width="8" height="140.3917618386557" x="1492" y="4.804119080672152" rx="4" ry="4" fill="black" />
    <rect width="8" height="146.1418863985815" x="1508" y="1.9290568007092475" rx="4" ry="4" fill="black" />
    <rect width="8" height="137.39709344852662" x="1524" y="6.301453275736691" rx="4" ry="4" fill="black" />
    <rect width="8" height="144.86823892043515" x="1540" y="2.5658805397824267" rx="4" ry="4" fill="black" />
    <rect width="8" height="147.47922471653206" x="1556" y="1.2603876417339706" rx="4" ry="4" fill="black" />
    <rect width="8" height="142.22291102636086" x="1572" y="3.888544486819569" rx="4" ry="4" fill="black" />
    <rect width="8" height="146.19126298990466" x="1588" y="1.904368505047671" rx="4" ry="4" fill="black" />
    <rect width="8" height="143.54218036023002" x="1604" y="3.22890981988499" rx="4" ry="4" fill="black" />
    <rect width="8" height="142.65807571342455" x="1620" y="3.670962143287724" rx="4" ry="4" fill="black" />
    <rect width="8" height="144.8628521032521" x="1636" y="2.5685739483739525" rx="4" ry="4" fill="black" />
    <rect width="8" height="139.54498666497255" x="1652" y="5.2275066675137225" rx="4" ry="4" fill="black" />
    <rect width="8" height="143.9919322734238" x="1668" y="3.0040338632881003" rx="4" ry="4" fill="black" />
    <rect width="8" height="145.04833639178955" x="1684" y="2.4758318041052263" rx="4" ry="4" fill="black" />
    <rect width="8" height="140.73754233719887" x="1700" y="4.631228831400563" rx="4" ry="4" fill="black" />
    <rect width="8" height="147.72005954916236" x="1716" y="1.1399702254188213" rx="4" ry="4" fill="black" />
    <rect width="8" height="139.61314451345032" x="1732" y="5.193427743274839" rx="4" ry="4" fill="black" />
    <rect width="8" height="143.85544091059583" x="1748" y="3.0722795447020843" rx="4" ry="4" fill="black" />
    <rect width="8" height="142.51758310155066" x="1764" y="3.741208449224672" rx="4" ry="4" fill="black" />
    <rect width="8" height="138.00221595445953" x="1780" y="5.998892022770235" rx="4" ry="4" fill="black" />
    <rect width="8" height="145.74638101802577" x="1796" y="2.126809490987114" rx="4" ry="4" fill="black" />
    <rect width="8" height="142.18921931742798" x="1812" y="3.905390341286008" rx="4" ry="4" fill="black" />
    <rect width="8" height="139.3465001913589" x="1828" y="5.32674990432055" rx="4" ry="4" fill="black" />
    <rect width="8" height="144.860358788438" x="1844" y="2.569820605781004" rx="4" ry="4" fill="black" />
    <rect width="8" height="140.11675667704827" x="1860" y="4.941621661475864" rx="4" ry="4" fill="black" />
    <rect width="8" height="144.20421641472385" x="1876" y="2.8978917926380774" rx="4" ry="4" fill="black" />
    <rect width="8" height="140.92996014349833" x="1892" y="4.535019928250833" rx="4" ry="4" fill="black" />
    <rect width="8" height="139.87902177338358" x="1908" y="5.060489113308208" rx="4" ry="4" fill="black" />
    <rect width="8" height="149.53376324061327" x="1924" y="0.2331183796933658" rx="4" ry="4" fill="black" />
    <rect width="8" height="141.58365636679412" x="1940" y="4.208171816602942" rx="4" ry="4" fill="black" />
    <rect width="8" height="142.34386332396414" x="1956" y="3.8280683380179283" rx="4" ry="4" fill="black" />
    <rect width="8" height="144.51220164840896" x="1972" y="2.7438991757955193" rx="4" ry="4" fill="black" />
    <rect width="8" height="142.74592397076958" x="1988" y="3.6270380146152092" rx="4" ry="4" fill="black" />
    <rect width="8" height="144.99607398540257" x="2004" y="2.5019630072987127" rx="4" ry="4" fill="black" />
    <rect width="8" height="139.81408245683292" x="2020" y="5.09295877158354" rx="4" ry="4" fill="black" />
    <rect width="8" height="142.0774194060821" x="2036" y="3.96129029695895" rx="4" ry="4" fill="black" />
    <rect width="8" height="145.80213345966544" x="2052" y="2.0989332701672794" rx="4" ry="4" fill="black" />
    <rect width="8" height="139.81266280914178" x="2068" y="5.093668595429108" rx="4" ry="4" fill="black" />
    <rect width="8" height="146.27690689938728" x="2084" y="1.8615465503063575" rx="4" ry="4" fill="black" />
    <rect width="8" height="135.10213834079372" x="2100" y="7.4489308296031425" rx="4" ry="4" fill="black" />
    <rect width="8" height="133.28053887277824" x="2116" y="8.359730563610881" rx="4" ry="4" fill="black" />
    <rect width="8" height="140.3809810776852" x="2132" y="4.809509461157404" rx="4" ry="4" fill="black" />
    <rect width="8" height="53.05773244341979" x="2148" y="48.47113377829011" rx="4" ry="4" fill="black" />
    <rect width="8" height="28.987466169440246" x="2164" y="60.50626691527988" rx="4" ry="4" fill="black" />
    <rect width="8" height="36.28880559906077" x="2180" y="56.85559720046962" rx="4" ry="4" fill="black" />
    <rect width="8" height="137.04462152216442" x="2196" y="6.47768923891779" rx="4" ry="4" fill="black" />
    <rect width="8" height="138.96571313391206" x="2212" y="5.5171434330439695" rx="4" ry="4" fill="black" />
    <rect width="8" height="127.5550434844596" x="2228" y="11.222478257770199" rx="4" ry="4" fill="black" />
    <rect width="8" height="141.34021074376403" x="2244" y="4.329894628117984" rx="4" ry="4" fill="black" />
    <rect width="8" height="138.54605886733077" x="2260" y="5.726970566334614" rx="4" ry="4" fill="black" />
    <rect width="8" height="126.92514147883777" x="2276" y="11.537429260581114" rx="4" ry="4" fill="black" />
    <rect width="8" height="132.86240963630502" x="2292" y="8.568795181847491" rx="4" ry="4" fill="black" />
    <rect width="8" height="126.36408100541732" x="2308" y="11.81795949729134" rx="4" ry="4" fill="black" />
    <rect width="8" height="129.37379544139077" x="2324" y="10.313102279304616" rx="4" ry="4" fill="black" />
    <rect width="8" height="131.81147119887936" x="2340" y="9.09426440056032" rx="4" ry="4" fill="black" />
    <rect width="8" height="47.55987186241404" x="2356" y="51.22006406879298" rx="4" ry="4" fill="black" />
    <rect width="8" height="19.91210499388442" x="2372" y="65.0439475030578" rx="4" ry="4" fill="black" />
    <rect width="8" height="8" x="2388" y="71" rx="4" ry="4" fill="black" />
  </g>
</svg>