<svg 
  baseProfile="tiny"
  preserveAspectRatio="true"
  version="1.2"
  viewBox="0 0 2400 150"
  height="100%" width="100%"
  xmlns="http://www.w3.org/2000/svg"
  xmlns:ev="http://www.w3.org/2001/xml-events"
  xmlns:xlink="http://www.w3.org/1999/xlink"
>
  <g>
    <rect width="8" height="27.201380443787336" x="4" y="61.39930977810633" rx="4" ry="4" fill="black" />
    <rect width="8" height="32.738309590638096" x="20" y="58.63084520468095" rx="4" ry="4" fill="black" />
    <rect width="8" height="67.4672706847978" x="36" y="41.2663646576011" rx="4" ry="4" fill="black" />
    <rect width="8" height="65.83203383566739" x="52" y="42.083983082166306" rx="4" ry="4" fill="black" />
    <rect width="8" height="8" x="68" y="71" rx="4" ry="4" fill="black" />
    <rect width="8" height="16.086309805085957" x="84" y="66.95684509745702" rx="4" ry="4" fill="black" />
    <rect width="8" height="66.32165349478814" x="100" y="41.83917325260593" rx="4" ry="4" fill="black" />
    <rect width="8" height="66.62762234727218" x="116" y="41.68618882636391" rx="4" ry="4" fill="black" />
    <rect width="8" height="36.94685997671556" x="132" y="56.52657001164222" rx="4" ry="4" fill="black" />
    <rect width="8" height="22.26020052125113" x="148" y="63.86989973937443" rx="4" ry="4" fill="black" />
    <rect width="8" height="61.8016079520258" x="164" y="44.099196023987105" rx="4" ry="4" fill="black" />
    <rect width="8" height="64.48398005526231" x="180" y="42.758009972368846" rx="4" ry="4" fill="black" />
    <rect width="8" height="51.11446951128572" x="196" y="49.44276524435714" rx="4" ry="4" fill="black" />
    <rect width="8" height="28.278947695532462" x="212" y="60.86052615223377" rx="4" ry="4" fill="black" />
    <rect width="8" height="55.33185830741077" x="228" y="47.334070846294615" rx="4" ry="4" fill="black" />
    <rect width="8" height="65.20192888648594" x="244" y="42.39903555675703" rx="4" ry="4" fill="black" />
    <rect width="8" height="66.7586451596839" x="260" y="41.62067742015805" rx="4" ry="4" fill="black" />
    <rect width="8" height="65.80698597522793" x="276" y="42.096507012386034" rx="4" ry="4" fill="black" />
    <rect width="8" height="65.56887538140975" x="292" y="42.21556230929512" rx="4" ry="4" fill="black" />
    <rect width="8" height="69.69492629161962" x="308" y="40.15253685419019" rx="4" ry="4" fill="black" />
    <rect width="8" height="69.05344384129663" x="324" y="40.47327807935169" rx="4" ry="4" fill="black" />
    <rect width="8" height="78.50335900570064" x="340" y="35.74832049714968" rx="4" ry="4" fill="black" />
    <rect width="8" height="61.03191220588946" x="356" y="44.48404389705527" rx="4" ry="4" fill="black" />
    <rect width="8" height="58.65440400209051" x="372" y="45.67279799895475" rx="4" ry="4" fill="black" />
    <rect width="8" height="60.368390246077475" x="388" y="44.815804876961266" rx="4" ry="4" fill="black" />
    <rect width="8" height="83.64286886939487" x="404" y="33.17856556530256" rx="4" ry="4" fill="black" />
    <rect width="8" height="75.82778195540735" x="420" y="37.08610902229633" rx="4" ry="4" fill="black" />
    <rect width="8" height="68.4678213963833" x="436" y="40.76608930180835" rx="4" ry="4" fill="black" />
    <rect width="8" height="102.1552899639705" x="452" y="23.92235501801475" rx="4" ry="4" fill="black" />
    <rect width="8" height="101.91276875053265" x="468" y="24.043615624733675" rx="4" ry="4" fill="black" />
    <rect width="8" height="112.48560277448847" x="484" y="18.757198612755765" rx="4" ry="4" fill="black" />
    <rect width="8" height="105.54947619548025" x="500" y="22.225261902259874" rx="4" ry="4" fill="black" />
    <rect width="8" height="104.70291351851887" x="516" y="22.648543240740565" rx="4" ry="4" fill="black" />
    <rect width="8" height="110.42817710997848" x="532" y="19.78591144501076" rx="4" ry="4" fill="black" />
    <rect width="8" height="115.53192254100541" x="548" y="17.234038729497293" rx="4" ry="4" fill="black" />
    <rect width="8" height="105.44322138577768" x="564" y="22.278389307111162" rx="4" ry="4" fill="black" />
    <rect width="8" height="104.88929428686386" x="580" y="22.55535285656807" rx="4" ry="4" fill="black" />
    <rect width="8" height="84.15411662583006" x="596" y="32.92294168708497" rx="4" ry="4" fill="black" />
    <rect width="8" height="99.39362322506949" x="612" y="25.303188387465255" rx="4" ry="4" fill="black" />
    <rect width="8" height="94.05995929747178" x="628" y="27.97002035126411" rx="4" ry="4" fill="black" />
    <rect width="8" height="110.77063166298377" x="644" y="19.614684168508113" rx="4" ry="4" fill="black" />
    <rect width="8" height="98.589925345039" x="660" y="25.705037327480497" rx="4" ry="4" fill="black" />
    <rect width="8" height="107.71322969672192" x="676" y="21.143385151639038" rx="4" ry="4" fill="black" />
    <rect width="8" height="100.37949425253112" x="692" y="24.81025287373444" rx="4" ry="4" fill="black" />
    <rect width="8" height="100.32861646924727" x="708" y="24.835691765376367" rx="4" ry="4" fill="black" />
    <rect width="8" height="98.23761560450956" x="724" y="25.88119219774522" rx="4" ry="4" fill="black" />
    <rect width="8" height="104.5361252068007" x="740" y="22.731937396599648" rx="4" ry="4" fill="black" />
    <rect width="8" height="107.72623981543914" x="756" y="21.13688009228043" rx="4" ry="4" fill="black" />
    <rect width="8" height="114.43850056581465" x="772" y="17.780749717092675" rx="4" ry="4" fill="black" />
    <rect width="8" height="109.84932586280198" x="788" y="20.075337068599012" rx="4" ry="4" fill="black" />
    <rect width="8" height="110.71751851354719" x="804" y="19.641240743226405" rx="4" ry="4" fill="black" />
    <rect width="8" height="104.69746693259616" x="820" y="22.65126653370192" rx="4" ry="4" fill="black" />
    <rect width="8" height="106.66196010047983" x="836" y="21.669019949760084" rx="4" ry="4" fill="black" />
    <rect width="8" height="105.51167742977272" x="852" y="22.24416128511364" rx="4" ry="4" fill="black" />
    <rect width="8" height="103.31450127109991" x="868" y="23.342749364450043" rx="4" ry="4" fill="black" />
    <rect width="8" height="104.24404057673549" x="884" y="22.877979711632257" rx="4" ry="4" fill="black" />
    <rect width="8" height="101.01730724340474" x="900" y="24.491346378297628" rx="4" ry="4" fill="black" />
    <rect width="8" height="102.52731262571612" x="916" y="23.73634368714194" rx="4" ry="4" fill="black" />
    <rect width="8" height="101.15318074199531" x="932" y="24.423409629002343" rx="4" ry="4" fill="black" />
    <rect width="8" height="105.83623231221783" x="948" y="22.081883843891084" rx="4" ry="4" fill="black" />
    <rect width="8" height="104.0069504074704" x="964" y="22.9965247962648" rx="4" ry="4" fill="black" />
    <rect width="8" height="106.14922905394049" x="980" y="21.925385473029756" rx="4" ry="4" fill="black" />
    <rect width="8" height="99.12614979922289" x="996" y="25.436925100388557" rx="4" ry="4" fill="black" />
    <rect width="8" height="114.59049049641487" x="1012" y="17.704754751792564" rx="4" ry="4" fill="black" />
    <rect width="8" height="106.26986828502984" x="1028" y="21.865065857485078" rx="4" ry="4" fill="black" />
    <rect width="8" height="112.30245498680088" x="1044" y="18.84877250659956" rx="4" ry="4" fill="black" />
    <rect width="8" height="98.43300635848917" x="1060" y="25.783496820755417" rx="4" ry="4" fill="black" />
    <rect width="8" height="108.71136800303117" x="1076" y="20.644315998484416" rx="4" ry="4" fill="black" />
    <rect width="8" height="109.45993401332217" x="1092" y="20.270032993338916" rx="4" ry="4" fill="black" />
    <rect width="8" height="117.49129278057124" x="1108" y="16.25435360971438" rx="4" ry="4" fill="black" />
    <rect width="8" height="109.13944420101926" x="1124" y="20.43027789949037" rx="4" ry="4" fill="black" />
    <rect width="8" height="122.17641331539116" x="1140" y="13.91179334230442" rx="4" ry="4" fill="black" />
    <rect width="8" height="112.65059306198353" x="1156" y="18.674703469008236" rx="4" ry="4" fill="black" />
    <rect width="8" height="118.33199286068988" x="1172" y="15.83400356965506" rx="4" ry="4" fill="black" />
    <rect width="8" height="106.3806877908136" x="1188" y="21.809656104593202" rx="4" ry="4" fill="black" />
    <rect width="8" height="95.47311208892025" x="1204" y="27.263443955539877" rx="4" ry="4" fill="black" />
    <rect width="8" height="93.44050201121917" x="1220" y="28.279748994390417" rx="4" ry="4" fill="black" />
    <rect width="8" height="91.93338990347274" x="1236" y="29.033305048263628" rx="4" ry="4" fill="black" />
    <rect width="8" height="89.87934005508929" x="1252" y="30.060329972455357" rx="4" ry="4" fill="black" />
    <rect width="8" height="41.216318408780594" x="1268" y="54.3918407956097" rx="4" ry="4" fill="black" />
    <rect width="8" height="38.54921823314701" x="1284" y="55.7253908834265" rx="4" ry="4" fill="black" />
    <rect width="8" height="32.69726681370733" x="1300" y="58.651366593146335" rx="4" ry="4" fill="black" />
    <rect width="8" height="39.05062089835794" x="1316" y="55.474689550821026" rx="4" ry="4" fill="black" />
    <rect width="8" height="36.714898927377675" x="1332" y="56.64255053631116" rx="4" ry="4" fill="black" />
    <rect width="8" height="48.7321805764742" x="1348" y="50.6339097117629" rx="4" ry="4" fill="black" />
    <rect width="8" height="46.463793869708816" x="1364" y="51.768103065145596" rx="4" ry="4" fill="black" />
    <rect width="8" height="48.04975240925095" x="1380" y="50.97512379537453" rx="4" ry="4" fill="black" />
    <rect width="8" height="78.46663192065645" x="1396" y="35.76668403967177" rx="4" ry="4" fill="black" />
    <rect width="8" height="79.04550865545991" x="1412" y="35.477245672270044" rx="4" ry="4" fill="black" />
    <rect width="8" height="79.62387989864597" x="1428" y="35.18806005067702" rx="4" ry="4" fill="black" />
    <rect width="8" height="78.68951474486894" x="1444" y="35.65524262756553" rx="4" ry="4" fill="black" />
    <rect width="8" height="78.66904011546289" x="1460" y="35.665479942268554" rx="4" ry="4" fill="black" />
    <rect width="8" height="79.83882972888833" x="1476" y="35.080585135555836" rx="4" ry="4" fill="black" />
    <rect width="8" height="82.4682030850027" x="1492" y="33.76589845749865" rx="4" ry="4" fill="black" />
    <rect width="8" height="85.87513252598542" x="1508" y="32.06243373700729" rx="4" ry="4" fill="black" />
    <rect width="8" height="85.63099015282415" x="1524" y="32.18450492358792" rx="4" ry="4" fill="black" />
    <rect width="8" height="83.31687278775216" x="1540" y="33.34156360612392" rx="4" ry="4" fill="black" />
    <rect width="8" height="85.9759707769785" x="1556" y="32.01201461151075" rx="4" ry="4" fill="black" />
    <rect width="8" height="84.91875764713744" x="1572" y="32.54062117643128" rx="4" ry="4" fill="black" />
    <rect width="8" height="85.65622832713338" x="1588" y="32.17188583643331" rx="4" ry="4" fill="black" />
    <rect width="8" height="83.76675205753402" x="1604" y="33.11662397123299" rx="4" ry="4" fill="black" />
    <rect width="8" height="83.96164374568336" x="1620" y="33.01917812715832" rx="4" ry="4" fill="black" />
    <rect width="8" height="81.54869141302262" x="1636" y="34.22565429348869" rx="4" ry="4" fill="black" />
    <rect width="8" height="77.7625043719872" x="1652" y="36.1187478140064" rx="4" ry="4" fill="black" />
    <rect width="8" height="77.25544868021308" x="1668" y="36.37227565989346" rx="4" ry="4" fill="black" />
    <rect width="8" height="131.70861894433952" x="1684" y="9.14569052783024" rx="4" ry="4" fill="black" />
    <rect width="8" height="125.19946663044263" x="1700" y="12.400266684778686" rx="4" ry="4" fill="black" />
    <rect width="8" height="134.00990938469982" x="1716" y="7.995045307650088" rx="4" ry="4" fill="black" />
    <rect width="8" height="129.7703311363648" x="1732" y="10.114834431817599" rx="4" ry="4" fill="black" />
    <rect width="8" height="132.30191189289684" x="1748" y="8.84904405355158" rx="4" ry="4" fill="black" />
    <rect width="8" height="142.02255524490815" x="1764" y="3.988722377545926" rx="4" ry="4" fill="black" />
    <rect width="8" height="144.08576265445768" x="1780" y="2.957118672771159" rx="4" ry="4" fill="black" />
    <rect width="8" height="117.52181713616675" x="1796" y="16.239091431916627" rx="4" ry="4" fill="black" />
    <rect width="8" height="129.45592570568573" x="1812" y="10.272037147157135" rx="4" ry="4" fill="black" />
    <rect width="8" height="126.70461819451779" x="1828" y="11.647690902741104" rx="4" ry="4" fill="black" />
    <rect width="8" height="127.0470809197195" x="1844" y="11.476459540140247" rx="4" ry="4" fill="black" />
    <rect width="8" height="122.7187351556793" x="1860" y="13.640632422160351" rx="4" ry="4" fill="black" />
    <rect width="8" height="128.6080696684136" x="1876" y="10.695965165793197" rx="4" ry="4" fill="black" />
    <rect width="8" height="143.43555574602306" x="1892" y="3.282222126988472" rx="4" ry="4" fill="black" />
    <rect width="8" height="135.18761756634595" x="1908" y="7.406191216827025" rx="4" ry="4" fill="black" />
    <rect width="8" height="122.08150871545094" x="1924" y="13.959245642274531" rx="4" ry="4" fill="black" />
    <rect width="8" height="134.37732199577124" x="1940" y="7.81133900211438" rx="4" ry="4" fill="black" />
    <rect width="8" height="150" x="1956" y="0" rx="4" ry="4" fill="black" />
    <rect width="8" height="149.22627792374527" x="1972" y="0.38686103812736405" rx="4" ry="4" fill="black" />
    <rect width="8" height="126.29608819801447" x="1988" y="11.851955900992763" rx="4" ry="4" fill="black" />
    <rect width="8" height="121.21956655163318" x="2004" y="14.39021672418341" rx="4" ry="4" fill="black" />
    <rect width="8" height="127.38234421094985" x="2020" y="11.308827894525074" rx="4" ry="4" fill="black" />
    <rect width="8" height="113.31376047120482" x="2036" y="18.343119764397592" rx="4" ry="4" fill="black" />
    <rect width="8" height="124.37559402411864" x="2052" y="12.81220298794068" rx="4" ry="4" fill="black" />
    <rect width="8" height="114.20396829118319" x="2068" y="17.898015854408406" rx="4" ry="4" fill="black" />
    <rect width="8" height="118.73915123449596" x="2084" y="15.630424382752018" rx="4" ry="4" fill="black" />
    <rect width="8" height="122.1878888566835" x="2100" y="13.90605557165825" rx="4" ry="4" fill="black" />
    <rect width="8" height="126.49490500619369" x="2116" y="11.752547496903155" rx="4" ry="4" fill="black" />
    <rect width="8" height="124.74306152156753" x="2132" y="12.628469239216237" rx="4" ry="4" fill="black" />
    <rect width="8" height="131.5645200077815" x="2148" y="9.217739996109245" rx="4" ry="4" fill="black" />
    <rect width="8" height="127.94200458688951" x="2164" y="11.028997706555245" rx="4" ry="4" fill="black" />
    <rect width="8" height="125.8669195890862" x="2180" y="12.066540205456903" rx="4" ry="4" fill="black" />
    <rect width="8" height="120.04626195956472" x="2196" y="14.976869020217642" rx="4" ry="4" fill="black" />
    <rect width="8" height="117.05613847845875" x="2212" y="16.471930760770626" rx="4" ry="4" fill="black" />
    <rect width="8" height="122.1551816524276" x="2228" y="13.9224091737862" rx="4" ry="4" fill="black" />
    <rect width="8" height="124.21196022589822" x="2244" y="12.894019887050888" rx="4" ry="4" fill="black" />
    <rect width="8" height="115.12664020162754" x="2260" y="17.43667989918623" rx="4" ry="4" fill="black" />
    <rect width="8" height="120.62293854258029" x="2276" y="14.688530728709857" rx="4" ry="4" fill="black" />
    <rect width="8" height="117.34342201110206" x="2292" y="16.328288994448968" rx="4" ry="4" fill="black" />
    <rect width="8" height="126.47706751149478" x="2308" y="11.76146624425261" rx="4" ry="4" fill="black" />
    <rect width="8" height="120.61525111776652" x="2324" y="14.69237444111674" rx="4" ry="4" fill="black" />
    <rect width="8" height="114.28445744019943" x="2340" y="17.857771279900284" rx="4" ry="4" fill="black" />
    <rect width="8" height="31.595239705618056" x="2356" y="59.20238014719097" rx="4" ry="4" fill="black" />
    <rect width="8" height="8" x="2372" y="71" rx="4" ry="4" fill="black" />
    <rect width="8" height="8" x="2388" y="71" rx="4" ry="4" fill="black" />
  </g>
</svg>