<svg 
  baseProfile="tiny"
  preserveAspectRatio="keep"
  version="1.2"
  viewBox="0 0 2400 150"
  height="100%" width="100%"
  xmlns="http://www.w3.org/2000/svg"
  xmlns:ev="http://www.w3.org/2001/xml-events"
  xmlns:xlink="http://www.w3.org/1999/xlink"
>
  <g>
    <rect width="8" height="95.49031146623348" x="4" y="27.25484426688326" rx="4" ry="4" fill="black" />
    <rect width="8" height="99.10259261583371" x="20" y="25.448703692083143" rx="4" ry="4" fill="black" />
    <rect width="8" height="99.25890791486613" x="36" y="25.370546042566936" rx="4" ry="4" fill="black" />
    <rect width="8" height="95.61246336496268" x="52" y="27.19376831751866" rx="4" ry="4" fill="black" />
    <rect width="8" height="97.05649967573771" x="68" y="26.471750162131144" rx="4" ry="4" fill="black" />
    <rect width="8" height="96.45952244567914" x="84" y="26.77023877716043" rx="4" ry="4" fill="black" />
    <rect width="8" height="100.099529005501" x="100" y="24.9502354972495" rx="4" ry="4" fill="black" />
    <rect width="8" height="99.69110538395182" x="116" y="25.15444730802409" rx="4" ry="4" fill="black" />
    <rect width="8" height="99.14546651461433" x="132" y="25.427266742692836" rx="4" ry="4" fill="black" />
    <rect width="8" height="98.99281277425276" x="148" y="25.503593612873622" rx="4" ry="4" fill="black" />
    <rect width="8" height="93.04190199370504" x="164" y="28.47904900314748" rx="4" ry="4" fill="black" />
    <rect width="8" height="98.09487914585115" x="180" y="25.952560427074424" rx="4" ry="4" fill="black" />
    <rect width="8" height="97.98087655538548" x="196" y="26.00956172230726" rx="4" ry="4" fill="black" />
    <rect width="8" height="98.43751285984894" x="212" y="25.78124357007553" rx="4" ry="4" fill="black" />
    <rect width="8" height="105.4663752783491" x="228" y="22.266812360825448" rx="4" ry="4" fill="black" />
    <rect width="8" height="112.99420018465737" x="244" y="18.502899907671313" rx="4" ry="4" fill="black" />
    <rect width="8" height="111.38828408237248" x="260" y="19.30585795881376" rx="4" ry="4" fill="black" />
    <rect width="8" height="107.76742887699025" x="276" y="21.116285561504874" rx="4" ry="4" fill="black" />
    <rect width="8" height="114.39389117018982" x="292" y="17.80305441490509" rx="4" ry="4" fill="black" />
    <rect width="8" height="117.21067848993764" x="308" y="16.394660755031182" rx="4" ry="4" fill="black" />
    <rect width="8" height="89.92187066122153" x="324" y="30.039064669389234" rx="4" ry="4" fill="black" />
    <rect width="8" height="35.430271986453384" x="340" y="57.284864006773304" rx="4" ry="4" fill="black" />
    <rect width="8" height="20.564677145365785" x="356" y="64.71766142731711" rx="4" ry="4" fill="black" />
    <rect width="8" height="33.5134827497759" x="372" y="58.24325862511205" rx="4" ry="4" fill="black" />
    <rect width="8" height="23.76182666073625" x="388" y="63.119086669631876" rx="4" ry="4" fill="black" />
    <rect width="8" height="19.169355276247064" x="404" y="65.41532236187646" rx="4" ry="4" fill="black" />
    <rect width="8" height="23.460911880793667" x="420" y="63.26954405960316" rx="4" ry="4" fill="black" />
    <rect width="8" height="25.908256945274196" x="436" y="62.045871527362905" rx="4" ry="4" fill="black" />
    <rect width="8" height="33.290940512876226" x="452" y="58.35452974356188" rx="4" ry="4" fill="black" />
    <rect width="8" height="27.01762503596638" x="468" y="61.49118748201681" rx="4" ry="4" fill="black" />
    <rect width="8" height="20.806048684872056" x="484" y="64.59697565756397" rx="4" ry="4" fill="black" />
    <rect width="8" height="22.726512346047052" x="500" y="63.63674382697647" rx="4" ry="4" fill="black" />
    <rect width="8" height="26.94777651774716" x="516" y="61.52611174112642" rx="4" ry="4" fill="black" />
    <rect width="8" height="43.312257537746724" x="532" y="53.34387123112664" rx="4" ry="4" fill="black" />
    <rect width="8" height="40.63898571381292" x="548" y="54.680507143093536" rx="4" ry="4" fill="black" />
    <rect width="8" height="35.53524892229254" x="564" y="57.23237553885373" rx="4" ry="4" fill="black" />
    <rect width="8" height="45.386817807567105" x="580" y="52.30659109621645" rx="4" ry="4" fill="black" />
    <rect width="8" height="43.54643609640176" x="596" y="53.22678195179912" rx="4" ry="4" fill="black" />
    <rect width="8" height="43.30091441714392" x="612" y="53.349542791428036" rx="4" ry="4" fill="black" />
    <rect width="8" height="42.390089749785524" x="628" y="53.80495512510724" rx="4" ry="4" fill="black" />
    <rect width="8" height="38.80889202525907" x="644" y="55.595553987370465" rx="4" ry="4" fill="black" />
    <rect width="8" height="85.27270219338546" x="660" y="32.36364890330727" rx="4" ry="4" fill="black" />
    <rect width="8" height="87.70605021771587" x="676" y="31.146974891142065" rx="4" ry="4" fill="black" />
    <rect width="8" height="93.31831302667307" x="692" y="28.340843486663466" rx="4" ry="4" fill="black" />
    <rect width="8" height="88.53607179646743" x="708" y="30.731964101766287" rx="4" ry="4" fill="black" />
    <rect width="8" height="83.5754308367455" x="724" y="33.21228458162725" rx="4" ry="4" fill="black" />
    <rect width="8" height="89.35095626575935" x="740" y="30.324521867120325" rx="4" ry="4" fill="black" />
    <rect width="8" height="91.16887904361903" x="756" y="29.415560478190486" rx="4" ry="4" fill="black" />
    <rect width="8" height="83.96381926177546" x="772" y="33.01809036911227" rx="4" ry="4" fill="black" />
    <rect width="8" height="92.70960853164452" x="788" y="28.64519573417774" rx="4" ry="4" fill="black" />
    <rect width="8" height="92.84953827632562" x="804" y="28.57523086183719" rx="4" ry="4" fill="black" />
    <rect width="8" height="87.5258677735956" x="820" y="31.237066113202197" rx="4" ry="4" fill="black" />
    <rect width="8" height="88.13592896606934" x="836" y="30.93203551696533" rx="4" ry="4" fill="black" />
    <rect width="8" height="92.06936523976789" x="852" y="28.965317380116055" rx="4" ry="4" fill="black" />
    <rect width="8" height="91.99073624993024" x="868" y="29.00463187503488" rx="4" ry="4" fill="black" />
    <rect width="8" height="86.82887845948039" x="884" y="31.585560770259804" rx="4" ry="4" fill="black" />
    <rect width="8" height="93.69356201166065" x="900" y="28.153218994169677" rx="4" ry="4" fill="black" />
    <rect width="8" height="100.5480813405131" x="916" y="24.725959329743453" rx="4" ry="4" fill="black" />
    <rect width="8" height="91.82527996385589" x="932" y="29.087360018072054" rx="4" ry="4" fill="black" />
    <rect width="8" height="96.48226358245016" x="948" y="26.75886820877492" rx="4" ry="4" fill="black" />
    <rect width="8" height="94.72527687905011" x="964" y="27.637361560474943" rx="4" ry="4" fill="black" />
    <rect width="8" height="112.20284258982636" x="980" y="18.89857870508682" rx="4" ry="4" fill="black" />
    <rect width="8" height="101.15740776479373" x="996" y="24.421296117603134" rx="4" ry="4" fill="black" />
    <rect width="8" height="99.59224019332206" x="1012" y="25.203879903338972" rx="4" ry="4" fill="black" />
    <rect width="8" height="104.07085819008144" x="1028" y="22.96457090495928" rx="4" ry="4" fill="black" />
    <rect width="8" height="100.25618033342707" x="1044" y="24.871909833286466" rx="4" ry="4" fill="black" />
    <rect width="8" height="116.60464593071008" x="1060" y="16.69767703464496" rx="4" ry="4" fill="black" />
    <rect width="8" height="112.87066740766122" x="1076" y="18.564666296169392" rx="4" ry="4" fill="black" />
    <rect width="8" height="101.44597277417778" x="1092" y="24.277013612911112" rx="4" ry="4" fill="black" />
    <rect width="8" height="105.79791372405961" x="1108" y="22.101043137970194" rx="4" ry="4" fill="black" />
    <rect width="8" height="107.51934105621275" x="1124" y="21.240329471893624" rx="4" ry="4" fill="black" />
    <rect width="8" height="115.06570755797034" x="1140" y="17.46714622101483" rx="4" ry="4" fill="black" />
    <rect width="8" height="117.11487611420226" x="1156" y="16.44256194289887" rx="4" ry="4" fill="black" />
    <rect width="8" height="107.68846712589718" x="1172" y="21.155766437051412" rx="4" ry="4" fill="black" />
    <rect width="8" height="107.29310068243456" x="1188" y="21.353449658782722" rx="4" ry="4" fill="black" />
    <rect width="8" height="115.78579974931061" x="1204" y="17.107100125344694" rx="4" ry="4" fill="black" />
    <rect width="8" height="126.1805176928989" x="1220" y="11.909741153550549" rx="4" ry="4" fill="black" />
    <rect width="8" height="122.28221492745888" x="1236" y="13.85889253627056" rx="4" ry="4" fill="black" />
    <rect width="8" height="109.43278501579387" x="1252" y="20.283607492103066" rx="4" ry="4" fill="black" />
    <rect width="8" height="108.43715842563427" x="1268" y="20.781420787182867" rx="4" ry="4" fill="black" />
    <rect width="8" height="67.33966472995618" x="1284" y="41.33016763502191" rx="4" ry="4" fill="black" />
    <rect width="8" height="70.18917236099821" x="1300" y="39.90541381950089" rx="4" ry="4" fill="black" />
    <rect width="8" height="79.05479960093793" x="1316" y="35.47260019953104" rx="4" ry="4" fill="black" />
    <rect width="8" height="78.05003342371614" x="1332" y="35.97498328814193" rx="4" ry="4" fill="black" />
    <rect width="8" height="115.10892972167537" x="1348" y="17.445535139162317" rx="4" ry="4" fill="black" />
    <rect width="8" height="123.33628704500403" x="1364" y="13.331856477497986" rx="4" ry="4" fill="black" />
    <rect width="8" height="115.14450207533635" x="1380" y="17.427748962331826" rx="4" ry="4" fill="black" />
    <rect width="8" height="118.69225110392863" x="1396" y="15.653874448035687" rx="4" ry="4" fill="black" />
    <rect width="8" height="118.60404836600483" x="1412" y="15.697975816997584" rx="4" ry="4" fill="black" />
    <rect width="8" height="120.53135539375398" x="1428" y="14.734322303123008" rx="4" ry="4" fill="black" />
    <rect width="8" height="116.6183043204778" x="1444" y="16.690847839761098" rx="4" ry="4" fill="black" />
    <rect width="8" height="114.36227735860925" x="1460" y="17.818861320695376" rx="4" ry="4" fill="black" />
    <rect width="8" height="125.78128674632762" x="1476" y="12.109356626836188" rx="4" ry="4" fill="black" />
    <rect width="8" height="126.0274136178201" x="1492" y="11.986293191089949" rx="4" ry="4" fill="black" />
    <rect width="8" height="119.84640956704673" x="1508" y="15.076795216476633" rx="4" ry="4" fill="black" />
    <rect width="8" height="116.40975230437249" x="1524" y="16.795123847813755" rx="4" ry="4" fill="black" />
    <rect width="8" height="123.84255411316961" x="1540" y="13.078722943415194" rx="4" ry="4" fill="black" />
    <rect width="8" height="133.17383253548653" x="1556" y="8.413083732256737" rx="4" ry="4" fill="black" />
    <rect width="8" height="121.79014554110601" x="1572" y="14.104927229446993" rx="4" ry="4" fill="black" />
    <rect width="8" height="125.78176406747588" x="1588" y="12.109117966262062" rx="4" ry="4" fill="black" />
    <rect width="8" height="122.46654820515064" x="1604" y="13.766725897424678" rx="4" ry="4" fill="black" />
    <rect width="8" height="118.24941533179062" x="1620" y="15.875292334104692" rx="4" ry="4" fill="black" />
    <rect width="8" height="96.7240452781542" x="1636" y="26.637977360922903" rx="4" ry="4" fill="black" />
    <rect width="8" height="140.7891931142002" x="1652" y="4.605403442899899" rx="4" ry="4" fill="black" />
    <rect width="8" height="124.45605529960321" x="1668" y="12.771972350198396" rx="4" ry="4" fill="black" />
    <rect width="8" height="117.24988583561444" x="1684" y="16.375057082192782" rx="4" ry="4" fill="black" />
    <rect width="8" height="130.36605347385083" x="1700" y="9.816973263074587" rx="4" ry="4" fill="black" />
    <rect width="8" height="124.0493104898565" x="1716" y="12.975344755071752" rx="4" ry="4" fill="black" />
    <rect width="8" height="120.03501355828494" x="1732" y="14.982493220857528" rx="4" ry="4" fill="black" />
    <rect width="8" height="136.19374182898483" x="1748" y="6.903129085507587" rx="4" ry="4" fill="black" />
    <rect width="8" height="136.59912185302542" x="1764" y="6.7004390734872885" rx="4" ry="4" fill="black" />
    <rect width="8" height="131.63149005252822" x="1780" y="9.18425497373589" rx="4" ry="4" fill="black" />
    <rect width="8" height="143.7212850988433" x="1796" y="3.139357450578345" rx="4" ry="4" fill="black" />
    <rect width="8" height="150" x="1812" y="0" rx="4" ry="4" fill="black" />
    <rect width="8" height="131.98958398051838" x="1828" y="9.005208009740812" rx="4" ry="4" fill="black" />
    <rect width="8" height="124.64901831383686" x="1844" y="12.675490843081569" rx="4" ry="4" fill="black" />
    <rect width="8" height="129.09453336538007" x="1860" y="10.452733317309963" rx="4" ry="4" fill="black" />
    <rect width="8" height="140.02117165049546" x="1876" y="4.98941417475227" rx="4" ry="4" fill="black" />
    <rect width="8" height="141.13387155026683" x="1892" y="4.433064224866584" rx="4" ry="4" fill="black" />
    <rect width="8" height="134.63328623643403" x="1908" y="7.683356881782984" rx="4" ry="4" fill="black" />
    <rect width="8" height="145.87440225375386" x="1924" y="2.0627988731230715" rx="4" ry="4" fill="black" />
    <rect width="8" height="126.95181321924507" x="1940" y="11.524093390377466" rx="4" ry="4" fill="black" />
    <rect width="8" height="75.17749334804428" x="1956" y="37.41125332597786" rx="4" ry="4" fill="black" />
    <rect width="8" height="66.7057115993359" x="1972" y="41.64714420033205" rx="4" ry="4" fill="black" />
    <rect width="8" height="47.70449770261772" x="1988" y="51.14775114869114" rx="4" ry="4" fill="black" />
    <rect width="8" height="37.74095533115555" x="2004" y="56.12952233442223" rx="4" ry="4" fill="black" />
    <rect width="8" height="36.85573695968995" x="2020" y="56.572131520155025" rx="4" ry="4" fill="black" />
    <rect width="8" height="44.018097339377285" x="2036" y="52.99095133031136" rx="4" ry="4" fill="black" />
    <rect width="8" height="49.69317156183719" x="2052" y="50.153414219081405" rx="4" ry="4" fill="black" />
    <rect width="8" height="42.24162355798378" x="2068" y="53.87918822100811" rx="4" ry="4" fill="black" />
    <rect width="8" height="33.34171475095006" x="2084" y="58.32914262452497" rx="4" ry="4" fill="black" />
    <rect width="8" height="24.884720914703795" x="2100" y="62.557639542648104" rx="4" ry="4" fill="black" />
    <rect width="8" height="49.928220749743474" x="2116" y="50.03588962512826" rx="4" ry="4" fill="black" />
    <rect width="8" height="50.54541978770935" x="2132" y="49.727290106145325" rx="4" ry="4" fill="black" />
    <rect width="8" height="30.93481047631227" x="2148" y="59.53259476184387" rx="4" ry="4" fill="black" />
    <rect width="8" height="27.690975972896698" x="2164" y="61.15451201355165" rx="4" ry="4" fill="black" />
    <rect width="8" height="31.97784468980603" x="2180" y="59.01107765509698" rx="4" ry="4" fill="black" />
    <rect width="8" height="54.30461206004562" x="2196" y="47.847693969977186" rx="4" ry="4" fill="black" />
    <rect width="8" height="49.70111790701694" x="2212" y="50.14944104649153" rx="4" ry="4" fill="black" />
    <rect width="8" height="31.1343135969364" x="2228" y="59.432843201531796" rx="4" ry="4" fill="black" />
    <rect width="8" height="23.666954081088416" x="2244" y="63.16652295945579" rx="4" ry="4" fill="black" />
    <rect width="8" height="30.388922393361057" x="2260" y="59.80553880331947" rx="4" ry="4" fill="black" />
    <rect width="8" height="52.156763508283966" x="2276" y="48.92161824585801" rx="4" ry="4" fill="black" />
    <rect width="8" height="45.066254702641594" x="2292" y="52.4668726486792" rx="4" ry="4" fill="black" />
    <rect width="8" height="39.97549272208844" x="2308" y="55.012253638955784" rx="4" ry="4" fill="black" />
    <rect width="8" height="8" x="2324" y="71" rx="4" ry="4" fill="black" />
    <rect width="8" height="8" x="2340" y="71" rx="4" ry="4" fill="black" />
    <rect width="8" height="20.528585522609525" x="2356" y="64.73570723869524" rx="4" ry="4" fill="black" />
    <rect width="8" height="8" x="2372" y="71" rx="4" ry="4" fill="black" />
    <rect width="8" height="8" x="2388" y="71" rx="4" ry="4" fill="black" />
  </g>
</svg>