<svg 
  baseProfile="tiny"
  preserveAspectRatio="true"
  version="1.2"
  viewBox="0 0 2400 150"
  height="100%" width="100%"
  xmlns="http://www.w3.org/2000/svg"
  xmlns:ev="http://www.w3.org/2001/xml-events"
  xmlns:xlink="http://www.w3.org/1999/xlink"
>
  <g>
    <rect width="8" height="43.3550016600609" x="4" y="53.32249916996955" rx="4" ry="4" fill="black" />
    <rect width="8" height="55.65363498891213" x="20" y="47.173182505543934" rx="4" ry="4" fill="black" />
    <rect width="8" height="56.15162588586385" x="36" y="46.924187057068075" rx="4" ry="4" fill="black" />
    <rect width="8" height="28.356105264895323" x="52" y="60.82194736755234" rx="4" ry="4" fill="black" />
    <rect width="8" height="44.317369237194406" x="68" y="52.841315381402794" rx="4" ry="4" fill="black" />
    <rect width="8" height="27.74267512013791" x="84" y="61.12866243993105" rx="4" ry="4" fill="black" />
    <rect width="8" height="74.28789164120239" x="100" y="37.856054179398804" rx="4" ry="4" fill="black" />
    <rect width="8" height="44.0036231480635" x="116" y="52.99818842596825" rx="4" ry="4" fill="black" />
    <rect width="8" height="43.3957234996587" x="132" y="53.30213825017065" rx="4" ry="4" fill="black" />
    <rect width="8" height="28.97902467982882" x="148" y="60.51048766008559" rx="4" ry="4" fill="black" />
    <rect width="8" height="66.25036268505251" x="164" y="41.874818657473746" rx="4" ry="4" fill="black" />
    <rect width="8" height="56.238383337085104" x="180" y="46.880808331457445" rx="4" ry="4" fill="black" />
    <rect width="8" height="43.70997085273438" x="196" y="53.14501457363281" rx="4" ry="4" fill="black" />
    <rect width="8" height="43.40083286455846" x="212" y="53.299583567720774" rx="4" ry="4" fill="black" />
    <rect width="8" height="47.0736360089344" x="228" y="51.4631819955328" rx="4" ry="4" fill="black" />
    <rect width="8" height="89.98547038543165" x="244" y="30.007264807284173" rx="4" ry="4" fill="black" />
    <rect width="8" height="54.12744191266182" x="260" y="47.93627904366909" rx="4" ry="4" fill="black" />
    <rect width="8" height="50.486469399437034" x="276" y="49.75676530028149" rx="4" ry="4" fill="black" />
    <rect width="8" height="114.85298334187192" x="292" y="17.57350832906404" rx="4" ry="4" fill="black" />
    <rect width="8" height="107.65395288912033" x="308" y="21.173023555439833" rx="4" ry="4" fill="black" />
    <rect width="8" height="110.06463812822469" x="324" y="19.967680935887657" rx="4" ry="4" fill="black" />
    <rect width="8" height="103.59717861531558" x="340" y="23.201410692342208" rx="4" ry="4" fill="black" />
    <rect width="8" height="108.41456726259457" x="356" y="20.792716368702713" rx="4" ry="4" fill="black" />
    <rect width="8" height="101.13167659241121" x="372" y="24.434161703794395" rx="4" ry="4" fill="black" />
    <rect width="8" height="115.89401576626786" x="388" y="17.052992116866072" rx="4" ry="4" fill="black" />
    <rect width="8" height="108.64154904942215" x="404" y="20.679225475288924" rx="4" ry="4" fill="black" />
    <rect width="8" height="88.68999050296286" x="420" y="30.65500474851857" rx="4" ry="4" fill="black" />
    <rect width="8" height="117.03982630607301" x="436" y="16.480086846963495" rx="4" ry="4" fill="black" />
    <rect width="8" height="131.83647633388387" x="452" y="9.081761833058067" rx="4" ry="4" fill="black" />
    <rect width="8" height="122.9751787942772" x="468" y="13.5124106028614" rx="4" ry="4" fill="black" />
    <rect width="8" height="119.90149138663055" x="484" y="15.049254306684723" rx="4" ry="4" fill="black" />
    <rect width="8" height="122.91583508570622" x="500" y="13.54208245714689" rx="4" ry="4" fill="black" />
    <rect width="8" height="124.15184247279423" x="516" y="12.924078763602886" rx="4" ry="4" fill="black" />
    <rect width="8" height="118.23961821804258" x="532" y="15.88019089097871" rx="4" ry="4" fill="black" />
    <rect width="8" height="130.87575177546114" x="548" y="9.56212411226943" rx="4" ry="4" fill="black" />
    <rect width="8" height="125.55381711986283" x="564" y="12.223091440068586" rx="4" ry="4" fill="black" />
    <rect width="8" height="105.15640632211033" x="580" y="22.421796838944836" rx="4" ry="4" fill="black" />
    <rect width="8" height="122.41980074174066" x="596" y="13.79009962912967" rx="4" ry="4" fill="black" />
    <rect width="8" height="113.92978408562671" x="612" y="18.035107957186646" rx="4" ry="4" fill="black" />
    <rect width="8" height="115.16985174757986" x="628" y="17.415074126210072" rx="4" ry="4" fill="black" />
    <rect width="8" height="108.19238822374214" x="644" y="20.90380588812893" rx="4" ry="4" fill="black" />
    <rect width="8" height="119.4252708245539" x="660" y="15.287364587723047" rx="4" ry="4" fill="black" />
    <rect width="8" height="123.92055082486286" x="676" y="13.039724587568571" rx="4" ry="4" fill="black" />
    <rect width="8" height="112.81440266142769" x="692" y="18.592798669286154" rx="4" ry="4" fill="black" />
    <rect width="8" height="128.9291222343409" x="708" y="10.535438882829553" rx="4" ry="4" fill="black" />
    <rect width="8" height="110.47085017655573" x="724" y="19.764574911722136" rx="4" ry="4" fill="black" />
    <rect width="8" height="128.40250304012372" x="740" y="10.79874847993814" rx="4" ry="4" fill="black" />
    <rect width="8" height="97.34910664955109" x="756" y="26.325446675224455" rx="4" ry="4" fill="black" />
    <rect width="8" height="112.42945208076246" x="772" y="18.78527395961877" rx="4" ry="4" fill="black" />
    <rect width="8" height="108.21158808002272" x="788" y="20.89420595998864" rx="4" ry="4" fill="black" />
    <rect width="8" height="121.43838780975406" x="804" y="14.28080609512297" rx="4" ry="4" fill="black" />
    <rect width="8" height="126.44379590804269" x="820" y="11.778102045978656" rx="4" ry="4" fill="black" />
    <rect width="8" height="105.70081055237588" x="836" y="22.149594723812058" rx="4" ry="4" fill="black" />
    <rect width="8" height="104.6359969827557" x="852" y="22.68200150862215" rx="4" ry="4" fill="black" />
    <rect width="8" height="103.94915986075857" x="868" y="23.025420069620715" rx="4" ry="4" fill="black" />
    <rect width="8" height="126.70729020589543" x="884" y="11.646354897052284" rx="4" ry="4" fill="black" />
    <rect width="8" height="121.5337423505029" x="900" y="14.233128824748547" rx="4" ry="4" fill="black" />
    <rect width="8" height="115.18775983613871" x="916" y="17.406120081930645" rx="4" ry="4" fill="black" />
    <rect width="8" height="126.35380067794188" x="932" y="11.823099661029062" rx="4" ry="4" fill="black" />
    <rect width="8" height="128.23734348127093" x="948" y="10.881328259364537" rx="4" ry="4" fill="black" />
    <rect width="8" height="130.63175867765085" x="964" y="9.684120661174575" rx="4" ry="4" fill="black" />
    <rect width="8" height="121.79817902737675" x="980" y="14.100910486311626" rx="4" ry="4" fill="black" />
    <rect width="8" height="128.448384873431" x="996" y="10.775807563284502" rx="4" ry="4" fill="black" />
    <rect width="8" height="34.23366678104808" x="1012" y="57.883166609475964" rx="4" ry="4" fill="black" />
    <rect width="8" height="55.253707243228035" x="1028" y="47.37314637838598" rx="4" ry="4" fill="black" />
    <rect width="8" height="40.01113814135743" x="1044" y="54.99443092932128" rx="4" ry="4" fill="black" />
    <rect width="8" height="49.244447612449164" x="1060" y="50.37777619377542" rx="4" ry="4" fill="black" />
    <rect width="8" height="40.95670014571077" x="1076" y="54.521649927144615" rx="4" ry="4" fill="black" />
    <rect width="8" height="55.782033903216714" x="1092" y="47.10898304839164" rx="4" ry="4" fill="black" />
    <rect width="8" height="53.864111685333754" x="1108" y="48.06794415733312" rx="4" ry="4" fill="black" />
    <rect width="8" height="62.18109914495005" x="1124" y="43.90945042752497" rx="4" ry="4" fill="black" />
    <rect width="8" height="47.81705557052021" x="1140" y="51.091472214739895" rx="4" ry="4" fill="black" />
    <rect width="8" height="101.8525392175512" x="1156" y="24.0737303912244" rx="4" ry="4" fill="black" />
    <rect width="8" height="83.18221427700514" x="1172" y="33.40889286149743" rx="4" ry="4" fill="black" />
    <rect width="8" height="104.63554086037443" x="1188" y="22.682229569812783" rx="4" ry="4" fill="black" />
    <rect width="8" height="95.62559470771598" x="1204" y="27.187202646142012" rx="4" ry="4" fill="black" />
    <rect width="8" height="105.48768883827836" x="1220" y="22.25615558086082" rx="4" ry="4" fill="black" />
    <rect width="8" height="102.36093493973766" x="1236" y="23.81953253013117" rx="4" ry="4" fill="black" />
    <rect width="8" height="107.08249967359717" x="1252" y="21.458750163201415" rx="4" ry="4" fill="black" />
    <rect width="8" height="105.08980636329653" x="1268" y="22.455096818351734" rx="4" ry="4" fill="black" />
    <rect width="8" height="75.08970586620501" x="1284" y="37.455147066897496" rx="4" ry="4" fill="black" />
    <rect width="8" height="38.66192125934012" x="1300" y="55.66903937032994" rx="4" ry="4" fill="black" />
    <rect width="8" height="45.74145242532183" x="1316" y="52.12927378733909" rx="4" ry="4" fill="black" />
    <rect width="8" height="44.149705478644165" x="1332" y="52.92514726067792" rx="4" ry="4" fill="black" />
    <rect width="8" height="41.17215255871041" x="1348" y="54.413923720644796" rx="4" ry="4" fill="black" />
    <rect width="8" height="108.8875036503471" x="1364" y="20.55624817482645" rx="4" ry="4" fill="black" />
    <rect width="8" height="112.15476689127796" x="1380" y="18.92261655436102" rx="4" ry="4" fill="black" />
    <rect width="8" height="86.28001503279707" x="1396" y="31.859992483601467" rx="4" ry="4" fill="black" />
    <rect width="8" height="113.36918167998043" x="1412" y="18.315409160009786" rx="4" ry="4" fill="black" />
    <rect width="8" height="101.0196551375115" x="1428" y="24.490172431244247" rx="4" ry="4" fill="black" />
    <rect width="8" height="111.01523564673776" x="1444" y="19.492382176631118" rx="4" ry="4" fill="black" />
    <rect width="8" height="111.59294885624647" x="1460" y="19.203525571876767" rx="4" ry="4" fill="black" />
    <rect width="8" height="108.2105603044759" x="1476" y="20.894719847762047" rx="4" ry="4" fill="black" />
    <rect width="8" height="109.8876456505379" x="1492" y="20.056177174731047" rx="4" ry="4" fill="black" />
    <rect width="8" height="77.36120216243394" x="1508" y="36.31939891878303" rx="4" ry="4" fill="black" />
    <rect width="8" height="95.65752050861123" x="1524" y="27.171239745694386" rx="4" ry="4" fill="black" />
    <rect width="8" height="99.92892913632917" x="1540" y="25.035535431835413" rx="4" ry="4" fill="black" />
    <rect width="8" height="77.79423199047442" x="1556" y="36.10288400476279" rx="4" ry="4" fill="black" />
    <rect width="8" height="108.05609827283035" x="1572" y="20.971950863584823" rx="4" ry="4" fill="black" />
    <rect width="8" height="127.00908207686913" x="1588" y="11.495458961565433" rx="4" ry="4" fill="black" />
    <rect width="8" height="134.22596313289526" x="1604" y="7.88701843355237" rx="4" ry="4" fill="black" />
    <rect width="8" height="111.97143882040416" x="1620" y="19.01428058979792" rx="4" ry="4" fill="black" />
    <rect width="8" height="125.74207542413919" x="1636" y="12.128962287930406" rx="4" ry="4" fill="black" />
    <rect width="8" height="109.14776346342612" x="1652" y="20.42611826828694" rx="4" ry="4" fill="black" />
    <rect width="8" height="129.5676861727637" x="1668" y="10.21615691361815" rx="4" ry="4" fill="black" />
    <rect width="8" height="129.40983017637325" x="1684" y="10.295084911813376" rx="4" ry="4" fill="black" />
    <rect width="8" height="116.22230348595114" x="1700" y="16.888848257024428" rx="4" ry="4" fill="black" />
    <rect width="8" height="120.18319176602849" x="1716" y="14.908404116985757" rx="4" ry="4" fill="black" />
    <rect width="8" height="107.34273799006289" x="1732" y="21.328631004968557" rx="4" ry="4" fill="black" />
    <rect width="8" height="122.32643130046861" x="1748" y="13.836784349765693" rx="4" ry="4" fill="black" />
    <rect width="8" height="143.97299829447877" x="1764" y="3.0135008527606146" rx="4" ry="4" fill="black" />
    <rect width="8" height="138.9561663804152" x="1780" y="5.521916809792401" rx="4" ry="4" fill="black" />
    <rect width="8" height="132.58393235736514" x="1796" y="8.708033821317429" rx="4" ry="4" fill="black" />
    <rect width="8" height="130.03807696781" x="1812" y="9.980961516094993" rx="4" ry="4" fill="black" />
    <rect width="8" height="135.19244327285438" x="1828" y="7.403778363572812" rx="4" ry="4" fill="black" />
    <rect width="8" height="116.9270943698747" x="1844" y="16.536452815062653" rx="4" ry="4" fill="black" />
    <rect width="8" height="123.36919108162198" x="1860" y="13.315404459189011" rx="4" ry="4" fill="black" />
    <rect width="8" height="122.8336295592548" x="1876" y="13.583185220372599" rx="4" ry="4" fill="black" />
    <rect width="8" height="131.3022362878162" x="1892" y="9.348881856091893" rx="4" ry="4" fill="black" />
    <rect width="8" height="150" x="1908" y="0" rx="4" ry="4" fill="black" />
    <rect width="8" height="134.45282683115596" x="1924" y="7.77358658442202" rx="4" ry="4" fill="black" />
    <rect width="8" height="108.46054902191115" x="1940" y="20.769725489044426" rx="4" ry="4" fill="black" />
    <rect width="8" height="127.12470414842109" x="1956" y="11.437647925789456" rx="4" ry="4" fill="black" />
    <rect width="8" height="132.77585841043577" x="1972" y="8.612070794782113" rx="4" ry="4" fill="black" />
    <rect width="8" height="119.07665645626128" x="1988" y="15.461671771869362" rx="4" ry="4" fill="black" />
    <rect width="8" height="114.65763100126071" x="2004" y="17.671184499369645" rx="4" ry="4" fill="black" />
    <rect width="8" height="118.79864833165706" x="2020" y="15.600675834171469" rx="4" ry="4" fill="black" />
    <rect width="8" height="114.31734812525585" x="2036" y="17.841325937372076" rx="4" ry="4" fill="black" />
    <rect width="8" height="142.78511993101023" x="2052" y="3.6074400344948856" rx="4" ry="4" fill="black" />
    <rect width="8" height="104.70227250904533" x="2068" y="22.648863745477335" rx="4" ry="4" fill="black" />
    <rect width="8" height="111.87322663437571" x="2084" y="19.063386682812144" rx="4" ry="4" fill="black" />
    <rect width="8" height="105.79732046497934" x="2100" y="22.101339767510332" rx="4" ry="4" fill="black" />
    <rect width="8" height="111.23380327019207" x="2116" y="19.383098364903965" rx="4" ry="4" fill="black" />
    <rect width="8" height="107.19261809560135" x="2132" y="21.403690952199327" rx="4" ry="4" fill="black" />
    <rect width="8" height="89.50310974025595" x="2148" y="30.248445129872024" rx="4" ry="4" fill="black" />
    <rect width="8" height="108.99797753540388" x="2164" y="20.50101123229806" rx="4" ry="4" fill="black" />
    <rect width="8" height="102.96729463362814" x="2180" y="23.51635268318593" rx="4" ry="4" fill="black" />
    <rect width="8" height="107.50917079267956" x="2196" y="21.245414603660222" rx="4" ry="4" fill="black" />
    <rect width="8" height="107.75258462779266" x="2212" y="21.12370768610367" rx="4" ry="4" fill="black" />
    <rect width="8" height="68.49349856880684" x="2228" y="40.75325071559658" rx="4" ry="4" fill="black" />
    <rect width="8" height="69.21035451846618" x="2244" y="40.39482274076691" rx="4" ry="4" fill="black" />
    <rect width="8" height="62.43469442889103" x="2260" y="43.78265278555449" rx="4" ry="4" fill="black" />
    <rect width="8" height="65.4231163531087" x="2276" y="42.28844182344565" rx="4" ry="4" fill="black" />
    <rect width="8" height="63.845148635696944" x="2292" y="43.07742568215153" rx="4" ry="4" fill="black" />
    <rect width="8" height="66.07923153998486" x="2308" y="41.96038423000757" rx="4" ry="4" fill="black" />
    <rect width="8" height="64.34247366051554" x="2324" y="42.82876316974223" rx="4" ry="4" fill="black" />
    <rect width="8" height="66.08801615597338" x="2340" y="41.95599192201331" rx="4" ry="4" fill="black" />
    <rect width="8" height="68.02028553398628" x="2356" y="40.98985723300686" rx="4" ry="4" fill="black" />
    <rect width="8" height="8" x="2372" y="71" rx="4" ry="4" fill="black" />
    <rect width="8" height="8" x="2388" y="71" rx="4" ry="4" fill="black" />
  </g>
</svg>