<svg 
  baseProfile="tiny"
  preserveAspectRatio="keep"
  version="1.2"
  viewBox="0 0 2400 150"
  height="100%" width="100%"
  xmlns="http://www.w3.org/2000/svg"
  xmlns:ev="http://www.w3.org/2001/xml-events"
  xmlns:xlink="http://www.w3.org/1999/xlink"
>
  <g>
    <rect width="8" height="47.15584644759764" x="4" y="51.42207677620118" rx="4" ry="4" fill="black" />
    <rect width="8" height="44.02324921244404" x="20" y="52.98837539377798" rx="4" ry="4" fill="black" />
    <rect width="8" height="54.99661171190557" x="36" y="47.501694144047214" rx="4" ry="4" fill="black" />
    <rect width="8" height="65.95876904723855" x="52" y="42.020615476380726" rx="4" ry="4" fill="black" />
    <rect width="8" height="43.101440477265925" x="68" y="53.44927976136704" rx="4" ry="4" fill="black" />
    <rect width="8" height="109.3946619609152" x="84" y="20.3026690195424" rx="4" ry="4" fill="black" />
    <rect width="8" height="120.19112086528399" x="100" y="14.904439567358004" rx="4" ry="4" fill="black" />
    <rect width="8" height="107.18557712634542" x="116" y="21.40721143682729" rx="4" ry="4" fill="black" />
    <rect width="8" height="122.37168098360287" x="132" y="13.814159508198564" rx="4" ry="4" fill="black" />
    <rect width="8" height="98.9841728041559" x="148" y="25.507913597922048" rx="4" ry="4" fill="black" />
    <rect width="8" height="144.16507684280106" x="164" y="2.9174615785994717" rx="4" ry="4" fill="black" />
    <rect width="8" height="132.62385258783956" x="180" y="8.688073706080218" rx="4" ry="4" fill="black" />
    <rect width="8" height="140.4278391713346" x="196" y="4.786080414332702" rx="4" ry="4" fill="black" />
    <rect width="8" height="129.20529715420244" x="212" y="10.39735142289878" rx="4" ry="4" fill="black" />
    <rect width="8" height="132.52406008648583" x="228" y="8.737969956757084" rx="4" ry="4" fill="black" />
    <rect width="8" height="140.1704385305111" x="244" y="4.914780734744454" rx="4" ry="4" fill="black" />
    <rect width="8" height="133.77728636242833" x="260" y="8.111356818785836" rx="4" ry="4" fill="black" />
    <rect width="8" height="139.97361580222608" x="276" y="5.013192098886961" rx="4" ry="4" fill="black" />
    <rect width="8" height="121.58785592799188" x="292" y="14.206072036004059" rx="4" ry="4" fill="black" />
    <rect width="8" height="135.658473012444" x="308" y="7.170763493777997" rx="4" ry="4" fill="black" />
    <rect width="8" height="137.76211240024088" x="324" y="6.11894379987956" rx="4" ry="4" fill="black" />
    <rect width="8" height="134.75839922303658" x="340" y="7.620800388481712" rx="4" ry="4" fill="black" />
    <rect width="8" height="126.6940879671785" x="356" y="11.652956016410748" rx="4" ry="4" fill="black" />
    <rect width="8" height="129.50288521172092" x="372" y="10.248557394139539" rx="4" ry="4" fill="black" />
    <rect width="8" height="131.26090994837062" x="388" y="9.369545025814688" rx="4" ry="4" fill="black" />
    <rect width="8" height="142.61441612488713" x="404" y="3.6927919375564358" rx="4" ry="4" fill="black" />
    <rect width="8" height="131.88873722733777" x="420" y="9.055631386331115" rx="4" ry="4" fill="black" />
    <rect width="8" height="126.15296817224922" x="436" y="11.923515913875391" rx="4" ry="4" fill="black" />
    <rect width="8" height="137.11238194205822" x="452" y="6.44380902897089" rx="4" ry="4" fill="black" />
    <rect width="8" height="130.95958157558792" x="468" y="9.52020921220604" rx="4" ry="4" fill="black" />
    <rect width="8" height="149.24728733853325" x="484" y="0.3763563307333726" rx="4" ry="4" fill="black" />
    <rect width="8" height="120.10845440829485" x="500" y="14.945772795852577" rx="4" ry="4" fill="black" />
    <rect width="8" height="131.339542441008" x="516" y="9.330228779495997" rx="4" ry="4" fill="black" />
    <rect width="8" height="127.25337641055822" x="532" y="11.373311794720891" rx="4" ry="4" fill="black" />
    <rect width="8" height="132.6885364438666" x="548" y="8.655731778066695" rx="4" ry="4" fill="black" />
    <rect width="8" height="148.0592909539555" x="564" y="0.9703545230222517" rx="4" ry="4" fill="black" />
    <rect width="8" height="125.30978773927082" x="580" y="12.345106130364591" rx="4" ry="4" fill="black" />
    <rect width="8" height="133.31504350428432" x="596" y="8.34247824785784" rx="4" ry="4" fill="black" />
    <rect width="8" height="133.64731375463893" x="612" y="8.176343122680535" rx="4" ry="4" fill="black" />
    <rect width="8" height="136.34011755446903" x="628" y="6.829941222765484" rx="4" ry="4" fill="black" />
    <rect width="8" height="134.55328028699373" x="644" y="7.723359856503137" rx="4" ry="4" fill="black" />
    <rect width="8" height="132.6851193955413" x="660" y="8.657440302229347" rx="4" ry="4" fill="black" />
    <rect width="8" height="123.07463990248903" x="676" y="13.462680048755487" rx="4" ry="4" fill="black" />
    <rect width="8" height="139.78019884459033" x="692" y="5.109900577704835" rx="4" ry="4" fill="black" />
    <rect width="8" height="131.7850551826784" x="708" y="9.107472408660797" rx="4" ry="4" fill="black" />
    <rect width="8" height="72.15200611314371" x="724" y="38.92399694342814" rx="4" ry="4" fill="black" />
    <rect width="8" height="69.3776865192098" x="740" y="40.3111567403951" rx="4" ry="4" fill="black" />
    <rect width="8" height="81.72588731342992" x="756" y="34.13705634328504" rx="4" ry="4" fill="black" />
    <rect width="8" height="85.59970366021777" x="772" y="32.200148169891115" rx="4" ry="4" fill="black" />
    <rect width="8" height="97.01000349578108" x="788" y="26.49499825210946" rx="4" ry="4" fill="black" />
    <rect width="8" height="150" x="804" y="0" rx="4" ry="4" fill="black" />
    <rect width="8" height="127.78963811674981" x="820" y="11.105180941625093" rx="4" ry="4" fill="black" />
    <rect width="8" height="139.53295246383075" x="836" y="5.233523768084623" rx="4" ry="4" fill="black" />
    <rect width="8" height="127.16490108808513" x="852" y="11.417549455957435" rx="4" ry="4" fill="black" />
    <rect width="8" height="139.72926777287526" x="868" y="5.13536611356237" rx="4" ry="4" fill="black" />
    <rect width="8" height="142.3330598964562" x="884" y="3.833470051771897" rx="4" ry="4" fill="black" />
    <rect width="8" height="131.63297376714826" x="900" y="9.183513116425871" rx="4" ry="4" fill="black" />
    <rect width="8" height="132.6562694951771" x="916" y="8.67186525241145" rx="4" ry="4" fill="black" />
    <rect width="8" height="132.3091581381384" x="932" y="8.8454209309308" rx="4" ry="4" fill="black" />
    <rect width="8" height="141.61542830476816" x="948" y="4.192285847615921" rx="4" ry="4" fill="black" />
    <rect width="8" height="144.83365742547863" x="964" y="2.583171287260683" rx="4" ry="4" fill="black" />
    <rect width="8" height="135.42522147543184" x="980" y="7.28738926228408" rx="4" ry="4" fill="black" />
    <rect width="8" height="126.70980032280485" x="996" y="11.645099838597574" rx="4" ry="4" fill="black" />
    <rect width="8" height="136.12477062771248" x="1012" y="6.93761468614376" rx="4" ry="4" fill="black" />
    <rect width="8" height="136.70953467599705" x="1028" y="6.645232662001476" rx="4" ry="4" fill="black" />
    <rect width="8" height="144.42577965183986" x="1044" y="2.7871101740800697" rx="4" ry="4" fill="black" />
    <rect width="8" height="129.69084572977386" x="1060" y="10.154577135113072" rx="4" ry="4" fill="black" />
    <rect width="8" height="131.2373777683128" x="1076" y="9.381311115843602" rx="4" ry="4" fill="black" />
    <rect width="8" height="135.74010087837732" x="1092" y="7.12994956081134" rx="4" ry="4" fill="black" />
    <rect width="8" height="105.99208229932849" x="1108" y="22.003958850335756" rx="4" ry="4" fill="black" />
    <rect width="8" height="93.02173821519058" x="1124" y="28.48913089240471" rx="4" ry="4" fill="black" />
    <rect width="8" height="82.06059183459311" x="1140" y="33.969704082703444" rx="4" ry="4" fill="black" />
    <rect width="8" height="77.20525967833203" x="1156" y="36.39737016083399" rx="4" ry="4" fill="black" />
    <rect width="8" height="95.25870821256316" x="1172" y="27.370645893718418" rx="4" ry="4" fill="black" />
    <rect width="8" height="92.35313425450765" x="1188" y="28.823432872746174" rx="4" ry="4" fill="black" />
    <rect width="8" height="86.44147827222791" x="1204" y="31.779260863886044" rx="4" ry="4" fill="black" />
    <rect width="8" height="85.11971683669466" x="1220" y="32.44014158165267" rx="4" ry="4" fill="black" />
    <rect width="8" height="76.56216315730376" x="1236" y="36.71891842134812" rx="4" ry="4" fill="black" />
    <rect width="8" height="99.82323522509898" x="1252" y="25.08838238745051" rx="4" ry="4" fill="black" />
    <rect width="8" height="89.3894320619188" x="1268" y="30.3052839690406" rx="4" ry="4" fill="black" />
    <rect width="8" height="94.2970574494109" x="1284" y="27.85147127529455" rx="4" ry="4" fill="black" />
    <rect width="8" height="82.87414262704985" x="1300" y="33.562928686475075" rx="4" ry="4" fill="black" />
    <rect width="8" height="84.53141635060479" x="1316" y="32.73429182469761" rx="4" ry="4" fill="black" />
    <rect width="8" height="98.25340108255664" x="1332" y="25.873299458721682" rx="4" ry="4" fill="black" />
    <rect width="8" height="97.16174724350643" x="1348" y="26.419126378246787" rx="4" ry="4" fill="black" />
    <rect width="8" height="88.80788155117219" x="1364" y="30.596059224413906" rx="4" ry="4" fill="black" />
    <rect width="8" height="87.33451361367894" x="1380" y="31.332743193160532" rx="4" ry="4" fill="black" />
    <rect width="8" height="84.24373137078787" x="1396" y="32.878134314606065" rx="4" ry="4" fill="black" />
    <rect width="8" height="106.23542880878429" x="1412" y="21.882285595607854" rx="4" ry="4" fill="black" />
    <rect width="8" height="142.81211622276032" x="1428" y="3.593941888619838" rx="4" ry="4" fill="black" />
    <rect width="8" height="131.15591815149318" x="1444" y="9.422040924253409" rx="4" ry="4" fill="black" />
    <rect width="8" height="134.1670121456138" x="1460" y="7.916493927193102" rx="4" ry="4" fill="black" />
    <rect width="8" height="137.74777269463033" x="1476" y="6.126113652684836" rx="4" ry="4" fill="black" />
    <rect width="8" height="128.6991215372858" x="1492" y="10.650439231357097" rx="4" ry="4" fill="black" />
    <rect width="8" height="149.84822101742705" x="1508" y="0.07588949128647471" rx="4" ry="4" fill="black" />
    <rect width="8" height="122.93220868007697" x="1524" y="13.533895659961516" rx="4" ry="4" fill="black" />
    <rect width="8" height="134.3302155394227" x="1540" y="7.834892230288645" rx="4" ry="4" fill="black" />
    <rect width="8" height="122.20503040039966" x="1556" y="13.897484799800168" rx="4" ry="4" fill="black" />
    <rect width="8" height="137.01691351791357" x="1572" y="6.4915432410432174" rx="4" ry="4" fill="black" />
    <rect width="8" height="145.81905592159413" x="1588" y="2.090472039202936" rx="4" ry="4" fill="black" />
    <rect width="8" height="131.26931678343666" x="1604" y="9.365341608281668" rx="4" ry="4" fill="black" />
    <rect width="8" height="133.7177671311566" x="1620" y="8.141116434421704" rx="4" ry="4" fill="black" />
    <rect width="8" height="125.09535618235978" x="1636" y="12.45232190882011" rx="4" ry="4" fill="black" />
    <rect width="8" height="139.13763019443672" x="1652" y="5.431184902781638" rx="4" ry="4" fill="black" />
    <rect width="8" height="147.41515960705027" x="1668" y="1.2924201964748647" rx="4" ry="4" fill="black" />
    <rect width="8" height="134.6764914471063" x="1684" y="7.661754276446857" rx="4" ry="4" fill="black" />
    <rect width="8" height="126.78508315816188" x="1700" y="11.607458420919059" rx="4" ry="4" fill="black" />
    <rect width="8" height="133.2458399110994" x="1716" y="8.377080044450295" rx="4" ry="4" fill="black" />
    <rect width="8" height="109.89751993081012" x="1732" y="20.05124003459494" rx="4" ry="4" fill="black" />
    <rect width="8" height="146.81224351581105" x="1748" y="1.5938782420944761" rx="4" ry="4" fill="black" />
    <rect width="8" height="132.78071435030472" x="1764" y="8.60964282484764" rx="4" ry="4" fill="black" />
    <rect width="8" height="128.33700319094103" x="1780" y="10.831498404529484" rx="4" ry="4" fill="black" />
    <rect width="8" height="130.4846119841397" x="1796" y="9.757694007930155" rx="4" ry="4" fill="black" />
    <rect width="8" height="133.0394113697915" x="1812" y="8.480294315104246" rx="4" ry="4" fill="black" />
    <rect width="8" height="147.42624212587546" x="1828" y="1.2868789370622693" rx="4" ry="4" fill="black" />
    <rect width="8" height="128.32817975646586" x="1844" y="10.835910121767071" rx="4" ry="4" fill="black" />
    <rect width="8" height="136.1715095059356" x="1860" y="6.9142452470321984" rx="4" ry="4" fill="black" />
    <rect width="8" height="125.23226602750654" x="1876" y="12.38386698624673" rx="4" ry="4" fill="black" />
    <rect width="8" height="136.36636582576713" x="1892" y="6.8168170871164335" rx="4" ry="4" fill="black" />
    <rect width="8" height="128.51234798365041" x="1908" y="10.743826008174793" rx="4" ry="4" fill="black" />
    <rect width="8" height="134.8991033552661" x="1924" y="7.550448322366947" rx="4" ry="4" fill="black" />
    <rect width="8" height="126.03029925249706" x="1940" y="11.98485037375147" rx="4" ry="4" fill="black" />
    <rect width="8" height="129.40013658075463" x="1956" y="10.299931709622683" rx="4" ry="4" fill="black" />
    <rect width="8" height="130.69585278050224" x="1972" y="9.652073609748882" rx="4" ry="4" fill="black" />
    <rect width="8" height="127.71725159499148" x="1988" y="11.14137420250426" rx="4" ry="4" fill="black" />
    <rect width="8" height="133.39120579269368" x="2004" y="8.304397103653159" rx="4" ry="4" fill="black" />
    <rect width="8" height="120.62505135030328" x="2020" y="14.68747432484836" rx="4" ry="4" fill="black" />
    <rect width="8" height="132.42356761531198" x="2036" y="8.78821619234401" rx="4" ry="4" fill="black" />
    <rect width="8" height="94.68986284586259" x="2052" y="27.655068577068704" rx="4" ry="4" fill="black" />
    <rect width="8" height="141.6963116230657" x="2068" y="4.151844188467152" rx="4" ry="4" fill="black" />
    <rect width="8" height="138.75695041244796" x="2084" y="5.621524793776018" rx="4" ry="4" fill="black" />
    <rect width="8" height="136.32192917022527" x="2100" y="6.839035414887363" rx="4" ry="4" fill="black" />
    <rect width="8" height="133.98356388665803" x="2116" y="8.008218056670984" rx="4" ry="4" fill="black" />
    <rect width="8" height="131.50275992554657" x="2132" y="9.248620037226715" rx="4" ry="4" fill="black" />
    <rect width="8" height="142.1250488482539" x="2148" y="3.9374755758730515" rx="4" ry="4" fill="black" />
    <rect width="8" height="140.39110405429878" x="2164" y="4.80444797285061" rx="4" ry="4" fill="black" />
    <rect width="8" height="141.73962219941077" x="2180" y="4.130188900294613" rx="4" ry="4" fill="black" />
    <rect width="8" height="129.75433465051884" x="2196" y="10.122832674740579" rx="4" ry="4" fill="black" />
    <rect width="8" height="140.2211116441611" x="2212" y="4.889444177919444" rx="4" ry="4" fill="black" />
    <rect width="8" height="137.48840542326272" x="2228" y="6.25579728836864" rx="4" ry="4" fill="black" />
    <rect width="8" height="143.15864015292084" x="2244" y="3.4206799235395806" rx="4" ry="4" fill="black" />
    <rect width="8" height="129.32429858870864" x="2260" y="10.337850705645678" rx="4" ry="4" fill="black" />
    <rect width="8" height="131.78370782608866" x="2276" y="9.10814608695567" rx="4" ry="4" fill="black" />
    <rect width="8" height="136.51969698887905" x="2292" y="6.740151505560476" rx="4" ry="4" fill="black" />
    <rect width="8" height="143.29794607186454" x="2308" y="3.351026964067728" rx="4" ry="4" fill="black" />
    <rect width="8" height="144.35017105427013" x="2324" y="2.8249144728649327" rx="4" ry="4" fill="black" />
    <rect width="8" height="129.09617843293196" x="2340" y="10.451910783534018" rx="4" ry="4" fill="black" />
    <rect width="8" height="140.37794767700203" x="2356" y="4.811026161498987" rx="4" ry="4" fill="black" />
    <rect width="8" height="133.73372845226044" x="2372" y="8.133135773869782" rx="4" ry="4" fill="black" />
    <rect width="8" height="8" x="2388" y="71" rx="4" ry="4" fill="black" />
  </g>
</svg>