<svg 
  baseProfile="tiny"
  preserveAspectRatio="true"
  version="1.2"
  viewBox="0 0 2400 150"
  height="100%" width="100%"
  xmlns="http://www.w3.org/2000/svg"
  xmlns:ev="http://www.w3.org/2001/xml-events"
  xmlns:xlink="http://www.w3.org/1999/xlink"
>
  <g>
    <rect width="8" height="24.352229921004977" x="4" y="62.82388503949751" rx="4" ry="4" fill="black" />
    <rect width="8" height="35.36636515056573" x="20" y="57.31681742471714" rx="4" ry="4" fill="black" />
    <rect width="8" height="33.661045143937095" x="36" y="58.169477428031456" rx="4" ry="4" fill="black" />
    <rect width="8" height="40.66572403377818" x="52" y="54.667137983110905" rx="4" ry="4" fill="black" />
    <rect width="8" height="58.38732709037649" x="68" y="45.806336454811756" rx="4" ry="4" fill="black" />
    <rect width="8" height="62.377791310284564" x="84" y="43.81110434485772" rx="4" ry="4" fill="black" />
    <rect width="8" height="76.72952947400346" x="100" y="36.63523526299827" rx="4" ry="4" fill="black" />
    <rect width="8" height="87.32899646950884" x="116" y="31.33550176524558" rx="4" ry="4" fill="black" />
    <rect width="8" height="86.02089460256701" x="132" y="31.989552698716494" rx="4" ry="4" fill="black" />
    <rect width="8" height="81.52545215224822" x="148" y="34.23727392387589" rx="4" ry="4" fill="black" />
    <rect width="8" height="78.92635215940453" x="164" y="35.536823920297735" rx="4" ry="4" fill="black" />
    <rect width="8" height="88.07204706083233" x="180" y="30.963976469583834" rx="4" ry="4" fill="black" />
    <rect width="8" height="76.90772512884953" x="196" y="36.54613743557523" rx="4" ry="4" fill="black" />
    <rect width="8" height="85.61876044910674" x="212" y="32.19061977544663" rx="4" ry="4" fill="black" />
    <rect width="8" height="96.05755774122274" x="228" y="26.97122112938863" rx="4" ry="4" fill="black" />
    <rect width="8" height="79.7771413509094" x="244" y="35.1114293245453" rx="4" ry="4" fill="black" />
    <rect width="8" height="87.11771763515216" x="260" y="31.44114118242392" rx="4" ry="4" fill="black" />
    <rect width="8" height="89.47361719334624" x="276" y="30.26319140332688" rx="4" ry="4" fill="black" />
    <rect width="8" height="19.79436689279244" x="292" y="65.10281655360379" rx="4" ry="4" fill="black" />
    <rect width="8" height="34.929000534115055" x="308" y="57.53549973294247" rx="4" ry="4" fill="black" />
    <rect width="8" height="23.220831517781797" x="324" y="63.389584241109105" rx="4" ry="4" fill="black" />
    <rect width="8" height="28.276281799720774" x="340" y="60.86185910013961" rx="4" ry="4" fill="black" />
    <rect width="8" height="28.784579996379136" x="356" y="60.60771000181043" rx="4" ry="4" fill="black" />
    <rect width="8" height="33.50891941931553" x="372" y="58.245540290342234" rx="4" ry="4" fill="black" />
    <rect width="8" height="19.259760792857463" x="388" y="65.37011960357127" rx="4" ry="4" fill="black" />
    <rect width="8" height="29.166769627995453" x="404" y="60.416615186002275" rx="4" ry="4" fill="black" />
    <rect width="8" height="26.698474850790905" x="420" y="61.65076257460455" rx="4" ry="4" fill="black" />
    <rect width="8" height="27.25591167142193" x="436" y="61.372044164289036" rx="4" ry="4" fill="black" />
    <rect width="8" height="27.433779711030887" x="452" y="61.28311014448455" rx="4" ry="4" fill="black" />
    <rect width="8" height="39.076576838503826" x="468" y="55.46171158074809" rx="4" ry="4" fill="black" />
    <rect width="8" height="40.91023291928182" x="484" y="54.544883540359095" rx="4" ry="4" fill="black" />
    <rect width="8" height="50.86975381671577" x="500" y="49.565123091642114" rx="4" ry="4" fill="black" />
    <rect width="8" height="62.83672596111722" x="516" y="43.58163701944139" rx="4" ry="4" fill="black" />
    <rect width="8" height="83.1247709194177" x="532" y="33.43761454029115" rx="4" ry="4" fill="black" />
    <rect width="8" height="133.05631491913257" x="548" y="8.471842540433713" rx="4" ry="4" fill="black" />
    <rect width="8" height="134.87862700304132" x="564" y="7.560686498479342" rx="4" ry="4" fill="black" />
    <rect width="8" height="127.74542102371626" x="580" y="11.12728948814187" rx="4" ry="4" fill="black" />
    <rect width="8" height="136.20682824057732" x="596" y="6.896585879711338" rx="4" ry="4" fill="black" />
    <rect width="8" height="124.33739709987499" x="612" y="12.831301450062504" rx="4" ry="4" fill="black" />
    <rect width="8" height="141.01563116409844" x="628" y="4.4921844179507815" rx="4" ry="4" fill="black" />
    <rect width="8" height="124.47288809989165" x="644" y="12.763555950054176" rx="4" ry="4" fill="black" />
    <rect width="8" height="143.37207334464298" x="660" y="3.3139633276785077" rx="4" ry="4" fill="black" />
    <rect width="8" height="128.83112551523527" x="676" y="10.584437242382364" rx="4" ry="4" fill="black" />
    <rect width="8" height="140.84185726867673" x="692" y="4.579071365661633" rx="4" ry="4" fill="black" />
    <rect width="8" height="137.67252916269166" x="708" y="6.16373541865417" rx="4" ry="4" fill="black" />
    <rect width="8" height="126.50652553144768" x="724" y="11.74673723427616" rx="4" ry="4" fill="black" />
    <rect width="8" height="140.45744686659725" x="740" y="4.771276566701374" rx="4" ry="4" fill="black" />
    <rect width="8" height="127.61966109129663" x="756" y="11.190169454351683" rx="4" ry="4" fill="black" />
    <rect width="8" height="139.38071402318107" x="772" y="5.309642988409465" rx="4" ry="4" fill="black" />
    <rect width="8" height="124.15046697706207" x="788" y="12.924766511468967" rx="4" ry="4" fill="black" />
    <rect width="8" height="139.18730141521257" x="804" y="5.406349292393713" rx="4" ry="4" fill="black" />
    <rect width="8" height="133.1919027857977" x="820" y="8.404048607101146" rx="4" ry="4" fill="black" />
    <rect width="8" height="130.89149159182213" x="836" y="9.554254204088934" rx="4" ry="4" fill="black" />
    <rect width="8" height="137.01361655099254" x="852" y="6.493191724503731" rx="4" ry="4" fill="black" />
    <rect width="8" height="127.90316115298131" x="868" y="11.048419423509344" rx="4" ry="4" fill="black" />
    <rect width="8" height="136.5782689851865" x="884" y="6.710865507406751" rx="4" ry="4" fill="black" />
    <rect width="8" height="124.69418643338629" x="900" y="12.652906783306854" rx="4" ry="4" fill="black" />
    <rect width="8" height="144.29933584310004" x="916" y="2.8503320784499806" rx="4" ry="4" fill="black" />
    <rect width="8" height="128.01379858353621" x="932" y="10.993100708231893" rx="4" ry="4" fill="black" />
    <rect width="8" height="43.24336099184407" x="948" y="53.378319504077965" rx="4" ry="4" fill="black" />
    <rect width="8" height="44.906390124307464" x="964" y="52.54680493784627" rx="4" ry="4" fill="black" />
    <rect width="8" height="37.59161120426001" x="980" y="56.20419439787" rx="4" ry="4" fill="black" />
    <rect width="8" height="40.35157813218258" x="996" y="54.82421093390871" rx="4" ry="4" fill="black" />
    <rect width="8" height="51.31204434021348" x="1012" y="49.34397782989326" rx="4" ry="4" fill="black" />
    <rect width="8" height="49.6284423605109" x="1028" y="50.18577881974455" rx="4" ry="4" fill="black" />
    <rect width="8" height="77.98387937491557" x="1044" y="36.00806031254221" rx="4" ry="4" fill="black" />
    <rect width="8" height="77.32553001738945" x="1060" y="36.33723499130527" rx="4" ry="4" fill="black" />
    <rect width="8" height="66.189613416111" x="1076" y="41.9051932919445" rx="4" ry="4" fill="black" />
    <rect width="8" height="70.14739836950056" x="1092" y="39.92630081524972" rx="4" ry="4" fill="black" />
    <rect width="8" height="73.55194132491422" x="1108" y="38.22402933754289" rx="4" ry="4" fill="black" />
    <rect width="8" height="90.85392728900594" x="1124" y="29.57303635549703" rx="4" ry="4" fill="black" />
    <rect width="8" height="137.6502808935214" x="1140" y="6.174859553239301" rx="4" ry="4" fill="black" />
    <rect width="8" height="123.88091231375819" x="1156" y="13.059543843120906" rx="4" ry="4" fill="black" />
    <rect width="8" height="144.76975512304324" x="1172" y="2.61512243847838" rx="4" ry="4" fill="black" />
    <rect width="8" height="131.1125081517524" x="1188" y="9.443745924123803" rx="4" ry="4" fill="black" />
    <rect width="8" height="140.78869012514528" x="1204" y="4.60565493742736" rx="4" ry="4" fill="black" />
    <rect width="8" height="133.3728613012259" x="1220" y="8.313569349387052" rx="4" ry="4" fill="black" />
    <rect width="8" height="135.23218176591655" x="1236" y="7.383909117041725" rx="4" ry="4" fill="black" />
    <rect width="8" height="139.6667716519711" x="1252" y="5.166614174014455" rx="4" ry="4" fill="black" />
    <rect width="8" height="133.35315377354036" x="1268" y="8.323423113229822" rx="4" ry="4" fill="black" />
    <rect width="8" height="140.08324935188224" x="1284" y="4.958375324058878" rx="4" ry="4" fill="black" />
    <rect width="8" height="127.54750541558175" x="1300" y="11.226247292209123" rx="4" ry="4" fill="black" />
    <rect width="8" height="149.37391063605057" x="1316" y="0.31304468197471635" rx="4" ry="4" fill="black" />
    <rect width="8" height="134.52802349475857" x="1332" y="7.735988252620714" rx="4" ry="4" fill="black" />
    <rect width="8" height="142.04543328803402" x="1348" y="3.9772833559829905" rx="4" ry="4" fill="black" />
    <rect width="8" height="136.45194764626973" x="1364" y="6.774026176865135" rx="4" ry="4" fill="black" />
    <rect width="8" height="134.7495335487439" x="1380" y="7.625233225628051" rx="4" ry="4" fill="black" />
    <rect width="8" height="145.06878747762775" x="1396" y="2.4656062611861245" rx="4" ry="4" fill="black" />
    <rect width="8" height="135.21850692521278" x="1412" y="7.3907465373936105" rx="4" ry="4" fill="black" />
    <rect width="8" height="146.23262645005477" x="1428" y="1.8836867749726167" rx="4" ry="4" fill="black" />
    <rect width="8" height="135.01908181829492" x="1444" y="7.490459090852539" rx="4" ry="4" fill="black" />
    <rect width="8" height="145.17897289919873" x="1460" y="2.410513550400637" rx="4" ry="4" fill="black" />
    <rect width="8" height="133.64717603062823" x="1476" y="8.176411984685885" rx="4" ry="4" fill="black" />
    <rect width="8" height="140.5356199373297" x="1492" y="4.732190031335151" rx="4" ry="4" fill="black" />
    <rect width="8" height="54.59363201645033" x="1508" y="47.703183991774836" rx="4" ry="4" fill="black" />
    <rect width="8" height="51.05046131211592" x="1524" y="49.47476934394204" rx="4" ry="4" fill="black" />
    <rect width="8" height="138.7110872561306" x="1540" y="5.6444563719346945" rx="4" ry="4" fill="black" />
    <rect width="8" height="131.03207662816737" x="1556" y="9.483961685916313" rx="4" ry="4" fill="black" />
    <rect width="8" height="141.74062203626508" x="1572" y="4.12968898186746" rx="4" ry="4" fill="black" />
    <rect width="8" height="128.13910618649632" x="1588" y="10.93044690675184" rx="4" ry="4" fill="black" />
    <rect width="8" height="144.43064426773537" x="1604" y="2.784677866132313" rx="4" ry="4" fill="black" />
    <rect width="8" height="134.7866378953839" x="1620" y="7.606681052308048" rx="4" ry="4" fill="black" />
    <rect width="8" height="137.4471323451645" x="1636" y="6.276433827417748" rx="4" ry="4" fill="black" />
    <rect width="8" height="141.50174351881938" x="1652" y="4.249128240590309" rx="4" ry="4" fill="black" />
    <rect width="8" height="128.82195332977207" x="1668" y="10.589023335113964" rx="4" ry="4" fill="black" />
    <rect width="8" height="140.60820969596497" x="1684" y="4.695895152017513" rx="4" ry="4" fill="black" />
    <rect width="8" height="130.2735924171397" x="1700" y="9.863203791430152" rx="4" ry="4" fill="black" />
    <rect width="8" height="145.11970422837916" x="1716" y="2.4401478858104184" rx="4" ry="4" fill="black" />
    <rect width="8" height="133.07831784948286" x="1732" y="8.460841075258571" rx="4" ry="4" fill="black" />
    <rect width="8" height="143.66570722380416" x="1748" y="3.167146388097919" rx="4" ry="4" fill="black" />
    <rect width="8" height="138.74293470237038" x="1764" y="5.6285326488148115" rx="4" ry="4" fill="black" />
    <rect width="8" height="134.7671050195956" x="1780" y="7.616447490202205" rx="4" ry="4" fill="black" />
    <rect width="8" height="139.417857537437" x="1796" y="5.2910712312815065" rx="4" ry="4" fill="black" />
    <rect width="8" height="133.04273075049477" x="1812" y="8.478634624752615" rx="4" ry="4" fill="black" />
    <rect width="8" height="146.1162097166016" x="1828" y="1.9418951416992059" rx="4" ry="4" fill="black" />
    <rect width="8" height="127.54208952441667" x="1844" y="11.228955237791666" rx="4" ry="4" fill="black" />
    <rect width="8" height="144.51410468807893" x="1860" y="2.742947655960535" rx="4" ry="4" fill="black" />
    <rect width="8" height="144.28797277525356" x="1876" y="2.856013612373218" rx="4" ry="4" fill="black" />
    <rect width="8" height="136.1349175403712" x="1892" y="6.9325412298144045" rx="4" ry="4" fill="black" />
    <rect width="8" height="137.70603583209794" x="1908" y="6.1469820839510305" rx="4" ry="4" fill="black" />
    <rect width="8" height="140.06416156044307" x="1924" y="4.967919219778466" rx="4" ry="4" fill="black" />
    <rect width="8" height="139.38320986065793" x="1940" y="5.308395069671036" rx="4" ry="4" fill="black" />
    <rect width="8" height="134.7490962705635" x="1956" y="7.625451864718244" rx="4" ry="4" fill="black" />
    <rect width="8" height="150" x="1972" y="0" rx="4" ry="4" fill="black" />
    <rect width="8" height="126.62009783032302" x="1988" y="11.68995108483849" rx="4" ry="4" fill="black" />
    <rect width="8" height="138.46002305223436" x="2004" y="5.769988473882819" rx="4" ry="4" fill="black" />
    <rect width="8" height="128.22816595578115" x="2020" y="10.885917022109425" rx="4" ry="4" fill="black" />
    <rect width="8" height="136.23934830428826" x="2036" y="6.880325847855872" rx="4" ry="4" fill="black" />
    <rect width="8" height="132.03730396310587" x="2052" y="8.981348018447065" rx="4" ry="4" fill="black" />
    <rect width="8" height="120.79164166226238" x="2068" y="14.60417916886881" rx="4" ry="4" fill="black" />
    <rect width="8" height="139.4969569584104" x="2084" y="5.251521520794796" rx="4" ry="4" fill="black" />
    <rect width="8" height="119.58373634073376" x="2100" y="15.208131829633118" rx="4" ry="4" fill="black" />
    <rect width="8" height="144.95249426435882" x="2116" y="2.5237528678205905" rx="4" ry="4" fill="black" />
    <rect width="8" height="127.73500301970532" x="2132" y="11.132498490147341" rx="4" ry="4" fill="black" />
    <rect width="8" height="134.43315294206658" x="2148" y="7.783423528966708" rx="4" ry="4" fill="black" />
    <rect width="8" height="131.4061693659273" x="2164" y="9.296915317036351" rx="4" ry="4" fill="black" />
    <rect width="8" height="126.11622995078409" x="2180" y="11.941885024607956" rx="4" ry="4" fill="black" />
    <rect width="8" height="136.5521605813289" x="2196" y="6.723919709335547" rx="4" ry="4" fill="black" />
    <rect width="8" height="126.14745593715867" x="2212" y="11.926272031420666" rx="4" ry="4" fill="black" />
    <rect width="8" height="138.80679297935606" x="2228" y="5.59660351032197" rx="4" ry="4" fill="black" />
    <rect width="8" height="124.21701552390161" x="2244" y="12.891492238049196" rx="4" ry="4" fill="black" />
    <rect width="8" height="57.670990591358674" x="2260" y="46.16450470432066" rx="4" ry="4" fill="black" />
    <rect width="8" height="34.66057078467983" x="2276" y="57.66971460766008" rx="4" ry="4" fill="black" />
    <rect width="8" height="65.8056380730248" x="2292" y="42.0971809634876" rx="4" ry="4" fill="black" />
    <rect width="8" height="71.54667923838976" x="2308" y="39.22666038080512" rx="4" ry="4" fill="black" />
    <rect width="8" height="88.46807497214321" x="2324" y="30.765962513928393" rx="4" ry="4" fill="black" />
    <rect width="8" height="8" x="2340" y="71" rx="4" ry="4" fill="black" />
    <rect width="8" height="18.211101509382278" x="2356" y="65.89444924530886" rx="4" ry="4" fill="black" />
    <rect width="8" height="8" x="2372" y="71" rx="4" ry="4" fill="black" />
    <rect width="8" height="8" x="2388" y="71" rx="4" ry="4" fill="black" />
  </g>
</svg>