<svg 
  baseProfile="tiny"
  preserveAspectRatio="keep"
  version="1.2"
  viewBox="0 0 2400 150"
  height="100%" width="100%"
  xmlns="http://www.w3.org/2000/svg"
  xmlns:ev="http://www.w3.org/2001/xml-events"
  xmlns:xlink="http://www.w3.org/1999/xlink"
>
  <g>
    <rect width="8" height="22.659835760940762" x="4" y="63.67008211952962" rx="4" ry="4" fill="black" />
    <rect width="8" height="28.592315363013682" x="20" y="60.70384231849316" rx="4" ry="4" fill="black" />
    <rect width="8" height="27.496527934051663" x="36" y="61.251736032974165" rx="4" ry="4" fill="black" />
    <rect width="8" height="29.785045948611142" x="52" y="60.10747702569443" rx="4" ry="4" fill="black" />
    <rect width="8" height="18.326054144110675" x="68" y="65.83697292794466" rx="4" ry="4" fill="black" />
    <rect width="8" height="20.547243367243066" x="84" y="64.72637831637847" rx="4" ry="4" fill="black" />
    <rect width="8" height="26.6611825286683" x="100" y="61.669408735665854" rx="4" ry="4" fill="black" />
    <rect width="8" height="34.789698595982614" x="116" y="57.60515070200869" rx="4" ry="4" fill="black" />
    <rect width="8" height="30.51893968897227" x="132" y="59.740530155513866" rx="4" ry="4" fill="black" />
    <rect width="8" height="20.97378702190233" x="148" y="64.51310648904884" rx="4" ry="4" fill="black" />
    <rect width="8" height="117.27326993373372" x="164" y="16.363365033133142" rx="4" ry="4" fill="black" />
    <rect width="8" height="126.06494815300822" x="180" y="11.967525923495892" rx="4" ry="4" fill="black" />
    <rect width="8" height="139.57047662344215" x="196" y="5.2147616882789265" rx="4" ry="4" fill="black" />
    <rect width="8" height="134.00000082711054" x="212" y="7.99999958644473" rx="4" ry="4" fill="black" />
    <rect width="8" height="125.74221974638995" x="228" y="12.128890126805025" rx="4" ry="4" fill="black" />
    <rect width="8" height="127.7884895559905" x="244" y="11.105755222004753" rx="4" ry="4" fill="black" />
    <rect width="8" height="139.1452013055924" x="260" y="5.427399347203803" rx="4" ry="4" fill="black" />
    <rect width="8" height="137.58707697879322" x="276" y="6.20646151060339" rx="4" ry="4" fill="black" />
    <rect width="8" height="136.8775509812235" x="292" y="6.5612245093882535" rx="4" ry="4" fill="black" />
    <rect width="8" height="122.11877582233262" x="308" y="13.940612088833689" rx="4" ry="4" fill="black" />
    <rect width="8" height="122.91988617451553" x="324" y="13.540056912742237" rx="4" ry="4" fill="black" />
    <rect width="8" height="129.9869296063138" x="340" y="10.006535196843103" rx="4" ry="4" fill="black" />
    <rect width="8" height="129.58663965866086" x="356" y="10.206680170669571" rx="4" ry="4" fill="black" />
    <rect width="8" height="133.3497404071937" x="372" y="8.325129796403147" rx="4" ry="4" fill="black" />
    <rect width="8" height="125.57043217260879" x="388" y="12.214783913695605" rx="4" ry="4" fill="black" />
    <rect width="8" height="129.42640084934348" x="404" y="10.28679957532826" rx="4" ry="4" fill="black" />
    <rect width="8" height="129.48313828983487" x="420" y="10.258430855082565" rx="4" ry="4" fill="black" />
    <rect width="8" height="137.54197080405132" x="436" y="6.229014597974341" rx="4" ry="4" fill="black" />
    <rect width="8" height="132.2050959446359" x="452" y="8.89745202768205" rx="4" ry="4" fill="black" />
    <rect width="8" height="116.90768951820372" x="468" y="16.546155240898138" rx="4" ry="4" fill="black" />
    <rect width="8" height="131.95245582978956" x="484" y="9.023772085105222" rx="4" ry="4" fill="black" />
    <rect width="8" height="17.98117590846626" x="500" y="66.00941204576687" rx="4" ry="4" fill="black" />
    <rect width="8" height="8" x="516" y="71" rx="4" ry="4" fill="black" />
    <rect width="8" height="69.31082403475907" x="532" y="40.34458798262047" rx="4" ry="4" fill="black" />
    <rect width="8" height="20.204074447414655" x="548" y="64.89796277629267" rx="4" ry="4" fill="black" />
    <rect width="8" height="8" x="564" y="71" rx="4" ry="4" fill="black" />
    <rect width="8" height="8" x="580" y="71" rx="4" ry="4" fill="black" />
    <rect width="8" height="19.675312243389175" x="596" y="65.1623438783054" rx="4" ry="4" fill="black" />
    <rect width="8" height="20.280944447656175" x="612" y="64.85952777617192" rx="4" ry="4" fill="black" />
    <rect width="8" height="8" x="628" y="71" rx="4" ry="4" fill="black" />
    <rect width="8" height="16.29063556184757" x="644" y="66.85468221907621" rx="4" ry="4" fill="black" />
    <rect width="8" height="94.08778254804126" x="660" y="27.95610872597937" rx="4" ry="4" fill="black" />
    <rect width="8" height="150" x="676" y="0" rx="4" ry="4" fill="black" />
    <rect width="8" height="116.47660043561946" x="692" y="16.76169978219027" rx="4" ry="4" fill="black" />
    <rect width="8" height="122.99850994576992" x="708" y="13.500745027115038" rx="4" ry="4" fill="black" />
    <rect width="8" height="137.67560488607398" x="724" y="6.162197556963008" rx="4" ry="4" fill="black" />
    <rect width="8" height="145.9338917676328" x="740" y="2.0330541161836067" rx="4" ry="4" fill="black" />
    <rect width="8" height="131.86992428000264" x="756" y="9.065037859998682" rx="4" ry="4" fill="black" />
    <rect width="8" height="122.85115086100375" x="772" y="13.574424569498127" rx="4" ry="4" fill="black" />
    <rect width="8" height="121.55489990565212" x="788" y="14.22255004717394" rx="4" ry="4" fill="black" />
    <rect width="8" height="124.56620549751223" x="804" y="12.716897251243886" rx="4" ry="4" fill="black" />
    <rect width="8" height="148.01882416778895" x="820" y="0.9905879161055253" rx="4" ry="4" fill="black" />
    <rect width="8" height="138.45978601730965" x="836" y="5.770106991345173" rx="4" ry="4" fill="black" />
    <rect width="8" height="139.89568779169912" x="852" y="5.052156104150441" rx="4" ry="4" fill="black" />
    <rect width="8" height="127.24484998527856" x="868" y="11.377575007360718" rx="4" ry="4" fill="black" />
    <rect width="8" height="139.75502315469075" x="884" y="5.122488422654627" rx="4" ry="4" fill="black" />
    <rect width="8" height="131.10304513598666" x="900" y="9.44847743200667" rx="4" ry="4" fill="black" />
    <rect width="8" height="126.12053626982635" x="916" y="11.939731865086827" rx="4" ry="4" fill="black" />
    <rect width="8" height="139.03072193035342" x="932" y="5.484639034823289" rx="4" ry="4" fill="black" />
    <rect width="8" height="129.5410672333897" x="948" y="10.229466383305152" rx="4" ry="4" fill="black" />
    <rect width="8" height="129.10467516218804" x="964" y="10.447662418905978" rx="4" ry="4" fill="black" />
    <rect width="8" height="124.37542878473297" x="980" y="12.812285607633513" rx="4" ry="4" fill="black" />
    <rect width="8" height="135.25195809883198" x="996" y="7.374020950584011" rx="4" ry="4" fill="black" />
    <rect width="8" height="131.69700921900085" x="1012" y="9.151495390499576" rx="4" ry="4" fill="black" />
    <rect width="8" height="135.92244920021133" x="1028" y="7.038775399894334" rx="4" ry="4" fill="black" />
    <rect width="8" height="146.37146539311007" x="1044" y="1.8142673034449643" rx="4" ry="4" fill="black" />
    <rect width="8" height="128.6769794177384" x="1060" y="10.661510291130796" rx="4" ry="4" fill="black" />
    <rect width="8" height="132.6241942300519" x="1076" y="8.68790288497405" rx="4" ry="4" fill="black" />
    <rect width="8" height="124.95401199569038" x="1092" y="12.52299400215481" rx="4" ry="4" fill="black" />
    <rect width="8" height="132.29380421918196" x="1108" y="8.853097890409018" rx="4" ry="4" fill="black" />
    <rect width="8" height="123.26557936748277" x="1124" y="13.367210316258614" rx="4" ry="4" fill="black" />
    <rect width="8" height="121.89443538322978" x="1140" y="14.052782308385112" rx="4" ry="4" fill="black" />
    <rect width="8" height="118.89607631746618" x="1156" y="15.551961841266909" rx="4" ry="4" fill="black" />
    <rect width="8" height="113.8318492568933" x="1172" y="18.084075371553347" rx="4" ry="4" fill="black" />
    <rect width="8" height="117.32910703650538" x="1188" y="16.33544648174731" rx="4" ry="4" fill="black" />
    <rect width="8" height="104.61794546789815" x="1204" y="22.691027266050924" rx="4" ry="4" fill="black" />
    <rect width="8" height="108.27841678731458" x="1220" y="20.86079160634271" rx="4" ry="4" fill="black" />
    <rect width="8" height="105.76157690037093" x="1236" y="22.119211549814537" rx="4" ry="4" fill="black" />
    <rect width="8" height="98.81027195615158" x="1252" y="25.59486402192421" rx="4" ry="4" fill="black" />
    <rect width="8" height="97.27144949317369" x="1268" y="26.364275253413155" rx="4" ry="4" fill="black" />
    <rect width="8" height="100.67605837481358" x="1284" y="24.66197081259321" rx="4" ry="4" fill="black" />
    <rect width="8" height="92.8571424760178" x="1300" y="28.5714287619911" rx="4" ry="4" fill="black" />
    <rect width="8" height="78.8350909109472" x="1316" y="35.5824545445264" rx="4" ry="4" fill="black" />
    <rect width="8" height="27.37135209517518" x="1332" y="61.31432395241241" rx="4" ry="4" fill="black" />
    <rect width="8" height="8" x="1348" y="71" rx="4" ry="4" fill="black" />
    <rect width="8" height="8" x="1364" y="71" rx="4" ry="4" fill="black" />
    <rect width="8" height="8" x="1380" y="71" rx="4" ry="4" fill="black" />
    <rect width="8" height="8" x="1396" y="71" rx="4" ry="4" fill="black" />
    <rect width="8" height="8" x="1412" y="71" rx="4" ry="4" fill="black" />
    <rect width="8" height="24.163230904284337" x="1428" y="62.91838454785783" rx="4" ry="4" fill="black" />
    <rect width="8" height="8" x="1444" y="71" rx="4" ry="4" fill="black" />
    <rect width="8" height="8" x="1460" y="71" rx="4" ry="4" fill="black" />
    <rect width="8" height="30.206093956332936" x="1476" y="59.89695302183353" rx="4" ry="4" fill="black" />
    <rect width="8" height="142.3478220957418" x="1492" y="3.8260889521290977" rx="4" ry="4" fill="black" />
    <rect width="8" height="127.18660674013395" x="1508" y="11.406696629933023" rx="4" ry="4" fill="black" />
    <rect width="8" height="120.75135319119633" x="1524" y="14.624323404401835" rx="4" ry="4" fill="black" />
    <rect width="8" height="129.3493818336329" x="1540" y="10.325309083183555" rx="4" ry="4" fill="black" />
    <rect width="8" height="137.1259732248405" x="1556" y="6.4370133875797535" rx="4" ry="4" fill="black" />
    <rect width="8" height="129.6181503376506" x="1572" y="10.190924831174698" rx="4" ry="4" fill="black" />
    <rect width="8" height="123.82596849016824" x="1588" y="13.087015754915882" rx="4" ry="4" fill="black" />
    <rect width="8" height="126.1769221761479" x="1604" y="11.911538911926051" rx="4" ry="4" fill="black" />
    <rect width="8" height="130.59499552481205" x="1620" y="9.702502237593976" rx="4" ry="4" fill="black" />
    <rect width="8" height="128.2899301777193" x="1636" y="10.85503491114035" rx="4" ry="4" fill="black" />
    <rect width="8" height="85.82765987011012" x="1652" y="32.08617006494494" rx="4" ry="4" fill="black" />
    <rect width="8" height="78.75924530702262" x="1668" y="35.62037734648869" rx="4" ry="4" fill="black" />
    <rect width="8" height="90.20350131809178" x="1684" y="29.89824934095411" rx="4" ry="4" fill="black" />
    <rect width="8" height="132.3196432386689" x="1700" y="8.840178380665549" rx="4" ry="4" fill="black" />
    <rect width="8" height="131.4436910616349" x="1716" y="9.278154469182553" rx="4" ry="4" fill="black" />
    <rect width="8" height="127.70855631506743" x="1732" y="11.145721842466287" rx="4" ry="4" fill="black" />
    <rect width="8" height="139.61352229058562" x="1748" y="5.1932388547071895" rx="4" ry="4" fill="black" />
    <rect width="8" height="133.55014427089444" x="1764" y="8.224927864552782" rx="4" ry="4" fill="black" />
    <rect width="8" height="134.57226331733196" x="1780" y="7.71386834133402" rx="4" ry="4" fill="black" />
    <rect width="8" height="132.3197737698085" x="1796" y="8.840113115095747" rx="4" ry="4" fill="black" />
    <rect width="8" height="128.53944306634025" x="1812" y="10.730278466829873" rx="4" ry="4" fill="black" />
    <rect width="8" height="128.28356749979528" x="1828" y="10.858216250102359" rx="4" ry="4" fill="black" />
    <rect width="8" height="131.96262884465818" x="1844" y="9.018685577670908" rx="4" ry="4" fill="black" />
    <rect width="8" height="132.83284649681892" x="1860" y="8.583576751590542" rx="4" ry="4" fill="black" />
    <rect width="8" height="126.72310162067872" x="1876" y="11.63844918966064" rx="4" ry="4" fill="black" />
    <rect width="8" height="129.94779715962474" x="1892" y="10.02610142018763" rx="4" ry="4" fill="black" />
    <rect width="8" height="132.46050776320516" x="1908" y="8.769746118397421" rx="4" ry="4" fill="black" />
    <rect width="8" height="133.75171006447007" x="1924" y="8.124144967764963" rx="4" ry="4" fill="black" />
    <rect width="8" height="132.8422391101765" x="1940" y="8.578880444911746" rx="4" ry="4" fill="black" />
    <rect width="8" height="129.08415460288145" x="1956" y="10.457922698559273" rx="4" ry="4" fill="black" />
    <rect width="8" height="124.92326307445119" x="1972" y="12.538368462774407" rx="4" ry="4" fill="black" />
    <rect width="8" height="129.26564859424707" x="1988" y="10.367175702876466" rx="4" ry="4" fill="black" />
    <rect width="8" height="133.99953318394353" x="2004" y="8.000233408028237" rx="4" ry="4" fill="black" />
    <rect width="8" height="129.99314174508015" x="2020" y="10.003429127459924" rx="4" ry="4" fill="black" />
    <rect width="8" height="125.73260898523381" x="2036" y="12.133695507383095" rx="4" ry="4" fill="black" />
    <rect width="8" height="124.69567793371219" x="2052" y="12.652161033143905" rx="4" ry="4" fill="black" />
    <rect width="8" height="136.30312079805685" x="2068" y="6.848439600971574" rx="4" ry="4" fill="black" />
    <rect width="8" height="135.07682595648816" x="2084" y="7.461587021755918" rx="4" ry="4" fill="black" />
    <rect width="8" height="123.74844410989029" x="2100" y="13.125777945054857" rx="4" ry="4" fill="black" />
    <rect width="8" height="121.71577712324864" x="2116" y="14.142111438375679" rx="4" ry="4" fill="black" />
    <rect width="8" height="129.9906063351693" x="2132" y="10.004696832415348" rx="4" ry="4" fill="black" />
    <rect width="8" height="113.23049460264927" x="2148" y="18.384752698675364" rx="4" ry="4" fill="black" />
    <rect width="8" height="117.15047580559332" x="2164" y="16.42476209720334" rx="4" ry="4" fill="black" />
    <rect width="8" height="103.85603709047056" x="2180" y="23.071981454764718" rx="4" ry="4" fill="black" />
    <rect width="8" height="89.59105470122236" x="2196" y="30.20447264938882" rx="4" ry="4" fill="black" />
    <rect width="8" height="101.9341872974003" x="2212" y="24.03290635129985" rx="4" ry="4" fill="black" />
    <rect width="8" height="114.5649553055852" x="2228" y="17.7175223472074" rx="4" ry="4" fill="black" />
    <rect width="8" height="110.43660015134799" x="2244" y="19.781699924326006" rx="4" ry="4" fill="black" />
    <rect width="8" height="93.73860740817852" x="2260" y="28.130696295910738" rx="4" ry="4" fill="black" />
    <rect width="8" height="89.38411333153695" x="2276" y="30.307943334231524" rx="4" ry="4" fill="black" />
    <rect width="8" height="108.00134886318165" x="2292" y="20.999325568409176" rx="4" ry="4" fill="black" />
    <rect width="8" height="114.6830856285432" x="2308" y="17.658457185728402" rx="4" ry="4" fill="black" />
    <rect width="8" height="104.87493793554553" x="2324" y="22.562531032227234" rx="4" ry="4" fill="black" />
    <rect width="8" height="89.75845945958086" x="2340" y="30.12077027020957" rx="4" ry="4" fill="black" />
    <rect width="8" height="97.56884205477535" x="2356" y="26.215578972612327" rx="4" ry="4" fill="black" />
    <rect width="8" height="109.39101470445638" x="2372" y="20.30449264777181" rx="4" ry="4" fill="black" />
    <rect width="8" height="8" x="2388" y="71" rx="4" ry="4" fill="black" />
  </g>
</svg>