<svg 
  baseProfile="tiny"
  preserveAspectRatio="true"
  version="1.2"
  viewBox="0 0 2400 150"
  height="100%" width="100%"
  xmlns="http://www.w3.org/2000/svg"
  xmlns:ev="http://www.w3.org/2001/xml-events"
  xmlns:xlink="http://www.w3.org/1999/xlink"
>
  <g>
    <rect width="8" height="35.67403687518008" x="4" y="57.16298156240996" rx="4" ry="4" fill="black" />
    <rect width="8" height="45.391317472374" x="20" y="52.304341263813" rx="4" ry="4" fill="black" />
    <rect width="8" height="31.866840790499985" x="36" y="59.066579604750004" rx="4" ry="4" fill="black" />
    <rect width="8" height="98.40669971422015" x="52" y="25.796650142889924" rx="4" ry="4" fill="black" />
    <rect width="8" height="79.980211309705" x="68" y="35.0098943451475" rx="4" ry="4" fill="black" />
    <rect width="8" height="89.80914771273167" x="84" y="30.095426143634164" rx="4" ry="4" fill="black" />
    <rect width="8" height="94.12069757707481" x="100" y="27.939651211462596" rx="4" ry="4" fill="black" />
    <rect width="8" height="77.57083491273995" x="116" y="36.21458254363002" rx="4" ry="4" fill="black" />
    <rect width="8" height="97.08646671295274" x="132" y="26.45676664352363" rx="4" ry="4" fill="black" />
    <rect width="8" height="118.00160407518332" x="148" y="15.999197962408338" rx="4" ry="4" fill="black" />
    <rect width="8" height="93.35618364971843" x="164" y="28.321908175140784" rx="4" ry="4" fill="black" />
    <rect width="8" height="132.9866150329395" x="180" y="8.506692483530244" rx="4" ry="4" fill="black" />
    <rect width="8" height="112.29328036112035" x="196" y="18.853359819439824" rx="4" ry="4" fill="black" />
    <rect width="8" height="103.70577543864174" x="212" y="23.14711228067913" rx="4" ry="4" fill="black" />
    <rect width="8" height="120.30004309851942" x="228" y="14.849978450740288" rx="4" ry="4" fill="black" />
    <rect width="8" height="106.44764855461497" x="244" y="21.776175722692514" rx="4" ry="4" fill="black" />
    <rect width="8" height="121.46540160066621" x="260" y="14.267299199666894" rx="4" ry="4" fill="black" />
    <rect width="8" height="121.92627310246465" x="276" y="14.036863448767676" rx="4" ry="4" fill="black" />
    <rect width="8" height="112.3419931099793" x="292" y="18.82900344501035" rx="4" ry="4" fill="black" />
    <rect width="8" height="110.52215166606764" x="308" y="19.73892416696618" rx="4" ry="4" fill="black" />
    <rect width="8" height="60.369991388755395" x="324" y="44.8150043056223" rx="4" ry="4" fill="black" />
    <rect width="8" height="104.898784058579" x="340" y="22.5506079707105" rx="4" ry="4" fill="black" />
    <rect width="8" height="93.75055379617783" x="356" y="28.124723101911087" rx="4" ry="4" fill="black" />
    <rect width="8" height="102.59621371835541" x="372" y="23.701893140822293" rx="4" ry="4" fill="black" />
    <rect width="8" height="107.22306442347849" x="388" y="21.388467788260755" rx="4" ry="4" fill="black" />
    <rect width="8" height="85.60302950892678" x="404" y="32.19848524553661" rx="4" ry="4" fill="black" />
    <rect width="8" height="114.65306907180191" x="420" y="17.673465464099046" rx="4" ry="4" fill="black" />
    <rect width="8" height="105.8308909550343" x="436" y="22.084554522482847" rx="4" ry="4" fill="black" />
    <rect width="8" height="135.56959039038034" x="452" y="7.215204804809829" rx="4" ry="4" fill="black" />
    <rect width="8" height="115.99138322800665" x="468" y="17.004308385996673" rx="4" ry="4" fill="black" />
    <rect width="8" height="95.3800744168569" x="484" y="27.30996279157155" rx="4" ry="4" fill="black" />
    <rect width="8" height="139.70772373614497" x="500" y="5.146138131927515" rx="4" ry="4" fill="black" />
    <rect width="8" height="80.60170909214133" x="516" y="34.69914545392933" rx="4" ry="4" fill="black" />
    <rect width="8" height="113.0903566136346" x="532" y="18.4548216931827" rx="4" ry="4" fill="black" />
    <rect width="8" height="120.41931904853361" x="548" y="14.790340475733196" rx="4" ry="4" fill="black" />
    <rect width="8" height="91.87771183836816" x="564" y="29.06114408081592" rx="4" ry="4" fill="black" />
    <rect width="8" height="108.42704490773565" x="580" y="20.786477546132176" rx="4" ry="4" fill="black" />
    <rect width="8" height="111.23010173755749" x="596" y="19.384949131221255" rx="4" ry="4" fill="black" />
    <rect width="8" height="118.73480832435041" x="612" y="15.632595837824795" rx="4" ry="4" fill="black" />
    <rect width="8" height="120.15470576619526" x="628" y="14.922647116902368" rx="4" ry="4" fill="black" />
    <rect width="8" height="142.93377916989633" x="644" y="3.533110415051837" rx="4" ry="4" fill="black" />
    <rect width="8" height="142.92748635522526" x="660" y="3.5362568223873723" rx="4" ry="4" fill="black" />
    <rect width="8" height="128.43126506203635" x="676" y="10.784367468981827" rx="4" ry="4" fill="black" />
    <rect width="8" height="126.59799413951555" x="692" y="11.701002930242225" rx="4" ry="4" fill="black" />
    <rect width="8" height="121.53558558532868" x="708" y="14.232207207335662" rx="4" ry="4" fill="black" />
    <rect width="8" height="143.9503276474599" x="724" y="3.024836176270057" rx="4" ry="4" fill="black" />
    <rect width="8" height="131.88094376154137" x="740" y="9.059528119229313" rx="4" ry="4" fill="black" />
    <rect width="8" height="141.0452325574053" x="756" y="4.477383721297343" rx="4" ry="4" fill="black" />
    <rect width="8" height="138.50957769866474" x="772" y="5.745211150667629" rx="4" ry="4" fill="black" />
    <rect width="8" height="124.72927623013051" x="788" y="12.635361884934746" rx="4" ry="4" fill="black" />
    <rect width="8" height="144.38631250219524" x="804" y="2.8068437489023808" rx="4" ry="4" fill="black" />
    <rect width="8" height="132.68759860928185" x="820" y="8.656200695359075" rx="4" ry="4" fill="black" />
    <rect width="8" height="147.30223433800623" x="836" y="1.3488828309968852" rx="4" ry="4" fill="black" />
    <rect width="8" height="140.99477410485983" x="852" y="4.502612947570086" rx="4" ry="4" fill="black" />
    <rect width="8" height="17.761793313561235" x="868" y="66.11910334321938" rx="4" ry="4" fill="black" />
    <rect width="8" height="40.418987552887046" x="884" y="54.79050622355648" rx="4" ry="4" fill="black" />
    <rect width="8" height="19.42646468047434" x="900" y="65.28676765976283" rx="4" ry="4" fill="black" />
    <rect width="8" height="26.586932166475584" x="916" y="61.70653391676221" rx="4" ry="4" fill="black" />
    <rect width="8" height="29.73396881726062" x="932" y="60.13301559136969" rx="4" ry="4" fill="black" />
    <rect width="8" height="40.43823056280708" x="948" y="54.78088471859646" rx="4" ry="4" fill="black" />
    <rect width="8" height="24.85594333614192" x="964" y="62.57202833192904" rx="4" ry="4" fill="black" />
    <rect width="8" height="30.291242594088605" x="980" y="59.8543787029557" rx="4" ry="4" fill="black" />
    <rect width="8" height="20.41606179307887" x="996" y="64.79196910346056" rx="4" ry="4" fill="black" />
    <rect width="8" height="41.17958565432943" x="1012" y="54.410207172835285" rx="4" ry="4" fill="black" />
    <rect width="8" height="28.184575845400644" x="1028" y="60.90771207729968" rx="4" ry="4" fill="black" />
    <rect width="8" height="89.97605362773182" x="1044" y="30.011973186134092" rx="4" ry="4" fill="black" />
    <rect width="8" height="40.865727919198065" x="1060" y="54.56713604040097" rx="4" ry="4" fill="black" />
    <rect width="8" height="88.66090270892678" x="1076" y="30.669548645536608" rx="4" ry="4" fill="black" />
    <rect width="8" height="69.84844109539006" x="1092" y="40.07577945230497" rx="4" ry="4" fill="black" />
    <rect width="8" height="104.09961067990014" x="1108" y="22.95019466004993" rx="4" ry="4" fill="black" />
    <rect width="8" height="82.22987285635239" x="1124" y="33.88506357182381" rx="4" ry="4" fill="black" />
    <rect width="8" height="111.36904831583253" x="1140" y="19.315475842083735" rx="4" ry="4" fill="black" />
    <rect width="8" height="106.3637106745632" x="1156" y="21.818144662718403" rx="4" ry="4" fill="black" />
    <rect width="8" height="130.96467330501073" x="1172" y="9.517663347494633" rx="4" ry="4" fill="black" />
    <rect width="8" height="147.0765104939821" x="1188" y="1.4617447530089436" rx="4" ry="4" fill="black" />
    <rect width="8" height="121.8410230928604" x="1204" y="14.079488453569802" rx="4" ry="4" fill="black" />
    <rect width="8" height="140.19090027440728" x="1220" y="4.904549862796358" rx="4" ry="4" fill="black" />
    <rect width="8" height="121.28089570747201" x="1236" y="14.359552146263994" rx="4" ry="4" fill="black" />
    <rect width="8" height="111.69114503939598" x="1252" y="19.15442748030201" rx="4" ry="4" fill="black" />
    <rect width="8" height="142.55805083972797" x="1268" y="3.7209745801360157" rx="4" ry="4" fill="black" />
    <rect width="8" height="141.33616199778038" x="1284" y="4.33191900110981" rx="4" ry="4" fill="black" />
    <rect width="8" height="130.2977841202385" x="1300" y="9.851107939880748" rx="4" ry="4" fill="black" />
    <rect width="8" height="128.0760250195819" x="1316" y="10.961987490209054" rx="4" ry="4" fill="black" />
    <rect width="8" height="114.0509626678658" x="1332" y="17.974518666067098" rx="4" ry="4" fill="black" />
    <rect width="8" height="128.90480616215513" x="1348" y="10.547596918922437" rx="4" ry="4" fill="black" />
    <rect width="8" height="128.0691785608079" x="1364" y="10.96541071959605" rx="4" ry="4" fill="black" />
    <rect width="8" height="136.07070990099598" x="1380" y="6.9646450495020105" rx="4" ry="4" fill="black" />
    <rect width="8" height="122.03391888596853" x="1396" y="13.983040557015734" rx="4" ry="4" fill="black" />
    <rect width="8" height="89.34381828022163" x="1412" y="30.328090859889187" rx="4" ry="4" fill="black" />
    <rect width="8" height="66.5724035358002" x="1428" y="41.7137982320999" rx="4" ry="4" fill="black" />
    <rect width="8" height="69.92900282687104" x="1444" y="40.03549858656448" rx="4" ry="4" fill="black" />
    <rect width="8" height="92.03071534653841" x="1460" y="28.984642326730793" rx="4" ry="4" fill="black" />
    <rect width="8" height="79.75174644165135" x="1476" y="35.124126779174325" rx="4" ry="4" fill="black" />
    <rect width="8" height="95.64064934983175" x="1492" y="27.179675325084126" rx="4" ry="4" fill="black" />
    <rect width="8" height="76.06471572750758" x="1508" y="36.96764213624621" rx="4" ry="4" fill="black" />
    <rect width="8" height="79.84993000905551" x="1524" y="35.075034995472244" rx="4" ry="4" fill="black" />
    <rect width="8" height="101.0270372010197" x="1540" y="24.486481399490152" rx="4" ry="4" fill="black" />
    <rect width="8" height="88.24609579887547" x="1556" y="30.876952100562264" rx="4" ry="4" fill="black" />
    <rect width="8" height="98.21250255186256" x="1572" y="25.893748724068722" rx="4" ry="4" fill="black" />
    <rect width="8" height="140.20545629568787" x="1588" y="4.8972718521560665" rx="4" ry="4" fill="black" />
    <rect width="8" height="117.70725889110881" x="1604" y="16.146370554445596" rx="4" ry="4" fill="black" />
    <rect width="8" height="127.42102169833319" x="1620" y="11.289489150833404" rx="4" ry="4" fill="black" />
    <rect width="8" height="136.38960797441374" x="1636" y="6.805196012793132" rx="4" ry="4" fill="black" />
    <rect width="8" height="150" x="1652" y="0" rx="4" ry="4" fill="black" />
    <rect width="8" height="141.03707012905735" x="1668" y="4.4814649354713225" rx="4" ry="4" fill="black" />
    <rect width="8" height="132.36157025530096" x="1684" y="8.81921487234952" rx="4" ry="4" fill="black" />
    <rect width="8" height="128.0564213691037" x="1700" y="10.971789315448149" rx="4" ry="4" fill="black" />
    <rect width="8" height="125.98433974397578" x="1716" y="12.00783012801211" rx="4" ry="4" fill="black" />
    <rect width="8" height="125.07383379033938" x="1732" y="12.46308310483031" rx="4" ry="4" fill="black" />
    <rect width="8" height="130.73130001658032" x="1748" y="9.63434999170984" rx="4" ry="4" fill="black" />
    <rect width="8" height="128.09424037473335" x="1764" y="10.952879812633327" rx="4" ry="4" fill="black" />
    <rect width="8" height="124.56367238739173" x="1780" y="12.718163806304133" rx="4" ry="4" fill="black" />
    <rect width="8" height="118.25826020793397" x="1796" y="15.870869896033014" rx="4" ry="4" fill="black" />
    <rect width="8" height="140.43104478511597" x="1812" y="4.784477607442014" rx="4" ry="4" fill="black" />
    <rect width="8" height="118.99783451410332" x="1828" y="15.501082742948341" rx="4" ry="4" fill="black" />
    <rect width="8" height="127.67443064685202" x="1844" y="11.162784676573992" rx="4" ry="4" fill="black" />
    <rect width="8" height="132.82016369363672" x="1860" y="8.589918153181642" rx="4" ry="4" fill="black" />
    <rect width="8" height="117.31173650290305" x="1876" y="16.344131748548477" rx="4" ry="4" fill="black" />
    <rect width="8" height="121.17277127567571" x="1892" y="14.413614362162143" rx="4" ry="4" fill="black" />
    <rect width="8" height="126.37407970996686" x="1908" y="11.812960145016568" rx="4" ry="4" fill="black" />
    <rect width="8" height="135.44637271242746" x="1924" y="7.276813643786269" rx="4" ry="4" fill="black" />
    <rect width="8" height="115.03666934371873" x="1940" y="17.481665328140636" rx="4" ry="4" fill="black" />
    <rect width="8" height="105.35072772768974" x="1956" y="22.324636136155128" rx="4" ry="4" fill="black" />
    <rect width="8" height="102.39486010544903" x="1972" y="23.802569947275487" rx="4" ry="4" fill="black" />
    <rect width="8" height="111.73565040762954" x="1988" y="19.132174796185232" rx="4" ry="4" fill="black" />
    <rect width="8" height="104.71841919089051" x="2004" y="22.640790404554743" rx="4" ry="4" fill="black" />
    <rect width="8" height="102.05881926851481" x="2020" y="23.970590365742595" rx="4" ry="4" fill="black" />
    <rect width="8" height="125.92773135262453" x="2036" y="12.036134323687733" rx="4" ry="4" fill="black" />
    <rect width="8" height="97.15466209055599" x="2052" y="26.422668954722006" rx="4" ry="4" fill="black" />
    <rect width="8" height="105.52111735810934" x="2068" y="22.239441320945332" rx="4" ry="4" fill="black" />
    <rect width="8" height="112.6746975307297" x="2084" y="18.66265123463515" rx="4" ry="4" fill="black" />
    <rect width="8" height="98.67052032068055" x="2100" y="25.664739839659724" rx="4" ry="4" fill="black" />
    <rect width="8" height="101.6912543015313" x="2116" y="24.15437284923435" rx="4" ry="4" fill="black" />
    <rect width="8" height="52.48774541622022" x="2132" y="48.75612729188989" rx="4" ry="4" fill="black" />
    <rect width="8" height="44.81329988278383" x="2148" y="52.59335005860808" rx="4" ry="4" fill="black" />
    <rect width="8" height="36.301805442119004" x="2164" y="56.8490972789405" rx="4" ry="4" fill="black" />
    <rect width="8" height="34.97520419530857" x="2180" y="57.51239790234571" rx="4" ry="4" fill="black" />
    <rect width="8" height="51.635932152909795" x="2196" y="49.182033923545106" rx="4" ry="4" fill="black" />
    <rect width="8" height="32.06505739750937" x="2212" y="58.96747130124531" rx="4" ry="4" fill="black" />
    <rect width="8" height="37.8957353303903" x="2228" y="56.05213233480485" rx="4" ry="4" fill="black" />
    <rect width="8" height="37.599247608672265" x="2244" y="56.200376195663864" rx="4" ry="4" fill="black" />
    <rect width="8" height="46.87677067988924" x="2260" y="51.56161466005538" rx="4" ry="4" fill="black" />
    <rect width="8" height="33.33884868021017" x="2276" y="58.33057565989492" rx="4" ry="4" fill="black" />
    <rect width="8" height="37.36031390063151" x="2292" y="56.319843049684245" rx="4" ry="4" fill="black" />
    <rect width="8" height="46.904496545283244" x="2308" y="51.547751727358374" rx="4" ry="4" fill="black" />
    <rect width="8" height="51.887661642384465" x="2324" y="49.056169178807764" rx="4" ry="4" fill="black" />
    <rect width="8" height="28.360952490980363" x="2340" y="60.81952375450982" rx="4" ry="4" fill="black" />
    <rect width="8" height="8" x="2356" y="71" rx="4" ry="4" fill="black" />
    <rect width="8" height="8" x="2372" y="71" rx="4" ry="4" fill="black" />
    <rect width="8" height="8" x="2388" y="71" rx="4" ry="4" fill="black" />
  </g>
</svg>