<svg 
  baseProfile="tiny"
  preserveAspectRatio="true"
  version="1.2"
  viewBox="0 0 2400 150"
  height="100%" width="100%"
  xmlns="http://www.w3.org/2000/svg"
  xmlns:ev="http://www.w3.org/2001/xml-events"
  xmlns:xlink="http://www.w3.org/1999/xlink"
>
  <g>
    <rect width="8" height="44.73589116341091" x="4" y="52.632054418294544" rx="4" ry="4" fill="black" />
    <rect width="8" height="36.16103799640071" x="20" y="56.919481001799646" rx="4" ry="4" fill="black" />
    <rect width="8" height="51.57022074352281" x="36" y="49.214889628238595" rx="4" ry="4" fill="black" />
    <rect width="8" height="32.32241787695272" x="52" y="58.83879106152364" rx="4" ry="4" fill="black" />
    <rect width="8" height="43.416265030932664" x="68" y="53.29186748453367" rx="4" ry="4" fill="black" />
    <rect width="8" height="34.108929760874574" x="84" y="57.94553511956271" rx="4" ry="4" fill="black" />
    <rect width="8" height="57.09502755097726" x="100" y="46.452486224511375" rx="4" ry="4" fill="black" />
    <rect width="8" height="54.73673838902312" x="116" y="47.63163080548844" rx="4" ry="4" fill="black" />
    <rect width="8" height="51.98019250130554" x="132" y="49.00990374934723" rx="4" ry="4" fill="black" />
    <rect width="8" height="64.65229729035273" x="148" y="42.67385135482363" rx="4" ry="4" fill="black" />
    <rect width="8" height="50.98037267690394" x="164" y="49.50981366154803" rx="4" ry="4" fill="black" />
    <rect width="8" height="62.917278924347094" x="180" y="43.54136053782645" rx="4" ry="4" fill="black" />
    <rect width="8" height="129.17365799654652" x="196" y="10.413171001726738" rx="4" ry="4" fill="black" />
    <rect width="8" height="138.04376025583065" x="212" y="5.978119872084676" rx="4" ry="4" fill="black" />
    <rect width="8" height="111.75880734534483" x="228" y="19.120596327327583" rx="4" ry="4" fill="black" />
    <rect width="8" height="128.31190337217478" x="244" y="10.844048313912609" rx="4" ry="4" fill="black" />
    <rect width="8" height="138.07210106887695" x="260" y="5.963949465561527" rx="4" ry="4" fill="black" />
    <rect width="8" height="118.01399057265405" x="276" y="15.993004713672974" rx="4" ry="4" fill="black" />
    <rect width="8" height="126.80650126056885" x="292" y="11.596749369715575" rx="4" ry="4" fill="black" />
    <rect width="8" height="136.73581625652386" x="308" y="6.632091871738069" rx="4" ry="4" fill="black" />
    <rect width="8" height="113.76711426112789" x="324" y="18.116442869436057" rx="4" ry="4" fill="black" />
    <rect width="8" height="129.04551203106593" x="340" y="10.477243984467037" rx="4" ry="4" fill="black" />
    <rect width="8" height="138.84536893771573" x="356" y="5.577315531142133" rx="4" ry="4" fill="black" />
    <rect width="8" height="117.44020084350035" x="372" y="16.279899578249825" rx="4" ry="4" fill="black" />
    <rect width="8" height="127.59636745768026" x="388" y="11.20181627115987" rx="4" ry="4" fill="black" />
    <rect width="8" height="142.26658275506094" x="404" y="3.866708622469531" rx="4" ry="4" fill="black" />
    <rect width="8" height="122.87679727607888" x="420" y="13.561601361960562" rx="4" ry="4" fill="black" />
    <rect width="8" height="128.67891252134334" x="436" y="10.660543739328332" rx="4" ry="4" fill="black" />
    <rect width="8" height="140.64385371937018" x="452" y="4.678073140314908" rx="4" ry="4" fill="black" />
    <rect width="8" height="118.05786529438654" x="468" y="15.971067352806728" rx="4" ry="4" fill="black" />
    <rect width="8" height="130.838810036087" x="484" y="9.580594981956494" rx="4" ry="4" fill="black" />
    <rect width="8" height="138.84029715705012" x="500" y="5.579851421474942" rx="4" ry="4" fill="black" />
    <rect width="8" height="122.64980224358209" x="516" y="13.675098878208956" rx="4" ry="4" fill="black" />
    <rect width="8" height="129.1993877743487" x="532" y="10.400306112825646" rx="4" ry="4" fill="black" />
    <rect width="8" height="139.6413172460288" x="548" y="5.1793413769856045" rx="4" ry="4" fill="black" />
    <rect width="8" height="116.5302232674366" x="564" y="16.7348883662817" rx="4" ry="4" fill="black" />
    <rect width="8" height="131.10298492421694" x="580" y="9.44850753789153" rx="4" ry="4" fill="black" />
    <rect width="8" height="147.7540118384924" x="596" y="1.1229940807537986" rx="4" ry="4" fill="black" />
    <rect width="8" height="125.18982560561805" x="612" y="12.405087197190973" rx="4" ry="4" fill="black" />
    <rect width="8" height="132.39770984227948" x="628" y="8.801145078860259" rx="4" ry="4" fill="black" />
    <rect width="8" height="143.37145065703285" x="644" y="3.314274671483574" rx="4" ry="4" fill="black" />
    <rect width="8" height="121.33235588710365" x="660" y="14.333822056448177" rx="4" ry="4" fill="black" />
    <rect width="8" height="133.296814194745" x="676" y="8.351592902627502" rx="4" ry="4" fill="black" />
    <rect width="8" height="142.9105964228603" x="692" y="3.544701788569853" rx="4" ry="4" fill="black" />
    <rect width="8" height="127.85890627606423" x="708" y="11.070546861967884" rx="4" ry="4" fill="black" />
    <rect width="8" height="136.33512566357362" x="724" y="6.83243716821319" rx="4" ry="4" fill="black" />
    <rect width="8" height="146.94700764739466" x="740" y="1.5264961763026719" rx="4" ry="4" fill="black" />
    <rect width="8" height="122.75274605805498" x="756" y="13.62362697097251" rx="4" ry="4" fill="black" />
    <rect width="8" height="134.1408211760091" x="772" y="7.929589411995451" rx="4" ry="4" fill="black" />
    <rect width="8" height="145.07032275887386" x="788" y="2.4648386205630715" rx="4" ry="4" fill="black" />
    <rect width="8" height="124.9267322531455" x="804" y="12.536633873427249" rx="4" ry="4" fill="black" />
    <rect width="8" height="135.8647975964645" x="820" y="7.067601201767744" rx="4" ry="4" fill="black" />
    <rect width="8" height="145.16498010588512" x="836" y="2.4175099470574395" rx="4" ry="4" fill="black" />
    <rect width="8" height="124.75636759966955" x="852" y="12.621816200165227" rx="4" ry="4" fill="black" />
    <rect width="8" height="133.66560105026875" x="868" y="8.167199474865626" rx="4" ry="4" fill="black" />
    <rect width="8" height="140.87813625711672" x="884" y="4.560931871441639" rx="4" ry="4" fill="black" />
    <rect width="8" height="123.48239838440541" x="900" y="13.258800807797293" rx="4" ry="4" fill="black" />
    <rect width="8" height="136.08433057519127" x="916" y="6.957834712404363" rx="4" ry="4" fill="black" />
    <rect width="8" height="147.05272842952058" x="932" y="1.4736357852397077" rx="4" ry="4" fill="black" />
    <rect width="8" height="126.92444265873162" x="948" y="11.53777867063419" rx="4" ry="4" fill="black" />
    <rect width="8" height="68.82869404804612" x="964" y="40.58565297597694" rx="4" ry="4" fill="black" />
    <rect width="8" height="80.52146050511097" x="980" y="34.73926974744452" rx="4" ry="4" fill="black" />
    <rect width="8" height="42.80792198934112" x="996" y="53.596039005329445" rx="4" ry="4" fill="black" />
    <rect width="8" height="54.46563608728701" x="1012" y="47.767181956356495" rx="4" ry="4" fill="black" />
    <rect width="8" height="92.8508361644232" x="1028" y="28.5745819177884" rx="4" ry="4" fill="black" />
    <rect width="8" height="66.878066279113" x="1044" y="41.5609668604435" rx="4" ry="4" fill="black" />
    <rect width="8" height="79.74745619121366" x="1060" y="35.12627190439317" rx="4" ry="4" fill="black" />
    <rect width="8" height="94.44497111587448" x="1076" y="27.77751444206276" rx="4" ry="4" fill="black" />
    <rect width="8" height="85.55610464548208" x="1092" y="32.22194767725896" rx="4" ry="4" fill="black" />
    <rect width="8" height="70.32565036281993" x="1108" y="39.837174818590036" rx="4" ry="4" fill="black" />
    <rect width="8" height="81.47615392962534" x="1124" y="34.26192303518733" rx="4" ry="4" fill="black" />
    <rect width="8" height="53.474430683011015" x="1140" y="48.262784658494496" rx="4" ry="4" fill="black" />
    <rect width="8" height="61.60283123982745" x="1156" y="44.198584380086274" rx="4" ry="4" fill="black" />
    <rect width="8" height="57.05061727592661" x="1172" y="46.474691362036694" rx="4" ry="4" fill="black" />
    <rect width="8" height="43.73157261009745" x="1188" y="53.13421369495127" rx="4" ry="4" fill="black" />
    <rect width="8" height="49.25550107857326" x="1204" y="50.37224946071337" rx="4" ry="4" fill="black" />
    <rect width="8" height="55.86988004607561" x="1220" y="47.065059976962196" rx="4" ry="4" fill="black" />
    <rect width="8" height="37.05919342005798" x="1236" y="56.47040328997101" rx="4" ry="4" fill="black" />
    <rect width="8" height="47.94745159967836" x="1252" y="51.02627420016082" rx="4" ry="4" fill="black" />
    <rect width="8" height="56.91385632798809" x="1268" y="46.54307183600595" rx="4" ry="4" fill="black" />
    <rect width="8" height="53.813755464841826" x="1284" y="48.09312226757909" rx="4" ry="4" fill="black" />
    <rect width="8" height="53.29442710812328" x="1300" y="48.352786445938364" rx="4" ry="4" fill="black" />
    <rect width="8" height="73.20565377188645" x="1316" y="38.39717311405678" rx="4" ry="4" fill="black" />
    <rect width="8" height="108.98651206137208" x="1332" y="20.50674396931396" rx="4" ry="4" fill="black" />
    <rect width="8" height="132.97870217918438" x="1348" y="8.51064891040781" rx="4" ry="4" fill="black" />
    <rect width="8" height="150" x="1364" y="0" rx="4" ry="4" fill="black" />
    <rect width="8" height="122.45492803580682" x="1380" y="13.772535982096592" rx="4" ry="4" fill="black" />
    <rect width="8" height="129.5689463390046" x="1396" y="10.215526830497694" rx="4" ry="4" fill="black" />
    <rect width="8" height="143.57136533056743" x="1412" y="3.2143173347162843" rx="4" ry="4" fill="black" />
    <rect width="8" height="117.17393163631688" x="1428" y="16.41303418184156" rx="4" ry="4" fill="black" />
    <rect width="8" height="126.69292222643405" x="1444" y="11.653538886782975" rx="4" ry="4" fill="black" />
    <rect width="8" height="143.3511361654596" x="1460" y="3.3244319172702035" rx="4" ry="4" fill="black" />
    <rect width="8" height="125.18848250928961" x="1476" y="12.405758745355193" rx="4" ry="4" fill="black" />
    <rect width="8" height="129.9959052265573" x="1492" y="10.002047386721344" rx="4" ry="4" fill="black" />
    <rect width="8" height="141.4898848751286" x="1508" y="4.255057562435695" rx="4" ry="4" fill="black" />
    <rect width="8" height="119.55721718996227" x="1524" y="15.221391405018863" rx="4" ry="4" fill="black" />
    <rect width="8" height="131.72169152872667" x="1540" y="9.139154235636667" rx="4" ry="4" fill="black" />
    <rect width="8" height="147.5964369331264" x="1556" y="1.201781533436801" rx="4" ry="4" fill="black" />
    <rect width="8" height="121.86547929129037" x="1572" y="14.067260354354815" rx="4" ry="4" fill="black" />
    <rect width="8" height="131.0717519686555" x="1588" y="9.464124015672255" rx="4" ry="4" fill="black" />
    <rect width="8" height="140.90304096729972" x="1604" y="4.548479516350142" rx="4" ry="4" fill="black" />
    <rect width="8" height="129.0605456096973" x="1620" y="10.46972719515135" rx="4" ry="4" fill="black" />
    <rect width="8" height="136.13493683557263" x="1636" y="6.932531582213684" rx="4" ry="4" fill="black" />
    <rect width="8" height="139.40829438260238" x="1652" y="5.295852808698811" rx="4" ry="4" fill="black" />
    <rect width="8" height="127.75801818389522" x="1668" y="11.120990908052391" rx="4" ry="4" fill="black" />
    <rect width="8" height="132.61548324807976" x="1684" y="8.692258375960122" rx="4" ry="4" fill="black" />
    <rect width="8" height="146.12330177610673" x="1700" y="1.9383491119466356" rx="4" ry="4" fill="black" />
    <rect width="8" height="123.26972566135213" x="1716" y="13.365137169323937" rx="4" ry="4" fill="black" />
    <rect width="8" height="139.46331604293843" x="1732" y="5.268341978530785" rx="4" ry="4" fill="black" />
    <rect width="8" height="145.3318439427662" x="1748" y="2.3340780286169007" rx="4" ry="4" fill="black" />
    <rect width="8" height="124.83823973060673" x="1764" y="12.580880134696635" rx="4" ry="4" fill="black" />
    <rect width="8" height="137.88650644435964" x="1780" y="6.05674677782018" rx="4" ry="4" fill="black" />
    <rect width="8" height="141.6783334868226" x="1796" y="4.1608332565887025" rx="4" ry="4" fill="black" />
    <rect width="8" height="115.46241725321529" x="1812" y="17.268791373392354" rx="4" ry="4" fill="black" />
    <rect width="8" height="136.3084071314317" x="1828" y="6.8457964342841535" rx="4" ry="4" fill="black" />
    <rect width="8" height="137.9643889868084" x="1844" y="6.017805506595806" rx="4" ry="4" fill="black" />
    <rect width="8" height="134.84226217943333" x="1860" y="7.578868910283333" rx="4" ry="4" fill="black" />
    <rect width="8" height="135.0993564231994" x="1876" y="7.450321788400302" rx="4" ry="4" fill="black" />
    <rect width="8" height="144.88070321438767" x="1892" y="2.5596483928061673" rx="4" ry="4" fill="black" />
    <rect width="8" height="116.73254866991724" x="1908" y="16.633725665041382" rx="4" ry="4" fill="black" />
    <rect width="8" height="133.0793030631191" x="1924" y="8.460348468440444" rx="4" ry="4" fill="black" />
    <rect width="8" height="146.05418892796797" x="1940" y="1.9729055360160146" rx="4" ry="4" fill="black" />
    <rect width="8" height="122.66012899160422" x="1956" y="13.669935504197888" rx="4" ry="4" fill="black" />
    <rect width="8" height="132.72176901102347" x="1972" y="8.639115494488266" rx="4" ry="4" fill="black" />
    <rect width="8" height="147.13118904355235" x="1988" y="1.4344054782238231" rx="4" ry="4" fill="black" />
    <rect width="8" height="125.92882503903373" x="2004" y="12.035587480483137" rx="4" ry="4" fill="black" />
    <rect width="8" height="61.13034010608768" x="2020" y="44.43482994695616" rx="4" ry="4" fill="black" />
    <rect width="8" height="57.652468375109386" x="2036" y="46.17376581244531" rx="4" ry="4" fill="black" />
    <rect width="8" height="73.91576235679456" x="2052" y="38.04211882160272" rx="4" ry="4" fill="black" />
    <rect width="8" height="59.46056825954375" x="2068" y="45.269715870228126" rx="4" ry="4" fill="black" />
    <rect width="8" height="68.96210836682215" x="2084" y="40.518945816588925" rx="4" ry="4" fill="black" />
    <rect width="8" height="75.85889354235846" x="2100" y="37.07055322882077" rx="4" ry="4" fill="black" />
    <rect width="8" height="86.4656624173127" x="2116" y="31.76716879134365" rx="4" ry="4" fill="black" />
    <rect width="8" height="79.88076354249374" x="2132" y="35.05961822875313" rx="4" ry="4" fill="black" />
    <rect width="8" height="51.74252074194864" x="2148" y="49.12873962902568" rx="4" ry="4" fill="black" />
    <rect width="8" height="66.36609679481528" x="2164" y="41.81695160259236" rx="4" ry="4" fill="black" />
    <rect width="8" height="61.044831135510016" x="2180" y="44.477584432244996" rx="4" ry="4" fill="black" />
    <rect width="8" height="62.484664417753905" x="2196" y="43.75766779112305" rx="4" ry="4" fill="black" />
    <rect width="8" height="72.45734520355884" x="2212" y="38.77132739822058" rx="4" ry="4" fill="black" />
    <rect width="8" height="73.39617386760345" x="2228" y="38.301913066198274" rx="4" ry="4" fill="black" />
    <rect width="8" height="69.51644284835109" x="2244" y="40.241778575824455" rx="4" ry="4" fill="black" />
    <rect width="8" height="71.03001603568235" x="2260" y="39.484991982158824" rx="4" ry="4" fill="black" />
    <rect width="8" height="68.24085410867902" x="2276" y="40.87957294566049" rx="4" ry="4" fill="black" />
    <rect width="8" height="58.23412513393814" x="2292" y="45.88293743303093" rx="4" ry="4" fill="black" />
    <rect width="8" height="64.58696106934303" x="2308" y="42.70651946532848" rx="4" ry="4" fill="black" />
    <rect width="8" height="41.310445907713266" x="2324" y="54.34477704614336" rx="4" ry="4" fill="black" />
    <rect width="8" height="37.196952208586744" x="2340" y="56.40152389570663" rx="4" ry="4" fill="black" />
    <rect width="8" height="8" x="2356" y="71" rx="4" ry="4" fill="black" />
    <rect width="8" height="8" x="2372" y="71" rx="4" ry="4" fill="black" />
    <rect width="8" height="8" x="2388" y="71" rx="4" ry="4" fill="black" />
  </g>
</svg>