<?xml version="1.0" encoding="UTF-8"?><svg id="" xmlns="http://www.w3.org/2000/svg" viewBox="0 0 568.37 311.92"><path d="M303.34,240.26c.47,.88,1,1.76,1.41,2.68,1.57,3.5,.7,5.74-2.95,6.95-2.17,.72-2.76,1.85-2.44,4.11,1.03,7.14,1.34,14.3-.61,21.38-1.81,6.56-4.92,12.14-12,14.07-3.12,.85-6.25,.39-9.58-.43-4.53-1.12-7.1-3.68-9.2-7.35-.02-.04-1,.25-1.07,.51-1.08,3.84-4.02,5.79-7.43,7.04-4.15,1.52-8.61-.79-9.11-5.24-.55-4.92-.1-9.94-.09-14.92,.02-6.5,.21-13.01-.05-19.51-.09-2.26-1.24-4.52-2.14-6.68-.16-.37-2.15-.53-2.29-.26-1.54,2.95-3.67,5.88-4.13,9.04-1.06,7.41-1.36,14.94-1.85,22.43-.45,6.91-.77,13.9-4.41,20.02-1.66,2.79-4.26,5.01-6.4,7.5-2.52,2.93-6.03,4.35-9.44,5.69-2.19,.85-4.74,.79-7.13,1.08-.22,.03-.49-.32-.74-.5,.15-.21,.26-.51,.47-.62,9.13-4.79,11.78-13.76,13.64-22.68,1.64-7.88,2.02-16.04,2.6-24.11,.3-4.2-.15-8.46-.28-12.69-.01-.39-.04-.86-.25-1.16-.71-1-1.35-2.32-2.35-2.75-.53-.23-2.3,.95-2.56,1.78-1.21,3.91-2.57,7.88-2.98,11.91-.83,8.31-.81,16.7-1.66,25.01-.65,6.36-2.09,12.67-6.6,17.68-3.77,4.19-8.87,5.49-14.19,6.04-2.38,.24-4.81,.04-6.7,.04,2.02-1.27,4.56-2.65,6.86-4.34,4.52-3.31,6.53-8.23,8.21-13.34,2.71-8.25,3.15-16.77,2.73-25.33-.26-5.35-.85-10.71-1.68-16.01-.42-2.7-1.89-5.13-4.72-6.22-.57-.22-1.29-.06-1.93-.07,.11,.7-.01,1.56,.36,2.06,1.65,2.21,2.2,4.34-.24,6.28-1.68,1.33-3.09,1.27-4.82-.5-1.45-1.48-2.3-2.63-1.97-4.79,.51-3.35,5.44-6.13,8.59-4.71,3.3,1.49,5.26,4.04,6.29,7.42,.13,.43,.44,.8,.67,1.2,.32-.33,.7-.61,.94-.99,2.5-4.04,5.67-6.89,10.78-7.13,3.68-.18,5.99,1.6,7.68,4.5,.81,1.4,1.57,1.33,2.4,.2,2.6-3.56,6.1-5.5,10.26-6.99,3.82-1.36,7.42,1.58,8.63,4.59,2.11,5.27,2.65,10.71,2.41,16.33-.31,7.41-.48,14.83-.71,22.25-.15,4.99,4.41,7.87,9.13,5.83,4.55-1.97,5.6-6.05,5.92-10.28,.5-6.51,.22-13.09,.91-19.57,.66-6.18,3.74-11.53,8.44-15.55,6.08-5.2,16.4-2.76,20.16,4.28,.68,1.27,2.23,2.1,3.45,3.05,.14,.11,.71-.33,1.09-.52-.24-.33-.41-.73-.72-.97-2.32-1.76-2.97-4.81-1.45-7.66,1.27-2.39,3.92-2.88,5.54-1.62,2.26,1.77,3.72,4.56,5.48,6.95,.33,.45,.48,1.04,.71,1.57,.48-.44,1.04-.83,1.42-1.34,3.33-4.46,6.94-8.32,13.15-8.46,5.01-.11,8.81,1.83,10.79,6.05,2.14,4.56,1.44,9.93-1.71,13.27-.2,.21-.29,.53-.43,.8,.33,.17,.65,.45,1,.5,3.12,.46,6.31-3.01,7.8-6.92,1.53-4.03,3.41-8.22,6.21-11.4,3.29-3.72,8.24-4.12,12.89-2.3,5.16,2.02,6.99,6.48,7.75,11.63,.79,5.34-.48,10.28-2.03,15.35-2.58,8.41-4.79,16.95-6.76,25.52-.82,3.56,.26,7.15,3.63,9.23,3.82,2.36,7.84,2.13,11.69-.17,1.37-.82,3.19-1.57,3.74-2.82,.38-.86-.93-2.61-1.7-3.82-4.19-6.59-3.68-14.11-4.58-21.41-1.15-9.3,.75-17.9,5.82-25.47,2.43-3.64,6.25-7.07,10.23-8.75,4.25-1.8,9.66-1.41,13.43,2.03,1.62,1.48,2.03,4.6,2.35,7.06,.3,2.3-.06,4.73-.44,7.06-.51,3.11-.99,6.3-2.07,9.23-2.36,6.39-5.08,12.64-7.71,18.93-.44,1.06-1.07,2.05-1.71,3.01-1.39,2.09-.68,3.72,1.09,5.07,.79,.6,1.7,1.04,2.58,1.52,6.87,3.82,6.41,3.75,10.41-2.25,3.98-5.96,6.09-13.22,8.59-20.08,1.07-2.93,1.4-6.27,1.41-9.42,.02-6.64-.37-13.27-4.82-18.85-.65-.81-.82-2.1-.92-3.19-.02-.23,1.22-.83,1.85-.79,.49,.03,1.04,.72,1.39,1.24,4.59,6.81,11.95,8.7,19.16,11.06,5.26,1.72,10.11,4.21,13.85,8.66,5.26,6.27,8.08,13.47,7.5,21.47-.58,8.08-3.57,15.29-11.13,19.72-3.43,2.01-10.21,1.65-13.7-.36-2.93-1.69-6.42-2.86-7.64-6.17-.73-1.98-.68-4.88,.32-6.63,.58-1.01,4.21-1.34,5.6-.52,1.5,.88,2.03,3.46,2.88,5.34,.13,.3-.23,.92-.5,1.29-1.78,2.47-1.16,4.29,1.79,5.33,1.04,.37,2.03,1.07,3.09,1.2,3.17,.39,5.78-2.05,6.83-5.68,1.77-6.18,.01-11.68-3.25-16.74-2.32-3.59-5.17-6.85-7.87-10.19-1.01-1.26-2.08-2.64-3.44-3.41-1.74-.98-3.8-1.4-5.72-2.06-.15-.05-.35-.04-.46-.13-2.88-2.49-2.22,.19-2.49,1.66-.83,4.47-1.34,9.04-2.67,13.36-1.6,5.2-2.96,10.61-6.69,14.9-4.94,5.67-10.51,10.38-18.59,10.08-2.37-.09-4.78-1.01-7-1.96-1.46-.62-1.72,.33-2.65,.82-3.27,1.71-6.72,3.88-10.23,4.12-4.97,.33-10.09-.65-15.07-1.55-2.58-.47-5.23-1.58-7.4-3.06-4.19-2.85-4.74-7.48-3.73-11.86,1.85-8,4.33-15.85,6.54-23.76,1.42-5.09,3.1-10.13,4.14-15.29,.44-2.15-.49-4.64-3.17-5.4-.76-.22-2.14-.08-2.49,.42-1.82,2.56-3.33,5.34-5.08,7.95-2.07,3.06-4.16,6.12-6.52,8.96-.55,.66-2.27,.75-3.31,.51-2.59-.59-5.1-1.52-7.63-2.35-.18-.06-.25-.41-.38-.63,.26-.15,.57-.47,.79-.41,2.3,.56,3.11-1.04,3.95-2.64,1.39-2.65,.89-8.19-1.1-10.23-.43-.44-1.57-.69-2.1-.43-4.05,1.98-5.6,5.74-6.13,9.84-.82,6.35-1.16,12.75-1.91,19.11-.27,2.29-1.25,4.5-1.67,6.78-1.36,7.51-5.1,13.8-9.79,19.62-.18,.23-.55,.43-.83,.44-.85,.02-1.85-.37-2.54-.05-4.92,2.24-9.69,.03-14.51-.32-6.82-.49-13.64-1.51-20.45-1.42-4.93,.06-10.21,.11-14.48,3.45-2.8,2.19-4.6,5.03-5.27,8.59-.67,3.58-3.43,5.03-6.87,3.76-1.86-.68-3.63-1.21-4.49-3.49-1.38-3.64,1.45-5.01,3.38-6.51,5.06-3.93,10.85-6.18,17.32-6.93,9.09-1.05,18.1-.45,27.18,0,2.86,.14,6.06-2.09,8.73-3.81,8.41-5.39,10.74-13.8,11.31-23.21,.42-6.96,.74-13.84-.5-20.75-.68-3.77-1.89-6.1-4.17-6.51Zm-19.06,43.37l.18-.23c1.04,.7,2.05,1.47,3.14,2.09,.65,.37,1.86,.92,2.09,.69,2.03-2.13,4.52-4.14,5.67-6.73,1.45-3.28,2.3-7.03,2.47-10.62,.26-5.26-.24-10.56-.61-15.84-.05-.69-1.11-1.64-1.89-1.88-3.1-.94-5.89-2.25-7.75-5.02-.9-1.34-1.83-1.09-2.53-.03-1.07,1.62-2.24,3.28-2.82,5.1-2.99,9.3-2.56,18.88-1.83,28.43,.24,3.2,3.76,7.11,6.25,7.48,.39,.06,.81-.13,1.22-.21-.22-.28-.4-.61-.67-.84-.96-.81-1.95-1.59-2.92-2.39Zm100.73-13.25c1.04,2.81,2.47,6.77,4,10.68,.08,.21,1.4,.29,1.53,.08,5.07-8.56,9.34-17.46,10.47-27.51,.27-2.4,.59-4.9,.19-7.23-.37-2.18-2.75-2.92-4.81-2.03-3.53,1.52-5.39,4.27-7.04,7.75-2.57,5.42-3.38,11.05-4.34,18.27Zm-93.93-26.64c-.56,.88-.82,1.29-1.09,1.7,1.11,.7,2.22,1.41,3.35,2.08,.06,.03,.49-.42,.47-.44-.8-1.02-1.64-2.01-2.74-3.34Z"/><path d="M508.77,101.23c.16,.63,.33,1.47,.38,1.46,.8-.11,1.59-.27,2.35-.54,.51-.18,.94-.71,1.45-.78,2.23-.34,5.31-3.78,5.18-6.06-.03-.49-.64-1.17-1.14-1.38-4.42-1.85-5.48-8.27-1.85-11.48,1.92-1.7,6.2-.74,7.82,1.8,2.65,4.15,3.6,9.43-.52,14.71-4.88,6.25-16.52,10.24-22.86,3.48-1.76-1.88-2.65-4.58-3.94-6.91-.24-.43-.47-.87-.71-1.31-.29,.34-.66,.65-.87,1.04-2.7,5.08-7.53,7.49-12.47,9.51-1.8,.74-4.16,.43-6.19,.1-.92-.15-1.57-1.62-2.49-2.28-.57-.41-1.61-.79-2.12-.54-3.79,1.85-7.32,4.48-11.3,5.65-3.26,.96-7.02,.35-10.54,.21-1.52-.06-3.01-.93-4.54-1.04-3.65-.28-5.98-2.54-7.63-5.34-.85-1.44-1.04-3.57-.81-5.29,.62-4.73,1.69-9.4,2.42-14.12,.33-2.15,.31-4.37,.37-6.56,0-.07-.94-.36-1.3-.21-3.51,1.49-4.53,4.4-4.84,7.98-.57,6.61-2.26,12.91-6.31,18.38-5.09,6.87-13.33,7.62-19.88,2.02-5.63-4.8-7.14-11.29-7.17-18-.02-5.46,1.37-10.92,2.12-16.38,.05-.37,0-.74,0-1.12-.38,0-.76,0-1.13,.02-2.65,.17-5.32,.6-7.96,.45-1.87-.11-1.97,.61-1.74,1.97,.5,2.9,1.09,5.79,1.51,8.7,1.12,7.77-4.4,18.2-11.59,21.43-3.04,1.37-6.3,2.53-9.58,3.02-4.18,.62-7.61-1.42-10.17-4.72-.94-1.21-1.6-1.13-2.51-.01-4.53,5.58-12.98,7.23-18.7,4.89-2.13-.87-3.91-2.57-5.94-3.73-.51-.29-1.68-.29-2.02,.08-3.93,4.2-8.56,6.53-14.45,5.89-6.85-.75-11.64-7.37-10.51-14.47,.73-4.6,2.08-8.9,6.37-11.38,4.06-2.34,8.3-4.34,13.25-2.53,.45,.16,1.72-.51,1.7-.67-.9-6.62-1.22-13.46-5.77-18.95-1.77-2.14-4.05-3.09-6.82-1.92-2.31,.98-4.31,4.35-4,6.73,.05,.35,.32,.67,.49,1.01,.3-.16,.65-.27,.9-.49,2.28-1.97,4.08-1.73,6.44,.9,1.11,1.24,.88,4.95-.39,6.11-1.61,1.48-6.6,.04-8.03-2.33-3.01-4.97-1.93-10.67,2.71-14.31,7.79-6.1,18.36-3.6,22.78,5.33,2.93,5.92,2.67,12.28,2.93,18.62,.19,4.61,.38,9.32,1.46,13.76,1.55,6.38,5.08,8.61,11.84,7.79,2.12-.26,4.06-2.04,6.04-3.2,.2-.12,.25-.74,.15-1.06-3.4-10.74-3.43-21.68-1.94-32.71,1.23-9.13,2.11-18.32,3.71-27.39,.67-3.83,2.45-7.58,4.33-11.04,1.82-3.34,6-4.27,10.36-3.08,4.51,1.23,6.52,4.04,6.79,8.71,.65,11.38-4.15,19.57-14.02,25.1-1.21,.68-2.43,2.54-2.47,3.89-.3,10.88-.37,21.76-.35,32.64,0,1.32,.98,2.63,1.42,3.97,.51,1.56,.79,3.22,1.47,4.7,.26,.56,1.49,1.18,2.05,1.02,3.47-1,6.94-2.05,10.28-3.42,4.5-1.84,6.8-5.85,8.17-10.13,2.35-7.36,1.61-14.67-1.73-21.66-.38-.8-1.28-1.34-1.67-2.14-.37-.76-.5-1.68-.53-2.54-.01-.33,.52-.69,.81-1.03,.52,.48,1.17,.88,1.53,1.46,3.07,5.1,7.05,6.7,12.68,4.92,.71-.22,1.4-.81,1.86-1.42,2.56-3.36,6.07-4.1,10.08-4.39,4.86-.34,9.33,.48,13.45,2.95,3.99,2.39,8.07,4.81,8.25,10.33,0,.26,.82,.79,.92,.72,1.77-1.29,3.95-2.35,5.1-4.09,1.31-1.98,1.71-4.56,2.45-6.9,1.22-3.84,.53-6.22-2.52-8.69-.4-.32-.97-.44-1.45-.66,.01,.51,.14,1.05,.01,1.52-.42,1.52-.51,3.5-1.52,4.38-.97,.84-3.08,1-4.44,.6-2.84-.84-3.59-3.5-3.96-6.14-.07-.51,.38-1.47,.79-1.61,2.76-.91,5.54-1.84,8.38-2.4,1.85-.37,3.82-.26,5.72-.14,6.8,.43,10.81,4.39,10.51,11.23-.25,5.63-1.34,11.23-2.22,16.82-.79,5.08-2.11,10.1-2.6,15.21-.33,3.51,1.41,6.94,4.41,8.67,2.51,1.45,5.71,.31,7.65-1.81,2.47-2.7,4.57-5.81,6.45-8.96,.74-1.25,.39-3.11,.66-4.68,1.33-7.54,1.51-15.13,1.15-22.76-.05-1.13,.81-2.3,1.24-3.46,1.23,.49,2.55,.82,3.66,1.51,1.52,.95,2.99,2.05,4.23,3.33,.73,.76,1.35,1.96,1.4,2.99,.2,4.08,.16,8.17,.18,12.25,0,.83-.16,1.66-.17,2.5-.06,4.24-.41,8.51-.06,12.72,.28,3.39,4.32,4.8,7.51,2.94,5.55-3.22,7.9-8.42,8.44-14.49,1.01-11.32,1.85-22.65,2.73-33.99,.18-2.35,.31-4.7,.28-7.05,0-.45-.89-1.29-1.33-1.27-5.24,.27-11.22,4.74-12.84,10.24-.66,2.23-2.28,4.19-3.61,6.18-.15,.22-1.42,.02-1.86-.35-1.7-1.44-3.38-2.94-4.88-4.59-2.06-2.27-1.3-6.87,1.23-9.46,1.23-1.25,1.92-3.26,3.35-4.05,3.39-1.89,6.99-3.51,10.66-4.76,2.65-.9,5.57-.95,8.34-1.55,.51-.11,1.22-1.08,1.2-1.63-.23-5.62-.57-11.24-.92-16.86-.14-2.27,.13-4.1,2.2-5.75,1.63-1.3,2.77-3.44,3.62-5.42,1.3-3.04,3.69-3.95,6.6-4.19,.31-.02,.92,.49,.95,.79,.37,3.71,.89,7.42,.91,11.13,.01,2.97-.7,5.93-.92,8.9-.29,4.01-.48,8.02-.51,12.04,0,.71,.96,1.96,1.59,2.04,8.79,1.15,17.58,1.64,26.31-.54,.85-.21,1.74-.43,2.6-.38,.92,.05,1.82,.41,2.73,.63-.59,1-.93,2.42-1.81,2.93-2.18,1.26-4.51,2.58-6.94,3-3.8,.67-7.73,.73-11.61,.83-3.95,.1-7.9-.15-11.84,0-.7,.03-1.84,1.19-1.94,1.94-.2,1.57,.17,3.22,.28,4.83,.04,.66,.07,1.34-.01,1.99-.89,6.59-1.81,13.17-2.71,19.75-.23,1.7-.51,3.4-.57,5.11-.25,6.87-.46,13.74-.61,20.61-.07,3.07,1.46,5.54,3.02,5.61Zm-96.72-17.59c0,.92-.16,1.86,.03,2.74,.87,4.12,1.32,8.43,2.9,12.27,1.52,3.71,7.05,4.44,9.09,1.79,4.99-6.47,6.25-14.12,6.87-21.94,.05-.63-.59-1.56-1.18-1.94-3.04-2.01-5.04-4.55-5.23-8.36-.05-.96-.51-2.22-1.22-2.78-3.16-2.5-5.05-1.83-7.14,1.57-3.18,5.16-4.01,10.79-4.11,16.65Zm-97.07,5.61c-.14,4.7,1.53,9.34,4.45,11.85,.84,.73,2.76,1.46,3.32,1.04,2.45-1.85,4.61-4.09,6.81-6.26,.3-.3,.38-.98,.32-1.45-.33-2.8-1.01-5.6-1.04-8.4-.07-5.4-5.11-7.16-8.94-5.67-4.42,1.72-4.35,5.64-4.93,8.89Zm65.22-58.32c0-.58,.02-1.18,0-1.78-.09-2.42-2-4.77-3.11-3.86-2.48,2.04-5.76,4.14-6.63,6.88-2.04,6.41-2.87,13.21-4.16,19.86-.07,.36,.08,.75,.13,1.13,.4-.08,.85-.06,1.19-.26,8.46-4.87,12.93-12.03,12.58-21.98Zm47.44,39.42c.54,1.02,.97,1.98,1.56,2.84,.24,.35,.81,.46,1.23,.68,.09-.4,.35-.86,.24-1.19-.17-.49-.53-.98-.94-1.3-.49-.37-1.11-.56-2.09-1.02Z"/><path d="M172.88,201.25c1.78-2.09,3.56-4.29,5.46-6.39,4.48-4.95,6.67-10.97,7.64-17.37,1.23-8.2,2.09-16.46,2.83-24.72,.1-1.09-1.26-2.6-2.31-3.44-3.27-2.62-9.56-1.3-12.06,2.04-3.04,4.07-3.03,8.97-4.22,13.55-1.65,6.36-1.79,13.08-5.74,18.86-5.12,7.48-12.17,11.24-20.93,12.3-.3,.04-.92-.35-.91-.43,.12-.5,.25-1.26,.6-1.39,7.12-2.77,10.74-8.86,12.96-15.36,1.72-5.04,1.66-10.72,2.1-16.15,.32-3.92,.23-7.88,.19-11.82-.04-4.26-1.68-7.81-4.99-10.57-1.91-1.59-4.97-1.49-6.48,.35-1.09,1.33-1.65,2.53,.14,3.91,2.32,1.79,2.03,4.21,.86,6.49-.34,.67-1.4,1.27-2.19,1.37-2.96,.35-6.81-3.75-6.07-6.62,.38-1.46,1.71-2.66,2.45-4.06,2.16-4.13,8.18-4.86,12.52-1.69,2.56,1.87,3.36,4.53,4.24,7.27,.25,.77,.77,1.45,1.16,2.18,.39-.59,.76-1.2,1.16-1.78,4.01-5.84,9.73-10.54,17.43-9.47,4.22,.59,7.16,3.24,9.33,6.81,.35,.57,.94,.99,1.42,1.47,.39-.46,.9-.86,1.14-1.38,4.51-9.72,14.62-12.46,23.93-7.47,4.85,2.6,6.98,9.05,6.34,14.53-.62,5.24-.41,10.61-.13,15.9,.17,3.25,.92,6.52,1.87,9.65,.85,2.81,3.1,3.54,5.86,2.51,2.47-.92,4.13-2.61,4.05-5.31-.14-4.94,.68-9.47,3.33-13.84,3.33-5.5,12.65-7.23,17.09-5.44,2.12,.86,2.78,.28,2.41-1.79-.76-4.22-1.45-8.47-2.49-12.62-.35-1.39-1.49-2.75-2.59-3.77-2.64-2.44-4.57-2.19-6.5,.89-.51,.82-.54,2.58,0,3.31,1.78,2.4,1.8,5.18,.24,6.99-1.24,1.44-4.05,2.18-6.11,2.09-3.13-.14-5.22-2.55-6.67-5.25-.27-.5-.19-1.39,.07-1.93,4.3-8.59,17.49-12.29,25.48-6.96,5.72,3.82,7.6,9.71,7.68,16.31,.1,8.18,.04,16.37,.34,24.54,.14,3.85,2.92,5.97,6.34,5.51,.39-.05,.82-.14,1.12-.36,5.15-3.96,8.05-8.76,7.72-15.71-.41-8.84,.08-17.72,.19-26.58,.09-7.5,.37-15,.25-22.5-.1-6.24-.52-12.49-1.1-18.71-.15-1.58-1.26-3.18-2.26-4.52-.32-.43-1.73-.05-2.64-.04,.18,.64,.41,1.28,.55,1.93,.34,1.66,.96,3.38,.75,4.98-.07,.56-2.65,1.53-3.37,1.1-1.17-.69-2.26-2.3-2.46-3.66-.51-3.49,.75-6.37,3.97-8.28,3.49-2.06,7.19-2.97,10.79-.92,1.56,.89,2.86,2.9,3.45,4.68,2.76,8.22,3.64,16.67,3.12,25.38-.4,6.68,.05,13.41,.07,20.11,0,1.71-.19,3.42-.28,5.13-.02,.37,.02,.75,.04,1.12,.3-.26,.71-.47,.88-.8,1.9-3.86,4.96-6.18,9.18-6.94,7.85-1.42,10.53,3.38,10.78,10.57,.14,3.89-1.07,7.43-4.5,9.87-.23,.16-.09,1.24,.2,1.68,2.24,3.3,5,6.34,6.73,9.88,1.77,3.61,2.63,7.68,3.75,11.6,1.12,3.92,6.94,6.64,10.79,5.19,2.8-1.05,5.78-1.61,7.09-4.79,.16-.4,.49-.81,.47-1.2-.54-9.48-.83-18.98-1.85-28.41-.35-3.21-1.45-7.01-5.52-8.13-.7-.19-2.24,.23-2.3,.56-.17,1.03,.16,2.15,.34,3.23,.02,.15,.28,.27,.45,.38,1.81,1.24,3.54,2.66,2.07,5.07-1.12,1.84-3.03,2.32-5.06,1.47-2.55-1.08-3.71-3.49-3.09-5.74,2.08-7.59,12.4-12.06,17.83-10.36,3.8,1.19,5.17,4.64,6.41,8.01,2.65,7.19,1.65,14.77,2.31,22.17,.39,4.37,1.32,8.81,2.8,12.94,1.26,3.52,4.37,3.73,7.07,1.13,.37-.36,.74-.85,1.19-.96,.56-.14,1.21,.05,1.82,.1-.25,.4-.46,.83-.76,1.2-.55,.68-1.33,1.24-1.68,2-3.3,7.32-13.72,7.91-18.54,1.81-.91-1.15-1.8-2.32-2.69-3.48-1.09,.94-2.06,2.1-3.29,2.78-2.54,1.4-5.28,3.65-7.84,3.54-4.39-.19-9.6-.44-12.55-4.24-3.52-4.52-6-9.85-9.09-14.73-1.83-2.88-3.5-6.19-6.12-8.12-1.95-1.43-5.31-.97-8.05-1.27-.17-.02-.57,.58-.58,.9-.28,6.44,.6,12.69,4.12,18.19,.89,1.4,2.94,2.27,4.63,2.91,2.3,.87,4.78,1.28,7.87,2.06-2.3,.65-3.99,1.47-5.73,1.56-4.91,.27-9.93,.85-14.33-2.25-2.81-1.98-4.82-4.49-5.42-7.98-.09-.5-.38-.97-.57-1.46-.31,.37-.68,.71-.92,1.13-4.62,7.99-10.14,9.47-18.36,6.45-1.61-.59-2.63-2.68-4.07-3.9-.53-.45-1.86-.8-2.19-.5-3.41,3.13-7.71,3.35-11.9,3.62-3.56,.23-6.76-.91-9.12-3.86-.19-.23-1.31-.16-1.43,.07-1.6,3.12-4.32,3.48-7.24,2.77-3.36-.83-4.98-3.66-5.13-6.7-.39-7.86-.48-15.75-.32-23.62,.07-3.44,.19-3.86-3.2-4.27-1.66-.2-3.63-.89-4.94-.27-2.28,1.09-4.77,2.62-6.11,4.67-4.68,7.15-5.42,15.66-7.35,23.74-2.69,11.25-8.97,19.66-19.51,24.59-1.84,.86-4.09,.85-5.61,1.14Zm82.47-38.81l.52-.17c-.46-.85-.7-2.07-1.41-2.48-1.29-.74-2.86-1.37-4.29-1.33-1.32,.03-3.32,.66-3.78,1.62-1.29,2.69-2.36,5.64-2.73,8.58-.43,3.36,.12,6.79,2.44,9.61,1.44,1.75,3.26,2.39,5.33,1.45,2.23-1.01,4.73-1.96,4.6-5.09-.17-4.06-.45-8.12-.68-12.18Zm48.31-11.29c-.11-.48-.33-1.86-.75-3.18-.72-2.24-1.93-4.5-4.46-4.53-2.37-.03-4.9,.77-5.73,3.59-.89,3.05-2.01,6.11-2.37,9.24-.47,4.11-.19,4.14,4,4.59,6.07,.65,9.58-2.66,9.3-9.71Z"/><path d="M58.67,43.57c3.79-1.65,4.02-5.06,4.92-8.1,.94-3.18-1.44-7.3-3.84-9.46-2.52-2.26-4.97-3.24-7.92-2.15-3.92,1.44-6.86,4.37-8.22,8.26-2.7,7.73-5,15.6-7.46,23.41-3.08,9.8-4.98,20.04-10.43,28.98-1.23,2.01-2.51,3.98-3.75,5.99-.17,.27-.21,.63-.3,.95,.33-.06,.69-.05,.98-.19,3.48-1.74,6.81-3.84,10.44-5.17,5.66-2.07,11.49-2.33,17.34-.3,5.6,1.95,11.14,4.5,16.92,5.34,6.28,.91,12.18-1.04,16.74-6.29,3.91-4.51,7.75-8.87,10.13-14.51,2.17-5.13-.08-9.28-5.66-9.14-1.89,.05-3.74,2.48-3.68,4.48,.03,.96-.49,1.94-.77,2.91-.75-.82-1.89-1.52-2.17-2.48-1.42-4.8,.46-8.25,6-9.39,3.77-.78,7.93-.69,11.75-.02,5.32,.94,6.75,4.92,6.02,9.34-.95,5.75-2.95,11.33-4.42,17-.77,2.98-1.87,5.99-1.88,8.99,0,1.73,1.5,3.88,2.95,5.1,1.62,1.37,7.17-1.31,7.78-3.43,2.16-7.59,4.23-15.21,6.46-22.78,1.45-4.93,3.24-9.76,4.68-14.69,1.15-3.94,2.02-7.97,2.91-11.98,.07-.33-.63-1.19-1-1.21-1.54-.08-3.15-.19-4.62,.19-2.53,.64-5.41,1.1-7.33,2.64-1.76,1.41-3.02,1.66-4.76,.81-3.92-1.9-4.67-7.8-.99-10.07,2.56-1.58,5.67-2.52,8.66-3.09,4.32-.82,7.95,1.03,10.97,4.12,1.11,1.13,1.71,.7,2.15-.65,2.32-7,5.15-13.72,10.2-19.32,3.42-3.8,7.5-6.29,12.56-7.03,.98-.14,2.13,.03,3.04,.42,2.82,1.21,5.62,2.47,8.31,3.93,4.85,2.63,6.2,10.09,2.2,13.9-1.78,1.7-4.55,2.6-7.04,3.23-2.02,.52-4.47-.37-4.47-2.79,0-2.41,.46-5.43,1.95-7.06,1.51-1.65,4.27-.73,6.06,1.15,.32,.34,.79,.53,1.2,.79,.08-.56,.28-1.13,.23-1.67-.41-4.05-3.77-5.51-6.79-6.62-1.41-.52-3.73,.78-5.37,1.72-2,1.15-3.93,2.6-5.5,4.29-1.16,1.25-1.59,3.13-2.51,4.63-.43,.7-1.51,1.05-1.84,1.77-1.92,4.17-3.77,8.38-5.43,12.66-.21,.55,.67,2.07,1.36,2.33,5.35,2.04,10.61,1.64,15.71-1.01,.47-.24,1.17-.03,1.77-.03-.17,.6-.15,1.5-.54,1.76-1.29,.85-2.65,1.77-4.12,2.11-4.62,1.06-9.26,2.03-14.02,.47-1.51-.49-2.66-.14-2.85,2.04-.16,1.7-1.43,3.27-1.89,4.98-1.79,6.58-3.38,13.22-5.19,19.8-2.04,7.41-4.22,14.78-6.35,22.17-1.93,6.7-3.94,13.37-5.78,20.09-2.7,9.84-7.37,18.5-15.01,25.4-5.01,4.53-14.57,5.39-19.66,1.07-4.23-3.59-5.44-8.71-4.8-14.38,.39-3.43,2.4-4.67,5.14-5.48,3.22-.94,6.12,2.15,5.4,5.7-.14,.7-.47,1.44-.38,2.11,.43,3.08-.69,4.86-3.92,5.13-.27,.02-.76,.67-.7,.92,.4,1.71,.67,3.54,1.54,5,.36,.6,2.1,.34,3.2,.57,.67,.14,1.3,.48,1.94,.74,.38,.16,.72,.49,1.1,.52,3.45,.31,7.69-2.35,9.59-5.3,7.19-11.15,9.68-23.87,12.52-36.49,.06-.28-.03-.61-.05-.91-.32,.09-.75,.07-.95,.28-2.31,2.39-4.79,1.75-7.43,.61-2.06-.89-4.47-1.16-6.28-2.37-4.17-2.8-5.92-6.86-4.99-11.94,.08-.45-.27-.97-.42-1.46-.48,.22-1.08,.34-1.44,.69-7.07,6.95-18,9.8-27.22,5.23-2-.99-4.09-2-6.25-2.41-5.38-1-10.59-3.98-16.28-1.97-3.52,1.24-7.09,2.49-10.34,4.27-6.79,3.7-13.33,7.87-20.12,11.58-1.52,.83-3.62,.61-5.46,.79-.29,.03-.9-.44-.87-.61,.09-.58,.27-1.22,.63-1.66,3.12-3.83,7.03-7.23,9.27-11.5,3.49-6.65,6.05-13.82,8.65-20.91,3.54-9.63,6.87-19.33,10.03-29.09,1.83-5.65,4.44-10.81,7.82-15.66,3.56-5.1,12.19-7.21,17.99-4.97,3.9,1.51,6.87,3.86,9.26,7,4.17,5.48,3.92,12.39-1.28,17.57-2.78,2.77-6.09,3.88-9.94,3.09-3.44-.7-6.11-5.19-5.1-8.46,.07-.23,.31-.45,.53-.57,.91-.52,2-.83,2.75-1.52,2.5-2.28,4.31-2.4,7.56,0,2.12,1.57,2.47,3.61,.92,5.87-.21,.31-.24,.75-.43,1.41Z"/><path d="M400.31,169.36c0-5.73,.42-11.51-.13-17.18-.43-4.45-1.85-8.85-3.24-13.14-.9-2.78-3.44-2.78-5.33-.54-3.29,3.89-4.09,8.73-4.58,13.39-.99,9.46-1.31,18.98-1.85,28.49-.26,4.67,.09,9.44-.7,14.01-1.1,6.34-4.76,11.52-9.49,15.8-3.54,3.21-7.38,5.92-12.52,6.15-4.73,.2-9.23-.18-13.73-1.9-2.5-.96-5.42-.84-8.14-1.25-.73-.11-1.43-.43-2.16-.57-4.97-.95-9.91-2.22-14.92-2.72-6.08-.6-12.23-.6-18.35-.7-2.62-.04-5.28,.15-7.88,.52-5.66,.8-7.07,2.71-7.24,8.37-.04,1.27-1.05,2.97-2.13,3.65-2.04,1.29-4.52,1.65-6.62-.09-4.49-3.73-3.54-7.91,2.52-9.93,11.03-3.67,22.32-5.99,34.02-4.49,8.55,1.09,17.04,2.59,25.58,3.75,1.9,.26,3.91,.02,5.83-.27,6.26-.95,11.94-3.29,16.51-7.76,1.12-1.09,1.92-2.85,2.17-4.42,.97-6.06,1.95-12.14,2.37-18.25,.59-8.51,1.1-17.06,.81-25.57-.16-4.61-1.95-9.19-3.24-13.72-.28-1-1.41-2.05-2.4-2.48-.84-.36-2.18-.1-3.05,.35-.48,.25-.74,1.52-.61,2.24,.84,4.6-2.24,7.79-6.63,6.74-2.53-.6-3.77-5.52-2.03-8.25,2.07-3.26,5.03-4.65,8.89-4.11,3.9,.54,7.03,2.02,8.16,6.22,.41,1.54,1.05,3.02,1.6,4.52,.07,.2,.24,.37,.36,.55,.18-.15,.43-.26,.52-.44,.51-1.04,1.01-2.08,1.45-3.16,2.95-7.29,11.15-11.92,18.93-10.7,3.87,.61,5.97,3.29,7.15,6.62,.85,2.41,1.33,5.04,1.44,7.59,.27,6.47,.17,12.96,.37,19.43,.11,3.72,.19,7.48,.83,11.13,.88,5.05,6.65,7.01,10.9,3.95,2.34-1.69,3.2-3.6,2.41-6.77-1.62-6.54-1.33-13.26,.37-19.79,1.21-4.66,2.64-9.29,4.35-13.78,2.96-7.75,10.28-12.26,17.85-9.38,5.15,1.96,7.98,6.3,9.91,11.28,.19,.49,.69,1.19,1.06,1.19,.44,0,1.01-.54,1.33-.99,1.31-1.84,1.71-3.76,.72-5.96-1.49-3.32-.77-5.96,1.72-6.98,3.07-1.27,6.71,.22,8.05,3.28,1.35,3.1-.14,8.09-3.13,9.72-2.05,1.12-4.26,1.99-6.48,2.76-1.66,.58-2.08,1.43-1.75,3.15,2.09,10.89-.09,20.98-5.92,30.33-.5,.8-1.14,1.59-1.9,2.14-2.12,1.54-3.95,3.13-2.93,6.14,.01,.03,0,.09-.01,.12-2.28,3.66,.8,2.97,2.67,3.33,7.33,1.4,12.69,5.31,15.59,12.32,1.81,4.38-1.02,12.74-4.69,15.71-6.59,5.33-14.31,6.34-22.09,5.98-6.56-.3-12.28-3.44-16.82-8.64-3.85-4.4-4.17-12.23-.49-16.76,4.65-5.72,10.34-8.76,17.8-8.69,1.7,.01,3.52-.97,5.07-1.86,.64-.37,1.06-1.8,.9-2.61-.09-.46-1.64-1.03-2.41-.89-6.7,1.18-11.92-1.43-16.47-6.06-.22-.23-1.41-.03-1.55,.26-1.5,3.02-6.64,6.22-9.82,5.26-3-.91-5.24-3.3-5.95-6.52-.65-2.98-.92-6.05-1.35-9.08l.52-.05Zm56.05,37.19c-.65-1.12-1.92-3.32-3.2-5.51-2.29-3.89-5.99-6.08-9.98-7.65-1.56-.61-3.57-.33-5.34-.13-3.77,.44-7.83-.29-10.25,4.24-3.7,6.91-5.25,13.69-.82,20.74,1.91,3.04,4.47,5.51,8.49,4.92,3.8-.56,7.69-.99,11.3-2.2,6.52-2.18,9.83-6.94,9.81-14.42Zm-7.23-49.35c-.34-3.03-.57-6.02-1.08-8.96-.13-.75-1.04-1.71-1.8-1.96-3.17-1.05-6.4-1.89-8.03-5.28-.55-1.15-1.18-2.26-1.77-3.39-.83,1.19-1.68,2.37-2.49,3.58-.17,.26-.23,.59-.33,.9-1.53,4.47-3.22,8.89-4.54,13.42-2.07,7.11-3.66,14.27-.99,21.66,1.27,3.53,7.77,6.76,10.44,4.74,1.88-1.41,3.72-3.14,4.93-5.11,3.68-5.98,4.84-12.76,5.64-19.6Zm-8.99-19.4c-.03,3.17,2.57,6.01,5.57,6.24,.24,.02,.85-.89,.77-1.01-1.41-2.06-2.88-4.08-4.41-6.05-.22-.28-1-.5-1.23-.34-.4,.29-.56,.89-.7,1.15Z"/><path d="M152.85,252.87c-.31,7.43-.59,15.01-.95,22.58-.27,5.68,3.09,7.99,8.5,6.63,2.98-.75,4.94-2.26,6.77-4.36,.15-.17,.23-.64,.12-.74-5.19-4.82-5.61-11.14-4.81-17.43,.62-4.91,2.05-9.79,3.69-14.48,1.78-5.09,7.38-8.13,12.79-7.66,2.37,.21,7.18,5.07,7.93,8.22,2.19,9.15-.41,17.27-5.67,24.71-1.23,1.75-2.83,3.24-4.19,4.9-.28,.34-.43,.98-.32,1.4,1.07,3.98,5.33,7.42,8.75,7.13,4.35-.37,8.73-4.49,9.24-8.65,.16-1.3-.12-1.93-1.65-1.79-2.41,.22-4.47-1.56-4.59-3.75-.16-2.94,1.61-5.47,4.09-5.57,3.03-.13,4.3,2.42,4.19,4.46-.22,4.04-.48,8.56-2.39,11.93-3.5,6.2-13.43,6.8-18.82,2.07-1.03-.91-2.7-1.06-4.05-1.64-.81-.34-1.03-.96-2.48-.32-4.01,1.78-8.38,3-12.73,3.71-3.34,.55-6.16-3.29-6.14-7.97,.02-5.71,.43-11.41,.52-17.12,.07-4.7,0-9.42-.22-14.12-.03-.77-.97-1.99-1.66-2.12-.97-.19-2.42,.1-3.11,.76-3.08,2.97-3.82,6.95-4.26,11.02-.86,7.89-1.51,15.81-2.74,23.63-1.33,8.47-5.73,15.16-13.27,19.56-3.02,1.76-6.19,2.79-9.71,1.58-.21-.07-.4-.19-.6-.29,.14-.17,.25-.44,.43-.51,5.89-2.26,8.13-7.35,10.08-12.74,3.22-8.88,3.19-18.11,2.85-27.33-.16-4.3-.85-8.6-1.52-12.86-.12-.78-1.2-1.82-1.99-1.98-.78-.16-2.36,.44-2.56,1.05-1.51,4.69-3.12,9.39-4.02,14.22-1.61,8.62-2.48,17.38-4.16,25.98-1.25,6.41-5.16,11.23-11.22,13.93-5.04,2.25-9.88,1.63-14.34-1.72-1.14-.85-2.43-1.5-3.61-2.3-.24-.16-.31-.56-.46-.86,.34-.07,.68-.17,1.02-.21,.15-.02,.34,.03,.46,.12,4.83,3.91,8.2-.1,11.43-2.51,4.89-3.65,7.04-9.17,8.13-15.02,1.94-10.38,1.37-20.82,.34-31.25-.53-5.32-4.8-8.61-9.37-7.31-2.57,.73-3.61,3.2-2.3,5.52,1.39,2.45,1.67,5.06-.32,7.12-1.83,1.89-4.32,1.92-6.8,.81-2.45-1.1-2.86-3.06-2.19-5.27,2.13-7.03,10.27-11.68,17.22-9.25,3.62,1.27,4.95,4.65,5.81,8.13,.09,.37,.26,.71,.39,1.07,.3-.27,.71-.49,.89-.83,1.8-3.48,4.45-5.99,8.2-7.3,4.92-1.71,8.76,.01,10.74,4.86,1.1,2.71,1.55,2.83,3.43,.58,2.73-3.26,5.7-6.21,9.94-7.37,5.28-1.44,10.17,1.86,10.74,7.31,.33,3.13,.33,6.3,.49,9.61Zm33.16-2.53c-.28-1.32-.63-3.76-1.32-6.11-.74-2.48-2.84-2.98-4.21-.96-6.04,8.92-7.24,18.76-5.07,29.14,.04,.19,1.24,.47,1.45,.26,5.94-5.8,8.81-12.93,9.16-22.33Z"/><path d="M204.36,97.06c1.29-3.44,2.81-7.04,4-10.74,1.46-4.55,2.81-9.14,3.91-13.79,.59-2.48,.01-4.96-2.52-6.31-2.53-1.35-5.29-.39-7.57,1.37-3.26,2.52-.57,2.57,.95,3.42,.39,.22,.8,1.21,.64,1.44-.36,.51-1.13,1.12-1.66,1.06-2.15-.23-3.81-2.59-2.86-4.75,.86-1.97,2.41-4.49,4.19-5.04,3.9-1.22,8.12-1.59,12.24-1.83,2.66-.16,6.33,4.25,5.96,7.59-.61,5.5-1.71,10.98-3.04,16.37-1.09,4.4-2.96,8.6-4.16,12.98-.34,1.24,.46,2.79,.74,4.2,1.54-.34,3.42-.24,4.56-1.11,5.05-3.84,7.73-9.38,8.89-15.37,1.14-5.86,1.51-11.89,1.78-17.87,.11-2.37-.98-4.8-1.51-7.21-.07-.33,0-.68,0-1.02,.3,.13,.6,.24,.89,.38,3.14,1.51,6.17,3.35,9.44,4.47,6.6,2.26,11.99,5.76,14.79,12.42,2.62,6.23,1.01,19.83-4.17,25.45-2.92,3.15-6.3,3.26-9.74,3.79-2.55,.39-5.49-2.99-6.34-6.58-.64-2.72,.36-5.54,2.88-6.36,1.39-.46,3.57-.18,4.72,.67,1.58,1.18,2.33,3.29,.32,5.03-.59,.51-1.54,.58-2.3,.92-.59,.26-1.36,.5-1.61,.98-.19,.36,.18,1.21,.55,1.63,2.27,2.62,5.82,2.34,7.83-.56,4.53-6.51,2.37-18.67-4.21-23.08-2.48-1.67-5.14-3.1-7.78-4.51-.28-.15-1.35,.42-1.44,.8-.48,2.06-.83,4.15-1.11,6.24-.17,1.21,.17,2.56-.25,3.64-2.44,6.36-3.31,13.5-9.29,18.1-4.59,3.52-11.92,3.35-15.76-.96-1.12-1.26-1.18-3.47-1.91-5.86Z"/><path d="M138,93.73c.28,3.17,.74,5.78,3.57,8.34,2.29,2.07,4.6,2.48,7.03,2.96,5.83,1.16,11.74,1.82,17.2-1.58,1.46-.91,3.33-1.51,4.33-2.78,2.26-2.88,4.37-5.95,6.04-9.2,1.47-2.86,2.29-6.06,3.28-9.15,.12-.37-.42-1.07-.81-1.48-1.82-1.94-4.1-3.58-5.42-5.8-1.33-2.23,.57-4.9,3.67-6.08,2.39-.91,4.72,.16,5.89,2.36,1.96,3.66,.23,7.18-.19,10.74-.96,8.1-5.65,14.41-10.78,20.15-3.06,3.42-7.48,5.44-12.52,5.76-7.92,.51-15.71,.14-22.57-4.09-7.34-4.52-10.45-10.05-8.58-18.7,1.35-6.24,4.19-11.6,9.48-15.1,3.72-2.47,8.2-2.92,12.51-1.15,4.19,1.72,7.01,4.69,7.55,9.4,.17,1.46,.24,2.94,.27,4.42,.04,1.67-2.81,3.8-4.88,3.85-3.88,.08-7.76,.3-11.64,.36-2.13,.03-3.15,.95-3.16,3.09,0,1.23-.17,2.47-.27,3.7Zm9.65-10.18c.87-.09,1.75-.18,2.62-.25,5.73-.49,6.4-1.69,3.96-7.18-.84-1.89-3.76-2.72-5.72-2.14-4.3,1.28-6.8,4.35-8.7,8.1-.14,.28,.49,1.39,.8,1.41,2.34,.12,4.69,.07,7.04,.06Z"/><path d="M378.34,227.4c-.04,2.46-3.79,4.63-7.76,4.49-3.41-.12-6.5-3.19-6.43-6.39,.07-3.25,3.7-6.27,7.49-6.18,4.24,.1,6.26,3.93,6.7,8.08Z"/><path d="M347.71,126.65c-.75,3.77-1.7,7.57-4.93,7.48-3.19-.08-6.74-3.71-6.76-7.08-.01-3.15,2.51-5.7,5.69-5.75,3.37-.06,5.96,2.25,5.99,5.35Z"/><path d="M228.27,51.02c0,2.22-1.6,3.96-3.6,3.92-2.92-.06-5-2.08-5.01-4.86,0-2.33,2.47-4.87,4.71-4.84,2.12,.03,3.9,2.68,3.9,5.78Z"/><path d="M559.41,30c-.94,.55-1.86,1.48-2.82,1.52-.74,.03-1.53-1.06-2.29-1.66,.94-.64,1.82-1.51,2.86-1.84,.57-.18,1.43,.56,2.16,.89l.09,1.09Z"/><path d="M565.34,23.71c.62-.71,1.08-1.24,1.53-1.76,.5,.45,.99,.9,1.49,1.35-.59,.52-1.15,1.09-1.8,1.52-.09,.06-.63-.56-1.23-1.1Z"/></svg>