<svg id="Ebene_1" data-name="Ebene 1" xmlns="http://www.w3.org/2000/svg" viewBox="0 0 483.81449 127.55906">
  <defs>
    <style>
      .cls-1 {
        fill: none;
      }

      .cls-2 {
        fill: #fff;
      }
    </style>
  </defs>
  <title>bar_white_vector</title>
  <g>
    <path class="cls-1" d="M439.74579,69.05079c0-10.5859-4.42881-15.6626-11.98937-15.6626-7.45308,0-11.88189,5.509-11.88189,16.09424s4.42881,15.2301,11.88189,15.2301C435.317,84.71253,439.74579,79.63583,439.74579,69.05079Z"/>
    <path class="cls-2" d="M366.94583,69.05079c0-10.21244-3.81139-18.33584-10.42847-23.39032l-9.15617,12.61547c1.62777,2.559,2.5192,6.13825,2.5192,10.77485,0,10.585-4.64506,15.66174-12.09814,15.66174a11.37422,11.37422,0,0,1-7.711-2.615l-8.69152,11.97478a31.771,31.771,0,0,0,16.40252,4.14189C355.49643,98.21415,366.94583,86.76412,366.94583,69.05079Z"/>
    <rect class="cls-2" x="374.82992" y="20.55225" width="16.0936" height="14.25826"/>
    <rect class="cls-2" x="374.39743" y="41.18321" width="16.85004" height="55.73431"/>
    <path class="cls-2" d="M439.85349,89.68069v7.23683h16.4184V20.01206H439.421V47.87964c-3.56361-4.96816-8.85656-7.99243-16.30964-7.99243-15.12176,0-24.30312,11.4494-24.30312,29.16358,0,17.71333,9.18136,29.16336,24.30312,29.16336C430.88839,98.21415,436.289,94.97363,439.85349,89.68069Zm-23.979-20.19826c0-10.58526,4.42881-16.09424,11.88189-16.09424,7.56056,0,11.98937,5.0767,11.98937,15.6626,0,10.585-4.42881,15.66174-11.98937,15.66174C420.30334,84.71253,415.87453,80.06769,415.87453,69.48243Z"/>
    <rect class="cls-2" x="464.80472" y="78.3392" width="19.01017" height="18.57832"/>
    <path class="cls-2" d="M337.78225,53.38819c-7.56077,0-12.205,5.0767-12.205,15.6626,0,5.19476,1.12418,9.055,3.15715,11.64744l17.40652-23.98192A10.93029,10.93029,0,0,0,337.78225,53.38819Z"/>
    <path class="cls-2" d="M308.511,69.05079c0-17.71418,11.4494-29.16358,29.27127-29.16358a31.11025,31.11025,0,0,1,17.18224,4.67214L387.306,0H-.0004V127.55906H294.72266l25.05363-34.51831C312.63383,88.04213,308.511,79.67519,308.511,69.05079ZM281.50839,39.88721c11.98937,0,19.55036,7.45223,19.55036,20.84615V96.91752h-16.85V63.64993c0-6.04939-2.37638-9.3976-8.31743-9.3976-5.07649,0-9.613,3.34821-9.613,11.88168V96.91752h-16.85V63.64993c0-6.04939-2.37637-9.3976-8.31742-9.3976-5.07649,0-9.72091,3.34821-9.72091,11.88168V96.91752H214.54008V41.18321h16.41818v7.88472c3.56383-5.29295,8.53283-9.18072,15.87736-9.18072,8.101,0,14.25826,3.56383,17.28253,10.04486C267.89822,44.31517,273.83906,39.88721,281.50839,39.88721ZM33.40388,96.91752v-10.585L53.17049,61.92165c2.26783-2.80887,4.5363-5.50919,6.91289-8.31721-3.78092.10833-7.45308.10833-11.234.10833H33.62012V41.18321H81.14577v10.585L61.37916,76.17907c-2.26868,2.80887-4.53651,5.50919-6.91268,8.31722,3.77986-.1077,7.45287-.1077,11.23294-.1077h16.5261V96.91752ZM85.03354,69.05079c0-17.71418,11.44939-29.16358,29.27212-29.16358,17.71418,0,29.16357,11.4494,29.16357,29.16358,0,17.71333-11.44939,29.16336-29.16357,29.16336C96.48293,98.21415,85.03354,86.76412,85.03354,69.05079Zm63.61925,0c0-17.71418,11.44939-29.16358,29.27127-29.16358,17.71418,0,29.16357,11.4494,29.16357,29.16358,0,17.71333-11.44939,29.16336-29.16357,29.16336C160.10218,98.21415,148.65279,86.76412,148.65279,69.05079Z"/>
    <path class="cls-2" d="M190.02219,69.05079c0-10.5859-4.645-15.6626-12.09813-15.6626-7.56078,0-12.205,5.0767-12.205,15.6626,0,10.585,4.64421,15.66174,12.205,15.66174C185.37714,84.71253,190.02219,79.63583,190.02219,69.05079Z"/>
    <path class="cls-2" d="M126.403,69.05079c0-10.5859-4.64421-15.6626-12.09729-15.6626-7.56078,0-12.20583,5.0767-12.20583,15.6626,0,10.585,4.645,15.66174,12.20583,15.66174C121.75874,84.71253,126.403,79.63583,126.403,69.05079Z"/>
  </g>
</svg>
