<svg 
  baseProfile="tiny"
  preserveAspectRatio="true"
  version="1.2"
  viewBox="0 0 2400 150"
  height="100%" width="100%"
  xmlns="http://www.w3.org/2000/svg"
  xmlns:ev="http://www.w3.org/2001/xml-events"
  xmlns:xlink="http://www.w3.org/1999/xlink"
>
  <g>
    <rect width="8" height="8" x="4" y="71" rx="4" ry="4" fill="black" />
    <rect width="8" height="8" x="20" y="71" rx="4" ry="4" fill="black" />
    <rect width="8" height="8" x="36" y="71" rx="4" ry="4" fill="black" />
    <rect width="8" height="8" x="52" y="71" rx="4" ry="4" fill="black" />
    <rect width="8" height="8" x="68" y="71" rx="4" ry="4" fill="black" />
    <rect width="8" height="8" x="84" y="71" rx="4" ry="4" fill="black" />
    <rect width="8" height="8" x="100" y="71" rx="4" ry="4" fill="black" />
    <rect width="8" height="24.702885876989573" x="116" y="62.648557061505215" rx="4" ry="4" fill="black" />
    <rect width="8" height="8" x="132" y="71" rx="4" ry="4" fill="black" />
    <rect width="8" height="25.670714477209174" x="148" y="62.16464276139541" rx="4" ry="4" fill="black" />
    <rect width="8" height="8" x="164" y="71" rx="4" ry="4" fill="black" />
    <rect width="8" height="25.433565674352344" x="180" y="62.28321716282383" rx="4" ry="4" fill="black" />
    <rect width="8" height="8" x="196" y="71" rx="4" ry="4" fill="black" />
    <rect width="8" height="21.16810505718056" x="212" y="64.41594747140972" rx="4" ry="4" fill="black" />
    <rect width="8" height="8" x="228" y="71" rx="4" ry="4" fill="black" />
    <rect width="8" height="18.116663313240238" x="244" y="65.94166834337989" rx="4" ry="4" fill="black" />
    <rect width="8" height="99.47097368777005" x="260" y="25.264513156114973" rx="4" ry="4" fill="black" />
    <rect width="8" height="68.38923640411963" x="276" y="40.805381797940186" rx="4" ry="4" fill="black" />
    <rect width="8" height="114.21393936905186" x="292" y="17.89303031547407" rx="4" ry="4" fill="black" />
    <rect width="8" height="45.076987167318485" x="308" y="52.461506416340754" rx="4" ry="4" fill="black" />
    <rect width="8" height="83.55190139953783" x="324" y="33.22404930023109" rx="4" ry="4" fill="black" />
    <rect width="8" height="56.58075675017313" x="340" y="46.70962162491344" rx="4" ry="4" fill="black" />
    <rect width="8" height="63.24478832946596" x="356" y="43.37760583526702" rx="4" ry="4" fill="black" />
    <rect width="8" height="80.46888031806738" x="372" y="34.76555984096631" rx="4" ry="4" fill="black" />
    <rect width="8" height="75.25471740959094" x="388" y="37.37264129520453" rx="4" ry="4" fill="black" />
    <rect width="8" height="113.33661731504496" x="404" y="18.33169134247752" rx="4" ry="4" fill="black" />
    <rect width="8" height="86.10465186127898" x="420" y="31.94767406936051" rx="4" ry="4" fill="black" />
    <rect width="8" height="73.29833432123668" x="436" y="38.35083283938166" rx="4" ry="4" fill="black" />
    <rect width="8" height="58.38968874199322" x="452" y="45.805155629003394" rx="4" ry="4" fill="black" />
    <rect width="8" height="55.12207034418251" x="468" y="47.43896482790875" rx="4" ry="4" fill="black" />
    <rect width="8" height="64.14474796526919" x="484" y="42.927626017365405" rx="4" ry="4" fill="black" />
    <rect width="8" height="40.26564040204678" x="500" y="54.86717979897661" rx="4" ry="4" fill="black" />
    <rect width="8" height="29.19192018657225" x="516" y="60.40403990671388" rx="4" ry="4" fill="black" />
    <rect width="8" height="33.91313598646296" x="532" y="58.04343200676852" rx="4" ry="4" fill="black" />
    <rect width="8" height="65.32365437861522" x="548" y="42.33817281069239" rx="4" ry="4" fill="black" />
    <rect width="8" height="63.183388019863784" x="564" y="43.40830599006811" rx="4" ry="4" fill="black" />
    <rect width="8" height="68.40515089054847" x="580" y="40.797424554725765" rx="4" ry="4" fill="black" />
    <rect width="8" height="48.09346146104341" x="596" y="50.9532692694783" rx="4" ry="4" fill="black" />
    <rect width="8" height="73.43333455538966" x="612" y="38.28333272230517" rx="4" ry="4" fill="black" />
    <rect width="8" height="65.90168300206" x="628" y="42.04915849897" rx="4" ry="4" fill="black" />
    <rect width="8" height="60.75160210751733" x="644" y="44.624198946241336" rx="4" ry="4" fill="black" />
    <rect width="8" height="85.14249326682673" x="660" y="32.42875336658663" rx="4" ry="4" fill="black" />
    <rect width="8" height="60.773317051944964" x="676" y="44.61334147402752" rx="4" ry="4" fill="black" />
    <rect width="8" height="67.88896175240184" x="692" y="41.05551912379908" rx="4" ry="4" fill="black" />
    <rect width="8" height="65.30788298095109" x="708" y="42.346058509524454" rx="4" ry="4" fill="black" />
    <rect width="8" height="74.96773572907999" x="724" y="37.516132135460005" rx="4" ry="4" fill="black" />
    <rect width="8" height="95.38622111249155" x="740" y="27.306889443754223" rx="4" ry="4" fill="black" />
    <rect width="8" height="119.44924791056907" x="756" y="15.275376044715465" rx="4" ry="4" fill="black" />
    <rect width="8" height="79.70732332382305" x="772" y="35.146338338088476" rx="4" ry="4" fill="black" />
    <rect width="8" height="140.16899955205164" x="788" y="4.915500223974178" rx="4" ry="4" fill="black" />
    <rect width="8" height="104.85387802867048" x="804" y="22.57306098566476" rx="4" ry="4" fill="black" />
    <rect width="8" height="120.02837669453737" x="820" y="14.985811652731314" rx="4" ry="4" fill="black" />
    <rect width="8" height="100.36540297910379" x="836" y="24.817298510448104" rx="4" ry="4" fill="black" />
    <rect width="8" height="111.01750919134993" x="852" y="19.491245404325035" rx="4" ry="4" fill="black" />
    <rect width="8" height="104.80736559891157" x="868" y="22.596317200544213" rx="4" ry="4" fill="black" />
    <rect width="8" height="126.07252162160152" x="884" y="11.963739189199238" rx="4" ry="4" fill="black" />
    <rect width="8" height="128.07228644841368" x="900" y="10.963856775793161" rx="4" ry="4" fill="black" />
    <rect width="8" height="150" x="916" y="0" rx="4" ry="4" fill="black" />
    <rect width="8" height="119.73967294515607" x="932" y="15.130163527421963" rx="4" ry="4" fill="black" />
    <rect width="8" height="108.54445033279355" x="948" y="20.727774833603227" rx="4" ry="4" fill="black" />
    <rect width="8" height="116.9406726073764" x="964" y="16.5296636963118" rx="4" ry="4" fill="black" />
    <rect width="8" height="110.69162562730197" x="980" y="19.654187186349013" rx="4" ry="4" fill="black" />
    <rect width="8" height="117.72612891661778" x="996" y="16.13693554169111" rx="4" ry="4" fill="black" />
    <rect width="8" height="113.36645214063645" x="1012" y="18.316773929681773" rx="4" ry="4" fill="black" />
    <rect width="8" height="104.35795635467294" x="1028" y="22.821021822663532" rx="4" ry="4" fill="black" />
    <rect width="8" height="95.61307524054263" x="1044" y="27.193462379728686" rx="4" ry="4" fill="black" />
    <rect width="8" height="97.10317418811304" x="1060" y="26.448412905943478" rx="4" ry="4" fill="black" />
    <rect width="8" height="104.06020364988896" x="1076" y="22.96989817505552" rx="4" ry="4" fill="black" />
    <rect width="8" height="103.63098077918451" x="1092" y="23.184509610407744" rx="4" ry="4" fill="black" />
    <rect width="8" height="95.18232490521805" x="1108" y="27.408837547390974" rx="4" ry="4" fill="black" />
    <rect width="8" height="92.25294794509799" x="1124" y="28.873526027451007" rx="4" ry="4" fill="black" />
    <rect width="8" height="100.32734622294126" x="1140" y="24.83632688852937" rx="4" ry="4" fill="black" />
    <rect width="8" height="107.40659904440908" x="1156" y="21.29670047779546" rx="4" ry="4" fill="black" />
    <rect width="8" height="121.21049681086217" x="1172" y="14.394751594568916" rx="4" ry="4" fill="black" />
    <rect width="8" height="112.8268522778947" x="1188" y="18.58657386105265" rx="4" ry="4" fill="black" />
    <rect width="8" height="123.31019608803982" x="1204" y="13.344901955980092" rx="4" ry="4" fill="black" />
    <rect width="8" height="129.31940904598676" x="1220" y="10.34029547700662" rx="4" ry="4" fill="black" />
    <rect width="8" height="115.12692284685888" x="1236" y="17.436538576570562" rx="4" ry="4" fill="black" />
    <rect width="8" height="117.9354048916225" x="1252" y="16.03229755418875" rx="4" ry="4" fill="black" />
    <rect width="8" height="121.25744525914936" x="1268" y="14.371277370425318" rx="4" ry="4" fill="black" />
    <rect width="8" height="116.67226074155076" x="1284" y="16.66386962922462" rx="4" ry="4" fill="black" />
    <rect width="8" height="128.46879146129547" x="1300" y="10.765604269352266" rx="4" ry="4" fill="black" />
    <rect width="8" height="112.2061563158525" x="1316" y="18.896921842073752" rx="4" ry="4" fill="black" />
    <rect width="8" height="110.24284913872576" x="1332" y="19.87857543063712" rx="4" ry="4" fill="black" />
    <rect width="8" height="107.26920922283564" x="1348" y="21.36539538858218" rx="4" ry="4" fill="black" />
    <rect width="8" height="100.21391136607608" x="1364" y="24.893044316961962" rx="4" ry="4" fill="black" />
    <rect width="8" height="8" x="1380" y="71" rx="4" ry="4" fill="black" />
    <rect width="8" height="16.500513610070204" x="1396" y="66.74974319496489" rx="4" ry="4" fill="black" />
    <rect width="8" height="8" x="1412" y="71" rx="4" ry="4" fill="black" />
    <rect width="8" height="16.950364291082916" x="1428" y="66.52481785445855" rx="4" ry="4" fill="black" />
    <rect width="8" height="8" x="1444" y="71" rx="4" ry="4" fill="black" />
    <rect width="8" height="8" x="1460" y="71" rx="4" ry="4" fill="black" />
    <rect width="8" height="8" x="1476" y="71" rx="4" ry="4" fill="black" />
    <rect width="8" height="64.24435925962769" x="1492" y="42.87782037018616" rx="4" ry="4" fill="black" />
    <rect width="8" height="27.45868776686503" x="1508" y="61.27065611656749" rx="4" ry="4" fill="black" />
    <rect width="8" height="92.10628517396759" x="1524" y="28.946857413016204" rx="4" ry="4" fill="black" />
    <rect width="8" height="35.01125467336088" x="1540" y="57.49437266331956" rx="4" ry="4" fill="black" />
    <rect width="8" height="101.16640362260102" x="1556" y="24.416798188699488" rx="4" ry="4" fill="black" />
    <rect width="8" height="33.350878768343954" x="1572" y="58.32456061582802" rx="4" ry="4" fill="black" />
    <rect width="8" height="99.87130669861877" x="1588" y="25.064346650690617" rx="4" ry="4" fill="black" />
    <rect width="8" height="42.564953957366846" x="1604" y="53.71752302131658" rx="4" ry="4" fill="black" />
    <rect width="8" height="98.21351397263327" x="1620" y="25.893243013683367" rx="4" ry="4" fill="black" />
    <rect width="8" height="80.68145941574568" x="1636" y="34.65927029212716" rx="4" ry="4" fill="black" />
    <rect width="8" height="69.35848219757558" x="1652" y="40.32075890121221" rx="4" ry="4" fill="black" />
    <rect width="8" height="96.73591646079157" x="1668" y="26.632041769604214" rx="4" ry="4" fill="black" />
    <rect width="8" height="57.38988681287028" x="1684" y="46.305056593564856" rx="4" ry="4" fill="black" />
    <rect width="8" height="104.4823164475387" x="1700" y="22.758841776230653" rx="4" ry="4" fill="black" />
    <rect width="8" height="34.47517222467134" x="1716" y="57.76241388766433" rx="4" ry="4" fill="black" />
    <rect width="8" height="100.10166548405839" x="1732" y="24.949167257970807" rx="4" ry="4" fill="black" />
    <rect width="8" height="67.72534988811265" x="1748" y="41.13732505594368" rx="4" ry="4" fill="black" />
    <rect width="8" height="101.0376965556243" x="1764" y="24.481151722187853" rx="4" ry="4" fill="black" />
    <rect width="8" height="84.99957742379222" x="1780" y="32.50021128810389" rx="4" ry="4" fill="black" />
    <rect width="8" height="68.2065124199976" x="1796" y="40.8967437900012" rx="4" ry="4" fill="black" />
    <rect width="8" height="89.88379135849996" x="1812" y="30.05810432075002" rx="4" ry="4" fill="black" />
    <rect width="8" height="99.05739347336154" x="1828" y="25.47130326331923" rx="4" ry="4" fill="black" />
    <rect width="8" height="101.4967050199337" x="1844" y="24.25164749003315" rx="4" ry="4" fill="black" />
    <rect width="8" height="114.2407907082122" x="1860" y="17.8796046458939" rx="4" ry="4" fill="black" />
    <rect width="8" height="120.46180623757982" x="1876" y="14.76909688121009" rx="4" ry="4" fill="black" />
    <rect width="8" height="112.14067615748937" x="1892" y="18.929661921255317" rx="4" ry="4" fill="black" />
    <rect width="8" height="108.56189726273526" x="1908" y="20.71905136863237" rx="4" ry="4" fill="black" />
    <rect width="8" height="113.449332816181" x="1924" y="18.2753335919095" rx="4" ry="4" fill="black" />
    <rect width="8" height="97.80337121206973" x="1940" y="26.098314393965133" rx="4" ry="4" fill="black" />
    <rect width="8" height="100.71310781474972" x="1956" y="24.64344609262514" rx="4" ry="4" fill="black" />
    <rect width="8" height="85.19500256762487" x="1972" y="32.402498716187566" rx="4" ry="4" fill="black" />
    <rect width="8" height="109.44374919962456" x="1988" y="20.27812540018772" rx="4" ry="4" fill="black" />
    <rect width="8" height="120.65857113537503" x="2004" y="14.670714432312487" rx="4" ry="4" fill="black" />
    <rect width="8" height="96.96370793803099" x="2020" y="26.518146030984504" rx="4" ry="4" fill="black" />
    <rect width="8" height="86.13292879996679" x="2036" y="31.933535600016604" rx="4" ry="4" fill="black" />
    <rect width="8" height="115.93204702694887" x="2052" y="17.033976486525567" rx="4" ry="4" fill="black" />
    <rect width="8" height="100.25556454660095" x="2068" y="24.872217726699525" rx="4" ry="4" fill="black" />
    <rect width="8" height="125.12387494425963" x="2084" y="12.438062527870187" rx="4" ry="4" fill="black" />
    <rect width="8" height="126.55752359751806" x="2100" y="11.721238201240972" rx="4" ry="4" fill="black" />
    <rect width="8" height="125.93556379062437" x="2116" y="12.032218104687814" rx="4" ry="4" fill="black" />
    <rect width="8" height="112.74848300681482" x="2132" y="18.62575849659259" rx="4" ry="4" fill="black" />
    <rect width="8" height="115.5396035109465" x="2148" y="17.230198244526747" rx="4" ry="4" fill="black" />
    <rect width="8" height="110.46783878645174" x="2164" y="19.766080606774132" rx="4" ry="4" fill="black" />
    <rect width="8" height="116.8188377798524" x="2180" y="16.5905811100738" rx="4" ry="4" fill="black" />
    <rect width="8" height="105.68446246036295" x="2196" y="22.157768769818524" rx="4" ry="4" fill="black" />
    <rect width="8" height="120.01076934914872" x="2212" y="14.994615325425642" rx="4" ry="4" fill="black" />
    <rect width="8" height="107.56244918136575" x="2228" y="21.218775409317125" rx="4" ry="4" fill="black" />
    <rect width="8" height="84.78508575151247" x="2244" y="32.607457124243766" rx="4" ry="4" fill="black" />
    <rect width="8" height="115.92474162570946" x="2260" y="17.03762918714527" rx="4" ry="4" fill="black" />
    <rect width="8" height="94.9197326431056" x="2276" y="27.540133678447198" rx="4" ry="4" fill="black" />
    <rect width="8" height="95.52034314335441" x="2292" y="27.239828428322795" rx="4" ry="4" fill="black" />
    <rect width="8" height="92.8252582105745" x="2308" y="28.58737089471275" rx="4" ry="4" fill="black" />
    <rect width="8" height="89.95455024790039" x="2324" y="30.022724876049807" rx="4" ry="4" fill="black" />
    <rect width="8" height="108.21126449322733" x="2340" y="20.894367753386334" rx="4" ry="4" fill="black" />
    <rect width="8" height="94.0183453931247" x="2356" y="27.990827303437648" rx="4" ry="4" fill="black" />
    <rect width="8" height="85.00927502181165" x="2372" y="32.49536248909418" rx="4" ry="4" fill="black" />
    <rect width="8" height="8" x="2388" y="71" rx="4" ry="4" fill="black" />
  </g>
</svg>