<svg 
  baseProfile="tiny"
  preserveAspectRatio="true"
  version="1.2"
  viewBox="0 0 2400 150"
  height="100%" width="100%"
  xmlns="http://www.w3.org/2000/svg"
  xmlns:ev="http://www.w3.org/2001/xml-events"
  xmlns:xlink="http://www.w3.org/1999/xlink"
>
  <g>
    <rect width="8" height="28.529277938733166" x="4" y="60.73536103063341" rx="4" ry="4" fill="black" />
    <rect width="8" height="29.352140363467043" x="20" y="60.32392981826648" rx="4" ry="4" fill="black" />
    <rect width="8" height="32.938851147018255" x="36" y="58.53057442649087" rx="4" ry="4" fill="black" />
    <rect width="8" height="28.718086139191136" x="52" y="60.64095693040443" rx="4" ry="4" fill="black" />
    <rect width="8" height="30.76629412413118" x="68" y="59.61685293793441" rx="4" ry="4" fill="black" />
    <rect width="8" height="28.046888576421676" x="84" y="60.97655571178916" rx="4" ry="4" fill="black" />
    <rect width="8" height="94.05438280273542" x="100" y="27.97280859863229" rx="4" ry="4" fill="black" />
    <rect width="8" height="94.1047678196644" x="116" y="27.9476160901678" rx="4" ry="4" fill="black" />
    <rect width="8" height="97.89725894901981" x="132" y="26.051370525490093" rx="4" ry="4" fill="black" />
    <rect width="8" height="94.88798425200187" x="148" y="27.556007873999064" rx="4" ry="4" fill="black" />
    <rect width="8" height="90.98075537054456" x="164" y="29.50962231472772" rx="4" ry="4" fill="black" />
    <rect width="8" height="83.43448626221364" x="180" y="33.28275686889318" rx="4" ry="4" fill="black" />
    <rect width="8" height="78.01566658413317" x="196" y="35.992166707933414" rx="4" ry="4" fill="black" />
    <rect width="8" height="81.46341560053565" x="212" y="34.26829219973217" rx="4" ry="4" fill="black" />
    <rect width="8" height="87.23179039691658" x="228" y="31.38410480154171" rx="4" ry="4" fill="black" />
    <rect width="8" height="110.02797762876966" x="244" y="19.98601118561517" rx="4" ry="4" fill="black" />
    <rect width="8" height="88.0658871405068" x="260" y="30.9670564297466" rx="4" ry="4" fill="black" />
    <rect width="8" height="84.14074898653016" x="276" y="32.92962550673492" rx="4" ry="4" fill="black" />
    <rect width="8" height="110.45431322533402" x="292" y="19.77284338733299" rx="4" ry="4" fill="black" />
    <rect width="8" height="106.42216327937373" x="308" y="21.788918360313133" rx="4" ry="4" fill="black" />
    <rect width="8" height="76.74449896234259" x="324" y="36.627750518828705" rx="4" ry="4" fill="black" />
    <rect width="8" height="100.88466553260987" x="340" y="24.557667233695064" rx="4" ry="4" fill="black" />
    <rect width="8" height="132.19149936501273" x="356" y="8.904250317493634" rx="4" ry="4" fill="black" />
    <rect width="8" height="106.47337945219165" x="372" y="21.763310273904175" rx="4" ry="4" fill="black" />
    <rect width="8" height="68.49026084407625" x="388" y="40.75486957796188" rx="4" ry="4" fill="black" />
    <rect width="8" height="68.99480539356375" x="404" y="40.502597303218124" rx="4" ry="4" fill="black" />
    <rect width="8" height="68.69551534748852" x="420" y="40.65224232625574" rx="4" ry="4" fill="black" />
    <rect width="8" height="68.93016349027563" x="436" y="40.534918254862184" rx="4" ry="4" fill="black" />
    <rect width="8" height="73.6541179391601" x="452" y="38.17294103041995" rx="4" ry="4" fill="black" />
    <rect width="8" height="102.33659363070102" x="468" y="23.83170318464949" rx="4" ry="4" fill="black" />
    <rect width="8" height="54.20919626415031" x="484" y="47.895401867924846" rx="4" ry="4" fill="black" />
    <rect width="8" height="42.70940239589722" x="500" y="53.645298802051386" rx="4" ry="4" fill="black" />
    <rect width="8" height="40.43332699428315" x="516" y="54.783336502858425" rx="4" ry="4" fill="black" />
    <rect width="8" height="56.48620136622684" x="532" y="46.75689931688658" rx="4" ry="4" fill="black" />
    <rect width="8" height="66.53998578066789" x="548" y="41.730007109666055" rx="4" ry="4" fill="black" />
    <rect width="8" height="91.22868082553896" x="564" y="29.38565958723052" rx="4" ry="4" fill="black" />
    <rect width="8" height="87.06060201383146" x="580" y="31.469698993084272" rx="4" ry="4" fill="black" />
    <rect width="8" height="70.769357413151" x="596" y="39.6153212934245" rx="4" ry="4" fill="black" />
    <rect width="8" height="75.28763385548122" x="612" y="37.35618307225939" rx="4" ry="4" fill="black" />
    <rect width="8" height="73.72702988870734" x="628" y="38.13648505564633" rx="4" ry="4" fill="black" />
    <rect width="8" height="59.78063593738065" x="644" y="45.109682031309674" rx="4" ry="4" fill="black" />
    <rect width="8" height="59.3776414503452" x="660" y="45.311179274827396" rx="4" ry="4" fill="black" />
    <rect width="8" height="55.84192355824678" x="676" y="47.07903822087661" rx="4" ry="4" fill="black" />
    <rect width="8" height="69.68136084123665" x="692" y="40.15931957938167" rx="4" ry="4" fill="black" />
    <rect width="8" height="63.3935272107999" x="708" y="43.30323639460005" rx="4" ry="4" fill="black" />
    <rect width="8" height="76.58262357865024" x="724" y="36.70868821067488" rx="4" ry="4" fill="black" />
    <rect width="8" height="58.37337349387963" x="740" y="45.81331325306019" rx="4" ry="4" fill="black" />
    <rect width="8" height="61.738143162465484" x="756" y="44.130928418767255" rx="4" ry="4" fill="black" />
    <rect width="8" height="76.72797399015705" x="772" y="36.63601300492147" rx="4" ry="4" fill="black" />
    <rect width="8" height="72.85832602084393" x="788" y="38.570836989578034" rx="4" ry="4" fill="black" />
    <rect width="8" height="73.8277993691443" x="804" y="38.08610031542785" rx="4" ry="4" fill="black" />
    <rect width="8" height="56.301667433539926" x="820" y="46.84916628323003" rx="4" ry="4" fill="black" />
    <rect width="8" height="44.68295112711249" x="836" y="52.658524436443756" rx="4" ry="4" fill="black" />
    <rect width="8" height="48.58175334520989" x="852" y="50.709123327395055" rx="4" ry="4" fill="black" />
    <rect width="8" height="52.07499180671884" x="868" y="48.96250409664058" rx="4" ry="4" fill="black" />
    <rect width="8" height="54.49064547885218" x="884" y="47.754677260573914" rx="4" ry="4" fill="black" />
    <rect width="8" height="33.30022527383931" x="900" y="58.34988736308034" rx="4" ry="4" fill="black" />
    <rect width="8" height="71.75895403392752" x="916" y="39.12052298303624" rx="4" ry="4" fill="black" />
    <rect width="8" height="88.1854124946638" x="932" y="30.907293752668103" rx="4" ry="4" fill="black" />
    <rect width="8" height="47.01948041359285" x="948" y="51.49025979320358" rx="4" ry="4" fill="black" />
    <rect width="8" height="68.5626529991641" x="964" y="40.71867350041795" rx="4" ry="4" fill="black" />
    <rect width="8" height="111.56426077638444" x="980" y="19.217869611807778" rx="4" ry="4" fill="black" />
    <rect width="8" height="77.23814494490776" x="996" y="36.38092752754612" rx="4" ry="4" fill="black" />
    <rect width="8" height="65.56191773268726" x="1012" y="42.21904113365637" rx="4" ry="4" fill="black" />
    <rect width="8" height="99.42643066772328" x="1028" y="25.28678466613836" rx="4" ry="4" fill="black" />
    <rect width="8" height="79.5436669954715" x="1044" y="35.22816650226425" rx="4" ry="4" fill="black" />
    <rect width="8" height="101.1022273667668" x="1060" y="24.4488863166166" rx="4" ry="4" fill="black" />
    <rect width="8" height="125.12782600256537" x="1076" y="12.436086998717315" rx="4" ry="4" fill="black" />
    <rect width="8" height="117.51662486017032" x="1092" y="16.241687569914838" rx="4" ry="4" fill="black" />
    <rect width="8" height="135.52860850533565" x="1108" y="7.235695747332173" rx="4" ry="4" fill="black" />
    <rect width="8" height="132.4881719444215" x="1124" y="8.755914027789245" rx="4" ry="4" fill="black" />
    <rect width="8" height="124.59537470584503" x="1140" y="12.702312647077484" rx="4" ry="4" fill="black" />
    <rect width="8" height="150" x="1156" y="0" rx="4" ry="4" fill="black" />
    <rect width="8" height="121.58632072476045" x="1172" y="14.206839637619773" rx="4" ry="4" fill="black" />
    <rect width="8" height="128.19755433051992" x="1188" y="10.90122283474004" rx="4" ry="4" fill="black" />
    <rect width="8" height="117.04862325390998" x="1204" y="16.47568837304501" rx="4" ry="4" fill="black" />
    <rect width="8" height="130.70251276211124" x="1220" y="9.64874361894438" rx="4" ry="4" fill="black" />
    <rect width="8" height="140.92631164064056" x="1236" y="4.5368441796797185" rx="4" ry="4" fill="black" />
    <rect width="8" height="132.51406629663995" x="1252" y="8.742966851680023" rx="4" ry="4" fill="black" />
    <rect width="8" height="126.83306106390705" x="1268" y="11.583469468046474" rx="4" ry="4" fill="black" />
    <rect width="8" height="141.79717009983256" x="1284" y="4.101414950083722" rx="4" ry="4" fill="black" />
    <rect width="8" height="130.85725237114582" x="1300" y="9.57137381442709" rx="4" ry="4" fill="black" />
    <rect width="8" height="122.53106377348914" x="1316" y="13.734468113255431" rx="4" ry="4" fill="black" />
    <rect width="8" height="135.96948827797826" x="1332" y="7.015255861010871" rx="4" ry="4" fill="black" />
    <rect width="8" height="128.06480677527279" x="1348" y="10.967596612363607" rx="4" ry="4" fill="black" />
    <rect width="8" height="118.50033854591467" x="1364" y="15.749830727042664" rx="4" ry="4" fill="black" />
    <rect width="8" height="110.64620084977784" x="1380" y="19.67689957511108" rx="4" ry="4" fill="black" />
    <rect width="8" height="126.74876865869311" x="1396" y="11.625615670653445" rx="4" ry="4" fill="black" />
    <rect width="8" height="128.24087371013113" x="1412" y="10.879563144934437" rx="4" ry="4" fill="black" />
    <rect width="8" height="140.65461722806032" x="1428" y="4.672691385969841" rx="4" ry="4" fill="black" />
    <rect width="8" height="120.20038712324516" x="1444" y="14.899806438377418" rx="4" ry="4" fill="black" />
    <rect width="8" height="126.23422207014929" x="1460" y="11.882888964925357" rx="4" ry="4" fill="black" />
    <rect width="8" height="143.46187682853738" x="1476" y="3.2690615857313077" rx="4" ry="4" fill="black" />
    <rect width="8" height="141.70071493130257" x="1492" y="4.149642534348715" rx="4" ry="4" fill="black" />
    <rect width="8" height="125.5207587864797" x="1508" y="12.239620606760148" rx="4" ry="4" fill="black" />
    <rect width="8" height="134.48341201394308" x="1524" y="7.75829399302846" rx="4" ry="4" fill="black" />
    <rect width="8" height="117.71179508846903" x="1540" y="16.144102455765484" rx="4" ry="4" fill="black" />
    <rect width="8" height="136.9233490812636" x="1556" y="6.538325459368195" rx="4" ry="4" fill="black" />
    <rect width="8" height="120.19473776078596" x="1572" y="14.902631119607022" rx="4" ry="4" fill="black" />
    <rect width="8" height="140.22049996245735" x="1588" y="4.889750018771323" rx="4" ry="4" fill="black" />
    <rect width="8" height="146.64274953346745" x="1604" y="1.678625233266274" rx="4" ry="4" fill="black" />
    <rect width="8" height="107.93612043931923" x="1620" y="21.031939780340387" rx="4" ry="4" fill="black" />
    <rect width="8" height="101.10279721925602" x="1636" y="24.44860139037199" rx="4" ry="4" fill="black" />
    <rect width="8" height="132.351732355736" x="1652" y="8.824133822131998" rx="4" ry="4" fill="black" />
    <rect width="8" height="126.58898987300017" x="1668" y="11.705505063499913" rx="4" ry="4" fill="black" />
    <rect width="8" height="135.62511603385903" x="1684" y="7.187441983070485" rx="4" ry="4" fill="black" />
    <rect width="8" height="76.36944927065518" x="1700" y="36.81527536467241" rx="4" ry="4" fill="black" />
    <rect width="8" height="89.13875218167374" x="1716" y="30.43062390916313" rx="4" ry="4" fill="black" />
    <rect width="8" height="125.63075352302475" x="1732" y="12.184623238487625" rx="4" ry="4" fill="black" />
    <rect width="8" height="88.10309114155376" x="1748" y="30.94845442922312" rx="4" ry="4" fill="black" />
    <rect width="8" height="105.07616125492179" x="1764" y="22.461919372539107" rx="4" ry="4" fill="black" />
    <rect width="8" height="107.43595337635874" x="1780" y="21.28202331182063" rx="4" ry="4" fill="black" />
    <rect width="8" height="100.4528242013261" x="1796" y="24.773587899336952" rx="4" ry="4" fill="black" />
    <rect width="8" height="123.48675765123245" x="1812" y="13.256621174383774" rx="4" ry="4" fill="black" />
    <rect width="8" height="97.9655879871147" x="1828" y="26.01720600644265" rx="4" ry="4" fill="black" />
    <rect width="8" height="110.31045206267656" x="1844" y="19.84477396866172" rx="4" ry="4" fill="black" />
    <rect width="8" height="139.65642724575278" x="1860" y="5.17178637712361" rx="4" ry="4" fill="black" />
    <rect width="8" height="100.95324939528166" x="1876" y="24.52337530235917" rx="4" ry="4" fill="black" />
    <rect width="8" height="111.03549642385981" x="1892" y="19.482251788070094" rx="4" ry="4" fill="black" />
    <rect width="8" height="142.25322577530636" x="1908" y="3.873387112346819" rx="4" ry="4" fill="black" />
    <rect width="8" height="131.69713889184052" x="1924" y="9.151430554079738" rx="4" ry="4" fill="black" />
    <rect width="8" height="110.05538648880015" x="1940" y="19.972306755599924" rx="4" ry="4" fill="black" />
    <rect width="8" height="91.91860924848797" x="1956" y="29.040695375756016" rx="4" ry="4" fill="black" />
    <rect width="8" height="124.29883278731236" x="1972" y="12.850583606343818" rx="4" ry="4" fill="black" />
    <rect width="8" height="133.5846182006852" x="1988" y="8.207690899657393" rx="4" ry="4" fill="black" />
    <rect width="8" height="70.38323977904388" x="2004" y="39.80838011047806" rx="4" ry="4" fill="black" />
    <rect width="8" height="87.86716358849117" x="2020" y="31.066418205754417" rx="4" ry="4" fill="black" />
    <rect width="8" height="122.81673288025023" x="2036" y="13.591633559874886" rx="4" ry="4" fill="black" />
    <rect width="8" height="60.03372474440088" x="2052" y="44.983137627799564" rx="4" ry="4" fill="black" />
    <rect width="8" height="122.48141311956344" x="2068" y="13.75929344021828" rx="4" ry="4" fill="black" />
    <rect width="8" height="47.03253867082337" x="2084" y="51.483730664588315" rx="4" ry="4" fill="black" />
    <rect width="8" height="103.82086962807003" x="2100" y="23.089565185964986" rx="4" ry="4" fill="black" />
    <rect width="8" height="73.40621023270029" x="2116" y="38.296894883649856" rx="4" ry="4" fill="black" />
    <rect width="8" height="49.671387273185005" x="2132" y="50.1643063634075" rx="4" ry="4" fill="black" />
    <rect width="8" height="84.10235125106118" x="2148" y="32.94882437446941" rx="4" ry="4" fill="black" />
    <rect width="8" height="51.65904295655614" x="2164" y="49.17047852172193" rx="4" ry="4" fill="black" />
    <rect width="8" height="88.05722662938442" x="2180" y="30.97138668530779" rx="4" ry="4" fill="black" />
    <rect width="8" height="48.49852599324048" x="2196" y="50.75073700337976" rx="4" ry="4" fill="black" />
    <rect width="8" height="51.1426790072852" x="2212" y="49.428660496357395" rx="4" ry="4" fill="black" />
    <rect width="8" height="49.96322032312065" x="2228" y="50.018389838439674" rx="4" ry="4" fill="black" />
    <rect width="8" height="54.378504944602234" x="2244" y="47.81074752769888" rx="4" ry="4" fill="black" />
    <rect width="8" height="34.473107684572824" x="2260" y="57.76344615771359" rx="4" ry="4" fill="black" />
    <rect width="8" height="53.30716340023663" x="2276" y="48.346418299881684" rx="4" ry="4" fill="black" />
    <rect width="8" height="50.71681387338623" x="2292" y="49.641593063306885" rx="4" ry="4" fill="black" />
    <rect width="8" height="67.87409817599726" x="2308" y="41.06295091200137" rx="4" ry="4" fill="black" />
    <rect width="8" height="54.79622646977683" x="2324" y="47.60188676511159" rx="4" ry="4" fill="black" />
    <rect width="8" height="35.04495500966813" x="2340" y="57.477522495165935" rx="4" ry="4" fill="black" />
    <rect width="8" height="8" x="2356" y="71" rx="4" ry="4" fill="black" />
    <rect width="8" height="8" x="2372" y="71" rx="4" ry="4" fill="black" />
    <rect width="8" height="8" x="2388" y="71" rx="4" ry="4" fill="black" />
  </g>
</svg>