<svg 
  baseProfile="tiny"
  preserveAspectRatio="keep"
  version="1.2"
  viewBox="0 0 2400 150"
  height="100%" width="100%"
  xmlns="http://www.w3.org/2000/svg"
  xmlns:ev="http://www.w3.org/2001/xml-events"
  xmlns:xlink="http://www.w3.org/1999/xlink"
>
  <g>
    <rect width="8" height="52.87320608037969" x="4" y="48.563396959810156" rx="4" ry="4" fill="black" />
    <rect width="8" height="62.31140888120234" x="20" y="43.84429555939883" rx="4" ry="4" fill="black" />
    <rect width="8" height="37.91820472668512" x="36" y="56.04089763665744" rx="4" ry="4" fill="black" />
    <rect width="8" height="48.06991373920602" x="52" y="50.96504313039699" rx="4" ry="4" fill="black" />
    <rect width="8" height="43.52438447730253" x="68" y="53.23780776134873" rx="4" ry="4" fill="black" />
    <rect width="8" height="66.01074648309174" x="84" y="41.99462675845413" rx="4" ry="4" fill="black" />
    <rect width="8" height="51.36039853750513" x="100" y="49.31980073124744" rx="4" ry="4" fill="black" />
    <rect width="8" height="61.89836013288752" x="116" y="44.05081993355624" rx="4" ry="4" fill="black" />
    <rect width="8" height="44.70437200225425" x="132" y="52.64781399887288" rx="4" ry="4" fill="black" />
    <rect width="8" height="67.33930931969941" x="148" y="41.330345340150295" rx="4" ry="4" fill="black" />
    <rect width="8" height="49.65340975468549" x="164" y="50.17329512265725" rx="4" ry="4" fill="black" />
    <rect width="8" height="56.428550314943905" x="180" y="46.78572484252805" rx="4" ry="4" fill="black" />
    <rect width="8" height="46.14928789067705" x="196" y="51.92535605466148" rx="4" ry="4" fill="black" />
    <rect width="8" height="68.62618355916374" x="212" y="40.68690822041813" rx="4" ry="4" fill="black" />
    <rect width="8" height="65.80340799962298" x="228" y="42.09829600018851" rx="4" ry="4" fill="black" />
    <rect width="8" height="80.60341803332763" x="244" y="34.698290983336186" rx="4" ry="4" fill="black" />
    <rect width="8" height="66.71913995736172" x="260" y="41.64043002131914" rx="4" ry="4" fill="black" />
    <rect width="8" height="70.88255143632539" x="276" y="39.55872428183731" rx="4" ry="4" fill="black" />
    <rect width="8" height="39.26323637115105" x="292" y="55.368381814424474" rx="4" ry="4" fill="black" />
    <rect width="8" height="45.110444706076805" x="308" y="52.4447776469616" rx="4" ry="4" fill="black" />
    <rect width="8" height="59.48017409504852" x="324" y="45.259912952475744" rx="4" ry="4" fill="black" />
    <rect width="8" height="80.55467855557063" x="340" y="34.722660722214684" rx="4" ry="4" fill="black" />
    <rect width="8" height="78.56204637710478" x="356" y="35.71897681144761" rx="4" ry="4" fill="black" />
    <rect width="8" height="67.21198687903504" x="372" y="41.39400656048248" rx="4" ry="4" fill="black" />
    <rect width="8" height="64.2638055151499" x="388" y="42.86809724242505" rx="4" ry="4" fill="black" />
    <rect width="8" height="57.404886139295066" x="404" y="46.29755693035247" rx="4" ry="4" fill="black" />
    <rect width="8" height="46.23845751718571" x="420" y="51.880771241407146" rx="4" ry="4" fill="black" />
    <rect width="8" height="63.98448142767292" x="436" y="43.00775928616354" rx="4" ry="4" fill="black" />
    <rect width="8" height="68.6769025608541" x="452" y="40.66154871957295" rx="4" ry="4" fill="black" />
    <rect width="8" height="107.74042453453359" x="468" y="21.129787732733206" rx="4" ry="4" fill="black" />
    <rect width="8" height="129.77321442706648" x="484" y="10.113392786466761" rx="4" ry="4" fill="black" />
    <rect width="8" height="114.75752070870634" x="500" y="17.62123964564683" rx="4" ry="4" fill="black" />
    <rect width="8" height="73.82599783516473" x="516" y="38.087001082417636" rx="4" ry="4" fill="black" />
    <rect width="8" height="90.9235466393463" x="532" y="29.53822668032685" rx="4" ry="4" fill="black" />
    <rect width="8" height="117.53308489901089" x="548" y="16.233457550494556" rx="4" ry="4" fill="black" />
    <rect width="8" height="111.12033855642478" x="564" y="19.439830721787608" rx="4" ry="4" fill="black" />
    <rect width="8" height="82.06617828698755" x="580" y="33.966910856506225" rx="4" ry="4" fill="black" />
    <rect width="8" height="120.85219540215333" x="596" y="14.573902298923336" rx="4" ry="4" fill="black" />
    <rect width="8" height="106.221740851155" x="612" y="21.889129574422498" rx="4" ry="4" fill="black" />
    <rect width="8" height="109.97541622584623" x="628" y="20.012291887076884" rx="4" ry="4" fill="black" />
    <rect width="8" height="89.36037685992301" x="644" y="30.319811570038496" rx="4" ry="4" fill="black" />
    <rect width="8" height="128.06879292461406" x="660" y="10.96560353769297" rx="4" ry="4" fill="black" />
    <rect width="8" height="123.64217470118972" x="676" y="13.178912649405142" rx="4" ry="4" fill="black" />
    <rect width="8" height="119.25150559705118" x="692" y="15.374247201474411" rx="4" ry="4" fill="black" />
    <rect width="8" height="119.58491550480255" x="708" y="15.207542247598724" rx="4" ry="4" fill="black" />
    <rect width="8" height="93.51614015555617" x="724" y="28.241929922221914" rx="4" ry="4" fill="black" />
    <rect width="8" height="102.47535463288936" x="740" y="23.76232268355532" rx="4" ry="4" fill="black" />
    <rect width="8" height="93.04665850436939" x="756" y="28.476670747815305" rx="4" ry="4" fill="black" />
    <rect width="8" height="124.27335602526242" x="772" y="12.863321987368792" rx="4" ry="4" fill="black" />
    <rect width="8" height="121.8092034264503" x="788" y="14.095398286774852" rx="4" ry="4" fill="black" />
    <rect width="8" height="132.36294886067833" x="804" y="8.818525569660835" rx="4" ry="4" fill="black" />
    <rect width="8" height="127.16445964922595" x="820" y="11.417770175387027" rx="4" ry="4" fill="black" />
    <rect width="8" height="103.53928321182269" x="836" y="23.230358394088654" rx="4" ry="4" fill="black" />
    <rect width="8" height="124.68379447595854" x="852" y="12.658102762020732" rx="4" ry="4" fill="black" />
    <rect width="8" height="118.36086538271199" x="868" y="15.819567308644004" rx="4" ry="4" fill="black" />
    <rect width="8" height="108.3565697634217" x="884" y="20.82171511828915" rx="4" ry="4" fill="black" />
    <rect width="8" height="88.80024337984004" x="900" y="30.59987831007998" rx="4" ry="4" fill="black" />
    <rect width="8" height="88.16830171638627" x="916" y="30.915849141806866" rx="4" ry="4" fill="black" />
    <rect width="8" height="87.91742081805084" x="932" y="31.04128959097458" rx="4" ry="4" fill="black" />
    <rect width="8" height="65.35257982151681" x="948" y="42.323710089241594" rx="4" ry="4" fill="black" />
    <rect width="8" height="47.612501368494236" x="964" y="51.19374931575288" rx="4" ry="4" fill="black" />
    <rect width="8" height="85.2585029246489" x="980" y="32.37074853767555" rx="4" ry="4" fill="black" />
    <rect width="8" height="76.11449896105594" x="996" y="36.94275051947203" rx="4" ry="4" fill="black" />
    <rect width="8" height="58.46154609869951" x="1012" y="45.76922695065025" rx="4" ry="4" fill="black" />
    <rect width="8" height="135.89328694603032" x="1028" y="7.053356526984842" rx="4" ry="4" fill="black" />
    <rect width="8" height="129.32855834889662" x="1044" y="10.33572082555169" rx="4" ry="4" fill="black" />
    <rect width="8" height="81.79071095871114" x="1060" y="34.10464452064443" rx="4" ry="4" fill="black" />
    <rect width="8" height="85.08153736992854" x="1076" y="32.45923131503573" rx="4" ry="4" fill="black" />
    <rect width="8" height="119.78958087722935" x="1092" y="15.105209561385323" rx="4" ry="4" fill="black" />
    <rect width="8" height="118.14681726379806" x="1108" y="15.926591368100972" rx="4" ry="4" fill="black" />
    <rect width="8" height="85.42360931515452" x="1124" y="32.28819534242274" rx="4" ry="4" fill="black" />
    <rect width="8" height="130.20619816635408" x="1140" y="9.896900916822958" rx="4" ry="4" fill="black" />
    <rect width="8" height="130.29718225083164" x="1156" y="9.85140887458418" rx="4" ry="4" fill="black" />
    <rect width="8" height="150" x="1172" y="0" rx="4" ry="4" fill="black" />
    <rect width="8" height="136.89478722179086" x="1188" y="6.552606389104568" rx="4" ry="4" fill="black" />
    <rect width="8" height="111.325089716802" x="1204" y="19.337455141599" rx="4" ry="4" fill="black" />
    <rect width="8" height="93.98765896185161" x="1220" y="28.006170519074196" rx="4" ry="4" fill="black" />
    <rect width="8" height="93.42952739257515" x="1236" y="28.285236303712423" rx="4" ry="4" fill="black" />
    <rect width="8" height="96.87316184565398" x="1252" y="26.56341907717301" rx="4" ry="4" fill="black" />
    <rect width="8" height="120.51300503651389" x="1268" y="14.743497481743056" rx="4" ry="4" fill="black" />
    <rect width="8" height="114.94506431823147" x="1284" y="17.527467840884263" rx="4" ry="4" fill="black" />
    <rect width="8" height="104.43207741255134" x="1300" y="22.78396129372433" rx="4" ry="4" fill="black" />
    <rect width="8" height="120.25999915191443" x="1316" y="14.870000424042786" rx="4" ry="4" fill="black" />
    <rect width="8" height="110.66690302118627" x="1332" y="19.666548489406864" rx="4" ry="4" fill="black" />
    <rect width="8" height="97.5314429598112" x="1348" y="26.2342785200944" rx="4" ry="4" fill="black" />
    <rect width="8" height="90.06542339778092" x="1364" y="29.96728830110954" rx="4" ry="4" fill="black" />
    <rect width="8" height="83.42745805916245" x="1380" y="33.28627097041878" rx="4" ry="4" fill="black" />
    <rect width="8" height="108.22797998658773" x="1396" y="20.886010006706137" rx="4" ry="4" fill="black" />
    <rect width="8" height="78.53338320690781" x="1412" y="35.73330839654609" rx="4" ry="4" fill="black" />
    <rect width="8" height="96.76976292839419" x="1428" y="26.615118535802907" rx="4" ry="4" fill="black" />
    <rect width="8" height="71.21555472897519" x="1444" y="39.392222635512404" rx="4" ry="4" fill="black" />
    <rect width="8" height="122.52741280072843" x="1460" y="13.736293599635786" rx="4" ry="4" fill="black" />
    <rect width="8" height="104.88195756791166" x="1476" y="22.559021216044172" rx="4" ry="4" fill="black" />
    <rect width="8" height="125.33268795870762" x="1492" y="12.333656020646188" rx="4" ry="4" fill="black" />
    <rect width="8" height="121.19970261273676" x="1508" y="14.400148693631621" rx="4" ry="4" fill="black" />
    <rect width="8" height="105.38231970745146" x="1524" y="22.30884014627427" rx="4" ry="4" fill="black" />
    <rect width="8" height="119.08465197972248" x="1540" y="15.45767401013876" rx="4" ry="4" fill="black" />
    <rect width="8" height="98.26533921835376" x="1556" y="25.86733039082312" rx="4" ry="4" fill="black" />
    <rect width="8" height="112.43607986257518" x="1572" y="18.781960068712408" rx="4" ry="4" fill="black" />
    <rect width="8" height="101.12562142629835" x="1588" y="24.437189286850824" rx="4" ry="4" fill="black" />
    <rect width="8" height="83.26960809358233" x="1604" y="33.36519595320883" rx="4" ry="4" fill="black" />
    <rect width="8" height="91.16142590390707" x="1620" y="29.419287048046463" rx="4" ry="4" fill="black" />
    <rect width="8" height="93.14736092963977" x="1636" y="28.426319535180113" rx="4" ry="4" fill="black" />
    <rect width="8" height="110.96908059122802" x="1652" y="19.51545970438599" rx="4" ry="4" fill="black" />
    <rect width="8" height="80.66808658383272" x="1668" y="34.66595670808364" rx="4" ry="4" fill="black" />
    <rect width="8" height="148.3732088341457" x="1684" y="0.8133955829271571" rx="4" ry="4" fill="black" />
    <rect width="8" height="119.07100913460071" x="1700" y="15.464495432699643" rx="4" ry="4" fill="black" />
    <rect width="8" height="139.76069151910067" x="1716" y="5.1196542404496626" rx="4" ry="4" fill="black" />
    <rect width="8" height="122.96347126901647" x="1732" y="13.518264365491767" rx="4" ry="4" fill="black" />
    <rect width="8" height="102.47331022146017" x="1748" y="23.763344889269916" rx="4" ry="4" fill="black" />
    <rect width="8" height="81.7352402147767" x="1764" y="34.13237989261165" rx="4" ry="4" fill="black" />
    <rect width="8" height="85.30059130885887" x="1780" y="32.349704345570565" rx="4" ry="4" fill="black" />
    <rect width="8" height="118.66302790624454" x="1796" y="15.668486046877732" rx="4" ry="4" fill="black" />
    <rect width="8" height="117.2335182419386" x="1812" y="16.3832408790307" rx="4" ry="4" fill="black" />
    <rect width="8" height="126.68747311764369" x="1828" y="11.656263441178154" rx="4" ry="4" fill="black" />
    <rect width="8" height="117.57500954542905" x="1844" y="16.212495227285473" rx="4" ry="4" fill="black" />
    <rect width="8" height="114.13616981799147" x="1860" y="17.931915091004264" rx="4" ry="4" fill="black" />
    <rect width="8" height="116.67705724924548" x="1876" y="16.66147137537726" rx="4" ry="4" fill="black" />
    <rect width="8" height="107.657566523082" x="1892" y="21.171216738459" rx="4" ry="4" fill="black" />
    <rect width="8" height="108.69044752198539" x="1908" y="20.654776239007305" rx="4" ry="4" fill="black" />
    <rect width="8" height="119.06604368493042" x="1924" y="15.46697815753479" rx="4" ry="4" fill="black" />
    <rect width="8" height="116.48338589225396" x="1940" y="16.75830705387302" rx="4" ry="4" fill="black" />
    <rect width="8" height="97.4042318212794" x="1956" y="26.297884089360302" rx="4" ry="4" fill="black" />
    <rect width="8" height="128.03724288862728" x="1972" y="10.981378555686362" rx="4" ry="4" fill="black" />
    <rect width="8" height="121.30016835053794" x="1988" y="14.349915824731028" rx="4" ry="4" fill="black" />
    <rect width="8" height="98.85431939111449" x="2004" y="25.572840304442757" rx="4" ry="4" fill="black" />
    <rect width="8" height="62.34039518669593" x="2020" y="43.829802406652036" rx="4" ry="4" fill="black" />
    <rect width="8" height="120.87914066452066" x="2036" y="14.560429667739669" rx="4" ry="4" fill="black" />
    <rect width="8" height="104.50407184374653" x="2052" y="22.747964078126735" rx="4" ry="4" fill="black" />
    <rect width="8" height="75.63925735554875" x="2068" y="37.180371322225625" rx="4" ry="4" fill="black" />
    <rect width="8" height="79.08734610573647" x="2084" y="35.456326947131764" rx="4" ry="4" fill="black" />
    <rect width="8" height="73.03379243884773" x="2100" y="38.48310378057614" rx="4" ry="4" fill="black" />
    <rect width="8" height="67.60045829608987" x="2116" y="41.199770851955066" rx="4" ry="4" fill="black" />
    <rect width="8" height="53.30429271946687" x="2132" y="48.347853640266564" rx="4" ry="4" fill="black" />
    <rect width="8" height="61.22123848757169" x="2148" y="44.38938075621415" rx="4" ry="4" fill="black" />
    <rect width="8" height="54.24148131277482" x="2164" y="47.87925934361259" rx="4" ry="4" fill="black" />
    <rect width="8" height="57.212743505546825" x="2180" y="46.39362824722659" rx="4" ry="4" fill="black" />
    <rect width="8" height="64.8242131757539" x="2196" y="42.58789341212305" rx="4" ry="4" fill="black" />
    <rect width="8" height="54.70476089356723" x="2212" y="47.64761955321639" rx="4" ry="4" fill="black" />
    <rect width="8" height="58.071555719941834" x="2228" y="45.96422214002908" rx="4" ry="4" fill="black" />
    <rect width="8" height="40.86023750178144" x="2244" y="54.56988124910928" rx="4" ry="4" fill="black" />
    <rect width="8" height="69.38312204509049" x="2260" y="40.308438977454756" rx="4" ry="4" fill="black" />
    <rect width="8" height="8" x="2276" y="71" rx="4" ry="4" fill="black" />
    <rect width="8" height="43.66143344384807" x="2292" y="53.169283278075966" rx="4" ry="4" fill="black" />
    <rect width="8" height="8" x="2308" y="71" rx="4" ry="4" fill="black" />
    <rect width="8" height="23.81356047121036" x="2324" y="63.09321976439482" rx="4" ry="4" fill="black" />
    <rect width="8" height="8" x="2340" y="71" rx="4" ry="4" fill="black" />
    <rect width="8" height="8" x="2356" y="71" rx="4" ry="4" fill="black" />
    <rect width="8" height="8" x="2372" y="71" rx="4" ry="4" fill="black" />
    <rect width="8" height="8" x="2388" y="71" rx="4" ry="4" fill="black" />
  </g>
</svg>