<svg 
  baseProfile="tiny"
  preserveAspectRatio="true"
  version="1.2"
  viewBox="0 0 2400 150"
  height="100%" width="100%"
  xmlns="http://www.w3.org/2000/svg"
  xmlns:ev="http://www.w3.org/2001/xml-events"
  xmlns:xlink="http://www.w3.org/1999/xlink"
>
  <g>
    <rect width="8" height="41.72406421693185" x="4" y="54.137967891534075" rx="4" ry="4" fill="black" />
    <rect width="8" height="68.8771243589533" x="20" y="40.56143782052335" rx="4" ry="4" fill="black" />
    <rect width="8" height="44.004390852202874" x="36" y="52.99780457389856" rx="4" ry="4" fill="black" />
    <rect width="8" height="31.855300920921216" x="52" y="59.07234953953939" rx="4" ry="4" fill="black" />
    <rect width="8" height="21.243791994036332" x="68" y="64.37810400298183" rx="4" ry="4" fill="black" />
    <rect width="8" height="67.89848250456811" x="84" y="41.050758747715946" rx="4" ry="4" fill="black" />
    <rect width="8" height="8" x="100" y="71" rx="4" ry="4" fill="black" />
    <rect width="8" height="28.721119644676126" x="116" y="60.63944017766194" rx="4" ry="4" fill="black" />
    <rect width="8" height="73.7743469309145" x="132" y="38.11282653454275" rx="4" ry="4" fill="black" />
    <rect width="8" height="70.26636716087427" x="148" y="39.866816419562866" rx="4" ry="4" fill="black" />
    <rect width="8" height="48.86725174799105" x="164" y="50.566374126004476" rx="4" ry="4" fill="black" />
    <rect width="8" height="41.15460535420532" x="180" y="54.422697322897335" rx="4" ry="4" fill="black" />
    <rect width="8" height="55.25515081400847" x="196" y="47.37242459299576" rx="4" ry="4" fill="black" />
    <rect width="8" height="90.94090696663973" x="212" y="29.529546516680135" rx="4" ry="4" fill="black" />
    <rect width="8" height="35.50641696304175" x="228" y="57.24679151847913" rx="4" ry="4" fill="black" />
    <rect width="8" height="48.83568982046861" x="244" y="50.58215508976569" rx="4" ry="4" fill="black" />
    <rect width="8" height="110.38207852934738" x="260" y="19.80896073532631" rx="4" ry="4" fill="black" />
    <rect width="8" height="96.09319022057923" x="276" y="26.953404889710384" rx="4" ry="4" fill="black" />
    <rect width="8" height="127.90393377551203" x="292" y="11.048033112243985" rx="4" ry="4" fill="black" />
    <rect width="8" height="86.48099542530949" x="308" y="31.759502287345256" rx="4" ry="4" fill="black" />
    <rect width="8" height="115.46963573806377" x="324" y="17.265182130968114" rx="4" ry="4" fill="black" />
    <rect width="8" height="112.71933505748228" x="340" y="18.64033247125886" rx="4" ry="4" fill="black" />
    <rect width="8" height="107.98498615089672" x="356" y="21.00750692455164" rx="4" ry="4" fill="black" />
    <rect width="8" height="94.69554069004215" x="372" y="27.652229654978925" rx="4" ry="4" fill="black" />
    <rect width="8" height="116.60450416083896" x="388" y="16.69774791958052" rx="4" ry="4" fill="black" />
    <rect width="8" height="107.83086632318343" x="404" y="21.084566838408286" rx="4" ry="4" fill="black" />
    <rect width="8" height="117.28009751887423" x="420" y="16.359951240562886" rx="4" ry="4" fill="black" />
    <rect width="8" height="92.13783362739444" x="436" y="28.93108318630278" rx="4" ry="4" fill="black" />
    <rect width="8" height="117.13577165291993" x="452" y="16.432114173540036" rx="4" ry="4" fill="black" />
    <rect width="8" height="127.89027992780824" x="468" y="11.054860036095882" rx="4" ry="4" fill="black" />
    <rect width="8" height="68.96084981909571" x="484" y="40.51957509045214" rx="4" ry="4" fill="black" />
    <rect width="8" height="91.46262388497173" x="500" y="29.268688057514133" rx="4" ry="4" fill="black" />
    <rect width="8" height="111.01574218105486" x="516" y="19.49212890947257" rx="4" ry="4" fill="black" />
    <rect width="8" height="123.20470878892952" x="532" y="13.397645605535239" rx="4" ry="4" fill="black" />
    <rect width="8" height="105.33306664916228" x="548" y="22.33346667541886" rx="4" ry="4" fill="black" />
    <rect width="8" height="100.72563564314908" x="564" y="24.637182178425462" rx="4" ry="4" fill="black" />
    <rect width="8" height="88.57607844822782" x="580" y="30.71196077588609" rx="4" ry="4" fill="black" />
    <rect width="8" height="111.91824027484975" x="596" y="19.040879862575125" rx="4" ry="4" fill="black" />
    <rect width="8" height="76.3763824193317" x="612" y="36.81180879033415" rx="4" ry="4" fill="black" />
    <rect width="8" height="92.00329298241398" x="628" y="28.99835350879301" rx="4" ry="4" fill="black" />
    <rect width="8" height="71.19993990290656" x="644" y="39.40003004854672" rx="4" ry="4" fill="black" />
    <rect width="8" height="119.38587629600478" x="660" y="15.30706185199761" rx="4" ry="4" fill="black" />
    <rect width="8" height="68.74241699663419" x="676" y="40.628791501682905" rx="4" ry="4" fill="black" />
    <rect width="8" height="113.06712475026472" x="692" y="18.466437624867638" rx="4" ry="4" fill="black" />
    <rect width="8" height="64.27663333120667" x="708" y="42.861683334396666" rx="4" ry="4" fill="black" />
    <rect width="8" height="110.96036573897749" x="724" y="19.519817130511257" rx="4" ry="4" fill="black" />
    <rect width="8" height="63.773230913398876" x="740" y="43.11338454330056" rx="4" ry="4" fill="black" />
    <rect width="8" height="98.80647378576403" x="756" y="25.596763107117987" rx="4" ry="4" fill="black" />
    <rect width="8" height="57.673551991195616" x="772" y="46.163224004402196" rx="4" ry="4" fill="black" />
    <rect width="8" height="96.26484258491072" x="788" y="26.867578707544638" rx="4" ry="4" fill="black" />
    <rect width="8" height="105.69042209531118" x="804" y="22.15478895234441" rx="4" ry="4" fill="black" />
    <rect width="8" height="120.05620269396204" x="820" y="14.971898653018982" rx="4" ry="4" fill="black" />
    <rect width="8" height="112.48799284277001" x="836" y="18.756003578614994" rx="4" ry="4" fill="black" />
    <rect width="8" height="92.13085019389663" x="852" y="28.934574903051683" rx="4" ry="4" fill="black" />
    <rect width="8" height="121.04906365890487" x="868" y="14.475468170547565" rx="4" ry="4" fill="black" />
    <rect width="8" height="115.72061974435758" x="884" y="17.13969012782121" rx="4" ry="4" fill="black" />
    <rect width="8" height="107.55267107190905" x="900" y="21.223664464045477" rx="4" ry="4" fill="black" />
    <rect width="8" height="94.76202210608481" x="916" y="27.618988946957593" rx="4" ry="4" fill="black" />
    <rect width="8" height="106.20815120330617" x="932" y="21.895924398346914" rx="4" ry="4" fill="black" />
    <rect width="8" height="120.29367038382094" x="948" y="14.85316480808953" rx="4" ry="4" fill="black" />
    <rect width="8" height="111.63113777658731" x="964" y="19.184431111706346" rx="4" ry="4" fill="black" />
    <rect width="8" height="105.147592765867" x="980" y="22.4262036170665" rx="4" ry="4" fill="black" />
    <rect width="8" height="111.95610615283614" x="996" y="19.02194692358193" rx="4" ry="4" fill="black" />
    <rect width="8" height="110.16340278962781" x="1012" y="19.918298605186095" rx="4" ry="4" fill="black" />
    <rect width="8" height="88.33482667952168" x="1028" y="30.83258666023916" rx="4" ry="4" fill="black" />
    <rect width="8" height="102.12781558138188" x="1044" y="23.93609220930906" rx="4" ry="4" fill="black" />
    <rect width="8" height="94.34352720277774" x="1060" y="27.828236398611132" rx="4" ry="4" fill="black" />
    <rect width="8" height="114.01623031724931" x="1076" y="17.991884841375345" rx="4" ry="4" fill="black" />
    <rect width="8" height="105.37793973572597" x="1092" y="22.311030132137013" rx="4" ry="4" fill="black" />
    <rect width="8" height="105.38126646049813" x="1108" y="22.309366769750937" rx="4" ry="4" fill="black" />
    <rect width="8" height="149.64206203221693" x="1124" y="0.17896898389153648" rx="4" ry="4" fill="black" />
    <rect width="8" height="108.73992394246363" x="1140" y="20.630038028768183" rx="4" ry="4" fill="black" />
    <rect width="8" height="124.57692153024762" x="1156" y="12.711539234876192" rx="4" ry="4" fill="black" />
    <rect width="8" height="103.58306730614193" x="1172" y="23.208466346929036" rx="4" ry="4" fill="black" />
    <rect width="8" height="92.13333750244746" x="1188" y="28.93333124877627" rx="4" ry="4" fill="black" />
    <rect width="8" height="123.93489614611586" x="1204" y="13.03255192694207" rx="4" ry="4" fill="black" />
    <rect width="8" height="110.11307266407196" x="1220" y="19.943463667964018" rx="4" ry="4" fill="black" />
    <rect width="8" height="103.70790134514145" x="1236" y="23.146049327429274" rx="4" ry="4" fill="black" />
    <rect width="8" height="107.63607957105434" x="1252" y="21.18196021447283" rx="4" ry="4" fill="black" />
    <rect width="8" height="118.28162940470087" x="1268" y="15.859185297649567" rx="4" ry="4" fill="black" />
    <rect width="8" height="117.08199929255527" x="1284" y="16.459000353722367" rx="4" ry="4" fill="black" />
    <rect width="8" height="115.69972730480345" x="1300" y="17.150136347598277" rx="4" ry="4" fill="black" />
    <rect width="8" height="83.80076450536008" x="1316" y="33.09961774731996" rx="4" ry="4" fill="black" />
    <rect width="8" height="132.93065480481147" x="1332" y="8.534672597594266" rx="4" ry="4" fill="black" />
    <rect width="8" height="96.43805415077053" x="1348" y="26.780972924614737" rx="4" ry="4" fill="black" />
    <rect width="8" height="111.5847487286596" x="1364" y="19.207625635670198" rx="4" ry="4" fill="black" />
    <rect width="8" height="85.21771367353487" x="1380" y="32.39114316323256" rx="4" ry="4" fill="black" />
    <rect width="8" height="132.8654238652009" x="1396" y="8.567288067399545" rx="4" ry="4" fill="black" />
    <rect width="8" height="89.63268864471125" x="1412" y="30.183655677644374" rx="4" ry="4" fill="black" />
    <rect width="8" height="104.46542825995839" x="1428" y="22.767285870020807" rx="4" ry="4" fill="black" />
    <rect width="8" height="84.75342570178368" x="1444" y="32.62328714910816" rx="4" ry="4" fill="black" />
    <rect width="8" height="130.66188507899304" x="1460" y="9.669057460503481" rx="4" ry="4" fill="black" />
    <rect width="8" height="109.57108532061062" x="1476" y="20.21445733969469" rx="4" ry="4" fill="black" />
    <rect width="8" height="121.53164497477191" x="1492" y="14.234177512614046" rx="4" ry="4" fill="black" />
    <rect width="8" height="96.29317045250525" x="1508" y="26.853414773747375" rx="4" ry="4" fill="black" />
    <rect width="8" height="91.73319836341578" x="1524" y="29.13340081829211" rx="4" ry="4" fill="black" />
    <rect width="8" height="82.99197990096906" x="1540" y="33.50401004951547" rx="4" ry="4" fill="black" />
    <rect width="8" height="144.64958389500583" x="1556" y="2.6752080524970836" rx="4" ry="4" fill="black" />
    <rect width="8" height="86.77814317786071" x="1572" y="31.610928411069644" rx="4" ry="4" fill="black" />
    <rect width="8" height="99.08868878604457" x="1588" y="25.455655606977714" rx="4" ry="4" fill="black" />
    <rect width="8" height="101.06823920657656" x="1604" y="24.465880396711718" rx="4" ry="4" fill="black" />
    <rect width="8" height="136.62898159925126" x="1620" y="6.685509200374369" rx="4" ry="4" fill="black" />
    <rect width="8" height="85.96194831919705" x="1636" y="32.019025840401476" rx="4" ry="4" fill="black" />
    <rect width="8" height="76.70057171077083" x="1652" y="36.649714144614585" rx="4" ry="4" fill="black" />
    <rect width="8" height="93.2602601439679" x="1668" y="28.36986992801605" rx="4" ry="4" fill="black" />
    <rect width="8" height="135.51693569083915" x="1684" y="7.241532154580426" rx="4" ry="4" fill="black" />
    <rect width="8" height="98.0963275098432" x="1700" y="25.951836245078397" rx="4" ry="4" fill="black" />
    <rect width="8" height="112.32565733667168" x="1716" y="18.83717133166416" rx="4" ry="4" fill="black" />
    <rect width="8" height="90.76157056110716" x="1732" y="29.61921471944642" rx="4" ry="4" fill="black" />
    <rect width="8" height="150" x="1748" y="0" rx="4" ry="4" fill="black" />
    <rect width="8" height="83.95421082738889" x="1764" y="33.022894586305554" rx="4" ry="4" fill="black" />
    <rect width="8" height="101.14913986432731" x="1780" y="24.425430067836345" rx="4" ry="4" fill="black" />
    <rect width="8" height="84.81910450515812" x="1796" y="32.59044774742094" rx="4" ry="4" fill="black" />
    <rect width="8" height="108.38261476444661" x="1812" y="20.808692617776693" rx="4" ry="4" fill="black" />
    <rect width="8" height="71.61861046379968" x="1828" y="39.19069476810016" rx="4" ry="4" fill="black" />
    <rect width="8" height="73.87539757650939" x="1844" y="38.06230121174531" rx="4" ry="4" fill="black" />
    <rect width="8" height="70.51096864727846" x="1860" y="39.74451567636077" rx="4" ry="4" fill="black" />
    <rect width="8" height="96.27659330777917" x="1876" y="26.861703346110417" rx="4" ry="4" fill="black" />
    <rect width="8" height="72.36166072300736" x="1892" y="38.81916963849632" rx="4" ry="4" fill="black" />
    <rect width="8" height="84.74341836808259" x="1908" y="32.62829081595871" rx="4" ry="4" fill="black" />
    <rect width="8" height="67.26912739242628" x="1924" y="41.36543630378686" rx="4" ry="4" fill="black" />
    <rect width="8" height="99.24515156807337" x="1940" y="25.377424215963316" rx="4" ry="4" fill="black" />
    <rect width="8" height="69.82782504770043" x="1956" y="40.086087476149785" rx="4" ry="4" fill="black" />
    <rect width="8" height="77.6032879563724" x="1972" y="36.1983560218138" rx="4" ry="4" fill="black" />
    <rect width="8" height="72.37372685054399" x="1988" y="38.813136574728006" rx="4" ry="4" fill="black" />
    <rect width="8" height="106.17259939398656" x="2004" y="21.91370030300672" rx="4" ry="4" fill="black" />
    <rect width="8" height="69.61125246024153" x="2020" y="40.194373769879235" rx="4" ry="4" fill="black" />
    <rect width="8" height="82.07111841007384" x="2036" y="33.96444079496308" rx="4" ry="4" fill="black" />
    <rect width="8" height="71.49572683939361" x="2052" y="39.252136580303194" rx="4" ry="4" fill="black" />
    <rect width="8" height="105.73942211260487" x="2068" y="22.130288943697565" rx="4" ry="4" fill="black" />
    <rect width="8" height="67.23074867562644" x="2084" y="41.38462566218678" rx="4" ry="4" fill="black" />
    <rect width="8" height="53.538417329440556" x="2100" y="48.23079133527972" rx="4" ry="4" fill="black" />
    <rect width="8" height="59.873344309186" x="2116" y="45.063327845407" rx="4" ry="4" fill="black" />
    <rect width="8" height="94.19364225180766" x="2132" y="27.90317887409617" rx="4" ry="4" fill="black" />
    <rect width="8" height="67.72369261933206" x="2148" y="41.13815369033397" rx="4" ry="4" fill="black" />
    <rect width="8" height="61.99067200058058" x="2164" y="44.004663999709706" rx="4" ry="4" fill="black" />
    <rect width="8" height="8" x="2180" y="71" rx="4" ry="4" fill="black" />
    <rect width="8" height="84.70664527419552" x="2196" y="32.64667736290224" rx="4" ry="4" fill="black" />
    <rect width="8" height="45.2381051317701" x="2212" y="52.38094743411495" rx="4" ry="4" fill="black" />
    <rect width="8" height="57.75122488660877" x="2228" y="46.124387556695616" rx="4" ry="4" fill="black" />
    <rect width="8" height="61.02620521146948" x="2244" y="44.486897394265256" rx="4" ry="4" fill="black" />
    <rect width="8" height="83.44755370507447" x="2260" y="33.276223147462765" rx="4" ry="4" fill="black" />
    <rect width="8" height="66.27116496419634" x="2276" y="41.86441751790183" rx="4" ry="4" fill="black" />
    <rect width="8" height="94.87211663647847" x="2292" y="27.563941681760767" rx="4" ry="4" fill="black" />
    <rect width="8" height="67.1706271110496" x="2308" y="41.4146864444752" rx="4" ry="4" fill="black" />
    <rect width="8" height="20.96830692018395" x="2324" y="64.51584653990803" rx="4" ry="4" fill="black" />
    <rect width="8" height="67.99862072767824" x="2340" y="41.00068963616088" rx="4" ry="4" fill="black" />
    <rect width="8" height="62.382548227343534" x="2356" y="43.80872588632823" rx="4" ry="4" fill="black" />
    <rect width="8" height="8" x="2372" y="71" rx="4" ry="4" fill="black" />
    <rect width="8" height="8" x="2388" y="71" rx="4" ry="4" fill="black" />
  </g>
</svg>