<svg 
  baseProfile="tiny"
  preserveAspectRatio="keep"
  version="1.2"
  viewBox="0 0 2400 150"
  height="100%" width="100%"
  xmlns="http://www.w3.org/2000/svg"
  xmlns:ev="http://www.w3.org/2001/xml-events"
  xmlns:xlink="http://www.w3.org/1999/xlink"
>
  <g>
    <rect width="8" height="43.132077486814225" x="4" y="53.43396125659289" rx="4" ry="4" fill="black" />
    <rect width="8" height="22.938146593490163" x="20" y="63.53092670325492" rx="4" ry="4" fill="black" />
    <rect width="8" height="8" x="36" y="71" rx="4" ry="4" fill="black" />
    <rect width="8" height="42.04036554184909" x="52" y="53.97981722907545" rx="4" ry="4" fill="black" />
    <rect width="8" height="24.486217648718036" x="68" y="62.75689117564098" rx="4" ry="4" fill="black" />
    <rect width="8" height="47.55042956879432" x="84" y="51.224785215602836" rx="4" ry="4" fill="black" />
    <rect width="8" height="29.062142550756803" x="100" y="60.4689287246216" rx="4" ry="4" fill="black" />
    <rect width="8" height="36.39733312914638" x="116" y="56.80133343542681" rx="4" ry="4" fill="black" />
    <rect width="8" height="37.898444456884604" x="132" y="56.0507777715577" rx="4" ry="4" fill="black" />
    <rect width="8" height="20.12426619312489" x="148" y="64.93786690343755" rx="4" ry="4" fill="black" />
    <rect width="8" height="27.297392253385038" x="164" y="61.35130387330748" rx="4" ry="4" fill="black" />
    <rect width="8" height="32.021846891456505" x="180" y="58.98907655427175" rx="4" ry="4" fill="black" />
    <rect width="8" height="8" x="196" y="71" rx="4" ry="4" fill="black" />
    <rect width="8" height="48.534585008499434" x="212" y="50.73270749575028" rx="4" ry="4" fill="black" />
    <rect width="8" height="32.341613595022494" x="228" y="58.82919320248875" rx="4" ry="4" fill="black" />
    <rect width="8" height="17.795467514949344" x="244" y="66.10226624252533" rx="4" ry="4" fill="black" />
    <rect width="8" height="38.83572169391947" x="260" y="55.582139153040266" rx="4" ry="4" fill="black" />
    <rect width="8" height="22.097203515960047" x="276" y="63.95139824201998" rx="4" ry="4" fill="black" />
    <rect width="8" height="41.79741085277715" x="292" y="54.101294573611426" rx="4" ry="4" fill="black" />
    <rect width="8" height="32.771069315111326" x="308" y="58.61446534244433" rx="4" ry="4" fill="black" />
    <rect width="8" height="8" x="324" y="71" rx="4" ry="4" fill="black" />
    <rect width="8" height="71.4877747100272" x="340" y="39.2561126449864" rx="4" ry="4" fill="black" />
    <rect width="8" height="98.05855995385353" x="356" y="25.970720023073234" rx="4" ry="4" fill="black" />
    <rect width="8" height="78.6271739783713" x="372" y="35.68641301081435" rx="4" ry="4" fill="black" />
    <rect width="8" height="75.40157882971945" x="388" y="37.29921058514027" rx="4" ry="4" fill="black" />
    <rect width="8" height="71.3456977915784" x="404" y="39.3271511042108" rx="4" ry="4" fill="black" />
    <rect width="8" height="110.81910186644312" x="420" y="19.59044906677844" rx="4" ry="4" fill="black" />
    <rect width="8" height="60.04573779577547" x="436" y="44.97713110211227" rx="4" ry="4" fill="black" />
    <rect width="8" height="52.49279598230044" x="452" y="48.75360200884978" rx="4" ry="4" fill="black" />
    <rect width="8" height="58.87372123450718" x="468" y="45.563139382746414" rx="4" ry="4" fill="black" />
    <rect width="8" height="79.8902988171404" x="484" y="35.0548505914298" rx="4" ry="4" fill="black" />
    <rect width="8" height="28.03024909860317" x="500" y="60.98487545069841" rx="4" ry="4" fill="black" />
    <rect width="8" height="89.01157667591502" x="516" y="30.49421166204249" rx="4" ry="4" fill="black" />
    <rect width="8" height="32.64563703417789" x="532" y="58.67718148291105" rx="4" ry="4" fill="black" />
    <rect width="8" height="62.38736390108322" x="548" y="43.80631804945839" rx="4" ry="4" fill="black" />
    <rect width="8" height="103.39523982519839" x="564" y="23.302380087400806" rx="4" ry="4" fill="black" />
    <rect width="8" height="19.361929079029334" x="580" y="65.31903546048534" rx="4" ry="4" fill="black" />
    <rect width="8" height="96.95087282271135" x="596" y="26.524563588644327" rx="4" ry="4" fill="black" />
    <rect width="8" height="23.623458607705043" x="612" y="63.18827069614748" rx="4" ry="4" fill="black" />
    <rect width="8" height="100.23371116111771" x="628" y="24.883144419441145" rx="4" ry="4" fill="black" />
    <rect width="8" height="55.79313362283734" x="644" y="47.103433188581334" rx="4" ry="4" fill="black" />
    <rect width="8" height="39.20707723779789" x="660" y="55.396461381101055" rx="4" ry="4" fill="black" />
    <rect width="8" height="42.83445592384735" x="676" y="53.58277203807633" rx="4" ry="4" fill="black" />
    <rect width="8" height="139.3305569037308" x="692" y="5.3347215481345955" rx="4" ry="4" fill="black" />
    <rect width="8" height="105.01152922556545" x="708" y="22.494235387217273" rx="4" ry="4" fill="black" />
    <rect width="8" height="113.53038768733084" x="724" y="18.234806156334578" rx="4" ry="4" fill="black" />
    <rect width="8" height="96.2744687234645" x="740" y="26.862765638267753" rx="4" ry="4" fill="black" />
    <rect width="8" height="150" x="756" y="0" rx="4" ry="4" fill="black" />
    <rect width="8" height="103.8527248694029" x="772" y="23.073637565298547" rx="4" ry="4" fill="black" />
    <rect width="8" height="93.19566686809176" x="788" y="28.40216656595412" rx="4" ry="4" fill="black" />
    <rect width="8" height="107.3600862571198" x="804" y="21.319956871440098" rx="4" ry="4" fill="black" />
    <rect width="8" height="117.59662028591114" x="820" y="16.20168985704443" rx="4" ry="4" fill="black" />
    <rect width="8" height="55.656040710786954" x="836" y="47.17197964460652" rx="4" ry="4" fill="black" />
    <rect width="8" height="105.36228215612378" x="852" y="22.31885892193811" rx="4" ry="4" fill="black" />
    <rect width="8" height="17.21863351009449" x="868" y="66.39068324495275" rx="4" ry="4" fill="black" />
    <rect width="8" height="108.72573305864306" x="884" y="20.63713347067847" rx="4" ry="4" fill="black" />
    <rect width="8" height="118.04671519414615" x="900" y="15.976642402926927" rx="4" ry="4" fill="black" />
    <rect width="8" height="73.79715766447836" x="916" y="38.10142116776082" rx="4" ry="4" fill="black" />
    <rect width="8" height="117.48783407127361" x="932" y="16.256082964363195" rx="4" ry="4" fill="black" />
    <rect width="8" height="79.95252536990911" x="948" y="35.023737315045445" rx="4" ry="4" fill="black" />
    <rect width="8" height="100.15738649763739" x="964" y="24.921306751181305" rx="4" ry="4" fill="black" />
    <rect width="8" height="101.18895209826195" x="980" y="24.405523950869025" rx="4" ry="4" fill="black" />
    <rect width="8" height="65.3901666384294" x="996" y="42.3049166807853" rx="4" ry="4" fill="black" />
    <rect width="8" height="48.45974770157276" x="1012" y="50.770126149213624" rx="4" ry="4" fill="black" />
    <rect width="8" height="31.122869729132855" x="1028" y="59.43856513543357" rx="4" ry="4" fill="black" />
    <rect width="8" height="22.92214983482501" x="1044" y="63.5389250825875" rx="4" ry="4" fill="black" />
    <rect width="8" height="43.25221147904671" x="1060" y="53.373894260476646" rx="4" ry="4" fill="black" />
    <rect width="8" height="28.345124657231498" x="1076" y="60.82743767138425" rx="4" ry="4" fill="black" />
    <rect width="8" height="47.18786886407398" x="1092" y="51.40606556796301" rx="4" ry="4" fill="black" />
    <rect width="8" height="33.21793033273713" x="1108" y="58.39103483363144" rx="4" ry="4" fill="black" />
    <rect width="8" height="40.285075707817825" x="1124" y="54.85746214609109" rx="4" ry="4" fill="black" />
    <rect width="8" height="42.30868450662428" x="1140" y="53.84565774668786" rx="4" ry="4" fill="black" />
    <rect width="8" height="27.129512579528985" x="1156" y="61.43524371023551" rx="4" ry="4" fill="black" />
    <rect width="8" height="17.895932817776274" x="1172" y="66.05203359111187" rx="4" ry="4" fill="black" />
    <rect width="8" height="61.95856662184598" x="1188" y="44.020716689077005" rx="4" ry="4" fill="black" />
    <rect width="8" height="16.93586505525581" x="1204" y="66.53206747237209" rx="4" ry="4" fill="black" />
    <rect width="8" height="50.06914441328075" x="1220" y="49.96542779335962" rx="4" ry="4" fill="black" />
    <rect width="8" height="62.403263802365394" x="1236" y="43.798368098817306" rx="4" ry="4" fill="black" />
    <rect width="8" height="29.508034973241788" x="1252" y="60.245982513379104" rx="4" ry="4" fill="black" />
    <rect width="8" height="59.09017728528909" x="1268" y="45.454911357355456" rx="4" ry="4" fill="black" />
    <rect width="8" height="26.890559745529625" x="1284" y="61.554720127235186" rx="4" ry="4" fill="black" />
    <rect width="8" height="32.29899387543706" x="1300" y="58.85050306228147" rx="4" ry="4" fill="black" />
    <rect width="8" height="47.72105991330749" x="1316" y="51.13947004334625" rx="4" ry="4" fill="black" />
    <rect width="8" height="17.14215452088396" x="1332" y="66.42892273955802" rx="4" ry="4" fill="black" />
    <rect width="8" height="113.35692457459655" x="1348" y="18.321537712701726" rx="4" ry="4" fill="black" />
    <rect width="8" height="127.65335734518716" x="1364" y="11.17332132740642" rx="4" ry="4" fill="black" />
    <rect width="8" height="110.61857111561396" x="1380" y="19.69071444219302" rx="4" ry="4" fill="black" />
    <rect width="8" height="120.49623559244495" x="1396" y="14.751882203777527" rx="4" ry="4" fill="black" />
    <rect width="8" height="106.05686098464871" x="1412" y="21.971569507675646" rx="4" ry="4" fill="black" />
    <rect width="8" height="128.55361610769165" x="1428" y="10.723191946154174" rx="4" ry="4" fill="black" />
    <rect width="8" height="112.60477478088539" x="1444" y="18.697612609557304" rx="4" ry="4" fill="black" />
    <rect width="8" height="70.44205471403673" x="1460" y="39.778972642981635" rx="4" ry="4" fill="black" />
    <rect width="8" height="100.270174918683" x="1476" y="24.8649125406585" rx="4" ry="4" fill="black" />
    <rect width="8" height="133.10226470022113" x="1492" y="8.448867649889436" rx="4" ry="4" fill="black" />
    <rect width="8" height="80.30893459779135" x="1508" y="34.845532701104325" rx="4" ry="4" fill="black" />
    <rect width="8" height="108.15643544891954" x="1524" y="20.92178227554023" rx="4" ry="4" fill="black" />
    <rect width="8" height="23.738707686106775" x="1540" y="63.13064615694661" rx="4" ry="4" fill="black" />
    <rect width="8" height="138.27861330584616" x="1556" y="5.860693347076918" rx="4" ry="4" fill="black" />
    <rect width="8" height="110.02468290668541" x="1572" y="19.987658546657293" rx="4" ry="4" fill="black" />
    <rect width="8" height="85.452724493416" x="1588" y="32.273637753292" rx="4" ry="4" fill="black" />
    <rect width="8" height="117.78974349395911" x="1604" y="16.105128253020446" rx="4" ry="4" fill="black" />
    <rect width="8" height="129.4361658291159" x="1620" y="10.281917085442046" rx="4" ry="4" fill="black" />
    <rect width="8" height="87.49869671575088" x="1636" y="31.25065164212456" rx="4" ry="4" fill="black" />
    <rect width="8" height="106.06818055563562" x="1652" y="21.96590972218219" rx="4" ry="4" fill="black" />
    <rect width="8" height="77.43829766136804" x="1668" y="36.28085116931598" rx="4" ry="4" fill="black" />
    <rect width="8" height="49.44409480134752" x="1684" y="50.27795259932624" rx="4" ry="4" fill="black" />
    <rect width="8" height="35.50336713250541" x="1700" y="57.24831643374729" rx="4" ry="4" fill="black" />
    <rect width="8" height="77.7441043796682" x="1716" y="36.1279478101659" rx="4" ry="4" fill="black" />
    <rect width="8" height="55.0705843980569" x="1732" y="47.46470780097155" rx="4" ry="4" fill="black" />
    <rect width="8" height="93.37740193837958" x="1748" y="28.31129903081021" rx="4" ry="4" fill="black" />
    <rect width="8" height="78.39359229053566" x="1764" y="35.80320385473217" rx="4" ry="4" fill="black" />
    <rect width="8" height="40.96430526043979" x="1780" y="54.51784736978011" rx="4" ry="4" fill="black" />
    <rect width="8" height="47.537529287621574" x="1796" y="51.23123535618922" rx="4" ry="4" fill="black" />
    <rect width="8" height="46.52052107476511" x="1812" y="51.73973946261745" rx="4" ry="4" fill="black" />
    <rect width="8" height="96.95920401362827" x="1828" y="26.520397993185867" rx="4" ry="4" fill="black" />
    <rect width="8" height="27.172094630614918" x="1844" y="61.41395268469254" rx="4" ry="4" fill="black" />
    <rect width="8" height="112.30299486023755" x="1860" y="18.848502569881227" rx="4" ry="4" fill="black" />
    <rect width="8" height="38.82573375168122" x="1876" y="55.587133124159394" rx="4" ry="4" fill="black" />
    <rect width="8" height="135.40300521696255" x="1892" y="7.298497391518723" rx="4" ry="4" fill="black" />
    <rect width="8" height="115.66844591979887" x="1908" y="17.165777040100565" rx="4" ry="4" fill="black" />
    <rect width="8" height="84.99967652401217" x="1924" y="32.50016173799391" rx="4" ry="4" fill="black" />
    <rect width="8" height="124.05030449327455" x="1940" y="12.974847753362724" rx="4" ry="4" fill="black" />
    <rect width="8" height="139.46155876394926" x="1956" y="5.269220618025372" rx="4" ry="4" fill="black" />
    <rect width="8" height="102.49068342050361" x="1972" y="23.754658289748193" rx="4" ry="4" fill="black" />
    <rect width="8" height="103.65173486492881" x="1988" y="23.174132567535594" rx="4" ry="4" fill="black" />
    <rect width="8" height="105.96391021943336" x="2004" y="22.01804489028332" rx="4" ry="4" fill="black" />
    <rect width="8" height="105.07670729792241" x="2020" y="22.461646351038794" rx="4" ry="4" fill="black" />
    <rect width="8" height="101.68835801591696" x="2036" y="24.15582099204152" rx="4" ry="4" fill="black" />
    <rect width="8" height="77.92014840291213" x="2052" y="36.03992579854393" rx="4" ry="4" fill="black" />
    <rect width="8" height="111.71468121301805" x="2068" y="19.142659393490973" rx="4" ry="4" fill="black" />
    <rect width="8" height="84.20868067101159" x="2084" y="32.895659664494204" rx="4" ry="4" fill="black" />
    <rect width="8" height="77.00080188667039" x="2100" y="36.499599056664806" rx="4" ry="4" fill="black" />
    <rect width="8" height="106.90853232075393" x="2116" y="21.545733839623033" rx="4" ry="4" fill="black" />
    <rect width="8" height="64.00585315517108" x="2132" y="42.99707342241446" rx="4" ry="4" fill="black" />
    <rect width="8" height="92.51087212124125" x="2148" y="28.744563939379375" rx="4" ry="4" fill="black" />
    <rect width="8" height="66.92686568170554" x="2164" y="41.53656715914723" rx="4" ry="4" fill="black" />
    <rect width="8" height="52.67568344416543" x="2180" y="48.662158277917285" rx="4" ry="4" fill="black" />
    <rect width="8" height="85.54835918271591" x="2196" y="32.22582040864204" rx="4" ry="4" fill="black" />
    <rect width="8" height="44.881086913128705" x="2212" y="52.559456543435644" rx="4" ry="4" fill="black" />
    <rect width="8" height="40.01776086821992" x="2228" y="54.99111956589004" rx="4" ry="4" fill="black" />
    <rect width="8" height="92.7200993979333" x="2244" y="28.639950301033352" rx="4" ry="4" fill="black" />
    <rect width="8" height="43.57289752144447" x="2260" y="53.21355123927776" rx="4" ry="4" fill="black" />
    <rect width="8" height="86.02361858185513" x="2276" y="31.988190709072434" rx="4" ry="4" fill="black" />
    <rect width="8" height="57.98973823994068" x="2292" y="46.00513088002966" rx="4" ry="4" fill="black" />
    <rect width="8" height="44.46525954178554" x="2308" y="52.76737022910723" rx="4" ry="4" fill="black" />
    <rect width="8" height="59.75972118905448" x="2324" y="45.120139405472756" rx="4" ry="4" fill="black" />
    <rect width="8" height="61.720674151812155" x="2340" y="44.139662924093926" rx="4" ry="4" fill="black" />
    <rect width="8" height="63.108187165600484" x="2356" y="43.44590641719976" rx="4" ry="4" fill="black" />
    <rect width="8" height="53.60947560719415" x="2372" y="48.19526219640292" rx="4" ry="4" fill="black" />
    <rect width="8" height="8" x="2388" y="71" rx="4" ry="4" fill="black" />
  </g>
</svg>