<svg 
  baseProfile="tiny"
  preserveAspectRatio="keep"
  version="1.2"
  viewBox="0 0 2400 150"
  height="100%" width="100%"
  xmlns="http://www.w3.org/2000/svg"
  xmlns:ev="http://www.w3.org/2001/xml-events"
  xmlns:xlink="http://www.w3.org/1999/xlink"
>
  <g>
    <rect width="8" height="8" x="4" y="71" rx="4" ry="4" fill="black" />
    <rect width="8" height="8" x="20" y="71" rx="4" ry="4" fill="black" />
    <rect width="8" height="24.84155808707013" x="36" y="62.57922095646494" rx="4" ry="4" fill="black" />
    <rect width="8" height="8" x="52" y="71" rx="4" ry="4" fill="black" />
    <rect width="8" height="32.62123967528589" x="68" y="58.689380162357054" rx="4" ry="4" fill="black" />
    <rect width="8" height="8" x="84" y="71" rx="4" ry="4" fill="black" />
    <rect width="8" height="43.94722832218474" x="100" y="53.02638583890763" rx="4" ry="4" fill="black" />
    <rect width="8" height="8" x="116" y="71" rx="4" ry="4" fill="black" />
    <rect width="8" height="35.4342598700559" x="132" y="57.28287006497205" rx="4" ry="4" fill="black" />
    <rect width="8" height="8" x="148" y="71" rx="4" ry="4" fill="black" />
    <rect width="8" height="32.10345492097653" x="164" y="58.948272539511734" rx="4" ry="4" fill="black" />
    <rect width="8" height="8" x="180" y="71" rx="4" ry="4" fill="black" />
    <rect width="8" height="61.39116269756349" x="196" y="44.304418651218256" rx="4" ry="4" fill="black" />
    <rect width="8" height="21.54057874812474" x="212" y="64.22971062593763" rx="4" ry="4" fill="black" />
    <rect width="8" height="64.60467135940993" x="228" y="42.69766432029503" rx="4" ry="4" fill="black" />
    <rect width="8" height="29.74376823800792" x="244" y="60.12811588099604" rx="4" ry="4" fill="black" />
    <rect width="8" height="32.441765181271975" x="260" y="58.77911740936401" rx="4" ry="4" fill="black" />
    <rect width="8" height="35.769733102437755" x="276" y="57.11513344878112" rx="4" ry="4" fill="black" />
    <rect width="8" height="40.79791343101237" x="292" y="54.60104328449381" rx="4" ry="4" fill="black" />
    <rect width="8" height="82.18282888382986" x="308" y="33.90858555808507" rx="4" ry="4" fill="black" />
    <rect width="8" height="123.10580451445949" x="324" y="13.447097742770254" rx="4" ry="4" fill="black" />
    <rect width="8" height="125.06209273508476" x="340" y="12.46895363245762" rx="4" ry="4" fill="black" />
    <rect width="8" height="113.52085507654984" x="356" y="18.239572461725082" rx="4" ry="4" fill="black" />
    <rect width="8" height="64.81748945910365" x="372" y="42.59125527044817" rx="4" ry="4" fill="black" />
    <rect width="8" height="8" x="388" y="71" rx="4" ry="4" fill="black" />
    <rect width="8" height="33.53562694533153" x="404" y="58.232186527334235" rx="4" ry="4" fill="black" />
    <rect width="8" height="8" x="420" y="71" rx="4" ry="4" fill="black" />
    <rect width="8" height="84.92548852949517" x="436" y="32.537255735252415" rx="4" ry="4" fill="black" />
    <rect width="8" height="33.71127297787932" x="452" y="58.14436351106034" rx="4" ry="4" fill="black" />
    <rect width="8" height="67.71050160338471" x="468" y="41.14474919830764" rx="4" ry="4" fill="black" />
    <rect width="8" height="38.65724938727967" x="484" y="55.67137530636016" rx="4" ry="4" fill="black" />
    <rect width="8" height="31.92188937901636" x="500" y="59.03905531049182" rx="4" ry="4" fill="black" />
    <rect width="8" height="38.3890395211237" x="516" y="55.805480239438154" rx="4" ry="4" fill="black" />
    <rect width="8" height="105.34884553533985" x="532" y="22.325577232330076" rx="4" ry="4" fill="black" />
    <rect width="8" height="62.21212196382052" x="548" y="43.89393901808974" rx="4" ry="4" fill="black" />
    <rect width="8" height="118.83094026502071" x="564" y="15.584529867489643" rx="4" ry="4" fill="black" />
    <rect width="8" height="110.77870069336502" x="580" y="19.610649653317488" rx="4" ry="4" fill="black" />
    <rect width="8" height="88.20355865814481" x="596" y="30.898220670927593" rx="4" ry="4" fill="black" />
    <rect width="8" height="56.85581473202101" x="612" y="46.5720926339895" rx="4" ry="4" fill="black" />
    <rect width="8" height="8" x="628" y="71" rx="4" ry="4" fill="black" />
    <rect width="8" height="109.04020298545359" x="644" y="20.479898507273205" rx="4" ry="4" fill="black" />
    <rect width="8" height="8" x="660" y="71" rx="4" ry="4" fill="black" />
    <rect width="8" height="21.765052962452113" x="676" y="64.11747351877395" rx="4" ry="4" fill="black" />
    <rect width="8" height="30.87796424771545" x="692" y="59.56101787614227" rx="4" ry="4" fill="black" />
    <rect width="8" height="67.20565578610709" x="708" y="41.397172106946456" rx="4" ry="4" fill="black" />
    <rect width="8" height="33.31152895832144" x="724" y="58.34423552083928" rx="4" ry="4" fill="black" />
    <rect width="8" height="67.97467443117378" x="740" y="41.01266278441311" rx="4" ry="4" fill="black" />
    <rect width="8" height="42.97545639336745" x="756" y="53.512271803316274" rx="4" ry="4" fill="black" />
    <rect width="8" height="23.5972835359111" x="772" y="63.20135823204445" rx="4" ry="4" fill="black" />
    <rect width="8" height="100.27066232674831" x="788" y="24.864668836625846" rx="4" ry="4" fill="black" />
    <rect width="8" height="92.65484038150379" x="804" y="28.672579809248106" rx="4" ry="4" fill="black" />
    <rect width="8" height="107.09163846499582" x="820" y="21.454180767502088" rx="4" ry="4" fill="black" />
    <rect width="8" height="113.42481011039251" x="836" y="18.287594944803743" rx="4" ry="4" fill="black" />
    <rect width="8" height="60.85116897288829" x="852" y="44.574415513555856" rx="4" ry="4" fill="black" />
    <rect width="8" height="8" x="868" y="71" rx="4" ry="4" fill="black" />
    <rect width="8" height="35.42984455762047" x="884" y="57.285077721189765" rx="4" ry="4" fill="black" />
    <rect width="8" height="8" x="900" y="71" rx="4" ry="4" fill="black" />
    <rect width="8" height="84.99446206098156" x="916" y="32.50276896950922" rx="4" ry="4" fill="black" />
    <rect width="8" height="33.65867511992255" x="932" y="58.170662440038726" rx="4" ry="4" fill="black" />
    <rect width="8" height="68.71568164081413" x="948" y="40.64215917959294" rx="4" ry="4" fill="black" />
    <rect width="8" height="36.08064975191849" x="964" y="56.95967512404076" rx="4" ry="4" fill="black" />
    <rect width="8" height="26.412785388638206" x="980" y="61.793607305680894" rx="4" ry="4" fill="black" />
    <rect width="8" height="34.98237103547469" x="996" y="57.50881448226265" rx="4" ry="4" fill="black" />
    <rect width="8" height="104.24970798931659" x="1012" y="22.875146005341705" rx="4" ry="4" fill="black" />
    <rect width="8" height="81.91221929740377" x="1028" y="34.04389035129812" rx="4" ry="4" fill="black" />
    <rect width="8" height="125.00193915588643" x="1044" y="12.499030422056784" rx="4" ry="4" fill="black" />
    <rect width="8" height="125.82791884063784" x="1060" y="12.086040579681082" rx="4" ry="4" fill="black" />
    <rect width="8" height="113.858445136396" x="1076" y="18.070777431802" rx="4" ry="4" fill="black" />
    <rect width="8" height="53.03247540517591" x="1092" y="48.48376229741204" rx="4" ry="4" fill="black" />
    <rect width="8" height="24.241625746890954" x="1108" y="62.87918712655453" rx="4" ry="4" fill="black" />
    <rect width="8" height="96.65057563277973" x="1124" y="26.674712183610133" rx="4" ry="4" fill="black" />
    <rect width="8" height="8" x="1140" y="71" rx="4" ry="4" fill="black" />
    <rect width="8" height="62.47711255621952" x="1156" y="43.761443721890245" rx="4" ry="4" fill="black" />
    <rect width="8" height="36.4747634230638" x="1172" y="56.762618288468104" rx="4" ry="4" fill="black" />
    <rect width="8" height="66.18526942180542" x="1188" y="41.90736528909729" rx="4" ry="4" fill="black" />
    <rect width="8" height="41.75512956739161" x="1204" y="54.1224352163042" rx="4" ry="4" fill="black" />
    <rect width="8" height="71.03375864411228" x="1220" y="39.48312067794386" rx="4" ry="4" fill="black" />
    <rect width="8" height="30.21528577183399" x="1236" y="59.892357114083005" rx="4" ry="4" fill="black" />
    <rect width="8" height="26.329340344898494" x="1252" y="61.83532982755075" rx="4" ry="4" fill="black" />
    <rect width="8" height="64.3561146889756" x="1268" y="42.8219426555122" rx="4" ry="4" fill="black" />
    <rect width="8" height="96.13445565045976" x="1284" y="26.932772174770122" rx="4" ry="4" fill="black" />
    <rect width="8" height="94.71930720227562" x="1300" y="27.640346398862192" rx="4" ry="4" fill="black" />
    <rect width="8" height="94.06114748439754" x="1316" y="27.96942625780123" rx="4" ry="4" fill="black" />
    <rect width="8" height="48.61665122802572" x="1332" y="50.69167438598714" rx="4" ry="4" fill="black" />
    <rect width="8" height="32.52059317911266" x="1348" y="58.73970341044367" rx="4" ry="4" fill="black" />
    <rect width="8" height="8" x="1364" y="71" rx="4" ry="4" fill="black" />
    <rect width="8" height="28.78599755500447" x="1380" y="60.607001222497765" rx="4" ry="4" fill="black" />
    <rect width="8" height="8" x="1396" y="71" rx="4" ry="4" fill="black" />
    <rect width="8" height="24.61786499550566" x="1412" y="62.69106750224717" rx="4" ry="4" fill="black" />
    <rect width="8" height="16.321001021799614" x="1428" y="66.83949948910019" rx="4" ry="4" fill="black" />
    <rect width="8" height="31.039011096545217" x="1444" y="59.480494451727395" rx="4" ry="4" fill="black" />
    <rect width="8" height="17.999544677622485" x="1460" y="66.00022766118876" rx="4" ry="4" fill="black" />
    <rect width="8" height="29.497696330144752" x="1476" y="60.251151834927626" rx="4" ry="4" fill="black" />
    <rect width="8" height="18.78203225977349" x="1492" y="65.60898387011325" rx="4" ry="4" fill="black" />
    <rect width="8" height="25.924663011677755" x="1508" y="62.037668494161124" rx="4" ry="4" fill="black" />
    <rect width="8" height="29.593643524033354" x="1524" y="60.20317823798332" rx="4" ry="4" fill="black" />
    <rect width="8" height="58.2415807044084" x="1540" y="45.879209647795804" rx="4" ry="4" fill="black" />
    <rect width="8" height="30.520388864463012" x="1556" y="59.73980556776849" rx="4" ry="4" fill="black" />
    <rect width="8" height="89.14243138054103" x="1572" y="30.428784309729487" rx="4" ry="4" fill="black" />
    <rect width="8" height="31.317173974711768" x="1588" y="59.34141301264412" rx="4" ry="4" fill="black" />
    <rect width="8" height="87.58856580543763" x="1604" y="31.205717097281187" rx="4" ry="4" fill="black" />
    <rect width="8" height="32.560865293049716" x="1620" y="58.71956735347514" rx="4" ry="4" fill="black" />
    <rect width="8" height="95.19434390390326" x="1636" y="27.40282804804837" rx="4" ry="4" fill="black" />
    <rect width="8" height="87.71118497008109" x="1652" y="31.144407514959454" rx="4" ry="4" fill="black" />
    <rect width="8" height="115.28635161086171" x="1668" y="17.356824194569143" rx="4" ry="4" fill="black" />
    <rect width="8" height="93.31862518563435" x="1684" y="28.340687407182827" rx="4" ry="4" fill="black" />
    <rect width="8" height="76.45615678482314" x="1700" y="36.77192160758843" rx="4" ry="4" fill="black" />
    <rect width="8" height="68.6318274552654" x="1716" y="40.6840862723673" rx="4" ry="4" fill="black" />
    <rect width="8" height="55.38811921930734" x="1732" y="47.30594039034633" rx="4" ry="4" fill="black" />
    <rect width="8" height="67.14050725679408" x="1748" y="41.42974637160296" rx="4" ry="4" fill="black" />
    <rect width="8" height="87.75671434145754" x="1764" y="31.12164282927123" rx="4" ry="4" fill="black" />
    <rect width="8" height="111.19824781393824" x="1780" y="19.40087609303088" rx="4" ry="4" fill="black" />
    <rect width="8" height="129.50994244627273" x="1796" y="10.245028776863634" rx="4" ry="4" fill="black" />
    <rect width="8" height="88.71661721749341" x="1812" y="30.641691391253296" rx="4" ry="4" fill="black" />
    <rect width="8" height="84.62097444097297" x="1828" y="32.689512779513514" rx="4" ry="4" fill="black" />
    <rect width="8" height="72.96714695571092" x="1844" y="38.51642652214454" rx="4" ry="4" fill="black" />
    <rect width="8" height="104.77911922816006" x="1860" y="22.610440385919972" rx="4" ry="4" fill="black" />
    <rect width="8" height="94.08089792493428" x="1876" y="27.95955103753286" rx="4" ry="4" fill="black" />
    <rect width="8" height="102.91133497276385" x="1892" y="23.544332513618073" rx="4" ry="4" fill="black" />
    <rect width="8" height="140.85611251727022" x="1908" y="4.5719437413648905" rx="4" ry="4" fill="black" />
    <rect width="8" height="106.45771223927886" x="1924" y="21.77114388036057" rx="4" ry="4" fill="black" />
    <rect width="8" height="94.61890509675953" x="1940" y="27.690547451620233" rx="4" ry="4" fill="black" />
    <rect width="8" height="78.15249781175463" x="1956" y="35.923751094122686" rx="4" ry="4" fill="black" />
    <rect width="8" height="71.05144458316255" x="1972" y="39.474277708418725" rx="4" ry="4" fill="black" />
    <rect width="8" height="90.98464039242637" x="1988" y="29.507679803786814" rx="4" ry="4" fill="black" />
    <rect width="8" height="111.29589735257547" x="2004" y="19.352051323712267" rx="4" ry="4" fill="black" />
    <rect width="8" height="106.78279137445398" x="2020" y="21.60860431277301" rx="4" ry="4" fill="black" />
    <rect width="8" height="114.99258739865628" x="2036" y="17.50370630067186" rx="4" ry="4" fill="black" />
    <rect width="8" height="99.81755916196992" x="2052" y="25.091220419015038" rx="4" ry="4" fill="black" />
    <rect width="8" height="113.05378187009994" x="2068" y="18.47310906495003" rx="4" ry="4" fill="black" />
    <rect width="8" height="97.91918396327495" x="2084" y="26.040408018362527" rx="4" ry="4" fill="black" />
    <rect width="8" height="90.2041531099005" x="2100" y="29.89792344504975" rx="4" ry="4" fill="black" />
    <rect width="8" height="73.51787969726527" x="2116" y="38.241060151367364" rx="4" ry="4" fill="black" />
    <rect width="8" height="111.96861751879904" x="2132" y="19.015691240600482" rx="4" ry="4" fill="black" />
    <rect width="8" height="96.89015576513155" x="2148" y="26.554922117434224" rx="4" ry="4" fill="black" />
    <rect width="8" height="124.49934228270769" x="2164" y="12.750328858646157" rx="4" ry="4" fill="black" />
    <rect width="8" height="150" x="2180" y="0" rx="4" ry="4" fill="black" />
    <rect width="8" height="39.416900285837976" x="2196" y="55.29154985708101" rx="4" ry="4" fill="black" />
    <rect width="8" height="41.62897755838244" x="2212" y="54.18551122080878" rx="4" ry="4" fill="black" />
    <rect width="8" height="93.77085333341485" x="2228" y="28.114573333292576" rx="4" ry="4" fill="black" />
    <rect width="8" height="123.24974998778887" x="2244" y="13.375125006105563" rx="4" ry="4" fill="black" />
    <rect width="8" height="126.72596115503838" x="2260" y="11.637019422480812" rx="4" ry="4" fill="black" />
    <rect width="8" height="118.25355783859848" x="2276" y="15.873221080700759" rx="4" ry="4" fill="black" />
    <rect width="8" height="49.31416365564929" x="2292" y="50.34291817217536" rx="4" ry="4" fill="black" />
    <rect width="8" height="8" x="2308" y="71" rx="4" ry="4" fill="black" />
    <rect width="8" height="39.80247904986407" x="2324" y="55.09876047506796" rx="4" ry="4" fill="black" />
    <rect width="8" height="8" x="2340" y="71" rx="4" ry="4" fill="black" />
    <rect width="8" height="8" x="2356" y="71" rx="4" ry="4" fill="black" />
    <rect width="8" height="8" x="2372" y="71" rx="4" ry="4" fill="black" />
    <rect width="8" height="8" x="2388" y="71" rx="4" ry="4" fill="black" />
  </g>
</svg>