<svg 
  baseProfile="tiny"
  preserveAspectRatio="true"
  version="1.2"
  viewBox="0 0 2400 150"
  height="100%" width="100%"
  xmlns="http://www.w3.org/2000/svg"
  xmlns:ev="http://www.w3.org/2001/xml-events"
  xmlns:xlink="http://www.w3.org/1999/xlink"
>
  <g>
    <rect width="8" height="8" x="4" y="71" rx="4" ry="4" fill="black" />
    <rect width="8" height="23.76437214801265" x="20" y="63.11781392599367" rx="4" ry="4" fill="black" />
    <rect width="8" height="31.016980609014063" x="36" y="59.491509695492965" rx="4" ry="4" fill="black" />
    <rect width="8" height="19.620439366742854" x="52" y="65.18978031662857" rx="4" ry="4" fill="black" />
    <rect width="8" height="115.2053012893556" x="68" y="17.3973493553222" rx="4" ry="4" fill="black" />
    <rect width="8" height="62.65537164804052" x="84" y="43.672314175979736" rx="4" ry="4" fill="black" />
    <rect width="8" height="128.46788761479314" x="100" y="10.766056192603429" rx="4" ry="4" fill="black" />
    <rect width="8" height="41.51839457379494" x="116" y="54.240802713102525" rx="4" ry="4" fill="black" />
    <rect width="8" height="135.8656575290311" x="132" y="7.067171235484452" rx="4" ry="4" fill="black" />
    <rect width="8" height="87.6854953442659" x="148" y="31.15725232786705" rx="4" ry="4" fill="black" />
    <rect width="8" height="115.83617346044561" x="164" y="17.081913269777196" rx="4" ry="4" fill="black" />
    <rect width="8" height="52.71063645982869" x="180" y="48.644681770085654" rx="4" ry="4" fill="black" />
    <rect width="8" height="101.16712459930591" x="196" y="24.416437700347046" rx="4" ry="4" fill="black" />
    <rect width="8" height="92.60817745654305" x="212" y="28.695911271728477" rx="4" ry="4" fill="black" />
    <rect width="8" height="53.56916182489325" x="228" y="48.21541908755337" rx="4" ry="4" fill="black" />
    <rect width="8" height="62.96545519934939" x="244" y="43.517272400325304" rx="4" ry="4" fill="black" />
    <rect width="8" height="37.783825218610524" x="260" y="56.108087390694735" rx="4" ry="4" fill="black" />
    <rect width="8" height="96.92461253945142" x="276" y="26.53769373027429" rx="4" ry="4" fill="black" />
    <rect width="8" height="41.437921493339374" x="292" y="54.28103925333031" rx="4" ry="4" fill="black" />
    <rect width="8" height="78.70511221039821" x="308" y="35.647443894800894" rx="4" ry="4" fill="black" />
    <rect width="8" height="46.68519668019989" x="324" y="51.65740165990006" rx="4" ry="4" fill="black" />
    <rect width="8" height="97.80029876678434" x="340" y="26.09985061660783" rx="4" ry="4" fill="black" />
    <rect width="8" height="40.42008753999391" x="356" y="54.78995623000304" rx="4" ry="4" fill="black" />
    <rect width="8" height="90.18674446052486" x="372" y="29.906627769737568" rx="4" ry="4" fill="black" />
    <rect width="8" height="42.67334685331894" x="388" y="53.66332657334053" rx="4" ry="4" fill="black" />
    <rect width="8" height="103.31351212285489" x="404" y="23.343243938572556" rx="4" ry="4" fill="black" />
    <rect width="8" height="37.44542991285314" x="420" y="56.27728504357343" rx="4" ry="4" fill="black" />
    <rect width="8" height="105.05122918873911" x="436" y="22.474385405630443" rx="4" ry="4" fill="black" />
    <rect width="8" height="46.0122565409094" x="452" y="51.993871729545305" rx="4" ry="4" fill="black" />
    <rect width="8" height="120.46572961436068" x="468" y="14.767135192819659" rx="4" ry="4" fill="black" />
    <rect width="8" height="44.41783150860858" x="484" y="52.791084245695714" rx="4" ry="4" fill="black" />
    <rect width="8" height="126.04833923055733" x="500" y="11.975830384721334" rx="4" ry="4" fill="black" />
    <rect width="8" height="46.106377744453994" x="516" y="51.946811127773" rx="4" ry="4" fill="black" />
    <rect width="8" height="138.2408267812069" x="532" y="5.879586609396554" rx="4" ry="4" fill="black" />
    <rect width="8" height="48.788656134347555" x="548" y="50.605671932826226" rx="4" ry="4" fill="black" />
    <rect width="8" height="119.0901805361287" x="564" y="15.45490973193565" rx="4" ry="4" fill="black" />
    <rect width="8" height="72.75405434659685" x="580" y="38.62297282670158" rx="4" ry="4" fill="black" />
    <rect width="8" height="98.52442030392207" x="596" y="25.737789848038965" rx="4" ry="4" fill="black" />
    <rect width="8" height="58.843292593841966" x="612" y="45.57835370307902" rx="4" ry="4" fill="black" />
    <rect width="8" height="49.69572783306657" x="628" y="50.152136083466715" rx="4" ry="4" fill="black" />
    <rect width="8" height="88.4442977544651" x="644" y="30.77785112276745" rx="4" ry="4" fill="black" />
    <rect width="8" height="29.529690388486316" x="660" y="60.23515480575684" rx="4" ry="4" fill="black" />
    <rect width="8" height="68.7895644200541" x="676" y="40.60521778997295" rx="4" ry="4" fill="black" />
    <rect width="8" height="31.045194228123425" x="692" y="59.47740288593829" rx="4" ry="4" fill="black" />
    <rect width="8" height="95.56139612143132" x="708" y="27.219301939284342" rx="4" ry="4" fill="black" />
    <rect width="8" height="31.375675028591903" x="724" y="59.31216248570405" rx="4" ry="4" fill="black" />
    <rect width="8" height="85.4050683358851" x="740" y="32.29746583205745" rx="4" ry="4" fill="black" />
    <rect width="8" height="36.211339304547195" x="756" y="56.8943303477264" rx="4" ry="4" fill="black" />
    <rect width="8" height="104.04585201251538" x="772" y="22.97707399374231" rx="4" ry="4" fill="black" />
    <rect width="8" height="35.26210351783032" x="788" y="57.36894824108484" rx="4" ry="4" fill="black" />
    <rect width="8" height="98.41346790184944" x="804" y="25.793266049075278" rx="4" ry="4" fill="black" />
    <rect width="8" height="38.494868257947665" x="820" y="55.752565871026164" rx="4" ry="4" fill="black" />
    <rect width="8" height="118.85649027467014" x="836" y="15.571754862664932" rx="4" ry="4" fill="black" />
    <rect width="8" height="36.900926382379716" x="852" y="56.549536808810146" rx="4" ry="4" fill="black" />
    <rect width="8" height="113.89005432531239" x="868" y="18.054972837343804" rx="4" ry="4" fill="black" />
    <rect width="8" height="41.61017108602385" x="884" y="54.19491445698807" rx="4" ry="4" fill="black" />
    <rect width="8" height="150" x="900" y="0" rx="4" ry="4" fill="black" />
    <rect width="8" height="50.99998122798407" x="916" y="49.50000938600796" rx="4" ry="4" fill="black" />
    <rect width="8" height="135.4400160410152" x="932" y="7.279991979492394" rx="4" ry="4" fill="black" />
    <rect width="8" height="48.105507967092215" x="948" y="50.94724601645389" rx="4" ry="4" fill="black" />
    <rect width="8" height="139.43187343724983" x="964" y="5.284063281375083" rx="4" ry="4" fill="black" />
    <rect width="8" height="59.48998961852871" x="980" y="45.255005190735645" rx="4" ry="4" fill="black" />
    <rect width="8" height="90.85526564498025" x="996" y="29.572367177509875" rx="4" ry="4" fill="black" />
    <rect width="8" height="62.37463045896679" x="1012" y="43.812684770516604" rx="4" ry="4" fill="black" />
    <rect width="8" height="85.38208149464545" x="1028" y="32.308959252677276" rx="4" ry="4" fill="black" />
    <rect width="8" height="74.97896725339345" x="1044" y="37.510516373303275" rx="4" ry="4" fill="black" />
    <rect width="8" height="35.42605003484552" x="1060" y="57.28697498257724" rx="4" ry="4" fill="black" />
    <rect width="8" height="75.95956227038394" x="1076" y="37.02021886480803" rx="4" ry="4" fill="black" />
    <rect width="8" height="46.29891201310586" x="1092" y="51.85054399344707" rx="4" ry="4" fill="black" />
    <rect width="8" height="77.95086363189681" x="1108" y="36.024568184051596" rx="4" ry="4" fill="black" />
    <rect width="8" height="34.43531788871743" x="1124" y="57.78234105564128" rx="4" ry="4" fill="black" />
    <rect width="8" height="84.43519675794118" x="1140" y="32.78240162102941" rx="4" ry="4" fill="black" />
    <rect width="8" height="43.094936176326975" x="1156" y="53.452531911836516" rx="4" ry="4" fill="black" />
    <rect width="8" height="94.21713378176861" x="1172" y="27.891433109115695" rx="4" ry="4" fill="black" />
    <rect width="8" height="51.65025896185551" x="1188" y="49.17487051907224" rx="4" ry="4" fill="black" />
    <rect width="8" height="106.05765527156493" x="1204" y="21.971172364217537" rx="4" ry="4" fill="black" />
    <rect width="8" height="41.56276198983407" x="1220" y="54.218619005082964" rx="4" ry="4" fill="black" />
    <rect width="8" height="108.95760495243861" x="1236" y="20.521197523780693" rx="4" ry="4" fill="black" />
    <rect width="8" height="46.54145434224873" x="1252" y="51.72927282887564" rx="4" ry="4" fill="black" />
    <rect width="8" height="135.1796289420984" x="1268" y="7.410185528950805" rx="4" ry="4" fill="black" />
    <rect width="8" height="48.10212290862596" x="1284" y="50.94893854568702" rx="4" ry="4" fill="black" />
    <rect width="8" height="127.54211669315353" x="1300" y="11.228941653423234" rx="4" ry="4" fill="black" />
    <rect width="8" height="48.57187471549544" x="1316" y="50.71406264225228" rx="4" ry="4" fill="black" />
    <rect width="8" height="138.04815102819487" x="1332" y="5.975924485902567" rx="4" ry="4" fill="black" />
    <rect width="8" height="65.10071904506033" x="1348" y="42.449640477469835" rx="4" ry="4" fill="black" />
    <rect width="8" height="124.33511781935388" x="1364" y="12.832441090323059" rx="4" ry="4" fill="black" />
    <rect width="8" height="70.92325067941253" x="1380" y="39.538374660293734" rx="4" ry="4" fill="black" />
    <rect width="8" height="108.04305433284178" x="1396" y="20.97847283357911" rx="4" ry="4" fill="black" />
    <rect width="8" height="65.62656276898562" x="1412" y="42.18671861550719" rx="4" ry="4" fill="black" />
    <rect width="8" height="61.90914143707784" x="1428" y="44.04542928146108" rx="4" ry="4" fill="black" />
    <rect width="8" height="70.54937947377746" x="1444" y="39.72531026311127" rx="4" ry="4" fill="black" />
    <rect width="8" height="60.37134794784251" x="1460" y="44.814326026078746" rx="4" ry="4" fill="black" />
    <rect width="8" height="85.06099507974263" x="1476" y="32.46950246012869" rx="4" ry="4" fill="black" />
    <rect width="8" height="48.43202188435055" x="1492" y="50.783989057824726" rx="4" ry="4" fill="black" />
    <rect width="8" height="92.6833183787832" x="1508" y="28.6583408106084" rx="4" ry="4" fill="black" />
    <rect width="8" height="87.14169812568433" x="1524" y="31.429150937157836" rx="4" ry="4" fill="black" />
    <rect width="8" height="87.379536663984" x="1540" y="31.310231668008" rx="4" ry="4" fill="black" />
    <rect width="8" height="50.70639412963247" x="1556" y="49.646802935183764" rx="4" ry="4" fill="black" />
    <rect width="8" height="90.36003857741596" x="1572" y="29.81998071129202" rx="4" ry="4" fill="black" />
    <rect width="8" height="91.79359464184893" x="1588" y="29.103202679075537" rx="4" ry="4" fill="black" />
    <rect width="8" height="112.01375668152438" x="1604" y="18.993121659237808" rx="4" ry="4" fill="black" />
    <rect width="8" height="54.35717823343036" x="1620" y="47.82141088328482" rx="4" ry="4" fill="black" />
    <rect width="8" height="104.29963474758273" x="1636" y="22.850182626208635" rx="4" ry="4" fill="black" />
    <rect width="8" height="91.22367171878194" x="1652" y="29.388164140609028" rx="4" ry="4" fill="black" />
    <rect width="8" height="124.84826018988065" x="1668" y="12.575869905059676" rx="4" ry="4" fill="black" />
    <rect width="8" height="71.80493604689326" x="1684" y="39.09753197655337" rx="4" ry="4" fill="black" />
    <rect width="8" height="146.84065906278215" x="1700" y="1.5796704686089242" rx="4" ry="4" fill="black" />
    <rect width="8" height="72.45184340418778" x="1716" y="38.77407829790611" rx="4" ry="4" fill="black" />
    <rect width="8" height="140.86498145553455" x="1732" y="4.567509272232726" rx="4" ry="4" fill="black" />
    <rect width="8" height="71.70586710287331" x="1748" y="39.14706644856334" rx="4" ry="4" fill="black" />
    <rect width="8" height="132.42748349964222" x="1764" y="8.78625825017889" rx="4" ry="4" fill="black" />
    <rect width="8" height="82.1811724317686" x="1780" y="33.9094137841157" rx="4" ry="4" fill="black" />
    <rect width="8" height="96.42505842697443" x="1796" y="26.787470786512785" rx="4" ry="4" fill="black" />
    <rect width="8" height="62.782639658613554" x="1812" y="43.60868017069322" rx="4" ry="4" fill="black" />
    <rect width="8" height="58.654299345006116" x="1828" y="45.672850327496946" rx="4" ry="4" fill="black" />
    <rect width="8" height="77.61828174671933" x="1844" y="36.19085912664033" rx="4" ry="4" fill="black" />
    <rect width="8" height="52.49119728739276" x="1860" y="48.75440135630362" rx="4" ry="4" fill="black" />
    <rect width="8" height="83.45918652472442" x="1876" y="33.27040673763779" rx="4" ry="4" fill="black" />
    <rect width="8" height="50.5475347927312" x="1892" y="49.7262326036344" rx="4" ry="4" fill="black" />
    <rect width="8" height="93.5444826812066" x="1908" y="28.2277586593967" rx="4" ry="4" fill="black" />
    <rect width="8" height="50.402304013143265" x="1924" y="49.79884799342837" rx="4" ry="4" fill="black" />
    <rect width="8" height="101.16403296058677" x="1940" y="24.417983519706617" rx="4" ry="4" fill="black" />
    <rect width="8" height="70.8192534316208" x="1956" y="39.5903732841896" rx="4" ry="4" fill="black" />
    <rect width="8" height="99.855899372472" x="1972" y="25.072050313764002" rx="4" ry="4" fill="black" />
    <rect width="8" height="55.312997834699836" x="1988" y="47.34350108265008" rx="4" ry="4" fill="black" />
    <rect width="8" height="107.20639194883584" x="2004" y="21.396804025582078" rx="4" ry="4" fill="black" />
    <rect width="8" height="94.20024361344154" x="2020" y="27.89987819327923" rx="4" ry="4" fill="black" />
    <rect width="8" height="112.89591632633972" x="2036" y="18.552041836830142" rx="4" ry="4" fill="black" />
    <rect width="8" height="59.360909126394425" x="2052" y="45.319545436802784" rx="4" ry="4" fill="black" />
    <rect width="8" height="119.36589735002899" x="2068" y="15.317051324985506" rx="4" ry="4" fill="black" />
    <rect width="8" height="73.8377235727479" x="2084" y="38.08113821362605" rx="4" ry="4" fill="black" />
    <rect width="8" height="122.88851544446953" x="2100" y="13.555742277765233" rx="4" ry="4" fill="black" />
    <rect width="8" height="66.08504470851344" x="2116" y="41.95747764574328" rx="4" ry="4" fill="black" />
    <rect width="8" height="133.98359716072432" x="2132" y="8.008201419637842" rx="4" ry="4" fill="black" />
    <rect width="8" height="102.19032858590332" x="2148" y="23.904835707048342" rx="4" ry="4" fill="black" />
    <rect width="8" height="120.8722295391104" x="2164" y="14.563885230444797" rx="4" ry="4" fill="black" />
    <rect width="8" height="64.9635826371876" x="2180" y="42.5182086814062" rx="4" ry="4" fill="black" />
    <rect width="8" height="122.20994879740225" x="2196" y="13.895025601298876" rx="4" ry="4" fill="black" />
    <rect width="8" height="103.20597591456325" x="2212" y="23.397012042718373" rx="4" ry="4" fill="black" />
    <rect width="8" height="66.40355805326108" x="2228" y="41.79822097336946" rx="4" ry="4" fill="black" />
    <rect width="8" height="73.88001236521718" x="2244" y="38.05999381739141" rx="4" ry="4" fill="black" />
    <rect width="8" height="121.66065592995943" x="2260" y="14.169672035020284" rx="4" ry="4" fill="black" />
    <rect width="8" height="56.65408429903634" x="2276" y="46.67295785048183" rx="4" ry="4" fill="black" />
    <rect width="8" height="25.99606892593605" x="2292" y="62.00196553703198" rx="4" ry="4" fill="black" />
    <rect width="8" height="79.29681159618418" x="2308" y="35.35159420190791" rx="4" ry="4" fill="black" />
    <rect width="8" height="22.165887432034026" x="2324" y="63.91705628398299" rx="4" ry="4" fill="black" />
    <rect width="8" height="78.8843641983105" x="2340" y="35.55781790084475" rx="4" ry="4" fill="black" />
    <rect width="8" height="23.770614796757588" x="2356" y="63.11469260162121" rx="4" ry="4" fill="black" />
    <rect width="8" height="8" x="2372" y="71" rx="4" ry="4" fill="black" />
    <rect width="8" height="8" x="2388" y="71" rx="4" ry="4" fill="black" />
  </g>
</svg>