<svg 
  baseProfile="tiny"
  preserveAspectRatio="keep"
  version="1.2"
  viewBox="0 0 2400 150"
  height="100%" width="100%"
  xmlns="http://www.w3.org/2000/svg"
  xmlns:ev="http://www.w3.org/2001/xml-events"
  xmlns:xlink="http://www.w3.org/1999/xlink"
>
  <g>
    <rect width="8" height="29.71981184673405" x="4" y="60.14009407663298" rx="4" ry="4" fill="black" />
    <rect width="8" height="53.601524923208096" x="20" y="48.19923753839595" rx="4" ry="4" fill="black" />
    <rect width="8" height="49.906453937080286" x="36" y="50.04677303145986" rx="4" ry="4" fill="black" />
    <rect width="8" height="70.29847886540789" x="52" y="39.85076056729606" rx="4" ry="4" fill="black" />
    <rect width="8" height="8" x="68" y="71" rx="4" ry="4" fill="black" />
    <rect width="8" height="55.11399103027335" x="84" y="47.44300448486332" rx="4" ry="4" fill="black" />
    <rect width="8" height="8" x="100" y="71" rx="4" ry="4" fill="black" />
    <rect width="8" height="49.75425473667463" x="116" y="50.12287263166269" rx="4" ry="4" fill="black" />
    <rect width="8" height="19.93275606695575" x="132" y="65.03362196652212" rx="4" ry="4" fill="black" />
    <rect width="8" height="49.10398188318568" x="148" y="50.44800905840716" rx="4" ry="4" fill="black" />
    <rect width="8" height="39.134298700282244" x="164" y="55.43285064985888" rx="4" ry="4" fill="black" />
    <rect width="8" height="57.871656307194" x="180" y="46.064171846403" rx="4" ry="4" fill="black" />
    <rect width="8" height="60.661632864815076" x="196" y="44.66918356759246" rx="4" ry="4" fill="black" />
    <rect width="8" height="60.93378440568007" x="212" y="44.533107797159964" rx="4" ry="4" fill="black" />
    <rect width="8" height="32.43877697955975" x="228" y="58.780611510220126" rx="4" ry="4" fill="black" />
    <rect width="8" height="53.16924021942388" x="244" y="48.415379890288065" rx="4" ry="4" fill="black" />
    <rect width="8" height="57.543016241108155" x="260" y="46.228491879445926" rx="4" ry="4" fill="black" />
    <rect width="8" height="87.89315103678737" x="276" y="31.053424481606314" rx="4" ry="4" fill="black" />
    <rect width="8" height="20.367582533377632" x="292" y="64.81620873331119" rx="4" ry="4" fill="black" />
    <rect width="8" height="118.47877854291453" x="308" y="15.760610728542737" rx="4" ry="4" fill="black" />
    <rect width="8" height="126.76056298378808" x="324" y="11.619718508105962" rx="4" ry="4" fill="black" />
    <rect width="8" height="127.319401870754" x="340" y="11.340299064622997" rx="4" ry="4" fill="black" />
    <rect width="8" height="130.75916109088345" x="356" y="9.620419454558274" rx="4" ry="4" fill="black" />
    <rect width="8" height="128.37126677158867" x="372" y="10.814366614205667" rx="4" ry="4" fill="black" />
    <rect width="8" height="130.84743960939508" x="388" y="9.57628019530246" rx="4" ry="4" fill="black" />
    <rect width="8" height="130.68760791594372" x="404" y="9.656196042028142" rx="4" ry="4" fill="black" />
    <rect width="8" height="123.56775169730884" x="420" y="13.216124151345582" rx="4" ry="4" fill="black" />
    <rect width="8" height="139.04644112501902" x="436" y="5.476779437490492" rx="4" ry="4" fill="black" />
    <rect width="8" height="120.96674294438317" x="452" y="14.516628527808415" rx="4" ry="4" fill="black" />
    <rect width="8" height="106.71572039900816" x="468" y="21.64213980049592" rx="4" ry="4" fill="black" />
    <rect width="8" height="95.25635488748152" x="484" y="27.37182255625924" rx="4" ry="4" fill="black" />
    <rect width="8" height="92.02320373791328" x="500" y="28.98839813104336" rx="4" ry="4" fill="black" />
    <rect width="8" height="90.64857681967223" x="516" y="29.675711590163885" rx="4" ry="4" fill="black" />
    <rect width="8" height="90.69918036603423" x="532" y="29.650409816982886" rx="4" ry="4" fill="black" />
    <rect width="8" height="134.19935700566973" x="548" y="7.900321497165137" rx="4" ry="4" fill="black" />
    <rect width="8" height="92.16522471155056" x="564" y="28.917387644224718" rx="4" ry="4" fill="black" />
    <rect width="8" height="97.46779925041652" x="580" y="26.26610037479174" rx="4" ry="4" fill="black" />
    <rect width="8" height="121.4142267516728" x="596" y="14.2928866241636" rx="4" ry="4" fill="black" />
    <rect width="8" height="77.62037575078496" x="612" y="36.18981212460752" rx="4" ry="4" fill="black" />
    <rect width="8" height="123.86648138290293" x="628" y="13.066759308548534" rx="4" ry="4" fill="black" />
    <rect width="8" height="113.27742160419218" x="644" y="18.361289197903908" rx="4" ry="4" fill="black" />
    <rect width="8" height="116.36222441253584" x="660" y="16.81888779373208" rx="4" ry="4" fill="black" />
    <rect width="8" height="102.52274595712178" x="676" y="23.738627021439108" rx="4" ry="4" fill="black" />
    <rect width="8" height="105.00484483725248" x="692" y="22.49757758137376" rx="4" ry="4" fill="black" />
    <rect width="8" height="74.26793808628896" x="708" y="37.86603095685552" rx="4" ry="4" fill="black" />
    <rect width="8" height="117.97161196573131" x="724" y="16.014194017134344" rx="4" ry="4" fill="black" />
    <rect width="8" height="113.91148504011196" x="740" y="18.044257479944022" rx="4" ry="4" fill="black" />
    <rect width="8" height="67.83192154622155" x="756" y="41.084039226889224" rx="4" ry="4" fill="black" />
    <rect width="8" height="119.1983010820321" x="772" y="15.400849458983949" rx="4" ry="4" fill="black" />
    <rect width="8" height="120.3760969849228" x="788" y="14.811951507538602" rx="4" ry="4" fill="black" />
    <rect width="8" height="118.31068911010682" x="804" y="15.84465544494659" rx="4" ry="4" fill="black" />
    <rect width="8" height="118.31622782931468" x="820" y="15.841886085342658" rx="4" ry="4" fill="black" />
    <rect width="8" height="121.36305601913946" x="836" y="14.318471990430268" rx="4" ry="4" fill="black" />
    <rect width="8" height="134.23608671322395" x="852" y="7.881956643388023" rx="4" ry="4" fill="black" />
    <rect width="8" height="123.32427638394232" x="868" y="13.33786180802884" rx="4" ry="4" fill="black" />
    <rect width="8" height="132.00992224472023" x="884" y="8.995038877639885" rx="4" ry="4" fill="black" />
    <rect width="8" height="123.8688461350583" x="900" y="13.065576932470847" rx="4" ry="4" fill="black" />
    <rect width="8" height="129.57862046961603" x="916" y="10.210689765191987" rx="4" ry="4" fill="black" />
    <rect width="8" height="125.50148684728545" x="932" y="12.249256576357276" rx="4" ry="4" fill="black" />
    <rect width="8" height="129.28222619924404" x="948" y="10.358886900377982" rx="4" ry="4" fill="black" />
    <rect width="8" height="122.24919648364715" x="964" y="13.875401758176423" rx="4" ry="4" fill="black" />
    <rect width="8" height="135.4463043056435" x="980" y="7.276847847178246" rx="4" ry="4" fill="black" />
    <rect width="8" height="121.09901612197638" x="996" y="14.450491939011812" rx="4" ry="4" fill="black" />
    <rect width="8" height="126.94036885700493" x="1012" y="11.529815571497537" rx="4" ry="4" fill="black" />
    <rect width="8" height="134.1163746830489" x="1028" y="7.9418126584755555" rx="4" ry="4" fill="black" />
    <rect width="8" height="150" x="1044" y="0" rx="4" ry="4" fill="black" />
    <rect width="8" height="115.09277617351793" x="1060" y="17.453611913241033" rx="4" ry="4" fill="black" />
    <rect width="8" height="129.56297922445543" x="1076" y="10.218510387772284" rx="4" ry="4" fill="black" />
    <rect width="8" height="120.44610357832782" x="1092" y="14.776948210836089" rx="4" ry="4" fill="black" />
    <rect width="8" height="112.36083941373542" x="1108" y="18.81958029313229" rx="4" ry="4" fill="black" />
    <rect width="8" height="112.51893928999728" x="1124" y="18.74053035500136" rx="4" ry="4" fill="black" />
    <rect width="8" height="127.56067804641722" x="1140" y="11.219660976791388" rx="4" ry="4" fill="black" />
    <rect width="8" height="87.69779668926492" x="1156" y="31.15110165536754" rx="4" ry="4" fill="black" />
    <rect width="8" height="102.03243984139837" x="1172" y="23.983780079300814" rx="4" ry="4" fill="black" />
    <rect width="8" height="123.30776969327202" x="1188" y="13.34611515336399" rx="4" ry="4" fill="black" />
    <rect width="8" height="104.2230073243149" x="1204" y="22.888496337842547" rx="4" ry="4" fill="black" />
    <rect width="8" height="90.79203691239212" x="1220" y="29.60398154380394" rx="4" ry="4" fill="black" />
    <rect width="8" height="114.70455425763829" x="1236" y="17.647722871180854" rx="4" ry="4" fill="black" />
    <rect width="8" height="92.71737897584146" x="1252" y="28.641310512079272" rx="4" ry="4" fill="black" />
    <rect width="8" height="100.20442648733697" x="1268" y="24.897786756331513" rx="4" ry="4" fill="black" />
    <rect width="8" height="119.8120825222095" x="1284" y="15.093958738895253" rx="4" ry="4" fill="black" />
    <rect width="8" height="84.37252839891443" x="1300" y="32.81373580054279" rx="4" ry="4" fill="black" />
    <rect width="8" height="117.40943715884555" x="1316" y="16.295281420577226" rx="4" ry="4" fill="black" />
    <rect width="8" height="136.84473377568298" x="1332" y="6.577633112158509" rx="4" ry="4" fill="black" />
    <rect width="8" height="93.46759083982096" x="1348" y="28.26620458008952" rx="4" ry="4" fill="black" />
    <rect width="8" height="121.40607642855377" x="1364" y="14.296961785723113" rx="4" ry="4" fill="black" />
    <rect width="8" height="115.84311802196093" x="1380" y="17.078440989019533" rx="4" ry="4" fill="black" />
    <rect width="8" height="107.2021772686519" x="1396" y="21.398911365674053" rx="4" ry="4" fill="black" />
    <rect width="8" height="115.73730168833166" x="1412" y="17.131349155834172" rx="4" ry="4" fill="black" />
    <rect width="8" height="121.6287654686869" x="1428" y="14.185617265656553" rx="4" ry="4" fill="black" />
    <rect width="8" height="93.17386131173431" x="1444" y="28.413069344132843" rx="4" ry="4" fill="black" />
    <rect width="8" height="108.52338742889552" x="1460" y="20.73830628555224" rx="4" ry="4" fill="black" />
    <rect width="8" height="106.67060829116473" x="1476" y="21.664695854417637" rx="4" ry="4" fill="black" />
    <rect width="8" height="97.31317189129187" x="1492" y="26.343414054354064" rx="4" ry="4" fill="black" />
    <rect width="8" height="125.51736696474308" x="1508" y="12.241316517628462" rx="4" ry="4" fill="black" />
    <rect width="8" height="116.49856896591949" x="1524" y="16.750715517040256" rx="4" ry="4" fill="black" />
    <rect width="8" height="78.12743835997034" x="1540" y="35.93628082001483" rx="4" ry="4" fill="black" />
    <rect width="8" height="128.89818893748458" x="1556" y="10.550905531257712" rx="4" ry="4" fill="black" />
    <rect width="8" height="98.83108933266789" x="1572" y="25.584455333666057" rx="4" ry="4" fill="black" />
    <rect width="8" height="115.92297643042541" x="1588" y="17.038511784787296" rx="4" ry="4" fill="black" />
    <rect width="8" height="130.14938636993506" x="1604" y="9.92530681503247" rx="4" ry="4" fill="black" />
    <rect width="8" height="105.9372005987459" x="1620" y="22.03139970062705" rx="4" ry="4" fill="black" />
    <rect width="8" height="95.96110870085552" x="1636" y="27.01944564957224" rx="4" ry="4" fill="black" />
    <rect width="8" height="132.73319324669356" x="1652" y="8.63340337665322" rx="4" ry="4" fill="black" />
    <rect width="8" height="101.08665412295673" x="1668" y="24.456672938521635" rx="4" ry="4" fill="black" />
    <rect width="8" height="105.37928334891615" x="1684" y="22.310358325541927" rx="4" ry="4" fill="black" />
    <rect width="8" height="122.94093310839182" x="1700" y="13.529533445804091" rx="4" ry="4" fill="black" />
    <rect width="8" height="148.83969901540067" x="1716" y="0.5801504922996656" rx="4" ry="4" fill="black" />
    <rect width="8" height="123.68970287884738" x="1732" y="13.155148560576308" rx="4" ry="4" fill="black" />
    <rect width="8" height="129.93810201820443" x="1748" y="10.030948990897784" rx="4" ry="4" fill="black" />
    <rect width="8" height="122.49309705014583" x="1764" y="13.753451474927083" rx="4" ry="4" fill="black" />
    <rect width="8" height="136.29650840512394" x="1780" y="6.851745797438028" rx="4" ry="4" fill="black" />
    <rect width="8" height="138.4019613909258" x="1796" y="5.799019304537097" rx="4" ry="4" fill="black" />
    <rect width="8" height="127.39386625145721" x="1812" y="11.303066874271394" rx="4" ry="4" fill="black" />
    <rect width="8" height="129.44500456558552" x="1828" y="10.27749771720724" rx="4" ry="4" fill="black" />
    <rect width="8" height="126.77201848587764" x="1844" y="11.613990757061181" rx="4" ry="4" fill="black" />
    <rect width="8" height="131.10967134108424" x="1860" y="9.445164329457882" rx="4" ry="4" fill="black" />
    <rect width="8" height="123.60117965138357" x="1876" y="13.199410174308213" rx="4" ry="4" fill="black" />
    <rect width="8" height="131.50723943438655" x="1892" y="9.246380282806726" rx="4" ry="4" fill="black" />
    <rect width="8" height="131.47549408035482" x="1908" y="9.26225295982259" rx="4" ry="4" fill="black" />
    <rect width="8" height="139.22076219602434" x="1924" y="5.389618901987831" rx="4" ry="4" fill="black" />
    <rect width="8" height="123.5376038235052" x="1940" y="13.231198088247403" rx="4" ry="4" fill="black" />
    <rect width="8" height="135.91715727939686" x="1956" y="7.04142136030157" rx="4" ry="4" fill="black" />
    <rect width="8" height="137.72004418700067" x="1972" y="6.1399779064996665" rx="4" ry="4" fill="black" />
    <rect width="8" height="123.83448563809522" x="1988" y="13.082757180952392" rx="4" ry="4" fill="black" />
    <rect width="8" height="118.07615567448903" x="2004" y="15.961922162755485" rx="4" ry="4" fill="black" />
    <rect width="8" height="49.27122597877892" x="2020" y="50.36438701061054" rx="4" ry="4" fill="black" />
    <rect width="8" height="42.433544053224104" x="2036" y="53.78322797338795" rx="4" ry="4" fill="black" />
    <rect width="8" height="73.97184056805762" x="2052" y="38.01407971597119" rx="4" ry="4" fill="black" />
    <rect width="8" height="80.99107465586273" x="2068" y="34.504462672068634" rx="4" ry="4" fill="black" />
    <rect width="8" height="31.581891491111243" x="2084" y="59.20905425444438" rx="4" ry="4" fill="black" />
    <rect width="8" height="73.95969308582796" x="2100" y="38.02015345708602" rx="4" ry="4" fill="black" />
    <rect width="8" height="56.502921846479026" x="2116" y="46.74853907676049" rx="4" ry="4" fill="black" />
    <rect width="8" height="88.73825292413758" x="2132" y="30.63087353793121" rx="4" ry="4" fill="black" />
    <rect width="8" height="42.4948320975194" x="2148" y="53.7525839512403" rx="4" ry="4" fill="black" />
    <rect width="8" height="84.65921345359881" x="2164" y="32.670393273200595" rx="4" ry="4" fill="black" />
    <rect width="8" height="57.75887511444583" x="2180" y="46.120562442777086" rx="4" ry="4" fill="black" />
    <rect width="8" height="71.13358964608524" x="2196" y="39.43320517695738" rx="4" ry="4" fill="black" />
    <rect width="8" height="56.883014894831746" x="2212" y="46.55849255258413" rx="4" ry="4" fill="black" />
    <rect width="8" height="71.23906120832433" x="2228" y="39.380469395837835" rx="4" ry="4" fill="black" />
    <rect width="8" height="61.51142428771833" x="2244" y="44.244287856140836" rx="4" ry="4" fill="black" />
    <rect width="8" height="74.38645075554189" x="2260" y="37.80677462222906" rx="4" ry="4" fill="black" />
    <rect width="8" height="55.49692140802832" x="2276" y="47.251539295985836" rx="4" ry="4" fill="black" />
    <rect width="8" height="77.65145905812865" x="2292" y="36.174270470935674" rx="4" ry="4" fill="black" />
    <rect width="8" height="28.40819050480809" x="2308" y="60.795904747595955" rx="4" ry="4" fill="black" />
    <rect width="8" height="59.43600008442375" x="2324" y="45.28199995778812" rx="4" ry="4" fill="black" />
    <rect width="8" height="8" x="2340" y="71" rx="4" ry="4" fill="black" />
    <rect width="8" height="68.45888038065354" x="2356" y="40.77055980967323" rx="4" ry="4" fill="black" />
    <rect width="8" height="8" x="2372" y="71" rx="4" ry="4" fill="black" />
    <rect width="8" height="8" x="2388" y="71" rx="4" ry="4" fill="black" />
  </g>
</svg>