<svg 
  baseProfile="tiny"
  preserveAspectRatio="true"
  version="1.2"
  viewBox="0 0 2400 150"
  height="100%" width="100%"
  xmlns="http://www.w3.org/2000/svg"
  xmlns:ev="http://www.w3.org/2001/xml-events"
  xmlns:xlink="http://www.w3.org/1999/xlink"
>
  <g>
    <rect width="8" height="84.60447278351776" x="4" y="32.69776360824112" rx="4" ry="4" fill="black" />
    <rect width="8" height="101.96680511426098" x="20" y="24.01659744286951" rx="4" ry="4" fill="black" />
    <rect width="8" height="121.28539773753876" x="36" y="14.35730113123062" rx="4" ry="4" fill="black" />
    <rect width="8" height="84.47443709160979" x="52" y="32.76278145419511" rx="4" ry="4" fill="black" />
    <rect width="8" height="99.70432816052909" x="68" y="25.147835919735456" rx="4" ry="4" fill="black" />
    <rect width="8" height="109.14343901391982" x="84" y="20.42828049304009" rx="4" ry="4" fill="black" />
    <rect width="8" height="128.90644663231137" x="100" y="10.546776683844314" rx="4" ry="4" fill="black" />
    <rect width="8" height="115.85174716001951" x="116" y="17.074126419990243" rx="4" ry="4" fill="black" />
    <rect width="8" height="104.5354962180865" x="132" y="22.732251890956753" rx="4" ry="4" fill="black" />
    <rect width="8" height="103.53791073913536" x="148" y="23.231044630432322" rx="4" ry="4" fill="black" />
    <rect width="8" height="115.73456011086945" x="164" y="17.132719944565274" rx="4" ry="4" fill="black" />
    <rect width="8" height="99.07270502571335" x="180" y="25.463647487143326" rx="4" ry="4" fill="black" />
    <rect width="8" height="107.73534122019456" x="196" y="21.132329389902722" rx="4" ry="4" fill="black" />
    <rect width="8" height="109.03682424600959" x="212" y="20.481587876995206" rx="4" ry="4" fill="black" />
    <rect width="8" height="124.5730448272386" x="228" y="12.713477586380698" rx="4" ry="4" fill="black" />
    <rect width="8" height="127.48630841116456" x="244" y="11.256845794417721" rx="4" ry="4" fill="black" />
    <rect width="8" height="104.0038623414408" x="260" y="22.998068829279603" rx="4" ry="4" fill="black" />
    <rect width="8" height="54.166140328380386" x="276" y="47.91692983580981" rx="4" ry="4" fill="black" />
    <rect width="8" height="83.15631434267956" x="292" y="33.42184282866022" rx="4" ry="4" fill="black" />
    <rect width="8" height="79.02388734045896" x="308" y="35.48805632977052" rx="4" ry="4" fill="black" />
    <rect width="8" height="87.1700793864648" x="324" y="31.414960306767597" rx="4" ry="4" fill="black" />
    <rect width="8" height="83.36165935278979" x="340" y="33.31917032360511" rx="4" ry="4" fill="black" />
    <rect width="8" height="78.5778463181907" x="356" y="35.71107684090465" rx="4" ry="4" fill="black" />
    <rect width="8" height="76.98883041213564" x="372" y="36.50558479393218" rx="4" ry="4" fill="black" />
    <rect width="8" height="68.07560893723651" x="388" y="40.962195531381745" rx="4" ry="4" fill="black" />
    <rect width="8" height="86.30120477266716" x="404" y="31.84939761366642" rx="4" ry="4" fill="black" />
    <rect width="8" height="98.40893376846586" x="420" y="25.79553311576707" rx="4" ry="4" fill="black" />
    <rect width="8" height="128.02369656400992" x="436" y="10.988151717995038" rx="4" ry="4" fill="black" />
    <rect width="8" height="118.37030422336696" x="452" y="15.814847888316521" rx="4" ry="4" fill="black" />
    <rect width="8" height="136.5780797794594" x="468" y="6.710960110270307" rx="4" ry="4" fill="black" />
    <rect width="8" height="109.4018398471433" x="484" y="20.299080076428353" rx="4" ry="4" fill="black" />
    <rect width="8" height="113.93685932522624" x="500" y="18.03157033738688" rx="4" ry="4" fill="black" />
    <rect width="8" height="116.18483177551754" x="516" y="16.90758411224123" rx="4" ry="4" fill="black" />
    <rect width="8" height="124.49412460437962" x="532" y="12.75293769781019" rx="4" ry="4" fill="black" />
    <rect width="8" height="103.9357388908583" x="548" y="23.03213055457085" rx="4" ry="4" fill="black" />
    <rect width="8" height="122.33677286417087" x="564" y="13.831613567914566" rx="4" ry="4" fill="black" />
    <rect width="8" height="103.24793838228958" x="580" y="23.376030808855212" rx="4" ry="4" fill="black" />
    <rect width="8" height="125.4840301254602" x="596" y="12.257984937269903" rx="4" ry="4" fill="black" />
    <rect width="8" height="93.27518344664747" x="612" y="28.362408276676263" rx="4" ry="4" fill="black" />
    <rect width="8" height="110.18666124425529" x="628" y="19.906669377872355" rx="4" ry="4" fill="black" />
    <rect width="8" height="96.96097203214798" x="644" y="26.51951398392601" rx="4" ry="4" fill="black" />
    <rect width="8" height="109.93141097395542" x="660" y="20.03429451302229" rx="4" ry="4" fill="black" />
    <rect width="8" height="90.29508367444728" x="676" y="29.852458162776358" rx="4" ry="4" fill="black" />
    <rect width="8" height="113.85108128976972" x="692" y="18.07445935511514" rx="4" ry="4" fill="black" />
    <rect width="8" height="98.8112351632692" x="708" y="25.5943824183654" rx="4" ry="4" fill="black" />
    <rect width="8" height="109.32526577271759" x="724" y="20.337367113641207" rx="4" ry="4" fill="black" />
    <rect width="8" height="99.0918200819087" x="740" y="25.454089959045653" rx="4" ry="4" fill="black" />
    <rect width="8" height="105.05317677444626" x="756" y="22.47341161277687" rx="4" ry="4" fill="black" />
    <rect width="8" height="114.86967878858667" x="772" y="17.565160605706666" rx="4" ry="4" fill="black" />
    <rect width="8" height="109.82853596429236" x="788" y="20.08573201785382" rx="4" ry="4" fill="black" />
    <rect width="8" height="107.09356214669876" x="804" y="21.45321892665062" rx="4" ry="4" fill="black" />
    <rect width="8" height="117.64766037067051" x="820" y="16.176169814664746" rx="4" ry="4" fill="black" />
    <rect width="8" height="139.4252337050306" x="836" y="5.287383147484704" rx="4" ry="4" fill="black" />
    <rect width="8" height="105.79608164267464" x="852" y="22.101959178662682" rx="4" ry="4" fill="black" />
    <rect width="8" height="117.77838387158772" x="868" y="16.11080806420614" rx="4" ry="4" fill="black" />
    <rect width="8" height="108.87051871040966" x="884" y="20.564740644795172" rx="4" ry="4" fill="black" />
    <rect width="8" height="129.436495001345" x="900" y="10.281752499327496" rx="4" ry="4" fill="black" />
    <rect width="8" height="110.45156349750907" x="916" y="19.774218251245465" rx="4" ry="4" fill="black" />
    <rect width="8" height="121.51500801430353" x="932" y="14.242495992848234" rx="4" ry="4" fill="black" />
    <rect width="8" height="122.72931305904004" x="948" y="13.635343470479981" rx="4" ry="4" fill="black" />
    <rect width="8" height="138.40305633419888" x="964" y="5.79847183290056" rx="4" ry="4" fill="black" />
    <rect width="8" height="99.36137634034944" x="980" y="25.31931182982528" rx="4" ry="4" fill="black" />
    <rect width="8" height="125.20400852589454" x="996" y="12.397995737052732" rx="4" ry="4" fill="black" />
    <rect width="8" height="105.45166029269738" x="1012" y="22.27416985365131" rx="4" ry="4" fill="black" />
    <rect width="8" height="116.69632081678937" x="1028" y="16.651839591605317" rx="4" ry="4" fill="black" />
    <rect width="8" height="133.67515245017375" x="1044" y="8.162423774913123" rx="4" ry="4" fill="black" />
    <rect width="8" height="145.0362154300998" x="1060" y="2.4818922849501064" rx="4" ry="4" fill="black" />
    <rect width="8" height="139.54097125435607" x="1076" y="5.229514372821967" rx="4" ry="4" fill="black" />
    <rect width="8" height="132.6820536920561" x="1092" y="8.658973153971957" rx="4" ry="4" fill="black" />
    <rect width="8" height="111.33774915234412" x="1108" y="19.33112542382794" rx="4" ry="4" fill="black" />
    <rect width="8" height="119.21005442266683" x="1124" y="15.394972788666585" rx="4" ry="4" fill="black" />
    <rect width="8" height="128.00484045421976" x="1140" y="10.99757977289012" rx="4" ry="4" fill="black" />
    <rect width="8" height="146.17603925477445" x="1156" y="1.9119803726127742" rx="4" ry="4" fill="black" />
    <rect width="8" height="117.14318532458694" x="1172" y="16.42840733770653" rx="4" ry="4" fill="black" />
    <rect width="8" height="139.44935265890678" x="1188" y="5.275323670546612" rx="4" ry="4" fill="black" />
    <rect width="8" height="104.3680279069932" x="1204" y="22.815986046503397" rx="4" ry="4" fill="black" />
    <rect width="8" height="82.18177418367512" x="1220" y="33.90911290816244" rx="4" ry="4" fill="black" />
    <rect width="8" height="91.09332396353075" x="1236" y="29.453338018234625" rx="4" ry="4" fill="black" />
    <rect width="8" height="70.51677162012132" x="1252" y="39.74161418993934" rx="4" ry="4" fill="black" />
    <rect width="8" height="113.32967739189823" x="1268" y="18.335161304050885" rx="4" ry="4" fill="black" />
    <rect width="8" height="120.03096847430311" x="1284" y="14.984515762848446" rx="4" ry="4" fill="black" />
    <rect width="8" height="120.50357877953867" x="1300" y="14.748210610230664" rx="4" ry="4" fill="black" />
    <rect width="8" height="126.14301331971815" x="1316" y="11.928493340140925" rx="4" ry="4" fill="black" />
    <rect width="8" height="132.21745628587732" x="1332" y="8.89127185706134" rx="4" ry="4" fill="black" />
    <rect width="8" height="102.31745226731327" x="1348" y="23.841273866343364" rx="4" ry="4" fill="black" />
    <rect width="8" height="118.55639352924645" x="1364" y="15.721803235376775" rx="4" ry="4" fill="black" />
    <rect width="8" height="112.86557944918967" x="1380" y="18.567210275405166" rx="4" ry="4" fill="black" />
    <rect width="8" height="139.49852859635655" x="1396" y="5.250735701821725" rx="4" ry="4" fill="black" />
    <rect width="8" height="116.6260733019935" x="1412" y="16.68696334900325" rx="4" ry="4" fill="black" />
    <rect width="8" height="130.9558112365923" x="1428" y="9.522094381703852" rx="4" ry="4" fill="black" />
    <rect width="8" height="120.16545705731775" x="1444" y="14.917271471341124" rx="4" ry="4" fill="black" />
    <rect width="8" height="90.03991011936975" x="1460" y="29.980044940315125" rx="4" ry="4" fill="black" />
    <rect width="8" height="80.00218868882659" x="1476" y="34.998905655586704" rx="4" ry="4" fill="black" />
    <rect width="8" height="94.80799972093236" x="1492" y="27.59600013953382" rx="4" ry="4" fill="black" />
    <rect width="8" height="104.2209428609081" x="1508" y="22.889528569545952" rx="4" ry="4" fill="black" />
    <rect width="8" height="98.22524959900339" x="1524" y="25.887375200498305" rx="4" ry="4" fill="black" />
    <rect width="8" height="92.31972297247792" x="1540" y="28.84013851376104" rx="4" ry="4" fill="black" />
    <rect width="8" height="110.67311034052247" x="1556" y="19.663444829738765" rx="4" ry="4" fill="black" />
    <rect width="8" height="117.91330370732977" x="1572" y="16.043348146335113" rx="4" ry="4" fill="black" />
    <rect width="8" height="121.50555779339149" x="1588" y="14.247221103304256" rx="4" ry="4" fill="black" />
    <rect width="8" height="114.5651376318998" x="1604" y="17.7174311840501" rx="4" ry="4" fill="black" />
    <rect width="8" height="122.56527986121002" x="1620" y="13.717360069394992" rx="4" ry="4" fill="black" />
    <rect width="8" height="149.4675485427951" x="1636" y="0.26622572860244986" rx="4" ry="4" fill="black" />
    <rect width="8" height="116.01640334803443" x="1652" y="16.991798325982785" rx="4" ry="4" fill="black" />
    <rect width="8" height="136.28928255293798" x="1668" y="6.855358723531012" rx="4" ry="4" fill="black" />
    <rect width="8" height="120.30677738678196" x="1684" y="14.84661130660902" rx="4" ry="4" fill="black" />
    <rect width="8" height="130.21280703863266" x="1700" y="9.89359648068367" rx="4" ry="4" fill="black" />
    <rect width="8" height="127.16378551550542" x="1716" y="11.418107242247288" rx="4" ry="4" fill="black" />
    <rect width="8" height="119.71762132944104" x="1732" y="15.141189335279478" rx="4" ry="4" fill="black" />
    <rect width="8" height="110.35654677557274" x="1748" y="19.82172661221363" rx="4" ry="4" fill="black" />
    <rect width="8" height="150" x="1764" y="0" rx="4" ry="4" fill="black" />
    <rect width="8" height="115.85495668296764" x="1780" y="17.07252165851618" rx="4" ry="4" fill="black" />
    <rect width="8" height="93.85426094508915" x="1796" y="28.072869527455424" rx="4" ry="4" fill="black" />
    <rect width="8" height="143.6846950746948" x="1812" y="3.1576524626526066" rx="4" ry="4" fill="black" />
    <rect width="8" height="116.12276448072856" x="1828" y="16.93861775963572" rx="4" ry="4" fill="black" />
    <rect width="8" height="92.75350212190033" x="1844" y="28.623248939049837" rx="4" ry="4" fill="black" />
    <rect width="8" height="96.78865268672338" x="1860" y="26.60567365663831" rx="4" ry="4" fill="black" />
    <rect width="8" height="88.08677798703975" x="1876" y="30.956611006480124" rx="4" ry="4" fill="black" />
    <rect width="8" height="88.90527359504917" x="1892" y="30.547363202475417" rx="4" ry="4" fill="black" />
    <rect width="8" height="81.91934684707297" x="1908" y="34.040326576463514" rx="4" ry="4" fill="black" />
    <rect width="8" height="79.13097486029847" x="1924" y="35.43451256985077" rx="4" ry="4" fill="black" />
    <rect width="8" height="116.36674759085741" x="1940" y="16.816626204571293" rx="4" ry="4" fill="black" />
    <rect width="8" height="74.03843743113106" x="1956" y="37.98078128443447" rx="4" ry="4" fill="black" />
    <rect width="8" height="96.75114743953777" x="1972" y="26.624426280231113" rx="4" ry="4" fill="black" />
    <rect width="8" height="86.81537232602427" x="1988" y="31.592313836987863" rx="4" ry="4" fill="black" />
    <rect width="8" height="74.08375548762221" x="2004" y="37.958122256188894" rx="4" ry="4" fill="black" />
    <rect width="8" height="94.95542596574865" x="2020" y="27.522287017125677" rx="4" ry="4" fill="black" />
    <rect width="8" height="80.69624382101838" x="2036" y="34.65187808949081" rx="4" ry="4" fill="black" />
    <rect width="8" height="75.56090073132857" x="2052" y="37.21954963433571" rx="4" ry="4" fill="black" />
    <rect width="8" height="94.90027101182078" x="2068" y="27.54986449408961" rx="4" ry="4" fill="black" />
    <rect width="8" height="80.46976452832972" x="2084" y="34.76511773583514" rx="4" ry="4" fill="black" />
    <rect width="8" height="77.8778063987083" x="2100" y="36.06109680064585" rx="4" ry="4" fill="black" />
    <rect width="8" height="82.96345302666988" x="2116" y="33.51827348666506" rx="4" ry="4" fill="black" />
    <rect width="8" height="75.43420293353464" x="2132" y="37.28289853323268" rx="4" ry="4" fill="black" />
    <rect width="8" height="97.39077594705671" x="2148" y="26.304612026471645" rx="4" ry="4" fill="black" />
    <rect width="8" height="82.60332089491017" x="2164" y="33.698339552544915" rx="4" ry="4" fill="black" />
    <rect width="8" height="72.66951416039159" x="2180" y="38.66524291980421" rx="4" ry="4" fill="black" />
    <rect width="8" height="86.16529002657555" x="2196" y="31.917354986712226" rx="4" ry="4" fill="black" />
    <rect width="8" height="78.5330411908578" x="2212" y="35.7334794045711" rx="4" ry="4" fill="black" />
    <rect width="8" height="80.96852221780746" x="2228" y="34.51573889109627" rx="4" ry="4" fill="black" />
    <rect width="8" height="93.43129456613799" x="2244" y="28.284352716931004" rx="4" ry="4" fill="black" />
    <rect width="8" height="79.75619813852096" x="2260" y="35.12190093073952" rx="4" ry="4" fill="black" />
    <rect width="8" height="88.27951142264162" x="2276" y="30.86024428867919" rx="4" ry="4" fill="black" />
    <rect width="8" height="85.32925316138308" x="2292" y="32.33537341930846" rx="4" ry="4" fill="black" />
    <rect width="8" height="74.76875299082722" x="2308" y="37.61562350458639" rx="4" ry="4" fill="black" />
    <rect width="8" height="94.91267016647801" x="2324" y="27.543664916760996" rx="4" ry="4" fill="black" />
    <rect width="8" height="94.00029295654551" x="2340" y="27.999853521727246" rx="4" ry="4" fill="black" />
    <rect width="8" height="89.24184942045278" x="2356" y="30.37907528977361" rx="4" ry="4" fill="black" />
    <rect width="8" height="114.16314906365737" x="2372" y="17.918425468171314" rx="4" ry="4" fill="black" />
    <rect width="8" height="8" x="2388" y="71" rx="4" ry="4" fill="black" />
  </g>
</svg>