<svg 
  baseProfile="tiny"
  preserveAspectRatio="keep"
  version="1.2"
  viewBox="0 0 2400 150"
  height="100%" width="100%"
  xmlns="http://www.w3.org/2000/svg"
  xmlns:ev="http://www.w3.org/2001/xml-events"
  xmlns:xlink="http://www.w3.org/1999/xlink"
>
  <g>
    <rect width="8" height="49.72023946005856" x="4" y="50.13988026997072" rx="4" ry="4" fill="black" />
    <rect width="8" height="46.03787441347128" x="20" y="51.98106279326436" rx="4" ry="4" fill="black" />
    <rect width="8" height="58.78831020840058" x="36" y="45.605844895799706" rx="4" ry="4" fill="black" />
    <rect width="8" height="53.9138747691694" x="52" y="48.0430626154153" rx="4" ry="4" fill="black" />
    <rect width="8" height="54.17097391692194" x="68" y="47.91451304153903" rx="4" ry="4" fill="black" />
    <rect width="8" height="16.360807942882722" x="84" y="66.81959602855864" rx="4" ry="4" fill="black" />
    <rect width="8" height="45.009314542133986" x="100" y="52.49534272893301" rx="4" ry="4" fill="black" />
    <rect width="8" height="114.05422021220039" x="116" y="17.972889893899804" rx="4" ry="4" fill="black" />
    <rect width="8" height="120.36337742484952" x="132" y="14.818311287575241" rx="4" ry="4" fill="black" />
    <rect width="8" height="117.98738412692025" x="148" y="16.006307936539876" rx="4" ry="4" fill="black" />
    <rect width="8" height="124.53245074097941" x="164" y="12.733774629510293" rx="4" ry="4" fill="black" />
    <rect width="8" height="124.15544334100149" x="180" y="12.922278329499257" rx="4" ry="4" fill="black" />
    <rect width="8" height="126.51351711194681" x="196" y="11.743241444026594" rx="4" ry="4" fill="black" />
    <rect width="8" height="132.1476132112257" x="212" y="8.926193394387155" rx="4" ry="4" fill="black" />
    <rect width="8" height="129.21155448030257" x="228" y="10.394222759848716" rx="4" ry="4" fill="black" />
    <rect width="8" height="126.3871236046895" x="244" y="11.806438197655247" rx="4" ry="4" fill="black" />
    <rect width="8" height="135.14374377910758" x="260" y="7.42812811044621" rx="4" ry="4" fill="black" />
    <rect width="8" height="131.1466902413867" x="276" y="9.426654879306653" rx="4" ry="4" fill="black" />
    <rect width="8" height="139.34438352510705" x="292" y="5.327808237446476" rx="4" ry="4" fill="black" />
    <rect width="8" height="131.51159458885405" x="308" y="9.244202705572974" rx="4" ry="4" fill="black" />
    <rect width="8" height="134.58606963389707" x="324" y="7.706965183051466" rx="4" ry="4" fill="black" />
    <rect width="8" height="129.93246909155454" x="340" y="10.033765454222731" rx="4" ry="4" fill="black" />
    <rect width="8" height="129.9264677229499" x="356" y="10.036766138525053" rx="4" ry="4" fill="black" />
    <rect width="8" height="128.90198259960053" x="372" y="10.549008700199735" rx="4" ry="4" fill="black" />
    <rect width="8" height="127.3874129095562" x="388" y="11.306293545221898" rx="4" ry="4" fill="black" />
    <rect width="8" height="123.16381372652125" x="404" y="13.418093136739373" rx="4" ry="4" fill="black" />
    <rect width="8" height="124.54425493609968" x="420" y="12.727872531950162" rx="4" ry="4" fill="black" />
    <rect width="8" height="122.90216397517946" x="436" y="13.548918012410269" rx="4" ry="4" fill="black" />
    <rect width="8" height="116.18709944370433" x="452" y="16.906450278147837" rx="4" ry="4" fill="black" />
    <rect width="8" height="120.3635059265235" x="468" y="14.81824703673825" rx="4" ry="4" fill="black" />
    <rect width="8" height="113.11567553117305" x="484" y="18.442162234413473" rx="4" ry="4" fill="black" />
    <rect width="8" height="109.60949759286788" x="500" y="20.19525120356606" rx="4" ry="4" fill="black" />
    <rect width="8" height="116.95361300501087" x="516" y="16.523193497494567" rx="4" ry="4" fill="black" />
    <rect width="8" height="101.2399140459576" x="532" y="24.380042977021198" rx="4" ry="4" fill="black" />
    <rect width="8" height="107.87954895696156" x="548" y="21.06022552151922" rx="4" ry="4" fill="black" />
    <rect width="8" height="108.68570389117505" x="564" y="20.657148054412474" rx="4" ry="4" fill="black" />
    <rect width="8" height="105.94783685767861" x="580" y="22.026081571160695" rx="4" ry="4" fill="black" />
    <rect width="8" height="114.78888453694664" x="596" y="17.60555773152668" rx="4" ry="4" fill="black" />
    <rect width="8" height="104.8726844266559" x="612" y="22.563657786672053" rx="4" ry="4" fill="black" />
    <rect width="8" height="105.22712485856042" x="628" y="22.386437570719792" rx="4" ry="4" fill="black" />
    <rect width="8" height="118.0090081562015" x="644" y="15.995495921899249" rx="4" ry="4" fill="black" />
    <rect width="8" height="66.15207991726759" x="660" y="41.92396004136621" rx="4" ry="4" fill="black" />
    <rect width="8" height="117.3343439848866" x="676" y="16.3328280075567" rx="4" ry="4" fill="black" />
    <rect width="8" height="103.61479135837003" x="692" y="23.192604320814986" rx="4" ry="4" fill="black" />
    <rect width="8" height="89.56718931361" x="708" y="30.216405343195" rx="4" ry="4" fill="black" />
    <rect width="8" height="67.19751907439716" x="724" y="41.40124046280142" rx="4" ry="4" fill="black" />
    <rect width="8" height="63.266774469922616" x="740" y="43.366612765038695" rx="4" ry="4" fill="black" />
    <rect width="8" height="54.5691533717931" x="756" y="47.71542331410345" rx="4" ry="4" fill="black" />
    <rect width="8" height="89.79776885149846" x="772" y="30.10111557425077" rx="4" ry="4" fill="black" />
    <rect width="8" height="56.50016809074368" x="788" y="46.749915954628165" rx="4" ry="4" fill="black" />
    <rect width="8" height="61.20463141451924" x="804" y="44.39768429274038" rx="4" ry="4" fill="black" />
    <rect width="8" height="61.33076478332948" x="820" y="44.334617608335265" rx="4" ry="4" fill="black" />
    <rect width="8" height="64.58356230753823" x="836" y="42.708218846230885" rx="4" ry="4" fill="black" />
    <rect width="8" height="57.41106855776455" x="852" y="46.294465721117724" rx="4" ry="4" fill="black" />
    <rect width="8" height="134.43975585425974" x="868" y="7.780122072870128" rx="4" ry="4" fill="black" />
    <rect width="8" height="110.77663648293752" x="884" y="19.61168175853124" rx="4" ry="4" fill="black" />
    <rect width="8" height="121.57014259075355" x="900" y="14.214928704623226" rx="4" ry="4" fill="black" />
    <rect width="8" height="118.69731464213035" x="916" y="15.651342678934824" rx="4" ry="4" fill="black" />
    <rect width="8" height="129.6392359746523" x="932" y="10.180382012673846" rx="4" ry="4" fill="black" />
    <rect width="8" height="114.9135297437944" x="948" y="17.5432351281028" rx="4" ry="4" fill="black" />
    <rect width="8" height="116.26119936430509" x="964" y="16.869400317847457" rx="4" ry="4" fill="black" />
    <rect width="8" height="118.01842623682035" x="980" y="15.990786881589827" rx="4" ry="4" fill="black" />
    <rect width="8" height="118.40169849853078" x="996" y="15.799150750734611" rx="4" ry="4" fill="black" />
    <rect width="8" height="117.35805934762706" x="1012" y="16.32097032618647" rx="4" ry="4" fill="black" />
    <rect width="8" height="129.50628895072538" x="1028" y="10.246855524637311" rx="4" ry="4" fill="black" />
    <rect width="8" height="115.55570528601476" x="1044" y="17.222147356992622" rx="4" ry="4" fill="black" />
    <rect width="8" height="121.3641712665062" x="1060" y="14.317914366746898" rx="4" ry="4" fill="black" />
    <rect width="8" height="85.96706657277439" x="1076" y="32.01646671361281" rx="4" ry="4" fill="black" />
    <rect width="8" height="88.8195645246013" x="1092" y="30.590217737699348" rx="4" ry="4" fill="black" />
    <rect width="8" height="63.98623461583628" x="1108" y="43.00688269208186" rx="4" ry="4" fill="black" />
    <rect width="8" height="69.19414433443603" x="1124" y="40.402927832781984" rx="4" ry="4" fill="black" />
    <rect width="8" height="63.5491706558087" x="1140" y="43.22541467209565" rx="4" ry="4" fill="black" />
    <rect width="8" height="60.62770355447279" x="1156" y="44.686148222763606" rx="4" ry="4" fill="black" />
    <rect width="8" height="75.69462287578412" x="1172" y="37.15268856210794" rx="4" ry="4" fill="black" />
    <rect width="8" height="80.29256572279938" x="1188" y="34.85371713860031" rx="4" ry="4" fill="black" />
    <rect width="8" height="62.20189198485132" x="1204" y="43.899054007574335" rx="4" ry="4" fill="black" />
    <rect width="8" height="60.40640229844569" x="1220" y="44.79679885077715" rx="4" ry="4" fill="black" />
    <rect width="8" height="54.51291290802557" x="1236" y="47.743543545987215" rx="4" ry="4" fill="black" />
    <rect width="8" height="58.768914528797644" x="1252" y="45.61554273560118" rx="4" ry="4" fill="black" />
    <rect width="8" height="80.20969914590852" x="1268" y="34.89515042704574" rx="4" ry="4" fill="black" />
    <rect width="8" height="139.3215723387" x="1284" y="5.339213830649996" rx="4" ry="4" fill="black" />
    <rect width="8" height="116.79125921032988" x="1300" y="16.60437039483506" rx="4" ry="4" fill="black" />
    <rect width="8" height="125.34513654730452" x="1316" y="12.32743172634774" rx="4" ry="4" fill="black" />
    <rect width="8" height="123.6824843386031" x="1332" y="13.158757830698448" rx="4" ry="4" fill="black" />
    <rect width="8" height="123.79450248144265" x="1348" y="13.102748759278676" rx="4" ry="4" fill="black" />
    <rect width="8" height="137.10742210231078" x="1364" y="6.446288948844611" rx="4" ry="4" fill="black" />
    <rect width="8" height="125.65013867114266" x="1380" y="12.174930664428672" rx="4" ry="4" fill="black" />
    <rect width="8" height="129.8771637006009" x="1396" y="10.061418149699549" rx="4" ry="4" fill="black" />
    <rect width="8" height="131.55076348442705" x="1412" y="9.224618257786474" rx="4" ry="4" fill="black" />
    <rect width="8" height="144.39955041588527" x="1428" y="2.8002247920573637" rx="4" ry="4" fill="black" />
    <rect width="8" height="139.89563321746292" x="1444" y="5.052183391268542" rx="4" ry="4" fill="black" />
    <rect width="8" height="134.15045383314327" x="1460" y="7.924773083428363" rx="4" ry="4" fill="black" />
    <rect width="8" height="106.6091283092255" x="1476" y="21.69543584538725" rx="4" ry="4" fill="black" />
    <rect width="8" height="78.99338312045808" x="1492" y="35.50330843977096" rx="4" ry="4" fill="black" />
    <rect width="8" height="150" x="1508" y="0" rx="4" ry="4" fill="black" />
    <rect width="8" height="71.3555361327396" x="1524" y="39.3222319336302" rx="4" ry="4" fill="black" />
    <rect width="8" height="95.32903404309266" x="1540" y="27.33548297845367" rx="4" ry="4" fill="black" />
    <rect width="8" height="74.80256778531836" x="1556" y="37.59871610734082" rx="4" ry="4" fill="black" />
    <rect width="8" height="51.22148205771683" x="1572" y="49.38925897114159" rx="4" ry="4" fill="black" />
    <rect width="8" height="126.73005536314265" x="1588" y="11.634972318428673" rx="4" ry="4" fill="black" />
    <rect width="8" height="123.05921648703307" x="1604" y="13.470391756483465" rx="4" ry="4" fill="black" />
    <rect width="8" height="119.70965558958514" x="1620" y="15.14517220520743" rx="4" ry="4" fill="black" />
    <rect width="8" height="114.08514327173309" x="1636" y="17.957428364133456" rx="4" ry="4" fill="black" />
    <rect width="8" height="113.46079474590269" x="1652" y="18.269602627048656" rx="4" ry="4" fill="black" />
    <rect width="8" height="120.44725092442962" x="1668" y="14.776374537785188" rx="4" ry="4" fill="black" />
    <rect width="8" height="93.8669023977015" x="1684" y="28.066548801149253" rx="4" ry="4" fill="black" />
    <rect width="8" height="109.75973202430343" x="1700" y="20.120133987848284" rx="4" ry="4" fill="black" />
    <rect width="8" height="110.07368756584214" x="1716" y="19.963156217078932" rx="4" ry="4" fill="black" />
    <rect width="8" height="112.31762288649087" x="1732" y="18.841188556754567" rx="4" ry="4" fill="black" />
    <rect width="8" height="107.2600445150395" x="1748" y="21.369977742480252" rx="4" ry="4" fill="black" />
    <rect width="8" height="108.78270087127595" x="1764" y="20.608649564362025" rx="4" ry="4" fill="black" />
    <rect width="8" height="103.89651148973238" x="1780" y="23.051744255133812" rx="4" ry="4" fill="black" />
    <rect width="8" height="128.85639873686154" x="1796" y="10.571800631569232" rx="4" ry="4" fill="black" />
    <rect width="8" height="108.89054755908208" x="1812" y="20.55472622045896" rx="4" ry="4" fill="black" />
    <rect width="8" height="111.71062550763584" x="1828" y="19.14468724618208" rx="4" ry="4" fill="black" />
    <rect width="8" height="115.95441864666486" x="1844" y="17.02279067666757" rx="4" ry="4" fill="black" />
    <rect width="8" height="116.23096901458543" x="1860" y="16.884515492707287" rx="4" ry="4" fill="black" />
    <rect width="8" height="114.0657903529433" x="1876" y="17.967104823528352" rx="4" ry="4" fill="black" />
    <rect width="8" height="118.2608002576998" x="1892" y="15.8695998711501" rx="4" ry="4" fill="black" />
    <rect width="8" height="109.80480637148494" x="1908" y="20.09759681425753" rx="4" ry="4" fill="black" />
    <rect width="8" height="146.42911626709343" x="1924" y="1.785441866453283" rx="4" ry="4" fill="black" />
    <rect width="8" height="117.1391730717329" x="1940" y="16.43041346413355" rx="4" ry="4" fill="black" />
    <rect width="8" height="108.80494697710172" x="1956" y="20.59752651144914" rx="4" ry="4" fill="black" />
    <rect width="8" height="121.63125561886434" x="1972" y="14.184372190567828" rx="4" ry="4" fill="black" />
    <rect width="8" height="112.77872405856664" x="1988" y="18.61063797071668" rx="4" ry="4" fill="black" />
    <rect width="8" height="113.13572551485261" x="2004" y="18.432137242573695" rx="4" ry="4" fill="black" />
    <rect width="8" height="112.29926091437457" x="2020" y="18.850369542812714" rx="4" ry="4" fill="black" />
    <rect width="8" height="116.8716057610826" x="2036" y="16.564197119458697" rx="4" ry="4" fill="black" />
    <rect width="8" height="123.34197754418709" x="2052" y="13.329011227906456" rx="4" ry="4" fill="black" />
    <rect width="8" height="114.44998917596402" x="2068" y="17.77500541201799" rx="4" ry="4" fill="black" />
    <rect width="8" height="118.4278138192516" x="2084" y="15.786093090374202" rx="4" ry="4" fill="black" />
    <rect width="8" height="120.55980019780509" x="2100" y="14.720099901097456" rx="4" ry="4" fill="black" />
    <rect width="8" height="119.30321876441724" x="2116" y="15.348390617791381" rx="4" ry="4" fill="black" />
    <rect width="8" height="112.42249623442888" x="2132" y="18.78875188278556" rx="4" ry="4" fill="black" />
    <rect width="8" height="112.69226862528707" x="2148" y="18.653865687356465" rx="4" ry="4" fill="black" />
    <rect width="8" height="114.86330597589325" x="2164" y="17.568347012053373" rx="4" ry="4" fill="black" />
    <rect width="8" height="116.20442386557653" x="2180" y="16.897788067211735" rx="4" ry="4" fill="black" />
    <rect width="8" height="80.45914393925212" x="2196" y="34.77042803037394" rx="4" ry="4" fill="black" />
    <rect width="8" height="51.74449054417595" x="2212" y="49.12775472791202" rx="4" ry="4" fill="black" />
    <rect width="8" height="44.5679115282677" x="2228" y="52.71604423586615" rx="4" ry="4" fill="black" />
    <rect width="8" height="54.17359864208454" x="2244" y="47.91320067895773" rx="4" ry="4" fill="black" />
    <rect width="8" height="45.322899366907606" x="2260" y="52.3385503165462" rx="4" ry="4" fill="black" />
    <rect width="8" height="55.03794469448225" x="2276" y="47.481027652758875" rx="4" ry="4" fill="black" />
    <rect width="8" height="46.920673784623325" x="2292" y="51.53966310768834" rx="4" ry="4" fill="black" />
    <rect width="8" height="75.79648100412636" x="2308" y="37.10175949793682" rx="4" ry="4" fill="black" />
    <rect width="8" height="45.144623500835465" x="2324" y="52.42768824958227" rx="4" ry="4" fill="black" />
    <rect width="8" height="55.12693472005906" x="2340" y="47.436532639970466" rx="4" ry="4" fill="black" />
    <rect width="8" height="28.50703385342039" x="2356" y="60.74648307328981" rx="4" ry="4" fill="black" />
    <rect width="8" height="18.592617132247703" x="2372" y="65.70369143387614" rx="4" ry="4" fill="black" />
    <rect width="8" height="8" x="2388" y="71" rx="4" ry="4" fill="black" />
  </g>
</svg>