<svg 
  baseProfile="tiny"
  preserveAspectRatio="true"
  version="1.2"
  viewBox="0 0 2400 150"
  height="100%" width="100%"
  xmlns="http://www.w3.org/2000/svg"
  xmlns:ev="http://www.w3.org/2001/xml-events"
  xmlns:xlink="http://www.w3.org/1999/xlink"
>
  <g>
    <rect width="8" height="38.9924609212341" x="4" y="55.50376953938295" rx="4" ry="4" fill="black" />
    <rect width="8" height="33.28799141624675" x="20" y="58.35600429187663" rx="4" ry="4" fill="black" />
    <rect width="8" height="24.812621807202518" x="36" y="62.59368909639874" rx="4" ry="4" fill="black" />
    <rect width="8" height="45.108285786193626" x="52" y="52.44585710690319" rx="4" ry="4" fill="black" />
    <rect width="8" height="36.26301336874092" x="68" y="56.868493315629536" rx="4" ry="4" fill="black" />
    <rect width="8" height="19.747331763108694" x="84" y="65.12633411844566" rx="4" ry="4" fill="black" />
    <rect width="8" height="38.439679574420246" x="100" y="55.78016021278988" rx="4" ry="4" fill="black" />
    <rect width="8" height="36.52984417731114" x="116" y="56.73507791134443" rx="4" ry="4" fill="black" />
    <rect width="8" height="34.21303911892144" x="132" y="57.89348044053928" rx="4" ry="4" fill="black" />
    <rect width="8" height="49.331332825424255" x="148" y="50.33433358728787" rx="4" ry="4" fill="black" />
    <rect width="8" height="76.12141218001932" x="164" y="36.93929390999034" rx="4" ry="4" fill="black" />
    <rect width="8" height="74.53710437977189" x="180" y="37.731447810114055" rx="4" ry="4" fill="black" />
    <rect width="8" height="57.866255656875815" x="196" y="46.066872171562096" rx="4" ry="4" fill="black" />
    <rect width="8" height="98.18520211050298" x="212" y="25.907398944748508" rx="4" ry="4" fill="black" />
    <rect width="8" height="64.81582710087757" x="228" y="42.592086449561215" rx="4" ry="4" fill="black" />
    <rect width="8" height="67.10131896937513" x="244" y="41.449340515312436" rx="4" ry="4" fill="black" />
    <rect width="8" height="79.06958374169645" x="260" y="35.465208129151776" rx="4" ry="4" fill="black" />
    <rect width="8" height="115.5172540696988" x="276" y="17.241372965150603" rx="4" ry="4" fill="black" />
    <rect width="8" height="78.39609051639883" x="292" y="35.801954741800586" rx="4" ry="4" fill="black" />
    <rect width="8" height="65.7891217873563" x="308" y="42.10543910632185" rx="4" ry="4" fill="black" />
    <rect width="8" height="55.74283624171652" x="324" y="47.12858187914174" rx="4" ry="4" fill="black" />
    <rect width="8" height="69.86171908587268" x="340" y="40.06914045706366" rx="4" ry="4" fill="black" />
    <rect width="8" height="103.258370430185" x="356" y="23.370814784907502" rx="4" ry="4" fill="black" />
    <rect width="8" height="105.91101172012898" x="372" y="22.04449413993551" rx="4" ry="4" fill="black" />
    <rect width="8" height="90.67155891153685" x="388" y="29.664220544231576" rx="4" ry="4" fill="black" />
    <rect width="8" height="126.43397395828684" x="404" y="11.783013020856579" rx="4" ry="4" fill="black" />
    <rect width="8" height="102.76841866920056" x="420" y="23.61579066539972" rx="4" ry="4" fill="black" />
    <rect width="8" height="149.0184758497488" x="436" y="0.4907620751256019" rx="4" ry="4" fill="black" />
    <rect width="8" height="100.93378307986018" x="452" y="24.53310846006991" rx="4" ry="4" fill="black" />
    <rect width="8" height="132.0810339430742" x="468" y="8.959483028462898" rx="4" ry="4" fill="black" />
    <rect width="8" height="116.58065257717158" x="484" y="16.70967371141421" rx="4" ry="4" fill="black" />
    <rect width="8" height="144.13690497324814" x="500" y="2.931547513375932" rx="4" ry="4" fill="black" />
    <rect width="8" height="110.88852947362493" x="516" y="19.555735263187536" rx="4" ry="4" fill="black" />
    <rect width="8" height="98.22260160945244" x="532" y="25.88869919527378" rx="4" ry="4" fill="black" />
    <rect width="8" height="98.04146491264689" x="548" y="25.979267543676556" rx="4" ry="4" fill="black" />
    <rect width="8" height="94.48966658027774" x="564" y="27.75516670986113" rx="4" ry="4" fill="black" />
    <rect width="8" height="111.64432641855622" x="580" y="19.17783679072189" rx="4" ry="4" fill="black" />
    <rect width="8" height="111.59814613772802" x="596" y="19.20092693113599" rx="4" ry="4" fill="black" />
    <rect width="8" height="82.65133564983937" x="612" y="33.674332175080316" rx="4" ry="4" fill="black" />
    <rect width="8" height="76.90442278263806" x="628" y="36.54778860868097" rx="4" ry="4" fill="black" />
    <rect width="8" height="109.0792210306615" x="644" y="20.46038948466925" rx="4" ry="4" fill="black" />
    <rect width="8" height="101.99152353156408" x="660" y="24.004238234217958" rx="4" ry="4" fill="black" />
    <rect width="8" height="135.87827347498623" x="676" y="7.060863262506885" rx="4" ry="4" fill="black" />
    <rect width="8" height="73.99744249003834" x="692" y="38.00127875498083" rx="4" ry="4" fill="black" />
    <rect width="8" height="59.867085230221356" x="708" y="45.06645738488932" rx="4" ry="4" fill="black" />
    <rect width="8" height="47.34283543736846" x="724" y="51.328582281315775" rx="4" ry="4" fill="black" />
    <rect width="8" height="74.2215063634024" x="740" y="37.8892468182988" rx="4" ry="4" fill="black" />
    <rect width="8" height="74.72809219062665" x="756" y="37.63595390468667" rx="4" ry="4" fill="black" />
    <rect width="8" height="116.14048348058309" x="772" y="16.929758259708457" rx="4" ry="4" fill="black" />
    <rect width="8" height="123.56269288620352" x="788" y="13.21865355689824" rx="4" ry="4" fill="black" />
    <rect width="8" height="103.70577174044189" x="804" y="23.147114129779055" rx="4" ry="4" fill="black" />
    <rect width="8" height="120.17319428599514" x="820" y="14.913402857002431" rx="4" ry="4" fill="black" />
    <rect width="8" height="93.1655445393195" x="836" y="28.41722773034025" rx="4" ry="4" fill="black" />
    <rect width="8" height="136.92595575129172" x="852" y="6.537022124354138" rx="4" ry="4" fill="black" />
    <rect width="8" height="93.80796578659628" x="868" y="28.096017106701858" rx="4" ry="4" fill="black" />
    <rect width="8" height="103.42311372366255" x="884" y="23.288443138168724" rx="4" ry="4" fill="black" />
    <rect width="8" height="107.51280766539949" x="900" y="21.243596167300254" rx="4" ry="4" fill="black" />
    <rect width="8" height="111.87058669310495" x="916" y="19.064706653447523" rx="4" ry="4" fill="black" />
    <rect width="8" height="90.1761373484137" x="932" y="29.911931325793148" rx="4" ry="4" fill="black" />
    <rect width="8" height="128.31062805659462" x="948" y="10.844685971702688" rx="4" ry="4" fill="black" />
    <rect width="8" height="108.05076342040987" x="964" y="20.974618289795067" rx="4" ry="4" fill="black" />
    <rect width="8" height="116.53049616359193" x="980" y="16.734751918204033" rx="4" ry="4" fill="black" />
    <rect width="8" height="132.3253619299645" x="996" y="8.837319035017757" rx="4" ry="4" fill="black" />
    <rect width="8" height="103.78258097299215" x="1012" y="23.108709513503925" rx="4" ry="4" fill="black" />
    <rect width="8" height="141.3173496412449" x="1028" y="4.341325179377549" rx="4" ry="4" fill="black" />
    <rect width="8" height="127.11159649128746" x="1044" y="11.444201754356271" rx="4" ry="4" fill="black" />
    <rect width="8" height="101.49216641418104" x="1060" y="24.25391679290948" rx="4" ry="4" fill="black" />
    <rect width="8" height="111.59408656322033" x="1076" y="19.202956718389835" rx="4" ry="4" fill="black" />
    <rect width="8" height="83.37568359195613" x="1092" y="33.312158204021934" rx="4" ry="4" fill="black" />
    <rect width="8" height="110.51700175160701" x="1108" y="19.741499124196494" rx="4" ry="4" fill="black" />
    <rect width="8" height="122.34778830703553" x="1124" y="13.826105846482236" rx="4" ry="4" fill="black" />
    <rect width="8" height="110.9310231315978" x="1140" y="19.5344884342011" rx="4" ry="4" fill="black" />
    <rect width="8" height="84.78322815307507" x="1156" y="32.608385923462464" rx="4" ry="4" fill="black" />
    <rect width="8" height="102.88589493486691" x="1172" y="23.557052532566544" rx="4" ry="4" fill="black" />
    <rect width="8" height="127.62801287061647" x="1188" y="11.185993564691763" rx="4" ry="4" fill="black" />
    <rect width="8" height="102.71563555592998" x="1204" y="23.64218222203501" rx="4" ry="4" fill="black" />
    <rect width="8" height="108.07742013593146" x="1220" y="20.96128993203427" rx="4" ry="4" fill="black" />
    <rect width="8" height="124.61420985059935" x="1236" y="12.692895074700324" rx="4" ry="4" fill="black" />
    <rect width="8" height="114.0652936324329" x="1252" y="17.96735318378355" rx="4" ry="4" fill="black" />
    <rect width="8" height="116.59707715772102" x="1268" y="16.70146142113949" rx="4" ry="4" fill="black" />
    <rect width="8" height="138.27733220697894" x="1284" y="5.86133389651053" rx="4" ry="4" fill="black" />
    <rect width="8" height="112.34499494264936" x="1300" y="18.827502528675318" rx="4" ry="4" fill="black" />
    <rect width="8" height="139.03386233493825" x="1316" y="5.483068832530876" rx="4" ry="4" fill="black" />
    <rect width="8" height="85.08942660513549" x="1332" y="32.45528669743226" rx="4" ry="4" fill="black" />
    <rect width="8" height="120.93175009212237" x="1348" y="14.534124953938814" rx="4" ry="4" fill="black" />
    <rect width="8" height="137.31237264782027" x="1364" y="6.343813676089866" rx="4" ry="4" fill="black" />
    <rect width="8" height="135.49497249188016" x="1380" y="7.252513754059919" rx="4" ry="4" fill="black" />
    <rect width="8" height="131.43909757046342" x="1396" y="9.280451214768291" rx="4" ry="4" fill="black" />
    <rect width="8" height="119.7297461564171" x="1412" y="15.135126921791453" rx="4" ry="4" fill="black" />
    <rect width="8" height="102.42359262106383" x="1428" y="23.788203689468084" rx="4" ry="4" fill="black" />
    <rect width="8" height="98.79440652040248" x="1444" y="25.602796739798762" rx="4" ry="4" fill="black" />
    <rect width="8" height="146.3234294092449" x="1460" y="1.8382852953775455" rx="4" ry="4" fill="black" />
    <rect width="8" height="123.94840810027148" x="1476" y="13.02579594986426" rx="4" ry="4" fill="black" />
    <rect width="8" height="142.60313684017643" x="1492" y="3.6984315799117837" rx="4" ry="4" fill="black" />
    <rect width="8" height="98.57689374688633" x="1508" y="25.711553126556836" rx="4" ry="4" fill="black" />
    <rect width="8" height="147.54043812312466" x="1524" y="1.2297809384376706" rx="4" ry="4" fill="black" />
    <rect width="8" height="120.42656213149509" x="1540" y="14.786718934252455" rx="4" ry="4" fill="black" />
    <rect width="8" height="134.17143971229874" x="1556" y="7.9142801438506325" rx="4" ry="4" fill="black" />
    <rect width="8" height="135.23338601308177" x="1572" y="7.383306993459115" rx="4" ry="4" fill="black" />
    <rect width="8" height="97.92757609025564" x="1588" y="26.03621195487218" rx="4" ry="4" fill="black" />
    <rect width="8" height="118.87810117317495" x="1604" y="15.560949413412523" rx="4" ry="4" fill="black" />
    <rect width="8" height="124.7220087992468" x="1620" y="12.638995600376603" rx="4" ry="4" fill="black" />
    <rect width="8" height="141.65056820102637" x="1636" y="4.174715899486813" rx="4" ry="4" fill="black" />
    <rect width="8" height="124.39793507297179" x="1652" y="12.801032463514105" rx="4" ry="4" fill="black" />
    <rect width="8" height="80.00186723256381" x="1668" y="34.999066383718095" rx="4" ry="4" fill="black" />
    <rect width="8" height="81.60552713936728" x="1684" y="34.19723643031636" rx="4" ry="4" fill="black" />
    <rect width="8" height="53.9830573773825" x="1700" y="48.00847131130875" rx="4" ry="4" fill="black" />
    <rect width="8" height="88.70942432732153" x="1716" y="30.645287836339236" rx="4" ry="4" fill="black" />
    <rect width="8" height="101.05561789928772" x="1732" y="24.472191050356138" rx="4" ry="4" fill="black" />
    <rect width="8" height="120.62956191756416" x="1748" y="14.68521904121792" rx="4" ry="4" fill="black" />
    <rect width="8" height="79.85701462559967" x="1764" y="35.07149268720016" rx="4" ry="4" fill="black" />
    <rect width="8" height="102.34806063267452" x="1780" y="23.82596968366274" rx="4" ry="4" fill="black" />
    <rect width="8" height="111.90605110213234" x="1796" y="19.04697444893383" rx="4" ry="4" fill="black" />
    <rect width="8" height="88.11787626434392" x="1812" y="30.94106186782804" rx="4" ry="4" fill="black" />
    <rect width="8" height="118.6277420922761" x="1828" y="15.686128953861953" rx="4" ry="4" fill="black" />
    <rect width="8" height="111.91554626200325" x="1844" y="19.042226868998377" rx="4" ry="4" fill="black" />
    <rect width="8" height="113.48177719755903" x="1860" y="18.259111401220487" rx="4" ry="4" fill="black" />
    <rect width="8" height="89.3025606278829" x="1876" y="30.34871968605855" rx="4" ry="4" fill="black" />
    <rect width="8" height="109.85252344528897" x="1892" y="20.073738277355517" rx="4" ry="4" fill="black" />
    <rect width="8" height="108.40153187826037" x="1908" y="20.799234060869814" rx="4" ry="4" fill="black" />
    <rect width="8" height="127.31861354993637" x="1924" y="11.340693225031814" rx="4" ry="4" fill="black" />
    <rect width="8" height="88.57893949955901" x="1940" y="30.710530250220494" rx="4" ry="4" fill="black" />
    <rect width="8" height="109.66914112329216" x="1956" y="20.165429438353918" rx="4" ry="4" fill="black" />
    <rect width="8" height="150" x="1972" y="0" rx="4" ry="4" fill="black" />
    <rect width="8" height="134.43658807878438" x="1988" y="7.781705960607809" rx="4" ry="4" fill="black" />
    <rect width="8" height="115.83319395157388" x="2004" y="17.083403024213062" rx="4" ry="4" fill="black" />
    <rect width="8" height="102.49440871068373" x="2020" y="23.752795644658136" rx="4" ry="4" fill="black" />
    <rect width="8" height="45.82424661433836" x="2036" y="52.08787669283082" rx="4" ry="4" fill="black" />
    <rect width="8" height="74.58313435775761" x="2052" y="37.70843282112119" rx="4" ry="4" fill="black" />
    <rect width="8" height="81.52087054402953" x="2068" y="34.23956472798523" rx="4" ry="4" fill="black" />
    <rect width="8" height="77.75552283114871" x="2084" y="36.122238584425645" rx="4" ry="4" fill="black" />
    <rect width="8" height="118.45490676207453" x="2100" y="15.772546618962735" rx="4" ry="4" fill="black" />
    <rect width="8" height="82.21745298868615" x="2116" y="33.891273505656926" rx="4" ry="4" fill="black" />
    <rect width="8" height="97.8108466181227" x="2132" y="26.094576690938652" rx="4" ry="4" fill="black" />
    <rect width="8" height="111.13603075338396" x="2148" y="19.43198462330802" rx="4" ry="4" fill="black" />
    <rect width="8" height="97.18435396390807" x="2164" y="26.407823018045967" rx="4" ry="4" fill="black" />
    <rect width="8" height="129.95002836653416" x="2180" y="10.024985816732922" rx="4" ry="4" fill="black" />
    <rect width="8" height="126.82306840317906" x="2196" y="11.588465798410468" rx="4" ry="4" fill="black" />
    <rect width="8" height="57.44639675832256" x="2212" y="46.276801620838725" rx="4" ry="4" fill="black" />
    <rect width="8" height="114.56601078012388" x="2228" y="17.716994609938062" rx="4" ry="4" fill="black" />
    <rect width="8" height="141.17310725689455" x="2244" y="4.413446371552723" rx="4" ry="4" fill="black" />
    <rect width="8" height="105.53849753158508" x="2260" y="22.23075123420746" rx="4" ry="4" fill="black" />
    <rect width="8" height="145.34821536603488" x="2276" y="2.3258923169825607" rx="4" ry="4" fill="black" />
    <rect width="8" height="135.39162107884195" x="2292" y="7.304189460579025" rx="4" ry="4" fill="black" />
    <rect width="8" height="122.78221876730578" x="2308" y="13.60889061634711" rx="4" ry="4" fill="black" />
    <rect width="8" height="139.228174191912" x="2324" y="5.385912904044005" rx="4" ry="4" fill="black" />
    <rect width="8" height="141.23150225798426" x="2340" y="4.38424887100787" rx="4" ry="4" fill="black" />
    <rect width="8" height="82.3954568896715" x="2356" y="33.80227155516425" rx="4" ry="4" fill="black" />
    <rect width="8" height="16.068404822124545" x="2372" y="66.96579758893773" rx="4" ry="4" fill="black" />
    <rect width="8" height="8" x="2388" y="71" rx="4" ry="4" fill="black" />
  </g>
</svg>