<svg 
  baseProfile="tiny"
  preserveAspectRatio="keep"
  version="1.2"
  viewBox="0 0 2400 150"
  height="100%" width="100%"
  xmlns="http://www.w3.org/2000/svg"
  xmlns:ev="http://www.w3.org/2001/xml-events"
  xmlns:xlink="http://www.w3.org/1999/xlink"
>
  <g>
    <rect width="8" height="69.4726965687195" x="4" y="40.26365171564025" rx="4" ry="4" fill="black" />
    <rect width="8" height="71.33602805440677" x="20" y="39.331985972796616" rx="4" ry="4" fill="black" />
    <rect width="8" height="76.7705382633276" x="36" y="36.6147308683362" rx="4" ry="4" fill="black" />
    <rect width="8" height="64.64175438804322" x="52" y="42.67912280597839" rx="4" ry="4" fill="black" />
    <rect width="8" height="63.26778042442781" x="68" y="43.366109787786094" rx="4" ry="4" fill="black" />
    <rect width="8" height="68.57250703402197" x="84" y="40.713746482989016" rx="4" ry="4" fill="black" />
    <rect width="8" height="56.1088397796855" x="100" y="46.94558011015725" rx="4" ry="4" fill="black" />
    <rect width="8" height="55.28957569084028" x="116" y="47.35521215457986" rx="4" ry="4" fill="black" />
    <rect width="8" height="57.35677216490106" x="132" y="46.32161391754947" rx="4" ry="4" fill="black" />
    <rect width="8" height="65.65965854949422" x="148" y="42.17017072525289" rx="4" ry="4" fill="black" />
    <rect width="8" height="68.25465704953658" x="164" y="40.87267147523171" rx="4" ry="4" fill="black" />
    <rect width="8" height="59.22523633039649" x="180" y="45.38738183480176" rx="4" ry="4" fill="black" />
    <rect width="8" height="80.27415674976527" x="196" y="34.862921625117366" rx="4" ry="4" fill="black" />
    <rect width="8" height="77.46718176759286" x="212" y="36.26640911620357" rx="4" ry="4" fill="black" />
    <rect width="8" height="100.74609981388319" x="228" y="24.626950093058404" rx="4" ry="4" fill="black" />
    <rect width="8" height="70.5577964969145" x="244" y="39.72110175154275" rx="4" ry="4" fill="black" />
    <rect width="8" height="70.15250804015982" x="260" y="39.92374597992009" rx="4" ry="4" fill="black" />
    <rect width="8" height="101.42152901224594" x="276" y="24.28923549387703" rx="4" ry="4" fill="black" />
    <rect width="8" height="61.06353595754092" x="292" y="44.46823202122954" rx="4" ry="4" fill="black" />
    <rect width="8" height="114.11913482125284" x="308" y="17.94043258937358" rx="4" ry="4" fill="black" />
    <rect width="8" height="82.14914083370384" x="324" y="33.92542958314808" rx="4" ry="4" fill="black" />
    <rect width="8" height="69.15127749654341" x="340" y="40.42436125172829" rx="4" ry="4" fill="black" />
    <rect width="8" height="121.07867369074116" x="356" y="14.460663154629422" rx="4" ry="4" fill="black" />
    <rect width="8" height="108.3333653185968" x="372" y="20.833317340701598" rx="4" ry="4" fill="black" />
    <rect width="8" height="82.51513431832137" x="388" y="33.742432840839314" rx="4" ry="4" fill="black" />
    <rect width="8" height="113.63733782263562" x="404" y="18.181331088682192" rx="4" ry="4" fill="black" />
    <rect width="8" height="108.10505190041543" x="420" y="20.947474049792284" rx="4" ry="4" fill="black" />
    <rect width="8" height="107.03322197552166" x="436" y="21.483389012239172" rx="4" ry="4" fill="black" />
    <rect width="8" height="93.8668251280167" x="452" y="28.06658743599165" rx="4" ry="4" fill="black" />
    <rect width="8" height="69.77324316247257" x="468" y="40.113378418763716" rx="4" ry="4" fill="black" />
    <rect width="8" height="99.35755980186066" x="484" y="25.32122009906967" rx="4" ry="4" fill="black" />
    <rect width="8" height="94.98413640278007" x="500" y="27.507931798609967" rx="4" ry="4" fill="black" />
    <rect width="8" height="67.35652338246474" x="516" y="41.32173830876763" rx="4" ry="4" fill="black" />
    <rect width="8" height="113.26241788676667" x="532" y="18.368791056616665" rx="4" ry="4" fill="black" />
    <rect width="8" height="93.35869886623624" x="548" y="28.32065056688188" rx="4" ry="4" fill="black" />
    <rect width="8" height="100.28225292685863" x="564" y="24.858873536570684" rx="4" ry="4" fill="black" />
    <rect width="8" height="91.06162805624164" x="580" y="29.469185971879178" rx="4" ry="4" fill="black" />
    <rect width="8" height="109.88986519719572" x="596" y="20.05506740140214" rx="4" ry="4" fill="black" />
    <rect width="8" height="92.4495277612485" x="612" y="28.775236119375748" rx="4" ry="4" fill="black" />
    <rect width="8" height="59.88320579253437" x="628" y="45.058397103732815" rx="4" ry="4" fill="black" />
    <rect width="8" height="89.64322404554869" x="644" y="30.178387977225654" rx="4" ry="4" fill="black" />
    <rect width="8" height="92.23401215146876" x="660" y="28.88299392426562" rx="4" ry="4" fill="black" />
    <rect width="8" height="62.88957771531867" x="676" y="43.55521114234067" rx="4" ry="4" fill="black" />
    <rect width="8" height="84.15043855887485" x="692" y="32.92478072056257" rx="4" ry="4" fill="black" />
    <rect width="8" height="69.05690387968411" x="708" y="40.47154806015794" rx="4" ry="4" fill="black" />
    <rect width="8" height="46.29892309659499" x="724" y="51.850538451702505" rx="4" ry="4" fill="black" />
    <rect width="8" height="77.36445998820206" x="740" y="36.31777000589897" rx="4" ry="4" fill="black" />
    <rect width="8" height="67.25864322953021" x="756" y="41.370678385234896" rx="4" ry="4" fill="black" />
    <rect width="8" height="46.237269773657935" x="772" y="51.88136511317103" rx="4" ry="4" fill="black" />
    <rect width="8" height="85.7064307029171" x="788" y="32.14678464854145" rx="4" ry="4" fill="black" />
    <rect width="8" height="59.933502021639946" x="804" y="45.033248989180024" rx="4" ry="4" fill="black" />
    <rect width="8" height="85.082857896847" x="820" y="32.4585710515765" rx="4" ry="4" fill="black" />
    <rect width="8" height="79.50387021692949" x="836" y="35.24806489153526" rx="4" ry="4" fill="black" />
    <rect width="8" height="50.825666955812565" x="852" y="49.58716652209372" rx="4" ry="4" fill="black" />
    <rect width="8" height="79.30334957083721" x="868" y="35.34832521458139" rx="4" ry="4" fill="black" />
    <rect width="8" height="61.35050577483485" x="884" y="44.32474711258257" rx="4" ry="4" fill="black" />
    <rect width="8" height="59.64214086480834" x="900" y="45.17892956759583" rx="4" ry="4" fill="black" />
    <rect width="8" height="67.66370055736938" x="916" y="41.16814972131531" rx="4" ry="4" fill="black" />
    <rect width="8" height="62.3172218706532" x="932" y="43.8413890646734" rx="4" ry="4" fill="black" />
    <rect width="8" height="79.9848734407253" x="948" y="35.00756327963735" rx="4" ry="4" fill="black" />
    <rect width="8" height="80.7344953481313" x="964" y="34.63275232593435" rx="4" ry="4" fill="black" />
    <rect width="8" height="64.11575847622635" x="980" y="42.94212076188683" rx="4" ry="4" fill="black" />
    <rect width="8" height="37.966239360994024" x="996" y="56.01688031950299" rx="4" ry="4" fill="black" />
    <rect width="8" height="24.484024640403934" x="1012" y="62.757987679798035" rx="4" ry="4" fill="black" />
    <rect width="8" height="24.79609501114572" x="1028" y="62.60195249442714" rx="4" ry="4" fill="black" />
    <rect width="8" height="28.577043980021635" x="1044" y="60.71147800998918" rx="4" ry="4" fill="black" />
    <rect width="8" height="33.11919474918812" x="1060" y="58.44040262540594" rx="4" ry="4" fill="black" />
    <rect width="8" height="8" x="1076" y="71" rx="4" ry="4" fill="black" />
    <rect width="8" height="24.265556962795568" x="1092" y="62.867221518602214" rx="4" ry="4" fill="black" />
    <rect width="8" height="105.73127079812313" x="1108" y="22.134364600938433" rx="4" ry="4" fill="black" />
    <rect width="8" height="71.93736835463872" x="1124" y="39.03131582268064" rx="4" ry="4" fill="black" />
    <rect width="8" height="117.46243470797923" x="1140" y="16.268782646010386" rx="4" ry="4" fill="black" />
    <rect width="8" height="150" x="1156" y="0" rx="4" ry="4" fill="black" />
    <rect width="8" height="115.80782154138696" x="1172" y="17.09608922930652" rx="4" ry="4" fill="black" />
    <rect width="8" height="143.07097797831563" x="1188" y="3.4645110108421875" rx="4" ry="4" fill="black" />
    <rect width="8" height="92.25771910191756" x="1204" y="28.87114044904122" rx="4" ry="4" fill="black" />
    <rect width="8" height="108.73762367205119" x="1220" y="20.631188163974407" rx="4" ry="4" fill="black" />
    <rect width="8" height="76.796355534832" x="1236" y="36.601822232584" rx="4" ry="4" fill="black" />
    <rect width="8" height="99.09225272103589" x="1252" y="25.453873639482055" rx="4" ry="4" fill="black" />
    <rect width="8" height="84.4602033400788" x="1268" y="32.7698983299606" rx="4" ry="4" fill="black" />
    <rect width="8" height="108.29188663745416" x="1284" y="20.854056681272922" rx="4" ry="4" fill="black" />
    <rect width="8" height="66.87281803436031" x="1300" y="41.563590982819846" rx="4" ry="4" fill="black" />
    <rect width="8" height="38.568605347279586" x="1316" y="55.71569732636021" rx="4" ry="4" fill="black" />
    <rect width="8" height="73.78618887817531" x="1332" y="38.106905560912345" rx="4" ry="4" fill="black" />
    <rect width="8" height="98.27241950880732" x="1348" y="25.86379024559634" rx="4" ry="4" fill="black" />
    <rect width="8" height="80.46989991514636" x="1364" y="34.76505004242682" rx="4" ry="4" fill="black" />
    <rect width="8" height="91.37781408858581" x="1380" y="29.311092955707096" rx="4" ry="4" fill="black" />
    <rect width="8" height="104.94905855093904" x="1396" y="22.52547072453048" rx="4" ry="4" fill="black" />
    <rect width="8" height="91.876015428906" x="1412" y="29.061992285547" rx="4" ry="4" fill="black" />
    <rect width="8" height="60.67526575213729" x="1428" y="44.662367123931354" rx="4" ry="4" fill="black" />
    <rect width="8" height="112.50596478542633" x="1444" y="18.747017607286836" rx="4" ry="4" fill="black" />
    <rect width="8" height="84.15985425667982" x="1460" y="32.92007287166009" rx="4" ry="4" fill="black" />
    <rect width="8" height="74.78410134546463" x="1476" y="37.60794932726768" rx="4" ry="4" fill="black" />
    <rect width="8" height="95.14667874218638" x="1492" y="27.42666062890681" rx="4" ry="4" fill="black" />
    <rect width="8" height="62.90843206971237" x="1508" y="43.54578396514381" rx="4" ry="4" fill="black" />
    <rect width="8" height="37.076049958608" x="1524" y="56.461975020696" rx="4" ry="4" fill="black" />
    <rect width="8" height="48.214306467781654" x="1540" y="50.89284676610917" rx="4" ry="4" fill="black" />
    <rect width="8" height="57.733557185255556" x="1556" y="46.13322140737222" rx="4" ry="4" fill="black" />
    <rect width="8" height="62.066163292712794" x="1572" y="43.96691835364361" rx="4" ry="4" fill="black" />
    <rect width="8" height="37.71547018902955" x="1588" y="56.14226490548522" rx="4" ry="4" fill="black" />
    <rect width="8" height="118.25777378201084" x="1604" y="15.871113108994578" rx="4" ry="4" fill="black" />
    <rect width="8" height="89.21597927301256" x="1620" y="30.392010363493718" rx="4" ry="4" fill="black" />
    <rect width="8" height="77.78695497154101" x="1636" y="36.106522514229496" rx="4" ry="4" fill="black" />
    <rect width="8" height="97.47256747862585" x="1652" y="26.263716260687076" rx="4" ry="4" fill="black" />
    <rect width="8" height="73.25253481957388" x="1668" y="38.37373259021306" rx="4" ry="4" fill="black" />
    <rect width="8" height="105.86330843609565" x="1684" y="22.068345781952175" rx="4" ry="4" fill="black" />
    <rect width="8" height="90.18411872125866" x="1700" y="29.907940639370672" rx="4" ry="4" fill="black" />
    <rect width="8" height="64.89962888301562" x="1716" y="42.55018555849219" rx="4" ry="4" fill="black" />
    <rect width="8" height="93.79637384303359" x="1732" y="28.101813078483204" rx="4" ry="4" fill="black" />
    <rect width="8" height="84.86900325389097" x="1748" y="32.56549837305452" rx="4" ry="4" fill="black" />
    <rect width="8" height="84.54893293316495" x="1764" y="32.725533533417526" rx="4" ry="4" fill="black" />
    <rect width="8" height="83.98113082975097" x="1780" y="33.00943458512452" rx="4" ry="4" fill="black" />
    <rect width="8" height="67.597787278905" x="1796" y="41.2011063605475" rx="4" ry="4" fill="black" />
    <rect width="8" height="25.39990158024173" x="1812" y="62.300049209879134" rx="4" ry="4" fill="black" />
    <rect width="8" height="26.443203197398383" x="1828" y="61.778398401300805" rx="4" ry="4" fill="black" />
    <rect width="8" height="30.466072912918552" x="1844" y="59.766963543540726" rx="4" ry="4" fill="black" />
    <rect width="8" height="27.39585290778274" x="1860" y="61.30207354610863" rx="4" ry="4" fill="black" />
    <rect width="8" height="29.604135510090305" x="1876" y="60.19793224495485" rx="4" ry="4" fill="black" />
    <rect width="8" height="8" x="1892" y="71" rx="4" ry="4" fill="black" />
    <rect width="8" height="8" x="1908" y="71" rx="4" ry="4" fill="black" />
    <rect width="8" height="32.79673392331904" x="1924" y="58.60163303834048" rx="4" ry="4" fill="black" />
    <rect width="8" height="22.167729146984886" x="1940" y="63.91613542650756" rx="4" ry="4" fill="black" />
    <rect width="8" height="77.83597670963819" x="1956" y="36.082011645180906" rx="4" ry="4" fill="black" />
    <rect width="8" height="119.36173087825253" x="1972" y="15.319134560873735" rx="4" ry="4" fill="black" />
    <rect width="8" height="48.065580421131344" x="1988" y="50.96720978943433" rx="4" ry="4" fill="black" />
    <rect width="8" height="61.017825398651" x="2004" y="44.4910873006745" rx="4" ry="4" fill="black" />
    <rect width="8" height="74.22921208516242" x="2020" y="37.88539395741879" rx="4" ry="4" fill="black" />
    <rect width="8" height="60.27699931208414" x="2036" y="44.86150034395793" rx="4" ry="4" fill="black" />
    <rect width="8" height="68.88105759019292" x="2052" y="40.55947120490354" rx="4" ry="4" fill="black" />
    <rect width="8" height="48.325821127027204" x="2068" y="50.837089436486394" rx="4" ry="4" fill="black" />
    <rect width="8" height="51.79780911504068" x="2084" y="49.10109544247966" rx="4" ry="4" fill="black" />
    <rect width="8" height="48.06572387715595" x="2100" y="50.96713806142202" rx="4" ry="4" fill="black" />
    <rect width="8" height="40.62877961208487" x="2116" y="54.685610193957565" rx="4" ry="4" fill="black" />
    <rect width="8" height="58.61654737929837" x="2132" y="45.691726310350816" rx="4" ry="4" fill="black" />
    <rect width="8" height="67.4981281652719" x="2148" y="41.25093591736405" rx="4" ry="4" fill="black" />
    <rect width="8" height="66.02458160288732" x="2164" y="41.98770919855634" rx="4" ry="4" fill="black" />
    <rect width="8" height="75.16590819344202" x="2180" y="37.41704590327899" rx="4" ry="4" fill="black" />
    <rect width="8" height="62.178505728248936" x="2196" y="43.91074713587553" rx="4" ry="4" fill="black" />
    <rect width="8" height="52.51127995408564" x="2212" y="48.74436002295718" rx="4" ry="4" fill="black" />
    <rect width="8" height="58.706561240533084" x="2228" y="45.646719379733455" rx="4" ry="4" fill="black" />
    <rect width="8" height="48.735002748080475" x="2244" y="50.63249862595976" rx="4" ry="4" fill="black" />
    <rect width="8" height="64.49258162561566" x="2260" y="42.75370918719217" rx="4" ry="4" fill="black" />
    <rect width="8" height="63.458168371032826" x="2276" y="43.27091581448359" rx="4" ry="4" fill="black" />
    <rect width="8" height="57.48537682880254" x="2292" y="46.25731158559873" rx="4" ry="4" fill="black" />
    <rect width="8" height="63.36425153841895" x="2308" y="43.31787423079052" rx="4" ry="4" fill="black" />
    <rect width="8" height="56.26232895511622" x="2324" y="46.86883552244189" rx="4" ry="4" fill="black" />
    <rect width="8" height="52.63110496868761" x="2340" y="48.684447515656196" rx="4" ry="4" fill="black" />
    <rect width="8" height="42.94038064746845" x="2356" y="53.52980967626577" rx="4" ry="4" fill="black" />
    <rect width="8" height="39.6636251867089" x="2372" y="55.16818740664555" rx="4" ry="4" fill="black" />
    <rect width="8" height="44.20353694880649" x="2388" y="52.898231525596756" rx="4" ry="4" fill="black" />
  </g>
</svg>