<svg 
  baseProfile="tiny"
  preserveAspectRatio="true"
  version="1.2"
  viewBox="0 0 2400 150"
  height="100%" width="100%"
  xmlns="http://www.w3.org/2000/svg"
  xmlns:ev="http://www.w3.org/2001/xml-events"
  xmlns:xlink="http://www.w3.org/1999/xlink"
>
  <g>
    <rect width="8" height="63.42974080123094" x="4" y="43.28512959938453" rx="4" ry="4" fill="black" />
    <rect width="8" height="74.60223020004008" x="20" y="37.69888489997996" rx="4" ry="4" fill="black" />
    <rect width="8" height="65.39262276254965" x="36" y="42.303688618725175" rx="4" ry="4" fill="black" />
    <rect width="8" height="75.40205007877799" x="52" y="37.298974960611005" rx="4" ry="4" fill="black" />
    <rect width="8" height="109.30319243375206" x="68" y="20.34840378312397" rx="4" ry="4" fill="black" />
    <rect width="8" height="69.80662247911084" x="84" y="40.09668876044458" rx="4" ry="4" fill="black" />
    <rect width="8" height="118.25730851720532" x="100" y="15.871345741397342" rx="4" ry="4" fill="black" />
    <rect width="8" height="90.03540912428988" x="116" y="29.982295437855058" rx="4" ry="4" fill="black" />
    <rect width="8" height="73.40015340930509" x="132" y="38.299923295347455" rx="4" ry="4" fill="black" />
    <rect width="8" height="94.82329550792434" x="148" y="27.58835224603783" rx="4" ry="4" fill="black" />
    <rect width="8" height="105.75075249607869" x="164" y="22.124623751960655" rx="4" ry="4" fill="black" />
    <rect width="8" height="118.40129214630747" x="180" y="15.799353926846265" rx="4" ry="4" fill="black" />
    <rect width="8" height="106.83141254835043" x="196" y="21.584293725824786" rx="4" ry="4" fill="black" />
    <rect width="8" height="102.78342921432095" x="212" y="23.608285392839527" rx="4" ry="4" fill="black" />
    <rect width="8" height="110.76224345543476" x="228" y="19.618878272282622" rx="4" ry="4" fill="black" />
    <rect width="8" height="84.79145999624811" x="244" y="32.604270001875946" rx="4" ry="4" fill="black" />
    <rect width="8" height="101.65046261516552" x="260" y="24.17476869241724" rx="4" ry="4" fill="black" />
    <rect width="8" height="112.09646967152071" x="276" y="18.951765164239646" rx="4" ry="4" fill="black" />
    <rect width="8" height="123.36563993883053" x="292" y="13.317180030584737" rx="4" ry="4" fill="black" />
    <rect width="8" height="125.01052566578115" x="308" y="12.494737167109427" rx="4" ry="4" fill="black" />
    <rect width="8" height="121.85180408755099" x="324" y="14.074097956224506" rx="4" ry="4" fill="black" />
    <rect width="8" height="99.85451491896967" x="340" y="25.072742540515165" rx="4" ry="4" fill="black" />
    <rect width="8" height="86.88622425668214" x="356" y="31.55688787165893" rx="4" ry="4" fill="black" />
    <rect width="8" height="122.78841260996161" x="372" y="13.605793695019194" rx="4" ry="4" fill="black" />
    <rect width="8" height="89.35406972377221" x="388" y="30.322965138113894" rx="4" ry="4" fill="black" />
    <rect width="8" height="97.66885393458853" x="404" y="26.165573032705737" rx="4" ry="4" fill="black" />
    <rect width="8" height="110.64601123860679" x="420" y="19.676994380696605" rx="4" ry="4" fill="black" />
    <rect width="8" height="78.67799231223745" x="436" y="35.661003843881275" rx="4" ry="4" fill="black" />
    <rect width="8" height="97.0905117936135" x="452" y="26.45474410319325" rx="4" ry="4" fill="black" />
    <rect width="8" height="81.01240848290387" x="468" y="34.49379575854807" rx="4" ry="4" fill="black" />
    <rect width="8" height="109.16024046057669" x="484" y="20.419879769711656" rx="4" ry="4" fill="black" />
    <rect width="8" height="84.81144899400137" x="500" y="32.59427550299932" rx="4" ry="4" fill="black" />
    <rect width="8" height="89.80984632656249" x="516" y="30.095076836718754" rx="4" ry="4" fill="black" />
    <rect width="8" height="86.9558231723235" x="532" y="31.522088413838247" rx="4" ry="4" fill="black" />
    <rect width="8" height="98.96058276429527" x="548" y="25.519708617852366" rx="4" ry="4" fill="black" />
    <rect width="8" height="75.83747127478604" x="564" y="37.08126436260698" rx="4" ry="4" fill="black" />
    <rect width="8" height="97.57214095218632" x="580" y="26.21392952390684" rx="4" ry="4" fill="black" />
    <rect width="8" height="99.60520370698194" x="596" y="25.19739814650903" rx="4" ry="4" fill="black" />
    <rect width="8" height="72.85637396014056" x="612" y="38.57181301992972" rx="4" ry="4" fill="black" />
    <rect width="8" height="90.5249652693111" x="628" y="29.737517365344452" rx="4" ry="4" fill="black" />
    <rect width="8" height="104.05797073908343" x="644" y="22.971014630458285" rx="4" ry="4" fill="black" />
    <rect width="8" height="99.88264096329502" x="660" y="25.05867951835249" rx="4" ry="4" fill="black" />
    <rect width="8" height="107.56740912460042" x="676" y="21.21629543769979" rx="4" ry="4" fill="black" />
    <rect width="8" height="99.48762543852692" x="692" y="25.25618728073654" rx="4" ry="4" fill="black" />
    <rect width="8" height="100.95737024683612" x="708" y="24.52131487658194" rx="4" ry="4" fill="black" />
    <rect width="8" height="79.47462323335354" x="724" y="35.26268838332323" rx="4" ry="4" fill="black" />
    <rect width="8" height="115.06982785149526" x="740" y="17.46508607425237" rx="4" ry="4" fill="black" />
    <rect width="8" height="123.15294975442076" x="756" y="13.42352512278962" rx="4" ry="4" fill="black" />
    <rect width="8" height="44.062609672394196" x="772" y="52.968695163802906" rx="4" ry="4" fill="black" />
    <rect width="8" height="50.11827289038678" x="788" y="49.94086355480661" rx="4" ry="4" fill="black" />
    <rect width="8" height="96.61549935233568" x="804" y="26.692250323832162" rx="4" ry="4" fill="black" />
    <rect width="8" height="66.944131929499" x="820" y="41.5279340352505" rx="4" ry="4" fill="black" />
    <rect width="8" height="64.85279785122594" x="836" y="42.57360107438703" rx="4" ry="4" fill="black" />
    <rect width="8" height="91.61243443594412" x="852" y="29.193782782027938" rx="4" ry="4" fill="black" />
    <rect width="8" height="85.84068342313331" x="868" y="32.07965828843334" rx="4" ry="4" fill="black" />
    <rect width="8" height="83.97983382188568" x="884" y="33.01008308905716" rx="4" ry="4" fill="black" />
    <rect width="8" height="82.64184617442078" x="900" y="33.67907691278961" rx="4" ry="4" fill="black" />
    <rect width="8" height="98.89283412309676" x="916" y="25.55358293845162" rx="4" ry="4" fill="black" />
    <rect width="8" height="94.35883948010186" x="932" y="27.820580259949068" rx="4" ry="4" fill="black" />
    <rect width="8" height="52.83451502467561" x="948" y="48.582742487662195" rx="4" ry="4" fill="black" />
    <rect width="8" height="130.40268464379594" x="964" y="9.798657678102032" rx="4" ry="4" fill="black" />
    <rect width="8" height="104.9943697103956" x="980" y="22.5028151448022" rx="4" ry="4" fill="black" />
    <rect width="8" height="109.41364798105778" x="996" y="20.29317600947111" rx="4" ry="4" fill="black" />
    <rect width="8" height="100.69937806041632" x="1012" y="24.65031096979184" rx="4" ry="4" fill="black" />
    <rect width="8" height="94.51156212421488" x="1028" y="27.744218937892562" rx="4" ry="4" fill="black" />
    <rect width="8" height="105.9732589252813" x="1044" y="22.01337053735935" rx="4" ry="4" fill="black" />
    <rect width="8" height="61.31571375923975" x="1060" y="44.34214312038013" rx="4" ry="4" fill="black" />
    <rect width="8" height="102.0823183685229" x="1076" y="23.958840815738547" rx="4" ry="4" fill="black" />
    <rect width="8" height="123.75621904552615" x="1092" y="13.121890477236924" rx="4" ry="4" fill="black" />
    <rect width="8" height="8" x="1108" y="71" rx="4" ry="4" fill="black" />
    <rect width="8" height="97.8592103027592" x="1124" y="26.070394848620403" rx="4" ry="4" fill="black" />
    <rect width="8" height="150" x="1140" y="0" rx="4" ry="4" fill="black" />
    <rect width="8" height="62.66897532584198" x="1156" y="43.66551233707901" rx="4" ry="4" fill="black" />
    <rect width="8" height="44.74104434821418" x="1172" y="52.629477825892906" rx="4" ry="4" fill="black" />
    <rect width="8" height="63.085909938199855" x="1188" y="43.457045030900076" rx="4" ry="4" fill="black" />
    <rect width="8" height="99.76364532357249" x="1204" y="25.118177338213755" rx="4" ry="4" fill="black" />
    <rect width="8" height="118.01721097954216" x="1220" y="15.991394510228922" rx="4" ry="4" fill="black" />
    <rect width="8" height="102.21955061304978" x="1236" y="23.890224693475112" rx="4" ry="4" fill="black" />
    <rect width="8" height="123.09748587046894" x="1252" y="13.451257064765528" rx="4" ry="4" fill="black" />
    <rect width="8" height="103.30966727073027" x="1268" y="23.345166364634863" rx="4" ry="4" fill="black" />
    <rect width="8" height="100.50085341593328" x="1284" y="24.74957329203336" rx="4" ry="4" fill="black" />
    <rect width="8" height="93.34977212542745" x="1300" y="28.325113937286275" rx="4" ry="4" fill="black" />
    <rect width="8" height="121.30218348106736" x="1316" y="14.34890825946632" rx="4" ry="4" fill="black" />
    <rect width="8" height="120.12782833871753" x="1332" y="14.936085830641233" rx="4" ry="4" fill="black" />
    <rect width="8" height="98.28766577549568" x="1348" y="25.85616711225216" rx="4" ry="4" fill="black" />
    <rect width="8" height="99.9477441057573" x="1364" y="25.026127947121353" rx="4" ry="4" fill="black" />
    <rect width="8" height="85.81468185185936" x="1380" y="32.09265907407032" rx="4" ry="4" fill="black" />
    <rect width="8" height="83.19502326260928" x="1396" y="33.40248836869536" rx="4" ry="4" fill="black" />
    <rect width="8" height="95.61832087778195" x="1412" y="27.190839561109023" rx="4" ry="4" fill="black" />
    <rect width="8" height="105.51104028487197" x="1428" y="22.244479857564016" rx="4" ry="4" fill="black" />
    <rect width="8" height="126.0731225420256" x="1444" y="11.9634387289872" rx="4" ry="4" fill="black" />
    <rect width="8" height="115.46757412872346" x="1460" y="17.266212935638272" rx="4" ry="4" fill="black" />
    <rect width="8" height="125.77374547647963" x="1476" y="12.113127261760184" rx="4" ry="4" fill="black" />
    <rect width="8" height="104.50770786717499" x="1492" y="22.746146066412507" rx="4" ry="4" fill="black" />
    <rect width="8" height="112.52291251913297" x="1508" y="18.738543740433514" rx="4" ry="4" fill="black" />
    <rect width="8" height="109.88885986446353" x="1524" y="20.055570067768237" rx="4" ry="4" fill="black" />
    <rect width="8" height="122.1196658352232" x="1540" y="13.940167082388399" rx="4" ry="4" fill="black" />
    <rect width="8" height="130.12717143246752" x="1556" y="9.93641428376624" rx="4" ry="4" fill="black" />
    <rect width="8" height="98.8049200522729" x="1572" y="25.597539973863547" rx="4" ry="4" fill="black" />
    <rect width="8" height="132.25685066206594" x="1588" y="8.871574668967028" rx="4" ry="4" fill="black" />
    <rect width="8" height="126.52855959227651" x="1604" y="11.735720203861746" rx="4" ry="4" fill="black" />
    <rect width="8" height="105.12508035003985" x="1620" y="22.437459824980074" rx="4" ry="4" fill="black" />
    <rect width="8" height="91.29420603967169" x="1636" y="29.352896980164154" rx="4" ry="4" fill="black" />
    <rect width="8" height="118.0584969129018" x="1652" y="15.970751543549099" rx="4" ry="4" fill="black" />
    <rect width="8" height="119.01573596768542" x="1668" y="15.492132016157292" rx="4" ry="4" fill="black" />
    <rect width="8" height="42.703615859497745" x="1684" y="53.64819207025113" rx="4" ry="4" fill="black" />
    <rect width="8" height="61.00897416099456" x="1700" y="44.495512919502715" rx="4" ry="4" fill="black" />
    <rect width="8" height="93.2462383353721" x="1716" y="28.37688083231395" rx="4" ry="4" fill="black" />
    <rect width="8" height="61.98059541193545" x="1732" y="44.00970229403228" rx="4" ry="4" fill="black" />
    <rect width="8" height="78.42807667958877" x="1748" y="35.785961660205615" rx="4" ry="4" fill="black" />
    <rect width="8" height="119.48379097603508" x="1764" y="15.25810451198246" rx="4" ry="4" fill="black" />
    <rect width="8" height="98.15568648390975" x="1780" y="25.922156758045126" rx="4" ry="4" fill="black" />
    <rect width="8" height="115.59894223202463" x="1796" y="17.200528883987687" rx="4" ry="4" fill="black" />
    <rect width="8" height="103.88634332658772" x="1812" y="23.05682833670614" rx="4" ry="4" fill="black" />
    <rect width="8" height="113.8756493713857" x="1828" y="18.062175314307147" rx="4" ry="4" fill="black" />
    <rect width="8" height="115.70383997754612" x="1844" y="17.148080011226938" rx="4" ry="4" fill="black" />
    <rect width="8" height="123.41986246576579" x="1860" y="13.290068767117106" rx="4" ry="4" fill="black" />
    <rect width="8" height="113.80767161996408" x="1876" y="18.09616419001796" rx="4" ry="4" fill="black" />
    <rect width="8" height="142.72609331356566" x="1892" y="3.636953343217172" rx="4" ry="4" fill="black" />
    <rect width="8" height="121.41407415372996" x="1908" y="14.292962923135022" rx="4" ry="4" fill="black" />
    <rect width="8" height="112.17136263914006" x="1924" y="18.91431868042997" rx="4" ry="4" fill="black" />
    <rect width="8" height="82.53768037009509" x="1940" y="33.731159814952456" rx="4" ry="4" fill="black" />
    <rect width="8" height="73.74121430364856" x="1956" y="38.12939284817572" rx="4" ry="4" fill="black" />
    <rect width="8" height="77.31529797385683" x="1972" y="36.342351013071585" rx="4" ry="4" fill="black" />
    <rect width="8" height="91.46468667178668" x="1988" y="29.26765666410666" rx="4" ry="4" fill="black" />
    <rect width="8" height="90.50681230688579" x="2004" y="29.746593846557104" rx="4" ry="4" fill="black" />
    <rect width="8" height="81.48144819629645" x="2020" y="34.25927590185177" rx="4" ry="4" fill="black" />
    <rect width="8" height="96.51375944255071" x="2036" y="26.743120278724646" rx="4" ry="4" fill="black" />
    <rect width="8" height="89.45650724117796" x="2052" y="30.27174637941102" rx="4" ry="4" fill="black" />
    <rect width="8" height="78.77122820330655" x="2068" y="35.614385898346725" rx="4" ry="4" fill="black" />
    <rect width="8" height="83.1717213084985" x="2084" y="33.41413934575075" rx="4" ry="4" fill="black" />
    <rect width="8" height="116.89100531668302" x="2100" y="16.55449734165849" rx="4" ry="4" fill="black" />
    <rect width="8" height="101.13768900795134" x="2116" y="24.43115549602433" rx="4" ry="4" fill="black" />
    <rect width="8" height="64.5510611842567" x="2132" y="42.72446940787165" rx="4" ry="4" fill="black" />
    <rect width="8" height="124.38646588971295" x="2148" y="12.806767055143524" rx="4" ry="4" fill="black" />
    <rect width="8" height="127.52879501897543" x="2164" y="11.235602490512285" rx="4" ry="4" fill="black" />
    <rect width="8" height="54.521455443816045" x="2180" y="47.739272278091974" rx="4" ry="4" fill="black" />
    <rect width="8" height="86.22567526675685" x="2196" y="31.887162366621574" rx="4" ry="4" fill="black" />
    <rect width="8" height="83.30763595164636" x="2212" y="33.34618202417682" rx="4" ry="4" fill="black" />
    <rect width="8" height="126.97909168916563" x="2228" y="11.510454155417186" rx="4" ry="4" fill="black" />
    <rect width="8" height="110.97974765518832" x="2244" y="19.51012617240584" rx="4" ry="4" fill="black" />
    <rect width="8" height="97.35734704290958" x="2260" y="26.32132647854521" rx="4" ry="4" fill="black" />
    <rect width="8" height="90.83505258120539" x="2276" y="29.582473709397306" rx="4" ry="4" fill="black" />
    <rect width="8" height="107.54229315148643" x="2292" y="21.228853424256783" rx="4" ry="4" fill="black" />
    <rect width="8" height="99.52712646542672" x="2308" y="25.23643676728664" rx="4" ry="4" fill="black" />
    <rect width="8" height="106.62901184567782" x="2324" y="21.68549407716109" rx="4" ry="4" fill="black" />
    <rect width="8" height="111.92135782462418" x="2340" y="19.03932108768791" rx="4" ry="4" fill="black" />
    <rect width="8" height="111.25943461444228" x="2356" y="19.370282692778858" rx="4" ry="4" fill="black" />
    <rect width="8" height="116.64107762238076" x="2372" y="16.67946118880962" rx="4" ry="4" fill="black" />
    <rect width="8" height="74.16151639051026" x="2388" y="37.91924180474487" rx="4" ry="4" fill="black" />
  </g>
</svg>