<svg 
  baseProfile="tiny"
  preserveAspectRatio="true"
  version="1.2"
  viewBox="0 0 2400 150"
  height="100%" width="100%"
  xmlns="http://www.w3.org/2000/svg"
  xmlns:ev="http://www.w3.org/2001/xml-events"
  xmlns:xlink="http://www.w3.org/1999/xlink"
>
  <g>
    <rect width="8" height="99.5584223091351" x="4" y="25.220788845432452" rx="4" ry="4" fill="black" />
    <rect width="8" height="98.1486457367986" x="20" y="25.9256771316007" rx="4" ry="4" fill="black" />
    <rect width="8" height="100.02150592339821" x="36" y="24.989247038300896" rx="4" ry="4" fill="black" />
    <rect width="8" height="91.75399936962265" x="52" y="29.123000315188676" rx="4" ry="4" fill="black" />
    <rect width="8" height="93.80679892765265" x="68" y="28.096600536173675" rx="4" ry="4" fill="black" />
    <rect width="8" height="100.17147273019296" x="84" y="24.91426363490352" rx="4" ry="4" fill="black" />
    <rect width="8" height="95.20233096270383" x="100" y="27.398834518648087" rx="4" ry="4" fill="black" />
    <rect width="8" height="99.7603341146231" x="116" y="25.119832942688447" rx="4" ry="4" fill="black" />
    <rect width="8" height="101.85523987778282" x="132" y="24.07238006110859" rx="4" ry="4" fill="black" />
    <rect width="8" height="102.37333340422896" x="148" y="23.81333329788552" rx="4" ry="4" fill="black" />
    <rect width="8" height="87.36573979204611" x="164" y="31.317130103976943" rx="4" ry="4" fill="black" />
    <rect width="8" height="92.51768168111944" x="180" y="28.74115915944028" rx="4" ry="4" fill="black" />
    <rect width="8" height="87.85365425436954" x="196" y="31.073172872815228" rx="4" ry="4" fill="black" />
    <rect width="8" height="95.02441892959935" x="212" y="27.487790535200325" rx="4" ry="4" fill="black" />
    <rect width="8" height="97.81687057956633" x="228" y="26.091564710216836" rx="4" ry="4" fill="black" />
    <rect width="8" height="113.94960822053177" x="244" y="18.025195889734114" rx="4" ry="4" fill="black" />
    <rect width="8" height="102.92578904434902" x="260" y="23.53710547782549" rx="4" ry="4" fill="black" />
    <rect width="8" height="103.66146415432225" x="276" y="23.169267922838877" rx="4" ry="4" fill="black" />
    <rect width="8" height="107.16021821156984" x="292" y="21.41989089421508" rx="4" ry="4" fill="black" />
    <rect width="8" height="97.70162262673784" x="308" y="26.149188686631078" rx="4" ry="4" fill="black" />
    <rect width="8" height="89.41622150859172" x="324" y="30.29188924570414" rx="4" ry="4" fill="black" />
    <rect width="8" height="93.40849354150619" x="340" y="28.295753229246905" rx="4" ry="4" fill="black" />
    <rect width="8" height="97.62914780754484" x="356" y="26.18542609622758" rx="4" ry="4" fill="black" />
    <rect width="8" height="87.25611271993422" x="372" y="31.37194364003289" rx="4" ry="4" fill="black" />
    <rect width="8" height="104.46606786669426" x="388" y="22.76696606665287" rx="4" ry="4" fill="black" />
    <rect width="8" height="92.91433197600755" x="404" y="28.542834011996227" rx="4" ry="4" fill="black" />
    <rect width="8" height="94.47217731834061" x="420" y="27.763911340829694" rx="4" ry="4" fill="black" />
    <rect width="8" height="90.48300746307933" x="436" y="29.758496268460334" rx="4" ry="4" fill="black" />
    <rect width="8" height="103.15815547913394" x="452" y="23.42092226043303" rx="4" ry="4" fill="black" />
    <rect width="8" height="99.15834000504358" x="468" y="25.420829997478208" rx="4" ry="4" fill="black" />
    <rect width="8" height="112.75231660164125" x="484" y="18.623841699179373" rx="4" ry="4" fill="black" />
    <rect width="8" height="99.02085327324512" x="500" y="25.48957336337744" rx="4" ry="4" fill="black" />
    <rect width="8" height="96.08732886269019" x="516" y="26.956335568654907" rx="4" ry="4" fill="black" />
    <rect width="8" height="109.76915685516335" x="532" y="20.115421572418327" rx="4" ry="4" fill="black" />
    <rect width="8" height="125.65955809624404" x="548" y="12.17022095187798" rx="4" ry="4" fill="black" />
    <rect width="8" height="120.68904118912545" x="564" y="14.655479405437276" rx="4" ry="4" fill="black" />
    <rect width="8" height="120.32186486610595" x="580" y="14.839067566947023" rx="4" ry="4" fill="black" />
    <rect width="8" height="111.6756967142152" x="596" y="19.162151642892397" rx="4" ry="4" fill="black" />
    <rect width="8" height="127.02894412158246" x="612" y="11.485527939208772" rx="4" ry="4" fill="black" />
    <rect width="8" height="99.68894587096453" x="628" y="25.155527064517734" rx="4" ry="4" fill="black" />
    <rect width="8" height="101.16002962434813" x="644" y="24.419985187825937" rx="4" ry="4" fill="black" />
    <rect width="8" height="100.75362464108429" x="660" y="24.623187679457857" rx="4" ry="4" fill="black" />
    <rect width="8" height="101.24322443108179" x="676" y="24.378387784459107" rx="4" ry="4" fill="black" />
    <rect width="8" height="102.62647671275693" x="692" y="23.686761643621537" rx="4" ry="4" fill="black" />
    <rect width="8" height="102.41669083915295" x="708" y="23.791654580423526" rx="4" ry="4" fill="black" />
    <rect width="8" height="95.04640502340138" x="724" y="27.47679748829931" rx="4" ry="4" fill="black" />
    <rect width="8" height="95.0108676561397" x="740" y="27.494566171930153" rx="4" ry="4" fill="black" />
    <rect width="8" height="111.6418622469881" x="756" y="19.17906887650595" rx="4" ry="4" fill="black" />
    <rect width="8" height="100.2991126463618" x="772" y="24.850443676819097" rx="4" ry="4" fill="black" />
    <rect width="8" height="112.94770981276284" x="788" y="18.52614509361858" rx="4" ry="4" fill="black" />
    <rect width="8" height="110.39054657415275" x="804" y="19.804726712923625" rx="4" ry="4" fill="black" />
    <rect width="8" height="136.19769978609455" x="820" y="6.901150106952727" rx="4" ry="4" fill="black" />
    <rect width="8" height="102.28203946844216" x="836" y="23.858980265778918" rx="4" ry="4" fill="black" />
    <rect width="8" height="108.5304634670124" x="852" y="20.734768266493802" rx="4" ry="4" fill="black" />
    <rect width="8" height="104.22083534232983" x="868" y="22.889582328835083" rx="4" ry="4" fill="black" />
    <rect width="8" height="113.9848860418335" x="884" y="18.007556979083247" rx="4" ry="4" fill="black" />
    <rect width="8" height="98.9955396940833" x="900" y="25.502230152958347" rx="4" ry="4" fill="black" />
    <rect width="8" height="107.72530076716725" x="916" y="21.137349616416373" rx="4" ry="4" fill="black" />
    <rect width="8" height="94.17836686279321" x="932" y="27.910816568603394" rx="4" ry="4" fill="black" />
    <rect width="8" height="102.04724509834595" x="948" y="23.976377450827023" rx="4" ry="4" fill="black" />
    <rect width="8" height="100.26817067988407" x="964" y="24.865914660057967" rx="4" ry="4" fill="black" />
    <rect width="8" height="111.11122088951201" x="980" y="19.444389555243994" rx="4" ry="4" fill="black" />
    <rect width="8" height="96.22550269202709" x="996" y="26.887248653986454" rx="4" ry="4" fill="black" />
    <rect width="8" height="103.44758018782358" x="1012" y="23.276209906088212" rx="4" ry="4" fill="black" />
    <rect width="8" height="112.41665406353937" x="1028" y="18.791672968230316" rx="4" ry="4" fill="black" />
    <rect width="8" height="89.86691084858334" x="1044" y="30.066544575708328" rx="4" ry="4" fill="black" />
    <rect width="8" height="91.21637605010206" x="1060" y="29.391811974948972" rx="4" ry="4" fill="black" />
    <rect width="8" height="91.58395606613993" x="1076" y="29.208021966930033" rx="4" ry="4" fill="black" />
    <rect width="8" height="97.2035903691871" x="1092" y="26.39820481540645" rx="4" ry="4" fill="black" />
    <rect width="8" height="89.71732976292468" x="1108" y="30.14133511853766" rx="4" ry="4" fill="black" />
    <rect width="8" height="110.55832490932515" x="1124" y="19.720837545337425" rx="4" ry="4" fill="black" />
    <rect width="8" height="106.69002943767892" x="1140" y="21.654985281160542" rx="4" ry="4" fill="black" />
    <rect width="8" height="110.79780356616841" x="1156" y="19.601098216915794" rx="4" ry="4" fill="black" />
    <rect width="8" height="61.89957760586342" x="1172" y="44.05021119706829" rx="4" ry="4" fill="black" />
    <rect width="8" height="94.29351354583265" x="1188" y="27.853243227083674" rx="4" ry="4" fill="black" />
    <rect width="8" height="65.00837071773043" x="1204" y="42.495814641134785" rx="4" ry="4" fill="black" />
    <rect width="8" height="112.32245626796401" x="1220" y="18.838771866017993" rx="4" ry="4" fill="black" />
    <rect width="8" height="90.32666550285303" x="1236" y="29.836667248573484" rx="4" ry="4" fill="black" />
    <rect width="8" height="119.39329637773223" x="1252" y="15.303351811133886" rx="4" ry="4" fill="black" />
    <rect width="8" height="100.89384475007786" x="1268" y="24.55307762496107" rx="4" ry="4" fill="black" />
    <rect width="8" height="105.40593343259768" x="1284" y="22.29703328370116" rx="4" ry="4" fill="black" />
    <rect width="8" height="124.79811933965146" x="1300" y="12.600940330174268" rx="4" ry="4" fill="black" />
    <rect width="8" height="92.97321240860612" x="1316" y="28.513393795696942" rx="4" ry="4" fill="black" />
    <rect width="8" height="82.81182970740798" x="1332" y="33.59408514629601" rx="4" ry="4" fill="black" />
    <rect width="8" height="101.85061403488764" x="1348" y="24.07469298255618" rx="4" ry="4" fill="black" />
    <rect width="8" height="99.0482708534757" x="1364" y="25.47586457326215" rx="4" ry="4" fill="black" />
    <rect width="8" height="105.99133411149873" x="1380" y="22.004332944250635" rx="4" ry="4" fill="black" />
    <rect width="8" height="110.93835861386506" x="1396" y="19.53082069306747" rx="4" ry="4" fill="black" />
    <rect width="8" height="99.57653254662253" x="1412" y="25.211733726688735" rx="4" ry="4" fill="black" />
    <rect width="8" height="124.88205589187291" x="1428" y="12.558972054063545" rx="4" ry="4" fill="black" />
    <rect width="8" height="120.11329034105155" x="1444" y="14.943354829474224" rx="4" ry="4" fill="black" />
    <rect width="8" height="134.925273557862" x="1460" y="7.5373632210690005" rx="4" ry="4" fill="black" />
    <rect width="8" height="127.78703902079727" x="1476" y="11.106480489601367" rx="4" ry="4" fill="black" />
    <rect width="8" height="144.5726509744346" x="1492" y="2.7136745127827027" rx="4" ry="4" fill="black" />
    <rect width="8" height="124.16580668777176" x="1508" y="12.917096656114119" rx="4" ry="4" fill="black" />
    <rect width="8" height="130.95177184048976" x="1524" y="9.524114079755122" rx="4" ry="4" fill="black" />
    <rect width="8" height="140.29183907699093" x="1540" y="4.854080461504537" rx="4" ry="4" fill="black" />
    <rect width="8" height="132.41198460108131" x="1556" y="8.794007699459343" rx="4" ry="4" fill="black" />
    <rect width="8" height="120.34951870372268" x="1572" y="14.82524064813866" rx="4" ry="4" fill="black" />
    <rect width="8" height="123.82681822019357" x="1588" y="13.086590889903214" rx="4" ry="4" fill="black" />
    <rect width="8" height="120.49854383866776" x="1604" y="14.750728080666121" rx="4" ry="4" fill="black" />
    <rect width="8" height="134.74323118180993" x="1620" y="7.628384409095034" rx="4" ry="4" fill="black" />
    <rect width="8" height="127.51468685826399" x="1636" y="11.242656570868007" rx="4" ry="4" fill="black" />
    <rect width="8" height="117.3509976962914" x="1652" y="16.3245011518543" rx="4" ry="4" fill="black" />
    <rect width="8" height="122.9727612512321" x="1668" y="13.51361937438395" rx="4" ry="4" fill="black" />
    <rect width="8" height="110.98525646448171" x="1684" y="19.507371767759146" rx="4" ry="4" fill="black" />
    <rect width="8" height="125.12865534193098" x="1700" y="12.43567232903451" rx="4" ry="4" fill="black" />
    <rect width="8" height="122.72880673430029" x="1716" y="13.635596632849854" rx="4" ry="4" fill="black" />
    <rect width="8" height="134.95399085860865" x="1732" y="7.523004570695676" rx="4" ry="4" fill="black" />
    <rect width="8" height="140.3347883993142" x="1748" y="4.832605800342904" rx="4" ry="4" fill="black" />
    <rect width="8" height="147.9733533829416" x="1764" y="1.0133233085291948" rx="4" ry="4" fill="black" />
    <rect width="8" height="132.86760083420182" x="1780" y="8.566199582899088" rx="4" ry="4" fill="black" />
    <rect width="8" height="150" x="1796" y="0" rx="4" ry="4" fill="black" />
    <rect width="8" height="134.40455695531077" x="1812" y="7.797721522344617" rx="4" ry="4" fill="black" />
    <rect width="8" height="138.44021632838792" x="1828" y="5.7798918358060405" rx="4" ry="4" fill="black" />
    <rect width="8" height="129.77215636087578" x="1844" y="10.113921819562108" rx="4" ry="4" fill="black" />
    <rect width="8" height="133.84319171166024" x="1860" y="8.07840414416988" rx="4" ry="4" fill="black" />
    <rect width="8" height="121.79289472100018" x="1876" y="14.10355263949991" rx="4" ry="4" fill="black" />
    <rect width="8" height="133.23638671219845" x="1892" y="8.381806643900774" rx="4" ry="4" fill="black" />
    <rect width="8" height="124.4505915427701" x="1908" y="12.77470422861495" rx="4" ry="4" fill="black" />
    <rect width="8" height="120.40197171242939" x="1924" y="14.799014143785307" rx="4" ry="4" fill="black" />
    <rect width="8" height="125.76537896377279" x="1940" y="12.117310518113605" rx="4" ry="4" fill="black" />
    <rect width="8" height="109.97719204869827" x="1956" y="20.011403975650865" rx="4" ry="4" fill="black" />
    <rect width="8" height="128.25138967112383" x="1972" y="10.874305164438084" rx="4" ry="4" fill="black" />
    <rect width="8" height="100.17690977048484" x="1988" y="24.91154511475758" rx="4" ry="4" fill="black" />
    <rect width="8" height="124.64018815446127" x="2004" y="12.679905922769365" rx="4" ry="4" fill="black" />
    <rect width="8" height="104.39111591927289" x="2020" y="22.804442040363554" rx="4" ry="4" fill="black" />
    <rect width="8" height="134.46697010088266" x="2036" y="7.766514949558669" rx="4" ry="4" fill="black" />
    <rect width="8" height="119.8430537737854" x="2052" y="15.0784731131073" rx="4" ry="4" fill="black" />
    <rect width="8" height="132.10316259838234" x="2068" y="8.94841870080883" rx="4" ry="4" fill="black" />
    <rect width="8" height="130.94879200352682" x="2084" y="9.52560399823659" rx="4" ry="4" fill="black" />
    <rect width="8" height="134.93534171013" x="2100" y="7.532329144935005" rx="4" ry="4" fill="black" />
    <rect width="8" height="122.54567258802412" x="2116" y="13.727163705987941" rx="4" ry="4" fill="black" />
    <rect width="8" height="133.97077320528737" x="2132" y="8.014613397356314" rx="4" ry="4" fill="black" />
    <rect width="8" height="124.5856143780934" x="2148" y="12.707192810953302" rx="4" ry="4" fill="black" />
    <rect width="8" height="129.14703069243768" x="2164" y="10.42648465378116" rx="4" ry="4" fill="black" />
    <rect width="8" height="124.72919170062444" x="2180" y="12.63540414968778" rx="4" ry="4" fill="black" />
    <rect width="8" height="125.50993958643998" x="2196" y="12.245030206780008" rx="4" ry="4" fill="black" />
    <rect width="8" height="129.15002938620398" x="2212" y="10.424985306898009" rx="4" ry="4" fill="black" />
    <rect width="8" height="116.65533582999166" x="2228" y="16.67233208500417" rx="4" ry="4" fill="black" />
    <rect width="8" height="131.66519972291368" x="2244" y="9.167400138543158" rx="4" ry="4" fill="black" />
    <rect width="8" height="123.06940539240394" x="2260" y="13.465297303798032" rx="4" ry="4" fill="black" />
    <rect width="8" height="118.3438156679052" x="2276" y="15.828092166047398" rx="4" ry="4" fill="black" />
    <rect width="8" height="105.27707270345992" x="2292" y="22.36146364827004" rx="4" ry="4" fill="black" />
    <rect width="8" height="111.93532986006731" x="2308" y="19.032335069966344" rx="4" ry="4" fill="black" />
    <rect width="8" height="95.74797559941324" x="2324" y="27.12601220029338" rx="4" ry="4" fill="black" />
    <rect width="8" height="90.94942369768528" x="2340" y="29.525288151157362" rx="4" ry="4" fill="black" />
    <rect width="8" height="80.76857602323516" x="2356" y="34.61571198838242" rx="4" ry="4" fill="black" />
    <rect width="8" height="95.21290332781204" x="2372" y="27.39354833609398" rx="4" ry="4" fill="black" />
    <rect width="8" height="8" x="2388" y="71" rx="4" ry="4" fill="black" />
  </g>
</svg>