<svg 
  baseProfile="tiny"
  preserveAspectRatio="keep"
  version="1.2"
  viewBox="-2.000000 2.000000 1292.000000 404.000000"
  height="100%" width="100%"
  xmlns="http://www.w3.org/2000/svg"
  xmlns:ev="http://www.w3.org/2001/xml-events"
  xmlns:xlink="http://www.w3.org/1999/xlink"
>
  <g style="transform-origin: center center;">
    <path d="M 0.000000 400.000000 C 3.3333333333333335 384.4909456130879, 6.666666666666666 354.0150131453236, 10 353.4728368392637
 C 13.333333333333334 352.9306605332038, 16.666666666666668 352.6451041528031, 20 352.6451041528031
 C 23.333333333333332 352.6451041528031, 26.666666666666668 361.92536229968346, 30 362.05599013612004
 C 33.333333333333336 362.18661797255663, 36.666666666666664 362.1282605128811, 40 362.2560982937682
 C 43.333333333333336 362.3839360746553, 46.666666666666664 366.8507384282077, 50 366.8507384282077
 C 53.333333333333336 366.8507384282077, 56.666666666666664 348.74490868336744, 60 348.74490868336744
 C 63.333333333333336 348.74490868336744, 66.66666666666667 353.1572398513044, 70 353.1572398513044
 C 73.33333333333333 353.1572398513044, 76.66666666666667 343.89416369967506, 80 343.89416369967506
 C 83.33333333333333 343.89416369967506, 86.66666666666667 354.72796420320344, 90 354.72796420320344
 C 93.33333333333333 354.72796420320344, 96.66666666666667 352.1750735971323, 100 352.1750735971323
 C 103.33333333333333 352.1750735971323, 106.66666666666667 371.9236710019308, 110 371.9236710019308
 C 113.33333333333333 371.9236710019308, 116.66666666666667 362.566392479842, 120 358.6004329067085
 C 123.33333333333333 354.63447333357493, 126.66666666666667 347.8524094883548, 130 347.8524094883548
 C 133.33333333333334 347.8524094883548, 136.66666666666666 349.1398548218742, 140 349.15325165498547
 C 143.33333333333334 349.1666484880967, 146.66666666666666 349.1600720857424, 150 349.17366220430586
 C 153.33333333333334 349.1872523228693, 156.66666666666666 365.5728929929094, 160 365.5728929929094
 C 163.33333333333334 365.5728929929094, 166.66666666666666 349.0072468961072, 170 349.0072468961072
 C 173.33333333333334 349.0072468961072, 176.66666666666666 358.6759892890145, 180 358.6759892890145
 C 183.33333333333334 358.6759892890145, 186.66666666666666 330.98619508750613, 190 330.98619508750613
 C 193.33333333333334 330.98619508750613, 196.66666666666666 332.99568956125887, 200 335.59621776667404
 C 203.33333333333334 338.1967459720892, 206.66666666666666 360.95150674093134, 210 360.95150674093134
 C 213.33333333333334 360.95150674093134, 216.66666666666666 346.09695892653684, 220 346.09695892653684
 C 223.33333333333334 346.09695892653684, 226.66666666666666 347.3691055277934, 230 348.3498958119531
 C 233.33333333333334 349.3306860961128, 236.66666666666666 352.5897189336808, 240 352.5897189336808
 C 243.33333333333334 352.5897189336808, 246.66666666666666 349.1362489992984, 250 349.1362489992984
 C 253.33333333333334 349.1362489992984, 256.6666666666667 349.36908333272225, 260 349.7494659315785
 C 263.3333333333333 350.1298485304348, 266.6666666666667 355.4911732215012, 270 357.9544537750899
 C 273.3333333333333 360.41773432867865, 276.6666666666667 364.6155382773622, 280 364.67647817246166
 C 283.3333333333333 364.7374180675611, 286.6666666666667 364.7691481938264, 290 364.7691481938264
 C 293.3333333333333 364.7691481938264, 296.6666666666667 364.1286927423739, 300 363.3084263155969
 C 303.3333333333333 362.48815988881984, 306.6666666666667 358.82775758890864, 310 355.5051343344877
 C 313.3333333333333 352.1825110800668, 316.6666666666667 341.71081962940514, 320 341.71081962940514
 C 323.3333333333333 341.71081962940514, 326.6666666666667 342.1568119479495, 330 342.69564492231655
 C 333.3333333333333 343.2344778966836, 336.6666666666667 345.4390701283496, 340 347.203535422294
 C 343.3333333333333 348.9680007162384, 346.6666666666667 350.5786494725749, 350 353.6139546162049
 C 353.3333333333333 356.64925975983493, 356.6666666666667 369.32699516456603, 360 369.32699516456603
 C 363.3333333333333 369.32699516456603, 366.6666666666667 360.757456434463, 370 356.35748727185666
 C 373.3333333333333 351.9575181092503, 376.6666666666667 342.91884617179153, 380 342.91884617179153
 C 383.3333333333333 342.91884617179153, 386.6666666666667 343.2762814821429, 390 343.7939459369115
 C 393.3333333333333 344.31161039168006, 396.6666666666667 350.3125170127558, 400 350.68533354591165
 C 403.3333333333333 351.0581500790675, 406.6666666666667 351.2939462698124, 410 351.2939462698124
 C 413.3333333333333 351.2939462698124, 416.6666666666667 343.2285762872062, 420 341.6276817217372
 C 423.3333333333333 340.0267871562682, 426.6666666666667 338.4326022234366, 430 338.4326022234366
 C 433.3333333333333 338.4326022234366, 436.6666666666667 342.7437579241909, 440 343.49220628531083
 C 443.3333333333333 344.24065464643076, 446.6666666666667 344.10399252789523, 450 344.9350250193685
 C 453.3333333333333 345.76605751084173, 456.6666666666667 354.0986460508464, 460 354.0986460508464
 C 463.3333333333333 354.0986460508464, 466.6666666666667 340.0133659685487, 470 339.8160719189146
 C 473.3333333333333 339.61877786928045, 476.6666666666667 339.5138690715844, 480 339.5138690715844
 C 483.3333333333333 339.5138690715844, 486.6666666666667 350.7805267938207, 490 350.7805267938207
 C 493.3333333333333 350.7805267938207, 496.6666666666667 340.7257284314109, 500 340.7257284314109
 C 503.3333333333333 340.7257284314109, 506.6666666666667 353.3467669628292, 510 353.3467669628292
 C 513.3333333333334 353.3467669628292, 516.6666666666666 348.98481015057297, 520 348.98481015057297
 C 523.3333333333334 348.98481015057297, 526.6666666666666 353.5444240471721, 530 353.5444240471721
 C 533.3333333333334 353.5444240471721, 536.6666666666666 349.863805589281, 540 349.863805589281
 C 543.3333333333334 349.863805589281, 546.6666666666666 352.237631798106, 550 352.237631798106
 C 553.3333333333334 352.237631798106, 556.6666666666666 334.93538423111954, 560 334.93538423111954
 C 563.3333333333334 334.93538423111954, 566.6666666666666 344.5881135446925, 570 344.5881135446925
 C 573.3333333333334 344.5881135446925, 576.6666666666666 342.9060374519983, 580 342.9060374519983
 C 583.3333333333334 342.9060374519983, 586.6666666666666 350.8266393743268, 590 350.8266393743268
 C 593.3333333333334 350.8266393743268, 596.6666666666666 347.15366099641557, 600 347.15366099641557
 C 603.3333333333334 347.15366099641557, 606.6666666666666 358.54669900271114, 610 358.54669900271114
 C 613.3333333333334 358.54669900271114, 616.6666666666666 333.32277000804, 620 333.32277000804
 C 623.3333333333334 333.32277000804, 626.6666666666666 336.44995144135834, 630 338.4744981197746
 C 633.3333333333334 340.4990447981908, 636.6666666666666 343.03370852968993, 640 345.87192172349677
 C 643.3333333333334 348.7101349173036, 646.6666666666666 355.90127100102455, 650 355.90127100102455
 C 653.3333333333334 355.90127100102455, 656.6666666666666 355.0196177012766, 660 353.88636098973836
 C 663.3333333333334 352.7531042782001, 666.6666666666666 345.5766868743853, 670 343.0138396049434
 C 673.3333333333334 340.45099233550155, 676.6666666666666 337.0668521249674, 680 337.0668521249674
 C 683.3333333333334 337.0668521249674, 686.6666666666666 342.1507199622638, 690 345.1356762320405
 C 693.3333333333334 348.1206325018172, 696.6666666666666 355.19518902676083, 700 355.19518902676083
 C 703.3333333333334 355.19518902676083, 706.6666666666666 353.21410226638966, 710 351.1963926572185
 C 713.3333333333334 349.17868304804733, 716.6666666666666 341.08966558140276, 720 338.7481135013073
 C 723.3333333333334 336.4065614212118, 726.6666666666666 333.8552441523491, 730 333.8552441523491
 C 733.3333333333334 333.8552441523491, 736.6666666666666 350.94920699512755, 740 350.94920699512755
 C 743.3333333333334 350.94920699512755, 746.6666666666666 346.277948366456, 750 346.277948366456
 C 753.3333333333334 346.277948366456, 756.6666666666666 356.43807337053926, 760 356.43807337053926
 C 763.3333333333334 356.43807337053926, 766.6666666666666 351.58325206072726, 770 349.6530728464063
 C 773.3333333333334 347.72289363208534, 776.6666666666666 346.71066290029904, 780 344.60275010618597
 C 783.3333333333334 342.4948373120729, 786.6666666666666 339.6121036701413, 790 336.1469107312686
 C 793.3333333333334 332.68171779239583, 796.6666666666666 322.65673323498413, 800 322.65673323498413
 C 803.3333333333334 322.65673323498413, 806.6666666666666 346.9400925404036, 810 350.59326516614664
 C 813.3333333333334 354.24643779188966, 816.6666666666666 357.4101600340993, 820 357.4101600340993
 C 823.3333333333334 357.4101600340993, 826.6666666666666 351.10231567796717, 830 347.5036297578846
 C 833.3333333333334 343.904943837802, 836.6666666666666 335.77105896245814, 840 335.6425407097154
 C 843.3333333333334 335.5140224569726, 846.6666666666666 335.44657836957583, 850 335.44657836957583
 C 853.3333333333334 335.44657836957583, 856.6666666666666 347.51670054696325, 860 347.51670054696325
 C 863.3333333333334 347.51670054696325, 866.6666666666666 346.8467872757521, 870 346.12340904892375
 C 873.3333333333334 345.4000308220954, 876.6666666666666 343.3200298041781, 880 341.2184881927327
 C 883.3333333333334 339.1169465812873, 886.6666666666666 332.3962991766752, 890 332.3962991766752
 C 893.3333333333334 332.3962991766752, 896.6666666666666 356.8731972960565, 900 356.8731972960565
 C 903.3333333333334 356.8731972960565, 906.6666666666666 354.8738781704259, 910 353.399661095812
 C 913.3333333333334 351.92544402119813, 916.6666666666666 350.249706398429, 920 347.31421098582973
 C 923.3333333333334 344.37871557323047, 926.6666666666666 333.17184174233256, 930 331.38530540868413
 C 933.3333333333334 329.5987690750357, 936.6666666666666 328.1634752931003, 940 328.1634752931003
 C 943.3333333333334 328.1634752931003, 946.6666666666666 349.043528323999, 950 349.043528323999
 C 953.3333333333334 349.043528323999, 956.6666666666666 334.7531250613185, 960 332.52059092796253
 C 963.3333333333334 330.2880567946066, 966.6666666666666 328.3205407875425, 970 328.3205407875425
 C 973.3333333333334 328.3205407875425, 976.6666666666666 336.3491721343616, 980 336.3491721343616
 C 983.3333333333334 336.3491721343616, 986.6666666666666 331.44649921261157, 990 328.93295617130724
 C 993.3333333333334 326.4194131300029, 996.6666666666666 321.2636683974531, 1000 321.2636683974531
 C 1003.3333333333334 321.2636683974531, 1006.6666666666666 336.39641244713204, 1010 336.39641244713204
 C 1013.3333333333334 336.39641244713204, 1016.6666666666666 321.2684823379843, 1020 321.2684823379843
 C 1023.3333333333334 321.2684823379843, 1026.6666666666667 325.7483358595039, 1030 327.03061425682495
 C 1033.3333333333333 328.31289265414597, 1036.6666666666667 329.57213187905785, 1040 329.9177751630343
 C 1043.3333333333333 330.2634184470108, 1046.6666666666667 330.16797827682467, 1050 330.54972273164185
 C 1053.3333333333333 330.93146718645903, 1056.6666666666667 334.80301164215035, 1060 336.6488010051144
 C 1063.3333333333333 338.4945903680785, 1066.6666666666667 341.3484990205223, 1070 341.7191979432354
 C 1073.3333333333333 342.08989686594845, 1076.6666666666667 342.0990844329109, 1080 342.3437367864984
 C 1083.3333333333333 342.58838914008595, 1086.6666666666667 343.2335957259534, 1090 343.2335957259534
 C 1093.3333333333333 343.2335957259534, 1096.6666666666667 336.8330051808843, 1100 336.8330051808843
 C 1103.3333333333333 336.8330051808843, 1106.6666666666667 339.2613918533517, 1110 340.0418285759171
 C 1113.3333333333333 340.82226529848253, 1116.6666666666667 341.45520340280586, 1120 341.88486842692055
 C 1123.3333333333333 342.31453345103523, 1126.6666666666667 342.87593451473373, 1130 342.87593451473373
 C 1133.3333333333333 342.87593451473373, 1136.6666666666667 340.81518440426646, 1140 340.81518440426646
 C 1143.3333333333333 340.81518440426646, 1146.6666666666667 348.2239289329747, 1150 348.2239289329747
 C 1153.3333333333333 348.2239289329747, 1156.6666666666667 343.87266348903125, 1160 340.4663220324364
 C 1163.3333333333333 337.0599805758415, 1166.6666666666667 325.4979801715085, 1170 325.4979801715085
 C 1173.3333333333333 325.4979801715085, 1176.6666666666667 332.78931880653715, 1180 336.0934934247539
 C 1183.3333333333333 339.3976680429706, 1186.6666666666667 344.91694525422486, 1190 345.4057471092371
 C 1193.3333333333333 345.89454896424934, 1196.6666666666667 346.2016125716295, 1200 346.2016125716295
 C 1203.3333333333333 346.2016125716295, 1206.6666666666667 334.38233167680994, 1210 334.38233167680994
 C 1213.3333333333333 334.38233167680994, 1216.6666666666667 345.2607643187138, 1220 345.2607643187138
 C 1223.3333333333333 345.2607643187138, 1226.6666666666667 328.5146036967242, 1230 328.5146036967242
 C 1233.3333333333333 328.5146036967242, 1236.6666666666667 333.1071784903143, 1240 334.1524779378051
 C 1243.3333333333333 335.19777738529586, 1246.6666666666667 335.0436174157587, 1250 336.324483587082
 C 1253.3333333333333 337.6053497584053, 1256.6666666666667 347.3098057674896, 1260 352.96974261686626
 C 1263.3333333333333 358.6296794662429, 1266.6666666666667 370.2978287622454, 1270 370.2978287622454
 C 1273.3333333333333 370.2978287622454, 1276.6666666666667 369.3064959831149, 1280 369.3064959831149
 C 1283.3333333333333 369.3064959831149, 1286.6666666666667 389.7688319943716, 1290 400
" fill="transparent" stroke="white" stroke-width="2" />
  </g>
</svg>