<svg 
  baseProfile="tiny"
  preserveAspectRatio="keep"
  version="1.2"
  viewBox="-2.000000 2.000000 1292.000000 404.000000"
  height="100%" width="100%"
  xmlns="http://www.w3.org/2000/svg"
  xmlns:ev="http://www.w3.org/2001/xml-events"
  xmlns:xlink="http://www.w3.org/1999/xlink"
>
  <g style="transform-origin: center center;">
    <path d="M 0.000000 400.000000 C 3.3333333333333335 391.05532969612347, 6.666666666666666 379.3807596975061, 10 373.1659890883704
 C 13.333333333333334 366.9512184792347, 16.666666666666668 358.8813325778031, 20 358.8813325778031
 C 23.333333333333332 358.8813325778031, 26.666666666666668 369.2460374045213, 30 371.9304818032311
 C 33.333333333333336 374.6149262019409, 36.666666666666664 377.7542196245527, 40 377.7542196245527
 C 43.333333333333336 377.7542196245527, 46.666666666666664 363.0443630605938, 50 363.0443630605938
 C 53.333333333333336 363.0443630605938, 56.666666666666664 365.88077525098475, 60 365.88077525098475
 C 63.333333333333336 365.88077525098475, 66.66666666666667 362.97873309704335, 70 360.40982340959164
 C 73.33333333333333 357.84091372213993, 76.66666666666667 347.3770976678226, 80 347.3770976678226
 C 83.33333333333333 347.3770976678226, 86.66666666666667 367.1715320309193, 90 367.1715320309193
 C 93.33333333333333 367.1715320309193, 96.66666666666667 344.1244189286996, 100 344.1244189286996
 C 103.33333333333333 344.1244189286996, 106.66666666666667 346.32084550869297, 110 346.4296518711467
 C 113.33333333333333 346.5384582336004, 116.66666666666667 346.4974889391493, 120 346.60529701901527
 C 123.33333333333333 346.7131050988812, 126.66666666666667 348.6439026295314, 130 348.6439026295314
 C 133.33333333333334 348.6439026295314, 136.66666666666666 342.1292710781996, 140 337.0701588396351
 C 143.33333333333334 332.0110466010706, 146.66666666666666 315.0306002973166, 150 315.0306002973166
 C 153.33333333333334 315.0306002973166, 156.66666666666666 316.2893162108262, 160 317.5119028191767
 C 163.33333333333334 318.73448942752725, 166.66666666666666 322.8639696124246, 170 324.5404044286853
 C 173.33333333333334 326.21683924494596, 176.66666666666666 328.45596201568844, 180 328.45596201568844
 C 183.33333333333334 328.45596201568844, 186.66666666666666 326.1051994876331, 190 324.0171066797467
 C 193.33333333333334 321.92901387186026, 196.66666666666666 314.3445679662337, 200 313.3773720068553
 C 203.33333333333334 312.4101760474769, 206.66666666666666 311.6975197775446, 210 311.6975197775446
 C 213.33333333333334 311.6975197775446, 216.66666666666666 334.633925937405, 220 334.633925937405
 C 223.33333333333334 334.633925937405, 226.66666666666666 332.2950479954445, 230 329.4532234716815
 C 233.33333333333334 326.6113989479185, 236.66666666666666 305.3957108049577, 240 305.3957108049577
 C 243.33333333333334 305.3957108049577, 246.66666666666666 316.2738449204155, 250 316.2738449204155
 C 253.33333333333334 316.2738449204155, 256.6666666666667 307.5762854001632, 260 303.68378558576956
 C 263.3333333333333 299.7912857713759, 266.6666666666667 294.2551349708368, 270 292.79549729088535
 C 273.3333333333333 291.3358596109339, 276.6666666666667 290.0549644912154, 280 290.0549644912154
 C 283.3333333333333 290.0549644912154, 286.6666666666667 293.19719694794026, 290 295.66062654222674
 C 293.3333333333333 298.1240561365132, 296.6666666666667 303.1409707209639, 300 306.50257327020466
 C 303.3333333333333 309.86417581944545, 306.6666666666667 315.92908748746265, 310 315.92908748746265
 C 313.3333333333333 315.92908748746265, 316.6666666666667 306.46339447155975, 320 301.4672906503928
 C 323.3333333333333 296.4711868292258, 326.6666666666667 285.9126781180114, 330 285.9126781180114
 C 333.3333333333333 285.9126781180114, 336.6666666666667 291.1599523853181, 340 293.91652531726766
 C 343.3333333333333 296.6730982492172, 346.6666666666667 297.8104189101016, 350 302.4703860453894
 C 353.3333333333333 307.13035318067716, 356.6666666666667 340.7021665482672, 360 340.7021665482672
 C 363.3333333333333 340.7021665482672, 366.6666666666667 305.372847446789, 370 304.58659644551585
 C 373.3333333333333 303.8003454442427, 376.6666666666667 303.5195852131577, 380 303.36740653550703
 C 383.3333333333333 303.21522785785635, 386.6666666666667 303.08655487173655, 390 303.08655487173655
 C 393.3333333333333 303.08655487173655, 396.6666666666667 303.15963281974473, 400 303.3027599846756
 C 403.3333333333333 303.4458871496065, 406.6666666666667 333.954036692623, 410 333.954036692623
 C 413.3333333333333 333.954036692623, 416.6666666666667 299.80809090040395, 420 299.80809090040395
 C 423.3333333333333 299.80809090040395, 426.6666666666667 299.9641792394985, 430 299.9641792394985
 C 433.3333333333333 299.9641792394985, 436.6666666666667 285.8970315263217, 440 285.8970315263217
 C 443.3333333333333 285.8970315263217, 446.6666666666667 331.7047099403893, 450 331.7047099403893
 C 453.3333333333333 331.7047099403893, 456.6666666666667 315.9735081974301, 460 314.6923054521421
 C 463.3333333333333 313.4111027068541, 466.6666666666667 313.8833658679452, 470 312.5257575216998
 C 473.3333333333333 311.1681491754544, 476.6666666666667 278.6227230367338, 480 278.6227230367338
 C 483.3333333333333 278.6227230367338, 486.6666666666667 288.45005402075293, 490 293.10181033061843
 C 493.3333333333333 297.75356664048394, 496.6666666666667 306.56983856761485, 500 306.56983856761485
 C 503.3333333333333 306.56983856761485, 506.6666666666667 299.58051870329274, 510 299.58051870329274
 C 513.3333333333334 299.58051870329274, 516.6666666666666 320.6575495753685, 520 320.6575495753685
 C 523.3333333333334 320.6575495753685, 526.6666666666666 293.43464547028714, 530 293.43464547028714
 C 533.3333333333334 293.43464547028714, 536.6666666666666 299.4412497914681, 540 301.9115507061273
 C 543.3333333333334 304.38185162078645, 546.6666666666666 308.49460925235576, 550 308.49460925235576
 C 553.3333333333334 308.49460925235576, 556.6666666666666 308.4117578251642, 560 308.4117578251642
 C 563.3333333333334 308.4117578251642, 566.6666666666666 320.5909222364445, 570 320.5909222364445
 C 573.3333333333334 320.5909222364445, 576.6666666666666 317.8861047267247, 580 315.40884347250363
 C 583.3333333333334 312.9315822182826, 586.6666666666666 307.41380788807373, 590 302.27542601000386
 C 593.3333333333334 297.137044131934, 596.6666666666666 283.6190180135889, 600 283.6190180135889
 C 603.3333333333334 283.6190180135889, 606.6666666666666 293.0482983090747, 610 297.3172338298823
 C 613.3333333333334 301.5861693506899, 616.6666666666666 307.87633029464064, 620 309.34155929170305
 C 623.3333333333334 310.80678828876546, 626.6666666666666 312.03098421468087, 630 312.03098421468087
 C 633.3333333333334 312.03098421468087, 636.6666666666666 291.1135622041964, 640 286.74517871100534
 C 643.3333333333334 282.3767952178143, 646.6666666666666 277.90062063279555, 650 277.90062063279555
 C 653.3333333333334 277.90062063279555, 656.6666666666666 300.87407838200363, 660 301.321704154995
 C 663.3333333333334 301.7693299279864, 666.6666666666666 301.5699976099655, 670 302.0129598215683
 C 673.3333333333334 302.4559220331711, 676.6666666666666 319.1431338833704, 680 319.1431338833704
 C 683.3333333333334 319.1431338833704, 686.6666666666666 297.1910505727611, 690 297.1910505727611
 C 693.3333333333334 297.1910505727611, 696.6666666666666 297.38649224378554, 700 297.68244316059787
 C 703.3333333333334 297.9783940774102, 706.6666666666666 302.27817806959143, 710 302.27817806959143
 C 713.3333333333334 302.27817806959143, 716.6666666666666 300.0057289141251, 720 300.0057289141251
 C 723.3333333333334 300.0057289141251, 726.6666666666666 310.79056058810284, 730 310.79056058810284
 C 733.3333333333334 310.79056058810284, 736.6666666666666 291.0722070508856, 740 291.0722070508856
 C 743.3333333333334 291.0722070508856, 746.6666666666666 302.45641550034986, 750 302.45641550034986
 C 753.3333333333334 302.45641550034986, 756.6666666666666 282.2048774442414, 760 282.2048774442414
 C 763.3333333333334 282.2048774442414, 766.6666666666666 287.3507510124918, 770 290.4169522839901
 C 773.3333333333334 293.4831535554884, 776.6666666666666 297.03103035006166, 780 300.8714735557615
 C 783.3333333333334 304.71191676146134, 786.6666666666666 313.7020731389438, 790 313.7020731389438
 C 793.3333333333334 313.7020731389438, 796.6666666666666 304.2300192423959, 800 299.9826421808378
 C 803.3333333333334 295.7352651192797, 806.6666666666666 288.0878342646708, 810 288.0878342646708
 C 813.3333333333334 288.0878342646708, 816.6666666666666 292.65819676922774, 820 293.7064650022935
 C 823.3333333333334 294.75473323535925, 826.6666666666666 294.52249852157763, 830 295.8899176713307
 C 833.3333333333334 297.25733682108375, 836.6666666666666 329.7352093030147, 840 329.7352093030147
 C 843.3333333333334 329.7352093030147, 846.6666666666666 301.59856333905975, 850 297.74617350420385
 C 853.3333333333334 293.89378366934795, 856.6666666666666 290.6935915330224, 860 290.6935915330224
 C 863.3333333333334 290.6935915330224, 866.6666666666666 291.3428257519072, 870 292.1584024807809
 C 873.3333333333334 292.97397920965466, 876.6666666666666 295.58499345018635, 880 299.5803505025615
 C 883.3333333333334 303.5757075549366, 886.6666666666666 330.70891878390967, 890 330.70891878390967
 C 893.3333333333334 330.70891878390967, 896.6666666666666 295.3932578937524, 900 295.3932578937524
 C 903.3333333333334 295.3932578937524, 906.6666666666666 295.40186559282347, 910 295.40186559282347
 C 913.3333333333334 295.40186559282347, 916.6666666666666 281.3780547438971, 920 281.3780547438971
 C 923.3333333333334 281.3780547438971, 926.6666666666666 297.5778209723247, 930 300.57171221578136
 C 933.3333333333334 303.56560345923805, 936.6666666666666 306.4342325347191, 940 306.4342325347191
 C 943.3333333333334 306.4342325347191, 946.6666666666666 305.04483811483465, 950 303.73920955127494
 C 953.3333333333334 302.43358098771523, 956.6666666666666 298.3176628579549, 960 296.5735961890501
 C 963.3333333333334 294.8295295201453, 966.6666666666666 292.45316403240315, 970 292.45316403240315
 C 973.3333333333334 292.45316403240315, 976.6666666666666 301.7987754064619, 980 301.7987754064619
 C 983.3333333333334 301.7987754064619, 986.6666666666666 295.0015659960985, 990 295.0015659960985
 C 993.3333333333334 295.0015659960985, 996.6666666666666 323.70921856424496, 1000 323.70921856424496
 C 1003.3333333333334 323.70921856424496, 1006.6666666666666 280.9790895928855, 1010 280.9790895928855
 C 1013.3333333333334 280.9790895928855, 1016.6666666666666 293.85040593636256, 1020 302.8372551401364
 C 1023.3333333333334 311.8241043439102, 1026.6666666666667 338.0076853097766, 1030 338.0076853097766
 C 1033.3333333333333 338.0076853097766, 1036.6666666666667 329.44650383696927, 1040 326.49511858736554
 C 1043.3333333333333 323.5437333377618, 1046.6666666666667 319.30196219297636, 1050 319.30196219297636
 C 1053.3333333333333 319.30196219297636, 1056.6666666666667 331.95686957339154, 1060 331.95686957339154
 C 1063.3333333333333 331.95686957339154, 1066.6666666666667 329.721247045079, 1070 329.721247045079
 C 1073.3333333333333 329.721247045079, 1076.6666666666667 332.542048138004, 1080 332.542048138004
 C 1083.3333333333333 332.542048138004, 1086.6666666666667 332.3140148803087, 1090 331.8863462039421
 C 1093.3333333333333 331.45867752757545, 1096.6666666666667 302.26192534633753, 1100 302.26192534633753
 C 1103.3333333333333 302.26192534633753, 1106.6666666666667 303.0372609487465, 1110 304.0371237546457
 C 1113.3333333333333 305.03698656054485, 1116.6666666666667 309.93275907209227, 1120 313.70448648028275
 C 1123.3333333333333 317.47621388847324, 1126.6666666666667 327.34466121085626, 1130 327.34466121085626
 C 1133.3333333333333 327.34466121085626, 1136.6666666666667 322.6645907713835, 1140 322.6645907713835
 C 1143.3333333333333 322.6645907713835, 1146.6666666666667 335.83001105707524, 1150 335.83001105707524
 C 1153.3333333333333 335.83001105707524, 1156.6666666666667 327.9788165255022, 1160 327.9788165255022
 C 1163.3333333333333 327.9788165255022, 1166.6666666666667 336.17670855671224, 1170 338.2819655648266
 C 1173.3333333333333 340.3872225729409, 1176.6666666666667 342.835494620457, 1180 342.835494620457
 C 1183.3333333333333 342.835494620457, 1186.6666666666667 318.5671658844702, 1190 318.5671658844702
 C 1193.3333333333333 318.5671658844702, 1196.6666666666667 328.51187457749677, 1200 328.51187457749677
 C 1203.3333333333333 328.51187457749677, 1206.6666666666667 326.6642426757552, 1210 326.6642426757552
 C 1213.3333333333333 326.6642426757552, 1216.6666666666667 329.0608200045027, 1220 331.01316942819
 C 1223.3333333333333 332.9655188518773, 1226.6666666666667 335.353096181614, 1230 339.97959683869584
 C 1233.3333333333333 344.6060974957777, 1236.6666666666667 370.68246222736434, 1240 370.68246222736434
 C 1243.3333333333333 370.68246222736434, 1246.6666666666667 359.0860474179007, 1250 359.0860474179007
 C 1253.3333333333333 359.0860474179007, 1256.6666666666667 387.03187940538743, 1260 387.03187940538743
 C 1263.3333333333333 387.03187940538743, 1266.6666666666667 386.63739123535737, 1270 386.30420111099744
 C 1273.3333333333333 385.9710109866375, 1276.6666666666667 384.7083527962603, 1280 384.7083527962603
 C 1283.3333333333333 384.7083527962603, 1286.6666666666667 394.9027842654201, 1290 400
" fill="transparent" stroke="white" stroke-width="2" />
  </g>
</svg>