<svg 
  baseProfile="tiny"
  preserveAspectRatio="keep"
  version="1.2"
  viewBox="-2.000000 2.000000 1292.000000 404.000000"
  height="100%" width="100%"
  xmlns="http://www.w3.org/2000/svg"
  xmlns:ev="http://www.w3.org/2001/xml-events"
  xmlns:xlink="http://www.w3.org/1999/xlink"
>
  <g style="transform-origin: center center;">
    <path d="M 0.000000 400.000000 C 3.3333333333333335 390.9918807332175, 6.666666666666666 372.97564219965255, 10 372.97564219965255
 C 13.333333333333334 372.97564219965255, 16.666666666666668 373.7497516234367, 20 374.3899185863163
 C 23.333333333333332 375.0300855491959, 26.666666666666668 377.3810682146217, 30 377.3810682146217
 C 33.333333333333336 377.3810682146217, 36.666666666666664 363.8935027003811, 40 359.39776971146523
 C 43.333333333333336 354.9020367225494, 46.666666666666664 349.1804253156376, 50 348.60814249086144
 C 53.333333333333336 348.0358596660853, 56.666666666666664 347.6755185648801, 60 347.6755185648801
 C 63.333333333333336 347.6755185648801, 66.66666666666667 352.1674700325031, 70 354.9563242482186
 C 73.33333333333333 357.7451784639341, 76.66666666666667 364.7892278506247, 80 364.7892278506247
 C 83.33333333333333 364.7892278506247, 86.66666666666667 356.76713662731896, 90 351.8260256601035
 C 93.33333333333333 346.884914692888, 96.66666666666667 334.5192955451045, 100 334.5192955451045
 C 103.33333333333333 334.5192955451045, 106.66666666666667 343.8908098979249, 110 348.1356335130497
 C 113.33333333333333 352.3804571281745, 116.66666666666667 360.0955180498597, 120 360.0955180498597
 C 123.33333333333333 360.0955180498597, 126.66666666666667 354.8985135142154, 130 350.39605691242184
 C 133.33333333333334 345.8936003106283, 136.66666666666666 328.1584193500565, 140 328.1584193500565
 C 143.33333333333334 328.1584193500565, 146.66666666666666 341.61118979228434, 150 345.92282552747247
 C 153.33333333333334 350.2344612626606, 156.66666666666666 353.3273174721954, 160 356.0928666933875
 C 163.33333333333334 358.85841591457967, 166.66666666666666 363.09894515870127, 170 363.09894515870127
 C 173.33333333333334 363.09894515870127, 176.66666666666666 343.05684083725663, 180 342.6586150018384
 C 183.33333333333334 342.2603891664202, 186.66666666666666 342.04329440420355, 190 342.04329440420355
 C 193.33333333333334 342.04329440420355, 196.66666666666666 349.39329040463207, 200 351.55386844575736
 C 203.33333333333334 353.71444648688265, 206.66666666666666 354.2177593555963, 210 356.46996839237335
 C 213.33333333333334 358.7221774291504, 216.66666666666666 367.2699905414423, 220 367.2699905414423
 C 223.33333333333334 367.2699905414423, 226.66666666666666 337.9984154470675, 230 337.9984154470675
 C 233.33333333333334 337.9984154470675, 236.66666666666666 340.6865521561779, 240 340.6865521561779
 C 243.33333333333334 340.6865521561779, 246.66666666666666 324.4917271520494, 250 324.4917271520494
 C 253.33333333333334 324.4917271520494, 256.6666666666667 359.0265314635909, 260 359.0265314635909
 C 263.3333333333333 359.0265314635909, 266.6666666666667 337.0691565059768, 270 337.0691565059768
 C 273.3333333333333 337.0691565059768, 276.6666666666667 353.68646673937025, 280 353.7605624960015
 C 283.3333333333333 353.8346582526328, 286.6666666666667 353.8724511678679, 290 353.8724511678679
 C 293.3333333333333 353.8724511678679, 296.6666666666667 318.68129517125254, 300 318.68129517125254
 C 303.3333333333333 318.68129517125254, 306.6666666666667 340.2635941738631, 310 340.2635941738631
 C 313.3333333333333 340.2635941738631, 316.6666666666667 338.38119475604884, 320 338.38119475604884
 C 323.3333333333333 338.38119475604884, 326.6666666666667 348.6405981341005, 330 350.64872792469004
 C 333.3333333333333 352.65685771527956, 336.6666666666667 352.7649254512259, 340 354.6412559438795
 C 343.3333333333333 356.5175864365331, 346.6666666666667 362.5811739725139, 350 364.1800039786737
 C 353.3333333333333 365.7788339848335, 356.6666666666667 367.38373553469586, 360 367.38373553469586
 C 363.3333333333333 367.38373553469586, 366.6666666666667 363.33436484955746, 370 363.33436484955746
 C 373.3333333333333 363.33436484955746, 376.6666666666667 364.0934990099784, 380 364.73130678945677
 C 383.3333333333333 365.3691145689351, 386.6666666666667 366.5125358063823, 390 367.7671513102146
 C 393.3333333333333 369.02176681404694, 396.6666666666667 372.71829189293413, 400 372.71829189293413
 C 403.3333333333333 372.71829189293413, 406.6666666666667 361.81964406879746, 410 361.81964406879746
 C 413.3333333333333 361.81964406879746, 416.6666666666667 362.91772805829936, 420 364.1396001857349
 C 423.3333333333333 365.3614723131704, 426.6666666666667 371.6640484694982, 430 372.8680260892102
 C 433.3333333333333 374.07200370892224, 436.6666666666667 375.1451422246046, 440 375.1451422246046
 C 443.3333333333333 375.1451422246046, 446.6666666666667 374.5824350814736, 450 374.0533977046579
 C 453.3333333333333 373.52436032784226, 456.6666666666667 372.3229558477077, 460 371.1479851316518
 C 463.3333333333333 369.9730144155959, 466.6666666666667 366.6677953415392, 470 366.6677953415392
 C 473.3333333333333 366.6677953415392, 476.6666666666667 371.86259441108916, 480 371.86259441108916
 C 483.3333333333333 371.86259441108916, 486.6666666666667 367.53413223860304, 490 365.4759907444415
 C 493.3333333333333 363.41784925027997, 496.6666666666667 360.04533190876924, 500 359.50010050364807
 C 503.3333333333333 358.9548690985269, 506.6666666666667 358.5525774947995, 510 358.5525774947995
 C 513.3333333333334 358.5525774947995, 516.6666666666666 363.49464868490236, 520 364.57984685982296
 C 523.3333333333334 365.66504503474357, 526.6666666666666 366.56990895570596, 530 366.80992636552645
 C 533.3333333333334 367.04994377534695, 536.6666666666666 367.2392653693511, 540 367.2392653693511
 C 543.3333333333334 367.2392653693511, 546.6666666666666 361.5366060893183, 550 361.5366060893183
 C 553.3333333333334 361.5366060893183, 556.6666666666666 361.82941033019677, 560 362.22204445454634
 C 563.3333333333334 362.6146785788959, 566.6666666666666 365.0491137073995, 570 366.4059136889246
 C 573.3333333333334 367.7627136704497, 576.6666666666666 370.36883655476254, 580 370.36883655476254
 C 583.3333333333334 370.36883655476254, 586.6666666666666 358.8582054885684, 590 358.8582054885684
 C 593.3333333333334 358.8582054885684, 596.6666666666666 363.4484060126327, 600 363.4484060126327
 C 603.3333333333334 363.4484060126327, 606.6666666666666 360.6103637193542, 610 359.47025300749584
 C 613.3333333333334 358.3301422956375, 616.6666666666666 356.47054336639724, 620 356.47054336639724
 C 623.3333333333334 356.47054336639724, 626.6666666666666 360.02391414788565, 630 361.41178159941177
 C 633.3333333333334 362.7996490509379, 636.6666666666666 363.6166874109522, 640 365.00922940829406
 C 643.3333333333334 366.40177140563594, 646.6666666666666 368.68828920638356, 650 369.9901536661523
 C 653.3333333333334 371.29201812592106, 656.6666666666666 373.20228135333684, 660 373.20228135333684
 C 663.3333333333334 373.20228135333684, 666.6666666666666 372.1121921593991, 670 372.1121921593991
 C 673.3333333333334 372.1121921593991, 676.6666666666666 376.1670475899627, 680 376.1670475899627
 C 683.3333333333334 376.1670475899627, 686.6666666666666 374.44719582035447, 690 374.44719582035447
 C 693.3333333333334 374.44719582035447, 696.6666666666666 381.8053921091622, 700 381.8053921091622
 C 703.3333333333334 381.8053921091622, 706.6666666666666 364.1950263447661, 710 361.4687915887636
 C 713.3333333333334 358.7425568327611, 716.6666666666666 356.35016972993157, 720 356.35016972993157
 C 723.3333333333334 356.35016972993157, 726.6666666666666 362.74115036375565, 730 362.74115036375565
 C 733.3333333333334 362.74115036375565, 736.6666666666666 351.1971758839445, 740 351.1971758839445
 C 743.3333333333334 351.1971758839445, 746.6666666666666 356.2883447625612, 750 358.56238908253914
 C 753.3333333333334 360.83643340251706, 756.6666666666666 362.4394152376695, 760 364.91603087867736
 C 763.3333333333334 367.39264651968523, 766.6666666666666 373.8610147614903, 770 373.8610147614903
 C 773.3333333333334 373.8610147614903, 776.6666666666666 370.1052378010952, 780 370.1052378010952
 C 783.3333333333334 370.1052378010952, 786.6666666666666 371.020243734421, 790 372.18754635702186
 C 793.3333333333334 373.3548489796227, 796.6666666666666 382.94477034816447, 800 383.1909430662939
 C 803.3333333333334 383.4371157844234, 806.6666666666666 383.361892681542, 810 383.57302427075484
 C 813.3333333333334 383.7841558599677, 816.6666666666666 385.42369797981536, 820 385.42369797981536
 C 823.3333333333334 385.42369797981536, 826.6666666666666 384.46246704952586, 830 384.46246704952586
 C 833.3333333333334 384.46246704952586, 836.6666666666666 385.0529464341412, 840 385.1762833661208
 C 843.3333333333334 385.2996202981004, 846.6666666666666 385.4260132167675, 850 385.4260132167675
 C 853.3333333333334 385.4260132167675, 856.6666666666666 365.8640557302433, 860 365.8640557302433
 C 863.3333333333334 365.8640557302433, 866.6666666666666 367.0571879898059, 870 367.756881563729
 C 873.3333333333334 368.45657513765207, 876.6666666666666 369.1634571373229, 880 370.1126640038565
 C 883.3333333333334 371.06187087039007, 886.6666666666666 373.71168500159246, 890 373.71168500159246
 C 893.3333333333334 373.71168500159246, 896.6666666666666 367.03297533916543, 900 367.03297533916543
 C 903.3333333333334 367.03297533916543, 906.6666666666666 374.41612714359593, 910 376.47568601685964
 C 913.3333333333334 378.53524489012335, 916.6666666666666 379.9136219659147, 920 381.0672204267919
 C 923.3333333333334 382.2208188876691, 926.6666666666666 382.6313309400542, 930 383.84415187884287
 C 933.3333333333334 385.0569728176315, 936.6666666666666 388.8508273736859, 940 389.1191656457194
 C 943.3333333333334 389.38750391775295, 946.6666666666666 389.5549233363972, 950 389.5549233363972
 C 953.3333333333334 389.5549233363972, 956.6666666666666 388.11085385289334, 960 388.11085385289334
 C 963.3333333333334 388.11085385289334, 966.6666666666666 389.61659560902626, 970 389.61659560902626
 C 973.3333333333334 389.61659560902626, 976.6666666666666 382.21385913318073, 980 377.55131662898816
 C 983.3333333333334 372.8887741247956, 986.6666666666666 360.9126707187494, 990 360.9126707187494
 C 993.3333333333334 360.9126707187494, 996.6666666666666 362.6268723137857, 1000 362.6458037853808
 C 1003.3333333333334 362.66473525697586, 1006.6666666666666 362.6555851191687, 1010 362.67467402874746
 C 1013.3333333333334 362.69376293832624, 1016.6666666666666 366.1644397024817, 1020 366.1644397024817
 C 1023.3333333333334 366.1644397024817, 1026.6666666666667 358.2114205854395, 1030 358.2114205854395
 C 1033.3333333333333 358.2114205854395, 1036.6666666666667 368.0668599619394, 1040 370.64448803627135
 C 1043.3333333333333 373.22211611060334, 1046.6666666666667 376.2560017494097, 1050 376.2560017494097
 C 1053.3333333333333 376.2560017494097, 1056.6666666666667 372.87007899061024, 1060 372.87007899061024
 C 1063.3333333333333 372.87007899061024, 1066.6666666666667 373.686858612986, 1070 374.45204731268944
 C 1073.3333333333333 375.2172360123929, 1076.6666666666667 377.5887380791529, 1080 378.63403260772367
 C 1083.3333333333333 379.67932713629443, 1086.6666666666667 381.1424489809517, 1090 381.1424489809517
 C 1093.3333333333333 381.1424489809517, 1096.6666666666667 373.24315293486274, 1100 373.24315293486274
 C 1103.3333333333333 373.24315293486274, 1106.6666666666667 379.15961634116456, 1110 379.15961634116456
 C 1113.3333333333333 379.15961634116456, 1116.6666666666667 376.8257150653108, 1120 375.74877607081885
 C 1123.3333333333333 374.6718370763269, 1126.6666666666667 374.11396287064326, 1130 372.6799319062409
 C 1133.3333333333333 371.2459009418385, 1136.6666666666667 368.40899808200845, 1140 365.48746868028627
 C 1143.3333333333333 362.5659392785641, 1146.6666666666667 358.57567390475185, 1150 354.2712436794458
 C 1153.3333333333333 349.9668134541397, 1156.6666666666667 343.24414875221333, 1160 339.0557851745795
 C 1163.3333333333333 334.8674215969457, 1166.6666666666667 330.0293384540595, 1170 328.35470627154126
 C 1173.3333333333333 326.68007408902304, 1176.6666666666667 325.08495439119054, 1180 325.0722385841907
 C 1183.3333333333333 325.05952277719086, 1186.6666666666667 325.0530533926884, 1190 325.0530533926884
 C 1193.3333333333333 325.0530533926884, 1196.6666666666667 330.23576219686265, 1200 330.23576219686265
 C 1203.3333333333333 330.23576219686265, 1206.6666666666667 320.0794139172017, 1210 314.5454244223764
 C 1213.3333333333333 309.01143492755114, 1216.6666666666667 296.91935658667336, 1220 296.91935658667336
 C 1223.3333333333333 296.91935658667336, 1226.6666666666667 316.4108971444902, 1230 316.4108971444902
 C 1233.3333333333333 316.4108971444902, 1236.6666666666667 310.8206129616667, 1240 309.08228279947673
 C 1243.3333333333333 307.34395263728675, 1246.6666666666667 305.0346562446847, 1250 305.0346562446847
 C 1253.3333333333333 305.0346562446847, 1256.6666666666667 323.6744537246375, 1260 323.6744537246375
 C 1263.3333333333333 323.6744537246375, 1266.6666666666667 316.68607958436155, 1270 316.68607958436155
 C 1273.3333333333333 316.68607958436155, 1276.6666666666667 322.74785572411224, 1280 330.3738432761761
 C 1283.3333333333333 337.99983082823996, 1286.6666666666667 376.7912810920587, 1290 400
" fill="transparent" stroke="white" stroke-width="2" />
  </g>
</svg>