<svg 
  baseProfile="tiny"
  preserveAspectRatio="keep"
  version="1.2"
  viewBox="-2.000000 2.000000 1292.000000 404.000000"
  height="100%" width="100%"
  xmlns="http://www.w3.org/2000/svg"
  xmlns:ev="http://www.w3.org/2001/xml-events"
  xmlns:xlink="http://www.w3.org/1999/xlink"
>
  <g style="transform-origin: center center;">
    <path d="M 0.000000 400.000000 C 3.3333333333333335 371.6210329244139, 6.666666666666666 321.5193938678512, 10 314.8630987732417
 C 13.333333333333334 308.2068036786322, 16.666666666666668 303.55216466655213, 20 303.55216466655213
 C 23.333333333333332 303.55216466655213, 26.666666666666668 328.6702259412303, 30 333.18350973365517
 C 33.333333333333336 337.69679352608006, 36.666666666666664 341.95820568921846, 40 341.95820568921846
 C 43.333333333333336 341.95820568921846, 46.666666666666664 334.6467765483848, 50 332.1431522186114
 C 53.333333333333336 329.639527888838, 56.666666666666664 326.0602908518171, 60 326.0602908518171
 C 63.333333333333336 326.0602908518171, 66.66666666666667 342.0052337841367, 70 342.6046726192916
 C 73.33333333333333 343.2041114544465, 76.66666666666667 343.55550706333526, 80 343.55550706333526
 C 83.33333333333333 343.55550706333526, 86.66666666666667 336.8685590082314, 90 336.8685590082314
 C 93.33333333333333 336.8685590082314, 96.66666666666667 340.5917640420494, 100 340.5917640420494
 C 103.33333333333333 340.5917640420494, 106.66666666666667 262.35192269248915, 110 262.2256538761218
 C 113.33333333333333 262.0993850597544, 116.66666666666667 262.0357917734359, 120 262.0357917734359
 C 123.33333333333333 262.0357917734359, 126.66666666666667 268.23447545408374, 130 268.23447545408374
 C 133.33333333333334 268.23447545408374, 136.66666666666666 264.9022887171206, 140 264.9022887171206
 C 143.33333333333334 264.9022887171206, 146.66666666666666 266.2095444176631, 150 266.61214403781094
 C 153.33333333333334 267.0147436579588, 156.66666666666666 267.54579850163316, 160 267.54579850163316
 C 163.33333333333334 267.54579850163316, 166.66666666666666 266.81013939444676, 170 266.81013939444676
 C 173.33333333333334 266.81013939444676, 176.66666666666666 270.1477111933839, 180 270.746594768611
 C 183.33333333333334 271.34547834383807, 186.66666666666666 271.3587991927103, 190 271.9105402512342
 C 193.33333333333334 272.46228130975805, 196.66666666666666 274.3750824836587, 200 274.7746428104954
 C 203.33333333333334 275.1742031373321, 206.66666666666666 275.5325911422429, 210 275.5325911422429
 C 213.33333333333334 275.5325911422429, 216.66666666666666 275.5142394501701, 220 275.4784250991562
 C 223.33333333333334 275.4426107481423, 226.66666666666666 268.9322516960092, 230 268.9322516960092
 C 233.33333333333334 268.9322516960092, 236.66666666666666 277.05251944214933, 240 277.05251944214933
 C 243.33333333333334 277.05251944214933, 246.66666666666666 275.0520242607133, 250 275.0215090397901
 C 253.33333333333334 274.99099381886685, 256.6666666666667 275.0047875063766, 260 274.9746808424764
 C 263.3333333333333 274.9445741785762, 266.6666666666667 273.70699151190513, 270 273.70699151190513
 C 273.3333333333333 273.70699151190513, 276.6666666666667 277.5174042729967, 280 277.5174042729967
 C 283.3333333333333 277.5174042729967, 286.6666666666667 273.09449061801195, 290 273.09449061801195
 C 293.3333333333333 273.09449061801195, 296.6666666666667 277.6309104524933, 300 278.6634426824429
 C 303.3333333333333 279.6959749123925, 306.6666666666667 280.80892873649674, 310 280.80892873649674
 C 313.3333333333333 280.80892873649674, 316.6666666666667 279.3733232462459, 320 278.6815927258323
 C 323.3333333333333 277.98986220541866, 326.6666666666667 276.65605048395486, 330 276.65605048395486
 C 333.3333333333333 276.65605048395486, 336.6666666666667 281.5670011915578, 340 281.5670011915578
 C 343.3333333333333 281.5670011915578, 346.6666666666667 278.4762214529343, 350 278.4762214529343
 C 353.3333333333333 278.4762214529343, 356.6666666666667 279.72185778485067, 360 280.4030179157403
 C 363.3333333333333 281.0841780466299, 366.6666666666667 282.5782256560047, 370 282.5782256560047
 C 373.3333333333333 282.5782256560047, 376.6666666666667 273.17386367393544, 380 273.17386367393544
 C 383.3333333333333 273.17386367393544, 386.6666666666667 277.7517258009521, 390 279.1868856159872
 C 393.3333333333333 280.6220454310223, 396.6666666666667 282.54013039219814, 400 282.54013039219814
 C 403.3333333333333 282.54013039219814, 406.6666666666667 276.09756635542414, 410 276.09756635542414
 C 413.3333333333333 276.09756635542414, 416.6666666666667 289.0397910337664, 420 289.0397910337664
 C 423.3333333333333 289.0397910337664, 426.6666666666667 288.9645053598385, 430 288.8234633587031
 C 433.3333333333333 288.68242135756776, 436.6666666666667 280.6039146958433, 440 279.21799225346336
 C 443.3333333333333 277.83206981108344, 446.6666666666667 276.5649098151963, 450 276.5649098151963
 C 453.3333333333333 276.5649098151963, 456.6666666666667 287.2619091973757, 460 287.2619091973757
 C 463.3333333333333 287.2619091973757, 466.6666666666667 284.3229186593191, 470 284.3229186593191
 C 473.3333333333333 284.3229186593191, 476.6666666666667 285.42415070857, 480 285.42415070857
 C 483.3333333333333 285.42415070857, 486.6666666666667 280.62916512864984, 490 278.73217748400685
 C 493.3333333333333 276.83518983936386, 496.6666666666667 273.78172211118556, 500 273.78172211118556
 C 503.3333333333333 273.78172211118556, 506.6666666666667 273.8266695003077, 510 273.90919917422275
 C 513.3333333333334 273.9917288481378, 516.6666666666666 276.53237951985864, 520 278.1945317264592
 C 523.3333333333334 279.8566839330598, 526.6666666666666 281.53146488052124, 530 284.15641284038975
 C 533.3333333333334 286.78136080025826, 536.6666666666666 292.520505481541, 540 295.7518264701059
 C 543.3333333333334 298.9831474586708, 546.6666666666666 300.3606906703584, 550 304.0800950110094
 C 553.3333333333334 307.7994993516604, 556.6666666666666 320.98135318928763, 560 320.98135318928763
 C 563.3333333333334 320.98135318928763, 566.6666666666666 309.39771875381655, 570 309.39771875381655
 C 573.3333333333334 309.39771875381655, 576.6666666666666 313.98759358434415, 580 313.98759358434415
 C 583.3333333333334 313.98759358434415, 586.6666666666666 307.13383111332666, 590 307.13383111332666
 C 593.3333333333334 307.13383111332666, 596.6666666666666 314.7092014587949, 600 314.7092014587949
 C 603.3333333333334 314.7092014587949, 606.6666666666666 269.14162775062204, 610 269.14162775062204
 C 613.3333333333334 269.14162775062204, 616.6666666666666 311.2234796028722, 620 313.0093041933062
 C 623.3333333333334 314.7951287837402, 626.6666666666666 314.53625146621783, 630 315.86225365591883
 C 633.3333333333334 317.18825584561984, 636.6666666666666 322.4304010659005, 640 322.4304010659005
 C 643.3333333333334 322.4304010659005, 646.6666666666666 303.60397619072467, 650 297.62661698314986
 C 653.3333333333334 291.64925777557505, 656.6666666666666 283.58473873951186, 660 283.58473873951186
 C 663.3333333333334 283.58473873951186, 666.6666666666666 295.88836678541435, 670 301.57699112939855
 C 673.3333333333334 307.26561547338275, 676.6666666666666 317.80720793035823, 680 317.80720793035823
 C 683.3333333333334 317.80720793035823, 686.6666666666666 310.0801942675038, 690 307.2276358515366
 C 693.3333333333334 304.3750774355694, 696.6666666666666 302.51401918085264, 700 300.04303358327763
 C 703.3333333333334 297.5720479857026, 706.6666666666666 292.3867297612868, 710 292.3867297612868
 C 713.3333333333334 292.3867297612868, 716.6666666666666 322.083485955906, 720 322.083485955906
 C 723.3333333333334 322.083485955906, 726.6666666666666 306.21930894222265, 730 306.21930894222265
 C 733.3333333333334 306.21930894222265, 736.6666666666666 347.28020525901667, 740 347.28020525901667
 C 743.3333333333334 347.28020525901667, 746.6666666666666 314.8228210022998, 750 305.27287504579067
 C 753.3333333333334 295.72292908928154, 756.6666666666666 290.32844327088065, 760 283.53518774979665
 C 763.3333333333334 276.74193222871264, 766.6666666666666 264.4385747002551, 770 264.3536623201077
 C 773.3333333333334 264.26874993996023, 776.6666666666666 264.30670806773696, 780 264.225442347602
 C 783.3333333333334 264.144176627467, 786.6666666666666 261.75291227001395, 790 261.75291227001395
 C 793.3333333333334 261.75291227001395, 796.6666666666666 265.0431019528665, 800 265.57394505338755
 C 803.3333333333334 266.1047881539086, 806.6666666666666 266.57982490979515, 810 266.57982490979515
 C 813.3333333333334 266.57982490979515, 816.6666666666666 266.3285564791433, 820 266.3285564791433
 C 823.3333333333334 266.3285564791433, 826.6666666666666 269.95422645653196, 830 269.97473598258193
 C 833.3333333333334 269.9952455086319, 836.6666666666666 269.985269422731, 840 270.00576205112793
 C 843.3333333333334 270.02625467952487, 846.6666666666666 273.32733064479885, 850 273.32733064479885
 C 853.3333333333334 273.32733064479885, 856.6666666666666 268.88903237039835, 860 268.88903237039835
 C 863.3333333333334 268.88903237039835, 866.6666666666666 269.45935434200044, 870 269.9718932939128
 C 873.3333333333334 270.48443224582513, 876.6666666666666 272.3111443391755, 880 272.6227641379584
 C 883.3333333333334 272.93438393674137, 886.6666666666666 273.19026088998885, 890 273.19026088998885
 C 893.3333333333334 273.19026088998885, 896.6666666666666 272.053035200632, 900 271.37755120293014
 C 903.3333333333334 270.7020672052283, 906.6666666666666 269.0802128069851, 910 269.0802128069851
 C 913.3333333333334 269.0802128069851, 916.6666666666666 272.04538335720133, 920 272.04538335720133
 C 923.3333333333334 272.04538335720133, 926.6666666666666 268.6834273350747, 930 268.6834273350747
 C 933.3333333333334 268.6834273350747, 936.6666666666666 274.53116356881094, 940 274.53116356881094
 C 943.3333333333334 274.53116356881094, 946.6666666666666 273.85581956487675, 950 273.85581956487675
 C 953.3333333333334 273.85581956487675, 956.6666666666666 280.65128449621704, 960 285.1463574129366
 C 963.3333333333334 289.64143032965615, 966.6666666666666 301.88533798316655, 970 301.88533798316655
 C 973.3333333333334 301.88533798316655, 976.6666666666666 280.9283287978589, 980 276.402344283406
 C 983.3333333333334 271.87635976895314, 986.6666666666666 267.1478617949127, 990 267.1478617949127
 C 993.3333333333334 267.1478617949127, 996.6666666666666 272.4890577387599, 1000 273.3143247329276
 C 1003.3333333333334 274.1395917270953, 1006.6666666666666 274.86314704829994, 1010 274.86314704829994
 C 1013.3333333333334 274.86314704829994, 1016.6666666666666 274.8254892982891, 1020 274.76045096720384
 C 1023.3333333333334 274.6954126361186, 1026.6666666666667 273.2038828703201, 1030 272.8107364792461
 C 1033.3333333333333 272.41759008817206, 1036.6666666666667 271.9653032936442, 1040 271.9653032936442
 C 1043.3333333333333 271.9653032936442, 1046.6666666666667 275.374288351283, 1050 275.374288351283
 C 1053.3333333333333 275.374288351283, 1056.6666666666667 270.5769725551837, 1060 270.5769725551837
 C 1063.3333333333333 270.5769725551837, 1066.6666666666667 299.0824419418381, 1070 299.0824419418381
 C 1073.3333333333333 299.0824419418381, 1076.6666666666667 295.899093150566, 1080 295.899093150566
 C 1083.3333333333333 295.899093150566, 1086.6666666666667 296.63248140681935, 1090 297.5850589587173
 C 1093.3333333333333 298.53763651061524, 1096.6666666666667 306.9550497899584, 1100 306.9550497899584
 C 1103.3333333333333 306.9550497899584, 1106.6666666666667 298.03562845109565, 1110 298.03562845109565
 C 1113.3333333333333 298.03562845109565, 1116.6666666666667 302.49221289561524, 1120 304.5475061364971
 C 1123.3333333333333 306.6027993773789, 1126.6666666666667 310.40230092087813, 1130 310.40230092087813
 C 1133.3333333333333 310.40230092087813, 1136.6666666666667 308.0994213397388, 1140 307.15696810202394
 C 1143.3333333333333 306.2145148643091, 1146.6666666666667 304.652202336695, 1150 304.652202336695
 C 1153.3333333333333 304.652202336695, 1156.6666666666667 310.6858703960637, 1160 310.6858703960637
 C 1163.3333333333333 310.6858703960637, 1166.6666666666667 304.4908691612147, 1170 304.4908691612147
 C 1173.3333333333333 304.4908691612147, 1176.6666666666667 318.9924261416645, 1180 318.9924261416645
 C 1183.3333333333333 318.9924261416645, 1186.6666666666667 318.0889807745738, 1190 317.58889614590686
 C 1193.3333333333333 317.0888115172399, 1196.6666666666667 315.9776002379914, 1200 315.9776002379914
 C 1203.3333333333333 315.9776002379914, 1206.6666666666667 321.36890198265115, 1210 321.57804526374906
 C 1213.3333333333333 321.78718854484697, 1216.6666666666667 321.9103760500468, 1220 321.9103760500468
 C 1223.3333333333333 321.9103760500468, 1226.6666666666667 293.8984350801801, 1230 293.8984350801801
 C 1233.3333333333333 293.8984350801801, 1236.6666666666667 298.72138131843707, 1240 298.72138131843707
 C 1243.3333333333333 298.72138131843707, 1246.6666666666667 294.82240361608893, 1250 291.23851368880264
 C 1253.3333333333333 287.65462376151635, 1256.6666666666667 272.14689724229305, 1260 272.14689724229305
 C 1263.3333333333333 272.14689724229305, 1266.6666666666667 280.3669570314215, 1270 283.62605288218174
 C 1273.3333333333333 286.88514873294196, 1276.6666666666667 286.879697787626, 1280 292.14094579709575
 C 1283.3333333333333 297.4021938065655, 1286.6666666666667 364.04698193236527, 1290 400
" fill="transparent" stroke="white" stroke-width="2" />
  </g>
</svg>