<svg 
  baseProfile="tiny"
  preserveAspectRatio="keep"
  version="1.2"
  viewBox="-2.000000 2.000000 1292.000000 404.000000"
  height="100%" width="100%"
  xmlns="http://www.w3.org/2000/svg"
  xmlns:ev="http://www.w3.org/2001/xml-events"
  xmlns:xlink="http://www.w3.org/1999/xlink"
>
  <g style="transform-origin: center center;">
    <path d="M 0.000000 400.000000 C 3.3333333333333335 364.9520307066271, 6.666666666666666 294.8560921198813, 10 294.8560921198813
 C 13.333333333333334 294.8560921198813, 16.666666666666668 342.1547056761452, 20 342.1547056761452
 C 23.333333333333332 342.1547056761452, 26.666666666666668 285.2462944034405, 30 285.2462944034405
 C 33.333333333333336 285.2462944034405, 36.666666666666664 302.63488418245845, 40 309.222420730281
 C 43.333333333333336 315.8099572781035, 46.666666666666664 318.78818488274885, 50 326.031105579115
 C 53.333333333333336 333.2740262754811, 56.666666666666664 355.07353221317743, 60 356.7522737878862
 C 63.333333333333336 358.431015362595, 66.66666666666667 359.2642704424246, 70 359.4952160372652
 C 73.33333333333333 359.7261616321058, 76.66666666666667 359.6659585596026, 80 359.89170933370036
 C 83.33333333333333 360.11746010779814, 86.66666666666667 362.2119037276825, 90 362.2119037276825
 C 93.33333333333333 362.2119037276825, 96.66666666666667 334.7544595204922, 100 334.7544595204922
 C 103.33333333333333 334.7544595204922, 106.66666666666667 343.02738858887744, 110 343.02738858887744
 C 113.33333333333333 343.02738858887744, 116.66666666666667 305.19546508081027, 120 305.19546508081027
 C 123.33333333333333 305.19546508081027, 126.66666666666667 322.53639836344036, 130 331.083153878574
 C 133.33333333333334 339.6299093937077, 136.66666666666666 356.48068288642713, 140 356.48068288642713
 C 143.33333333333334 356.48068288642713, 146.66666666666666 336.14576790790704, 150 336.14576790790704
 C 153.33333333333334 336.14576790790704, 156.66666666666666 344.5775233278422, 160 345.55210464008957
 C 163.33333333333334 346.52668595233695, 166.66666666666666 347.28297769480747, 170 347.28297769480747
 C 173.33333333333334 347.28297769480747, 176.66666666666666 326.2906991291102, 180 326.2906991291102
 C 183.33333333333334 326.2906991291102, 186.66666666666666 329.21603985046414, 190 329.21603985046414
 C 193.33333333333334 329.21603985046414, 196.66666666666666 276.9960847782522, 200 276.9960847782522
 C 203.33333333333334 276.9960847782522, 206.66666666666666 295.2176569668114, 210 301.127911477565
 C 213.33333333333334 307.03816598831867, 216.66666666666666 309.913120485018, 220 315.14151171913176
 C 223.33333333333334 320.3699029532455, 226.66666666666666 328.83432529219743, 230 332.95104639995304
 C 233.33333333333334 337.06776750770865, 236.66666666666666 341.2787719144597, 240 342.403603458578
 C 243.33333333333334 343.5284350026963, 246.66666666666666 344.4574560487713, 250 344.4574560487713
 C 253.33333333333334 344.4574560487713, 256.6666666666667 323.3626529479017, 260 321.7852594599776
 C 263.3333333333333 320.2078659720535, 266.6666666666667 319.1434697470079, 270 319.1434697470079
 C 273.3333333333333 319.1434697470079, 276.6666666666667 331.2430738819407, 280 331.2430738819407
 C 283.3333333333333 331.2430738819407, 286.6666666666667 292.22495063364534, 290 292.22495063364534
 C 293.3333333333333 292.22495063364534, 296.6666666666667 301.69104788041585, 300 307.02790118301266
 C 303.3333333333333 312.36475448560947, 306.6666666666667 321.19271475868646, 310 324.4606028161699
 C 313.3333333333333 327.72849087365336, 316.6666666666667 328.22761370611084, 320 331.2799361349755
 C 323.3333333333333 334.3322585638402, 326.6666666666667 345.2131358491667, 330 345.2131358491667
 C 333.3333333333333 345.2131358491667, 336.6666666666667 344.7577118090829, 340 343.9133526820816
 C 343.3333333333333 343.06899355508034, 346.6666666666667 294.39458025510567, 350 294.39458025510567
 C 353.3333333333333 294.39458025510567, 356.6666666666667 297.31034361849515, 360 299.86825190733725
 C 363.3333333333333 302.42616019617935, 366.6666666666667 311.6787072958284, 370 312.6991456309809
 C 373.3333333333333 313.7195839661334, 376.6666666666667 314.43713617921924, 380 314.43713617921924
 C 383.3333333333333 314.43713617921924, 386.6666666666667 288.32060153624286, 390 288.32060153624286
 C 393.3333333333333 288.32060153624286, 396.6666666666667 304.4715269343946, 400 310.8937888683531
 C 403.3333333333333 317.3160508023116, 406.6666666666667 327.2614953490114, 410 327.69903131276385
 C 413.3333333333333 328.1365672765163, 416.6666666666667 328.3820079012465, 420 328.3820079012465
 C 423.3333333333333 328.3820079012465, 426.6666666666667 308.4080104099964, 430 302.27040398546114
 C 433.3333333333333 296.1327975609259, 436.6666666666667 288.0502703415941, 440 288.0502703415941
 C 443.3333333333333 288.0502703415941, 446.6666666666667 320.3811473020827, 450 320.3811473020827
 C 453.3333333333333 320.3811473020827, 456.6666666666667 310.6552524473628, 460 310.25859068412024
 C 463.3333333333333 309.8619289208777, 466.6666666666667 309.97697866574487, 470 309.62644098122547
 C 473.3333333333333 309.2759032967061, 476.6666666666667 306.50082021434173, 480 306.50082021434173
 C 483.3333333333333 306.50082021434173, 486.6666666666667 320.23156889937667, 490 320.23156889937667
 C 493.3333333333333 320.23156889937667, 496.6666666666667 302.139390827837, 500 302.139390827837
 C 503.3333333333333 302.139390827837, 506.6666666666667 334.75959296929375, 510 334.75959296929375
 C 513.3333333333334 334.75959296929375, 516.6666666666666 295.56855378478946, 520 293.5709147394227
 C 523.3333333333334 291.5732756940559, 526.6666666666666 290.3393621121755, 530 290.3393621121755
 C 533.3333333333334 290.3393621121755, 536.6666666666666 327.6505065636975, 540 327.6505065636975
 C 543.3333333333334 327.6505065636975, 546.6666666666666 300.88132216891734, 550 300.88132216891734
 C 553.3333333333334 300.88132216891734, 556.6666666666666 301.71343448736394, 560 302.7865164628888
 C 563.3333333333334 303.8595984384137, 566.6666666666666 309.20069419653294, 570 313.1618274851123
 C 573.3333333333334 317.1229607736917, 576.6666666666666 327.0662912645951, 580 327.0662912645951
 C 583.3333333333334 327.0662912645951, 586.6666666666666 299.66925973932547, 590 299.66925973932547
 C 593.3333333333334 299.66925973932547, 596.6666666666666 309.0409731747918, 600 309.0409731747918
 C 603.3333333333334 309.0409731747918, 606.6666666666666 281.8359167646522, 610 281.8359167646522
 C 613.3333333333334 281.8359167646522, 616.6666666666666 308.2672426691378, 620 312.0312734032232
 C 623.3333333333334 315.7953041373087, 626.6666666666666 318.9758421869923, 630 318.9758421869923
 C 633.3333333333334 318.9758421869923, 636.6666666666666 314.2987844722906, 640 310.34748734453865
 C 643.3333333333334 306.3961902167867, 646.6666666666666 291.4167042961112, 650 291.4167042961112
 C 653.3333333333334 291.4167042961112, 656.6666666666666 315.9821198810259, 660 317.9941386311198
 C 663.3333333333334 320.00615738121377, 666.6666666666666 321.3987848943837, 670 321.3987848943837
 C 673.3333333333334 321.3987848943837, 676.6666666666666 320.32870474148183, 680 318.57983225197586
 C 683.3333333333334 316.8309597624699, 686.6666666666666 280.78165515431317, 690 280.78165515431317
 C 693.3333333333334 280.78165515431317, 696.6666666666666 300.92018253517165, 700 301.77694896333315
 C 703.3333333333334 302.63371539149466, 706.6666666666666 302.3669841507826, 710 303.14589350778317
 C 713.3333333333334 303.9248028647837, 716.6666666666666 311.1198765269193, 720 311.1198765269193
 C 723.3333333333334 311.1198765269193, 726.6666666666666 291.4340135830841, 730 291.4340135830841
 C 733.3333333333334 291.4340135830841, 736.6666666666666 308.4934023907691, 740 311.7910653215909
 C 743.3333333333334 315.0887282524127, 746.6666666666666 317.08092375209304, 750 318.3252898867281
 C 753.3333333333334 319.5696560213632, 756.6666666666666 320.938250450274, 760 320.938250450274
 C 763.3333333333334 320.938250450274, 766.6666666666666 319.84600169341127, 770 318.23994386134683
 C 773.3333333333334 316.6338860292824, 776.6666666666666 295.76411845801624, 780 295.76411845801624
 C 783.3333333333334 295.76411845801624, 786.6666666666666 307.07489333853067, 790 311.8534176212287
 C 793.3333333333334 316.6319419039267, 796.6666666666666 324.77999896300383, 800 324.77999896300383
 C 803.3333333333334 324.77999896300383, 806.6666666666666 314.839400738887, 810 308.9333141256808
 C 813.3333333333334 303.0272275124746, 816.6666666666666 288.84218905698987, 820 288.84218905698987
 C 823.3333333333334 288.84218905698987, 826.6666666666666 317.47341835442455, 830 317.92564672890285
 C 833.3333333333334 318.37787510338114, 836.6666666666666 318.6201887895223, 840 318.6201887895223
 C 843.3333333333334 318.6201887895223, 846.6666666666666 316.9568939753477, 850 314.7508750524259
 C 853.3333333333334 312.54485612950407, 856.6666666666666 294.6758169641466, 860 291.8988248924115
 C 863.3333333333334 289.1218328206764, 866.6666666666666 286.8047929935051, 870 286.8047929935051
 C 873.3333333333334 286.8047929935051, 876.6666666666666 304.7586438748029, 880 304.7586438748029
 C 883.3333333333334 304.7586438748029, 886.6666666666666 298.98627779353853, 890 296.2052300189713
 C 893.3333333333334 293.42418224440405, 896.6666666666666 288.062267019965, 900 288.062267019965
 C 903.3333333333334 288.062267019965, 906.6666666666666 293.77646207952046, 910 297.9960089690003
 C 913.3333333333334 302.2155558584801, 916.6666666666666 312.7194678869217, 920 315.4395385090759
 C 923.3333333333334 318.15960913123007, 926.6666666666666 320.76537793966213, 930 320.76537793966213
 C 933.3333333333334 320.76537793966213, 936.6666666666666 320.36976462838743, 940 319.6342407096964
 C 943.3333333333334 318.8987167910054, 946.6666666666666 274.82608435461333, 950 274.82608435461333
 C 953.3333333333334 274.82608435461333, 956.6666666666666 309.3063353636181, 960 313.6247236294373
 C 963.3333333333334 317.94311189525655, 966.6666666666666 321.4005022441245, 970 321.4005022441245
 C 973.3333333333334 321.4005022441245, 976.6666666666666 317.1815392254245, 980 313.9957139606931
 C 983.3333333333334 310.80988869596166, 986.6666666666666 300.52089924496715, 990 300.52089924496715
 C 993.3333333333334 300.52089924496715, 996.6666666666666 325.5085252969092, 1000 325.5085252969092
 C 1003.3333333333334 325.5085252969092, 1006.6666666666666 320.7423379147715, 1010 320.00560049134486
 C 1013.3333333333334 319.26886306791823, 1016.6666666666666 318.622797693053, 1020 318.622797693053
 C 1023.3333333333334 318.622797693053, 1026.6666666666667 323.50014217020885, 1030 326.34851380232465
 C 1033.3333333333333 329.19688543444045, 1036.6666666666667 335.34040774893714, 1040 335.907462331683
 C 1043.3333333333333 336.4745169144289, 1046.6666666666667 336.8411240246957, 1050 336.8411240246957
 C 1053.3333333333333 336.8411240246957, 1056.6666666666667 335.8034212326331, 1060 335.69855177033287
 C 1063.3333333333333 335.5936823080326, 1066.6666666666667 335.6348700280179, 1070 335.5161329809073
 C 1073.3333333333333 335.3973959337967, 1076.6666666666667 327.98352116569055, 1080 327.98352116569055
 C 1083.3333333333333 327.98352116569055, 1086.6666666666667 330.75218855341745, 1090 330.75218855341745
 C 1093.3333333333333 330.75218855341745, 1096.6666666666667 330.65779563030014, 1100 330.544395306101
 C 1103.3333333333333 330.4309949819019, 1106.6666666666667 330.1226360963066, 1110 329.6066626629174
 C 1113.3333333333333 329.0906892295282, 1116.6666666666667 325.7609013288887, 1120 325.17510224932096
 C 1123.3333333333333 324.58930316975324, 1126.6666666666667 324.0790826902973, 1130 324.0790826902973
 C 1133.3333333333333 324.0790826902973, 1136.6666666666667 326.2601322902946, 1140 329.1654259713828
 C 1143.3333333333333 332.0707196524709, 1146.6666666666667 351.6508329620087, 1150 359.59636710100375
 C 1153.3333333333333 367.5419012399988, 1156.6666666666667 374.6244750009188, 1160 379.1875828317651
 C 1163.3333333333333 383.7506906626114, 1166.6666666666667 387.82963733203627, 1170 389.70770027200837
 C 1173.3333333333333 391.58576321198046, 1176.6666666666667 393.55504227221985, 1180 393.55504227221985
 C 1183.3333333333333 393.55504227221985, 1186.6666666666667 391.22444348207335, 1190 389.49448315825725
 C 1193.3333333333333 387.76452283444115, 1196.6666666666667 386.1808382245099, 1200 382.30508952168617
 C 1203.3333333333333 378.42934081886244, 1206.6666666666667 351.9247156946832, 1210 351.9247156946832
 C 1213.3333333333333 351.9247156946832, 1216.6666666666667 381.6864722278672, 1220 381.6864722278672
 C 1223.3333333333333 381.6864722278672, 1226.6666666666667 363.68995807366315, 1230 363.68995807366315
 C 1233.3333333333333 363.68995807366315, 1236.6666666666667 383.824642153062, 1240 383.824642153062
 C 1243.3333333333333 383.824642153062, 1246.6666666666667 367.1481972345654, 1250 367.1481972345654
 C 1253.3333333333333 367.1481972345654, 1256.6666666666667 373.72393771874124, 1260 373.72393771874124
 C 1263.3333333333333 373.72393771874124, 1266.6666666666667 368.81306640215155, 1270 363.20417178689024
 C 1273.3333333333333 357.59527717162894, 1276.6666666666667 321.18680616771, 1280 321.18680616771
 C 1283.3333333333333 321.18680616771, 1286.6666666666667 373.72893538923665, 1290 400
" fill="transparent" stroke="white" stroke-width="2" />
  </g>
</svg>