<svg 
  baseProfile="tiny"
  preserveAspectRatio="keep"
  version="1.2"
  viewBox="-2.000000 2.000000 1292.000000 404.000000"
  height="100%" width="100%"
  xmlns="http://www.w3.org/2000/svg"
  xmlns:ev="http://www.w3.org/2001/xml-events"
  xmlns:xlink="http://www.w3.org/1999/xlink"
>
  <g style="transform-origin: center center;">
    <path d="M 0.000000 400.000000 C 3.3333333333333335 366.2953762329462, 6.666666666666666 299.84513009027563, 10 298.8861286988386
 C 13.333333333333334 297.9271273074016, 16.666666666666668 297.4268663348858, 20 297.4268663348858
 C 23.333333333333332 297.4268663348858, 26.666666666666668 307.6638162203545, 30 310.77365527738766
 C 33.333333333333336 313.88349433442085, 36.666666666666664 317.9447368964702, 40 317.9447368964702
 C 43.333333333333336 317.9447368964702, 46.666666666666664 301.9411046107831, 50 300.6410860748701
 C 53.333333333333336 299.3410675389571, 56.666666666666664 299.74776587038986, 60 298.4433897935687
 C 63.333333333333336 297.13901371674757, 66.66666666666667 280.6111206680548, 70 280.6111206680548
 C 73.33333333333333 280.6111206680548, 76.66666666666667 319.83179025814024, 80 319.83179025814024
 C 83.33333333333333 319.83179025814024, 86.66666666666667 289.1497530754503, 90 289.1497530754503
 C 93.33333333333333 289.1497530754503, 96.66666666666667 300.1630699701458, 100 300.1630699701458
 C 103.33333333333333 300.1630699701458, 106.66666666666667 285.93456977451945, 110 285.93456977451945
 C 113.33333333333333 285.93456977451945, 116.66666666666667 309.1950066228883, 120 309.1950066228883
 C 123.33333333333333 309.1950066228883, 126.66666666666667 307.90990307337665, 130 306.22060119650257
 C 133.33333333333334 304.5312993196285, 136.66666666666666 289.1086513191286, 140 289.1086513191286
 C 143.33333333333334 289.1086513191286, 146.66666666666666 296.98821024789373, 150 296.98821024789373
 C 153.33333333333334 296.98821024789373, 156.66666666666666 282.7072760440748, 160 282.7072760440748
 C 163.33333333333334 282.7072760440748, 166.66666666666666 317.18987408934447, 170 317.18987408934447
 C 173.33333333333334 317.18987408934447, 176.66666666666666 282.61428607388723, 180 282.61428607388723
 C 183.33333333333334 282.61428607388723, 186.66666666666666 296.7010486870604, 190 296.7010486870604
 C 193.33333333333334 296.7010486870604, 196.66666666666666 294.60464572884655, 200 294.42561642509935
 C 203.33333333333334 294.24658712135215, 206.66666666666666 294.1211383041976, 210 294.1211383041976
 C 213.33333333333334 294.1211383041976, 216.66666666666666 301.4874698997798, 220 301.4874698997798
 C 223.33333333333334 301.4874698997798, 226.66666666666666 278.8945499294526, 230 278.8945499294526
 C 233.33333333333334 278.8945499294526, 236.66666666666666 300.4562513323071, 240 300.4562513323071
 C 243.33333333333334 300.4562513323071, 246.66666666666666 287.80852419158305, 250 287.80852419158305
 C 253.33333333333334 287.80852419158305, 256.6666666666667 291.02925238011835, 260 291.02925238011835
 C 263.3333333333333 291.02925238011835, 266.6666666666667 251.77279645245991, 270 251.77279645245991
 C 273.3333333333333 251.77279645245991, 276.6666666666667 284.88081463784766, 280 284.88081463784766
 C 283.3333333333333 284.88081463784766, 286.6666666666667 283.97805916240395, 290 283.97805916240395
 C 293.3333333333333 283.97805916240395, 296.6666666666667 286.7138341710622, 300 286.7138341710622
 C 303.3333333333333 286.7138341710622, 306.6666666666667 286.2398384255007, 310 285.42241260172796
 C 313.3333333333333 284.6049867779552, 316.6666666666667 261.1670008635483, 320 261.1670008635483
 C 323.3333333333333 261.1670008635483, 326.6666666666667 295.9453098733897, 330 295.9453098733897
 C 333.3333333333333 295.9453098733897, 336.6666666666667 288.25048086087224, 340 288.25048086087224
 C 343.3333333333333 288.25048086087224, 346.6666666666667 298.17180912503306, 350 298.17180912503306
 C 353.3333333333333 298.17180912503306, 356.6666666666667 284.9478281906326, 360 281.5241935785464
 C 363.3333333333333 278.10055896646014, 366.6666666666667 275.88068935422916, 370 274.0978719981361
 C 373.3333333333333 272.31505464204304, 376.6666666666667 269.9187341178358, 380 269.9187341178358
 C 383.3333333333333 269.9187341178358, 386.6666666666667 272.19037149895433, 390 274.16561411959105
 C 393.3333333333333 276.1408567402278, 396.6666666666667 283.96527929703245, 400 283.96527929703245
 C 403.3333333333333 283.96527929703245, 406.6666666666667 282.1395459964395, 410 282.1395459964395
 C 413.3333333333333 282.1395459964395, 416.6666666666667 289.9256042630271, 420 289.9256042630271
 C 423.3333333333333 289.9256042630271, 426.6666666666667 265.5224768070434, 430 265.5224768070434
 C 433.3333333333333 265.5224768070434, 436.6666666666667 284.4951204944829, 440 287.93301499315146
 C 443.3333333333333 291.37090949182004, 446.6666666666667 291.84000038391173, 450 294.6311506261687
 C 453.3333333333333 297.4223008684256, 456.6666666666667 305.4326009525657, 460 305.7974879949573
 C 463.3333333333333 306.1623750373489, 466.6666666666667 306.37302936501015, 470 306.37302936501015
 C 473.3333333333333 306.37302936501015, 476.6666666666667 303.00926489023857, 480 303.00926489023857
 C 483.3333333333333 303.00926489023857, 486.6666666666667 306.0935543940387, 490 309.5303288926403
 C 493.3333333333333 312.9671033912419, 496.6666666666667 334.14200193884125, 500 334.14200193884125
 C 503.3333333333333 334.14200193884125, 506.6666666666667 326.24761518707476, 510 326.24761518707476
 C 513.3333333333334 326.24761518707476, 516.6666666666666 329.55291348724035, 520 330.8346532256426
 C 523.3333333333334 332.1163929640449, 526.6666666666666 333.10300803448115, 530 334.1445876569461
 C 533.3333333333334 335.18616727941105, 536.6666666666666 335.4349585083087, 540 337.10375678089605
 C 543.3333333333334 338.7725550534834, 546.6666666666666 353.3490286666614, 550 353.3490286666614
 C 553.3333333333334 353.3490286666614, 556.6666666666666 336.9354218672107, 560 332.0526912082713
 C 563.3333333333334 327.1699605493319, 566.6666666666666 324.56719229982775, 570 320.8893842985022
 C 573.3333333333334 317.21157629717663, 576.6666666666666 309.98285563533557, 580 309.98285563533557
 C 583.3333333333334 309.98285563533557, 586.6666666666666 310.3812736619225, 590 310.9451154378535
 C 593.3333333333334 311.50895721378447, 596.6666666666666 317.9310673982932, 600 317.9310673982932
 C 603.3333333333334 317.9310673982932, 606.6666666666666 311.2297345905815, 610 311.2297345905815
 C 613.3333333333334 311.2297345905815, 616.6666666666666 334.15208402206656, 620 334.15208402206656
 C 623.3333333333334 334.15208402206656, 626.6666666666666 303.22986223271926, 630 303.22986223271926
 C 633.3333333333334 303.22986223271926, 636.6666666666666 314.092022916258, 640 314.092022916258
 C 643.3333333333334 314.092022916258, 646.6666666666666 305.81943262405093, 650 304.67451437740635
 C 653.3333333333334 303.5295961307618, 656.6666666666666 302.5741065153366, 660 302.5741065153366
 C 663.3333333333334 302.5741065153366, 666.6666666666666 316.4298260958271, 670 316.4298260958271
 C 673.3333333333334 316.4298260958271, 676.6666666666666 294.98730286400195, 680 294.98730286400195
 C 683.3333333333334 294.98730286400195, 686.6666666666666 300.75101941639633, 690 300.75101941639633
 C 693.3333333333334 300.75101941639633, 696.6666666666666 293.7728005062072, 700 293.7728005062072
 C 703.3333333333334 293.7728005062072, 706.6666666666666 300.9100102335168, 710 301.73915473066666
 C 713.3333333333334 302.5682992278165, 716.6666666666666 303.2129644047234, 720 303.2129644047234
 C 723.3333333333334 303.2129644047234, 726.6666666666666 300.48820211951306, 730 300.48820211951306
 C 733.3333333333334 300.48820211951306, 736.6666666666666 306.8849630810967, 740 306.8849630810967
 C 743.3333333333334 306.8849630810967, 746.6666666666666 302.570836025189, 750 302.570836025189
 C 753.3333333333334 302.570836025189, 756.6666666666666 313.61573740144047, 760 313.61573740144047
 C 763.3333333333334 313.61573740144047, 766.6666666666666 296.43138651565306, 770 296.43138651565306
 C 773.3333333333334 296.43138651565306, 776.6666666666666 311.5955670443651, 780 311.5955670443651
 C 783.3333333333334 311.5955670443651, 786.6666666666666 253.4393363601667, 790 253.4393363601667
 C 793.3333333333334 253.4393363601667, 796.6666666666666 265.7687089447251, 800 268.490184292352
 C 803.3333333333334 271.2116596399789, 806.6666666666666 272.88619050711964, 810 274.0916805507694
 C 813.3333333333334 275.2971705944192, 816.6666666666666 276.7618952917, 820 276.7618952917
 C 823.3333333333334 276.7618952917, 826.6666666666666 271.5729070712878, 830 271.5729070712878
 C 833.3333333333334 271.5729070712878, 836.6666666666666 271.9554631019569, 840 272.47942166998564
 C 843.3333333333334 273.00338023801436, 846.6666666666666 278.38822379239036, 850 278.38822379239036
 C 853.3333333333334 278.38822379239036, 856.6666666666666 278.3367949487076, 860 278.2407134186732
 C 863.3333333333334 278.14463188863874, 866.6666666666666 272.50378703304716, 870 271.96590822587825
 C 873.3333333333334 271.42802941870934, 876.6666666666666 271.04004151933634, 880 271.04004151933634
 C 883.3333333333334 271.04004151933634, 886.6666666666666 280.4223234573984, 890 280.4223234573984
 C 893.3333333333334 280.4223234573984, 896.6666666666666 274.8957646513488, 900 273.7076004972613
 C 903.3333333333334 272.51943634317377, 906.6666666666666 271.28137725358727, 910 271.28137725358727
 C 913.3333333333334 271.28137725358727, 916.6666666666666 272.90556610840474, 920 272.90556610840474
 C 923.3333333333334 272.90556610840474, 926.6666666666666 270.7124411549996, 930 270.7124411549996
 C 933.3333333333334 270.7124411549996, 936.6666666666666 281.36763704375335, 940 281.36763704375335
 C 943.3333333333334 281.36763704375335, 946.6666666666666 273.2606112523646, 950 273.2606112523646
 C 953.3333333333334 273.2606112523646, 956.6666666666666 274.1395418687917, 960 274.1395418687917
 C 963.3333333333334 274.1395418687917, 966.6666666666666 269.78634085796705, 970 269.78634085796705
 C 973.3333333333334 269.78634085796705, 976.6666666666666 279.45970084915984, 980 279.45970084915984
 C 983.3333333333334 279.45970084915984, 986.6666666666666 275.719943900816, 990 275.719943900816
 C 993.3333333333334 275.719943900816, 996.6666666666666 276.1702443801822, 1000 276.84656693542854
 C 1003.3333333333334 277.52288949067486, 1006.6666666666666 282.49048614766934, 1010 287.03872843281533
 C 1013.3333333333334 291.5869707179613, 1016.6666666666666 301.28989981932256, 1020 307.6733861813227
 C 1023.3333333333334 314.05687254332287, 1026.6666666666667 325.53882920529566, 1030 325.53882920529566
 C 1033.3333333333333 325.53882920529566, 1036.6666666666667 324.9804263153046, 1040 324.58528844777607
 C 1043.3333333333333 324.1901505802475, 1046.6666666666667 323.9992511888767, 1050 323.01899990275734
 C 1053.3333333333333 322.038748616638, 1056.6666666666667 299.00694963261384, 1060 299.00694963261384
 C 1063.3333333333333 299.00694963261384, 1066.6666666666667 299.64804933312024, 1070 299.74855395149143
 C 1073.3333333333333 299.8490585698626, 1076.6666666666667 299.8138097798785, 1080 299.93777707444866
 C 1083.3333333333333 300.0617443690188, 1086.6666666666667 309.3598595961136, 1090 310.6909159862306
 C 1093.3333333333333 312.0219723763476, 1096.6666666666667 312.8854733304462, 1100 313.14274242306095
 C 1103.3333333333333 313.4000115156757, 1106.6666666666667 313.30909728621396, 1110 313.6007308556086
 C 1113.3333333333333 313.8923644250033, 1116.6666666666667 323.3556454850502, 1120 323.3556454850502
 C 1123.3333333333333 323.3556454850502, 1126.6666666666667 315.37459627883374, 1130 315.37459627883374
 C 1133.3333333333333 315.37459627883374, 1136.6666666666667 324.8992015270045, 1140 330.08317033673256
 C 1143.3333333333333 335.26713914646064, 1146.6666666666667 346.5809979711416, 1150 346.5809979711416
 C 1153.3333333333333 346.5809979711416, 1156.6666666666667 344.3015908784214, 1160 343.79071746829123
 C 1163.3333333333333 343.2798440581611, 1166.6666666666667 342.7342691197343, 1170 342.7342691197343
 C 1173.3333333333333 342.7342691197343, 1176.6666666666667 357.6795178133247, 1180 361.9968621339955
 C 1183.3333333333333 366.31420645466625, 1186.6666666666667 371.75278620818654, 1190 371.75278620818654
 C 1193.3333333333333 371.75278620818654, 1196.6666666666667 333.26008867535046, 1200 333.26008867535046
 C 1203.3333333333333 333.26008867535046, 1206.6666666666667 381.63954623893676, 1210 381.63954623893676
 C 1213.3333333333333 381.63954623893676, 1216.6666666666667 378.91119715582994, 1220 378.91119715582994
 C 1223.3333333333333 378.91119715582994, 1226.6666666666667 386.30437438317387, 1230 386.30437438317387
 C 1233.3333333333333 386.30437438317387, 1236.6666666666667 373.09481608577835, 1240 373.09481608577835
 C 1243.3333333333333 373.09481608577835, 1246.6666666666667 388.2401419956354, 1250 388.2401419956354
 C 1253.3333333333333 388.2401419956354, 1256.6666666666667 376.81373416519995, 1260 376.81373416519995
 C 1263.3333333333333 376.81373416519995, 1266.6666666666667 387.70828242126703, 1270 387.70828242126703
 C 1273.3333333333333 387.70828242126703, 1276.6666666666667 376.4867606208898, 1280 376.4867606208898
 C 1283.3333333333333 376.4867606208898, 1286.6666666666667 392.1622535402966, 1290 400
" fill="transparent" stroke="white" stroke-width="2" />
  </g>
</svg>