<svg 
  baseProfile="tiny"
  preserveAspectRatio="keep"
  version="1.2"
  viewBox="-2.000000 2.000000 1292.000000 404.000000"
  height="100%" width="100%"
  xmlns="http://www.w3.org/2000/svg"
  xmlns:ev="http://www.w3.org/2001/xml-events"
  xmlns:xlink="http://www.w3.org/1999/xlink"
>
  <g style="transform-origin: center center;">
    <path d="M 0.000000 400.000000 C 3.3333333333333335 389.7991526274188, 6.666666666666666 370.85891127726114, 10 369.3974578822563
 C 13.333333333333334 367.9360044872514, 16.666666666666668 367.0361263528994, 20 367.0361263528994
 C 23.333333333333332 367.0361263528994, 26.666666666666668 385.2036750393072, 30 386.93661139933533
 C 33.333333333333336 388.66954775936347, 36.666666666666664 389.9265640303072, 40 389.9265640303072
 C 43.333333333333336 389.9265640303072, 46.666666666666664 369.9994136207882, 50 369.9994136207882
 C 53.333333333333336 369.9994136207882, 56.666666666666664 375.82311209927633, 60 375.82311209927633
 C 63.333333333333336 375.82311209927633, 66.66666666666667 349.0052789940538, 70 349.0052789940538
 C 73.33333333333333 349.0052789940538, 76.66666666666667 366.1316738582966, 80 366.1316738582966
 C 83.33333333333333 366.1316738582966, 86.66666666666667 332.8288908197401, 90 332.8288908197401
 C 93.33333333333333 332.8288908197401, 96.66666666666667 361.5922565477387, 100 365.2658270334655
 C 103.33333333333333 368.93939751919226, 106.66666666666667 371.9038424837336, 110 371.9038424837336
 C 113.33333333333333 371.9038424837336, 116.66666666666667 304.5895727084783, 120 304.5895727084783
 C 123.33333333333333 304.5895727084783, 126.66666666666667 312.38910914972007, 130 312.38910914972007
 C 133.33333333333334 312.38910914972007, 136.66666666666666 273.4430912930448, 140 273.4430912930448
 C 143.33333333333334 273.4430912930448, 146.66666666666666 286.8163197793383, 150 286.8163197793383
 C 153.33333333333334 286.8163197793383, 156.66666666666666 282.14390282795773, 160 282.14390282795773
 C 163.33333333333334 282.14390282795773, 166.66666666666666 291.69025511112875, 170 291.69025511112875
 C 173.33333333333334 291.69025511112875, 176.66666666666666 289.39366294222646, 180 289.39366294222646
 C 183.33333333333334 289.39366294222646, 186.66666666666666 289.6084887556486, 190 289.9349095212548
 C 193.33333333333334 290.261330286861, 196.66666666666666 295.06924979283707, 200 295.06924979283707
 C 203.33333333333334 295.06924979283707, 206.66666666666666 269.85589183270724, 210 269.85589183270724
 C 213.33333333333334 269.85589183270724, 216.66666666666666 308.5392395020423, 220 314.6811348854012
 C 223.33333333333334 320.82303026876014, 226.66666666666666 325.31549636280346, 230 326.2773185266058
 C 233.33333333333334 327.2391406904082, 236.66666666666666 327.9250539279491, 240 327.9250539279491
 C 243.33333333333334 327.9250539279491, 246.66666666666666 268.0833276907688, 250 268.0833276907688
 C 253.33333333333334 268.0833276907688, 256.6666666666667 316.0092076689057, 260 316.0092076689057
 C 263.3333333333333 316.0092076689057, 266.6666666666667 299.5542260717949, 270 299.5542260717949
 C 273.3333333333333 299.5542260717949, 276.6666666666667 315.11812162172896, 280 315.11812162172896
 C 283.3333333333333 315.11812162172896, 286.6666666666667 307.54115796295, 290 307.54115796295
 C 293.3333333333333 307.54115796295, 296.6666666666667 322.9767192479972, 300 322.9767192479972
 C 303.3333333333333 322.9767192479972, 306.6666666666667 306.3238216214175, 310 306.3238216214175
 C 313.3333333333333 306.3238216214175, 316.6666666666667 309.24837220058396, 320 312.6238699704072
 C 323.3333333333333 315.99936774023047, 326.6666666666667 338.20487856226714, 330 338.41514991113183
 C 333.3333333333333 338.62542125999653, 336.6666666666667 338.7344618679582, 340 338.7344618679582
 C 343.3333333333333 338.7344618679582, 346.6666666666667 315.31661505237645, 350 308.7403840419217
 C 353.3333333333333 302.1641530314669, 356.6666666666667 294.0421263984045, 360 294.0421263984045
 C 363.3333333333333 294.0421263984045, 366.6666666666667 307.59179055531945, 370 313.5750541316895
 C 373.3333333333333 319.5583177080596, 376.6666666666667 330.17909326012216, 380 330.17909326012216
 C 383.3333333333333 330.17909326012216, 386.6666666666667 329.79328458601685, 390 329.06225482467516
 C 393.3333333333333 328.3312250633335, 396.6666666666667 268.7155677284187, 400 268.7155677284187
 C 403.3333333333333 268.7155677284187, 406.6666666666667 312.33249926743065, 410 312.33249926743065
 C 413.3333333333333 312.33249926743065, 416.6666666666667 292.44840612714336, 420 292.44840612714336
 C 423.3333333333333 292.44840612714336, 426.6666666666667 327.13024255169694, 430 327.13024255169694
 C 433.3333333333333 327.13024255169694, 436.6666666666667 274.30405985986556, 440 274.30405985986556
 C 443.3333333333333 274.30405985986556, 446.6666666666667 292.9866708281854, 450 292.9866708281854
 C 453.3333333333333 292.9866708281854, 456.6666666666667 288.17772264799834, 460 288.17772264799834
 C 463.3333333333333 288.17772264799834, 466.6666666666667 292.93179208010145, 470 292.93179208010145
 C 473.3333333333333 292.93179208010145, 476.6666666666667 290.30341730079124, 480 289.0979424746646
 C 483.3333333333333 287.89246764853795, 486.6666666666667 286.7816866804595, 490 285.6756054387868
 C 493.3333333333333 284.56952419711416, 496.6666666666667 284.19759496315254, 500 282.4553097636705
 C 503.3333333333333 280.7130245641885, 506.6666666666667 268.58736490552667, 510 268.58736490552667
 C 513.3333333333334 268.58736490552667, 516.6666666666666 303.7432674418505, 520 311.4814857709693
 C 523.3333333333334 319.2197041000881, 526.6666666666666 327.39510473864334, 530 327.39510473864334
 C 533.3333333333334 327.39510473864334, 536.6666666666666 326.48859209577904, 540 324.88952430312037
 C 543.3333333333334 323.2904565104617, 546.6666666666666 268.7111743111965, 550 268.7111743111965
 C 553.3333333333334 268.7111743111965, 556.6666666666666 311.0337209334146, 560 311.0337209334146
 C 563.3333333333334 311.0337209334146, 566.6666666666666 294.6716583686768, 570 294.6716583686768
 C 573.3333333333334 294.6716583686768, 576.6666666666666 319.90165766510216, 580 319.90165766510216
 C 583.3333333333334 319.90165766510216, 586.6666666666666 271.99200811148194, 590 271.99200811148194
 C 593.3333333333334 271.99200811148194, 596.6666666666666 288.62270666451843, 600 288.62270666451843
 C 603.3333333333334 288.62270666451843, 606.6666666666666 283.08248882694346, 610 280.59219942971646
 C 613.3333333333334 278.10191003248946, 616.6666666666666 274.3848294958248, 620 273.6080504848103
 C 623.3333333333334 272.83127147379577, 626.6666666666666 272.47115306372876, 630 272.2095734551216
 C 633.3333333333334 271.9479938465144, 636.6666666666666 271.66418486849557, 640 271.66418486849557
 C 643.3333333333334 271.66418486849557, 646.6666666666666 287.6300618391822, 650 287.6300618391822
 C 653.3333333333334 287.6300618391822, 656.6666666666666 265.4866510348386, 660 265.4866510348386
 C 663.3333333333334 265.4866510348386, 666.6666666666666 286.089814656569, 670 293.8506731366958
 C 673.3333333333334 301.61153161682256, 676.6666666666666 313.59587357183153, 680 313.59587357183153
 C 683.3333333333334 313.59587357183153, 686.6666666666666 308.55412798779616, 690 302.9819861930355
 C 693.3333333333334 297.4098443982748, 696.6666666666666 263.6531198776708, 700 263.6531198776708
 C 703.3333333333334 263.6531198776708, 706.6666666666666 298.3435578520694, 710 298.3435578520694
 C 713.3333333333334 298.3435578520694, 716.6666666666666 277.37575688992865, 720 277.37575688992865
 C 723.3333333333334 277.37575688992865, 726.6666666666666 307.9167182770599, 730 307.9167182770599
 C 733.3333333333334 307.9167182770599, 736.6666666666666 268.4272761566681, 740 268.4272761566681
 C 743.3333333333334 268.4272761566681, 746.6666666666666 285.5341870758971, 750 285.5341870758971
 C 753.3333333333334 285.5341870758971, 756.6666666666666 277.04801282562494, 760 277.04801282562494
 C 763.3333333333334 277.04801282562494, 766.6666666666666 285.62283006408416, 770 285.62283006408416
 C 773.3333333333334 285.62283006408416, 776.6666666666666 277.4830177226799, 780 277.4830177226799
 C 783.3333333333334 277.4830177226799, 786.6666666666666 277.59939660008223, 790 277.8022229956425
 C 793.3333333333334 278.0050493912028, 796.6666666666666 284.29139588252684, 800 284.29139588252684
 C 803.3333333333334 284.29139588252684, 806.6666666666666 269.18735438148633, 810 269.18735438148633
 C 813.3333333333334 269.18735438148633, 816.6666666666666 284.25649440927265, 820 291.5212725828782
 C 823.3333333333334 298.7860507564838, 826.6666666666666 312.8014808760141, 830 312.8014808760141
 C 833.3333333333334 312.8014808760141, 836.6666666666666 308.110853109649, 840 302.94994351643265
 C 843.3333333333334 297.7890339232163, 846.6666666666666 266.808669036326, 850 266.808669036326
 C 853.3333333333334 266.808669036326, 856.6666666666666 282.40564015792694, 860 284.60729337340956
 C 863.3333333333334 286.8089465888922, 866.6666666666666 286.76252634733345, 870 288.6621369008152
 C 873.3333333333334 290.56174745429695, 876.6666666666666 298.2470629507695, 880 298.2470629507695
 C 883.3333333333334 298.2470629507695, 886.6666666666666 267.4191003627311, 890 267.4191003627311
 C 893.3333333333334 267.4191003627311, 896.6666666666666 284.5733047784724, 900 284.5733047784724
 C 903.3333333333334 284.5733047784724, 906.6666666666666 283.2746644749136, 910 283.2746644749136
 C 913.3333333333334 283.2746644749136, 916.6666666666666 288.19440006205303, 920 288.19440006205303
 C 923.3333333333334 288.19440006205303, 926.6666666666666 282.3690136406874, 930 282.3690136406874
 C 933.3333333333334 282.3690136406874, 936.6666666666666 286.00415264157084, 940 286.00415264157084
 C 943.3333333333334 286.00415264157084, 946.6666666666666 284.86642323903743, 950 283.4417935816838
 C 953.3333333333334 282.01716392433013, 956.6666666666666 270.5705395138766, 960 270.5705395138766
 C 963.3333333333334 270.5705395138766, 966.6666666666666 285.3916283621117, 970 292.6695439700323
 C 973.3333333333334 299.9474595779529, 976.6666666666666 314.244325487189, 980 314.244325487189
 C 983.3333333333334 314.244325487189, 986.6666666666666 313.5616112833176, 990 312.36315520406527
 C 993.3333333333334 311.16469912481296, 996.6666666666666 271.8564440208464, 1000 271.8564440208464
 C 1003.3333333333334 271.8564440208464, 1006.6666666666666 296.81964404837817, 1010 296.81964404837817
 C 1013.3333333333334 296.81964404837817, 1016.6666666666666 289.84803868556844, 1020 289.84803868556844
 C 1023.3333333333334 289.84803868556844, 1026.6666666666667 309.01917479245594, 1030 309.01917479245594
 C 1033.3333333333333 309.01917479245594, 1036.6666666666667 270.3563635712332, 1040 270.3563635712332
 C 1043.3333333333333 270.3563635712332, 1046.6666666666667 286.42659156335236, 1050 286.42659156335236
 C 1053.3333333333333 286.42659156335236, 1056.6666666666667 283.34796119122734, 1060 283.34796119122734
 C 1063.3333333333333 283.34796119122734, 1066.6666666666667 291.1480183520995, 1070 291.1480183520995
 C 1073.3333333333333 291.1480183520995, 1076.6666666666667 283.44520948106754, 1080 283.44520948106754
 C 1083.3333333333333 283.44520948106754, 1086.6666666666667 284.2799375332186, 1090 285.20528860848333
 C 1093.3333333333333 286.1306396837481, 1096.6666666666667 291.7716645213529, 1100 291.7716645213529
 C 1103.3333333333333 291.7716645213529, 1106.6666666666667 263.68268555615026, 1110 263.68268555615026
 C 1113.3333333333333 263.68268555615026, 1116.6666666666667 303.4006950950033, 1120 304.4492209778939
 C 1123.3333333333333 305.4977468607845, 1126.6666666666667 305.1732020488404, 1130 306.08512356145684
 C 1133.3333333333333 306.9970450740733, 1136.6666666666667 314.43420016322096, 1140 314.43420016322096
 C 1143.3333333333333 314.43420016322096, 1146.6666666666667 275.2309592037373, 1150 275.2309592037373
 C 1153.3333333333333 275.2309592037373, 1156.6666666666667 327.5764567653121, 1160 327.5764567653121
 C 1163.3333333333333 327.5764567653121, 1166.6666666666667 302.1339453844379, 1170 296.8318916285692
 C 1173.3333333333333 291.52983787270057, 1176.6666666666667 286.10358625854457, 1180 286.10358625854457
 C 1183.3333333333333 286.10358625854457, 1186.6666666666667 301.36795778247637, 1190 308.04083158972514
 C 1193.3333333333333 314.7137053969739, 1196.6666666666667 326.44944227129326, 1200 326.44944227129326
 C 1203.3333333333333 326.44944227129326, 1206.6666666666667 317.0812784951279, 1210 314.547278807665
 C 1213.3333333333333 312.0132791202021, 1216.6666666666667 308.962881537993, 1220 308.962881537993
 C 1223.3333333333333 308.962881537993, 1226.6666666666667 341.54202707893756, 1230 341.54202707893756
 C 1233.3333333333333 341.54202707893756, 1236.6666666666667 294.33208649918157, 1240 294.33208649918157
 C 1243.3333333333333 294.33208649918157, 1246.6666666666667 296.4074189600793, 1250 299.5337696221919
 C 1253.3333333333333 302.6601202843045, 1256.6666666666667 333.7013080478846, 1260 347.16256709912625
 C 1263.3333333333333 360.6238261503679, 1266.6666666666667 375.3432802331034, 1270 382.2144519600221
 C 1273.3333333333333 389.0856236869407, 1276.6666666666667 395.07068912168603, 1280 396.81414572589415
 C 1283.3333333333333 398.55760233010227, 1286.6666666666667 398.93804857529807, 1290 400
" fill="transparent" stroke="white" stroke-width="2" />
  </g>
</svg>