<svg 
  baseProfile="tiny"
  preserveAspectRatio="keep"
  version="1.2"
  viewBox="-2.000000 2.000000 1292.000000 404.000000"
  height="100%" width="100%"
  xmlns="http://www.w3.org/2000/svg"
  xmlns:ev="http://www.w3.org/2001/xml-events"
  xmlns:xlink="http://www.w3.org/1999/xlink"
>
  <g style="transform-origin: center center;">
    <path d="M 0.000000 400.000000 C 3.3333333333333335 387.86035674434856, 6.666666666666666 366.87188271858196, 10 363.5810702330457
 C 13.333333333333334 360.29025774750943, 16.666666666666668 357.8708947986702, 20 357.8708947986702
 C 23.333333333333332 357.8708947986702, 26.666666666666668 370.96261886226995, 30 370.96261886226995
 C 33.333333333333336 370.96261886226995, 36.666666666666664 368.9434810169905, 40 365.42106069365815
 C 43.333333333333336 361.8986403703258, 46.666666666666664 252.17199426854614, 50 251.90263078375762
 C 53.333333333333336 251.6332672989691, 56.666666666666664 251.49714230471903, 60 251.49714230471903
 C 63.333333333333336 251.49714230471903, 66.66666666666667 272.97766707035294, 70 272.97766707035294
 C 73.33333333333333 272.97766707035294, 76.66666666666667 241.2842717056444, 80 241.2842717056444
 C 83.33333333333333 241.2842717056444, 86.66666666666667 284.58754127533246, 90 284.58754127533246
 C 93.33333333333333 284.58754127533246, 96.66666666666667 257.83326157750764, 100 257.83326157750764
 C 103.33333333333333 257.83326157750764, 106.66666666666667 264.5868711616347, 110 264.5868711616347
 C 113.33333333333333 264.5868711616347, 116.66666666666667 256.80626986696075, 120 256.80626986696075
 C 123.33333333333333 256.80626986696075, 126.66666666666667 267.6513689014186, 130 268.9863353537521
 C 133.33333333333334 270.3213018060856, 136.66666666666666 271.3827677478958, 140 271.3827677478958
 C 143.33333333333334 271.3827677478958, 146.66666666666666 266.3756298311448, 150 266.3756298311448
 C 153.33333333333334 266.3756298311448, 156.66666666666666 282.34638908157103, 160 282.34638908157103
 C 163.33333333333334 282.34638908157103, 166.66666666666666 281.83802212366226, 170 281.3085686433817
 C 173.33333333333334 280.77911516310115, 176.66666666666666 279.4719631641338, 180 277.92564413318644
 C 183.33333333333334 276.3793251022391, 186.66666666666666 271.12383874033156, 190 270.54715844340933
 C 193.33333333333334 269.9704781464871, 196.66666666666666 269.5672589984681, 200 269.5672589984681
 C 203.33333333333334 269.5672589984681, 206.66666666666666 270.0311560749197, 210 270.2798075084929
 C 213.33333333333334 270.52845894206615, 216.66666666666666 270.5964861719161, 220 271.06245393964207
 C 223.33333333333334 271.528421707368, 226.66666666666666 277.59848902493616, 230 277.59848902493616
 C 233.33333333333334 277.59848902493616, 236.66666666666666 271.63735607052786, 240 271.63735607052786
 C 243.33333333333334 271.63735607052786, 246.66666666666666 273.3379973537206, 250 273.90686704246457
 C 253.33333333333334 274.47573673120854, 256.6666666666667 274.86859701688786, 260 275.27431175054153
 C 263.3333333333333 275.6800264841952, 266.6666666666667 275.6581921150557, 270 276.37092360601645
 C 273.3333333333333 277.08365509697717, 276.6666666666667 318.9804433923225, 280 318.9804433923225
 C 283.3333333333333 318.9804433923225, 286.6666666666667 294.5517658350711, 290 290.8203861973638
 C 293.3333333333333 287.0890065596565, 296.6666666666667 286.6201729126593, 300 283.83488419522047
 C 303.3333333333333 281.0495954777816, 306.6666666666667 273.4397841504067, 310 273.4397841504067
 C 313.3333333333333 273.4397841504067, 316.6666666666667 282.7171050028667, 320 282.7171050028667
 C 323.3333333333333 282.7171050028667, 326.6666666666667 280.90864915399925, 330 279.6868397515599
 C 333.3333333333333 278.4650303491205, 336.6666666666667 275.04936779488713, 340 275.04936779488713
 C 343.3333333333333 275.04936779488713, 346.6666666666667 282.42587923831496, 350 285.5520394085877
 C 353.3333333333333 288.6781995788604, 356.6666666666667 294.0237229092562, 360 294.0237229092562
 C 363.3333333333333 294.0237229092562, 366.6666666666667 291.63715243831143, 370 289.47915084872517
 C 373.3333333333333 287.3211492591389, 376.6666666666667 278.2286677087224, 380 278.2286677087224
 C 383.3333333333333 278.2286677087224, 386.6666666666667 280.4837529876697, 390 280.7330190595306
 C 393.3333333333333 280.9822851313915, 396.6666666666667 281.17253829246926, 400 281.17253829246926
 C 403.3333333333333 281.17253829246926, 406.6666666666667 278.17742921363606, 410 278.17742921363606
 C 413.3333333333333 278.17742921363606, 416.6666666666667 284.5821634491913, 420 286.0651522612217
 C 423.3333333333333 287.54814107325217, 426.6666666666667 289.1633978019498, 430 289.1633978019498
 C 433.3333333333333 289.1633978019498, 436.6666666666667 284.5790461239097, 440 283.84794595611197
 C 443.3333333333333 283.11684578831427, 446.6666666666667 283.1469439142176, 450 282.4662285478522
 C 453.3333333333333 281.7855131814868, 456.6666666666667 278.55424608206386, 460 278.55424608206386
 C 463.3333333333333 278.55424608206386, 466.6666666666667 284.121980189314, 470 284.121980189314
 C 473.3333333333333 284.121980189314, 476.6666666666667 280.9442802319444, 480 280.9442802319444
 C 483.3333333333333 280.9442802319444, 486.6666666666667 285.94935699005316, 490 285.94935699005316
 C 493.3333333333333 285.94935699005316, 496.6666666666667 282.1757628975109, 500 282.1757628975109
 C 503.3333333333333 282.1757628975109, 506.6666666666667 283.3415301038745, 510 283.79990289362354
 C 513.3333333333334 284.2582756833726, 516.6666666666666 284.9922104422548, 520 284.9922104422548
 C 523.3333333333334 284.9922104422548, 526.6666666666666 282.042731623826, 530 281.0498166892738
 C 533.3333333333334 280.05690175472165, 536.6666666666666 278.6561593939263, 540 278.6561593939263
 C 543.3333333333334 278.6561593939263, 546.6666666666666 284.3579552865207, 550 286.2710002033947
 C 553.3333333333334 288.1840451202687, 556.6666666666666 290.8758557629811, 560 290.8758557629811
 C 563.3333333333334 290.8758557629811, 566.6666666666666 279.2711000005006, 570 279.2711000005006
 C 573.3333333333334 279.2711000005006, 576.6666666666666 280.19540884317405, 580 280.19540884317405
 C 583.3333333333334 280.19540884317405, 586.6666666666666 278.15116293043997, 590 277.9548213223892
 C 593.3333333333334 277.7584797143384, 596.6666666666666 277.8282071875836, 600 277.6157383999156
 C 603.3333333333334 277.4032696122476, 606.6666666666666 272.3130799247224, 610 272.3130799247224
 C 613.3333333333334 272.3130799247224, 616.6666666666666 288.2064293501546, 620 288.2064293501546
 C 623.3333333333334 288.2064293501546, 626.6666666666666 284.98670966007813, 630 282.04022611785433
 C 633.3333333333334 279.09374257563053, 636.6666666666666 266.4357204913953, 640 266.4357204913953
 C 643.3333333333334 266.4357204913953, 646.6666666666666 286.03270567290343, 650 286.03270567290343
 C 653.3333333333334 286.03270567290343, 656.6666666666666 272.9733573617129, 660 272.9733573617129
 C 663.3333333333334 272.9733573617129, 666.6666666666666 274.55656870134743, 670 274.55656870134743
 C 673.3333333333334 274.55656870134743, 676.6666666666666 271.96302352826024, 680 271.96302352826024
 C 683.3333333333334 271.96302352826024, 686.6666666666666 287.0623205413466, 690 287.0623205413466
 C 693.3333333333334 287.0623205413466, 696.6666666666666 286.5599485424685, 700 286.07635123739965
 C 703.3333333333334 285.5927539323308, 706.6666666666666 284.58994064772094, 710 283.33156495192657
 C 713.3333333333334 282.0731892561322, 716.6666666666666 278.9471354589986, 720 277.2876766191039
 C 723.3333333333334 275.62821777920914, 726.6666666666666 273.0554276042821, 730 273.0554276042821
 C 733.3333333333334 273.0554276042821, 736.6666666666666 275.59058276944563, 740 279.0506562198003
 C 743.3333333333334 282.510729670155, 746.6666666666666 317.69825823295986, 750 317.69825823295986
 C 753.3333333333334 317.69825823295986, 756.6666666666666 297.6058190547876, 760 294.5813214098137
 C 763.3333333333334 291.5568237648398, 766.6666666666666 291.1891662432623, 770 288.93683233498393
 C 773.3333333333334 286.68449842670555, 776.6666666666666 281.0580478907716, 780 280.52111723869086
 C 783.3333333333334 279.9841865866101, 786.6666666666666 279.6304866374874, 790 279.6304866374874
 C 793.3333333333334 279.6304866374874, 796.6666666666666 283.1230282884363, 800 283.1230282884363
 C 803.3333333333334 283.1230282884363, 806.6666666666666 280.9516271689503, 810 280.9516271689503
 C 813.3333333333334 280.9516271689503, 816.6666666666666 289.25721366439524, 820 289.25721366439524
 C 823.3333333333334 289.25721366439524, 826.6666666666666 283.2476906258187, 830 283.2476906258187
 C 833.3333333333334 283.2476906258187, 836.6666666666666 288.47995385231417, 840 288.47995385231417
 C 843.3333333333334 288.47995385231417, 846.6666666666666 278.21347053369107, 850 278.21347053369107
 C 853.3333333333334 278.21347053369107, 856.6666666666666 280.2420038309142, 860 281.08002955877106
 C 863.3333333333334 281.9180552866279, 866.6666666666666 282.6327344915366, 870 283.3188177379181
 C 873.3333333333334 284.0049009842996, 876.6666666666666 284.399158000848, 880 285.22347383075635
 C 883.3333333333334 286.0477896606647, 886.6666666666666 288.74804651502654, 890 288.74804651502654
 C 893.3333333333334 288.74804651502654, 896.6666666666666 277.8100013473134, 900 277.5214516803205
 C 903.3333333333334 277.23290201332765, 906.6666666666666 277.07127114552407, 910 277.07127114552407
 C 913.3333333333334 277.07127114552407, 916.6666666666666 278.2044813933682, 920 279.3577527874844
 C 923.3333333333334 280.5110241816006, 926.6666666666666 286.46443921553043, 930 286.46443921553043
 C 933.3333333333334 286.46443921553043, 936.6666666666666 280.11352181955124, 940 280.11352181955124
 C 943.3333333333334 280.11352181955124, 946.6666666666666 288.0426575971915, 950 288.2790334355781
 C 953.3333333333334 288.51540927396474, 956.6666666666666 288.6496919694218, 960 288.6496919694218
 C 963.3333333333334 288.6496919694218, 966.6666666666666 274.7911191649684, 970 274.7911191649684
 C 973.3333333333334 274.7911191649684, 976.6666666666666 286.8666467359602, 980 286.8666467359602
 C 983.3333333333334 286.8666467359602, 986.6666666666666 279.491159765559, 990 279.491159765559
 C 993.3333333333334 279.491159765559, 996.6666666666666 281.625770633392, 1000 282.58750136454444
 C 1003.3333333333334 283.5492320956969, 1006.6666666666666 284.2307081360134, 1010 285.28850360384865
 C 1013.3333333333334 286.3462990716839, 1016.6666666666666 289.13452992742697, 1020 289.13452992742697
 C 1023.3333333333334 289.13452992742697, 1026.6666666666667 283.9288505360765, 1030 283.9288505360765
 C 1033.3333333333333 283.9288505360765, 1036.6666666666667 316.0798764435475, 1040 326.4088798694635
 C 1043.3333333333333 336.73788329537945, 1046.6666666666667 350.7975172513078, 1050 350.7975172513078
 C 1053.3333333333333 350.7975172513078, 1056.6666666666667 350.0205586889557, 1060 349.5080466099782
 C 1063.3333333333333 348.99553453100066, 1066.6666666666667 347.6042649395891, 1070 347.6042649395891
 C 1073.3333333333333 347.6042649395891, 1076.6666666666667 367.65476375937817, 1080 367.65476375937817
 C 1083.3333333333333 367.65476375937817, 1086.6666666666667 362.8220785974636, 1090 360.17490008957253
 C 1093.3333333333333 357.5277215816815, 1096.6666666666667 351.71095316365705, 1100 351.71095316365705
 C 1103.3333333333333 351.71095316365705, 1106.6666666666667 355.34437548611345, 1110 355.8043140940064
 C 1113.3333333333333 356.2642527018993, 1116.6666666666667 356.63407201236265, 1120 356.63407201236265
 C 1123.3333333333333 356.63407201236265, 1126.6666666666667 354.1486112401497, 1130 352.88719336032875
 C 1133.3333333333333 351.6257754805078, 1136.6666666666667 349.0648115924177, 1140 349.0648115924177
 C 1143.3333333333333 349.0648115924177, 1146.6666666666667 356.7192939925485, 1150 357.6392492260547
 C 1153.3333333333333 358.5592044595609, 1156.6666666666667 358.67423233711634, 1160 359.2838583436262
 C 1163.3333333333333 359.8934843501361, 1166.6666666666667 361.3435081661032, 1170 361.3435081661032
 C 1173.3333333333333 361.3435081661032, 1176.6666666666667 351.0919515800832, 1180 351.0919515800832
 C 1183.3333333333333 351.0919515800832, 1186.6666666666667 355.7601351915527, 1190 357.95262033256904
 C 1193.3333333333333 360.1451054735854, 1196.6666666666667 364.26931794519754, 1200 364.26931794519754
 C 1203.3333333333333 364.26931794519754, 1206.6666666666667 357.2173937262717, 1210 354.165880307504
 C 1213.3333333333333 351.11436688873624, 1216.6666666666667 345.7973024077561, 1220 345.7973024077561
 C 1223.3333333333333 345.7973024077561, 1226.6666666666667 351.231927348174, 1230 354.7367471132002
 C 1233.3333333333333 358.24156687822637, 1236.6666666666667 367.4999108608223, 1240 367.4999108608223
 C 1243.3333333333333 367.4999108608223, 1246.6666666666667 354.7172744295262, 1250 354.7172744295262
 C 1253.3333333333333 354.7172744295262, 1256.6666666666667 363.0307076571161, 1260 369.5163830158001
 C 1263.3333333333333 376.0020583744841, 1266.6666666666667 397.9101524385016, 1270 397.9101524385016
 C 1273.3333333333333 397.9101524385016, 1276.6666666666667 395.34597969134654, 1280 395.34597969134654
 C 1283.3333333333333 395.34597969134654, 1286.6666666666667 398.44865989711553, 1290 400
" fill="transparent" stroke="white" stroke-width="2" />
  </g>
</svg>