<svg 
  baseProfile="tiny"
  preserveAspectRatio="keep"
  version="1.2"
  viewBox="-2.000000 2.000000 1292.000000 404.000000"
  height="100%" width="100%"
  xmlns="http://www.w3.org/2000/svg"
  xmlns:ev="http://www.w3.org/2001/xml-events"
  xmlns:xlink="http://www.w3.org/1999/xlink"
>
  <g style="transform-origin: center center;">
    <path d="M 0.000000 400.000000 C 3.3333333333333335 395.21046958427365, 6.666666666666666 390.8089528445743, 10 385.63140875282096
 C 13.333333333333334 380.4538646610676, 16.666666666666668 375.5249801998774, 20 368.72950445068415
 C 23.333333333333332 361.9340287014909, 26.666666666666668 343.04867797337994, 30 343.04867797337994
 C 33.333333333333336 343.04867797337994, 36.666666666666664 349.15069049554745, 40 351.3115248662453
 C 43.333333333333336 353.47235923694313, 46.666666666666664 356.6448828038134, 50 356.6448828038134
 C 53.333333333333336 356.6448828038134, 56.666666666666664 351.1700670429222, 60 351.1700670429222
 C 63.333333333333336 351.1700670429222, 66.66666666666667 352.7210470866415, 70 353.8736134325278
 C 73.33333333333333 355.02617977841413, 76.66666666666667 356.91395686304145, 80 358.6689759856889
 C 83.33333333333333 360.4239951083364, 86.66666666666667 363.9533458623645, 90 364.5057300938381
 C 93.33333333333333 365.05811432531175, 96.66666666666667 365.01659918445154, 100 365.47138998638746
 C 103.33333333333333 365.9261807883234, 106.66666666666667 367.79527357579155, 110 367.79527357579155
 C 113.33333333333333 367.79527357579155, 116.66666666666667 360.416470697342, 120 360.416470697342
 C 123.33333333333333 360.416470697342, 126.66666666666667 372.03239253272915, 130 372.03239253272915
 C 133.33333333333334 372.03239253272915, 136.66666666666666 339.45370442378606, 140 329.78326402269755
 C 143.33333333333334 320.11282362160904, 146.66666666666666 307.6933248375622, 150 307.6933248375622
 C 153.33333333333334 307.6933248375622, 156.66666666666666 319.1207460256046, 160 319.1207460256046
 C 163.33333333333334 319.1207460256046, 166.66666666666666 310.0426026777294, 170 310.0426026777294
 C 173.33333333333334 310.0426026777294, 176.66666666666666 322.0151607056331, 180 324.26328508803175
 C 183.33333333333334 326.5114094704304, 186.66666666666666 328.6836946096148, 190 328.6836946096148
 C 193.33333333333334 328.6836946096148, 196.66666666666666 325.23449900710494, 200 323.54494936109006
 C 203.33333333333334 321.8553997150752, 206.66666666666666 320.392965767607, 210 318.54451013640517
 C 213.33333333333334 316.69605450520334, 216.66666666666666 312.3209217149637, 220 312.3209217149637
 C 223.33333333333334 312.3209217149637, 226.66666666666666 322.77461891793837, 230 322.77461891793837
 C 233.33333333333334 322.77461891793837, 236.66666666666666 320.94526911654094, 240 318.9802135407776
 C 243.33333333333334 317.0151579650142, 246.66666666666666 305.7728027907779, 250 305.7728027907779
 C 253.33333333333334 305.7728027907779, 256.6666666666667 313.7914181910167, 260 313.7914181910167
 C 263.3333333333333 313.7914181910167, 266.6666666666667 309.18460124730586, 270 309.18460124730586
 C 273.3333333333333 309.18460124730586, 276.6666666666667 316.9170039458133, 280 318.11610977591766
 C 283.3333333333333 319.31521560602204, 286.6666666666667 320.3683282313925, 290 320.3683282313925
 C 293.3333333333333 320.3683282313925, 296.6666666666667 314.02353354071676, 300 314.02353354071676
 C 303.3333333333333 314.02353354071676, 306.6666666666667 317.50694093013533, 310 317.50694093013533
 C 313.3333333333333 317.50694093013533, 316.6666666666667 313.93134536335987, 320 313.93134536335987
 C 323.3333333333333 313.93134536335987, 326.6666666666667 315.24397139529697, 330 316.68730409933363
 C 333.3333333333333 318.1306368033703, 336.6666666666667 326.7838441250929, 340 326.7838441250929
 C 343.3333333333333 326.7838441250929, 346.6666666666667 321.0885186668404, 350 318.3342844440061
 C 353.3333333333333 315.58005022117175, 356.6666666666667 310.74560099621056, 360 310.25035313303124
 C 363.3333333333333 309.7551052698519, 366.6666666666667 309.43230710731575, 370 309.43230710731575
 C 373.3333333333333 309.43230710731575, 376.6666666666667 319.3135405434291, 380 319.3135405434291
 C 383.3333333333333 319.3135405434291, 386.6666666666667 314.4550171563687, 390 314.4550171563687
 C 393.3333333333333 314.4550171563687, 396.6666666666667 322.28297641418897, 400 322.28297641418897
 C 403.3333333333333 322.28297641418897, 406.6666666666667 320.96671796242475, 410 320.32961730039045
 C 413.3333333333333 319.69251663835615, 416.6666666666667 319.4628199712561, 420 318.4585995768003
 C 423.3333333333333 317.45437918234444, 426.6666666666667 310.7304101562039, 430 310.7304101562039
 C 433.3333333333333 310.7304101562039, 436.6666666666667 310.8891112819189, 440 311.14633645225825
 C 443.3333333333333 311.40356162259764, 446.6666666666667 316.46306082438144, 450 316.47993075820875
 C 453.3333333333333 316.49680069203606, 456.6666666666667 316.5053562887709, 460 316.5053562887709
 C 463.3333333333333 316.5053562887709, 466.6666666666667 315.8361315530318, 470 314.93573963654956
 C 473.3333333333333 314.0353477200673, 476.6666666666667 305.2570789478924, 480 305.2570789478924
 C 483.3333333333333 305.2570789478924, 486.6666666666667 314.9789721414629, 490 315.6340105989187
 C 493.3333333333333 316.28904905637444, 496.6666666666667 316.71933400533993, 500 316.71933400533993
 C 503.3333333333333 316.71933400533993, 506.6666666666667 314.34375350794056, 510 313.7218975715531
 C 513.3333333333334 313.1000416351656, 516.6666666666666 312.3676936941977, 520 312.3676936941977
 C 523.3333333333334 312.3676936941977, 526.6666666666666 314.04631100425024, 530 314.04631100425024
 C 533.3333333333334 314.04631100425024, 536.6666666666666 300.80400549494254, 540 300.80400549494254
 C 543.3333333333334 300.80400549494254, 546.6666666666666 312.01721357396104, 550 313.9051826520678
 C 553.3333333333334 315.7931517301746, 556.6666666666666 317.2868276333904, 560 317.5181068322442
 C 563.3333333333334 317.749386031098, 566.6666666666666 317.90187573899925, 570 317.90187573899925
 C 573.3333333333334 317.90187573899925, 576.6666666666666 306.2730531387156, 580 306.2730531387156
 C 583.3333333333334 306.2730531387156, 586.6666666666666 306.37450525766053, 590 306.56259592444127
 C 593.3333333333334 306.750686591222, 596.6666666666666 316.57255554319215, 600 317.5917316867528
 C 603.3333333333334 318.6109078303134, 606.6666666666666 319.36649891519187, 610 319.36649891519187
 C 613.3333333333334 319.36649891519187, 616.6666666666666 304.3133010862503, 620 304.3133010862503
 C 623.3333333333334 304.3133010862503, 626.6666666666666 307.63478828523597, 630 309.7814153913489
 C 633.3333333333334 311.92804249746183, 636.6666666666666 316.79243808544646, 640 317.6131074013739
 C 643.3333333333334 318.4337767173013, 646.6666666666666 319.07368907617143, 650 319.07368907617143
 C 653.3333333333334 319.07368907617143, 656.6666666666666 318.540663647386, 660 318.540663647386
 C 663.3333333333334 318.540663647386, 666.6666666666666 321.1157459003563, 670 321.1157459003563
 C 673.3333333333334 321.1157459003563, 676.6666666666666 320.4667857403039, 680 320.4667857403039
 C 683.3333333333334 320.4667857403039, 686.6666666666666 333.6231969663652, 690 333.6231969663652
 C 693.3333333333334 333.6231969663652, 696.6666666666666 332.6189767941503, 700 332.6189767941503
 C 703.3333333333334 332.6189767941503, 706.6666666666666 349.64272942546864, 710 349.64272942546864
 C 713.3333333333334 349.64272942546864, 716.6666666666666 338.6392946725124, 720 338.6392946725124
 C 723.3333333333334 338.6392946725124, 726.6666666666666 344.36537015767817, 730 346.14666406348726
 C 733.3333333333334 347.92795796929636, 736.6666666666666 350.2950548179715, 740 350.2950548179715
 C 743.3333333333334 350.2950548179715, 746.6666666666666 341.52530446323306, 750 339.9989866693791
 C 753.3333333333334 338.4726688755252, 756.6666666666666 337.97046174139683, 760 337.05483644551623
 C 763.3333333333334 336.1392111496356, 766.6666666666666 334.4804581324785, 770 334.4804581324785
 C 773.3333333333334 334.4804581324785, 776.6666666666666 354.0997662833964, 780 354.0997662833964
 C 783.3333333333334 354.0997662833964, 786.6666666666666 349.48759633631, 790 346.9558149232907
 C 793.3333333333334 344.4240335102714, 796.6666666666666 338.84818762950033, 800 338.84818762950033
 C 803.3333333333334 338.84818762950033, 806.6666666666666 344.5966856949802, 810 346.1428856828136
 C 813.3333333333334 347.689085670647, 816.6666666666666 349.54333582139043, 820 349.54333582139043
 C 823.3333333333334 349.54333582139043, 826.6666666666666 339.65684520725824, 830 339.65684520725824
 C 833.3333333333334 339.65684520725824, 836.6666666666666 344.05849467124796, 840 344.9110183466141
 C 843.3333333333334 345.7635420219803, 846.6666666666666 346.6011580575693, 850 346.6011580575693
 C 853.3333333333334 346.6011580575693, 856.6666666666666 338.0067069447645, 860 338.0067069447645
 C 863.3333333333334 338.0067069447645, 866.6666666666666 338.6780269327167, 870 339.04192319419354
 C 873.3333333333334 339.4058194556704, 876.6666666666666 340.19660133138393, 880 340.19660133138393
 C 883.3333333333334 340.19660133138393, 886.6666666666666 339.748689739122, 890 339.748689739122
 C 893.3333333333334 339.748689739122, 896.6666666666666 341.3517325753211, 900 341.3517325753211
 C 903.3333333333334 341.3517325753211, 906.6666666666666 338.979332777957, 910 337.6063975413586
 C 913.3333333333334 336.2334623047602, 916.6666666666666 333.0313892715904, 920 333.0313892715904
 C 923.3333333333334 333.0313892715904, 926.6666666666666 338.6543246872595, 930 338.6543246872595
 C 933.3333333333334 338.6543246872595, 936.6666666666666 338.39444172797846, 940 338.05706842291613
 C 943.3333333333334 337.7196951178538, 946.6666666666666 334.7428171053149, 950 334.7428171053149
 C 953.3333333333334 334.7428171053149, 956.6666666666666 338.2575725707113, 960 338.2575725707113
 C 963.3333333333334 338.2575725707113, 966.6666666666666 337.39565248648603, 970 336.74730774110236
 C 973.3333333333334 336.0989629957187, 976.6666666666666 334.01599272456093, 980 334.01599272456093
 C 983.3333333333334 334.01599272456093, 986.6666666666666 339.60536740026555, 990 339.60536740026555
 C 993.3333333333334 339.60536740026555, 996.6666666666666 337.9716415873273, 1000 337.9716415873273
 C 1003.3333333333334 337.9716415873273, 1006.6666666666666 345.4520100342066, 1010 345.4520100342066
 C 1013.3333333333334 345.4520100342066, 1016.6666666666666 335.1667069999246, 1020 335.1667069999246
 C 1023.3333333333334 335.1667069999246, 1026.6666666666667 336.2403547769433, 1030 336.39216569780376
 C 1033.3333333333333 336.5439766186642, 1036.6666666666667 336.50365481774617, 1040 336.6718541659209
 C 1043.3333333333333 336.8400535140956, 1046.6666666666667 339.24821614919426, 1050 339.24821614919426
 C 1053.3333333333333 339.24821614919426, 1056.6666666666667 333.76649390684287, 1060 333.76649390684287
 C 1063.3333333333333 333.76649390684287, 1066.6666666666667 336.8865941233099, 1070 336.8865941233099
 C 1073.3333333333333 336.8865941233099, 1076.6666666666667 336.5844977217488, 1080 336.5844977217488
 C 1083.3333333333333 336.5844977217488, 1086.6666666666667 342.9888161885816, 1090 342.9888161885816
 C 1093.3333333333333 342.9888161885816, 1096.6666666666667 337.73825190678946, 1100 336.08015128411864
 C 1103.3333333333333 334.4220506614478, 1106.6666666666667 332.19395020352005, 1110 332.19395020352005
 C 1113.3333333333333 332.19395020352005, 1116.6666666666667 333.39935930088194, 1120 334.46344763553
 C 1123.3333333333333 335.527535970178, 1126.6666666666667 339.84302481988027, 1130 339.84302481988027
 C 1133.3333333333333 339.84302481988027, 1136.6666666666667 338.3234115194121, 1140 338.3234115194121
 C 1143.3333333333333 338.3234115194121, 1146.6666666666667 342.5559184291493, 1150 345.8163504981553
 C 1153.3333333333333 349.07678256716133, 1156.6666666666667 353.66475432080256, 1160 359.8982996587395
 C 1163.3333333333333 366.1318449966765, 1166.6666666666667 382.19312847251956, 1170 387.7260610653247
 C 1173.3333333333333 393.25899365812984, 1176.6666666666667 399.55263853189086, 1180 399.55263853189086
 C 1183.3333333333333 399.55263853189086, 1186.6666666666667 396.80705216516714, 1190 394.6522027804862
 C 1193.3333333333333 392.4973533958053, 1196.6666666666667 385.7491294422906, 1200 385.1569891638388
 C 1203.3333333333333 384.56484888538694, 1206.6666666666667 384.758388502992, 1210 384.1771187655808
 C 1213.3333333333333 383.59584902816965, 1216.6666666666667 376.2639316653458, 1220 376.2639316653458
 C 1223.3333333333333 376.2639316653458, 1226.6666666666667 376.2755354232262, 1230 376.29799719379844
 C 1233.3333333333333 376.3204589643707, 1236.6666666666667 379.26778187628156, 1240 379.37614813466814
 C 1243.3333333333333 379.4845143930547, 1246.6666666666667 379.5477599071177, 1250 379.5477599071177
 C 1253.3333333333333 379.5477599071177, 1256.6666666666667 378.1222724758025, 1260 378.1222724758025
 C 1263.3333333333333 378.1222724758025, 1266.6666666666667 381.4361456609553, 1270 381.4361456609553
 C 1273.3333333333333 381.4361456609553, 1276.6666666666667 380.5821969203434, 1280 380.5821969203434
 C 1283.3333333333333 380.5821969203434, 1286.6666666666667 393.5273989734478, 1290 400
" fill="transparent" stroke="white" stroke-width="2" />
  </g>
</svg>