<svg 
  baseProfile="tiny"
  preserveAspectRatio="keep"
  version="1.2"
  viewBox="-2.000000 2.000000 1292.000000 404.000000"
  height="100%" width="100%"
  xmlns="http://www.w3.org/2000/svg"
  xmlns:ev="http://www.w3.org/2001/xml-events"
  xmlns:xlink="http://www.w3.org/1999/xlink"
>
  <g style="transform-origin: center center;">
    <path d="M 0.000000 400.000000 C 3.3333333333333335 394.0970286047082, 6.666666666666666 382.2910858141247, 10 382.2910858141247
 C 13.333333333333334 382.2910858141247, 16.666666666666668 387.03930427402634, 20 387.03930427402634
 C 23.333333333333332 387.03930427402634, 26.666666666666668 364.3645483768643, 30 364.3645483768643
 C 33.333333333333336 364.3645483768643, 36.666666666666664 370.7945907718091, 40 370.7945907718091
 C 43.333333333333336 370.7945907718091, 46.666666666666664 367.006245850357, 50 367.006245850357
 C 53.333333333333336 367.006245850357, 56.666666666666664 377.5568288667063, 60 377.5568288667063
 C 63.333333333333336 377.5568288667063, 66.66666666666667 352.67227753911214, 70 352.67227753911214
 C 73.33333333333333 352.67227753911214, 76.66666666666667 357.8410477266082, 80 359.60965486542676
 C 83.33333333333333 361.3782620042453, 86.66666666666667 363.9052286757824, 90 363.9052286757824
 C 93.33333333333333 363.9052286757824, 96.66666666666667 346.9941289362594, 100 346.9941289362594
 C 103.33333333333333 346.9941289362594, 106.66666666666667 365.97387545703674, 110 365.97387545703674
 C 113.33333333333333 365.97387545703674, 116.66666666666667 360.72030192496715, 120 360.72030192496715
 C 123.33333333333333 360.72030192496715, 126.66666666666667 361.4028910337402, 130 362.3301356236324
 C 133.33333333333334 363.2573802135245, 136.66666666666666 372.5557234304659, 140 372.5557234304659
 C 143.33333333333334 372.5557234304659, 146.66666666666666 348.8802864618405, 150 348.8802864618405
 C 153.33333333333334 348.8802864618405, 156.66666666666666 361.4436059423636, 160 361.4436059423636
 C 163.33333333333334 361.4436059423636, 166.66666666666666 349.4749946836461, 170 349.4749946836461
 C 173.33333333333334 349.4749946836461, 176.66666666666666 359.0458708315772, 180 359.0458708315772
 C 183.33333333333334 359.0458708315772, 186.66666666666666 349.4822011353568, 190 349.4822011353568
 C 193.33333333333334 349.4822011353568, 196.66666666666666 364.3210018854664, 200 366.7191927645808
 C 203.33333333333334 369.1173836436952, 206.66666666666666 369.9072250415775, 210 371.2652143061821
 C 213.33333333333334 372.6232035707867, 216.66666666666666 374.9559411849977, 220 374.9559411849977
 C 223.33333333333334 374.9559411849977, 226.66666666666666 346.42861637999863, 230 346.42861637999863
 C 233.33333333333334 346.42861637999863, 236.66666666666666 364.1565657622045, 240 364.1565657622045
 C 243.33333333333334 364.1565657622045, 246.66666666666666 358.96368887042956, 250 358.96368887042956
 C 253.33333333333334 358.96368887042956, 256.6666666666667 365.4416586797408, 260 365.4416586797408
 C 263.3333333333333 365.4416586797408, 266.6666666666667 353.6864146567747, 270 353.6864146567747
 C 273.3333333333333 353.6864146567747, 276.6666666666667 364.0012996428863, 280 364.0012996428863
 C 283.3333333333333 364.0012996428863, 286.6666666666667 347.1697466965884, 290 347.1697466965884
 C 293.3333333333333 347.1697466965884, 296.6666666666667 363.715265066186, 300 365.3727630535492
 C 303.3333333333333 367.03026104091236, 306.6666666666667 368.25231122155583, 310 368.25231122155583
 C 313.3333333333333 368.25231122155583, 316.6666666666667 352.53836221401184, 320 352.53836221401184
 C 323.3333333333333 352.53836221401184, 326.6666666666667 359.91967240943245, 330 359.91967240943245
 C 333.3333333333333 359.91967240943245, 336.6666666666667 358.7852597155241, 340 358.7852597155241
 C 343.3333333333333 358.7852597155241, 346.6666666666667 367.6561690917342, 350 367.6561690917342
 C 353.3333333333333 367.6561690917342, 356.6666666666667 351.13298255091115, 360 347.61679701954216
 C 363.3333333333333 344.1006114881732, 366.6666666666667 343.4332294745354, 370 340.4584797872528
 C 373.3333333333333 337.4837300999703, 376.6666666666667 328.61166227077655, 380 328.61166227077655
 C 383.3333333333333 328.61166227077655, 386.6666666666667 342.21106778570777, 390 342.21106778570777
 C 393.3333333333333 342.21106778570777, 396.6666666666667 340.1446847804958, 400 340.1446847804958
 C 403.3333333333333 340.1446847804958, 406.6666666666667 341.96987613603625, 410 343.0193321716753
 C 413.3333333333333 344.0687882073143, 416.6666666666667 345.145507736854, 420 346.49903356059843
 C 423.3333333333333 347.8525593843429, 426.6666666666667 349.8157282037962, 430 351.37328280709437
 C 433.3333333333333 352.93083741039254, 436.6666666666667 355.8603730053529, 440 355.8603730053529
 C 443.3333333333333 355.8603730053529, 446.6666666666667 332.67978879896464, 450 332.67978879896464
 C 453.3333333333333 332.67978879896464, 456.6666666666667 340.53254215438034, 460 342.09068027167376
 C 463.3333333333333 343.6488183889672, 466.6666666666667 345.2001211456546, 470 345.2001211456546
 C 473.3333333333333 345.2001211456546, 476.6666666666667 335.53681709598686, 480 335.53681709598686
 C 483.3333333333333 335.53681709598686, 486.6666666666667 353.7640570753607, 490 353.7640570753607
 C 493.3333333333333 353.7640570753607, 496.6666666666667 353.4021826436092, 500 353.0575262615687
 C 503.3333333333333 352.71286987952817, 506.6666666666667 351.1304738984446, 510 351.1304738984446
 C 513.3333333333334 351.1304738984446, 516.6666666666666 358.95360256643585, 520 358.95360256643585
 C 523.3333333333334 358.95360256643585, 526.6666666666666 347.1413814107628, 530 340.44800356978186
 C 533.3333333333334 333.75462572880093, 536.6666666666666 318.50048222962863, 540 318.50048222962863
 C 543.3333333333334 318.50048222962863, 546.6666666666666 353.6046254979673, 550 353.6046254979673
 C 553.3333333333334 353.6046254979673, 556.6666666666666 334.64189035691595, 560 334.64189035691595
 C 563.3333333333334 334.64189035691595, 566.6666666666666 351.51194824853565, 570 352.7306045317474
 C 573.3333333333334 353.9492608149592, 576.6666666666666 354.76408570294404, 580 354.76408570294404
 C 583.3333333333334 354.76408570294404, 586.6666666666666 354.2967434493007, 590 353.4741405767871
 C 593.3333333333334 352.65153770427344, 596.6666666666666 325.0721842265525, 600 325.0721842265525
 C 603.3333333333334 325.0721842265525, 606.6666666666666 347.362024881272, 610 347.362024881272
 C 613.3333333333334 347.362024881272, 616.6666666666666 329.4746504612885, 620 329.4746504612885
 C 623.3333333333334 329.4746504612885, 626.6666666666666 346.6188986480343, 630 346.6188986480343
 C 633.3333333333334 346.6188986480343, 636.6666666666666 335.8746486097704, 640 335.8746486097704
 C 643.3333333333334 335.8746486097704, 646.6666666666666 343.92311275902995, 650 343.92311275902995
 C 653.3333333333334 343.92311275902995, 656.6666666666666 340.93065378005974, 660 340.37771643122414
 C 663.3333333333334 339.82477908238855, 666.6666666666666 339.9230787621478, 670 339.29502734202754
 C 673.3333333333334 338.6669759219073, 676.6666666666666 332.0411875039076, 680 332.0411875039076
 C 683.3333333333334 332.0411875039076, 686.6666666666666 347.6897355182488, 690 347.6897355182488
 C 693.3333333333334 347.6897355182488, 696.6666666666666 336.5545864124547, 700 335.2506358394031
 C 703.3333333333334 333.94668526635155, 706.6666666666666 332.92977794358194, 710 332.92977794358194
 C 713.3333333333334 332.92977794358194, 716.6666666666666 336.17924653173475, 720 337.6754955974596
 C 723.3333333333334 339.1717446631844, 726.6666666666666 340.7080706493791, 730 341.9336716713128
 C 733.3333333333334 343.1592726932465, 736.6666666666666 343.7172444596585, 740 345.1687819218942
 C 743.3333333333334 346.6203193841299, 746.6666666666666 351.8276952968647, 750 351.8276952968647
 C 753.3333333333334 351.8276952968647, 756.6666666666666 339.5517093514206, 760 339.5517093514206
 C 763.3333333333334 339.5517093514206, 766.6666666666666 347.9185196815867, 770 347.9185196815867
 C 773.3333333333334 347.9185196815867, 776.6666666666666 341.1216648944522, 780 336.9342827255236
 C 783.3333333333334 332.746900556595, 786.6666666666666 322.2648386416429, 790 322.2648386416429
 C 793.3333333333334 322.2648386416429, 796.6666666666666 337.6312305955692, 800 341.25056895242227
 C 803.3333333333334 344.86990730927533, 806.6666666666666 347.75018963605453, 810 348.85370981669405
 C 813.3333333333334 349.95722999733357, 816.6666666666666 350.9696519899359, 820 350.9696519899359
 C 823.3333333333334 350.9696519899359, 826.6666666666666 338.39438058050894, 830 338.39438058050894
 C 833.3333333333334 338.39438058050894, 836.6666666666666 340.7450984699245, 840 340.7450984699245
 C 843.3333333333334 340.7450984699245, 846.6666666666666 337.9631876166073, 850 336.8373520038953
 C 853.3333333333334 335.71151639118335, 856.6666666666666 333.8633813488746, 860 333.8633813488746
 C 863.3333333333334 333.8633813488746, 866.6666666666666 334.24840727401147, 870 334.8883237731161
 C 873.3333333333334 335.5282402722207, 876.6666666666666 350.00821768384657, 880 350.00821768384657
 C 883.3333333333334 350.00821768384657, 886.6666666666666 322.84480062403986, 890 322.84480062403986
 C 893.3333333333334 322.84480062403986, 896.6666666666666 328.3830771794668, 900 330.7390734760799
 C 903.3333333333334 333.095069772693, 906.6666666666666 337.13736133775205, 910 337.13736133775205
 C 913.3333333333334 337.13736133775205, 916.6666666666666 326.3690325577786, 920 326.3690325577786
 C 923.3333333333334 326.3690325577786, 926.6666666666666 348.3227146689978, 930 348.82508242381186
 C 933.3333333333334 349.32745017862595, 936.6666666666666 349.6047987886046, 940 349.6047987886046
 C 943.3333333333334 349.6047987886046, 946.6666666666666 336.2528496797126, 950 336.2528496797126
 C 953.3333333333334 336.2528496797126, 956.6666666666666 345.3527516708504, 960 345.405670129335
 C 963.3333333333334 345.45858858781963, 966.6666666666666 345.48574224116027, 970 345.48574224116027
 C 973.3333333333334 345.48574224116027, 976.6666666666666 337.90212487843166, 980 337.90212487843166
 C 983.3333333333334 337.90212487843166, 986.6666666666666 342.4297714787611, 990 342.4297714787611
 C 993.3333333333334 342.4297714787611, 996.6666666666666 335.7670018909007, 1000 334.4076631617412
 C 1003.3333333333334 333.0483244325817, 1006.6666666666666 331.67377217265005, 1010 331.67377217265005
 C 1013.3333333333334 331.67377217265005, 1016.6666666666666 340.6107440245304, 1020 340.6107440245304
 C 1023.3333333333334 340.6107440245304, 1026.6666666666667 323.2862756815181, 1030 323.2862756815181
 C 1033.3333333333333 323.2862756815181, 1036.6666666666667 328.6916554818197, 1040 332.36139630121926
 C 1043.3333333333333 336.03113712061884, 1046.6666666666667 342.9167047393474, 1050 346.35240021795147
 C 1053.3333333333333 349.78809569655556, 1056.6666666666667 352.9931503220774, 1060 354.5112193407738
 C 1063.3333333333333 356.0292883594702, 1066.6666666666667 356.6464645977098, 1070 357.66990246815107
 C 1073.3333333333333 358.69334033859235, 1076.6666666666667 360.65665656943315, 1080 360.65665656943315
 C 1083.3333333333333 360.65665656943315, 1086.6666666666667 349.99068114606854, 1090 348.22487393574255
 C 1093.3333333333333 346.45906672541656, 1096.6666666666667 344.85903979595827, 1100 344.85903979595827
 C 1103.3333333333333 344.85903979595827, 1106.6666666666667 352.85668828919216, 1110 352.85668828919216
 C 1113.3333333333333 352.85668828919216, 1116.6666666666667 344.05953192060167, 1120 344.05953192060167
 C 1123.3333333333333 344.05953192060167, 1126.6666666666667 358.23612715730394, 1130 361.92807646104126
 C 1133.3333333333333 365.6200257647786, 1136.6666666666667 369.5119933600839, 1140 369.9531908647742
 C 1143.3333333333333 370.3943883694644, 1146.6666666666667 370.674467681674, 1150 370.674467681674
 C 1153.3333333333333 370.674467681674, 1156.6666666666667 368.87743636160496, 1160 368.87743636160496
 C 1163.3333333333333 368.87743636160496, 1166.6666666666667 372.0274802849632, 1170 372.0274802849632
 C 1173.3333333333333 372.0274802849632, 1176.6666666666667 371.9901498192928, 1180 371.9194111674908
 C 1183.3333333333333 371.8486725156888, 1186.6666666666667 366.0723034365312, 1190 366.0723034365312
 C 1193.3333333333333 366.0723034365312, 1196.6666666666667 370.2212689272053, 1200 371.2221647187254
 C 1203.3333333333333 372.22306051024555, 1206.6666666666667 373.3413025672502, 1210 373.3413025672502
 C 1213.3333333333333 373.3413025672502, 1216.6666666666667 371.9166362120047, 1220 371.9166362120047
 C 1223.3333333333333 371.9166362120047, 1226.6666666666667 373.70100204789395, 1230 373.70100204789395
 C 1233.3333333333333 373.70100204789395, 1236.6666666666667 372.74207592342793, 1240 372.74207592342793
 C 1243.3333333333333 372.74207592342793, 1246.6666666666667 383.4604796252045, 1250 385.9955853433725
 C 1253.3333333333333 388.5306910615405, 1256.6666666666667 389.3077493605962, 1260 391.32828735225144
 C 1263.3333333333333 393.3488253439067, 1266.6666666666667 398.34962862126895, 1270 398.34962862126895
 C 1273.3333333333333 398.34962862126895, 1276.6666666666667 397.64654623735225, 1280 397.64654623735225
 C 1283.3333333333333 397.64654623735225, 1286.6666666666667 399.21551541245077, 1290 400
" fill="transparent" stroke="white" stroke-width="2" />
  </g>
</svg>