<svg 
  baseProfile="tiny"
  preserveAspectRatio="keep"
  version="1.2"
  viewBox="-2.000000 2.000000 1292.000000 404.000000"
  height="100%" width="100%"
  xmlns="http://www.w3.org/2000/svg"
  xmlns:ev="http://www.w3.org/2001/xml-events"
  xmlns:xlink="http://www.w3.org/1999/xlink"
>
  <g style="transform-origin: center center;">
    <path d="M 0.000000 400.000000 C 3.3333333333333335 375.2698829051212, 6.666666666666666 335.30698563736223, 10 325.80964871536366
 C 13.333333333333334 316.3123117933651, 16.666666666666668 308.1780251173398, 20 308.1780251173398
 C 23.333333333333332 308.1780251173398, 26.666666666666668 321.15363019209616, 30 328.22153759168134
 C 33.333333333333336 335.2894449912665, 36.666666666666664 350.7280384947004, 40 350.7280384947004
 C 43.333333333333336 350.7280384947004, 46.666666666666664 333.1469091408899, 50 329.3404264029197
 C 53.333333333333336 325.53394366494956, 56.666666666666664 321.5512800288135, 60 321.5512800288135
 C 63.333333333333336 321.5512800288135, 66.66666666666667 322.1506388002305, 70 323.00387234802054
 C 73.33333333333333 323.85710589581055, 76.66666666666667 330.3738240078582, 80 333.76616972609054
 C 83.33333333333333 337.15851544432286, 86.66666666666667 343.41831727479195, 90 343.41831727479195
 C 93.33333333333333 343.41831727479195, 96.66666666666667 329.8312440506485, 100 326.0166726328084
 C 103.33333333333333 322.20210121496837, 106.66666666666667 317.49171237284645, 110 317.49171237284645
 C 113.33333333333333 317.49171237284645, 116.66666666666667 332.77020655655286, 120 338.444891167656
 C 123.33333333333333 344.11957577875916, 126.66666666666667 352.78070377067274, 130 352.78070377067274
 C 133.33333333333334 352.78070377067274, 136.66666666666666 318.1224860356359, 140 310.5891654012312
 C 143.33333333333334 303.05584476682645, 146.66666666666666 295.1557065618124, 150 295.1557065618124
 C 153.33333333333334 295.1557065618124, 156.66666666666666 298.96683253544137, 160 301.2356706993852
 C 163.33333333333334 303.504508863329, 166.66666666666666 308.9659463117788, 170 308.9659463117788
 C 173.33333333333334 308.9659463117788, 176.66666666666666 307.93605812935954, 180 306.8423383683153
 C 183.33333333333334 305.7486186072711, 186.66666666666666 299.62961823363287, 190 299.62961823363287
 C 193.33333333333334 299.62961823363287, 196.66666666666666 312.7152291636454, 200 314.6502927254578
 C 203.33333333333334 316.5853562872702, 206.66666666666666 317.6456792544136, 210 318.24813519603435
 C 213.33333333333334 318.8505911376551, 216.66666666666666 319.4549358686569, 220 319.4549358686569
 C 223.33333333333334 319.4549358686569, 226.66666666666666 304.060589922248, 230 304.060589922248
 C 233.33333333333334 304.060589922248, 236.66666666666666 343.5720546775901, 240 343.5720546775901
 C 243.33333333333334 343.5720546775901, 246.66666666666666 329.04003894442184, 250 329.04003894442184
 C 253.33333333333334 329.04003894442184, 256.6666666666667 345.60745950537256, 260 345.60745950537256
 C 263.3333333333333 345.60745950537256, 266.6666666666667 269.2525532256821, 270 269.2525532256821
 C 273.3333333333333 269.2525532256821, 276.6666666666667 322.1919343228035, 280 329.7435394639779
 C 283.3333333333333 337.29514460515236, 286.6666666666667 343.6808093809333, 290 343.6808093809333
 C 293.3333333333333 343.6808093809333, 296.6666666666667 341.0799004071318, 300 337.39788975693205
 C 303.3333333333333 333.7158791067323, 306.6666666666667 291.73333015891876, 310 291.73333015891876
 C 313.3333333333333 291.73333015891876, 316.6666666666667 292.88732812554224, 320 294.7285167457127
 C 323.3333333333333 296.5697053658831, 326.6666666666667 330.1695004519095, 330 330.1695004519095
 C 333.3333333333333 330.1695004519095, 336.6666666666667 310.2696565989421, 340 310.2696565989421
 C 343.3333333333333 310.2696565989421, 346.6666666666667 323.7221913881419, 350 323.7221913881419
 C 353.3333333333333 323.7221913881419, 356.6666666666667 286.94956366552447, 360 286.94956366552447
 C 363.3333333333333 286.94956366552447, 366.6666666666667 288.5538259230233, 370 290.91353377833957
 C 373.3333333333333 293.27324163365586, 376.6666666666667 323.9730100742927, 380 323.9730100742927
 C 383.3333333333333 323.9730100742927, 386.6666666666667 316.4780922924621, 390 311.28337010979385
 C 393.3333333333333 306.0886479271256, 396.6666666666667 291.0939700539751, 400 291.0939700539751
 C 403.3333333333333 291.0939700539751, 406.6666666666667 328.08761551055693, 410 328.08761551055693
 C 413.3333333333333 328.08761551055693, 416.6666666666667 325.3174146417861, 420 322.1037354474837
 C 423.3333333333333 318.8900562531813, 426.6666666666667 297.3088527283003, 430 297.3088527283003
 C 433.3333333333333 297.3088527283003, 436.6666666666667 312.59220202846046, 440 312.6662233447006
 C 443.3333333333333 312.74024466094073, 446.6666666666667 312.77806391315147, 450 312.77806391315147
 C 453.3333333333333 312.77806391315147, 456.6666666666667 299.0709833715197, 460 299.0709833715197
 C 463.3333333333333 299.0709833715197, 466.6666666666667 334.55416656730154, 470 334.55416656730154
 C 473.3333333333333 334.55416656730154, 476.6666666666667 334.2982565552166, 480 333.8464542992499
 C 483.3333333333333 333.3946520432832, 486.6666666666667 317.8638873601415, 490 317.8638873601415
 C 493.3333333333333 317.8638873601415, 496.6666666666667 341.5764654866775, 500 341.5764654866775
 C 503.3333333333333 341.5764654866775, 506.6666666666667 298.7163115133278, 510 298.7163115133278
 C 513.3333333333334 298.7163115133278, 516.6666666666666 299.3161629273472, 520 300.07729480492753
 C 523.3333333333334 300.8384266825079, 526.6666666666666 304.3311723419364, 530 307.16317977068786
 C 533.3333333333334 309.99518719943933, 536.6666666666666 317.77003552776966, 540 317.77003552776966
 C 543.3333333333334 317.77003552776966, 546.6666666666666 286.9542805804428, 550 286.9542805804428
 C 553.3333333333334 286.9542805804428, 556.6666666666666 329.4834538150717, 560 329.4834538150717
 C 563.3333333333334 329.4834538150717, 566.6666666666666 326.69550361147105, 570 323.8931828941335
 C 573.3333333333334 321.0908621767959, 576.6666666666666 306.948583745394, 580 306.948583745394
 C 583.3333333333334 306.948583745394, 586.6666666666666 309.5872986547339, 590 311.8445274968246
 C 593.3333333333334 314.10175633891527, 596.6666666666666 322.54541200694746, 600 322.8218752269713
 C 603.3333333333334 323.0983384469952, 606.6666666666666 322.975357570863, 610 323.2528511753667
 C 613.3333333333334 323.53034477987035, 616.6666666666666 335.4267914651938, 620 335.4267914651938
 C 623.3333333333334 335.4267914651938, 626.6666666666666 316.2572736819475, 630 316.2572736819475
 C 633.3333333333334 316.2572736819475, 636.6666666666666 328.29556386277903, 640 328.29556386277903
 C 643.3333333333334 328.29556386277903, 646.6666666666666 312.4302279250372, 650 312.4302279250372
 C 653.3333333333334 312.4302279250372, 656.6666666666666 314.19262036147745, 660 316.44569003017983
 C 663.3333333333334 318.6987596988822, 666.6666666666666 337.788005932033, 670 337.788005932033
 C 673.3333333333334 337.788005932033, 676.6666666666666 318.73840090678704, 680 318.73840090678704
 C 683.3333333333334 318.73840090678704, 686.6666666666666 327.4047196849548, 690 327.9485907557803
 C 693.3333333333334 328.4924618266058, 696.6666666666666 328.84368137842995, 700 328.84368137842995
 C 703.3333333333334 328.84368137842995, 706.6666666666666 327.14203236337295, 710 326.1455437092657
 C 713.3333333333334 325.1490550551585, 716.6666666666666 322.7942227429968, 720 322.7942227429968
 C 723.3333333333334 322.7942227429968, 726.6666666666666 343.70168542246466, 730 343.70168542246466
 C 733.3333333333334 343.70168542246466, 736.6666666666666 332.78716695158, 740 329.1931597073089
 C 743.3333333333334 325.5991524630378, 746.6666666666666 324.6512181534399, 750 320.614547982133
 C 753.3333333333334 316.57787781082607, 756.6666666666666 306.0292750179081, 760 300.03148966952233
 C 763.3333333333334 294.03370432113655, 766.6666666666666 284.0490047412629, 770 284.0490047412629
 C 773.3333333333334 284.0490047412629, 776.6666666666666 318.46498447121377, 780 318.46498447121377
 C 783.3333333333334 318.46498447121377, 786.6666666666666 273.6477603487114, 790 273.6477603487114
 C 793.3333333333334 273.6477603487114, 796.6666666666666 285.0865133843912, 800 291.8331035758587
 C 803.3333333333334 298.57969376732615, 806.6666666666666 310.7845377496082, 810 314.65060367782354
 C 813.3333333333334 318.5166696060389, 816.6666666666666 322.42577232832616, 820 322.42577232832616
 C 823.3333333333334 322.42577232832616, 826.6666666666666 321.1838430274875, 830 319.9916237306527
 C 833.3333333333334 318.79940443381787, 836.6666666666666 313.2512614980319, 840 313.2512614980319
 C 843.3333333333334 313.2512614980319, 846.6666666666666 320.321196620362, 850 320.321196620362
 C 853.3333333333334 320.321196620362, 856.6666666666666 317.9074229965899, 860 317.65469987864446
 C 863.3333333333334 317.40197676069903, 866.6666666666666 317.21279084467864, 870 317.21279084467864
 C 873.3333333333334 317.21279084467864, 876.6666666666666 320.44825381340644, 880 320.44825381340644
 C 883.3333333333334 320.44825381340644, 886.6666666666666 308.5933970176417, 890 308.5933970176417
 C 893.3333333333334 308.5933970176417, 896.6666666666666 311.12021990940053, 900 313.57467073177
 C 903.3333333333334 316.0291215541395, 906.6666666666666 327.68629938623064, 910 327.68629938623064
 C 913.3333333333334 327.68629938623064, 916.6666666666666 309.469547019105, 920 309.34910254468565
 C 923.3333333333334 309.2286580702663, 926.6666666666666 309.16663810736475, 930 309.16663810736475
 C 933.3333333333334 309.16663810736475, 936.6666666666666 329.43296238351815, 940 329.43296238351815
 C 943.3333333333334 329.43296238351815, 946.6666666666666 319.59377267811414, 950 319.244386037883
 C 953.3333333333334 318.8949993976518, 956.6666666666666 318.69188661377035, 960 318.69188661377035
 C 963.3333333333334 318.69188661377035, 966.6666666666666 326.2754517887087, 970 326.2754517887087
 C 973.3333333333334 326.2754517887087, 976.6666666666666 323.42821182963894, 980 322.36504417507626
 C 983.3333333333334 321.3018765205136, 986.6666666666666 319.672015512121, 990 319.672015512121
 C 993.3333333333334 319.672015512121, 996.6666666666666 328.51100128195725, 1000 330.9257354839643
 C 1003.3333333333334 333.3404696859713, 1006.6666666666666 336.2669501780632, 1010 336.2669501780632
 C 1013.3333333333334 336.2669501780632, 1016.6666666666666 326.39494808178983, 1020 326.39494808178983
 C 1023.3333333333334 326.39494808178983, 1026.6666666666667 346.74992605711515, 1030 346.74992605711515
 C 1033.3333333333333 346.74992605711515, 1036.6666666666667 343.7398217094249, 1040 343.7398217094249
 C 1043.3333333333333 343.7398217094249, 1046.6666666666667 344.2469660675882, 1050 345.0259038594643
 C 1053.3333333333333 345.8048416513404, 1056.6666666666667 357.79549028614855, 1060 357.79549028614855
 C 1063.3333333333333 357.79549028614855, 1066.6666666666667 355.88438353197614, 1070 355.6798350973525
 C 1073.3333333333333 355.4752866627289, 1076.6666666666667 355.3209677492817, 1080 355.3209677492817
 C 1083.3333333333333 355.3209677492817, 1086.6666666666667 359.067019580894, 1090 359.067019580894
 C 1093.3333333333333 359.067019580894, 1096.6666666666667 357.66135625179857, 1100 357.66135625179857
 C 1103.3333333333333 357.66135625179857, 1106.6666666666667 358.6951767613838, 1110 358.6951767613838
 C 1113.3333333333333 358.6951767613838, 1116.6666666666667 355.34497598254484, 1120 355.34497598254484
 C 1123.3333333333333 355.34497598254484, 1126.6666666666667 358.7717012438376, 1130 358.7717012438376
 C 1133.3333333333333 358.7717012438376, 1136.6666666666667 358.32104607858923, 1140 357.6382639937342
 C 1143.3333333333333 356.95548190887916, 1146.6666666666667 348.65692834167277, 1150 347.0141364846519
 C 1153.3333333333333 345.371344627631, 1156.6666666666667 344.43159695212887, 1160 343.8057984176134
 C 1163.3333333333333 343.17999988309793, 1166.6666666666667 342.47886571512095, 1170 342.47886571512095
 C 1173.3333333333333 342.47886571512095, 1176.6666666666667 344.78969115107384, 1180 346.28316883564645
 C 1183.3333333333333 347.77664652021906, 1186.6666666666667 349.35445696461784, 1190 351.7320121147156
 C 1193.3333333333333 354.10956726481334, 1196.6666666666667 359.1880460944939, 1200 362.0546039641207
 C 1203.3333333333333 364.9211618337475, 1206.6666666666667 367.10205828498266, 1210 369.4242313223497
 C 1213.3333333333333 371.7464043597168, 1216.6666666666667 372.8150433735252, 1220 376.0294540461729
 C 1223.3333333333333 379.24386471882053, 1226.6666666666667 393.8853229228816, 1230 393.8853229228816
 C 1233.3333333333333 393.8853229228816, 1236.6666666666667 385.9019513075024, 1240 383.3530383916643
 C 1243.3333333333333 380.80412547582625, 1246.6666666666667 377.3507543908637, 1250 377.3507543908637
 C 1253.3333333333333 377.3507543908637, 1256.6666666666667 379.53229295165625, 1260 379.5363329516012
 C 1263.3333333333333 379.54037295154615, 1266.6666666666667 379.5383623478186, 1270 379.5424098009273
 C 1273.3333333333333 379.54645725403606, 1276.6666666666667 383.0913622167674, 1280 386.04961212105536
 C 1283.3333333333333 389.00786202534334, 1286.6666666666667 395.34987070701845, 1290 400
" fill="transparent" stroke="white" stroke-width="2" />
  </g>
</svg>