<svg 
  baseProfile="tiny"
  preserveAspectRatio="keep"
  version="1.2"
  viewBox="-2.000000 2.000000 1292.000000 404.000000"
  height="100%" width="100%"
  xmlns="http://www.w3.org/2000/svg"
  xmlns:ev="http://www.w3.org/2001/xml-events"
  xmlns:xlink="http://www.w3.org/1999/xlink"
>
  <g style="transform-origin: center center;">
    <path d="M 0.000000 400.000000 C 3.3333333333333335 396.1222314696825, 6.666666666666666 390.3251051879239, 10 388.36669440904757
 C 13.333333333333334 386.40828363017124, 16.666666666666668 385.22024695679477, 20 384.4366797852551
 C 23.333333333333332 383.6531126137154, 26.666666666666668 382.75983430130515, 30 382.75983430130515
 C 33.333333333333336 382.75983430130515, 36.666666666666664 387.3494505195497, 40 387.3494505195497
 C 43.333333333333336 387.3494505195497, 46.666666666666664 364.53767085785034, 50 364.53767085785034
 C 53.333333333333336 364.53767085785034, 56.666666666666664 376.1808753652219, 60 376.1808753652219
 C 63.333333333333336 376.1808753652219, 66.66666666666667 372.4446375481964, 70 369.923895489426
 C 73.33333333333333 367.4031534306556, 76.66666666666667 360.36831333177446, 80 360.36831333177446
 C 83.33333333333333 360.36831333177446, 86.66666666666667 371.1701931753809, 90 371.1701931753809
 C 93.33333333333333 371.1701931753809, 96.66666666666667 354.71058556418666, 100 354.71058556418666
 C 103.33333333333333 354.71058556418666, 106.66666666666667 371.44407447576697, 110 371.44407447576697
 C 113.33333333333333 371.44407447576697, 116.66666666666667 364.124771005032, 120 364.124771005032
 C 123.33333333333333 364.124771005032, 126.66666666666667 367.23364250535974, 130 368.6997343021881
 C 133.33333333333334 370.1658260990165, 136.66666666666666 372.93446189878597, 140 372.93446189878597
 C 143.33333333333334 372.93446189878597, 146.66666666666666 358.64683228280654, 150 358.64683228280654
 C 153.33333333333334 358.64683228280654, 156.66666666666666 364.7982937598113, 160 364.7982937598113
 C 163.33333333333334 364.7982937598113, 166.66666666666666 356.137452552158, 170 356.137452552158
 C 173.33333333333334 356.137452552158, 176.66666666666666 361.22131086824254, 180 363.2058660617023
 C 183.33333333333334 365.19042125516205, 186.66666666666666 368.34849590407515, 190 368.34849590407515
 C 193.33333333333334 368.34849590407515, 196.66666666666666 364.20718166079814, 200 364.20718166079814
 C 203.33333333333334 364.20718166079814, 206.66666666666666 370.68347781046634, 210 370.68347781046634
 C 213.33333333333334 370.68347781046634, 216.66666666666666 362.07711044768587, 220 362.07711044768587
 C 223.33333333333334 362.07711044768587, 226.66666666666666 363.1134022955924, 230 364.2107952897713
 C 233.33333333333334 365.3081882839502, 236.66666666666666 371.41397347912397, 240 371.41397347912397
 C 243.33333333333334 371.41397347912397, 246.66666666666666 370.780683153033, 250 369.94798927020554
 C 253.33333333333334 369.11529538737807, 256.6666666666667 363.15547142096267, 260 361.50765758018304
 C 263.3333333333333 359.8598437394034, 266.6666666666667 358.0123479816741, 270 358.0123479816741
 C 273.3333333333333 358.0123479816741, 276.6666666666667 360.740642818875, 280 360.740642818875
 C 283.3333333333333 360.740642818875, 286.6666666666667 314.6890495833945, 290 309.20416236533265
 C 293.3333333333333 303.7192751472708, 296.6666666666667 299.4139060797106, 300 299.4139060797106
 C 303.3333333333333 299.4139060797106, 306.6666666666667 360.4786169342605, 310 360.4786169342605
 C 313.3333333333333 360.4786169342605, 316.6666666666667 358.1927835713691, 320 356.4827612344779
 C 323.3333333333333 354.7727388975867, 326.6666666666667 352.8953477096043, 330 349.31939475035415
 C 333.3333333333333 345.743441791104, 336.6666666666667 335.80113711191996, 340 327.9661651571852
 C 343.3333333333333 320.1311932024504, 346.6666666666667 301.8273357622619, 350 301.8273357622619
 C 353.3333333333333 301.8273357622619, 356.6666666666667 353.32986032883093, 360 357.17677793212715
 C 363.3333333333333 361.02369553542337, 366.6666666666667 363.61875319318176, 370 363.61875319318176
 C 373.3333333333333 363.61875319318176, 376.6666666666667 363.28960068603095, 380 362.68807107829656
 C 383.3333333333333 362.08654147056217, 386.6666666666667 335.76501901139835, 390 333.106626505275
 C 393.3333333333333 330.4482339991517, 396.6666666666667 328.4977611307946, 400 328.4977611307946
 C 403.3333333333333 328.4977611307946, 406.6666666666667 350.9381691811572, 410 356.7170704483567
 C 413.3333333333333 362.4959717155562, 416.6666666666667 369.22872900030063, 420 369.22872900030063
 C 423.3333333333333 369.22872900030063, 426.6666666666667 360.00634115229207, 430 351.0937938576799
 C 433.3333333333333 342.1812465630677, 436.6666666666667 300.2257931120693, 440 300.2257931120693
 C 443.3333333333333 300.2257931120693, 446.6666666666667 366.47138810614405, 450 366.47138810614405
 C 453.3333333333333 366.47138810614405, 456.6666666666667 355.55055019829365, 460 355.3441639568913
 C 463.3333333333333 355.13777771548894, 466.6666666666667 355.23455924579946, 470 355.0257250525005
 C 473.3333333333333 354.8168908592015, 476.6666666666667 344.12977706054255, 480 335.79696418771107
 C 483.3333333333333 327.4641513148796, 486.6666666666667 300.0821243118606, 490 300.0821243118606
 C 493.3333333333333 300.0821243118606, 496.6666666666667 348.1628867724648, 500 348.1628867724648
 C 503.3333333333333 348.1628867724648, 506.6666666666667 347.49243946690126, 510 347.49243946690126
 C 513.3333333333334 347.49243946690126, 516.6666666666666 364.0609023994556, 520 364.0609023994556
 C 523.3333333333334 364.0609023994556, 526.6666666666666 319.22633200871024, 530 311.8305096408824
 C 533.3333333333334 304.4346872730545, 536.6666666666666 297.7450182145341, 540 297.7450182145341
 C 543.3333333333334 297.7450182145341, 546.6666666666666 360.04846470194644, 550 360.04846470194644
 C 553.3333333333334 360.04846470194644, 556.6666666666666 350.43802419969234, 560 350.43802419969234
 C 563.3333333333334 350.43802419969234, 566.6666666666666 356.4440223200552, 570 356.4440223200552
 C 573.3333333333334 356.4440223200552, 576.6666666666666 303.0561372816136, 580 300.97606884211666
 C 583.3333333333334 298.89600040261973, 586.6666666666666 297.6699978870964, 590 297.6699978870964
 C 593.3333333333334 297.6699978870964, 596.6666666666666 352.3424037475826, 600 352.3424037475826
 C 603.3333333333334 352.3424037475826, 606.6666666666666 352.20063223559634, 610 351.92898408350055
 C 613.3333333333334 351.65733593140476, 616.6666666666666 332.7777178653627, 620 323.6046719885077
 C 623.3333333333334 314.43162611165263, 626.6666666666666 297.8351087576059, 630 296.8461968178867
 C 633.3333333333334 295.85728487816755, 636.6666666666666 295.2757716969402, 640 295.2757716969402
 C 643.3333333333334 295.2757716969402, 646.6666666666666 348.0638347981666, 650 348.0638347981666
 C 653.3333333333334 348.0638347981666, 656.6666666666666 345.2114321357725, 660 344.0591421097454
 C 663.3333333333334 342.90685208371826, 666.6666666666666 341.8217473893853, 670 341.01825121361117
 C 673.3333333333334 340.21475503783705, 676.6666666666666 339.02167069307393, 680 339.02167069307393
 C 683.3333333333334 339.02167069307393, 686.6666666666666 344.2073441176214, 690 344.2073441176214
 C 693.3333333333334 344.2073441176214, 696.6666666666666 337.55953114449426, 700 337.55953114449426
 C 703.3333333333334 337.55953114449426, 706.6666666666666 342.77802736996364, 710 342.77802736996364
 C 713.3333333333334 342.77802736996364, 716.6666666666666 342.4748513062791, 720 342.13879417253185
 C 723.3333333333334 341.8027370387846, 726.6666666666666 340.879676065471, 730 339.75452275211103
 C 733.3333333333334 338.62936943875104, 736.6666666666666 334.7126616672624, 740 333.97739874785594
 C 743.3333333333334 333.2421358284495, 746.6666666666666 332.6142741042919, 750 332.6142741042919
 C 753.3333333333334 332.6142741042919, 756.6666666666666 338.1301014190513, 760 339.07966365234535
 C 763.3333333333334 340.0292258856394, 766.6666666666666 340.90645401403583, 770 340.90645401403583
 C 773.3333333333334 340.90645401403583, 776.6666666666666 340.6315513232677, 780 340.26537145074207
 C 783.3333333333334 339.89919157821646, 786.6666666666666 336.43009498120233, 790 336.43009498120233
 C 793.3333333333334 336.43009498120233, 796.6666666666666 337.09632742215604, 800 337.70285585850695
 C 803.3333333333334 338.30938429485786, 806.6666666666666 340.22763555586835, 810 340.8930758956137
 C 813.3333333333334 341.5585162353591, 816.6666666666666 341.5081865151197, 820 342.3457516181934
 C 823.3333333333334 343.1833167212671, 826.6666666666666 351.6417517054533, 830 351.6417517054533
 C 833.3333333333334 351.6417517054533, 836.6666666666666 343.55990182585225, 840 343.09166702125833
 C 843.3333333333334 342.6234322166644, 846.6666666666666 342.3264560683601, 850 342.3264560683601
 C 853.3333333333334 342.3264560683601, 856.6666666666666 357.7438338082281, 860 357.7438338082281
 C 863.3333333333334 357.7438338082281, 866.6666666666666 304.1918619933346, 870 304.1918619933346
 C 873.3333333333334 304.1918619933346, 876.6666666666666 371.09833222789206, 880 371.09833222789206
 C 883.3333333333334 371.09833222789206, 886.6666666666666 364.0597553654463, 890 362.32254826006476
 C 893.3333333333334 360.58534115468325, 896.6666666666666 359.76239856790215, 900 358.6162062309754
 C 903.3333333333334 357.4700138940487, 906.6666666666666 357.3243651968928, 910 355.4093116145715
 C 913.3333333333334 353.4942580322502, 916.6666666666666 327.8542111964935, 920 327.8542111964935
 C 923.3333333333334 327.8542111964935, 926.6666666666666 362.3079278233128, 930 362.3079278233128
 C 933.3333333333334 362.3079278233128, 936.6666666666666 361.8871826932296, 940 361.8871826932296
 C 943.3333333333334 361.8871826932296, 946.6666666666666 363.0672316125153, 950 363.0672316125153
 C 953.3333333333334 363.0672316125153, 956.6666666666666 344.93406461056566, 960 340.6489355535095
 C 963.3333333333334 336.3638064964533, 966.6666666666666 331.63752162975584, 970 331.63752162975584
 C 973.3333333333334 331.63752162975584, 976.6666666666666 341.118095965473, 980 341.118095965473
 C 983.3333333333334 341.118095965473, 986.6666666666666 340.90948342167474, 990 340.63873169877473
 C 993.3333333333334 340.36797997587473, 996.6666666666666 339.11699214256373, 1000 337.98045929462484
 C 1003.3333333333334 336.84392644668594, 1006.6666666666666 335.9344170377422, 1010 333.2274980355335
 C 1013.3333333333334 330.52057903332474, 1016.6666666666666 305.3624933664421, 1020 305.3624933664421
 C 1023.3333333333334 305.3624933664421, 1026.6666666666667 335.6637849281409, 1030 337.2128074472274
 C 1033.3333333333333 338.76182996631394, 1036.6666666666667 339.7191857204206, 1040 339.7191857204206
 C 1043.3333333333333 339.7191857204206, 1046.6666666666667 329.12048552949483, 1050 325.52884159510563
 C 1053.3333333333333 321.93719766071644, 1056.6666666666667 316.84418265017365, 1060 316.84418265017365
 C 1063.3333333333333 316.84418265017365, 1066.6666666666667 316.98265494631585, 1070 317.2432726564512
 C 1073.3333333333333 317.5038903665866, 1076.6666666666667 336.3546846133993, 1080 336.3546846133993
 C 1083.3333333333333 336.3546846133993, 1086.6666666666667 335.26389831540325, 1090 335.26389831540325
 C 1093.3333333333333 335.26389831540325, 1096.6666666666667 340.99954963340036, 1100 340.99954963340036
 C 1103.3333333333333 340.99954963340036, 1106.6666666666667 315.24973469168873, 1110 315.24973469168873
 C 1113.3333333333333 315.24973469168873, 1116.6666666666667 330.39373432890164, 1120 330.39373432890164
 C 1123.3333333333333 330.39373432890164, 1126.6666666666667 329.88140217278146, 1130 329.2344082425708
 C 1133.3333333333333 328.5874143123601, 1136.6666666666667 323.2762210771394, 1140 323.2762210771394
 C 1143.3333333333333 323.2762210771394, 1146.6666666666667 340.9968187496131, 1150 340.9968187496131
 C 1153.3333333333333 340.9968187496131, 1156.6666666666667 306.88711162994093, 1160 306.88711162994093
 C 1163.3333333333333 306.88711162994093, 1166.6666666666667 319.98406329540273, 1170 324.86590623192274
 C 1173.3333333333333 329.74774916844274, 1176.6666666666667 337.2208334154826, 1180 337.2208334154826
 C 1183.3333333333333 337.2208334154826, 1186.6666666666667 327.5741861035614, 1190 327.5741861035614
 C 1193.3333333333333 327.5741861035614, 1196.6666666666667 337.86336295409797, 1200 337.86336295409797
 C 1203.3333333333333 337.86336295409797, 1206.6666666666667 312.88334033854403, 1210 312.88334033854403
 C 1213.3333333333333 312.88334033854403, 1216.6666666666667 322.9074816971527, 1220 325.67970783661593
 C 1223.3333333333333 328.45193397607915, 1226.6666666666667 331.8398678781173, 1230 331.8398678781173
 C 1233.3333333333333 331.8398678781173, 1236.6666666666667 329.5713760478919, 1240 329.5713760478919
 C 1243.3333333333333 329.5713760478919, 1246.6666666666667 355.0863426473072, 1250 360.99634728529054
 C 1253.3333333333333 366.90635192327386, 1256.6666666666667 367.8207696398516, 1260 373.3448858370124
 C 1263.3333333333333 378.86900203417315, 1266.6666666666667 397.9155565901286, 1270 398.5327164424549
 C 1273.3333333333333 399.1498762947812, 1276.6666666666667 399.2727305290069, 1280 399.4937785739761
 C 1283.3333333333333 399.7148266189453, 1286.6666666666667 399.8312595246587, 1290 400
" fill="transparent" stroke="white" stroke-width="2" />
  </g>
</svg>