<svg 
  baseProfile="tiny"
  preserveAspectRatio="keep"
  version="1.2"
  viewBox="-2.000000 2.000000 1292.000000 404.000000"
  height="100%" width="100%"
  xmlns="http://www.w3.org/2000/svg"
  xmlns:ev="http://www.w3.org/2001/xml-events"
  xmlns:xlink="http://www.w3.org/1999/xlink"
>
  <g style="transform-origin: center center;">
    <path d="M 0.000000 400.000000 C 3.3333333333333335 399.74206403220336, 6.666666666666666 399.66103733617604, 10 399.2261920966101
 C 13.333333333333334 398.7913468570441, 16.666666666666668 395.473119756343, 20 395.073404193052
 C 23.333333333333332 394.673688629761, 26.666666666666668 394.37265818037264, 30 394.37265818037264
 C 33.333333333333336 394.37265818037264, 36.666666666666664 397.2549786979058, 40 397.2549786979058
 C 43.333333333333336 397.2549786979058, 46.666666666666664 368.6892123457535, 50 368.6892123457535
 C 53.333333333333336 368.6892123457535, 56.666666666666664 375.5599559443499, 60 377.04931049486504
 C 63.333333333333336 378.5386650453802, 66.66666666666667 378.73944514184336, 70 380.0980410090198
 C 73.33333333333333 381.4566368761963, 76.66666666666667 384.4882263299598, 80 386.2444234392362
 C 83.33333333333333 388.0006205485126, 86.66666666666667 389.37235027996036, 90 390.85461380811745
 C 93.33333333333333 392.33687733627454, 96.66666666666667 395.14919094327996, 100 395.14919094327996
 C 103.33333333333333 395.14919094327996, 106.66666666666667 344.8061914311937, 110 344.8061914311937
 C 113.33333333333333 344.8061914311937, 116.66666666666667 354.45747044968937, 120 357.8609014747366
 C 123.33333333333333 361.2643324997838, 126.66666666666667 366.2445325668985, 130 366.2445325668985
 C 133.33333333333334 366.2445325668985, 136.66666666666666 334.6039666756152, 140 334.6039666756152
 C 143.33333333333334 334.6039666756152, 146.66666666666666 347.73270935917094, 150 351.47000406197924
 C 153.33333333333334 355.20729876478754, 156.66666666666666 359.86691594265966, 160 359.86691594265966
 C 163.33333333333334 359.86691594265966, 166.66666666666666 336.38225571590556, 170 336.38225571590556
 C 173.33333333333334 336.38225571590556, 176.66666666666666 345.5415808136808, 180 350.4558000786185
 C 183.33333333333334 355.3700193435562, 186.66666666666666 365.9343720205093, 190 365.9343720205093
 C 193.33333333333334 365.9343720205093, 196.66666666666666 267.2586598810391, 200 267.2586598810391
 C 203.33333333333334 267.2586598810391, 206.66666666666666 276.02470861789175, 210 276.02470861789175
 C 213.33333333333334 276.02470861789175, 216.66666666666666 271.4231468782029, 220 270.90428307386395
 C 223.33333333333334 270.385419269525, 226.66666666666666 269.98648343047756, 230 269.98648343047756
 C 233.33333333333334 269.98648343047756, 236.66666666666666 275.06715560177065, 240 275.06715560177065
 C 243.33333333333334 275.06715560177065, 246.66666666666666 273.8915461680205, 250 273.45508687142217
 C 253.33333333333334 273.0186275748238, 256.6666666666667 272.3526993004573, 260 272.3526993004573
 C 263.3333333333333 272.3526993004573, 266.6666666666667 283.4747137614661, 270 283.4747137614661
 C 273.3333333333333 283.4747137614661, 276.6666666666667 279.6934324545694, 280 279.6934324545694
 C 283.3333333333333 279.6934324545694, 286.6666666666667 285.1872301965555, 290 289.68121355438996
 C 293.3333333333333 294.1751969122244, 296.6666666666667 309.5176010586959, 300 310.417710209442
 C 303.3333333333333 311.31781936018814, 306.6666666666667 311.86190626720486, 310 311.86190626720486
 C 313.3333333333333 311.86190626720486, 316.6666666666667 310.2676786926654, 320 310.2676786926654
 C 323.3333333333333 310.2676786926654, 326.6666666666667 312.3605262788978, 330 312.3605262788978
 C 333.3333333333333 312.3605262788978, 336.6666666666667 310.9067709609669, 340 310.21611848824233
 C 343.3333333333333 309.52546601551774, 346.6666666666667 309.4772931489596, 350 308.2118758608517
 C 353.3333333333333 306.94645857274384, 356.6666666666667 272.3616743709673, 360 272.3616743709673
 C 363.3333333333333 272.3616743709673, 366.6666666666667 276.64960558799646, 370 276.64960558799646
 C 373.3333333333333 276.64960558799646, 376.6666666666667 273.63350703445303, 380 273.63350703445303
 C 383.3333333333333 273.63350703445303, 386.6666666666667 278.0817178744904, 390 280.4463610457106
 C 393.3333333333333 282.8110042169308, 396.6666666666667 287.8455565446401, 400 287.8455565446401
 C 403.3333333333333 287.8455565446401, 406.6666666666667 285.08571581370535, 410 285.08571581370535
 C 413.3333333333333 285.08571581370535, 416.6666666666667 298.3868669695887, 420 302.40499336667295
 C 423.3333333333333 306.4231197637572, 426.6666666666667 310.0692333890532, 430 311.6492155039216
 C 433.3333333333333 313.22919761879, 436.6666666666667 314.83626307461674, 440 314.83626307461674
 C 443.3333333333333 314.83626307461674, 446.6666666666667 305.8966577166282, 450 305.8966577166282
 C 453.3333333333333 305.8966577166282, 456.6666666666667 311.3211720076237, 460 311.3211720076237
 C 463.3333333333333 311.3211720076237, 466.6666666666667 311.27076293216436, 470 311.17096431647144
 C 473.3333333333333 311.0711657007785, 476.6666666666667 267.0611015150331, 480 267.0611015150331
 C 483.3333333333333 267.0611015150331, 486.6666666666667 280.33518518976723, 490 280.33518518976723
 C 493.3333333333333 280.33518518976723, 496.6666666666667 279.44310293620697, 500 278.20542864799404
 C 503.3333333333333 276.9677543597811, 506.6666666666667 263.7352067444332, 510 263.7352067444332
 C 513.3333333333334 263.7352067444332, 516.6666666666666 268.7755068607434, 520 272.0247115635406
 C 523.3333333333334 275.27391626633784, 526.6666666666666 283.85287958185495, 530 283.85287958185495
 C 533.3333333333334 283.85287958185495, 536.6666666666666 277.2071558668862, 540 277.2071558668862
 C 543.3333333333334 277.2071558668862, 546.6666666666666 281.1082179684651, 550 282.9388890460168
 C 553.3333333333334 284.7695601235685, 556.6666666666666 285.7150605150785, 560 288.21042912239267
 C 563.3333333333334 290.70579772970683, 566.6666666666666 300.3882080069909, 570 301.1196990690306
 C 573.3333333333334 301.8511901310703, 576.6666666666666 301.66218309248666, 580 302.3188595311744
 C 583.3333333333334 302.9755359698621, 586.6666666666666 304.9438046498894, 590 307.83468384274806
 C 593.3333333333334 310.72556303560674, 596.6666666666666 328.11298873303673, 600 328.11298873303673
 C 603.3333333333334 328.11298873303673, 606.6666666666666 323.26650137556305, 610 323.26650137556305
 C 613.3333333333334 323.26650137556305, 616.6666666666666 334.31948475607254, 620 335.04501571187933
 C 623.3333333333334 335.7705466676861, 626.6666666666666 335.5461924265038, 630 336.2441040058132
 C 633.3333333333334 336.9420155851226, 636.6666666666666 341.27699550462734, 640 344.4905813391709
 C 643.3333333333334 347.70416717371444, 646.6666666666666 356.09303327362414, 650 356.09303327362414
 C 653.3333333333334 356.09303327362414, 656.6666666666666 343.9230877470746, 660 332.59907942367556
 C 663.3333333333334 321.27507110027653, 666.6666666666666 271.27882912533113, 670 271.27882912533113
 C 673.3333333333334 271.27882912533113, 676.6666666666666 281.0772907300202, 680 281.0772907300202
 C 683.3333333333334 281.0772907300202, 686.6666666666666 278.5788242622822, 690 278.5788242622822
 C 693.3333333333334 278.5788242622822, 696.6666666666666 290.54685974496135, 700 290.54685974496135
 C 703.3333333333334 290.54685974496135, 706.6666666666666 288.81986763376597, 710 287.9311292093587
 C 713.3333333333334 287.0423907849514, 716.6666666666666 285.21244209168026, 720 285.21244209168026
 C 723.3333333333334 285.21244209168026, 726.6666666666666 294.1976676987966, 730 296.4552332111681
 C 733.3333333333334 298.7127987235396, 736.6666666666666 299.2453328957042, 740 301.30119301302926
 C 743.3333333333334 303.3570531303543, 746.6666666666666 309.78160432576084, 750 309.78160432576084
 C 753.3333333333334 309.78160432576084, 756.6666666666666 299.3831615679044, 760 299.3831615679044
 C 763.3333333333334 299.3831615679044, 766.6666666666666 305.64459720106873, 770 307.4516491630573
 C 773.3333333333334 309.2587011250459, 776.6666666666666 311.5335142799495, 780 311.5335142799495
 C 783.3333333333334 311.5335142799495, 786.6666666666666 279.9312278787687, 790 279.9312278787687
 C 793.3333333333334 279.9312278787687, 796.6666666666666 281.70803411708175, 800 281.70803411708175
 C 803.3333333333334 281.70803411708175, 806.6666666666666 279.1431935968513, 810 279.1431935968513
 C 813.3333333333334 279.1431935968513, 816.6666666666666 301.60856835836694, 820 301.60856835836694
 C 823.3333333333334 301.60856835836694, 826.6666666666666 301.10159320799715, 830 301.10159320799715
 C 833.3333333333334 301.10159320799715, 836.6666666666666 316.8638270841033, 840 316.8638270841033
 C 843.3333333333334 316.8638270841033, 846.6666666666666 282.8481845237744, 850 276.7938604916952
 C 853.3333333333334 270.73953645961603, 856.6666666666666 265.050953573834, 860 265.050953573834
 C 863.3333333333334 265.050953573834, 866.6666666666666 275.29502999026954, 870 276.7145216875731
 C 873.3333333333334 278.13401338487665, 876.6666666666666 277.97945449429983, 880 279.31926745037424
 C 883.3333333333334 280.65908040644865, 886.6666666666666 287.69877308529595, 890 288.1168750990144
 C 893.3333333333334 288.53497711273286, 896.6666666666666 288.36642200740755, 900 288.79216753522127
 C 903.3333333333334 289.217913063035, 906.6666666666666 300.5512448923835, 910 300.5512448923835
 C 913.3333333333334 300.5512448923835, 916.6666666666666 300.39265465716016, 920 300.39265465716016
 C 923.3333333333334 300.39265465716016, 926.6666666666666 310.5703414657889, 930 310.7803388430158
 C 933.3333333333334 310.9903362202427, 936.6666666666666 310.90763303884466, 940 311.1051855584854
 C 943.3333333333334 311.30273807812614, 946.6666666666666 313.56011040033684, 950 314.48065532173996
 C 953.3333333333334 315.4012002431431, 956.6666666666666 316.81735687731805, 960 316.81735687731805
 C 963.3333333333334 316.81735687731805, 966.6666666666666 309.5787785845947, 970 308.5015444147971
 C 973.3333333333334 307.42431024499945, 976.6666666666666 306.49599310120254, 980 306.49599310120254
 C 983.3333333333334 306.49599310120254, 986.6666666666666 314.1026343266184, 990 314.1026343266184
 C 993.3333333333334 314.1026343266184, 996.6666666666666 311.01844670763893, 1000 307.0165689317397
 C 1003.3333333333334 303.01469115584047, 1006.6666666666666 267.749177966914, 1010 267.749177966914
 C 1013.3333333333334 267.749177966914, 1016.6666666666666 282.5754900297098, 1020 282.77906514603876
 C 1023.3333333333334 282.98264026236774, 1026.6666666666667 283.09076054543243, 1030 283.09076054543243
 C 1033.3333333333333 283.09076054543243, 1036.6666666666667 281.7065487799086, 1040 281.7065487799086
 C 1043.3333333333333 281.7065487799086, 1046.6666666666667 284.6928004322822, 1050 286.5005371666245
 C 1053.3333333333333 288.3082739009668, 1056.6666666666667 292.7430975340599, 1060 292.7430975340599
 C 1063.3333333333333 292.7430975340599, 1066.6666666666667 280.4317490201269, 1070 280.4317490201269
 C 1073.3333333333333 280.4317490201269, 1076.6666666666667 285.9226058464103, 1080 285.9226058464103
 C 1083.3333333333333 285.9226058464103, 1086.6666666666667 284.88483224430325, 1090 284.88483224430325
 C 1093.3333333333333 284.88483224430325, 1096.6666666666667 295.91076356777074, 1100 299.4437223746822
 C 1103.3333333333333 302.9766811815936, 1106.6666666666667 306.875424572772, 1110 307.77617437334965
 C 1113.3333333333333 308.6769241739273, 1116.6666666666667 309.38878773954013, 1120 309.38878773954013
 C 1123.3333333333333 309.38878773954013, 1126.6666666666667 300.6831849556065, 1130 300.6831849556065
 C 1133.3333333333333 300.6831849556065, 1136.6666666666667 305.1341843554909, 1140 310.0318566441464
 C 1143.3333333333333 314.9295289328019, 1146.6666666666667 338.5763208307021, 1150 344.33480132482595
 C 1153.3333333333333 350.0932818189498, 1156.6666666666667 353.830023110559, 1160 355.87957714484537
 C 1163.3333333333333 357.92913117913173, 1166.6666666666667 358.64843042837595, 1170 360.0697305257979
 C 1173.3333333333333 361.4910306232199, 1176.6666666666667 363.4100342853466, 1180 364.4100201345761
 C 1183.3333333333333 365.41000598380555, 1186.6666666666667 366.4790548118857, 1190 366.7021433083608
 C 1193.3333333333333 366.9252318048359, 1196.6666666666667 366.85836666661146, 1200 367.0939814790469
 C 1203.3333333333333 367.3295962914823, 1206.6666666666667 368.70887977390305, 1210 370.6988463413816
 C 1213.3333333333333 372.6888129088602, 1216.6666666666667 385.83109783129964, 1220 388.05661416684615
 C 1223.3333333333333 390.28213050239265, 1226.6666666666667 392.18978734470727, 1230 392.18978734470727
 C 1233.3333333333333 392.18978734470727, 1236.6666666666667 389.7969796504185, 1240 388.10498599957435
 C 1243.3333333333333 386.4129923487302, 1246.6666666666667 381.4026883107929, 1250 381.4026883107929
 C 1253.3333333333333 381.4026883107929, 1256.6666666666667 386.0244851369711, 1260 388.0507440704842
 C 1263.3333333333333 390.0770030039973, 1266.6666666666667 392.59059592151624, 1270 393.6500475107407
 C 1273.3333333333333 394.70949909996517, 1276.6666666666667 394.90663279225964, 1280 395.86900179479596
 C 1283.3333333333333 396.8313707973323, 1286.6666666666667 398.6230005982653, 1290 400
" fill="transparent" stroke="white" stroke-width="2" />
  </g>
</svg>