<svg 
  baseProfile="tiny"
  preserveAspectRatio="keep"
  version="1.2"
  viewBox="-2.000000 2.000000 1292.000000 404.000000"
  height="100%" width="100%"
  xmlns="http://www.w3.org/2000/svg"
  xmlns:ev="http://www.w3.org/2001/xml-events"
  xmlns:xlink="http://www.w3.org/1999/xlink"
>
  <g style="transform-origin: center center;">
    <path d="M 0.000000 400.000000 C 3.3333333333333335 398.40947817409426, 6.666666666666666 395.22843452228284, 10 395.22843452228284
 C 13.333333333333334 395.22843452228284, 16.666666666666668 396.1939467131348, 20 396.1939467131348
 C 23.333333333333332 396.1939467131348, 26.666666666666668 368.8431872669471, 30 368.8431872669471
 C 33.333333333333336 368.8431872669471, 36.666666666666664 376.67298001461484, 40 376.67298001461484
 C 43.333333333333336 376.67298001461484, 46.666666666666664 369.0080451983142, 50 369.0080451983142
 C 53.333333333333336 369.0080451983142, 56.666666666666664 385.48058247746184, 60 387.47519743079175
 C 63.333333333333336 389.46981238412167, 66.66666666666667 391.0455668332297, 70 391.0455668332297
 C 73.33333333333333 391.0455668332297, 76.66666666666667 331.999247224235, 80 331.999247224235
 C 83.33333333333333 331.999247224235, 86.66666666666667 345.7740998835764, 90 345.7740998835764
 C 93.33333333333333 345.7740998835764, 96.66666666666667 328.6889904935234, 100 328.6889904935234
 C 103.33333333333333 328.6889904935234, 106.66666666666667 355.83207035634, 110 355.83207035634
 C 113.33333333333333 355.83207035634, 116.66666666666667 324.72924049774247, 120 324.72924049774247
 C 123.33333333333333 324.72924049774247, 126.66666666666667 360.0229768851676, 130 360.0229768851676
 C 133.33333333333334 360.0229768851676, 136.66666666666666 317.5973363338947, 140 317.5973363338947
 C 143.33333333333334 317.5973363338947, 146.66666666666666 346.105052941389, 150 346.105052941389
 C 153.33333333333334 346.105052941389, 156.66666666666666 322.5519316541209, 160 322.5519316541209
 C 163.33333333333334 322.5519316541209, 166.66666666666666 348.74701134865995, 170 348.74701134865995
 C 173.33333333333334 348.74701134865995, 176.66666666666666 321.01522695643473, 180 321.01522695643473
 C 183.33333333333334 321.01522695643473, 186.66666666666666 348.1729123250594, 190 348.1729123250594
 C 193.33333333333334 348.1729123250594, 196.66666666666666 316.6953881012296, 200 316.6953881012296
 C 203.33333333333334 316.6953881012296, 206.66666666666666 359.5622358319418, 210 359.5622358319418
 C 213.33333333333334 359.5622358319418, 216.66666666666666 324.49403227111804, 220 324.49403227111804
 C 223.33333333333334 324.49403227111804, 226.66666666666666 345.85313362226475, 230 345.85313362226475
 C 233.33333333333334 345.85313362226475, 236.66666666666666 330.6999244490976, 240 330.6999244490976
 C 243.33333333333334 330.6999244490976, 246.66666666666666 345.86997854398413, 250 345.86997854398413
 C 253.33333333333334 345.86997854398413, 256.6666666666667 325.4896788353699, 260 325.4896788353699
 C 263.3333333333333 325.4896788353699, 266.6666666666667 348.320742565793, 270 348.320742565793
 C 273.3333333333333 348.320742565793, 276.6666666666667 329.75412031820196, 280 329.75412031820196
 C 283.3333333333333 329.75412031820196, 286.6666666666667 343.71248029811494, 290 343.71248029811494
 C 293.3333333333333 343.71248029811494, 296.6666666666667 323.4658271570559, 300 323.4658271570559
 C 303.3333333333333 323.4658271570559, 306.6666666666667 330.9715426550643, 310 331.92507002418137
 C 313.3333333333333 332.87859739329843, 316.6666666666667 333.6464048284074, 320 333.6464048284074
 C 323.3333333333333 333.6464048284074, 326.6666666666667 326.856236182317, 330 326.856236182317
 C 333.3333333333333 326.856236182317, 336.6666666666667 340.81141574179287, 340 340.81141574179287
 C 343.3333333333333 340.81141574179287, 346.6666666666667 334.18537102172587, 350 334.18537102172587
 C 353.3333333333333 334.18537102172587, 356.6666666666667 348.8570348271796, 360 348.8570348271796
 C 363.3333333333333 348.8570348271796, 366.6666666666667 318.8990617311463, 370 318.8990617311463
 C 373.3333333333333 318.8990617311463, 376.6666666666667 339.5987309882965, 380 339.5987309882965
 C 383.3333333333333 339.5987309882965, 386.6666666666667 321.08960923055076, 390 321.08960923055076
 C 393.3333333333333 321.08960923055076, 396.6666666666667 343.67329435664703, 400 343.67329435664703
 C 403.3333333333333 343.67329435664703, 406.6666666666667 326.5367899289977, 410 326.5367899289977
 C 413.3333333333333 326.5367899289977, 416.6666666666667 336.89302110511807, 420 336.89302110511807
 C 423.3333333333333 336.89302110511807, 426.6666666666667 335.2920796755962, 430 335.2920796755962
 C 433.3333333333333 335.2920796755962, 436.6666666666667 335.7396549367739, 440 335.7396549367739
 C 443.3333333333333 335.7396549367739, 446.6666666666667 323.41096985249726, 450 323.41096985249726
 C 453.3333333333333 323.41096985249726, 456.6666666666667 334.04850474803004, 460 334.04850474803004
 C 463.3333333333333 334.04850474803004, 466.6666666666667 327.17004184841994, 470 327.17004184841994
 C 473.3333333333333 327.17004184841994, 476.6666666666667 331.1440599237621, 480 331.1440599237621
 C 483.3333333333333 331.1440599237621, 486.6666666666667 323.7555415929718, 490 323.7555415929718
 C 493.3333333333333 323.7555415929718, 496.6666666666667 342.07504665197456, 500 342.07504665197456
 C 503.3333333333333 342.07504665197456, 506.6666666666667 324.88322319674694, 510 324.88322319674694
 C 513.3333333333334 324.88322319674694, 516.6666666666666 342.5342091113721, 520 342.5342091113721
 C 523.3333333333334 342.5342091113721, 526.6666666666666 339.70400924418044, 530 338.61763298049596
 C 533.3333333333334 337.53125671681147, 536.6666666666666 335.82695512056347, 540 335.82695512056347
 C 543.3333333333334 335.82695512056347, 546.6666666666666 345.3367723165207, 550 345.3367723165207
 C 553.3333333333334 345.3367723165207, 556.6666666666666 338.68987005574144, 560 338.68987005574144
 C 563.3333333333334 338.68987005574144, 566.6666666666666 351.8683852345555, 570 359.05818445162936
 C 573.3333333333334 366.2479836687032, 576.6666666666666 381.22512551749617, 580 381.9791932018429
 C 583.3333333333334 382.73326088618967, 586.6666666666666 382.5641029961104, 590 383.1690095567541
 C 593.3333333333334 383.77391611739773, 596.6666666666666 386.9911610217333, 600 386.9911610217333
 C 603.3333333333334 386.9911610217333, 606.6666666666666 352.5424054173946, 610 352.5424054173946
 C 613.3333333333334 352.5424054173946, 616.6666666666666 399.70868197621604, 620 399.70868197621604
 C 623.3333333333334 399.70868197621604, 626.6666666666666 398.7844332647598, 630 398.7844332647598
 C 633.3333333333334 398.7844332647598, 636.6666666666666 399.9795185137853, 640 399.9795185137853
 C 643.3333333333334 399.9795185137853, 646.6666666666666 334.4440788694082, 650 334.4440788694082
 C 653.3333333333334 334.4440788694082, 656.6666666666666 352.44457251585993, 660 353.77642664977213
 C 663.3333333333334 355.10828078368434, 666.6666666666666 356.004448953482, 670 356.004448953482
 C 673.3333333333334 356.004448953482, 676.6666666666666 355.55165020593347, 680 354.81474861315087
 C 683.3333333333334 354.07784702036827, 686.6666666666666 339.2241136831431, 690 339.2241136831431
 C 693.3333333333334 339.2241136831431, 696.6666666666666 357.7175307160639, 700 357.7175307160639
 C 703.3333333333334 357.7175307160639, 706.6666666666666 342.7988623183477, 710 342.7988623183477
 C 713.3333333333334 342.7988623183477, 716.6666666666666 343.7703137732534, 720 345.0784394254157
 C 723.3333333333334 346.386565077578, 726.6666666666666 359.17144569133643, 730 359.17144569133643
 C 733.3333333333334 359.17144569133643, 736.6666666666666 348.34708197955223, 740 348.34708197955223
 C 743.3333333333334 348.34708197955223, 746.6666666666666 362.16212160881685, 750 362.16212160881685
 C 753.3333333333334 362.16212160881685, 756.6666666666666 360.0687869109771, 760 357.75441171670025
 C 763.3333333333334 355.4400365224234, 766.6666666666666 341.40907277866154, 770 341.40907277866154
 C 773.3333333333334 341.40907277866154, 776.6666666666666 353.2953063101105, 780 353.2953063101105
 C 783.3333333333334 353.2953063101105, 786.6666666666666 340.53927551208966, 790 340.53927551208966
 C 793.3333333333334 340.53927551208966, 796.6666666666666 356.7662633112806, 800 356.7789810984853
 C 803.3333333333334 356.79169888569, 806.6666666666666 356.7980802149052, 810 356.7980802149052
 C 813.3333333333334 356.7980802149052, 816.6666666666666 346.90037800420527, 820 346.90037800420527
 C 823.3333333333334 346.90037800420527, 826.6666666666666 365.24589833491723, 830 365.24589833491723
 C 833.3333333333334 365.24589833491723, 836.6666666666666 335.8998996756958, 840 335.8998996756958
 C 843.3333333333334 335.8998996756958, 846.6666666666666 359.93225414246433, 850 359.93225414246433
 C 853.3333333333334 359.93225414246433, 856.6666666666666 350.33724191180886, 860 349.624470871671
 C 863.3333333333334 348.91169983153316, 866.6666666666666 349.0449696836329, 870 348.4315842608796
 C 873.3333333333334 347.8181988381263, 876.6666666666666 344.40843622487586, 880 344.40843622487586
 C 883.3333333333334 344.40843622487586, 886.6666666666666 344.75344606154283, 890 344.9737635079384
 C 893.3333333333334 345.1940809543339, 896.6666666666666 345.3053046471625, 900 345.7692768538762
 C 903.3333333333334 346.2332490605899, 906.6666666666666 351.3304633780383, 910 351.3304633780383
 C 913.3333333333334 351.3304633780383, 916.6666666666666 341.4434476937749, 920 341.4434476937749
 C 923.3333333333334 341.4434476937749, 926.6666666666666 353.2759623240581, 930 353.2759623240581
 C 933.3333333333334 353.2759623240581, 936.6666666666666 347.24658328786626, 940 346.8842216640929
 C 943.3333333333334 346.5218600403195, 946.6666666666666 346.6614748458469, 950 346.2901613820754
 C 953.3333333333334 345.91884791830387, 956.6666666666666 337.36934442052245, 960 337.36934442052245
 C 963.3333333333334 337.36934442052245, 966.6666666666666 361.97917379465065, 970 361.97917379465065
 C 973.3333333333334 361.97917379465065, 976.6666666666666 361.59060135121007, 980 360.9268190961851
 C 983.3333333333334 360.26303684116016, 986.6666666666666 342.44098218337365, 990 342.44098218337365
 C 993.3333333333334 342.44098218337365, 996.6666666666666 347.2735398102611, 1000 348.30406622704754
 C 1003.3333333333334 349.33459264383396, 1006.6666666666666 349.3382605308479, 1010 350.403319511105
 C 1013.3333333333334 351.4683784913621, 1016.6666666666666 357.0885458846326, 1020 357.0885458846326
 C 1023.3333333333334 357.0885458846326, 1026.6666666666667 342.0170681660287, 1030 342.0170681660287
 C 1033.3333333333333 342.0170681660287, 1036.6666666666667 347.06306268134836, 1040 350.02392253936523
 C 1043.3333333333333 352.9847823973821, 1046.6666666666667 359.99731095897835, 1050 359.99731095897835
 C 1053.3333333333333 359.99731095897835, 1056.6666666666667 356.7391126748067, 1060 353.8365754452376
 C 1063.3333333333333 350.9340382156685, 1066.6666666666667 338.992253200898, 1070 338.992253200898
 C 1073.3333333333333 338.992253200898, 1076.6666666666667 347.44148317486616, 1080 351.42287118806223
 C 1083.3333333333333 355.4042592012583, 1086.6666666666667 362.9172207668418, 1090 362.9172207668418
 C 1093.3333333333333 362.9172207668418, 1096.6666666666667 340.1942788386098, 1100 340.1942788386098
 C 1103.3333333333333 340.1942788386098, 1106.6666666666667 355.84246217632096, 1110 355.84246217632096
 C 1113.3333333333333 355.84246217632096, 1116.6666666666667 346.79650115739463, 1120 346.79650115739463
 C 1123.3333333333333 346.79650115739463, 1126.6666666666667 347.632697080757, 1130 348.9138591756963
 C 1133.3333333333333 350.1950212706356, 1136.6666666666667 369.7150289902415, 1140 369.7150289902415
 C 1143.3333333333333 369.7150289902415, 1146.6666666666667 359.88348161306544, 1150 354.58586917081203
 C 1153.3333333333333 349.2882567285586, 1156.6666666666667 337.8481592438543, 1160 337.8481592438543
 C 1163.3333333333333 337.8481592438543, 1166.6666666666667 349.23275686937654, 1170 350.18638343958617
 C 1173.3333333333333 351.1400100097958, 1176.6666666666667 351.8044102617689, 1180 351.8044102617689
 C 1183.3333333333333 351.8044102617689, 1186.6666666666667 348.96921939084785, 1190 348.96921939084785
 C 1193.3333333333333 348.96921939084785, 1196.6666666666667 354.6100828143436, 1200 354.6100828143436
 C 1203.3333333333333 354.6100828143436, 1206.6666666666667 341.379835567514, 1210 341.379835567514
 C 1213.3333333333333 341.379835567514, 1216.6666666666667 347.13535517512554, 1220 348.93637277557985
 C 1223.3333333333333 350.73739037603417, 1226.6666666666667 352.09843884000645, 1230 353.1411388564859
 C 1233.3333333333333 354.18383887296534, 1236.6666666666667 354.1048585168882, 1240 355.6315484093689
 C 1243.3333333333333 357.1582383018496, 1246.6666666666667 382.23667038432546, 1250 384.0938454743354
 C 1253.3333333333333 385.95102056434536, 1256.6666666666667 386.1572875181957, 1260 387.1818480194837
 C 1263.3333333333333 388.20640852077173, 1266.6666666666667 388.7138648750356, 1270 390.2413407005236
 C 1273.3333333333333 391.7688165260116, 1276.6666666666667 398.9701104667826, 1280 399.3655679469444
 C 1283.3333333333333 399.7610254271062, 1286.6666666666667 399.7885226489815, 1290 400
" fill="transparent" stroke="white" stroke-width="2" />
  </g>
</svg>