<svg 
  baseProfile="tiny"
  preserveAspectRatio="keep"
  version="1.2"
  viewBox="-2.000000 2.000000 1292.000000 404.000000"
  height="100%" width="100%"
  xmlns="http://www.w3.org/2000/svg"
  xmlns:ev="http://www.w3.org/2001/xml-events"
  xmlns:xlink="http://www.w3.org/1999/xlink"
>
  <g style="transform-origin: center center;">
    <path d="M 0.000000 400.000000 C 3.3333333333333335 387.13341140630695, 6.666666666666666 363.26735910817325, 10 361.4002342189208
 C 13.333333333333334 359.5331093296683, 16.666666666666668 359.64557864281323, 20 358.38043930232266
 C 23.333333333333332 357.1152999618321, 26.666666666666668 354.47326029953666, 30 353.2732616844031
 C 33.333333333333336 352.07326306926956, 36.666666666666664 351.61867154138747, 40 350.4935793114115
 C 43.333333333333336 349.36848708143555, 46.666666666666664 346.1978747069429, 50 346.1978747069429
 C 53.333333333333336 346.1978747069429, 56.666666666666664 350.4734978207686, 60 350.4734978207686
 C 63.333333333333336 350.4734978207686, 66.66666666666667 347.8180989417757, 70 347.8180989417757
 C 73.33333333333333 347.8180989417757, 76.66666666666667 348.46307467867734, 80 348.46307467867734
 C 83.33333333333333 348.46307467867734, 86.66666666666667 345.4192646383479, 90 343.51858443078993
 C 93.33333333333333 341.61790422323196, 96.66666666666667 339.4477242111969, 100 336.7848635973481
 C 103.33333333333333 334.12200298349927, 106.66666666666667 328.80039246568106, 110 326.96660182556315
 C 113.33333333333333 325.13281118544523, 116.66666666666667 324.6090497886541, 120 323.1453545508423
 C 123.33333333333333 321.6816593130305, 126.66666666666667 317.98469184681255, 130 317.98469184681255
 C 133.33333333333334 317.98469184681255, 136.66666666666666 322.82344635548066, 140 322.82344635548066
 C 143.33333333333334 322.82344635548066, 146.66666666666666 318.5850557603241, 150 318.5850557603241
 C 153.33333333333334 318.5850557603241, 156.66666666666666 322.8017126419195, 160 322.8017126419195
 C 163.33333333333334 322.8017126419195, 166.66666666666666 311.59151294328234, 170 308.78885888851266
 C 173.33333333333334 305.986204833743, 176.66666666666666 303.34864382432977, 180 302.78309512128874
 C 183.33333333333334 302.2175464182477, 186.66666666666666 302.3667816589799, 190 301.79523541570296
 C 193.33333333333334 301.223689172426, 196.66666666666666 295.30749950916817, 200 295.30749950916817
 C 203.33333333333334 295.30749950916817, 206.66666666666666 320.6250378131068, 210 320.6250378131068
 C 213.33333333333334 320.6250378131068, 216.66666666666666 300.5483882481679, 220 300.5483882481679
 C 223.33333333333334 300.5483882481679, 226.66666666666666 319.4669954826352, 230 319.4669954826352
 C 233.33333333333334 319.4669954826352, 236.66666666666666 313.30840140874875, 240 310.9126903817886
 C 243.33333333333334 308.51697935482844, 246.66666666666666 304.7159387866791, 250 304.7159387866791
 C 253.33333333333334 304.7159387866791, 256.6666666666667 312.8491226674082, 260 312.8491226674082
 C 263.3333333333333 312.8491226674082, 266.6666666666667 300.03866271725894, 270 300.03866271725894
 C 273.3333333333333 300.03866271725894, 276.6666666666667 320.1301753639735, 280 320.1301753639735
 C 283.3333333333333 320.1301753639735, 286.6666666666667 309.2321616895921, 290 308.5676628697659
 C 293.3333333333333 307.90316404993973, 296.6666666666667 308.110903029225, 300 307.4768838620706
 C 303.3333333333333 306.8428646949162, 306.6666666666667 300.05391220140314, 310 300.05391220140314
 C 313.3333333333333 300.05391220140314, 316.6666666666667 303.74391848357766, 320 305.67352675278426
 C 323.3333333333333 307.60313502199085, 326.6666666666667 311.6420682338793, 330 311.6420682338793
 C 333.3333333333333 311.6420682338793, 336.6666666666667 301.2152826488103, 340 301.2152826488103
 C 343.3333333333333 301.2152826488103, 346.6666666666667 312.08189862420505, 350 312.08189862420505
 C 353.3333333333333 312.08189862420505, 356.6666666666667 298.4796738613983, 360 298.4796738613983
 C 363.3333333333333 298.4796738613983, 366.6666666666667 303.7183634007983, 370 303.8690640870643
 C 373.3333333333333 304.01976477333034, 376.6666666666667 304.1050116322548, 380 304.1050116322548
 C 383.3333333333333 304.1050116322548, 386.6666666666667 302.0972967618863, 390 302.0972967618863
 C 393.3333333333333 302.0972967618863, 396.6666666666667 310.5343367703073, 400 310.5343367703073
 C 403.3333333333333 310.5343367703073, 406.6666666666667 296.82404549374655, 410 296.82404549374655
 C 413.3333333333333 296.82404549374655, 416.6666666666667 346.9932240999374, 420 349.3073332578467
 C 423.3333333333333 351.62144241575606, 426.6666666666667 353.0243336713956, 430 353.0243336713956
 C 433.3333333333333 353.0243336713956, 436.6666666666667 345.7077396656238, 440 338.71945886316126
 C 443.3333333333333 331.7311780606987, 446.6666666666667 299.49080143017034, 450 299.49080143017034
 C 453.3333333333333 299.49080143017034, 456.6666666666667 337.49125351108495, 460 342.9600240427262
 C 463.3333333333333 348.4287945743675, 466.6666666666667 351.77053688667684, 470 353.07129637017306
 C 473.3333333333333 354.3720558536693, 476.6666666666667 355.4889652743585, 480 355.4889652743585
 C 483.3333333333333 355.4889652743585, 486.6666666666667 351.4221018387881, 490 346.2765058118034
 C 493.3333333333333 341.13090978481875, 496.6666666666667 298.68461916267574, 500 298.68461916267574
 C 503.3333333333333 298.68461916267574, 506.6666666666667 342.6464890037032, 510 342.6464890037032
 C 513.3333333333334 342.6464890037032, 516.6666666666666 341.1990466396489, 520 339.45472105599623
 C 523.3333333333334 337.7103954723436, 526.6666666666666 324.9379119503669, 530 324.9379119503669
 C 533.3333333333334 324.9379119503669, 536.6666666666666 325.64740535648946, 540 325.64740535648946
 C 543.3333333333334 325.64740535648946, 546.6666666666666 307.1712734149109, 550 307.1712734149109
 C 553.3333333333334 307.1712734149109, 556.6666666666666 321.08259586626207, 560 323.1908872017116
 C 563.3333333333334 325.2991785371611, 566.6666666666666 327.13117831448966, 570 327.13117831448966
 C 573.3333333333334 327.13117831448966, 576.6666666666666 314.6141779166418, 580 314.29458547074483
 C 583.3333333333334 313.9749930248479, 586.6666666666666 314.1210000701004, 590 313.79659927024386
 C 593.3333333333334 313.4721984703873, 596.6666666666666 292.51239484352936, 600 292.51239484352936
 C 603.3333333333334 292.51239484352936, 606.6666666666666 319.66824784914104, 610 319.66824784914104
 C 613.3333333333334 319.66824784914104, 616.6666666666666 313.8148801583392, 620 310.65569271225206
 C 623.3333333333334 307.49650526616495, 626.6666666666666 300.66252814841755, 630 300.66252814841755
 C 633.3333333333334 300.66252814841755, 636.6666666666666 307.1958630090288, 640 307.1958630090288
 C 643.3333333333334 307.1958630090288, 646.6666666666666 298.9902016175747, 650 298.9902016175747
 C 653.3333333333334 298.9902016175747, 656.6666666666666 315.08098708070895, 660 315.08098708070895
 C 663.3333333333334 315.08098708070895, 666.6666666666666 306.1422210423682, 670 306.1422210423682
 C 673.3333333333334 306.1422210423682, 676.6666666666666 310.3859399559634, 680 310.3859399559634
 C 683.3333333333334 310.3859399559634, 686.6666666666666 299.6768497027161, 690 299.6768497027161
 C 693.3333333333334 299.6768497027161, 696.6666666666666 304.2234880908833, 700 304.8207207065091
 C 703.3333333333334 305.41795332213496, 706.6666666666666 305.90549173968407, 710 305.90549173968407
 C 713.3333333333334 305.90549173968407, 716.6666666666666 305.62284464367985, 720 305.62284464367985
 C 723.3333333333334 305.62284464367985, 726.6666666666666 307.7600586824029, 730 307.7600586824029
 C 733.3333333333334 307.7600586824029, 736.6666666666666 295.6444294228396, 740 295.6444294228396
 C 743.3333333333334 295.6444294228396, 746.6666666666666 303.2904665732327, 750 303.47880402585184
 C 753.3333333333334 303.66714147847097, 756.6666666666666 303.7718784160696, 760 303.7718784160696
 C 763.3333333333334 303.7718784160696, 766.6666666666666 298.9094107570083, 770 298.9094107570083
 C 773.3333333333334 298.9094107570083, 776.6666666666666 309.12785610449055, 780 309.12785610449055
 C 783.3333333333334 309.12785610449055, 786.6666666666666 292.15578771515436, 790 292.15578771515436
 C 793.3333333333334 292.15578771515436, 796.6666666666666 305.3885750257016, 800 305.3885750257016
 C 803.3333333333334 305.3885750257016, 806.6666666666666 294.8894090330698, 810 294.8894090330698
 C 813.3333333333334 294.8894090330698, 816.6666666666666 301.1344313739767, 820 301.1344313739767
 C 823.3333333333334 301.1344313739767, 826.6666666666666 300.76395318849063, 830 300.220623663975
 C 833.3333333333334 299.6772941394594, 836.6666666666666 292.683711789764, 840 292.683711789764
 C 843.3333333333334 292.683711789764, 846.6666666666666 308.5994101490671, 850 308.5994101490671
 C 853.3333333333334 308.5994101490671, 856.6666666666666 299.098884927403, 860 299.098884927403
 C 863.3333333333334 299.098884927403, 866.6666666666666 304.49973673610975, 870 304.49973673610975
 C 873.3333333333334 304.49973673610975, 876.6666666666666 296.71839132513406, 880 296.71839132513406
 C 883.3333333333334 296.71839132513406, 886.6666666666666 297.98500112998147, 890 299.04972777741654
 C 893.3333333333334 300.1144544248516, 896.6666666666666 304.12071437798363, 900 304.12071437798363
 C 903.3333333333334 304.12071437798363, 906.6666666666666 299.7823267174685, 910 299.7823267174685
 C 913.3333333333334 299.7823267174685, 916.6666666666666 316.3264936754853, 920 316.3264936754853
 C 923.3333333333334 316.3264936754853, 926.6666666666666 302.96186717997307, 930 302.96186717997307
 C 933.3333333333334 302.96186717997307, 936.6666666666666 306.1500873361715, 940 306.1500873361715
 C 943.3333333333334 306.1500873361715, 946.6666666666666 288.0211859509908, 950 288.0211859509908
 C 953.3333333333334 288.0211859509908, 956.6666666666666 290.0442296895939, 960 292.65487996287544
 C 963.3333333333334 295.26553023615696, 966.6666666666666 317.93697765134664, 970 317.93697765134664
 C 973.3333333333334 317.93697765134664, 976.6666666666666 297.872410735445, 980 297.872410735445
 C 983.3333333333334 297.872410735445, 986.6666666666666 313.11690905602893, 990 313.11690905602893
 C 993.3333333333334 313.11690905602893, 996.6666666666666 307.92356834472497, 1000 304.8994160669159
 C 1003.3333333333334 301.8752637891068, 1006.6666666666666 294.77343232457815, 1010 294.77343232457815
 C 1013.3333333333334 294.77343232457815, 1016.6666666666666 302.0720592661665, 1020 310.3735629506089
 C 1023.3333333333334 318.67506663505134, 1026.6666666666667 372.08402053633733, 1030 372.08402053633733
 C 1033.3333333333333 372.08402053633733, 1036.6666666666667 352.35464228666973, 1040 352.35464228666973
 C 1043.3333333333333 352.35464228666973, 1046.6666666666667 356.9496335346796, 1050 356.9496335346796
 C 1053.3333333333333 356.9496335346796, 1056.6666666666667 326.93888461401, 1060 320.93953462813977
 C 1063.3333333333333 314.9401846422695, 1066.6666666666667 308.9423892937416, 1070 308.9423892937416
 C 1073.3333333333333 308.9423892937416, 1076.6666666666667 359.552802720597, 1080 359.552802720597
 C 1083.3333333333333 359.552802720597, 1086.6666666666667 348.11949822345866, 1090 348.11949822345866
 C 1093.3333333333333 348.11949822345866, 1096.6666666666667 350.9910512623427, 1100 350.9910512623427
 C 1103.3333333333333 350.9910512623427, 1106.6666666666667 324.7886686931781, 1110 323.7284957954499
 C 1113.3333333333333 322.6683228977216, 1116.6666666666667 322.039728517289, 1120 322.039728517289
 C 1123.3333333333333 322.039728517289, 1126.6666666666667 358.7514307296884, 1130 358.7514307296884
 C 1133.3333333333333 358.7514307296884, 1136.6666666666667 357.73168964603303, 1140 356.92699601819385
 C 1143.3333333333333 356.12230239035466, 1146.6666666666667 355.480063724992, 1150 353.3601237810014
 C 1153.3333333333333 351.24018383701076, 1156.6666666666667 324.0489175613932, 1160 324.0489175613932
 C 1163.3333333333333 324.0489175613932, 1166.6666666666667 342.15949259024245, 1170 346.1611601884715
 C 1173.3333333333333 350.1628277867006, 1176.6666666666667 354.4001980087968, 1180 354.4001980087968
 C 1183.3333333333333 354.4001980087968, 1186.6666666666667 345.28696361210683, 1190 345.28696361210683
 C 1193.3333333333333 345.28696361210683, 1196.6666666666667 346.69804930210904, 1200 346.69804930210904
 C 1203.3333333333333 346.69804930210904, 1206.6666666666667 299.85484665127785, 1210 299.85484665127785
 C 1213.3333333333333 299.85484665127785, 1216.6666666666667 305.72230993800144, 1220 305.72230993800144
 C 1223.3333333333333 305.72230993800144, 1226.6666666666667 301.45067223776533, 1230 301.45067223776533
 C 1233.3333333333333 301.45067223776533, 1236.6666666666667 334.2264456623284, 1240 334.2264456623284
 C 1243.3333333333333 334.2264456623284, 1246.6666666666667 329.32854609564777, 1250 329.32854609564777
 C 1253.3333333333333 329.32854609564777, 1256.6666666666667 342.32124946577136, 1260 352.2942032137867
 C 1263.3333333333333 362.2671569618021, 1266.6666666666667 393.1398799994893, 1270 395.2049495578523
 C 1273.3333333333333 397.2700191162152, 1276.6666666666667 397.8675158181953, 1280 398.5435585523615
 C 1283.3333333333333 399.21960128652773, 1286.6666666666667 399.51451951745383, 1290 400
" fill="transparent" stroke="white" stroke-width="2" />
  </g>
</svg>