<svg 
  baseProfile="tiny"
  preserveAspectRatio="keep"
  version="1.2"
  viewBox="-5.000000 5.000000 5135.000000 510.000000"
  height="100%" width="100%"
  xmlns="http://www.w3.org/2000/svg"
  xmlns:ev="http://www.w3.org/2001/xml-events"
  xmlns:xlink="http://www.w3.org/1999/xlink"
>
  <g style="transform-origin: center center;">
    <path d="M 0.000000 500.000000 C 3.3333333333333335 483.83331152057843, 6.666666666666666 460.69980376118684, 10 451.4999345617353
 C 13.333333333333334 442.30006536228376, 16.666666666666668 432.21214375898796, 20 432.21214375898796
 C 23.333333333333332 432.21214375898796, 26.666666666666668 437.1104035615374, 30 437.1104035615374
 C 33.333333333333336 437.1104035615374, 36.666666666666664 423.4607653741825, 40 423.4607653741825
 C 43.333333333333336 423.4607653741825, 46.666666666666664 434.7932097556335, 50 434.7932097556335
 C 53.333333333333336 434.7932097556335, 56.666666666666664 421.37370506262516, 60 421.37370506262516
 C 63.333333333333336 421.37370506262516, 66.66666666666667 424.11790233531895, 70 424.1820504373217
 C 73.33333333333333 424.2461985393245, 76.66666666666667 424.21555595029884, 80 424.2816864111489
 C 83.33333333333333 424.34781687199893, 86.66666666666667 446.72967862095544, 90 446.72967862095544
 C 93.33333333333333 446.72967862095544, 96.66666666666667 429.7274300411451, 100 425.60490912893505
 C 103.33333333333333 421.482388216725, 106.66666666666667 416.8617821742025, 110 416.8617821742025
 C 113.33333333333333 416.8617821742025, 116.66666666666667 422.8319159947491, 120 425.70525118496585
 C 123.33333333333333 428.57858637518257, 126.66666666666667 430.56309953935255, 130 434.1128082666647
 C 133.33333333333334 437.6625169939768, 136.66666666666666 444.51367401014465, 140 448.633293307186
 C 143.33333333333334 452.7529126042274, 146.66666666666666 459.3907207290234, 150 459.3907207290234
 C 153.33333333333334 459.3907207290234, 156.66666666666666 433.29890706141674, 160 433.29890706141674
 C 163.33333333333334 433.29890706141674, 166.66666666666666 445.1733676592581, 170 445.1733676592581
 C 173.33333333333334 445.1733676592581, 176.66666666666666 432.10810208810716, 180 432.10810208810716
 C 183.33333333333334 432.10810208810716, 186.66666666666666 433.7465170146445, 190 433.7465170146445
 C 193.33333333333334 433.7465170146445, 196.66666666666666 389.52032519108303, 200 389.52032519108303
 C 203.33333333333334 389.52032519108303, 206.66666666666666 414.3471728053088, 210 414.3471728053088
 C 213.33333333333334 414.3471728053088, 216.66666666666666 385.0298331494198, 220 385.0298331494198
 C 223.33333333333334 385.0298331494198, 226.66666666666666 407.2188444749152, 230 407.2188444749152
 C 233.33333333333334 407.2188444749152, 236.66666666666666 384.97693049617556, 240 384.97693049617556
 C 243.33333333333334 384.97693049617556, 246.66666666666666 401.96870713659314, 250 401.96870713659314
 C 253.33333333333334 401.96870713659314, 256.6666666666667 350.71933444987, 260 350.71933444987
 C 263.3333333333333 350.71933444987, 266.6666666666667 354.91815727424336, 270 360.2898504531589
 C 273.3333333333333 365.6615436320745, 276.6666666666667 411.25880258918386, 280 411.25880258918386
 C 283.3333333333333 411.25880258918386, 286.6666666666667 401.2269050617888, 290 401.2269050617888
 C 293.3333333333333 401.2269050617888, 296.6666666666667 410.10479236709233, 300 410.10479236709233
 C 303.3333333333333 410.10479236709233, 306.6666666666667 358.3302886503516, 310 358.3302886503516
 C 313.3333333333333 358.3302886503516, 316.6666666666667 412.4299631696672, 320 412.4299631696672
 C 323.3333333333333 412.4299631696672, 326.6666666666667 368.01968178346897, 330 366.2175457424229
 C 333.3333333333333 364.4154097013768, 336.6666666666667 363.3463930641534, 340 363.3463930641534
 C 343.3333333333333 363.3463930641534, 346.6666666666667 405.54523353723846, 350 405.54523353723846
 C 353.3333333333333 405.54523353723846, 356.6666666666667 387.9128504796896, 360 382.20795511223884
 C 363.3333333333333 376.50305974478806, 366.6666666666667 374.368578256, 370 368.69604911857465
 C 373.3333333333333 363.0235199811493, 376.6666666666667 345.7163488700986, 380 345.7163488700986
 C 383.3333333333333 345.7163488700986, 386.6666666666667 346.9615904506944, 390 348.9667210649843
 C 393.3333333333333 350.9718516792742, 396.6666666666667 380.5591322604796, 400 389.251381179005
 C 403.3333333333333 397.94363009753044, 406.6666666666667 408.5291068026368, 410 408.5291068026368
 C 413.3333333333333 408.5291068026368, 416.6666666666667 402.3104780657749, 420 395.68553014479676
 C 423.3333333333333 389.06058222381864, 426.6666666666667 355.1529944911802, 430 351.7676904090845
 C 433.3333333333333 348.38238632698875, 436.6666666666667 346.02583841421824, 440 346.02583841421824
 C 443.3333333333333 346.02583841421824, 446.6666666666667 370.8473193965315, 450 370.8473193965315
 C 453.3333333333333 370.8473193965315, 456.6666666666667 351.32153670029044, 460 351.32153670029044
 C 463.3333333333333 351.32153670029044, 466.6666666666667 396.7294663267639, 470 396.7294663267639
 C 473.3333333333333 396.7294663267639, 476.6666666666667 375.2664341233447, 480 375.2664341233447
 C 483.3333333333333 375.2664341233447, 486.6666666666667 392.83064352129907, 490 392.83064352129907
 C 493.3333333333333 392.83064352129907, 496.6666666666667 353.14677406633507, 500 353.14677406633507
 C 503.3333333333333 353.14677406633507, 506.6666666666667 353.52129840592056, 510 354.2287265215755
 C 513.3333333333334 354.9361546372304, 516.6666666666666 409.3988291328126, 520 409.3988291328126
 C 523.3333333333334 409.3988291328126, 526.6666666666666 380.1889355969158, 530 380.1889355969158
 C 533.3333333333334 380.1889355969158, 536.6666666666666 397.0413835994833, 540 397.0413835994833
 C 543.3333333333334 397.0413835994833, 546.6666666666666 352.71994417502304, 550 352.71994417502304
 C 553.3333333333334 352.71994417502304, 556.6666666666666 413.388200917702, 560 413.41968547604813
 C 563.3333333333334 413.45117003439424, 566.6666666666666 413.46694908655525, 570 413.46694908655525
 C 573.3333333333334 413.46694908655525, 576.6666666666666 410.0936033258572, 580 410.0936033258572
 C 583.3333333333334 410.0936033258572, 586.6666666666666 437.52752829505835, 590 437.52752829505835
 C 593.3333333333334 437.52752829505835, 596.6666666666666 417.64988294001125, 600 406.33596767817653
 C 603.3333333333334 395.0220524163418, 606.6666666666666 369.1121694467116, 610 369.1121694467116
 C 613.3333333333334 369.1121694467116, 616.6666666666666 409.03452054079725, 620 417.7751202311792
 C 623.3333333333334 426.51571992156113, 626.6666666666666 435.72106248843556, 630 435.72106248843556
 C 633.3333333333334 435.72106248843556, 636.6666666666666 421.01275087486647, 640 421.01275087486647
 C 643.3333333333334 421.01275087486647, 646.6666666666666 469.820120521744, 650 469.820120521744
 C 653.3333333333334 469.820120521744, 656.6666666666666 468.7472223877264, 660 467.0622467312003
 C 663.3333333333334 465.3772710746741, 666.6666666666666 436.8100178717714, 670 436.8100178717714
 C 673.3333333333334 436.8100178717714, 676.6666666666666 436.8288322566632, 680 436.8648830158285
 C 683.3333333333334 436.90093377499386, 686.6666666666666 440.6251810872337, 690 440.6251810872337
 C 693.3333333333334 440.6251810872337, 696.6666666666666 436.1951960664935, 700 436.1951960664935
 C 703.3333333333334 436.1951960664935, 706.6666666666666 468.9426497910822, 710 468.9426497910822
 C 713.3333333333334 468.9426497910822, 716.6666666666666 452.47602336408187, 720 452.47602336408187
 C 723.3333333333334 452.47602336408187, 726.6666666666666 456.5301035986261, 730 456.5301035986261
 C 733.3333333333334 456.5301035986261, 736.6666666666666 438.13446562190074, 740 438.13446562190074
 C 743.3333333333334 438.13446562190074, 746.6666666666666 480.8035877420719, 750 480.8035877420719
 C 753.3333333333334 480.8035877420719, 756.6666666666666 447.2364534981189, 760 447.2364534981189
 C 763.3333333333334 447.2364534981189, 766.6666666666666 458.3004566216903, 770 458.3004566216903
 C 773.3333333333334 458.3004566216903, 776.6666666666666 456.61577582897996, 780 453.84852736206244
 C 783.3333333333334 451.0812788951449, 786.6666666666666 394.9504377731495, 790 392.46673360963865
 C 793.3333333333334 389.98302944612783, 796.6666666666666 388.5004441855049, 800 388.5004441855049
 C 803.3333333333334 388.5004441855049, 806.6666666666666 410.97112092636655, 810 413.32640149264245
 C 813.3333333333334 415.68168205891834, 816.6666666666666 417.44550129088793, 820 417.44550129088793
 C 823.3333333333334 417.44550129088793, 826.6666666666666 404.8592402435712, 830 404.8592402435712
 C 833.3333333333334 404.8592402435712, 836.6666666666666 432.19320046444693, 840 432.19320046444693
 C 843.3333333333334 432.19320046444693, 846.6666666666666 334.52649266643436, 850 334.52649266643436
 C 853.3333333333334 334.52649266643436, 856.6666666666666 334.71900718661794, 860 335.0675418561764
 C 863.3333333333334 335.4160765257348, 866.6666666666666 350.5691983896967, 870 350.5691983896967
 C 873.3333333333334 350.5691983896967, 876.6666666666666 350.30229912011004, 880 349.8691923946359
 C 883.3333333333334 349.43608566916174, 886.6666666666666 341.10136812746117, 890 340.8363636115836
 C 893.3333333333334 340.571359095706, 896.6666666666666 340.420558546741, 900 340.420558546741
 C 903.3333333333334 340.420558546741, 906.6666666666666 351.8814861690596, 910 351.8814861690596
 C 913.3333333333334 351.8814861690596, 916.6666666666666 345.1689448467379, 920 341.9996697963692
 C 923.3333333333334 338.8303947460005, 926.6666666666666 332.83855972451806, 930 332.83855972451806
 C 933.3333333333334 332.83855972451806, 936.6666666666666 360.71579547540244, 940 360.71579547540244
 C 943.3333333333334 360.71579547540244, 946.6666666666666 355.4668148662283, 950 350.83926927009657
 C 953.3333333333334 346.21172367396485, 956.6666666666666 327.4827925122284, 960 327.4827925122284
 C 963.3333333333334 327.4827925122284, 966.6666666666666 360.01995678918576, 970 360.01995678918576
 C 973.3333333333334 360.01995678918576, 976.6666666666666 354.86589173566813, 980 351.24830704033525
 C 983.3333333333334 347.63072234500237, 986.6666666666666 337.0197872717854, 990 337.0197872717854
 C 993.3333333333334 337.0197872717854, 996.6666666666666 346.19146181890125, 1000 350.04649027833227
 C 1003.3333333333334 353.9015187377633, 1006.6666666666666 360.4448612328315, 1010 360.4448612328315
 C 1013.3333333333334 360.4448612328315, 1016.6666666666666 332.4874527002128, 1020 332.4874527002128
 C 1023.3333333333334 332.4874527002128, 1026.6666666666667 337.4920078264063, 1030 340.5322046591624
 C 1033.3333333333333 343.5724014919185, 1036.6666666666667 351.0608027144972, 1040 351.0608027144972
 C 1043.3333333333333 351.0608027144972, 1046.6666666666667 333.5764991433698, 1050 333.5764991433698
 C 1053.3333333333333 333.5764991433698, 1056.6666666666667 391.36405836649084, 1060 391.36405836649084
 C 1063.3333333333333 391.36405836649084, 1066.6666666666667 387.5928010073133, 1070 383.85930889448434
 C 1073.3333333333333 380.1258167816554, 1076.6666666666667 361.7915036875702, 1080 361.7915036875702
 C 1083.3333333333333 361.7915036875702, 1086.6666666666667 423.90142363537393, 1090 423.90142363537393
 C 1093.3333333333333 423.90142363537393, 1096.6666666666667 387.00012014753014, 1100 380.99829510209474
 C 1103.3333333333333 374.99647005665935, 1106.6666666666667 369.60475077880983, 1110 369.60475077880983
 C 1113.3333333333333 369.60475077880983, 1116.6666666666667 381.9281504726581, 1120 381.9281504726581
 C 1123.3333333333333 381.9281504726581, 1126.6666666666667 365.49996889024175, 1130 365.49996889024175
 C 1133.3333333333333 365.49996889024175, 1136.6666666666667 395.5000075284029, 1140 395.5000075284029
 C 1143.3333333333333 395.5000075284029, 1146.6666666666667 389.87488813205294, 1150 383.42991200012034
 C 1153.3333333333333 376.98493586818773, 1156.6666666666667 334.86348613641485, 1160 334.86348613641485
 C 1163.3333333333333 334.86348613641485, 1166.6666666666667 346.79494782539996, 1170 346.79494782539996
 C 1173.3333333333333 346.79494782539996, 1176.6666666666667 333.8986529520257, 1180 333.8986529520257
 C 1183.3333333333333 333.8986529520257, 1186.6666666666667 337.95608511689716, 1190 339.8606847020037
 C 1193.3333333333333 341.76528428711026, 1196.6666666666667 345.34609490478476, 1200 345.34609490478476
 C 1203.3333333333333 345.34609490478476, 1206.6666666666667 342.13544684848654, 1210 340.3688517089783
 C 1213.3333333333333 338.60225656947006, 1216.6666666666667 334.7018236730001, 1220 334.7018236730001
 C 1223.3333333333333 334.7018236730001, 1226.6666666666667 343.5790844796531, 1230 344.9238435427752
 C 1233.3333333333333 346.26860260589734, 1236.6666666666667 345.87558805986214, 1240 347.4368879249696
 C 1243.3333333333333 348.99818779007705, 1246.6666666666667 381.83554407444, 1250 381.83554407444
 C 1253.3333333333333 381.83554407444, 1256.6666666666667 339.5703415610895, 1260 338.44508514155996
 C 1263.3333333333333 337.3198287220304, 1266.6666666666667 337.7316748822011, 1270 336.68888447735935
 C 1273.3333333333333 335.6460940725176, 1276.6666666666667 322.3825907615746, 1280 322.3825907615746
 C 1283.3333333333333 322.3825907615746, 1286.6666666666667 333.76690255732444, 1290 340.758369822467
 C 1293.3333333333333 347.74983708760954, 1296.6666666666667 358.7314534310643, 1300 365.18742188701947
 C 1303.3333333333333 371.6433903429746, 1306.6666666666667 379.79691817470433, 1310 381.2313818631312
 C 1313.3333333333333 382.6658455515581, 1316.6666666666667 382.6816034856967, 1320 383.7163415431698
 C 1323.3333333333333 384.75107960064287, 1326.6666666666667 387.8508892239581, 1330 387.8508892239581
 C 1333.3333333333333 387.8508892239581, 1336.6666666666667 384.5793987067113, 1340 384.5793987067113
 C 1343.3333333333333 384.5793987067113, 1346.6666666666667 399.1685462388199, 1350 399.1685462388199
 C 1353.3333333333333 399.1685462388199, 1356.6666666666667 391.132971008768, 1360 391.132971008768
 C 1363.3333333333333 391.132971008768, 1366.6666666666667 407.80941360327097, 1370 407.80941360327097
 C 1373.3333333333333 407.80941360327097, 1376.6666666666667 369.92724702439773, 1380 369.92724702439773
 C 1383.3333333333333 369.92724702439773, 1386.6666666666667 370.86591560653414, 1390 372.16567843976577
 C 1393.3333333333333 373.4654412729974, 1396.6666666666667 379.45751213333307, 1400 387.27765521263404
 C 1403.3333333333333 395.097798291935, 1406.6666666666667 439.6961053561609, 1410 439.6961053561609
 C 1413.3333333333333 439.6961053561609, 1416.6666666666667 419.5127803684611, 1420 414.04151456008583
 C 1423.3333333333333 408.57024875171055, 1426.6666666666667 404.7064195736283, 1430 401.9743238297657
 C 1433.3333333333333 399.2422280859031, 1436.6666666666667 395.76867841930203, 1440 395.76867841930203
 C 1443.3333333333333 395.76867841930203, 1446.6666666666667 427.0251065334969, 1450 427.0251065334969
 C 1453.3333333333333 427.0251065334969, 1456.6666666666667 354.85068327635776, 1460 354.85068327635776
 C 1463.3333333333333 354.85068327635776, 1466.6666666666667 396.0196955026881, 1470 396.0196955026881
 C 1473.3333333333333 396.0196955026881, 1476.6666666666667 369.33031197089053, 1480 369.33031197089053
 C 1483.3333333333333 369.33031197089053, 1486.6666666666667 403.0484241503796, 1490 403.0484241503796
 C 1493.3333333333333 403.0484241503796, 1496.6666666666667 352.2957593977368, 1500 352.2957593977368
 C 1503.3333333333333 352.2957593977368, 1506.6666666666667 401.150542237643, 1510 401.150542237643
 C 1513.3333333333333 401.150542237643, 1516.6666666666667 351.1174006058674, 1520 351.1174006058674
 C 1523.3333333333333 351.1174006058674, 1526.6666666666667 407.7287401541397, 1530 407.7287401541397
 C 1533.3333333333333 407.7287401541397, 1536.6666666666667 360.2849333177003, 1540 360.2849333177003
 C 1543.3333333333333 360.2849333177003, 1546.6666666666667 404.33393402421416, 1550 404.33393402421416
 C 1553.3333333333333 404.33393402421416, 1556.6666666666667 403.2579677228729, 1560 403.2579677228729
 C 1563.3333333333333 403.2579677228729, 1566.6666666666667 405.6472431416015, 1570 409.3970142137154
 C 1573.3333333333333 413.1467852858293, 1576.6666666666667 476.52513934953754, 1580 476.52513934953754
 C 1583.3333333333333 476.52513934953754, 1586.6666666666667 460.361633851796, 1590 449.26061853308977
 C 1593.3333333333333 438.15960321438354, 1596.6666666666667 418.7009734208897, 1600 406.4832806146083
 C 1603.3333333333333 394.2655878083269, 1606.6666666666667 375.6257813436884, 1610 374.42050139965863
 C 1613.3333333333333 373.21522145562886, 1616.6666666666667 373.67803894464583, 1620 372.50454679105303
 C 1623.3333333333333 371.3310546374602, 1626.6666666666667 354.8185420789082, 1630 350.84634623188964
 C 1633.3333333333333 346.8741503848711, 1636.6666666666667 342.626811988163, 1640 342.626811988163
 C 1643.3333333333333 342.626811988163, 1646.6666666666667 355.44419012412357, 1650 360.4947185463289
 C 1653.3333333333333 365.54524696853423, 1656.6666666666667 367.4581620596902, 1660 373.64688105291117
 C 1663.3333333333333 379.83560004613213, 1666.6666666666667 405.2028142740651, 1670 405.2028142740651
 C 1673.3333333333333 405.2028142740651, 1676.6666666666667 374.11817578926514, 1680 360.2009727154052
 C 1683.3333333333333 346.2837696415453, 1686.6666666666667 321.26172821643473, 1690 321.26172821643473
 C 1693.3333333333333 321.26172821643473, 1696.6666666666667 356.82808550425085, 1700 361.9521768927206
 C 1703.3333333333333 367.0762682811904, 1706.6666666666667 371.4282832370661, 1710 371.4282832370661
 C 1713.3333333333333 371.4282832370661, 1716.6666666666667 355.1107760398066, 1720 355.1107760398066
 C 1723.3333333333333 355.1107760398066, 1726.6666666666667 380.85719451315936, 1730 380.85719451315936
 C 1733.3333333333333 380.85719451315936, 1736.6666666666667 327.4304281009308, 1740 327.4304281009308
 C 1743.3333333333333 327.4304281009308, 1746.6666666666667 349.98987462726825, 1750 350.8106563227795
 C 1753.3333333333333 351.63143801829074, 1756.6666666666667 351.3139238800679, 1760 352.11026455257365
 C 1763.3333333333333 352.90660522507943, 1766.6666666666667 366.8813148455056, 1770 366.8813148455056
 C 1773.3333333333333 366.8813148455056, 1776.6666666666667 349.75644254183277, 1780 348.5658351175347
 C 1783.3333333333333 347.3752276932366, 1786.6666666666667 346.58696803250206, 1790 346.58696803250206
 C 1793.3333333333333 346.58696803250206, 1796.6666666666667 386.71740879753185, 1800 386.71740879753185
 C 1803.3333333333333 386.71740879753185, 1806.6666666666667 373.26742339681823, 1810 373.26742339681823
 C 1813.3333333333333 373.26742339681823, 1816.6666666666667 375.89228787454005, 1820 379.4021596049289
 C 1823.3333333333333 382.91203133531775, 1826.6666666666667 415.6707322395569, 1830 416.5295805452791
 C 1833.3333333333333 417.38842885100127, 1836.6666666666667 417.86416118912484, 1840 417.86416118912484
 C 1843.3333333333333 417.86416118912484, 1846.6666666666667 413.06573280498344, 1850 408.9294838371789
 C 1853.3333333333333 404.7932348693744, 1856.6666666666667 391.9904353296378, 1860 388.6262220071955
 C 1863.3333333333333 385.2620086847532, 1866.6666666666667 381.91080308915656, 1870 381.91080308915656
 C 1873.3333333333333 381.91080308915656, 1876.6666666666667 381.91241622933825, 1880 381.9156398134219
 C 1883.3333333333333 381.9188633975055, 1886.6666666666667 399.2635285101933, 1890 399.2635285101933
 C 1893.3333333333333 399.2635285101933, 1896.6666666666667 394.4245568405683, 1900 391.9823299306106
 C 1903.3333333333333 389.5401030206529, 1906.6666666666667 387.2567617756316, 1910 384.6095952685054
 C 1913.3333333333333 381.9624287613792, 1916.6666666666667 378.0675855697723, 1920 376.00424126384905
 C 1923.3333333333333 373.9408969579258, 1926.6666666666667 371.17083277340544, 1930 371.17083277340544
 C 1933.3333333333333 371.17083277340544, 1936.6666666666667 372.26614167453175, 1940 373.830504339455
 C 1943.3333333333333 375.3948670043782, 1946.6666666666667 393.76179424453153, 1950 393.76179424453153
 C 1953.3333333333333 393.76179424453153, 1956.6666666666667 349.420178841031, 1960 346.85175157233357
 C 1963.3333333333333 344.28332430363616, 1966.6666666666667 344.7595339698804, 1970 342.65438847709845
 C 1973.3333333333333 340.5492429843165, 1976.6666666666667 329.9057176930606, 1980 329.9057176930606
 C 1983.3333333333333 329.9057176930606, 1986.6666666666667 355.2711947488876, 1990 355.2711947488876
 C 1993.3333333333333 355.2711947488876, 1996.6666666666667 348.9244046538306, 2000 346.975777718759
 C 2003.3333333333333 345.0271507836874, 2006.6666666666667 342.4625873831078, 2010 342.4625873831078
 C 2013.3333333333333 342.4625873831078, 2016.6666666666667 346.47889610064203, 2020 346.47889610064203
 C 2023.3333333333333 346.47889610064203, 2026.6666666666667 344.2368715116141, 2030 343.34290195687214
 C 2033.3333333333333 342.4489324021302, 2036.6666666666667 341.0002102208669, 2040 341.0002102208669
 C 2043.3333333333333 341.0002102208669, 2046.6666666666667 344.70649604611015, 2050 349.2682580247966
 C 2053.3333333333335 353.830020003483, 2056.6666666666665 380.11886249225904, 2060 388.9589464102964
 C 2063.3333333333335 397.79903032833374, 2066.6666666666665 408.8716336249781, 2070 408.8716336249781
 C 2073.3333333333335 408.8716336249781, 2076.6666666666665 367.048734770959, 2080 367.048734770959
 C 2083.3333333333335 367.048734770959, 2086.6666666666665 371.98657815645987, 2090 374.9382385335372
 C 2093.3333333333335 377.8898989106145, 2096.6666666666665 380.2893257028433, 2100 385.02794688787174
 C 2103.3333333333335 389.76656807290016, 2106.6666666666665 401.671621410969, 2110 409.0797015351201
 C 2113.3333333333335 416.48778165927115, 2116.6666666666665 422.94155008310514, 2120 429.73453449311035
 C 2123.3333333333335 436.52751890311555, 2126.6666666666665 449.8448805257573, 2130 449.8448805257573
 C 2133.3333333333335 449.8448805257573, 2136.6666666666665 421.7633381504072, 2140 421.7633381504072
 C 2143.3333333333335 421.7633381504072, 2146.6666666666665 473.02187205213653, 2150 473.02187205213653
 C 2153.3333333333335 473.02187205213653, 2156.6666666666665 446.1956131343086, 2160 446.1956131343086
 C 2163.3333333333335 446.1956131343086, 2166.6666666666665 452.88048650748243, 2170 452.88048650748243
 C 2173.3333333333335 452.88048650748243, 2176.6666666666665 449.364675713903, 2180 449.364675713903
 C 2183.3333333333335 449.364675713903, 2186.6666666666665 485.7816932307527, 2190 485.7816932307527
 C 2193.3333333333335 485.7816932307527, 2196.6666666666665 419.2815077064057, 2200 419.2815077064057
 C 2203.3333333333335 419.2815077064057, 2206.6666666666665 451.9707800215616, 2210 451.9707800215616
 C 2213.3333333333335 451.9707800215616, 2216.6666666666665 346.3333366331922, 2220 346.3333366331922
 C 2223.3333333333335 346.3333366331922, 2226.6666666666665 398.8261547528133, 2230 398.8261547528133
 C 2233.3333333333335 398.8261547528133, 2236.6666666666665 390.56682766953094, 2240 383.27975621745634
 C 2243.3333333333335 375.99268476538174, 2246.6666666666665 348.965291065527, 2250 346.464492642418
 C 2253.3333333333335 343.963694219309, 2256.6666666666665 342.28771263323097, 2260 342.28771263323097
 C 2263.3333333333335 342.28771263323097, 2266.6666666666665 363.19712871882365, 2270 366.53970493464556
 C 2273.3333333333335 369.88228115046746, 2276.6666666666665 369.12408739459875, 2280 372.86028867962176
 C 2283.3333333333335 376.5964899646448, 2286.6666666666665 422.3135329231111, 2290 422.3135329231111
 C 2293.3333333333335 422.3135329231111, 2296.6666666666665 394.8749008178975, 2300 382.41718229487026
 C 2303.3333333333335 369.959463771843, 2306.6666666666665 347.2670529263047, 2310 347.2670529263047
 C 2313.3333333333335 347.2670529263047, 2316.6666666666665 358.6135259520349, 2320 361.5185377046479
 C 2323.3333333333335 364.4235494572609, 2326.6666666666665 364.1635378209009, 2330 367.79520056617
 C 2333.3333333333335 371.42686331143915, 2336.6666666666665 406.83106791834945, 2340 409.03178151710347
 C 2343.3333333333335 411.2324951158575, 2346.6666666666665 412.6201042973594, 2350 412.6201042973594
 C 2353.3333333333335 412.6201042973594, 2356.6666666666665 342.2437730464285, 2360 342.2437730464285
 C 2363.3333333333335 342.2437730464285, 2366.6666666666665 389.26532836968, 2370 389.26532836968
 C 2373.3333333333335 389.26532836968, 2376.6666666666665 332.5105887178878, 2380 332.5105887178878
 C 2383.3333333333335 332.5105887178878, 2386.6666666666665 334.64403763658794, 2390 337.70452771184523
 C 2393.3333333333335 340.7650177871025, 2396.6666666666665 377.23344796910993, 2400 377.23344796910993
 C 2403.3333333333335 377.23344796910993, 2406.6666666666665 337.2635950927959, 2410 337.2635950927959
 C 2413.3333333333335 337.2635950927959, 2416.6666666666665 386.11859508456075, 2420 386.11859508456075
 C 2423.3333333333335 386.11859508456075, 2426.6666666666665 332.60187867252597, 2430 332.50897237541994
 C 2433.3333333333335 332.4160660783139, 2436.6666666666665 332.3692497175022, 2440 332.3692497175022
 C 2443.3333333333335 332.3692497175022, 2446.6666666666665 354.44836944161614, 2450 354.44836944161614
 C 2453.3333333333335 354.44836944161614, 2456.6666666666665 320.94017310341843, 2460 320.94017310341843
 C 2463.3333333333335 320.94017310341843, 2466.6666666666665 380.2333227761756, 2470 380.2333227761756
 C 2473.3333333333335 380.2333227761756, 2476.6666666666665 364.9369525353287, 2480 360.01807546471025
 C 2483.3333333333335 355.0991983940918, 2486.6666666666665 352.19007072537505, 2490 348.3989067928438
 C 2493.3333333333335 344.6077428603125, 2496.6666666666665 337.26091775873147, 2500 337.26091775873147
 C 2503.3333333333335 337.26091775873147, 2506.6666666666665 338.3789994281463, 2510 340.2244602939586
 C 2513.3333333333335 342.0699211597709, 2516.6666666666665 377.1432501631465, 2520 382.2188331272799
 C 2523.3333333333335 387.29441609141327, 2526.6666666666665 391.518123433322, 2530 391.518123433322
 C 2533.3333333333335 391.518123433322, 2536.6666666666665 375.515915995354, 2540 366.7885920720835
 C 2543.3333333333335 358.0612681488129, 2546.6666666666665 338.97292157883936, 2550 338.97292157883936
 C 2553.3333333333335 338.97292157883936, 2556.6666666666665 364.8709529757158, 2560 368.9475460106569
 C 2563.3333333333335 373.02413904559796, 2566.6666666666665 373.0516556365042, 2570 376.6295893653711
 C 2573.3333333333335 380.20752309423796, 2576.6666666666665 394.43789204342966, 2580 394.43789204342966
 C 2583.3333333333335 394.43789204342966, 2586.6666666666665 373.0970113630217, 2590 373.0970113630217
 C 2593.3333333333335 373.0970113630217, 2596.6666666666665 480.2030799262397, 2600 480.2030799262397
 C 2603.3333333333335 480.2030799262397, 2606.6666666666665 451.1911933561946, 2610 447.0714500677845
 C 2613.3333333333335 442.9517067793744, 2616.6666666666665 443.62902188221574, 2620 439.47495996570706
 C 2623.3333333333335 435.3208980491984, 2626.6666666666665 420.3117696045026, 2630 404.8078064067639
 C 2633.3333333333335 389.3038432090252, 2636.6666666666665 340.6827891290019, 2640 334.1564471849966
 C 2643.3333333333335 327.63010524099127, 2646.6666666666665 322.7923096239979, 2650 322.7923096239979
 C 2653.3333333333335 322.7923096239979, 2656.6666666666665 324.64392157893184, 2660 326.99329947574495
 C 2663.3333333333335 329.34267737255806, 2666.6666666666665 348.86368785210146, 2670 348.86368785210146
 C 2673.3333333333335 348.86368785210146, 2676.6666666666665 343.55830320089666, 2680 343.55830320089666
 C 2683.3333333333335 343.55830320089666, 2686.6666666666665 344.1692123763698, 2690 344.1692123763698
 C 2693.3333333333335 344.1692123763698, 2696.6666666666665 339.7191596693421, 2700 337.6981765156836
 C 2703.3333333333335 335.6771933620251, 2706.6666666666665 331.99489608274706, 2710 331.99489608274706
 C 2713.3333333333335 331.99489608274706, 2716.6666666666665 364.09842483575613, 2720 364.09842483575613
 C 2723.3333333333335 364.09842483575613, 2726.6666666666665 342.24266987779095, 2730 342.24266987779095
 C 2733.3333333333335 342.24266987779095, 2736.6666666666665 345.27078321170603, 2740 347.1665370486228
 C 2743.3333333333335 349.06229088553954, 2746.6666666666665 351.72811247359186, 2750 353.8973393835514
 C 2753.3333333333335 356.06656629351096, 2756.6666666666665 360.19621653977345, 2760 360.19621653977345
 C 2763.3333333333335 360.19621653977345, 2766.6666666666665 354.5421569602687, 2770 352.6389780512985
 C 2773.3333333333335 350.73579914232835, 2776.6666666666665 349.573103320466, 2780 348.0511412807471
 C 2783.3333333333335 346.52917924102826, 2786.6666666666665 343.50699676599345, 2790 343.50699676599345
 C 2793.3333333333335 343.50699676599345, 2796.6666666666665 360.8470448214283, 2800 360.8470448214283
 C 2803.3333333333335 360.8470448214283, 2806.6666666666665 348.13882624479663, 2810 348.13882624479663
 C 2813.3333333333335 348.13882624479663, 2816.6666666666665 351.8532250498559, 2820 353.6106126627064
 C 2823.3333333333335 355.3680002755569, 2826.6666666666665 358.69720471422283, 2830 358.69720471422283
 C 2833.3333333333335 358.69720471422283, 2836.6666666666665 342.6965902472707, 2840 342.6965902472707
 C 2843.3333333333335 342.6965902472707, 2846.6666666666665 354.47441648657366, 2850 354.47441648657366
 C 2853.3333333333335 354.47441648657366, 2856.6666666666665 338.7493070526414, 2860 338.7493070526414
 C 2863.3333333333335 338.7493070526414, 2866.6666666666665 353.29227852094084, 2870 353.29227852094084
 C 2873.3333333333335 353.29227852094084, 2876.6666666666665 350.4789123442389, 2880 350.4789123442389
 C 2883.3333333333335 350.4789123442389, 2886.6666666666665 351.65790866273073, 2890 352.6289959237629
 C 2893.3333333333335 353.60008318479504, 2896.6666666666665 357.1453504143444, 2900 357.1453504143444
 C 2903.3333333333335 357.1453504143444, 2906.6666666666665 356.3772447706044, 2910 355.5138525844656
 C 2913.3333333333335 354.6504603983268, 2916.6666666666665 350.609458071229, 2920 349.23301509689145
 C 2923.3333333333335 347.85657212255387, 2926.6666666666665 346.1572822299256, 2930 346.1572822299256
 C 2933.3333333333335 346.1572822299256, 2936.6666666666665 346.46827022136415, 2940 346.99164539806577
 C 2943.3333333333335 347.5150205747674, 2946.6666666666665 360.27809773542117, 2950 360.27809773542117
 C 2953.3333333333335 360.27809773542117, 2956.6666666666665 341.5835500825225, 2960 341.5835500825225
 C 2963.3333333333335 341.5835500825225, 2966.6666666666665 347.9023161946281, 2970 347.9023161946281
 C 2973.3333333333335 347.9023161946281, 2976.6666666666665 330.777214295268, 2980 330.777214295268
 C 2983.3333333333335 330.777214295268, 2986.6666666666665 351.20361553623314, 2990 365.36146460453597
 C 2993.3333333333335 379.5193136728388, 2996.6666666666665 408.800614526387, 3000 420.38743769004054
 C 3003.3333333333335 431.9742608536941, 3006.6666666666665 445.79175625291384, 3010 445.79175625291384
 C 3013.3333333333335 445.79175625291384, 3016.6666666666665 423.2976675106527, 3020 423.2976675106527
 C 3023.3333333333335 423.2976675106527, 3026.6666666666665 427.8715195380494, 3030 431.4549980924205
 C 3033.3333333333335 435.0384766467916, 3036.6666666666665 447.1220235655731, 3040 447.21547681410095
 C 3043.3333333333335 447.3089300626288, 3046.6666666666665 447.3569146907841, 3050 447.3569146907841
 C 3053.3333333333335 447.3569146907841, 3056.6666666666665 426.87223330455424, 3060 426.87223330455424
 C 3063.3333333333335 426.87223330455424, 3066.6666666666665 454.47659166423017, 3070 454.47659166423017
 C 3073.3333333333335 454.47659166423017, 3076.6666666666665 453.3915287008889, 3080 451.6979535821507
 C 3083.3333333333335 450.00437846341254, 3086.6666666666665 422.0736265974525, 3090 422.0736265974525
 C 3093.3333333333335 422.0736265974525, 3096.6666666666665 435.44106352525745, 3100 435.44106352525745
 C 3103.3333333333335 435.44106352525745, 3106.6666666666665 431.19461628866185, 3110 426.11550493221426
 C 3113.3333333333335 421.0363935757667, 3116.6666666666665 384.4911114643088, 3120 384.4911114643088
 C 3123.3333333333335 384.4911114643088, 3126.6666666666665 417.42358775760863, 3130 417.42358775760863
 C 3133.3333333333335 417.42358775760863, 3136.6666666666665 384.33610234870775, 3140 384.33610234870775
 C 3143.3333333333335 384.33610234870775, 3146.6666666666665 398.28493268293204, 3150 398.28493268293204
 C 3153.3333333333335 398.28493268293204, 3156.6666666666665 395.20256377479313, 3160 394.7024258633004
 C 3163.3333333333335 394.20228795180765, 3166.6666666666665 394.33111716772595, 3170 393.75350757668025
 C 3173.3333333333335 393.17589798563455, 3176.6666666666665 383.7884458681863, 3180 383.7884458681863
 C 3183.3333333333335 383.7884458681863, 3186.6666666666665 399.3630666478368, 3190 399.3630666478368
 C 3193.3333333333335 399.3630666478368, 3196.6666666666665 387.8843458834423, 3200 387.8843458834423
 C 3203.3333333333335 387.8843458834423, 3206.6666666666665 392.8724894987659, 3210 397.55936423366734
 C 3213.3333333333335 402.2462389685688, 3216.6666666666665 419.03346664895287, 3220 423.2780612166589
 C 3223.3333333333335 427.52265578436493, 3226.6666666666665 431.7397091684437, 3230 431.7397091684437
 C 3233.3333333333335 431.7397091684437, 3236.6666666666665 416.2081124906041, 3240 416.2081124906041
 C 3243.3333333333335 416.2081124906041, 3246.6666666666665 426.29786661727655, 3250 426.29786661727655
 C 3253.3333333333335 426.29786661727655, 3256.6666666666665 414.8338886582894, 3260 414.8338886582894
 C 3263.3333333333335 414.8338886582894, 3266.6666666666665 420.6352293464833, 3270 420.6352293464833
 C 3273.3333333333335 420.6352293464833, 3276.6666666666665 409.71317335783294, 3280 409.71317335783294
 C 3283.3333333333335 409.71317335783294, 3286.6666666666665 417.4100025234026, 3290 425.3750636822976
 C 3293.3333333333335 433.34012484119256, 3296.6666666666665 475.7538544845627, 3300 475.7538544845627
 C 3303.3333333333335 475.7538544845627, 3306.6666666666665 474.6969859334979, 3310 473.264656445111
 C 3313.3333333333335 471.83232695672405, 3316.6666666666665 457.5676565183326, 3320 457.5676565183326
 C 3323.3333333333335 457.5676565183326, 3326.6666666666665 471.8771325291361, 3330 471.8771325291361
 C 3333.3333333333335 471.8771325291361, 3336.6666666666665 432.60580917078755, 3340 432.60580917078755
 C 3343.3333333333335 432.60580917078755, 3346.6666666666665 442.0612793328, 3350 442.0612793328
 C 3353.3333333333335 442.0612793328, 3356.6666666666665 441.8162553475594, 3360 441.5253041784332
 C 3363.3333333333335 441.23435300930703, 3366.6666666666665 440.4536945311335, 3370 439.17555375465474
 C 3373.3333333333335 437.89741297817596, 3376.6666666666665 432.17423514325077, 3380 428.7603887669577
 C 3383.3333333333335 425.34654239066464, 3386.6666666666665 420.5999166000484, 3390 418.6867815627565
 C 3393.3333333333335 416.7736465254646, 3396.6666666666665 414.67392218261745, 3400 414.67392218261745
 C 3403.3333333333335 414.67392218261745, 3406.6666666666665 440.3771854361332, 3410 440.3771854361332
 C 3413.3333333333335 440.3771854361332, 3416.6666666666665 408.3050825178626, 3420 408.3050825178626
 C 3423.3333333333335 408.3050825178626, 3426.6666666666665 417.72456170047406, 3430 420.950139606467
 C 3433.3333333333335 424.17571751246, 3436.6666666666665 425.56853563365473, 3440 428.7871900526906
 C 3443.3333333333335 432.0058444717265, 3446.6666666666665 441.36155703101684, 3450 441.36155703101684
 C 3453.3333333333335 441.36155703101684, 3456.6666666666665 409.09158785600226, 3460 409.09158785600226
 C 3463.3333333333335 409.09158785600226, 3466.6666666666665 427.8826501851928, 3470 427.8826501851928
 C 3473.3333333333335 427.8826501851928, 3476.6666666666665 403.9182709507773, 3480 403.9182709507773
 C 3483.3333333333335 403.9182709507773, 3486.6666666666665 415.59669686966566, 3490 421.8997248671309
 C 3493.3333333333335 428.2027528645961, 3496.6666666666665 434.73167757924296, 3500 441.8373544330001
 C 3503.3333333333335 448.9430312867572, 3506.6666666666665 464.73884296468503, 3510 464.73884296468503
 C 3513.3333333333335 464.73884296468503, 3516.6666666666665 410.0576112513271, 3520 409.23779048757797
 C 3523.3333333333335 408.41796972382883, 3526.6666666666665 408.23320152788824, 3530 407.9801949256582
 C 3533.3333333333335 407.7271883234282, 3536.6666666666665 407.43666028813095, 3540 407.43666028813095
 C 3543.3333333333335 407.43666028813095, 3546.6666666666665 420.8691463006802, 3550 420.8691463006802
 C 3553.3333333333335 420.8691463006802, 3556.6666666666665 370.050606294376, 3560 370.050606294376
 C 3563.3333333333335 370.050606294376, 3566.6666666666665 381.63372317768125, 3570 388.0953258495255
 C 3573.3333333333335 394.5569285213698, 3576.6666666666665 405.3325249660556, 3580 409.0352330097798
 C 3583.3333333333335 412.737941053504, 3586.6666666666665 416.5942291715163, 3590 416.5942291715163
 C 3593.3333333333335 416.5942291715163, 3596.6666666666665 387.3124108714963, 3600 387.3124108714963
 C 3603.3333333333335 387.3124108714963, 3606.6666666666665 405.3665142421396, 3610 405.3665142421396
 C 3613.3333333333335 405.3665142421396, 3616.6666666666665 376.9233531011069, 3620 376.9233531011069
 C 3623.3333333333335 376.9233531011069, 3626.6666666666665 399.90548891578425, 3630 399.90548891578425
 C 3633.3333333333335 399.90548891578425, 3636.6666666666665 376.49783470117706, 3640 375.7231358881215
 C 3643.3333333333335 374.9484370750659, 3646.6666666666665 374.50242832080596, 3650 374.50242832080596
 C 3653.3333333333335 374.50242832080596, 3656.6666666666665 400.4598532394808, 3660 400.4598532394808
 C 3663.3333333333335 400.4598532394808, 3666.6666666666665 383.0268362913543, 3670 383.0268362913543
 C 3673.3333333333335 383.0268362913543, 3676.6666666666665 396.7300229618973, 3680 396.7300229618973
 C 3683.3333333333335 396.7300229618973, 3686.6666666666665 396.6658701018541, 3690 396.53945766452694
 C 3693.3333333333335 396.41304522719975, 3696.6666666666665 358.36794272369616, 3700 358.36794272369616
 C 3703.3333333333335 358.36794272369616, 3706.6666666666665 400.20607942902865, 3710 400.20607942902865
 C 3713.3333333333335 400.20607942902865, 3716.6666666666665 385.33651645319486, 3720 385.33651645319486
 C 3723.3333333333335 385.33651645319486, 3726.6666666666665 396.61268378480315, 3730 399.2523863770491
 C 3733.3333333333335 401.89208896929506, 3736.6666666666665 403.25753904057797, 3740 404.7866258156777
 C 3743.3333333333335 406.3157125907775, 3746.6666666666665 407.30285690161355, 3750 408.7036356810306
 C 3753.3333333333335 410.1044144604477, 3756.6666666666665 410.5753238266771, 3760 413.23613235424295
 C 3763.3333333333335 415.8969408818088, 3766.6666666666665 446.656966236435, 3770 446.656966236435
 C 3773.3333333333335 446.656966236435, 3776.6666666666665 426.90250357862317, 3780 426.90250357862317
 C 3783.3333333333335 426.90250357862317, 3786.6666666666665 435.5830042184963, 3790 435.72737385374245
 C 3793.3333333333335 435.8717434889886, 3796.6666666666665 435.80232695954686, 3800 435.9493760425017
 C 3803.3333333333335 436.0964251254565, 3806.6666666666665 462.84420242681404, 3810 470.2270256242385
 C 3813.3333333333335 477.6098488216629, 3816.6666666666665 486.586632312967, 3820 486.586632312967
 C 3823.3333333333335 486.586632312967, 3826.6666666666665 485.46875447939755, 3830 483.84233604443193
 C 3833.3333333333335 482.2159176094663, 3836.6666666666665 465.08237876360596, 3840 461.8674403389806
 C 3843.3333333333335 458.65250191435524, 3846.6666666666665 458.43709671876377, 3850 455.6892168388333
 C 3853.3333333333335 452.94133695890287, 3856.6666666666665 443.3056929620735, 3860 443.3056929620735
 C 3863.3333333333335 443.3056929620735, 3866.6666666666665 453.67660685885096, 3870 453.67660685885096
 C 3873.3333333333335 453.67660685885096, 3876.6666666666665 373.4203858800583, 3880 373.4203858800583
 C 3883.3333333333335 373.4203858800583, 3886.6666666666665 445.0815153728371, 3890 445.0815153728371
 C 3893.3333333333335 445.0815153728371, 3896.6666666666665 377.96221170647345, 3900 377.96221170647345
 C 3903.3333333333335 377.96221170647345, 3906.6666666666665 448.1595202726977, 3910 448.1595202726977
 C 3913.3333333333335 448.1595202726977, 3916.6666666666665 376.402050394272, 3920 376.402050394272
 C 3923.3333333333335 376.402050394272, 3926.6666666666665 437.8387659422659, 3930 437.8387659422659
 C 3933.3333333333335 437.8387659422659, 3936.6666666666665 425.46459224938326, 3940 425.46459224938326
 C 3943.3333333333335 425.46459224938326, 3946.6666666666665 440.97043563775384, 3950 440.97043563775384
 C 3953.3333333333335 440.97043563775384, 3956.6666666666665 440.3317989455044, 3960 439.3656215573626
 C 3963.3333333333335 438.3994441692208, 3966.6666666666665 428.92941347876393, 3970 424.41330688791777
 C 3973.3333333333335 419.8972002970716, 3976.6666666666665 412.0279494416384, 3980 412.0279494416384
 C 3983.3333333333335 412.0279494416384, 3986.6666666666665 418.91029300342797, 3990 420.2187021015124
 C 3993.3333333333335 421.52711119959685, 3996.6666666666665 421.4947591465923, 4000 422.7997753430707
 C 4003.3333333333335 424.10479153954907, 4006.6666666666665 427.74370465830964, 4010 430.90260929443093
 C 4013.3333333333335 434.0615139305522, 4016.6666666666665 440.4190914753833, 4020 442.31422531505143
 C 4023.3333333333335 444.20935915471955, 4026.6666666666665 446.09997981727673, 4030 446.09997981727673
 C 4033.3333333333335 446.09997981727673, 4036.6666666666665 415.63567725408143, 4040 415.63567725408143
 C 4043.3333333333335 415.63567725408143, 4046.6666666666665 415.8596174421343, 4050 415.8596174421343
 C 4053.3333333333335 415.8596174421343, 4056.6666666666665 394.00568002383864, 4060 394.00568002383864
 C 4063.3333333333335 394.00568002383864, 4066.6666666666665 412.094189024992, 4070 412.094189024992
 C 4073.3333333333335 412.094189024992, 4076.6666666666665 384.82663294686887, 4080 384.82663294686887
 C 4083.3333333333335 384.82663294686887, 4086.6666666666665 423.27586345340416, 4090 424.83436224780337
 C 4093.3333333333335 426.3928610422026, 4096.666666666667 425.71744979982424, 4100 427.3171879373564
 C 4103.333333333333 428.9169260748885, 4106.666666666667 498.90953357516963, 4110 498.90953357516963
 C 4113.333333333333 498.90953357516963, 4116.666666666667 469.3521822635443, 4120 469.3521822635443
 C 4123.333333333333 469.3521822635443, 4126.666666666667 490.66240168940624, 4130 490.66240168940624
 C 4133.333333333333 490.66240168940624, 4136.666666666667 451.49105189118376, 4140 442.7129138046725
 C 4143.333333333333 433.93477571816123, 4146.666666666667 434.34055773329976, 4150 424.56111855029206
 C 4153.333333333333 414.78167936728437, 4156.666666666667 351.5461443553497, 4160 348.1042249961996
 C 4163.333333333333 344.6623056370495, 4166.666666666667 342.5674671662505, 4170 342.5674671662505
 C 4173.333333333333 342.5674671662505, 4176.666666666667 343.64276452268194, 4180 345.4312549372467
 C 4183.333333333333 347.21974535181147, 4186.666666666667 387.8653575025528, 4190 387.8653575025528
 C 4193.333333333333 387.8653575025528, 4196.666666666667 344.88289215294697, 4200 344.88289215294697
 C 4203.333333333333 344.88289215294697, 4206.666666666667 350.23211326527354, 4210 355.73477595857594
 C 4213.333333333333 361.23743865187834, 4216.666666666667 390.2132921132614, 4220 390.2132921132614
 C 4223.333333333333 390.2132921132614, 4226.666666666667 333.6107637063934, 4230 333.6107637063934
 C 4233.333333333333 333.6107637063934, 4236.666666666667 341.0288228859425, 4240 345.78944203894156
 C 4243.333333333333 350.55006119194064, 4246.666666666667 355.2313946864171, 4250 363.0525219545396
 C 4253.333333333333 370.8736492226621, 4256.666666666667 388.837652688248, 4260 399.6663122879156
 C 4263.333333333333 410.49497188758323, 4266.666666666667 428.8609134325197, 4270 428.8609134325197
 C 4273.333333333333 428.8609134325197, 4276.666666666667 348.5421719415567, 4280 348.5421719415567
 C 4283.333333333333 348.5421719415567, 4286.666666666667 355.17921825715473, 4290 357.78600654966215
 C 4293.333333333333 360.39279484216956, 4296.666666666667 364.56280387423703, 4300 364.56280387423703
 C 4303.333333333333 364.56280387423703, 4306.666666666667 353.21356279369763, 4310 353.21356279369763
 C 4313.333333333333 353.21356279369763, 4316.666666666667 385.7344260338165, 4320 385.7344260338165
 C 4323.333333333333 385.7344260338165, 4326.666666666667 345.3805670655431, 4330 345.3805670655431
 C 4333.333333333333 345.3805670655431, 4336.666666666667 362.98015495090453, 4340 371.30488735614296
 C 4343.333333333333 379.6296197613814, 4346.666666666667 395.3961430824786, 4350 395.3961430824786
 C 4353.333333333333 395.3961430824786, 4356.666666666667 393.22859151523613, 4360 390.00141287221066
 C 4363.333333333333 386.7742342291852, 4366.666666666667 342.8598659879285, 4370 342.8598659879285
 C 4373.333333333333 342.8598659879285, 4376.666666666667 347.2256215315576, 4380 352.03281372453847
 C 4383.333333333333 356.84000591751936, 4386.666666666667 373.99441081408446, 4390 385.7427062694776
 C 4393.333333333333 397.4910017248707, 4396.666666666667 410.430804747842, 4400 422.66904883127677
 C 4403.333333333333 434.90729291471155, 4406.666666666667 459.1745822613217, 4410 459.1745822613217
 C 4413.333333333333 459.1745822613217, 4416.666666666667 452.091050971828, 4420 452.091050971828
 C 4423.333333333333 452.091050971828, 4426.666666666667 489.20180788143114, 4430 489.20180788143114
 C 4433.333333333333 489.20180788143114, 4436.666666666667 467.81346369832255, 4440 456.5311886469124
 C 4443.333333333333 445.2489135955023, 4446.666666666667 428.0529936842433, 4450 421.42030323818807
 C 4453.333333333333 414.78761279213285, 4456.666666666667 410.928186284055, 4460 407.53740293797136
 C 4463.333333333333 404.1466195918877, 4466.666666666667 399.5104544493388, 4470 399.5104544493388
 C 4473.333333333333 399.5104544493388, 4476.666666666667 421.2119555668608, 4480 421.2119555668608
 C 4483.333333333333 421.2119555668608, 4486.666666666667 419.05871575372356, 4490 419.05871575372356
 C 4493.333333333333 419.05871575372356, 4496.666666666667 429.220813573403, 4500 429.220813573403
 C 4503.333333333333 429.220813573403, 4506.666666666667 425.07857252579174, 4510 421.90298723388673
 C 4513.333333333333 418.7274019419817, 4516.666666666667 408.2571557048219, 4520 408.2571557048219
 C 4523.333333333333 408.2571557048219, 4526.666666666667 416.2594752717353, 4530 424.554034809958
 C 4533.333333333333 432.8485943481807, 4536.666666666667 466.5762469482306, 4540 477.150936961982
 C 4543.333333333333 487.72562697573335, 4546.666666666667 499.86216389871515, 4550 499.86216389871515
 C 4553.333333333333 499.86216389871515, 4556.666666666667 436.7584050020956, 4560 436.7584050020956
 C 4563.333333333333 436.7584050020956, 4566.666666666667 446.8533102395244, 4570 446.8533102395244
 C 4573.333333333333 446.8533102395244, 4576.666666666667 426.1856856859745, 4580 426.1856856859745
 C 4583.333333333333 426.1856856859745, 4586.666666666667 442.44621817130735, 4590 444.61888709332385
 C 4593.333333333333 446.79155601534035, 4596.666666666667 447.5616853896408, 4600 448.5778354113982
 C 4603.333333333333 449.59398543315564, 4606.666666666667 451.0562805658896, 4610 451.0562805658896
 C 4613.333333333333 451.0562805658896, 4616.666666666667 434.9420859054884, 4620 433.1843257119591
 C 4623.333333333333 431.4265655184298, 4626.666666666667 431.53140652795594, 4630 430.09138555392275
 C 4633.333333333333 428.65136457988956, 4636.666666666667 422.930075910136, 4640 422.930075910136
 C 4643.333333333333 422.930075910136, 4646.666666666667 432.88248296481254, 4650 438.6820893750976
 C 4653.333333333333 444.4816957853826, 4656.666666666667 458.1122488343569, 4660 458.1122488343569
 C 4663.333333333333 458.1122488343569, 4666.666666666667 457.70639694663635, 4670 456.9787997162477
 C 4673.333333333333 456.25120248585904, 4676.666666666667 427.56273803129415, 4680 427.56273803129415
 C 4683.333333333333 427.56273803129415, 4686.666666666667 439.990961640439, 4690 439.990961640439
 C 4693.333333333333 439.990961640439, 4696.666666666667 429.3012396802283, 4700 422.45659288116644
 C 4703.333333333333 415.61194608210457, 4706.666666666667 398.5020444595897, 4710 397.6850271001711
 C 4713.333333333333 396.86800974075254, 4716.666666666667 397.19206731370855, 4720 396.39571479001654
 C 4723.333333333333 395.59936226632453, 4726.666666666667 386.74064191655873, 4730 380.146892283583
 C 4733.333333333333 373.55314265060724, 4736.666666666667 354.87070558459305, 4740 354.87070558459305
 C 4743.333333333333 354.87070558459305, 4746.666666666667 400.0370510787753, 4750 400.0370510787753
 C 4753.333333333333 400.0370510787753, 4756.666666666667 386.02492742235114, 4760 386.02492742235114
 C 4763.333333333333 386.02492742235114, 4766.666666666667 393.6062280670893, 4770 393.6062280670893
 C 4773.333333333333 393.6062280670893, 4776.666666666667 379.56983013113745, 4780 375.0091561520279
 C 4783.333333333333 370.4484821729184, 4786.666666666667 364.1872683159527, 4790 364.1872683159527
 C 4793.333333333333 364.1872683159527, 4796.666666666667 383.0599514917485, 4800 383.20710952838886
 C 4803.333333333333 383.3542675650292, 4806.666666666667 383.2824277100156, 4810 383.43043845405896
 C 4813.333333333333 383.5784491981023, 4816.666666666667 417.94932307994173, 4820 421.1987641057139
 C 4823.333333333333 424.4482051314861, 4826.666666666667 426.7951647206814, 4830 426.7951647206814
 C 4833.333333333333 426.7951647206814, 4836.666666666667 386.39906514395204, 4840 386.39906514395204
 C 4843.333333333333 386.39906514395204, 4846.666666666667 411.135769606798, 4850 411.135769606798
 C 4853.333333333333 411.135769606798, 4856.666666666667 408.0654179100383, 4860 408.0654179100383
 C 4863.333333333333 408.0654179100383, 4866.666666666667 409.98177386760057, 4870 409.98177386760057
 C 4873.333333333333 409.98177386760057, 4876.666666666667 370.5744863978092, 4880 370.5744863978092
 C 4883.333333333333 370.5744863978092, 4886.666666666667 388.5418092176908, 4890 388.5418092176908
 C 4893.333333333333 388.5418092176908, 4896.666666666667 363.00015282305174, 4900 363.00015282305174
 C 4903.333333333333 363.00015282305174, 4906.666666666667 375.727914816111, 4910 379.20553042325275
 C 4913.333333333333 382.6831460303945, 4916.666666666667 386.8981742941306, 4920 386.8981742941306
 C 4923.333333333333 386.8981742941306, 4926.666666666667 365.66186981301956, 4930 365.66186981301956
 C 4933.333333333333 365.66186981301956, 4936.666666666667 381.27564423440083, 4940 381.27564423440083
 C 4943.333333333333 381.27564423440083, 4946.666666666667 370.52145796369166, 4950 369.55675266555534
 C 4953.333333333333 368.592047367419, 4956.666666666667 367.9058385443026, 4960 367.9058385443026
 C 4963.333333333333 367.9058385443026, 4966.666666666667 377.23438738256806, 4970 377.23438738256806
 C 4973.333333333333 377.23438738256806, 4976.666666666667 365.93206366199297, 4980 365.93206366199297
 C 4983.333333333333 365.93206366199297, 4986.666666666667 386.11187664764805, 4990 386.11187664764805
 C 4993.333333333333 386.11187664764805, 4996.666666666667 375.21533400011555, 5000 375.21533400011555
 C 5003.333333333333 375.21533400011555, 5006.666666666667 376.22112340198527, 5010 376.22112340198527
 C 5013.333333333333 376.22112340198527, 5016.666666666667 365.08109812478347, 5020 365.08109812478347
 C 5023.333333333333 365.08109812478347, 5026.666666666667 366.1406831264655, 5030 368.0252397995497
 C 5033.333333333333 369.9097964726339, 5036.666666666667 437.88061660092757, 5040 438.9726386502507
 C 5043.333333333333 440.06466069957384, 5046.666666666667 440.64938441943036, 5050 440.64938441943036
 C 5053.333333333333 440.64938441943036, 5056.666666666667 433.0257173521692, 5060 433.0257173521692
 C 5063.333333333333 433.0257173521692, 5066.666666666667 447.7409113134291, 5070 447.7409113134291
 C 5073.333333333333 447.7409113134291, 5076.666666666667 389.64202880917264, 5080 389.64202880917264
 C 5083.333333333333 389.64202880917264, 5086.666666666667 427.1067671066106, 5090 427.1067671066106
 C 5093.333333333333 427.1067671066106, 5096.666666666667 396.2383832731876, 5100 396.2383832731876
 C 5103.333333333333 396.2383832731876, 5106.666666666667 408.6618717011367, 5110 417.25637475525133
 C 5113.333333333333 425.85087780936595, 5116.666666666667 437.3287481036072, 5120 450.60007261695046
 C 5123.333333333333 463.8713971302937, 5126.666666666667 483.53335753898347, 5130 500
" fill="transparent" stroke="white" stroke-width="5" />
  </g>
</svg>