<svg 
  baseProfile="tiny"
  preserveAspectRatio="keep"
  version="1.2"
  viewBox="-0.000000 -0.000000 5025.000000 1000.000000"
  height="100%" width="100%"
  xmlns="http://www.w3.org/2000/svg"
  xmlns:ev="http://www.w3.org/2001/xml-events"
  xmlns:xlink="http://www.w3.org/1999/xlink"
>
  <g style="transform-origin: center center;">
    <path d="M 0 500 C 8.333333333333334 500, 16.666666666666664 500, 25 500 C 33.333333333333336 500, 41.666666666666664 499.9999998626552, 50 499.99999958800885 C 58.333333333333336 499.9999993133625, 66.66666666666667 499.99718098947204, 75 499.9921376294421 C 83.33333333333333 499.9870942694121, 91.66666666666667 499.90022901464334, 100 499.791826678736 C 108.33333333333333 499.6834243428287, 116.66666666666667 499.34753280319995, 125 498.92803808598495 C 133.33333333333334 498.50854336876995, 141.66666666666666 497.3306149076999, 150 496.6106635442858 C 158.33333333333334 495.8907121808717, 166.66666666666666 495.62189097402916, 175 494.58827839406587 C 183.33333333333334 493.5546658141026, 191.66666666666666 489.8869145652409, 200 487.9447018712467 C 208.33333333333334 486.0024891772525, 216.66666666666666 484.97874002470115, 225 482.7560900720612 C 233.33333333333334 480.5334401194213, 241.66666666666666 475.0829050851639, 250 473.4288185547608 C 258.3333333333333 471.7747320243578, 266.6666666666667 471.9593082486082, 275 470.04849541597315 C 283.3333333333333 468.1376825833381, 291.6666666666667 451.20260173642845, 300 451.20260173642845 C 308.3333333333333 451.20260173642845, 316.6666666666667 453.4897038240927, 325 453.4897038240927 C 333.3333333333333 453.4897038240927, 341.6666666666667 443.7868968081071, 350 443.7868968081071 C 358.3333333333333 443.7868968081071, 366.6666666666667 446.82152205259746, 375 446.82152205259746 C 383.3333333333333 446.82152205259746, 391.6666666666667 439.8954565369373, 400 439.8954565369373 C 408.3333333333333 439.8954565369373, 416.6666666666667 464.29320688110437, 425 464.29320688110437 C 433.3333333333333 464.29320688110437, 441.6666666666667 434.72061813176276, 450 434.72061813176276 C 458.3333333333333 434.72061813176276, 466.6666666666667 450.3546598481266, 475 450.3546598481266 C 483.3333333333333 450.3546598481266, 491.6666666666667 418.2741003608511, 500 418.2741003608511 C 508.3333333333333 418.2741003608511, 516.6666666666666 430.5065261305128, 525 431.24685679023855 C 533.3333333333334 431.9871874499643, 541.6666666666666 431.8397040075462, 550 432.46131284284814 C 558.3333333333334 433.0829216781501, 566.6666666666666 435.56716131663586, 575 436.4762173891115 C 583.3333333333334 437.3852734615872, 591.6666666666666 437.6909613996572, 600 438.5410979519248 C 608.3333333333334 439.3912345041924, 616.6666666666666 441.8755624023649, 625 441.8755624023649 C 633.3333333333334 441.8755624023649, 641.6666666666666 435.1127014277085, 650 435.1127014277085 C 658.3333333333334 435.1127014277085, 666.6666666666666 439.03193797044696, 675 439.03193797044696 C 683.3333333333334 439.03193797044696, 691.6666666666666 431.0655916564129, 700 429.1469431766339 C 708.3333333333334 427.2282946968549, 716.6666666666666 426.58689334845326, 725 425.08690953472023 C 733.3333333333334 423.5869257209872, 741.6666666666666 421.4730661523987, 750 420.04012235097576 C 758.3333333333334 418.6071785495528, 766.6666666666666 416.2961621142847, 775 416.2961621142847 C 783.3333333333334 416.2961621142847, 791.6666666666666 426.0485879829305, 800 432.5398287947221 C 808.3333333333334 439.0310696065137, 816.6666666666666 456.84704514523975, 825 456.84704514523975 C 833.3333333333334 456.84704514523975, 841.6666666666666 425.35613291123525, 850 425.35613291123525 C 858.3333333333334 425.35613291123525, 866.6666666666666 436.55298650034786, 875 436.55298650034786 C 883.3333333333334 436.55298650034786, 891.6666666666666 419.83674314734697, 900 419.83674314734697 C 908.3333333333334 419.83674314734697, 916.6666666666666 440.18296451697574, 925 440.18296451697574 C 933.3333333333334 440.18296451697574, 941.6666666666666 422.69370918374716, 950 422.69370918374716 C 958.3333333333334 422.69370918374716, 966.6666666666666 436.7322464787868, 975 436.7322464787868 C 983.3333333333334 436.7322464787868, 991.6666666666666 418.92047742106274, 1000 418.92047742106274 C 1008.3333333333334 418.92047742106274, 1016.6666666666666 439.90340209787627, 1025 442.2953057695547 C 1033.3333333333333 444.68720944123316, 1041.6666666666667 444.355895815579, 1050 446.533726032292 C 1058.3333333333333 448.711556249005, 1066.6666666666667 460.7831823496585, 1075 460.7831823496585 C 1083.3333333333333 460.7831823496585, 1091.6666666666667 452.9479379947558, 1100 452.9479379947558 C 1108.3333333333333 452.9479379947558, 1116.6666666666667 454.3718170473537, 1125 454.3718170473537 C 1133.3333333333333 454.3718170473537, 1141.6666666666667 450.007961383432, 1150 450.007961383432 C 1158.3333333333333 450.007961383432, 1166.6666666666667 453.0176442904062, 1175 453.0176442904062 C 1183.3333333333333 453.0176442904062, 1191.6666666666667 437.4784755182419, 1200 437.4784755182419 C 1208.3333333333333 437.4784755182419, 1216.6666666666667 444.1588903710315, 1225 444.1588903710315 C 1233.3333333333333 444.1588903710315, 1241.6666666666667 423.964759151509, 1250 423.964759151509 C 1258.3333333333333 423.964759151509, 1266.6666666666667 428.1089395982857, 1275 428.1089395982857 C 1283.3333333333333 428.1089395982857, 1291.6666666666667 421.2155035759191, 1300 421.2155035759191 C 1308.3333333333333 421.2155035759191, 1316.6666666666667 433.4498765757587, 1325 433.4498765757587 C 1333.3333333333333 433.4498765757587, 1341.6666666666667 427.20079970687306, 1350 427.20079970687306 C 1358.3333333333333 427.20079970687306, 1366.6666666666667 452.67187598766293, 1375 452.67187598766293 C 1383.3333333333333 452.67187598766293, 1391.6666666666667 443.08324895081904, 1400 443.08324895081904 C 1408.3333333333333 443.08324895081904, 1416.6666666666667 461.326027407521, 1425 461.326027407521 C 1433.3333333333333 461.326027407521, 1441.6666666666667 426.0900446549525, 1450 426.0900446549525 C 1458.3333333333333 426.0900446549525, 1466.6666666666667 428.7873513601678, 1475 428.7873513601678 C 1483.3333333333333 428.7873513601678, 1491.6666666666667 415.10422664359413, 1500 415.10422664359413 C 1508.3333333333333 415.10422664359413, 1516.6666666666667 426.6460985160645, 1525 428.2530759921966 C 1533.3333333333333 429.8600534683287, 1541.6666666666667 429.74636276086085, 1550 431.2046243504259 C 1558.3333333333333 432.66288593999093, 1566.6666666666667 439.6534157248212, 1575 439.6534157248212 C 1583.3333333333333 439.6534157248212, 1591.6666666666667 429.44839321267364, 1600 427.5729186379307 C 1608.3333333333333 425.69744406318773, 1616.6666666666667 424.6851931573773, 1625 423.9057176312949 C 1633.3333333333333 423.12624210521255, 1641.6666666666667 422.1892399557698, 1650 422.1892399557698 C 1658.3333333333333 422.1892399557698, 1666.6666666666667 425.2466101845723, 1675 426.2948276229478 C 1683.3333333333333 427.3430450613233, 1691.6666666666667 428.84305363781937, 1700 428.84305363781937 C 1708.3333333333333 428.84305363781937, 1716.6666666666667 427.45876653131825, 1725 427.0791550891305 C 1733.3333333333333 426.69954364694274, 1741.6666666666667 426.2382930043952, 1750 426.2382930043952 C 1758.3333333333333 426.2382930043952, 1766.6666666666667 440.0593562505686, 1775 440.0593562505686 C 1783.3333333333333 440.0593562505686, 1791.6666666666667 428.5817172164858, 1800 428.0731827911022 C 1808.3333333333333 427.56464836571865, 1816.6666666666667 427.7413229779067, 1825 427.2585369881618 C 1833.3333333333333 426.77575099841687, 1841.6666666666667 420.7373684389436, 1850 420.7373684389436 C 1858.3333333333333 420.7373684389436, 1866.6666666666667 429.0654547575992, 1875 429.0654547575992 C 1883.3333333333333 429.0654547575992, 1891.6666666666667 421.3182344929664, 1900 421.3182344929664 C 1908.3333333333333 421.3182344929664, 1916.6666666666667 439.3613802145622, 1925 439.3613802145622 C 1933.3333333333333 439.3613802145622, 1941.6666666666667 418.79166989202776, 1950 418.79166989202776 C 1958.3333333333333 418.79166989202776, 1966.6666666666667 438.06867020938535, 1975 438.06867020938535 C 1983.3333333333333 438.06867020938535, 1991.6666666666667 424.8938621966234, 2000 424.8938621966234 C 2008.3333333333333 424.8938621966234, 2016.6666666666667 438.0441576523524, 2025 438.0441576523524 C 2033.3333333333333 438.0441576523524, 2041.6666666666667 437.5062340230246, 2050 437.5062340230246 C 2058.3333333333335 437.5062340230246, 2066.6666666666665 437.81689863488964, 2075 437.8729765528214 C 2083.3333333333335 437.92905447075316, 2091.6666666666665 437.9122815250933, 2100 437.98212883930205 C 2108.3333333333335 438.0519761535108, 2116.6666666666665 440.5923019581978, 2125 440.5923019581978 C 2133.3333333333335 440.5923019581978, 2141.6666666666665 437.22709541415907, 2150 435.19909998387715 C 2158.3333333333335 433.1711045535952, 2166.6666666666665 428.2213771903406, 2175 428.2213771903406 C 2183.3333333333335 428.2213771903406, 2191.6666666666665 430.3340136856616, 2200 430.3340136856616 C 2208.3333333333335 430.3340136856616, 2216.6666666666665 429.1901783079853, 2225 428.2195909287261 C 2233.3333333333335 427.2490035494669, 2241.6666666666665 423.5450986083066, 2250 423.5450986083066 C 2258.3333333333335 423.5450986083066, 2266.6666666666665 429.62319217955246, 2275 429.62319217955246 C 2283.3333333333335 429.62319217955246, 2291.6666666666665 424.66340459358685, 2300 424.66340459358685 C 2308.3333333333335 424.66340459358685, 2316.6666666666665 432.4213988068253, 2325 432.4213988068253 C 2333.3333333333335 432.4213988068253, 2341.6666666666665 430.84649775499713, 2350 430.84649775499713 C 2358.3333333333335 430.84649775499713, 2366.6666666666665 445.0379029537479, 2375 445.0379029537479 C 2383.3333333333335 445.0379029537479, 2391.6666666666665 416.58761490080855, 2400 416.58761490080855 C 2408.3333333333335 416.58761490080855, 2416.6666666666665 419.3326104432227, 2425 419.3326104432227 C 2433.3333333333335 419.3326104432227, 2441.6666666666665 413.0431060258853, 2450 413.0431060258853 C 2458.3333333333335 413.0431060258853, 2466.6666666666665 430.3276479073154, 2475 430.3276479073154 C 2483.3333333333335 430.3276479073154, 2491.6666666666665 421.5368644248556, 2500 421.5368644248556 C 2508.3333333333335 421.5368644248556, 2516.6666666666665 441.40644974429955, 2525 441.40644974429955 C 2533.3333333333335 441.40644974429955, 2541.6666666666665 433.37292438507325, 2550 433.37292438507325 C 2558.3333333333335 433.37292438507325, 2566.6666666666665 441.20866708379276, 2575 441.20866708379276 C 2583.3333333333335 441.20866708379276, 2591.6666666666665 428.8467404639387, 2600 428.7747720672586 C 2608.3333333333335 428.7028036705785, 2616.6666666666665 428.7373422798878, 2625 428.66587400597115 C 2633.3333333333335 428.5944057320545, 2641.6666666666665 421.78112074332387, 2650 421.78112074332387 C 2658.3333333333335 421.78112074332387, 2666.6666666666665 429.1938088359105, 2675 429.1938088359105 C 2683.3333333333335 429.1938088359105, 2691.6666666666665 426.22391739808666, 2700 426.22391739808666 C 2708.3333333333335 426.22391739808666, 2716.6666666666665 439.8271333017256, 2725 439.8271333017256 C 2733.3333333333335 439.8271333017256, 2741.6666666666665 437.5870254703945, 2750 436.42127805316625 C 2758.3333333333335 435.255530635938, 2766.6666666666665 434.85954746875706, 2775 432.8276093267294 C 2783.3333333333335 430.7956711847017, 2791.6666666666665 412.7580944127047, 2800 412.7580944127047 C 2808.3333333333335 412.7580944127047, 2816.6666666666665 434.40802479781973, 2825 434.40802479781973 C 2833.3333333333335 434.40802479781973, 2841.6666666666665 417.5259026769815, 2850 417.5259026769815 C 2858.3333333333335 417.5259026769815, 2866.6666666666665 441.9042811314898, 2875 441.9042811314898 C 2883.3333333333335 441.9042811314898, 2891.6666666666665 425.39905938770767, 2900 425.39905938770767 C 2908.3333333333335 425.39905938770767, 2916.6666666666665 437.55356010279036, 2925 437.55356010279036 C 2933.3333333333335 437.55356010279036, 2941.6666666666665 426.3529651543695, 2950 426.3529651543695 C 2958.3333333333335 426.3529651543695, 2966.6666666666665 448.0262896334267, 2975 448.0262896334267 C 2983.3333333333335 448.0262896334267, 2991.6666666666665 424.31329515849325, 3000 424.31329515849325 C 3008.3333333333335 424.31329515849325, 3016.6666666666665 435.3441682919839, 3025 435.3441682919839 C 3033.3333333333335 435.3441682919839, 3041.6666666666665 430.76091681557557, 3050 428.71767803606843 C 3058.3333333333335 426.6744392565613, 3066.6666666666665 423.01544594127495, 3075 423.01544594127495 C 3083.3333333333335 423.01544594127495, 3091.6666666666665 423.35579942479137, 3100 423.35579942479137 C 3108.3333333333335 423.35579942479137, 3116.6666666666665 412.66295585253965, 3125 412.66295585253965 C 3133.3333333333335 412.66295585253965, 3141.6666666666665 430.4563534284363, 3150 432.6846513051022 C 3158.3333333333335 434.9129491817681, 3166.6666666666665 435.61194915850774, 3175 436.696909509922 C 3183.3333333333335 437.7818698613363, 3191.6666666666665 438.5369716788704, 3200 439.4349433935442 C 3208.3333333333335 440.332915108218, 3216.6666666666665 442.08613904771687, 3225 442.08613904771687 C 3233.3333333333335 442.08613904771687, 3241.6666666666665 426.29217999413083, 3250 424.58481572817897 C 3258.3333333333335 422.8774514622271, 3266.6666666666665 423.13701904101674, 3275 421.5847574761032 C 3283.3333333333335 420.0324959111897, 3291.6666666666665 411.1847764336504, 3300 411.1847764336504 C 3308.3333333333335 411.1847764336504, 3316.6666666666665 427.39116811866177, 3325 427.39116811866177 C 3333.3333333333335 427.39116811866177, 3341.6666666666665 421.17883474365806, 3350 421.17883474365806 C 3358.3333333333335 421.17883474365806, 3366.6666666666665 421.490675346167, 3375 421.490675346167 C 3383.3333333333335 421.490675346167, 3391.6666666666665 418.9537321611291, 3400 418.9537321611291 C 3408.3333333333335 418.9537321611291, 3416.6666666666665 428.8152373196717, 3425 428.8152373196717 C 3433.3333333333335 428.8152373196717, 3441.6666666666665 417.49444139749903, 3450 417.49444139749903 C 3458.3333333333335 417.49444139749903, 3466.6666666666665 421.36382847237576, 3475 422.55097718451924 C 3483.3333333333335 423.7381258966627, 3491.6666666666665 423.77100035797076, 3500 425.29969656933423 C 3508.3333333333335 426.8283927806977, 3516.6666666666665 439.13177958267624, 3525 439.13177958267624 C 3533.3333333333335 439.13177958267624, 3541.6666666666665 436.1652846152416, 3550 436.1652846152416 C 3558.3333333333335 436.1652846152416, 3566.6666666666665 437.3639895531044, 3575 437.3639895531044 C 3583.3333333333335 437.3639895531044, 3591.6666666666665 423.7188819362821, 3600 423.7188819362821 C 3608.3333333333335 423.7188819362821, 3616.6666666666665 425.7254485866714, 3625 425.7254485866714 C 3633.3333333333335 425.7254485866714, 3641.6666666666665 419.3516501609125, 3650 418.15022797203767 C 3658.3333333333335 416.9488057831628, 3666.6666666666665 415.78553878329126, 3675 415.78553878329126 C 3683.3333333333335 415.78553878329126, 3691.6666666666665 431.04559249375586, 3700 431.04559249375586 C 3708.3333333333335 431.04559249375586, 3716.6666666666665 427.28101309467684, 3725 423.63767432533416 C 3733.3333333333335 419.9943355559915, 3741.6666666666665 402.80071692922127, 3750 402.80071692922127 C 3758.3333333333335 402.80071692922127, 3766.6666666666665 406.2785539451024, 3775 406.2785539451024 C 3783.3333333333335 406.2785539451024, 3791.6666666666665 404.93177231721836, 3800 404.93177231721836 C 3808.3333333333335 404.93177231721836, 3816.6666666666665 419.32222182547196, 3825 419.32222182547196 C 3833.3333333333335 419.32222182547196, 3841.6666666666665 406.87326732239046, 3850 406.64762671860734 C 3858.3333333333335 406.4219861148242, 3866.6666666666665 406.5247014073418, 3875 406.29987961493885 C 3883.3333333333335 406.0750578225359, 3891.6666666666665 395.1464592857881, 3900 395.1464592857881 C 3908.3333333333335 395.1464592857881, 3916.6666666666665 419.66689668184256, 3925 419.66689668184256 C 3933.3333333333335 419.66689668184256, 3941.6666666666665 398.3161078867156, 3950 398.3161078867156 C 3958.3333333333335 398.3161078867156, 3966.6666666666665 399.2584301998078, 3975 399.6716983102122 C 3983.3333333333335 400.08496642061664, 3991.6666666666665 400.15026803239635, 4000 400.8139395111406 C 4008.3333333333335 401.4776109898848, 4016.6666666666665 407.06648301845473, 4025 408.56340107799963 C 4033.3333333333335 410.0603191375445, 4041.6666666666665 411.7247739689445, 4050 411.7247739689445 C 4058.3333333333335 411.7247739689445, 4066.6666666666665 406.77860993178456, 4075 406.77860993178456 C 4083.3333333333335 406.77860993178456, 4091.6666666666665 407.82734562434644, 4100 408.8857742349087 C 4108.333333333333 409.94420284547095, 4116.666666666667 413.2914792282189, 4125 415.32520976206536 C 4133.333333333333 417.3589402959118, 4141.666666666667 419.1512677155911, 4150 421.12191794673197 C 4158.333333333333 423.09256817787286, 4166.666666666667 427.1537862931717, 4175 427.1537862931717 C 4183.333333333333 427.1537862931717, 4191.666666666667 426.318319357303, 4200 426.02474946460694 C 4208.333333333333 425.7311795719109, 4216.666666666667 425.6997133222361, 4225 425.3028243402641 C 4233.333333333333 424.90593535829214, 4241.666666666667 423.5058618081421, 4250 421.90776481786145 C 4258.333333333333 420.3096678275808, 4266.666666666667 413.7523012155275, 4275 413.7523012155275 C 4283.333333333333 413.7523012155275, 4291.666666666667 420.902094450415, 4300 421.35384356633256 C 4308.333333333333 421.8055926822501, 4316.666666666667 422.0977842876531, 4325 422.0977842876531 C 4333.333333333333 422.0977842876531, 4341.666666666667 417.8187660591412, 4350 417.8187660591412 C 4358.333333333333 417.8187660591412, 4366.666666666667 423.0480320369499, 4375 423.0480320369499 C 4383.333333333333 423.0480320369499, 4391.666666666667 412.4222628455025, 4400 412.4222628455025 C 4408.333333333333 412.4222628455025, 4416.666666666667 427.4953102518866, 4425 427.4953102518866 C 4433.333333333333 427.4953102518866, 4441.666666666667 416.63264008673775, 4450 416.63264008673775 C 4458.333333333333 416.63264008673775, 4466.666666666667 427.86664598315843, 4475 427.86664598315843 C 4483.333333333333 427.86664598315843, 4491.666666666667 408.33905161720315, 4500 408.33905161720315 C 4508.333333333333 408.33905161720315, 4516.666666666667 423.5006261378146, 4525 423.5006261378146 C 4533.333333333333 423.5006261378146, 4541.666666666667 422.30521369683964, 4550 421.7942032033029 C 4558.333333333333 421.2831927097662, 4566.666666666667 420.40257640548396, 4575 420.40257640548396 C 4583.333333333333 420.40257640548396, 4591.666666666667 421.0482264839517, 4600 422.04232470824417 C 4608.333333333333 423.03642293253665, 4616.666666666667 438.4964997692636, 4625 438.4964997692636 C 4633.333333333333 438.4964997692636, 4641.666666666667 434.84334157247486, 4650 434.84334157247486 C 4658.333333333333 434.84334157247486, 4666.666666666667 445.76485925020194, 4675 445.76485925020194 C 4683.333333333333 445.76485925020194, 4691.666666666667 445.70926161684605, 4700 445.70926161684605 C 4708.333333333333 445.70926161684605, 4716.666666666667 449.522476380464, 4725 452.1919485078296 C 4733.333333333333 454.86142063519515, 4741.666666666667 460.31816501616294, 4750 462.6653199148771 C 4758.333333333333 465.01247481359127, 4766.666666666667 466.3804205521459, 4775 467.96890855127407 C 4783.333333333333 469.55739655040225, 4791.666666666667 470.2588085918178, 4800 472.29538941607063 C 4808.333333333333 474.33197024032347, 4816.666666666667 480.4244186037638, 4825 482.6891782434343 C 4833.333333333333 484.9539378831048, 4841.666666666667 485.7396764028819, 4850 487.73575815658745 C 4858.333333333333 489.731839910293, 4866.666666666667 493.65755810435263, 4875 495.09770388526545 C 4883.333333333333 496.53784966617826, 4891.666666666667 497.4477449511005, 4900 498.1550370450958 C 4908.333333333333 498.8623291390911, 4916.666666666667 499.6551611409898, 4925 499.7797863198538 C 4933.333333333333 499.9044114987179, 4941.666666666667 499.98529196010526, 4950 499.99102889379265 C 4958.333333333333 499.99676582748003, 4966.666666666667 499.99999956699594, 4975 499.99999974019454 C 4983.333333333333 499.99999991339314, 4991.666666666667 500, 5000 500 C 5008.333333333333 500, 5016.666666666667 500, 5025 500 c 0 0, 0 0, 0 0C 5016.666666666667 500, 5008.333333333333 500, 5000 500 C 4991.666666666667 500, 4983.333333333333 500.00000008660686, 4975 500.00000025980546 C 4966.666666666667 500.00000043300406, 4958.333333333333 500.00323417251997, 4950 500.00897110620735 C 4941.666666666667 500.01470803989474, 4933.333333333333 500.0955885012821, 4925 500.2202136801462 C 4916.666666666667 500.3448388590102, 4908.333333333333 501.1376708609089, 4900 501.8449629549042 C 4891.666666666667 502.5522550488995, 4883.333333333333 503.46215033382174, 4875 504.90229611473455 C 4866.666666666667 506.34244189564737, 4858.333333333333 510.268160089707, 4850 512.2642418434125 C 4841.666666666667 514.260323597118, 4833.333333333333 515.0460621168952, 4825 517.3108217565657 C 4816.666666666667 519.5755813962362, 4808.333333333333 525.6680297596765, 4800 527.7046105839294 C 4791.666666666667 529.7411914081822, 4783.333333333333 530.4426034495978, 4775 532.0310914487259 C 4766.666666666667 533.6195794478541, 4758.333333333333 534.9875251864087, 4750 537.334680085123 C 4741.666666666667 539.681834983837, 4733.333333333333 545.1385793648049, 4725 547.8080514921704 C 4716.666666666667 550.477523619536, 4708.333333333333 554.2907383831539, 4700 554.2907383831539 C 4691.666666666667 554.2907383831539, 4683.333333333333 554.2351407497981, 4675 554.2351407497981 C 4666.666666666667 554.2351407497981, 4658.333333333333 565.1566584275251, 4650 565.1566584275251 C 4641.666666666667 565.1566584275251, 4633.333333333333 561.5035002307363, 4625 561.5035002307363 C 4616.666666666667 561.5035002307363, 4608.333333333333 576.9635770674633, 4600 577.9576752917558 C 4591.666666666667 578.9517735160483, 4583.333333333333 579.597423594516, 4575 579.597423594516 C 4566.666666666667 579.597423594516, 4558.333333333333 578.7168072902339, 4550 578.2057967966971 C 4541.666666666667 577.6947863031603, 4533.333333333333 576.4993738621854, 4525 576.4993738621854 C 4516.666666666667 576.4993738621854, 4508.333333333333 591.6609483827968, 4500 591.6609483827968 C 4491.666666666667 591.6609483827968, 4483.333333333333 572.1333540168416, 4475 572.1333540168416 C 4466.666666666667 572.1333540168416, 4458.333333333333 583.3673599132622, 4450 583.3673599132622 C 4441.666666666667 583.3673599132622, 4433.333333333333 572.5046897481134, 4425 572.5046897481134 C 4416.666666666667 572.5046897481134, 4408.333333333333 587.5777371544975, 4400 587.5777371544975 C 4391.666666666667 587.5777371544975, 4383.333333333333 576.95196796305, 4375 576.95196796305 C 4366.666666666667 576.95196796305, 4358.333333333333 582.1812339408589, 4350 582.1812339408589 C 4341.666666666667 582.1812339408589, 4333.333333333333 577.9022157123469, 4325 577.9022157123469 C 4316.666666666667 577.9022157123469, 4308.333333333333 578.1944073177499, 4300 578.6461564336674 C 4291.666666666667 579.097905549585, 4283.333333333333 586.2476987844725, 4275 586.2476987844725 C 4266.666666666667 586.2476987844725, 4258.333333333333 579.6903321724192, 4250 578.0922351821386 C 4241.666666666667 576.4941381918579, 4233.333333333333 575.0940646417079, 4225 574.6971756597359 C 4216.666666666667 574.3002866777639, 4208.333333333333 574.2688204280892, 4200 573.9752505353931 C 4191.666666666667 573.6816806426971, 4183.333333333333 572.8462137068283, 4175 572.8462137068283 C 4166.666666666667 572.8462137068283, 4158.333333333333 576.9074318221271, 4150 578.878082053268 C 4141.666666666667 580.8487322844089, 4133.333333333333 582.6410597040882, 4125 584.6747902379346 C 4116.666666666667 586.7085207717811, 4108.333333333333 590.055797154529, 4100 591.1142257650913 C 4091.6666666666665 592.1726543756536, 4083.3333333333335 593.2213900682154, 4075 593.2213900682154 C 4066.6666666666665 593.2213900682154, 4058.3333333333335 588.2752260310556, 4050 588.2752260310556 C 4041.6666666666665 588.2752260310556, 4033.3333333333335 589.9396808624555, 4025 591.4365989220004 C 4016.6666666666665 592.9335169815453, 4008.3333333333335 598.5223890101151, 4000 599.1860604888594 C 3991.6666666666665 599.8497319676037, 3983.3333333333335 599.9150335793834, 3975 600.3283016897878 C 3966.6666666666665 600.7415698001922, 3958.3333333333335 601.6838921132844, 3950 601.6838921132844 C 3941.6666666666665 601.6838921132844, 3933.3333333333335 580.3331033181574, 3925 580.3331033181574 C 3916.6666666666665 580.3331033181574, 3908.3333333333335 604.8535407142119, 3900 604.8535407142119 C 3891.6666666666665 604.8535407142119, 3883.3333333333335 593.9249421774641, 3875 593.7001203850612 C 3866.6666666666665 593.4752985926582, 3858.3333333333335 593.5780138851758, 3850 593.3523732813926 C 3841.6666666666665 593.1267326776095, 3833.3333333333335 580.677778174528, 3825 580.677778174528 C 3816.6666666666665 580.677778174528, 3808.3333333333335 595.0682276827816, 3800 595.0682276827816 C 3791.6666666666665 595.0682276827816, 3783.3333333333335 593.7214460548976, 3775 593.7214460548976 C 3766.6666666666665 593.7214460548976, 3758.3333333333335 597.1992830707787, 3750 597.1992830707787 C 3741.6666666666665 597.1992830707787, 3733.3333333333335 580.0056644440085, 3725 576.3623256746658 C 3716.6666666666665 572.7189869053232, 3708.3333333333335 568.9544075062441, 3700 568.9544075062441 C 3691.6666666666665 568.9544075062441, 3683.3333333333335 584.2144612167087, 3675 584.2144612167087 C 3666.6666666666665 584.2144612167087, 3658.3333333333335 583.0511942168372, 3650 581.8497720279623 C 3641.6666666666665 580.6483498390875, 3633.3333333333335 574.2745514133286, 3625 574.2745514133286 C 3616.6666666666665 574.2745514133286, 3608.3333333333335 576.2811180637179, 3600 576.2811180637179 C 3591.6666666666665 576.2811180637179, 3583.3333333333335 562.6360104468956, 3575 562.6360104468956 C 3566.6666666666665 562.6360104468956, 3558.3333333333335 563.8347153847584, 3550 563.8347153847584 C 3541.6666666666665 563.8347153847584, 3533.3333333333335 560.8682204173238, 3525 560.8682204173238 C 3516.6666666666665 560.8682204173238, 3508.3333333333335 573.1716072193024, 3500 574.7003034306658 C 3491.6666666666665 576.2289996420293, 3483.3333333333335 576.2618741033373, 3475 577.4490228154807 C 3466.6666666666665 578.6361715276242, 3458.3333333333335 582.505558602501, 3450 582.505558602501 C 3441.6666666666665 582.505558602501, 3433.3333333333335 571.1847626803283, 3425 571.1847626803283 C 3416.6666666666665 571.1847626803283, 3408.3333333333335 581.0462678388709, 3400 581.0462678388709 C 3391.6666666666665 581.0462678388709, 3383.3333333333335 578.509324653833, 3375 578.509324653833 C 3366.6666666666665 578.509324653833, 3358.3333333333335 578.8211652563419, 3350 578.8211652563419 C 3341.6666666666665 578.8211652563419, 3333.3333333333335 572.6088318813382, 3325 572.6088318813382 C 3316.6666666666665 572.6088318813382, 3308.3333333333335 588.8152235663496, 3300 588.8152235663496 C 3291.6666666666665 588.8152235663496, 3283.3333333333335 579.9675040888103, 3275 578.4152425238967 C 3266.6666666666665 576.8629809589833, 3258.3333333333335 577.1225485377729, 3250 575.4151842718211 C 3241.6666666666665 573.7078200058692, 3233.3333333333335 557.9138609522831, 3225 557.9138609522831 C 3216.6666666666665 557.9138609522831, 3208.3333333333335 559.667084891782, 3200 560.5650566064558 C 3191.6666666666665 561.4630283211296, 3183.3333333333335 562.2181301386637, 3175 563.3030904900779 C 3166.6666666666665 564.3880508414923, 3158.3333333333335 565.0870508182319, 3150 567.3153486948978 C 3141.6666666666665 569.5436465715637, 3133.3333333333335 587.3370441474603, 3125 587.3370441474603 C 3116.6666666666665 587.3370441474603, 3108.3333333333335 576.6442005752086, 3100 576.6442005752086 C 3091.6666666666665 576.6442005752086, 3083.3333333333335 576.984554058725, 3075 576.984554058725 C 3066.6666666666665 576.984554058725, 3058.3333333333335 573.3255607434387, 3050 571.2823219639315 C 3041.6666666666665 569.2390831844244, 3033.3333333333335 564.6558317080161, 3025 564.6558317080161 C 3016.6666666666665 564.6558317080161, 3008.3333333333335 575.6867048415068, 3000 575.6867048415068 C 2991.6666666666665 575.6867048415068, 2983.3333333333335 551.9737103665733, 2975 551.9737103665733 C 2966.6666666666665 551.9737103665733, 2958.3333333333335 573.6470348456305, 2950 573.6470348456305 C 2941.6666666666665 573.6470348456305, 2933.3333333333335 562.4464398972096, 2925 562.4464398972096 C 2916.6666666666665 562.4464398972096, 2908.3333333333335 574.6009406122923, 2900 574.6009406122923 C 2891.6666666666665 574.6009406122923, 2883.3333333333335 558.0957188685102, 2875 558.0957188685102 C 2866.6666666666665 558.0957188685102, 2858.3333333333335 582.4740973230184, 2850 582.4740973230184 C 2841.6666666666665 582.4740973230184, 2833.3333333333335 565.5919752021803, 2825 565.5919752021803 C 2816.6666666666665 565.5919752021803, 2808.3333333333335 587.2419055872954, 2800 587.2419055872954 C 2791.6666666666665 587.2419055872954, 2783.3333333333335 569.2043288152984, 2775 567.1723906732707 C 2766.6666666666665 565.140452531243, 2758.3333333333335 564.7444693640621, 2750 563.5787219468338 C 2741.6666666666665 562.4129745296054, 2733.3333333333335 560.1728666982744, 2725 560.1728666982744 C 2716.6666666666665 560.1728666982744, 2708.3333333333335 573.7760826019133, 2700 573.7760826019133 C 2691.6666666666665 573.7760826019133, 2683.3333333333335 570.8061911640896, 2675 570.8061911640896 C 2666.6666666666665 570.8061911640896, 2658.3333333333335 578.2188792566761, 2650 578.2188792566761 C 2641.6666666666665 578.2188792566761, 2633.3333333333335 571.4055942679455, 2625 571.3341259940289 C 2616.6666666666665 571.2626577201122, 2608.3333333333335 571.2971963294215, 2600 571.2252279327414 C 2591.6666666666665 571.1532595360613, 2583.3333333333335 558.7913329162072, 2575 558.7913329162072 C 2566.6666666666665 558.7913329162072, 2558.3333333333335 566.6270756149268, 2550 566.6270756149268 C 2541.6666666666665 566.6270756149268, 2533.3333333333335 558.5935502557004, 2525 558.5935502557004 C 2516.6666666666665 558.5935502557004, 2508.3333333333335 578.4631355751444, 2500 578.4631355751444 C 2491.6666666666665 578.4631355751444, 2483.3333333333335 569.6723520926846, 2475 569.6723520926846 C 2466.6666666666665 569.6723520926846, 2458.3333333333335 586.9568939741147, 2450 586.9568939741147 C 2441.6666666666665 586.9568939741147, 2433.3333333333335 580.6673895567774, 2425 580.6673895567774 C 2416.6666666666665 580.6673895567774, 2408.3333333333335 583.4123850991914, 2400 583.4123850991914 C 2391.6666666666665 583.4123850991914, 2383.3333333333335 554.9620970462521, 2375 554.9620970462521 C 2366.6666666666665 554.9620970462521, 2358.3333333333335 569.1535022450029, 2350 569.1535022450029 C 2341.6666666666665 569.1535022450029, 2333.3333333333335 567.5786011931747, 2325 567.5786011931747 C 2316.6666666666665 567.5786011931747, 2308.3333333333335 575.3365954064132, 2300 575.3365954064132 C 2291.6666666666665 575.3365954064132, 2283.3333333333335 570.3768078204475, 2275 570.3768078204475 C 2266.6666666666665 570.3768078204475, 2258.3333333333335 576.4549013916934, 2250 576.4549013916934 C 2241.6666666666665 576.4549013916934, 2233.3333333333335 572.7509964505331, 2225 571.7804090712739 C 2216.6666666666665 570.8098216920147, 2208.3333333333335 569.6659863143384, 2200 569.6659863143384 C 2191.6666666666665 569.6659863143384, 2183.3333333333335 571.7786228096594, 2175 571.7786228096594 C 2166.6666666666665 571.7786228096594, 2158.3333333333335 566.8288954464048, 2150 564.8009000161228 C 2141.6666666666665 562.7729045858409, 2133.3333333333335 559.4076980418022, 2125 559.4076980418022 C 2116.6666666666665 559.4076980418022, 2108.3333333333335 561.9480238464891, 2100 562.017871160698 C 2091.6666666666665 562.0877184749068, 2083.3333333333335 562.0709455292468, 2075 562.1270234471785 C 2066.6666666666665 562.1831013651104, 2058.3333333333335 562.4937659769754, 2050 562.4937659769754 C 2041.6666666666667 562.4937659769754, 2033.3333333333333 561.9558423476476, 2025 561.9558423476476 C 2016.6666666666667 561.9558423476476, 2008.3333333333333 575.1061378033767, 2000 575.1061378033767 C 1991.6666666666667 575.1061378033767, 1983.3333333333333 561.9313297906147, 1975 561.9313297906147 C 1966.6666666666667 561.9313297906147, 1958.3333333333333 581.2083301079722, 1950 581.2083301079722 C 1941.6666666666667 581.2083301079722, 1933.3333333333333 560.6386197854379, 1925 560.6386197854379 C 1916.6666666666667 560.6386197854379, 1908.3333333333333 578.6817655070336, 1900 578.6817655070336 C 1891.6666666666667 578.6817655070336, 1883.3333333333333 570.9345452424009, 1875 570.9345452424009 C 1866.6666666666667 570.9345452424009, 1858.3333333333333 579.2626315610564, 1850 579.2626315610564 C 1841.6666666666667 579.2626315610564, 1833.3333333333333 573.2242490015831, 1825 572.7414630118383 C 1816.6666666666667 572.2586770220933, 1808.3333333333333 572.4353516342813, 1800 571.9268172088978 C 1791.6666666666667 571.4182827835142, 1783.3333333333333 559.9406437494314, 1775 559.9406437494314 C 1766.6666666666667 559.9406437494314, 1758.3333333333333 573.7617069956048, 1750 573.7617069956048 C 1741.6666666666667 573.7617069956048, 1733.3333333333333 573.3004563530573, 1725 572.9208449108695 C 1716.6666666666667 572.5412334686818, 1708.3333333333333 571.1569463621806, 1700 571.1569463621806 C 1691.6666666666667 571.1569463621806, 1683.3333333333333 572.6569549386767, 1675 573.7051723770521 C 1666.6666666666667 574.7533898154277, 1658.3333333333333 577.8107600442302, 1650 577.8107600442302 C 1641.6666666666667 577.8107600442302, 1633.3333333333333 576.8737578947874, 1625 576.0942823687051 C 1616.6666666666667 575.3148068426227, 1608.3333333333333 574.3025559368123, 1600 572.4270813620693 C 1591.6666666666667 570.5516067873264, 1583.3333333333333 560.3465842751789, 1575 560.3465842751789 C 1566.6666666666667 560.3465842751789, 1558.3333333333333 567.3371140600091, 1550 568.7953756495741 C 1541.6666666666667 570.2536372391392, 1533.3333333333333 570.1399465316713, 1525 571.7469240078034 C 1516.6666666666667 573.3539014839355, 1508.3333333333333 584.8957733564059, 1500 584.8957733564059 C 1491.6666666666667 584.8957733564059, 1483.3333333333333 571.2126486398322, 1475 571.2126486398322 C 1466.6666666666667 571.2126486398322, 1458.3333333333333 573.9099553450475, 1450 573.9099553450475 C 1441.6666666666667 573.9099553450475, 1433.3333333333333 538.673972592479, 1425 538.673972592479 C 1416.6666666666667 538.673972592479, 1408.3333333333333 556.9167510491809, 1400 556.9167510491809 C 1391.6666666666667 556.9167510491809, 1383.3333333333333 547.3281240123371, 1375 547.3281240123371 C 1366.6666666666667 547.3281240123371, 1358.3333333333333 572.7992002931269, 1350 572.7992002931269 C 1341.6666666666667 572.7992002931269, 1333.3333333333333 566.5501234242413, 1325 566.5501234242413 C 1316.6666666666667 566.5501234242413, 1308.3333333333333 578.7844964240809, 1300 578.7844964240809 C 1291.6666666666667 578.7844964240809, 1283.3333333333333 571.8910604017143, 1275 571.8910604017143 C 1266.6666666666667 571.8910604017143, 1258.3333333333333 576.035240848491, 1250 576.035240848491 C 1241.6666666666667 576.035240848491, 1233.3333333333333 555.8411096289685, 1225 555.8411096289685 C 1216.6666666666667 555.8411096289685, 1208.3333333333333 562.5215244817581, 1200 562.5215244817581 C 1191.6666666666667 562.5215244817581, 1183.3333333333333 546.9823557095938, 1175 546.9823557095938 C 1166.6666666666667 546.9823557095938, 1158.3333333333333 549.9920386165679, 1150 549.9920386165679 C 1141.6666666666667 549.9920386165679, 1133.3333333333333 545.6281829526463, 1125 545.6281829526463 C 1116.6666666666667 545.6281829526463, 1108.3333333333333 547.0520620052441, 1100 547.0520620052441 C 1091.6666666666667 547.0520620052441, 1083.3333333333333 539.2168176503415, 1075 539.2168176503415 C 1066.6666666666667 539.2168176503415, 1058.3333333333333 551.2884437509949, 1050 553.466273967708 C 1041.6666666666667 555.6441041844209, 1033.3333333333333 555.3127905587669, 1025 557.7046942304453 C 1016.6666666666666 560.0965979021237, 1008.3333333333334 581.0795225789373, 1000 581.0795225789373 C 991.6666666666666 581.0795225789373, 983.3333333333334 563.2677535212132, 975 563.2677535212132 C 966.6666666666666 563.2677535212132, 958.3333333333334 577.3062908162528, 950 577.3062908162528 C 941.6666666666666 577.3062908162528, 933.3333333333334 559.8170354830243, 925 559.8170354830243 C 916.6666666666666 559.8170354830243, 908.3333333333334 580.163256852653, 900 580.163256852653 C 891.6666666666666 580.163256852653, 883.3333333333334 563.4470134996521, 875 563.4470134996521 C 866.6666666666666 563.4470134996521, 858.3333333333334 574.6438670887648, 850 574.6438670887648 C 841.6666666666666 574.6438670887648, 833.3333333333334 543.1529548547603, 825 543.1529548547603 C 816.6666666666666 543.1529548547603, 808.3333333333334 560.9689303934863, 800 567.4601712052779 C 791.6666666666666 573.9514120170695, 783.3333333333334 583.7038378857153, 775 583.7038378857153 C 766.6666666666666 583.7038378857153, 758.3333333333334 581.3928214504472, 750 579.9598776490243 C 741.6666666666666 578.5269338476013, 733.3333333333334 576.4130742790128, 725 574.9130904652798 C 716.6666666666666 573.4131066515467, 708.3333333333334 572.7717053031452, 700 570.8530568233662 C 691.6666666666666 568.9344083435872, 683.3333333333334 560.968062029553, 675 560.968062029553 C 666.6666666666666 560.968062029553, 658.3333333333334 564.8872985722915, 650 564.8872985722915 C 641.6666666666666 564.8872985722915, 633.3333333333334 558.124437597635, 625 558.124437597635 C 616.6666666666666 558.124437597635, 608.3333333333334 560.6087654958076, 600 561.4589020480752 C 591.6666666666666 562.3090386003428, 583.3333333333334 562.6147265384128, 575 563.5237826108885 C 566.6666666666666 564.4328386833641, 558.3333333333334 566.9170783218499, 550 567.5386871571518 C 541.6666666666666 568.1602959924538, 533.3333333333334 568.0128125500357, 525 568.7531432097614 C 516.6666666666666 569.4934738694872, 508.3333333333333 581.7258996391489, 500 581.7258996391489 C 491.6666666666667 581.7258996391489, 483.3333333333333 549.6453401518734, 475 549.6453401518734 C 466.6666666666667 549.6453401518734, 458.3333333333333 565.2793818682372, 450 565.2793818682372 C 441.6666666666667 565.2793818682372, 433.3333333333333 535.7067931188956, 425 535.7067931188956 C 416.6666666666667 535.7067931188956, 408.3333333333333 560.1045434630628, 400 560.1045434630628 C 391.6666666666667 560.1045434630628, 383.3333333333333 553.1784779474026, 375 553.1784779474026 C 366.6666666666667 553.1784779474026, 358.3333333333333 556.213103191893, 350 556.213103191893 C 341.6666666666667 556.213103191893, 333.3333333333333 546.5102961759073, 325 546.5102961759073 C 316.6666666666667 546.5102961759073, 308.3333333333333 548.7973982635715, 300 548.7973982635715 C 291.6666666666667 548.7973982635715, 283.3333333333333 531.8623174166619, 275 529.9515045840269 C 266.6666666666667 528.0406917513918, 258.3333333333333 528.2252679756423, 250 526.5711814452392 C 241.66666666666666 524.9170949148361, 233.33333333333334 519.4665598805786, 225 517.2439099279388 C 216.66666666666666 515.0212599752988, 208.33333333333334 513.9975108227475, 200 512.0552981287533 C 191.66666666666666 510.1130854347591, 183.33333333333334 506.4453341858974, 175 505.41172160593413 C 166.66666666666666 504.37810902597084, 158.33333333333334 504.1092878191283, 150 503.3893364557142 C 141.66666666666666 502.6693850923001, 133.33333333333334 501.49145663123005, 125 501.07196191401505 C 116.66666666666667 500.65246719680005, 108.33333333333333 500.3165756571713, 100 500.208173321264 C 91.66666666666667 500.09977098535666, 83.33333333333333 500.0129057305879, 75 500.0078623705579 C 66.66666666666667 500.00281901052796, 58.333333333333336 500.0000006866375, 50 500.00000041199115 C 41.666666666666664 500.0000001373448, 33.333333333333336 500, 25 500 C 8.333333333333334 500, 16.666666666666664 500, 25 500 Z" fill="white" stroke="transparent" stroke-width="0" />
  </g>
</svg>