<svg 
  baseProfile="tiny"
  preserveAspectRatio="keep"
  version="1.2"
  viewBox="-0.000000 -0.000000 5025.000000 1000.000000"
  height="100%" width="100%"
  xmlns="http://www.w3.org/2000/svg"
  xmlns:ev="http://www.w3.org/2001/xml-events"
  xmlns:xlink="http://www.w3.org/1999/xlink"
>
  <g style="transform-origin: center center;">
    <path d="M 0 500 C 8.333333333333334 500, 16.666666666666664 500, 25 500 C 33.333333333333336 500, 41.666666666666664 499.99999988680366, 50 499.9999996604443 C 58.333333333333336 499.99999943408494, 66.66666666666667 499.9975335519841, 75 499.9930725147657 C 83.33333333333333 499.9886114775473, 91.66666666666667 499.90012853919495, 100 499.7963179354291 C 108.33333333333333 499.69250733166325, 116.66666666666667 499.3824475430511, 125 499.04975829402747 C 133.33333333333334 498.7170690450038, 141.66666666666666 498.15369795429217, 150 497.54462792765923 C 158.33333333333334 496.9355579010263, 166.66666666666666 496.2539488128699, 175 495.2199689027957 C 183.33333333333334 494.1859889927215, 191.66666666666666 491.99079254009746, 200 490.55985954391974 C 208.33333333333334 489.128926547742, 216.66666666666666 488.04235769851994, 225 486.5806984991457 C 233.33333333333334 485.11903929977143, 241.66666666666666 483.0040256420532, 250 481.69772903383773 C 258.3333333333333 480.39143242562227, 266.6666666666667 480.15046756653135, 275 478.42499795105647 C 283.3333333333333 476.6995283355816, 291.6666666666667 466.0507581080484, 300 466.0507581080484 C 308.3333333333333 466.0507581080484, 316.6666666666667 471.0118532291333, 325 471.0118532291333 C 333.3333333333333 471.0118532291333, 341.6666666666667 465.9082031217691, 350 462.3037150310114 C 358.3333333333333 458.6992269402537, 366.6666666666667 452.891880344209, 375 448.04234585748117 C 383.3333333333333 443.1928113707533, 391.6666666666667 434.2688788856812, 400 433.1947000758575 C 408.3333333333333 432.1205212660338, 416.6666666666667 432.06497098760155, 425 431.38729169764457 C 433.3333333333333 430.7096124076876, 441.6666666666667 429.75147341353204, 450 429.06425545632 C 458.3333333333333 428.3770374991079, 466.6666666666667 427.21111268739355, 475 427.21111268739355 C 483.3333333333333 427.21111268739355, 491.6666666666667 436.48140188529896, 500 436.48140188529896 C 508.3333333333333 436.48140188529896, 516.6666666666666 421.66288953767827, 525 420.5349555065145 C 533.3333333333334 419.40702147535075, 541.6666666666666 419.78398670932097, 550 418.6422392751873 C 558.3333333333334 417.50049184105364, 566.6666666666666 403.9178612570148, 575 400.6433808460127 C 583.3333333333334 397.3689004350106, 591.6666666666666 393.8882472724591, 600 393.8882472724591 C 608.3333333333334 393.8882472724591, 616.6666666666666 397.1619213681605, 625 398.8535808152851 C 633.3333333333334 400.5452402624097, 641.6666666666666 401.61957953407534, 650 404.04315566545074 C 658.3333333333334 406.46673179682614, 666.6666666666666 416.1817898786517, 675 416.1817898786517 C 683.3333333333334 416.1817898786517, 691.6666666666666 411.36358744781506, 700 410.6350421290046 C 708.3333333333334 409.90649681019414, 716.6666666666666 410.10714282491, 725 409.2740898974894 C 733.3333333333334 408.44103697006875, 741.6666666666666 395.67564548437485, 750 394.00449764370035 C 758.3333333333334 392.33334980302584, 766.6666666666666 391.00543726727403, 775 391.00543726727403 C 783.3333333333334 391.00543726727403, 791.6666666666666 400.96990888685906, 800 400.96990888685906 C 808.3333333333334 400.96990888685906, 816.6666666666666 389.7787802557553, 825 389.7787802557553 C 833.3333333333334 389.7787802557553, 841.6666666666666 414.4531786201363, 850 414.4531786201363 C 858.3333333333334 414.4531786201363, 866.6666666666666 411.75110657105523, 875 410.0856510485578 C 883.3333333333334 408.42019552606035, 891.6666666666666 406.9707323181872, 900 404.2489068802219 C 908.3333333333334 401.52708144225664, 916.6666666666666 395.6659711862585, 925 390.6629225827391 C 933.3333333333334 385.6598739792197, 941.6666666666666 373.8975694311428, 950 373.8975694311428 C 958.3333333333334 373.8975694311428, 966.6666666666666 374.75169379733416, 975 375.4197268276007 C 983.3333333333334 376.08775985786724, 991.6666666666666 378.3523438301023, 1000 378.3523438301023 C 1008.3333333333334 378.3523438301023, 1016.6666666666666 378.0526217798854, 1025 377.5639048138382 C 1033.3333333333333 377.07518784779097, 1041.6666666666667 367.1240918607668, 1050 367.1240918607668 C 1058.3333333333333 367.1240918607668, 1066.6666666666667 378.55144259258174, 1075 378.55144259258174 C 1083.3333333333333 378.55144259258174, 1091.6666666666667 371.44557002410477, 1100 369.7435610277654 C 1108.3333333333333 368.041552031426, 1116.6666666666667 366.1484987114615, 1125 366.1484987114615 C 1133.3333333333333 366.1484987114615, 1141.6666666666667 379.15394138341173, 1150 379.15394138341173 C 1158.3333333333333 379.15394138341173, 1166.6666666666667 373.8487812729524, 1175 373.8487812729524 C 1183.3333333333333 373.8487812729524, 1191.6666666666667 381.4943383411315, 1200 381.4943383411315 C 1208.3333333333333 381.4943383411315, 1216.6666666666667 372.8736625574537, 1225 372.8736625574537 C 1233.3333333333333 372.8736625574537, 1241.6666666666667 383.3936154854145, 1250 383.3936154854145 C 1258.3333333333333 383.3936154854145, 1266.6666666666667 365.76253155319966, 1275 365.76253155319966 C 1283.3333333333333 365.76253155319966, 1291.6666666666667 376.10883910643497, 1300 376.10883910643497 C 1308.3333333333333 376.10883910643497, 1316.6666666666667 374.65032475374187, 1325 374.65032475374187 C 1333.3333333333333 374.65032475374187, 1341.6666666666667 380.36649677080413, 1350 380.36649677080413 C 1358.3333333333333 380.36649677080413, 1366.6666666666667 370.3057414875907, 1375 370.3057414875907 C 1383.3333333333333 370.3057414875907, 1391.6666666666667 387.21318712962784, 1400 387.21318712962784 C 1408.3333333333333 387.21318712962784, 1416.6666666666667 375.10227435107487, 1425 375.10227435107487 C 1433.3333333333333 375.10227435107487, 1441.6666666666667 381.4896632059006, 1450 384.1833247371071 C 1458.3333333333333 386.8769862683136, 1466.6666666666667 391.46266037459486, 1475 391.46266037459486 C 1483.3333333333333 391.46266037459486, 1491.6666666666667 386.50064173554136, 1500 382.3793617779524 C 1508.3333333333333 378.25808182036343, 1516.6666666666667 363.02572640045355, 1525 363.02572640045355 C 1533.3333333333333 363.02572640045355, 1541.6666666666667 384.4657722391951, 1550 384.4657722391951 C 1558.3333333333333 384.4657722391951, 1566.6666666666667 378.5337279968482, 1575 378.5337279968482 C 1583.3333333333333 378.5337279968482, 1591.6666666666667 381.27895863732624, 1600 382.277483840656 C 1608.3333333333333 383.2760090439857, 1616.6666666666667 383.75059524799224, 1625 384.77411413584747 C 1633.3333333333333 385.7976330237027, 1641.6666666666667 388.76123075970025, 1650 388.76123075970025 C 1658.3333333333333 388.76123075970025, 1666.6666666666667 373.1944676180213, 1675 373.1944676180213 C 1683.3333333333333 373.1944676180213, 1691.6666666666667 385.7894247671139, 1700 386.5728251202176 C 1708.3333333333333 387.3562254733213, 1716.6666666666667 387.04022107825244, 1725 387.8610807901691 C 1733.3333333333333 388.6819405020858, 1741.6666666666667 415.7059869597378, 1750 415.7059869597378 C 1758.3333333333333 415.7059869597378, 1766.6666666666667 411.5442580027495, 1775 408.12613971979437 C 1783.3333333333333 404.70802143683926, 1791.6666666666667 397.79557583522006, 1800 392.28086719125656 C 1808.3333333333333 386.76615854729306, 1816.6666666666667 378.6603220478599, 1825 374.973397883124 C 1833.3333333333333 371.2864737183881, 1841.6666666666667 366.8460042205453, 1850 366.8460042205453 C 1858.3333333333333 366.8460042205453, 1866.6666666666667 375.52289705902314, 1875 375.52289705902314 C 1883.3333333333333 375.52289705902314, 1891.6666666666667 372.2383068050125, 1900 372.2383068050125 C 1908.3333333333333 372.2383068050125, 1916.6666666666667 387.4927386194437, 1925 387.4927386194437 C 1933.3333333333333 387.4927386194437, 1941.6666666666667 385.8998151531336, 1950 384.8495569494802 C 1958.3333333333333 383.7992987458268, 1966.6666666666667 382.90805833929176, 1975 380.9498970641682 C 1983.3333333333333 378.9917357890447, 1991.6666666666667 369.04836905228603, 2000 369.04836905228603 C 2008.3333333333333 369.04836905228603, 2016.6666666666667 378.24925592046924, 2025 378.24925592046924 C 2033.3333333333333 378.24925592046924, 2041.6666666666667 368.65690666552547, 2050 368.65690666552547 C 2058.3333333333335 368.65690666552547, 2066.6666666666665 377.73013685893045, 2075 381.6065748114575 C 2083.3333333333335 385.48301276398456, 2091.6666666666665 390.331925794581, 2100 392.15986972841336 C 2108.3333333333335 393.9878136622457, 2116.6666666666665 395.86424088721276, 2125 395.86424088721276 C 2133.3333333333335 395.86424088721276, 2141.6666666666665 383.5651309075261, 2150 383.5651309075261 C 2158.3333333333335 383.5651309075261, 2166.6666666666665 394.1639242998902, 2175 394.1639242998902 C 2183.3333333333335 394.1639242998902, 2191.6666666666665 388.1300443199549, 2200 386.1451763208437 C 2208.3333333333335 384.1603083217325, 2216.6666666666665 381.4095836996524, 2225 381.4095836996524 C 2233.3333333333335 381.4095836996524, 2241.6666666666665 402.067299287634, 2250 402.067299287634 C 2258.3333333333335 402.067299287634, 2266.6666666666665 392.6703182359245, 2275 387.7587783153107 C 2283.3333333333335 382.84723839469683, 2291.6666666666665 372.5719029195562, 2300 372.5719029195562 C 2308.3333333333335 372.5719029195562, 2316.6666666666665 379.99068787587566, 2325 379.99068787587566 C 2333.3333333333335 379.99068787587566, 2341.6666666666665 376.57171734734607, 2350 375.4848192774102 C 2358.3333333333335 374.3979212074744, 2366.6666666666665 372.9301070831063, 2375 372.9301070831063 C 2383.3333333333335 372.9301070831063, 2391.6666666666665 382.3177648383475, 2400 382.3177648383475 C 2408.3333333333335 382.3177648383475, 2416.6666666666665 381.9740125718847, 2425 381.4253317396836 C 2433.3333333333335 380.8766509074825, 2441.6666666666665 373.9478054056719, 2450 370.8436889934466 C 2458.3333333333335 367.73957258122135, 2466.6666666666665 362.52873812173937, 2475 362.52873812173937 C 2483.3333333333335 362.52873812173937, 2491.6666666666665 366.64381789041414, 2500 366.64381789041414 C 2508.3333333333335 366.64381789041414, 2516.6666666666665 358.9981554838158, 2525 358.9981554838158 C 2533.3333333333335 358.9981554838158, 2541.6666666666665 362.3547451668409, 2550 365.6695373759816 C 2558.3333333333335 368.9843295851222, 2566.6666666666665 385.1913667314659, 2575 385.1913667314659 C 2583.3333333333335 385.1913667314659, 2591.6666666666665 383.5657916677317, 2600 381.8679645543708 C 2608.3333333333335 380.17013744100996, 2616.6666666666665 370.9702395989805, 2625 370.9702395989805 C 2633.3333333333335 370.9702395989805, 2641.6666666666665 376.5680101762876, 2650 376.5680101762876 C 2658.3333333333335 376.5680101762876, 2666.6666666666665 366.95223899561313, 2675 366.95223899561313 C 2683.3333333333335 366.95223899561313, 2691.6666666666665 372.6510628524293, 2700 375.1241002573327 C 2708.3333333333335 377.59713766223615, 2716.6666666666665 381.91744513250825, 2725 381.91744513250825 C 2733.3333333333335 381.91744513250825, 2741.6666666666665 381.32809731298977, 2750 380.5268229521047 C 2758.3333333333335 379.7255485912196, 2766.6666666666665 371.66985094227203, 2775 371.66985094227203 C 2783.3333333333335 371.66985094227203, 2791.6666666666665 380.99905739918745, 2800 380.99905739918745 C 2808.3333333333335 380.99905739918745, 2816.6666666666665 361.87711270685804, 2825 361.87711270685804 C 2833.3333333333335 361.87711270685804, 2841.6666666666665 367.6364687735914, 2850 370.1174477322314 C 2858.3333333333335 372.59842669087146, 2866.6666666666665 376.9036951511217, 2875 376.9036951511217 C 2883.3333333333335 376.9036951511217, 2891.6666666666665 364.44330407167735, 2900 364.44330407167735 C 2908.3333333333335 364.44330407167735, 2916.6666666666665 369.05476222477415, 2925 371.67633747728013 C 2933.3333333333335 374.2979127297861, 2941.6666666666665 380.2936507879225, 2950 380.2936507879225 C 2958.3333333333335 380.2936507879225, 2966.6666666666665 378.9332272864375, 2975 377.29350438236526 C 2983.3333333333335 375.653781478293, 2991.6666666666665 363.6426882130353, 3000 363.6426882130353 C 3008.3333333333335 363.6426882130353, 3016.6666666666665 372.22895019226496, 3025 372.6787884290869 C 3033.3333333333335 373.1286266659089, 3041.6666666666665 373.40799845968786, 3050 373.40799845968786 C 3058.3333333333335 373.40799845968786, 3066.6666666666665 370.42302111301217, 3075 370.42302111301217 C 3083.3333333333335 370.42302111301217, 3091.6666666666665 372.9792523929134, 3100 374.74735242668817 C 3108.3333333333335 376.51545246046294, 3116.6666666666665 381.6059243807689, 3125 381.6059243807689 C 3133.3333333333335 381.6059243807689, 3141.6666666666665 368.39741589551136, 3150 368.3448083017339 C 3158.3333333333335 368.29220070795645, 3166.6666666666665 368.2654245312402, 3175 368.2654245312402 C 3183.3333333333335 368.2654245312402, 3191.6666666666665 371.749125492346, 3200 372.6389044837149 C 3208.3333333333335 373.52868347508377, 3216.6666666666665 374.559769248689, 3225 374.559769248689 C 3233.3333333333335 374.559769248689, 3241.6666666666665 361.5740311845991, 3250 361.5740311845991 C 3258.3333333333335 361.5740311845991, 3266.6666666666665 382.8768939191686, 3275 382.8768939191686 C 3283.3333333333335 382.8768939191686, 3291.6666666666665 369.97499392221357, 3300 369.97499392221357 C 3308.3333333333335 369.97499392221357, 3316.6666666666665 378.7494535368593, 3325 378.7494535368593 C 3333.3333333333335 378.7494535368593, 3341.6666666666665 368.22120046147836, 3350 368.22120046147836 C 3358.3333333333335 368.22120046147836, 3366.6666666666665 374.8904647022432, 3375 374.8904647022432 C 3383.3333333333335 374.8904647022432, 3391.6666666666665 362.1489593537592, 3400 362.1489593537592 C 3408.3333333333335 362.1489593537592, 3416.6666666666665 378.0798658429153, 3425 378.5643507208363 C 3433.3333333333335 379.04883559875725, 3441.6666666666665 378.8305436464573, 3450 379.32474136248595 C 3458.3333333333335 379.81893907851463, 3466.6666666666665 408.84568939726614, 3475 408.84568939726614 C 3483.3333333333335 408.84568939726614, 3491.6666666666665 393.10051571935116, 3500 388.47219266875925 C 3508.3333333333335 383.84386961816733, 3516.6666666666665 381.58511247338697, 3525 377.94114071323116 C 3533.3333333333335 374.29716895307536, 3541.6666666666665 366.5766368535097, 3550 366.5766368535097 C 3558.3333333333335 366.5766368535097, 3566.6666666666665 377.0407951166836, 3575 377.0407951166836 C 3583.3333333333335 377.0407951166836, 3591.6666666666665 365.1404826765689, 3600 365.1404826765689 C 3608.3333333333335 365.1404826765689, 3616.6666666666665 372.60070248676067, 3625 375.42476193927854 C 3633.3333333333335 378.2488213917964, 3641.6666666666665 382.627763745061, 3650 382.627763745061 C 3658.3333333333335 382.627763745061, 3666.6666666666665 379.3881070645778, 3675 376.6642685564669 C 3683.3333333333335 373.94043004835595, 3691.6666666666665 363.68833464072543, 3700 363.68833464072543 C 3708.3333333333335 363.68833464072543, 3716.6666666666665 371.61675134950883, 3725 373.4196606864685 C 3733.3333333333335 375.22257002342815, 3741.6666666666665 377.1648136746816, 3750 377.1648136746816 C 3758.3333333333335 377.1648136746816, 3766.6666666666665 371.78569067307194, 3775 371.78569067307194 C 3783.3333333333335 371.78569067307194, 3791.6666666666665 383.9580761052267, 3800 384.2020947776459 C 3808.3333333333335 384.4461134500651, 3816.6666666666665 384.57924082126664, 3825 384.57924082126664 C 3833.3333333333335 384.57924082126664, 3841.6666666666665 378.1903762779428, 3850 374.3296690233794 C 3858.3333333333335 370.468961768816, 3866.6666666666665 361.01672768217054, 3875 361.01672768217054 C 3883.3333333333335 361.01672768217054, 3891.6666666666665 376.49098591982045, 3900 376.49098591982045 C 3908.3333333333335 376.49098591982045, 3916.6666666666665 368.63393189522674, 3925 368.63393189522674 C 3933.3333333333335 368.63393189522674, 3941.6666666666665 371.8536007128367, 3950 374.3244810163786 C 3958.3333333333335 376.7953613199206, 3966.6666666666665 380.0303799263546, 3975 384.95379958877714 C 3983.3333333333335 389.8772192511997, 3991.6666666666665 408.4757049573478, 4000 409.15056869822155 C 4008.3333333333335 409.8254324390953, 4016.6666666666665 410.2070638211045, 4025 410.2070638211045 C 4033.3333333333335 410.2070638211045, 4041.6666666666665 397.8566939877445, 4050 397.8566939877445 C 4058.3333333333335 397.8566939877445, 4066.6666666666665 407.61192630782574, 4075 407.61192630782574 C 4083.3333333333335 407.61192630782574, 4091.6666666666665 403.65649230332036, 4100 403.65649230332036 C 4108.333333333333 403.65649230332036, 4116.666666666667 412.27632250762474, 4125 412.27632250762474 C 4133.333333333333 412.27632250762474, 4141.666666666667 390.59811238956127, 4150 390.59811238956127 C 4158.333333333333 390.59811238956127, 4166.666666666667 418.1649488110255, 4175 418.1649488110255 C 4183.333333333333 418.1649488110255, 4191.666666666667 406.2484143030162, 4200 406.2484143030162 C 4208.333333333333 406.2484143030162, 4216.666666666667 427.03894923667775, 4225 427.03894923667775 C 4233.333333333333 427.03894923667775, 4241.666666666667 423.2997830626088, 4250 420.78320936677443 C 4258.333333333333 418.26663567094005, 4266.666666666667 414.2700292998915, 4275 411.26459015868045 C 4283.333333333333 408.2591510174694, 4291.666666666667 404.00108912654633, 4300 402.700218452863 C 4308.333333333333 401.39934777917966, 4316.666666666667 400.1731439074175, 4325 400.1731439074175 C 4333.333333333333 400.1731439074175, 4341.666666666667 409.2796067546175, 4350 409.2796067546175 C 4358.333333333333 409.2796067546175, 4366.666666666667 393.9066405478974, 4375 393.9066405478974 C 4383.333333333333 393.9066405478974, 4391.666666666667 415.3251569180558, 4400 415.3251569180558 C 4408.333333333333 415.3251569180558, 4416.666666666667 410.98903650628733, 4425 407.4936911211647 C 4433.333333333333 403.9983457360421, 4441.666666666667 391.6307024877921, 4450 391.6307024877921 C 4458.333333333333 391.6307024877921, 4466.666666666667 415.19005789817624, 4475 415.19005789817624 C 4483.333333333333 415.19005789817624, 4491.666666666667 390.9763531348009, 4500 390.9763531348009 C 4508.333333333333 390.9763531348009, 4516.666666666667 407.04085590367794, 4525 407.04085590367794 C 4533.333333333333 407.04085590367794, 4541.666666666667 401.34638543008043, 4550 401.34638543008043 C 4558.333333333333 401.34638543008043, 4566.666666666667 417.4451291521984, 4575 419.35462644106354 C 4583.333333333333 421.2641237299287, 4591.666666666667 422.7605989613239, 4600 422.7605989613239 C 4608.333333333333 422.7605989613239, 4616.666666666667 405.57877383808113, 4625 405.57877383808113 C 4633.333333333333 405.57877383808113, 4641.666666666667 419.17295322346376, 4650 422.5838493648012 C 4658.333333333333 425.99474550613866, 4666.666666666667 426.2235930781982, 4675 429.90202465556433 C 4683.333333333333 433.5804562329305, 4691.666666666667 452.32828645529804, 4700 452.32828645529804 C 4708.333333333333 452.32828645529804, 4716.666666666667 449.02346188126165, 4725 449.02346188126165 C 4733.333333333333 449.02346188126165, 4741.666666666667 462.56291925286536, 4750 466.8578789114603 C 4758.333333333333 471.1528385700553, 4766.666666666667 476.9436741206066, 4775 476.9436741206066 C 4783.333333333333 476.9436741206066, 4791.666666666667 476.48164469314304, 4800 476.48164469314304 C 4808.333333333333 476.48164469314304, 4816.666666666667 485.8539654088268, 4825 488.6786218278658 C 4833.333333333333 491.5032782469048, 4841.666666666667 494.0237543975013, 4850 495.17088982870615 C 4858.333333333333 496.318025259911, 4866.666666666667 496.82734913940186, 4875 497.51210624736586 C 4883.333333333333 498.19686335532987, 4891.666666666667 499.05951356461196, 4900 499.342090335979 C 4908.333333333333 499.624667107346, 4916.666666666667 499.83617273693227, 4925 499.89372681260187 C 4933.333333333333 499.95128088827147, 4941.666666666667 499.9935558948933, 4950 499.996075495964 C 4958.333333333333 499.99859509703475, 4966.666666666667 499.9999996827033, 4975 499.99999980961826 C 4983.333333333333 499.99999993653324, 4991.666666666667 500, 5000 500 C 5008.333333333333 500, 5016.666666666667 500, 5025 500 c 0 0, 0 0, 0 0C 5016.666666666667 500, 5008.333333333333 500, 5000 500 C 4991.666666666667 500, 4983.333333333333 500.00000006346676, 4975 500.00000019038174 C 4966.666666666667 500.0000003172967, 4958.333333333333 500.00140490296525, 4950 500.003924504036 C 4941.666666666667 500.0064441051067, 4933.333333333333 500.04871911172853, 4925 500.10627318739813 C 4916.666666666667 500.16382726306773, 4908.333333333333 500.375332892654, 4900 500.657909664021 C 4891.666666666667 500.94048643538804, 4883.333333333333 501.80313664467013, 4875 502.48789375263414 C 4866.666666666667 503.17265086059814, 4858.333333333333 503.681974740089, 4850 504.82911017129385 C 4841.666666666667 505.9762456024987, 4833.333333333333 508.4967217530952, 4825 511.3213781721342 C 4816.666666666667 514.1460345911732, 4808.333333333333 523.518355306857, 4800 523.518355306857 C 4791.666666666667 523.518355306857, 4783.333333333333 523.0563258793934, 4775 523.0563258793934 C 4766.666666666667 523.0563258793934, 4758.333333333333 528.8471614299447, 4750 533.1421210885396 C 4741.666666666667 537.4370807471346, 4733.333333333333 550.9765381187383, 4725 550.9765381187383 C 4716.666666666667 550.9765381187383, 4708.333333333333 547.671713544702, 4700 547.671713544702 C 4691.666666666667 547.671713544702, 4683.333333333333 566.4195437670695, 4675 570.0979753444357 C 4666.666666666667 573.7764069218018, 4658.333333333333 574.0052544938613, 4650 577.4161506351988 C 4641.666666666667 580.8270467765362, 4633.333333333333 594.4212261619189, 4625 594.4212261619189 C 4616.666666666667 594.4212261619189, 4608.333333333333 577.2394010386761, 4600 577.2394010386761 C 4591.666666666667 577.2394010386761, 4583.333333333333 578.7358762700712, 4575 580.6453735589364 C 4566.666666666667 582.5548708478016, 4558.333333333333 598.6536145699196, 4550 598.6536145699196 C 4541.666666666667 598.6536145699196, 4533.333333333333 592.959144096322, 4525 592.959144096322 C 4516.666666666667 592.959144096322, 4508.333333333333 609.0236468651991, 4500 609.0236468651991 C 4491.666666666667 609.0236468651991, 4483.333333333333 584.8099421018237, 4475 584.8099421018237 C 4466.666666666667 584.8099421018237, 4458.333333333333 608.3692975122078, 4450 608.3692975122078 C 4441.666666666667 608.3692975122078, 4433.333333333333 596.0016542639579, 4425 592.5063088788353 C 4416.666666666667 589.0109634937127, 4408.333333333333 584.6748430819441, 4400 584.6748430819441 C 4391.666666666667 584.6748430819441, 4383.333333333333 606.0933594521026, 4375 606.0933594521026 C 4366.666666666667 606.0933594521026, 4358.333333333333 590.7203932453825, 4350 590.7203932453825 C 4341.666666666667 590.7203932453825, 4333.333333333333 599.8268560925825, 4325 599.8268560925825 C 4316.666666666667 599.8268560925825, 4308.333333333333 598.6006522208204, 4300 597.299781547137 C 4291.666666666667 595.9989108734537, 4283.333333333333 591.7408489825307, 4275 588.7354098413196 C 4266.666666666667 585.7299707001084, 4258.333333333333 581.7333643290599, 4250 579.2167906332256 C 4241.666666666667 576.7002169373911, 4233.333333333333 572.9610507633222, 4225 572.9610507633222 C 4216.666666666667 572.9610507633222, 4208.333333333333 593.7515856969837, 4200 593.7515856969837 C 4191.666666666667 593.7515856969837, 4183.333333333333 581.8350511889745, 4175 581.8350511889745 C 4166.666666666667 581.8350511889745, 4158.333333333333 609.4018876104387, 4150 609.4018876104387 C 4141.666666666667 609.4018876104387, 4133.333333333333 587.7236774923753, 4125 587.7236774923753 C 4116.666666666667 587.7236774923753, 4108.333333333333 596.3435076966796, 4100 596.3435076966796 C 4091.6666666666665 596.3435076966796, 4083.3333333333335 592.3880736921742, 4075 592.3880736921742 C 4066.6666666666665 592.3880736921742, 4058.3333333333335 602.1433060122555, 4050 602.1433060122555 C 4041.6666666666665 602.1433060122555, 4033.3333333333335 589.7929361788955, 4025 589.7929361788955 C 4016.6666666666665 589.7929361788955, 4008.3333333333335 590.1745675609047, 4000 590.8494313017784 C 3991.6666666666665 591.5242950426523, 3983.3333333333335 610.1227807488003, 3975 615.0462004112228 C 3966.6666666666665 619.9696200736454, 3958.3333333333335 623.2046386800794, 3950 625.6755189836214 C 3941.6666666666665 628.1463992871634, 3933.3333333333335 631.3660681047733, 3925 631.3660681047733 C 3916.6666666666665 631.3660681047733, 3908.3333333333335 623.5090140801796, 3900 623.5090140801796 C 3891.6666666666665 623.5090140801796, 3883.3333333333335 638.9832723178295, 3875 638.9832723178295 C 3866.6666666666665 638.9832723178295, 3858.3333333333335 629.5310382311841, 3850 625.6703309766206 C 3841.6666666666665 621.8096237220573, 3833.3333333333335 615.4207591787333, 3825 615.4207591787333 C 3816.6666666666665 615.4207591787333, 3808.3333333333335 615.5538865499349, 3800 615.7979052223541 C 3791.6666666666665 616.0419238947733, 3783.3333333333335 628.2143093269281, 3775 628.2143093269281 C 3766.6666666666665 628.2143093269281, 3758.3333333333335 622.8351863253183, 3750 622.8351863253183 C 3741.6666666666665 622.8351863253183, 3733.3333333333335 624.7774299765719, 3725 626.5803393135316 C 3716.6666666666665 628.3832486504912, 3708.3333333333335 636.3116653592746, 3700 636.3116653592746 C 3691.6666666666665 636.3116653592746, 3683.3333333333335 626.0595699516441, 3675 623.3357314435332 C 3666.6666666666665 620.6118929354222, 3658.3333333333335 617.372236254939, 3650 617.372236254939 C 3641.6666666666665 617.372236254939, 3633.3333333333335 621.7511786082036, 3625 624.5752380607214 C 3616.6666666666665 627.3992975132394, 3608.3333333333335 634.8595173234311, 3600 634.8595173234311 C 3591.6666666666665 634.8595173234311, 3583.3333333333335 622.9592048833164, 3575 622.9592048833164 C 3566.6666666666665 622.9592048833164, 3558.3333333333335 633.4233631464904, 3550 633.4233631464904 C 3541.6666666666665 633.4233631464904, 3533.3333333333335 625.7028310469246, 3525 622.0588592867689 C 3516.6666666666665 618.414887526613, 3508.3333333333335 616.1561303818327, 3500 611.5278073312408 C 3491.6666666666665 606.8994842806488, 3483.3333333333335 591.1543106027339, 3475 591.1543106027339 C 3466.6666666666665 591.1543106027339, 3458.3333333333335 620.1810609214854, 3450 620.675258637514 C 3441.6666666666665 621.1694563535427, 3433.3333333333335 620.9511644012427, 3425 621.4356492791637 C 3416.6666666666665 621.9201341570847, 3408.3333333333335 637.8510406462408, 3400 637.8510406462408 C 3391.6666666666665 637.8510406462408, 3383.3333333333335 625.1095352977568, 3375 625.1095352977568 C 3366.6666666666665 625.1095352977568, 3358.3333333333335 631.7787995385216, 3350 631.7787995385216 C 3341.6666666666665 631.7787995385216, 3333.3333333333335 621.2505464631407, 3325 621.2505464631407 C 3316.6666666666665 621.2505464631407, 3308.3333333333335 630.0250060777864, 3300 630.0250060777864 C 3291.6666666666665 630.0250060777864, 3283.3333333333335 617.1231060808313, 3275 617.1231060808313 C 3266.6666666666665 617.1231060808313, 3258.3333333333335 638.4259688154009, 3250 638.4259688154009 C 3241.6666666666665 638.4259688154009, 3233.3333333333335 625.440230751311, 3225 625.440230751311 C 3216.6666666666665 625.440230751311, 3208.3333333333335 626.4713165249162, 3200 627.3610955162851 C 3191.6666666666665 628.250874507654, 3183.3333333333335 631.7345754687598, 3175 631.7345754687598 C 3166.6666666666665 631.7345754687598, 3158.3333333333335 631.7077992920435, 3150 631.6551916982661 C 3141.6666666666665 631.6025841044886, 3133.3333333333335 618.3940756192311, 3125 618.3940756192311 C 3116.6666666666665 618.3940756192311, 3108.3333333333335 623.4845475395371, 3100 625.2526475733118 C 3091.6666666666665 627.0207476070866, 3083.3333333333335 629.5769788869878, 3075 629.5769788869878 C 3066.6666666666665 629.5769788869878, 3058.3333333333335 626.5920015403121, 3050 626.5920015403121 C 3041.6666666666665 626.5920015403121, 3033.3333333333335 626.8713733340911, 3025 627.3212115709131 C 3016.6666666666665 627.771049807735, 3008.3333333333335 636.3573117869647, 3000 636.3573117869647 C 2991.6666666666665 636.3573117869647, 2983.3333333333335 624.346218521707, 2975 622.7064956176348 C 2966.6666666666665 621.0667727135625, 2958.3333333333335 619.7063492120775, 2950 619.7063492120775 C 2941.6666666666665 619.7063492120775, 2933.3333333333335 625.702087270214, 2925 628.3236625227198 C 2916.6666666666665 630.9452377752259, 2908.3333333333335 635.5566959283226, 2900 635.5566959283226 C 2891.6666666666665 635.5566959283226, 2883.3333333333335 623.0963048488783, 2875 623.0963048488783 C 2866.6666666666665 623.0963048488783, 2858.3333333333335 627.4015733091285, 2850 629.8825522677686 C 2841.6666666666665 632.3635312264087, 2833.3333333333335 638.122887293142, 2825 638.122887293142 C 2816.6666666666665 638.122887293142, 2808.3333333333335 619.0009426008126, 2800 619.0009426008126 C 2791.6666666666665 619.0009426008126, 2783.3333333333335 628.330149057728, 2775 628.330149057728 C 2766.6666666666665 628.330149057728, 2758.3333333333335 620.2744514087804, 2750 619.4731770478953 C 2741.6666666666665 618.6719026870103, 2733.3333333333335 618.0825548674918, 2725 618.0825548674918 C 2716.6666666666665 618.0825548674918, 2708.3333333333335 622.4028623377638, 2700 624.8758997426673 C 2691.6666666666665 627.3489371475707, 2683.3333333333335 633.0477610043869, 2675 633.0477610043869 C 2666.6666666666665 633.0477610043869, 2658.3333333333335 623.4319898237125, 2650 623.4319898237125 C 2641.6666666666665 623.4319898237125, 2633.3333333333335 629.0297604010195, 2625 629.0297604010195 C 2616.6666666666665 629.0297604010195, 2608.3333333333335 619.82986255899, 2600 618.1320354456292 C 2591.6666666666665 616.4342083322683, 2583.3333333333335 614.8086332685341, 2575 614.8086332685341 C 2566.6666666666665 614.8086332685341, 2558.3333333333335 631.0156704148778, 2550 634.3304626240184 C 2541.6666666666665 637.645254833159, 2533.3333333333335 641.0018445161842, 2525 641.0018445161842 C 2516.6666666666665 641.0018445161842, 2508.3333333333335 633.3561821095859, 2500 633.3561821095859 C 2491.6666666666665 633.3561821095859, 2483.3333333333335 637.4712618782606, 2475 637.4712618782606 C 2466.6666666666665 637.4712618782606, 2458.3333333333335 632.2604274187786, 2450 629.1563110065533 C 2441.6666666666665 626.0521945943281, 2433.3333333333335 619.1233490925175, 2425 618.5746682603165 C 2416.6666666666665 618.0259874281153, 2408.3333333333335 617.6822351616524, 2400 617.6822351616524 C 2391.6666666666665 617.6822351616524, 2383.3333333333335 627.0698929168937, 2375 627.0698929168937 C 2366.6666666666665 627.0698929168937, 2358.3333333333335 625.6020787925256, 2350 624.5151807225898 C 2341.6666666666665 623.4282826526539, 2333.3333333333335 620.0093121241243, 2325 620.0093121241243 C 2316.6666666666665 620.0093121241243, 2308.3333333333335 627.4280970804439, 2300 627.4280970804439 C 2291.6666666666665 627.4280970804439, 2283.3333333333335 617.1527616053031, 2275 612.2412216846893 C 2266.6666666666665 607.3296817640755, 2258.3333333333335 597.932700712366, 2250 597.932700712366 C 2241.6666666666665 597.932700712366, 2233.3333333333335 618.5904163003477, 2225 618.5904163003477 C 2216.6666666666665 618.5904163003477, 2208.3333333333335 615.8396916782675, 2200 613.8548236791563 C 2191.6666666666665 611.8699556800451, 2183.3333333333335 605.8360757001099, 2175 605.8360757001099 C 2166.6666666666665 605.8360757001099, 2158.3333333333335 616.434869092474, 2150 616.434869092474 C 2141.6666666666665 616.434869092474, 2133.3333333333335 604.1357591127872, 2125 604.1357591127872 C 2116.6666666666665 604.1357591127872, 2108.3333333333335 606.0121863377543, 2100 607.8401302715866 C 2091.6666666666665 609.668074205419, 2083.3333333333335 614.5169872360154, 2075 618.3934251885426 C 2066.6666666666665 622.2698631410695, 2058.3333333333335 631.3430933344746, 2050 631.3430933344746 C 2041.6666666666667 631.3430933344746, 2033.3333333333333 621.7507440795307, 2025 621.7507440795307 C 2016.6666666666667 621.7507440795307, 2008.3333333333333 630.951630947714, 2000 630.951630947714 C 1991.6666666666667 630.951630947714, 1983.3333333333333 621.0082642109553, 1975 619.0501029358318 C 1966.6666666666667 617.0919416607082, 1958.3333333333333 616.2007012541733, 1950 615.1504430505198 C 1941.6666666666667 614.1001848468663, 1933.3333333333333 612.5072613805563, 1925 612.5072613805563 C 1916.6666666666667 612.5072613805563, 1908.3333333333333 627.7616931949875, 1900 627.7616931949875 C 1891.6666666666667 627.7616931949875, 1883.3333333333333 624.4771029409769, 1875 624.4771029409769 C 1866.6666666666667 624.4771029409769, 1858.3333333333333 633.1539957794547, 1850 633.1539957794547 C 1841.6666666666667 633.1539957794547, 1833.3333333333333 628.7135262816118, 1825 625.026602116876 C 1816.6666666666667 621.3396779521402, 1808.3333333333333 613.2338414527069, 1800 607.7191328087434 C 1791.6666666666667 602.20442416478, 1783.3333333333333 595.2919785631607, 1775 591.8738602802057 C 1766.6666666666667 588.4557419972505, 1758.3333333333333 584.2940130402621, 1750 584.2940130402621 C 1741.6666666666667 584.2940130402621, 1733.3333333333333 611.3180594979142, 1725 612.1389192098309 C 1716.6666666666667 612.9597789217476, 1708.3333333333333 612.6437745266787, 1700 613.4271748797823 C 1691.6666666666667 614.2105752328861, 1683.3333333333333 626.8055323819788, 1675 626.8055323819788 C 1666.6666666666667 626.8055323819788, 1658.3333333333333 611.2387692402997, 1650 611.2387692402997 C 1641.6666666666667 611.2387692402997, 1633.3333333333333 614.2023669762973, 1625 615.2258858641526 C 1616.6666666666667 616.2494047520078, 1608.3333333333333 616.7239909560143, 1600 617.722516159344 C 1591.6666666666667 618.7210413626738, 1583.3333333333333 621.4662720031517, 1575 621.4662720031517 C 1566.6666666666667 621.4662720031517, 1558.3333333333333 615.5342277608049, 1550 615.5342277608049 C 1541.6666666666667 615.5342277608049, 1533.3333333333333 636.9742735995464, 1525 636.9742735995464 C 1516.6666666666667 636.9742735995464, 1508.3333333333333 621.7419181796365, 1500 617.6206382220475 C 1491.6666666666667 613.4993582644586, 1483.3333333333333 608.5373396254051, 1475 608.5373396254051 C 1466.6666666666667 608.5373396254051, 1458.3333333333333 613.1230137316863, 1450 615.8166752628929 C 1441.6666666666667 618.5103367940994, 1433.3333333333333 624.8977256489252, 1425 624.8977256489252 C 1416.6666666666667 624.8977256489252, 1408.3333333333333 612.7868128703722, 1400 612.7868128703722 C 1391.6666666666667 612.7868128703722, 1383.3333333333333 629.6942585124093, 1375 629.6942585124093 C 1366.6666666666667 629.6942585124093, 1358.3333333333333 619.6335032291959, 1350 619.6335032291959 C 1341.6666666666667 619.6335032291959, 1333.3333333333333 625.3496752462581, 1325 625.3496752462581 C 1316.6666666666667 625.3496752462581, 1308.3333333333333 623.891160893565, 1300 623.891160893565 C 1291.6666666666667 623.891160893565, 1283.3333333333333 634.2374684468003, 1275 634.2374684468003 C 1266.6666666666667 634.2374684468003, 1258.3333333333333 616.6063845145854, 1250 616.6063845145854 C 1241.6666666666667 616.6063845145854, 1233.3333333333333 627.1263374425463, 1225 627.1263374425463 C 1216.6666666666667 627.1263374425463, 1208.3333333333333 618.5056616588686, 1200 618.5056616588686 C 1191.6666666666667 618.5056616588686, 1183.3333333333333 626.1512187270475, 1175 626.1512187270475 C 1166.6666666666667 626.1512187270475, 1158.3333333333333 620.8460586165883, 1150 620.8460586165883 C 1141.6666666666667 620.8460586165883, 1133.3333333333333 633.8515012885384, 1125 633.8515012885384 C 1116.6666666666667 633.8515012885384, 1108.3333333333333 631.958447968574, 1100 630.2564389722346 C 1091.6666666666667 628.5544299758952, 1083.3333333333333 621.4485574074183, 1075 621.4485574074183 C 1066.6666666666667 621.4485574074183, 1058.3333333333333 632.8759081392332, 1050 632.8759081392332 C 1041.6666666666667 632.8759081392332, 1033.3333333333333 622.924812152209, 1025 622.4360951861618 C 1016.6666666666666 621.9473782201146, 1008.3333333333334 621.6476561698977, 1000 621.6476561698977 C 991.6666666666666 621.6476561698977, 983.3333333333334 623.9122401421328, 975 624.5802731723993 C 966.6666666666666 625.2483062026658, 958.3333333333334 626.1024305688572, 950 626.1024305688572 C 941.6666666666666 626.1024305688572, 933.3333333333334 614.3401260207803, 925 609.3370774172608 C 916.6666666666666 604.3340288137415, 908.3333333333334 598.4729185577434, 900 595.751093119778 C 891.6666666666666 593.0292676818128, 883.3333333333334 591.5798044739397, 875 589.9143489514422 C 866.6666666666666 588.2488934289447, 858.3333333333334 585.5468213798637, 850 585.5468213798637 C 841.6666666666666 585.5468213798637, 833.3333333333334 610.2212197442448, 825 610.2212197442448 C 816.6666666666666 610.2212197442448, 808.3333333333334 599.030091113141, 800 599.030091113141 C 791.6666666666666 599.030091113141, 783.3333333333334 608.994562732726, 775 608.994562732726 C 766.6666666666666 608.994562732726, 758.3333333333334 607.6666501969742, 750 605.9955023562997 C 741.6666666666666 604.3243545156251, 733.3333333333334 591.5589630299312, 725 590.7259101025106 C 716.6666666666666 589.8928571750901, 708.3333333333334 590.0935031898059, 700 589.3649578709953 C 691.6666666666666 588.636412552185, 683.3333333333334 583.8182101213483, 675 583.8182101213483 C 666.6666666666666 583.8182101213483, 658.3333333333334 593.5332682031739, 650 595.9568443345493 C 641.6666666666666 598.3804204659247, 633.3333333333334 599.4547597375903, 625 601.1464191847149 C 616.6666666666666 602.8380786318395, 608.3333333333334 606.1117527275409, 600 606.1117527275409 C 591.6666666666666 606.1117527275409, 583.3333333333334 602.6310995649894, 575 599.3566191539874 C 566.6666666666666 596.0821387429852, 558.3333333333334 582.4995081589464, 550 581.3577607248127 C 541.6666666666666 580.216013290679, 533.3333333333334 580.5929785246492, 525 579.4650444934855 C 516.6666666666666 578.3371104623218, 508.3333333333333 563.518598114701, 500 563.518598114701 C 491.6666666666667 563.518598114701, 483.3333333333333 572.7888873126064, 475 572.7888873126064 C 466.6666666666667 572.7888873126064, 458.3333333333333 571.6229625008921, 450 570.93574454368 C 441.6666666666667 570.248526586468, 433.3333333333333 569.2903875923124, 425 568.6127083023555 C 416.6666666666667 567.9350290123984, 408.3333333333333 567.8794787339662, 400 566.8052999241424 C 391.6666666666667 565.7311211143187, 383.3333333333333 556.8071886292466, 375 551.9576541425188 C 366.6666666666667 547.1081196557909, 358.3333333333333 541.3007730597462, 350 537.6962849689886 C 341.6666666666667 534.091796878231, 333.3333333333333 528.9881467708667, 325 528.9881467708667 C 316.6666666666667 528.9881467708667, 308.3333333333333 533.9492418919516, 300 533.9492418919516 C 291.6666666666667 533.9492418919516, 283.3333333333333 523.3004716644184, 275 521.5750020489436 C 266.6666666666667 519.8495324334687, 258.3333333333333 519.6085675743777, 250 518.3022709661623 C 241.66666666666666 516.9959743579468, 233.33333333333334 514.8809607002286, 225 513.4193015008543 C 216.66666666666666 511.95764230148006, 208.33333333333334 510.871073452258, 200 509.44014045608026 C 191.66666666666666 508.00920745990254, 183.33333333333334 505.8140110072785, 175 504.7800310972043 C 166.66666666666666 503.7460511871301, 158.33333333333334 503.0644420989737, 150 502.45537207234077 C 141.66666666666666 501.84630204570783, 133.33333333333334 501.2829309549962, 125 500.95024170597253 C 116.66666666666667 500.6175524569489, 108.33333333333333 500.30749266833675, 100 500.2036820645709 C 91.66666666666667 500.09987146080505, 83.33333333333333 500.0113885224527, 75 500.0069274852343 C 66.66666666666667 500.0024664480159, 58.333333333333336 500.00000056591506, 50 500.0000003395557 C 41.666666666666664 500.00000011319634, 33.333333333333336 500, 25 500 C 8.333333333333334 500, 16.666666666666664 500, 25 500 Z" fill="white" stroke="transparent" stroke-width="0" />
  </g>
</svg>