<svg 
  baseProfile="tiny"
  preserveAspectRatio="keep"
  version="1.2"
  viewBox="-0.000000 -0.000000 5025.000000 1000.000000"
  height="100%" width="100%"
  xmlns="http://www.w3.org/2000/svg"
  xmlns:ev="http://www.w3.org/2001/xml-events"
  xmlns:xlink="http://www.w3.org/1999/xlink"
>
  <g style="transform-origin: center center;">
    <path d="M 0 500 C 8.333333333333334 500, 16.666666666666664 500, 25 500 C 33.333333333333336 500, 41.666666666666664 499.9999999257748, 50 499.99999977734416 C 58.333333333333336 499.99999962891354, 66.66666666666667 499.9982181245599, 75 499.99502148681034 C 83.33333333333333 499.9918248490608, 91.66666666666667 499.9344282836732, 100 499.86481814778966 C 108.33333333333333 499.79520801190614, 116.66666666666667 499.62886069768746, 125 499.33762965278765 C 133.33333333333334 499.04639860788785, 141.66666666666666 497.5701830462284, 150 496.7884203280306 C 158.33333333333334 496.0066576098328, 166.66666666666666 495.7926304902078, 175 494.61684493632225 C 183.33333333333334 493.4410593824367, 191.66666666666666 487.55922168142587, 200 485.22731794671296 C 208.33333333333334 482.89541421200005, 216.66666666666666 481.44899959037633, 225 479.65280310685876 C 233.33333333333334 477.8566066233412, 241.66666666666666 475.2179245447037, 250 474.4381370981827 C 258.3333333333333 473.65834965166175, 266.6666666666667 473.38037229886123, 275 472.9302212764971 C 283.3333333333333 472.48007025413295, 291.6666666666667 472.41574804707756, 300 471.7074545282527 C 308.3333333333333 470.99916100942784, 316.6666666666667 467.63711657958055, 325 463.60450905601306 C 333.3333333333333 459.57190153244557, 341.6666666666667 446.30614709101616, 350 439.7422001302472 C 358.3333333333333 433.1782531694783, 366.6666666666667 422.9799367638141, 375 422.9799367638141 C 383.3333333333333 422.9799367638141, 391.6666666666667 429.1975981880383, 400 431.7779402012454 C 408.3333333333333 434.3582822144526, 416.6666666666667 436.26237533052273, 425 438.6887170809215 C 433.3333333333333 441.11505883132025, 441.6666666666667 446.37744466534656, 450 446.37744466534656 C 458.3333333333333 446.37744466534656, 466.6666666666667 432.7843429779818, 475 432.4570035554883 C 483.3333333333333 432.12966413299483, 491.6666666666667 432.2570161759579, 500 431.9480420638342 C 508.3333333333333 431.63906795171044, 516.6666666666666 429.2072882050559, 525 426.7638176561419 C 533.3333333333334 424.3203471072279, 541.6666666666666 414.2549190258957, 550 414.2549190258957 C 558.3333333333334 414.2549190258957, 566.6666666666666 426.4146065033159, 575 429.5455578688127 C 583.3333333333334 432.6765092343095, 591.6666666666666 433.5008209683482, 600 436.32391677258136 C 608.3333333333334 439.1470125768145, 616.6666666666666 444.96850808078307, 625 447.60817331999266 C 633.3333333333334 450.24783855920225, 641.6666666666666 453.7080315593288, 650 453.7080315593288 C 658.3333333333334 453.7080315593288, 666.6666666666666 447.11761029368756, 675 442.8159806653836 C 683.3333333333334 438.5143510370797, 691.6666666666666 428.8674206999353, 700 426.985669121889 C 708.3333333333334 425.10391754384267, 716.6666666666666 423.55054031757146, 725 423.55054031757146 C 733.3333333333334 423.55054031757146, 741.6666666666666 431.6762028144473, 750 434.1734956516994 C 758.3333333333334 436.6707884889515, 766.6666666666666 438.53692703075427, 775 439.95986359773406 C 783.3333333333334 441.38280016471384, 791.6666666666666 443.3417301411329, 800 443.3417301411329 C 808.3333333333334 443.3417301411329, 816.6666666666666 423.86826259333185, 825 423.86826259333185 C 833.3333333333334 423.86826259333185, 841.6666666666666 449.02080093260935, 850 449.02080093260935 C 858.3333333333334 449.02080093260935, 866.6666666666666 430.24521209594735, 875 429.9825622653972 C 883.3333333333334 429.719912434847, 891.6666666666666 429.7478782391094, 900 429.58026237994704 C 908.3333333333334 429.4126465207847, 916.6666666666666 428.90985955525286, 925 428.90985955525286 C 933.3333333333334 428.90985955525286, 941.6666666666666 429.38095220660875, 950 429.38095220660875 C 958.3333333333334 429.38095220660875, 966.6666666666666 416.4118447183067, 975 416.4118447183067 C 983.3333333333334 416.4118447183067, 991.6666666666666 445.99022537417324, 1000 445.99022537417324 C 1008.3333333333334 445.99022537417324, 1016.6666666666666 432.48054345738876, 1025 429.1454206627466 C 1033.3333333333333 425.8102978681044, 1041.6666666666667 422.02936082295184, 1050 422.02936082295184 C 1058.3333333333333 422.02936082295184, 1066.6666666666667 427.72016593352316, 1075 430.7479954813948 C 1083.3333333333333 433.77582502926646, 1091.6666666666667 437.7282423921135, 1100 440.2282083341442 C 1108.3333333333333 442.7281742761749, 1116.6666666666667 446.4321658231344, 1125 446.4321658231344 C 1133.3333333333333 446.4321658231344, 1141.6666666666667 430.28572957707195, 1150 426.28864171384686 C 1158.3333333333333 422.29155385062177, 1166.6666666666667 417.7521649775649, 1175 417.7521649775649 C 1183.3333333333333 417.7521649775649, 1191.6666666666667 440.7224022367575, 1200 440.7224022367575 C 1208.3333333333333 440.7224022367575, 1216.6666666666667 432.74076872303135, 1225 432.74076872303135 C 1233.3333333333333 432.74076872303135, 1241.6666666666667 433.7920630345743, 1250 433.7920630345743 C 1258.3333333333333 433.7920630345743, 1266.6666666666667 432.0719632464667, 1275 432.0719632464667 C 1283.3333333333333 432.0719632464667, 1291.6666666666667 438.374397898521, 1300 440.55068146204076 C 1308.3333333333333 442.7269650255605, 1316.6666666666667 443.66256391240984, 1325 445.8588111215934 C 1333.3333333333333 448.055058330777, 1341.6666666666667 453.5800801043677, 1350 454.54254575190174 C 1358.3333333333333 455.5050113994358, 1366.6666666666667 455.47009859275335, 1375 456.2741247296342 C 1383.3333333333333 457.07815086651505, 1391.6666666666667 460.2478527781775, 1400 460.2478527781775 C 1408.3333333333333 460.2478527781775, 1416.6666666666667 458.4633898682371, 1425 458.0052477685841 C 1433.3333333333333 457.5471056689312, 1441.6666666666667 457.04199723675134, 1450 457.01440572343677 C 1458.3333333333333 456.9868142101222, 1466.6666666666667 456.9996546405575, 1475 456.9712143589883 C 1483.3333333333333 456.9427740774191, 1491.6666666666667 453.50085126666244, 1500 453.50085126666244 C 1508.3333333333333 453.50085126666244, 1516.6666666666667 456.3746130530757, 1525 457.49705477696716 C 1533.3333333333333 458.61949650085865, 1541.6666666666667 460.4065204060958, 1550 460.4065204060958 C 1558.3333333333333 460.4065204060958, 1566.6666666666667 455.70243964730776, 1575 455.43926790872416 C 1583.3333333333333 455.17609617014057, 1591.6666666666667 455.21503873732996, 1600 455.0104296571867 C 1608.3333333333333 454.80582057704345, 1616.6666666666667 453.9309406414049, 1625 453.9309406414049 C 1633.3333333333333 453.9309406414049, 1641.6666666666667 463.26357964681694, 1650 464.9698276573435 C 1658.3333333333333 466.67607566787007, 1666.6666666666667 468.30169492965376, 1675 468.30169492965376 C 1683.3333333333333 468.30169492965376, 1691.6666666666667 467.51516315480586, 1700 467.3712879357199 C 1708.3333333333333 467.227412716634, 1716.6666666666667 467.15086428450184, 1725 467.0902980048109 C 1733.3333333333333 467.02973172512, 1741.6666666666667 467.0388490224843, 1750 466.95604059730533 C 1758.3333333333333 466.87323217212634, 1766.6666666666667 465.8966784960268, 1775 465.2958266588293 C 1783.3333333333333 464.6949748216318, 1791.6666666666667 464.27916992589036, 1800 463.3242328321545 C 1808.3333333333333 462.36929573841866, 1816.6666666666667 458.08650286835916, 1825 458.08650286835916 C 1833.3333333333333 458.08650286835916, 1841.6666666666667 464.22771230417055, 1850 464.22771230417055 C 1858.3333333333333 464.22771230417055, 1866.6666666666667 464.09075549055376, 1875 463.85630177430465 C 1883.3333333333333 463.62184805805555, 1891.6666666666667 458.9388553766537, 1900 457.2360198115412 C 1908.3333333333333 455.53318424642873, 1916.6666666666667 453.07720073606214, 1925 453.07720073606214 C 1933.3333333333333 453.07720073606214, 1941.6666666666667 453.2090070053941, 1950 453.2090070053941 C 1958.3333333333333 453.2090070053941, 1966.6666666666667 452.3050920278004, 1975 452.3050920278004 C 1983.3333333333333 452.3050920278004, 1991.6666666666667 455.13485684494054, 2000 455.13485684494054 C 2008.3333333333333 455.13485684494054, 2016.6666666666667 451.13462627910894, 2025 451.13462627910894 C 2033.3333333333333 451.13462627910894, 2041.6666666666667 458.3444631590594, 2050 458.3444631590594 C 2058.3333333333335 458.3444631590594, 2066.6666666666665 457.72629566606986, 2075 457.72629566606986 C 2083.3333333333335 457.72629566606986, 2091.6666666666665 459.850627636629, 2100 459.850627636629 C 2108.3333333333335 459.850627636629, 2116.6666666666665 457.69982697732405, 2125 456.2274707764767 C 2133.3333333333335 454.75511457562936, 2141.6666666666665 450.57093281566574, 2150 450.57093281566574 C 2158.3333333333335 450.57093281566574, 2166.6666666666665 454.0570705019469, 2175 454.0570705019469 C 2183.3333333333335 454.0570705019469, 2191.6666666666665 451.34286184405744, 2200 451.34286184405744 C 2208.3333333333335 451.34286184405744, 2216.6666666666665 459.99258430083495, 2225 460.5160515208072 C 2233.3333333333335 461.03951874077944, 2241.6666666666665 461.3747551122295, 2250 461.3747551122295 C 2258.3333333333335 461.3747551122295, 2266.6666666666665 458.9734823346509, 2275 457.2141099044139 C 2283.3333333333335 455.45473747417685, 2291.6666666666665 450.3073766260223, 2300 449.99783514434324 C 2308.3333333333335 449.6882936626642, 2316.6666666666665 449.5015935622079, 2325 449.5015935622079 C 2333.3333333333335 449.5015935622079, 2341.6666666666665 453.16601420204154, 2350 453.16601420204154 C 2358.3333333333335 453.16601420204154, 2366.6666666666665 450.86104223720076, 2375 450.38023837792844 C 2383.3333333333335 449.8994345186561, 2391.6666666666665 449.84945107205687, 2400 449.4070974252397 C 2408.3333333333335 448.9647437784226, 2416.6666666666665 447.3215457061998, 2425 447.3215457061998 C 2433.3333333333335 447.3215457061998, 2441.6666666666665 454.29500927819674, 2450 454.29500927819674 C 2458.3333333333335 454.29500927819674, 2466.6666666666665 453.28807145311475, 2475 453.28807145311475 C 2483.3333333333335 453.28807145311475, 2491.6666666666665 455.6950019303089, 2500 456.83151383609646 C 2508.3333333333335 457.96802574188405, 2516.6666666666665 459.13694720472876, 2525 460.1168950189871 C 2533.3333333333335 461.0968428332455, 2541.6666666666665 462.2555428378442, 2550 462.7769671749198 C 2558.3333333333335 463.29839151199536, 2566.6666666666665 463.50419291410884, 2575 463.8848536673919 C 2583.3333333333335 464.26551442067495, 2591.6666666666665 464.442710115239, 2600 465.063096960765 C 2608.3333333333335 465.683483806291, 2616.6666666666665 469.32768424912166, 2625 469.4902816795362 C 2633.3333333333335 469.6528791099508, 2641.6666666666665 469.7483975780651, 2650 469.7483975780651 C 2658.3333333333335 469.7483975780651, 2666.6666666666665 469.61429407811335, 2675 469.61429407811335 C 2683.3333333333335 469.61429407811335, 2691.6666666666665 471.17631348254787, 2700 471.9650625564255 C 2708.3333333333335 472.7538116303031, 2716.6666666666665 474.34699371347267, 2725 474.34699371347267 C 2733.3333333333335 474.34699371347267, 2741.6666666666665 460.6739028965783, 2750 458.94142322129136 C 2758.3333333333335 457.20894354600443, 2766.6666666666665 457.51198764981643, 2775 455.81538101851106 C 2783.3333333333335 454.1187743872057, 2791.6666666666665 442.12573323737024, 2800 442.12573323737024 C 2808.3333333333335 442.12573323737024, 2816.6666666666665 443.09906941088923, 2825 444.2513337989038 C 2833.3333333333335 445.4035981869183, 2841.6666666666665 453.50068912967083, 2850 453.50068912967083 C 2858.3333333333335 453.50068912967083, 2866.6666666666665 443.75723212584586, 2875 441.96304313961684 C 2883.3333333333335 440.1688541533878, 2891.6666666666665 438.45300429529505, 2900 438.45300429529505 C 2908.3333333333335 438.45300429529505, 2916.6666666666665 448.4946536096962, 2925 448.87758201487924 C 2933.3333333333335 449.2605104200623, 2941.6666666666665 449.1049371614216, 2950 449.48546910667835 C 2958.3333333333335 449.8660010519351, 2966.6666666666665 457.3273281347922, 2975 458.8407782087952 C 2983.3333333333335 460.3542282827982, 2991.6666666666665 461.5347934280356, 3000 461.8383488836788 C 3008.3333333333335 462.141904339322, 3016.6666666666665 462.0717969361782, 3025 462.3752355446075 C 3033.3333333333335 462.6786741530368, 3041.6666666666665 464.5739853595346, 3050 465.3652264235018 C 3058.3333333333335 466.15646748746894, 3066.6666666666665 466.4043700218283, 3075 467.3333079027231 C 3083.3333333333335 468.2622457836179, 3091.6666666666665 470.3866807061346, 3100 472.1052917034789 C 3108.3333333333335 473.82390270082317, 3116.6666666666665 476.64084896943746, 3125 477.7121277983055 C 3133.3333333333335 478.7834066271736, 3141.6666666666665 479.2404660030915, 3150 479.96460585971056 C 3158.3333333333335 480.6887457163296, 3166.6666666666665 482.06246255356416, 3175 482.06246255356416 C 3183.3333333333335 482.06246255356416, 3191.6666666666665 482.05981654930537, 3200 482.05476340769377 C 3208.3333333333335 482.0497102660822, 3216.6666666666665 481.8107481008333, 3225 481.5661456032764 C 3233.3333333333335 481.32154310571957, 3241.6666666666665 480.0932204063694, 3250 480.0932204063694 C 3258.3333333333335 480.0932204063694, 3266.6666666666665 480.22632021215816, 3275 480.41946797200427 C 3283.3333333333335 480.6126157318504, 3291.6666666666665 483.00724576124196, 3300 483.00724576124196 C 3308.3333333333335 483.00724576124196, 3316.6666666666665 482.5278057201202, 3325 481.6893610373459 C 3333.3333333333335 480.8509163545716, 3341.6666666666665 454.1648928793903, 3350 454.1648928793903 C 3358.3333333333335 454.1648928793903, 3366.6666666666665 455.59222364746626, 3375 455.9460086489618 C 3383.3333333333335 456.2997936504574, 3391.6666666666665 456.2574164505612, 3400 456.70190207648955 C 3408.3333333333335 457.1463877024179, 3416.6666666666665 462.35407175226595, 3425 462.35407175226595 C 3433.3333333333335 462.35407175226595, 3441.6666666666665 462.17696283627544, 3450 462.17696283627544 C 3458.3333333333335 462.17696283627544, 3466.6666666666665 463.75711632614133, 3475 463.75711632614133 C 3483.3333333333335 463.75711632614133, 3491.6666666666665 461.4077604564567, 3500 461.4077604564567 C 3508.3333333333335 461.4077604564567, 3516.6666666666665 467.58505510945076, 3525 467.58505510945076 C 3533.3333333333335 467.58505510945076, 3541.6666666666665 466.02276687969345, 3550 466.02276687969345 C 3558.3333333333335 466.02276687969345, 3566.6666666666665 467.4483396833252, 3575 468.9265095671037 C 3583.3333333333335 470.40467945088227, 3591.6666666666665 476.5712924510843, 3600 478.305171368663 C 3608.3333333333335 480.0390502862418, 3616.6666666666665 481.2029488370333, 3625 481.90398509584037 C 3633.3333333333335 482.6050213546474, 3641.6666666666665 482.9762788024666, 3650 483.38964001494287 C 3658.3333333333335 483.80300122741914, 3666.6666666666665 484.0027889083063, 3675 484.4538200482733 C 3683.3333333333335 484.90485118824034, 3691.6666666666665 486.311161656748, 3700 486.311161656748 C 3708.3333333333335 486.311161656748, 3716.6666666666665 485.79969629524095, 3725 485.79969629524095 C 3733.3333333333335 485.79969629524095, 3741.6666666666665 485.90301596779165, 3750 486.02921205107043 C 3758.3333333333335 486.1554081343492, 3766.6666666666665 487.1093767080051, 3775 487.1093767080051 C 3783.3333333333335 487.1093767080051, 3791.6666666666665 486.78948198665825, 3800 486.21951389334487 C 3808.3333333333335 485.6495458000315, 3816.6666666666665 468.2459018405911, 3825 464.4270356778161 C 3833.3333333333335 460.6081695150411, 3841.6666666666665 458.9782401945204, 3850 456.6560915970167 C 3858.3333333333335 454.333942999513, 3866.6666666666665 450.34319736188417, 3875 450.34319736188417 C 3883.3333333333335 450.34319736188417, 3891.6666666666665 454.2179958355119, 3900 454.2179958355119 C 3908.3333333333335 454.2179958355119, 3916.6666666666665 447.1895452003785, 3925 447.1895452003785 C 3933.3333333333335 447.1895452003785, 3941.6666666666665 448.84622821320517, 3950 450.381793137679 C 3958.3333333333335 451.9173580621528, 3966.6666666666665 458.65364755292927, 3975 458.65364755292927 C 3983.3333333333335 458.65364755292927, 3991.6666666666665 458.54222534358115, 4000 458.3544540123778 C 4008.3333333333335 458.16668268117445, 4016.6666666666665 453.54906274979516, 4025 453.54906274979516 C 4033.3333333333335 453.54906274979516, 4041.6666666666665 460.69341314665905, 4050 462.21942047934374 C 4058.3333333333335 463.7454278120284, 4066.6666666666665 464.1068157281289, 4075 465.32950758893634 C 4083.3333333333335 466.5521994497438, 4091.6666666666665 469.79956780587764, 4100 469.79956780587764 C 4108.333333333333 469.79956780587764, 4116.666666666667 462.9427078896449, 4125 462.9427078896449 C 4133.333333333333 462.9427078896449, 4141.666666666667 465.911849020374, 4150 466.15553966328974 C 4158.333333333333 466.3992303062055, 4166.666666666667 466.3538205417372, 4175 466.56800315125093 C 4183.333333333333 466.78218576076466, 4191.666666666667 467.64584865452287, 4200 468.0211710289796 C 4208.333333333333 468.39649340343635, 4216.666666666667 468.9402050006926, 4225 468.9402050006926 C 4233.333333333333 468.9402050006926, 4241.666666666667 463.2097494800301, 4250 463.2097494800301 C 4258.333333333333 463.2097494800301, 4266.666666666667 465.00571600537563, 4275 465.00571600537563 C 4283.333333333333 465.00571600537563, 4291.666666666667 464.9857305702578, 4300 464.95023060875 C 4308.333333333333 464.91473064724227, 4316.666666666667 464.3562998050085, 4325 463.6285332328995 C 4333.333333333333 462.90076666079045, 4341.666666666667 457.35665180862213, 4350 457.35665180862213 C 4358.333333333333 457.35665180862213, 4366.666666666667 458.6339816176779, 4375 459.55872239901163 C 4383.333333333333 460.4834631803454, 4391.666666666667 463.30678230057356, 4400 463.30678230057356 C 4408.333333333333 463.30678230057356, 4416.666666666667 461.9792551319166, 4425 460.28800977804895 C 4433.333333333333 458.5967644241813, 4441.666666666667 444.3964220543656, 4450 444.3964220543656 C 4458.333333333333 444.3964220543656, 4466.666666666667 447.373693081463, 4475 447.373693081463 C 4483.333333333333 447.373693081463, 4491.666666666667 447.0517082986204, 4500 446.7884090590454 C 4508.333333333333 446.52510981947046, 4516.666666666667 446.32525580130215, 4525 445.5739342696974 C 4533.333333333333 444.8226127380927, 4541.666666666667 431.5423180389038, 4550 429.93040237478857 C 4558.333333333333 428.31848671067337, 4566.666666666667 427.07050080959704, 4575 427.07050080959704 C 4583.333333333333 427.07050080959704, 4591.666666666667 427.119767579875, 4600 427.2043065040144 C 4608.333333333333 427.2888454281539, 4616.666666666667 429.62919385639077, 4625 429.62919385639077 C 4633.333333333333 429.62919385639077, 4641.666666666667 413.6619498277602, 4650 413.6619498277602 C 4658.333333333333 413.6619498277602, 4666.666666666667 424.8832472913849, 4675 428.1652013681744 C 4683.333333333333 431.44715544496387, 4691.666666666667 434.0540988027604, 4700 435.6178235259489 C 4708.333333333333 437.1815482491374, 4716.666666666667 438.33988266049215, 4725 439.04070471458374 C 4733.333333333333 439.7415267686753, 4741.666666666667 439.6390832648042, 4750 440.55789688441735 C 4758.333333333333 441.4767105040305, 4766.666666666667 451.2333615360835, 4775 455.60430299254057 C 4783.333333333333 459.9752444489976, 4791.666666666667 463.8242013904716, 4800 467.2239155897521 C 4808.333333333333 470.6236297890326, 4816.666666666667 473.13372297527303, 4825 476.3120547892463 C 4833.333333333333 479.4903866032196, 4841.666666666667 483.79155464714864, 4850 486.3401219493232 C 4858.333333333333 488.88868925149774, 4866.666666666667 490.65739305609515, 4875 492.5181187869144 C 4883.333333333333 494.3788445177336, 4891.666666666667 496.6530936234757, 4900 497.60929200216594 C 4908.333333333333 498.5654903808562, 4916.666666666667 499.3928096659816, 4925 499.606148900114 C 4933.333333333333 499.81948813424646, 4941.666666666667 499.97898983191266, 4950 499.98722808207043 C 4958.333333333333 499.9954663322282, 4966.666666666667 499.9999993391307, 4975 499.9999996034735 C 4983.333333333333 499.9999998678163, 4991.666666666667 500, 5000 500 C 5008.333333333333 500, 5016.666666666667 500, 5025 500 c 0 0, 0 0, 0 0C 5016.666666666667 500, 5008.333333333333 500, 5000 500 C 4991.666666666667 500, 4983.333333333333 500.0000001321837, 4975 500.0000003965265 C 4966.666666666667 500.0000006608693, 4958.333333333333 500.0045336677718, 4950 500.01277191792957 C 4941.666666666667 500.02101016808734, 4933.333333333333 500.18051186575354, 4925 500.393851099886 C 4916.666666666667 500.6071903340184, 4908.333333333333 501.4345096191438, 4900 502.39070799783406 C 4891.666666666667 503.3469063765243, 4883.333333333333 505.6211554822664, 4875 507.4818812130856 C 4866.666666666667 509.34260694390485, 4858.333333333333 511.11131074850226, 4850 513.6598780506768 C 4841.666666666667 516.2084453528514, 4833.333333333333 520.5096133967804, 4825 523.6879452107537 C 4816.666666666667 526.866277024727, 4808.333333333333 529.3763702109675, 4800 532.7760844102479 C 4791.666666666667 536.1757986095283, 4783.333333333333 540.0247555510024, 4775 544.3956970074594 C 4766.666666666667 548.7666384639165, 4758.333333333333 558.5232894959695, 4750 559.4421031155827 C 4741.666666666667 560.3609167351958, 4733.333333333333 560.2584732313246, 4725 560.9592952854163 C 4716.666666666667 561.6601173395079, 4708.333333333333 562.8184517508626, 4700 564.3821764740511 C 4691.666666666667 565.9459011972397, 4683.333333333333 568.5528445550361, 4675 571.8347986318256 C 4666.666666666667 575.1167527086151, 4658.333333333333 586.3380501722397, 4650 586.3380501722397 C 4641.666666666667 586.3380501722397, 4633.333333333333 570.3708061436092, 4625 570.3708061436092 C 4616.666666666667 570.3708061436092, 4608.333333333333 572.7111545718461, 4600 572.7956934959856 C 4591.666666666667 572.880232420125, 4583.333333333333 572.929499190403, 4575 572.929499190403 C 4566.666666666667 572.929499190403, 4558.333333333333 571.6815132893266, 4550 570.0695976252114 C 4541.666666666667 568.4576819610962, 4533.333333333333 555.1773872619074, 4525 554.4260657303025 C 4516.666666666667 553.6747441986979, 4508.333333333333 553.4748901805295, 4500 553.2115909409546 C 4491.666666666667 552.9482917013796, 4483.333333333333 552.626306918537, 4475 552.626306918537 C 4466.666666666667 552.626306918537, 4458.333333333333 555.6035779456345, 4450 555.6035779456345 C 4441.666666666667 555.6035779456345, 4433.333333333333 541.4032355758187, 4425 539.711990221951 C 4416.666666666667 538.0207448680834, 4408.333333333333 536.6932176994264, 4400 536.6932176994264 C 4391.666666666667 536.6932176994264, 4383.333333333333 539.5165368196547, 4375 540.4412776009883 C 4366.666666666667 541.3660183823222, 4358.333333333333 542.6433481913779, 4350 542.6433481913779 C 4341.666666666667 542.6433481913779, 4333.333333333333 537.0992333392096, 4325 536.3714667671005 C 4316.666666666667 535.6437001949914, 4308.333333333333 535.0852693527577, 4300 535.04976939125 C 4291.666666666667 535.0142694297422, 4283.333333333333 534.9942839946243, 4275 534.9942839946243 C 4266.666666666667 534.9942839946243, 4258.333333333333 536.79025051997, 4250 536.79025051997 C 4241.666666666667 536.79025051997, 4233.333333333333 531.0597949993074, 4225 531.0597949993074 C 4216.666666666667 531.0597949993074, 4208.333333333333 531.6035065965636, 4200 531.9788289710204 C 4191.666666666667 532.3541513454771, 4183.333333333333 533.2178142392354, 4175 533.4319968487491 C 4166.666666666667 533.6461794582628, 4158.333333333333 533.6007696937945, 4150 533.8444603367102 C 4141.666666666667 534.088150979626, 4133.333333333333 537.0572921103551, 4125 537.0572921103551 C 4116.666666666667 537.0572921103551, 4108.333333333333 530.2004321941224, 4100 530.2004321941224 C 4091.6666666666665 530.2004321941224, 4083.3333333333335 533.4478005502563, 4075 534.6704924110636 C 4066.6666666666665 535.8931842718712, 4058.3333333333335 536.2545721879716, 4050 537.7805795206563 C 4041.6666666666665 539.306586853341, 4033.3333333333335 546.4509372502048, 4025 546.4509372502048 C 4016.6666666666665 546.4509372502048, 4008.3333333333335 541.8333173188255, 4000 541.6455459876222 C 3991.6666666666665 541.4577746564189, 3983.3333333333335 541.3463524470708, 3975 541.3463524470708 C 3966.6666666666665 541.3463524470708, 3958.3333333333335 548.0826419378473, 3950 549.618206862321 C 3941.6666666666665 551.1537717867948, 3933.3333333333335 552.8104547996215, 3925 552.8104547996215 C 3916.6666666666665 552.8104547996215, 3908.3333333333335 545.7820041644882, 3900 545.7820041644882 C 3891.6666666666665 545.7820041644882, 3883.3333333333335 549.6568026381158, 3875 549.6568026381158 C 3866.6666666666665 549.6568026381158, 3858.3333333333335 545.666057000487, 3850 543.3439084029833 C 3841.6666666666665 541.0217598054796, 3833.3333333333335 539.391830484959, 3825 535.5729643221839 C 3816.6666666666665 531.7540981594088, 3808.3333333333335 514.3504541999685, 3800 513.7804861066552 C 3791.6666666666665 513.2105180133417, 3783.3333333333335 512.8906232919949, 3775 512.8906232919949 C 3766.6666666666665 512.8906232919949, 3758.3333333333335 513.8445918656507, 3750 513.9707879489296 C 3741.6666666666665 514.0969840322084, 3733.3333333333335 514.2003037047591, 3725 514.2003037047591 C 3716.6666666666665 514.2003037047591, 3708.3333333333335 513.688838343252, 3700 513.688838343252 C 3691.6666666666665 513.688838343252, 3683.3333333333335 515.0951488117596, 3675 515.5461799517267 C 3666.6666666666665 515.9972110916938, 3658.3333333333335 516.1969987725809, 3650 516.6103599850571 C 3641.6666666666665 517.0237211975334, 3633.3333333333335 517.3949786453526, 3625 518.0960149041596 C 3616.6666666666665 518.7970511629667, 3608.3333333333335 519.9609497137583, 3600 521.694828631337 C 3591.6666666666665 523.4287075489158, 3583.3333333333335 529.5953205491178, 3575 531.0734904328963 C 3566.6666666666665 532.5516603166748, 3558.3333333333335 533.9772331203066, 3550 533.9772331203066 C 3541.6666666666665 533.9772331203066, 3533.3333333333335 532.4149448905492, 3525 532.4149448905492 C 3516.6666666666665 532.4149448905492, 3508.3333333333335 538.5922395435433, 3500 538.5922395435433 C 3491.6666666666665 538.5922395435433, 3483.3333333333335 536.2428836738586, 3475 536.2428836738586 C 3466.6666666666665 536.2428836738586, 3458.3333333333335 537.8230371637246, 3450 537.8230371637246 C 3441.6666666666665 537.8230371637246, 3433.3333333333335 537.645928247734, 3425 537.645928247734 C 3416.6666666666665 537.645928247734, 3408.3333333333335 542.8536122975821, 3400 543.2980979235105 C 3391.6666666666665 543.7425835494388, 3383.3333333333335 543.7002063495427, 3375 544.0539913510381 C 3366.6666666666665 544.4077763525338, 3358.3333333333335 545.8351071206097, 3350 545.8351071206097 C 3341.6666666666665 545.8351071206097, 3333.3333333333335 519.1490836454284, 3325 518.3106389626541 C 3316.6666666666665 517.4721942798798, 3308.3333333333335 516.992754238758, 3300 516.992754238758 C 3291.6666666666665 516.992754238758, 3283.3333333333335 519.3873842681496, 3275 519.5805320279958 C 3266.6666666666665 519.7736797878418, 3258.3333333333335 519.9067795936305, 3250 519.9067795936305 C 3241.6666666666665 519.9067795936305, 3233.3333333333335 518.6784568942804, 3225 518.4338543967235 C 3216.6666666666665 518.1892518991667, 3208.3333333333335 517.9502897339178, 3200 517.9452365923062 C 3191.6666666666665 517.9401834506946, 3183.3333333333335 517.9375374464358, 3175 517.9375374464358 C 3166.6666666666665 517.9375374464358, 3158.3333333333335 519.3112542836705, 3150 520.0353941402894 C 3141.6666666666665 520.7595339969084, 3133.3333333333335 521.2165933728264, 3125 522.2878722016944 C 3116.6666666666665 523.3591510305625, 3108.3333333333335 526.1760972991768, 3100 527.8947082965211 C 3091.6666666666665 529.6133192938654, 3083.3333333333335 531.7377542163821, 3075 532.6666920972768 C 3066.6666666666665 533.5956299781717, 3058.3333333333335 533.843532512531, 3050 534.6347735764982 C 3041.6666666666665 535.4260146404654, 3033.3333333333335 537.3213258469632, 3025 537.6247644553926 C 3016.6666666666665 537.9282030638218, 3008.3333333333335 537.8580956606779, 3000 538.1616511163212 C 2991.6666666666665 538.4652065719645, 2983.3333333333335 539.6457717172018, 2975 541.1592217912048 C 2966.6666666666665 542.6726718652078, 2958.3333333333335 550.1339989480649, 2950 550.5145308933216 C 2941.6666666666665 550.8950628385784, 2933.3333333333335 550.7394895799378, 2925 551.1224179851208 C 2916.6666666666665 551.5053463903039, 2908.3333333333335 561.546995704705, 2900 561.546995704705 C 2891.6666666666665 561.546995704705, 2883.3333333333335 559.8311458466121, 2875 558.0369568603832 C 2866.6666666666665 556.2427678741542, 2858.3333333333335 546.4993108703292, 2850 546.4993108703292 C 2841.6666666666665 546.4993108703292, 2833.3333333333335 554.5964018130817, 2825 555.7486662010963 C 2816.6666666666665 556.9009305891108, 2808.3333333333335 557.8742667626298, 2800 557.8742667626298 C 2791.6666666666665 557.8742667626298, 2783.3333333333335 545.8812256127943, 2775 544.1846189814889 C 2766.6666666666665 542.4880123501836, 2758.3333333333335 542.7910564539956, 2750 541.0585767787086 C 2741.6666666666665 539.3260971034217, 2733.3333333333335 525.6530062865273, 2725 525.6530062865273 C 2716.6666666666665 525.6530062865273, 2708.3333333333335 527.2461883696969, 2700 528.0349374435746 C 2691.6666666666665 528.8236865174522, 2683.3333333333335 530.3857059218867, 2675 530.3857059218867 C 2666.6666666666665 530.3857059218867, 2658.3333333333335 530.2516024219349, 2650 530.2516024219349 C 2641.6666666666665 530.2516024219349, 2633.3333333333335 530.3471208900492, 2625 530.5097183204638 C 2616.6666666666665 530.6723157508784, 2608.3333333333335 534.316516193709, 2600 534.936903039235 C 2591.6666666666665 535.5572898847611, 2583.3333333333335 535.7344855793251, 2575 536.1151463326081 C 2566.6666666666665 536.4958070858911, 2558.3333333333335 536.7016084880047, 2550 537.2230328250803 C 2541.6666666666665 537.7444571621559, 2533.3333333333335 538.9031571667545, 2525 539.8831049810128 C 2516.6666666666665 540.8630527952712, 2508.3333333333335 542.031974258116, 2500 543.1684861639035 C 2491.6666666666665 544.3049980696911, 2483.3333333333335 546.7119285468852, 2475 546.7119285468852 C 2466.6666666666665 546.7119285468852, 2458.3333333333335 545.7049907218033, 2450 545.7049907218033 C 2441.6666666666665 545.7049907218033, 2433.3333333333335 552.6784542938002, 2425 552.6784542938002 C 2416.6666666666665 552.6784542938002, 2408.3333333333335 551.0352562215774, 2400 550.5929025747603 C 2391.6666666666665 550.1505489279432, 2383.3333333333335 550.1005654813439, 2375 549.6197616220716 C 2366.6666666666665 549.1389577627992, 2358.3333333333335 546.8339857979585, 2350 546.8339857979585 C 2341.6666666666665 546.8339857979585, 2333.3333333333335 550.498406437792, 2325 550.498406437792 C 2316.6666666666665 550.498406437792, 2308.3333333333335 550.3117063373359, 2300 550.0021648556567 C 2291.6666666666665 549.6926233739778, 2283.3333333333335 544.5452625258231, 2275 542.7858900955862 C 2266.6666666666665 541.026517665349, 2258.3333333333335 538.6252448877706, 2250 538.6252448877706 C 2241.6666666666665 538.6252448877706, 2233.3333333333335 538.9604812592206, 2225 539.4839484791928 C 2216.6666666666665 540.007415699165, 2208.3333333333335 548.6571381559426, 2200 548.6571381559426 C 2191.6666666666665 548.6571381559426, 2183.3333333333335 545.9429294980531, 2175 545.9429294980531 C 2166.6666666666665 545.9429294980531, 2158.3333333333335 549.4290671843343, 2150 549.4290671843343 C 2141.6666666666665 549.4290671843343, 2133.3333333333335 545.2448854243706, 2125 543.7725292235233 C 2116.6666666666665 542.300173022676, 2108.3333333333335 540.149372363371, 2100 540.149372363371 C 2091.6666666666665 540.149372363371, 2083.3333333333335 542.2737043339301, 2075 542.2737043339301 C 2066.6666666666665 542.2737043339301, 2058.3333333333335 541.6555368409406, 2050 541.6555368409406 C 2041.6666666666667 541.6555368409406, 2033.3333333333333 548.8653737208911, 2025 548.8653737208911 C 2016.6666666666667 548.8653737208911, 2008.3333333333333 544.8651431550595, 2000 544.8651431550595 C 1991.6666666666667 544.8651431550595, 1983.3333333333333 547.6949079721996, 1975 547.6949079721996 C 1966.6666666666667 547.6949079721996, 1958.3333333333333 546.7909929946059, 1950 546.7909929946059 C 1941.6666666666667 546.7909929946059, 1933.3333333333333 546.9227992639378, 1925 546.9227992639378 C 1916.6666666666667 546.9227992639378, 1908.3333333333333 544.4668157535713, 1900 542.7639801884588 C 1891.6666666666667 541.0611446233463, 1883.3333333333333 536.3781519419445, 1875 536.1436982256953 C 1866.6666666666667 535.9092445094462, 1858.3333333333333 535.7722876958294, 1850 535.7722876958294 C 1841.6666666666667 535.7722876958294, 1833.3333333333333 541.9134971316408, 1825 541.9134971316408 C 1816.6666666666667 541.9134971316408, 1808.3333333333333 537.6307042615813, 1800 536.6757671678455 C 1791.6666666666667 535.7208300741097, 1783.3333333333333 535.3050251783682, 1775 534.7041733411706 C 1766.6666666666667 534.1033215039731, 1758.3333333333333 533.1267678278737, 1750 533.0439594026947 C 1741.6666666666667 532.9611509775157, 1733.3333333333333 532.97026827488, 1725 532.9097019951892 C 1716.6666666666667 532.8491357154982, 1708.3333333333333 532.772587283366, 1700 532.6287120642801 C 1691.6666666666667 532.4848368451942, 1683.3333333333333 531.6983050703462, 1675 531.6983050703462 C 1666.6666666666667 531.6983050703462, 1658.3333333333333 533.32392433213, 1650 535.0301723426564 C 1641.6666666666667 536.7364203531831, 1633.3333333333333 546.069059358595, 1625 546.069059358595 C 1616.6666666666667 546.069059358595, 1608.3333333333333 545.1941794229565, 1600 544.9895703428133 C 1591.6666666666667 544.7849612626701, 1583.3333333333333 544.8239038298594, 1575 544.5607320912759 C 1566.6666666666667 544.2975603526922, 1558.3333333333333 539.5934795939042, 1550 539.5934795939042 C 1541.6666666666667 539.5934795939042, 1533.3333333333333 541.3805034991414, 1525 542.5029452230328 C 1516.6666666666667 543.6253869469243, 1508.3333333333333 546.4991487333375, 1500 546.4991487333375 C 1491.6666666666667 546.4991487333375, 1483.3333333333333 543.057225922581, 1475 543.0287856410117 C 1466.6666666666667 543.0003453594425, 1458.3333333333333 543.0131857898778, 1450 542.9855942765632 C 1441.6666666666667 542.9580027632487, 1433.3333333333333 542.4528943310688, 1425 541.9947522314159 C 1416.6666666666667 541.5366101317629, 1408.3333333333333 539.7521472218225, 1400 539.7521472218225 C 1391.6666666666667 539.7521472218225, 1383.3333333333333 542.921849133485, 1375 543.7258752703658 C 1366.6666666666667 544.5299014072466, 1358.3333333333333 544.4949886005643, 1350 545.4574542480982 C 1341.6666666666667 546.4199198956323, 1333.3333333333333 551.944941669223, 1325 554.1411888784066 C 1316.6666666666667 556.3374360875902, 1308.3333333333333 557.2730349744395, 1300 559.4493185379592 C 1291.6666666666667 561.625602101479, 1283.3333333333333 567.9280367535333, 1275 567.9280367535333 C 1266.6666666666667 567.9280367535333, 1258.3333333333333 566.2079369654257, 1250 566.2079369654257 C 1241.6666666666667 566.2079369654257, 1233.3333333333333 567.2592312769686, 1225 567.2592312769686 C 1216.6666666666667 567.2592312769686, 1208.3333333333333 559.2775977632425, 1200 559.2775977632425 C 1191.6666666666667 559.2775977632425, 1183.3333333333333 582.2478350224351, 1175 582.2478350224351 C 1166.6666666666667 582.2478350224351, 1158.3333333333333 577.7084461493782, 1150 573.7113582861532 C 1141.6666666666667 569.714270422928, 1133.3333333333333 553.5678341768655, 1125 553.5678341768655 C 1116.6666666666667 553.5678341768655, 1108.3333333333333 557.271825723825, 1100 559.7717916658557 C 1091.6666666666667 562.2717576078865, 1083.3333333333333 566.2241749707335, 1075 569.2520045186052 C 1066.6666666666667 572.2798340664768, 1058.3333333333333 577.9706391770482, 1050 577.9706391770482 C 1041.6666666666667 577.9706391770482, 1033.3333333333333 574.1897021318956, 1025 570.8545793372534 C 1016.6666666666666 567.5194565426112, 1008.3333333333334 554.0097746258268, 1000 554.0097746258268 C 991.6666666666666 554.0097746258268, 983.3333333333334 583.5881552816933, 975 583.5881552816933 C 966.6666666666666 583.5881552816933, 958.3333333333334 570.6190477933912, 950 570.6190477933912 C 941.6666666666666 570.6190477933912, 933.3333333333334 571.0901404447471, 925 571.0901404447471 C 916.6666666666666 571.0901404447471, 908.3333333333334 570.5873534792154, 900 570.419737620053 C 891.6666666666666 570.2521217608905, 883.3333333333334 570.280087565153, 875 570.0174377346028 C 866.6666666666666 569.7547879040526, 858.3333333333334 550.9791990673907, 850 550.9791990673907 C 841.6666666666666 550.9791990673907, 833.3333333333334 576.1317374066682, 825 576.1317374066682 C 816.6666666666666 576.1317374066682, 808.3333333333334 556.658269858867, 800 556.658269858867 C 791.6666666666666 556.658269858867, 783.3333333333334 558.6171998352861, 775 560.040136402266 C 766.6666666666666 561.4630729692458, 758.3333333333334 563.3292115110485, 750 565.8265043483007 C 741.6666666666666 568.3237971855526, 733.3333333333334 576.4494596824286, 725 576.4494596824286 C 716.6666666666666 576.4494596824286, 708.3333333333334 574.8960824561573, 700 573.014330878111 C 691.6666666666666 571.1325793000647, 683.3333333333334 561.4856489629203, 675 557.1840193346163 C 666.6666666666666 552.8823897063124, 658.3333333333334 546.2919684406712, 650 546.2919684406712 C 641.6666666666666 546.2919684406712, 633.3333333333334 549.7521614407977, 625 552.3918266800074 C 616.6666666666666 555.0314919192169, 608.3333333333334 560.8529874231855, 600 563.6760832274186 C 591.6666666666666 566.4991790316518, 583.3333333333334 567.3234907656905, 575 570.4544421311873 C 566.6666666666666 573.5853934966841, 558.3333333333334 585.7450809741043, 550 585.7450809741043 C 541.6666666666666 585.7450809741043, 533.3333333333334 575.6796528927721, 525 573.2361823438581 C 516.6666666666666 570.7927117949441, 508.3333333333333 568.3609320482896, 500 568.0519579361658 C 491.6666666666667 567.7429838240421, 483.3333333333333 567.8703358670052, 475 567.5429964445117 C 466.6666666666667 567.2156570220181, 458.3333333333333 553.6225553346535, 450 553.6225553346535 C 441.6666666666667 553.6225553346535, 433.3333333333333 558.8849411686797, 425 561.3112829190785 C 416.6666666666667 563.7376246694773, 408.3333333333333 565.6417177855474, 400 568.2220597987546 C 391.6666666666667 570.8024018119618, 383.3333333333333 577.0200632361859, 375 577.0200632361859 C 366.6666666666667 577.0200632361859, 358.3333333333333 566.8217468305218, 350 560.2577998697527 C 341.6666666666667 553.6938529089839, 333.3333333333333 540.4280984675545, 325 536.3954909439869 C 316.6666666666667 532.3628834204194, 308.3333333333333 529.0008389905722, 300 528.2925454717473 C 291.6666666666667 527.5842519529224, 283.3333333333333 527.5199297458671, 275 527.0697787235028 C 266.6666666666667 526.6196277011388, 258.3333333333333 526.3416503483382, 250 525.5618629018172 C 241.66666666666666 524.7820754552963, 233.33333333333334 522.1433933766589, 225 520.3471968931412 C 216.66666666666666 518.5510004096236, 208.33333333333334 517.1045857879999, 200 514.7726820532871 C 191.66666666666666 512.4407783185741, 183.33333333333334 506.5589406175633, 175 505.38315506367775 C 166.66666666666666 504.2073695097922, 158.33333333333334 503.9933423901672, 150 503.2115796719694 C 141.66666666666666 502.4298169537716, 133.33333333333334 500.95360139211215, 125 500.66237034721235 C 116.66666666666667 500.37113930231254, 108.33333333333333 500.20479198809386, 100 500.13518185221034 C 91.66666666666667 500.0655717163268, 83.33333333333333 500.0081751509392, 75 500.00497851318966 C 66.66666666666667 500.0017818754401, 58.333333333333336 500.00000037108646, 50 500.00000022265584 C 41.666666666666664 500.0000000742252, 33.333333333333336 500, 25 500 C 8.333333333333334 500, 16.666666666666664 500, 25 500 Z" fill="white" stroke="transparent" stroke-width="0" />
  </g>
</svg>