<svg 
  baseProfile="tiny"
  preserveAspectRatio="keep"
  version="1.2"
  viewBox="-0.000000 -0.000000 5025.000000 1000.000000"
  height="100%" width="100%"
  xmlns="http://www.w3.org/2000/svg"
  xmlns:ev="http://www.w3.org/2001/xml-events"
  xmlns:xlink="http://www.w3.org/1999/xlink"
>
  <g style="transform-origin: center center;">
    <path d="M 0 500 C 8.333333333333334 500, 16.666666666666664 500, 25 500 C 33.333333333333336 500, 41.666666666666664 499.9999998244927, 50 499.9999994735115 C 58.333333333333336 499.99999912253026, 66.66666666666667 499.9939535586024, 75 499.9833437138613 C 83.33333333333333 499.9727338691202, 91.66666666666667 499.82604282079706, 100 499.62561739123913 C 108.33333333333333 499.4251919616812, 116.66666666666667 498.53244494313776, 125 497.74175665082197 C 133.33333333333334 496.9510683585062, 141.66666666666666 495.87947196664834, 150 494.53993760524975 C 158.33333333333334 493.20040324385116, 166.66666666666666 491.0687209154718, 175 489.14511536822334 C 183.33333333333334 487.2215098209749, 191.66666666666666 485.412106468626, 200 482.9419677439354 C 208.33333333333334 480.47182901924475, 216.66666666666666 476.63737949026324, 225 473.74080318417424 C 233.33333333333334 470.84422687808524, 241.66666666666666 468.75264380631404, 250 465.50864865295443 C 258.3333333333333 462.26465349959483, 266.6666666666667 456.5385374766907, 275 453.608565868036 C 283.3333333333333 450.6785942593813, 291.6666666666667 447.3998324962293, 300 446.63994716297856 C 308.3333333333333 445.8800618297278, 316.6666666666667 445.9973062873188, 325 445.27722423772 C 333.3333333333333 444.55714218812125, 341.6666666666667 441.03381745781707, 350 440.0687696999624 C 358.3333333333333 439.1037219421077, 366.6666666666667 439.3447372164108, 375 438.064024734792 C 383.3333333333333 436.78331225317316, 391.6666666666667 407.0251473412987, 400 392.0383820574446 C 408.3333333333333 377.0516167735905, 416.6666666666667 353.37753020776023, 425 348.09523001571097 C 433.3333333333333 342.8129298236617, 441.6666666666667 338.4288151440616, 450 338.4288151440616 C 458.3333333333333 338.4288151440616, 466.6666666666667 345.17112654524624, 475 345.17112654524624 C 483.3333333333333 345.17112654524624, 491.6666666666667 344.90636079222526, 500 344.90636079222526 C 508.3333333333333 344.90636079222526, 516.6666666666666 345.8451528700302, 525 345.8451528700302 C 533.3333333333334 345.8451528700302, 541.6666666666666 344.659920564591, 550 344.659920564591 C 558.3333333333334 344.659920564591, 566.6666666666666 345.4769842938753, 575 345.4769842938753 C 583.3333333333334 345.4769842938753, 591.6666666666666 344.835370173812, 600 344.2296194891851 C 608.3333333333334 343.6238688045582, 616.6666666666666 341.35525777303235, 625 340.883713436859 C 633.3333333333334 340.4121691006857, 641.6666666666666 339.9867893304749, 650 339.9867893304749 C 658.3333333333334 339.9867893304749, 666.6666666666666 343.64949496270845, 675 344.26902111194556 C 683.3333333333334 344.8885472611827, 691.6666666666666 344.8775647499817, 700 345.4558687182474 C 708.3333333333334 346.03417268651316, 716.6666666666666 348.67930304439426, 725 348.67930304439426 C 733.3333333333334 348.67930304439426, 741.6666666666666 345.6282633580506, 750 345.6282633580506 C 758.3333333333334 345.6282633580506, 766.6666666666666 347.3879356221596, 775 347.3879356221596 C 783.3333333333334 347.3879356221596, 791.6666666666666 347.32700758201815, 800 347.32700758201815 C 808.3333333333334 347.32700758201815, 816.6666666666666 351.96029800211454, 825 351.96029800211454 C 833.3333333333334 351.96029800211454, 841.6666666666666 351.76335998177234, 850 351.4443517768076 C 858.3333333333334 351.12534357184285, 866.6666666666666 347.03530172302015, 875 344.84908649586725 C 883.3333333333334 342.66287126871435, 891.6666666666666 338.3266560054632, 900 338.3266560054632 C 908.3333333333334 338.3266560054632, 916.6666666666666 344.4319168939269, 925 344.4319168939269 C 933.3333333333334 344.4319168939269, 941.6666666666666 344.3437756650444, 950 344.3437756650444 C 958.3333333333334 344.3437756650444, 966.6666666666666 345.7281493845622, 975 345.8227165397533 C 983.3333333333334 345.9172836949444, 991.6666666666666 345.97150885350385, 1000 345.9796160936786 C 1008.3333333333334 345.98772333385335, 1016.6666666666666 345.9927987022968, 1025 345.9927987022968 C 1033.3333333333333 345.9927987022968, 1041.6666666666667 341.59623319026343, 1050 341.59623319026343 C 1058.3333333333333 341.59623319026343, 1066.6666666666667 344.5158892987354, 1075 344.5158892987354 C 1083.3333333333333 344.5158892987354, 1091.6666666666667 340.8768879171714, 1100 340.8768879171714 C 1108.3333333333333 340.8768879171714, 1116.6666666666667 344.1216503643243, 1125 345.83328881385114 C 1133.3333333333333 347.544927263378, 1141.6666666666667 351.1600581567874, 1150 351.1600581567874 C 1158.3333333333333 351.1600581567874, 1166.6666666666667 347.716077970569, 1175 347.716077970569 C 1183.3333333333333 347.716077970569, 1191.6666666666667 347.8108021495802, 1200 347.8108021495802 C 1208.3333333333333 347.8108021495802, 1216.6666666666667 346.1065775422385, 1225 345.77829484048175 C 1233.3333333333333 345.450012138725, 1241.6666666666667 345.1284238143821, 1250 345.1284238143821 C 1258.3333333333333 345.1284238143821, 1266.6666666666667 346.38554632346984, 1275 346.38554632346984 C 1283.3333333333333 346.38554632346984, 1291.6666666666667 345.481221040622, 1300 345.4196019263363 C 1308.3333333333333 345.35798281205064, 1316.6666666666667 345.38333916810745, 1325 345.3173931684701 C 1333.3333333333333 345.2514471688328, 1341.6666666666667 342.24410121107053, 1350 342.24410121107053 C 1358.3333333333333 342.24410121107053, 1366.6666666666667 345.8340202591877, 1375 345.8340202591877 C 1383.3333333333333 345.8340202591877, 1391.6666666666667 344.4404463461104, 1400 344.4404463461104 C 1408.3333333333333 344.4404463461104, 1416.6666666666667 348.93162782087586, 1425 348.93162782087586 C 1433.3333333333333 348.93162782087586, 1441.6666666666667 346.6621160197429, 1450 345.0938214115571 C 1458.3333333333333 343.5255268033713, 1466.6666666666667 339.0157061297631, 1475 339.0157061297631 C 1483.3333333333333 339.0157061297631, 1491.6666666666667 340.23742141186193, 1500 340.23742141186193 C 1508.3333333333333 340.23742141186193, 1516.6666666666667 337.0444905468604, 1525 337.0444905468604 C 1533.3333333333333 337.0444905468604, 1541.6666666666667 339.25617189680577, 1550 340.8911690828487 C 1558.3333333333333 342.52616626889164, 1566.6666666666667 347.65783064574447, 1575 347.65783064574447 C 1583.3333333333333 347.65783064574447, 1591.6666666666667 342.50531665614125, 1600 342.50531665614125 C 1608.3333333333333 342.50531665614125, 1616.6666666666667 345.760498439236, 1625 345.760498439236 C 1633.3333333333333 345.760498439236, 1641.6666666666667 341.5822791695364, 1650 341.5822791695364 C 1658.3333333333333 341.5822791695364, 1666.6666666666667 348.71864575034766, 1675 348.71864575034766 C 1683.3333333333333 348.71864575034766, 1691.6666666666667 343.9225032663309, 1700 343.9225032663309 C 1708.3333333333333 343.9225032663309, 1716.6666666666667 345.12748620198136, 1725 345.12748620198136 C 1733.3333333333333 345.12748620198136, 1741.6666666666667 343.6435166127377, 1750 343.6435166127377 C 1758.3333333333333 343.6435166127377, 1766.6666666666667 347.51543407134244, 1775 347.51543407134244 C 1783.3333333333333 347.51543407134244, 1791.6666666666667 345.51451938626855, 1800 344.8294454224188 C 1808.3333333333333 344.1443714585691, 1816.6666666666667 343.1650770878595, 1825 343.1650770878595 C 1833.3333333333333 343.1650770878595, 1841.6666666666667 348.9918737024756, 1850 348.9918737024756 C 1858.3333333333333 348.9918737024756, 1866.6666666666667 348.396124673253, 1875 347.7269397276908 C 1883.3333333333333 347.05775478212865, 1891.6666666666667 344.6845061820704, 1900 342.86505849872674 C 1908.3333333333333 341.0456108153831, 1916.6666666666667 336.6434392208995, 1925 336.6434392208995 C 1933.3333333333333 336.6434392208995, 1941.6666666666667 337.55598870293136, 1950 337.55598870293136 C 1958.3333333333333 337.55598870293136, 1966.6666666666667 335.4585209706122, 1975 335.4585209706122 C 1983.3333333333333 335.4585209706122, 1991.6666666666667 341.58295464884526, 2000 342.08041906873433 C 2008.3333333333333 342.5778834886234, 2016.6666666666667 342.43865815209773, 2025 342.9213804536155 C 2033.3333333333333 343.40410275513324, 2041.6666666666667 345.3551300146683, 2050 348.13131366535765 C 2058.3333333333335 350.907497316047, 2066.6666666666665 364.2318259892551, 2075 368.8795913900372 C 2083.3333333333335 373.5273567908193, 2091.6666666666665 377.0923586267747, 2100 379.37923426023997 C 2108.3333333333335 381.66610989370525, 2116.6666666666665 384.474069147692, 2125 384.474069147692 C 2133.3333333333335 384.474069147692, 2141.6666666666665 371.72283680589226, 2150 371.72283680589226 C 2158.3333333333335 371.72283680589226, 2166.6666666666665 377.01127782407406, 2175 380.3983441747084 C 2183.3333333333335 383.7854105253428, 2191.6666666666665 389.55812624277183, 2200 392.6592366793335 C 2208.3333333333335 395.7603471158952, 2216.6666666666665 400.1545543623791, 2225 400.1545543623791 C 2233.3333333333335 400.1545543623791, 2241.6666666666665 396.70064616899214, 2250 396.70064616899214 C 2258.3333333333335 396.70064616899214, 2266.6666666666665 402.38395476202084, 2275 402.38395476202084 C 2283.3333333333335 402.38395476202084, 2291.6666666666665 395.08736030705677, 2300 391.40169560460635 C 2308.3333333333335 387.7160309021559, 2316.6666666666665 380.268942426237, 2325 380.268942426237 C 2333.3333333333335 380.268942426237, 2341.6666666666665 383.6848218734392, 2350 383.6848218734392 C 2358.3333333333335 383.6848218734392, 2366.6666666666665 354.05698660884275, 2375 354.05698660884275 C 2383.3333333333335 354.05698660884275, 2391.6666666666665 396.6138642204425, 2400 396.6138642204425 C 2408.3333333333335 396.6138642204425, 2416.6666666666665 388.01866780651034, 2425 388.01866780651034 C 2433.3333333333335 388.01866780651034, 2441.6666666666665 401.66189197280727, 2450 401.66189197280727 C 2458.3333333333335 401.66189197280727, 2466.6666666666665 396.01895424039446, 2475 396.01895424039446 C 2483.3333333333335 396.01895424039446, 2491.6666666666665 396.9458878926172, 2500 396.9458878926172 C 2508.3333333333335 396.9458878926172, 2516.6666666666665 378.56326275981087, 2525 378.56326275981087 C 2533.3333333333335 378.56326275981087, 2541.6666666666665 378.80002649934306, 2550 378.80002649934306 C 2558.3333333333335 378.80002649934306, 2566.6666666666665 352.32753397819863, 2575 352.32753397819863 C 2583.3333333333335 352.32753397819863, 2591.6666666666665 392.50967713226805, 2600 392.50967713226805 C 2608.3333333333335 392.50967713226805, 2616.6666666666665 380.3007830242447, 2625 380.3007830242447 C 2633.3333333333335 380.3007830242447, 2641.6666666666665 393.14100801508874, 2650 393.5926877806582 C 2658.3333333333335 394.04436754622765, 2666.6666666666665 394.30659706433534, 2675 394.30659706433534 C 2683.3333333333335 394.30659706433534, 2691.6666666666665 393.4494691564256, 2700 392.2337827655262 C 2708.3333333333335 391.0180963746268, 2716.6666666666665 377.07104709840155, 2725 377.07104709840155 C 2733.3333333333335 377.07104709840155, 2741.6666666666665 378.0469380699752, 2750 378.0469380699752 C 2758.3333333333335 378.0469380699752, 2766.6666666666665 364.1265795681108, 2775 364.1265795681108 C 2783.3333333333335 364.1265795681108, 2791.6666666666665 371.90374701391073, 2800 375.57518757965 C 2808.3333333333335 379.24662814538925, 2816.6666666666665 381.6883831643521, 2825 386.1869668454145 C 2833.3333333333335 390.68555052647685, 2841.6666666666665 397.5299847567597, 2850 404.71925188383756 C 2858.3333333333335 411.9085190109154, 2866.6666666666665 430.5117671300825, 2875 430.5117671300825 C 2883.3333333333335 430.5117671300825, 2891.6666666666665 428.0640740643315, 2900 424.4905542064389 C 2908.3333333333335 420.9170343485463, 2916.6666666666665 375.6574966253104, 2925 375.6574966253104 C 2933.3333333333335 375.6574966253104, 2941.6666666666665 387.7434801282859, 2950 387.7434801282859 C 2958.3333333333335 387.7434801282859, 2966.6666666666665 332.92373307361083, 2975 332.92373307361083 C 2983.3333333333335 332.92373307361083, 2991.6666666666665 334.4207809599167, 3000 335.1452516828431 C 3008.3333333333335 335.86972240576944, 3016.6666666666665 336.3103394404451, 3025 337.27259671683623 C 3033.3333333333335 338.2348539932274, 3041.6666666666665 341.7620168742817, 3050 341.7620168742817 C 3058.3333333333335 341.7620168742817, 3066.6666666666665 339.3099839934273, 3075 339.3099839934273 C 3083.3333333333335 339.3099839934273, 3091.6666666666665 339.5995403997006, 3100 339.5995403997006 C 3108.3333333333335 339.5995403997006, 3116.6666666666665 338.2760425418927, 3125 338.2760425418927 C 3133.3333333333335 338.2760425418927, 3141.6666666666665 338.9010595892958, 3150 339.2776123263724 C 3158.3333333333335 339.65416506344894, 3166.6666666666665 340.57292506675833, 3175 340.57292506675833 C 3183.3333333333335 340.57292506675833, 3191.6666666666665 339.383808619461, 3200 339.383808619461 C 3208.3333333333335 339.383808619461, 3216.6666666666665 342.83775751906234, 3225 342.83775751906234 C 3233.3333333333335 342.83775751906234, 3241.6666666666665 342.47801891194786, 3250 342.16175935520585 C 3258.3333333333335 341.84549979846383, 3266.6666666666665 340.57112306468184, 3275 340.57112306468184 C 3283.3333333333335 340.57112306468184, 3291.6666666666665 341.47940478960135, 3300 342.0325398889264 C 3308.3333333333335 342.58567498825147, 3316.6666666666665 343.95198614776257, 3325 343.95198614776257 C 3333.3333333333335 343.95198614776257, 3341.6666666666665 343.1369086324201, 3350 342.9373655610631 C 3358.3333333333335 342.73782248970605, 3366.6666666666665 342.698434147489, 3375 342.51280492431175 C 3383.3333333333335 342.3271757011345, 3391.6666666666665 341.70375154933106, 3400 341.70375154933106 C 3408.3333333333335 341.70375154933106, 3416.6666666666665 342.06386115384544, 3425 342.06386115384544 C 3433.3333333333335 342.06386115384544, 3441.6666666666665 340.4844318262599, 3450 340.4844318262599 C 3458.3333333333335 340.4844318262599, 3466.6666666666665 345.1562305003252, 3475 345.1562305003252 C 3483.3333333333335 345.1562305003252, 3491.6666666666665 343.01874596437256, 3500 343.01874596437256 C 3508.3333333333335 343.01874596437256, 3516.6666666666665 344.7160835080001, 3525 344.7160835080001 C 3533.3333333333335 344.7160835080001, 3541.6666666666665 339.5972570060907, 3550 339.5972570060907 C 3558.3333333333335 339.5972570060907, 3566.6666666666665 340.79181908878024, 3575 340.79181908878024 C 3583.3333333333335 340.79181908878024, 3591.6666666666665 336.2329789098408, 3600 336.2329789098408 C 3608.3333333333335 336.2329789098408, 3616.6666666666665 337.8453769237923, 3625 338.92045912633 C 3633.3333333333335 339.9955413288677, 3641.6666666666665 342.2819469966068, 3650 342.9525243942668 C 3658.3333333333335 343.6231017919268, 3666.6666666666665 344.29272625213514, 3675 344.29272625213514 C 3683.3333333333335 344.29272625213514, 3691.6666666666665 341.14290526733, 3700 341.14290526733 C 3708.3333333333335 341.14290526733, 3716.6666666666665 341.22998585791237, 3725 341.39902080349873 C 3733.3333333333335 341.5680557490851, 3741.6666666666665 360.96858095678243, 3750 366.7348496344541 C 3758.3333333333335 372.5011183121258, 3766.6666666666665 379.8676676958537, 3775 379.8676676958537 C 3783.3333333333335 379.8676676958537, 3791.6666666666665 350.87459084247644, 3800 347.02700934024153 C 3808.3333333333335 343.17942783800663, 3816.6666666666665 342.76001691621144, 3825 340.0251377836961 C 3833.3333333333335 337.29025865118075, 3841.6666666666665 330.11881428425477, 3850 330.11881428425477 C 3858.3333333333335 330.11881428425477, 3866.6666666666665 337.48032648066476, 3875 337.48032648066476 C 3883.3333333333335 337.48032648066476, 3891.6666666666665 337.20164925430157, 3900 337.20164925430157 C 3908.3333333333335 337.20164925430157, 3916.6666666666665 339.06710894978016, 3925 339.06710894978016 C 3933.3333333333335 339.06710894978016, 3941.6666666666665 335.92319005448496, 3950 335.92319005448496 C 3958.3333333333335 335.92319005448496, 3966.6666666666665 337.38134401729485, 3975 337.38134401729485 C 3983.3333333333335 337.38134401729485, 3991.6666666666665 334.8662235215936, 4000 334.8662235215936 C 4008.3333333333335 334.8662235215936, 4016.6666666666665 338.97770354887336, 4025 338.97770354887336 C 4033.3333333333335 338.97770354887336, 4041.6666666666665 335.3029917543371, 4050 335.3029917543371 C 4058.3333333333335 335.3029917543371, 4066.6666666666665 339.299936837623, 4075 340.1692429511246 C 4083.3333333333335 341.0385490646262, 4091.6666666666665 341.9505098505075, 4100 341.9505098505075 C 4108.333333333333 341.9505098505075, 4116.666666666667 336.15792447571454, 4125 336.12335935868293 C 4133.333333333333 336.0887942416513, 4141.666666666667 336.0710462215753, 4150 336.0710462215753 C 4158.333333333333 336.0710462215753, 4166.666666666667 376.46761292854336, 4175 378.61699323460147 C 4183.333333333333 380.7663735406596, 4191.666666666667 382.1054109536903, 4200 382.1054109536903 C 4208.333333333333 382.1054109536903, 4216.666666666667 361.1746440268571, 4225 361.1746440268571 C 4233.333333333333 361.1746440268571, 4241.666666666667 369.107028486334, 4250 372.3330731931758 C 4258.333333333333 375.55911790001755, 4266.666666666667 378.8526648306767, 4275 380.8776677450944 C 4283.333333333333 382.9026706595121, 4291.666666666667 385.5905455908415, 4300 385.5905455908415 C 4308.333333333333 385.5905455908415, 4316.666666666667 379.94999861967864, 4325 379.94999861967864 C 4333.333333333333 379.94999861967864, 4341.666666666667 384.3666530791558, 4350 384.3666530791558 C 4358.333333333333 384.3666530791558, 4366.666666666667 379.1529487573128, 4375 379.1529487573128 C 4383.333333333333 379.1529487573128, 4391.666666666667 387.8266665652446, 4400 387.8266665652446 C 4408.333333333333 387.8266665652446, 4416.666666666667 380.28500293976185, 4425 380.28500293976185 C 4433.333333333333 380.28500293976185, 4441.666666666667 389.8188201700058, 4450 389.8188201700058 C 4458.333333333333 389.8188201700058, 4466.666666666667 384.40502380754606, 4475 384.40502380754606 C 4483.333333333333 384.40502380754606, 4491.666666666667 389.8306328869759, 4500 389.8306328869759 C 4508.333333333333 389.8306328869759, 4516.666666666667 389.68389568962266, 4525 389.4277977606265 C 4533.333333333333 389.17169983163035, 4541.666666666667 381.14730042430807, 4550 381.14730042430807 C 4558.333333333333 381.14730042430807, 4566.666666666667 387.9604045623705, 4575 391.6900421542196 C 4583.333333333333 395.4196797460687, 4591.666666666667 403.60950611748194, 4600 403.60950611748194 C 4608.333333333333 403.60950611748194, 4616.666666666667 402.8525715950501, 4625 402.8525715950501 C 4633.333333333333 402.8525715950501, 4641.666666666667 409.41036509847754, 4650 411.8232838532291 C 4658.333333333333 414.23620260798066, 4666.666666666667 415.4482360859791, 4675 417.8906306142537 C 4683.333333333333 420.33302514252836, 4691.666666666667 423.4667240869443, 4700 427.1379466201093 C 4708.333333333333 430.8091691532743, 4716.666666666667 437.6807237018053, 4725 440.7520823202699 C 4733.333333333333 443.8234409387345, 4741.666666666667 445.5945138684754, 4750 447.71557279277266 C 4758.333333333333 449.8366317170699, 4766.666666666667 451.16176533055466, 4775 453.57372562494714 C 4783.333333333333 455.98568591933963, 4791.666666666667 459.85045843337815, 4800 463.0346357304351 C 4808.333333333333 466.2188130274921, 4816.666666666667 469.6943372411413, 4825 472.6805813366918 C 4833.333333333333 475.66682543224226, 4841.666666666667 478.0222172536745, 4850 481.04350742329 C 4858.333333333333 484.0647975929055, 4866.666666666667 488.4664729126042, 4875 490.9365719651524 C 4883.333333333333 493.40667101770055, 4891.666666666667 495.67876901659224, 4900 496.860258428643 C 4908.333333333333 498.0417478406938, 4916.666666666667 499.06971136869765, 4925 499.38905037466634 C 4933.333333333333 499.708389380635, 4941.666666666667 499.9670990436861, 4950 499.97999712426457 C 4958.333333333333 499.992895204843, 4966.666666666667 499.99999848919987, 4975 499.9999990935035 C 4983.333333333333 499.99999969780714, 4991.666666666667 500, 5000 500 C 5008.333333333333 500, 5016.666666666667 500, 5025 500 c 0 0, 0 0, 0 0C 5016.666666666667 500, 5008.333333333333 500, 5000 500 C 4991.666666666667 500, 4983.333333333333 500.00000030219286, 4975 500.0000009064965 C 4966.666666666667 500.00000151080013, 4958.333333333333 500.007104795157, 4950 500.02000287573543 C 4941.666666666667 500.0329009563139, 4933.333333333333 500.291610619365, 4925 500.61094962533366 C 4916.666666666667 500.93028863130235, 4908.333333333333 501.9582521593062, 4900 503.139741571357 C 4891.666666666667 504.32123098340776, 4883.333333333333 506.59332898229945, 4875 509.0634280348476 C 4866.666666666667 511.5335270873958, 4858.333333333333 515.9352024070945, 4850 518.9564925767099 C 4841.666666666667 521.9777827463255, 4833.333333333333 524.3331745677577, 4825 527.3194186633082 C 4816.666666666667 530.3056627588587, 4808.333333333333 533.7811869725078, 4800 536.9653642695648 C 4791.666666666667 540.1495415666218, 4783.333333333333 544.0143140806604, 4775 546.4262743750528 C 4766.666666666667 548.8382346694453, 4758.333333333333 550.1633682829302, 4750 552.2844272072273 C 4741.666666666667 554.4054861315246, 4733.333333333333 556.1765590612655, 4725 559.2479176797301 C 4716.666666666667 562.3192762981947, 4708.333333333333 569.1908308467257, 4700 572.8620533798908 C 4691.666666666667 576.5332759130557, 4683.333333333333 579.6669748574716, 4675 582.1093693857463 C 4666.666666666667 584.551763914021, 4658.333333333333 585.7637973920193, 4650 588.1767161467709 C 4641.666666666667 590.5896349015225, 4633.333333333333 597.1474284049499, 4625 597.1474284049499 C 4616.666666666667 597.1474284049499, 4608.333333333333 596.3904938825181, 4600 596.3904938825181 C 4591.666666666667 596.3904938825181, 4583.333333333333 604.5803202539313, 4575 608.3099578457804 C 4566.666666666667 612.0395954376295, 4558.333333333333 618.852699575692, 4550 618.852699575692 C 4541.666666666667 618.852699575692, 4533.333333333333 610.8283001683697, 4525 610.5722022393735 C 4516.666666666667 610.3161043103773, 4508.333333333333 610.1693671130241, 4500 610.1693671130241 C 4491.666666666667 610.1693671130241, 4483.333333333333 615.5949761924539, 4475 615.5949761924539 C 4466.666666666667 615.5949761924539, 4458.333333333333 610.1811798299942, 4450 610.1811798299942 C 4441.666666666667 610.1811798299942, 4433.333333333333 619.7149970602381, 4425 619.7149970602381 C 4416.666666666667 619.7149970602381, 4408.333333333333 612.1733334347555, 4400 612.1733334347555 C 4391.666666666667 612.1733334347555, 4383.333333333333 620.8470512426873, 4375 620.8470512426873 C 4366.666666666667 620.8470512426873, 4358.333333333333 615.6333469208441, 4350 615.6333469208441 C 4341.666666666667 615.6333469208441, 4333.333333333333 620.0500013803214, 4325 620.0500013803214 C 4316.666666666667 620.0500013803214, 4308.333333333333 614.4094544091586, 4300 614.4094544091586 C 4291.666666666667 614.4094544091586, 4283.333333333333 617.0973293404879, 4275 619.1223322549056 C 4266.666666666667 621.1473351693232, 4258.333333333333 624.4408820999824, 4250 627.6669268068242 C 4241.666666666667 630.892971513666, 4233.333333333333 638.8253559731429, 4225 638.8253559731429 C 4216.666666666667 638.8253559731429, 4208.333333333333 617.8945890463096, 4200 617.8945890463096 C 4191.666666666667 617.8945890463096, 4183.333333333333 619.2336264593405, 4175 621.3830067653985 C 4166.666666666667 623.5323870714567, 4158.333333333333 663.9289537784248, 4150 663.9289537784248 C 4141.666666666667 663.9289537784248, 4133.333333333333 663.9112057583486, 4125 663.8766406413171 C 4116.666666666667 663.8420755242855, 4108.333333333333 658.0494901494925, 4100 658.0494901494925 C 4091.6666666666665 658.0494901494925, 4083.3333333333335 658.9614509353738, 4075 659.8307570488754 C 4066.6666666666665 660.700063162377, 4058.3333333333335 664.6970082456629, 4050 664.6970082456629 C 4041.6666666666665 664.6970082456629, 4033.3333333333335 661.0222964511266, 4025 661.0222964511266 C 4016.6666666666665 661.0222964511266, 4008.3333333333335 665.1337764784064, 4000 665.1337764784064 C 3991.6666666666665 665.1337764784064, 3983.3333333333335 662.6186559827051, 3975 662.6186559827051 C 3966.6666666666665 662.6186559827051, 3958.3333333333335 664.076809945515, 3950 664.076809945515 C 3941.6666666666665 664.076809945515, 3933.3333333333335 660.9328910502198, 3925 660.9328910502198 C 3916.6666666666665 660.9328910502198, 3908.3333333333335 662.7983507456984, 3900 662.7983507456984 C 3891.6666666666665 662.7983507456984, 3883.3333333333335 662.5196735193352, 3875 662.5196735193352 C 3866.6666666666665 662.5196735193352, 3858.3333333333335 669.8811857157452, 3850 669.8811857157452 C 3841.6666666666665 669.8811857157452, 3833.3333333333335 662.7097413488193, 3825 659.9748622163039 C 3816.6666666666665 657.2399830837885, 3808.3333333333335 656.8205721619934, 3800 652.9729906597585 C 3791.6666666666665 649.1254091575236, 3783.3333333333335 620.1323323041463, 3775 620.1323323041463 C 3766.6666666666665 620.1323323041463, 3758.3333333333335 627.4988816878742, 3750 633.2651503655459 C 3741.6666666666665 639.0314190432175, 3733.3333333333335 658.431944250915, 3725 658.6009791965013 C 3716.6666666666665 658.7700141420876, 3708.3333333333335 658.85709473267, 3700 658.85709473267 C 3691.6666666666665 658.85709473267, 3683.3333333333335 655.7072737478649, 3675 655.7072737478649 C 3666.6666666666665 655.7072737478649, 3658.3333333333335 656.3768982080733, 3650 657.0474756057332 C 3641.6666666666665 657.7180530033932, 3633.3333333333335 660.0044586711323, 3625 661.07954087367 C 3616.6666666666665 662.1546230762077, 3608.3333333333335 663.7670210901592, 3600 663.7670210901592 C 3591.6666666666665 663.7670210901592, 3583.3333333333335 659.2081809112198, 3575 659.2081809112198 C 3566.6666666666665 659.2081809112198, 3558.3333333333335 660.4027429939093, 3550 660.4027429939093 C 3541.6666666666665 660.4027429939093, 3533.3333333333335 655.2839164919999, 3525 655.2839164919999 C 3516.6666666666665 655.2839164919999, 3508.3333333333335 656.9812540356274, 3500 656.9812540356274 C 3491.6666666666665 656.9812540356274, 3483.3333333333335 654.8437694996749, 3475 654.8437694996749 C 3466.6666666666665 654.8437694996749, 3458.3333333333335 659.5155681737401, 3450 659.5155681737401 C 3441.6666666666665 659.5155681737401, 3433.3333333333335 657.9361388461546, 3425 657.9361388461546 C 3416.6666666666665 657.9361388461546, 3408.3333333333335 658.2962484506689, 3400 658.2962484506689 C 3391.6666666666665 658.2962484506689, 3383.3333333333335 657.6728242988655, 3375 657.4871950756883 C 3366.6666666666665 657.301565852511, 3358.3333333333335 657.2621775102939, 3350 657.0626344389369 C 3341.6666666666665 656.86309136758, 3333.3333333333335 656.0480138522374, 3325 656.0480138522374 C 3316.6666666666665 656.0480138522374, 3308.3333333333335 657.4143250117486, 3300 657.9674601110736 C 3291.6666666666665 658.5205952103986, 3283.3333333333335 659.4288769353182, 3275 659.4288769353182 C 3266.6666666666665 659.4288769353182, 3258.3333333333335 658.1545002015362, 3250 657.8382406447942 C 3241.6666666666665 657.5219810880521, 3233.3333333333335 657.1622424809377, 3225 657.1622424809377 C 3216.6666666666665 657.1622424809377, 3208.3333333333335 660.616191380539, 3200 660.616191380539 C 3191.6666666666665 660.616191380539, 3183.3333333333335 659.4270749332417, 3175 659.4270749332417 C 3166.6666666666665 659.4270749332417, 3158.3333333333335 660.345834936551, 3150 660.7223876736276 C 3141.6666666666665 661.0989404107042, 3133.3333333333335 661.7239574581073, 3125 661.7239574581073 C 3116.6666666666665 661.7239574581073, 3108.3333333333335 660.4004596002994, 3100 660.4004596002994 C 3091.6666666666665 660.4004596002994, 3083.3333333333335 660.6900160065727, 3075 660.6900160065727 C 3066.6666666666665 660.6900160065727, 3058.3333333333335 658.2379831257183, 3050 658.2379831257183 C 3041.6666666666665 658.2379831257183, 3033.3333333333335 661.7651460067726, 3025 662.7274032831638 C 3016.6666666666665 663.6896605595549, 3008.3333333333335 664.1302775942306, 3000 664.8547483171569 C 2991.6666666666665 665.5792190400832, 2983.3333333333335 667.0762669263892, 2975 667.0762669263892 C 2966.6666666666665 667.0762669263892, 2958.3333333333335 612.2565198717141, 2950 612.2565198717141 C 2941.6666666666665 612.2565198717141, 2933.3333333333335 624.3425033746896, 2925 624.3425033746896 C 2916.6666666666665 624.3425033746896, 2908.3333333333335 579.0829656514537, 2900 575.5094457935611 C 2891.6666666666665 571.9359259356685, 2883.3333333333335 569.4882328699175, 2875 569.4882328699175 C 2866.6666666666665 569.4882328699175, 2858.3333333333335 588.0914809890846, 2850 595.2807481161624 C 2841.6666666666665 602.4700152432404, 2833.3333333333335 609.3144494735232, 2825 613.8130331545856 C 2816.6666666666665 618.3116168356479, 2808.3333333333335 620.7533718546108, 2800 624.42481242035 C 2791.6666666666665 628.0962529860892, 2783.3333333333335 635.8734204318891, 2775 635.8734204318891 C 2766.6666666666665 635.8734204318891, 2758.3333333333335 621.9530619300248, 2750 621.9530619300248 C 2741.6666666666665 621.9530619300248, 2733.3333333333335 622.9289529015984, 2725 622.9289529015984 C 2716.6666666666665 622.9289529015984, 2708.3333333333335 608.9819036253732, 2700 607.7662172344737 C 2691.6666666666665 606.5505308435744, 2683.3333333333335 605.6934029356646, 2675 605.6934029356646 C 2666.6666666666665 605.6934029356646, 2658.3333333333335 605.9556324537723, 2650 606.4073122193417 C 2641.6666666666665 606.8589919849112, 2633.3333333333335 619.6992169757552, 2625 619.6992169757552 C 2616.6666666666665 619.6992169757552, 2608.3333333333335 607.490322867732, 2600 607.490322867732 C 2591.6666666666665 607.490322867732, 2583.3333333333335 647.6724660218014, 2575 647.6724660218014 C 2566.6666666666665 647.6724660218014, 2558.3333333333335 621.1999735006569, 2550 621.1999735006569 C 2541.6666666666665 621.1999735006569, 2533.3333333333335 621.4367372401891, 2525 621.4367372401891 C 2516.6666666666665 621.4367372401891, 2508.3333333333335 603.0541121073828, 2500 603.0541121073828 C 2491.6666666666665 603.0541121073828, 2483.3333333333335 603.9810457596055, 2475 603.9810457596055 C 2466.6666666666665 603.9810457596055, 2458.3333333333335 598.3381080271927, 2450 598.3381080271927 C 2441.6666666666665 598.3381080271927, 2433.3333333333335 611.9813321934896, 2425 611.9813321934896 C 2416.6666666666665 611.9813321934896, 2408.3333333333335 603.3861357795574, 2400 603.3861357795574 C 2391.6666666666665 603.3861357795574, 2383.3333333333335 645.9430133911573, 2375 645.9430133911573 C 2366.6666666666665 645.9430133911573, 2358.3333333333335 616.3151781265608, 2350 616.3151781265608 C 2341.6666666666665 616.3151781265608, 2333.3333333333335 619.731057573763, 2325 619.731057573763 C 2316.6666666666665 619.731057573763, 2308.3333333333335 612.2839690978441, 2300 608.5983043953936 C 2291.6666666666665 604.9126396929432, 2283.3333333333335 597.6160452379792, 2275 597.6160452379792 C 2266.6666666666665 597.6160452379792, 2258.3333333333335 603.2993538310079, 2250 603.2993538310079 C 2241.6666666666665 603.2993538310079, 2233.3333333333335 599.845445637621, 2225 599.845445637621 C 2216.6666666666665 599.845445637621, 2208.3333333333335 604.2396528841048, 2200 607.3407633206665 C 2191.6666666666665 610.4418737572282, 2183.3333333333335 616.2145894746573, 2175 619.6016558252916 C 2166.6666666666665 622.9887221759259, 2158.3333333333335 628.2771631941077, 2150 628.2771631941077 C 2141.6666666666665 628.2771631941077, 2133.3333333333335 615.525930852308, 2125 615.525930852308 C 2116.6666666666665 615.525930852308, 2108.3333333333335 618.3338901062948, 2100 620.62076573976 C 2091.6666666666665 622.9076413732253, 2083.3333333333335 626.4726432091807, 2075 631.1204086099629 C 2066.6666666666665 635.7681740107448, 2058.3333333333335 649.092502683953, 2050 651.8686863346423 C 2041.6666666666667 654.6448699853318, 2033.3333333333333 656.5958972448668, 2025 657.0786195463845 C 2016.6666666666667 657.5613418479022, 2008.3333333333333 657.4221165113765, 2000 657.9195809312657 C 1991.6666666666667 658.4170453511547, 1983.3333333333333 664.5414790293878, 1975 664.5414790293878 C 1966.6666666666667 664.5414790293878, 1958.3333333333333 662.4440112970686, 1950 662.4440112970686 C 1941.6666666666667 662.4440112970686, 1933.3333333333333 663.3565607791005, 1925 663.3565607791005 C 1916.6666666666667 663.3565607791005, 1908.3333333333333 658.954389184617, 1900 657.1349415012733 C 1891.6666666666667 655.3154938179296, 1883.3333333333333 652.9422452178713, 1875 652.2730602723092 C 1866.6666666666667 651.603875326747, 1858.3333333333333 651.0081262975244, 1850 651.0081262975244 C 1841.6666666666667 651.0081262975244, 1833.3333333333333 656.8349229121404, 1825 656.8349229121404 C 1816.6666666666667 656.8349229121404, 1808.3333333333333 655.8556285414309, 1800 655.1705545775812 C 1791.6666666666667 654.4854806137314, 1783.3333333333333 652.4845659286575, 1775 652.4845659286575 C 1766.6666666666667 652.4845659286575, 1758.3333333333333 656.3564833872623, 1750 656.3564833872623 C 1741.6666666666667 656.3564833872623, 1733.3333333333333 654.8725137980186, 1725 654.8725137980186 C 1716.6666666666667 654.8725137980186, 1708.3333333333333 656.077496733669, 1700 656.077496733669 C 1691.6666666666667 656.077496733669, 1683.3333333333333 651.2813542496524, 1675 651.2813542496524 C 1666.6666666666667 651.2813542496524, 1658.3333333333333 658.4177208304636, 1650 658.4177208304636 C 1641.6666666666667 658.4177208304636, 1633.3333333333333 654.239501560764, 1625 654.239501560764 C 1616.6666666666667 654.239501560764, 1608.3333333333333 657.4946833438587, 1600 657.4946833438587 C 1591.6666666666667 657.4946833438587, 1583.3333333333333 652.3421693542555, 1575 652.3421693542555 C 1566.6666666666667 652.3421693542555, 1558.3333333333333 657.4738337311084, 1550 659.1088309171513 C 1541.6666666666667 660.7438281031942, 1533.3333333333333 662.9555094531396, 1525 662.9555094531396 C 1516.6666666666667 662.9555094531396, 1508.3333333333333 659.762578588138, 1500 659.762578588138 C 1491.6666666666667 659.762578588138, 1483.3333333333333 660.9842938702369, 1475 660.9842938702369 C 1466.6666666666667 660.9842938702369, 1458.3333333333333 656.4744731966287, 1450 654.9061785884429 C 1441.6666666666667 653.3378839802572, 1433.3333333333333 651.0683721791241, 1425 651.0683721791241 C 1416.6666666666667 651.0683721791241, 1408.3333333333333 655.5595536538897, 1400 655.5595536538897 C 1391.6666666666667 655.5595536538897, 1383.3333333333333 654.1659797408123, 1375 654.1659797408123 C 1366.6666666666667 654.1659797408123, 1358.3333333333333 657.7558987889295, 1350 657.7558987889295 C 1341.6666666666667 657.7558987889295, 1333.3333333333333 654.7485528311672, 1325 654.6826068315299 C 1316.6666666666667 654.6166608318925, 1308.3333333333333 654.6420171879494, 1300 654.5803980736637 C 1291.6666666666667 654.518778959378, 1283.3333333333333 653.6144536765302, 1275 653.6144536765302 C 1266.6666666666667 653.6144536765302, 1258.3333333333333 654.8715761856179, 1250 654.8715761856179 C 1241.6666666666667 654.8715761856179, 1233.3333333333333 654.549987861275, 1225 654.2217051595183 C 1216.6666666666667 653.8934224577615, 1208.3333333333333 652.1891978504198, 1200 652.1891978504198 C 1191.6666666666667 652.1891978504198, 1183.3333333333333 652.283922029431, 1175 652.283922029431 C 1166.6666666666667 652.283922029431, 1158.3333333333333 648.8399418432126, 1150 648.8399418432126 C 1141.6666666666667 648.8399418432126, 1133.3333333333333 652.455072736622, 1125 654.1667111861489 C 1116.6666666666667 655.8783496356757, 1108.3333333333333 659.1231120828286, 1100 659.1231120828286 C 1091.6666666666667 659.1231120828286, 1083.3333333333333 655.4841107012646, 1075 655.4841107012646 C 1066.6666666666667 655.4841107012646, 1058.3333333333333 658.4037668097366, 1050 658.4037668097366 C 1041.6666666666667 658.4037668097366, 1033.3333333333333 654.0072012977032, 1025 654.0072012977032 C 1016.6666666666666 654.0072012977032, 1008.3333333333334 654.0122766661466, 1000 654.0203839063214 C 991.6666666666666 654.0284911464962, 983.3333333333334 654.0827163050556, 975 654.1772834602467 C 966.6666666666666 654.2718506154379, 958.3333333333334 655.6562243349556, 950 655.6562243349556 C 941.6666666666666 655.6562243349556, 933.3333333333334 655.5680831060731, 925 655.5680831060731 C 916.6666666666666 655.5680831060731, 908.3333333333334 661.6733439945368, 900 661.6733439945368 C 891.6666666666666 661.6733439945368, 883.3333333333334 657.3371287312857, 875 655.1509135041327 C 866.6666666666666 652.9646982769798, 858.3333333333334 648.8746564281571, 850 648.5556482231924 C 841.6666666666666 648.2366400182277, 833.3333333333334 648.0397019978855, 825 648.0397019978855 C 816.6666666666666 648.0397019978855, 808.3333333333334 652.6729924179818, 800 652.6729924179818 C 791.6666666666666 652.6729924179818, 783.3333333333334 652.6120643778404, 775 652.6120643778404 C 766.6666666666666 652.6120643778404, 758.3333333333334 654.3717366419494, 750 654.3717366419494 C 741.6666666666666 654.3717366419494, 733.3333333333334 651.3206969556057, 725 651.3206969556057 C 716.6666666666666 651.3206969556057, 708.3333333333334 653.9658273134869, 700 654.5441312817526 C 691.6666666666666 655.1224352500183, 683.3333333333334 655.1114527388173, 675 655.7309788880544 C 666.6666666666666 656.3505050372916, 658.3333333333334 660.013210669525, 650 660.013210669525 C 641.6666666666666 660.013210669525, 633.3333333333334 659.5878308993143, 625 659.116286563141 C 616.6666666666666 658.6447422269677, 608.3333333333334 656.3761311954418, 600 655.7703805108149 C 591.6666666666666 655.164629826188, 583.3333333333334 654.5230157061246, 575 654.5230157061246 C 566.6666666666666 654.5230157061246, 558.3333333333334 655.340079435409, 550 655.340079435409 C 541.6666666666666 655.340079435409, 533.3333333333334 654.1548471299698, 525 654.1548471299698 C 516.6666666666666 654.1548471299698, 508.3333333333333 655.0936392077747, 500 655.0936392077747 C 491.6666666666667 655.0936392077747, 483.3333333333333 654.8288734547538, 475 654.8288734547538 C 466.6666666666667 654.8288734547538, 458.3333333333333 661.5711848559383, 450 661.5711848559383 C 441.6666666666667 661.5711848559383, 433.3333333333333 657.1870701763382, 425 651.904769984289 C 416.6666666666667 646.6224697922398, 408.3333333333333 622.9483832264095, 400 607.9616179425554 C 391.6666666666667 592.9748526587014, 383.3333333333333 563.2166877468269, 375 561.9359752652081 C 366.6666666666667 560.6552627835893, 358.3333333333333 560.8962780578922, 350 559.9312303000377 C 341.6666666666667 558.9661825421829, 333.3333333333333 555.4428578118788, 325 554.72277576228 C 316.6666666666667 554.0026937126812, 308.3333333333333 554.1199381702722, 300 553.3600528370214 C 291.6666666666667 552.6001675037708, 283.3333333333333 549.3214057406187, 275 546.3914341319639 C 266.6666666666667 543.4614625233094, 258.3333333333333 537.7353465004052, 250 534.4913513470456 C 241.66666666666666 531.247356193686, 233.33333333333334 529.1557731219148, 225 526.2591968158258 C 216.66666666666666 523.3626205097368, 208.33333333333334 519.5281709807552, 200 517.0580322560646 C 191.66666666666666 514.587893531374, 183.33333333333334 512.7784901790251, 175 510.85488463177666 C 166.66666666666666 508.9312790845282, 158.33333333333334 506.79959675614884, 150 505.46006239475025 C 141.66666666666666 504.12052803335166, 133.33333333333334 503.0489316414938, 125 502.25824334917803 C 116.66666666666667 501.46755505686224, 108.33333333333333 500.5748080383188, 100 500.37438260876087 C 91.66666666666667 500.17395717920294, 83.33333333333333 500.0272661308798, 75 500.0166562861387 C 66.66666666666667 500.0060464413976, 58.333333333333336 500.00000087746974, 50 500.0000005264885 C 41.666666666666664 500.0000001755073, 33.333333333333336 500, 25 500 C 8.333333333333334 500, 16.666666666666664 500, 25 500 Z" fill="white" stroke="transparent" stroke-width="0" />
  </g>
</svg>