<svg 
  baseProfile="tiny"
  preserveAspectRatio="keep"
  version="1.2"
  viewBox="-0.000000 -0.000000 5025.000000 1000.000000"
  height="100%" width="100%"
  xmlns="http://www.w3.org/2000/svg"
  xmlns:ev="http://www.w3.org/2001/xml-events"
  xmlns:xlink="http://www.w3.org/1999/xlink"
>
  <g style="transform-origin: center center;">
    <path d="M 0 500 C 8.333333333333334 500, 16.666666666666664 500, 25 500 C 33.333333333333336 500, 41.666666666666664 499.9999996711704, 50 499.99999901367187 C 58.333333333333336 499.99999835617336, 66.66666666666667 499.99582476273935, 75 499.98789515407987 C 83.33333333333333 499.9799655454204, 91.66666666666667 499.6377958331664, 100 499.30052041123264 C 108.33333333333333 498.96324498929886, 116.66666666666667 498.33250846855196, 125 497.38412658152345 C 133.33333333333334 496.43574469449493, 141.66666666666666 494.0302646980654, 150 491.8634828677775 C 158.33333333333334 489.6967010374896, 166.66666666666666 484.6064825378205, 175 483.9606970642754 C 183.33333333333334 483.3149115907303, 191.66666666666666 482.8566968298134, 200 482.8566968298134 C 208.33333333333334 482.8566968298134, 216.66666666666666 483.7591754764489, 225 483.7591754764489 C 233.33333333333334 483.7591754764489, 241.66666666666666 471.23929010673277, 250 470.8322369746089 C 258.3333333333333 470.42518384248507, 266.6666666666667 470.53515656449076, 275 470.19138797574914 C 283.3333333333333 469.8476193870075, 291.6666666666667 469.1010157008282, 300 467.5518840907507 C 308.3333333333333 466.0027524806732, 316.6666666666667 448.13046958632685, 325 448.13046958632685 C 333.3333333333333 448.13046958632685, 341.6666666666667 450.51939957870866, 350 450.51939957870866 C 358.3333333333333 450.51939957870866, 366.6666666666667 443.00983552427255, 375 441.3435716109133 C 383.3333333333333 439.677307697554, 391.6666666666667 440.0336248914449, 400 437.9084993760587 C 408.3333333333333 435.78337386067255, 416.6666666666667 413.1010886563756, 425 393.64556736685734 C 433.3333333333333 374.19004607733905, 441.6666666666667 307.98458600162553, 450 307.98458600162553 C 458.3333333333333 307.98458600162553, 466.6666666666667 362.5332905726952, 475 376.1848633247714 C 483.3333333333333 389.83643607684763, 491.6666666666667 396.4689635210039, 500 405.4488233717169 C 508.3333333333333 414.4286832224299, 516.6666666666666 430.406094509569, 525 430.406094509569 C 533.3333333333334 430.406094509569, 541.6666666666666 429.8939762251782, 550 429.8939762251782 C 558.3333333333334 429.8939762251782, 566.6666666666666 440.4168196119306, 575 440.4168196119306 C 583.3333333333334 440.4168196119306, 591.6666666666666 438.3355594895609, 600 436.60975426522407 C 608.3333333333334 434.8839490408872, 616.6666666666666 428.5206836807789, 625 428.5206836807789 C 633.3333333333334 428.5206836807789, 641.6666666666666 438.1123448749678, 650 438.1123448749678 C 658.3333333333334 438.1123448749678, 666.6666666666666 429.30574227672366, 675 421.690914457639 C 683.3333333333334 414.07608663855433, 691.6666666666666 390.8923881077625, 700 384.1709168267297 C 708.3333333333334 377.4494455456969, 716.6666666666666 370.38393288848516, 725 370.38393288848516 C 733.3333333333334 370.38393288848516, 741.6666666666666 400.04173109597275, 750 400.04173109597275 C 758.3333333333334 400.04173109597275, 766.6666666666666 340.78246341007156, 775 340.78246341007156 C 783.3333333333334 340.78246341007156, 791.6666666666666 361.7848582261582, 800 363.9626926609834 C 808.3333333333334 366.14052709580864, 816.6666666666666 366.21463607521224, 825 367.76534600615855 C 833.3333333333334 369.31605593710486, 841.6666666666666 370.5022369818088, 850 373.7556532355819 C 858.3333333333334 377.00906948935506, 866.6666666666666 394.4393648889254, 875 400.0877519439235 C 883.3333333333334 405.73613899892155, 891.6666666666666 407.6274800120462, 900 412.57973670189085 C 908.3333333333334 417.5319933917355, 916.6666666666666 430.905686165363, 925 430.905686165363 C 933.3333333333334 430.905686165363, 941.6666666666666 411.6520672023481, 950 411.6520672023481 C 958.3333333333334 411.6520672023481, 966.6666666666666 426.48358001318877, 975 426.48358001318877 C 983.3333333333334 426.48358001318877, 991.6666666666666 398.2588710178428, 1000 398.2588710178428 C 1008.3333333333334 398.2588710178428, 1016.6666666666666 407.029721725024, 1025 407.029721725024 C 1033.3333333333333 407.029721725024, 1041.6666666666667 387.1990513243827, 1050 387.1990513243827 C 1058.3333333333333 387.1990513243827, 1066.6666666666667 393.04079880306654, 1075 393.04079880306654 C 1083.3333333333333 393.04079880306654, 1091.6666666666667 359.88289003698196, 1100 350.8188384704756 C 1108.3333333333333 341.75478690396926, 1116.6666666666667 330.7652024347006, 1125 330.7652024347006 C 1133.3333333333333 330.7652024347006, 1141.6666666666667 392.65321466374877, 1150 392.65321466374877 C 1158.3333333333333 392.65321466374877, 1166.6666666666667 386.03408317955495, 1175 386.03408317955495 C 1183.3333333333333 386.03408317955495, 1191.6666666666667 398.1771322729755, 1200 404.4813633495126 C 1208.3333333333333 410.7855944260497, 1216.6666666666667 423.88356161040315, 1225 423.88356161040315 C 1233.3333333333333 423.88356161040315, 1241.6666666666667 417.1730670782414, 1250 417.1730670782414 C 1258.3333333333333 417.1730670782414, 1266.6666666666667 431.6378030192896, 1275 431.6378030192896 C 1283.3333333333333 431.6378030192896, 1291.6666666666667 431.30712364923346, 1300 430.77536109196745 C 1308.3333333333333 430.24359853470145, 1316.6666666666667 426.0342434885203, 1325 420.1589760713485 C 1333.3333333333333 414.2837086541767, 1341.6666666666667 370.77106013734834, 1350 368.2809683074438 C 1358.3333333333333 365.79087647753926, 1366.6666666666667 366.2725301462354, 1375 364.2560419818993 C 1383.3333333333333 362.23955381756315, 1391.6666666666667 352.08407985794975, 1400 352.08407985794975 C 1408.3333333333333 352.08407985794975, 1416.6666666666667 357.64224182410976, 1425 360.4313067394294 C 1433.3333333333333 363.220371654749, 1441.6666666666667 368.81856511141643, 1450 368.81856511141643 C 1458.3333333333333 368.81856511141643, 1466.6666666666667 365.65183293246844, 1475 365.65183293246844 C 1483.3333333333333 365.65183293246844, 1491.6666666666667 367.2715057318852, 1500 367.2715057318852 C 1508.3333333333333 367.2715057318852, 1516.6666666666667 335.3306056436069, 1525 335.3306056436069 C 1533.3333333333333 335.3306056436069, 1541.6666666666667 370.39816068012993, 1550 374.2946519379799 C 1558.3333333333333 378.19114319582985, 1566.6666666666667 379.22074204499353, 1575 381.1708399596566 C 1583.3333333333333 383.1209378743196, 1591.6666666666667 386.26161454813996, 1600 386.26161454813996 C 1608.3333333333333 386.26161454813996, 1616.6666666666667 375.03050105359523, 1625 375.03050105359523 C 1633.3333333333333 375.03050105359523, 1641.6666666666667 378.78590773124677, 1650 378.78590773124677 C 1658.3333333333333 378.78590773124677, 1666.6666666666667 363.34178941537795, 1675 352.76405178669495 C 1683.3333333333333 342.18631415801195, 1691.6666666666667 312.1073897197331, 1700 312.1073897197331 C 1708.3333333333333 312.1073897197331, 1716.6666666666667 318.9688160772807, 1725 325.572299514002 C 1733.3333333333333 332.1757829507233, 1741.6666666666667 362.53117354462336, 1750 363.0399340726532 C 1758.3333333333333 363.548694600683, 1766.6666666666667 363.3495474259122, 1775 363.81894169212745 C 1783.3333333333333 364.2883359583427, 1791.6666666666667 371.04505275877483, 1800 371.1403543817989 C 1808.3333333333333 371.23565600482294, 1816.6666666666667 371.2861535826071, 1825 371.2861535826071 C 1833.3333333333333 371.2861535826071, 1841.6666666666667 344.42686907746224, 1850 344.42686907746224 C 1858.3333333333333 344.42686907746224, 1866.6666666666667 353.11299723051087, 1875 358.35889916972326 C 1883.3333333333333 363.60480110893565, 1891.6666666666667 371.5741097676763, 1900 376.44002927699046 C 1908.3333333333333 381.3059487863046, 1916.6666666666667 388.67977286366033, 1925 388.67977286366033 C 1933.3333333333333 388.67977286366033, 1941.6666666666667 364.9117542201342, 1950 364.9117542201342 C 1958.3333333333333 364.9117542201342, 1966.6666666666667 383.1848465984351, 1975 383.1848465984351 C 1983.3333333333333 383.1848465984351, 1991.6666666666667 377.35026012747215, 2000 371.4667561058592 C 2008.3333333333333 365.5832520842462, 2016.6666666666667 335.7180293009221, 2025 335.7180293009221 C 2033.3333333333333 335.7180293009221, 2041.6666666666667 337.9425111170989, 2050 340.7357589022324 C 2058.3333333333335 343.52900668736595, 2066.6666666666665 362.24552995315423, 2075 366.1309898268968 C 2083.3333333333335 370.0164497006393, 2091.6666666666665 372.8009235774745, 2100 373.69514964291693 C 2108.3333333333335 374.58937570835934, 2116.6666666666665 374.5108726980402, 2125 375.32561655912923 C 2133.3333333333335 376.14036042021826, 2141.6666666666665 380.20528811163115, 2150 380.20528811163115 C 2158.3333333333335 380.20528811163115, 2166.6666666666665 347.5964034024947, 2175 343.6654750304276 C 2183.3333333333335 339.73454665836056, 2191.6666666666665 336.6345013907858, 2200 336.6345013907858 C 2208.3333333333335 336.6345013907858, 2216.6666666666665 376.40328098164144, 2225 376.40328098164144 C 2233.3333333333335 376.40328098164144, 2241.6666666666665 373.48981297312287, 2250 373.48981297312287 C 2258.3333333333335 373.48981297312287, 2266.6666666666665 381.53594384091355, 2275 381.53594384091355 C 2283.3333333333335 381.53594384091355, 2291.6666666666665 353.41082704571227, 2300 353.41082704571227 C 2308.3333333333335 353.41082704571227, 2316.6666666666665 390.6337893825327, 2325 390.6337893825327 C 2333.3333333333335 390.6337893825327, 2341.6666666666665 345.4442358296407, 2350 339.69037277947007 C 2358.3333333333335 333.9365097292994, 2366.6666666666665 329.2990960731064, 2375 329.2990960731064 C 2383.3333333333335 329.2990960731064, 2391.6666666666665 334.1562636585648, 2400 339.32816974437645 C 2408.3333333333335 344.5000758301881, 2416.6666666666665 373.58479291912965, 2425 373.58479291912965 C 2433.3333333333335 373.58479291912965, 2441.6666666666665 366.8561331149143, 2450 366.8561331149143 C 2458.3333333333335 366.8561331149143, 2466.6666666666665 375.24870597222935, 2475 375.24870597222935 C 2483.3333333333335 375.24870597222935, 2491.6666666666665 368.22414989062366, 2500 362.17598568851577 C 2508.3333333333335 356.12782148640787, 2516.6666666666665 332.5297640550905, 2525 332.5297640550905 C 2533.3333333333335 332.5297640550905, 2541.6666666666665 349.36206894025196, 2550 358.7898082923206 C 2558.3333333333335 368.2175476443892, 2566.6666666666665 387.60005870646654, 2575 389.4339692136827 C 2583.3333333333335 391.26787972089886, 2591.6666666666665 392.4561282150697, 2600 392.4561282150697 C 2608.3333333333335 392.4561282150697, 2616.6666666666665 377.6957712559017, 2625 377.6957712559017 C 2633.3333333333335 377.6957712559017, 2641.6666666666665 380.46023878039955, 2650 380.46023878039955 C 2658.3333333333335 380.46023878039955, 2666.6666666666665 372.8653931737732, 2675 368.68654249605976 C 2683.3333333333335 364.5076918183463, 2691.6666666666665 358.7145284252144, 2700 355.28142999673605 C 2708.3333333333335 351.8483315682577, 2716.6666666666665 346.9195016036591, 2725 346.9195016036591 C 2733.3333333333335 346.9195016036591, 2741.6666666666665 361.42305082905085, 2750 369.5865427427671 C 2758.3333333333335 377.75003465648336, 2766.6666666666665 396.2194874854985, 2775 396.2194874854985 C 2783.3333333333335 396.2194874854985, 2791.6666666666665 357.3523501444282, 2800 357.3523501444282 C 2808.3333333333335 357.3523501444282, 2816.6666666666665 372.9740789421606, 2825 372.9740789421606 C 2833.3333333333335 372.9740789421606, 2841.6666666666665 336.483947339737, 2850 336.483947339737 C 2858.3333333333335 336.483947339737, 2866.6666666666665 346.88755937657373, 2875 353.67204604821865 C 2883.3333333333335 360.45653271986356, 2891.6666666666665 375.98598860025976, 2900 378.61990535457807 C 2908.3333333333335 381.2538221088964, 2916.6666666666665 383.31419269109017, 2925 383.31419269109017 C 2933.3333333333335 383.31419269109017, 2941.6666666666665 382.88978036228445, 2950 382.3392529652041 C 2958.3333333333335 381.7887255681237, 2966.6666666666665 376.9413050057065, 2975 376.9413050057065 C 2983.3333333333335 376.9413050057065, 2991.6666666666665 380.7269919511581, 3000 380.7269919511581 C 3008.3333333333335 380.7269919511581, 3016.6666666666665 317.15452130257364, 3025 317.15452130257364 C 3033.3333333333335 317.15452130257364, 3041.6666666666665 325.4351141480765, 3050 331.0617130789776 C 3058.3333333333335 336.68831200987876, 3066.6666666666665 345.31965642748054, 3075 352.5303406817468 C 3083.3333333333335 359.74102493601305, 3091.6666666666665 370.9000857329173, 3100 374.32832576525607 C 3108.3333333333335 377.7565657975948, 3116.6666666666665 381.05836966308965, 3125 381.05836966308965 C 3133.3333333333335 381.05836966308965, 3141.6666666666665 363.24710944466995, 3150 361.6611762701031 C 3158.3333333333335 360.0752430955363, 3166.6666666666665 360.60417659163045, 3175 358.94974234239635 C 3183.3333333333335 357.29530809316225, 3191.6666666666665 329.66625837507604, 3200 329.66625837507604 C 3208.3333333333335 329.66625837507604, 3216.6666666666665 376.1149314126865, 3225 376.1149314126865 C 3233.3333333333335 376.1149314126865, 3241.6666666666665 375.44616480936116, 3250 375.44616480936116 C 3258.3333333333335 375.44616480936116, 3266.6666666666665 390.49013243447405, 3275 390.49013243447405 C 3283.3333333333335 390.49013243447405, 3291.6666666666665 385.89824361466253, 3300 382.5046420009661 C 3308.3333333333335 379.11104038726967, 3316.6666666666665 372.5866227198442, 3325 368.4638392170956 C 3333.3333333333335 364.341055714347, 3341.6666666666665 357.41192351977355, 3350 357.41192351977355 C 3358.3333333333335 357.41192351977355, 3366.6666666666665 360.1124383826747, 3375 360.73801997288865 C 3383.3333333333335 361.3636015631026, 3391.6666666666665 362.0451714585293, 3400 362.0451714585293 C 3408.3333333333335 362.0451714585293, 3416.6666666666665 350.4470585792071, 3425 350.4470585792071 C 3433.3333333333335 350.4470585792071, 3441.6666666666665 376.9754462068948, 3450 376.9754462068948 C 3458.3333333333335 376.9754462068948, 3466.6666666666665 373.1037367625594, 3475 368.5707772468164 C 3483.3333333333335 364.03781773107346, 3491.6666666666665 344.90276529101317, 3500 332.97024188992924 C 3508.3333333333335 321.0377184888453, 3516.6666666666665 296.9734436825672, 3525 296.9734436825672 C 3533.3333333333335 296.9734436825672, 3541.6666666666665 337.8121430881917, 3550 344.803730647829 C 3558.3333333333335 351.7953182074663, 3566.6666666666665 355.65668447985394, 3575 358.23638808500687 C 3583.3333333333335 360.8160916901598, 3591.6666666666665 360.9736565240465, 3600 363.6716968442511 C 3608.3333333333335 366.36973716445567, 3616.6666666666665 379.5168620150247, 3625 379.5168620150247 C 3633.3333333333335 379.5168620150247, 3641.6666666666665 365.239669437869, 3650 365.239669437869 C 3658.3333333333335 365.239669437869, 3666.6666666666665 366.4541472618473, 3675 366.4541472618473 C 3683.3333333333335 366.4541472618473, 3691.6666666666665 289.3456835145137, 3700 289.3456835145137 C 3708.3333333333335 289.3456835145137, 3716.6666666666665 352.3753014298161, 3725 352.3753014298161 C 3733.3333333333335 352.3753014298161, 3741.6666666666665 349.3772999649455, 3750 349.3772999649455 C 3758.3333333333335 349.3772999649455, 3766.6666666666665 360.5473343685765, 3775 366.04272246550033 C 3783.3333333333335 371.53811056242415, 3791.6666666666665 382.35344381687895, 3800 382.35344381687895 C 3808.3333333333335 382.35344381687895, 3816.6666666666665 372.36367314258666, 3825 366.9312373566173 C 3833.3333333333335 361.49880157064797, 3841.6666666666665 353.40988974967024, 3850 349.6535433343836 C 3858.3333333333335 345.8971969190969, 3866.6666666666665 341.29229212671663, 3875 341.29229212671663 C 3883.3333333333335 341.29229212671663, 3891.6666666666665 375.25491929036167, 3900 377.66374404996884 C 3908.3333333333335 380.072568809576, 3916.6666666666665 380.13369942072603, 3925 381.6755219130352 C 3933.3333333333335 383.21734440534436, 3941.6666666666665 387.1363418415971, 3950 387.1363418415971 C 3958.3333333333335 387.1363418415971, 3966.6666666666665 383.2313319941238, 3975 380.4827817579875 C 3983.3333333333335 377.73423152185114, 3991.6666666666665 369.6434528114577, 4000 369.6434528114577 C 4008.3333333333335 369.6434528114577, 4016.6666666666665 372.31282624396533, 4025 374.08747105156544 C 4033.3333333333335 375.86211585916556, 4041.6666666666665 377.5089257030983, 4050 380.7257943383069 C 4058.3333333333335 383.9426629735155, 4066.6666666666665 396.6860155756837, 4075 398.39350625405274 C 4083.3333333333335 400.10099693242176, 4091.6666666666665 401.38898848374885, 4100 401.38898848374885 C 4108.333333333333 401.38898848374885, 4116.666666666667 400.13347530072593, 4125 400.13347530072593 C 4133.333333333333 400.13347530072593, 4141.666666666667 401.46956425054634, 4150 401.95875695972154 C 4158.333333333333 402.44794966889674, 4166.666666666667 403.1858580188654, 4175 403.1858580188654 C 4183.333333333333 403.1858580188654, 4191.666666666667 383.5592246541049, 4200 383.5592246541049 C 4208.333333333333 383.5592246541049, 4216.666666666667 388.49659177496653, 4225 388.6340293530876 C 4233.333333333333 388.7714669312087, 4241.666666666667 388.7104237263425, 4250 388.84891513443785 C 4258.333333333333 388.98740654253317, 4266.666666666667 395.0933992984085, 4275 395.0933992984085 C 4283.333333333333 395.0933992984085, 4291.666666666667 385.4843067754621, 4300 385.4843067754621 C 4308.333333333333 385.4843067754621, 4316.666666666667 393.3750484837942, 4325 393.3750484837942 C 4333.333333333333 393.3750484837942, 4341.666666666667 383.28554684097554, 4350 383.28554684097554 C 4358.333333333333 383.28554684097554, 4366.666666666667 390.8251543341408, 4375 390.8251543341408 C 4383.333333333333 390.8251543341408, 4391.666666666667 381.1571176813482, 4400 381.1571176813482 C 4408.333333333333 381.1571176813482, 4416.666666666667 383.68777945735695, 4425 385.84747710704187 C 4433.333333333333 388.0071747567268, 4441.666666666667 390.5919043166814, 4450 396.3206654870862 C 4458.333333333333 402.04942665749104, 4466.666666666667 439.7788262798043, 4475 444.19053808125324 C 4483.333333333333 448.60224988270215, 4491.666666666667 447.7140218046635, 4500 451.8696756134641 C 4508.333333333333 456.0253294222647, 4516.666666666667 484.9810994808771, 4525 484.9810994808771 C 4533.333333333333 484.9810994808771, 4541.666666666667 461.86052675410224, 4550 461.86052675410224 C 4558.333333333333 461.86052675410224, 4566.666666666667 491.33308221060145, 4575 491.33308221060145 C 4583.333333333333 491.33308221060145, 4591.666666666667 461.60627891041736, 4600 461.60627891041736 C 4608.333333333333 461.60627891041736, 4616.666666666667 485.31115132997894, 4625 485.31115132997894 C 4633.333333333333 485.31115132997894, 4641.666666666667 463.20255392018356, 4650 463.20255392018356 C 4658.333333333333 463.20255392018356, 4666.666666666667 484.36933948147237, 4675 484.36933948147237 C 4683.333333333333 484.36933948147237, 4691.666666666667 416.5671221788464, 4700 416.5671221788464 C 4708.333333333333 416.5671221788464, 4716.666666666667 473.24787086367064, 4725 475.42325792034825 C 4733.333333333333 477.59864497702586, 4741.666666666667 477.0468029339523, 4750 478.8778677327896 C 4758.333333333333 480.7089325316269, 4766.666666666667 492.2793544320564, 4775 492.2793544320564 C 4783.333333333333 492.2793544320564, 4791.666666666667 484.57688723590337, 4800 484.57688723590337 C 4808.333333333333 484.57688723590337, 4816.666666666667 495.79989426079544, 4825 495.79989426079544 C 4833.333333333333 495.79989426079544, 4841.666666666667 490.40258314760695, 4850 490.40258314760695 C 4858.333333333333 490.40258314760695, 4866.666666666667 494.20163085156287, 4875 495.54409351570064 C 4883.333333333333 496.8865561798384, 4891.666666666667 498.32384745421626, 4900 498.85420745100754 C 4908.333333333333 499.3845674477988, 4916.666666666667 499.8438979406799, 4925 499.9014337751762 C 4933.333333333333 499.9589696096725, 4941.666666666667 499.99261910458944, 4950 499.9954887628463 C 4958.333333333333 499.9983584211032, 4966.666666666667 499.99999949335916, 4975 499.9999996960073 C 4983.333333333333 499.99999989865546, 4991.666666666667 500, 5000 500 C 5008.333333333333 500, 5016.666666666667 500, 5025 500 c 0 0, 0 0, 0 0C 5016.666666666667 500, 5008.333333333333 500, 5000 500 C 4991.666666666667 500, 4983.333333333333 500.00000010134454, 4975 500.0000003039927 C 4966.666666666667 500.00000050664084, 4958.333333333333 500.0016415788968, 4950 500.0045112371537 C 4941.666666666667 500.00738089541056, 4933.333333333333 500.0410303903275, 4925 500.0985662248238 C 4916.666666666667 500.1561020593201, 4908.333333333333 500.6154325522012, 4900 501.14579254899246 C 4891.666666666667 501.67615254578374, 4883.333333333333 503.1134438201616, 4875 504.45590648429936 C 4866.666666666667 505.79836914843713, 4858.333333333333 509.59741685239305, 4850 509.59741685239305 C 4841.666666666667 509.59741685239305, 4833.333333333333 504.20010573920456, 4825 504.20010573920456 C 4816.666666666667 504.20010573920456, 4808.333333333333 515.4231127640967, 4800 515.4231127640967 C 4791.666666666667 515.4231127640967, 4783.333333333333 507.7206455679436, 4775 507.7206455679436 C 4766.666666666667 507.7206455679436, 4758.333333333333 519.2910674683731, 4750 521.1221322672104 C 4741.666666666667 522.9531970660478, 4733.333333333333 522.4013550229741, 4725 524.5767420796517 C 4716.666666666667 526.7521291363294, 4708.333333333333 583.4328778211536, 4700 583.4328778211536 C 4691.666666666667 583.4328778211536, 4683.333333333333 515.6306605185276, 4675 515.6306605185276 C 4666.666666666667 515.6306605185276, 4658.333333333333 536.7974460798164, 4650 536.7974460798164 C 4641.666666666667 536.7974460798164, 4633.333333333333 514.6888486700211, 4625 514.6888486700211 C 4616.666666666667 514.6888486700211, 4608.333333333333 538.3937210895826, 4600 538.3937210895826 C 4591.666666666667 538.3937210895826, 4583.333333333333 508.66691778939855, 4575 508.66691778939855 C 4566.666666666667 508.66691778939855, 4558.333333333333 538.1394732458978, 4550 538.1394732458978 C 4541.666666666667 538.1394732458978, 4533.333333333333 515.0189005191229, 4525 515.0189005191229 C 4516.666666666667 515.0189005191229, 4508.333333333333 543.9746705777353, 4500 548.1303243865359 C 4491.666666666667 552.2859781953365, 4483.333333333333 551.3977501172978, 4475 555.8094619187468 C 4466.666666666667 560.2211737201957, 4458.333333333333 597.950573342509, 4450 603.6793345129138 C 4441.666666666667 609.4080956833186, 4433.333333333333 611.9928252432733, 4425 614.1525228929581 C 4416.666666666667 616.312220542643, 4408.333333333333 618.8428823186518, 4400 618.8428823186518 C 4391.666666666667 618.8428823186518, 4383.333333333333 609.1748456658593, 4375 609.1748456658593 C 4366.666666666667 609.1748456658593, 4358.333333333333 616.7144531590245, 4350 616.7144531590245 C 4341.666666666667 616.7144531590245, 4333.333333333333 606.6249515162058, 4325 606.6249515162058 C 4316.666666666667 606.6249515162058, 4308.333333333333 614.5156932245379, 4300 614.5156932245379 C 4291.666666666667 614.5156932245379, 4283.333333333333 604.9066007015915, 4275 604.9066007015915 C 4266.666666666667 604.9066007015915, 4258.333333333333 611.0125934574669, 4250 611.1510848655621 C 4241.666666666667 611.2895762736575, 4233.333333333333 611.2285330687913, 4225 611.3659706469124 C 4216.666666666667 611.5034082250335, 4208.333333333333 616.4407753458951, 4200 616.4407753458951 C 4191.666666666667 616.4407753458951, 4183.333333333333 596.8141419811345, 4175 596.8141419811345 C 4166.666666666667 596.8141419811345, 4158.333333333333 597.5520503311033, 4150 598.0412430402785 C 4141.666666666667 598.5304357494537, 4133.333333333333 599.8665246992741, 4125 599.8665246992741 C 4116.666666666667 599.8665246992741, 4108.333333333333 598.6110115162512, 4100 598.6110115162512 C 4091.6666666666665 598.6110115162512, 4083.3333333333335 599.8990030675782, 4075 601.6064937459473 C 4066.6666666666665 603.3139844243162, 4058.3333333333335 616.0573370264844, 4050 619.274205661693 C 4041.6666666666665 622.4910742969016, 4033.3333333333335 624.1378841408344, 4025 625.9125289484346 C 4016.6666666666665 627.6871737560347, 4008.3333333333335 630.3565471885423, 4000 630.3565471885423 C 3991.6666666666665 630.3565471885423, 3983.3333333333335 622.2657684781489, 3975 619.5172182420125 C 3966.6666666666665 616.7686680058762, 3958.3333333333335 612.8636581584029, 3950 612.8636581584029 C 3941.6666666666665 612.8636581584029, 3933.3333333333335 616.7826555946556, 3925 618.3244780869647 C 3916.6666666666665 619.8663005792739, 3908.3333333333335 619.9274311904239, 3900 622.3362559500312 C 3891.6666666666665 624.7450807096384, 3883.3333333333335 658.7077078732834, 3875 658.7077078732834 C 3866.6666666666665 658.7077078732834, 3858.3333333333335 654.1028030809031, 3850 650.3464566656164 C 3841.6666666666665 646.5901102503298, 3833.3333333333335 638.501198429352, 3825 633.0687626433827 C 3816.6666666666665 627.6363268574133, 3808.3333333333335 617.646556183121, 3800 617.646556183121 C 3791.6666666666665 617.646556183121, 3783.3333333333335 628.4618894375758, 3775 633.9572775344997 C 3766.6666666666665 639.4526656314235, 3758.3333333333335 650.6227000350545, 3750 650.6227000350545 C 3741.6666666666665 650.6227000350545, 3733.3333333333335 647.6246985701839, 3725 647.6246985701839 C 3716.6666666666665 647.6246985701839, 3708.3333333333335 710.6543164854863, 3700 710.6543164854863 C 3691.6666666666665 710.6543164854863, 3683.3333333333335 633.5458527381527, 3675 633.5458527381527 C 3666.6666666666665 633.5458527381527, 3658.3333333333335 634.760330562131, 3650 634.760330562131 C 3641.6666666666665 634.760330562131, 3633.3333333333335 620.4831379849753, 3625 620.4831379849753 C 3616.6666666666665 620.4831379849753, 3608.3333333333335 633.6302628355443, 3600 636.3283031557489 C 3591.6666666666665 639.0263434759536, 3583.3333333333335 639.1839083098403, 3575 641.7636119149931 C 3566.6666666666665 644.343315520146, 3558.3333333333335 648.2046817925336, 3550 655.1962693521709 C 3541.6666666666665 662.1878569118082, 3533.3333333333335 703.0265563174328, 3525 703.0265563174328 C 3516.6666666666665 703.0265563174328, 3508.3333333333335 678.9622815111547, 3500 667.0297581100708 C 3491.6666666666665 655.0972347089869, 3483.3333333333335 635.9621822689265, 3475 631.4292227531836 C 3466.6666666666665 626.8962632374406, 3458.3333333333335 623.0245537931053, 3450 623.0245537931053 C 3441.6666666666665 623.0245537931053, 3433.3333333333335 649.5529414207929, 3425 649.5529414207929 C 3416.6666666666665 649.5529414207929, 3408.3333333333335 637.9548285414708, 3400 637.9548285414708 C 3391.6666666666665 637.9548285414708, 3383.3333333333335 638.6363984368975, 3375 639.2619800271113 C 3366.6666666666665 639.8875616173252, 3358.3333333333335 642.5880764802264, 3350 642.5880764802264 C 3341.6666666666665 642.5880764802264, 3333.3333333333335 635.658944285653, 3325 631.5361607829044 C 3316.6666666666665 627.4133772801558, 3308.3333333333335 620.8889596127303, 3300 617.4953579990339 C 3291.6666666666665 614.1017563853375, 3283.3333333333335 609.509867565526, 3275 609.509867565526 C 3266.6666666666665 609.509867565526, 3258.3333333333335 624.5538351906389, 3250 624.5538351906389 C 3241.6666666666665 624.5538351906389, 3233.3333333333335 623.8850685873135, 3225 623.8850685873135 C 3216.6666666666665 623.8850685873135, 3208.3333333333335 670.333741624924, 3200 670.333741624924 C 3191.6666666666665 670.333741624924, 3183.3333333333335 642.7046919068378, 3175 641.0502576576037 C 3166.6666666666665 639.3958234083696, 3158.3333333333335 639.9247569044637, 3150 638.3388237298968 C 3141.6666666666665 636.75289055533, 3133.3333333333335 618.9416303369103, 3125 618.9416303369103 C 3116.6666666666665 618.9416303369103, 3108.3333333333335 622.2434342024052, 3100 625.6716742347439 C 3091.6666666666665 629.0999142670827, 3083.3333333333335 640.258975063987, 3075 647.4696593182532 C 3066.6666666666665 654.6803435725194, 3058.3333333333335 663.3116879901213, 3050 668.9382869210224 C 3041.6666666666665 674.5648858519235, 3033.3333333333335 682.8454786974264, 3025 682.8454786974264 C 3016.6666666666665 682.8454786974264, 3008.3333333333335 619.2730080488419, 3000 619.2730080488419 C 2991.6666666666665 619.2730080488419, 2983.3333333333335 623.0586949942935, 2975 623.0586949942935 C 2966.6666666666665 623.0586949942935, 2958.3333333333335 618.2112744318763, 2950 617.6607470347959 C 2941.6666666666665 617.1102196377155, 2933.3333333333335 616.6858073089098, 2925 616.6858073089098 C 2916.6666666666665 616.6858073089098, 2908.3333333333335 618.7461778911036, 2900 621.3800946454219 C 2891.6666666666665 624.0140113997402, 2883.3333333333335 639.5434672801364, 2875 646.3279539517814 C 2866.6666666666665 653.1124406234262, 2858.3333333333335 663.516052660263, 2850 663.516052660263 C 2841.6666666666665 663.516052660263, 2833.3333333333335 627.0259210578395, 2825 627.0259210578395 C 2816.6666666666665 627.0259210578395, 2808.3333333333335 642.6476498555718, 2800 642.6476498555718 C 2791.6666666666665 642.6476498555718, 2783.3333333333335 603.7805125145014, 2775 603.7805125145014 C 2766.6666666666665 603.7805125145014, 2758.3333333333335 622.2499653435166, 2750 630.413457257233 C 2741.6666666666665 638.5769491709491, 2733.3333333333335 653.0804983963409, 2725 653.0804983963409 C 2716.6666666666665 653.0804983963409, 2708.3333333333335 648.1516684317423, 2700 644.718570003264 C 2691.6666666666665 641.2854715747856, 2683.3333333333335 635.4923081816537, 2675 631.3134575039403 C 2666.6666666666665 627.1346068262268, 2658.3333333333335 619.5397612196005, 2650 619.5397612196005 C 2641.6666666666665 619.5397612196005, 2633.3333333333335 622.3042287440983, 2625 622.3042287440983 C 2616.6666666666665 622.3042287440983, 2608.3333333333335 607.5438717849303, 2600 607.5438717849303 C 2591.6666666666665 607.5438717849303, 2583.3333333333335 608.7321202791011, 2575 610.5660307863172 C 2566.6666666666665 612.3999412935334, 2558.3333333333335 631.7824523556108, 2550 641.2101917076794 C 2541.6666666666665 650.6379310597481, 2533.3333333333335 667.4702359449095, 2525 667.4702359449095 C 2516.6666666666665 667.4702359449095, 2508.3333333333335 643.8721785135922, 2500 637.8240143114842 C 2491.6666666666665 631.7758501093763, 2483.3333333333335 624.7512940277707, 2475 624.7512940277707 C 2466.6666666666665 624.7512940277707, 2458.3333333333335 633.1438668850857, 2450 633.1438668850857 C 2441.6666666666665 633.1438668850857, 2433.3333333333335 626.4152070808703, 2425 626.4152070808703 C 2416.6666666666665 626.4152070808703, 2408.3333333333335 655.499924169812, 2400 660.6718302556235 C 2391.6666666666665 665.8437363414353, 2383.3333333333335 670.7009039268936, 2375 670.7009039268936 C 2366.6666666666665 670.7009039268936, 2358.3333333333335 666.0634902707006, 2350 660.3096272205299 C 2341.6666666666665 654.5557641703592, 2333.3333333333335 609.3662106174672, 2325 609.3662106174672 C 2316.6666666666665 609.3662106174672, 2308.3333333333335 646.5891729542877, 2300 646.5891729542877 C 2291.6666666666665 646.5891729542877, 2283.3333333333335 618.4640561590865, 2275 618.4640561590865 C 2266.6666666666665 618.4640561590865, 2258.3333333333335 626.5101870268771, 2250 626.5101870268771 C 2241.6666666666665 626.5101870268771, 2233.3333333333335 623.5967190183585, 2225 623.5967190183585 C 2216.6666666666665 623.5967190183585, 2208.3333333333335 663.3654986092142, 2200 663.3654986092142 C 2191.6666666666665 663.3654986092142, 2183.3333333333335 660.2654533416394, 2175 656.3345249695724 C 2166.6666666666665 652.4035965975054, 2158.3333333333335 619.7947118883689, 2150 619.7947118883689 C 2141.6666666666665 619.7947118883689, 2133.3333333333335 623.8596395797817, 2125 624.6743834408708 C 2116.6666666666665 625.4891273019598, 2108.3333333333335 625.4106242916407, 2100 626.3048503570831 C 2091.6666666666665 627.1990764225254, 2083.3333333333335 629.9835502993607, 2075 633.8690101731032 C 2066.6666666666665 637.7544700468458, 2058.3333333333335 656.470993312634, 2050 659.2642410977676 C 2041.6666666666667 662.0574888829011, 2033.3333333333333 664.2819706990779, 2025 664.2819706990779 C 2016.6666666666667 664.2819706990779, 2008.3333333333333 634.4167479157538, 2000 628.5332438941408 C 1991.6666666666667 622.6497398725278, 1983.3333333333333 616.8151534015649, 1975 616.8151534015649 C 1966.6666666666667 616.8151534015649, 1958.3333333333333 635.0882457798658, 1950 635.0882457798658 C 1941.6666666666667 635.0882457798658, 1933.3333333333333 611.3202271363397, 1925 611.3202271363397 C 1916.6666666666667 611.3202271363397, 1908.3333333333333 618.6940512136954, 1900 623.5599707230095 C 1891.6666666666667 628.4258902323237, 1883.3333333333333 636.3951988910644, 1875 641.6411008302767 C 1866.6666666666667 646.8870027694891, 1858.3333333333333 655.5731309225378, 1850 655.5731309225378 C 1841.6666666666667 655.5731309225378, 1833.3333333333333 628.7138464173929, 1825 628.7138464173929 C 1816.6666666666667 628.7138464173929, 1808.3333333333333 628.7643439951771, 1800 628.8596456182011 C 1791.6666666666667 628.9549472412252, 1783.3333333333333 635.7116640416573, 1775 636.1810583078725 C 1766.6666666666667 636.6504525740878, 1758.3333333333333 636.451305399317, 1750 636.9600659273468 C 1741.6666666666667 637.4688264553766, 1733.3333333333333 667.8242170492767, 1725 674.427700485998 C 1716.6666666666667 681.0311839227193, 1708.3333333333333 687.8926102802669, 1700 687.8926102802669 C 1691.6666666666667 687.8926102802669, 1683.3333333333333 657.813685841988, 1675 647.235948213305 C 1666.6666666666667 636.6582105846221, 1658.3333333333333 621.2140922687532, 1650 621.2140922687532 C 1641.6666666666667 621.2140922687532, 1633.3333333333333 624.9694989464048, 1625 624.9694989464048 C 1616.6666666666667 624.9694989464048, 1608.3333333333333 613.73838545186, 1600 613.73838545186 C 1591.6666666666667 613.73838545186, 1583.3333333333333 616.8790621256803, 1575 618.8291600403434 C 1566.6666666666667 620.7792579550064, 1558.3333333333333 621.8088568041701, 1550 625.7053480620201 C 1541.6666666666667 629.6018393198701, 1533.3333333333333 664.6693943563931, 1525 664.6693943563931 C 1516.6666666666667 664.6693943563931, 1508.3333333333333 632.7284942681148, 1500 632.7284942681148 C 1491.6666666666667 632.7284942681148, 1483.3333333333333 634.3481670675316, 1475 634.3481670675316 C 1466.6666666666667 634.3481670675316, 1458.3333333333333 631.1814348885836, 1450 631.1814348885836 C 1441.6666666666667 631.1814348885836, 1433.3333333333333 636.779628345251, 1425 639.5686932605706 C 1416.6666666666667 642.3577581758902, 1408.3333333333333 647.9159201420503, 1400 647.9159201420503 C 1391.6666666666667 647.9159201420503, 1383.3333333333333 637.7604461824369, 1375 635.7439580181008 C 1366.6666666666667 633.7274698537647, 1358.3333333333333 634.2091235224607, 1350 631.7190316925562 C 1341.6666666666667 629.2289398626517, 1333.3333333333333 585.7162913458233, 1325 579.8410239286516 C 1316.6666666666667 573.9657565114796, 1308.3333333333333 569.7564014652985, 1300 569.2246389080326 C 1291.6666666666667 568.6928763507665, 1283.3333333333333 568.3621969807105, 1275 568.3621969807105 C 1266.6666666666667 568.3621969807105, 1258.3333333333333 582.8269329217586, 1250 582.8269329217586 C 1241.6666666666667 582.8269329217586, 1233.3333333333333 576.1164383895969, 1225 576.1164383895969 C 1216.6666666666667 576.1164383895969, 1208.3333333333333 589.2144055739502, 1200 595.5186366504875 C 1191.6666666666667 601.8228677270245, 1183.3333333333333 613.965916820445, 1175 613.965916820445 C 1166.6666666666667 613.965916820445, 1158.3333333333333 607.3467853362513, 1150 607.3467853362513 C 1141.6666666666667 607.3467853362513, 1133.3333333333333 669.2347975652995, 1125 669.2347975652995 C 1116.6666666666667 669.2347975652995, 1108.3333333333333 658.2452130960307, 1100 649.1811615295244 C 1091.6666666666667 640.117109963018, 1083.3333333333333 606.9592011969335, 1075 606.9592011969335 C 1066.6666666666667 606.9592011969335, 1058.3333333333333 612.8009486756173, 1050 612.8009486756173 C 1041.6666666666667 612.8009486756173, 1033.3333333333333 592.970278274976, 1025 592.970278274976 C 1016.6666666666666 592.970278274976, 1008.3333333333334 601.7411289821572, 1000 601.7411289821572 C 991.6666666666666 601.7411289821572, 983.3333333333334 573.5164199868112, 975 573.5164199868112 C 966.6666666666666 573.5164199868112, 958.3333333333334 588.3479327976519, 950 588.3479327976519 C 941.6666666666666 588.3479327976519, 933.3333333333334 569.094313834637, 925 569.094313834637 C 916.6666666666666 569.094313834637, 908.3333333333334 582.4680066082644, 900 587.4202632981091 C 891.6666666666666 592.3725199879539, 883.3333333333334 594.2638610010785, 875 599.9122480560766 C 866.6666666666666 605.5606351110746, 858.3333333333334 622.990930510645, 850 626.2443467644181 C 841.6666666666666 629.4977630181912, 833.3333333333334 630.6839440628951, 825 632.2346539938414 C 816.6666666666666 633.7853639247878, 808.3333333333334 633.8594729041913, 800 636.0373073390166 C 791.6666666666666 638.2151417738419, 783.3333333333334 659.2175365899284, 775 659.2175365899284 C 766.6666666666666 659.2175365899284, 758.3333333333334 599.9582689040272, 750 599.9582689040272 C 741.6666666666666 599.9582689040272, 733.3333333333334 629.6160671115149, 725 629.6160671115149 C 716.6666666666666 629.6160671115149, 708.3333333333334 622.5505544543031, 700 615.8290831732703 C 691.6666666666666 609.1076118922375, 683.3333333333334 585.9239133614457, 675 578.309085542361 C 666.6666666666666 570.6942577232763, 658.3333333333334 561.8876551250322, 650 561.8876551250322 C 641.6666666666666 561.8876551250322, 633.3333333333334 571.4793163192211, 625 571.4793163192211 C 616.6666666666666 571.4793163192211, 608.3333333333334 565.1160509591127, 600 563.3902457347759 C 591.6666666666666 561.6644405104391, 583.3333333333334 559.5831803880694, 575 559.5831803880694 C 566.6666666666666 559.5831803880694, 558.3333333333334 570.1060237748218, 550 570.1060237748218 C 541.6666666666666 570.1060237748218, 533.3333333333334 569.593905490431, 525 569.593905490431 C 516.6666666666666 569.593905490431, 508.3333333333333 585.57131677757, 500 594.5511766282831 C 491.6666666666667 603.5310364789962, 483.3333333333333 610.1635639231524, 475 623.8151366752286 C 466.6666666666667 637.4667094273047, 458.3333333333333 692.0154139983745, 450 692.0154139983745 C 441.6666666666667 692.0154139983745, 433.3333333333333 625.809953922661, 425 606.3544326331427 C 416.6666666666667 586.8989113436244, 408.3333333333333 564.2166261393274, 400 562.0915006239413 C 391.6666666666667 559.9663751085551, 383.3333333333333 560.3226923024461, 375 558.6564283890867 C 366.6666666666667 556.9901644757274, 358.3333333333333 549.4806004212913, 350 549.4806004212913 C 341.6666666666667 549.4806004212913, 333.3333333333333 551.8695304136731, 325 551.8695304136731 C 316.6666666666667 551.8695304136731, 308.3333333333333 533.9972475193267, 300 532.4481159092493 C 291.6666666666667 530.8989842991718, 283.3333333333333 530.1523806129925, 275 529.8086120242508 C 266.6666666666667 529.4648434355092, 258.3333333333333 529.574816157515, 250 529.1677630253911 C 241.66666666666666 528.7607098932672, 233.33333333333334 516.240824523551, 225 516.240824523551 C 216.66666666666666 516.240824523551, 208.33333333333334 517.1433031701865, 200 517.1433031701865 C 191.66666666666666 517.1433031701865, 183.33333333333334 516.6850884092697, 175 516.0393029357247 C 166.66666666666666 515.3935174621795, 158.33333333333334 510.3032989625104, 150 508.1365171322225 C 141.66666666666666 505.9697353019346, 133.33333333333334 503.56425530550507, 125 502.61587341847655 C 116.66666666666667 501.66749153144804, 108.33333333333333 501.03675501070114, 100 500.69947958876736 C 91.66666666666667 500.3622041668336, 83.33333333333333 500.0200344545796, 75 500.01210484592013 C 66.66666666666667 500.00417523726065, 58.333333333333336 500.00000164382664, 50 500.00000098632813 C 41.666666666666664 500.0000003288296, 33.333333333333336 500, 25 500 C 8.333333333333334 500, 16.666666666666664 500, 25 500 Z" fill="white" stroke="transparent" stroke-width="0" />
  </g>
</svg>