<svg 
  baseProfile="tiny"
  preserveAspectRatio="keep"
  version="1.2"
  viewBox="-0.000000 -0.000000 5025.000000 1000.000000"
  height="100%" width="100%"
  xmlns="http://www.w3.org/2000/svg"
  xmlns:ev="http://www.w3.org/2001/xml-events"
  xmlns:xlink="http://www.w3.org/1999/xlink"
>
  <g style="transform-origin: center center;">
    <path d="M 0 500 C 8.333333333333334 500, 16.666666666666664 500, 25 500 C 33.333333333333336 500, 41.666666666666664 499.9999997337863, 50 499.999999201438 C 58.333333333333336 499.99999866908973, 66.66666666666667 499.9942984985174, 75 499.9838892633998 C 83.33333333333333 499.9734800282822, 91.66666666666667 499.7558243243919, 100 499.47684306022416 C 108.33333333333333 499.19786179605643, 116.66666666666667 498.1312791291615, 125 497.0812884857799 C 133.33333333333334 496.0312978423983, 141.66666666666666 494.4205033581032, 150 492.48330022468554 C 158.33333333333334 490.5460970912679, 166.66666666666666 487.5604498441881, 175 484.58766986377327 C 183.33333333333334 481.61488988335844, 191.66666666666666 478.3204075180432, 200 474.34225632605416 C 208.33333333333334 470.3641051340651, 216.66666666666666 464.32484448680555, 225 460.05192500285335 C 233.33333333333334 455.77900551890116, 241.66666666666666 452.51639812051206, 250 448.4299595875003 C 258.3333333333333 444.3435210544886, 266.6666666666667 440.03864562536086, 275 435.4593330427402 C 283.3333333333333 430.8800204601195, 291.6666666666667 424.75126669918916, 300 420.8575912181724 C 308.3333333333333 416.9639157371556, 316.6666666666667 415.3443761582808, 325 411.1236064030669 C 333.3333333333333 406.902836647853, 341.6666666666667 399.36023895809456, 350 393.0129867844918 C 358.3333333333333 386.665734610889, 366.6666666666667 372.9391571522506, 375 372.9391571522506 C 383.3333333333333 372.9391571522506, 391.6666666666667 378.26620089186963, 400 378.26620089186963 C 408.3333333333333 378.26620089186963, 416.6666666666667 370.75502285787877, 425 370.05895339720144 C 433.3333333333333 369.3628839365241, 441.6666666666667 368.86265993459267, 450 368.86265993459267 C 458.3333333333333 368.86265993459267, 466.6666666666667 373.99354930311523, 475 373.99354930311523 C 483.3333333333333 373.99354930311523, 491.6666666666667 373.17687734882975, 500 372.6573625557712 C 508.3333333333333 372.1378477627127, 516.6666666666666 371.507500952974, 525 370.78768046935534 C 533.3333333333334 370.0678599857367, 541.6666666666666 368.8759040077559, 550 368.2321393371002 C 558.3333333333334 367.5883746664445, 566.6666666666666 367.34230246984833, 575 366.6799915542683 C 583.3333333333334 366.0176806386883, 591.6666666666666 363.91990932738764, 600 363.91990932738764 C 608.3333333333334 363.91990932738764, 616.6666666666666 365.7863785979601, 625 367.1348076706237 C 633.3333333333334 368.48323674328725, 641.6666666666666 372.58883808943136, 650 372.58883808943136 C 658.3333333333334 372.58883808943136, 666.6666666666666 361.8460214756068, 675 361.8460214756068 C 683.3333333333334 361.8460214756068, 691.6666666666666 364.74148181533775, 700 366.92078521880705 C 708.3333333333334 369.10008862227636, 716.6666666666666 376.107348233837, 725 376.107348233837 C 733.3333333333334 376.107348233837, 741.6666666666666 366.3988637060005, 750 366.3988637060005 C 758.3333333333334 366.3988637060005, 766.6666666666666 367.3120305968505, 775 367.3120305968505 C 783.3333333333334 367.3120305968505, 791.6666666666666 362.83590283590485, 800 362.83590283590485 C 808.3333333333334 362.83590283590485, 816.6666666666666 365.401874661334, 825 366.3516818058922 C 833.3333333333334 367.30148895045045, 841.6666666666666 368.7470928447365, 850 368.7470928447365 C 858.3333333333334 368.7470928447365, 866.6666666666666 367.4886654227703, 875 366.5143997915769 C 883.3333333333334 365.54013416038356, 891.6666666666666 362.28403939089384, 900 362.28403939089384 C 908.3333333333334 362.28403939089384, 916.6666666666666 367.25170232694086, 925 367.25170232694086 C 933.3333333333334 367.25170232694086, 941.6666666666666 359.4499643763178, 950 359.4499643763178 C 958.3333333333334 359.4499643763178, 966.6666666666666 371.1094560424676, 975 371.1094560424676 C 983.3333333333334 371.1094560424676, 991.6666666666666 339.87536002469, 1000 339.87536002469 C 1008.3333333333334 339.87536002469, 1016.6666666666666 343.0287800445286, 1025 343.0287800445286 C 1033.3333333333333 343.0287800445286, 1041.6666666666667 337.3397483377428, 1050 337.3397483377428 C 1058.3333333333333 337.3397483377428, 1066.6666666666667 343.3209573605991, 1075 346.30294748690045 C 1083.3333333333333 349.2849376132018, 1091.6666666666667 353.94247245525986, 1100 355.2317552016489 C 1108.3333333333333 356.521037948038, 1116.6666666666667 356.748712078588, 1125 357.7003647737385 C 1133.3333333333333 358.65201746888897, 1141.6666666666667 361.08503972989683, 1150 361.08503972989683 C 1158.3333333333333 361.08503972989683, 1166.6666666666667 346.74389510841024, 1175 346.74389510841024 C 1183.3333333333333 346.74389510841024, 1191.6666666666667 359.304205016865, 1200 359.304205016865 C 1208.3333333333333 359.304205016865, 1216.6666666666667 349.33891976986797, 1225 349.33891976986797 C 1233.3333333333333 349.33891976986797, 1241.6666666666667 350.54570706666436, 1250 350.54570706666436 C 1258.3333333333333 350.54570706666436, 1266.6666666666667 349.7335572606852, 1275 349.7335572606852 C 1283.3333333333333 349.7335572606852, 1291.6666666666667 352.6747932562062, 1300 354.67554454949 C 1308.3333333333333 356.67629584277375, 1316.6666666666667 361.71819013981394, 1325 362.31727477380406 C 1333.3333333333333 362.9163594077942, 1341.6666666666667 363.15786336221186, 1350 363.33565821735715 C 1358.3333333333333 363.51345307250244, 1366.6666666666667 363.6969701755045, 1375 363.6969701755045 C 1383.3333333333333 363.6969701755045, 1391.6666666666667 362.8939873809543, 1400 361.6757789353662 C 1408.3333333333333 360.45757048977816, 1416.6666666666667 342.62597717092547, 1425 342.62597717092547 C 1433.3333333333333 342.62597717092547, 1441.6666666666667 347.52197063835854, 1450 347.52197063835854 C 1458.3333333333333 347.52197063835854, 1466.6666666666667 344.8046698871125, 1475 343.33663114791784 C 1483.3333333333333 341.8685924087232, 1491.6666666666667 338.6896048367495, 1500 338.6896048367495 C 1508.3333333333333 338.6896048367495, 1516.6666666666667 346.82120790057417, 1525 348.7844567727887 C 1533.3333333333333 350.74770564500324, 1541.6666666666667 351.71220318764654, 1550 352.9422398328191 C 1558.3333333333333 354.17227647799166, 1566.6666666666667 356.2592481380357, 1575 356.2592481380357 C 1583.3333333333333 356.2592481380357, 1591.6666666666667 351.66089566020474, 1600 351.66089566020474 C 1608.3333333333333 351.66089566020474, 1616.6666666666667 353.66980499980724, 1625 353.8335319131575 C 1633.3333333333333 353.9972588265078, 1641.6666666666667 354.1104212939556, 1650 354.1104212939556 C 1658.3333333333333 354.1104212939556, 1666.6666666666667 341.2234055553722, 1675 341.2234055553722 C 1683.3333333333333 341.2234055553722, 1691.6666666666667 350.4248239296052, 1700 352.9657685972611 C 1708.3333333333333 355.506713264917, 1716.6666666666667 355.958573170996, 1725 358.60885857762923 C 1733.3333333333333 361.2591439842625, 1741.6666666666667 369.20792171595895, 1750 372.06104509869255 C 1758.3333333333333 374.91416848142615, 1766.6666666666667 378.3375359993586, 1775 378.3375359993586 C 1783.3333333333333 378.3375359993586, 1791.6666666666667 375.0082437782218, 1800 375.0082437782218 C 1808.3333333333333 375.0082437782218, 1816.6666666666667 375.9848831815359, 1825 377.1704631250252 C 1833.3333333333333 378.3560430685145, 1841.6666666666667 387.18800000340406, 1850 387.18800000340406 C 1858.3333333333333 387.18800000340406, 1866.6666666666667 382.42401602258326, 1875 382.42401602258326 C 1883.3333333333333 382.42401602258326, 1891.6666666666667 389.08764335943727, 1900 390.98972964699794 C 1908.3333333333333 392.8918159345586, 1916.6666666666667 393.06418911295805, 1925 395.26784421236187 C 1933.3333333333333 397.4714993117657, 1941.6666666666667 409.8069861326679, 1950 409.8069861326679 C 1958.3333333333333 409.8069861326679, 1966.6666666666667 399.81099289446183, 1975 399.81099289446183 C 1983.3333333333333 399.81099289446183, 1991.6666666666667 410.57307827233257, 2000 412.6490230220792 C 2008.3333333333333 414.7249677718258, 2016.6666666666667 414.8722186076982, 2025 416.76009843311675 C 2033.3333333333333 418.6479782585353, 2041.6666666666667 425.8605657911614, 2050 425.8605657911614 C 2058.3333333333335 425.8605657911614, 2066.6666666666665 419.71280916918755, 2075 419.71280916918755 C 2083.3333333333335 419.71280916918755, 2091.6666666666665 423.40538996705027, 2100 426.1079886588326 C 2108.3333333333335 428.8105873506149, 2116.6666666666665 437.18115782514997, 2125 437.18115782514997 C 2133.3333333333335 437.18115782514997, 2141.6666666666665 429.9334540250842, 2150 426.3691339632494 C 2158.3333333333335 422.8048139014146, 2166.6666666666665 419.887006590814, 2175 415.79264372154375 C 2183.3333333333335 411.6982808522735, 2191.6666666666665 401.1462457022081, 2200 401.1462457022081 C 2208.3333333333335 401.1462457022081, 2216.6666666666665 408.2756048164715, 2225 408.2756048164715 C 2233.3333333333335 408.2756048164715, 2241.6666666666665 389.0128478547771, 2250 389.0128478547771 C 2258.3333333333335 389.0128478547771, 2266.6666666666665 396.5182803918784, 2275 396.5182803918784 C 2283.3333333333335 396.5182803918784, 2291.6666666666665 391.76002228451154, 2300 391.76002228451154 C 2308.3333333333335 391.76002228451154, 2316.6666666666665 410.9461903588234, 2325 410.9461903588234 C 2333.3333333333335 410.9461903588234, 2341.6666666666665 383.4450749932853, 2350 383.4450749932853 C 2358.3333333333335 383.4450749932853, 2366.6666666666665 393.7370570107205, 2375 395.66672139289483 C 2383.3333333333335 397.59638577506917, 2391.6666666666665 397.88974309386293, 2400 399.4594677604242 C 2408.3333333333335 401.0291924269855, 2416.6666666666665 405.66903777841344, 2425 405.66903777841344 C 2433.3333333333335 405.66903777841344, 2441.6666666666665 384.11090625322515, 2450 384.11090625322515 C 2458.3333333333335 384.11090625322515, 2466.6666666666665 389.1019262904824, 2475 391.03794757432047 C 2483.3333333333335 392.9739688581585, 2491.6666666666665 396.0382712550978, 2500 396.0382712550978 C 2508.3333333333335 396.0382712550978, 2516.6666666666665 390.42983120380404, 2525 389.1158327722284 C 2533.3333333333335 387.8018343406527, 2541.6666666666665 387.20021769236655, 2550 386.3602490104445 C 2558.3333333333335 385.5202803285224, 2566.6666666666665 385.1046115435032, 2575 384.0388831811898 C 2583.3333333333335 382.9731548188764, 2591.6666666666665 380.81904271136625, 2600 378.9046063916363 C 2608.3333333333335 376.9901700719064, 2616.6666666666665 372.38833150240356, 2625 372.38833150240356 C 2633.3333333333335 372.38833150240356, 2641.6666666666665 372.5149028107678, 2650 372.6537377134512 C 2658.3333333333335 372.79257261613463, 2666.6666666666665 373.07821972403957, 2675 373.6208022494766 C 2683.3333333333335 374.1633847749136, 2691.6666666666665 378.7586352339756, 2700 378.7586352339756 C 2708.3333333333335 378.7586352339756, 2716.6666666666665 371.83773528089114, 2725 371.83773528089114 C 2733.3333333333335 371.83773528089114, 2741.6666666666665 379.6712404592967, 2750 380.6937648544844 C 2758.3333333333335 381.7162892496721, 2766.6666666666665 382.53477223642057, 2775 382.5488329614634 C 2783.3333333333335 382.56289368650624, 2791.6666666666665 382.5701666005809, 2800 382.5701666005809 C 2808.3333333333335 382.5701666005809, 2816.6666666666665 379.0930051586698, 2825 379.0930051586698 C 2833.3333333333335 379.0930051586698, 2841.6666666666665 380.3525346545614, 2850 380.3525346545614 C 2858.3333333333335 380.3525346545614, 2866.6666666666665 379.168865269979, 2875 378.7138937128505 C 2883.3333333333335 378.258922155722, 2891.6666666666665 377.9103916595303, 2900 377.544345809918 C 2908.3333333333335 377.1782999603057, 2916.6666666666665 376.5094000652888, 2925 376.5094000652888 C 2933.3333333333335 376.5094000652888, 2941.6666666666665 381.3772195045899, 2950 381.3772195045899 C 2958.3333333333335 381.3772195045899, 2966.6666666666665 375.58897020350696, 2975 375.58897020350696 C 2983.3333333333335 375.58897020350696, 2991.6666666666665 377.6570045337227, 3000 378.5779805442793 C 3008.3333333333335 379.49895655483584, 3016.6666666666665 381.14662206003504, 3025 381.14662206003504 C 3033.3333333333335 381.14662206003504, 3041.6666666666665 359.6764176454713, 3050 351.2877570976532 C 3058.3333333333335 342.89909654983506, 3066.6666666666665 329.5398663275596, 3075 329.5398663275596 C 3083.3333333333335 329.5398663275596, 3091.6666666666665 330.06202621289793, 3100 330.65363155331147 C 3108.3333333333335 331.245236893725, 3116.6666666666665 333.53917439625843, 3125 335.0200228905961 C 3133.3333333333335 336.5008713849338, 3141.6666666666665 337.9399028564936, 3150 339.54142607797667 C 3158.3333333333335 341.14294929945976, 3166.6666666666665 344.66700024470015, 3175 344.66700024470015 C 3183.3333333333335 344.66700024470015, 3191.6666666666665 340.75473286044144, 3200 340.75473286044144 C 3208.3333333333335 340.75473286044144, 3216.6666666666665 346.26929580059027, 3225 346.26929580059027 C 3233.3333333333335 346.26929580059027, 3241.6666666666665 343.3011653898538, 3250 342.55523969334376 C 3258.3333333333335 341.80931399683374, 3266.6666666666665 340.9539500914349, 3275 340.9539500914349 C 3283.3333333333335 340.9539500914349, 3291.6666666666665 345.28410643335644, 3300 345.28410643335644 C 3308.3333333333335 345.28410643335644, 3316.6666666666665 342.37547458790675, 3325 342.37547458790675 C 3333.3333333333335 342.37547458790675, 3341.6666666666665 343.18563256110474, 3350 343.86735111408893 C 3358.3333333333335 344.5490696670731, 3366.6666666666665 347.1180736724475, 3375 347.1180736724475 C 3383.3333333333335 347.1180736724475, 3391.6666666666665 339.14941846314656, 3400 338.9756407251085 C 3408.3333333333335 338.8018629870705, 3416.6666666666665 338.7063533245515, 3425 338.7063533245515 C 3433.3333333333335 338.7063533245515, 3441.6666666666665 347.9618741140419, 3450 347.9618741140419 C 3458.3333333333335 347.9618741140419, 3466.6666666666665 347.53487330416937, 3475 346.9109221756778 C 3483.3333333333335 346.2869710471862, 3491.6666666666665 340.6111932731634, 3500 338.35963444280185 C 3508.3333333333335 336.1080756124403, 3516.6666666666665 332.77771077316, 3525 332.77771077316 C 3533.3333333333335 332.77771077316, 3541.6666666666665 341.84812294443054, 3550 342.2716059679499 C 3558.3333333333335 342.6950889914692, 3566.6666666666665 342.9523802505589, 3575 342.9523802505589 C 3583.3333333333335 342.9523802505589, 3591.6666666666665 341.16103914990856, 3600 341.16103914990856 C 3608.3333333333335 341.16103914990856, 3616.6666666666665 343.8224922853987, 3625 344.00969409957804 C 3633.3333333333335 344.1968959137574, 3641.6666666666665 344.2857229562208, 3650 344.32120348200147 C 3658.3333333333335 344.3566840077821, 3666.6666666666665 344.3444108985431, 3675 344.3853905015293 C 3683.3333333333335 344.42637010451546, 3691.6666666666665 345.83722889480055, 3700 345.83722889480055 C 3708.3333333333335 345.83722889480055, 3716.6666666666665 342.7195691305103, 3725 342.7195691305103 C 3733.3333333333335 342.7195691305103, 3741.6666666666665 344.6661296724475, 3750 344.6661296724475 C 3758.3333333333335 344.6661296724475, 3766.6666666666665 341.02541591962324, 3775 341.02541591962324 C 3783.3333333333335 341.02541591962324, 3791.6666666666665 345.5978924688544, 3800 345.5978924688544 C 3808.3333333333335 345.5978924688544, 3816.6666666666665 345.0295466989752, 3825 344.21693739430816 C 3833.3333333333335 343.4043280896411, 3841.6666666666665 333.8290467166188, 3850 333.8290467166188 C 3858.3333333333335 333.8290467166188, 3866.6666666666665 350.50978739284415, 3875 350.50978739284415 C 3883.3333333333335 350.50978739284415, 3891.6666666666665 350.2824479517827, 3900 349.9978458844242 C 3908.3333333333335 349.7132438170657, 3916.6666666666665 347.4278375291175, 3925 347.4278375291175 C 3933.3333333333335 347.4278375291175, 3941.6666666666665 361.7677013868566, 3950 367.4048683770345 C 3958.3333333333335 373.04203536721246, 3966.6666666666665 377.4968212823963, 3975 382.06650171720366 C 3983.3333333333335 386.63618215201103, 3991.6666666666665 392.03600261170817, 4000 394.939182379332 C 4008.3333333333335 397.84236214695585, 4016.6666666666665 400.1360350577847, 4025 401.52032169972307 C 4033.3333333333335 402.90460834166146, 4041.6666666666665 404.3494570454789, 4050 404.55387476396845 C 4058.3333333333335 404.758292482458, 4066.6666666666665 404.8949796668935, 4075 404.8949796668935 C 4083.3333333333335 404.8949796668935, 4091.6666666666665 404.1932989610194, 4100 403.52257851342887 C 4108.333333333333 402.8518580658383, 4116.666666666667 402.0109759327608, 4125 399.75334817704953 C 4133.333333333333 397.49572042133826, 4141.666666666667 366.40785379898693, 4150 366.40785379898693 C 4158.333333333333 366.40785379898693, 4166.666666666667 372.76703900567384, 4175 372.76703900567384 C 4183.333333333333 372.76703900567384, 4191.666666666667 370.157142956229, 4200 370.157142956229 C 4208.333333333333 370.157142956229, 4216.666666666667 374.4887937408313, 4225 377.0573146820146 C 4233.333333333333 379.6258356231979, 4241.666666666667 384.15311873506073, 4250 385.78112444177367 C 4258.333333333333 387.4091301484866, 4266.666666666667 388.57421528098337, 4275 389.1724476359558 C 4283.333333333333 389.7706799909282, 4291.666666666667 390.31584018534977, 4300 390.39266808891307 C 4308.333333333333 390.46949599247637, 4316.666666666667 390.4382417612972, 4325 390.5199288967084 C 4333.333333333333 390.6016160321196, 4341.666666666667 392.0891874760156, 4350 393.8165485949987 C 4358.333333333333 395.54390971398186, 4366.666666666667 405.92247989736916, 4375 405.92247989736916 C 4383.333333333333 405.92247989736916, 4391.666666666667 399.23168129472674, 4400 399.23168129472674 C 4408.333333333333 399.23168129472674, 4416.666666666667 407.2387874836058, 4425 409.2445718535009 C 4433.333333333333 411.25035622339595, 4441.666666666667 411.26265865542246, 4450 413.54563247978666 C 4458.333333333333 415.82860630415087, 4466.666666666667 428.1696463398527, 4475 430.3478399778952 C 4483.333333333333 432.5260336159377, 4491.666666666667 434.4038450534857, 4500 434.4038450534857 C 4508.333333333333 434.4038450534857, 4516.666666666667 421.30895225865845, 4525 421.30895225865845 C 4533.333333333333 421.30895225865845, 4541.666666666667 443.40693642577264, 4550 443.40693642577264 C 4558.333333333333 443.40693642577264, 4566.666666666667 432.867141125277, 4575 432.867141125277 C 4583.333333333333 432.867141125277, 4591.666666666667 444.68809235866087, 4600 449.4413469309623 C 4608.333333333333 454.19460150326375, 4616.666666666667 461.95384967361, 4625 461.95384967361 C 4633.333333333333 461.95384967361, 4641.666666666667 461.5209111954326, 4650 460.92332269619055 C 4658.333333333333 460.32573419694853, 4666.666666666667 454.0371031790542, 4675 454.0371031790542 C 4683.333333333333 454.0371031790542, 4691.666666666667 478.02038272453797, 4700 478.02038272453797 C 4708.333333333333 478.02038272453797, 4716.666666666667 474.9950195993351, 4725 474.9950195993351 C 4733.333333333333 474.9950195993351, 4741.666666666667 482.22225131317737, 4750 484.16694440310425 C 4758.333333333333 486.11163749303114, 4766.666666666667 486.7690541830061, 4775 488.4443799528322 C 4783.333333333333 490.1197057226583, 4791.666666666667 493.5944325625884, 4800 494.53645732754546 C 4808.333333333333 495.47848209250253, 4816.666666666667 496.0041148207528, 4825 496.3762217273763 C 4833.333333333333 496.74832863399973, 4841.666666666667 496.8352946172235, 4850 497.1774704185782 C 4858.333333333333 497.5196462199329, 4866.666666666667 498.29308024644246, 4875 498.6055027291515 C 4883.333333333333 498.91792521186056, 4891.666666666667 499.0972995478413, 4900 499.3030481593796 C 4908.333333333333 499.5087967709179, 4916.666666666667 499.7819579596532, 4925 499.85657360077107 C 4933.333333333333 499.93118924188894, 4941.666666666667 499.9948190609789, 4950 499.9968639218579 C 4958.333333333333 499.99890878273686, 4966.666666666667 499.9999996251913, 4975 499.99999977510834 C 4983.333333333333 499.99999992502535, 4991.666666666667 500, 5000 500 C 5008.333333333333 500, 5016.666666666667 500, 5025 500 c 0 0, 0 0, 0 0C 5016.666666666667 500, 5008.333333333333 500, 5000 500 C 4991.666666666667 500, 4983.333333333333 500.00000007497465, 4975 500.00000022489166 C 4966.666666666667 500.0000003748087, 4958.333333333333 500.00109121726314, 4950 500.0031360781421 C 4941.666666666667 500.0051809390211, 4933.333333333333 500.06881075811106, 4925 500.14342639922893 C 4916.666666666667 500.2180420403468, 4908.333333333333 500.4912032290821, 4900 500.6969518406204 C 4891.666666666667 500.9027004521587, 4883.333333333333 501.08207478813944, 4875 501.3944972708485 C 4866.666666666667 501.70691975355754, 4858.333333333333 502.4803537800671, 4850 502.8225295814218 C 4841.666666666667 503.1647053827765, 4833.333333333333 503.25167136600027, 4825 503.6237782726237 C 4816.666666666667 503.9958851792472, 4808.333333333333 504.52151790749747, 4800 505.46354267245454 C 4791.666666666667 506.4055674374116, 4783.333333333333 509.8802942773417, 4775 511.5556200471678 C 4766.666666666667 513.2309458169939, 4758.333333333333 513.8883625069689, 4750 515.8330555968957 C 4741.666666666667 517.7777486868226, 4733.333333333333 525.0049804006649, 4725 525.0049804006649 C 4716.666666666667 525.0049804006649, 4708.333333333333 521.979617275462, 4700 521.979617275462 C 4691.666666666667 521.979617275462, 4683.333333333333 545.9628968209458, 4675 545.9628968209458 C 4666.666666666667 545.9628968209458, 4658.333333333333 539.6742658030514, 4650 539.0766773038094 C 4641.666666666667 538.4790888045675, 4633.333333333333 538.04615032639, 4625 538.04615032639 C 4616.666666666667 538.04615032639, 4608.333333333333 545.8053984967362, 4600 550.5586530690377 C 4591.666666666667 555.3119076413391, 4583.333333333333 567.1328588747231, 4575 567.1328588747231 C 4566.666666666667 567.1328588747231, 4558.333333333333 556.5930635742274, 4550 556.5930635742274 C 4541.666666666667 556.5930635742274, 4533.333333333333 578.6910477413415, 4525 578.6910477413415 C 4516.666666666667 578.6910477413415, 4508.333333333333 565.5961549465143, 4500 565.5961549465143 C 4491.666666666667 565.5961549465143, 4483.333333333333 567.4739663840624, 4475 569.6521600221048 C 4466.666666666667 571.8303536601472, 4458.333333333333 584.1713936958491, 4450 586.4543675202133 C 4441.666666666667 588.7373413445775, 4433.333333333333 588.749643776604, 4425 590.7554281464991 C 4416.666666666667 592.7612125163942, 4408.333333333333 600.7683187052733, 4400 600.7683187052733 C 4391.666666666667 600.7683187052733, 4383.333333333333 594.0775201026308, 4375 594.0775201026308 C 4366.666666666667 594.0775201026308, 4358.333333333333 604.4560902860181, 4350 606.1834514050013 C 4341.666666666667 607.9108125239844, 4333.333333333333 609.3983839678804, 4325 609.4800711032916 C 4316.666666666667 609.5617582387029, 4308.333333333333 609.5305040075236, 4300 609.6073319110869 C 4291.666666666667 609.6841598146502, 4283.333333333333 610.2293200090718, 4275 610.8275523640442 C 4266.666666666667 611.4257847190166, 4258.333333333333 612.5908698515134, 4250 614.2188755582263 C 4241.666666666667 615.8468812649393, 4233.333333333333 620.3741643768021, 4225 622.9426853179855 C 4216.666666666667 625.5112062591687, 4208.333333333333 629.842857043771, 4200 629.842857043771 C 4191.666666666667 629.842857043771, 4183.333333333333 627.2329609943262, 4175 627.2329609943262 C 4166.666666666667 627.2329609943262, 4158.333333333333 633.5921462010131, 4150 633.5921462010131 C 4141.666666666667 633.5921462010131, 4133.333333333333 602.5042795786617, 4125 600.2466518229505 C 4116.666666666667 597.9890240672391, 4108.333333333333 597.1481419341617, 4100 596.4774214865711 C 4091.6666666666665 595.8067010389806, 4083.3333333333335 595.1050203331065, 4075 595.1050203331065 C 4066.6666666666665 595.1050203331065, 4058.3333333333335 595.241707517542, 4050 595.4461252360315 C 4041.6666666666665 595.6505429545211, 4033.3333333333335 597.0953916583385, 4025 598.4796783002769 C 4016.6666666666665 599.8639649422153, 4008.3333333333335 602.1576378530442, 4000 605.060817620668 C 3991.6666666666665 607.9639973882918, 3983.3333333333335 613.3638178479889, 3975 617.9334982827963 C 3966.6666666666665 622.5031787176038, 3958.3333333333335 626.9579646327875, 3950 632.5951316229655 C 3941.6666666666665 638.2322986131435, 3933.3333333333335 652.5721624708825, 3925 652.5721624708825 C 3916.6666666666665 652.5721624708825, 3908.3333333333335 650.2867561829344, 3900 650.0021541155759 C 3891.6666666666665 649.7175520482174, 3883.3333333333335 649.4902126071559, 3875 649.4902126071559 C 3866.6666666666665 649.4902126071559, 3858.3333333333335 666.1709532833812, 3850 666.1709532833812 C 3841.6666666666665 666.1709532833812, 3833.3333333333335 656.5956719103589, 3825 655.7830626056918 C 3816.6666666666665 654.9704533010248, 3808.3333333333335 654.4021075311456, 3800 654.4021075311456 C 3791.6666666666665 654.4021075311456, 3783.3333333333335 658.9745840803768, 3775 658.9745840803768 C 3766.6666666666665 658.9745840803768, 3758.3333333333335 655.3338703275525, 3750 655.3338703275525 C 3741.6666666666665 655.3338703275525, 3733.3333333333335 657.2804308694897, 3725 657.2804308694897 C 3716.6666666666665 657.2804308694897, 3708.3333333333335 654.1627711051995, 3700 654.1627711051995 C 3691.6666666666665 654.1627711051995, 3683.3333333333335 655.5736298954846, 3675 655.6146094984707 C 3666.6666666666665 655.6555891014568, 3658.3333333333335 655.6433159922178, 3650 655.6787965179985 C 3641.6666666666665 655.7142770437792, 3633.3333333333335 655.8031040862427, 3625 655.990305900422 C 3616.6666666666665 656.1775077146012, 3608.3333333333335 658.8389608500914, 3600 658.8389608500914 C 3591.6666666666665 658.8389608500914, 3583.3333333333335 657.0476197494411, 3575 657.0476197494411 C 3566.6666666666665 657.0476197494411, 3558.3333333333335 657.3049110085308, 3550 657.7283940320501 C 3541.6666666666665 658.1518770555695, 3533.3333333333335 667.2222892268401, 3525 667.2222892268401 C 3516.6666666666665 667.2222892268401, 3508.3333333333335 663.8919243875597, 3500 661.6403655571982 C 3491.6666666666665 659.3888067268366, 3483.3333333333335 653.7130289528138, 3475 653.0890778243222 C 3466.6666666666665 652.4651266958306, 3458.3333333333335 652.0381258859582, 3450 652.0381258859582 C 3441.6666666666665 652.0381258859582, 3433.3333333333335 661.2936466754485, 3425 661.2936466754485 C 3416.6666666666665 661.2936466754485, 3408.3333333333335 661.1981370129295, 3400 661.0243592748915 C 3391.6666666666665 660.8505815368535, 3383.3333333333335 652.8819263275525, 3375 652.8819263275525 C 3366.6666666666665 652.8819263275525, 3358.3333333333335 655.4509303329269, 3350 656.1326488859111 C 3341.6666666666665 656.8143674388953, 3333.3333333333335 657.6245254120932, 3325 657.6245254120932 C 3316.6666666666665 657.6245254120932, 3308.3333333333335 654.7158935666436, 3300 654.7158935666436 C 3291.6666666666665 654.7158935666436, 3283.3333333333335 659.0460499085651, 3275 659.0460499085651 C 3266.6666666666665 659.0460499085651, 3258.3333333333335 658.1906860031663, 3250 657.4447603066562 C 3241.6666666666665 656.6988346101462, 3233.3333333333335 653.7307041994097, 3225 653.7307041994097 C 3216.6666666666665 653.7307041994097, 3208.3333333333335 659.2452671395586, 3200 659.2452671395586 C 3191.6666666666665 659.2452671395586, 3183.3333333333335 655.3329997552999, 3175 655.3329997552999 C 3166.6666666666665 655.3329997552999, 3158.3333333333335 658.8570507005402, 3150 660.4585739220233 C 3141.6666666666665 662.0600971435065, 3133.3333333333335 663.4991286150662, 3125 664.9799771094039 C 3116.6666666666665 666.4608256037416, 3108.3333333333335 668.754763106275, 3100 669.3463684466885 C 3091.6666666666665 669.937973787102, 3083.3333333333335 670.4601336724404, 3075 670.4601336724404 C 3066.6666666666665 670.4601336724404, 3058.3333333333335 657.1009034501649, 3050 648.7122429023468 C 3041.6666666666665 640.3235823545288, 3033.3333333333335 618.853377939965, 3025 618.853377939965 C 3016.6666666666665 618.853377939965, 3008.3333333333335 620.5010434451642, 3000 621.4220194557207 C 2991.6666666666665 622.3429954662772, 2983.3333333333335 624.411029796493, 2975 624.411029796493 C 2966.6666666666665 624.411029796493, 2958.3333333333335 618.6227804954101, 2950 618.6227804954101 C 2941.6666666666665 618.6227804954101, 2933.3333333333335 623.4905999347112, 2925 623.4905999347112 C 2916.6666666666665 623.4905999347112, 2908.3333333333335 622.8217000396943, 2900 622.455654190082 C 2891.6666666666665 622.0896083404697, 2883.3333333333335 621.7410778442779, 2875 621.2861062871496 C 2866.6666666666665 620.831134730021, 2858.3333333333335 619.6474653454386, 2850 619.6474653454386 C 2841.6666666666665 619.6474653454386, 2833.3333333333335 620.9069948413302, 2825 620.9069948413302 C 2816.6666666666665 620.9069948413302, 2808.3333333333335 617.4298333994191, 2800 617.4298333994191 C 2791.6666666666665 617.4298333994191, 2783.3333333333335 617.4371063134938, 2775 617.4511670385366 C 2766.6666666666665 617.4652277635794, 2758.3333333333335 618.2837107503278, 2750 619.3062351455155 C 2741.6666666666665 620.3287595407032, 2733.3333333333335 628.1622647191089, 2725 628.1622647191089 C 2716.6666666666665 628.1622647191089, 2708.3333333333335 621.2413647660244, 2700 621.2413647660244 C 2691.6666666666665 621.2413647660244, 2683.3333333333335 625.8366152250865, 2675 626.3791977505234 C 2666.6666666666665 626.9217802759604, 2658.3333333333335 627.2074273838654, 2650 627.3462622865488 C 2641.6666666666665 627.4850971892322, 2633.3333333333335 627.6116684975964, 2625 627.6116684975964 C 2616.6666666666665 627.6116684975964, 2608.3333333333335 623.0098299280936, 2600 621.0953936083637 C 2591.6666666666665 619.1809572886337, 2583.3333333333335 617.0268451811236, 2575 615.9611168188102 C 2566.6666666666665 614.8953884564968, 2558.3333333333335 614.4797196714776, 2550 613.6397509895555 C 2541.6666666666665 612.7997823076334, 2533.3333333333335 612.1981656593473, 2525 610.8841672277716 C 2516.6666666666665 609.570168796196, 2508.3333333333335 603.9617287449022, 2500 603.9617287449022 C 2491.6666666666665 603.9617287449022, 2483.3333333333335 607.0260311418415, 2475 608.9620524256795 C 2466.6666666666665 610.8980737095176, 2458.3333333333335 615.8890937467748, 2450 615.8890937467748 C 2441.6666666666665 615.8890937467748, 2433.3333333333335 594.3309622215866, 2425 594.3309622215866 C 2416.6666666666665 594.3309622215866, 2408.3333333333335 598.9708075730146, 2400 600.5405322395758 C 2391.6666666666665 602.110256906137, 2383.3333333333335 602.4036142249308, 2375 604.3332786071052 C 2366.6666666666665 606.2629429892795, 2358.3333333333335 616.5549250067147, 2350 616.5549250067147 C 2341.6666666666665 616.5549250067147, 2333.3333333333335 589.0538096411766, 2325 589.0538096411766 C 2316.6666666666665 589.0538096411766, 2308.3333333333335 608.2399777154885, 2300 608.2399777154885 C 2291.6666666666665 608.2399777154885, 2283.3333333333335 603.4817196081216, 2275 603.4817196081216 C 2266.6666666666665 603.4817196081216, 2258.3333333333335 610.9871521452229, 2250 610.9871521452229 C 2241.6666666666665 610.9871521452229, 2233.3333333333335 591.7243951835285, 2225 591.7243951835285 C 2216.6666666666665 591.7243951835285, 2208.3333333333335 598.853754297792, 2200 598.853754297792 C 2191.6666666666665 598.853754297792, 2183.3333333333335 588.3017191477265, 2175 584.2073562784562 C 2166.6666666666665 580.112993409186, 2158.3333333333335 577.1951860985854, 2150 573.6308660367506 C 2141.6666666666665 570.0665459749158, 2133.3333333333335 562.81884217485, 2125 562.81884217485 C 2116.6666666666665 562.81884217485, 2108.3333333333335 571.1894126493851, 2100 573.8920113411674 C 2091.6666666666665 576.5946100329497, 2083.3333333333335 580.2871908308125, 2075 580.2871908308125 C 2066.6666666666665 580.2871908308125, 2058.3333333333335 574.1394342088386, 2050 574.1394342088386 C 2041.6666666666667 574.1394342088386, 2033.3333333333333 581.3520217414647, 2025 583.2399015668832 C 2016.6666666666667 585.1277813923018, 2008.3333333333333 585.2750322281743, 2000 587.3509769779208 C 1991.6666666666667 589.4269217276674, 1983.3333333333333 600.1890071055382, 1975 600.1890071055382 C 1966.6666666666667 600.1890071055382, 1958.3333333333333 590.1930138673322, 1950 590.1930138673322 C 1941.6666666666667 590.1930138673322, 1933.3333333333333 602.5285006882343, 1925 604.7321557876381 C 1916.6666666666667 606.935810887042, 1908.3333333333333 607.1081840654414, 1900 609.010270353002 C 1891.6666666666667 610.9123566405627, 1883.3333333333333 617.5759839774167, 1875 617.5759839774167 C 1866.6666666666667 617.5759839774167, 1858.3333333333333 612.8119999965959, 1850 612.8119999965959 C 1841.6666666666667 612.8119999965959, 1833.3333333333333 621.6439569314855, 1825 622.8295368749748 C 1816.6666666666667 624.0151168184641, 1808.3333333333333 624.9917562217781, 1800 624.9917562217781 C 1791.6666666666667 624.9917562217781, 1783.3333333333333 621.6624640006414, 1775 621.6624640006414 C 1766.6666666666667 621.6624640006414, 1758.3333333333333 625.0858315185739, 1750 627.9389549013074 C 1741.6666666666667 630.792078284041, 1733.3333333333333 638.7408560157376, 1725 641.3911414223708 C 1716.6666666666667 644.041426829004, 1708.3333333333333 644.4932867350831, 1700 647.0342314027389 C 1691.6666666666667 649.5751760703947, 1683.3333333333333 658.7765944446278, 1675 658.7765944446278 C 1666.6666666666667 658.7765944446278, 1658.3333333333333 645.8895787060444, 1650 645.8895787060444 C 1641.6666666666667 645.8895787060444, 1633.3333333333333 646.0027411734923, 1625 646.1664680868425 C 1616.6666666666667 646.3301950001928, 1608.3333333333333 648.3391043397953, 1600 648.3391043397953 C 1591.6666666666667 648.3391043397953, 1583.3333333333333 643.7407518619643, 1575 643.7407518619643 C 1566.6666666666667 643.7407518619643, 1558.3333333333333 645.8277235220083, 1550 647.057760167181 C 1541.6666666666667 648.2877968123535, 1533.3333333333333 649.2522943549968, 1525 651.2155432272114 C 1516.6666666666667 653.1787920994259, 1508.3333333333333 661.3103951632505, 1500 661.3103951632505 C 1491.6666666666667 661.3103951632505, 1483.3333333333333 658.1314075912768, 1475 656.6633688520822 C 1466.6666666666667 655.1953301128875, 1458.3333333333333 652.4780293616415, 1450 652.4780293616415 C 1441.6666666666667 652.4780293616415, 1433.3333333333333 657.3740228290745, 1425 657.3740228290745 C 1416.6666666666667 657.3740228290745, 1408.3333333333333 639.5424295102218, 1400 638.3242210646338 C 1391.6666666666667 637.1060126190457, 1383.3333333333333 636.3030298244955, 1375 636.3030298244955 C 1366.6666666666667 636.3030298244955, 1358.3333333333333 636.4865469274976, 1350 636.6643417826429 C 1341.6666666666667 636.8421366377881, 1333.3333333333333 637.0836405922058, 1325 637.682725226196 C 1316.6666666666667 638.2818098601861, 1308.3333333333333 643.3237041572263, 1300 645.32445545051 C 1291.6666666666667 647.3252067437938, 1283.3333333333333 650.2664427393148, 1275 650.2664427393148 C 1266.6666666666667 650.2664427393148, 1258.3333333333333 649.4542929333356, 1250 649.4542929333356 C 1241.6666666666667 649.4542929333356, 1233.3333333333333 650.661080230132, 1225 650.661080230132 C 1216.6666666666667 650.661080230132, 1208.3333333333333 640.695794983135, 1200 640.695794983135 C 1191.6666666666667 640.695794983135, 1183.3333333333333 653.2561048915898, 1175 653.2561048915898 C 1166.6666666666667 653.2561048915898, 1158.3333333333333 638.9149602701032, 1150 638.9149602701032 C 1141.6666666666667 638.9149602701032, 1133.3333333333333 641.347982531111, 1125 642.2996352262614 C 1116.6666666666667 643.251287921412, 1108.3333333333333 643.4789620519621, 1100 644.7682447983511 C 1091.6666666666667 646.0575275447402, 1083.3333333333333 650.7150623867982, 1075 653.6970525130996 C 1066.6666666666667 656.6790426394009, 1058.3333333333333 662.6602516622572, 1050 662.6602516622572 C 1041.6666666666667 662.6602516622572, 1033.3333333333333 656.9712199554714, 1025 656.9712199554714 C 1016.6666666666666 656.9712199554714, 1008.3333333333334 660.12463997531, 1000 660.12463997531 C 991.6666666666666 660.12463997531, 983.3333333333334 628.8905439575324, 975 628.8905439575324 C 966.6666666666666 628.8905439575324, 958.3333333333334 640.5500356236822, 950 640.5500356236822 C 941.6666666666666 640.5500356236822, 933.3333333333334 632.7482976730591, 925 632.7482976730591 C 916.6666666666666 632.7482976730591, 908.3333333333334 637.7159606091061, 900 637.7159606091061 C 891.6666666666666 637.7159606091061, 883.3333333333334 634.4598658396164, 875 633.4856002084231 C 866.6666666666666 632.5113345772297, 858.3333333333334 631.2529071552635, 850 631.2529071552635 C 841.6666666666666 631.2529071552635, 833.3333333333334 632.6985110495496, 825 633.6483181941078 C 816.6666666666666 634.598125338666, 808.3333333333334 637.1640971640952, 800 637.1640971640952 C 791.6666666666666 637.1640971640952, 783.3333333333334 632.6879694031495, 775 632.6879694031495 C 766.6666666666666 632.6879694031495, 758.3333333333334 633.6011362939995, 750 633.6011362939995 C 741.6666666666666 633.6011362939995, 733.3333333333334 623.892651766163, 725 623.892651766163 C 716.6666666666666 623.892651766163, 708.3333333333334 630.8999113777236, 700 633.079214781193 C 691.6666666666666 635.2585181846623, 683.3333333333334 638.1539785243932, 675 638.1539785243932 C 666.6666666666666 638.1539785243932, 658.3333333333334 627.4111619105686, 650 627.4111619105686 C 641.6666666666666 627.4111619105686, 633.3333333333334 631.5167632567127, 625 632.8651923293763 C 616.6666666666666 634.21362140204, 608.3333333333334 636.0800906726124, 600 636.0800906726124 C 591.6666666666666 636.0800906726124, 583.3333333333334 633.9823193613117, 575 633.3200084457317 C 566.6666666666666 632.6576975301516, 558.3333333333334 632.4116253335555, 550 631.7678606628998 C 541.6666666666666 631.1240959922441, 533.3333333333334 629.9321400142633, 525 629.2123195306447 C 516.6666666666666 628.4924990470261, 508.3333333333333 627.8621522372873, 500 627.3426374442288 C 491.6666666666667 626.8231226511703, 483.3333333333333 626.0064506968847, 475 626.0064506968847 C 466.6666666666667 626.0064506968847, 458.3333333333333 631.1373400654073, 450 631.1373400654073 C 441.6666666666667 631.1373400654073, 433.3333333333333 630.6371160634759, 425 629.9410466027986 C 416.6666666666667 629.2449771421212, 408.3333333333333 621.7337991081304, 400 621.7337991081304 C 391.6666666666667 621.7337991081304, 383.3333333333333 627.0608428477494, 375 627.0608428477494 C 366.6666666666667 627.0608428477494, 358.3333333333333 613.334265389111, 350 606.9870132155082 C 341.6666666666667 600.6397610419054, 333.3333333333333 593.0971633521469, 325 588.8763935969331 C 316.6666666666667 584.6556238417193, 308.3333333333333 583.0360842628444, 300 579.1424087818276 C 291.6666666666667 575.2487333008108, 283.3333333333333 569.1199795398804, 275 564.5406669572599 C 266.6666666666667 559.9613543746391, 258.3333333333333 555.6564789455115, 250 551.5700404124997 C 241.66666666666666 547.4836018794879, 233.33333333333334 544.2209944810988, 225 539.9480749971467 C 216.66666666666666 535.6751555131945, 208.33333333333334 529.6358948659349, 200 525.6577436739458 C 191.66666666666666 521.6795924819568, 183.33333333333334 518.3851101166415, 175 515.4123301362267 C 166.66666666666666 512.439550155812, 158.33333333333334 509.4539029087321, 150 507.51669977531446 C 141.66666666666666 505.5794966418968, 133.33333333333334 503.9687021576017, 125 502.9187115142201 C 116.66666666666667 501.8687208708385, 108.33333333333333 500.80213820394357, 100 500.52315693977584 C 91.66666666666667 500.2441756756081, 83.33333333333333 500.0265199717178, 75 500.0161107366002 C 66.66666666666667 500.0057015014826, 58.333333333333336 500.00000133091027, 50 500.000000798562 C 41.666666666666664 500.0000002662137, 33.333333333333336 500, 25 500 C 8.333333333333334 500, 16.666666666666664 500, 25 500 Z" fill="white" stroke="transparent" stroke-width="0" />
  </g>
</svg>