<svg 
  baseProfile="tiny"
  preserveAspectRatio="keep"
  version="1.2"
  viewBox="-0.000000 -0.000000 5025.000000 1000.000000"
  height="100%" width="100%"
  xmlns="http://www.w3.org/2000/svg"
  xmlns:ev="http://www.w3.org/2001/xml-events"
  xmlns:xlink="http://www.w3.org/1999/xlink"
>
  <g style="transform-origin: center center;">
    <path d="M 0 500 C 8.333333333333334 500, 16.666666666666664 500, 25 500 C 33.333333333333336 500, 41.666666666666664 499.99999995405756, 50 499.9999998621798 C 58.333333333333336 499.999999770302, 66.66666666666667 499.9980202854036, 75 499.99459659055145 C 83.33333333333333 499.9911728956993, 91.66666666666667 499.9468169329098, 100 499.89095188416263 C 108.33333333333333 499.83508683541544, 116.66666666666667 499.6510528959702, 125 499.45334839025185 C 133.33333333333334 499.25564388453347, 141.66666666666666 498.9959469707378, 150 498.53326843668304 C 158.33333333333334 498.0705899026283, 166.66666666666666 496.6557999476015, 175 495.7085945177122 C 183.33333333333334 494.76138908782286, 191.66666666666666 494.0945355797876, 200 492.84983139055976 C 208.33333333333334 491.6051272013319, 216.66666666666666 490.12242520105417, 225 487.46772507903444 C 233.33333333333334 484.8130249570147, 241.66666666666666 474.7118299732123, 250 472.1598977807665 C 258.3333333333333 469.6079655883208, 266.6666666666667 468.48384967278156, 275 467.0556148301248 C 283.3333333333333 465.62737998746803, 291.6666666666667 463.36370799901937, 300 463.36370799901937 C 308.3333333333333 463.36370799901937, 316.6666666666667 463.7874626171204, 325 463.7874626171204 C 333.3333333333333 463.7874626171204, 341.6666666666667 443.91222331439747, 350 443.91222331439747 C 358.3333333333333 443.91222331439747, 366.6666666666667 449.7291527942217, 375 449.7291527942217 C 383.3333333333333 449.7291527942217, 391.6666666666667 442.39673365744653, 400 442.39673365744653 C 408.3333333333333 442.39673365744653, 416.6666666666667 457.9892848298919, 425 457.9892848298919 C 433.3333333333333 457.9892848298919, 441.6666666666667 393.9056424084207, 450 386.8352680336992 C 458.3333333333333 379.7648936589777, 466.6666666666667 377.32445436787003, 475 374.3720548500814 C 483.3333333333333 371.41965533229273, 491.6666666666667 367.50245569703736, 500 367.50245569703736 C 508.3333333333333 367.50245569703736, 516.6666666666666 375.2265296614214, 525 375.2265296614214 C 533.3333333333334 375.2265296614214, 541.6666666666666 364.35113066810555, 550 364.35113066810555 C 558.3333333333334 364.35113066810555, 566.6666666666666 366.3422335341095, 575 366.3422335341095 C 583.3333333333334 366.3422335341095, 591.6666666666666 357.9341035302957, 600 357.9341035302957 C 608.3333333333334 357.9341035302957, 616.6666666666666 362.3020501922823, 625 362.3020501922823 C 633.3333333333334 362.3020501922823, 641.6666666666666 354.18869124204593, 650 354.18869124204593 C 658.3333333333334 354.18869124204593, 666.6666666666666 370.42734395692185, 675 370.42734395692185 C 683.3333333333334 370.42734395692185, 691.6666666666666 361.74185810502956, 700 361.74185810502956 C 708.3333333333334 361.74185810502956, 716.6666666666666 381.6675837058965, 725 381.6675837058965 C 733.3333333333334 381.6675837058965, 741.6666666666666 353.29544086394014, 750 353.29544086394014 C 758.3333333333334 353.29544086394014, 766.6666666666666 389.15128688027295, 775 389.15128688027295 C 783.3333333333334 389.15128688027295, 791.6666666666666 361.0438194543127, 800 361.0438194543127 C 808.3333333333334 361.0438194543127, 816.6666666666666 375.69603418707254, 825 375.69603418707254 C 833.3333333333334 375.69603418707254, 841.6666666666666 373.33728733780174, 850 371.18835376652316 C 858.3333333333334 369.0394201952446, 866.6666666666666 359.8745764309278, 875 359.8745764309278 C 883.3333333333334 359.8745764309278, 891.6666666666666 374.56066995061826, 900 374.56066995061826 C 908.3333333333334 374.56066995061826, 916.6666666666666 364.70512437490913, 925 364.70512437490913 C 933.3333333333334 364.70512437490913, 941.6666666666666 385.68792575653043, 950 385.68792575653043 C 958.3333333333334 385.68792575653043, 966.6666666666666 360.6707335992141, 975 360.6707335992141 C 983.3333333333334 360.6707335992141, 991.6666666666666 375.04168657312556, 1000 375.04168657312556 C 1008.3333333333334 375.04168657312556, 1016.6666666666666 363.29721283548423, 1025 363.29721283548423 C 1033.3333333333333 363.29721283548423, 1041.6666666666667 372.25182506364746, 1050 372.25182506364746 C 1058.3333333333333 372.25182506364746, 1066.6666666666667 367.99981224937494, 1075 367.99981224937494 C 1083.3333333333333 367.99981224937494, 1091.6666666666667 402.8435520064203, 1100 402.8435520064203 C 1108.3333333333333 402.8435520064203, 1116.6666666666667 392.70108324106025, 1125 389.7771473186686 C 1133.3333333333333 386.85321139627695, 1141.6666666666667 383.1752246465293, 1150 383.1752246465293 C 1158.3333333333333 383.1752246465293, 1166.6666666666667 383.6255265793593, 1175 383.6255265793593 C 1183.3333333333333 383.6255265793593, 1191.6666666666667 378.57306672618006, 1200 378.57306672618006 C 1208.3333333333333 378.57306672618006, 1216.6666666666667 390.74633233918166, 1225 394.66858917352585 C 1233.3333333333333 398.59084600787, 1241.6666666666667 402.0872468749346, 1250 403.94149234416057 C 1258.3333333333333 405.79573781338655, 1266.6666666666667 407.9145677674625, 1275 407.9145677674625 C 1283.3333333333333 407.9145677674625, 1291.6666666666667 391.472054771718, 1300 391.472054771718 C 1308.3333333333333 391.472054771718, 1316.6666666666667 397.04556245354377, 1325 397.04556245354377 C 1333.3333333333333 397.04556245354377, 1341.6666666666667 387.91015586349374, 1350 385.9101012322547 C 1358.3333333333333 383.91004660101567, 1366.6666666666667 383.91941198874633, 1375 381.80367975477884 C 1383.3333333333333 379.68794752081135, 1391.6666666666667 367.8330436731227, 1400 367.8330436731227 C 1408.3333333333333 367.8330436731227, 1416.6666666666667 369.609409770548, 1425 369.64442591406896 C 1433.3333333333333 369.67944205758994, 1441.6666666666667 369.6648715951245, 1450 369.6985186432104 C 1458.3333333333333 369.73216569129625, 1466.6666666666667 370.452238313075, 1475 370.452238313075 C 1483.3333333333333 370.452238313075, 1491.6666666666667 355.99570656215343, 1500 355.99570656215343 C 1508.3333333333333 355.99570656215343, 1516.6666666666667 380.3777827117529, 1525 380.3777827117529 C 1533.3333333333333 380.3777827117529, 1541.6666666666667 357.0542577517705, 1550 357.0542577517705 C 1558.3333333333333 357.0542577517705, 1566.6666666666667 388.53259744135715, 1575 388.53259744135715 C 1583.3333333333333 388.53259744135715, 1591.6666666666667 354.0254105257773, 1600 354.0254105257773 C 1608.3333333333333 354.0254105257773, 1616.6666666666667 379.13567769276557, 1625 379.13567769276557 C 1633.3333333333333 379.13567769276557, 1641.6666666666667 373.4119704600842, 1650 371.4039793236591 C 1658.3333333333333 369.39598818723397, 1666.6666666666667 366.4698277594154, 1675 366.4698277594154 C 1683.3333333333333 366.4698277594154, 1691.6666666666667 375.76854173187127, 1700 375.76854173187127 C 1708.3333333333333 375.76854173187127, 1716.6666666666667 363.64926547964126, 1725 363.64926547964126 C 1733.3333333333333 363.64926547964126, 1741.6666666666667 384.32686821875774, 1750 384.32686821875774 C 1758.3333333333333 384.32686821875774, 1766.6666666666667 370.4791166010799, 1775 368.9860949149378 C 1783.3333333333333 367.49307322879565, 1791.6666666666667 367.6499414694709, 1800 366.3637355958281 C 1808.3333333333333 365.07752972218526, 1816.6666666666667 359.0636313819958, 1825 359.0636313819958 C 1833.3333333333333 359.0636313819958, 1841.6666666666667 373.1374545353314, 1850 373.1374545353314 C 1858.3333333333333 373.1374545353314, 1866.6666666666667 360.0415971245018, 1875 360.0415971245018 C 1883.3333333333333 360.0415971245018, 1891.6666666666667 371.68652044816093, 1900 374.0347583898808 C 1908.3333333333333 376.3829963316006, 1916.6666666666667 378.74202887753677, 1925 378.74202887753677 C 1933.3333333333333 378.74202887753677, 1941.6666666666667 377.14559920933266, 1950 374.9778556437062 C 1958.3333333333333 372.8101120780798, 1966.6666666666667 351.09832162390296, 1975 351.09832162390296 C 1983.3333333333333 351.09832162390296, 1991.6666666666667 382.39721122814, 2000 382.39721122814 C 2008.3333333333333 382.39721122814, 2016.6666666666667 351.79496400618405, 2025 351.79496400618405 C 2033.3333333333333 351.79496400618405, 2041.6666666666667 371.5205841772559, 2050 371.5205841772559 C 2058.3333333333335 371.5205841772559, 2066.6666666666665 370.94329942158316, 2075 370.0654285703984 C 2083.3333333333335 369.18755771921366, 2091.6666666666665 356.21528534466563, 2100 356.21528534466563 C 2108.3333333333335 356.21528534466563, 2116.6666666666665 373.9944073316377, 2125 373.9944073316377 C 2133.3333333333335 373.9944073316377, 2141.6666666666665 364.9194380740595, 2150 364.9194380740595 C 2158.3333333333335 364.9194380740595, 2166.6666666666665 379.348196233717, 2175 379.348196233717 C 2183.3333333333335 379.348196233717, 2191.6666666666665 354.54325794499374, 2200 354.54325794499374 C 2208.3333333333335 354.54325794499374, 2216.6666666666665 362.86508522288614, 2225 362.86508522288614 C 2233.3333333333335 362.86508522288614, 2241.6666666666665 351.5356247037271, 2250 351.5356247037271 C 2258.3333333333335 351.5356247037271, 2266.6666666666665 368.1664573838655, 2275 368.1664573838655 C 2283.3333333333335 368.1664573838655, 2291.6666666666665 358.7853220238857, 2300 358.7853220238857 C 2308.3333333333335 358.7853220238857, 2316.6666666666665 371.6831533399136, 2325 371.6831533399136 C 2333.3333333333335 371.6831533399136, 2341.6666666666665 357.39074575797383, 2350 357.39074575797383 C 2358.3333333333335 357.39074575797383, 2366.6666666666665 371.89605464496606, 2375 371.89605464496606 C 2383.3333333333335 371.89605464496606, 2391.6666666666665 341.0146155363261, 2400 341.0146155363261 C 2408.3333333333335 341.0146155363261, 2416.6666666666665 358.14521934950955, 2425 358.14521934950955 C 2433.3333333333335 358.14521934950955, 2441.6666666666665 351.57904109558217, 2450 348.520021098817 C 2458.3333333333335 345.4610011020518, 2466.6666666666665 339.7512262047069, 2475 339.7512262047069 C 2483.3333333333335 339.7512262047069, 2491.6666666666665 350.5856779257092, 2500 351.071630596648 C 2508.3333333333335 351.5575832675868, 2516.6666666666665 351.3470625009193, 2525 351.85072612632536 C 2533.3333333333335 352.3543897517314, 2541.6666666666665 376.79143946294954, 2550 376.79143946294954 C 2558.3333333333335 376.79143946294954, 2566.6666666666665 357.21664008743977, 2575 357.21664008743977 C 2583.3333333333335 357.21664008743977, 2591.6666666666665 360.8412435411509, 2600 360.8412435411509 C 2608.3333333333335 360.8412435411509, 2616.6666666666665 345.3747264460991, 2625 345.3747264460991 C 2633.3333333333335 345.3747264460991, 2641.6666666666665 359.9063775653899, 2650 359.9063775653899 C 2658.3333333333335 359.9063775653899, 2666.6666666666665 345.0570860772755, 2675 345.0570860772755 C 2683.3333333333335 345.0570860772755, 2691.6666666666665 350.6981872579863, 2700 350.6981872579863 C 2708.3333333333335 350.6981872579863, 2716.6666666666665 341.0252446218244, 2725 341.0252446218244 C 2733.3333333333335 341.0252446218244, 2741.6666666666665 354.7841561088583, 2750 354.7841561088583 C 2758.3333333333335 354.7841561088583, 2766.6666666666665 350.19745429797456, 2775 350.19745429797456 C 2783.3333333333335 350.19745429797456, 2791.6666666666665 371.1303075317496, 2800 371.1303075317496 C 2808.3333333333335 371.1303075317496, 2816.6666666666665 339.18663679516396, 2825 339.18663679516396 C 2833.3333333333335 339.18663679516396, 2841.6666666666665 367.2599595925775, 2850 367.2599595925775 C 2858.3333333333335 367.2599595925775, 2866.6666666666665 360.88403008497795, 2875 359.0775463558251 C 2883.3333333333335 357.2710626266723, 2891.6666666666665 355.0261376125612, 2900 355.0261376125612 C 2908.3333333333335 355.0261376125612, 2916.6666666666665 363.1536605653205, 2925 363.1536605653205 C 2933.3333333333335 363.1536605653205, 2941.6666666666665 351.21774500383964, 2950 351.21774500383964 C 2958.3333333333335 351.21774500383964, 2966.6666666666665 364.3525563584734, 2975 364.3525563584734 C 2983.3333333333335 364.3525563584734, 2991.6666666666665 355.0682986073948, 3000 354.6619666047633 C 3008.3333333333335 354.25563460213175, 3016.6666666666665 354.38078776564606, 3025 354.0115607642857 C 3033.3333333333335 353.6423337629254, 3041.6666666666665 350.2812253970571, 3050 350.2812253970571 C 3058.3333333333335 350.2812253970571, 3066.6666666666665 356.7919742667751, 3075 356.7919742667751 C 3083.3333333333335 356.7919742667751, 3091.6666666666665 345.1332385662731, 3100 345.1332385662731 C 3108.3333333333335 345.1332385662731, 3116.6666666666665 358.3358422797911, 3125 358.3358422797911 C 3133.3333333333335 358.3358422797911, 3141.6666666666665 353.3294552113402, 3150 353.3294552113402 C 3158.3333333333335 353.3294552113402, 3166.6666666666665 357.99889751134504, 3175 357.99889751134504 C 3183.3333333333335 357.99889751134504, 3191.6666666666665 341.80533582064413, 3200 341.80533582064413 C 3208.3333333333335 341.80533582064413, 3216.6666666666665 370.6637243021813, 3225 370.6637243021813 C 3233.3333333333335 370.6637243021813, 3241.6666666666665 350.5112622967954, 3250 350.5112622967954 C 3258.3333333333335 350.5112622967954, 3266.6666666666665 356.8930128167144, 3275 356.8930128167144 C 3283.3333333333335 356.8930128167144, 3291.6666666666665 356.36969731973574, 3300 355.6886814808371 C 3308.3333333333335 355.00766564193844, 3316.6666666666665 348.95891081624677, 3325 348.95891081624677 C 3333.3333333333335 348.95891081624677, 3341.6666666666665 355.00321789527084, 3350 355.00321789527084 C 3358.3333333333335 355.00321789527084, 3366.6666666666665 349.75933250970115, 3375 349.75933250970115 C 3383.3333333333335 349.75933250970115, 3391.6666666666665 372.731727484347, 3400 372.731727484347 C 3408.3333333333335 372.731727484347, 3416.6666666666665 344.8847957831195, 3425 344.8847957831195 C 3433.3333333333335 344.8847957831195, 3441.6666666666665 361.76243533052, 3450 361.76243533052 C 3458.3333333333335 361.76243533052, 3466.6666666666665 346.18367304916694, 3475 346.18367304916694 C 3483.3333333333335 346.18367304916694, 3491.6666666666665 356.18898140909664, 3500 356.18898140909664 C 3508.3333333333335 356.18898140909664, 3516.6666666666665 347.2770116390276, 3525 347.2770116390276 C 3533.3333333333335 347.2770116390276, 3541.6666666666665 356.9861696034361, 3550 356.9861696034361 C 3558.3333333333335 356.9861696034361, 3566.6666666666665 350.71028407634856, 3575 350.71028407634856 C 3583.3333333333335 350.71028407634856, 3591.6666666666665 378.0873237980432, 3600 378.0873237980432 C 3608.3333333333335 378.0873237980432, 3616.6666666666665 345.0098620336173, 3625 345.0098620336173 C 3633.3333333333335 345.0098620336173, 3641.6666666666665 362.9709956966289, 3650 362.9709956966289 C 3658.3333333333335 362.9709956966289, 3666.6666666666665 352.6319352806675, 3675 352.6319352806675 C 3683.3333333333335 352.6319352806675, 3691.6666666666665 356.77418006101766, 3700 356.77418006101766 C 3708.3333333333335 356.77418006101766, 3716.6666666666665 354.8927826808592, 3725 354.0310278944487 C 3733.3333333333335 353.16927310803817, 3741.6666666666665 351.5864653954942, 3750 351.5864653954942 C 3758.3333333333335 351.5864653954942, 3766.6666666666665 356.40791178031265, 3775 357.9343598167503 C 3783.3333333333335 359.460807853188, 3791.6666666666665 359.85829442540467, 3800 361.51587781879095 C 3808.3333333333335 363.17346121217724, 3816.6666666666665 369.64723405338253, 3825 369.64723405338253 C 3833.3333333333335 369.64723405338253, 3841.6666666666665 352.37452767239563, 3850 352.37452767239563 C 3858.3333333333335 352.37452767239563, 3866.6666666666665 362.95908769195637, 3875 362.95908769195637 C 3883.3333333333335 362.95908769195637, 3891.6666666666665 348.92148146952366, 3900 348.92148146952366 C 3908.3333333333335 348.92148146952366, 3916.6666666666665 355.46583399463447, 3925 355.46583399463447 C 3933.3333333333335 355.46583399463447, 3941.6666666666665 346.3161185878199, 3950 346.3161185878199 C 3958.3333333333335 346.3161185878199, 3966.6666666666665 361.8808243949436, 3975 361.8808243949436 C 3983.3333333333335 361.8808243949436, 3991.6666666666665 345.5709953592518, 4000 345.5709953592518 C 4008.3333333333335 345.5709953592518, 4016.6666666666665 375.255468031928, 4025 375.255468031928 C 4033.3333333333335 375.255468031928, 4041.6666666666665 349.92605345057933, 4050 349.92605345057933 C 4058.3333333333335 349.92605345057933, 4066.6666666666665 372.1885517284769, 4075 372.1885517284769 C 4083.3333333333335 372.1885517284769, 4091.6666666666665 361.401042860089, 4100 359.4332507008924 C 4108.333333333333 357.46545854169585, 4116.666666666667 355.5928631992093, 4125 355.5928631992093 C 4133.333333333333 355.5928631992093, 4141.666666666667 364.21665422385274, 4150 364.21665422385274 C 4158.333333333333 364.21665422385274, 4166.666666666667 362.3903336968975, 4175 362.3903336968975 C 4183.333333333333 362.3903336968975, 4191.666666666667 375.00881582280147, 4200 375.00881582280147 C 4208.333333333333 375.00881582280147, 4216.666666666667 357.283196239987, 4225 357.283196239987 C 4233.333333333333 357.283196239987, 4241.666666666667 366.7555684625723, 4250 366.7555684625723 C 4258.333333333333 366.7555684625723, 4266.666666666667 356.51273874080135, 4275 356.51273874080135 C 4283.333333333333 356.51273874080135, 4291.666666666667 368.7930077472314, 4300 368.7930077472314 C 4308.333333333333 368.7930077472314, 4316.666666666667 347.37841989935623, 4325 347.37841989935623 C 4333.333333333333 347.37841989935623, 4341.666666666667 359.3881956096603, 4350 359.3881956096603 C 4358.333333333333 359.3881956096603, 4366.666666666667 352.96514698958913, 4375 352.96514698958913 C 4383.333333333333 352.96514698958913, 4391.666666666667 369.4446393476955, 4400 369.4446393476955 C 4408.333333333333 369.4446393476955, 4416.666666666667 348.8371505915961, 4425 348.8371505915961 C 4433.333333333333 348.8371505915961, 4441.666666666667 375.07144881204385, 4450 375.07144881204385 C 4458.333333333333 375.07144881204385, 4466.666666666667 353.7978352174989, 4475 353.7978352174989 C 4483.333333333333 353.7978352174989, 4491.666666666667 375.5652732820171, 4500 382.59383874307946 C 4508.333333333333 389.62240420414184, 4516.666666666667 399.22613535918885, 4525 399.22613535918885 C 4533.333333333333 399.22613535918885, 4541.666666666667 387.71805311741997, 4550 387.71805311741997 C 4558.333333333333 387.71805311741997, 4566.666666666667 387.85992066344954, 4575 387.85992066344954 C 4583.333333333333 387.85992066344954, 4591.666666666667 373.66093373635545, 4600 373.66093373635545 C 4608.333333333333 373.66093373635545, 4616.666666666667 383.1921470653287, 4625 387.51601389460996 C 4633.333333333333 391.8398807238912, 4641.666666666667 394.038185649549, 4650 399.71005229654287 C 4658.333333333333 405.38191894353673, 4666.666666666667 424.51158974582637, 4675 427.85376613535266 C 4683.333333333333 431.19594252487894, 4691.666666666667 432.42206540859894, 4700 433.95359940300557 C 4708.333333333333 435.4851333974122, 4716.666666666667 435.89905240801636, 4725 437.6388154635558 C 4733.333333333333 439.3785785190952, 4741.666666666667 442.8590634823863, 4750 446.58020553779573 C 4758.333333333333 450.30134759320515, 4766.666666666667 456.97404532454493, 4775 461.4352865739901 C 4783.333333333333 465.89652782343524, 4791.666666666667 472.56386160984675, 4800 473.61285383645003 C 4808.333333333333 474.6618460630533, 4816.666666666667 474.42000984600895, 4825 475.41982455364564 C 4833.333333333333 476.4196392612823, 4841.666666666667 481.60748311099206, 4850 484.2398919431994 C 4858.333333333333 486.8723007754067, 4866.666666666667 489.1332986957353, 4875 491.389099127669 C 4883.333333333333 493.6448995596027, 4891.666666666667 496.8210900072916, 4900 497.8134079815069 C 4908.333333333333 498.80572595572215, 4916.666666666667 499.60647063084315, 4925 499.75075834707775 C 4933.333333333333 499.89504606331235, 4941.666666666667 499.99076615451366, 4950 499.9944094663701 C 4958.333333333333 499.9980527782265, 4966.666666666667 499.9999997049084, 4975 499.9999998229428 C 4983.333333333333 499.9999999409772, 4991.666666666667 500, 5000 500 C 5008.333333333333 500, 5016.666666666667 500, 5025 500 c 0 0, 0 0, 0 0C 5016.666666666667 500, 5008.333333333333 500, 5000 500 C 4991.666666666667 500, 4983.333333333333 500.0000000590228, 4975 500.0000001770572 C 4966.666666666667 500.0000002950916, 4958.333333333333 500.0019472217735, 4950 500.0055905336299 C 4941.666666666667 500.00923384548634, 4933.333333333333 500.10495393668765, 4925 500.24924165292225 C 4916.666666666667 500.39352936915685, 4908.333333333333 501.19427404427785, 4900 502.1865920184931 C 4891.666666666667 503.1789099927084, 4883.333333333333 506.3551004403973, 4875 508.610900872331 C 4866.666666666667 510.8667013042647, 4858.333333333333 513.1276992245932, 4850 515.7601080568006 C 4841.666666666667 518.392516889008, 4833.333333333333 523.5803607387177, 4825 524.5801754463544 C 4816.666666666667 525.579990153991, 4808.333333333333 525.3381539369467, 4800 526.3871461635499 C 4791.666666666667 527.4361383901532, 4783.333333333333 534.1034721765648, 4775 538.5647134260099 C 4766.666666666667 543.0259546754551, 4758.333333333333 549.6986524067948, 4750 553.4197944622042 C 4741.666666666667 557.1409365176137, 4733.333333333333 560.6214214809048, 4725 562.3611845364442 C 4716.666666666667 564.1009475919836, 4708.333333333333 564.5148666025877, 4700 566.0464005969944 C 4691.666666666667 567.5779345914011, 4683.333333333333 568.804057475121, 4675 572.1462338646473 C 4666.666666666667 575.4884102541737, 4658.333333333333 594.6180810564633, 4650 600.2899477034571 C 4641.666666666667 605.961814350451, 4633.333333333333 608.1601192761088, 4625 612.48398610539 C 4616.666666666667 616.8078529346712, 4608.333333333333 626.3390662636446, 4600 626.3390662636446 C 4591.666666666667 626.3390662636446, 4583.333333333333 612.1400793365505, 4575 612.1400793365505 C 4566.666666666667 612.1400793365505, 4558.333333333333 612.2819468825801, 4550 612.2819468825801 C 4541.666666666667 612.2819468825801, 4533.333333333333 600.7738646408111, 4525 600.7738646408111 C 4516.666666666667 600.7738646408111, 4508.333333333333 610.3775957958582, 4500 617.4061612569205 C 4491.666666666667 624.4347267179829, 4483.333333333333 646.2021647825011, 4475 646.2021647825011 C 4466.666666666667 646.2021647825011, 4458.333333333333 624.9285511879561, 4450 624.9285511879561 C 4441.666666666667 624.9285511879561, 4433.333333333333 651.1628494084039, 4425 651.1628494084039 C 4416.666666666667 651.1628494084039, 4408.333333333333 630.5553606523044, 4400 630.5553606523044 C 4391.666666666667 630.5553606523044, 4383.333333333333 647.0348530104109, 4375 647.0348530104109 C 4366.666666666667 647.0348530104109, 4358.333333333333 640.6118043903398, 4350 640.6118043903398 C 4341.666666666667 640.6118043903398, 4333.333333333333 652.6215801006438, 4325 652.6215801006438 C 4316.666666666667 652.6215801006438, 4308.333333333333 631.2069922527686, 4300 631.2069922527686 C 4291.666666666667 631.2069922527686, 4283.333333333333 643.4872612591987, 4275 643.4872612591987 C 4266.666666666667 643.4872612591987, 4258.333333333333 633.2444315374278, 4250 633.2444315374278 C 4241.666666666667 633.2444315374278, 4233.333333333333 642.716803760013, 4225 642.716803760013 C 4216.666666666667 642.716803760013, 4208.333333333333 624.9911841771985, 4200 624.9911841771985 C 4191.666666666667 624.9911841771985, 4183.333333333333 637.6096663031025, 4175 637.6096663031025 C 4166.666666666667 637.6096663031025, 4158.333333333333 635.7833457761473, 4150 635.7833457761473 C 4141.666666666667 635.7833457761473, 4133.333333333333 644.4071368007907, 4125 644.4071368007907 C 4116.666666666667 644.4071368007907, 4108.333333333333 642.5345414583041, 4100 640.5667492991076 C 4091.6666666666665 638.598957139911, 4083.3333333333335 627.8114482715231, 4075 627.8114482715231 C 4066.6666666666665 627.8114482715231, 4058.3333333333335 650.0739465494207, 4050 650.0739465494207 C 4041.6666666666665 650.0739465494207, 4033.3333333333335 624.744531968072, 4025 624.744531968072 C 4016.6666666666665 624.744531968072, 4008.3333333333335 654.4290046407482, 4000 654.4290046407482 C 3991.6666666666665 654.4290046407482, 3983.3333333333335 638.1191756050564, 3975 638.1191756050564 C 3966.6666666666665 638.1191756050564, 3958.3333333333335 653.6838814121801, 3950 653.6838814121801 C 3941.6666666666665 653.6838814121801, 3933.3333333333335 644.5341660053655, 3925 644.5341660053655 C 3916.6666666666665 644.5341660053655, 3908.3333333333335 651.0785185304763, 3900 651.0785185304763 C 3891.6666666666665 651.0785185304763, 3883.3333333333335 637.0409123080436, 3875 637.0409123080436 C 3866.6666666666665 637.0409123080436, 3858.3333333333335 647.6254723276044, 3850 647.6254723276044 C 3841.6666666666665 647.6254723276044, 3833.3333333333335 630.3527659466174, 3825 630.3527659466174 C 3816.6666666666665 630.3527659466174, 3808.3333333333335 636.8265387878228, 3800 638.484122181209 C 3791.6666666666665 640.1417055745953, 3783.3333333333335 640.539192146812, 3775 642.0656401832497 C 3766.6666666666665 643.5920882196874, 3758.3333333333335 648.4135346045058, 3750 648.4135346045058 C 3741.6666666666665 648.4135346045058, 3733.3333333333335 646.8307268919618, 3725 645.9689721055513 C 3716.6666666666665 645.1072173191408, 3708.3333333333335 643.2258199389823, 3700 643.2258199389823 C 3691.6666666666665 643.2258199389823, 3683.3333333333335 647.3680647193326, 3675 647.3680647193326 C 3666.6666666666665 647.3680647193326, 3658.3333333333335 637.029004303371, 3650 637.029004303371 C 3641.6666666666665 637.029004303371, 3633.3333333333335 654.9901379663827, 3625 654.9901379663827 C 3616.6666666666665 654.9901379663827, 3608.3333333333335 621.9126762019569, 3600 621.9126762019569 C 3591.6666666666665 621.9126762019569, 3583.3333333333335 649.2897159236514, 3575 649.2897159236514 C 3566.6666666666665 649.2897159236514, 3558.3333333333335 643.0138303965639, 3550 643.0138303965639 C 3541.6666666666665 643.0138303965639, 3533.3333333333335 652.7229883609724, 3525 652.7229883609724 C 3516.6666666666665 652.7229883609724, 3508.3333333333335 643.8110185909034, 3500 643.8110185909034 C 3491.6666666666665 643.8110185909034, 3483.3333333333335 653.8163269508331, 3475 653.8163269508331 C 3466.6666666666665 653.8163269508331, 3458.3333333333335 638.23756466948, 3450 638.23756466948 C 3441.6666666666665 638.23756466948, 3433.3333333333335 655.1152042168806, 3425 655.1152042168806 C 3416.6666666666665 655.1152042168806, 3408.3333333333335 627.268272515653, 3400 627.268272515653 C 3391.6666666666665 627.268272515653, 3383.3333333333335 650.2406674902988, 3375 650.2406674902988 C 3366.6666666666665 650.2406674902988, 3358.3333333333335 644.9967821047292, 3350 644.9967821047292 C 3341.6666666666665 644.9967821047292, 3333.3333333333335 651.0410891837532, 3325 651.0410891837532 C 3316.6666666666665 651.0410891837532, 3308.3333333333335 644.9923343580615, 3300 644.3113185191629 C 3291.6666666666665 643.6303026802643, 3283.3333333333335 643.1069871832856, 3275 643.1069871832856 C 3266.6666666666665 643.1069871832856, 3258.3333333333335 649.4887377032046, 3250 649.4887377032046 C 3241.6666666666665 649.4887377032046, 3233.3333333333335 629.3362756978187, 3225 629.3362756978187 C 3216.6666666666665 629.3362756978187, 3208.3333333333335 658.1946641793559, 3200 658.1946641793559 C 3191.6666666666665 658.1946641793559, 3183.3333333333335 642.001102488655, 3175 642.001102488655 C 3166.6666666666665 642.001102488655, 3158.3333333333335 646.6705447886598, 3150 646.6705447886598 C 3141.6666666666665 646.6705447886598, 3133.3333333333335 641.6641577202089, 3125 641.6641577202089 C 3116.6666666666665 641.6641577202089, 3108.3333333333335 654.8667614337269, 3100 654.8667614337269 C 3091.6666666666665 654.8667614337269, 3083.3333333333335 643.2080257332249, 3075 643.2080257332249 C 3066.6666666666665 643.2080257332249, 3058.3333333333335 649.7187746029429, 3050 649.7187746029429 C 3041.6666666666665 649.7187746029429, 3033.3333333333335 646.3576662370747, 3025 645.9884392357143 C 3016.6666666666665 645.6192122343539, 3008.3333333333335 645.7443653978683, 3000 645.3380333952367 C 2991.6666666666665 644.9317013926052, 2983.3333333333335 635.6474436415266, 2975 635.6474436415266 C 2966.6666666666665 635.6474436415266, 2958.3333333333335 648.7822549961604, 2950 648.7822549961604 C 2941.6666666666665 648.7822549961604, 2933.3333333333335 636.8463394346795, 2925 636.8463394346795 C 2916.6666666666665 636.8463394346795, 2908.3333333333335 644.9738623874389, 2900 644.9738623874389 C 2891.6666666666665 644.9738623874389, 2883.3333333333335 642.7289373733277, 2875 640.9224536441749 C 2866.6666666666665 639.1159699150221, 2858.3333333333335 632.7400404074225, 2850 632.7400404074225 C 2841.6666666666665 632.7400404074225, 2833.3333333333335 660.813363204836, 2825 660.813363204836 C 2816.6666666666665 660.813363204836, 2808.3333333333335 628.8696924682504, 2800 628.8696924682504 C 2791.6666666666665 628.8696924682504, 2783.3333333333335 649.8025457020254, 2775 649.8025457020254 C 2766.6666666666665 649.8025457020254, 2758.3333333333335 645.2158438911417, 2750 645.2158438911417 C 2741.6666666666665 645.2158438911417, 2733.3333333333335 658.9747553781756, 2725 658.9747553781756 C 2716.6666666666665 658.9747553781756, 2708.3333333333335 649.3018127420137, 2700 649.3018127420137 C 2691.6666666666665 649.3018127420137, 2683.3333333333335 654.9429139227245, 2675 654.9429139227245 C 2666.6666666666665 654.9429139227245, 2658.3333333333335 640.0936224346101, 2650 640.0936224346101 C 2641.6666666666665 640.0936224346101, 2633.3333333333335 654.6252735539009, 2625 654.6252735539009 C 2616.6666666666665 654.6252735539009, 2608.3333333333335 639.1587564588491, 2600 639.1587564588491 C 2591.6666666666665 639.1587564588491, 2583.3333333333335 642.7833599125602, 2575 642.7833599125602 C 2566.6666666666665 642.7833599125602, 2558.3333333333335 623.2085605370505, 2550 623.2085605370505 C 2541.6666666666665 623.2085605370505, 2533.3333333333335 647.6456102482687, 2525 648.1492738736747 C 2516.6666666666665 648.6529374990807, 2508.3333333333335 648.4424167324132, 2500 648.928369403352 C 2491.6666666666665 649.4143220742908, 2483.3333333333335 660.2487737952931, 2475 660.2487737952931 C 2466.6666666666665 660.2487737952931, 2458.3333333333335 654.5389988979482, 2450 651.479978901183 C 2441.6666666666665 648.4209589044178, 2433.3333333333335 641.8547806504905, 2425 641.8547806504905 C 2416.6666666666665 641.8547806504905, 2408.3333333333335 658.9853844636739, 2400 658.9853844636739 C 2391.6666666666665 658.9853844636739, 2383.3333333333335 628.1039453550339, 2375 628.1039453550339 C 2366.6666666666665 628.1039453550339, 2358.3333333333335 642.6092542420262, 2350 642.6092542420262 C 2341.6666666666665 642.6092542420262, 2333.3333333333335 628.3168466600864, 2325 628.3168466600864 C 2316.6666666666665 628.3168466600864, 2308.3333333333335 641.2146779761142, 2300 641.2146779761142 C 2291.6666666666665 641.2146779761142, 2283.3333333333335 631.8335426161345, 2275 631.8335426161345 C 2266.6666666666665 631.8335426161345, 2258.3333333333335 648.4643752962729, 2250 648.4643752962729 C 2241.6666666666665 648.4643752962729, 2233.3333333333335 637.1349147771139, 2225 637.1349147771139 C 2216.6666666666665 637.1349147771139, 2208.3333333333335 645.4567420550063, 2200 645.4567420550063 C 2191.6666666666665 645.4567420550063, 2183.3333333333335 620.651803766283, 2175 620.651803766283 C 2166.6666666666665 620.651803766283, 2158.3333333333335 635.0805619259405, 2150 635.0805619259405 C 2141.6666666666665 635.0805619259405, 2133.3333333333335 626.0055926683623, 2125 626.0055926683623 C 2116.6666666666665 626.0055926683623, 2108.3333333333335 643.7847146553344, 2100 643.7847146553344 C 2091.6666666666665 643.7847146553344, 2083.3333333333335 630.8124422807864, 2075 629.9345714296016 C 2066.6666666666665 629.0567005784169, 2058.3333333333335 628.4794158227442, 2050 628.4794158227442 C 2041.6666666666667 628.4794158227442, 2033.3333333333333 648.205035993816, 2025 648.205035993816 C 2016.6666666666667 648.205035993816, 2008.3333333333333 617.60278877186, 2000 617.60278877186 C 1991.6666666666667 617.60278877186, 1983.3333333333333 648.901678376097, 1975 648.901678376097 C 1966.6666666666667 648.901678376097, 1958.3333333333333 627.1898879219202, 1950 625.0221443562938 C 1941.6666666666667 622.8544007906673, 1933.3333333333333 621.2579711224632, 1925 621.2579711224632 C 1916.6666666666667 621.2579711224632, 1908.3333333333333 623.6170036683993, 1900 625.9652416101192 C 1891.6666666666667 628.313479551839, 1883.3333333333333 639.9584028754982, 1875 639.9584028754982 C 1866.6666666666667 639.9584028754982, 1858.3333333333333 626.8625454646685, 1850 626.8625454646685 C 1841.6666666666667 626.8625454646685, 1833.3333333333333 640.9363686180043, 1825 640.9363686180043 C 1816.6666666666667 640.9363686180043, 1808.3333333333333 634.9224702778147, 1800 633.6362644041719 C 1791.6666666666667 632.3500585305292, 1783.3333333333333 632.5069267712043, 1775 631.0139050850622 C 1766.6666666666667 629.5208833989201, 1758.3333333333333 615.6731317812423, 1750 615.6731317812423 C 1741.6666666666667 615.6731317812423, 1733.3333333333333 636.3507345203587, 1725 636.3507345203587 C 1716.6666666666667 636.3507345203587, 1708.3333333333333 624.2314582681288, 1700 624.2314582681288 C 1691.6666666666667 624.2314582681288, 1683.3333333333333 633.5301722405845, 1675 633.5301722405845 C 1666.6666666666667 633.5301722405845, 1658.3333333333333 630.604011812766, 1650 628.5960206763409 C 1641.6666666666667 626.5880295399159, 1633.3333333333333 620.8643223072345, 1625 620.8643223072345 C 1616.6666666666667 620.8643223072345, 1608.3333333333333 645.9745894742227, 1600 645.9745894742227 C 1591.6666666666667 645.9745894742227, 1583.3333333333333 611.4674025586428, 1575 611.4674025586428 C 1566.6666666666667 611.4674025586428, 1558.3333333333333 642.9457422482295, 1550 642.9457422482295 C 1541.6666666666667 642.9457422482295, 1533.3333333333333 619.6222172882472, 1525 619.6222172882472 C 1516.6666666666667 619.6222172882472, 1508.3333333333333 644.0042934378466, 1500 644.0042934378466 C 1491.6666666666667 644.0042934378466, 1483.3333333333333 629.547761686925, 1475 629.547761686925 C 1466.6666666666667 629.547761686925, 1458.3333333333333 630.2678343087038, 1450 630.3014813567896 C 1441.6666666666667 630.3351284048755, 1433.3333333333333 630.32055794241, 1425 630.355574085931 C 1416.6666666666667 630.3905902294521, 1408.3333333333333 632.1669563268773, 1400 632.1669563268773 C 1391.6666666666667 632.1669563268773, 1383.3333333333333 620.3120524791887, 1375 618.1963202452212 C 1366.6666666666667 616.0805880112537, 1358.3333333333333 616.0899533989843, 1350 614.0898987677454 C 1341.6666666666667 612.0898441365063, 1333.3333333333333 602.9544375464562, 1325 602.9544375464562 C 1316.6666666666667 602.9544375464562, 1308.3333333333333 608.5279452282821, 1300 608.5279452282821 C 1291.6666666666667 608.5279452282821, 1283.3333333333333 592.0854322325375, 1275 592.0854322325375 C 1266.6666666666667 592.0854322325375, 1258.3333333333333 594.2042621866135, 1250 596.0585076558394 C 1241.6666666666667 597.9127531250654, 1233.3333333333333 601.40915399213, 1225 605.3314108264742 C 1216.6666666666667 609.2536676608183, 1208.3333333333333 621.4269332738199, 1200 621.4269332738199 C 1191.6666666666667 621.4269332738199, 1183.3333333333333 616.3744734206407, 1175 616.3744734206407 C 1166.6666666666667 616.3744734206407, 1158.3333333333333 616.8247753534707, 1150 616.8247753534707 C 1141.6666666666667 616.8247753534707, 1133.3333333333333 613.146788603723, 1125 610.2228526813315 C 1116.6666666666667 607.2989167589398, 1108.3333333333333 597.1564479935797, 1100 597.1564479935797 C 1091.6666666666667 597.1564479935797, 1083.3333333333333 632.0001877506251, 1075 632.0001877506251 C 1066.6666666666667 632.0001877506251, 1058.3333333333333 627.7481749363526, 1050 627.7481749363526 C 1041.6666666666667 627.7481749363526, 1033.3333333333333 636.7027871645157, 1025 636.7027871645157 C 1016.6666666666666 636.7027871645157, 1008.3333333333334 624.9583134268744, 1000 624.9583134268744 C 991.6666666666666 624.9583134268744, 983.3333333333334 639.3292664007859, 975 639.3292664007859 C 966.6666666666666 639.3292664007859, 958.3333333333334 614.3120742434696, 950 614.3120742434696 C 941.6666666666666 614.3120742434696, 933.3333333333334 635.2948756250909, 925 635.2948756250909 C 916.6666666666666 635.2948756250909, 908.3333333333334 625.4393300493817, 900 625.4393300493817 C 891.6666666666666 625.4393300493817, 883.3333333333334 640.1254235690722, 875 640.1254235690722 C 866.6666666666666 640.1254235690722, 858.3333333333334 630.9605798047554, 850 628.8116462334768 C 841.6666666666666 626.6627126621983, 833.3333333333334 624.3039658129275, 825 624.3039658129275 C 816.6666666666666 624.3039658129275, 808.3333333333334 638.9561805456873, 800 638.9561805456873 C 791.6666666666666 638.9561805456873, 783.3333333333334 610.8487131197271, 775 610.8487131197271 C 766.6666666666666 610.8487131197271, 758.3333333333334 646.7045591360599, 750 646.7045591360599 C 741.6666666666666 646.7045591360599, 733.3333333333334 618.3324162941035, 725 618.3324162941035 C 716.6666666666666 618.3324162941035, 708.3333333333334 638.2581418949704, 700 638.2581418949704 C 691.6666666666666 638.2581418949704, 683.3333333333334 629.5726560430782, 675 629.5726560430782 C 666.6666666666666 629.5726560430782, 658.3333333333334 645.8113087579541, 650 645.8113087579541 C 641.6666666666666 645.8113087579541, 633.3333333333334 637.6979498077177, 625 637.6979498077177 C 616.6666666666666 637.6979498077177, 608.3333333333334 642.0658964697043, 600 642.0658964697043 C 591.6666666666666 642.0658964697043, 583.3333333333334 633.6577664658905, 575 633.6577664658905 C 566.6666666666666 633.6577664658905, 558.3333333333334 635.6488693318945, 550 635.6488693318945 C 541.6666666666666 635.6488693318945, 533.3333333333334 624.7734703385786, 525 624.7734703385786 C 516.6666666666666 624.7734703385786, 508.3333333333333 632.4975443029626, 500 632.4975443029626 C 491.6666666666667 632.4975443029626, 483.3333333333333 628.5803446677073, 475 625.6279451499186 C 466.6666666666667 622.67554563213, 458.3333333333333 620.2351063410223, 450 613.1647319663008 C 441.6666666666667 606.0943575915793, 433.3333333333333 542.0107151701081, 425 542.0107151701081 C 416.6666666666667 542.0107151701081, 408.3333333333333 557.6032663425535, 400 557.6032663425535 C 391.6666666666667 557.6032663425535, 383.3333333333333 550.2708472057783, 375 550.2708472057783 C 366.6666666666667 550.2708472057783, 358.3333333333333 556.0877766856025, 350 556.0877766856025 C 341.6666666666667 556.0877766856025, 333.3333333333333 536.2125373828796, 325 536.2125373828796 C 316.6666666666667 536.2125373828796, 308.3333333333333 536.6362920009806, 300 536.6362920009806 C 291.6666666666667 536.6362920009806, 283.3333333333333 534.372620012532, 275 532.9443851698752 C 266.6666666666667 531.5161503272184, 258.3333333333333 530.3920344116792, 250 527.8401022192335 C 241.66666666666666 525.2881700267877, 233.33333333333334 515.1869750429853, 225 512.5322749209656 C 216.66666666666666 509.87757479894583, 208.33333333333334 508.3948727986681, 200 507.15016860944024 C 191.66666666666666 505.9054644202124, 183.33333333333334 505.23861091217714, 175 504.2914054822878 C 166.66666666666666 503.3442000523985, 158.33333333333334 501.9294100973717, 150 501.46673156331696 C 141.66666666666666 501.0040530292622, 133.33333333333334 500.74435611546653, 125 500.54665160974815 C 116.66666666666667 500.3489471040298, 108.33333333333333 500.16491316458456, 100 500.10904811583737 C 91.66666666666667 500.0531830670902, 83.33333333333333 500.0088271043007, 75 500.00540340944855 C 66.66666666666667 500.0019797145964, 58.333333333333336 500.000000229698, 50 500.0000001378202 C 41.666666666666664 500.00000004594244, 33.333333333333336 500, 25 500 C 8.333333333333334 500, 16.666666666666664 500, 25 500 Z" fill="white" stroke="transparent" stroke-width="0" />
  </g>
</svg>