<svg 
  baseProfile="tiny"
  preserveAspectRatio="keep"
  version="1.2"
  viewBox="-0.000000 -0.000000 5025.000000 1000.000000"
  height="100%" width="100%"
  xmlns="http://www.w3.org/2000/svg"
  xmlns:ev="http://www.w3.org/2001/xml-events"
  xmlns:xlink="http://www.w3.org/1999/xlink"
>
  <g style="transform-origin: center center;">
    <path d="M 0 500 C 8.333333333333334 500, 16.666666666666664 500, 25 500 C 33.333333333333336 500, 41.666666666666664 499.9999998919922, 50 499.9999996760046 C 58.333333333333336 499.999999460017, 66.66666666666667 499.99728649801824, 75 499.99248711280563 C 83.33333333333333 499.987687727593, 91.66666666666667 499.9175545349265, 100 499.819963829364 C 108.33333333333333 499.72237312380145, 116.66666666666667 499.2689201746375, 125 498.8537172847889 C 133.33333333333334 498.4385143949403, 141.66666666666666 498.0605742937946, 150 497.10150826899144 C 158.33333333333334 496.14244224418826, 166.66666666666666 493.26344799326205, 175 489.06373404248404 C 183.33333333333334 484.86402009170604, 191.66666666666666 465.323071645846, 200 459.93335049155814 C 208.33333333333334 454.54362933727026, 216.66666666666666 453.7470970633681, 225 448.74313931759974 C 233.33333333333334 443.7391815718314, 241.66666666666666 431.2902492953133, 250 425.94543123145644 C 258.3333333333333 420.6006131675996, 266.6666666666667 418.65463400190316, 275 413.579500575393 C 283.3333333333333 408.50436714888286, 291.6666666666667 399.99765042616707, 300 393.7744181770213 C 308.3333333333333 387.5511859278755, 316.6666666666667 379.55802849102906, 325 376.1169865682821 C 333.3333333333333 372.6759446455351, 341.6666666666667 372.5473126564755, 350 368.8233805270306 C 358.3333333333333 365.0994483975857, 366.6666666666667 344.96605570161654, 375 344.96605570161654 C 383.3333333333333 344.96605570161654, 391.6666666666667 345.0128149657503, 400 345.1001843787739 C 408.3333333333333 345.18755379179754, 416.6666666666667 350.8174672697884, 425 350.8174672697884 C 433.3333333333333 350.8174672697884, 441.6666666666667 335.95555119643984, 450 335.95555119643984 C 458.3333333333333 335.95555119643984, 466.6666666666667 341.8624341306536, 475 341.8624341306536 C 483.3333333333333 341.8624341306536, 491.6666666666667 332.10362247797855, 500 332.10362247797855 C 508.3333333333333 332.10362247797855, 516.6666666666666 345.15341491175786, 525 345.15341491175786 C 533.3333333333334 345.15341491175786, 541.6666666666666 337.0840471299009, 550 335.8869230856367 C 558.3333333333334 334.68979904137245, 566.6666666666666 333.65962514861275, 575 333.65962514861275 C 583.3333333333334 333.65962514861275, 591.6666666666666 339.94138784138966, 600 341.1540782121865 C 608.3333333333334 342.36676858298335, 616.6666666666666 343.55613525541787, 625 343.55613525541787 C 633.3333333333334 343.55613525541787, 641.6666666666666 332.45197000758503, 650 332.45197000758503 C 658.3333333333334 332.45197000758503, 666.6666666666666 339.0784769742761, 675 340.4219073962192 C 683.3333333333334 341.76533781816227, 691.6666666666666 343.11899323601915, 700 343.11899323601915 C 708.3333333333334 343.11899323601915, 716.6666666666666 343.0808896868243, 725 343.00961646100745 C 733.3333333333334 342.9383432351906, 741.6666666666666 338.26954536905004, 750 338.26954536905004 C 758.3333333333334 338.26954536905004, 766.6666666666666 338.68377694202815, 775 339.21672116272407 C 783.3333333333334 339.74966538342, 791.6666666666666 344.341183477045, 800 344.341183477045 C 808.3333333333334 344.341183477045, 816.6666666666666 335.7084258818953, 825 335.7084258818953 C 833.3333333333334 335.7084258818953, 841.6666666666666 337.3647066349311, 850 338.5422760285875 C 858.3333333333334 339.71984542224385, 866.6666666666666 343.01057595309385, 875 343.23136388921444 C 883.3333333333334 343.452151825335, 891.6666666666666 343.58771417810874, 900 343.58771417810874 C 908.3333333333334 343.58771417810874, 916.6666666666666 338.9430431142905, 925 338.9430431142905 C 933.3333333333334 338.9430431142905, 941.6666666666666 341.34644763007975, 950 342.5997608888406 C 958.3333333333334 343.85307414760143, 966.6666666666666 346.46891945555205, 975 346.46891945555205 C 983.3333333333334 346.46891945555205, 991.6666666666666 344.5259245887229, 1000 344.5259245887229 C 1008.3333333333334 344.5259245887229, 1016.6666666666666 345.19437643639463, 1025 345.764369194872 C 1033.3333333333333 346.3343619533494, 1041.6666666666667 346.9182226804129, 1050 348.5257242232603 C 1058.3333333333333 350.13322576610767, 1066.6666666666667 366.0192010526303, 1075 367.54392498047446 C 1083.3333333333333 369.0686489083186, 1091.6666666666667 370.1436476521793, 1100 370.1436476521793 C 1108.3333333333333 370.1436476521793, 1116.6666666666667 355.297705004776, 1125 354.3438019949448 C 1133.3333333333333 353.3898989851136, 1141.6666666666667 352.77046394589354, 1150 352.77046394589354 C 1158.3333333333333 352.77046394589354, 1166.6666666666667 358.216246971521, 1175 358.216246971521 C 1183.3333333333333 358.216246971521, 1191.6666666666667 349.5272435253978, 1200 349.5272435253978 C 1208.3333333333333 349.5272435253978, 1216.6666666666667 354.55286178962746, 1225 355.03458533987737 C 1233.3333333333333 355.5163088901273, 1241.6666666666667 355.86629420239274, 1250 355.86629420239274 C 1258.3333333333333 355.86629420239274, 1266.6666666666667 353.2950588473185, 1275 353.2950588473185 C 1283.3333333333333 353.2950588473185, 1291.6666666666667 355.7435508694449, 1300 355.7435508694449 C 1308.3333333333333 355.7435508694449, 1316.6666666666667 350.72864756174306, 1325 350.72864756174306 C 1333.3333333333333 350.72864756174306, 1341.6666666666667 360.1843966768864, 1350 360.1843966768864 C 1358.3333333333333 360.1843966768864, 1366.6666666666667 351.20064393007135, 1375 351.20064393007135 C 1383.3333333333333 351.20064393007135, 1391.6666666666667 354.50533093154684, 1400 354.50533093154684 C 1408.3333333333333 354.50533093154684, 1416.6666666666667 353.01915643607185, 1425 353.01915643607185 C 1433.3333333333333 353.01915643607185, 1441.6666666666667 358.91479403231517, 1450 358.91479403231517 C 1458.3333333333333 358.91479403231517, 1466.6666666666667 347.8880931551758, 1475 347.8880931551758 C 1483.3333333333333 347.8880931551758, 1491.6666666666667 354.02155570973997, 1500 354.02155570973997 C 1508.3333333333333 354.02155570973997, 1516.6666666666667 353.69956594832286, 1525 353.5350132572793 C 1533.3333333333333 353.3704605662357, 1541.6666666666667 353.0340283443553, 1550 353.0340283443553 C 1558.3333333333333 353.0340283443553, 1566.6666666666667 354.4344294019829, 1575 354.4344294019829 C 1583.3333333333333 354.4344294019829, 1591.6666666666667 348.932550297053, 1600 348.932550297053 C 1608.3333333333333 348.932550297053, 1616.6666666666667 359.3611447359767, 1625 359.3611447359767 C 1633.3333333333333 359.3611447359767, 1641.6666666666667 349.79726418796264, 1650 349.79726418796264 C 1658.3333333333333 349.79726418796264, 1666.6666666666667 353.5595754916259, 1675 353.5595754916259 C 1683.3333333333333 353.5595754916259, 1691.6666666666667 352.21141511778853, 1700 352.21141511778853 C 1708.3333333333333 352.21141511778853, 1716.6666666666667 355.2882549907407, 1725 355.2882549907407 C 1733.3333333333333 355.2882549907407, 1741.6666666666667 349.0730193723566, 1750 349.0730193723566 C 1758.3333333333333 349.0730193723566, 1766.6666666666667 355.901311582363, 1775 355.901311582363 C 1783.3333333333333 355.901311582363, 1791.6666666666667 354.94600041233696, 1800 354.27700950359514 C 1808.3333333333333 353.6080185948533, 1816.6666666666667 351.6514880412409, 1825 351.6514880412409 C 1833.3333333333333 351.6514880412409, 1841.6666666666667 352.78986689673627, 1850 352.78986689673627 C 1858.3333333333333 352.78986689673627, 1866.6666666666667 348.88613659131374, 1875 348.88613659131374 C 1883.3333333333333 348.88613659131374, 1891.6666666666667 355.83238675375236, 1900 355.83238675375236 C 1908.3333333333333 355.83238675375236, 1916.6666666666667 348.5242570054595, 1925 348.5242570054595 C 1933.3333333333333 348.5242570054595, 1941.6666666666667 352.1853759350335, 1950 352.1853759350335 C 1958.3333333333333 352.1853759350335, 1966.6666666666667 351.2979192183906, 1975 351.2979192183906 C 1983.3333333333333 351.2979192183906, 1991.6666666666667 353.24077486250974, 2000 353.24077486250974 C 2008.3333333333333 353.24077486250974, 2016.6666666666667 350.82180937821397, 2025 350.82180937821397 C 2033.3333333333333 350.82180937821397, 2041.6666666666667 355.726674262385, 2050 355.726674262385 C 2058.3333333333335 355.726674262385, 2066.6666666666665 353.1319123388596, 2075 353.1319123388596 C 2083.3333333333335 353.1319123388596, 2091.6666666666665 353.9222866667437, 2100 353.9222866667437 C 2108.3333333333335 353.9222866667437, 2116.6666666666665 349.11317416392814, 2125 349.11317416392814 C 2133.3333333333335 349.11317416392814, 2141.6666666666665 349.1319506275878, 2150 349.1688462573884 C 2158.3333333333335 349.205741887189, 2166.6666666666665 358.5438563199451, 2175 358.5438563199451 C 2183.3333333333335 358.5438563199451, 2191.6666666666665 349.31967931183584, 2200 348.10470960883333 C 2208.3333333333335 346.8897399058308, 2216.6666666666665 345.89680080542917, 2225 345.89680080542917 C 2233.3333333333335 345.89680080542917, 2241.6666666666665 346.2894322279098, 2250 346.83601568677983 C 2258.3333333333335 347.38259914564986, 2266.6666666666665 353.288512404797, 2275 353.288512404797 C 2283.3333333333335 353.288512404797, 2291.6666666666665 345.9723444969122, 2300 345.9723444969122 C 2308.3333333333335 345.9723444969122, 2316.6666666666665 350.1655876431102, 2325 350.92478250396186 C 2333.3333333333335 351.68397736481353, 2341.6666666666665 352.4036294251988, 2350 352.4036294251988 C 2358.3333333333335 352.4036294251988, 2366.6666666666665 349.2687382525228, 2375 349.2687382525228 C 2383.3333333333335 349.2687382525228, 2391.6666666666665 349.50228582128324, 2400 349.8057768114427 C 2408.3333333333335 350.10926780160213, 2416.6666666666665 352.79444855288165, 2425 352.79444855288165 C 2433.3333333333335 352.79444855288165, 2441.6666666666665 352.07782880577724, 2450 351.45589701127153 C 2458.3333333333335 350.8339652167658, 2466.6666666666665 348.7021975277695, 2475 348.3775787753548 C 2483.3333333333335 348.05296002294006, 2491.6666666666665 347.79915573758103, 2500 347.79915573758103 C 2508.3333333333335 347.79915573758103, 2516.6666666666665 356.9927968398508, 2525 356.9927968398508 C 2533.3333333333335 356.9927968398508, 2541.6666666666665 356.5609801377204, 2550 355.85365531776563 C 2558.3333333333335 355.1463304978109, 2566.6666666666665 340.3891865762385, 2575 340.3891865762385 C 2583.3333333333335 340.3891865762385, 2591.6666666666665 355.55448455710086, 2600 355.55448455710086 C 2608.3333333333335 355.55448455710086, 2616.6666666666665 354.00908014497264, 2625 352.60753589899883 C 2633.3333333333335 351.205991653025, 2641.6666666666665 345.56241962397706, 2650 345.2724878762512 C 2658.3333333333335 344.98255612852535, 2666.6666666666665 344.81017984615426, 2675 344.81017984615426 C 2683.3333333333335 344.81017984615426, 2691.6666666666665 347.92743004410903, 2700 349.9830458036024 C 2708.3333333333335 352.0386615630958, 2716.6666666666665 357.6167273064708, 2725 357.6167273064708 C 2733.3333333333335 357.6167273064708, 2741.6666666666665 346.1018394016887, 2750 346.1018394016887 C 2758.3333333333335 346.1018394016887, 2766.6666666666665 357.77859638583686, 2775 357.77859638583686 C 2783.3333333333335 357.77859638583686, 2791.6666666666665 355.3055519560183, 2800 353.97689485076626 C 2808.3333333333335 352.6482377455142, 2816.6666666666665 349.78788057247664, 2825 349.78788057247664 C 2833.3333333333335 349.78788057247664, 2841.6666666666665 351.3871551517145, 2850 351.9643907453976 C 2858.3333333333335 352.5416263390807, 2866.6666666666665 352.6953172539879, 2875 353.40224902992065 C 2883.3333333333335 354.1091808058534, 2891.6666666666665 355.0542933607881, 2900 357.44161494683647 C 2908.3333333333335 359.8289365328848, 2916.6666666666665 388.9979361863831, 2925 388.9979361863831 C 2933.3333333333335 388.9979361863831, 2941.6666666666665 351.82246977573834, 2950 351.82246977573834 C 2958.3333333333335 351.82246977573834, 2966.6666666666665 352.46072144303514, 2975 353.2748566922496 C 2983.3333333333335 354.0889919414641, 2991.6666666666665 360.9469220117677, 3000 360.9469220117677 C 3008.3333333333335 360.9469220117677, 3016.6666666666665 354.1194477574668, 3025 354.1194477574668 C 3033.3333333333335 354.1194477574668, 3041.6666666666665 355.6040701549041, 3050 355.6040701549041 C 3058.3333333333335 355.6040701549041, 3066.6666666666665 350.7600361132179, 3075 350.7600361132179 C 3083.3333333333335 350.7600361132179, 3091.6666666666665 358.59056054381495, 3100 358.59056054381495 C 3108.3333333333335 358.59056054381495, 3116.6666666666665 349.7012439600885, 3125 349.7012439600885 C 3133.3333333333335 349.7012439600885, 3141.6666666666665 351.5915682993471, 3150 352.5403746844129 C 3158.3333333333335 353.48918106947866, 3166.6666666666665 354.40981314358874, 3175 355.3941197875615 C 3183.3333333333335 356.3784264315343, 3191.6666666666665 358.4533558775181, 3200 358.4533558775181 C 3208.3333333333335 358.4533558775181, 3216.6666666666665 351.07856292445445, 3225 351.07856292445445 C 3233.3333333333335 351.07856292445445, 3241.6666666666665 352.3990971210541, 3250 353.468188338296 C 3258.3333333333335 354.53727955553785, 3266.6666666666665 358.34369336758436, 3275 358.34369336758436 C 3283.3333333333335 358.34369336758436, 3291.6666666666665 351.22535647096436, 3300 351.22535647096436 C 3308.3333333333335 351.22535647096436, 3316.6666666666665 353.5519998873641, 3325 353.5519998873641 C 3333.3333333333335 353.5519998873641, 3341.6666666666665 351.07226156398326, 3350 351.07226156398326 C 3358.3333333333335 351.07226156398326, 3366.6666666666665 359.42788925305683, 3375 359.42788925305683 C 3383.3333333333335 359.42788925305683, 3391.6666666666665 350.1551607536443, 3400 350.1551607536443 C 3408.3333333333335 350.1551607536443, 3416.6666666666665 354.0261602133696, 3425 354.0261602133696 C 3433.3333333333335 354.0261602133696, 3441.6666666666665 351.9562022124141, 3450 351.9562022124141 C 3458.3333333333335 351.9562022124141, 3466.6666666666665 355.82196440688233, 3475 355.82196440688233 C 3483.3333333333335 355.82196440688233, 3491.6666666666665 346.04459416903285, 3500 346.04459416903285 C 3508.3333333333335 346.04459416903285, 3516.6666666666665 356.4481277665942, 3525 356.4481277665942 C 3533.3333333333335 356.4481277665942, 3541.6666666666665 349.50812758709014, 3550 349.50812758709014 C 3558.3333333333335 349.50812758709014, 3566.6666666666665 351.1617326139933, 3575 352.43383076822295 C 3583.3333333333335 353.7059289224526, 3591.6666666666665 357.9201850330426, 3600 357.9201850330426 C 3608.3333333333335 357.9201850330426, 3616.6666666666665 357.8335753664904, 3625 357.69861114916216 C 3633.3333333333335 357.56364693183394, 3641.6666666666665 356.4468781181504, 3650 355.3534702278914 C 3658.3333333333335 354.26006233763246, 3666.6666666666665 349.89796001186, 3675 349.89796001186 C 3683.3333333333335 349.89796001186, 3691.6666666666665 352.4437228676868, 3700 352.4437228676868 C 3708.3333333333335 352.4437228676868, 3716.6666666666665 349.3938498236063, 3725 349.3938498236063 C 3733.3333333333335 349.3938498236063, 3741.6666666666665 356.8385041456918, 3750 356.8385041456918 C 3758.3333333333335 356.8385041456918, 3766.6666666666665 348.6274112458012, 3775 348.6274112458012 C 3783.3333333333335 348.6274112458012, 3791.6666666666665 354.4101309548679, 3800 354.4670854044201 C 3808.3333333333335 354.52403985397234, 3816.6666666666665 354.55378545959934, 3825 354.55378545959934 C 3833.3333333333335 354.55378545959934, 3841.6666666666665 351.6322761684688, 3850 351.6322761684688 C 3858.3333333333335 351.6322761684688, 3866.6666666666665 353.2749444374855, 3875 353.2749444374855 C 3883.3333333333335 353.2749444374855, 3891.6666666666665 352.26377393209, 3900 351.8664750445303 C 3908.3333333333335 351.46917615697066, 3916.6666666666665 351.3346037141835, 3925 350.83342491927544 C 3933.3333333333335 350.3322461243674, 3941.6666666666665 348.0724433756143, 3950 348.0724433756143 C 3958.3333333333335 348.0724433756143, 3966.6666666666665 358.2941347459779, 3975 358.2941347459779 C 3983.3333333333335 358.2941347459779, 3991.6666666666665 351.6934758671321, 4000 351.6934758671321 C 4008.3333333333335 351.6934758671321, 4016.6666666666665 353.34811941453864, 4025 355.81218172434365 C 4033.3333333333335 358.27624403414865, 4041.6666666666665 380.1548302182487, 4050 391.8336568914443 C 4058.3333333333335 403.5124835646399, 4066.6666666666665 420.3689929027867, 4075 425.9375766719198 C 4083.3333333333335 431.50616044105294, 4091.6666666666665 436.9998776732939, 4100 436.9998776732939 C 4108.333333333333 436.9998776732939, 4116.666666666667 432.9274641011958, 4125 432.9274641011958 C 4133.333333333333 432.9274641011958, 4141.666666666667 435.2595675300089, 4150 436.07043830323255 C 4158.333333333333 436.8813090764562, 4166.666666666667 436.9106791438313, 4175 438.0545989362048 C 4183.333333333333 439.1985187285783, 4191.666666666667 450.7449558171973, 4200 450.7449558171973 C 4208.333333333333 450.7449558171973, 4216.666666666667 450.6614702259853, 4225 450.5549839078169 C 4233.333333333333 450.4484975896485, 4241.666666666667 450.1442048531259, 4250 449.55162168980115 C 4258.333333333333 448.9590385264764, 4266.666666666667 443.0620275280625, 4275 441.7615699743103 C 4283.333333333333 440.4611124205581, 4291.666666666667 439.15924140009764, 4300 439.15924140009764 C 4308.333333333333 439.15924140009764, 4316.666666666667 440.521396811787, 4325 441.06139961927175 C 4333.333333333333 441.6014024267565, 4341.666666666667 441.7831159248768, 4350 442.47214952884525 C 4358.333333333333 443.1611831328137, 4366.666666666667 446.33769316753137, 4375 446.33769316753137 C 4383.333333333333 446.33769316753137, 4391.666666666667 444.15910633779407, 4400 442.94323340925945 C 4408.333333333333 441.7273604807248, 4416.666666666667 440.25461149090427, 4425 439.00165116617904 C 4433.333333333333 437.7486908414538, 4441.666666666667 435.4092845263474, 4450 435.4092845263474 C 4458.333333333333 435.4092845263474, 4466.666666666667 440.1491664840045, 4475 442.06966014512886 C 4483.333333333333 443.9901538062532, 4491.666666666667 445.79020640497436, 4500 447.1460268021434 C 4508.333333333333 448.50184719931246, 4516.666666666667 450.5391247533177, 4525 450.5391247533177 C 4533.333333333333 450.5391247533177, 4541.666666666667 450.40110571380586, 4550 450.16826246013716 C 4558.333333333333 449.93541920646845, 4566.666666666667 445.505375932928, 4575 444.1708230239926 C 4583.333333333333 442.83627011505723, 4591.666666666667 441.1660627621214, 4600 441.1660627621214 C 4608.333333333333 441.1660627621214, 4616.666666666667 446.89719575105016, 4625 448.8399682689244 C 4633.333333333333 450.7827407867986, 4641.666666666667 451.3821318292672, 4650 453.5383231087228 C 4658.333333333333 455.6945143881784, 4666.666666666667 463.9175052396029, 4675 463.9175052396029 C 4683.333333333333 463.9175052396029, 4691.666666666667 461.8728417448752, 4700 461.8728417448752 C 4708.333333333333 461.8728417448752, 4716.666666666667 462.98637451533244, 4725 463.8128393491949 C 4733.333333333333 464.6393041830574, 4741.666666666667 465.76867351061395, 4750 467.24709392940815 C 4758.333333333333 468.72551434820235, 4766.666666666667 471.0511039439562, 4775 473.5069642282217 C 4783.333333333333 475.9628245124872, 4791.666666666667 479.54820540680134, 4800 482.4585695430224 C 4808.333333333333 485.36893367924347, 4816.666666666667 489.4379036998934, 4825 490.9797520361773 C 4833.333333333333 492.52160037246114, 4841.666666666667 493.2971955720417, 4850 494.1540843710489 C 4858.333333333333 495.0109731700561, 4866.666666666667 495.5421906873223, 4875 496.31399786946224 C 4883.333333333333 497.08580505160216, 4891.666666666667 498.304137400715, 4900 498.8090570660003 C 4908.333333333333 499.31397673128566, 4916.666666666667 499.8338507066555, 4925 499.89654556177214 C 4933.333333333333 499.9592404168888, 4941.666666666667 499.9991519197874, 4950 499.9994901391201 C 4958.333333333333 499.9998283584528, 4966.666666666667 499.99999996784766, 4975 499.9999999807083 C 4983.333333333333 499.99999999356896, 4991.666666666667 500, 5000 500 C 5008.333333333333 500, 5016.666666666667 500, 5025 500 c 0 0, 0 0, 0 0C 5016.666666666667 500, 5008.333333333333 500, 5000 500 C 4991.666666666667 500, 4983.333333333333 500.00000000643104, 4975 500.0000000192917 C 4966.666666666667 500.00000003215234, 4958.333333333333 500.0001716415472, 4950 500.0005098608799 C 4941.666666666667 500.0008480802126, 4933.333333333333 500.0407595831112, 4925 500.10345443822786 C 4916.666666666667 500.1661492933445, 4908.333333333333 500.68602326871434, 4900 501.1909429339997 C 4891.666666666667 501.695862599285, 4883.333333333333 502.91419494839784, 4875 503.68600213053776 C 4866.666666666667 504.4578093126777, 4858.333333333333 504.9890268299439, 4850 505.8459156289511 C 4841.666666666667 506.7028044279583, 4833.333333333333 507.47839962753886, 4825 509.0202479638227 C 4816.666666666667 510.5620963001066, 4808.333333333333 514.6310663207565, 4800 517.5414304569777 C 4791.666666666667 520.4517945931987, 4783.333333333333 524.0371754875127, 4775 526.4930357717783 C 4766.666666666667 528.9488960560438, 4758.333333333333 531.2744856517977, 4750 532.7529060705918 C 4741.666666666667 534.231326489386, 4733.333333333333 535.3606958169426, 4725 536.187160650805 C 4716.666666666667 537.0136254846675, 4708.333333333333 538.1271582551249, 4700 538.1271582551249 C 4691.666666666667 538.1271582551249, 4683.333333333333 536.0824947603971, 4675 536.0824947603971 C 4666.666666666667 536.0824947603971, 4658.333333333333 544.3054856118216, 4650 546.4616768912772 C 4641.666666666667 548.6178681707328, 4633.333333333333 549.2172592132014, 4625 551.1600317310756 C 4616.666666666667 553.1028042489498, 4608.333333333333 558.8339372378787, 4600 558.8339372378787 C 4591.666666666667 558.8339372378787, 4583.333333333333 557.1637298849428, 4575 555.8291769760074 C 4566.666666666667 554.494624067072, 4558.333333333333 550.0645807935316, 4550 549.8317375398628 C 4541.666666666667 549.5988942861941, 4533.333333333333 549.4608752466822, 4525 549.4608752466822 C 4516.666666666667 549.4608752466822, 4508.333333333333 551.4981528006875, 4500 552.8539731978566 C 4491.666666666667 554.2097935950256, 4483.333333333333 556.0098461937469, 4475 557.9303398548711 C 4466.666666666667 559.8508335159954, 4458.333333333333 564.5907154736526, 4450 564.5907154736526 C 4441.666666666667 564.5907154736526, 4433.333333333333 562.2513091585462, 4425 560.998348833821 C 4416.666666666667 559.7453885090957, 4408.333333333333 558.2726395192751, 4400 557.0567665907406 C 4391.666666666667 555.8408936622059, 4383.333333333333 553.6623068324686, 4375 553.6623068324686 C 4366.666666666667 553.6623068324686, 4358.333333333333 556.8388168671863, 4350 557.5278504711548 C 4341.666666666667 558.2168840751232, 4333.333333333333 558.3985975732435, 4325 558.9386003807283 C 4316.666666666667 559.478603188213, 4308.333333333333 560.8407585999023, 4300 560.8407585999023 C 4291.666666666667 560.8407585999023, 4283.333333333333 559.538887579442, 4275 558.2384300256897 C 4266.666666666667 556.9379724719374, 4258.333333333333 551.0409614735236, 4250 550.4483783101989 C 4241.666666666667 549.855795146874, 4233.333333333333 549.5515024103515, 4225 549.4450160921831 C 4216.666666666667 549.3385297740147, 4208.333333333333 549.2550441828027, 4200 549.2550441828027 C 4191.666666666667 549.2550441828027, 4183.333333333333 560.8014812714217, 4175 561.9454010637952 C 4166.666666666667 563.0893208561687, 4158.333333333333 563.1186909235438, 4150 563.9295616967675 C 4141.666666666667 564.7404324699911, 4133.333333333333 567.0725358988042, 4125 567.0725358988042 C 4116.666666666667 567.0725358988042, 4108.333333333333 563.0001223267061, 4100 563.0001223267061 C 4091.6666666666665 563.0001223267061, 4083.3333333333335 568.493839558947, 4075 574.0624233280802 C 4066.6666666666665 579.6310070972133, 4058.3333333333335 596.48751643536, 4050 608.1663431085557 C 4041.6666666666665 619.8451697817513, 4033.3333333333335 641.7237559658513, 4025 644.1878182756564 C 4016.6666666666665 646.6518805854614, 4008.3333333333335 648.3065241328679, 4000 648.3065241328679 C 3991.6666666666665 648.3065241328679, 3983.3333333333335 641.7058652540221, 3975 641.7058652540221 C 3966.6666666666665 641.7058652540221, 3958.3333333333335 651.9275566243857, 3950 651.9275566243857 C 3941.6666666666665 651.9275566243857, 3933.3333333333335 649.6677538756326, 3925 649.1665750807246 C 3916.6666666666665 648.6653962858165, 3908.3333333333335 648.5308238430293, 3900 648.1335249554697 C 3891.6666666666665 647.73622606791, 3883.3333333333335 646.7250555625145, 3875 646.7250555625145 C 3866.6666666666665 646.7250555625145, 3858.3333333333335 648.3677238315312, 3850 648.3677238315312 C 3841.6666666666665 648.3677238315312, 3833.3333333333335 645.4462145404007, 3825 645.4462145404007 C 3816.6666666666665 645.4462145404007, 3808.3333333333335 645.4759601460277, 3800 645.5329145955799 C 3791.6666666666665 645.5898690451321, 3783.3333333333335 651.3725887541988, 3775 651.3725887541988 C 3766.6666666666665 651.3725887541988, 3758.3333333333335 643.1614958543082, 3750 643.1614958543082 C 3741.6666666666665 643.1614958543082, 3733.3333333333335 650.6061501763937, 3725 650.6061501763937 C 3716.6666666666665 650.6061501763937, 3708.3333333333335 647.5562771323132, 3700 647.5562771323132 C 3691.6666666666665 647.5562771323132, 3683.3333333333335 650.10203998814, 3675 650.10203998814 C 3666.6666666666665 650.10203998814, 3658.3333333333335 645.7399376623675, 3650 644.6465297721086 C 3641.6666666666665 643.5531218818496, 3633.3333333333335 642.436353068166, 3625 642.3013888508378 C 3616.6666666666665 642.1664246335097, 3608.3333333333335 642.0798149669574, 3600 642.0798149669574 C 3591.6666666666665 642.0798149669574, 3583.3333333333335 646.2940710775474, 3575 647.566169231777 C 3566.6666666666665 648.8382673860067, 3558.3333333333335 650.4918724129099, 3550 650.4918724129099 C 3541.6666666666665 650.4918724129099, 3533.3333333333335 643.5518722334058, 3525 643.5518722334058 C 3516.6666666666665 643.5518722334058, 3508.3333333333335 653.9554058309672, 3500 653.9554058309672 C 3491.6666666666665 653.9554058309672, 3483.3333333333335 644.1780355931177, 3475 644.1780355931177 C 3466.6666666666665 644.1780355931177, 3458.3333333333335 648.0437977875858, 3450 648.0437977875858 C 3441.6666666666665 648.0437977875858, 3433.3333333333335 645.9738397866304, 3425 645.9738397866304 C 3416.6666666666665 645.9738397866304, 3408.3333333333335 649.8448392463557, 3400 649.8448392463557 C 3391.6666666666665 649.8448392463557, 3383.3333333333335 640.5721107469432, 3375 640.5721107469432 C 3366.6666666666665 640.5721107469432, 3358.3333333333335 648.9277384360167, 3350 648.9277384360167 C 3341.6666666666665 648.9277384360167, 3333.3333333333335 646.4480001126359, 3325 646.4480001126359 C 3316.6666666666665 646.4480001126359, 3308.3333333333335 648.7746435290356, 3300 648.7746435290356 C 3291.6666666666665 648.7746435290356, 3283.3333333333335 641.6563066324156, 3275 641.6563066324156 C 3266.6666666666665 641.6563066324156, 3258.3333333333335 645.4627204444621, 3250 646.5318116617041 C 3241.6666666666665 647.6009028789458, 3233.3333333333335 648.9214370755456, 3225 648.9214370755456 C 3216.6666666666665 648.9214370755456, 3208.3333333333335 641.5466441224819, 3200 641.5466441224819 C 3191.6666666666665 641.5466441224819, 3183.3333333333335 643.6215735684657, 3175 644.6058802124385 C 3166.6666666666665 645.5901868564113, 3158.3333333333335 646.5108189305213, 3150 647.4596253155871 C 3141.6666666666665 648.408431700653, 3133.3333333333335 650.2987560399115, 3125 650.2987560399115 C 3116.6666666666665 650.2987560399115, 3108.3333333333335 641.409439456185, 3100 641.409439456185 C 3091.6666666666665 641.409439456185, 3083.3333333333335 649.2399638867821, 3075 649.2399638867821 C 3066.6666666666665 649.2399638867821, 3058.3333333333335 644.3959298450959, 3050 644.3959298450959 C 3041.6666666666665 644.3959298450959, 3033.3333333333335 645.8805522425332, 3025 645.8805522425332 C 3016.6666666666665 645.8805522425332, 3008.3333333333335 639.0530779882323, 3000 639.0530779882323 C 2991.6666666666665 639.0530779882323, 2983.3333333333335 645.9110080585359, 2975 646.7251433077504 C 2966.6666666666665 647.5392785569649, 2958.3333333333335 648.1775302242617, 2950 648.1775302242617 C 2941.6666666666665 648.1775302242617, 2933.3333333333335 611.0020638136169, 2925 611.0020638136169 C 2916.6666666666665 611.0020638136169, 2908.3333333333335 640.1710634671151, 2900 642.5583850531635 C 2891.6666666666665 644.945706639212, 2883.3333333333335 645.8908191941466, 2875 646.5977509700793 C 2866.6666666666665 647.3046827460121, 2858.3333333333335 647.4583736609193, 2850 648.0356092546024 C 2841.6666666666665 648.6128448482855, 2833.3333333333335 650.2121194275234, 2825 650.2121194275234 C 2816.6666666666665 650.2121194275234, 2808.3333333333335 647.3517622544857, 2800 646.0231051492337 C 2791.6666666666665 644.6944480439818, 2783.3333333333335 642.2214036141631, 2775 642.2214036141631 C 2766.6666666666665 642.2214036141631, 2758.3333333333335 653.8981605983113, 2750 653.8981605983113 C 2741.6666666666665 653.8981605983113, 2733.3333333333335 642.3832726935292, 2725 642.3832726935292 C 2716.6666666666665 642.3832726935292, 2708.3333333333335 647.9613384369043, 2700 650.0169541963976 C 2691.6666666666665 652.0725699558909, 2683.3333333333335 655.1898201538457, 2675 655.1898201538457 C 2666.6666666666665 655.1898201538457, 2658.3333333333335 655.0174438714746, 2650 654.7275121237487 C 2641.6666666666665 654.4375803760229, 2633.3333333333335 648.794008346975, 2625 647.3924641010012 C 2616.6666666666665 645.9909198550274, 2608.3333333333335 644.4455154428991, 2600 644.4455154428991 C 2591.6666666666665 644.4455154428991, 2583.3333333333335 659.6108134237616, 2575 659.6108134237616 C 2566.6666666666665 659.6108134237616, 2558.3333333333335 644.8536695021892, 2550 644.1463446822344 C 2541.6666666666665 643.4390198622796, 2533.3333333333335 643.0072031601492, 2525 643.0072031601492 C 2516.6666666666665 643.0072031601492, 2508.3333333333335 652.200844262419, 2500 652.200844262419 C 2491.6666666666665 652.200844262419, 2483.3333333333335 651.94703997706, 2475 651.6224212246452 C 2466.6666666666665 651.2978024722305, 2458.3333333333335 649.1660347832342, 2450 648.5441029887285 C 2441.6666666666665 647.9221711942228, 2433.3333333333335 647.2055514471183, 2425 647.2055514471183 C 2416.6666666666665 647.2055514471183, 2408.3333333333335 649.8907321983979, 2400 650.1942231885573 C 2391.6666666666665 650.4977141787167, 2383.3333333333335 650.7312617474772, 2375 650.7312617474772 C 2366.6666666666665 650.7312617474772, 2358.3333333333335 647.5963705748012, 2350 647.5963705748012 C 2341.6666666666665 647.5963705748012, 2333.3333333333335 648.3160226351865, 2325 649.0752174960381 C 2316.6666666666665 649.8344123568897, 2308.3333333333335 654.0276555030878, 2300 654.0276555030878 C 2291.6666666666665 654.0276555030878, 2283.3333333333335 646.7114875952029, 2275 646.7114875952029 C 2266.6666666666665 646.7114875952029, 2258.3333333333335 652.6174008543501, 2250 653.1639843132202 C 2241.6666666666665 653.7105677720901, 2233.3333333333335 654.1031991945708, 2225 654.1031991945708 C 2216.6666666666665 654.1031991945708, 2208.3333333333335 653.1102600941692, 2200 651.8952903911667 C 2191.6666666666665 650.6803206881641, 2183.3333333333335 641.4561436800549, 2175 641.4561436800549 C 2166.6666666666665 641.4561436800549, 2158.3333333333335 650.794258112811, 2150 650.8311537426116 C 2141.6666666666665 650.8680493724122, 2133.3333333333335 650.8868258360719, 2125 650.8868258360719 C 2116.6666666666665 650.8868258360719, 2108.3333333333335 646.0777133332563, 2100 646.0777133332563 C 2091.6666666666665 646.0777133332563, 2083.3333333333335 646.8680876611404, 2075 646.8680876611404 C 2066.6666666666665 646.8680876611404, 2058.3333333333335 644.273325737615, 2050 644.273325737615 C 2041.6666666666667 644.273325737615, 2033.3333333333333 649.178190621786, 2025 649.178190621786 C 2016.6666666666667 649.178190621786, 2008.3333333333333 646.7592251374903, 2000 646.7592251374903 C 1991.6666666666667 646.7592251374903, 1983.3333333333333 648.7020807816094, 1975 648.7020807816094 C 1966.6666666666667 648.7020807816094, 1958.3333333333333 647.8146240649664, 1950 647.8146240649664 C 1941.6666666666667 647.8146240649664, 1933.3333333333333 651.4757429945405, 1925 651.4757429945405 C 1916.6666666666667 651.4757429945405, 1908.3333333333333 644.1676132462476, 1900 644.1676132462476 C 1891.6666666666667 644.1676132462476, 1883.3333333333333 651.1138634086863, 1875 651.1138634086863 C 1866.6666666666667 651.1138634086863, 1858.3333333333333 647.2101331032637, 1850 647.2101331032637 C 1841.6666666666667 647.2101331032637, 1833.3333333333333 648.3485119587591, 1825 648.3485119587591 C 1816.6666666666667 648.3485119587591, 1808.3333333333333 646.3919814051467, 1800 645.7229904964049 C 1791.6666666666667 645.053999587663, 1783.3333333333333 644.098688417637, 1775 644.098688417637 C 1766.6666666666667 644.098688417637, 1758.3333333333333 650.9269806276434, 1750 650.9269806276434 C 1741.6666666666667 650.9269806276434, 1733.3333333333333 644.7117450092593, 1725 644.7117450092593 C 1716.6666666666667 644.7117450092593, 1708.3333333333333 647.7885848822115, 1700 647.7885848822115 C 1691.6666666666667 647.7885848822115, 1683.3333333333333 646.4404245083741, 1675 646.4404245083741 C 1666.6666666666667 646.4404245083741, 1658.3333333333333 650.2027358120374, 1650 650.2027358120374 C 1641.6666666666667 650.2027358120374, 1633.3333333333333 640.6388552640233, 1625 640.6388552640233 C 1616.6666666666667 640.6388552640233, 1608.3333333333333 651.067449702947, 1600 651.067449702947 C 1591.6666666666667 651.067449702947, 1583.3333333333333 645.5655705980171, 1575 645.5655705980171 C 1566.6666666666667 645.5655705980171, 1558.3333333333333 646.9659716556447, 1550 646.9659716556447 C 1541.6666666666667 646.9659716556447, 1533.3333333333333 646.6295394337643, 1525 646.4649867427207 C 1516.6666666666667 646.3004340516771, 1508.3333333333333 645.9784442902601, 1500 645.9784442902601 C 1491.6666666666667 645.9784442902601, 1483.3333333333333 652.1119068448243, 1475 652.1119068448243 C 1466.6666666666667 652.1119068448243, 1458.3333333333333 641.0852059676848, 1450 641.0852059676848 C 1441.6666666666667 641.0852059676848, 1433.3333333333333 646.9808435639281, 1425 646.9808435639281 C 1416.6666666666667 646.9808435639281, 1408.3333333333333 645.4946690684532, 1400 645.4946690684532 C 1391.6666666666667 645.4946690684532, 1383.3333333333333 648.7993560699286, 1375 648.7993560699286 C 1366.6666666666667 648.7993560699286, 1358.3333333333333 639.8156033231136, 1350 639.8156033231136 C 1341.6666666666667 639.8156033231136, 1333.3333333333333 649.2713524382569, 1325 649.2713524382569 C 1316.6666666666667 649.2713524382569, 1308.3333333333333 644.2564491305551, 1300 644.2564491305551 C 1291.6666666666667 644.2564491305551, 1283.3333333333333 646.7049411526815, 1275 646.7049411526815 C 1266.6666666666667 646.7049411526815, 1258.3333333333333 644.1337057976073, 1250 644.1337057976073 C 1241.6666666666667 644.1337057976073, 1233.3333333333333 644.4836911098728, 1225 644.9654146601226 C 1216.6666666666667 645.4471382103725, 1208.3333333333333 650.4727564746022, 1200 650.4727564746022 C 1191.6666666666667 650.4727564746022, 1183.3333333333333 641.7837530284789, 1175 641.7837530284789 C 1166.6666666666667 641.7837530284789, 1158.3333333333333 647.2295360541065, 1150 647.2295360541065 C 1141.6666666666667 647.2295360541065, 1133.3333333333333 646.6101010148864, 1125 645.6561980050552 C 1116.6666666666667 644.7022949952241, 1108.3333333333333 629.8563523478207, 1100 629.8563523478207 C 1091.6666666666667 629.8563523478207, 1083.3333333333333 630.9313510916813, 1075 632.4560750195255 C 1066.6666666666667 633.9807989473697, 1058.3333333333333 649.8667742338923, 1050 651.4742757767397 C 1041.6666666666667 653.0817773195871, 1033.3333333333333 653.6656380466507, 1025 654.235630805128 C 1016.6666666666666 654.8056235636054, 1008.3333333333334 655.4740754112771, 1000 655.4740754112771 C 991.6666666666666 655.4740754112771, 983.3333333333334 653.531080544448, 975 653.531080544448 C 966.6666666666666 653.531080544448, 958.3333333333334 656.1469258523986, 950 657.4002391111594 C 941.6666666666666 658.6535523699202, 933.3333333333334 661.0569568857095, 925 661.0569568857095 C 916.6666666666666 661.0569568857095, 908.3333333333334 656.4122858218913, 900 656.4122858218913 C 891.6666666666666 656.4122858218913, 883.3333333333334 656.547848174665, 875 656.7686361107856 C 866.6666666666666 656.9894240469062, 858.3333333333334 660.2801545777561, 850 661.4577239714125 C 841.6666666666666 662.635293365069, 833.3333333333334 664.2915741181047, 825 664.2915741181047 C 816.6666666666666 664.2915741181047, 808.3333333333334 655.658816522955, 800 655.658816522955 C 791.6666666666666 655.658816522955, 783.3333333333334 660.25033461658, 775 660.7832788372759 C 766.6666666666666 661.3162230579719, 758.3333333333334 661.7304546309499, 750 661.7304546309499 C 741.6666666666666 661.7304546309499, 733.3333333333334 657.0616567648094, 725 656.9903835389925 C 716.6666666666666 656.9191103131757, 708.3333333333334 656.8810067639808, 700 656.8810067639808 C 691.6666666666666 656.8810067639808, 683.3333333333334 658.2346621818377, 675 659.5780926037808 C 666.6666666666666 660.9215230257239, 658.3333333333334 667.548029992415, 650 667.548029992415 C 641.6666666666666 667.548029992415, 633.3333333333334 656.4438647445821, 625 656.4438647445821 C 616.6666666666666 656.4438647445821, 608.3333333333334 657.6332314170166, 600 658.8459217878135 C 591.6666666666666 660.0586121586103, 583.3333333333334 666.3403748513872, 575 666.3403748513872 C 566.6666666666666 666.3403748513872, 558.3333333333334 665.3102009586275, 550 664.1130769143633 C 541.6666666666666 662.9159528700991, 533.3333333333334 654.8465850882421, 525 654.8465850882421 C 516.6666666666666 654.8465850882421, 508.3333333333333 667.8963775220215, 500 667.8963775220215 C 491.6666666666667 667.8963775220215, 483.3333333333333 658.1375658693464, 475 658.1375658693464 C 466.6666666666667 658.1375658693464, 458.3333333333333 664.0444488035602, 450 664.0444488035602 C 441.6666666666667 664.0444488035602, 433.3333333333333 649.1825327302116, 425 649.1825327302116 C 416.6666666666667 649.1825327302116, 408.3333333333333 654.8124462082025, 400 654.899815621226 C 391.6666666666667 654.9871850342497, 383.3333333333333 655.0339442983834, 375 655.0339442983834 C 366.6666666666667 655.0339442983834, 358.3333333333333 634.9005516024142, 350 631.1766194729694 C 341.6666666666667 627.4526873435245, 333.3333333333333 627.3240553544649, 325 623.8830134317179 C 316.6666666666667 620.4419715089709, 308.3333333333333 612.4488140721245, 300 606.2255818229787 C 291.6666666666667 600.0023495738329, 283.3333333333333 591.4956328511171, 275 586.420499424607 C 266.6666666666667 581.3453659980969, 258.3333333333333 579.3993868324004, 250 574.0545687685435 C 241.66666666666666 568.7097507046867, 233.33333333333334 556.2608184281686, 225 551.2568606824002 C 216.66666666666666 546.2529029366319, 208.33333333333334 545.4563706627298, 200 540.0666495084419 C 191.66666666666666 534.6769283541539, 183.33333333333334 515.135979908294, 175 510.93626595751596 C 166.66666666666666 506.73655200673795, 158.33333333333334 503.85755775581174, 150 502.89849173100856 C 141.66666666666666 501.9394257062054, 133.33333333333334 501.5614856050597, 125 501.1462827152111 C 116.66666666666667 500.7310798253625, 108.33333333333333 500.27762687619855, 100 500.180036170636 C 91.66666666666667 500.0824454650735, 83.33333333333333 500.012312272407, 75 500.00751288719437 C 66.66666666666667 500.00271350198176, 58.333333333333336 500.000000539983, 50 500.0000003239954 C 41.666666666666664 500.0000001080078, 33.333333333333336 500, 25 500 C 8.333333333333334 500, 16.666666666666664 500, 25 500 Z" fill="white" stroke="transparent" stroke-width="0" />
  </g>
</svg>