<svg 
  baseProfile="tiny"
  preserveAspectRatio="keep"
  version="1.2"
  viewBox="-0.000000 -0.000000 5025.000000 1000.000000"
  height="100%" width="100%"
  xmlns="http://www.w3.org/2000/svg"
  xmlns:ev="http://www.w3.org/2001/xml-events"
  xmlns:xlink="http://www.w3.org/1999/xlink"
>
  <g style="transform-origin: center center;">
    <path d="M 0 500 C 8.333333333333334 500, 16.666666666666664 500, 25 500 C 33.333333333333336 500, 41.666666666666664 499.9999999298354, 50 499.9999997895212 C 58.333333333333336 499.99999964920704, 66.66666666666667 499.99792334281864, 75 499.99409321765444 C 83.33333333333333 499.99026309249024, 91.66666666666667 499.9071227300337, 100 499.78382244124174 C 108.33333333333333 499.6605221524498, 116.66666666666667 498.8790246976606, 125 498.2479162791848 C 133.33333333333334 497.61680786070895, 141.66666666666666 496.75811272050106, 150 495.78037123447706 C 158.33333333333334 494.80262974845306, 166.66666666666666 493.33647108763296, 175 492.16481214639066 C 183.33333333333334 490.99315320514836, 191.66666666666666 490.3687858324983, 200 488.74497280387635 C 208.33333333333334 487.1211597752544, 216.66666666666666 482.3272137215104, 225 480.28079037019694 C 233.33333333333334 478.23436701888346, 241.66666666666666 477.14115665887954, 250 475.4644547419709 C 258.3333333333333 473.7877528250622, 266.6666666666667 471.13668742352536, 275 470.2007213935099 C 283.3333333333333 469.2647553634945, 291.6666666666667 469.3389817869583, 300 468.2861031592096 C 308.3333333333333 467.23322453146085, 316.6666666666667 459.2679454217225, 325 459.2679454217225 C 333.3333333333333 459.2679454217225, 341.6666666666667 463.54175666651213, 350 463.54175666651213 C 358.3333333333333 463.54175666651213, 366.6666666666667 456.8782443752662, 375 456.8782443752662 C 383.3333333333333 456.8782443752662, 391.6666666666667 465.0960219299135, 400 465.0960219299135 C 408.3333333333333 465.0960219299135, 416.6666666666667 448.7548991692436, 425 448.7548991692436 C 433.3333333333333 448.7548991692436, 441.6666666666667 449.32163531975954, 450 449.68503526115336 C 458.3333333333333 450.0484352025472, 466.6666666666667 450.19725796065177, 475 451.0018390539053 C 483.3333333333333 451.80642014715886, 491.6666666666667 465.45814788845746, 500 465.45814788845746 C 508.3333333333333 465.45814788845746, 516.6666666666666 464.55793482104247, 525 462.9392204410146 C 533.3333333333334 461.3205060609867, 541.6666666666666 404.7460070365166, 550 395.6223192444681 C 558.3333333333334 386.4986314524196, 566.6666666666666 378.4445445034625, 575 378.4445445034625 C 583.3333333333334 378.4445445034625, 591.6666666666666 402.25090860310655, 600 402.25090860310655 C 608.3333333333334 402.25090860310655, 616.6666666666666 401.3363634236914, 625 400.2014016693161 C 633.3333333333334 399.0664399149408, 641.6666666666666 390.1480255215116, 650 390.1480255215116 C 658.3333333333334 390.1480255215116, 666.6666666666666 395.8458205597402, 675 398.29826435998245 C 683.3333333333334 400.7507081602247, 691.6666666666666 405.0032881041633, 700 405.0032881041633 C 708.3333333333334 405.0032881041633, 716.6666666666666 397.098739065727, 725 395.4411940736288 C 733.3333333333334 393.78364908153065, 741.6666666666666 392.0812234090655, 750 392.0812234090655 C 758.3333333333334 392.0812234090655, 766.6666666666666 393.4846851488048, 775 394.71008614852144 C 783.3333333333334 395.9354871482381, 791.6666666666666 400.82080111515063, 800 400.82080111515063 C 808.3333333333334 400.82080111515063, 816.6666666666666 397.87958098853, 825 396.4423166865114 C 833.3333333333334 395.0050523844928, 841.6666666666666 392.1952141407752, 850 392.1952141407752 C 858.3333333333334 392.1952141407752, 866.6666666666666 399.7302499639279, 875 400.7823773451022 C 883.3333333333334 401.83450472627646, 891.6666666666666 402.71592538103454, 900 402.71592538103454 C 908.3333333333334 402.71592538103454, 916.6666666666666 398.7737220204752, 925 398.7737220204752 C 933.3333333333334 398.7737220204752, 941.6666666666666 408.29791955523154, 950 408.29791955523154 C 958.3333333333334 408.29791955523154, 966.6666666666666 381.9105637092159, 975 381.9105637092159 C 983.3333333333334 381.9105637092159, 991.6666666666666 382.70638506783826, 1000 383.8918885367983 C 1008.3333333333334 385.0773920057584, 1016.6666666666666 401.24210129872665, 1025 401.24210129872665 C 1033.3333333333333 401.24210129872665, 1041.6666666666667 389.2709157667995, 1050 389.2709157667995 C 1058.3333333333333 389.2709157667995, 1066.6666666666667 397.52821308383517, 1075 397.52821308383517 C 1083.3333333333333 397.52821308383517, 1091.6666666666667 396.0348203924077, 1100 395.38341603946003 C 1108.3333333333333 394.73201168651235, 1116.6666666666667 393.588680902448, 1125 393.588680902448 C 1133.3333333333333 393.588680902448, 1141.6666666666667 399.8640030560164, 1150 399.8640030560164 C 1158.3333333333333 399.8640030560164, 1166.6666666666667 377.95861705533275, 1175 377.95861705533275 C 1183.3333333333333 377.95861705533275, 1191.6666666666667 395.53985356034906, 1200 395.53985356034906 C 1208.3333333333333 395.53985356034906, 1216.6666666666667 389.7932232859328, 1225 389.7932232859328 C 1233.3333333333333 389.7932232859328, 1241.6666666666667 395.5188374509846, 1250 395.5188374509846 C 1258.3333333333333 395.5188374509846, 1266.6666666666667 395.5043059077433, 1275 395.476372648177 C 1283.3333333333333 395.4484393886107, 1291.6666666666667 392.3267388181955, 1300 392.3267388181955 C 1308.3333333333333 392.3267388181955, 1316.6666666666667 397.7430361138599, 1325 397.7430361138599 C 1333.3333333333333 397.7430361138599, 1341.6666666666667 395.4779694544901, 1350 395.4779694544901 C 1358.3333333333333 395.4779694544901, 1366.6666666666667 396.11605365563935, 1375 396.11605365563935 C 1383.3333333333333 396.11605365563935, 1391.6666666666667 389.5176707619436, 1400 387.0505295474879 C 1408.3333333333333 384.5833883330322, 1416.6666666666667 380.7970223518277, 1425 380.7970223518277 C 1433.3333333333333 380.7970223518277, 1441.6666666666667 391.84043609570057, 1450 393.92300566262713 C 1458.3333333333333 396.0055752295537, 1466.6666666666667 398.0224989036048, 1475 398.0224989036048 C 1483.3333333333333 398.0224989036048, 1491.6666666666667 388.5130705242992, 1500 388.5130705242992 C 1508.3333333333333 388.5130705242992, 1516.6666666666667 393.76005068409296, 1525 395.3595816274746 C 1533.3333333333333 396.95911257085623, 1541.6666666666667 399.05331145561775, 1550 399.05331145561775 C 1558.3333333333333 399.05331145561775, 1566.6666666666667 397.8336489847567, 1575 396.8352687291612 C 1583.3333333333333 395.83688847356575, 1591.6666666666667 392.5872907152005, 1600 392.2248556741386 C 1608.3333333333333 391.86242063307674, 1616.6666666666667 391.6085265661389, 1625 391.6085265661389 C 1633.3333333333333 391.6085265661389, 1641.6666666666667 392.505129224531, 1650 392.89855580307534 C 1658.3333333333333 393.2919823816197, 1666.6666666666667 393.3981947478199, 1675 393.986295833078 C 1683.3333333333333 394.57439691833605, 1691.6666666666667 398.6536390699095, 1700 398.6536390699095 C 1708.3333333333333 398.6536390699095, 1716.6666666666667 388.7233682918166, 1725 388.7233682918166 C 1733.3333333333333 388.7233682918166, 1741.6666666666667 392.12246863015565, 1750 392.12246863015565 C 1758.3333333333333 392.12246863015565, 1766.6666666666667 387.3212042152453, 1775 387.3212042152453 C 1783.3333333333333 387.3212042152453, 1791.6666666666667 394.6433355078164, 1800 394.6433355078164 C 1808.3333333333333 394.6433355078164, 1816.6666666666667 393.1416106768141, 1825 391.92737956315267 C 1833.3333333333333 390.71314844949126, 1841.6666666666667 386.3979294894349, 1850 386.3979294894349 C 1858.3333333333333 386.3979294894349, 1866.6666666666667 390.4773159793493, 1875 391.4461463939192 C 1883.3333333333333 392.4149768084891, 1891.6666666666667 393.48685785942206, 1900 393.48685785942206 C 1908.3333333333333 393.48685785942206, 1916.6666666666667 378.19139573440975, 1925 378.19139573440975 C 1933.3333333333333 378.19139573440975, 1941.6666666666667 393.90530100286526, 1950 393.90530100286526 C 1958.3333333333333 393.90530100286526, 1966.6666666666667 389.64613147670167, 1975 389.64613147670167 C 1983.3333333333333 389.64613147670167, 1991.6666666666667 399.4732357929748, 2000 399.4732357929748 C 2008.3333333333333 399.4732357929748, 2016.6666666666667 386.00901169848856, 2025 386.00901169848856 C 2033.3333333333333 386.00901169848856, 2041.6666666666667 394.7051640589201, 2050 394.7051640589201 C 2058.3333333333335 394.7051640589201, 2066.6666666666665 384.7901135319427, 2075 381.45334358645795 C 2083.3333333333335 378.1165736409732, 2091.6666666666665 373.410406234749, 2100 373.410406234749 C 2108.3333333333335 373.410406234749, 2116.6666666666665 383.3833023897123, 2125 385.88805113957994 C 2133.3333333333335 388.3927998894476, 2141.6666666666665 390.7293544744762, 2150 391.26388178337925 C 2158.3333333333335 391.79840909228227, 2166.6666666666665 391.75980696415496, 2175 392.2062200077611 C 2183.3333333333335 392.6526330513672, 2191.6666666666665 394.51998949700743, 2200 394.51998949700743 C 2208.3333333333335 394.51998949700743, 2216.6666666666665 394.4634576336148, 2225 394.35971912376203 C 2233.3333333333335 394.2559806139093, 2241.6666666666665 391.30392085176885, 2250 389.01092890874924 C 2258.3333333333335 386.7179369657296, 2266.6666666666665 379.3754200125246, 2275 379.3754200125246 C 2283.3333333333335 379.3754200125246, 2291.6666666666665 394.1002906105042, 2300 394.1002906105042 C 2308.3333333333335 394.1002906105042, 2316.6666666666665 393.1868725876654, 2325 392.3465236658083 C 2333.3333333333335 391.50617474395125, 2341.6666666666665 387.8646319342999, 2350 387.8646319342999 C 2358.3333333333335 387.8646319342999, 2366.6666666666665 388.55163167612193, 2375 389.32917903705373 C 2383.3333333333335 390.10672639798554, 2391.6666666666665 395.05682099527985, 2400 395.05682099527985 C 2408.3333333333335 395.05682099527985, 2416.6666666666665 389.819414288263, 2425 388.9484915811037 C 2433.3333333333335 388.0775688739445, 2441.6666666666665 388.10099244685813, 2450 387.28670170281816 C 2458.3333333333335 386.4724109587782, 2466.6666666666665 382.67729365692753, 2475 382.67729365692753 C 2483.3333333333335 382.67729365692753, 2491.6666666666665 396.25553224140174, 2500 396.8507179573877 C 2508.3333333333335 397.44590367337366, 2516.6666666666665 397.4414454259668, 2525 397.803512708183 C 2533.3333333333335 398.16557999039924, 2541.6666666666665 399.06656251317986, 2550 399.06656251317986 C 2558.3333333333335 399.06656251317986, 2566.6666666666665 396.19272292396835, 2575 396.19272292396835 C 2583.3333333333335 396.19272292396835, 2591.6666666666665 400.0910310109431, 2600 400.0910310109431 C 2608.3333333333335 400.0910310109431, 2616.6666666666665 398.8887342543159, 2625 398.8687791634917 C 2633.3333333333335 398.84882407266747, 2641.6666666666665 398.8380950819179, 2650 398.8380950819179 C 2658.3333333333335 398.8380950819179, 2666.6666666666665 410.9189351465821, 2675 413.932856389292 C 2683.3333333333335 416.9467776320019, 2691.6666666666665 419.9599994906833, 2700 420.38664972056324 C 2708.3333333333335 420.8132999504432, 2716.6666666666665 420.6477915488977, 2725 421.09707247927395 C 2733.3333333333335 421.5463534096502, 2741.6666666666665 434.213544186685, 2750 434.213544186685 C 2758.3333333333335 434.213544186685, 2766.6666666666665 430.6861343223978, 2775 428.81691767413713 C 2783.3333333333335 426.9477010258765, 2791.6666666666665 424.40943106303797, 2800 422.98106948128503 C 2808.3333333333335 421.5527078995321, 2816.6666666666665 419.59560598542316, 2825 419.59560598542316 C 2833.3333333333335 419.59560598542316, 2841.6666666666665 430.19892652239884, 2850 431.2532850589898 C 2858.3333333333335 432.3076435955807, 2866.6666666666665 433.08305894568457, 2875 433.08305894568457 C 2883.3333333333335 433.08305894568457, 2891.6666666666665 416.12459997418387, 2900 416.12459997418387 C 2908.3333333333335 416.12459997418387, 2916.6666666666665 418.0955400744437, 2925 419.59377546761954 C 2933.3333333333335 421.09201086079537, 2941.6666666666665 425.2119363209786, 2950 425.97478652182406 C 2958.3333333333335 426.7376367226695, 2966.6666666666665 427.3690965826957, 2975 427.3690965826957 C 2983.3333333333335 427.3690965826957, 2991.6666666666665 421.14983195140337, 3000 421.14983195140337 C 3008.3333333333335 421.14983195140337, 3016.6666666666665 423.3048701063391, 3025 424.7583375338719 C 3033.3333333333335 426.2118049614047, 3041.6666666666665 430.26645454486567, 3050 430.26645454486567 C 3058.3333333333335 430.26645454486567, 3066.6666666666665 428.45349778918677, 3075 427.6223300475049 C 3083.3333333333335 426.791162305823, 3091.6666666666665 426.3133171078535, 3100 425.26321279500587 C 3108.3333333333335 424.21310848215825, 3116.6666666666665 420.52320681314393, 3125 420.52320681314393 C 3133.3333333333335 420.52320681314393, 3141.6666666666665 432.71483518952823, 3150 432.71483518952823 C 3158.3333333333335 432.71483518952823, 3166.6666666666665 430.4299333485948, 3175 430.4299333485948 C 3183.3333333333335 430.4299333485948, 3191.6666666666665 437.11403812163087, 3200 437.11403812163087 C 3208.3333333333335 437.11403812163087, 3216.6666666666665 419.1195491630985, 3225 419.1195491630985 C 3233.3333333333335 419.1195491630985, 3241.6666666666665 430.0756014204697, 3250 430.0756014204697 C 3258.3333333333335 430.0756014204697, 3266.6666666666665 424.04845137657367, 3275 424.04845137657367 C 3283.3333333333335 424.04845137657367, 3291.6666666666665 430.01415371762926, 3300 430.01415371762926 C 3308.3333333333335 430.01415371762926, 3316.6666666666665 417.6940465179698, 3325 417.6940465179698 C 3333.3333333333335 417.6940465179698, 3341.6666666666665 423.2123533053155, 3350 423.2123533053155 C 3358.3333333333335 423.2123533053155, 3366.6666666666665 416.8928969019432, 3375 416.8928969019432 C 3383.3333333333335 416.8928969019432, 3391.6666666666665 424.6634035605631, 3400 424.6634035605631 C 3408.3333333333335 424.6634035605631, 3416.6666666666665 417.79849162810933, 3425 417.79849162810933 C 3433.3333333333335 417.79849162810933, 3441.6666666666665 425.79240907548086, 3450 425.79240907548086 C 3458.3333333333335 425.79240907548086, 3466.6666666666665 419.8911717682641, 3475 419.8911717682641 C 3483.3333333333335 419.8911717682641, 3491.6666666666665 426.7031209100301, 3500 426.7031209100301 C 3508.3333333333335 426.7031209100301, 3516.6666666666665 424.9417167010635, 3525 424.36964624049176 C 3533.3333333333335 423.79757577992, 3541.6666666666665 423.80258538599367, 3550 423.0124481955706 C 3558.3333333333335 422.2223110051475, 3566.6666666666665 413.65994022942573, 3575 413.65994022942573 C 3583.3333333333335 413.65994022942573, 3591.6666666666665 420.124627264702, 3600 420.124627264702 C 3608.3333333333335 420.124627264702, 3616.6666666666665 416.4805650541868, 3625 416.4805650541868 C 3633.3333333333335 416.4805650541868, 3641.6666666666665 418.4424175580831, 3650 418.4424175580831 C 3658.3333333333335 418.4424175580831, 3666.6666666666665 413.67044434286953, 3675 413.67044434286953 C 3683.3333333333335 413.67044434286953, 3691.6666666666665 420.6032502887818, 3700 420.6032502887818 C 3708.3333333333335 420.6032502887818, 3716.6666666666665 411.74903434902546, 3725 411.74903434902546 C 3733.3333333333335 411.74903434902546, 3741.6666666666665 422.01363453210155, 3750 422.01363453210155 C 3758.3333333333335 422.01363453210155, 3766.6666666666665 421.93043561707316, 3775 421.7742626870809 C 3783.3333333333335 421.6180897570887, 3791.6666666666665 410.80592006503275, 3800 410.80592006503275 C 3808.3333333333335 410.80592006503275, 3816.6666666666665 415.7657334065632, 3825 418.1688837582511 C 3833.3333333333335 420.57203410993907, 3841.6666666666665 425.23109270114475, 3850 425.23109270114475 C 3858.3333333333335 425.23109270114475, 3866.6666666666665 421.43699109510794, 3875 421.43699109510794 C 3883.3333333333335 421.43699109510794, 3891.6666666666665 421.56299262046554, 3900 421.71290980467705 C 3908.3333333333335 421.86282698888857, 3916.6666666666665 422.3611486648261, 3925 422.9285028370896 C 3933.3333333333335 423.4958570093531, 3941.6666666666665 425.7661773871962, 3950 425.7661773871962 C 3958.3333333333335 425.7661773871962, 3966.6666666666665 417.0183742665223, 3975 417.0183742665223 C 3983.3333333333335 417.0183742665223, 3991.6666666666665 423.0243559021508, 4000 423.0243559021508 C 4008.3333333333335 423.0243559021508, 4016.6666666666665 417.0859388941399, 4025 417.0859388941399 C 4033.3333333333335 417.0859388941399, 4041.6666666666665 420.5250002323142, 4050 420.6692780357392 C 4058.3333333333335 420.81355583916417, 4066.6666666666665 420.75554202542224, 4075 420.89960542374695 C 4083.3333333333335 421.04366882207165, 4091.6666666666665 424.39676698696496, 4100 424.39676698696496 C 4108.333333333333 424.39676698696496, 4116.666666666667 415.8708936654023, 4125 415.8708936654023 C 4133.333333333333 415.8708936654023, 4141.666666666667 420.5350021104672, 4150 420.5350021104672 C 4158.333333333333 420.5350021104672, 4166.666666666667 418.14276947641787, 4175 418.14276947641787 C 4183.333333333333 418.14276947641787, 4191.666666666667 422.4124749520722, 4200 422.4124749520722 C 4208.333333333333 422.4124749520722, 4216.666666666667 410.5404998028274, 4225 410.5404998028274 C 4233.333333333333 410.5404998028274, 4241.666666666667 424.1211399013453, 4250 424.1245723136161 C 4258.333333333333 424.1280047258869, 4266.666666666667 424.1297228841852, 4275 424.1297228841852 C 4283.333333333333 424.1297228841852, 4291.666666666667 421.89423410173345, 4300 420.3003382124157 C 4308.333333333333 418.7064423230979, 4316.666666666667 413.9359302721642, 4325 413.9359302721642 C 4333.333333333333 413.9359302721642, 4341.666666666667 421.42837293394535, 4350 421.42837293394535 C 4358.333333333333 421.42837293394535, 4366.666666666667 413.1948134161332, 4375 413.1948134161332 C 4383.333333333333 413.1948134161332, 4391.666666666667 424.9794694540749, 4400 424.9794694540749 C 4408.333333333333 424.9794694540749, 4416.666666666667 417.83731784797266, 4425 417.83731784797266 C 4433.333333333333 417.83731784797266, 4441.666666666667 422.89543185665417, 4450 424.2087348795915 C 4458.333333333333 425.5220379025288, 4466.666666666667 425.5175598764259, 4475 427.0603783685402 C 4483.333333333333 428.6031968606546, 4491.666666666667 438.56033864236645, 4500 439.3401681810954 C 4508.333333333333 440.11999771982437, 4516.666666666667 439.81031217212546, 4525 440.63307145786877 C 4533.333333333333 441.45583074361207, 4541.666666666667 467.7859679810845, 4550 467.7859679810845 C 4558.333333333333 467.7859679810845, 4566.666666666667 463.7013966865234, 4575 463.7013966865234 C 4583.333333333333 463.7013966865234, 4591.666666666667 499.0882099265661, 4600 499.0882099265661 C 4608.333333333333 499.0882099265661, 4616.666666666667 468.5028124696407, 4625 468.5028124696407 C 4633.333333333333 468.5028124696407, 4641.666666666667 492.21892238252286, 4650 492.21892238252286 C 4658.333333333333 492.21892238252286, 4666.666666666667 471.12606058706575, 4675 471.12606058706575 C 4683.333333333333 471.12606058706575, 4691.666666666667 486.9318583521269, 4700 486.9318583521269 C 4708.333333333333 486.9318583521269, 4716.666666666667 476.17796949601785, 4725 476.17796949601785 C 4733.333333333333 476.17796949601785, 4741.666666666667 486.85390432810885, 4750 486.85390432810885 C 4758.333333333333 486.85390432810885, 4766.666666666667 482.4267286327346, 4775 482.4267286327346 C 4783.333333333333 482.4267286327346, 4791.666666666667 491.5800207166646, 4800 491.5800207166646 C 4808.333333333333 491.5800207166646, 4816.666666666667 490.7533193722705, 4825 490.7533193722705 C 4833.333333333333 490.7533193722705, 4841.666666666667 496.7436443832571, 4850 496.8886195944782 C 4858.333333333333 497.0335948056993, 4866.666666666667 496.9774681324474, 4875 497.11407351911913 C 4883.333333333333 497.25067890579083, 4891.666666666667 499.11491821789537, 4900 499.3625734787282 C 4908.333333333333 499.6102287395611, 4916.666666666667 499.7192136926738, 4925 499.8075770325315 C 4933.333333333333 499.89594037238925, 4941.666666666667 499.9939591940081, 4950 499.99634767594455 C 4958.333333333333 499.998736157881, 4966.666666666667 499.99999951952157, 4975 499.9999997117038 C 4983.333333333333 499.9999999038861, 4991.666666666667 500, 5000 500 C 5008.333333333333 500, 5016.666666666667 500, 5025 500 c 0 0, 0 0, 0 0C 5016.666666666667 500, 5008.333333333333 500, 5000 500 C 4991.666666666667 500, 4983.333333333333 500.0000000961139, 4975 500.0000002882962 C 4966.666666666667 500.00000048047843, 4958.333333333333 500.001263842119, 4950 500.00365232405545 C 4941.666666666667 500.0060408059919, 4933.333333333333 500.10405962761075, 4925 500.1924229674685 C 4916.666666666667 500.2807863073262, 4908.333333333333 500.3897712604389, 4900 500.6374265212718 C 4891.666666666667 500.88508178210463, 4883.333333333333 502.74932109420917, 4875 502.88592648088087 C 4866.666666666667 503.0225318675526, 4858.333333333333 502.9664051943007, 4850 503.1113804055218 C 4841.666666666667 503.2563556167429, 4833.333333333333 509.2466806277295, 4825 509.2466806277295 C 4816.666666666667 509.2466806277295, 4808.333333333333 508.4199792833354, 4800 508.4199792833354 C 4791.666666666667 508.4199792833354, 4783.333333333333 517.5732713672654, 4775 517.5732713672654 C 4766.666666666667 517.5732713672654, 4758.333333333333 513.1460956718911, 4750 513.1460956718911 C 4741.666666666667 513.1460956718911, 4733.333333333333 523.8220305039822, 4725 523.8220305039822 C 4716.666666666667 523.8220305039822, 4708.333333333333 513.0681416478731, 4700 513.0681416478731 C 4691.666666666667 513.0681416478731, 4683.333333333333 528.8739394129343, 4675 528.8739394129343 C 4666.666666666667 528.8739394129343, 4658.333333333333 507.78107761747714, 4650 507.78107761747714 C 4641.666666666667 507.78107761747714, 4633.333333333333 531.4971875303593, 4625 531.4971875303593 C 4616.666666666667 531.4971875303593, 4608.333333333333 500.9117900734339, 4600 500.9117900734339 C 4591.666666666667 500.9117900734339, 4583.333333333333 536.2986033134766, 4575 536.2986033134766 C 4566.666666666667 536.2986033134766, 4558.333333333333 532.2140320189155, 4550 532.2140320189155 C 4541.666666666667 532.2140320189155, 4533.333333333333 558.5441692563879, 4525 559.3669285421313 C 4516.666666666667 560.1896878278745, 4508.333333333333 559.8800022801756, 4500 560.6598318189046 C 4491.666666666667 561.4396613576336, 4483.333333333333 571.3968031393454, 4475 572.9396216314598 C 4466.666666666667 574.4824401235742, 4458.333333333333 574.4779620974712, 4450 575.7912651204085 C 4441.666666666667 577.1045681433459, 4433.333333333333 582.1626821520274, 4425 582.1626821520274 C 4416.666666666667 582.1626821520274, 4408.333333333333 575.0205305459251, 4400 575.0205305459251 C 4391.666666666667 575.0205305459251, 4383.333333333333 586.8051865838668, 4375 586.8051865838668 C 4366.666666666667 586.8051865838668, 4358.333333333333 578.5716270660546, 4350 578.5716270660546 C 4341.666666666667 578.5716270660546, 4333.333333333333 586.0640697278358, 4325 586.0640697278358 C 4316.666666666667 586.0640697278358, 4308.333333333333 581.2935576769021, 4300 579.6996617875843 C 4291.666666666667 578.1057658982666, 4283.333333333333 575.8702771158148, 4275 575.8702771158148 C 4266.666666666667 575.8702771158148, 4258.333333333333 575.871995274113, 4250 575.8754276863839 C 4241.666666666667 575.8788600986547, 4233.333333333333 589.4595001971726, 4225 589.4595001971726 C 4216.666666666667 589.4595001971726, 4208.333333333333 577.5875250479278, 4200 577.5875250479278 C 4191.666666666667 577.5875250479278, 4183.333333333333 581.8572305235821, 4175 581.8572305235821 C 4166.666666666667 581.8572305235821, 4158.333333333333 579.4649978895328, 4150 579.4649978895328 C 4141.666666666667 579.4649978895328, 4133.333333333333 584.1291063345977, 4125 584.1291063345977 C 4116.666666666667 584.1291063345977, 4108.333333333333 575.603233013035, 4100 575.603233013035 C 4091.6666666666665 575.603233013035, 4083.3333333333335 578.9563311779284, 4075 579.100394576253 C 4066.6666666666665 579.2444579745777, 4058.3333333333335 579.1864441608359, 4050 579.3307219642609 C 4041.6666666666665 579.4749997676859, 4033.3333333333335 582.9140611058601, 4025 582.9140611058601 C 4016.6666666666665 582.9140611058601, 4008.3333333333335 576.9756440978492, 4000 576.9756440978492 C 3991.6666666666665 576.9756440978492, 3983.3333333333335 582.9816257334777, 3975 582.9816257334777 C 3966.6666666666665 582.9816257334777, 3958.3333333333335 574.2338226128038, 3950 574.2338226128038 C 3941.6666666666665 574.2338226128038, 3933.3333333333335 576.5041429906469, 3925 577.0714971629104 C 3916.6666666666665 577.638851335174, 3908.3333333333335 578.1371730111114, 3900 578.2870901953229 C 3891.6666666666665 578.4370073795344, 3883.3333333333335 578.5630089048921, 3875 578.5630089048921 C 3866.6666666666665 578.5630089048921, 3858.3333333333335 574.7689072988553, 3850 574.7689072988553 C 3841.6666666666665 574.7689072988553, 3833.3333333333335 579.4279658900609, 3825 581.8311162417489 C 3816.6666666666665 584.2342665934368, 3808.3333333333335 589.1940799349672, 3800 589.1940799349672 C 3791.6666666666665 589.1940799349672, 3783.3333333333335 578.3819102429113, 3775 578.2257373129191 C 3766.6666666666665 578.0695643829268, 3758.3333333333335 577.9863654678984, 3750 577.9863654678984 C 3741.6666666666665 577.9863654678984, 3733.3333333333335 588.2509656509745, 3725 588.2509656509745 C 3716.6666666666665 588.2509656509745, 3708.3333333333335 579.3967497112183, 3700 579.3967497112183 C 3691.6666666666665 579.3967497112183, 3683.3333333333335 586.3295556571304, 3675 586.3295556571304 C 3666.6666666666665 586.3295556571304, 3658.3333333333335 581.5575824419169, 3650 581.5575824419169 C 3641.6666666666665 581.5575824419169, 3633.3333333333335 583.5194349458131, 3625 583.5194349458131 C 3616.6666666666665 583.5194349458131, 3608.3333333333335 579.875372735298, 3600 579.875372735298 C 3591.6666666666665 579.875372735298, 3583.3333333333335 586.3400597705743, 3575 586.3400597705743 C 3566.6666666666665 586.3400597705743, 3558.3333333333335 577.7776889948525, 3550 576.9875518044294 C 3541.6666666666665 576.1974146140063, 3533.3333333333335 576.20242422008, 3525 575.6303537595082 C 3516.6666666666665 575.0582832989364, 3508.3333333333335 573.2968790899699, 3500 573.2968790899699 C 3491.6666666666665 573.2968790899699, 3483.3333333333335 580.108828231736, 3475 580.108828231736 C 3466.6666666666665 580.108828231736, 3458.3333333333335 574.2075909245191, 3450 574.2075909245191 C 3441.6666666666665 574.2075909245191, 3433.3333333333335 582.2015083718907, 3425 582.2015083718907 C 3416.6666666666665 582.2015083718907, 3408.3333333333335 575.3365964394369, 3400 575.3365964394369 C 3391.6666666666665 575.3365964394369, 3383.3333333333335 583.1071030980568, 3375 583.1071030980568 C 3366.6666666666665 583.1071030980568, 3358.3333333333335 576.7876466946846, 3350 576.7876466946846 C 3341.6666666666665 576.7876466946846, 3333.3333333333335 582.3059534820302, 3325 582.3059534820302 C 3316.6666666666665 582.3059534820302, 3308.3333333333335 569.9858462823707, 3300 569.9858462823707 C 3291.6666666666665 569.9858462823707, 3283.3333333333335 575.9515486234263, 3275 575.9515486234263 C 3266.6666666666665 575.9515486234263, 3258.3333333333335 569.9243985795304, 3250 569.9243985795304 C 3241.6666666666665 569.9243985795304, 3233.3333333333335 580.8804508369014, 3225 580.8804508369014 C 3216.6666666666665 580.8804508369014, 3208.3333333333335 562.8859618783691, 3200 562.8859618783691 C 3191.6666666666665 562.8859618783691, 3183.3333333333335 569.5700666514052, 3175 569.5700666514052 C 3166.6666666666665 569.5700666514052, 3158.3333333333335 567.2851648104718, 3150 567.2851648104718 C 3141.6666666666665 567.2851648104718, 3133.3333333333335 579.4767931868561, 3125 579.4767931868561 C 3116.6666666666665 579.4767931868561, 3108.3333333333335 575.7868915178417, 3100 574.7367872049941 C 3091.6666666666665 573.6866828921466, 3083.3333333333335 573.208837694177, 3075 572.3776699524951 C 3066.6666666666665 571.5465022108133, 3058.3333333333335 569.7335454551344, 3050 569.7335454551344 C 3041.6666666666665 569.7335454551344, 3033.3333333333335 573.7881950385953, 3025 575.2416624661281 C 3016.6666666666665 576.6951298936609, 3008.3333333333335 578.8501680485966, 3000 578.8501680485966 C 2991.6666666666665 578.8501680485966, 2983.3333333333335 572.6309034173044, 2975 572.6309034173044 C 2966.6666666666665 572.6309034173044, 2958.3333333333335 573.2623632773305, 2950 574.0252134781759 C 2941.6666666666665 574.7880636790214, 2933.3333333333335 578.9079891392046, 2925 580.4062245323805 C 2916.6666666666665 581.9044599255562, 2908.3333333333335 583.8754000258161, 2900 583.8754000258161 C 2891.6666666666665 583.8754000258161, 2883.3333333333335 566.9169410543154, 2875 566.9169410543154 C 2866.6666666666665 566.9169410543154, 2858.3333333333335 567.6923564044193, 2850 568.7467149410102 C 2841.6666666666665 569.8010734776012, 2833.3333333333335 580.4043940145768, 2825 580.4043940145768 C 2816.6666666666665 580.4043940145768, 2808.3333333333335 578.4472921004678, 2800 577.018930518715 C 2791.6666666666665 575.590568936962, 2783.3333333333335 573.0522989741235, 2775 571.1830823258629 C 2766.6666666666665 569.3138656776023, 2758.3333333333335 565.786455813315, 2750 565.786455813315 C 2741.6666666666665 565.786455813315, 2733.3333333333335 578.4536465903498, 2725 578.902927520726 C 2716.6666666666665 579.3522084511023, 2708.3333333333335 579.1867000495567, 2700 579.6133502794368 C 2691.6666666666665 580.0400005093168, 2683.3333333333335 583.0532223679982, 2675 586.067143610708 C 2666.6666666666665 589.081064853418, 2658.3333333333335 601.1619049180821, 2650 601.1619049180821 C 2641.6666666666665 601.1619049180821, 2633.3333333333335 601.1511759273326, 2625 601.1312208365083 C 2616.6666666666665 601.111265745684, 2608.3333333333335 599.9089689890569, 2600 599.9089689890569 C 2591.6666666666665 599.9089689890569, 2583.3333333333335 603.8072770760316, 2575 603.8072770760316 C 2566.6666666666665 603.8072770760316, 2558.3333333333335 600.9334374868201, 2550 600.9334374868201 C 2541.6666666666665 600.9334374868201, 2533.3333333333335 601.8344200096008, 2525 602.196487291817 C 2516.6666666666665 602.5585545740332, 2508.3333333333335 602.5540963266263, 2500 603.1492820426123 C 2491.6666666666665 603.7444677585983, 2483.3333333333335 617.3227063430725, 2475 617.3227063430725 C 2466.6666666666665 617.3227063430725, 2458.3333333333335 613.5275890412217, 2450 612.7132982971818 C 2441.6666666666665 611.8990075531419, 2433.3333333333335 611.9224311260555, 2425 611.0515084188962 C 2416.6666666666665 610.180585711737, 2408.3333333333335 604.9431790047202, 2400 604.9431790047202 C 2391.6666666666665 604.9431790047202, 2383.3333333333335 609.8932736020145, 2375 610.6708209629462 C 2366.6666666666665 611.4483683238781, 2358.3333333333335 612.1353680657, 2350 612.1353680657 C 2341.6666666666665 612.1353680657, 2333.3333333333335 608.4938252560487, 2325 607.6534763341917 C 2316.6666666666665 606.8131274123346, 2308.3333333333335 605.8997093894958, 2300 605.8997093894958 C 2291.6666666666665 605.8997093894958, 2283.3333333333335 620.6245799874754, 2275 620.6245799874754 C 2266.6666666666665 620.6245799874754, 2258.3333333333335 613.2820630342703, 2250 610.9890710912507 C 2241.6666666666665 608.6960791482311, 2233.3333333333335 605.7440193860907, 2225 605.640280876238 C 2216.6666666666665 605.5365423663852, 2208.3333333333335 605.4800105029926, 2200 605.4800105029926 C 2191.6666666666665 605.4800105029926, 2183.3333333333335 607.3473669486327, 2175 607.7937799922389 C 2166.6666666666665 608.2401930358451, 2158.3333333333335 608.2015909077177, 2150 608.7361182166208 C 2141.6666666666665 609.2706455255238, 2133.3333333333335 611.6072001105524, 2125 614.1119488604201 C 2116.6666666666665 616.6166976102877, 2108.3333333333335 626.589593765251, 2100 626.589593765251 C 2091.6666666666665 626.589593765251, 2083.3333333333335 621.8834263590268, 2075 618.546656413542 C 2066.6666666666665 615.2098864680572, 2058.3333333333335 605.2948359410799, 2050 605.2948359410799 C 2041.6666666666667 605.2948359410799, 2033.3333333333333 613.9909883015114, 2025 613.9909883015114 C 2016.6666666666667 613.9909883015114, 2008.3333333333333 600.5267642070253, 2000 600.5267642070253 C 1991.6666666666667 600.5267642070253, 1983.3333333333333 610.3538685232984, 1975 610.3538685232984 C 1966.6666666666667 610.3538685232984, 1958.3333333333333 606.0946989971347, 1950 606.0946989971347 C 1941.6666666666667 606.0946989971347, 1933.3333333333333 621.8086042655902, 1925 621.8086042655902 C 1916.6666666666667 621.8086042655902, 1908.3333333333333 606.5131421405779, 1900 606.5131421405779 C 1891.6666666666667 606.5131421405779, 1883.3333333333333 607.5850231915109, 1875 608.5538536060808 C 1866.6666666666667 609.5226840206507, 1858.3333333333333 613.6020705105651, 1850 613.6020705105651 C 1841.6666666666667 613.6020705105651, 1833.3333333333333 609.2868515505088, 1825 608.0726204368473 C 1816.6666666666667 606.858389323186, 1808.3333333333333 605.3566644921837, 1800 605.3566644921837 C 1791.6666666666667 605.3566644921837, 1783.3333333333333 612.6787957847547, 1775 612.6787957847547 C 1766.6666666666667 612.6787957847547, 1758.3333333333333 607.8775313698443, 1750 607.8775313698443 C 1741.6666666666667 607.8775313698443, 1733.3333333333333 611.2766317081835, 1725 611.2766317081835 C 1716.6666666666667 611.2766317081835, 1708.3333333333333 601.3463609300904, 1700 601.3463609300904 C 1691.6666666666667 601.3463609300904, 1683.3333333333333 605.4256030816639, 1675 606.013704166922 C 1666.6666666666667 606.6018052521802, 1658.3333333333333 606.7080176183804, 1650 607.1014441969246 C 1641.6666666666667 607.494870775469, 1633.3333333333333 608.3914734338612, 1625 608.3914734338612 C 1616.6666666666667 608.3914734338612, 1608.3333333333333 608.1375793669233, 1600 607.7751443258614 C 1591.6666666666667 607.4127092847996, 1583.3333333333333 604.1631115264342, 1575 603.1647312708387 C 1566.6666666666667 602.1663510152433, 1558.3333333333333 600.9466885443823, 1550 600.9466885443823 C 1541.6666666666667 600.9466885443823, 1533.3333333333333 603.0408874291438, 1525 604.6404183725253 C 1516.6666666666667 606.2399493159071, 1508.3333333333333 611.4869294757008, 1500 611.4869294757008 C 1491.6666666666667 611.4869294757008, 1483.3333333333333 601.9775010963951, 1475 601.9775010963951 C 1466.6666666666667 601.9775010963951, 1458.3333333333333 603.9944247704464, 1450 606.0769943373729 C 1441.6666666666667 608.1595639042994, 1433.3333333333333 619.2029776481722, 1425 619.2029776481722 C 1416.6666666666667 619.2029776481722, 1408.3333333333333 615.4166116669678, 1400 612.9494704525121 C 1391.6666666666667 610.4823292380564, 1383.3333333333333 603.8839463443607, 1375 603.8839463443607 C 1366.6666666666667 603.8839463443607, 1358.3333333333333 604.5220305455099, 1350 604.5220305455099 C 1341.6666666666667 604.5220305455099, 1333.3333333333333 602.25696388614, 1325 602.25696388614 C 1316.6666666666667 602.25696388614, 1308.3333333333333 607.6732611818045, 1300 607.6732611818045 C 1291.6666666666667 607.6732611818045, 1283.3333333333333 604.5515606113893, 1275 604.523627351823 C 1266.6666666666667 604.4956940922567, 1258.3333333333333 604.4811625490154, 1250 604.4811625490154 C 1241.6666666666667 604.4811625490154, 1233.3333333333333 610.2067767140672, 1225 610.2067767140672 C 1216.6666666666667 610.2067767140672, 1208.3333333333333 604.460146439651, 1200 604.460146439651 C 1191.6666666666667 604.460146439651, 1183.3333333333333 622.0413829446672, 1175 622.0413829446672 C 1166.6666666666667 622.0413829446672, 1158.3333333333333 600.1359969439836, 1150 600.1359969439836 C 1141.6666666666667 600.1359969439836, 1133.3333333333333 606.411319097552, 1125 606.411319097552 C 1116.6666666666667 606.411319097552, 1108.3333333333333 605.2679883134876, 1100 604.61658396054 C 1091.6666666666667 603.9651796075923, 1083.3333333333333 602.4717869161648, 1075 602.4717869161648 C 1066.6666666666667 602.4717869161648, 1058.3333333333333 610.7290842332005, 1050 610.7290842332005 C 1041.6666666666667 610.7290842332005, 1033.3333333333333 598.7578987012733, 1025 598.7578987012733 C 1016.6666666666666 598.7578987012733, 1008.3333333333334 614.9226079942416, 1000 616.1081114632017 C 991.6666666666666 617.2936149321617, 983.3333333333334 618.0894362907841, 975 618.0894362907841 C 966.6666666666666 618.0894362907841, 958.3333333333334 591.7020804447684, 950 591.7020804447684 C 941.6666666666666 591.7020804447684, 933.3333333333334 601.2262779795249, 925 601.2262779795249 C 916.6666666666666 601.2262779795249, 908.3333333333334 597.2840746189654, 900 597.2840746189654 C 891.6666666666666 597.2840746189654, 883.3333333333334 598.1654952737235, 875 599.2176226548978 C 866.6666666666666 600.2697500360721, 858.3333333333334 607.8047858592248, 850 607.8047858592248 C 841.6666666666666 607.8047858592248, 833.3333333333334 604.9949476155073, 825 603.5576833134886 C 816.6666666666666 602.12041901147, 808.3333333333334 599.1791988848494, 800 599.1791988848494 C 791.6666666666666 599.1791988848494, 783.3333333333334 604.064512851762, 775 605.2899138514786 C 766.6666666666666 606.5153148511952, 758.3333333333334 607.9187765909345, 750 607.9187765909345 C 741.6666666666666 607.9187765909345, 733.3333333333334 606.2163509184693, 725 604.5588059263712 C 716.6666666666666 602.9012609342731, 708.3333333333334 594.9967118958367, 700 594.9967118958367 C 691.6666666666666 594.9967118958367, 683.3333333333334 599.2492918397753, 675 601.7017356400175 C 666.6666666666666 604.1541794402598, 658.3333333333334 609.8519744784884, 650 609.8519744784884 C 641.6666666666666 609.8519744784884, 633.3333333333334 600.9335600850592, 625 599.798598330684 C 616.6666666666666 598.6636365763086, 608.3333333333334 597.7490913968934, 600 597.7490913968934 C 591.6666666666666 597.7490913968934, 583.3333333333334 621.5554554965374, 575 621.5554554965374 C 566.6666666666666 621.5554554965374, 558.3333333333334 613.5013685475803, 550 604.3776807555319 C 541.6666666666666 595.2539929634834, 533.3333333333334 538.6794939390134, 525 537.0607795589854 C 516.6666666666666 535.4420651789576, 508.3333333333333 534.5418521115425, 500 534.5418521115425 C 491.6666666666667 534.5418521115425, 483.3333333333333 548.1935798528411, 475 548.9981609460947 C 466.6666666666667 549.8027420393482, 458.3333333333333 549.9515647974529, 450 550.3149647388466 C 441.6666666666667 550.6783646802405, 433.3333333333333 551.2451008307564, 425 551.2451008307564 C 416.6666666666667 551.2451008307564, 408.3333333333333 534.9039780700865, 400 534.9039780700865 C 391.6666666666667 534.9039780700865, 383.3333333333333 543.1217556247339, 375 543.1217556247339 C 366.6666666666667 543.1217556247339, 358.3333333333333 536.4582433334879, 350 536.4582433334879 C 341.6666666666667 536.4582433334879, 333.3333333333333 540.7320545782775, 325 540.7320545782775 C 316.6666666666667 540.7320545782775, 308.3333333333333 532.7667754685392, 300 531.7138968407904 C 291.6666666666667 530.6610182130416, 283.3333333333333 530.7352446365055, 275 529.7992786064901 C 266.6666666666667 528.8633125764746, 258.3333333333333 526.2122471749378, 250 524.5355452580291 C 241.66666666666666 522.8588433411205, 233.33333333333334 521.7656329811166, 225 519.7192096298031 C 216.66666666666666 517.6727862784896, 208.33333333333334 512.8788402247455, 200 511.25502719612365 C 191.66666666666666 509.6312141675017, 183.33333333333334 509.00684679485164, 175 507.83518785360934 C 166.66666666666666 506.66352891236704, 158.33333333333334 505.19737025154694, 150 504.21962876552294 C 141.66666666666666 503.24188727949894, 133.33333333333334 502.38319213929105, 125 501.7520837208152 C 116.66666666666667 501.1209753023394, 108.33333333333333 500.3394778475502, 100 500.21617755875826 C 91.66666666666667 500.0928772699663, 83.33333333333333 500.00973690750976, 75 500.00590678234556 C 66.66666666666667 500.00207665718136, 58.333333333333336 500.00000035079296, 50 500.0000002104788 C 41.666666666666664 500.0000000701646, 33.333333333333336 500, 25 500 C 8.333333333333334 500, 16.666666666666664 500, 25 500 Z" fill="white" stroke="transparent" stroke-width="0" />
  </g>
</svg>