<svg 
  baseProfile="tiny"
  preserveAspectRatio="keep"
  version="1.2"
  viewBox="-0.000000 -0.000000 5025.000000 1000.000000"
  height="100%" width="100%"
  xmlns="http://www.w3.org/2000/svg"
  xmlns:ev="http://www.w3.org/2001/xml-events"
  xmlns:xlink="http://www.w3.org/1999/xlink"
>
  <g style="transform-origin: center center;">
    <path d="M 0 500 C 8.333333333333334 500, 16.666666666666664 500, 25 500 C 33.333333333333336 500, 41.666666666666664 499.9999999608085, 50 499.99999988243724 C 58.333333333333336 499.99999980406596, 66.66666666666667 499.99919890404374, 75 499.9976427644508 C 83.33333333333333 499.99608662485787, 91.66666666666667 499.87550071438335, 100 499.75747061728123 C 108.33333333333333 499.6394405201791, 116.66666666666667 499.3941446970436, 125 499.08388701983375 C 133.33333333333334 498.7736293426239, 141.66666666666666 498.2098201866218, 150 497.5782140244787 C 158.33333333333334 496.9466078623356, 166.66666666666666 495.73339454514104, 175 495.022990785304 C 183.33333333333334 494.31258702546694, 191.66666666666666 493.69997240843986, 200 493.1950986500602 C 208.33333333333334 492.6902248916805, 216.66666666666666 492.6874846094727, 225 491.9020797053492 C 233.33333333333334 491.1166748012257, 241.66666666666666 480.92294920800356, 250 478.64566971229425 C 258.3333333333333 476.36839021658494, 266.6666666666667 475.17063170317834, 275 474.04398600071795 C 283.3333333333333 472.91734029825756, 291.6666666666667 472.5037422419038, 300 471.3731544306955 C 308.3333333333333 470.24256661948715, 316.6666666666667 468.21160906887275, 325 466.727362225718 C 333.3333333333333 465.2431153825633, 341.6666666666667 464.64853958728014, 350 462.4522692999109 C 358.3333333333333 460.2559990125416, 366.6666666666667 448.09102840677394, 375 448.09102840677394 C 383.3333333333333 448.09102840677394, 391.6666666666667 456.2682987247415, 400 456.2682987247415 C 408.3333333333333 456.2682987247415, 416.6666666666667 449.8906699876206, 425 448.8780117122231 C 433.3333333333333 447.8653534368256, 441.6666666666667 446.9660409873279, 450 446.9660409873279 C 458.3333333333333 446.9660409873279, 466.6666666666667 456.2406439862223, 475 456.2406439862223 C 483.3333333333333 456.2406439862223, 491.6666666666667 452.3517420313203, 500 452.3517420313203 C 508.3333333333333 452.3517420313203, 516.6666666666666 469.7899206209928, 525 469.7899206209928 C 533.3333333333334 469.7899206209928, 541.6666666666666 465.2105414120992, 550 461.129676050598 C 558.3333333333334 457.0488106890968, 566.6666666666666 440.2501744358269, 575 440.2501744358269 C 583.3333333333334 440.2501744358269, 591.6666666666666 444.5034819730086, 600 446.55864222357354 C 608.3333333333334 448.6138024741385, 616.6666666666666 452.58747413518535, 625 452.58747413518535 C 633.3333333333334 452.58747413518535, 641.6666666666666 442.5466395222046, 650 442.5466395222046 C 658.3333333333334 442.5466395222046, 666.6666666666666 449.6832295874541, 675 450.6256964505827 C 683.3333333333334 451.56816331371135, 691.6666666666666 452.3392379440369, 700 452.3392379440369 C 708.3333333333334 452.3392379440369, 716.6666666666666 446.50054827070653, 725 446.50054827070653 C 733.3333333333334 446.50054827070653, 741.6666666666666 452.03786717124865, 750 452.6788586068462 C 758.3333333333334 453.3198500424437, 766.6666666666666 453.1329057349844, 775 453.817552752652 C 783.3333333333334 454.5021997703196, 791.6666666666666 464.28450086732244, 800 464.28450086732244 C 808.3333333333334 464.28450086732244, 816.6666666666666 460.0756036906319, 825 460.0756036906319 C 833.3333333333334 460.0756036906319, 841.6666666666666 464.38515782260026, 850 465.00854667444986 C 858.3333333333334 465.63193552629946, 866.6666666666666 466.1623421634235, 875 466.1623421634235 C 883.3333333333334 466.1623421634235, 891.6666666666666 435.53611317963964, 900 435.53611317963964 C 908.3333333333334 435.53611317963964, 916.6666666666666 447.173596238376, 925 447.173596238376 C 933.3333333333334 447.173596238376, 941.6666666666666 446.10660617965846, 950 446.10660617965846 C 958.3333333333334 446.10660617965846, 966.6666666666666 447.9683013171046, 975 449.01828903817955 C 983.3333333333334 450.0682767592545, 991.6666666666666 450.72321549296754, 1000 452.4490083416524 C 1008.3333333333334 454.1748011903373, 1016.6666666666666 462.9962168004393, 1025 462.9962168004393 C 1033.3333333333333 462.9962168004393, 1041.6666666666667 444.6821308101463, 1050 444.6821308101463 C 1058.3333333333333 444.6821308101463, 1066.6666666666667 451.20668418005107, 1075 451.20668418005107 C 1083.3333333333333 451.20668418005107, 1091.6666666666667 448.25377704827156, 1100 445.80551506723106 C 1108.3333333333333 443.35725308619055, 1116.6666666666667 434.33195581641763, 1125 434.33195581641763 C 1133.3333333333333 434.33195581641763, 1141.6666666666667 444.54072844368443, 1150 447.5961012963571 C 1158.3333333333333 450.6514741490298, 1166.6666666666667 454.598723273944, 1175 454.598723273944 C 1183.3333333333333 454.598723273944, 1191.6666666666667 452.11621292110004, 1200 449.30967514996115 C 1208.3333333333333 446.50313737882226, 1216.6666666666667 428.67863874601096, 1225 428.67863874601096 C 1233.3333333333333 428.67863874601096, 1241.6666666666667 440.394509407085, 1250 443.4371770739283 C 1258.3333333333333 446.47984474077157, 1266.6666666666667 450.04444057290596, 1275 450.04444057290596 C 1283.3333333333333 450.04444057290596, 1291.6666666666667 445.9685176668723, 1300 445.9685176668723 C 1308.3333333333333 445.9685176668723, 1316.6666666666667 449.8042135994389, 1325 451.48059111952267 C 1333.3333333333333 453.1569686396064, 1341.6666666666667 456.10459141038297, 1350 456.10459141038297 C 1358.3333333333333 456.10459141038297, 1366.6666666666667 436.1225420930548, 1375 436.1225420930548 C 1383.3333333333333 436.1225420930548, 1391.6666666666667 438.4978216457956, 1400 438.4978216457956 C 1408.3333333333333 438.4978216457956, 1416.6666666666667 431.8868222883049, 1425 427.86928021861524 C 1433.3333333333333 423.85173814892556, 1441.6666666666667 414.83006843089106, 1450 413.95190932905416 C 1458.3333333333333 413.07375022721726, 1466.6666666666667 412.496964370071, 1475 412.496964370071 C 1483.3333333333333 412.496964370071, 1491.6666666666667 432.85450256452805, 1500 432.85450256452805 C 1508.3333333333333 432.85450256452805, 1516.6666666666667 423.02861868644675, 1525 423.02861868644675 C 1533.3333333333333 423.02861868644675, 1541.6666666666667 426.6540412585115, 1550 428.7826751059408 C 1558.3333333333333 430.91130895337017, 1566.6666666666667 435.95630298562867, 1575 435.95630298562867 C 1583.3333333333333 435.95630298562867, 1591.6666666666667 428.5997752696213, 1600 428.5997752696213 C 1608.3333333333333 428.5997752696213, 1616.6666666666667 438.66770636255404, 1625 438.66770636255404 C 1633.3333333333333 438.66770636255404, 1641.6666666666667 431.98664895222805, 1650 431.98664895222805 C 1658.3333333333333 431.98664895222805, 1666.6666666666667 436.30690964406216, 1675 436.81024881982984 C 1683.3333333333333 437.3135879955975, 1691.6666666666667 437.7053646177412, 1700 437.7053646177412 C 1708.3333333333333 437.7053646177412, 1716.6666666666667 436.5455559640663, 1725 434.8774880539496 C 1733.3333333333333 433.2094201438329, 1741.6666666666667 413.17508874421696, 1750 413.15807505228366 C 1758.3333333333333 413.14106136035036, 1766.6666666666667 413.13252449220784, 1775 413.13252449220784 C 1783.3333333333333 413.13252449220784, 1791.6666666666667 420.4178917599139, 1800 422.99450910555447 C 1808.3333333333333 425.571126451195, 1816.6666666666667 427.08071745794575, 1825 429.3502650687008 C 1833.3333333333333 431.6198126794559, 1841.6666666666667 436.68128860874305, 1850 436.68128860874305 C 1858.3333333333333 436.68128860874305, 1866.6666666666667 426.48313075092904, 1875 426.48313075092904 C 1883.3333333333333 426.48313075092904, 1891.6666666666667 434.8623078580863, 1900 436.8107854858317 C 1908.3333333333333 438.75926311357705, 1916.6666666666667 440.88709309320615, 1925 440.88709309320615 C 1933.3333333333333 440.88709309320615, 1941.6666666666667 436.4269210077412, 1950 436.4269210077412 C 1958.3333333333333 436.4269210077412, 1966.6666666666667 436.68014884586466, 1975 436.68014884586466 C 1983.3333333333333 436.68014884586466, 1991.6666666666667 429.1696806441921, 2000 429.1696806441921 C 2008.3333333333333 429.1696806441921, 2016.6666666666667 436.7258567781742, 2025 436.7258567781742 C 2033.3333333333333 436.7258567781742, 2041.6666666666667 434.4252531606704, 2050 431.71814360450804 C 2058.3333333333335 429.01103404834566, 2066.6666666666665 413.6257708787577, 2075 410.2465558320911 C 2083.3333333333335 406.86734078542446, 2091.6666666666665 403.6113533298615, 2100 403.6113533298615 C 2108.3333333333335 403.6113533298615, 2116.6666666666665 408.6018614412077, 2125 413.9005278227887 C 2133.3333333333335 419.19919420436975, 2141.6666666666665 448.8310038636109, 2150 448.8310038636109 C 2158.3333333333335 448.8310038636109, 2166.6666666666665 417.36111574638704, 2175 417.36111574638704 C 2183.3333333333335 417.36111574638704, 2191.6666666666665 426.83335548097256, 2200 430.9561200044527 C 2208.3333333333335 435.07888452793287, 2216.6666666666665 442.2351497535069, 2225 442.30075889214294 C 2233.3333333333335 442.366368030779, 2241.6666666666665 442.4000338008784, 2250 442.4000338008784 C 2258.3333333333335 442.4000338008784, 2266.6666666666665 433.71369498589826, 2275 433.71369498589826 C 2283.3333333333335 433.71369498589826, 2291.6666666666665 436.4937459078405, 2300 436.4937459078405 C 2308.3333333333335 436.4937459078405, 2316.6666666666665 409.0952489350765, 2325 408.9053722264353 C 2333.3333333333335 408.7154955177941, 2341.6666666666665 408.61758613609857, 2350 408.61758613609857 C 2358.3333333333335 408.61758613609857, 2366.6666666666665 432.40621481672696, 2375 432.40621481672696 C 2383.3333333333335 432.40621481672696, 2391.6666666666665 422.3822279057177, 2400 420.35921716561273 C 2408.3333333333335 418.3362064255078, 2416.6666666666665 416.30297491033554, 2425 416.30297491033554 C 2433.3333333333335 416.30297491033554, 2441.6666666666665 427.13319055052403, 2450 428.9561176095318 C 2458.3333333333335 430.7790446685396, 2466.6666666666665 432.44432196484655, 2475 432.44432196484655 C 2483.3333333333335 432.44432196484655, 2491.6666666666665 414.9481395907896, 2500 414.9481395907896 C 2508.3333333333335 414.9481395907896, 2516.6666666666665 419.69732665010565, 2525 423.7190933576607 C 2533.3333333333335 427.74086006521577, 2541.6666666666665 443.0420394109567, 2550 443.0420394109567 C 2558.3333333333335 443.0420394109567, 2566.6666666666665 418.0780091387442, 2575 418.0780091387442 C 2583.3333333333335 418.0780091387442, 2591.6666666666665 422.8281968447726, 2600 422.8281968447726 C 2608.3333333333335 422.8281968447726, 2616.6666666666665 420.0656564482048, 2625 420.0656564482048 C 2633.3333333333335 420.0656564482048, 2641.6666666666665 430.29645010221435, 2650 430.29645010221435 C 2658.3333333333335 430.29645010221435, 2666.6666666666665 425.3241948999014, 2675 425.3241948999014 C 2683.3333333333335 425.3241948999014, 2691.6666666666665 428.0939543525939, 2700 428.0939543525939 C 2708.3333333333335 428.0939543525939, 2716.6666666666665 422.8731069987044, 2725 422.8731069987044 C 2733.3333333333335 422.8731069987044, 2741.6666666666665 426.40120040526625, 2750 426.40120040526625 C 2758.3333333333335 426.40120040526625, 2766.6666666666665 417.67696632723755, 2775 417.67696632723755 C 2783.3333333333335 417.67696632723755, 2791.6666666666665 423.79955922060253, 2800 423.79955922060253 C 2808.3333333333335 423.79955922060253, 2816.6666666666665 422.43998651336346, 2825 422.43998651336346 C 2833.3333333333335 422.43998651336346, 2841.6666666666665 423.45851244478513, 2850 424.73066034207005 C 2858.3333333333335 426.002808239355, 2866.6666666666665 434.7109983649004, 2875 436.1598437131897 C 2883.3333333333335 437.60868906147897, 2891.6666666666665 438.8433901596808, 2900 438.8433901596808 C 2908.3333333333335 438.8433901596808, 2916.6666666666665 437.66062485930865, 2925 436.5579743761663 C 2933.3333333333335 435.455323893024, 2941.6666666666665 430.5716227436967, 2950 430.5716227436967 C 2958.3333333333335 430.5716227436967, 2966.6666666666665 433.89838378638365, 2975 433.89838378638365 C 2983.3333333333335 433.89838378638365, 2991.6666666666665 433.68218931097255, 3000 433.36538581797686 C 3008.3333333333335 433.04858232498117, 3016.6666666666665 430.8964265212282, 3025 428.9827682813234 C 3033.3333333333335 427.0691100414186, 3041.6666666666665 424.16088060611105, 3050 420.6632145583061 C 3058.3333333333335 417.16554851050114, 3066.6666666666665 406.4595846729001, 3075 406.4595846729001 C 3083.3333333333335 406.4595846729001, 3091.6666666666665 434.9355995238069, 3100 434.9355995238069 C 3108.3333333333335 434.9355995238069, 3116.6666666666665 423.5155334394926, 3125 423.5155334394926 C 3133.3333333333335 423.5155334394926, 3141.6666666666665 425.27919025060146, 3150 427.0026899712868 C 3158.3333333333335 428.7261896919722, 3166.6666666666665 436.99836630479535, 3175 436.99836630479535 C 3183.3333333333335 436.99836630479535, 3191.6666666666665 432.3531831559463, 3200 431.9918509998358 C 3208.3333333333335 431.63051884372527, 3216.6666666666665 431.3840534684155, 3225 431.3840534684155 C 3233.3333333333335 431.3840534684155, 3241.6666666666665 434.2598085491629, 3250 434.2598085491629 C 3258.3333333333335 434.2598085491629, 3266.6666666666665 426.8871358031553, 3275 426.8871358031553 C 3283.3333333333335 426.8871358031553, 3291.6666666666665 429.0153602137372, 3300 429.0153602137372 C 3308.3333333333335 429.0153602137372, 3316.6666666666665 419.79964535068825, 3325 417.0504678068645 C 3333.3333333333335 414.30129026304076, 3341.6666666666665 410.7579506727972, 3350 410.7579506727972 C 3358.3333333333335 410.7579506727972, 3366.6666666666665 422.1918137798417, 3375 422.1918137798417 C 3383.3333333333335 422.1918137798417, 3391.6666666666665 417.2183773207996, 3400 417.2183773207996 C 3408.3333333333335 417.2183773207996, 3416.6666666666665 432.4617095248037, 3425 432.4617095248037 C 3433.3333333333335 432.4617095248037, 3441.6666666666665 422.9435245899, 3450 420.30559158156314 C 3458.3333333333335 417.6676585732263, 3466.6666666666665 414.43911326172014, 3475 414.43911326172014 C 3483.3333333333335 414.43911326172014, 3491.6666666666665 416.68413610863206, 3500 416.68413610863206 C 3508.3333333333335 416.68413610863206, 3516.6666666666665 413.5218318697402, 3525 413.5218318697402 C 3533.3333333333335 413.5218318697402, 3541.6666666666665 417.56775778359105, 3550 417.56775778359105 C 3558.3333333333335 417.56775778359105, 3566.6666666666665 415.63696730904053, 3575 415.63696730904053 C 3583.3333333333335 415.63696730904053, 3591.6666666666665 415.936120325911, 3600 416.4576364818647 C 3608.3333333333335 416.9791526378184, 3616.6666666666665 433.1782868326918, 3625 433.1782868326918 C 3633.3333333333335 433.1782868326918, 3641.6666666666665 406.73473239293924, 3650 406.73473239293924 C 3658.3333333333335 406.73473239293924, 3666.6666666666665 421.4725676586221, 3675 421.4725676586221 C 3683.3333333333335 421.4725676586221, 3691.6666666666665 411.41753168834055, 3700 411.41753168834055 C 3708.3333333333335 411.41753168834055, 3716.6666666666665 414.9638134571638, 3725 417.45596431331063 C 3733.3333333333335 419.9481151694575, 3741.6666666666665 425.5733700515799, 3750 427.2694437191617 C 3758.3333333333335 428.9655173867435, 3766.6666666666665 430.7039338846077, 3775 430.7039338846077 C 3783.3333333333335 430.7039338846077, 3791.6666666666665 426.64845095238616, 3800 424.2449029501033 C 3808.3333333333335 421.8413549478205, 3816.6666666666665 416.08468517338974, 3825 416.08468517338974 C 3833.3333333333335 416.08468517338974, 3841.6666666666665 419.8406954533881, 3850 419.8406954533881 C 3858.3333333333335 419.8406954533881, 3866.6666666666665 412.87791846945703, 3875 412.87791846945703 C 3883.3333333333335 412.87791846945703, 3891.6666666666665 415.35244769567146, 3900 415.3987207500628 C 3908.3333333333335 415.44499380445416, 3916.6666666666665 415.42346200613326, 3925 415.4700956185735 C 3933.3333333333335 415.51672923101376, 3941.6666666666665 418.01534561814594, 3950 418.9750992752801 C 3958.3333333333335 419.9348529324143, 3966.6666666666665 421.418197785286, 3975 421.418197785286 C 3983.3333333333335 421.418197785286, 3991.6666666666665 404.63685166223445, 4000 404.63685166223445 C 4008.3333333333335 404.63685166223445, 4016.6666666666665 412.7945769829449, 4025 415.3069692640009 C 4033.3333333333335 417.8193615450569, 4041.6666666666665 421.13339998698075, 4050 421.13339998698075 C 4058.3333333333335 421.13339998698075, 4066.6666666666665 403.8220941078128, 4075 403.8220941078128 C 4083.3333333333335 403.8220941078128, 4091.6666666666665 435.5099119441126, 4100 437.6957120797687 C 4108.333333333333 439.88151221542483, 4116.666666666667 441.3257737448419, 4125 441.3257737448419 C 4133.333333333333 441.3257737448419, 4141.666666666667 440.99224176975275, 4150 440.99224176975275 C 4158.333333333333 440.99224176975275, 4166.666666666667 445.87499827023925, 4175 448.37947201889 C 4183.333333333333 450.88394576754075, 4191.666666666667 456.0234704568349, 4200 456.0234704568349 C 4208.333333333333 456.0234704568349, 4216.666666666667 455.1270630678414, 4225 453.7986580573194 C 4233.333333333333 452.47025304679744, 4241.666666666667 440.00029773208996, 4250 434.70699281228883 C 4258.333333333333 429.4136878924877, 4266.666666666667 421.1138275156651, 4275 421.1138275156651 C 4283.333333333333 421.1138275156651, 4291.666666666667 440.39257125265726, 4300 440.717333588384 C 4308.333333333333 441.04209592411075, 4316.666666666667 441.10537744591414, 4325 441.2168910013793 C 4333.333333333333 441.3284045568444, 4341.666666666667 441.46836371880784, 4350 441.46836371880784 C 4358.333333333333 441.46836371880784, 4366.666666666667 433.65942062208575, 4375 433.65942062208575 C 4383.333333333333 433.65942062208575, 4391.666666666667 446.89946502251104, 4400 448.8841568898679 C 4408.333333333333 450.8688487572247, 4416.666666666667 450.91135396698076, 4425 452.58482077402857 C 4433.333333333333 454.2582875810764, 4441.666666666667 458.4460019908394, 4450 460.38800491762396 C 4458.333333333333 462.3300078444085, 4466.666666666667 465.03624093630225, 4475 465.03624093630225 C 4483.333333333333 465.03624093630225, 4491.666666666667 464.854478299994, 4500 464.624519226398 C 4508.333333333333 464.39456015280194, 4516.666666666667 462.49795254223767, 4525 462.49795254223767 C 4533.333333333333 462.49795254223767, 4541.666666666667 464.3979607309429, 4550 464.3979607309429 C 4558.333333333333 464.3979607309429, 4566.666666666667 463.67956425426564, 4575 463.67956425426564 C 4583.333333333333 463.67956425426564, 4591.666666666667 464.5943802057691, 4600 464.5943802057691 C 4608.333333333333 464.5943802057691, 4616.666666666667 464.25082077439276, 4625 463.9897475110704 C 4633.333333333333 463.728674247748, 4641.666666666667 462.8782226114297, 4650 462.8782226114297 C 4658.333333333333 462.8782226114297, 4666.666666666667 470.5741988474126, 4675 471.80981085438026 C 4683.333333333333 473.0454228613479, 4691.666666666667 473.1409978268963, 4700 474.14854614438707 C 4708.333333333333 475.15609446187784, 4716.666666666667 477.27277083699937, 4725 478.42039588000597 C 4733.333333333333 479.56802092301257, 4741.666666666667 480.12775873891326, 4750 481.3037426143647 C 4758.333333333333 482.47972648981613, 4766.666666666667 484.42829831311406, 4775 485.8475035823943 C 4783.333333333333 487.2667088516746, 4791.666666666667 488.696272521569, 4800 489.8528792586436 C 4808.333333333333 491.0094859957182, 4816.666666666667 491.9397174959129, 4825 492.91347036707685 C 4833.333333333333 493.88722323824084, 4841.666666666667 494.73643254405806, 4850 495.70753024039976 C 4858.333333333333 496.67862793674146, 4866.666666666667 498.28014063613114, 4875 498.75068643748733 C 4883.333333333333 499.2212322388435, 4891.666666666667 499.5208045772711, 4900 499.6696451080523 C 4908.333333333333 499.81848563883347, 4916.666666666667 499.94367895725014, 4925 499.9645539355634 C 4933.333333333333 499.98542891387666, 4941.666666666667 499.9993132274061, 4950 499.9995859939218 C 4958.333333333333 499.9998587604375, 4966.666666666667 499.9999999645785, 4975 499.99999997874664 C 4983.333333333333 499.9999999929148, 4991.666666666667 500, 5000 500 C 5008.333333333333 500, 5016.666666666667 500, 5025 500 c 0 0, 0 0, 0 0C 5016.666666666667 500, 5008.333333333333 500, 5000 500 C 4991.666666666667 500, 4983.333333333333 500.0000000070852, 4975 500.00000002125336 C 4966.666666666667 500.0000000354215, 4958.333333333333 500.0001412395625, 4950 500.0004140060782 C 4941.666666666667 500.0006867725939, 4933.333333333333 500.01457108612334, 4925 500.0354460644366 C 4916.666666666667 500.05632104274986, 4908.333333333333 500.18151436116653, 4900 500.3303548919477 C 4891.666666666667 500.4791954227289, 4883.333333333333 500.7787677611565, 4875 501.24931356251267 C 4866.666666666667 501.71985936386886, 4858.333333333333 503.32137206325854, 4850 504.29246975960024 C 4841.666666666667 505.26356745594194, 4833.333333333333 506.11277676175916, 4825 507.08652963292315 C 4816.666666666667 508.0602825040871, 4808.333333333333 508.9905140042818, 4800 510.1471207413564 C 4791.666666666667 511.303727478431, 4783.333333333333 512.7332911483254, 4775 514.1524964176057 C 4766.666666666667 515.571701686886, 4758.333333333333 517.5202735101839, 4750 518.6962573856354 C 4741.666666666667 519.8722412610867, 4733.333333333333 520.4319790769874, 4725 521.579604119994 C 4716.666666666667 522.7272291630006, 4708.333333333333 524.8439055381222, 4700 525.8514538556129 C 4691.666666666667 526.8590021731037, 4683.333333333333 526.9545771386521, 4675 528.1901891456198 C 4666.666666666667 529.4258011525874, 4658.333333333333 537.1217773885703, 4650 537.1217773885703 C 4641.666666666667 537.1217773885703, 4633.333333333333 536.271325752252, 4625 536.0102524889296 C 4616.666666666667 535.7491792256072, 4608.333333333333 535.4056197942309, 4600 535.4056197942309 C 4591.666666666667 535.4056197942309, 4583.333333333333 536.3204357457344, 4575 536.3204357457344 C 4566.666666666667 536.3204357457344, 4558.333333333333 535.6020392690571, 4550 535.6020392690571 C 4541.666666666667 535.6020392690571, 4533.333333333333 537.5020474577623, 4525 537.5020474577623 C 4516.666666666667 537.5020474577623, 4508.333333333333 535.6054398471981, 4500 535.375480773602 C 4491.666666666667 535.1455217000059, 4483.333333333333 534.9637590636978, 4475 534.9637590636978 C 4466.666666666667 534.9637590636978, 4458.333333333333 537.6699921555914, 4450 539.6119950823761 C 4441.666666666667 541.5539980091605, 4433.333333333333 545.7417124189236, 4425 547.4151792259714 C 4416.666666666667 549.0886460330192, 4408.333333333333 549.1311512427753, 4400 551.1158431101321 C 4391.666666666667 553.1005349774889, 4383.333333333333 566.3405793779143, 4375 566.3405793779143 C 4366.666666666667 566.3405793779143, 4358.333333333333 558.5316362811922, 4350 558.5316362811922 C 4341.666666666667 558.5316362811922, 4333.333333333333 558.6715954431556, 4325 558.7831089986207 C 4316.666666666667 558.8946225540858, 4308.333333333333 558.9579040758892, 4300 559.282666411616 C 4291.666666666667 559.6074287473427, 4283.333333333333 578.8861724843349, 4275 578.8861724843349 C 4266.666666666667 578.8861724843349, 4258.333333333333 570.5863121075123, 4250 565.2930071877112 C 4241.666666666667 559.99970226791, 4233.333333333333 547.5297469532026, 4225 546.2013419426805 C 4216.666666666667 544.8729369321586, 4208.333333333333 543.976529543165, 4200 543.976529543165 C 4191.666666666667 543.976529543165, 4183.333333333333 549.1160542324592, 4175 551.62052798111 C 4166.666666666667 554.1250017297607, 4158.333333333333 559.0077582302472, 4150 559.0077582302472 C 4141.666666666667 559.0077582302472, 4133.333333333333 558.6742262551581, 4125 558.6742262551581 C 4116.666666666667 558.6742262551581, 4108.333333333333 560.1184877845751, 4100 562.3042879202312 C 4091.6666666666665 564.4900880558873, 4083.3333333333335 596.1779058921873, 4075 596.1779058921873 C 4066.6666666666665 596.1779058921873, 4058.3333333333335 578.8666000130193, 4050 578.8666000130193 C 4041.6666666666665 578.8666000130193, 4033.3333333333335 582.1806384549432, 4025 584.6930307359992 C 4016.6666666666665 587.2054230170552, 4008.3333333333335 595.3631483377656, 4000 595.3631483377656 C 3991.6666666666665 595.3631483377656, 3983.3333333333335 578.581802214714, 3975 578.581802214714 C 3966.6666666666665 578.581802214714, 3958.3333333333335 580.0651470675857, 3950 581.0249007247198 C 3941.6666666666665 581.984654381854, 3933.3333333333335 584.4832707689862, 3925 584.5299043814265 C 3916.6666666666665 584.5765379938667, 3908.3333333333335 584.5550061955458, 3900 584.6012792499372 C 3891.6666666666665 584.6475523043285, 3883.3333333333335 587.122081530543, 3875 587.122081530543 C 3866.6666666666665 587.122081530543, 3858.3333333333335 580.1593045466119, 3850 580.1593045466119 C 3841.6666666666665 580.1593045466119, 3833.3333333333335 583.9153148266103, 3825 583.9153148266103 C 3816.6666666666665 583.9153148266103, 3808.3333333333335 578.1586450521795, 3800 575.7550970498967 C 3791.6666666666665 573.3515490476138, 3783.3333333333335 569.2960661153923, 3775 569.2960661153923 C 3766.6666666666665 569.2960661153923, 3758.3333333333335 571.0344826132565, 3750 572.7305562808383 C 3741.6666666666665 574.4266299484201, 3733.3333333333335 580.0518848305426, 3725 582.5440356866893 C 3716.6666666666665 585.0361865428363, 3708.3333333333335 588.5824683116595, 3700 588.5824683116595 C 3691.6666666666665 588.5824683116595, 3683.3333333333335 578.5274323413779, 3675 578.5274323413779 C 3666.6666666666665 578.5274323413779, 3658.3333333333335 593.2652676070608, 3650 593.2652676070608 C 3641.6666666666665 593.2652676070608, 3633.3333333333335 566.8217131673082, 3625 566.8217131673082 C 3616.6666666666665 566.8217131673082, 3608.3333333333335 583.0208473621816, 3600 583.5423635181353 C 3591.6666666666665 584.063879674089, 3583.3333333333335 584.3630326909595, 3575 584.3630326909595 C 3566.6666666666665 584.3630326909595, 3558.3333333333335 582.4322422164089, 3550 582.4322422164089 C 3541.6666666666665 582.4322422164089, 3533.3333333333335 586.4781681302597, 3525 586.4781681302597 C 3516.6666666666665 586.4781681302597, 3508.3333333333335 583.3158638913679, 3500 583.3158638913679 C 3491.6666666666665 583.3158638913679, 3483.3333333333335 585.5608867382798, 3475 585.5608867382798 C 3466.6666666666665 585.5608867382798, 3458.3333333333335 582.3323414267737, 3450 579.6944084184369 C 3441.6666666666665 577.0564754101, 3433.3333333333335 567.5382904751963, 3425 567.5382904751963 C 3416.6666666666665 567.5382904751963, 3408.3333333333335 582.7816226792004, 3400 582.7816226792004 C 3391.6666666666665 582.7816226792004, 3383.3333333333335 577.8081862201583, 3375 577.8081862201583 C 3366.6666666666665 577.8081862201583, 3358.3333333333335 589.2420493272027, 3350 589.2420493272027 C 3341.6666666666665 589.2420493272027, 3333.3333333333335 585.6987097369592, 3325 582.9495321931355 C 3316.6666666666665 580.2003546493117, 3308.3333333333335 570.9846397862627, 3300 570.9846397862627 C 3291.6666666666665 570.9846397862627, 3283.3333333333335 573.1128641968447, 3275 573.1128641968447 C 3266.6666666666665 573.1128641968447, 3258.3333333333335 565.7401914508371, 3250 565.7401914508371 C 3241.6666666666665 565.7401914508371, 3233.3333333333335 568.6159465315845, 3225 568.6159465315845 C 3216.6666666666665 568.6159465315845, 3208.3333333333335 568.3694811562748, 3200 568.0081490001642 C 3191.6666666666665 567.6468168440538, 3183.3333333333335 563.0016336952046, 3175 563.0016336952046 C 3166.6666666666665 563.0016336952046, 3158.3333333333335 571.2738103080278, 3150 572.9973100287132 C 3141.6666666666665 574.7208097493985, 3133.3333333333335 576.4844665605074, 3125 576.4844665605074 C 3116.6666666666665 576.4844665605074, 3108.3333333333335 565.0644004761931, 3100 565.0644004761931 C 3091.6666666666665 565.0644004761931, 3083.3333333333335 593.5404153270999, 3075 593.5404153270999 C 3066.6666666666665 593.5404153270999, 3058.3333333333335 582.8344514894989, 3050 579.3367854416939 C 3041.6666666666665 575.839119393889, 3033.3333333333335 572.9308899585815, 3025 571.0172317186766 C 3016.6666666666665 569.1035734787718, 3008.3333333333335 566.9514176750188, 3000 566.6346141820231 C 2991.6666666666665 566.3178106890275, 2983.3333333333335 566.1016162136164, 2975 566.1016162136164 C 2966.6666666666665 566.1016162136164, 2958.3333333333335 569.4283772563033, 2950 569.4283772563033 C 2941.6666666666665 569.4283772563033, 2933.3333333333335 564.544676106976, 2925 563.4420256238336 C 2916.6666666666665 562.3393751406913, 2908.3333333333335 561.1566098403192, 2900 561.1566098403192 C 2891.6666666666665 561.1566098403192, 2883.3333333333335 562.391310938521, 2875 563.8401562868103 C 2866.6666666666665 565.2890016350996, 2858.3333333333335 573.997191760645, 2850 575.26933965793 C 2841.6666666666665 576.5414875552149, 2833.3333333333335 577.5600134866365, 2825 577.5600134866365 C 2816.6666666666665 577.5600134866365, 2808.3333333333335 576.2004407793975, 2800 576.2004407793975 C 2791.6666666666665 576.2004407793975, 2783.3333333333335 582.3230336727624, 2775 582.3230336727624 C 2766.6666666666665 582.3230336727624, 2758.3333333333335 573.5987995947337, 2750 573.5987995947337 C 2741.6666666666665 573.5987995947337, 2733.3333333333335 577.1268930012957, 2725 577.1268930012957 C 2716.6666666666665 577.1268930012957, 2708.3333333333335 571.906045647406, 2700 571.906045647406 C 2691.6666666666665 571.906045647406, 2683.3333333333335 574.6758051000986, 2675 574.6758051000986 C 2666.6666666666665 574.6758051000986, 2658.3333333333335 569.7035498977857, 2650 569.7035498977857 C 2641.6666666666665 569.7035498977857, 2633.3333333333335 579.9343435517952, 2625 579.9343435517952 C 2616.6666666666665 579.9343435517952, 2608.3333333333335 577.1718031552274, 2600 577.1718031552274 C 2591.6666666666665 577.1718031552274, 2583.3333333333335 581.9219908612558, 2575 581.9219908612558 C 2566.6666666666665 581.9219908612558, 2558.3333333333335 556.9579605890433, 2550 556.9579605890433 C 2541.6666666666665 556.9579605890433, 2533.3333333333335 572.2591399347842, 2525 576.2809066423392 C 2516.6666666666665 580.3026733498943, 2508.3333333333335 585.0518604092103, 2500 585.0518604092103 C 2491.6666666666665 585.0518604092103, 2483.3333333333335 567.5556780351535, 2475 567.5556780351535 C 2466.6666666666665 567.5556780351535, 2458.3333333333335 569.2209553314603, 2450 571.0438823904682 C 2441.6666666666665 572.866809449476, 2433.3333333333335 583.6970250896645, 2425 583.6970250896645 C 2416.6666666666665 583.6970250896645, 2408.3333333333335 581.6637935744923, 2400 579.6407828343872 C 2391.6666666666665 577.6177720942824, 2383.3333333333335 567.593785183273, 2375 567.593785183273 C 2366.6666666666665 567.593785183273, 2358.3333333333335 591.3824138639014, 2350 591.3824138639014 C 2341.6666666666665 591.3824138639014, 2333.3333333333335 591.2845044822059, 2325 591.0946277735648 C 2316.6666666666665 590.9047510649235, 2308.3333333333335 563.5062540921595, 2300 563.5062540921595 C 2291.6666666666665 563.5062540921595, 2283.3333333333335 566.2863050141018, 2275 566.2863050141018 C 2266.6666666666665 566.2863050141018, 2258.3333333333335 557.5999661991216, 2250 557.5999661991216 C 2241.6666666666665 557.5999661991216, 2233.3333333333335 557.633631969221, 2225 557.699241107857 C 2216.6666666666665 557.7648502464931, 2208.3333333333335 564.9211154720672, 2200 569.0438799955473 C 2191.6666666666665 573.1666445190274, 2183.3333333333335 582.638884253613, 2175 582.638884253613 C 2166.6666666666665 582.638884253613, 2158.3333333333335 551.1689961363891, 2150 551.1689961363891 C 2141.6666666666665 551.1689961363891, 2133.3333333333335 580.8008057956303, 2125 586.0994721772113 C 2116.6666666666665 591.3981385587923, 2108.3333333333335 596.3886466701385, 2100 596.3886466701385 C 2091.6666666666665 596.3886466701385, 2083.3333333333335 593.1326592145756, 2075 589.7534441679089 C 2066.6666666666665 586.3742291212423, 2058.3333333333335 570.9889659516543, 2050 568.281856395492 C 2041.6666666666667 565.5747468393296, 2033.3333333333333 563.2741432218259, 2025 563.2741432218259 C 2016.6666666666667 563.2741432218259, 2008.3333333333333 570.8303193558079, 2000 570.8303193558079 C 1991.6666666666667 570.8303193558079, 1983.3333333333333 563.3198511541353, 1975 563.3198511541353 C 1966.6666666666667 563.3198511541353, 1958.3333333333333 563.5730789922588, 1950 563.5730789922588 C 1941.6666666666667 563.5730789922588, 1933.3333333333333 559.1129069067938, 1925 559.1129069067938 C 1916.6666666666667 559.1129069067938, 1908.3333333333333 561.240736886423, 1900 563.1892145141683 C 1891.6666666666667 565.1376921419137, 1883.3333333333333 573.516869249071, 1875 573.516869249071 C 1866.6666666666667 573.516869249071, 1858.3333333333333 563.318711391257, 1850 563.318711391257 C 1841.6666666666667 563.318711391257, 1833.3333333333333 568.3801873205441, 1825 570.6497349312992 C 1816.6666666666667 572.9192825420542, 1808.3333333333333 574.428873548805, 1800 577.0054908944455 C 1791.6666666666667 579.5821082400861, 1783.3333333333333 586.8674755077922, 1775 586.8674755077922 C 1766.6666666666667 586.8674755077922, 1758.3333333333333 586.8589386396496, 1750 586.8419249477163 C 1741.6666666666667 586.824911255783, 1733.3333333333333 566.7905798561671, 1725 565.1225119460504 C 1716.6666666666667 563.4544440359336, 1708.3333333333333 562.2946353822588, 1700 562.2946353822588 C 1691.6666666666667 562.2946353822588, 1683.3333333333333 562.6864120044024, 1675 563.1897511801701 C 1666.6666666666667 563.6930903559378, 1658.3333333333333 568.013351047772, 1650 568.013351047772 C 1641.6666666666667 568.013351047772, 1633.3333333333333 561.3322936374459, 1625 561.3322936374459 C 1616.6666666666667 561.3322936374459, 1608.3333333333333 571.4002247303787, 1600 571.4002247303787 C 1591.6666666666667 571.4002247303787, 1583.3333333333333 564.0436970143713, 1575 564.0436970143713 C 1566.6666666666667 564.0436970143713, 1558.3333333333333 569.0886910466298, 1550 571.2173248940592 C 1541.6666666666667 573.3459587414885, 1533.3333333333333 576.9713813135533, 1525 576.9713813135533 C 1516.6666666666667 576.9713813135533, 1508.3333333333333 567.145497435472, 1500 567.145497435472 C 1491.6666666666667 567.145497435472, 1483.3333333333333 587.503035629929, 1475 587.503035629929 C 1466.6666666666667 587.503035629929, 1458.3333333333333 586.9262497727827, 1450 586.0480906709458 C 1441.6666666666667 585.1699315691089, 1433.3333333333333 576.1482618510745, 1425 572.1307197813848 C 1416.6666666666667 568.113177711695, 1408.3333333333333 561.5021783542044, 1400 561.5021783542044 C 1391.6666666666667 561.5021783542044, 1383.3333333333333 563.8774579069452, 1375 563.8774579069452 C 1366.6666666666667 563.8774579069452, 1358.3333333333333 543.8954085896171, 1350 543.8954085896171 C 1341.6666666666667 543.8954085896171, 1333.3333333333333 546.8430313603935, 1325 548.5194088804774 C 1316.6666666666667 550.195786400561, 1308.3333333333333 554.0314823331278, 1300 554.0314823331278 C 1291.6666666666667 554.0314823331278, 1283.3333333333333 549.955559427094, 1275 549.955559427094 C 1266.6666666666667 549.955559427094, 1258.3333333333333 553.5201552592284, 1250 556.5628229260717 C 1241.6666666666667 559.605490592915, 1233.3333333333333 571.321361253989, 1225 571.321361253989 C 1216.6666666666667 571.321361253989, 1208.3333333333333 553.4968626211778, 1200 550.6903248500389 C 1191.6666666666667 547.8837870789, 1183.3333333333333 545.401276726056, 1175 545.401276726056 C 1166.6666666666667 545.401276726056, 1158.3333333333333 549.3485258509702, 1150 552.4038987036429 C 1141.6666666666667 555.4592715563156, 1133.3333333333333 565.6680441835824, 1125 565.6680441835824 C 1116.6666666666667 565.6680441835824, 1108.3333333333333 556.6427469138094, 1100 554.194484932769 C 1091.6666666666667 551.7462229517284, 1083.3333333333333 548.7933158199489, 1075 548.7933158199489 C 1066.6666666666667 548.7933158199489, 1058.3333333333333 555.3178691898537, 1050 555.3178691898537 C 1041.6666666666667 555.3178691898537, 1033.3333333333333 537.0037831995608, 1025 537.0037831995608 C 1016.6666666666666 537.0037831995608, 1008.3333333333334 545.8251988096627, 1000 547.5509916583476 C 991.6666666666666 549.2767845070325, 983.3333333333334 549.9317232407454, 975 550.9817109618205 C 966.6666666666666 552.0316986828955, 958.3333333333334 553.8933938203415, 950 553.8933938203415 C 941.6666666666666 553.8933938203415, 933.3333333333334 552.8264037616241, 925 552.8264037616241 C 916.6666666666666 552.8264037616241, 908.3333333333334 564.4638868203604, 900 564.4638868203604 C 891.6666666666666 564.4638868203604, 883.3333333333334 533.8376578365765, 875 533.8376578365765 C 866.6666666666666 533.8376578365765, 858.3333333333334 534.3680644737005, 850 534.9914533255501 C 841.6666666666666 535.6148421773997, 833.3333333333334 539.9243963093681, 825 539.9243963093681 C 816.6666666666666 539.9243963093681, 808.3333333333334 535.7154991326776, 800 535.7154991326776 C 791.6666666666666 535.7154991326776, 783.3333333333334 545.4978002296805, 775 546.182447247348 C 766.6666666666666 546.8670942650156, 758.3333333333334 546.6801499575563, 750 547.3211413931538 C 741.6666666666666 547.9621328287514, 733.3333333333334 553.4994517292935, 725 553.4994517292935 C 716.6666666666666 553.4994517292935, 708.3333333333334 547.6607620559631, 700 547.6607620559631 C 691.6666666666666 547.6607620559631, 683.3333333333334 548.4318366862886, 675 549.3743035494173 C 666.6666666666666 550.3167704125459, 658.3333333333334 557.4533604777954, 650 557.4533604777954 C 641.6666666666666 557.4533604777954, 633.3333333333334 547.4125258648146, 625 547.4125258648146 C 616.6666666666666 547.4125258648146, 608.3333333333334 551.3861975258615, 600 553.4413577764265 C 591.6666666666666 555.4965180269915, 583.3333333333334 559.7498255641731, 575 559.7498255641731 C 566.6666666666666 559.7498255641731, 558.3333333333334 542.9511893109031, 550 538.8703239494021 C 541.6666666666666 534.7894585879008, 533.3333333333334 530.2100793790072, 525 530.2100793790072 C 516.6666666666666 530.2100793790072, 508.3333333333333 547.6482579686797, 500 547.6482579686797 C 491.6666666666667 547.6482579686797, 483.3333333333333 543.7593560137777, 475 543.7593560137777 C 466.6666666666667 543.7593560137777, 458.3333333333333 553.0339590126721, 450 553.0339590126721 C 441.6666666666667 553.0339590126721, 433.3333333333333 552.1346465631743, 425 551.121988287777 C 416.6666666666667 550.1093300123794, 408.3333333333333 543.7317012752585, 400 543.7317012752585 C 391.6666666666667 543.7317012752585, 383.3333333333333 551.908971593226, 375 551.908971593226 C 366.6666666666667 551.908971593226, 358.3333333333333 539.7440009874583, 350 537.5477307000891 C 341.6666666666667 535.3514604127199, 333.3333333333333 534.7568846174368, 325 533.272637774282 C 316.6666666666667 531.7883909311272, 308.3333333333333 529.7574333805128, 300 528.6268455693046 C 291.6666666666667 527.4962577580961, 283.3333333333333 527.0826597017424, 275 525.956013999282 C 266.6666666666667 524.8293682968217, 258.3333333333333 523.6316097834151, 250 521.3543302877058 C 241.66666666666666 519.0770507919965, 233.33333333333334 508.8833251987743, 225 508.0979202946508 C 216.66666666666666 507.3125153905273, 208.33333333333334 507.3097751083195, 200 506.8049013499398 C 191.66666666666666 506.30002759156014, 183.33333333333334 505.68741297453306, 175 504.977009214696 C 166.66666666666666 504.26660545485896, 158.33333333333334 503.0533921376644, 150 502.4217859755213 C 141.66666666666666 501.7901798133782, 133.33333333333334 501.2263706573761, 125 500.91611298016625 C 116.66666666666667 500.6058553029564, 108.33333333333333 500.3605594798209, 100 500.24252938271877 C 91.66666666666667 500.12449928561665, 83.33333333333333 500.00391337514213, 75 500.0023572355492 C 66.66666666666667 500.00080109595626, 58.333333333333336 500.00000019593404, 50 500.00000011756276 C 41.666666666666664 500.0000000391915, 33.333333333333336 500, 25 500 C 8.333333333333334 500, 16.666666666666664 500, 25 500 Z" fill="white" stroke="transparent" stroke-width="0" />
  </g>
</svg>