<svg 
  baseProfile="tiny"
  preserveAspectRatio="keep"
  version="1.2"
  viewBox="-0.000000 -0.000000 5025.000000 1000.000000"
  height="100%" width="100%"
  xmlns="http://www.w3.org/2000/svg"
  xmlns:ev="http://www.w3.org/2001/xml-events"
  xmlns:xlink="http://www.w3.org/1999/xlink"
>
  <g style="transform-origin: center center;">
    <path d="M 0 500 C 8.333333333333334 500, 16.666666666666664 500, 25 500 C 33.333333333333336 500, 41.666666666666664 499.99999978415013, 50 499.999999352504 C 58.333333333333336 499.9999989208579, 66.66666666666667 499.99435672090516, 75 499.98436130554154 C 83.33333333333333 499.9743658901779, 91.66666666666667 499.8201589969199, 100 499.62080964294967 C 108.33333333333333 499.42146028897946, 116.66666666666667 498.5907430714753, 125 497.93609441551104 C 133.33333333333334 497.2814457595468, 141.66666666666666 496.6944668679549, 150 495.5819669181138 C 158.33333333333334 494.4694669682727, 166.66666666666666 492.2692043498251, 175 489.85016266742326 C 183.33333333333334 487.43112098502144, 191.66666666666666 483.40525546480677, 200 479.9615179962846 C 208.33333333333334 476.51778052776245, 216.66666666666666 472.9309470321448, 225 469.14626747639204 C 233.33333333333334 465.3615879206393, 241.66666666666666 458.8064548691552, 250 457.19694404703483 C 258.3333333333333 455.5874332249145, 266.6666666666667 455.35770258004595, 275 454.1713881986213 C 283.3333333333333 452.9850738171966, 291.6666666666667 449.85074093208755, 300 449.85074093208755 C 308.3333333333333 449.85074093208755, 316.6666666666667 457.16154085176487, 325 457.16154085176487 C 333.3333333333333 457.16154085176487, 341.6666666666667 442.33031075861317, 350 436.2629109155193 C 358.3333333333333 430.1955110724254, 366.6666666666667 425.5480697023853, 375 420.1408486510065 C 383.3333333333333 414.73362759962765, 391.6666666666667 403.81834630346987, 400 403.81834630346987 C 408.3333333333333 403.81834630346987, 416.6666666666667 404.03516184402434, 425 404.4025815476289 C 433.3333333333333 404.7700012512335, 441.6666666666667 410.1297839014179, 450 414.1286836920997 C 458.3333333333333 418.12758348278146, 466.6666666666667 427.97653254898904, 475 429.7790151974269 C 483.3333333333333 431.5814978458647, 491.6666666666667 433.04737537318715, 500 433.04737537318715 C 508.3333333333333 433.04737537318715, 516.6666666666666 420.88357941516165, 525 411.76995186160553 C 533.3333333333334 402.6563243080494, 541.6666666666666 375.67314566371476, 550 373.5324796491954 C 558.3333333333334 371.39181363467605, 566.6666666666666 371.4256267010515, 575 370.0271171423532 C 583.3333333333334 368.62860758365485, 591.6666666666666 364.80302363200224, 600 364.80302363200224 C 608.3333333333334 364.80302363200224, 616.6666666666666 375.9759277021509, 625 381.6366090462018 C 633.3333333333334 387.29729039025267, 641.6666666666666 398.76975356550207, 650 398.76975356550207 C 658.3333333333334 398.76975356550207, 666.6666666666666 370.1967616466599, 675 370.1967616466599 C 683.3333333333334 370.1967616466599, 691.6666666666666 390.99426028049936, 700 393.12649593742765 C 708.3333333333334 395.25873159435594, 716.6666666666666 396.8432857714174, 725 396.8432857714174 C 733.3333333333334 396.8432857714174, 741.6666666666666 370.992979478838, 750 370.992979478838 C 758.3333333333334 370.992979478838, 766.6666666666666 387.4990015025157, 775 396.39599949101074 C 783.3333333333334 405.2929974795058, 791.6666666666666 424.51254764916285, 800 424.51254764916285 C 808.3333333333334 424.51254764916285, 816.6666666666666 393.6735184902794, 825 393.6735184902794 C 833.3333333333334 393.6735184902794, 841.6666666666666 395.9753361370317, 850 395.9753361370317 C 858.3333333333334 395.9753361370317, 866.6666666666666 339.0212157649012, 875 339.0212157649012 C 883.3333333333334 339.0212157649012, 891.6666666666666 370.8255248659044, 900 384.901213351783 C 908.3333333333334 398.97690183766156, 916.6666666666666 422.5590414534896, 925 424.01413625782743 C 933.3333333333334 425.46923106216525, 941.6666666666666 426.32577631951926, 950 426.32577631951926 C 958.3333333333334 426.32577631951926, 966.6666666666666 415.9493991368427, 975 415.9493991368427 C 983.3333333333334 415.9493991368427, 991.6666666666666 427.4668954952111, 1000 427.4668954952111 C 1008.3333333333334 427.4668954952111, 1016.6666666666666 381.4130113623565, 1025 369.7109349489359 C 1033.3333333333333 358.00885853551534, 1041.6666666666667 344.4938894361146, 1050 344.4938894361146 C 1058.3333333333333 344.4938894361146, 1066.6666666666667 383.88833092895334, 1075 395.08360831476244 C 1083.3333333333333 406.27888570057155, 1091.6666666666667 416.73575263756175, 1100 420.22056900905943 C 1108.3333333333333 423.7053853805571, 1116.6666666666667 426.8201812455698, 1125 426.8201812455698 C 1133.3333333333333 426.8201812455698, 1141.6666666666667 416.22634977280103, 1150 416.22634977280103 C 1158.3333333333333 416.22634977280103, 1166.6666666666667 418.7205753387321, 1175 418.7205753387321 C 1183.3333333333333 418.7205753387321, 1191.6666666666667 357.53844384386684, 1200 357.53844384386684 C 1208.3333333333333 357.53844384386684, 1216.6666666666667 358.9538376776281, 1225 360.3554051144689 C 1233.3333333333333 361.75697255130973, 1241.6666666666667 364.2227870613366, 1250 368.6427798023458 C 1258.3333333333333 373.062772543355, 1266.6666666666667 395.88434603571216, 1275 401.7945127046121 C 1283.3333333333333 407.704679373512, 1291.6666666666667 413.8958285454489, 1300 413.8958285454489 C 1308.3333333333333 413.8958285454489, 1316.6666666666667 383.92946473786253, 1325 383.92946473786253 C 1333.3333333333333 383.92946473786253, 1341.6666666666667 400.58172433776474, 1350 400.58172433776474 C 1358.3333333333333 400.58172433776474, 1366.6666666666667 381.20086454438734, 1375 375.29724737477073 C 1383.3333333333333 369.3936302051541, 1391.6666666666667 361.66865704153975, 1400 361.66865704153975 C 1408.3333333333333 361.66865704153975, 1416.6666666666667 363.2715615135759, 1425 365.44863147499166 C 1433.3333333333333 367.62570143640744, 1441.6666666666667 382.0341817900434, 1450 389.44675616762373 C 1458.3333333333333 396.85933054520405, 1466.6666666666667 410.1646981565398, 1475 410.1646981565398 C 1483.3333333333333 410.1646981565398, 1491.6666666666667 381.75402200225153, 1500 381.75402200225153 C 1508.3333333333333 381.75402200225153, 1516.6666666666667 389.0796240874638, 1525 389.0796240874638 C 1533.3333333333333 389.0796240874638, 1541.6666666666667 379.0097979114413, 1550 379.0097979114413 C 1558.3333333333333 379.0097979114413, 1566.6666666666667 402.06124867897836, 1575 402.06124867897836 C 1583.3333333333333 402.06124867897836, 1591.6666666666667 400.42486010824706, 1600 399.231670220859 C 1608.3333333333333 398.0384803334709, 1616.6666666666667 394.3611493107347, 1625 394.3611493107347 C 1633.3333333333333 394.3611493107347, 1641.6666666666667 406.9912445979713, 1650 406.9912445979713 C 1658.3333333333333 406.9912445979713, 1666.6666666666667 389.0711207628426, 1675 387.92760622988715 C 1683.3333333333333 386.7840916969317, 1691.6666666666667 386.58198304983915, 1700 386.04274167171855 C 1708.3333333333333 385.50350029359794, 1716.6666666666667 384.6258346890247, 1725 384.6258346890247 C 1733.3333333333333 384.6258346890247, 1741.6666666666667 391.2572039086551, 1750 393.30814020053907 C 1758.3333333333333 395.35907649242307, 1766.6666666666667 398.07281279377304, 1775 398.07281279377304 C 1783.3333333333333 398.07281279377304, 1791.6666666666667 395.8118495945485, 1800 395.51980011692945 C 1808.3333333333333 395.2277506393104, 1816.6666666666667 394.9909861354006, 1825 394.9909861354006 C 1833.3333333333333 394.9909861354006, 1841.6666666666667 410.4485934334434, 1850 410.4485934334434 C 1858.3333333333333 410.4485934334434, 1866.6666666666667 410.0224624866143, 1875 409.37408428827314 C 1883.3333333333333 408.725706089932, 1891.6666666666667 399.12282359923324, 1900 399.12282359923324 C 1908.3333333333333 399.12282359923324, 1916.6666666666667 404.511682998102, 1925 407.8781809820597 C 1933.3333333333333 411.2446789660174, 1941.6666666666667 419.8093703442676, 1950 419.8093703442676 C 1958.3333333333333 419.8093703442676, 1966.6666666666667 365.3982876055909, 1975 365.3982876055909 C 1983.3333333333333 365.3982876055909, 1991.6666666666667 367.4611142625734, 2000 369.83260498604443 C 2008.3333333333333 372.20409570951546, 2016.6666666666667 387.8171565714995, 2025 387.8171565714995 C 2033.3333333333333 387.8171565714995, 2041.6666666666667 364.5063774876447, 2050 364.5063774876447 C 2058.3333333333335 364.5063774876447, 2066.6666666666665 365.46968601319344, 2075 366.8336900001932 C 2083.3333333333335 368.19769398719296, 2091.6666666666665 383.7607598569954, 2100 383.7607598569954 C 2108.3333333333335 383.7607598569954, 2116.6666666666665 377.2692404451684, 2125 373.851001556357 C 2133.3333333333335 370.4327626675456, 2141.6666666666665 363.226444399055, 2150 363.226444399055 C 2158.3333333333335 363.226444399055, 2166.6666666666665 391.83143068486595, 2175 391.83143068486595 C 2183.3333333333335 391.83143068486595, 2191.6666666666665 375.4792647007064, 2200 375.4792647007064 C 2208.3333333333335 375.4792647007064, 2216.6666666666665 388.6858686746524, 2225 390.21562888475125 C 2233.3333333333335 391.7453890948501, 2241.6666666666665 391.582988886132, 2250 392.933472144394 C 2258.3333333333335 394.283955402656, 2266.6666666666665 400.8881847366854, 2275 400.8881847366854 C 2283.3333333333335 400.8881847366854, 2291.6666666666665 393.17600892914817, 2300 393.17600892914817 C 2308.3333333333335 393.17600892914817, 2316.6666666666665 395.924729453075, 2325 398.1873062927788 C 2333.3333333333335 400.4498831324827, 2341.6666666666665 408.70253471249515, 2350 408.70253471249515 C 2358.3333333333335 408.70253471249515, 2366.6666666666665 399.27506475710175, 2375 399.27506475710175 C 2383.3333333333335 399.27506475710175, 2391.6666666666665 401.7419727413966, 2400 403.6288808668847 C 2408.3333333333335 405.5157889923728, 2416.6666666666665 411.7176561933493, 2425 411.7176561933493 C 2433.3333333333335 411.7176561933493, 2441.6666666666665 393.8444987176628, 2450 393.28366576601434 C 2458.3333333333335 392.72283281436586, 2466.6666666666665 392.71426313484244, 2475 392.40218948593076 C 2483.3333333333335 392.0901158370191, 2491.6666666666665 391.40397368765207, 2500 391.40397368765207 C 2508.3333333333335 391.40397368765207, 2516.6666666666665 400.86188028092795, 2525 400.86188028092795 C 2533.3333333333335 400.86188028092795, 2541.6666666666665 397.2536396761507, 2550 395.33463209884013 C 2558.3333333333335 393.41562452152954, 2566.6666666666665 389.32790216711805, 2575 389.32790216711805 C 2583.3333333333335 389.32790216711805, 2591.6666666666665 407.1184396306712, 2600 407.1184396306712 C 2608.3333333333335 407.1184396306712, 2616.6666666666665 394.8525990591032, 2625 394.8525990591032 C 2633.3333333333335 394.8525990591032, 2641.6666666666665 394.9567807761247, 2650 395.13219747679994 C 2658.3333333333335 395.3076141774752, 2666.6666666666665 399.59815451714394, 2675 399.59815451714394 C 2683.3333333333335 399.59815451714394, 2691.6666666666665 395.3941359112349, 2700 395.3941359112349 C 2708.3333333333335 395.3941359112349, 2716.6666666666665 397.9334267176489, 2725 399.7488381417515 C 2733.3333333333335 401.5642495658541, 2741.6666666666665 404.1018871640876, 2750 407.0168404713505 C 2758.3333333333335 409.93179377861344, 2766.6666666666665 417.9918143608845, 2775 417.9918143608845 C 2783.3333333333335 417.9918143608845, 2791.6666666666665 403.00909918974764, 2800 401.42582520623415 C 2808.3333333333335 399.84255122272066, 2816.6666666666665 398.6534671822503, 2825 398.6534671822503 C 2833.3333333333335 398.6534671822503, 2841.6666666666665 405.22537974813514, 2850 406.95266991998835 C 2858.3333333333335 408.67996009184156, 2866.6666666666665 410.7196091988789, 2875 410.7196091988789 C 2883.3333333333335 410.7196091988789, 2891.6666666666665 406.50423469523827, 2900 403.7060145539897 C 2908.3333333333335 400.9077944127411, 2916.6666666666665 397.43179363860696, 2925 393.25302855178626 C 2933.3333333333335 389.07426346496555, 2941.6666666666665 382.8084713094286, 2950 377.5963045365005 C 2958.3333333333335 372.38413776357237, 2966.6666666666665 361.97997573596075, 2975 361.97997573596075 C 2983.3333333333335 361.97997573596075, 2991.6666666666665 364.40815823659443, 3000 364.40815823659443 C 3008.3333333333335 364.40815823659443, 3016.6666666666665 361.32530370220195, 3025 361.32530370220195 C 3033.3333333333335 361.32530370220195, 3041.6666666666665 383.6180856873978, 3050 383.6180856873978 C 3058.3333333333335 383.6180856873978, 3066.6666666666665 363.66391702215196, 3075 363.66391702215196 C 3083.3333333333335 363.66391702215196, 3091.6666666666665 395.270823201615, 3100 395.270823201615 C 3108.3333333333335 395.270823201615, 3116.6666666666665 364.5231251232524, 3125 364.5231251232524 C 3133.3333333333335 364.5231251232524, 3141.6666666666665 388.97534726629283, 3150 388.97534726629283 C 3158.3333333333335 388.97534726629283, 3166.6666666666665 388.60322017231937, 3175 388.60322017231937 C 3183.3333333333335 388.60322017231937, 3191.6666666666665 390.78327807596037, 3200 392.8125409474793 C 3208.3333333333335 394.84180381899824, 3216.6666666666665 403.80656579428813, 3225 403.80656579428813 C 3233.3333333333335 403.80656579428813, 3241.6666666666665 402.2313196765111, 3250 400.61570455791366 C 3258.3333333333335 399.00008943931624, 3266.6666666666665 390.5395813336884, 3275 390.5395813336884 C 3283.3333333333335 390.5395813336884, 3291.6666666666665 396.76152558920427, 3300 398.27846249580176 C 3308.3333333333335 399.79539940239925, 3316.6666666666665 401.07743277528795, 3325 401.5015190834646 C 3333.3333333333335 401.9256053916412, 3341.6666666666665 401.8551418650633, 3350 402.29407378430255 C 3358.3333333333335 402.73300570354183, 3366.6666666666665 406.18367347974663, 3375 406.18367347974663 C 3383.3333333333335 406.18367347974663, 3391.6666666666665 394.22963007170887, 3400 394.22963007170887 C 3408.3333333333335 394.22963007170887, 3416.6666666666665 406.49764038625534, 3425 406.49764038625534 C 3433.3333333333335 406.49764038625534, 3441.6666666666665 393.1308575546426, 3450 393.1308575546426 C 3458.3333333333335 393.1308575546426, 3466.6666666666665 400.21061277885553, 3475 400.21061277885553 C 3483.3333333333335 400.21061277885553, 3491.6666666666665 394.0583019816388, 3500 394.0583019816388 C 3508.3333333333335 394.0583019816388, 3516.6666666666665 401.78414310225884, 3525 403.70841841910544 C 3533.3333333333335 405.63269373595205, 3541.6666666666665 407.82660920816795, 3550 407.82660920816795 C 3558.3333333333335 407.82660920816795, 3566.6666666666665 401.0542667535785, 3575 401.0542667535785 C 3583.3333333333335 401.0542667535785, 3591.6666666666665 406.41472405648716, 3600 406.41472405648716 C 3608.3333333333335 406.41472405648716, 3616.6666666666665 399.5646697334233, 3625 399.5646697334233 C 3633.3333333333335 399.5646697334233, 3641.6666666666665 406.27465999742026, 3650 406.27465999742026 C 3658.3333333333335 406.27465999742026, 3666.6666666666665 405.9534957824182, 3675 405.9534957824182 C 3683.3333333333335 405.9534957824182, 3691.6666666666665 409.1239424765651, 3700 409.9557509997479 C 3708.3333333333335 410.78755952293074, 3716.6666666666665 411.76863467275734, 3725 411.76863467275734 C 3733.3333333333335 411.76863467275734, 3741.6666666666665 408.2729308721366, 3750 406.49475749259966 C 3758.3333333333335 404.7165841130627, 3766.6666666666665 402.75650738634965, 3775 401.0981835368428 C 3783.3333333333335 399.4398596873359, 3791.6666666666665 396.48371326052995, 3800 396.48371326052995 C 3808.3333333333335 396.48371326052995, 3816.6666666666665 411.44833026759966, 3825 411.44833026759966 C 3833.3333333333335 411.44833026759966, 3841.6666666666665 407.47397595902027, 3850 405.93165036724326 C 3858.3333333333335 404.38932477546626, 3866.6666666666665 401.9472570403453, 3875 401.9472570403453 C 3883.3333333333335 401.9472570403453, 3891.6666666666665 411.79338645776556, 3900 411.79338645776556 C 3908.3333333333335 411.79338645776556, 3916.6666666666665 410.7733212880683, 3925 410.7733212880683 C 3933.3333333333335 410.7733212880683, 3941.6666666666665 420.4265797568792, 3950 420.5776701305979 C 3958.3333333333335 420.72876050431654, 3966.6666666666665 420.66195432770263, 3975 420.8096685242245 C 3983.3333333333335 420.95738272074635, 3991.6666666666665 425.73953302759446, 4000 425.73953302759446 C 4008.3333333333335 425.73953302759446, 4016.6666666666665 425.7327995388583, 4025 425.7327995388583 C 4033.3333333333335 425.7327995388583, 4041.6666666666665 427.31077888698906, 4050 428.92478687244164 C 4058.3333333333335 430.53879485789423, 4066.6666666666665 438.94824548837346, 4075 438.94824548837346 C 4083.3333333333335 438.94824548837346, 4091.6666666666665 438.70106729406024, 4100 438.70106729406024 C 4108.333333333333 438.70106729406024, 4116.666666666667 444.09414176079355, 4125 444.09414176079355 C 4133.333333333333 444.09414176079355, 4141.666666666667 442.2638234222433, 4150 442.2638234222433 C 4158.333333333333 442.2638234222433, 4166.666666666667 442.8627374278956, 4175 443.4160768161231 C 4183.333333333333 443.96941620435064, 4191.666666666667 445.6440669484412, 4200 446.3839516484604 C 4208.333333333333 447.12383634847964, 4216.666666666667 448.15668742059177, 4225 448.15668742059177 C 4233.333333333333 448.15668742059177, 4241.666666666667 446.8640387218593, 4250 446.8640387218593 C 4258.333333333333 446.8640387218593, 4266.666666666667 447.4802925813307, 4275 447.8483984900133 C 4283.333333333333 448.216504398696, 4291.666666666667 449.10596867077646, 4300 449.10596867077646 C 4308.333333333333 449.10596867077646, 4316.666666666667 445.28184955132826, 4325 445.28184955132826 C 4333.333333333333 445.28184955132826, 4341.666666666667 446.4215716454714, 4350 446.4215716454714 C 4358.333333333333 446.4215716454714, 4366.666666666667 444.9225139143791, 4375 444.9225139143791 C 4383.333333333333 444.9225139143791, 4391.666666666667 446.90070383489274, 4400 446.90070383489274 C 4408.333333333333 446.90070383489274, 4416.666666666667 446.28875658597775, 4425 445.9469553230634 C 4433.333333333333 445.605154060149, 4441.666666666667 445.47270478881785, 4450 444.8382546791553 C 4458.333333333333 444.2038045694927, 4466.666666666667 440.39738768289817, 4475 438.1188173521595 C 4483.333333333333 435.84024702142085, 4491.666666666667 432.60815190856687, 4500 431.1627378196252 C 4508.333333333333 429.7173237306835, 4516.666666666667 428.22715512215194, 4525 428.01283095264995 C 4533.333333333333 427.79850678314796, 4541.666666666667 427.6548036651402, 4550 427.6548036651402 C 4558.333333333333 427.6548036651402, 4566.666666666667 428.21410628626745, 4575 428.82426470322616 C 4583.333333333333 429.4344231201849, 4591.666666666667 431.25486010217264, 4600 433.03447780827474 C 4608.333333333333 434.81409551437685, 4616.666666666667 437.39313976772763, 4625 440.3287099082698 C 4633.333333333333 443.26428004881194, 4641.666666666667 447.716968457837, 4650 451.43921241586185 C 4658.333333333333 455.16145637388667, 4666.666666666667 459.35447497778847, 4675 462.66274569613853 C 4683.333333333333 465.9710164144886, 4691.666666666667 469.09705407111034, 4700 471.55822536901167 C 4708.333333333333 474.019396666913, 4716.666666666667 475.8952408019092, 4725 477.8690821549996 C 4733.333333333333 479.84292350809, 4741.666666666667 481.7905072931888, 4750 483.4465199605995 C 4758.333333333333 485.10253262801024, 4766.666666666667 486.27550862694267, 4775 487.92520919161217 C 4783.333333333333 489.57490975628167, 4791.666666666667 492.34445248725353, 4800 493.4551388204759 C 4808.333333333333 494.56582515369826, 4816.666666666667 495.4586267357192, 4825 495.8395239199952 C 4833.333333333333 496.2204211042712, 4841.666666666667 496.2383157835142, 4850 496.59091874005986 C 4858.333333333333 496.9435216966055, 4866.666666666667 497.89384353297834, 4875 498.3771354891212 C 4883.333333333333 498.86042744526407, 4891.666666666667 499.4235074509477, 4900 499.5972637551417 C 4908.333333333333 499.7710200593357, 4916.666666666667 499.89108211331273, 4925 499.9286962917509 C 4933.333333333333 499.96631047018906, 4941.666666666667 499.99459054724855, 4950 499.99669293759604 C 4958.333333333333 499.9987953279435, 4966.666666666667 499.9999998249866, 4975 499.99999989499065 C 4983.333333333333 499.9999999649947, 4991.666666666667 500, 5000 500 C 5008.333333333333 500, 5016.666666666667 500, 5025 500 c 0 0, 0 0, 0 0C 5016.666666666667 500, 5008.333333333333 500, 5000 500 C 4991.666666666667 500, 4983.333333333333 500.0000000350053, 4975 500.00000010500935 C 4966.666666666667 500.0000001750134, 4958.333333333333 500.0012046720565, 4950 500.00330706240396 C 4941.666666666667 500.00540945275145, 4933.333333333333 500.03368952981094, 4925 500.0713037082491 C 4916.666666666667 500.10891788668727, 4908.333333333333 500.2289799406643, 4900 500.4027362448583 C 4891.666666666667 500.5764925490523, 4883.333333333333 501.13957255473593, 4875 501.6228645108788 C 4866.666666666667 502.10615646702166, 4858.333333333333 503.0564783033945, 4850 503.40908125994014 C 4841.666666666667 503.7616842164858, 4833.333333333333 503.7795788957288, 4825 504.1604760800048 C 4816.666666666667 504.5413732642808, 4808.333333333333 505.43417484630174, 4800 506.5448611795241 C 4791.666666666667 507.65554751274647, 4783.333333333333 510.42509024371833, 4775 512.0747908083879 C 4766.666666666667 513.7244913730574, 4758.333333333333 514.8974673719897, 4750 516.5534800394005 C 4741.666666666667 518.2094927068113, 4733.333333333333 520.15707649191, 4725 522.1309178450003 C 4716.666666666667 524.1047591980907, 4708.333333333333 525.980603333087, 4700 528.4417746309883 C 4691.666666666667 530.9029459288897, 4683.333333333333 534.0289835855115, 4675 537.3372543038615 C 4666.666666666667 540.6455250222116, 4658.333333333333 544.8385436261133, 4650 548.5607875841381 C 4641.666666666667 552.2830315421629, 4633.333333333333 556.735719951188, 4625 559.6712900917303 C 4616.666666666667 562.6068602322723, 4608.333333333333 565.1859044856232, 4600 566.9655221917253 C 4591.666666666667 568.7451398978274, 4583.333333333333 570.5655768798151, 4575 571.1757352967738 C 4566.666666666667 571.7858937137325, 4558.333333333333 572.3451963348598, 4550 572.3451963348598 C 4541.666666666667 572.3451963348598, 4533.333333333333 572.201493216852, 4525 571.9871690473501 C 4516.666666666667 571.772844877848, 4508.333333333333 570.2826762693164, 4500 568.8372621803749 C 4491.666666666667 567.3918480914331, 4483.333333333333 564.1597529785791, 4475 561.8811826478404 C 4466.666666666667 559.6026123171018, 4458.333333333333 555.7961954305073, 4450 555.1617453208447 C 4441.666666666667 554.5272952111821, 4433.333333333333 554.3948459398509, 4425 554.0530446769367 C 4416.666666666667 553.7112434140222, 4408.333333333333 553.0992961651073, 4400 553.0992961651073 C 4391.666666666667 553.0992961651073, 4383.333333333333 555.0774860856209, 4375 555.0774860856209 C 4366.666666666667 555.0774860856209, 4358.333333333333 553.5784283545286, 4350 553.5784283545286 C 4341.666666666667 553.5784283545286, 4333.333333333333 554.7181504486717, 4325 554.7181504486717 C 4316.666666666667 554.7181504486717, 4308.333333333333 550.8940313292235, 4300 550.8940313292235 C 4291.666666666667 550.8940313292235, 4283.333333333333 551.783495601304, 4275 552.1516015099867 C 4266.666666666667 552.5197074186693, 4258.333333333333 553.1359612781407, 4250 553.1359612781407 C 4241.666666666667 553.1359612781407, 4233.333333333333 551.8433125794082, 4225 551.8433125794082 C 4216.666666666667 551.8433125794082, 4208.333333333333 552.8761636515203, 4200 553.6160483515396 C 4191.666666666667 554.3559330515588, 4183.333333333333 556.0305837956494, 4175 556.5839231838769 C 4166.666666666667 557.1372625721044, 4158.333333333333 557.7361765777566, 4150 557.7361765777566 C 4141.666666666667 557.7361765777566, 4133.333333333333 555.9058582392065, 4125 555.9058582392065 C 4116.666666666667 555.9058582392065, 4108.333333333333 561.2989327059397, 4100 561.2989327059397 C 4091.6666666666665 561.2989327059397, 4083.3333333333335 561.0517545116265, 4075 561.0517545116265 C 4066.6666666666665 561.0517545116265, 4058.3333333333335 569.4612051421058, 4050 571.0752131275583 C 4041.6666666666665 572.689221113011, 4033.3333333333335 574.2672004611418, 4025 574.2672004611418 C 4016.6666666666665 574.2672004611418, 4008.3333333333335 574.2604669724055, 4000 574.2604669724055 C 3991.6666666666665 574.2604669724055, 3983.3333333333335 579.0426172792536, 3975 579.1903314757756 C 3966.6666666666665 579.3380456722973, 3958.3333333333335 579.2712394956834, 3950 579.4223298694021 C 3941.6666666666665 579.5734202431208, 3933.3333333333335 589.2266787119318, 3925 589.2266787119318 C 3916.6666666666665 589.2266787119318, 3908.3333333333335 588.2066135422344, 3900 588.2066135422344 C 3891.6666666666665 588.2066135422344, 3883.3333333333335 598.0527429596548, 3875 598.0527429596548 C 3866.6666666666665 598.0527429596548, 3858.3333333333335 595.6106752245337, 3850 594.0683496327567 C 3841.6666666666665 592.5260240409798, 3833.3333333333335 588.5516697324003, 3825 588.5516697324003 C 3816.6666666666665 588.5516697324003, 3808.3333333333335 603.51628673947, 3800 603.51628673947 C 3791.6666666666665 603.51628673947, 3783.3333333333335 600.5601403126641, 3775 598.9018164631573 C 3766.6666666666665 597.2434926136503, 3758.3333333333335 595.2834158869373, 3750 593.5052425074003 C 3741.6666666666665 591.7270691278634, 3733.3333333333335 588.2313653272427, 3725 588.2313653272427 C 3716.6666666666665 588.2313653272427, 3708.3333333333335 589.2124404770693, 3700 590.0442490002521 C 3691.6666666666665 590.8760575234348, 3683.3333333333335 594.0465042175817, 3675 594.0465042175817 C 3666.6666666666665 594.0465042175817, 3658.3333333333335 593.7253400025797, 3650 593.7253400025797 C 3641.6666666666665 593.7253400025797, 3633.3333333333335 600.4353302665768, 3625 600.4353302665768 C 3616.6666666666665 600.4353302665768, 3608.3333333333335 593.5852759435129, 3600 593.5852759435129 C 3591.6666666666665 593.5852759435129, 3583.3333333333335 598.9457332464215, 3575 598.9457332464215 C 3566.6666666666665 598.9457332464215, 3558.3333333333335 592.173390791832, 3550 592.173390791832 C 3541.6666666666665 592.173390791832, 3533.3333333333335 594.367306264048, 3525 596.2915815808946 C 3516.6666666666665 598.2158568977411, 3508.3333333333335 605.9416980183612, 3500 605.9416980183612 C 3491.6666666666665 605.9416980183612, 3483.3333333333335 599.7893872211445, 3475 599.7893872211445 C 3466.6666666666665 599.7893872211445, 3458.3333333333335 606.8691424453574, 3450 606.8691424453574 C 3441.6666666666665 606.8691424453574, 3433.3333333333335 593.5023596137446, 3425 593.5023596137446 C 3416.6666666666665 593.5023596137446, 3408.3333333333335 605.7703699282911, 3400 605.7703699282911 C 3391.6666666666665 605.7703699282911, 3383.3333333333335 593.8163265202534, 3375 593.8163265202534 C 3366.6666666666665 593.8163265202534, 3358.3333333333335 597.2669942964582, 3350 597.7059262156974 C 3341.6666666666665 598.1448581349367, 3333.3333333333335 598.0743946083587, 3325 598.4984809165354 C 3316.6666666666665 598.9225672247121, 3308.3333333333335 600.2046005976008, 3300 601.7215375041983 C 3291.6666666666665 603.2384744107958, 3283.3333333333335 609.4604186663116, 3275 609.4604186663116 C 3266.6666666666665 609.4604186663116, 3258.3333333333335 600.9999105606837, 3250 599.3842954420863 C 3241.6666666666665 597.768680323489, 3233.3333333333335 596.1934342057118, 3225 596.1934342057118 C 3216.6666666666665 596.1934342057118, 3208.3333333333335 605.1581961810018, 3200 607.1874590525207 C 3191.6666666666665 609.2167219240396, 3183.3333333333335 611.3967798276806, 3175 611.3967798276806 C 3166.6666666666665 611.3967798276806, 3158.3333333333335 611.0246527337072, 3150 611.0246527337072 C 3141.6666666666665 611.0246527337072, 3133.3333333333335 635.4768748767476, 3125 635.4768748767476 C 3116.6666666666665 635.4768748767476, 3108.3333333333335 604.729176798385, 3100 604.729176798385 C 3091.6666666666665 604.729176798385, 3083.3333333333335 636.336082977848, 3075 636.336082977848 C 3066.6666666666665 636.336082977848, 3058.3333333333335 616.3819143126022, 3050 616.3819143126022 C 3041.6666666666665 616.3819143126022, 3033.3333333333335 638.674696297798, 3025 638.674696297798 C 3016.6666666666665 638.674696297798, 3008.3333333333335 635.5918417634056, 3000 635.5918417634056 C 2991.6666666666665 635.5918417634056, 2983.3333333333335 638.0200242640392, 2975 638.0200242640392 C 2966.6666666666665 638.0200242640392, 2958.3333333333335 627.6158622364276, 2950 622.4036954634995 C 2941.6666666666665 617.1915286905714, 2933.3333333333335 610.9257365350345, 2925 606.7469714482138 C 2916.6666666666665 602.5682063613931, 2908.3333333333335 599.0922055872588, 2900 596.2939854460103 C 2891.6666666666665 593.4957653047618, 2883.3333333333335 589.280390801121, 2875 589.280390801121 C 2866.6666666666665 589.280390801121, 2858.3333333333335 591.3200399081584, 2850 593.0473300800116 C 2841.6666666666665 594.7746202518649, 2833.3333333333335 601.3465328177497, 2825 601.3465328177497 C 2816.6666666666665 601.3465328177497, 2808.3333333333335 600.1574487772793, 2800 598.5741747937659 C 2791.6666666666665 596.9909008102524, 2783.3333333333335 582.0081856391155, 2775 582.0081856391155 C 2766.6666666666665 582.0081856391155, 2758.3333333333335 590.0682062213866, 2750 592.9831595286495 C 2741.6666666666665 595.8981128359123, 2733.3333333333335 598.4357504341459, 2725 600.2511618582485 C 2716.6666666666665 602.0665732823511, 2708.3333333333335 604.6058640887651, 2700 604.6058640887651 C 2691.6666666666665 604.6058640887651, 2683.3333333333335 600.4018454828561, 2675 600.4018454828561 C 2666.6666666666665 600.4018454828561, 2658.3333333333335 604.6923858225248, 2650 604.8678025232 C 2641.6666666666665 605.0432192238753, 2633.3333333333335 605.1474009408968, 2625 605.1474009408968 C 2616.6666666666665 605.1474009408968, 2608.3333333333335 592.8815603693288, 2600 592.8815603693288 C 2591.6666666666665 592.8815603693288, 2583.3333333333335 610.672097832882, 2575 610.672097832882 C 2566.6666666666665 610.672097832882, 2558.3333333333335 606.5843754784705, 2550 604.6653679011599 C 2541.6666666666665 602.7463603238493, 2533.3333333333335 599.138119719072, 2525 599.138119719072 C 2516.6666666666665 599.138119719072, 2508.3333333333335 608.5960263123479, 2500 608.5960263123479 C 2491.6666666666665 608.5960263123479, 2483.3333333333335 607.9098841629809, 2475 607.5978105140692 C 2466.6666666666665 607.2857368651576, 2458.3333333333335 607.2771671856342, 2450 606.7163342339857 C 2441.6666666666665 606.1555012823371, 2433.3333333333335 588.2823438066507, 2425 588.2823438066507 C 2416.6666666666665 588.2823438066507, 2408.3333333333335 594.4842110076272, 2400 596.3711191331154 C 2391.6666666666665 598.2580272586034, 2383.3333333333335 600.7249352428983, 2375 600.7249352428983 C 2366.6666666666665 600.7249352428983, 2358.3333333333335 591.2974652875048, 2350 591.2974652875048 C 2341.6666666666665 591.2974652875048, 2333.3333333333335 599.5501168675173, 2325 601.8126937072211 C 2316.6666666666665 604.075270546925, 2308.3333333333335 606.8239910708519, 2300 606.8239910708519 C 2291.6666666666665 606.8239910708519, 2283.3333333333335 599.1118152633146, 2275 599.1118152633146 C 2266.6666666666665 599.1118152633146, 2258.3333333333335 605.7160445973441, 2250 607.066527855606 C 2241.6666666666665 608.417011113868, 2233.3333333333335 608.2546109051499, 2225 609.7843711152487 C 2216.6666666666665 611.3141313253476, 2208.3333333333335 624.5207352992936, 2200 624.5207352992936 C 2191.6666666666665 624.5207352992936, 2183.3333333333335 608.168569315134, 2175 608.168569315134 C 2166.6666666666665 608.168569315134, 2158.3333333333335 636.773555600945, 2150 636.773555600945 C 2141.6666666666665 636.773555600945, 2133.3333333333335 629.5672373324544, 2125 626.148998443643 C 2116.6666666666665 622.7307595548316, 2108.3333333333335 616.2392401430046, 2100 616.2392401430046 C 2091.6666666666665 616.2392401430046, 2083.3333333333335 631.8023060128071, 2075 633.1663099998068 C 2066.6666666666665 634.5303139868065, 2058.3333333333335 635.4936225123553, 2050 635.4936225123553 C 2041.6666666666667 635.4936225123553, 2033.3333333333333 612.1828434285005, 2025 612.1828434285005 C 2016.6666666666667 612.1828434285005, 2008.3333333333333 627.7959042904845, 2000 630.1673950139556 C 1991.6666666666667 632.5388857374267, 1983.3333333333333 634.6017123944091, 1975 634.6017123944091 C 1966.6666666666667 634.6017123944091, 1958.3333333333333 580.1906296557324, 1950 580.1906296557324 C 1941.6666666666667 580.1906296557324, 1933.3333333333333 588.7553210339827, 1925 592.1218190179403 C 1916.6666666666667 595.4883170018979, 1908.3333333333333 600.8771764007668, 1900 600.8771764007668 C 1891.6666666666667 600.8771764007668, 1883.3333333333333 591.2742939100681, 1875 590.6259157117269 C 1866.6666666666667 589.9775375133856, 1858.3333333333333 589.5514065665566, 1850 589.5514065665566 C 1841.6666666666667 589.5514065665566, 1833.3333333333333 605.0090138645994, 1825 605.0090138645994 C 1816.6666666666667 605.0090138645994, 1808.3333333333333 604.7722493606896, 1800 604.4801998830706 C 1791.6666666666667 604.1881504054516, 1783.3333333333333 601.927187206227, 1775 601.927187206227 C 1766.6666666666667 601.927187206227, 1758.3333333333333 604.6409235075769, 1750 606.6918597994609 C 1741.6666666666667 608.7427960913449, 1733.3333333333333 615.3741653109753, 1725 615.3741653109753 C 1716.6666666666667 615.3741653109753, 1708.3333333333333 614.4964997064021, 1700 613.9572583282815 C 1691.6666666666667 613.4180169501608, 1683.3333333333333 613.2159083030683, 1675 612.0723937701129 C 1666.6666666666667 610.9288792371574, 1658.3333333333333 593.0087554020288, 1650 593.0087554020288 C 1641.6666666666667 593.0087554020288, 1633.3333333333333 605.6388506892654, 1625 605.6388506892654 C 1616.6666666666667 605.6388506892654, 1608.3333333333333 601.9615196665291, 1600 600.768329779141 C 1591.6666666666667 599.575139891753, 1583.3333333333333 597.9387513210216, 1575 597.9387513210216 C 1566.6666666666667 597.9387513210216, 1558.3333333333333 620.9902020885587, 1550 620.9902020885587 C 1541.6666666666667 620.9902020885587, 1533.3333333333333 610.9203759125362, 1525 610.9203759125362 C 1516.6666666666667 610.9203759125362, 1508.3333333333333 618.2459779977485, 1500 618.2459779977485 C 1491.6666666666667 618.2459779977485, 1483.3333333333333 589.8353018434602, 1475 589.8353018434602 C 1466.6666666666667 589.8353018434602, 1458.3333333333333 603.1406694547959, 1450 610.5532438323762 C 1441.6666666666667 617.9658182099565, 1433.3333333333333 632.3742985635926, 1425 634.5513685250083 C 1416.6666666666667 636.7284384864241, 1408.3333333333333 638.3313429584603, 1400 638.3313429584603 C 1391.6666666666667 638.3313429584603, 1383.3333333333333 630.6063697948459, 1375 624.7027526252293 C 1366.6666666666667 618.7991354556127, 1358.3333333333333 599.4182756622353, 1350 599.4182756622353 C 1341.6666666666667 599.4182756622353, 1333.3333333333333 616.0705352621375, 1325 616.0705352621375 C 1316.6666666666667 616.0705352621375, 1308.3333333333333 586.1041714545511, 1300 586.1041714545511 C 1291.6666666666667 586.1041714545511, 1283.3333333333333 592.295320626488, 1275 598.2054872953879 C 1266.6666666666667 604.1156539642878, 1258.3333333333333 626.937227456645, 1250 631.3572201976542 C 1241.6666666666667 635.7772129386634, 1233.3333333333333 638.2430274486903, 1225 639.6445948855311 C 1216.6666666666667 641.0461623223719, 1208.3333333333333 642.4615561561332, 1200 642.4615561561332 C 1191.6666666666667 642.4615561561332, 1183.3333333333333 581.279424661268, 1175 581.279424661268 C 1166.6666666666667 581.279424661268, 1158.3333333333333 583.7736502271989, 1150 583.7736502271989 C 1141.6666666666667 583.7736502271989, 1133.3333333333333 573.1798187544302, 1125 573.1798187544302 C 1116.6666666666667 573.1798187544302, 1108.3333333333333 576.2946146194429, 1100 579.7794309909406 C 1091.6666666666667 583.2642473624383, 1083.3333333333333 593.7211142994285, 1075 604.9163916852376 C 1066.6666666666667 616.1116690710467, 1058.3333333333333 655.5061105638854, 1050 655.5061105638854 C 1041.6666666666667 655.5061105638854, 1033.3333333333333 641.9911414644846, 1025 630.2890650510641 C 1016.6666666666666 618.5869886376436, 1008.3333333333334 572.533104504789, 1000 572.533104504789 C 991.6666666666666 572.533104504789, 983.3333333333334 584.0506008631573, 975 584.0506008631573 C 966.6666666666666 584.0506008631573, 958.3333333333334 573.6742236804807, 950 573.6742236804807 C 941.6666666666666 573.6742236804807, 933.3333333333334 574.5307689378348, 925 575.9858637421726 C 916.6666666666666 577.4409585465104, 908.3333333333334 601.0230981623384, 900 615.098786648217 C 891.6666666666666 629.1744751340956, 883.3333333333334 660.9787842350988, 875 660.9787842350988 C 866.6666666666666 660.9787842350988, 858.3333333333334 604.0246638629683, 850 604.0246638629683 C 841.6666666666666 604.0246638629683, 833.3333333333334 606.3264815097207, 825 606.3264815097207 C 816.6666666666666 606.3264815097207, 808.3333333333334 575.4874523508372, 800 575.4874523508372 C 791.6666666666666 575.4874523508372, 783.3333333333334 594.7070025204941, 775 603.6040005089892 C 766.6666666666666 612.5009984974843, 758.3333333333334 629.0070205211621, 750 629.0070205211621 C 741.6666666666666 629.0070205211621, 733.3333333333334 603.1567142285826, 725 603.1567142285826 C 716.6666666666666 603.1567142285826, 708.3333333333334 604.7412684056441, 700 606.8735040625724 C 691.6666666666666 609.0057397195006, 683.3333333333334 629.80323835334, 675 629.80323835334 C 666.6666666666666 629.80323835334, 658.3333333333334 601.230246434498, 650 601.230246434498 C 641.6666666666666 601.230246434498, 633.3333333333334 612.7027096097473, 625 618.3633909537982 C 616.6666666666666 624.0240722978491, 608.3333333333334 635.1969763679978, 600 635.1969763679978 C 591.6666666666666 635.1969763679978, 583.3333333333334 631.3713924163451, 575 629.9728828576468 C 566.6666666666666 628.5743732989486, 558.3333333333334 628.608186365324, 550 626.4675203508045 C 541.6666666666666 624.3268543362852, 533.3333333333334 597.3436756919506, 525 588.2300481383945 C 516.6666666666666 579.1164205848384, 508.3333333333333 566.9526246268128, 500 566.9526246268128 C 491.6666666666667 566.9526246268128, 483.3333333333333 568.4185021541352, 475 570.2209848025732 C 466.6666666666667 572.0234674510109, 458.3333333333333 581.8724165172185, 450 585.8713163079003 C 441.6666666666667 589.8702160985821, 433.3333333333333 595.2299987487665, 425 595.5974184523711 C 416.6666666666667 595.9648381559757, 408.3333333333333 596.1816536965301, 400 596.1816536965301 C 391.6666666666667 596.1816536965301, 383.3333333333333 585.2663724003723, 375 579.8591513489935 C 366.6666666666667 574.4519302976147, 358.3333333333333 569.8044889275745, 350 563.7370890844807 C 341.6666666666667 557.6696892413868, 333.3333333333333 542.8384591482352, 325 542.8384591482352 C 316.6666666666667 542.8384591482352, 308.3333333333333 550.1492590679125, 300 550.1492590679125 C 291.6666666666667 550.1492590679125, 283.3333333333333 547.0149261828034, 275 545.8286118013787 C 266.6666666666667 544.642297419954, 258.3333333333333 544.4125667750855, 250 542.8030559529652 C 241.66666666666666 541.1935451308448, 233.33333333333334 534.6384120793607, 225 530.853732523608 C 216.66666666666666 527.0690529678552, 208.33333333333334 523.4822194722376, 200 520.0384820037154 C 191.66666666666666 516.5947445351933, 183.33333333333334 512.5688790149786, 175 510.14983733257674 C 166.66666666666666 507.7307956501749, 158.33333333333334 505.5305330317273, 150 504.4180330818862 C 141.66666666666666 503.3055331320451, 133.33333333333334 502.7185542404532, 125 502.06390558448896 C 116.66666666666667 501.4092569285247, 108.33333333333333 500.57853971102054, 100 500.37919035705033 C 91.66666666666667 500.1798410030801, 83.33333333333333 500.0256341098221, 75 500.01563869445846 C 66.66666666666667 500.00564327909484, 58.333333333333336 500.0000010791421, 50 500.000000647496 C 41.666666666666664 500.00000021584987, 33.333333333333336 500, 25 500 C 8.333333333333334 500, 16.666666666666664 500, 25 500 Z" fill="white" stroke="transparent" stroke-width="0" />
  </g>
</svg>