<svg 
  baseProfile="tiny"
  preserveAspectRatio="keep"
  version="1.2"
  viewBox="-0.000000 -0.000000 5025.000000 1000.000000"
  height="100%" width="100%"
  xmlns="http://www.w3.org/2000/svg"
  xmlns:ev="http://www.w3.org/2001/xml-events"
  xmlns:xlink="http://www.w3.org/1999/xlink"
>
  <g style="transform-origin: center center;">
    <path d="M 0 500 C 8.333333333333334 500, 16.666666666666664 500, 25 500 C 33.333333333333336 500, 41.666666666666664 499.999999932964, 50 499.99999979893204 C 58.333333333333336 499.9999996649001, 66.66666666666667 499.99930318375687, 75 499.99798572896407 C 83.33333333333333 499.99666827417127, 91.66666666666667 499.9039868210073, 100 499.89293419711464 C 108.33333333333333 499.88188157322196, 116.66666666666667 499.8862572925683, 125 499.8732485239812 C 133.33333333333334 499.8602397553941, 141.66666666666666 498.2643298774703, 150 497.6466719730011 C 158.33333333333334 497.0290140685319, 166.66666666666666 496.8186403335383, 175 496.0599399813471 C 183.33333333333334 495.3012396291559, 191.66666666666666 492.7977292738375, 200 492.0353003900432 C 208.33333333333334 491.27287150624886, 216.66666666666666 491.32640157573366, 225 490.4376751998106 C 233.33333333333334 489.54894882388754, 241.66666666666666 483.5978018243254, 250 482.38667088897296 C 258.3333333333333 481.1755399536205, 266.6666666666667 481.2883256174057, 275 480.04058359451216 C 283.3333333333333 478.7928415716186, 291.6666666666667 470.78619841690886, 300 470.78619841690886 C 308.3333333333333 470.78619841690886, 316.6666666666667 474.68881422087793, 325 474.68881422087793 C 333.3333333333333 474.68881422087793, 341.6666666666667 464.5019755265222, 350 462.7491329681072 C 358.3333333333333 460.99629040969216, 366.6666666666667 459.377364469353, 375 459.377364469353 C 383.3333333333333 459.377364469353, 391.6666666666667 460.11868421562787, 400 460.11868421562787 C 408.3333333333333 460.11868421562787, 416.6666666666667 459.15699176517285, 425 458.3234014312202 C 433.3333333333333 457.48981109726753, 441.6666666666667 454.2037340521508, 450 454.2037340521508 C 458.3333333333333 454.2037340521508, 466.6666666666667 457.2374223442474, 475 457.2374223442474 C 483.3333333333333 457.2374223442474, 491.6666666666667 447.5390325283032, 500 447.5390325283032 C 508.3333333333333 447.5390325283032, 516.6666666666666 464.15085310501536, 525 464.15085310501536 C 533.3333333333334 464.15085310501536, 541.6666666666666 455.94084237466774, 550 454.6706147726963 C 558.3333333333334 453.40038717072485, 566.6666666666666 453.32473301409004, 575 452.28601590977934 C 583.3333333333334 451.24729880546863, 591.6666666666666 447.7908179410475, 600 447.7908179410475 C 608.3333333333334 447.7908179410475, 616.6666666666666 455.682467567054, 625 455.682467567054 C 633.3333333333334 455.682467567054, 641.6666666666666 444.7993445583936, 650 444.7993445583936 C 658.3333333333334 444.7993445583936, 666.6666666666666 452.99067977895953, 675 452.99067977895953 C 683.3333333333334 452.99067977895953, 691.6666666666666 444.72037892110376, 700 444.72037892110376 C 708.3333333333334 444.72037892110376, 716.6666666666666 460.84052097942595, 725 460.84052097942595 C 733.3333333333334 460.84052097942595, 741.6666666666666 451.7226874982457, 750 450.8747822159231 C 758.3333333333334 450.02687693360053, 766.6666666666666 449.99919051106394, 775 449.4168597940529 C 783.3333333333334 448.8345290770419, 791.6666666666666 447.23781786369375, 800 447.23781786369375 C 808.3333333333334 447.23781786369375, 816.6666666666666 463.89447262799, 825 463.89447262799 C 833.3333333333334 463.89447262799, 841.6666666666666 457.40742350541257, 850 454.09847072843587 C 858.3333333333334 450.7895179514592, 866.6666666666666 444.0372126349531, 875 444.0372126349531 C 883.3333333333334 444.0372126349531, 891.6666666666666 445.37687991281047, 900 447.11634417126584 C 908.3333333333334 448.8558084297212, 916.6666666666666 464.21244542092944, 925 464.21244542092944 C 933.3333333333334 464.21244542092944, 941.6666666666666 459.3549335292363, 950 453.8981641500993 C 958.3333333333334 448.44139477096235, 966.6666666666666 414.24624423405976, 975 414.24624423405976 C 983.3333333333334 414.24624423405976, 991.6666666666666 440.73748390936976, 1000 440.73748390936976 C 1008.3333333333334 440.73748390936976, 1016.6666666666666 390.2239270183856, 1025 390.2239270183856 C 1033.3333333333333 390.2239270183856, 1041.6666666666667 449.4652204169985, 1050 449.4652204169985 C 1058.3333333333333 449.4652204169985, 1066.6666666666667 412.4740647721866, 1075 412.4740647721866 C 1083.3333333333333 412.4740647721866, 1091.6666666666667 442.8855122583266, 1100 442.8855122583266 C 1108.3333333333333 442.8855122583266, 1116.6666666666667 389.87297588108123, 1125 389.87297588108123 C 1133.3333333333333 389.87297588108123, 1141.6666666666667 443.37907827650116, 1150 443.37907827650116 C 1158.3333333333333 443.37907827650116, 1166.6666666666667 388.22848784185226, 1175 388.22848784185226 C 1183.3333333333333 388.22848784185226, 1191.6666666666667 443.9227760901117, 1200 443.9227760901117 C 1208.3333333333333 443.9227760901117, 1216.6666666666667 386.1248378369446, 1225 386.1248378369446 C 1233.3333333333333 386.1248378369446, 1241.6666666666667 438.5159221991643, 1250 438.5159221991643 C 1258.3333333333333 438.5159221991643, 1266.6666666666667 404.8921618731432, 1275 404.8921618731432 C 1283.3333333333333 404.8921618731432, 1291.6666666666667 424.5573209211796, 1300 424.5573209211796 C 1308.3333333333333 424.5573209211796, 1316.6666666666667 384.0208004928061, 1325 384.0208004928061 C 1333.3333333333333 384.0208004928061, 1341.6666666666667 436.6335294180577, 1350 436.6335294180577 C 1358.3333333333333 436.6335294180577, 1366.6666666666667 387.11247239347915, 1375 387.11247239347915 C 1383.3333333333333 387.11247239347915, 1391.6666666666667 423.8482270849499, 1400 423.8482270849499 C 1408.3333333333333 423.8482270849499, 1416.6666666666667 400.0094602725217, 1425 400.0094602725217 C 1433.3333333333333 400.0094602725217, 1441.6666666666667 439.50518769260685, 1450 439.50518769260685 C 1458.3333333333333 439.50518769260685, 1466.6666666666667 419.59032027413303, 1475 416.68103146195705 C 1483.3333333333333 413.77174264978106, 1491.6666666666667 411.2854794425177, 1500 411.2854794425177 C 1508.3333333333333 411.2854794425177, 1516.6666666666667 413.5564176305488, 1525 413.5564176305488 C 1533.3333333333333 413.5564176305488, 1541.6666666666667 408.2144819500493, 1550 408.2144819500493 C 1558.3333333333333 408.2144819500493, 1566.6666666666667 414.2736700134808, 1575 414.2736700134808 C 1583.3333333333333 414.2736700134808, 1591.6666666666667 408.54048862451975, 1600 408.54048862451975 C 1608.3333333333333 408.54048862451975, 1616.6666666666667 413.06296420602, 1625 417.75450642363063 C 1633.3333333333333 422.44604864124125, 1641.6666666666667 447.5435435028063, 1650 447.5435435028063 C 1658.3333333333333 447.5435435028063, 1666.6666666666667 407.89895202089093, 1675 407.54535586142276 C 1683.3333333333333 407.1917597019546, 1691.6666666666667 407.0078338346061, 1700 407.0078338346061 C 1708.3333333333333 407.0078338346061, 1716.6666666666667 415.37071938191843, 1725 415.37071938191843 C 1733.3333333333333 415.37071938191843, 1741.6666666666667 410.3586228630602, 1750 410.3586228630602 C 1758.3333333333333 410.3586228630602, 1766.6666666666667 433.1104957675623, 1775 434.27965456013584 C 1783.3333333333333 435.44881335270935, 1791.6666666666667 435.2008373298028, 1800 436.17213759098263 C 1808.3333333333333 437.14343785216244, 1816.6666666666667 442.5029005369075, 1825 442.5029005369075 C 1833.3333333333333 442.5029005369075, 1841.6666666666667 406.72459403282164, 1850 406.72459403282164 C 1858.3333333333333 406.72459403282164, 1866.6666666666667 426.245590587948, 1875 426.245590587948 C 1883.3333333333333 426.245590587948, 1891.6666666666667 408.35133820587714, 1900 407.24929016826707 C 1908.3333333333333 406.147242130657, 1916.6666666666667 406.5622446548938, 1925 405.4386553348151 C 1933.3333333333333 404.31506601473643, 1941.6666666666667 381.0746301731831, 1950 381.0746301731831 C 1958.3333333333333 381.0746301731831, 1966.6666666666667 435.3497971185041, 1975 435.3497971185041 C 1983.3333333333333 435.3497971185041, 1991.6666666666667 409.3605070072334, 2000 409.3605070072334 C 2008.3333333333333 409.3605070072334, 2016.6666666666667 409.657745732334, 2025 409.657745732334 C 2033.3333333333333 409.657745732334, 2041.6666666666667 400.0488489250952, 2050 400.0488489250952 C 2058.3333333333335 400.0488489250952, 2066.6666666666665 441.3057412359324, 2075 441.3057412359324 C 2083.3333333333335 441.3057412359324, 2091.6666666666665 407.5808491198183, 2100 407.5808491198183 C 2108.3333333333335 407.5808491198183, 2116.6666666666665 410.7680692730789, 2125 410.7680692730789 C 2133.3333333333335 410.7680692730789, 2141.6666666666665 384.83877584191157, 2150 384.83877584191157 C 2158.3333333333335 384.83877584191157, 2166.6666666666665 436.41536612732307, 2175 436.41536612732307 C 2183.3333333333335 436.41536612732307, 2191.6666666666665 394.7442547588521, 2200 394.7442547588521 C 2208.3333333333335 394.7442547588521, 2216.6666666666665 415.3475540363458, 2225 415.3475540363458 C 2233.3333333333335 415.3475540363458, 2241.6666666666665 406.7545970834226, 2250 406.7545970834226 C 2258.3333333333335 406.7545970834226, 2266.6666666666665 440.03636990157577, 2275 440.03636990157577 C 2283.3333333333335 440.03636990157577, 2291.6666666666665 381.2864451566166, 2300 381.2864451566166 C 2308.3333333333335 381.2864451566166, 2316.6666666666665 430.4503177874184, 2325 430.4503177874184 C 2333.3333333333335 430.4503177874184, 2341.6666666666665 383.86947782564425, 2350 383.86947782564425 C 2358.3333333333335 383.86947782564425, 2366.6666666666665 435.6797940276003, 2375 435.6797940276003 C 2383.3333333333335 435.6797940276003, 2391.6666666666665 378.78174753089957, 2400 378.78174753089957 C 2408.3333333333335 378.78174753089957, 2416.6666666666665 439.9629011334793, 2425 439.9629011334793 C 2433.3333333333335 439.9629011334793, 2441.6666666666665 404.12018982922876, 2450 404.12018982922876 C 2458.3333333333335 404.12018982922876, 2466.6666666666665 430.73776624036407, 2475 430.73776624036407 C 2483.3333333333335 430.73776624036407, 2491.6666666666665 378.5311037453404, 2500 378.5311037453404 C 2508.3333333333335 378.5311037453404, 2516.6666666666665 434.5589350384327, 2525 434.5589350384327 C 2533.3333333333335 434.5589350384327, 2541.6666666666665 400.53712381255065, 2550 400.53712381255065 C 2558.3333333333335 400.53712381255065, 2566.6666666666665 424.3284514341655, 2575 424.3284514341655 C 2583.3333333333335 424.3284514341655, 2591.6666666666665 419.2040964820732, 2600 419.2040964820732 C 2608.3333333333335 419.2040964820732, 2616.6666666666665 425.64073228198765, 2625 425.64073228198765 C 2633.3333333333335 425.64073228198765, 2641.6666666666665 422.81332442889806, 2650 422.81332442889806 C 2658.3333333333335 422.81332442889806, 2666.6666666666665 433.9924794625257, 2675 433.9924794625257 C 2683.3333333333335 433.9924794625257, 2691.6666666666665 415.5885698969179, 2700 415.5885698969179 C 2708.3333333333335 415.5885698969179, 2716.6666666666665 421.7326214520034, 2725 421.9376264979965 C 2733.3333333333335 422.14263154398964, 2741.6666666666665 422.26078583187024, 2750 422.26078583187024 C 2758.3333333333335 422.26078583187024, 2766.6666666666665 421.6952367224537, 2775 421.36839628223356 C 2783.3333333333335 421.0415558420134, 2791.6666666666665 420.28042796781756, 2800 420.28042796781756 C 2808.3333333333335 420.28042796781756, 2816.6666666666665 430.31396206472687, 2825 430.31396206472687 C 2833.3333333333335 430.31396206472687, 2841.6666666666665 419.17118434069664, 2850 419.17118434069664 C 2858.3333333333335 419.17118434069664, 2866.6666666666665 421.96051675559477, 2875 421.96051675559477 C 2883.3333333333335 421.96051675559477, 2891.6666666666665 416.35582368413253, 2900 416.35582368413253 C 2908.3333333333335 416.35582368413253, 2916.6666666666665 423.2614276060771, 2925 423.2614276060771 C 2933.3333333333335 423.2614276060771, 2941.6666666666665 415.20962444213546, 2950 415.20962444213546 C 2958.3333333333335 415.20962444213546, 2966.6666666666665 421.4133139325154, 2975 421.5315403618225 C 2983.3333333333335 421.64976679112965, 2991.6666666666665 421.59666786063667, 3000 421.71399823491873 C 3008.3333333333335 421.8313286092008, 3016.6666666666665 426.6830832057458, 3025 426.6830832057458 C 3033.3333333333335 426.6830832057458, 3041.6666666666665 417.5952199198083, 3050 417.5952199198083 C 3058.3333333333335 417.5952199198083, 3066.6666666666665 425.7948495534765, 3075 425.7948495534765 C 3083.3333333333335 425.7948495534765, 3091.6666666666665 421.23411752312364, 3100 421.23411752312364 C 3108.3333333333335 421.23411752312364, 3116.6666666666665 422.9723072006144, 3125 422.9723072006144 C 3133.3333333333335 422.9723072006144, 3141.6666666666665 420.3755829557838, 3150 420.3755829557838 C 3158.3333333333335 420.3755829557838, 3166.6666666666665 429.4726703764057, 3175 429.4726703764057 C 3183.3333333333335 429.4726703764057, 3191.6666666666665 428.28619678548046, 3200 427.92673721864935 C 3208.3333333333335 427.56727765181824, 3216.6666666666665 427.3516609675682, 3225 427.0987701741663 C 3233.3333333333335 426.8458793807644, 3241.6666666666665 426.3986893368401, 3250 426.3986893368401 C 3258.3333333333335 426.3986893368401, 3266.6666666666665 427.24099155747444, 3275 427.24099155747444 C 3283.3333333333335 427.24099155747444, 3291.6666666666665 423.6902133658546, 3300 423.6902133658546 C 3308.3333333333335 423.6902133658546, 3316.6666666666665 432.55634035081243, 3325 432.55634035081243 C 3333.3333333333335 432.55634035081243, 3341.6666666666665 408.21717017393587, 3350 408.21717017393587 C 3358.3333333333335 408.21717017393587, 3366.6666666666665 415.1055667503076, 3375 415.29232528140767 C 3383.3333333333335 415.4790838125077, 3391.6666666666665 415.3917315512819, 3400 415.5840123032506 C 3408.3333333333335 415.77629305521924, 3416.6666666666665 441.3437897748999, 3425 441.3437897748999 C 3433.3333333333335 441.3437897748999, 3441.6666666666665 427.2658376489179, 3450 423.5092540893923 C 3458.3333333333335 419.7526705298667, 3466.6666666666665 416.39385621150205, 3475 415.2716980861982 C 3483.3333333333335 414.1495399608944, 3491.6666666666665 414.43866484592724, 3500 413.15618295895007 C 3508.3333333333335 411.8737010719729, 3516.6666666666665 391.93705780763804, 3525 391.93705780763804 C 3533.3333333333335 391.93705780763804, 3541.6666666666665 433.17947560289946, 3550 433.17947560289946 C 3558.3333333333335 433.17947560289946, 3566.6666666666665 414.75053263096066, 3575 414.33564505991825 C 3583.3333333333335 413.92075748887584, 3591.6666666666665 413.6941082041083, 3600 413.6920587937887 C 3608.3333333333335 413.6900093834691, 3616.6666666666665 413.6889699242004, 3625 413.6889699242004 C 3633.3333333333335 413.6889699242004, 3641.6666666666665 438.8268558242248, 3650 438.8268558242248 C 3658.3333333333335 438.8268558242248, 3666.6666666666665 416.7353026933904, 3675 416.0705623482991 C 3683.3333333333335 415.40582200320785, 3691.6666666666665 415.69569416917665, 3700 415.02775942638914 C 3708.3333333333335 414.35982468360163, 3716.6666666666665 389.48336286909057, 3725 389.48336286909057 C 3733.3333333333335 389.48336286909057, 3741.6666666666665 428.858951212109, 3750 428.858951212109 C 3758.3333333333335 428.858951212109, 3766.6666666666665 402.72425406922457, 3775 402.72425406922457 C 3783.3333333333335 402.72425406922457, 3791.6666666666665 403.0737699143378, 3800 403.0737699143378 C 3808.3333333333335 403.0737699143378, 3816.6666666666665 401.3909062527598, 3825 401.3909062527598 C 3833.3333333333335 401.3909062527598, 3841.6666666666665 428.0633668126315, 3850 428.0633668126315 C 3858.3333333333335 428.0633668126315, 3866.6666666666665 391.2909962318382, 3875 391.2909962318382 C 3883.3333333333335 391.2909962318382, 3891.6666666666665 415.3901784551914, 3900 415.3901784551914 C 3908.3333333333335 415.3901784551914, 3916.6666666666665 380.7784609682429, 3925 380.7784609682429 C 3933.3333333333335 380.7784609682429, 3941.6666666666665 412.56953496369005, 3950 412.56953496369005 C 3958.3333333333335 412.56953496369005, 3966.6666666666665 379.07761271547287, 3975 379.07761271547287 C 3983.3333333333335 379.07761271547287, 3991.6666666666665 416.38825282148593, 4000 416.38825282148593 C 4008.3333333333335 416.38825282148593, 4016.6666666666665 399.0604666997722, 4025 399.0604666997722 C 4033.3333333333335 399.0604666997722, 4041.6666666666665 425.40318834220517, 4050 425.40318834220517 C 4058.3333333333335 425.40318834220517, 4066.6666666666665 380.70674045087975, 4075 380.70674045087975 C 4083.3333333333335 380.70674045087975, 4091.6666666666665 411.25221017583016, 4100 411.25221017583016 C 4108.333333333333 411.25221017583016, 4116.666666666667 387.61046629542034, 4125 387.61046629542034 C 4133.333333333333 387.61046629542034, 4141.666666666667 410.84052119441924, 4150 410.84052119441924 C 4158.333333333333 410.84052119441924, 4166.666666666667 402.06511778098246, 4175 401.9051711518071 C 4183.333333333333 401.74522452263176, 4191.666666666667 401.658631457352, 4200 401.658631457352 C 4208.333333333333 401.658631457352, 4216.666666666667 417.7922069530194, 4225 417.7922069530194 C 4233.333333333333 417.7922069530194, 4241.666666666667 417.2112458433214, 4250 417.2112458433214 C 4258.333333333333 417.2112458433214, 4266.666666666667 420.83377333849876, 4275 420.83377333849876 C 4283.333333333333 420.83377333849876, 4291.666666666667 417.50416314678586, 4300 415.09101661800366 C 4308.333333333333 412.67787008922147, 4316.666666666667 405.2997737521635, 4325 405.2997737521635 C 4333.333333333333 405.2997737521635, 4341.666666666667 409.1217474353937, 4350 411.153788218368 C 4358.333333333333 413.1858290013423, 4366.666666666667 417.5129084010456, 4375 417.5129084010456 C 4383.333333333333 417.5129084010456, 4391.666666666667 416.1117303391342, 4400 414.2654405727468 C 4408.333333333333 412.41915080635937, 4416.666666666667 395.45157926040747, 4425 395.45157926040747 C 4433.333333333333 395.45157926040747, 4441.666666666667 398.755874665501, 4450 402.0316650790465 C 4458.333333333333 405.307455492592, 4466.666666666667 421.43425102454034, 4475 421.43425102454034 C 4483.333333333333 421.43425102454034, 4491.666666666667 419.09737024228514, 4500 416.28148907326164 C 4508.333333333333 413.46560790423814, 4516.666666666667 392.8522650247493, 4525 392.8522650247493 C 4533.333333333333 392.8522650247493, 4541.666666666667 403.45669180579205, 4550 407.0611936991403 C 4558.333333333333 410.66569559248853, 4566.666666666667 414.3430988866187, 4575 415.78905450418955 C 4583.333333333333 417.2350101217604, 4591.666666666667 418.6752198705194, 4600 418.6752198705194 C 4608.333333333333 418.6752198705194, 4616.666666666667 410.65749554860207, 4625 410.65749554860207 C 4633.333333333333 410.65749554860207, 4641.666666666667 415.2866881254268, 4650 419.41454762502656 C 4658.333333333333 423.5424071246263, 4666.666666666667 438.45568939245106, 4675 440.55149325571 C 4683.333333333333 442.64729711896894, 4691.666666666667 444.2444545607236, 4700 444.2444545607236 C 4708.333333333333 444.2444545607236, 4716.666666666667 437.68681411846245, 4725 437.68681411846245 C 4733.333333333333 437.68681411846245, 4741.666666666667 445.21308027672745, 4750 450.77879013057475 C 4758.333333333333 456.34449998442204, 4766.666666666667 473.43150057872543, 4775 473.8211123149218 C 4783.333333333333 474.2107240511181, 4791.666666666667 474.0664318578386, 4800 474.42073810282005 C 4808.333333333333 474.7750443478015, 4816.666666666667 477.00600237159506, 4825 479.0957194200787 C 4833.333333333333 481.18543646856233, 4841.666666666667 485.6845208365613, 4850 488.60885080902193 C 4858.333333333333 491.53318078148254, 4866.666666666667 495.5360771038062, 4875 496.74855477412444 C 4883.333333333333 497.9610324444427, 4891.666666666667 498.6799247428667, 4900 499.09056447523363 C 4908.333333333333 499.50120420760055, 4916.666666666667 499.88386656108844, 4925 499.926335901079 C 4933.333333333333 499.9688052410696, 4941.666666666667 499.9923605601668, 4950 499.9952961889559 C 4958.333333333333 499.99823181774497, 4966.666666666667 499.9999999873639, 4975 499.99999999241834 C 4983.333333333333 499.9999999974728, 4991.666666666667 500, 5000 500 C 5008.333333333333 500, 5016.666666666667 500, 5025 500 c 0 0, 0 0, 0 0C 5016.666666666667 500, 5008.333333333333 500, 5000 500 C 4991.666666666667 500, 4983.333333333333 500.0000000025272, 4975 500.00000000758166 C 4966.666666666667 500.0000000126361, 4958.333333333333 500.00176818225503, 4950 500.0047038110441 C 4941.666666666667 500.0076394398332, 4933.333333333333 500.0311947589304, 4925 500.073664098921 C 4916.666666666667 500.11613343891156, 4908.333333333333 500.49879579239945, 4900 500.90943552476637 C 4891.666666666667 501.3200752571333, 4883.333333333333 502.0389675555573, 4875 503.25144522587556 C 4866.666666666667 504.4639228961938, 4858.333333333333 508.46681921851746, 4850 511.39114919097807 C 4841.666666666667 514.3154791634387, 4833.333333333333 518.8145635314377, 4825 520.9042805799213 C 4816.666666666667 522.9939976284049, 4808.333333333333 525.2249556521986, 4800 525.57926189718 C 4791.666666666667 525.9335681421614, 4783.333333333333 525.7892759488818, 4775 526.1788876850783 C 4766.666666666667 526.5684994212745, 4758.333333333333 543.6555000155779, 4750 549.2212098694253 C 4741.666666666667 554.7869197232726, 4733.333333333333 562.3131858815375, 4725 562.3131858815375 C 4716.666666666667 562.3131858815375, 4708.333333333333 555.7555454392764, 4700 555.7555454392764 C 4691.666666666667 555.7555454392764, 4683.333333333333 557.3527028810311, 4675 559.44850674429 C 4666.666666666667 561.5443106075489, 4658.333333333333 576.4575928753736, 4650 580.5854523749734 C 4641.666666666667 584.7133118745733, 4633.333333333333 589.3425044513979, 4625 589.3425044513979 C 4616.666666666667 589.3425044513979, 4608.333333333333 581.3247801294806, 4600 581.3247801294806 C 4591.666666666667 581.3247801294806, 4583.333333333333 582.7649898782396, 4575 584.2109454958104 C 4566.666666666667 585.6569011133813, 4558.333333333333 589.3343044075115, 4550 592.9388063008597 C 4541.666666666667 596.543308194208, 4533.333333333333 607.1477349752507, 4525 607.1477349752507 C 4516.666666666667 607.1477349752507, 4508.333333333333 586.5343920957619, 4500 583.7185109267384 C 4491.666666666667 580.9026297577149, 4483.333333333333 578.5657489754597, 4475 578.5657489754597 C 4466.666666666667 578.5657489754597, 4458.333333333333 594.692544507408, 4450 597.9683349209536 C 4441.666666666667 601.244125334499, 4433.333333333333 604.5484207395925, 4425 604.5484207395925 C 4416.666666666667 604.5484207395925, 4408.333333333333 587.5808491936407, 4400 585.7345594272532 C 4391.666666666667 583.8882696608657, 4383.333333333333 582.4870915989544, 4375 582.4870915989544 C 4366.666666666667 582.4870915989544, 4358.333333333333 586.8141709986577, 4350 588.8462117816321 C 4341.666666666667 590.8782525646063, 4333.333333333333 594.7002262478366, 4325 594.7002262478366 C 4316.666666666667 594.7002262478366, 4308.333333333333 587.3221299107786, 4300 584.9089833819963 C 4291.666666666667 582.4958368532141, 4283.333333333333 579.1662266615012, 4275 579.1662266615012 C 4266.666666666667 579.1662266615012, 4258.333333333333 582.7887541566786, 4250 582.7887541566786 C 4241.666666666667 582.7887541566786, 4233.333333333333 582.2077930469807, 4225 582.2077930469807 C 4216.666666666667 582.2077930469807, 4208.333333333333 598.3413685426481, 4200 598.3413685426481 C 4191.666666666667 598.3413685426481, 4183.333333333333 598.2547754773682, 4175 598.094828848193 C 4166.666666666667 597.9348822190175, 4158.333333333333 589.1594788055808, 4150 589.1594788055808 C 4141.666666666667 589.1594788055808, 4133.333333333333 612.3895337045797, 4125 612.3895337045797 C 4116.666666666667 612.3895337045797, 4108.333333333333 588.7477898241698, 4100 588.7477898241698 C 4091.6666666666665 588.7477898241698, 4083.3333333333335 619.2932595491202, 4075 619.2932595491202 C 4066.6666666666665 619.2932595491202, 4058.3333333333335 574.5968116577949, 4050 574.5968116577949 C 4041.6666666666665 574.5968116577949, 4033.3333333333335 600.9395333002278, 4025 600.9395333002278 C 4016.6666666666665 600.9395333002278, 4008.3333333333335 583.6117471785141, 4000 583.6117471785141 C 3991.6666666666665 583.6117471785141, 3983.3333333333335 620.9223872845271, 3975 620.9223872845271 C 3966.6666666666665 620.9223872845271, 3958.3333333333335 587.4304650363099, 3950 587.4304650363099 C 3941.6666666666665 587.4304650363099, 3933.3333333333335 619.2215390317572, 3925 619.2215390317572 C 3916.6666666666665 619.2215390317572, 3908.3333333333335 584.6098215448086, 3900 584.6098215448086 C 3891.6666666666665 584.6098215448086, 3883.3333333333335 608.7090037681618, 3875 608.7090037681618 C 3866.6666666666665 608.7090037681618, 3858.3333333333335 571.9366331873684, 3850 571.9366331873684 C 3841.6666666666665 571.9366331873684, 3833.3333333333335 598.6090937472402, 3825 598.6090937472402 C 3816.6666666666665 598.6090937472402, 3808.3333333333335 596.9262300856622, 3800 596.9262300856622 C 3791.6666666666665 596.9262300856622, 3783.3333333333335 597.2757459307754, 3775 597.2757459307754 C 3766.6666666666665 597.2757459307754, 3758.3333333333335 571.141048787891, 3750 571.141048787891 C 3741.6666666666665 571.141048787891, 3733.3333333333335 610.5166371309094, 3725 610.5166371309094 C 3716.6666666666665 610.5166371309094, 3708.3333333333335 585.6401753163984, 3700 584.9722405736109 C 3691.6666666666665 584.3043058308233, 3683.3333333333335 584.5941779967922, 3675 583.9294376517009 C 3666.6666666666665 583.2646973066096, 3658.3333333333335 561.1731441757752, 3650 561.1731441757752 C 3641.6666666666665 561.1731441757752, 3633.3333333333335 586.3110300757996, 3625 586.3110300757996 C 3616.6666666666665 586.3110300757996, 3608.3333333333335 586.309990616531, 3600 586.3079412062114 C 3591.6666666666665 586.3058917958917, 3583.3333333333335 586.0792425111242, 3575 585.6643549400817 C 3566.6666666666665 585.2494673690394, 3558.3333333333335 566.8205243971006, 3550 566.8205243971006 C 3541.6666666666665 566.8205243971006, 3533.3333333333335 608.062942192362, 3525 608.062942192362 C 3516.6666666666665 608.062942192362, 3508.3333333333335 588.1262989280272, 3500 586.84381704105 C 3491.6666666666665 585.5613351540728, 3483.3333333333335 585.8504600391057, 3475 584.7283019138017 C 3466.6666666666665 583.606143788498, 3458.3333333333335 580.2473294701333, 3450 576.4907459106078 C 3441.6666666666665 572.7341623510821, 3433.3333333333335 558.6562102251, 3425 558.6562102251 C 3416.6666666666665 558.6562102251, 3408.3333333333335 584.2237069447808, 3400 584.4159876967494 C 3391.6666666666665 584.608268448718, 3383.3333333333335 584.5209161874923, 3375 584.7076747185923 C 3366.6666666666665 584.8944332496924, 3358.3333333333335 591.7828298260641, 3350 591.7828298260641 C 3341.6666666666665 591.7828298260641, 3333.3333333333335 567.4436596491876, 3325 567.4436596491876 C 3316.6666666666665 567.4436596491876, 3308.3333333333335 576.3097866341454, 3300 576.3097866341454 C 3291.6666666666665 576.3097866341454, 3283.3333333333335 572.7590084425256, 3275 572.7590084425256 C 3266.6666666666665 572.7590084425256, 3258.3333333333335 573.6013106631599, 3250 573.6013106631599 C 3241.6666666666665 573.6013106631599, 3233.3333333333335 573.1541206192355, 3225 572.9012298258338 C 3216.6666666666665 572.6483390324317, 3208.3333333333335 572.4327223481818, 3200 572.0732627813506 C 3191.6666666666665 571.7138032145195, 3183.3333333333335 570.5273296235944, 3175 570.5273296235944 C 3166.6666666666665 570.5273296235944, 3158.3333333333335 579.6244170442162, 3150 579.6244170442162 C 3141.6666666666665 579.6244170442162, 3133.3333333333335 577.0276927993856, 3125 577.0276927993856 C 3116.6666666666665 577.0276927993856, 3108.3333333333335 578.7658824768764, 3100 578.7658824768764 C 3091.6666666666665 578.7658824768764, 3083.3333333333335 574.2051504465235, 3075 574.2051504465235 C 3066.6666666666665 574.2051504465235, 3058.3333333333335 582.4047800801917, 3050 582.4047800801917 C 3041.6666666666665 582.4047800801917, 3033.3333333333335 573.3169167942542, 3025 573.3169167942542 C 3016.6666666666665 573.3169167942542, 3008.3333333333335 578.1686713907992, 3000 578.2860017650812 C 2991.6666666666665 578.4033321393633, 2983.3333333333335 578.3502332088703, 2975 578.4684596381775 C 2966.6666666666665 578.5866860674846, 2958.3333333333335 584.7903755578645, 2950 584.7903755578645 C 2941.6666666666665 584.7903755578645, 2933.3333333333335 576.7385723939228, 2925 576.7385723939228 C 2916.6666666666665 576.7385723939228, 2908.3333333333335 583.6441763158675, 2900 583.6441763158675 C 2891.6666666666665 583.6441763158675, 2883.3333333333335 578.0394832444052, 2875 578.0394832444052 C 2866.6666666666665 578.0394832444052, 2858.3333333333335 580.8288156593034, 2850 580.8288156593034 C 2841.6666666666665 580.8288156593034, 2833.3333333333335 569.6860379352731, 2825 569.6860379352731 C 2816.6666666666665 569.6860379352731, 2808.3333333333335 579.7195720321824, 2800 579.7195720321824 C 2791.6666666666665 579.7195720321824, 2783.3333333333335 578.9584441579866, 2775 578.6316037177664 C 2766.6666666666665 578.3047632775463, 2758.3333333333335 577.7392141681298, 2750 577.7392141681298 C 2741.6666666666665 577.7392141681298, 2733.3333333333335 577.8573684560104, 2725 578.0623735020035 C 2716.6666666666665 578.2673785479966, 2708.3333333333335 584.4114301030821, 2700 584.4114301030821 C 2691.6666666666665 584.4114301030821, 2683.3333333333335 566.0075205374743, 2675 566.0075205374743 C 2666.6666666666665 566.0075205374743, 2658.3333333333335 577.1866755711019, 2650 577.1866755711019 C 2641.6666666666665 577.1866755711019, 2633.3333333333335 574.3592677180123, 2625 574.3592677180123 C 2616.6666666666665 574.3592677180123, 2608.3333333333335 580.7959035179267, 2600 580.7959035179267 C 2591.6666666666665 580.7959035179267, 2583.3333333333335 575.6715485658344, 2575 575.6715485658344 C 2566.6666666666665 575.6715485658344, 2558.3333333333335 599.4628761874494, 2550 599.4628761874494 C 2541.6666666666665 599.4628761874494, 2533.3333333333335 565.4410649615672, 2525 565.4410649615672 C 2516.6666666666665 565.4410649615672, 2508.3333333333335 621.4688962546596, 2500 621.4688962546596 C 2491.6666666666665 621.4688962546596, 2483.3333333333335 569.2622337596359, 2475 569.2622337596359 C 2466.6666666666665 569.2622337596359, 2458.3333333333335 595.8798101707712, 2450 595.8798101707712 C 2441.6666666666665 595.8798101707712, 2433.3333333333335 560.0370988665206, 2425 560.0370988665206 C 2416.6666666666665 560.0370988665206, 2408.3333333333335 621.2182524691004, 2400 621.2182524691004 C 2391.6666666666665 621.2182524691004, 2383.3333333333335 564.3202059723997, 2375 564.3202059723997 C 2366.6666666666665 564.3202059723997, 2358.3333333333335 616.1305221743557, 2350 616.1305221743557 C 2341.6666666666665 616.1305221743557, 2333.3333333333335 569.5496822125816, 2325 569.5496822125816 C 2316.6666666666665 569.5496822125816, 2308.3333333333335 618.7135548433835, 2300 618.7135548433835 C 2291.6666666666665 618.7135548433835, 2283.3333333333335 559.9636300984242, 2275 559.9636300984242 C 2266.6666666666665 559.9636300984242, 2258.3333333333335 593.2454029165774, 2250 593.2454029165774 C 2241.6666666666665 593.2454029165774, 2233.3333333333335 584.6524459636541, 2225 584.6524459636541 C 2216.6666666666665 584.6524459636541, 2208.3333333333335 605.2557452411479, 2200 605.2557452411479 C 2191.6666666666665 605.2557452411479, 2183.3333333333335 563.5846338726769, 2175 563.5846338726769 C 2166.6666666666665 563.5846338726769, 2158.3333333333335 615.1612241580884, 2150 615.1612241580884 C 2141.6666666666665 615.1612241580884, 2133.3333333333335 589.2319307269211, 2125 589.2319307269211 C 2116.6666666666665 589.2319307269211, 2108.3333333333335 592.4191508801816, 2100 592.4191508801816 C 2091.6666666666665 592.4191508801816, 2083.3333333333335 558.6942587640676, 2075 558.6942587640676 C 2066.6666666666665 558.6942587640676, 2058.3333333333335 599.9511510749048, 2050 599.9511510749048 C 2041.6666666666667 599.9511510749048, 2033.3333333333333 590.342254267666, 2025 590.342254267666 C 2016.6666666666667 590.342254267666, 2008.3333333333333 590.6394929927666, 2000 590.6394929927666 C 1991.6666666666667 590.6394929927666, 1983.3333333333333 564.6502028814959, 1975 564.6502028814959 C 1966.6666666666667 564.6502028814959, 1958.3333333333333 618.9253698268169, 1950 618.9253698268169 C 1941.6666666666667 618.9253698268169, 1933.3333333333333 595.6849339852636, 1925 594.5613446651848 C 1916.6666666666667 593.4377553451062, 1908.3333333333333 593.852757869343, 1900 592.7507098317329 C 1891.6666666666667 591.6486617941229, 1883.3333333333333 573.7544094120519, 1875 573.7544094120519 C 1866.6666666666667 573.7544094120519, 1858.3333333333333 593.2754059671784, 1850 593.2754059671784 C 1841.6666666666667 593.2754059671784, 1833.3333333333333 557.4970994630926, 1825 557.4970994630926 C 1816.6666666666667 557.4970994630926, 1808.3333333333333 562.8565621478376, 1800 563.8278624090174 C 1791.6666666666667 564.7991626701971, 1783.3333333333333 564.5511866472907, 1775 565.7203454398641 C 1766.6666666666667 566.8895042324377, 1758.3333333333333 589.6413771369398, 1750 589.6413771369398 C 1741.6666666666667 589.6413771369398, 1733.3333333333333 584.6292806180816, 1725 584.6292806180816 C 1716.6666666666667 584.6292806180816, 1708.3333333333333 592.9921661653939, 1700 592.9921661653939 C 1691.6666666666667 592.9921661653939, 1683.3333333333333 592.8082402980453, 1675 592.4546441385772 C 1666.6666666666667 592.1010479791091, 1658.3333333333333 552.4564564971937, 1650 552.4564564971937 C 1641.6666666666667 552.4564564971937, 1633.3333333333333 577.5539513587587, 1625 582.2454935763694 C 1616.6666666666667 586.9370357939799, 1608.3333333333333 591.4595113754802, 1600 591.4595113754802 C 1591.6666666666667 591.4595113754802, 1583.3333333333333 585.7263299865192, 1575 585.7263299865192 C 1566.6666666666667 585.7263299865192, 1558.3333333333333 591.7855180499507, 1550 591.7855180499507 C 1541.6666666666667 591.7855180499507, 1533.3333333333333 586.4435823694512, 1525 586.4435823694512 C 1516.6666666666667 586.4435823694512, 1508.3333333333333 588.7145205574823, 1500 588.7145205574823 C 1491.6666666666667 588.7145205574823, 1483.3333333333333 586.2282573502189, 1475 583.318968538043 C 1466.6666666666667 580.4096797258669, 1458.3333333333333 560.4948123073932, 1450 560.4948123073932 C 1441.6666666666667 560.4948123073932, 1433.3333333333333 599.9905397274783, 1425 599.9905397274783 C 1416.6666666666667 599.9905397274783, 1408.3333333333333 576.1517729150501, 1400 576.1517729150501 C 1391.6666666666667 576.1517729150501, 1383.3333333333333 612.8875276065208, 1375 612.8875276065208 C 1366.6666666666667 612.8875276065208, 1358.3333333333333 563.3664705819423, 1350 563.3664705819423 C 1341.6666666666667 563.3664705819423, 1333.3333333333333 615.9791995071939, 1325 615.9791995071939 C 1316.6666666666667 615.9791995071939, 1308.3333333333333 575.4426790788204, 1300 575.4426790788204 C 1291.6666666666667 575.4426790788204, 1283.3333333333333 595.1078381268568, 1275 595.1078381268568 C 1266.6666666666667 595.1078381268568, 1258.3333333333333 561.4840778008356, 1250 561.4840778008356 C 1241.6666666666667 561.4840778008356, 1233.3333333333333 613.8751621630554, 1225 613.8751621630554 C 1216.6666666666667 613.8751621630554, 1208.3333333333333 556.0772239098883, 1200 556.0772239098883 C 1191.6666666666667 556.0772239098883, 1183.3333333333333 611.7715121581477, 1175 611.7715121581477 C 1166.6666666666667 611.7715121581477, 1158.3333333333333 556.6209217234989, 1150 556.6209217234989 C 1141.6666666666667 556.6209217234989, 1133.3333333333333 610.1270241189188, 1125 610.1270241189188 C 1116.6666666666667 610.1270241189188, 1108.3333333333333 557.1144877416734, 1100 557.1144877416734 C 1091.6666666666667 557.1144877416734, 1083.3333333333333 587.5259352278134, 1075 587.5259352278134 C 1066.6666666666667 587.5259352278134, 1058.3333333333333 550.5347795830015, 1050 550.5347795830015 C 1041.6666666666667 550.5347795830015, 1033.3333333333333 609.7760729816143, 1025 609.7760729816143 C 1016.6666666666666 609.7760729816143, 1008.3333333333334 559.2625160906302, 1000 559.2625160906302 C 991.6666666666666 559.2625160906302, 983.3333333333334 585.7537557659402, 975 585.7537557659402 C 966.6666666666666 585.7537557659402, 958.3333333333334 551.5586052290377, 950 546.1018358499007 C 941.6666666666666 540.6450664707637, 933.3333333333334 535.7875545790705, 925 535.7875545790705 C 916.6666666666666 535.7875545790705, 908.3333333333334 551.1441915702787, 900 552.8836558287342 C 891.6666666666666 554.6231200871896, 883.3333333333334 555.9627873650469, 875 555.9627873650469 C 866.6666666666666 555.9627873650469, 858.3333333333334 549.2104820485408, 850 545.9015292715642 C 841.6666666666666 542.5925764945874, 833.3333333333334 536.10552737201, 825 536.10552737201 C 816.6666666666666 536.10552737201, 808.3333333333334 552.7621821363063, 800 552.7621821363063 C 791.6666666666666 552.7621821363063, 783.3333333333334 551.1654709229581, 775 550.5831402059471 C 766.6666666666666 550.000809488936, 758.3333333333334 549.9731230663995, 750 549.1252177840769 C 741.6666666666666 548.2773125017543, 733.3333333333334 539.159479020574, 725 539.159479020574 C 716.6666666666666 539.159479020574, 708.3333333333334 555.2796210788963, 700 555.2796210788963 C 691.6666666666666 555.2796210788963, 683.3333333333334 547.0093202210405, 675 547.0093202210405 C 666.6666666666666 547.0093202210405, 658.3333333333334 555.2006554416064, 650 555.2006554416064 C 641.6666666666666 555.2006554416064, 633.3333333333334 544.317532432946, 625 544.317532432946 C 616.6666666666666 544.317532432946, 608.3333333333334 552.2091820589525, 600 552.2091820589525 C 591.6666666666666 552.2091820589525, 583.3333333333334 548.7527011945314, 575 547.7139840902207 C 566.6666666666666 546.67526698591, 558.3333333333334 546.5996128292752, 550 545.3293852273036 C 541.6666666666666 544.0591576253323, 533.3333333333334 535.8491468949846, 525 535.8491468949846 C 516.6666666666666 535.8491468949846, 508.3333333333333 552.4609674716968, 500 552.4609674716968 C 491.6666666666667 552.4609674716968, 483.3333333333333 542.7625776557526, 475 542.7625776557526 C 466.6666666666667 542.7625776557526, 458.3333333333333 545.7962659478492, 450 545.7962659478492 C 441.6666666666667 545.7962659478492, 433.3333333333333 542.5101889027325, 425 541.6765985687798 C 416.6666666666667 540.8430082348272, 408.3333333333333 539.8813157843722, 400 539.8813157843722 C 391.6666666666667 539.8813157843722, 383.3333333333333 540.622635530647, 375 540.622635530647 C 366.6666666666667 540.622635530647, 358.3333333333333 539.0037095903078, 350 537.2508670318928 C 341.6666666666667 535.4980244734778, 333.3333333333333 525.3111857791221, 325 525.3111857791221 C 316.6666666666667 525.3111857791221, 308.3333333333333 529.2138015830911, 300 529.2138015830911 C 291.6666666666667 529.2138015830911, 283.3333333333333 521.2071584283814, 275 519.9594164054879 C 266.6666666666667 518.7116743825943, 258.3333333333333 518.8244600463795, 250 517.613329111027 C 241.66666666666666 516.4021981756746, 233.33333333333334 510.45105117611246, 225 509.5623248001894 C 216.66666666666666 508.67359842426634, 208.33333333333334 508.72712849375114, 200 507.9646996099568 C 191.66666666666666 507.2022707261625, 183.33333333333334 504.6987603708441, 175 503.9400600186529 C 166.66666666666666 503.1813596664617, 158.33333333333334 502.9709859314681, 150 502.3533280269989 C 141.66666666666666 501.7356701225297, 133.33333333333334 500.1397602446059, 125 500.1267514760188 C 116.66666666666667 500.1137427074317, 108.33333333333333 500.11811842677804, 100 500.10706580288536 C 91.66666666666667 500.0960131789927, 83.33333333333333 500.00333172582873, 75 500.00201427103593 C 66.66666666666667 500.00069681624313, 58.333333333333336 500.0000003350999, 50 500.00000020106796 C 41.666666666666664 500.000000067036, 33.333333333333336 500, 25 500 C 8.333333333333334 500, 16.666666666666664 500, 25 500 Z" fill="white" stroke="transparent" stroke-width="0" />
  </g>
</svg>