<svg 
  baseProfile="tiny"
  preserveAspectRatio="keep"
  version="1.2"
  viewBox="-0.000000 -0.000000 5025.000000 1000.000000"
  height="100%" width="100%"
  xmlns="http://www.w3.org/2000/svg"
  xmlns:ev="http://www.w3.org/2001/xml-events"
  xmlns:xlink="http://www.w3.org/1999/xlink"
>
  <g style="transform-origin: center center;">
    <path d="M 0 500 C 8.333333333333334 500, 16.666666666666664 500, 25 500 C 33.333333333333336 500, 41.666666666666664 499.99999998903604, 50 499.9999999671101 C 58.333333333333336 499.9999999451842, 66.66666666666667 499.99962557950647, 75 499.99891529447314 C 83.33333333333333 499.9982050094398, 91.66666666666667 499.9388667163976, 100 499.9388667163976 C 108.33333333333333 499.9388667163976, 116.66666666666667 499.95346901548703, 125 499.95346901548703 C 133.33333333333334 499.95346901548703, 141.66666666666666 499.6541331385745, 150 499.25803883352273 C 158.33333333333334 498.861944528471, 166.66666666666666 495.1787703418176, 175 495.1787703418176 C 183.33333333333334 495.1787703418176, 191.66666666666666 497.86497467034724, 200 497.86497467034724 C 208.33333333333334 497.86497467034724, 216.66666666666666 493.36737961788134, 225 491.66281095838275 C 233.33333333333334 489.95824229888416, 241.66666666666666 487.33186178883756, 250 487.3125588034929 C 258.3333333333333 487.2932558181482, 266.6666666666667 487.28341031852244, 275 487.28341031852244 C 283.3333333333333 487.28341031852244, 291.6666666666667 488.46022813671266, 300 488.97464078530913 C 308.3333333333333 489.4890534339056, 316.6666666666667 489.9324104318625, 325 490.3937025569137 C 333.3333333333333 490.8549946819649, 341.6666666666667 491.744096151445, 350 491.744096151445 C 358.3333333333333 491.744096151445, 366.6666666666667 491.50117326845634, 375 491.05034262029426 C 383.3333333333333 490.5995119721322, 391.6666666666667 474.39203101769255, 400 464.2534582775181 C 408.3333333333333 454.1148855373437, 416.6666666666667 429.088875104849, 425 429.088875104849 C 433.3333333333333 429.088875104849, 441.6666666666667 435.65398247945353, 450 438.84774228171324 C 458.3333333333333 442.04150208397294, 466.6666666666667 444.9922163724762, 475 448.257781738883 C 483.3333333333333 451.5233471052898, 491.6666666666667 458.4742713561806, 500 458.4742713561806 C 508.3333333333333 458.4742713561806, 516.6666666666666 449.6111467444872, 525 443.7129229948416 C 533.3333333333334 437.81469924519604, 541.6666666666666 421.630014311157, 550 421.630014311157 C 558.3333333333334 421.630014311157, 566.6666666666666 432.0456479962832, 575 435.68454427570293 C 583.3333333333334 439.32344055512266, 591.6666666666666 441.7578735090701, 600 444.60878919691385 C 608.3333333333334 447.45970488475757, 616.6666666666666 452.8197317067956, 625 452.8197317067956 C 633.3333333333334 452.8197317067956, 641.6666666666666 431.06146527304503, 650 431.06146527304503 C 658.3333333333334 431.06146527304503, 666.6666666666666 431.1281307999362, 675 431.25576470172484 C 683.3333333333334 431.3833986035135, 691.6666666666666 440.80312849647913, 700 444.31449697283097 C 708.3333333333334 447.8258654491828, 716.6666666666666 450.4119897836989, 725 453.1419944022845 C 733.3333333333334 455.87199902087013, 741.6666666666666 460.7803960255756, 750 460.7803960255756 C 758.3333333333334 460.7803960255756, 766.6666666666666 338.9522729015508, 775 338.9522729015508 C 783.3333333333334 338.9522729015508, 791.6666666666666 345.5270168343575, 800 345.5270168343575 C 808.3333333333334 345.5270168343575, 816.6666666666666 345.20033499017757, 825 344.7579196649499 C 833.3333333333334 344.3155043397222, 841.6666666666666 341.12918274694056, 850 339.91891021330656 C 858.3333333333334 338.70863767967256, 866.6666666666666 337.25482382161573, 875 337.01350657128967 C 883.3333333333334 336.7721893209636, 891.6666666666666 336.6000149672391, 900 336.6000149672391 C 908.3333333333334 336.6000149672391, 916.6666666666666 343.8757882353456, 925 344.2928512761923 C 933.3333333333334 344.709914317039, 941.6666666666666 344.9738236735494, 950 344.9738236735494 C 958.3333333333334 344.9738236735494, 966.6666666666666 342.7404920096256, 975 341.76368797560906 C 983.3333333333334 340.7868839415925, 991.6666666666666 339.0681579537843, 1000 339.0681579537843 C 1008.3333333333334 339.0681579537843, 1016.6666666666666 348.34502300494233, 1025 350.34654058075364 C 1033.3333333333333 352.34805815656495, 1041.6666666666667 354.43793579788075, 1050 354.43793579788075 C 1058.3333333333333 354.43793579788075, 1066.6666666666667 354.00402211014205, 1075 353.5085395939137 C 1083.3333333333333 353.0130570776854, 1091.6666666666667 349.79827295580304, 1100 349.79827295580304 C 1108.3333333333333 349.79827295580304, 1116.6666666666667 357.5738841739029, 1125 362.90037928108916 C 1133.3333333333333 368.2268743882754, 1141.6666666666667 380.46804645235926, 1150 383.37671170242635 C 1158.3333333333333 386.28537695249344, 1166.6666666666667 388.1323868012915, 1175 388.92107588029387 C 1183.3333333333333 389.70976495929625, 1191.6666666666667 390.42501352646957, 1200 390.42501352646957 C 1208.3333333333333 390.42501352646957, 1216.6666666666667 389.52627745060136, 1225 388.8359304306243 C 1233.3333333333333 388.1455834106472, 1241.6666666666667 385.86331582299795, 1250 385.86331582299795 C 1258.3333333333333 385.86331582299795, 1266.6666666666667 388.61876678188645, 1275 388.7432249484983 C 1283.3333333333333 388.8676831151102, 1291.6666666666667 388.94285288094875, 1300 388.94285288094875 C 1308.3333333333333 388.94285288094875, 1316.6666666666667 388.2772119849462, 1325 387.82313490132674 C 1333.3333333333333 387.3690578177073, 1341.6666666666667 387.1967476031282, 1350 386.0842992459686 C 1358.3333333333333 384.97185088880906, 1366.6666666666667 346.20716464695056, 1375 344.72999062876625 C 1383.3333333333333 343.25281661058193, 1391.6666666666667 342.38878813183084, 1400 342.38878813183084 C 1408.3333333333333 342.38878813183084, 1416.6666666666667 347.1231168580512, 1425 347.1231168580512 C 1433.3333333333333 347.1231168580512, 1441.6666666666667 346.17206035046166, 1450 345.44336288560345 C 1458.3333333333333 344.71466542074523, 1466.6666666666667 342.31395371515225, 1475 342.31395371515225 C 1483.3333333333333 342.31395371515225, 1491.6666666666667 344.50762402243083, 1500 346.3073709932859 C 1508.3333333333333 348.1071179641409, 1516.6666666666667 352.58178176664273, 1525 354.63998612453815 C 1533.3333333333333 356.6981904824336, 1541.6666666666667 359.5444329651175, 1550 359.5444329651175 C 1558.3333333333333 359.5444329651175, 1566.6666666666667 358.17841225320956, 1575 358.17841225320956 C 1583.3333333333333 358.17841225320956, 1591.6666666666667 358.58559630849555, 1600 359.2867804012475 C 1608.3333333333333 359.9879644939994, 1616.6666666666667 377.43576577582047, 1625 379.8860698403042 C 1633.3333333333333 382.3363739047879, 1641.6666666666667 382.8462630629855, 1650 384.3597480209808 C 1658.3333333333333 385.87323297897615, 1666.6666666666667 387.7671767068353, 1675 388.9690032898643 C 1683.3333333333333 390.1708298728933, 1691.6666666666667 391.9297168786525, 1700 391.9297168786525 C 1708.3333333333333 391.9297168786525, 1716.6666666666667 391.2152542342099, 1725 390.3145707031596 C 1733.3333333333333 389.41388717210924, 1741.6666666666667 382.0528105965677, 1750 382.0528105965677 C 1758.3333333333333 382.0528105965677, 1766.6666666666667 385.584658019185, 1775 386.8005279759609 C 1783.3333333333333 388.0163979327368, 1791.6666666666667 389.7202766157722, 1800 389.761940313868 C 1808.3333333333333 389.80360401196384, 1816.6666666666667 389.8257831550856, 1825 389.8257831550856 C 1833.3333333333333 389.8257831550856, 1841.6666666666667 371.31838758197466, 1850 362.3808469989169 C 1858.3333333333333 353.4433064158592, 1866.6666666666667 336.17205955264967, 1875 336.17205955264967 C 1883.3333333333333 336.17205955264967, 1891.6666666666667 343.6192249600874, 1900 345.63147662251555 C 1908.3333333333333 347.6437282849437, 1916.6666666666667 350.064315646212, 1925 350.064315646212 C 1933.3333333333333 350.064315646212, 1941.6666666666667 349.27217259768105, 1950 348.28042465186616 C 1958.3333333333333 347.28867670605126, 1966.6666666666667 342.3957438439689, 1975 339.32317746629394 C 1983.3333333333333 336.250611088619, 1991.6666666666667 329.8294263365859, 2000 329.8294263365859 C 2008.3333333333333 329.8294263365859, 2016.6666666666667 339.42550879198734, 2025 342.9077275044265 C 2033.3333333333333 346.3899462168656, 2041.6666666666667 351.55564319367414, 2050 351.6044164322942 C 2058.3333333333335 351.6531896709143, 2066.6666666666665 351.6781969601112, 2075 351.6781969601112 C 2083.3333333333335 351.6781969601112, 2091.6666666666665 347.77468525593594, 2100 347.09447107849746 C 2108.3333333333335 346.414256901059, 2116.6666666666665 345.78199789625984, 2125 345.78199789625984 C 2133.3333333333335 345.78199789625984, 2141.6666666666665 352.9390142135518, 2150 355.3288638038623 C 2158.3333333333335 357.7187133941728, 2166.6666666666665 360.61174909100544, 2175 361.06902398758007 C 2183.3333333333335 361.5262988841547, 2191.6666666666665 361.3591234167351, 2200 361.84802154706426 C 2208.3333333333335 362.33691967739344, 2216.6666666666665 374.3621753370383, 2225 374.3621753370383 C 2233.3333333333335 374.3621753370383, 2241.6666666666665 373.96861847443495, 2250 373.96861847443495 C 2258.3333333333335 373.96861847443495, 2266.6666666666665 378.8576199959145, 2275 380.9137460247845 C 2283.3333333333335 382.96987205365446, 2291.6666666666665 384.5549793051308, 2300 386.46164228266605 C 2308.3333333333335 388.3683052602013, 2316.6666666666665 390.47247162819906, 2325 392.3647421082905 C 2333.3333333333335 394.25701258838194, 2341.6666666666665 395.7577558827415, 2350 397.83197366056606 C 2358.3333333333335 399.90619143839064, 2366.6666666666665 402.5409591640722, 2375 405.0522750514392 C 2383.3333333333335 407.5635909388062, 2391.6666666666665 409.9897538029606, 2400 412.9283557071398 C 2408.3333333333335 415.86695761131904, 2416.6666666666665 421.64410933211536, 2425 422.9385110181377 C 2433.3333333333335 424.23291270416007, 2441.6666666666665 425.34733740783383, 2450 425.34733740783383 C 2458.3333333333335 425.34733740783383, 2466.6666666666665 422.25489706691434, 2475 422.25489706691434 C 2483.3333333333335 422.25489706691434, 2491.6666666666665 432.0926483074507, 2500 435.0879116394135 C 2508.3333333333335 438.0831749713763, 2516.6666666666665 440.2793860738258, 2525 442.0011682739148 C 2533.3333333333335 443.7229504740038, 2541.6666666666665 446.1240962834514, 2550 446.1240962834514 C 2558.3333333333335 446.1240962834514, 2566.6666666666665 392.64347334433364, 2575 375.81849814664224 C 2583.3333333333335 358.99352294895084, 2591.6666666666665 336.448444250037, 2600 336.448444250037 C 2608.3333333333335 336.448444250037, 2616.6666666666665 344.0137222881145, 2625 345.93064339707473 C 2633.3333333333335 347.847564506035, 2641.6666666666665 350.0574323728823, 2650 350.0574323728823 C 2658.3333333333335 350.0574323728823, 2666.6666666666665 349.97669715435467, 2675 349.87379598572943 C 2683.3333333333335 349.7708948171042, 2691.6666666666665 348.90589595829147, 2700 348.90589595829147 C 2708.3333333333335 348.90589595829147, 2716.6666666666665 356.3422976141993, 2725 357.45079597490087 C 2733.3333333333335 358.55929433560243, 2741.6666666666665 359.2396581750904, 2750 359.5152680338413 C 2758.3333333333335 359.7908778925922, 2766.6666666666665 360.03219939287214, 2775 360.03219939287214 C 2783.3333333333335 360.03219939287214, 2791.6666666666665 358.44053849141886, 2800 358.44053849141886 C 2808.3333333333335 358.44053849141886, 2816.6666666666665 373.9003737068126, 2825 373.9003737068126 C 2833.3333333333335 373.9003737068126, 2841.6666666666665 370.7976312516491, 2850 370.7976312516491 C 2858.3333333333335 370.7976312516491, 2866.6666666666665 370.9454596657461, 2875 371.21120315852727 C 2883.3333333333335 371.4769466513084, 2891.6666666666665 379.92843697959984, 2900 382.23344874227155 C 2908.3333333333335 384.53846050494326, 2916.6666666666665 387.27125167265785, 2925 387.27125167265785 C 2933.3333333333335 387.27125167265785, 2941.6666666666665 377.0949904934946, 2950 377.0949904934946 C 2958.3333333333335 377.0949904934946, 2966.6666666666665 377.78746484781175, 2975 378.61411596492553 C 2983.3333333333335 379.4407670820393, 2991.6666666666665 383.61743775631203, 3000 385.36205892796573 C 3008.3333333333335 387.10668009961944, 3016.6666666666665 389.6367765113703, 3025 389.6367765113703 C 3033.3333333333335 389.6367765113703, 3041.6666666666665 384.4671528268942, 3050 379.23867093025103 C 3058.3333333333335 374.01018903360784, 3066.6666666666665 347.3258544931633, 3075 347.3258544931633 C 3083.3333333333335 347.3258544931633, 3091.6666666666665 351.5341389762375, 3100 351.5341389762375 C 3108.3333333333335 351.5341389762375, 3116.6666666666665 350.8734086628147, 3125 350.58811007927903 C 3133.3333333333335 350.30281149574336, 3141.6666666666665 349.806666560781, 3150 349.806666560781 C 3158.3333333333335 349.806666560781, 3166.6666666666665 355.34148725179944, 3175 359.59085360133247 C 3183.3333333333335 363.8402199508655, 3191.6666666666665 377.18628943354696, 3200 377.87894094510347 C 3208.3333333333335 378.57159245665997, 3216.6666666666665 378.33168701733086, 3225 378.98049963010294 C 3233.3333333333335 379.629312242875, 3241.6666666666665 384.5449119554041, 3250 387.3337777101775 C 3258.3333333333335 390.12264346495095, 3266.6666666666665 395.71373670108017, 3275 395.71373670108017 C 3283.3333333333335 395.71373670108017, 3291.6666666666665 379.8416845923432, 3300 370.28593451285843 C 3308.3333333333335 360.73018443337367, 3316.6666666666665 340.6030006485693, 3325 337.43333247620615 C 3333.3333333333335 334.263664303843, 3341.6666666666665 331.87431703331714, 3350 331.87431703331714 C 3358.3333333333335 331.87431703331714, 3366.6666666666665 336.3853554861934, 3375 338.8071294986397 C 3383.3333333333335 341.228903511086, 3391.6666666666665 346.4384633933504, 3400 346.4384633933504 C 3408.3333333333335 346.4384633933504, 3416.6666666666665 345.9303216915657, 3425 345.9303216915657 C 3433.3333333333335 345.9303216915657, 3441.6666666666665 354.8678864924895, 3450 356.3507159979217 C 3458.3333333333335 357.83354550335395, 3466.6666666666665 358.2054152726526, 3475 359.1785683514328 C 3483.3333333333335 360.15172143021294, 3491.6666666666665 362.1957682923463, 3500 362.1957682923463 C 3508.3333333333335 362.1957682923463, 3516.6666666666665 360.42395426678235, 3525 360.42395426678235 C 3533.3333333333335 360.42395426678235, 3541.6666666666665 372.3293214687876, 3550 372.8088676620267 C 3558.3333333333335 373.28841385526584, 3566.6666666666665 373.1369761795841, 3575 373.5725413359046 C 3583.3333333333335 374.00810649222507, 3591.6666666666665 376.0221131564778, 3600 378.094999675595 C 3608.3333333333335 380.16788619471214, 3616.6666666666665 387.4729082100546, 3625 388.0458383864926 C 3633.3333333333335 388.61876856293065, 3641.6666666666665 388.4699589993824, 3650 388.9864705004225 C 3658.3333333333335 389.5029820014626, 3666.6666666666665 392.3501305120957, 3675 393.38023387638185 C 3683.3333333333335 394.410337240668, 3691.6666666666665 395.71771023657965, 3700 395.7635189292271 C 3708.3333333333335 395.8093276218745, 3716.6666666666665 395.79176074658017, 3725 395.83427186226777 C 3733.3333333333335 395.8767829779554, 3741.6666666666665 396.48006510492934, 3750 396.48006510492934 C 3758.3333333333335 396.48006510492934, 3766.6666666666665 393.9775713451325, 3775 391.3809606262122 C 3783.3333333333335 388.78434990729187, 3791.6666666666665 374.8880397394594, 3800 374.8880397394594 C 3808.3333333333335 374.8880397394594, 3816.6666666666665 380.32233144187984, 3825 383.22915913171744 C 3833.3333333333335 386.13598682155504, 3841.6666666666665 389.7855963150638, 3850 392.365157904438 C 3858.3333333333335 394.94471949381216, 3866.6666666666665 399.0772546624759, 3875 399.0772546624759 C 3883.3333333333335 399.0772546624759, 3891.6666666666665 380.21425163467427, 3900 369.66200086443416 C 3908.3333333333335 359.10975009419406, 3916.6666666666665 335.3939582673494, 3925 335.3939582673494 C 3933.3333333333335 335.3939582673494, 3941.6666666666665 340.0879700639822, 3950 342.8646596831493 C 3958.3333333333335 345.64134930231637, 3966.6666666666665 352.2713725631437, 3975 352.2775039671095 C 3983.3333333333335 352.2836353710753, 3991.6666666666665 352.28671006815944, 4000 352.28671006815944 C 4008.3333333333335 352.28671006815944, 4016.6666666666665 346.8628182478619, 4025 346.8628182478619 C 4033.3333333333335 346.8628182478619, 4041.6666666666665 349.227884418973, 4050 350.94964514515004 C 4058.3333333333335 352.67140587132707, 4066.6666666666665 356.5978012853385, 4075 357.96660210176924 C 4083.3333333333335 359.3354029182, 4091.6666666666665 359.7275829633515, 4100 360.86908671111814 C 4108.333333333333 362.0105904588848, 4116.666666666667 365.04458204896787, 4125 365.04458204896787 C 4133.333333333333 365.04458204896787, 4141.666666666667 347.83315248628753, 4150 347.83315248628753 C 4158.333333333333 347.83315248628753, 4166.666666666667 351.3133219535651, 4175 352.6190494928918 C 4183.333333333333 353.9247770322185, 4191.666666666667 355.9344378114478, 4200 355.9344378114478 C 4208.333333333333 355.9344378114478, 4216.666666666667 355.79689342527075, 4225 355.79689342527075 C 4233.333333333333 355.79689342527075, 4241.666666666667 356.05898794197645, 4250 356.5245673239051 C 4258.333333333333 356.99014670583375, 4266.666666666667 371.6751310673268, 4275 373.86590729441906 C 4283.333333333333 376.05668352151133, 4291.666666666667 376.23655592817784, 4300 377.9203918864764 C 4308.333333333333 379.604227844775, 4316.666666666667 383.02168187465134, 4325 384.61917194418834 C 4333.333333333333 386.21666201372534, 4341.666666666667 388.3499527039809, 4350 388.3499527039809 C 4358.333333333333 388.3499527039809, 4366.666666666667 381.29413684692696, 4375 378.9073239658402 C 4383.333333333333 376.5205110847534, 4391.666666666667 373.1406366785177, 4400 373.1406366785177 C 4408.333333333333 373.1406366785177, 4416.666666666667 380.19603641522144, 4425 382.5229382791998 C 4433.333333333333 384.8498401431782, 4441.666666666667 385.1719472356151, 4450 388.08095375250946 C 4458.333333333333 390.9899602694038, 4466.666666666667 400.3618373485678, 4475 408.38429336029947 C 4483.333333333333 416.40674937203113, 4491.666666666667 434.0889276000114, 4500 437.92893045883517 C 4508.333333333333 441.76893331765893, 4516.666666666667 443.1962559683819, 4525 445.0838543014365 C 4533.333333333333 446.9714526344911, 4541.666666666667 448.06345734959893, 4550 449.76948169684925 C 4558.333333333333 451.4755060440996, 4566.666666666667 455.4079388968901, 4575 455.4079388968901 C 4583.333333333333 455.4079388968901, 4591.666666666667 454.2132335938655, 4600 454.2132335938655 C 4608.333333333333 454.2132335938655, 4616.666666666667 457.80520750665005, 4625 459.46837079640943 C 4633.333333333333 461.1315340861688, 4641.666666666667 463.54742120133943, 4650 464.21777799817306 C 4658.333333333333 464.8881347950067, 4666.666666666667 464.8216617136176, 4675 465.49338146155026 C 4683.333333333333 466.16510120948294, 4691.666666666667 468.44981306409124, 4700 470.28874611356855 C 4708.333333333333 472.12767916304585, 4716.666666666667 474.31737394474163, 4725 476.78249112593227 C 4733.333333333333 479.2476083071229, 4741.666666666667 482.2836280712438, 4750 485.37017674254844 C 4758.333333333333 488.45672541385306, 4766.666666666667 494.521702610439, 4775 495.4158676534176 C 4783.333333333333 496.3100326963962, 4791.666666666667 496.82144338807814, 4800 496.96378495627084 C 4808.333333333333 497.10612652446355, 4816.666666666667 497.07949651779626, 4825 497.2114604946008 C 4833.333333333333 497.3434244714053, 4841.666666666667 498.01359489729134, 4850 498.1973200227203 C 4858.333333333333 498.38104514814927, 4866.666666666667 498.3976260870045, 4875 498.57983659299265 C 4883.333333333333 498.7620470989808, 4891.666666666667 499.34857402583236, 4900 499.53722697766204 C 4908.333333333333 499.7258799294917, 4916.666666666667 499.90429331691405, 4925 499.93894314256124 C 4933.333333333333 499.97359296820844, 4941.666666666667 499.997756488823, 4950 499.9986417971454 C 4958.333333333333 499.99952710546785, 4966.666666666667 499.9999999524016, 4975 499.99999997144073 C 4983.333333333333 499.99999999047986, 4991.666666666667 500, 5000 500 C 5008.333333333333 500, 5016.666666666667 500, 5025 500 c 0 0, 0 0, 0 0C 5016.666666666667 500, 5008.333333333333 500, 5000 500 C 4991.666666666667 500, 4983.333333333333 500.00000000952014, 4975 500.00000002855927 C 4966.666666666667 500.0000000475984, 4958.333333333333 500.00047289453215, 4950 500.0013582028546 C 4941.666666666667 500.002243511177, 4933.333333333333 500.02640703179156, 4925 500.06105685743876 C 4916.666666666667 500.09570668308595, 4908.333333333333 500.2741200705083, 4900 500.46277302233796 C 4891.666666666667 500.65142597416764, 4883.333333333333 501.2379529010192, 4875 501.42016340700735 C 4866.666666666667 501.6023739129955, 4858.333333333333 501.61895485185073, 4850 501.8026799772797 C 4841.666666666667 501.98640510270866, 4833.333333333333 502.6565755285947, 4825 502.7885395053992 C 4816.666666666667 502.92050348220374, 4808.333333333333 502.89387347553645, 4800 503.03621504372916 C 4791.666666666667 503.17855661192186, 4783.333333333333 503.6899673036038, 4775 504.5841323465824 C 4766.666666666667 505.478297389561, 4758.333333333333 511.54327458614694, 4750 514.6298232574516 C 4741.666666666667 517.7163719287562, 4733.333333333333 520.7523916928772, 4725 523.2175088740678 C 4716.666666666667 525.6826260552584, 4708.333333333333 527.8723208369541, 4700 529.7112538864315 C 4691.666666666667 531.5501869359088, 4683.333333333333 533.8348987905171, 4675 534.5066185384497 C 4666.666666666667 535.1783382863824, 4658.333333333333 535.1118652049934, 4650 535.782222001827 C 4641.666666666667 536.4525787986606, 4633.333333333333 538.8684659138312, 4625 540.5316292035906 C 4616.666666666667 542.19479249335, 4608.333333333333 545.7867664061346, 4600 545.7867664061346 C 4591.666666666667 545.7867664061346, 4583.333333333333 544.5920611031099, 4575 544.5920611031099 C 4566.666666666667 544.5920611031099, 4558.333333333333 548.5244939559004, 4550 550.2305183031508 C 4541.666666666667 551.9365426504011, 4533.333333333333 553.028547365509, 4525 554.9161456985635 C 4516.666666666667 556.8037440316182, 4508.333333333333 558.2310666823411, 4500 562.0710695411649 C 4491.666666666667 565.9110723999886, 4483.333333333333 583.5932506279689, 4475 591.6157066397005 C 4466.666666666667 599.6381626514321, 4458.333333333333 609.0100397305962, 4450 611.9190462474905 C 4441.666666666667 614.8280527643849, 4433.333333333333 615.1501598568218, 4425 617.4770617208002 C 4416.666666666667 619.8039635847786, 4408.333333333333 626.8593633214823, 4400 626.8593633214823 C 4391.666666666667 626.8593633214823, 4383.333333333333 623.4794889152465, 4375 621.0926760341598 C 4366.666666666667 618.7058631530731, 4358.333333333333 611.6500472960191, 4350 611.6500472960191 C 4341.666666666667 611.6500472960191, 4333.333333333333 613.7833379862747, 4325 615.3808280558117 C 4316.666666666667 616.9783181253487, 4308.333333333333 620.395772155225, 4300 622.0796081135236 C 4291.666666666667 623.7634440718222, 4283.333333333333 623.9433164784887, 4275 626.134092705581 C 4266.666666666667 628.3248689326732, 4258.333333333333 643.0098532941663, 4250 643.4754326760949 C 4241.666666666667 643.9410120580235, 4233.333333333333 644.2031065747292, 4225 644.2031065747292 C 4216.666666666667 644.2031065747292, 4208.333333333333 644.0655621885521, 4200 644.0655621885521 C 4191.666666666667 644.0655621885521, 4183.333333333333 646.0752229677814, 4175 647.3809505071082 C 4166.666666666667 648.686678046435, 4158.333333333333 652.1668475137125, 4150 652.1668475137125 C 4141.666666666667 652.1668475137125, 4133.333333333333 634.9554179510321, 4125 634.9554179510321 C 4116.666666666667 634.9554179510321, 4108.333333333333 637.9894095411153, 4100 639.1309132888819 C 4091.6666666666665 640.2724170366484, 4083.3333333333335 640.6645970818, 4075 642.0333978982308 C 4066.6666666666665 643.4021987146615, 4058.3333333333335 647.3285941286729, 4050 649.05035485485 C 4041.6666666666665 650.772115581027, 4033.3333333333335 653.1371817521381, 4025 653.1371817521381 C 4016.6666666666665 653.1371817521381, 4008.3333333333335 647.7132899318406, 4000 647.7132899318406 C 3991.6666666666665 647.7132899318406, 3983.3333333333335 647.7163646289247, 3975 647.7224960328905 C 3966.6666666666665 647.7286274368563, 3958.3333333333335 654.3586506976836, 3950 657.1353403168507 C 3941.6666666666665 659.9120299360178, 3933.3333333333335 664.6060417326506, 3925 664.6060417326506 C 3916.6666666666665 664.6060417326506, 3908.3333333333335 640.890249905806, 3900 630.3379991355658 C 3891.6666666666665 619.7857483653257, 3883.3333333333335 600.922745337524, 3875 600.922745337524 C 3866.6666666666665 600.922745337524, 3858.3333333333335 605.0552805061878, 3850 607.634842095562 C 3841.6666666666665 610.2144036849362, 3833.3333333333335 613.864013178445, 3825 616.7708408682826 C 3816.6666666666665 619.6776685581201, 3808.3333333333335 625.1119602605406, 3800 625.1119602605406 C 3791.6666666666665 625.1119602605406, 3783.3333333333335 611.2156500927081, 3775 608.6190393737878 C 3766.6666666666665 606.0224286548676, 3758.3333333333335 603.5199348950707, 3750 603.5199348950707 C 3741.6666666666665 603.5199348950707, 3733.3333333333335 604.1232170220446, 3725 604.1657281377322 C 3716.6666666666665 604.2082392534198, 3708.3333333333335 604.1906723781256, 3700 604.2364810707729 C 3691.6666666666665 604.2822897634203, 3683.3333333333335 605.589662759332, 3675 606.6197661236181 C 3666.6666666666665 607.6498694879043, 3658.3333333333335 610.4970179985373, 3650 611.0135294995775 C 3641.6666666666665 611.5300410006175, 3633.3333333333335 611.3812314370693, 3625 611.9541616135074 C 3616.6666666666665 612.5270917899454, 3608.3333333333335 619.8321138052879, 3600 621.905000324405 C 3591.6666666666665 623.9778868435221, 3583.3333333333335 625.9918935077749, 3575 626.4274586640954 C 3566.6666666666665 626.863023820416, 3558.3333333333335 626.7115861447342, 3550 627.1911323379733 C 3541.6666666666665 627.6706785312124, 3533.3333333333335 639.5760457332176, 3525 639.5760457332176 C 3516.6666666666665 639.5760457332176, 3508.3333333333335 637.8042317076537, 3500 637.8042317076537 C 3491.6666666666665 637.8042317076537, 3483.3333333333335 639.848278569787, 3475 640.8214316485672 C 3466.6666666666665 641.7945847273475, 3458.3333333333335 642.1664544966461, 3450 643.6492840020783 C 3441.6666666666665 645.1321135075104, 3433.3333333333335 654.0696783084343, 3425 654.0696783084343 C 3416.6666666666665 654.0696783084343, 3408.3333333333335 653.5615366066496, 3400 653.5615366066496 C 3391.6666666666665 653.5615366066496, 3383.3333333333335 658.771096488914, 3375 661.1928705013603 C 3366.6666666666665 663.6146445138065, 3358.3333333333335 668.1256829666829, 3350 668.1256829666829 C 3341.6666666666665 668.1256829666829, 3333.3333333333335 665.7363356961571, 3325 662.5666675237939 C 3316.6666666666665 659.3969993514306, 3308.3333333333335 639.2698155666263, 3300 629.7140654871416 C 3291.6666666666665 620.1583154076568, 3283.3333333333335 604.2862632989198, 3275 604.2862632989198 C 3266.6666666666665 604.2862632989198, 3258.3333333333335 609.8773565350491, 3250 612.6662222898225 C 3241.6666666666665 615.4550880445959, 3233.3333333333335 620.370687757125, 3225 621.0195003698971 C 3216.6666666666665 621.6683129826691, 3208.3333333333335 621.42840754334, 3200 622.1210590548965 C 3191.6666666666665 622.813710566453, 3183.3333333333335 636.1597800491345, 3175 640.4091463986675 C 3166.6666666666665 644.6585127482006, 3158.3333333333335 650.193333439219, 3150 650.193333439219 C 3141.6666666666665 650.193333439219, 3133.3333333333335 649.6971885042567, 3125 649.411889920721 C 3116.6666666666665 649.1265913371853, 3108.3333333333335 648.4658610237625, 3100 648.4658610237625 C 3091.6666666666665 648.4658610237625, 3083.3333333333335 652.6741455068367, 3075 652.6741455068367 C 3066.6666666666665 652.6741455068367, 3058.3333333333335 625.9898109663922, 3050 620.761329069749 C 3041.6666666666665 615.5328471731058, 3033.3333333333335 610.3632234886297, 3025 610.3632234886297 C 3016.6666666666665 610.3632234886297, 3008.3333333333335 612.8933199003806, 3000 614.6379410720342 C 2991.6666666666665 616.382562243688, 2983.3333333333335 620.5592329179607, 2975 621.3858840350745 C 2966.6666666666665 622.2125351521883, 2958.3333333333335 622.9050095065054, 2950 622.9050095065054 C 2941.6666666666665 622.9050095065054, 2933.3333333333335 612.7287483273421, 2925 612.7287483273421 C 2916.6666666666665 612.7287483273421, 2908.3333333333335 615.4615394950567, 2900 617.7665512577285 C 2891.6666666666665 620.0715630204002, 2883.3333333333335 628.5230533486915, 2875 628.7887968414727 C 2866.6666666666665 629.0545403342539, 2858.3333333333335 629.2023687483509, 2850 629.2023687483509 C 2841.6666666666665 629.2023687483509, 2833.3333333333335 626.0996262931874, 2825 626.0996262931874 C 2816.6666666666665 626.0996262931874, 2808.3333333333335 641.5594615085811, 2800 641.5594615085811 C 2791.6666666666665 641.5594615085811, 2783.3333333333335 639.9678006071279, 2775 639.9678006071279 C 2766.6666666666665 639.9678006071279, 2758.3333333333335 640.2091221074078, 2750 640.4847319661587 C 2741.6666666666665 640.7603418249096, 2733.3333333333335 641.4407056643976, 2725 642.5492040250991 C 2716.6666666666665 643.6577023858007, 2708.3333333333335 651.0941040417085, 2700 651.0941040417085 C 2691.6666666666665 651.0941040417085, 2683.3333333333335 650.2291051828959, 2675 650.1262040142706 C 2666.6666666666665 650.0233028456453, 2658.3333333333335 649.9425676271177, 2650 649.9425676271177 C 2641.6666666666665 649.9425676271177, 2633.3333333333335 652.152435493965, 2625 654.0693566029253 C 2616.6666666666665 655.9862777118856, 2608.3333333333335 663.551555749963, 2600 663.551555749963 C 2591.6666666666665 663.551555749963, 2583.3333333333335 641.0064770510492, 2575 624.1815018533578 C 2566.6666666666665 607.3565266556664, 2558.3333333333335 553.8759037165486, 2550 553.8759037165486 C 2541.6666666666665 553.8759037165486, 2533.3333333333335 556.2770495259962, 2525 557.9988317260852 C 2516.6666666666665 559.7206139261742, 2508.3333333333335 561.9168250286236, 2500 564.9120883605865 C 2491.6666666666665 567.9073516925494, 2483.3333333333335 577.7451029330857, 2475 577.7451029330857 C 2466.6666666666665 577.7451029330857, 2458.3333333333335 574.6526625921662, 2450 574.6526625921662 C 2441.6666666666665 574.6526625921662, 2433.3333333333335 575.7670872958399, 2425 577.0614889818623 C 2416.6666666666665 578.3558906678846, 2408.3333333333335 584.1330423886809, 2400 587.0716442928601 C 2391.6666666666665 590.0102461970394, 2383.3333333333335 592.4364090611938, 2375 594.9477249485608 C 2366.6666666666665 597.4590408359278, 2358.3333333333335 600.0938085616094, 2350 602.1680263394339 C 2341.6666666666665 604.2422441172585, 2333.3333333333335 605.7429874116181, 2325 607.6352578917094 C 2316.6666666666665 609.5275283718009, 2308.3333333333335 611.6316947397987, 2300 613.538357717334 C 2291.6666666666665 615.4450206948692, 2283.3333333333335 617.0301279463456, 2275 619.0862539752155 C 2266.6666666666665 621.1423800040855, 2258.3333333333335 626.031381525565, 2250 626.031381525565 C 2241.6666666666665 626.031381525565, 2233.3333333333335 625.6378246629617, 2225 625.6378246629617 C 2216.6666666666665 625.6378246629617, 2208.3333333333335 637.6630803226066, 2200 638.1519784529357 C 2191.6666666666665 638.6408765832649, 2183.3333333333335 638.4737011158453, 2175 638.9309760124199 C 2166.6666666666665 639.3882509089946, 2158.3333333333335 642.2812866058272, 2150 644.6711361961377 C 2141.6666666666665 647.0609857864482, 2133.3333333333335 654.2180021037402, 2125 654.2180021037402 C 2116.6666666666665 654.2180021037402, 2108.3333333333335 653.5857430989411, 2100 652.9055289215025 C 2091.6666666666665 652.225314744064, 2083.3333333333335 648.3218030398888, 2075 648.3218030398888 C 2066.6666666666665 648.3218030398888, 2058.3333333333335 648.3468103290857, 2050 648.3955835677058 C 2041.6666666666667 648.4443568063259, 2033.3333333333333 653.6100537831344, 2025 657.0922724955735 C 2016.6666666666667 660.5744912080127, 2008.3333333333333 670.1705736634141, 2000 670.1705736634141 C 1991.6666666666667 670.1705736634141, 1983.3333333333333 663.749388911381, 1975 660.6768225337061 C 1966.6666666666667 657.6042561560312, 1958.3333333333333 652.7113232939487, 1950 651.7195753481338 C 1941.6666666666667 650.727827402319, 1933.3333333333333 649.935684353788, 1925 649.935684353788 C 1916.6666666666667 649.935684353788, 1908.3333333333333 652.3562717150563, 1900 654.3685233774845 C 1891.6666666666667 656.3807750399126, 1883.3333333333333 663.8279404473503, 1875 663.8279404473503 C 1866.6666666666667 663.8279404473503, 1858.3333333333333 646.5566935841408, 1850 637.6191530010831 C 1841.6666666666667 628.6816124180253, 1833.3333333333333 610.1742168449143, 1825 610.1742168449143 C 1816.6666666666667 610.1742168449143, 1808.3333333333333 610.1963959880361, 1800 610.2380596861319 C 1791.6666666666667 610.2797233842277, 1783.3333333333333 611.9836020672632, 1775 613.1994720240391 C 1766.6666666666667 614.415341980815, 1758.3333333333333 617.9471894034323, 1750 617.9471894034323 C 1741.6666666666667 617.9471894034323, 1733.3333333333333 610.5861128278907, 1725 609.6854292968404 C 1716.6666666666667 608.7847457657901, 1708.3333333333333 608.0702831213475, 1700 608.0702831213475 C 1691.6666666666667 608.0702831213475, 1683.3333333333333 609.8291701271066, 1675 611.0309967101357 C 1666.6666666666667 612.2328232931648, 1658.3333333333333 614.1267670210239, 1650 615.6402519790192 C 1641.6666666666667 617.1537369370145, 1633.3333333333333 617.6636260952121, 1625 620.1139301596959 C 1616.6666666666667 622.5642342241795, 1608.3333333333333 640.0120355060005, 1600 640.7132195987525 C 1591.6666666666667 641.4144036915045, 1583.3333333333333 641.8215877467904, 1575 641.8215877467904 C 1566.6666666666667 641.8215877467904, 1558.3333333333333 640.4555670348825, 1550 640.4555670348825 C 1541.6666666666667 640.4555670348825, 1533.3333333333333 643.3018095175664, 1525 645.3600138754618 C 1516.6666666666667 647.4182182333573, 1508.3333333333333 651.8928820358591, 1500 653.6926290067141 C 1491.6666666666667 655.4923759775692, 1483.3333333333333 657.6860462848477, 1475 657.6860462848477 C 1466.6666666666667 657.6860462848477, 1458.3333333333333 655.2853345792548, 1450 654.5566371143966 C 1441.6666666666667 653.8279396495384, 1433.3333333333333 652.8768831419488, 1425 652.8768831419488 C 1416.6666666666667 652.8768831419488, 1408.3333333333333 657.6112118681692, 1400 657.6112118681692 C 1391.6666666666667 657.6112118681692, 1383.3333333333333 656.7471833894181, 1375 655.2700093712338 C 1366.6666666666667 653.7928353530494, 1358.3333333333333 615.0281491111909, 1350 613.9157007540314 C 1341.6666666666667 612.8032523968718, 1333.3333333333333 612.6309421822928, 1325 612.1768650986733 C 1316.6666666666667 611.7227880150538, 1308.3333333333333 611.0571471190513, 1300 611.0571471190513 C 1291.6666666666667 611.0571471190513, 1283.3333333333333 611.1323168848899, 1275 611.2567750515017 C 1266.6666666666667 611.3812332181135, 1258.3333333333333 614.136684177002, 1250 614.136684177002 C 1241.6666666666667 614.136684177002, 1233.3333333333333 611.8544165893528, 1225 611.1640695693757 C 1216.6666666666667 610.4737225493986, 1208.3333333333333 609.5749864735304, 1200 609.5749864735304 C 1191.6666666666667 609.5749864735304, 1183.3333333333333 610.2902350407037, 1175 611.0789241197061 C 1166.6666666666667 611.8676131987086, 1158.3333333333333 613.7146230475066, 1150 616.6232882975737 C 1141.6666666666667 619.5319535476408, 1133.3333333333333 631.7731256117246, 1125 637.0996207189108 C 1116.6666666666667 642.4261158260971, 1108.3333333333333 650.201727044197, 1100 650.201727044197 C 1091.6666666666667 650.201727044197, 1083.3333333333333 646.9869429223146, 1075 646.4914604060863 C 1066.6666666666667 645.995977889858, 1058.3333333333333 645.5620642021192, 1050 645.5620642021192 C 1041.6666666666667 645.5620642021192, 1033.3333333333333 647.651941843435, 1025 649.6534594192464 C 1016.6666666666666 651.6549769950577, 1008.3333333333334 660.9318420462157, 1000 660.9318420462157 C 991.6666666666666 660.9318420462157, 983.3333333333334 659.2131160584074, 975 658.2363120243909 C 966.6666666666666 657.2595079903745, 958.3333333333334 655.0261763264506, 950 655.0261763264506 C 941.6666666666666 655.0261763264506, 933.3333333333334 655.290085682961, 925 655.7071487238077 C 916.6666666666666 656.1242117646543, 908.3333333333334 663.3999850327609, 900 663.3999850327609 C 891.6666666666666 663.3999850327609, 883.3333333333334 663.2278106790363, 875 662.9864934287103 C 866.6666666666666 662.7451761783843, 858.3333333333334 661.2913623203274, 850 660.0810897866934 C 841.6666666666666 658.8708172530594, 833.3333333333334 655.6844956602778, 825 655.2420803350501 C 816.6666666666666 654.7996650098224, 808.3333333333334 654.4729831656425, 800 654.4729831656425 C 791.6666666666666 654.4729831656425, 783.3333333333334 661.0477270984492, 775 661.0477270984492 C 766.6666666666666 661.0477270984492, 758.3333333333334 539.2196039744244, 750 539.2196039744244 C 741.6666666666666 539.2196039744244, 733.3333333333334 544.1280009791299, 725 546.8580055977154 C 716.6666666666666 549.5880102163011, 708.3333333333334 552.1741345508171, 700 555.685503027169 C 691.6666666666666 559.1968715035209, 683.3333333333334 568.6166013964864, 675 568.7442352982752 C 666.6666666666666 568.8718692000639, 658.3333333333334 568.9385347269549, 650 568.9385347269549 C 641.6666666666666 568.9385347269549, 633.3333333333334 547.1802682932043, 625 547.1802682932043 C 616.6666666666666 547.1802682932043, 608.3333333333334 552.5402951152424, 600 555.3912108030861 C 591.6666666666666 558.2421264909299, 583.3333333333334 560.6765594448773, 575 564.3154557242971 C 566.6666666666666 567.9543520037168, 558.3333333333334 578.3699856888429, 550 578.3699856888429 C 541.6666666666666 578.3699856888429, 533.3333333333334 562.185300754804, 525 556.2870770051584 C 516.6666666666666 550.3888532555128, 508.3333333333333 541.5257286438193, 500 541.5257286438193 C 491.6666666666667 541.5257286438193, 483.3333333333333 548.4766528947102, 475 551.7422182611169 C 466.6666666666667 555.0077836275238, 458.3333333333333 557.958497916027, 450 561.1522577182868 C 441.6666666666667 564.3460175205464, 433.3333333333333 570.911124895151, 425 570.911124895151 C 416.6666666666667 570.911124895151, 408.3333333333333 545.8851144626562, 400 535.7465417224819 C 391.6666666666667 525.6079689823075, 383.3333333333333 509.4004880278678, 375 508.94965737970574 C 366.6666666666667 508.49882673154366, 358.3333333333333 508.255903848555, 350 508.255903848555 C 341.6666666666667 508.255903848555, 333.3333333333333 509.1450053180351, 325 509.6062974430863 C 316.6666666666667 510.0675895681375, 308.3333333333333 510.5109465660944, 300 511.02535921469087 C 291.6666666666667 511.53977186328734, 283.3333333333333 512.7165896814776, 275 512.7165896814776 C 266.6666666666667 512.7165896814776, 258.3333333333333 512.7067441818517, 250 512.687441196507 C 241.66666666666666 512.6681382111624, 233.33333333333334 510.04175770111584, 225 508.33718904161725 C 216.66666666666666 506.63262038211866, 208.33333333333334 502.13502532965276, 200 502.13502532965276 C 191.66666666666666 502.13502532965276, 183.33333333333334 504.8212296581824, 175 504.8212296581824 C 166.66666666666666 504.8212296581824, 158.33333333333334 501.138055471529, 150 500.74196116647727 C 141.66666666666666 500.3458668614255, 133.33333333333334 500.04653098451297, 125 500.04653098451297 C 116.66666666666667 500.04653098451297, 108.33333333333333 500.0611332836024, 100 500.0611332836024 C 91.66666666666667 500.0611332836024, 83.33333333333333 500.0017949905602, 75 500.00108470552686 C 66.66666666666667 500.00037442049353, 58.333333333333336 500.0000000548158, 50 500.0000000328899 C 41.666666666666664 500.00000001096396, 33.333333333333336 500, 25 500 C 8.333333333333334 500, 16.666666666666664 500, 25 500 Z" fill="white" stroke="transparent" stroke-width="0" />
  </g>
</svg>