<svg 
  baseProfile="tiny"
  preserveAspectRatio="keep"
  version="1.2"
  viewBox="-0.000000 -0.000000 5025.000000 1000.000000"
  height="100%" width="100%"
  xmlns="http://www.w3.org/2000/svg"
  xmlns:ev="http://www.w3.org/2001/xml-events"
  xmlns:xlink="http://www.w3.org/1999/xlink"
>
  <g style="transform-origin: center center;">
    <path d="M 0 500 C 8.333333333333334 500, 16.666666666666664 500, 25 500 C 33.333333333333336 500, 41.666666666666664 499.99999998854145, 50 499.9999999656246 C 58.333333333333336 499.9999999427078, 66.66666666666667 499.9975743462178, 75 499.99310266967655 C 83.33333333333333 499.9886309931353, 91.66666666666667 499.8783072055183, 100 499.74932862732203 C 108.33333333333333 499.62035004912576, 116.66666666666667 499.09270078282105, 125 498.81182057747134 C 133.33333333333334 498.5309403721216, 141.66666666666666 498.3780868475522, 150 498.04661220785505 C 158.33333333333334 497.7151375681579, 166.66666666666666 497.33208079818877, 175 496.626926202294 C 183.33333333333334 495.9217716063992, 191.66666666666666 492.47820370210644, 200 492.47820370210644 C 208.33333333333334 492.47820370210644, 216.66666666666666 493.21559093308264, 225 493.79962957766617 C 233.33333333333334 494.3836682222497, 241.66666666666666 496.3989315106206, 250 496.3989315106206 C 258.3333333333333 496.3989315106206, 266.6666666666667 487.3045826678997, 275 480.4126217053514 C 283.3333333333333 473.5206607428031, 291.6666666666667 454.41373420550786, 300 451.1536350220988 C 308.3333333333333 447.89353583868973, 316.6666666666667 447.06930062433725, 325 445.28216924151735 C 333.3333333333333 443.49503785869746, 341.6666666666667 442.78284159932025, 350 440.34930741793426 C 358.3333333333333 437.91577323654826, 366.6666666666667 426.30986751118013, 375 426.30986751118013 C 383.3333333333333 426.30986751118013, 391.6666666666667 438.3820727714136, 400 438.3820727714136 C 408.3333333333333 438.3820727714136, 416.6666666666667 433.793775549326, 425 430.8271229542359 C 433.3333333333333 427.8604703591458, 441.6666666666667 419.9995280947727, 450 419.9995280947727 C 458.3333333333333 419.9995280947727, 466.6666666666667 423.951367783371, 475 426.10298636918003 C 483.3333333333333 428.2546049549891, 491.6666666666667 432.9521738537358, 500 432.9521738537358 C 508.3333333333333 432.9521738537358, 516.6666666666666 416.79907038882493, 525 416.79907038882493 C 533.3333333333334 416.79907038882493, 541.6666666666666 417.7564426924265, 550 417.7564426924265 C 558.3333333333334 417.7564426924265, 566.6666666666666 415.6122435843854, 575 415.6122435843854 C 583.3333333333334 415.6122435843854, 591.6666666666666 429.0603316528302, 600 429.0603316528302 C 608.3333333333334 429.0603316528302, 616.6666666666666 412.1238614807507, 625 412.1238614807507 C 633.3333333333334 412.1238614807507, 641.6666666666666 418.7206674281559, 650 421.6153912321564 C 658.3333333333334 424.51011503615695, 666.6666666666666 429.61878641390166, 675 429.61878641390166 C 683.3333333333334 429.61878641390166, 691.6666666666666 419.2117381163454, 700 419.2117381163454 C 708.3333333333334 419.2117381163454, 716.6666666666666 420.18450806656887, 725 420.18450806656887 C 733.3333333333334 420.18450806656887, 741.6666666666666 418.3538194970166, 750 416.5948048340316 C 758.3333333333334 414.8357901710466, 766.6666666666666 406.63717472768474, 775 406.63717472768474 C 783.3333333333334 406.63717472768474, 791.6666666666666 435.4739469041023, 800 435.4739469041023 C 808.3333333333334 435.4739469041023, 816.6666666666666 429.06405784892036, 825 426.960684346478 C 833.3333333333334 424.8573108440356, 841.6666666666666 422.13131557191366, 850 421.94783585721746 C 858.3333333333334 421.76435614252125, 866.6666666666666 421.656628158167, 875 421.656628158167 C 883.3333333333334 421.656628158167, 891.6666666666666 425.5028255668266, 900 425.70692529817194 C 908.3333333333334 425.9110250295173, 916.6666666666666 425.82518426423536, 925 426.0381079834105 C 933.3333333333334 426.25103170258564, 941.6666666666666 435.0042874289884, 950 435.0042874289884 C 958.3333333333334 435.0042874289884, 966.6666666666666 431.6922926420829, 975 430.6371755688565 C 983.3333333333334 429.58205849563006, 991.6666666666666 429.50891398781596, 1000 428.15490597990595 C 1008.3333333333334 426.80089797199594, 1016.6666666666666 416.98275152123335, 1025 416.98275152123335 C 1033.3333333333333 416.98275152123335, 1041.6666666666667 436.5490911289162, 1050 436.5490911289162 C 1058.3333333333333 436.5490911289162, 1066.6666666666667 431.87815933368057, 1075 427.9734009841052 C 1083.3333333333333 424.0686426345298, 1091.6666666666667 409.4970263990855, 1100 409.4970263990855 C 1108.3333333333333 409.4970263990855, 1116.6666666666667 425.4541564301231, 1125 425.4541564301231 C 1133.3333333333333 425.4541564301231, 1141.6666666666667 418.57610058281847, 1150 414.93784400778446 C 1158.3333333333333 411.29958743275046, 1166.6666666666667 403.59323320929775, 1175 403.59323320929775 C 1183.3333333333333 403.59323320929775, 1191.6666666666667 417.46582719566607, 1200 418.31824950190054 C 1208.3333333333333 419.170671808135, 1216.6666666666667 419.71846982544076, 1225 419.71846982544076 C 1233.3333333333333 419.71846982544076, 1241.6666666666667 413.8833484207055, 1250 412.98397439436303 C 1258.3333333333333 412.0846003680206, 1266.6666666666667 411.29697112846463, 1275 411.29697112846463 C 1283.3333333333333 411.29697112846463, 1291.6666666666667 422.37441330555504, 1300 422.37441330555504 C 1308.3333333333333 422.37441330555504, 1316.6666666666667 414.7195550710129, 1325 414.7195550710129 C 1333.3333333333333 414.7195550710129, 1341.6666666666667 423.1641128049728, 1350 423.1641128049728 C 1358.3333333333333 423.1641128049728, 1366.6666666666667 422.0539223748003, 1375 421.2452206695642 C 1383.3333333333333 420.4365189643281, 1391.6666666666667 417.94742172611484, 1400 417.94742172611484 C 1408.3333333333333 417.94742172611484, 1416.6666666666667 419.5830605905645, 1425 419.5830605905645 C 1433.3333333333333 419.5830605905645, 1441.6666666666667 417.85076235781196, 1450 416.2703291672946 C 1458.3333333333333 414.6898959767773, 1466.6666666666667 407.9341874505326, 1475 407.9341874505326 C 1483.3333333333333 407.9341874505326, 1491.6666666666667 424.3648812640721, 1500 424.3648812640721 C 1508.3333333333333 424.3648812640721, 1516.6666666666667 407.91458836865297, 1525 407.91458836865297 C 1533.3333333333333 407.91458836865297, 1541.6666666666667 419.2988013379081, 1550 419.2988013379081 C 1558.3333333333333 419.2988013379081, 1566.6666666666667 406.4803478943485, 1575 406.4803478943485 C 1583.3333333333333 406.4803478943485, 1591.6666666666667 416.3045531513212, 1600 416.3045531513212 C 1608.3333333333333 416.3045531513212, 1616.6666666666667 409.5560557663706, 1625 409.5560557663706 C 1633.3333333333333 409.5560557663706, 1641.6666666666667 411.3448911877075, 1650 413.28162628377237 C 1658.3333333333333 415.21836137983723, 1666.6666666666667 426.47308095619417, 1675 426.47308095619417 C 1683.3333333333333 426.47308095619417, 1691.6666666666667 421.31642515408623, 1700 419.2013838305835 C 1708.3333333333333 417.08634250708076, 1716.6666666666667 413.57338936856445, 1725 413.57338936856445 C 1733.3333333333333 413.57338936856445, 1741.6666666666667 415.0569816793666, 1750 415.0569816793666 C 1758.3333333333333 415.0569816793666, 1766.6666666666667 402.64178999261287, 1775 402.64178999261287 C 1783.3333333333333 402.64178999261287, 1791.6666666666667 408.20682063328195, 1800 410.5266684113933 C 1808.3333333333333 412.84651618950465, 1816.6666666666667 416.7552522046645, 1825 416.7552522046645 C 1833.3333333333333 416.7552522046645, 1841.6666666666667 410.9399013216095, 1850 409.3996396421391 C 1858.3333333333333 407.8593779626687, 1866.6666666666667 406.03123309243165, 1875 406.03123309243165 C 1883.3333333333333 406.03123309243165, 1891.6666666666667 420.09012770244647, 1900 420.09012770244647 C 1908.3333333333333 420.09012770244647, 1916.6666666666667 412.1352451004094, 1925 412.1352451004094 C 1933.3333333333333 412.1352451004094, 1941.6666666666667 419.65861603365255, 1950 419.65861603365255 C 1958.3333333333333 419.65861603365255, 1966.6666666666667 408.2519351623385, 1975 408.2519351623385 C 1983.3333333333333 408.2519351623385, 1991.6666666666667 416.24522392367555, 2000 418.5982248922165 C 2008.3333333333333 420.9512258607574, 2016.6666666666667 423.9551823256262, 2025 423.9551823256262 C 2033.3333333333333 423.9551823256262, 2041.6666666666667 403.62482389529646, 2050 403.62482389529646 C 2058.3333333333335 403.62482389529646, 2066.6666666666665 424.6601673347876, 2075 424.6601673347876 C 2083.3333333333335 424.6601673347876, 2091.6666666666665 423.2920808484434, 2100 422.4849620038855 C 2108.3333333333335 421.67784315932767, 2116.6666666666665 419.75463548621246, 2125 419.75463548621246 C 2133.3333333333335 419.75463548621246, 2141.6666666666665 421.9013923078124, 2150 421.9013923078124 C 2158.3333333333335 421.9013923078124, 2166.6666666666665 417.6063061438309, 2175 417.6063061438309 C 2183.3333333333335 417.6063061438309, 2191.6666666666665 418.57644963894165, 2200 420.06711873021857 C 2208.3333333333335 421.5577878214955, 2216.6666666666665 435.7531779623489, 2225 444.5429499008486 C 2233.3333333333335 453.3327218393483, 2241.6666666666665 473.123280171174, 2250 473.123280171174 C 2258.3333333333335 473.123280171174, 2266.6666666666665 465.6928690052081, 2275 465.6928690052081 C 2283.3333333333335 465.6928690052081, 2291.6666666666665 480.1025275691961, 2300 480.1025275691961 C 2308.3333333333335 480.1025275691961, 2316.6666666666665 470.548761404954, 2325 470.548761404954 C 2333.3333333333335 470.548761404954, 2341.6666666666665 486.4403216447272, 2350 486.4403216447272 C 2358.3333333333335 486.4403216447272, 2366.6666666666665 452.3032170599389, 2375 452.3032170599389 C 2383.3333333333335 452.3032170599389, 2391.6666666666665 498.23925507581635, 2400 498.23925507581635 C 2408.3333333333335 498.23925507581635, 2416.6666666666665 449.04170708162314, 2425 449.04170708162314 C 2433.3333333333335 449.04170708162314, 2441.6666666666665 484.5966992735191, 2450 489.31977111107284 C 2458.3333333333335 494.04284294862657, 2466.6666666666665 497.91647410232196, 2475 497.91647410232196 C 2483.3333333333335 497.91647410232196, 2491.6666666666665 478.41052179002645, 2500 464.8338616785416 C 2508.3333333333335 451.25720156705677, 2516.6666666666665 411.857993774514, 2525 411.857993774514 C 2533.3333333333335 411.857993774514, 2541.6666666666665 437.61105485732065, 2550 437.958044791705 C 2558.3333333333335 438.30503472608933, 2566.6666666666665 438.4891203550443, 2575 438.4891203550443 C 2583.3333333333335 438.4891203550443, 2591.6666666666665 437.3536592476546, 2600 437.3536592476546 C 2608.3333333333335 437.3536592476546, 2616.6666666666665 446.1781583840318, 2625 446.1781583840318 C 2633.3333333333335 446.1781583840318, 2641.6666666666665 445.3330583853621, 2650 444.03820741987835 C 2658.3333333333335 442.7433564543946, 2666.6666666666665 423.01184325490703, 2675 423.01184325490703 C 2683.3333333333335 423.01184325490703, 2691.6666666666665 438.24135507182206, 2700 438.24135507182206 C 2708.3333333333335 438.24135507182206, 2716.6666666666665 437.8926251016703, 2725 437.8926251016703 C 2733.3333333333335 437.8926251016703, 2741.6666666666665 438.5422868732012, 2750 438.5422868732012 C 2758.3333333333335 438.5422868732012, 2766.6666666666665 426.9632543621675, 2775 426.9632543621675 C 2783.3333333333335 426.9632543621675, 2791.6666666666665 432.0217375491822, 2800 434.0908517305885 C 2808.3333333333335 436.1599659119948, 2816.6666666666665 437.11625989904644, 2825 439.5883978241433 C 2833.3333333333335 442.0605357492402, 2841.6666666666665 450.9814518755719, 2850 450.9814518755719 C 2858.3333333333335 450.9814518755719, 2866.6666666666665 439.5432700794576, 2875 439.5432700794576 C 2883.3333333333335 439.5432700794576, 2891.6666666666665 453.1356269926828, 2900 453.1356269926828 C 2908.3333333333335 453.1356269926828, 2916.6666666666665 433.0986176418031, 2925 433.0986176418031 C 2933.3333333333335 433.0986176418031, 2941.6666666666665 443.80193456010136, 2950 443.80193456010136 C 2958.3333333333335 443.80193456010136, 2966.6666666666665 427.4025664038635, 2975 427.4025664038635 C 2983.3333333333335 427.4025664038635, 2991.6666666666665 431.29698421734435, 3000 433.0145823579182 C 3008.3333333333335 434.732180498492, 3016.6666666666665 437.3258068051664, 3025 437.7776252412677 C 3033.3333333333335 438.229443677369, 3041.6666666666665 438.56778357639126, 3050 438.56778357639126 C 3058.3333333333335 438.56778357639126, 3066.6666666666665 430.48650070699324, 3075 430.48650070699324 C 3083.3333333333335 430.48650070699324, 3091.6666666666665 440.09043909074865, 3100 442.4416429507429 C 3108.3333333333335 444.79284681073716, 3116.6666666666665 447.44422740103806, 3125 447.44422740103806 C 3133.3333333333335 447.44422740103806, 3141.6666666666665 435.7553901680942, 3150 434.01117712042054 C 3158.3333333333335 432.2669640727469, 3166.6666666666665 430.7620297301953, 3175 430.7620297301953 C 3183.3333333333335 430.7620297301953, 3191.6666666666665 436.00387187687244, 3200 437.36644729489433 C 3208.3333333333335 438.7290227129162, 3216.6666666666665 440.326290384263, 3225 440.326290384263 C 3233.3333333333335 440.326290384263, 3241.6666666666665 439.5626249926938, 3250 438.5260437764494 C 3258.3333333333335 437.48946256020497, 3266.6666666666665 427.1183812282484, 3275 427.1183812282484 C 3283.3333333333335 427.1183812282484, 3291.6666666666665 432.59583656565565, 3300 436.35961006391847 C 3308.3333333333335 440.1233835621813, 3316.6666666666665 450.8699265809602, 3325 450.8699265809602 C 3333.3333333333335 450.8699265809602, 3341.6666666666665 442.1925098026611, 3350 436.8426290813064 C 3358.3333333333335 431.49274835995175, 3366.6666666666665 418.0892771533106, 3375 418.0892771533106 C 3383.3333333333335 418.0892771533106, 3391.6666666666665 434.9514173014979, 3400 434.9514173014979 C 3408.3333333333335 434.9514173014979, 3416.6666666666665 423.19492411497504, 3425 423.19492411497504 C 3433.3333333333335 423.19492411497504, 3441.6666666666665 441.437480201477, 3450 441.437480201477 C 3458.3333333333335 441.437480201477, 3466.6666666666665 426.10673305277993, 3475 426.10673305277993 C 3483.3333333333335 426.10673305277993, 3491.6666666666665 436.62294056943557, 3500 436.62294056943557 C 3508.3333333333335 436.62294056943557, 3516.6666666666665 430.5924809591166, 3525 430.5924809591166 C 3533.3333333333335 430.5924809591166, 3541.6666666666665 443.39248605602967, 3550 443.39248605602967 C 3558.3333333333335 443.39248605602967, 3566.6666666666665 433.5514849497002, 3575 432.2055069545319 C 3583.3333333333335 430.8595289593637, 3591.6666666666665 430.0877569996572, 3600 429.7419258328415 C 3608.3333333333335 429.3960946660258, 3616.6666666666665 429.08481347430944, 3625 429.08481347430944 C 3633.3333333333335 429.08481347430944, 3641.6666666666665 433.38063491470155, 3650 433.38063491470155 C 3658.3333333333335 433.38063491470155, 3666.6666666666665 426.7586942245007, 3675 426.2584360010981 C 3683.3333333333335 425.75817777769555, 3691.6666666666665 425.4196780125706, 3700 425.4196780125706 C 3708.3333333333335 425.4196780125706, 3716.6666666666665 436.3922793716103, 3725 436.3922793716103 C 3733.3333333333335 436.3922793716103, 3741.6666666666665 427.4887535780315, 3750 427.4887535780315 C 3758.3333333333335 427.4887535780315, 3766.6666666666665 448.57518466726276, 3775 448.57518466726276 C 3783.3333333333335 448.57518466726276, 3791.6666666666665 447.8336354615055, 3800 447.05614898295994 C 3808.3333333333335 446.2786625044144, 3816.6666666666665 443.12092394315306, 3825 442.03484910214263 C 3833.3333333333335 440.9487742611322, 3841.6666666666665 441.0457914945773, 3850 439.6233488779097 C 3858.3333333333335 438.20090626124204, 3866.6666666666665 421.10405874983564, 3875 421.10405874983564 C 3883.3333333333335 421.10405874983564, 3891.6666666666665 435.2309947216851, 3900 435.2309947216851 C 3908.3333333333335 435.2309947216851, 3916.6666666666665 430.8863370179213, 3925 430.8863370179213 C 3933.3333333333335 430.8863370179213, 3941.6666666666665 449.36699154139114, 3950 449.36699154139114 C 3958.3333333333335 449.36699154139114, 3966.6666666666665 445.19004645594146, 3975 443.6452211721414 C 3983.3333333333335 442.1003958883414, 3991.6666666666665 441.6647885462567, 4000 439.75079410422114 C 4008.3333333333335 437.83679966218557, 4016.6666666666665 428.8259544991042, 4025 428.8259544991042 C 4033.3333333333335 428.8259544991042, 4041.6666666666665 438.9425528086693, 4050 438.9425528086693 C 4058.3333333333335 438.9425528086693, 4066.6666666666665 438.53734524870003, 4075 438.07298619690124 C 4083.3333333333335 437.60862714510245, 4091.6666666666665 436.24174328194295, 4100 434.57247430453253 C 4108.333333333333 432.9032053271221, 4116.666666666667 425.7777023263005, 4125 425.7777023263005 C 4133.333333333333 425.7777023263005, 4141.666666666667 449.55688085518955, 4150 449.55688085518955 C 4158.333333333333 449.55688085518955, 4166.666666666667 428.6267357981083, 4175 424.2616935398528 C 4183.333333333333 419.89665128159726, 4191.666666666667 415.42740910042835, 4200 415.42740910042835 C 4208.333333333333 415.42740910042835, 4216.666666666667 429.0442153584711, 4225 433.8260226744662 C 4233.333333333333 438.60782999046125, 4241.666666666667 445.58168653424514, 4250 445.58168653424514 C 4258.333333333333 445.58168653424514, 4266.666666666667 440.7134219960783, 4275 438.5783294486519 C 4283.333333333333 436.44323690122553, 4291.666666666667 433.3944186985159, 4300 432.6770177175526 C 4308.333333333333 431.9596167365893, 4316.666666666667 431.36092786953293, 4325 431.36092786953293 C 4333.333333333333 431.36092786953293, 4341.666666666667 435.36541097594005, 4350 435.36541097594005 C 4358.333333333333 435.36541097594005, 4366.666666666667 428.7481733888862, 4375 428.7481733888862 C 4383.333333333333 428.7481733888862, 4391.666666666667 436.01245864988476, 4400 436.13020774632724 C 4408.333333333333 436.2479568427697, 4416.666666666667 436.1936402993286, 4425 436.3111609029505 C 4433.333333333333 436.42868150657245, 4441.666666666667 443.1384022028683, 4450 443.1384022028683 C 4458.333333333333 443.1384022028683, 4466.666666666667 443.1310811271803, 4475 443.1310811271803 C 4483.333333333333 443.1310811271803, 4491.666666666667 453.6733645484401, 4500 453.6733645484401 C 4508.333333333333 453.6733645484401, 4516.666666666667 417.57955819421613, 4525 417.57955819421613 C 4533.333333333333 417.57955819421613, 4541.666666666667 439.2729832320222, 4550 439.2729832320222 C 4558.333333333333 439.2729832320222, 4566.666666666667 432.86363724903333, 4575 432.86363724903333 C 4583.333333333333 432.86363724903333, 4591.666666666667 442.5812958621157, 4600 443.5814410769858 C 4608.333333333333 444.5815862918559, 4616.666666666667 444.6760799298087, 4625 445.32582841536413 C 4633.333333333333 445.9755769009196, 4641.666666666667 446.9062218863337, 4650 447.5344510576814 C 4658.333333333333 448.1626802290291, 4666.666666666667 448.1713875114745, 4675 449.1780714187033 C 4683.333333333333 450.18475532593214, 4691.666666666667 467.756001252875, 4700 467.756001252875 C 4708.333333333333 467.756001252875, 4716.666666666667 454.00927097850814, 4725 454.00927097850814 C 4733.333333333333 454.00927097850814, 4741.666666666667 463.64720887639754, 4750 467.56808160916825 C 4758.333333333333 471.48895434193895, 4766.666666666667 475.6502869669195, 4775 477.95473617492934 C 4783.333333333333 480.25918538293917, 4791.666666666667 481.5834428940534, 4800 483.13559859110563 C 4808.333333333333 484.68775428815786, 4816.666666666667 485.53350811449917, 4825 487.3640693174217 C 4833.333333333333 489.1946305203442, 4841.666666666667 494.02010526586383, 4850 495.1952342955068 C 4858.333333333333 496.37036332514975, 4866.666666666667 496.7415633372763, 4875 497.46993297432556 C 4883.333333333333 498.1983026113748, 4891.666666666667 499.4080347157569, 4900 499.5722417516842 C 4908.333333333333 499.7364487876115, 4916.666666666667 499.7870893014537, 4925 499.8512403158281 C 4933.333333333333 499.91539133020245, 4941.666666666667 499.99689668355205, 4950 499.99812854320095 C 4958.333333333333 499.99936040284985, 4966.666666666667 499.9999997886469, 4975 499.9999998731847 C 4983.333333333333 499.99999995772254, 4991.666666666667 500, 5000 500 C 5008.333333333333 500, 5016.666666666667 500, 5025 500 c 0 0, 0 0, 0 0C 5016.666666666667 500, 5008.333333333333 500, 5000 500 C 4991.666666666667 500, 4983.333333333333 500.00000004227746, 4975 500.0000001268153 C 4966.666666666667 500.0000002113531, 4958.333333333333 500.00063959715015, 4950 500.00187145679905 C 4941.666666666667 500.00310331644795, 4933.333333333333 500.08460866979755, 4925 500.1487596841719 C 4916.666666666667 500.2129106985463, 4908.333333333333 500.2635512123885, 4900 500.4277582483158 C 4891.666666666667 500.5919652842431, 4883.333333333333 501.8016973886252, 4875 502.53006702567444 C 4866.666666666667 503.2584366627237, 4858.333333333333 503.62963667485025, 4850 504.8047657044932 C 4841.666666666667 505.97989473413617, 4833.333333333333 510.8053694796558, 4825 512.6359306825783 C 4816.666666666667 514.4664918855008, 4808.333333333333 515.3122457118421, 4800 516.8644014088943 C 4791.666666666667 518.4165571059466, 4783.333333333333 519.7408146170608, 4775 522.0452638250706 C 4766.666666666667 524.3497130330804, 4758.333333333333 528.511045658061, 4750 532.4319183908317 C 4741.666666666667 536.3527911236024, 4733.333333333333 545.9907290214919, 4725 545.9907290214919 C 4716.666666666667 545.9907290214919, 4708.333333333333 532.243998747125, 4700 532.243998747125 C 4691.666666666667 532.243998747125, 4683.333333333333 549.8152446740678, 4675 550.8219285812967 C 4666.666666666667 551.8286124885256, 4658.333333333333 551.8373197709709, 4650 552.4655489423186 C 4641.666666666667 553.0937781136663, 4633.333333333333 554.0244230990804, 4625 554.6741715846358 C 4616.666666666667 555.3239200701913, 4608.333333333333 555.418413708144, 4600 556.4185589230142 C 4591.666666666667 557.4187041378843, 4583.333333333333 567.1363627509667, 4575 567.1363627509667 C 4566.666666666667 567.1363627509667, 4558.333333333333 560.7270167679778, 4550 560.7270167679778 C 4541.666666666667 560.7270167679778, 4533.333333333333 582.4204418057839, 4525 582.4204418057839 C 4516.666666666667 582.4204418057839, 4508.333333333333 546.3266354515599, 4500 546.3266354515599 C 4491.666666666667 546.3266354515599, 4483.333333333333 556.8689188728197, 4475 556.8689188728197 C 4466.666666666667 556.8689188728197, 4458.333333333333 556.8615977971317, 4450 556.8615977971317 C 4441.666666666667 556.8615977971317, 4433.333333333333 563.5713184934275, 4425 563.6888390970495 C 4416.666666666667 563.8063597006715, 4408.333333333333 563.7520431572302, 4400 563.8697922536728 C 4391.666666666667 563.9875413501152, 4383.333333333333 571.2518266111138, 4375 571.2518266111138 C 4366.666666666667 571.2518266111138, 4358.333333333333 564.63458902406, 4350 564.63458902406 C 4341.666666666667 564.63458902406, 4333.333333333333 568.6390721304671, 4325 568.6390721304671 C 4316.666666666667 568.6390721304671, 4308.333333333333 568.0403832634107, 4300 567.3229822824474 C 4291.666666666667 566.6055813014841, 4283.333333333333 563.5567630987745, 4275 561.4216705513481 C 4266.666666666667 559.2865780039217, 4258.333333333333 554.4183134657549, 4250 554.4183134657549 C 4241.666666666667 554.4183134657549, 4233.333333333333 561.3921700095387, 4225 566.1739773255338 C 4216.666666666667 570.9557846415289, 4208.333333333333 584.5725908995717, 4200 584.5725908995717 C 4191.666666666667 584.5725908995717, 4183.333333333333 580.1033487184027, 4175 575.7383064601472 C 4166.666666666667 571.3732642018917, 4158.333333333333 550.4431191448105, 4150 550.4431191448105 C 4141.666666666667 550.4431191448105, 4133.333333333333 574.2222976736995, 4125 574.2222976736995 C 4116.666666666667 574.2222976736995, 4108.333333333333 567.0967946728779, 4100 565.4275256954675 C 4091.6666666666665 563.758256718057, 4083.3333333333335 562.3913728548976, 4075 561.9270138030988 C 4066.6666666666665 561.4626547513, 4058.3333333333335 561.0574471913308, 4050 561.0574471913308 C 4041.6666666666665 561.0574471913308, 4033.3333333333335 571.1740455008958, 4025 571.1740455008958 C 4016.6666666666665 571.1740455008958, 4008.3333333333335 562.1632003378145, 4000 560.2492058957789 C 3991.6666666666665 558.3352114537433, 3983.3333333333335 557.8996041116586, 3975 556.3547788278586 C 3966.6666666666665 554.8099535440585, 3958.3333333333335 550.6330084586089, 3950 550.6330084586089 C 3941.6666666666665 550.6330084586089, 3933.3333333333335 569.1136629820787, 3925 569.1136629820787 C 3916.6666666666665 569.1136629820787, 3908.3333333333335 564.7690052783149, 3900 564.7690052783149 C 3891.6666666666665 564.7690052783149, 3883.3333333333335 578.8959412501644, 3875 578.8959412501644 C 3866.6666666666665 578.8959412501644, 3858.3333333333335 561.799093738758, 3850 560.3766511220904 C 3841.6666666666665 558.9542085054227, 3833.3333333333335 559.0512257388677, 3825 557.9651508978574 C 3816.6666666666665 556.879076056847, 3808.3333333333335 553.7213374955857, 3800 552.9438510170401 C 3791.6666666666665 552.1663645384945, 3783.3333333333335 551.4248153327372, 3775 551.4248153327372 C 3766.6666666666665 551.4248153327372, 3758.3333333333335 572.5112464219685, 3750 572.5112464219685 C 3741.6666666666665 572.5112464219685, 3733.3333333333335 563.6077206283896, 3725 563.6077206283896 C 3716.6666666666665 563.6077206283896, 3708.3333333333335 574.5803219874294, 3700 574.5803219874294 C 3691.6666666666665 574.5803219874294, 3683.3333333333335 574.2418222223044, 3675 573.7415639989019 C 3666.6666666666665 573.2413057754993, 3658.3333333333335 566.6193650852985, 3650 566.6193650852985 C 3641.6666666666665 566.6193650852985, 3633.3333333333335 570.9151865256906, 3625 570.9151865256906 C 3616.6666666666665 570.9151865256906, 3608.3333333333335 570.6039053339741, 3600 570.2580741671585 C 3591.6666666666665 569.9122430003429, 3583.3333333333335 569.1404710406364, 3575 567.794493045468 C 3566.6666666666665 566.4485150502999, 3558.3333333333335 556.6075139439704, 3550 556.6075139439704 C 3541.6666666666665 556.6075139439704, 3533.3333333333335 569.4075190408835, 3525 569.4075190408835 C 3516.6666666666665 569.4075190408835, 3508.3333333333335 563.3770594305645, 3500 563.3770594305645 C 3491.6666666666665 563.3770594305645, 3483.3333333333335 573.8932669472201, 3475 573.8932669472201 C 3466.6666666666665 573.8932669472201, 3458.3333333333335 558.562519798523, 3450 558.562519798523 C 3441.6666666666665 558.562519798523, 3433.3333333333335 576.805075885025, 3425 576.805075885025 C 3416.6666666666665 576.805075885025, 3408.3333333333335 565.0485826985021, 3400 565.0485826985021 C 3391.6666666666665 565.0485826985021, 3383.3333333333335 581.9107228466894, 3375 581.9107228466894 C 3366.6666666666665 581.9107228466894, 3358.3333333333335 568.5072516400483, 3350 563.1573709186936 C 3341.6666666666665 557.8074901973389, 3333.3333333333335 549.1300734190397, 3325 549.1300734190397 C 3316.6666666666665 549.1300734190397, 3308.3333333333335 559.8766164378187, 3300 563.6403899360815 C 3291.6666666666665 567.4041634343444, 3283.3333333333335 572.8816187717516, 3275 572.8816187717516 C 3266.6666666666665 572.8816187717516, 3258.3333333333335 562.510537439795, 3250 561.4739562235507 C 3241.6666666666665 560.4373750073062, 3233.3333333333335 559.6737096157369, 3225 559.6737096157369 C 3216.6666666666665 559.6737096157369, 3208.3333333333335 561.2709772870837, 3200 562.6335527051057 C 3191.6666666666665 563.9961281231276, 3183.3333333333335 569.2379702698047, 3175 569.2379702698047 C 3166.6666666666665 569.2379702698047, 3158.3333333333335 567.7330359272531, 3150 565.9888228795794 C 3141.6666666666665 564.2446098319058, 3133.3333333333335 552.555772598962, 3125 552.555772598962 C 3116.6666666666665 552.555772598962, 3108.3333333333335 555.2071531892628, 3100 557.5583570492571 C 3091.6666666666665 559.9095609092514, 3083.3333333333335 569.5134992930068, 3075 569.5134992930068 C 3066.6666666666665 569.5134992930068, 3058.3333333333335 561.4322164236087, 3050 561.4322164236087 C 3041.6666666666665 561.4322164236087, 3033.3333333333335 561.770556322631, 3025 562.2223747587323 C 3016.6666666666665 562.6741931948336, 3008.3333333333335 565.267819501508, 3000 566.9854176420818 C 2991.6666666666665 568.7030157826557, 2983.3333333333335 572.5974335961365, 2975 572.5974335961365 C 2966.6666666666665 572.5974335961365, 2958.3333333333335 556.1980654398986, 2950 556.1980654398986 C 2941.6666666666665 556.1980654398986, 2933.3333333333335 566.9013823581969, 2925 566.9013823581969 C 2916.6666666666665 566.9013823581969, 2908.3333333333335 546.8643730073172, 2900 546.8643730073172 C 2891.6666666666665 546.8643730073172, 2883.3333333333335 560.4567299205423, 2875 560.4567299205423 C 2866.6666666666665 560.4567299205423, 2858.3333333333335 549.0185481244281, 2850 549.0185481244281 C 2841.6666666666665 549.0185481244281, 2833.3333333333335 557.9394642507598, 2825 560.4116021758566 C 2816.6666666666665 562.8837401009536, 2808.3333333333335 563.8400340880053, 2800 565.9091482694115 C 2791.6666666666665 567.9782624508177, 2783.3333333333335 573.0367456378325, 2775 573.0367456378325 C 2766.6666666666665 573.0367456378325, 2758.3333333333335 561.4577131267988, 2750 561.4577131267988 C 2741.6666666666665 561.4577131267988, 2733.3333333333335 562.1073748983297, 2725 562.1073748983297 C 2716.6666666666665 562.1073748983297, 2708.3333333333335 561.758644928178, 2700 561.758644928178 C 2691.6666666666665 561.758644928178, 2683.3333333333335 576.988156745093, 2675 576.988156745093 C 2666.6666666666665 576.988156745093, 2658.3333333333335 557.2566435456054, 2650 555.9617925801217 C 2641.6666666666665 554.6669416146378, 2633.3333333333335 553.8218416159682, 2625 553.8218416159682 C 2616.6666666666665 553.8218416159682, 2608.3333333333335 562.6463407523454, 2600 562.6463407523454 C 2591.6666666666665 562.6463407523454, 2583.3333333333335 561.5108796449557, 2575 561.5108796449557 C 2566.6666666666665 561.5108796449557, 2558.3333333333335 561.6949652739106, 2550 562.041955208295 C 2541.6666666666665 562.3889451426794, 2533.3333333333335 588.142006225486, 2525 588.142006225486 C 2516.6666666666665 588.142006225486, 2508.3333333333335 548.7427984329432, 2500 535.1661383214584 C 2491.6666666666665 521.5894782099735, 2483.3333333333335 502.08352589767804, 2475 502.08352589767804 C 2466.6666666666665 502.08352589767804, 2458.3333333333335 505.95715705137343, 2450 510.68022888892716 C 2441.6666666666665 515.4033007264809, 2433.3333333333335 550.9582929183769, 2425 550.9582929183769 C 2416.6666666666665 550.9582929183769, 2408.3333333333335 501.76074492418365, 2400 501.76074492418365 C 2391.6666666666665 501.76074492418365, 2383.3333333333335 547.6967829400611, 2375 547.6967829400611 C 2366.6666666666665 547.6967829400611, 2358.3333333333335 513.5596783552728, 2350 513.5596783552728 C 2341.6666666666665 513.5596783552728, 2333.3333333333335 529.451238595046, 2325 529.451238595046 C 2316.6666666666665 529.451238595046, 2308.3333333333335 519.8974724308039, 2300 519.8974724308039 C 2291.6666666666665 519.8974724308039, 2283.3333333333335 534.3071309947919, 2275 534.3071309947919 C 2266.6666666666665 534.3071309947919, 2258.3333333333335 526.876719828826, 2250 526.876719828826 C 2241.6666666666665 526.876719828826, 2233.3333333333335 546.6672781606517, 2225 555.4570500991514 C 2216.6666666666665 564.2468220376511, 2208.3333333333335 578.4422121785045, 2200 579.9328812697814 C 2191.6666666666665 581.4235503610583, 2183.3333333333335 582.3936938561691, 2175 582.3936938561691 C 2166.6666666666665 582.3936938561691, 2158.3333333333335 578.0986076921877, 2150 578.0986076921877 C 2141.6666666666665 578.0986076921877, 2133.3333333333335 580.2453645137875, 2125 580.2453645137875 C 2116.6666666666665 580.2453645137875, 2108.3333333333335 578.3221568406723, 2100 577.5150379961144 C 2091.6666666666665 576.7079191515566, 2083.3333333333335 575.3398326652124, 2075 575.3398326652124 C 2066.6666666666665 575.3398326652124, 2058.3333333333335 596.3751761047035, 2050 596.3751761047035 C 2041.6666666666667 596.3751761047035, 2033.3333333333333 576.0448176743738, 2025 576.0448176743738 C 2016.6666666666667 576.0448176743738, 2008.3333333333333 579.0487741392426, 2000 581.4017751077836 C 1991.6666666666667 583.7547760763244, 1983.3333333333333 591.7480648376616, 1975 591.7480648376616 C 1966.6666666666667 591.7480648376616, 1958.3333333333333 580.3413839663474, 1950 580.3413839663474 C 1941.6666666666667 580.3413839663474, 1933.3333333333333 587.8647548995906, 1925 587.8647548995906 C 1916.6666666666667 587.8647548995906, 1908.3333333333333 579.9098722975535, 1900 579.9098722975535 C 1891.6666666666667 579.9098722975535, 1883.3333333333333 593.9687669075684, 1875 593.9687669075684 C 1866.6666666666667 593.9687669075684, 1858.3333333333333 592.1406220373312, 1850 590.6003603578608 C 1841.6666666666667 589.0600986783904, 1833.3333333333333 583.2447477953356, 1825 583.2447477953356 C 1816.6666666666667 583.2447477953356, 1808.3333333333333 587.1534838104953, 1800 589.4733315886067 C 1791.6666666666667 591.793179366718, 1783.3333333333333 597.3582100073871, 1775 597.3582100073871 C 1766.6666666666667 597.3582100073871, 1758.3333333333333 584.9430183206334, 1750 584.9430183206334 C 1741.6666666666667 584.9430183206334, 1733.3333333333333 586.4266106314356, 1725 586.4266106314356 C 1716.6666666666667 586.4266106314356, 1708.3333333333333 582.9136574929192, 1700 580.7986161694165 C 1691.6666666666667 578.6835748459138, 1683.3333333333333 573.5269190438058, 1675 573.5269190438058 C 1666.6666666666667 573.5269190438058, 1658.3333333333333 584.7816386201628, 1650 586.7183737162277 C 1641.6666666666667 588.6551088122925, 1633.3333333333333 590.4439442336294, 1625 590.4439442336294 C 1616.6666666666667 590.4439442336294, 1608.3333333333333 583.6954468486788, 1600 583.6954468486788 C 1591.6666666666667 583.6954468486788, 1583.3333333333333 593.5196521056515, 1575 593.5196521056515 C 1566.6666666666667 593.5196521056515, 1558.3333333333333 580.7011986620919, 1550 580.7011986620919 C 1541.6666666666667 580.7011986620919, 1533.3333333333333 592.085411631347, 1525 592.085411631347 C 1516.6666666666667 592.085411631347, 1508.3333333333333 575.6351187359279, 1500 575.6351187359279 C 1491.6666666666667 575.6351187359279, 1483.3333333333333 592.0658125494674, 1475 592.0658125494674 C 1466.6666666666667 592.0658125494674, 1458.3333333333333 585.3101040232227, 1450 583.7296708327053 C 1441.6666666666667 582.149237642188, 1433.3333333333333 580.4169394094355, 1425 580.4169394094355 C 1416.6666666666667 580.4169394094355, 1408.3333333333333 582.0525782738852, 1400 582.0525782738852 C 1391.6666666666667 582.0525782738852, 1383.3333333333333 579.5634810356719, 1375 578.7547793304358 C 1366.6666666666667 577.9460776251997, 1358.3333333333333 576.8358871950272, 1350 576.8358871950272 C 1341.6666666666667 576.8358871950272, 1333.3333333333333 585.2804449289871, 1325 585.2804449289871 C 1316.6666666666667 585.2804449289871, 1308.3333333333333 577.625586694445, 1300 577.625586694445 C 1291.6666666666667 577.625586694445, 1283.3333333333333 588.7030288715354, 1275 588.7030288715354 C 1266.6666666666667 588.7030288715354, 1258.3333333333333 587.9153996319794, 1250 587.016025605637 C 1241.6666666666667 586.1166515792945, 1233.3333333333333 580.2815301745593, 1225 580.2815301745593 C 1216.6666666666667 580.2815301745593, 1208.3333333333333 580.829328191865, 1200 581.6817504980995 C 1191.6666666666667 582.5341728043339, 1183.3333333333333 596.4067667907022, 1175 596.4067667907022 C 1166.6666666666667 596.4067667907022, 1158.3333333333333 588.7004125672495, 1150 585.0621559922156 C 1141.6666666666667 581.4238994171815, 1133.3333333333333 574.545843569877, 1125 574.545843569877 C 1116.6666666666667 574.545843569877, 1108.3333333333333 590.5029736009145, 1100 590.5029736009145 C 1091.6666666666667 590.5029736009145, 1083.3333333333333 575.9313573654701, 1075 572.0265990158948 C 1066.6666666666667 568.1218406663195, 1058.3333333333333 563.4509088710838, 1050 563.4509088710838 C 1041.6666666666667 563.4509088710838, 1033.3333333333333 583.0172484787666, 1025 583.0172484787666 C 1016.6666666666666 583.0172484787666, 1008.3333333333334 573.1991020280041, 1000 571.845094020094 C 991.6666666666666 570.491086012184, 983.3333333333334 570.41794150437, 975 569.3628244311435 C 966.6666666666666 568.307707357917, 958.3333333333334 564.9957125710116, 950 564.9957125710116 C 941.6666666666666 564.9957125710116, 933.3333333333334 573.7489682974144, 925 573.9618920165894 C 916.6666666666666 574.1748157357647, 908.3333333333334 574.0889749704827, 900 574.2930747018281 C 891.6666666666666 574.4971744331734, 883.3333333333334 578.343371841833, 875 578.343371841833 C 866.6666666666666 578.343371841833, 858.3333333333334 578.2356438574787, 850 578.0521641427825 C 841.6666666666666 577.8686844280863, 833.3333333333334 575.1426891559644, 825 573.039315653522 C 816.6666666666666 570.9359421510796, 808.3333333333334 564.5260530958976, 800 564.5260530958976 C 791.6666666666666 564.5260530958976, 783.3333333333334 593.3628252723153, 775 593.3628252723153 C 766.6666666666666 593.3628252723153, 758.3333333333334 585.1642098289534, 750 583.4051951659684 C 741.6666666666666 581.6461805029834, 733.3333333333334 579.8154919334311, 725 579.8154919334311 C 716.6666666666666 579.8154919334311, 708.3333333333334 580.7882618836546, 700 580.7882618836546 C 691.6666666666666 580.7882618836546, 683.3333333333334 570.3812135860983, 675 570.3812135860983 C 666.6666666666666 570.3812135860983, 658.3333333333334 575.489884963843, 650 578.3846087678436 C 641.6666666666666 581.2793325718442, 633.3333333333334 587.8761385192493, 625 587.8761385192493 C 616.6666666666666 587.8761385192493, 608.3333333333334 570.9396683471698, 600 570.9396683471698 C 591.6666666666666 570.9396683471698, 583.3333333333334 584.3877564156146, 575 584.3877564156146 C 566.6666666666666 584.3877564156146, 558.3333333333334 582.2435573075735, 550 582.2435573075735 C 541.6666666666666 582.2435573075735, 533.3333333333334 583.2009296111751, 525 583.2009296111751 C 516.6666666666666 583.2009296111751, 508.3333333333333 567.0478261462642, 500 567.0478261462642 C 491.6666666666667 567.0478261462642, 483.3333333333333 571.7453950450109, 475 573.89701363082 C 466.6666666666667 576.048632216629, 458.3333333333333 580.0004719052273, 450 580.0004719052273 C 441.6666666666667 580.0004719052273, 433.3333333333333 572.1395296408542, 425 569.1728770457642 C 416.6666666666667 566.206224450674, 408.3333333333333 561.6179272285864, 400 561.6179272285864 C 391.6666666666667 561.6179272285864, 383.3333333333333 573.6901324888199, 375 573.6901324888199 C 366.6666666666667 573.6901324888199, 358.3333333333333 562.0842267634517, 350 559.6506925820657 C 341.6666666666667 557.2171584006798, 333.3333333333333 556.5049621413025, 325 554.7178307584827 C 316.6666666666667 552.9306993756627, 308.3333333333333 552.1064641613102, 300 548.8463649779012 C 291.6666666666667 545.5862657944922, 283.3333333333333 526.4793392571969, 275 519.5873782946486 C 266.6666666666667 512.6954173321003, 258.3333333333333 503.6010684893794, 250 503.6010684893794 C 241.66666666666666 503.6010684893794, 233.33333333333334 505.6163317777503, 225 506.20037042233383 C 216.66666666666666 506.78440906691736, 208.33333333333334 507.52179629789356, 200 507.52179629789356 C 191.66666666666666 507.52179629789356, 183.33333333333334 504.0782283936008, 175 503.373073797706 C 166.66666666666666 502.66791920181123, 158.33333333333334 502.2848624318421, 150 501.95338779214495 C 141.66666666666666 501.6219131524478, 133.33333333333334 501.4690596278784, 125 501.18817942252866 C 116.66666666666667 500.90729921717895, 108.33333333333333 500.37964995087424, 100 500.25067137267797 C 91.66666666666667 500.1216927944817, 83.33333333333333 500.0113690068647, 75 500.00689733032345 C 66.66666666666667 500.0024256537822, 58.333333333333336 500.0000000572922, 50 500.0000000343754 C 41.666666666666664 500.00000001145855, 33.333333333333336 500, 25 500 C 8.333333333333334 500, 16.666666666666664 500, 25 500 Z" fill="white" stroke="transparent" stroke-width="0" />
  </g>
</svg>