<svg 
  baseProfile="tiny"
  preserveAspectRatio="keep"
  version="1.2"
  viewBox="-0.000000 -0.000000 5025.000000 1000.000000"
  height="100%" width="100%"
  xmlns="http://www.w3.org/2000/svg"
  xmlns:ev="http://www.w3.org/2001/xml-events"
  xmlns:xlink="http://www.w3.org/1999/xlink"
>
  <g style="transform-origin: center center;">
    <path d="M 0 500 C 8.333333333333334 500, 16.666666666666664 500, 25 500 C 33.333333333333336 500, 41.666666666666664 499.9999998900233, 50 499.999999670096 C 58.333333333333336 499.9999994501687, 66.66666666666667 499.9970150719719, 75 499.99165866338933 C 83.33333333333333 499.9863022548068, 91.66666666666667 499.89574736592726, 100 499.77293115427733 C 108.33333333333333 499.6501149426274, 116.66666666666667 499.1419427147323, 125 498.6050703226474 C 133.33333333333334 498.0681979305625, 141.66666666666666 497.1130664522032, 150 496.0109935397728 C 158.33333333333334 494.9089206273424, 166.66666666666666 493.11209813202413, 175 491.4536703339847 C 183.33333333333334 489.79524253594525, 191.66666666666666 487.54284509210396, 200 485.9760221132899 C 208.33333333333334 484.40919913447584, 216.66666666666666 483.4843872918872, 225 481.85959919263087 C 233.33333333333334 480.23481109337456, 241.66666666666666 478.4964162941551, 250 475.8851894307196 C 258.3333333333333 473.2739625672841, 266.6666666666667 466.2586566691478, 275 464.5121547539939 C 283.3333333333333 462.76565283884, 291.6666666666667 462.7707064693512, 300 461.1083410835119 C 308.3333333333333 459.4459756976726, 316.6666666666667 454.2329406481744, 325 451.78405912046725 C 333.3333333333333 449.3351775927601, 341.6666666666667 448.51785967107077, 350 445.7229483041065 C 358.3333333333333 442.9280369371423, 366.6666666666667 434.8281073069238, 375 432.12536379889144 C 383.3333333333333 429.4226202908591, 391.6666666666667 429.0693688940212, 400 426.34903933396373 C 408.3333333333333 423.6287097739063, 416.6666666666667 414.4331188144431, 425 412.45008864287246 C 433.3333333333333 410.4670584713018, 441.6666666666667 410.48369630507904, 450 408.66562109347706 C 458.3333333333333 406.8475458818751, 466.6666666666667 399.4251603272859, 475 398.9047814729332 C 483.3333333333333 398.38440261858057, 491.6666666666667 398.05636592720384, 500 398.05636592720384 C 508.3333333333333 398.05636592720384, 516.6666666666666 400.1969375671874, 525 401.5663565660998 C 533.3333333333334 402.9357755650122, 541.6666666666666 406.5187291841221, 550 406.5187291841221 C 558.3333333333334 406.5187291841221, 566.6666666666666 400.4842842574328, 575 399.5904123850724 C 583.3333333333334 398.696540512712, 591.6666666666666 397.92785733952553, 600 397.92785733952553 C 608.3333333333334 397.92785733952553, 616.6666666666666 400.5876733077503, 625 400.5876733077503 C 633.3333333333334 400.5876733077503, 641.6666666666666 397.1634946404993, 650 394.77355264436943 C 658.3333333333334 392.38361064823954, 666.6666666666666 388.13732524585765, 675 385.4235414255489 C 683.3333333333334 382.7097576052401, 691.6666666666666 378.2141371677693, 700 378.2141371677693 C 708.3333333333334 378.2141371677693, 716.6666666666666 381.39962484518463, 725 381.39962484518463 C 733.3333333333334 381.39962484518463, 741.6666666666666 374.0301590362725, 750 374.0301590362725 C 758.3333333333334 374.0301590362725, 766.6666666666666 374.47613084563864, 775 374.72005079601536 C 783.3333333333334 374.9639707463921, 791.6666666666666 375.0057433657838, 800 375.499088840546 C 808.3333333333334 375.9924343153082, 816.6666666666666 390.2736869265193, 825 390.2736869265193 C 833.3333333333334 390.2736869265193, 841.6666666666666 385.5356906607212, 850 385.5356906607212 C 858.3333333333334 385.5356906607212, 866.6666666666666 386.57348625823346, 875 386.57348625823346 C 883.3333333333334 386.57348625823346, 891.6666666666666 384.4650292477941, 900 384.4650292477941 C 908.3333333333334 384.4650292477941, 916.6666666666666 390.15149282267913, 925 390.15149282267913 C 933.3333333333334 390.15149282267913, 941.6666666666666 384.62798371696766, 950 384.62798371696766 C 958.3333333333334 384.62798371696766, 966.6666666666666 385.8669077653467, 975 385.8669077653467 C 983.3333333333334 385.8669077653467, 991.6666666666666 385.61753889689214, 1000 385.61753889689214 C 1008.3333333333334 385.61753889689214, 1016.6666666666666 391.5499680423367, 1025 391.5499680423367 C 1033.3333333333333 391.5499680423367, 1041.6666666666667 385.23135385648106, 1050 385.23135385648106 C 1058.3333333333333 385.23135385648106, 1066.6666666666667 385.4329549801039, 1075 385.4329549801039 C 1083.3333333333333 385.4329549801039, 1091.6666666666667 383.37209953851, 1100 383.37209953851 C 1108.3333333333333 383.37209953851, 1116.6666666666667 389.3023127873109, 1125 389.3023127873109 C 1133.3333333333333 389.3023127873109, 1141.6666666666667 384.37351262863865, 1150 384.37351262863865 C 1158.3333333333333 384.37351262863865, 1166.6666666666667 385.6435546344392, 1175 385.6435546344392 C 1183.3333333333333 385.6435546344392, 1191.6666666666667 382.63988101285724, 1200 382.63988101285724 C 1208.3333333333333 382.63988101285724, 1216.6666666666667 384.7144301977959, 1225 384.7144301977959 C 1233.3333333333333 384.7144301977959, 1241.6666666666667 378.11933296031697, 1250 378.11933296031697 C 1258.3333333333333 378.11933296031697, 1266.6666666666667 379.94000883029577, 1275 379.94000883029577 C 1283.3333333333333 379.94000883029577, 1291.6666666666667 377.4238704219123, 1300 377.4238704219123 C 1308.3333333333333 377.4238704219123, 1316.6666666666667 379.32948818288344, 1325 379.32948818288344 C 1333.3333333333333 379.32948818288344, 1341.6666666666667 377.04648124619575, 1350 377.04648124619575 C 1358.3333333333333 377.04648124619575, 1366.6666666666667 380.1533394687052, 1375 380.1533394687052 C 1383.3333333333333 380.1533394687052, 1391.6666666666667 379.2770868115712, 1400 379.2770868115712 C 1408.3333333333333 379.2770868115712, 1416.6666666666667 383.20202836633473, 1425 383.20202836633473 C 1433.3333333333333 383.20202836633473, 1441.6666666666667 377.75609338456263, 1450 377.75609338456263 C 1458.3333333333333 377.75609338456263, 1466.6666666666667 380.5247266739427, 1475 380.5247266739427 C 1483.3333333333333 380.5247266739427, 1491.6666666666667 375.3676182992826, 1500 375.3676182992826 C 1508.3333333333333 375.3676182992826, 1516.6666666666667 381.88326382686796, 1525 381.88326382686796 C 1533.3333333333333 381.88326382686796, 1541.6666666666667 375.52201423371673, 1550 375.52201423371673 C 1558.3333333333333 375.52201423371673, 1566.6666666666667 378.8556951907654, 1575 380.80902797172286 C 1583.3333333333333 382.7623607526803, 1591.6666666666667 383.4918000538688, 1600 387.38130210674143 C 1608.3333333333333 391.27080415961404, 1616.6666666666667 439.3368802215449, 1625 439.3368802215449 C 1633.3333333333333 439.3368802215449, 1641.6666666666667 429.8212519242352, 1650 429.8212519242352 C 1658.3333333333333 429.8212519242352, 1666.6666666666667 434.14594171281743, 1675 434.14594171281743 C 1683.3333333333333 434.14594171281743, 1691.6666666666667 415.61316595146616, 1700 415.61316595146616 C 1708.3333333333333 415.61316595146616, 1716.6666666666667 418.4362723455284, 1725 418.4362723455284 C 1733.3333333333333 418.4362723455284, 1741.6666666666667 396.30630033943834, 1750 396.30630033943834 C 1758.3333333333333 396.30630033943834, 1766.6666666666667 433.93695520393806, 1775 433.93695520393806 C 1783.3333333333333 433.93695520393806, 1791.6666666666667 406.558621481589, 1800 406.558621481589 C 1808.3333333333333 406.558621481589, 1816.6666666666667 439.80010086249723, 1825 439.80010086249723 C 1833.3333333333333 439.80010086249723, 1841.6666666666667 436.23093289502344, 1850 436.23093289502344 C 1858.3333333333333 436.23093289502344, 1866.6666666666667 437.34218271018324, 1875 437.34218271018324 C 1883.3333333333333 437.34218271018324, 1891.6666666666667 419.33301020127243, 1900 419.33301020127243 C 1908.3333333333333 419.33301020127243, 1916.6666666666667 430.4765088630184, 1925 430.4765088630184 C 1933.3333333333333 430.4765088630184, 1941.6666666666667 391.55604996338207, 1950 391.55604996338207 C 1958.3333333333333 391.55604996338207, 1966.6666666666667 430.21197183887466, 1975 430.21197183887466 C 1983.3333333333333 430.21197183887466, 1991.6666666666667 402.3591764327781, 2000 402.3591764327781 C 2008.3333333333333 402.3591764327781, 2016.6666666666667 421.02325053792606, 2025 421.02325053792606 C 2033.3333333333333 421.02325053792606, 2041.6666666666667 402.29566759631564, 2050 402.29566759631564 C 2058.3333333333335 402.29566759631564, 2066.6666666666665 403.32697673776426, 2075 403.32697673776426 C 2083.3333333333335 403.32697673776426, 2091.6666666666665 402.6771288044949, 2100 402.6771288044949 C 2108.3333333333335 402.6771288044949, 2116.6666666666665 406.2241395763573, 2125 406.2241395763573 C 2133.3333333333335 406.2241395763573, 2141.6666666666665 390.3362002621702, 2150 390.3362002621702 C 2158.3333333333335 390.3362002621702, 2166.6666666666665 411.1107725684336, 2175 411.1107725684336 C 2183.3333333333335 411.1107725684336, 2191.6666666666665 401.23698172644123, 2200 401.23698172644123 C 2208.3333333333335 401.23698172644123, 2216.6666666666665 409.7807405739329, 2225 409.7807405739329 C 2233.3333333333335 409.7807405739329, 2241.6666666666665 395.96977409838104, 2250 393.9586398726219 C 2258.3333333333335 391.9475056468628, 2266.6666666666665 392.06419727192304, 2275 390.2312627706742 C 2283.3333333333335 388.3983282694254, 2291.6666666666665 379.75241263073343, 2300 379.75241263073343 C 2308.3333333333335 379.75241263073343, 2316.6666666666665 384.45673648566054, 2325 384.45673648566054 C 2333.3333333333335 384.45673648566054, 2341.6666666666665 378.0528494466397, 2350 378.0528494466397 C 2358.3333333333335 378.0528494466397, 2366.6666666666665 384.62565003691475, 2375 384.62565003691475 C 2383.3333333333335 384.62565003691475, 2391.6666666666665 382.24361262367165, 2400 382.24361262367165 C 2408.3333333333335 382.24361262367165, 2416.6666666666665 383.7949408754147, 2425 383.7949408754147 C 2433.3333333333335 383.7949408754147, 2441.6666666666665 382.3593104661936, 2450 381.75435693535 C 2458.3333333333335 381.1494034045064, 2466.6666666666665 380.1202557704993, 2475 380.1202557704993 C 2483.3333333333335 380.1202557704993, 2491.6666666666665 387.454782898742, 2500 387.454782898742 C 2508.3333333333335 387.454782898742, 2516.6666666666665 382.9179397690438, 2525 381.4051035749013 C 2533.3333333333335 379.8922673807588, 2541.6666666666665 377.7736968818414, 2550 377.7736968818414 C 2558.3333333333335 377.7736968818414, 2566.6666666666665 378.13441732237385, 2575 378.65969855379296 C 2583.3333333333335 379.1849797852121, 2591.6666666666665 385.77737107394483, 2600 385.77737107394483 C 2608.3333333333335 385.77737107394483, 2616.6666666666665 383.50259038624995, 2625 383.2865420064908 C 2633.3333333333335 383.0704936267316, 2641.6666666666665 383.1322675716803, 2650 382.9139992785771 C 2658.3333333333335 382.69573098547386, 2666.6666666666665 380.21194745969717, 2675 380.21194745969717 C 2683.3333333333335 380.21194745969717, 2691.6666666666665 386.45175559155985, 2700 386.45175559155985 C 2708.3333333333335 386.45175559155985, 2716.6666666666665 378.7437956028052, 2725 378.7437956028052 C 2733.3333333333335 378.7437956028052, 2741.6666666666665 382.963243166452, 2750 382.963243166452 C 2758.3333333333335 382.963243166452, 2766.6666666666665 377.8052470712398, 2775 377.8052470712398 C 2783.3333333333335 377.8052470712398, 2791.6666666666665 383.2055852843324, 2800 383.2055852843324 C 2808.3333333333335 383.2055852843324, 2816.6666666666665 381.63151331030855, 2825 381.08561491628274 C 2833.3333333333335 380.5397165222569, 2841.6666666666665 380.4692420949037, 2850 379.7514344226179 C 2858.3333333333335 379.0336267503321, 2866.6666666666665 374.1720148644439, 2875 374.1720148644439 C 2883.3333333333335 374.1720148644439, 2891.6666666666665 378.40890299236537, 2900 378.40890299236537 C 2908.3333333333335 378.40890299236537, 2916.6666666666665 375.49659293005203, 2925 375.49659293005203 C 2933.3333333333335 375.49659293005203, 2941.6666666666665 377.05056109912874, 2950 377.1528216284313 C 2958.3333333333335 377.25508215773385, 2966.6666666666665 377.22033129227503, 2975 377.32186862562605 C 2983.3333333333335 377.42340595897707, 2991.6666666666665 378.8598219327396, 3000 378.8598219327396 C 3008.3333333333335 378.8598219327396, 3016.6666666666665 374.84233879209313, 3025 374.84233879209313 C 3033.3333333333335 374.84233879209313, 3041.6666666666665 378.73192535312836, 3050 378.73192535312836 C 3058.3333333333335 378.73192535312836, 3066.6666666666665 373.3863038192362, 3075 373.3863038192362 C 3083.3333333333335 373.3863038192362, 3091.6666666666665 376.73153097550414, 3100 376.73153097550414 C 3108.3333333333335 376.73153097550414, 3116.6666666666665 375.5700423899811, 3125 374.7381179350325 C 3133.3333333333335 373.9061934800839, 3141.6666666666665 371.60319473037634, 3150 371.40147723961377 C 3158.3333333333335 371.1997597488512, 3166.6666666666665 371.0687261736639, 3175 371.0687261736639 C 3183.3333333333335 371.0687261736639, 3191.6666666666665 381.3847775002063, 3200 381.3847775002063 C 3208.3333333333335 381.3847775002063, 3216.6666666666665 380.43989065075834, 3225 379.71973103283 C 3233.3333333333335 378.99957141490165, 3241.6666666666665 377.65681178276276, 3250 376.64410314678423 C 3258.3333333333335 375.6313945108057, 3266.6666666666665 373.64257569001086, 3275 373.64257569001086 C 3283.3333333333335 373.64257569001086, 3291.6666666666665 378.2444856409111, 3300 378.2444856409111 C 3308.3333333333335 378.2444856409111, 3316.6666666666665 372.1201085710648, 3325 372.1201085710648 C 3333.3333333333335 372.1201085710648, 3341.6666666666665 375.70729141771795, 3350 375.70729141771795 C 3358.3333333333335 375.70729141771795, 3366.6666666666665 372.7525552129172, 3375 372.7525552129172 C 3383.3333333333335 372.7525552129172, 3391.6666666666665 380.9203727105193, 3400 380.9203727105193 C 3408.3333333333335 380.9203727105193, 3416.6666666666665 377.13838717201236, 3425 377.13838717201236 C 3433.3333333333335 377.13838717201236, 3441.6666666666665 378.69265637957614, 3450 378.69265637957614 C 3458.3333333333335 378.69265637957614, 3466.6666666666665 371.7811945799116, 3475 371.7811945799116 C 3483.3333333333335 371.7811945799116, 3491.6666666666665 374.1045395864776, 3500 374.1045395864776 C 3508.3333333333335 374.1045395864776, 3516.6666666666665 371.3715505263177, 3525 371.3715505263177 C 3533.3333333333335 371.3715505263177, 3541.6666666666665 376.60854651067507, 3550 376.60854651067507 C 3558.3333333333335 376.60854651067507, 3566.6666666666665 376.3964243400749, 3575 376.3964243400749 C 3583.3333333333335 376.3964243400749, 3591.6666666666665 388.0501529742687, 3600 388.0501529742687 C 3608.3333333333335 388.0501529742687, 3616.6666666666665 383.497943917928, 3625 383.029109529147 C 3633.3333333333335 382.56027514036595, 3641.6666666666665 382.6836026215196, 3650 382.2113172721668 C 3658.3333333333335 381.73903192281404, 3666.6666666666665 379.3242237217301, 3675 376.91390936241106 C 3683.3333333333335 374.503595003092, 3691.6666666666665 366.09331484870995, 3700 365.52666079531355 C 3708.3333333333335 364.96000674191714, 3716.6666666666665 364.60811660458234, 3725 364.60811660458234 C 3733.3333333333335 364.60811660458234, 3741.6666666666665 370.95151503120667, 3750 372.02064774222873 C 3758.3333333333335 373.0897804532508, 3766.6666666666665 372.8963131110552, 3775 374.0670951382907 C 3783.3333333333335 375.23787716552624, 3791.6666666666665 386.4481948875426, 3800 386.4481948875426 C 3808.3333333333335 386.4481948875426, 3816.6666666666665 383.01048268913837, 3825 382.87892357389853 C 3833.3333333333335 382.7473644586587, 3841.6666666666665 382.80304739372696, 3850 382.6700358708669 C 3858.3333333333335 382.53702434800687, 3866.6666666666665 378.2223469916305, 3875 378.2223469916305 C 3883.3333333333335 378.2223469916305, 3891.6666666666665 381.7985660303114, 3900 381.7985660303114 C 3908.3333333333335 381.7985660303114, 3916.6666666666665 370.8080339138572, 3925 370.8080339138572 C 3933.3333333333335 370.8080339138572, 3941.6666666666665 373.4312849694441, 3950 375.1429281388792 C 3958.3333333333335 376.8545713083143, 3966.6666666666665 377.58151953580966, 3975 381.44003267355083 C 3983.3333333333335 385.298545811292, 3991.6666666666665 452.99648013654485, 4000 452.99648013654485 C 4008.3333333333335 452.99648013654485, 4016.6666666666665 449.9695751603951, 4025 448.3257232065874 C 4033.3333333333335 446.6818712527797, 4041.6666666666665 445.1373645974964, 4050 443.102521823923 C 4058.3333333333335 441.06767905034957, 4066.6666666666665 435.7588776969278, 4075 435.7588776969278 C 4083.3333333333335 435.7588776969278, 4091.6666666666665 453.04287400145665, 4100 453.04287400145665 C 4108.333333333333 453.04287400145665, 4116.666666666667 402.98129806579357, 4125 402.98129806579357 C 4133.333333333333 402.98129806579357, 4141.666666666667 445.825620822191, 4150 445.825620822191 C 4158.333333333333 445.825620822191, 4166.666666666667 402.5305303194902, 4175 402.5305303194902 C 4183.333333333333 402.5305303194902, 4191.666666666667 445.2366976847296, 4200 445.2366976847296 C 4208.333333333333 445.2366976847296, 4216.666666666667 433.55805025044293, 4225 433.55805025044293 C 4233.333333333333 433.55805025044293, 4241.666666666667 436.7183354321206, 4250 436.7183354321206 C 4258.333333333333 436.7183354321206, 4266.666666666667 435.45297645186247, 4275 435.45297645186247 C 4283.333333333333 435.45297645186247, 4291.666666666667 440.4929531145869, 4300 440.4929531145869 C 4308.333333333333 440.4929531145869, 4316.666666666667 405.37810617619607, 4325 405.37810617619607 C 4333.333333333333 405.37810617619607, 4341.666666666667 439.27831853799637, 4350 439.27831853799637 C 4358.333333333333 439.27831853799637, 4366.666666666667 410.8787817132999, 4375 410.8787817132999 C 4383.333333333333 410.8787817132999, 4391.666666666667 443.16792907615184, 4400 443.16792907615184 C 4408.333333333333 443.16792907615184, 4416.666666666667 426.1271194576194, 4425 426.1271194576194 C 4433.333333333333 426.1271194576194, 4441.666666666667 446.7497227139698, 4450 446.7497227139698 C 4458.333333333333 446.7497227139698, 4466.666666666667 430.24954080308163, 4475 430.24954080308163 C 4483.333333333333 430.24954080308163, 4491.666666666667 438.2269822279937, 4500 438.2269822279937 C 4508.333333333333 438.2269822279937, 4516.666666666667 414.0044406749932, 4525 414.0044406749932 C 4533.333333333333 414.0044406749932, 4541.666666666667 441.79431104147136, 4550 441.79431104147136 C 4558.333333333333 441.79431104147136, 4566.666666666667 415.96512114504924, 4575 415.96512114504924 C 4583.333333333333 415.96512114504924, 4591.666666666667 445.80480947342085, 4600 445.80480947342085 C 4608.333333333333 445.80480947342085, 4616.666666666667 427.50775416892344, 4625 427.50775416892344 C 4633.333333333333 427.50775416892344, 4641.666666666667 446.85882437217583, 4650 446.85882437217583 C 4658.333333333333 446.85882437217583, 4666.666666666667 442.74273995063345, 4675 441.6339115452745 C 4683.333333333333 440.5250831399155, 4691.666666666667 440.49690696571156, 4700 439.1939614367651 C 4708.333333333333 437.89101590781866, 4716.666666666667 429.3723946951074, 4725 429.3723946951074 C 4733.333333333333 429.3723946951074, 4741.666666666667 440.63657198299006, 4750 444.47114196101955 C 4758.333333333333 448.30571193904905, 4766.666666666667 450.32328487518413, 4775 453.7625515205479 C 4783.333333333333 457.2018181659117, 4791.666666666667 460.90166726950065, 4800 465.361666155041 C 4808.333333333333 469.82166504058137, 4816.666666666667 477.5219029329151, 4825 481.1685960941247 C 4833.333333333333 484.81528925533433, 4841.666666666667 487.38818940550374, 4850 489.5332525152314 C 4858.333333333333 491.6783156249591, 4866.666666666667 493.3544193895273, 4875 494.7622696020435 C 4883.333333333333 496.17011981455965, 4891.666666666667 497.59201184967424, 4900 498.30466703127115 C 4908.333333333333 499.01732221286807, 4916.666666666667 499.7374270844682, 4925 499.83565247051484 C 4933.333333333333 499.9338778565615, 4941.666666666667 499.9978068926684, 4950 499.99867988645553 C 4958.333333333333 499.9995528802427, 4966.666666666667 499.9999999676224, 4975 499.9999999805733 C 4983.333333333333 499.9999999935242, 4991.666666666667 500, 5000 500 C 5008.333333333333 500, 5016.666666666667 500, 5025 500 c 0 0, 0 0, 0 0C 5016.666666666667 500, 5008.333333333333 500, 5000 500 C 4991.666666666667 500, 4983.333333333333 500.0000000064758, 4975 500.0000000194267 C 4966.666666666667 500.0000000323776, 4958.333333333333 500.0004471197573, 4950 500.00132011354447 C 4941.666666666667 500.0021931073316, 4933.333333333333 500.0661221434385, 4925 500.16434752948516 C 4916.666666666667 500.2625729155318, 4908.333333333333 500.98267778713193, 4900 501.69533296872885 C 4891.666666666667 502.40798815032576, 4883.333333333333 503.82988018544035, 4875 505.2377303979565 C 4866.666666666667 506.6455806104727, 4858.333333333333 508.3216843750409, 4850 510.4667474847686 C 4841.666666666667 512.6118105944963, 4833.333333333333 515.1847107446656, 4825 518.8314039058753 C 4816.666666666667 522.478097067085, 4808.333333333333 530.1783349594186, 4800 534.638333844959 C 4791.666666666667 539.0983327304994, 4783.333333333333 542.7981818340884, 4775 546.237448479452 C 4766.666666666667 549.6767151248159, 4758.333333333333 551.694288060951, 4750 555.5288580389804 C 4741.666666666667 559.3634280170099, 4733.333333333333 570.6276053048925, 4725 570.6276053048925 C 4716.666666666667 570.6276053048925, 4708.333333333333 562.1089840921813, 4700 560.8060385632349 C 4691.666666666667 559.5030930342884, 4683.333333333333 559.4749168600845, 4675 558.3660884547255 C 4666.666666666667 557.2572600493666, 4658.333333333333 553.1411756278242, 4650 553.1411756278242 C 4641.666666666667 553.1411756278242, 4633.333333333333 572.4922458310766, 4625 572.4922458310766 C 4616.666666666667 572.4922458310766, 4608.333333333333 554.1951905265792, 4600 554.1951905265792 C 4591.666666666667 554.1951905265792, 4583.333333333333 584.0348788549508, 4575 584.0348788549508 C 4566.666666666667 584.0348788549508, 4558.333333333333 558.2056889585286, 4550 558.2056889585286 C 4541.666666666667 558.2056889585286, 4533.333333333333 585.9955593250068, 4525 585.9955593250068 C 4516.666666666667 585.9955593250068, 4508.333333333333 561.7730177720064, 4500 561.7730177720064 C 4491.666666666667 561.7730177720064, 4483.333333333333 569.7504591969184, 4475 569.7504591969184 C 4466.666666666667 569.7504591969184, 4458.333333333333 553.2502772860303, 4450 553.2502772860303 C 4441.666666666667 553.2502772860303, 4433.333333333333 573.8728805423806, 4425 573.8728805423806 C 4416.666666666667 573.8728805423806, 4408.333333333333 556.8320709238482, 4400 556.8320709238482 C 4391.666666666667 556.8320709238482, 4383.333333333333 589.1212182867001, 4375 589.1212182867001 C 4366.666666666667 589.1212182867001, 4358.333333333333 560.7216814620036, 4350 560.7216814620036 C 4341.666666666667 560.7216814620036, 4333.333333333333 594.6218938238039, 4325 594.6218938238039 C 4316.666666666667 594.6218938238039, 4308.333333333333 559.507046885413, 4300 559.507046885413 C 4291.666666666667 559.507046885413, 4283.333333333333 564.5470235481375, 4275 564.5470235481375 C 4266.666666666667 564.5470235481375, 4258.333333333333 563.2816645678794, 4250 563.2816645678794 C 4241.666666666667 563.2816645678794, 4233.333333333333 566.4419497495571, 4225 566.4419497495571 C 4216.666666666667 566.4419497495571, 4208.333333333333 554.7633023152704, 4200 554.7633023152704 C 4191.666666666667 554.7633023152704, 4183.333333333333 597.4694696805097, 4175 597.4694696805097 C 4166.666666666667 597.4694696805097, 4158.333333333333 554.174379177809, 4150 554.174379177809 C 4141.666666666667 554.174379177809, 4133.333333333333 597.0187019342064, 4125 597.0187019342064 C 4116.666666666667 597.0187019342064, 4108.333333333333 546.9571259985433, 4100 546.9571259985433 C 4091.6666666666665 546.9571259985433, 4083.3333333333335 564.2411223030722, 4075 564.2411223030722 C 4066.6666666666665 564.2411223030722, 4058.3333333333335 558.9323209496504, 4050 556.897478176077 C 4041.6666666666665 554.8626354025037, 4033.3333333333335 553.3181287472203, 4025 551.6742767934127 C 4016.6666666666665 550.0304248396048, 4008.3333333333335 547.0035198634552, 4000 547.0035198634552 C 3991.6666666666665 547.0035198634552, 3983.3333333333335 614.701454188708, 3975 618.5599673264492 C 3966.6666666666665 622.4184804641903, 3958.3333333333335 623.1454286916858, 3950 624.8570718611209 C 3941.6666666666665 626.568715030556, 3933.3333333333335 629.1919660861429, 3925 629.1919660861429 C 3916.6666666666665 629.1919660861429, 3908.3333333333335 618.2014339696887, 3900 618.2014339696887 C 3891.6666666666665 618.2014339696887, 3883.3333333333335 621.7776530083695, 3875 621.7776530083695 C 3866.6666666666665 621.7776530083695, 3858.3333333333335 617.4629756519931, 3850 617.329964129133 C 3841.6666666666665 617.196952606273, 3833.3333333333335 617.2526355413413, 3825 617.1210764261015 C 3816.6666666666665 616.9895173108616, 3808.3333333333335 613.5518051124574, 3800 613.5518051124574 C 3791.6666666666665 613.5518051124574, 3783.3333333333335 624.7621228344738, 3775 625.9329048617093 C 3766.6666666666665 627.1036868889448, 3758.3333333333335 626.9102195467492, 3750 627.9793522577713 C 3741.6666666666665 629.0484849687933, 3733.3333333333335 635.3918833954176, 3725 635.3918833954176 C 3716.6666666666665 635.3918833954176, 3708.3333333333335 635.0399932580829, 3700 634.4733392046865 C 3691.6666666666665 633.90668515129, 3683.3333333333335 625.496404996908, 3675 623.086090637589 C 3666.6666666666665 620.67577627827, 3658.3333333333335 618.2609680771859, 3650 617.7886827278332 C 3641.6666666666665 617.3163973784804, 3633.3333333333335 617.439724859634, 3625 616.970890470853 C 3616.6666666666665 616.5020560820719, 3608.3333333333335 611.9498470257313, 3600 611.9498470257313 C 3591.6666666666665 611.9498470257313, 3583.3333333333335 623.6035756599251, 3575 623.6035756599251 C 3566.6666666666665 623.6035756599251, 3558.3333333333335 623.3914534893249, 3550 623.3914534893249 C 3541.6666666666665 623.3914534893249, 3533.3333333333335 628.6284494736823, 3525 628.6284494736823 C 3516.6666666666665 628.6284494736823, 3508.3333333333335 625.8954604135224, 3500 625.8954604135224 C 3491.6666666666665 625.8954604135224, 3483.3333333333335 628.2188054200884, 3475 628.2188054200884 C 3466.6666666666665 628.2188054200884, 3458.3333333333335 621.3073436204238, 3450 621.3073436204238 C 3441.6666666666665 621.3073436204238, 3433.3333333333335 622.8616128279876, 3425 622.8616128279876 C 3416.6666666666665 622.8616128279876, 3408.3333333333335 619.0796272894806, 3400 619.0796272894806 C 3391.6666666666665 619.0796272894806, 3383.3333333333335 627.2474447870828, 3375 627.2474447870828 C 3366.6666666666665 627.2474447870828, 3358.3333333333335 624.2927085822821, 3350 624.2927085822821 C 3341.6666666666665 624.2927085822821, 3333.3333333333335 627.8798914289353, 3325 627.8798914289353 C 3316.6666666666665 627.8798914289353, 3308.3333333333335 621.7555143590889, 3300 621.7555143590889 C 3291.6666666666665 621.7555143590889, 3283.3333333333335 626.3574243099891, 3275 626.3574243099891 C 3266.6666666666665 626.3574243099891, 3258.3333333333335 624.3686054891944, 3250 623.3558968532158 C 3241.6666666666665 622.3431882172372, 3233.3333333333335 621.0004285850983, 3225 620.2802689671701 C 3216.6666666666665 619.5601093492417, 3208.3333333333335 618.6152224997936, 3200 618.6152224997936 C 3191.6666666666665 618.6152224997936, 3183.3333333333335 628.9312738263361, 3175 628.9312738263361 C 3166.6666666666665 628.9312738263361, 3158.3333333333335 628.8002402511488, 3150 628.5985227603862 C 3141.6666666666665 628.3968052696237, 3133.3333333333335 626.0938065199161, 3125 625.2618820649675 C 3116.6666666666665 624.4299576100188, 3108.3333333333335 623.2684690244959, 3100 623.2684690244959 C 3091.6666666666665 623.2684690244959, 3083.3333333333335 626.6136961807638, 3075 626.6136961807638 C 3066.6666666666665 626.6136961807638, 3058.3333333333335 621.2680746468716, 3050 621.2680746468716 C 3041.6666666666665 621.2680746468716, 3033.3333333333335 625.1576612079068, 3025 625.1576612079068 C 3016.6666666666665 625.1576612079068, 3008.3333333333335 621.1401780672604, 3000 621.1401780672604 C 2991.6666666666665 621.1401780672604, 2983.3333333333335 622.5765940410229, 2975 622.678131374374 C 2966.6666666666665 622.779668707725, 2958.3333333333335 622.7449178422662, 2950 622.8471783715687 C 2941.6666666666665 622.9494389008712, 2933.3333333333335 624.503407069948, 2925 624.503407069948 C 2916.6666666666665 624.503407069948, 2908.3333333333335 621.5910970076346, 2900 621.5910970076346 C 2891.6666666666665 621.5910970076346, 2883.3333333333335 625.8279851355561, 2875 625.8279851355561 C 2866.6666666666665 625.8279851355561, 2858.3333333333335 620.9663732496679, 2850 620.2485655773821 C 2841.6666666666665 619.5307579050964, 2833.3333333333335 619.4602834777431, 2825 618.9143850837172 C 2816.6666666666665 618.3684866896915, 2808.3333333333335 616.7944147156676, 2800 616.7944147156676 C 2791.6666666666665 616.7944147156676, 2783.3333333333335 622.1947529287602, 2775 622.1947529287602 C 2766.6666666666665 622.1947529287602, 2758.3333333333335 617.036756833548, 2750 617.036756833548 C 2741.6666666666665 617.036756833548, 2733.3333333333335 621.2562043971948, 2725 621.2562043971948 C 2716.6666666666665 621.2562043971948, 2708.3333333333335 613.5482444084402, 2700 613.5482444084402 C 2691.6666666666665 613.5482444084402, 2683.3333333333335 619.7880525403028, 2675 619.7880525403028 C 2666.6666666666665 619.7880525403028, 2658.3333333333335 617.3042690145262, 2650 617.0860007214229 C 2641.6666666666665 616.8677324283196, 2633.3333333333335 616.9295063732684, 2625 616.7134579935092 C 2616.6666666666665 616.49740961375, 2608.3333333333335 614.2226289260552, 2600 614.2226289260552 C 2591.6666666666665 614.2226289260552, 2583.3333333333335 620.8150202147879, 2575 621.340301446207 C 2566.6666666666665 621.8655826776262, 2558.3333333333335 622.2263031181586, 2550 622.2263031181586 C 2541.6666666666665 622.2263031181586, 2533.3333333333335 620.1077326192412, 2525 618.5948964250987 C 2516.6666666666665 617.0820602309561, 2508.3333333333335 612.545217101258, 2500 612.545217101258 C 2491.6666666666665 612.545217101258, 2483.3333333333335 619.8797442295007, 2475 619.8797442295007 C 2466.6666666666665 619.8797442295007, 2458.3333333333335 618.8505965954936, 2450 618.24564306465 C 2441.6666666666665 617.6406895338064, 2433.3333333333335 616.2050591245853, 2425 616.2050591245853 C 2416.6666666666665 616.2050591245853, 2408.3333333333335 617.7563873763283, 2400 617.7563873763283 C 2391.6666666666665 617.7563873763283, 2383.3333333333335 615.3743499630853, 2375 615.3743499630853 C 2366.6666666666665 615.3743499630853, 2358.3333333333335 621.9471505533603, 2350 621.9471505533603 C 2341.6666666666665 621.9471505533603, 2333.3333333333335 615.5432635143395, 2325 615.5432635143395 C 2316.6666666666665 615.5432635143395, 2308.3333333333335 620.2475873692665, 2300 620.2475873692665 C 2291.6666666666665 620.2475873692665, 2283.3333333333335 611.6016717305746, 2275 609.7687372293258 C 2266.6666666666665 607.935802728077, 2258.3333333333335 608.0524943531373, 2250 606.0413601273781 C 2241.6666666666665 604.0302259016189, 2233.3333333333335 590.2192594260671, 2225 590.2192594260671 C 2216.6666666666665 590.2192594260671, 2208.3333333333335 598.7630182735588, 2200 598.7630182735588 C 2191.6666666666665 598.7630182735588, 2183.3333333333335 588.8892274315664, 2175 588.8892274315664 C 2166.6666666666665 588.8892274315664, 2158.3333333333335 609.6637997378298, 2150 609.6637997378298 C 2141.6666666666665 609.6637997378298, 2133.3333333333335 593.7758604236427, 2125 593.7758604236427 C 2116.6666666666665 593.7758604236427, 2108.3333333333335 597.3228711955051, 2100 597.3228711955051 C 2091.6666666666665 597.3228711955051, 2083.3333333333335 596.6730232622358, 2075 596.6730232622358 C 2066.6666666666665 596.6730232622358, 2058.3333333333335 597.7043324036844, 2050 597.7043324036844 C 2041.6666666666667 597.7043324036844, 2033.3333333333333 578.9767494620739, 2025 578.9767494620739 C 2016.6666666666667 578.9767494620739, 2008.3333333333333 597.6408235672219, 2000 597.6408235672219 C 1991.6666666666667 597.6408235672219, 1983.3333333333333 569.7880281611253, 1975 569.7880281611253 C 1966.6666666666667 569.7880281611253, 1958.3333333333333 608.4439500366179, 1950 608.4439500366179 C 1941.6666666666667 608.4439500366179, 1933.3333333333333 569.5234911369816, 1925 569.5234911369816 C 1916.6666666666667 569.5234911369816, 1908.3333333333333 580.6669897987276, 1900 580.6669897987276 C 1891.6666666666667 580.6669897987276, 1883.3333333333333 562.6578172898168, 1875 562.6578172898168 C 1866.6666666666667 562.6578172898168, 1858.3333333333333 563.7690671049766, 1850 563.7690671049766 C 1841.6666666666667 563.7690671049766, 1833.3333333333333 560.1998991375028, 1825 560.1998991375028 C 1816.6666666666667 560.1998991375028, 1808.3333333333333 593.441378518411, 1800 593.441378518411 C 1791.6666666666667 593.441378518411, 1783.3333333333333 566.063044796062, 1775 566.063044796062 C 1766.6666666666667 566.063044796062, 1758.3333333333333 603.6936996605616, 1750 603.6936996605616 C 1741.6666666666667 603.6936996605616, 1733.3333333333333 581.5637276544717, 1725 581.5637276544717 C 1716.6666666666667 581.5637276544717, 1708.3333333333333 584.3868340485338, 1700 584.3868340485338 C 1691.6666666666667 584.3868340485338, 1683.3333333333333 565.8540582871826, 1675 565.8540582871826 C 1666.6666666666667 565.8540582871826, 1658.3333333333333 570.1787480757648, 1650 570.1787480757648 C 1641.6666666666667 570.1787480757648, 1633.3333333333333 560.6631197784551, 1625 560.6631197784551 C 1616.6666666666667 560.6631197784551, 1608.3333333333333 608.729195840386, 1600 612.6186978932585 C 1591.6666666666667 616.5081999461312, 1583.3333333333333 617.2376392473197, 1575 619.1909720282772 C 1566.6666666666667 621.1443048092347, 1558.3333333333333 624.4779857662833, 1550 624.4779857662833 C 1541.6666666666667 624.4779857662833, 1533.3333333333333 618.116736173132, 1525 618.116736173132 C 1516.6666666666667 618.116736173132, 1508.3333333333333 624.6323817007174, 1500 624.6323817007174 C 1491.6666666666667 624.6323817007174, 1483.3333333333333 619.4752733260573, 1475 619.4752733260573 C 1466.6666666666667 619.4752733260573, 1458.3333333333333 622.2439066154374, 1450 622.2439066154374 C 1441.6666666666667 622.2439066154374, 1433.3333333333333 616.7979716336653, 1425 616.7979716336653 C 1416.6666666666667 616.7979716336653, 1408.3333333333333 620.7229131884287, 1400 620.7229131884287 C 1391.6666666666667 620.7229131884287, 1383.3333333333333 619.8466605312948, 1375 619.8466605312948 C 1366.6666666666667 619.8466605312948, 1358.3333333333333 622.9535187538042, 1350 622.9535187538042 C 1341.6666666666667 622.9535187538042, 1333.3333333333333 620.6705118171166, 1325 620.6705118171166 C 1316.6666666666667 620.6705118171166, 1308.3333333333333 622.5761295780877, 1300 622.5761295780877 C 1291.6666666666667 622.5761295780877, 1283.3333333333333 620.0599911697043, 1275 620.0599911697043 C 1266.6666666666667 620.0599911697043, 1258.3333333333333 621.880667039683, 1250 621.880667039683 C 1241.6666666666667 621.880667039683, 1233.3333333333333 615.2855698022041, 1225 615.2855698022041 C 1216.6666666666667 615.2855698022041, 1208.3333333333333 617.3601189871428, 1200 617.3601189871428 C 1191.6666666666667 617.3601189871428, 1183.3333333333333 614.3564453655608, 1175 614.3564453655608 C 1166.6666666666667 614.3564453655608, 1158.3333333333333 615.6264873713613, 1150 615.6264873713613 C 1141.6666666666667 615.6264873713613, 1133.3333333333333 610.6976872126891, 1125 610.6976872126891 C 1116.6666666666667 610.6976872126891, 1108.3333333333333 616.6279004614901, 1100 616.6279004614901 C 1091.6666666666667 616.6279004614901, 1083.3333333333333 614.5670450198961, 1075 614.5670450198961 C 1066.6666666666667 614.5670450198961, 1058.3333333333333 614.7686461435189, 1050 614.7686461435189 C 1041.6666666666667 614.7686461435189, 1033.3333333333333 608.4500319576633, 1025 608.4500319576633 C 1016.6666666666666 608.4500319576633, 1008.3333333333334 614.3824611031079, 1000 614.3824611031079 C 991.6666666666666 614.3824611031079, 983.3333333333334 614.1330922346533, 975 614.1330922346533 C 966.6666666666666 614.1330922346533, 958.3333333333334 615.3720162830323, 950 615.3720162830323 C 941.6666666666666 615.3720162830323, 933.3333333333334 609.8485071773209, 925 609.8485071773209 C 916.6666666666666 609.8485071773209, 908.3333333333334 615.5349707522059, 900 615.5349707522059 C 891.6666666666666 615.5349707522059, 883.3333333333334 613.4265137417665, 875 613.4265137417665 C 866.6666666666666 613.4265137417665, 858.3333333333334 614.4643093392788, 850 614.4643093392788 C 841.6666666666666 614.4643093392788, 833.3333333333334 609.7263130734807, 825 609.7263130734807 C 816.6666666666666 609.7263130734807, 808.3333333333334 624.0075656846918, 800 624.5009111594541 C 791.6666666666666 624.9942566342162, 783.3333333333334 625.0360292536079, 775 625.2799492039846 C 766.6666666666666 625.5238691543614, 758.3333333333334 625.9698409637275, 750 625.9698409637275 C 741.6666666666666 625.9698409637275, 733.3333333333334 618.6003751548153, 725 618.6003751548153 C 716.6666666666666 618.6003751548153, 708.3333333333334 621.7858628322307, 700 621.7858628322307 C 691.6666666666666 621.7858628322307, 683.3333333333334 617.2902423947598, 675 614.5764585744512 C 666.6666666666666 611.8626747541423, 658.3333333333334 607.6163893517605, 650 605.2264473556306 C 641.6666666666666 602.8365053595007, 633.3333333333334 599.4123266922497, 625 599.4123266922497 C 616.6666666666666 599.4123266922497, 608.3333333333334 602.0721426604745, 600 602.0721426604745 C 591.6666666666666 602.0721426604745, 583.3333333333334 601.303459487288, 575 600.4095876149277 C 566.6666666666666 599.5157157425672, 558.3333333333334 593.4812708158779, 550 593.4812708158779 C 541.6666666666666 593.4812708158779, 533.3333333333334 597.0642244349879, 525 598.4336434339002 C 516.6666666666666 599.8030624328126, 508.3333333333333 601.9436340727962, 500 601.9436340727962 C 491.6666666666667 601.9436340727962, 483.3333333333333 601.6155973814194, 475 601.0952185270668 C 466.6666666666667 600.5748396727141, 458.3333333333333 593.152454118125, 450 591.3343789065229 C 441.6666666666667 589.5163036949209, 433.3333333333333 589.5329415286982, 425 587.5499113571275 C 416.6666666666667 585.5668811855569, 408.3333333333333 576.3712902260937, 400 573.6509606660363 C 391.6666666666667 570.9306311059788, 383.3333333333333 570.5773797091409, 375 567.8746362011086 C 366.6666666666667 565.1718926930762, 358.3333333333333 557.0719630628578, 350 554.2770516958935 C 341.6666666666667 551.4821403289293, 333.3333333333333 550.6648224072399, 325 548.2159408795328 C 316.6666666666667 545.7670593518255, 308.3333333333333 540.5540243023274, 300 538.891658916488 C 291.6666666666667 537.2292935306489, 283.3333333333333 537.23434716116, 275 535.4878452460061 C 266.6666666666667 533.7413433308523, 258.3333333333333 526.7260374327159, 250 524.1148105692804 C 241.66666666666666 521.5035837058449, 233.33333333333334 519.7651889066254, 225 518.1404008073691 C 216.66666666666666 516.5156127081128, 208.33333333333334 515.5908008655242, 200 514.0239778867101 C 191.66666666666666 512.457154907896, 183.33333333333334 510.20475746405475, 175 508.5463296660153 C 166.66666666666666 506.88790186797587, 158.33333333333334 505.0910793726576, 150 503.9890064602272 C 141.66666666666666 502.8869335477968, 133.33333333333334 501.9318020694375, 125 501.3949296773526 C 116.66666666666667 500.8580572852677, 108.33333333333333 500.3498850573726, 100 500.22706884572267 C 91.66666666666667 500.10425263407274, 83.33333333333333 500.0136977451932, 75 500.00834133661067 C 66.66666666666667 500.0029849280281, 58.333333333333336 500.0000005498313, 50 500.000000329904 C 41.666666666666664 500.0000001099767, 33.333333333333336 500, 25 500 C 8.333333333333334 500, 16.666666666666664 500, 25 500 Z" fill="white" stroke="transparent" stroke-width="0" />
  </g>
</svg>