<svg 
  baseProfile="tiny"
  preserveAspectRatio="keep"
  version="1.2"
  viewBox="0 0 1280.000000 400.000000"
  height="100%" width="100%"
  xmlns="http://www.w3.org/2000/svg"
  xmlns:ev="http://www.w3.org/2001/xml-events"
  xmlns:xlink="http://www.w3.org/1999/xlink"
>
  <g>
    <rect width="8" height="46.52716316073627" x="1" y="176.73641841963186" rx="5" ry="5" fill="white" />
    <rect width="8" height="47.35489584719689" x="11" y="176.32255207640156" rx="5" ry="5" fill="white" />
    <rect width="8" height="37.94400986387993" x="21" y="181.02799506806002" rx="5" ry="5" fill="white" />
    <rect width="8" height="37.74390170623176" x="31" y="181.1280491468841" rx="5" ry="5" fill="white" />
    <rect width="8" height="33.149261571792316" x="41" y="183.42536921410385" rx="5" ry="5" fill="white" />
    <rect width="8" height="51.25509131663256" x="51" y="174.37245434168372" rx="5" ry="5" fill="white" />
    <rect width="8" height="46.842760148695604" x="61" y="176.5786199256522" rx="5" ry="5" fill="white" />
    <rect width="8" height="56.10583630032493" x="71" y="171.94708184983753" rx="5" ry="5" fill="white" />
    <rect width="8" height="45.27203579679659" x="81" y="177.36398210160172" rx="5" ry="5" fill="white" />
    <rect width="8" height="47.824926402867696" x="91" y="176.08753679856616" rx="5" ry="5" fill="white" />
    <rect width="8" height="28.076328998069165" x="101" y="185.9618355009654" rx="5" ry="5" fill="white" />
    <rect width="8" height="41.3995670932915" x="111" y="179.30021645335424" rx="5" ry="5" fill="white" />
    <rect width="8" height="52.147590511645205" x="121" y="173.9262047441774" rx="5" ry="5" fill="white" />
    <rect width="8" height="50.84674834501451" x="131" y="174.57662582749273" rx="5" ry="5" fill="white" />
    <rect width="8" height="50.82633779569412" x="141" y="174.58683110215293" rx="5" ry="5" fill="white" />
    <rect width="8" height="34.427107007090655" x="151" y="182.7864464964547" rx="5" ry="5" fill="white" />
    <rect width="8" height="50.99275310389281" x="161" y="174.5036234480536" rx="5" ry="5" fill="white" />
    <rect width="8" height="41.32401071098547" x="171" y="179.33799464450726" rx="5" ry="5" fill="white" />
    <rect width="8" height="69.01380491249385" x="181" y="165.49309754375307" rx="5" ry="5" fill="white" />
    <rect width="8" height="64.40378223332594" x="191" y="167.79810888333702" rx="5" ry="5" fill="white" />
    <rect width="8" height="39.048493259068685" x="201" y="180.47575337046567" rx="5" ry="5" fill="white" />
    <rect width="8" height="53.90304107346314" x="211" y="173.04847946326842" rx="5" ry="5" fill="white" />
    <rect width="8" height="51.65010418804689" x="221" y="174.17494790597655" rx="5" ry="5" fill="white" />
    <rect width="8" height="47.4102810663192" x="231" y="176.2948594668404" rx="5" ry="5" fill="white" />
    <rect width="8" height="50.863751000701576" x="241" y="174.5681244996492" rx="5" ry="5" fill="white" />
    <rect width="8" height="50.25053406842147" x="251" y="174.87473296578926" rx="5" ry="5" fill="white" />
    <rect width="8" height="42.04554622491008" x="261" y="178.97722688754496" rx="5" ry="5" fill="white" />
    <rect width="8" height="35.323521827538315" x="271" y="182.33823908623083" rx="5" ry="5" fill="white" />
    <rect width="8" height="35.23085180617358" x="281" y="182.3845740969132" rx="5" ry="5" fill="white" />
    <rect width="8" height="36.69157368440313" x="291" y="181.65421315779844" rx="5" ry="5" fill="white" />
    <rect width="8" height="44.49486566551231" x="301" y="177.75256716724385" rx="5" ry="5" fill="white" />
    <rect width="8" height="58.28918037059484" x="311" y="170.85540981470257" rx="5" ry="5" fill="white" />
    <rect width="8" height="57.304355077683425" x="321" y="171.34782246115827" rx="5" ry="5" fill="white" />
    <rect width="8" height="52.796464577706004" x="331" y="173.601767711147" rx="5" ry="5" fill="white" />
    <rect width="8" height="46.38604538379507" x="341" y="176.80697730810246" rx="5" ry="5" fill="white" />
    <rect width="8" height="30.673004835433964" x="351" y="184.66349758228301" rx="5" ry="5" fill="white" />
    <rect width="8" height="43.64251272814332" x="361" y="178.17874363592833" rx="5" ry="5" fill="white" />
    <rect width="8" height="57.08115382820848" x="371" y="171.45942308589576" rx="5" ry="5" fill="white" />
    <rect width="8" height="56.206054063088516" x="381" y="171.89697296845574" rx="5" ry="5" fill="white" />
    <rect width="8" height="49.31466645408835" x="391" y="175.34266677295582" rx="5" ry="5" fill="white" />
    <rect width="8" height="48.7060537301876" x="401" y="175.6469731349062" rx="5" ry="5" fill="white" />
    <rect width="8" height="58.37231827826284" x="411" y="170.8138408608686" rx="5" ry="5" fill="white" />
    <rect width="8" height="61.5673977765634" x="421" y="169.2163011117183" rx="5" ry="5" fill="white" />
    <rect width="8" height="56.50779371468916" x="431" y="171.74610314265541" rx="5" ry="5" fill="white" />
    <rect width="8" height="55.06497498063154" x="441" y="172.46751250968424" rx="5" ry="5" fill="white" />
    <rect width="8" height="45.90135394915361" x="451" y="177.0493230254232" rx="5" ry="5" fill="white" />
    <rect width="8" height="60.18392808108543" x="461" y="169.9080359594573" rx="5" ry="5" fill="white" />
    <rect width="8" height="60.486130928415626" x="471" y="169.7569345357922" rx="5" ry="5" fill="white" />
    <rect width="8" height="49.21947320617932" x="481" y="175.39026339691034" rx="5" ry="5" fill="white" />
    <rect width="8" height="59.274271568589086" x="491" y="170.36286421570546" rx="5" ry="5" fill="white" />
    <rect width="8" height="46.65323303717084" x="501" y="176.6733834814146" rx="5" ry="5" fill="white" />
    <rect width="8" height="51.015189849427045" x="511" y="174.49240507528648" rx="5" ry="5" fill="white" />
    <rect width="8" height="46.45557595282794" x="521" y="176.77221202358604" rx="5" ry="5" fill="white" />
    <rect width="8" height="50.13619441071899" x="531" y="174.9319027946405" rx="5" ry="5" fill="white" />
    <rect width="8" height="47.76236820189399" x="541" y="176.118815899053" rx="5" ry="5" fill="white" />
    <rect width="8" height="65.06461576888043" x="551" y="167.46769211555977" rx="5" ry="5" fill="white" />
    <rect width="8" height="55.411886455307545" x="561" y="172.29405677234624" rx="5" ry="5" fill="white" />
    <rect width="8" height="57.0939625480017" x="571" y="171.45301872599916" rx="5" ry="5" fill="white" />
    <rect width="8" height="49.17336062567318" x="581" y="175.4133196871634" rx="5" ry="5" fill="white" />
    <rect width="8" height="52.84633900358444" x="591" y="173.57683049820778" rx="5" ry="5" fill="white" />
    <rect width="8" height="41.45330099728884" x="601" y="179.27334950135557" rx="5" ry="5" fill="white" />
    <rect width="8" height="66.67722999196" x="611" y="166.66138500402" rx="5" ry="5" fill="white" />
    <rect width="8" height="61.52550188022542" x="621" y="169.2372490598873" rx="5" ry="5" fill="white" />
    <rect width="8" height="54.128078276503224" x="631" y="172.93596086174838" rx="5" ry="5" fill="white" />
    <rect width="8" height="44.098728998975425" x="641" y="177.95063550051228" rx="5" ry="5" fill="white" />
    <rect width="8" height="46.11363901026162" x="651" y="176.94318049486918" rx="5" ry="5" fill="white" />
    <rect width="8" height="56.98616039505655" x="661" y="171.5069198024717" rx="5" ry="5" fill="white" />
    <rect width="8" height="62.93314787503258" x="671" y="168.5334260624837" rx="5" ry="5" fill="white" />
    <rect width="8" height="54.86432376795949" x="681" y="172.56783811602025" rx="5" ry="5" fill="white" />
    <rect width="8" height="44.804810973239164" x="691" y="177.59759451338041" rx="5" ry="5" fill="white" />
    <rect width="8" height="48.80360734278152" x="701" y="175.59819632860925" rx="5" ry="5" fill="white" />
    <rect width="8" height="61.25188649869271" x="711" y="169.37405675065364" rx="5" ry="5" fill="white" />
    <rect width="8" height="66.1447558476509" x="721" y="166.92762207617454" rx="5" ry="5" fill="white" />
    <rect width="8" height="49.050793004872425" x="731" y="175.47460349756378" rx="5" ry="5" fill="white" />
    <rect width="8" height="53.72205163354401" x="741" y="173.138974183228" rx="5" ry="5" fill="white" />
    <rect width="8" height="43.561926629460736" x="751" y="178.21903668526963" rx="5" ry="5" fill="white" />
    <rect width="8" height="50.34692715359369" x="761" y="174.82653642320315" rx="5" ry="5" fill="white" />
    <rect width="8" height="55.39724989381403" x="771" y="172.30137505309298" rx="5" ry="5" fill="white" />
    <rect width="8" height="63.85308926873142" x="781" y="168.0734553656343" rx="5" ry="5" fill="white" />
    <rect width="8" height="77.34326676501588" x="791" y="161.32836661749207" rx="5" ry="5" fill="white" />
    <rect width="8" height="49.40673483385334" x="801" y="175.29663258307332" rx="5" ry="5" fill="white" />
    <rect width="8" height="42.5898399659007" x="811" y="178.70508001704965" rx="5" ry="5" fill="white" />
    <rect width="8" height="52.49637024211542" x="821" y="173.7518148789423" rx="5" ry="5" fill="white" />
    <rect width="8" height="64.35745929028461" x="831" y="167.8212703548577" rx="5" ry="5" fill="white" />
    <rect width="8" height="64.5534216304242" x="841" y="167.72328918478792" rx="5" ry="5" fill="white" />
    <rect width="8" height="52.48329945303676" x="851" y="173.75835027348162" rx="5" ry="5" fill="white" />
    <rect width="8" height="53.87659095107625" x="861" y="173.06170452446187" rx="5" ry="5" fill="white" />
    <rect width="8" height="58.781511807267286" x="871" y="170.60924409636635" rx="5" ry="5" fill="white" />
    <rect width="8" height="67.60370082332481" x="881" y="166.1981495883376" rx="5" ry="5" fill="white" />
    <rect width="8" height="43.12680270394349" x="891" y="178.43659864802825" rx="5" ry="5" fill="white" />
    <rect width="8" height="46.600338904188014" x="901" y="176.699830547906" rx="5" ry="5" fill="white" />
    <rect width="8" height="52.68578901417025" x="911" y="173.65710549291487" rx="5" ry="5" fill="white" />
    <rect width="8" height="68.61469459131588" x="921" y="165.69265270434207" rx="5" ry="5" fill="white" />
    <rect width="8" height="71.83652470689967" x="931" y="164.08173764655015" rx="5" ry="5" fill="white" />
    <rect width="8" height="50.956471676001016" x="941" y="174.5217641619995" rx="5" ry="5" fill="white" />
    <rect width="8" height="67.47940907203746" x="951" y="166.26029546398127" rx="5" ry="5" fill="white" />
    <rect width="8" height="71.67945921245752" x="961" y="164.16027039377124" rx="5" ry="5" fill="white" />
    <rect width="8" height="63.65082786563841" x="971" y="168.1745860671808" rx="5" ry="5" fill="white" />
    <rect width="8" height="71.06704382869275" x="981" y="164.46647808565362" rx="5" ry="5" fill="white" />
    <rect width="8" height="78.73633160254691" x="991" y="160.63183419872655" rx="5" ry="5" fill="white" />
    <rect width="8" height="63.60358755286796" x="1001" y="168.19820622356602" rx="5" ry="5" fill="white" />
    <rect width="8" height="78.73151766201568" x="1011" y="160.63424116899216" rx="5" ry="5" fill="white" />
    <rect width="8" height="72.96938574317505" x="1021" y="163.51530712841247" rx="5" ry="5" fill="white" />
    <rect width="8" height="70.08222483696566" x="1031" y="164.95888758151716" rx="5" ry="5" fill="white" />
    <rect width="8" height="69.45027726835818" x="1041" y="165.27486136582093" rx="5" ry="5" fill="white" />
    <rect width="8" height="63.35119899488557" x="1051" y="168.3244005025572" rx="5" ry="5" fill="white" />
    <rect width="8" height="58.2808020567646" x="1061" y="170.8595989716177" rx="5" ry="5" fill="white" />
    <rect width="8" height="57.65626321350157" x="1071" y="171.1718683932492" rx="5" ry="5" fill="white" />
    <rect width="8" height="56.766404274046586" x="1081" y="171.6167978629767" rx="5" ry="5" fill="white" />
    <rect width="8" height="63.16699481911571" x="1091" y="168.41650259044215" rx="5" ry="5" fill="white" />
    <rect width="8" height="59.9581714240829" x="1101" y="170.02091428795856" rx="5" ry="5" fill="white" />
    <rect width="8" height="58.11513157307946" x="1111" y="170.94243421346027" rx="5" ry="5" fill="white" />
    <rect width="8" height="57.124065485266286" x="1121" y="171.43796725736686" rx="5" ry="5" fill="white" />
    <rect width="8" height="59.18481559573354" x="1131" y="170.40759220213323" rx="5" ry="5" fill="white" />
    <rect width="8" height="51.7760710670253" x="1141" y="174.11196446648734" rx="5" ry="5" fill="white" />
    <rect width="8" height="59.533677967563605" x="1151" y="170.2331610162182" rx="5" ry="5" fill="white" />
    <rect width="8" height="74.5020198284915" x="1161" y="162.74899008575426" rx="5" ry="5" fill="white" />
    <rect width="8" height="63.906506575246084" x="1171" y="168.04674671237694" rx="5" ry="5" fill="white" />
    <rect width="8" height="54.59425289076291" x="1181" y="172.70287355461855" rx="5" ry="5" fill="white" />
    <rect width="8" height="53.79838742837051" x="1191" y="173.10080628581474" rx="5" ry="5" fill="white" />
    <rect width="8" height="65.61766832319006" x="1201" y="167.19116583840497" rx="5" ry="5" fill="white" />
    <rect width="8" height="54.73923568128619" x="1211" y="172.6303821593569" rx="5" ry="5" fill="white" />
    <rect width="8" height="71.48539630327583" x="1221" y="164.2573018483621" rx="5" ry="5" fill="white" />
    <rect width="8" height="65.84752206219491" x="1231" y="167.07623896890254" rx="5" ry="5" fill="white" />
    <rect width="8" height="63.675516412918" x="1241" y="168.162241793541" rx="5" ry="5" fill="white" />
    <rect width="8" height="47.030257383133716" x="1251" y="176.48487130843313" rx="5" ry="5" fill="white" />
    <rect width="8" height="29.702171237754605" x="1261" y="185.1489143811227" rx="5" ry="5" fill="white" />
    <rect width="8" height="30.693504016885047" x="1271" y="184.65324799155746" rx="5" ry="5" fill="white" />
  </g>
</svg>