<svg 
  baseProfile="tiny"
  preserveAspectRatio="keep"
  version="1.2"
  viewBox="0 0 1280.000000 400.000000"
  height="100%" width="100%"
  xmlns="http://www.w3.org/2000/svg"
  xmlns:ev="http://www.w3.org/2001/xml-events"
  xmlns:xlink="http://www.w3.org/1999/xlink"
>
  <g>
    <rect width="8" height="85.13690122675831" x="1" y="157.43154938662084" rx="5" ry="5" fill="white" />
    <rect width="8" height="96.44783533344784" x="11" y="151.77608233327607" rx="5" ry="5" fill="white" />
    <rect width="8" height="66.81649026634484" x="21" y="166.59175486682759" rx="5" ry="5" fill="white" />
    <rect width="8" height="58.04179431078155" x="31" y="170.97910284460923" rx="5" ry="5" fill="white" />
    <rect width="8" height="67.8568477813886" x="41" y="166.0715761093057" rx="5" ry="5" fill="white" />
    <rect width="8" height="73.9397091481829" x="51" y="163.03014542590856" rx="5" ry="5" fill="white" />
    <rect width="8" height="57.39532738070838" x="61" y="171.3023363096458" rx="5" ry="5" fill="white" />
    <rect width="8" height="56.44449293666474" x="71" y="171.77775353166763" rx="5" ry="5" fill="white" />
    <rect width="8" height="63.13144099176859" x="81" y="168.4342795041157" rx="5" ry="5" fill="white" />
    <rect width="8" height="59.40823595795058" x="91" y="170.2958820210247" rx="5" ry="5" fill="white" />
    <rect width="8" height="137.7743461238782" x="101" y="131.1128269380609" rx="5" ry="5" fill="white" />
    <rect width="8" height="137.9642082265641" x="111" y="131.01789588671795" rx="5" ry="5" fill="white" />
    <rect width="8" height="131.7655245459163" x="121" y="134.11723772704187" rx="5" ry="5" fill="white" />
    <rect width="8" height="135.0977112828794" x="131" y="132.4511443585603" rx="5" ry="5" fill="white" />
    <rect width="8" height="133.38785596218906" x="141" y="133.30607201890547" rx="5" ry="5" fill="white" />
    <rect width="8" height="132.45420149836687" x="151" y="133.77289925081658" rx="5" ry="5" fill="white" />
    <rect width="8" height="133.1898606055532" x="161" y="133.40506969722338" rx="5" ry="5" fill="white" />
    <rect width="8" height="129.25340523138905" x="171" y="135.3732973843055" rx="5" ry="5" fill="white" />
    <rect width="8" height="128.08945974876582" x="181" y="135.9552701256171" rx="5" ry="5" fill="white" />
    <rect width="8" height="125.22535718950465" x="191" y="137.3873214052477" rx="5" ry="5" fill="white" />
    <rect width="8" height="124.46740885775709" x="201" y="137.76629557112145" rx="5" ry="5" fill="white" />
    <rect width="8" height="124.52157490084382" x="211" y="137.7392125495781" rx="5" ry="5" fill="white" />
    <rect width="8" height="131.06774830399078" x="221" y="134.4661258480046" rx="5" ry="5" fill="white" />
    <rect width="8" height="122.9474805578507" x="231" y="138.52625972107467" rx="5" ry="5" fill="white" />
    <rect width="8" height="124.9784909602099" x="241" y="137.51075451989504" rx="5" ry="5" fill="white" />
    <rect width="8" height="125.0253191575236" x="251" y="137.4873404212382" rx="5" ry="5" fill="white" />
    <rect width="8" height="126.29300848809488" x="261" y="136.85349575595257" rx="5" ry="5" fill="white" />
    <rect width="8" height="122.48259572700329" x="271" y="138.75870213649836" rx="5" ry="5" fill="white" />
    <rect width="8" height="126.90550938198805" x="281" y="136.54724530900597" rx="5" ry="5" fill="white" />
    <rect width="8" height="121.33655731755712" x="291" y="139.33172134122145" rx="5" ry="5" fill="white" />
    <rect width="8" height="119.19107126350326" x="301" y="140.40446436824837" rx="5" ry="5" fill="white" />
    <rect width="8" height="121.31840727416774" x="311" y="139.34079636291614" rx="5" ry="5" fill="white" />
    <rect width="8" height="123.34394951604514" x="321" y="138.32802524197743" rx="5" ry="5" fill="white" />
    <rect width="8" height="118.43299880844222" x="331" y="140.7835005957789" rx="5" ry="5" fill="white" />
    <rect width="8" height="121.52377854706573" x="341" y="139.23811072646714" rx="5" ry="5" fill="white" />
    <rect width="8" height="119.59698208425968" x="351" y="140.20150895787015" rx="5" ry="5" fill="white" />
    <rect width="8" height="117.42177434399532" x="361" y="141.28911282800235" rx="5" ry="5" fill="white" />
    <rect width="8" height="126.82613632606459" x="371" y="136.58693183696772" rx="5" ry="5" fill="white" />
    <rect width="8" height="120.81311438401279" x="381" y="139.5934428079936" rx="5" ry="5" fill="white" />
    <rect width="8" height="117.45986960780186" x="391" y="141.27006519609907" rx="5" ry="5" fill="white" />
    <rect width="8" height="123.90243364457586" x="401" y="138.04878317771207" rx="5" ry="5" fill="white" />
    <rect width="8" height="110.9602089662336" x="411" y="144.5198955168832" rx="5" ry="5" fill="white" />
    <rect width="8" height="111.17653664129689" x="421" y="144.41173167935156" rx="5" ry="5" fill="white" />
    <rect width="8" height="120.78200774653662" x="431" y="139.60899612673168" rx="5" ry="5" fill="white" />
    <rect width="8" height="123.43509018480373" x="441" y="138.28245490759815" rx="5" ry="5" fill="white" />
    <rect width="8" height="112.73809080262428" x="451" y="143.63095459868785" rx="5" ry="5" fill="white" />
    <rect width="8" height="115.67708134068089" x="461" y="142.16145932965955" rx="5" ry="5" fill="white" />
    <rect width="8" height="114.57584929143003" x="471" y="142.712075354285" rx="5" ry="5" fill="white" />
    <rect width="8" height="121.26782251599313" x="481" y="139.36608874200343" rx="5" ry="5" fill="white" />
    <rect width="8" height="126.21827788881444" x="491" y="136.89086105559278" rx="5" ry="5" fill="white" />
    <rect width="8" height="126.09080082577728" x="501" y="136.95459958711137" rx="5" ry="5" fill="white" />
    <rect width="8" height="121.80546827354081" x="511" y="139.0972658632296" rx="5" ry="5" fill="white" />
    <rect width="8" height="115.84358715961022" x="521" y="142.07820642019487" rx="5" ry="5" fill="white" />
    <rect width="8" height="104.2481735298941" x="531" y="147.87591323505296" rx="5" ry="5" fill="white" />
    <rect width="8" height="95.9199049889906" x="541" y="152.0400475055047" rx="5" ry="5" fill="white" />
    <rect width="8" height="79.01864681071235" x="551" y="160.49067659464382" rx="5" ry="5" fill="white" />
    <rect width="8" height="90.60228124618342" x="561" y="154.69885937690827" rx="5" ry="5" fill="white" />
    <rect width="8" height="86.01240641565586" x="571" y="156.99379679217208" rx="5" ry="5" fill="white" />
    <rect width="8" height="92.86616888667334" x="581" y="153.56691555666333" rx="5" ry="5" fill="white" />
    <rect width="8" height="85.2907985412051" x="591" y="157.35460072939745" rx="5" ry="5" fill="white" />
    <rect width="8" height="130.85837224937796" x="601" y="134.57081387531102" rx="5" ry="5" fill="white" />
    <rect width="8" height="86.99069580669378" x="611" y="156.5046520966531" rx="5" ry="5" fill="white" />
    <rect width="8" height="84.13774634408118" x="621" y="157.93112682795942" rx="5" ry="5" fill="white" />
    <rect width="8" height="77.56959893409946" x="631" y="161.21520053295026" rx="5" ry="5" fill="white" />
    <rect width="8" height="102.37338301685016" x="641" y="148.81330849157493" rx="5" ry="5" fill="white" />
    <rect width="8" height="116.41526126048811" x="651" y="141.79236936975593" rx="5" ry="5" fill="white" />
    <rect width="8" height="98.42300887060146" x="661" y="150.78849556469928" rx="5" ry="5" fill="white" />
    <rect width="8" height="82.19279206964177" x="671" y="158.90360396517912" rx="5" ry="5" fill="white" />
    <rect width="8" height="92.77236414846341" x="681" y="153.6138179257683" rx="5" ry="5" fill="white" />
    <rect width="8" height="99.95696641672234" x="691" y="150.02151679163882" rx="5" ry="5" fill="white" />
    <rect width="8" height="107.61327023871321" x="701" y="146.1933648806434" rx="5" ry="5" fill="white" />
    <rect width="8" height="77.91651404409403" x="711" y="161.041742977953" rx="5" ry="5" fill="white" />
    <rect width="8" height="93.78069105777736" x="721" y="153.10965447111133" rx="5" ry="5" fill="white" />
    <rect width="8" height="52.71979474098335" x="731" y="173.64010262950833" rx="5" ry="5" fill="white" />
    <rect width="8" height="94.72712495420936" x="741" y="152.63643752289533" rx="5" ry="5" fill="white" />
    <rect width="8" height="116.46481225020335" x="751" y="141.76759387489832" rx="5" ry="5" fill="white" />
    <rect width="8" height="135.64633767989233" x="761" y="132.17683116005384" rx="5" ry="5" fill="white" />
    <rect width="8" height="135.77455765239804" x="771" y="132.112721173801" rx="5" ry="5" fill="white" />
    <rect width="8" height="138.24708772998605" x="781" y="130.87645613500698" rx="5" ry="5" fill="white" />
    <rect width="8" height="134.42605494661245" x="791" y="132.78697252669377" rx="5" ry="5" fill="white" />
    <rect width="8" height="133.42017509020485" x="801" y="133.28991245489757" rx="5" ry="5" fill="white" />
    <rect width="8" height="133.6714435208567" x="811" y="133.16427823957164" rx="5" ry="5" fill="white" />
    <rect width="8" height="130.02526401741804" x="821" y="134.98736799129097" rx="5" ry="5" fill="white" />
    <rect width="8" height="129.99423794887204" x="831" y="135.00288102556397" rx="5" ry="5" fill="white" />
    <rect width="8" height="126.67266935520117" x="841" y="136.66366532239942" rx="5" ry="5" fill="white" />
    <rect width="8" height="131.11096762960162" x="851" y="134.44451618519918" rx="5" ry="5" fill="white" />
    <rect width="8" height="130.02810670608721" x="861" y="134.9859466469564" rx="5" ry="5" fill="white" />
    <rect width="8" height="127.37723586204159" x="871" y="136.3113820689792" rx="5" ry="5" fill="white" />
    <rect width="8" height="126.80973911001112" x="881" y="136.59513044499442" rx="5" ry="5" fill="white" />
    <rect width="8" height="128.62244879706986" x="891" y="135.68877560146507" rx="5" ry="5" fill="white" />
    <rect width="8" height="130.91978719301488" x="901" y="134.54010640349256" rx="5" ry="5" fill="white" />
    <rect width="8" height="127.95461664279864" x="911" y="136.02269167860067" rx="5" ry="5" fill="white" />
    <rect width="8" height="131.3165726649253" x="921" y="134.34171366753736" rx="5" ry="5" fill="white" />
    <rect width="8" height="125.46883643118905" x="931" y="137.26558178440547" rx="5" ry="5" fill="white" />
    <rect width="8" height="126.14418043512323" x="941" y="136.92790978243838" rx="5" ry="5" fill="white" />
    <rect width="8" height="114.85364258706343" x="951" y="142.5731787064683" rx="5" ry="5" fill="white" />
    <rect width="8" height="98.11466201683346" x="961" y="150.94266899158328" rx="5" ry="5" fill="white" />
    <rect width="8" height="123.59765571659398" x="971" y="138.201172141703" rx="5" ry="5" fill="white" />
    <rect width="8" height="132.85213820508724" x="981" y="133.57393089745636" rx="5" ry="5" fill="white" />
    <rect width="8" height="126.6856752670724" x="991" y="136.6571623664638" rx="5" ry="5" fill="white" />
    <rect width="8" height="125.13685295170008" x="1001" y="137.43157352414997" rx="5" ry="5" fill="white" />
    <rect width="8" height="125.23954903279615" x="1011" y="137.38022548360192" rx="5" ry="5" fill="white" />
    <rect width="8" height="127.18926352075388" x="1021" y="136.40536823962304" rx="5" ry="5" fill="white" />
    <rect width="8" height="128.0346967063558" x="1031" y="135.9826516468221" rx="5" ry="5" fill="white" />
    <rect width="8" height="124.62571164871703" x="1041" y="137.6871441756415" rx="5" ry="5" fill="white" />
    <rect width="8" height="129.4230274448163" x="1051" y="135.28848627759186" rx="5" ry="5" fill="white" />
    <rect width="8" height="100.91755805816189" x="1061" y="149.54122097091906" rx="5" ry="5" fill="white" />
    <rect width="8" height="104.10090684943403" x="1071" y="147.949546575283" rx="5" ry="5" fill="white" />
    <rect width="8" height="102.4149410412827" x="1081" y="148.79252947935865" rx="5" ry="5" fill="white" />
    <rect width="8" height="93.04495021004158" x="1091" y="153.4775248949792" rx="5" ry="5" fill="white" />
    <rect width="8" height="101.96437154890437" x="1101" y="149.01781422554782" rx="5" ry="5" fill="white" />
    <rect width="8" height="95.45249386350292" x="1111" y="152.27375306824854" rx="5" ry="5" fill="white" />
    <rect width="8" height="89.5976990791219" x="1121" y="155.20115046043907" rx="5" ry="5" fill="white" />
    <rect width="8" height="92.84303189797609" x="1131" y="153.57848405101197" rx="5" ry="5" fill="white" />
    <rect width="8" height="95.34779766330502" x="1141" y="152.3261011683475" rx="5" ry="5" fill="white" />
    <rect width="8" height="89.3141296039363" x="1151" y="155.34293519803185" rx="5" ry="5" fill="white" />
    <rect width="8" height="95.50913083878534" x="1161" y="152.24543458060734" rx="5" ry="5" fill="white" />
    <rect width="8" height="81.00757385833548" x="1171" y="159.49621307083225" rx="5" ry="5" fill="white" />
    <rect width="8" height="82.41110385409313" x="1181" y="158.79444807295343" rx="5" ry="5" fill="white" />
    <rect width="8" height="84.02239976200858" x="1191" y="157.9888001189957" rx="5" ry="5" fill="white" />
    <rect width="8" height="78.42195473625092" x="1201" y="160.78902263187453" rx="5" ry="5" fill="white" />
    <rect width="8" height="78.08962394995316" x="1211" y="160.9551880250234" rx="5" ry="5" fill="white" />
    <rect width="8" height="106.10156491981991" x="1221" y="146.94921754009005" rx="5" ry="5" fill="white" />
    <rect width="8" height="101.27861868156293" x="1231" y="149.36069065921853" rx="5" ry="5" fill="white" />
    <rect width="8" height="108.76148631119737" x="1241" y="145.61925684440132" rx="5" ry="5" fill="white" />
    <rect width="8" height="127.85310275770694" x="1251" y="136.07344862114653" rx="5" ry="5" fill="white" />
    <rect width="8" height="116.37394711781826" x="1261" y="141.81302644109087" rx="5" ry="5" fill="white" />
    <rect width="8" height="107.85905420290425" x="1271" y="146.07047289854788" rx="5" ry="5" fill="white" />
  </g>
</svg>