<svg 
  baseProfile="tiny"
  preserveAspectRatio="keep"
  version="1.2"
  viewBox="0 0 1280.000000 400.000000"
  height="100%" width="100%"
  xmlns="http://www.w3.org/2000/svg"
  xmlns:ev="http://www.w3.org/2001/xml-events"
  xmlns:xlink="http://www.w3.org/1999/xlink"
>
  <g>
    <rect width="8" height="101.11387130116138" x="1" y="149.4430643494193" rx="5" ry="5" fill="white" />
    <rect width="8" height="102.5731336651142" x="11" y="148.7134331674429" rx="5" ry="5" fill="white" />
    <rect width="8" height="89.22634472261237" x="21" y="155.38682763869383" rx="5" ry="5" fill="white" />
    <rect width="8" height="82.0552631035298" x="31" y="158.9723684482351" rx="5" ry="5" fill="white" />
    <rect width="8" height="99.35891392512991" x="41" y="150.32054303743504" rx="5" ry="5" fill="white" />
    <rect width="8" height="101.5566102064313" x="51" y="149.22169489678436" rx="5" ry="5" fill="white" />
    <rect width="8" height="119.38887933194519" x="61" y="140.3055603340274" rx="5" ry="5" fill="white" />
    <rect width="8" height="80.16820974185977" x="71" y="159.91589512907012" rx="5" ry="5" fill="white" />
    <rect width="8" height="110.8502469245497" x="81" y="144.57487653772515" rx="5" ry="5" fill="white" />
    <rect width="8" height="99.83693002985424" x="91" y="150.0815349850729" rx="5" ry="5" fill="white" />
    <rect width="8" height="114.06543022548054" x="101" y="142.96728488725972" rx="5" ry="5" fill="white" />
    <rect width="8" height="90.80499337711174" x="111" y="154.59750331144414" rx="5" ry="5" fill="white" />
    <rect width="8" height="93.77939880349746" x="121" y="153.11030059825129" rx="5" ry="5" fill="white" />
    <rect width="8" height="110.89134868087136" x="131" y="144.5543256595643" rx="5" ry="5" fill="white" />
    <rect width="8" height="103.01178975210628" x="141" y="148.49410512394687" rx="5" ry="5" fill="white" />
    <rect width="8" height="117.29272395592523" x="151" y="141.3536380220374" rx="5" ry="5" fill="white" />
    <rect width="8" height="82.81012591065556" x="161" y="158.59493704467224" rx="5" ry="5" fill="white" />
    <rect width="8" height="117.38571392611279" x="171" y="141.30714303694361" rx="5" ry="5" fill="white" />
    <rect width="8" height="103.29895131293962" x="181" y="148.3505243435302" rx="5" ry="5" fill="white" />
    <rect width="8" height="105.57438357490064" x="191" y="147.21280821254967" rx="5" ry="5" fill="white" />
    <rect width="8" height="105.87886169580243" x="201" y="147.0605691520988" rx="5" ry="5" fill="white" />
    <rect width="8" height="98.5125301002202" x="211" y="150.7437349498899" rx="5" ry="5" fill="white" />
    <rect width="8" height="121.10545007054742" x="221" y="139.4472749647263" rx="5" ry="5" fill="white" />
    <rect width="8" height="99.54374866769292" x="231" y="150.22812566615355" rx="5" ry="5" fill="white" />
    <rect width="8" height="112.19147580841697" x="241" y="143.90426209579152" rx="5" ry="5" fill="white" />
    <rect width="8" height="108.97074761988162" x="251" y="145.51462619005918" rx="5" ry="5" fill="white" />
    <rect width="8" height="148.22720354754009" x="261" y="125.88639822622996" rx="5" ry="5" fill="white" />
    <rect width="8" height="115.11918536215234" x="271" y="142.44040731892383" rx="5" ry="5" fill="white" />
    <rect width="8" height="116.02194083759605" x="281" y="141.98902958120198" rx="5" ry="5" fill="white" />
    <rect width="8" height="113.28616582893778" x="291" y="143.3569170855311" rx="5" ry="5" fill="white" />
    <rect width="8" height="114.57758739827206" x="301" y="142.71120630086398" rx="5" ry="5" fill="white" />
    <rect width="8" height="138.83299913645172" x="311" y="130.58350043177416" rx="5" ry="5" fill="white" />
    <rect width="8" height="104.05469012661031" x="321" y="147.97265493669485" rx="5" ry="5" fill="white" />
    <rect width="8" height="111.74951913912778" x="331" y="144.12524043043612" rx="5" ry="5" fill="white" />
    <rect width="8" height="101.82819087496691" x="341" y="149.08590456251653" rx="5" ry="5" fill="white" />
    <rect width="8" height="118.47580642145361" x="351" y="140.7620967892732" rx="5" ry="5" fill="white" />
    <rect width="8" height="125.90212800186389" x="361" y="137.04893599906805" rx="5" ry="5" fill="white" />
    <rect width="8" height="130.0812658821642" x="371" y="134.9593670589179" rx="5" ry="5" fill="white" />
    <rect width="8" height="125.83438588040892" x="381" y="137.08280705979553" rx="5" ry="5" fill="white" />
    <rect width="8" height="116.03472070296752" x="391" y="141.98263964851623" rx="5" ry="5" fill="white" />
    <rect width="8" height="117.8604540035605" x="401" y="141.06977299821975" rx="5" ry="5" fill="white" />
    <rect width="8" height="110.07439573697293" x="411" y="144.96280213151354" rx="5" ry="5" fill="white" />
    <rect width="8" height="134.47752319295662" x="421" y="132.7612384035217" rx="5" ry="5" fill="white" />
    <rect width="8" height="112.06698500684857" x="431" y="143.96650749657573" rx="5" ry="5" fill="white" />
    <rect width="8" height="105.36884937383131" x="441" y="147.31557531308434" rx="5" ry="5" fill="white" />
    <rect width="8" height="94.2025120050427" x="451" y="152.89874399747865" rx="5" ry="5" fill="white" />
    <rect width="8" height="93.62697063498985" x="461" y="153.18651468250508" rx="5" ry="5" fill="white" />
    <rect width="8" height="96.99073510976143" x="471" y="151.50463244511928" rx="5" ry="5" fill="white" />
    <rect width="8" height="90.46967110735973" x="481" y="154.76516444632014" rx="5" ry="5" fill="white" />
    <rect width="8" height="65.85799806115877" x="491" y="167.07100096942062" rx="5" ry="5" fill="white" />
    <rect width="8" height="73.75238481292521" x="501" y="163.12380759353738" rx="5" ry="5" fill="white" />
    <rect width="8" height="69.16534677435739" x="511" y="165.4173266128213" rx="5" ry="5" fill="white" />
    <rect width="8" height="65.85541234305389" x="521" y="167.07229382847305" rx="5" ry="5" fill="white" />
    <rect width="8" height="62.896243219103965" x="531" y="168.55187839044802" rx="5" ry="5" fill="white" />
    <rect width="8" height="46.65097133333857" x="541" y="176.6745143333307" rx="5" ry="5" fill="white" />
    <rect width="8" height="67.94730879172872" x="551" y="166.02634560413566" rx="5" ry="5" fill="white" />
    <rect width="8" height="79.1106157014978" x="561" y="160.4446921492511" rx="5" ry="5" fill="white" />
    <rect width="8" height="90.01714436466442" x="571" y="154.99142781766778" rx="5" ry="5" fill="white" />
    <rect width="8" height="89.0548845621465" x="581" y="155.47255771892674" rx="5" ry="5" fill="white" />
    <rect width="8" height="82.06893260170683" x="591" y="158.9655336991466" rx="5" ry="5" fill="white" />
    <rect width="8" height="88.77026540941853" x="601" y="155.61486729529074" rx="5" ry="5" fill="white" />
    <rect width="8" height="65.84791597793343" x="611" y="167.07604201103328" rx="5" ry="5" fill="white" />
    <rect width="8" height="96.77013776728074" x="621" y="151.61493111635963" rx="5" ry="5" fill="white" />
    <rect width="8" height="85.907977083742" x="631" y="157.046011458129" rx="5" ry="5" fill="white" />
    <rect width="8" height="95.32548562259362" x="641" y="152.33725718870318" rx="5" ry="5" fill="white" />
    <rect width="8" height="97.42589348466339" x="651" y="151.2870532576683" rx="5" ry="5" fill="white" />
    <rect width="8" height="83.57017390417293" x="661" y="158.21491304791354" rx="5" ry="5" fill="white" />
    <rect width="8" height="105.01269713599804" x="671" y="147.49365143200097" rx="5" ry="5" fill="white" />
    <rect width="8" height="99.24898058360367" x="681" y="150.37550970819817" rx="5" ry="5" fill="white" />
    <rect width="8" height="106.22719949379278" x="691" y="146.8864002531036" rx="5" ry="5" fill="white" />
    <rect width="8" height="98.26084526933334" x="701" y="150.86957736533333" rx="5" ry="5" fill="white" />
    <rect width="8" height="96.78703559527659" x="711" y="151.6064822023617" rx="5" ry="5" fill="white" />
    <rect width="8" height="99.51179788048697" x="721" y="150.24410105975653" rx="5" ry="5" fill="white" />
    <rect width="8" height="93.1150369189033" x="731" y="153.44248154054836" rx="5" ry="5" fill="white" />
    <rect width="8" height="97.429163974811" x="741" y="151.2854180125945" rx="5" ry="5" fill="white" />
    <rect width="8" height="86.38426259855953" x="751" y="156.80786870072023" rx="5" ry="5" fill="white" />
    <rect width="8" height="103.56861348434695" x="761" y="148.21569325782653" rx="5" ry="5" fill="white" />
    <rect width="8" height="88.40443295563492" x="771" y="155.79778352218256" rx="5" ry="5" fill="white" />
    <rect width="8" height="146.5606636398333" x="781" y="126.71966818008335" rx="5" ry="5" fill="white" />
    <rect width="8" height="131.509815707648" x="791" y="134.245092146176" rx="5" ry="5" fill="white" />
    <rect width="8" height="125.90831944923058" x="801" y="137.0458402753847" rx="5" ry="5" fill="white" />
    <rect width="8" height="123.23810470830001" x="811" y="138.38094764585" rx="5" ry="5" fill="white" />
    <rect width="8" height="128.42709292871226" x="821" y="135.7864535356439" rx="5" ry="5" fill="white" />
    <rect width="8" height="127.52057833001437" x="831" y="136.23971083499282" rx="5" ry="5" fill="white" />
    <rect width="8" height="121.61177620760961" x="841" y="139.19411189619518" rx="5" ry="5" fill="white" />
    <rect width="8" height="121.75928658132679" x="851" y="139.1203567093366" rx="5" ry="5" fill="white" />
    <rect width="8" height="128.03409177412172" x="861" y="135.98295411293913" rx="5" ry="5" fill="white" />
    <rect width="8" height="128.95995848066366" x="871" y="135.52002075966817" rx="5" ry="5" fill="white" />
    <rect width="8" height="119.57767654260161" x="881" y="140.2111617286992" rx="5" ry="5" fill="white" />
    <rect width="8" height="126.29239950273872" x="891" y="136.85380024863065" rx="5" ry="5" fill="white" />
    <rect width="8" height="128.71862274641273" x="901" y="135.64068862679363" rx="5" ry="5" fill="white" />
    <rect width="8" height="127.09443389159524" x="911" y="136.45278305420237" rx="5" ry="5" fill="white" />
    <rect width="8" height="129.2875588450004" x="921" y="135.3562205774998" rx="5" ry="5" fill="white" />
    <rect width="8" height="118.63236295624662" x="931" y="140.68381852187667" rx="5" ry="5" fill="white" />
    <rect width="8" height="126.73938874763542" x="941" y="136.6303056261823" rx="5" ry="5" fill="white" />
    <rect width="8" height="125.8604581312083" x="951" y="137.06977093439585" rx="5" ry="5" fill="white" />
    <rect width="8" height="130.21365914203292" x="961" y="134.89317042898352" rx="5" ry="5" fill="white" />
    <rect width="8" height="120.54029915084017" x="971" y="139.72985042457992" rx="5" ry="5" fill="white" />
    <rect width="8" height="124.28005609918395" x="981" y="137.859971950408" rx="5" ry="5" fill="white" />
    <rect width="8" height="123.15343306457149" x="991" y="138.42328346771427" rx="5" ry="5" fill="white" />
    <rect width="8" height="112.9612715671847" x="1001" y="143.51936421640767" rx="5" ry="5" fill="white" />
    <rect width="8" height="92.32661381867729" x="1011" y="153.83669309066136" rx="5" ry="5" fill="white" />
    <rect width="8" height="74.46117079470434" x="1021" y="162.76941460264783" rx="5" ry="5" fill="white" />
    <rect width="8" height="75.4147115522239" x="1031" y="162.29264422388803" rx="5" ry="5" fill="white" />
    <rect width="8" height="76.98100009724264" x="1041" y="161.50949995137867" rx="5" ry="5" fill="white" />
    <rect width="8" height="100.99305036738618" x="1051" y="149.50347481630692" rx="5" ry="5" fill="white" />
    <rect width="8" height="100.2514460485086" x="1061" y="149.87427697574572" rx="5" ry="5" fill="white" />
    <rect width="8" height="100.06222292555134" x="1071" y="149.96888853722433" rx="5" ry="5" fill="white" />
    <rect width="8" height="89.30908401376941" x="1081" y="155.3454579931153" rx="5" ry="5" fill="white" />
    <rect width="8" height="86.85725757693903" x="1091" y="156.57137121153048" rx="5" ry="5" fill="white" />
    <rect width="8" height="86.39926914439138" x="1101" y="156.8003654278043" rx="5" ry="5" fill="white" />
    <rect width="8" height="76.64435451494978" x="1111" y="161.6778227425251" rx="5" ry="5" fill="white" />
    <rect width="8" height="84.62540372116626" x="1121" y="157.68729813941687" rx="5" ry="5" fill="white" />
    <rect width="8" height="69.91682966326741" x="1131" y="165.04158516836628" rx="5" ry="5" fill="white" />
    <rect width="8" height="53.41900202885841" x="1141" y="173.2904989855708" rx="5" ry="5" fill="white" />
    <rect width="8" height="56.20928253170875" x="1151" y="171.89535873414562" rx="5" ry="5" fill="white" />
    <rect width="8" height="57.2657308802657" x="1161" y="171.36713455986714" rx="5" ry="5" fill="white" />
    <rect width="8" height="38.00313786600451" x="1171" y="180.99843106699774" rx="5" ry="5" fill="white" />
    <rect width="8" height="28.247213791813447" x="1181" y="185.87639310409327" rx="5" ry="5" fill="white" />
    <rect width="8" height="66.73991132464955" x="1191" y="166.63004433767523" rx="5" ry="5" fill="white" />
    <rect width="8" height="18.360453761063255" x="1201" y="190.81977311946838" rx="5" ry="5" fill="white" />
    <rect width="8" height="21.088802844170086" x="1211" y="189.45559857791497" rx="5" ry="5" fill="white" />
    <rect width="8" height="13.69562561682613" x="1221" y="193.15218719158693" rx="5" ry="5" fill="white" />
    <rect width="8" height="26.90518391422167" x="1231" y="186.54740804288917" rx="5" ry="5" fill="white" />
    <rect width="8" height="11.759858004364613" x="1241" y="194.1200709978177" rx="5" ry="5" fill="white" />
    <rect width="8" height="23.18626583480005" x="1251" y="188.40686708259997" rx="5" ry="5" fill="white" />
    <rect width="8" height="12.291717578732971" x="1261" y="193.85414121063351" rx="5" ry="5" fill="white" />
    <rect width="8" height="23.513239379110164" x="1271" y="188.2433803104449" rx="5" ry="5" fill="white" />
  </g>
</svg>