<svg 
  baseProfile="tiny"
  preserveAspectRatio="keep"
  version="1.2"
  viewBox="0 0 1280.000000 400.000000"
  height="100%" width="100%"
  xmlns="http://www.w3.org/2000/svg"
  xmlns:ev="http://www.w3.org/2001/xml-events"
  xmlns:xlink="http://www.w3.org/1999/xlink"
>
  <g>
    <rect width="8" height="30.602542117743713" x="1" y="184.69872894112814" rx="5" ry="5" fill="white" />
    <rect width="8" height="32.96387364710063" x="11" y="183.5180631764497" rx="5" ry="5" fill="white" />
    <rect width="8" height="13.063388600664675" x="21" y="193.46830569966767" rx="5" ry="5" fill="white" />
    <rect width="8" height="10.073435969692818" x="31" y="194.9632820151536" rx="5" ry="5" fill="white" />
    <rect width="8" height="30.000586379211846" x="41" y="184.9997068103941" rx="5" ry="5" fill="white" />
    <rect width="8" height="24.176887900723695" x="51" y="187.91155604963816" rx="5" ry="5" fill="white" />
    <rect width="8" height="50.99472100594621" x="61" y="174.5026394970269" rx="5" ry="5" fill="white" />
    <rect width="8" height="33.868326141703385" x="71" y="183.0658369291483" rx="5" ry="5" fill="white" />
    <rect width="8" height="67.1711091802599" x="81" y="166.41444540987004" rx="5" ry="5" fill="white" />
    <rect width="8" height="34.73417296653449" x="91" y="182.63291351673274" rx="5" ry="5" fill="white" />
    <rect width="8" height="28.09615751626639" x="101" y="185.9519212418668" rx="5" ry="5" fill="white" />
    <rect width="8" height="95.41042729152174" x="111" y="152.29478635423914" rx="5" ry="5" fill="white" />
    <rect width="8" height="87.61089085027993" x="121" y="156.19455457486004" rx="5" ry="5" fill="white" />
    <rect width="8" height="126.55690870695521" x="131" y="136.7215456465224" rx="5" ry="5" fill="white" />
    <rect width="8" height="113.1836802206617" x="141" y="143.40815988966915" rx="5" ry="5" fill="white" />
    <rect width="8" height="117.85609717204224" x="151" y="141.07195141397887" rx="5" ry="5" fill="white" />
    <rect width="8" height="108.30974488887128" x="161" y="145.84512755556437" rx="5" ry="5" fill="white" />
    <rect width="8" height="110.60633705777352" x="171" y="144.69683147111323" rx="5" ry="5" fill="white" />
    <rect width="8" height="110.06509047874522" x="181" y="144.9674547606274" rx="5" ry="5" fill="white" />
    <rect width="8" height="104.93075020716293" x="191" y="147.53462489641853" rx="5" ry="5" fill="white" />
    <rect width="8" height="130.14410816729276" x="201" y="134.92794591635362" rx="5" ry="5" fill="white" />
    <rect width="8" height="85.31886511459878" x="211" y="157.3405674427006" rx="5" ry="5" fill="white" />
    <rect width="8" height="73.72268147339418" x="221" y="163.1386592633029" rx="5" ry="5" fill="white" />
    <rect width="8" height="72.07494607205093" x="231" y="163.96252696397454" rx="5" ry="5" fill="white" />
    <rect width="8" height="131.9166723092312" x="241" y="134.0416638453844" rx="5" ry="5" fill="white" />
    <rect width="8" height="83.99079233109434" x="251" y="158.00460383445284" rx="5" ry="5" fill="white" />
    <rect width="8" height="100.44577392820509" x="261" y="149.77711303589746" rx="5" ry="5" fill="white" />
    <rect width="8" height="84.88187837827104" x="271" y="157.55906081086448" rx="5" ry="5" fill="white" />
    <rect width="8" height="92.45884203705" x="281" y="153.770578981475" rx="5" ry="5" fill="white" />
    <rect width="8" height="77.0232807520028" x="291" y="161.4883596239986" rx="5" ry="5" fill="white" />
    <rect width="8" height="93.67617837858249" x="301" y="153.16191081070875" rx="5" ry="5" fill="white" />
    <rect width="8" height="87.37613002959276" x="311" y="156.3119349852036" rx="5" ry="5" fill="white" />
    <rect width="8" height="61.584850088868194" x="321" y="169.20757495556592" rx="5" ry="5" fill="white" />
    <rect width="8" height="61.2655381320418" x="331" y="169.3672309339791" rx="5" ry="5" fill="white" />
    <rect width="8" height="91.25961595807833" x="341" y="154.37019202096084" rx="5" ry="5" fill="white" />
    <rect width="8" height="105.95787360159552" x="351" y="147.02106319920225" rx="5" ry="5" fill="white" />
    <rect width="8" height="86.42494586831052" x="361" y="156.78752706584476" rx="5" ry="5" fill="white" />
    <rect width="8" height="69.82090673987787" x="371" y="165.08954663006108" rx="5" ry="5" fill="white" />
    <rect width="8" height="70.93774517532485" x="381" y="164.53112741233758" rx="5" ry="5" fill="white" />
    <rect width="8" height="131.28443227158127" x="391" y="134.35778386420935" rx="5" ry="5" fill="white" />
    <rect width="8" height="87.66750073256938" x="401" y="156.16624963371532" rx="5" ry="5" fill="white" />
    <rect width="8" height="107.55159387285667" x="411" y="146.22420306357168" rx="5" ry="5" fill="white" />
    <rect width="8" height="72.86975744830303" x="421" y="163.56512127584847" rx="5" ry="5" fill="white" />
    <rect width="8" height="125.69594014013441" x="431" y="137.15202992993278" rx="5" ry="5" fill="white" />
    <rect width="8" height="107.01332917181455" x="441" y="146.4933354140927" rx="5" ry="5" fill="white" />
    <rect width="8" height="111.82227735200168" x="451" y="144.08886132399917" rx="5" ry="5" fill="white" />
    <rect width="8" height="107.06820791989853" x="461" y="146.46589604005072" rx="5" ry="5" fill="white" />
    <rect width="8" height="110.90205752533542" x="471" y="144.5489712373323" rx="5" ry="5" fill="white" />
    <rect width="8" height="114.32439456121317" x="481" y="142.8378027193934" rx="5" ry="5" fill="white" />
    <rect width="8" height="117.54469023632946" x="491" y="141.22765488183526" rx="5" ry="5" fill="white" />
    <rect width="8" height="131.41263509447336" x="501" y="134.29368245276333" rx="5" ry="5" fill="white" />
    <rect width="8" height="88.5185142290307" x="511" y="155.74074288548465" rx="5" ry="5" fill="white" />
    <rect width="8" height="72.60489526135665" x="521" y="163.69755236932167" rx="5" ry="5" fill="white" />
    <rect width="8" height="75.11047569687963" x="531" y="162.44476215156018" rx="5" ry="5" fill="white" />
    <rect width="8" height="131.28882568880354" x="541" y="134.35558715559824" rx="5" ry="5" fill="white" />
    <rect width="8" height="88.96627906658539" x="551" y="155.5168604667073" rx="5" ry="5" fill="white" />
    <rect width="8" height="105.32834163132321" x="561" y="147.3358291843384" rx="5" ry="5" fill="white" />
    <rect width="8" height="80.09834233489784" x="571" y="159.95082883255108" rx="5" ry="5" fill="white" />
    <rect width="8" height="128.00799188851806" x="581" y="135.99600405574097" rx="5" ry="5" fill="white" />
    <rect width="8" height="111.37729333548154" x="591" y="144.31135333225922" rx="5" ry="5" fill="white" />
    <rect width="8" height="119.40780057028353" x="601" y="140.29609971485823" rx="5" ry="5" fill="white" />
    <rect width="8" height="126.39194951518968" x="611" y="136.80402524240515" rx="5" ry="5" fill="white" />
    <rect width="8" height="127.7904265448784" x="621" y="136.1047867275608" rx="5" ry="5" fill="white" />
    <rect width="8" height="128.33581513150443" x="631" y="135.83209243424778" rx="5" ry="5" fill="white" />
    <rect width="8" height="112.36993816081784" x="641" y="143.8150309195911" rx="5" ry="5" fill="white" />
    <rect width="8" height="134.51334896516144" x="651" y="132.7433255174193" rx="5" ry="5" fill="white" />
    <rect width="8" height="106.14932686330422" x="661" y="146.9253365683479" rx="5" ry="5" fill="white" />
    <rect width="8" height="86.40412642816847" x="671" y="156.79793678591577" rx="5" ry="5" fill="white" />
    <rect width="8" height="97.0180138069645" x="681" y="151.49099309651774" rx="5" ry="5" fill="white" />
    <rect width="8" height="136.3468801223292" x="691" y="131.8265599388354" rx="5" ry="5" fill="white" />
    <rect width="8" height="101.65644214793059" x="701" y="149.1717789260347" rx="5" ry="5" fill="white" />
    <rect width="8" height="122.62424311007136" x="711" y="138.68787844496433" rx="5" ry="5" fill="white" />
    <rect width="8" height="92.08328172294014" x="721" y="153.95835913852994" rx="5" ry="5" fill="white" />
    <rect width="8" height="131.5727238433319" x="731" y="134.21363807833404" rx="5" ry="5" fill="white" />
    <rect width="8" height="114.46581292410292" x="741" y="142.76709353794854" rx="5" ry="5" fill="white" />
    <rect width="8" height="122.95198717437503" x="751" y="138.52400641281247" rx="5" ry="5" fill="white" />
    <rect width="8" height="114.37716993591584" x="761" y="142.81141503204208" rx="5" ry="5" fill="white" />
    <rect width="8" height="122.51698227732011" x="771" y="138.74150886133995" rx="5" ry="5" fill="white" />
    <rect width="8" height="122.19777700435748" x="781" y="138.90111149782126" rx="5" ry="5" fill="white" />
    <rect width="8" height="115.70860411747317" x="791" y="142.14569794126342" rx="5" ry="5" fill="white" />
    <rect width="8" height="130.8126456185137" x="801" y="134.59367719074316" rx="5" ry="5" fill="white" />
    <rect width="8" height="108.47872741712179" x="811" y="145.7606362914391" rx="5" ry="5" fill="white" />
    <rect width="8" height="87.19851912398586" x="821" y="156.40074043800706" rx="5" ry="5" fill="white" />
    <rect width="8" height="97.05005648356732" x="831" y="151.47497175821633" rx="5" ry="5" fill="white" />
    <rect width="8" height="133.191330963674" x="841" y="133.404334518163" rx="5" ry="5" fill="white" />
    <rect width="8" height="115.39270662659042" x="851" y="142.30364668670478" rx="5" ry="5" fill="white" />
    <rect width="8" height="111.3378630991848" x="861" y="144.3310684504076" rx="5" ry="5" fill="white" />
    <rect width="8" height="101.75293704923054" x="871" y="149.12353147538474" rx="5" ry="5" fill="white" />
    <rect width="8" height="132.58089963726886" x="881" y="133.70955018136556" rx="5" ry="5" fill="white" />
    <rect width="8" height="115.42669522152762" x="891" y="142.2866523892362" rx="5" ry="5" fill="white" />
    <rect width="8" height="116.72533552508636" x="901" y="141.6373322374568" rx="5" ry="5" fill="white" />
    <rect width="8" height="111.80559993794697" x="911" y="144.09720003102652" rx="5" ry="5" fill="white" />
    <rect width="8" height="117.63098635931262" x="921" y="141.1845068203437" rx="5" ry="5" fill="white" />
    <rect width="8" height="113.99584735842913" x="931" y="143.00207632078542" rx="5" ry="5" fill="white" />
    <rect width="8" height="116.55820641831622" x="941" y="141.7208967908419" rx="5" ry="5" fill="white" />
    <rect width="8" height="129.42946048612342" x="951" y="135.2852697569383" rx="5" ry="5" fill="white" />
    <rect width="8" height="107.3304560299677" x="961" y="146.33477198501615" rx="5" ry="5" fill="white" />
    <rect width="8" height="85.75567451281104" x="971" y="157.1221627435945" rx="5" ry="5" fill="white" />
    <rect width="8" height="87.63684479593473" x="981" y="156.18157760203263" rx="5" ry="5" fill="white" />
    <rect width="8" height="128.1435559791536" x="991" y="135.9282220104232" rx="5" ry="5" fill="white" />
    <rect width="8" height="103.18035595162183" x="1001" y="148.40982202418908" rx="5" ry="5" fill="white" />
    <rect width="8" height="110.15196131443159" x="1011" y="144.92401934278422" rx="5" ry="5" fill="white" />
    <rect width="8" height="90.98082520754403" x="1021" y="154.50958739622797" rx="5" ry="5" fill="white" />
    <rect width="8" height="129.6436364287668" x="1031" y="135.1781817856166" rx="5" ry="5" fill="white" />
    <rect width="8" height="113.57340843664765" x="1041" y="143.21329578167618" rx="5" ry="5" fill="white" />
    <rect width="8" height="116.65203880877269" x="1051" y="141.67398059561367" rx="5" ry="5" fill="white" />
    <rect width="8" height="108.85198164790053" x="1061" y="145.57400917604974" rx="5" ry="5" fill="white" />
    <rect width="8" height="116.55479051893245" x="1071" y="141.72260474053377" rx="5" ry="5" fill="white" />
    <rect width="8" height="114.79471139151667" x="1081" y="142.60264430424166" rx="5" ry="5" fill="white" />
    <rect width="8" height="108.22833547864713" x="1091" y="145.88583226067644" rx="5" ry="5" fill="white" />
    <rect width="8" height="136.31731444384974" x="1101" y="131.84134277807513" rx="5" ry="5" fill="white" />
    <rect width="8" height="95.55077902210613" x="1111" y="152.22461048894695" rx="5" ry="5" fill="white" />
    <rect width="8" height="93.91487643854319" x="1121" y="153.04256178072842" rx="5" ry="5" fill="white" />
    <rect width="8" height="85.56579983677902" x="1131" y="157.21710008161048" rx="5" ry="5" fill="white" />
    <rect width="8" height="124.76904079626267" x="1141" y="137.61547960186866" rx="5" ry="5" fill="white" />
    <rect width="8" height="72.42354323468787" x="1151" y="163.78822838265606" rx="5" ry="5" fill="white" />
    <rect width="8" height="103.1681083714308" x="1161" y="148.4159458142846" rx="5" ry="5" fill="white" />
    <rect width="8" height="113.89641374145543" x="1171" y="143.05179312927228" rx="5" ry="5" fill="white" />
    <rect width="8" height="91.95916841027483" x="1181" y="154.02041579486257" rx="5" ry="5" fill="white" />
    <rect width="8" height="73.5505577287067" x="1191" y="163.22472113564663" rx="5" ry="5" fill="white" />
    <rect width="8" height="85.45272119233498" x="1201" y="157.2736394038325" rx="5" ry="5" fill="white" />
    <rect width="8" height="91.03711846200703" x="1211" y="154.4814407689965" rx="5" ry="5" fill="white" />
    <rect width="8" height="58.45797292106244" x="1221" y="170.77101353946878" rx="5" ry="5" fill="white" />
    <rect width="8" height="105.66791350081843" x="1231" y="147.16604324959079" rx="5" ry="5" fill="white" />
    <rect width="8" height="100.46623037780805" x="1241" y="149.76688481109596" rx="5" ry="5" fill="white" />
    <rect width="8" height="52.837432900873736" x="1251" y="173.58128354956312" rx="5" ry="5" fill="white" />
    <rect width="8" height="17.785548039977936" x="1261" y="191.10722598001104" rx="5" ry="5" fill="white" />
    <rect width="8" height="8" x="1271" y="196" rx="5" ry="5" fill="white" />
  </g>
</svg>