<svg 
  baseProfile="tiny"
  preserveAspectRatio="keep"
  version="1.2"
  viewBox="0 0 1280.000000 400.000000"
  height="100%" width="100%"
  xmlns="http://www.w3.org/2000/svg"
  xmlns:ev="http://www.w3.org/2001/xml-events"
  xmlns:xlink="http://www.w3.org/1999/xlink"
>
  <g>
    <rect width="8" height="17.70891418587531" x="1" y="191.14554290706235" rx="5" ry="5" fill="white" />
    <rect width="8" height="12.960695725973647" x="11" y="193.51965213701317" rx="5" ry="5" fill="white" />
    <rect width="8" height="35.63545162313567" x="21" y="182.18227418843216" rx="5" ry="5" fill="white" />
    <rect width="8" height="29.20540922819087" x="31" y="185.39729538590456" rx="5" ry="5" fill="white" />
    <rect width="8" height="32.99375414964301" x="41" y="183.5031229251785" rx="5" ry="5" fill="white" />
    <rect width="8" height="22.443171133293657" x="51" y="188.77841443335316" rx="5" ry="5" fill="white" />
    <rect width="8" height="47.327722460887856" x="61" y="176.33613876955607" rx="5" ry="5" fill="white" />
    <rect width="8" height="40.39034513457324" x="71" y="179.80482743271338" rx="5" ry="5" fill="white" />
    <rect width="8" height="36.09477132421764" x="81" y="181.9526143378912" rx="5" ry="5" fill="white" />
    <rect width="8" height="53.005871063740585" x="91" y="173.4970644681297" rx="5" ry="5" fill="white" />
    <rect width="8" height="34.026124542963245" x="101" y="182.98693772851837" rx="5" ry="5" fill="white" />
    <rect width="8" height="39.27969807503287" x="111" y="180.36015096248357" rx="5" ry="5" fill="white" />
    <rect width="8" height="37.669864376367634" x="121" y="181.1650678118162" rx="5" ry="5" fill="white" />
    <rect width="8" height="27.444276569534093" x="131" y="186.27786171523294" rx="5" ry="5" fill="white" />
    <rect width="8" height="51.11971353815948" x="141" y="174.44014323092026" rx="5" ry="5" fill="white" />
    <rect width="8" height="38.55639405763641" x="151" y="180.7218029711818" rx="5" ry="5" fill="white" />
    <rect width="8" height="50.5250053163539" x="161" y="174.73749734182306" rx="5" ry="5" fill="white" />
    <rect width="8" height="40.954129168422824" x="171" y="179.5229354157886" rx="5" ry="5" fill="white" />
    <rect width="8" height="50.517798864643225" x="181" y="174.7411005676784" rx="5" ry="5" fill="white" />
    <rect width="8" height="33.28080723541922" x="191" y="183.3595963822904" rx="5" ry="5" fill="white" />
    <rect width="8" height="28.734785693817916" x="201" y="185.63260715309104" rx="5" ry="5" fill="white" />
    <rect width="8" height="25.04405881500228" x="211" y="187.47797059249885" rx="5" ry="5" fill="white" />
    <rect width="8" height="53.57138362000139" x="221" y="173.21430818999931" rx="5" ry="5" fill="white" />
    <rect width="8" height="35.84343423779553" x="231" y="182.07828288110224" rx="5" ry="5" fill="white" />
    <rect width="8" height="41.036311129570464" x="241" y="179.48184443521478" rx="5" ry="5" fill="white" />
    <rect width="8" height="34.5583413202592" x="251" y="182.7208293398704" rx="5" ry="5" fill="white" />
    <rect width="8" height="46.31358534322531" x="261" y="176.84320732838734" rx="5" ry="5" fill="white" />
    <rect width="8" height="35.99870035711369" x="271" y="182.00064982144315" rx="5" ry="5" fill="white" />
    <rect width="8" height="52.83025330341161" x="281" y="173.5848733482942" rx="5" ry="5" fill="white" />
    <rect width="8" height="34.627236946450815" x="291" y="182.6863815267746" rx="5" ry="5" fill="white" />
    <rect width="8" height="31.74768877844415" x="301" y="184.12615561077791" rx="5" ry="5" fill="white" />
    <rect width="8" height="47.46163778598813" x="311" y="176.26918110700592" rx="5" ry="5" fill="white" />
    <rect width="8" height="40.080327590567556" x="321" y="179.95983620471623" rx="5" ry="5" fill="white" />
    <rect width="8" height="41.214740284475916" x="331" y="179.39262985776205" rx="5" ry="5" fill="white" />
    <rect width="8" height="32.34383090826575" x="341" y="183.8280845458671" rx="5" ry="5" fill="white" />
    <rect width="8" height="52.383202980457845" x="351" y="173.80839850977108" rx="5" ry="5" fill="white" />
    <rect width="8" height="59.5415202127472" x="361" y="170.2292398936264" rx="5" ry="5" fill="white" />
    <rect width="8" height="71.38833772922344" x="371" y="164.30583113538827" rx="5" ry="5" fill="white" />
    <rect width="8" height="57.78893221429221" x="381" y="171.10553389285388" rx="5" ry="5" fill="white" />
    <rect width="8" height="59.85531521950418" x="391" y="170.0723423902479" rx="5" ry="5" fill="white" />
    <rect width="8" height="56.98066782832473" x="401" y="171.50966608583764" rx="5" ry="5" fill="white" />
    <rect width="8" height="53.500966439401545" x="411" y="173.24951678029922" rx="5" ry="5" fill="white" />
    <rect width="8" height="48.62671719290566" x="421" y="175.68664140354718" rx="5" ry="5" fill="white" />
    <rect width="8" height="44.13962699464709" x="431" y="177.93018650267646" rx="5" ry="5" fill="white" />
    <rect width="8" height="67.32021120103536" x="441" y="166.33989439948232" rx="5" ry="5" fill="white" />
    <rect width="8" height="57.90931972832626" x="451" y="171.04534013583688" rx="5" ry="5" fill="white" />
    <rect width="8" height="54.799878854345444" x="461" y="172.6000605728273" rx="5" ry="5" fill="white" />
    <rect width="8" height="64.46318290401312" x="471" y="167.76840854799343" rx="5" ry="5" fill="white" />
    <rect width="8" height="46.23594292463928" x="481" y="176.88202853768036" rx="5" ry="5" fill="white" />
    <rect width="8" height="46.94247373843134" x="491" y="176.52876313078434" rx="5" ry="5" fill="white" />
    <rect width="8" height="48.86952610155538" x="501" y="175.5652369492223" rx="5" ry="5" fill="white" />
    <rect width="8" height="41.046397433564145" x="511" y="179.47680128321792" rx="5" ry="5" fill="white" />
    <rect width="8" height="59.551996430218125" x="521" y="170.22400178489093" rx="5" ry="5" fill="white" />
    <rect width="8" height="81.49951777037137" x="531" y="159.25024111481432" rx="5" ry="5" fill="white" />
    <rect width="8" height="46.39537450203274" x="541" y="176.80231274898364" rx="5" ry="5" fill="white" />
    <rect width="8" height="65.35810964308408" x="551" y="167.32094517845798" rx="5" ry="5" fill="white" />
    <rect width="8" height="47.269395468252604" x="561" y="176.3653022658737" rx="5" ry="5" fill="white" />
    <rect width="8" height="45.235914297055956" x="571" y="177.38204285147202" rx="5" ry="5" fill="white" />
    <rect width="8" height="46.52585942321292" x="581" y="176.73707028839354" rx="5" ry="5" fill="white" />
    <rect width="8" height="74.92781577344746" x="591" y="162.53609211327625" rx="5" ry="5" fill="white" />
    <rect width="8" height="52.637975118727965" x="601" y="173.681012440636" rx="5" ry="5" fill="white" />
    <rect width="8" height="70.52534953871152" x="611" y="164.73732523064425" rx="5" ry="5" fill="white" />
    <rect width="8" height="53.38110135196572" x="621" y="173.30944932401715" rx="5" ry="5" fill="white" />
    <rect width="8" height="64.12535139022957" x="631" y="167.9373243048852" rx="5" ry="5" fill="white" />
    <rect width="8" height="56.076887240970066" x="641" y="171.96155637951497" rx="5" ry="5" fill="white" />
    <rect width="8" height="59.622283568775835" x="651" y="170.18885821561207" rx="5" ry="5" fill="white" />
    <rect width="8" height="60.704972657972455" x="661" y="169.64751367101377" rx="5" ry="5" fill="white" />
    <rect width="8" height="67.95881249609235" x="671" y="166.0205937519538" rx="5" ry="5" fill="white" />
    <rect width="8" height="52.310264481751176" x="681" y="173.8448677591244" rx="5" ry="5" fill="white" />
    <rect width="8" height="64.74936416059687" x="691" y="167.62531791970156" rx="5" ry="5" fill="white" />
    <rect width="8" height="67.07022205641803" x="701" y="166.46488897179097" rx="5" ry="5" fill="white" />
    <rect width="8" height="62.324504402540406" x="711" y="168.8377477987298" rx="5" ry="5" fill="white" />
    <rect width="8" height="58.06632832868718" x="721" y="170.9668358356564" rx="5" ry="5" fill="white" />
    <rect width="8" height="54.831218078105806" x="731" y="172.5843909609471" rx="5" ry="5" fill="white" />
    <rect width="8" height="48.172304703135325" x="741" y="175.91384764843235" rx="5" ry="5" fill="white" />
    <rect width="8" height="60.44829064857944" x="751" y="169.7758546757103" rx="5" ry="5" fill="white" />
    <rect width="8" height="52.081480318413284" x="761" y="173.95925984079335" rx="5" ry="5" fill="white" />
    <rect width="8" height="63.0657172744764" x="771" y="168.4671413627618" rx="5" ry="5" fill="white" />
    <rect width="8" height="77.73516135835713" x="781" y="161.13241932082144" rx="5" ry="5" fill="white" />
    <rect width="8" height="58.74943104757774" x="791" y="170.62528447621114" rx="5" ry="5" fill="white" />
    <rect width="8" height="51.14629018330593" x="801" y="174.42685490834702" rx="5" ry="5" fill="white" />
    <rect width="8" height="49.03034801006406" x="811" y="175.48482599496796" rx="5" ry="5" fill="white" />
    <rect width="8" height="61.605619419491084" x="821" y="169.19719029025447" rx="5" ry="5" fill="white" />
    <rect width="8" height="59.25490153007548" x="831" y="170.37254923496226" rx="5" ry="5" fill="white" />
    <rect width="8" height="63.1626479961047" x="841" y="168.41867600194766" rx="5" ry="5" fill="white" />
    <rect width="8" height="66.13661865112537" x="851" y="166.9316906744373" rx="5" ry="5" fill="white" />
    <rect width="8" height="65.11167622688389" x="861" y="167.44416188655805" rx="5" ry="5" fill="white" />
    <rect width="8" height="49.99178231615344" x="871" y="175.00410884192328" rx="5" ry="5" fill="white" />
    <rect width="8" height="77.15519937596011" x="881" y="161.42240031201993" rx="5" ry="5" fill="white" />
    <rect width="8" height="69.2609265239201" x="891" y="165.36953673803995" rx="5" ry="5" fill="white" />
    <rect width="8" height="62.86263866224796" x="901" y="168.56868066887603" rx="5" ry="5" fill="white" />
    <rect width="8" height="73.63096744222139" x="911" y="163.1845162788893" rx="5" ry="5" fill="white" />
    <rect width="8" height="51.17491757618815" x="921" y="174.41254121190593" rx="5" ry="5" fill="white" />
    <rect width="8" height="50.3952012113954" x="931" y="174.8023993943023" rx="5" ry="5" fill="white" />
    <rect width="8" height="63.74715032028742" x="941" y="168.1264248398563" rx="5" ry="5" fill="white" />
    <rect width="8" height="54.59432987066498" x="951" y="172.7028350646675" rx="5" ry="5" fill="white" />
    <rect width="8" height="54.51425775883973" x="961" y="172.74287112058013" rx="5" ry="5" fill="white" />
    <rect width="8" height="62.09787512156836" x="971" y="168.95106243921583" rx="5" ry="5" fill="white" />
    <rect width="8" height="57.57022852123892" x="981" y="171.21488573938055" rx="5" ry="5" fill="white" />
    <rect width="8" height="65.59233683825879" x="991" y="167.2038315808706" rx="5" ry="5" fill="white" />
    <rect width="8" height="68.32622782734992" x="1001" y="165.83688608632502" rx="5" ry="5" fill="white" />
    <rect width="8" height="59.38925597546958" x="1011" y="170.3053720122652" rx="5" ry="5" fill="white" />
    <rect width="8" height="76.71372431848191" x="1021" y="161.64313784075904" rx="5" ry="5" fill="white" />
    <rect width="8" height="67.63860369878074" x="1031" y="166.18069815060963" rx="5" ry="5" fill="white" />
    <rect width="8" height="53.64759978204854" x="1041" y="173.17620010897573" rx="5" ry="5" fill="white" />
    <rect width="8" height="45.488780659226244" x="1051" y="177.2556096703869" rx="5" ry="5" fill="white" />
    <rect width="8" height="42.33009753184893" x="1061" y="178.83495123407553" rx="5" ry="5" fill="white" />
    <rect width="8" height="39.343343430566826" x="1071" y="180.32832828471658" rx="5" ry="5" fill="white" />
    <rect width="8" height="51.77512606425746" x="1081" y="174.11243696787128" rx="5" ry="5" fill="white" />
    <rect width="8" height="55.14096020404173" x="1091" y="172.42951989797913" rx="5" ry="5" fill="white" />
    <rect width="8" height="47.14331171080786" x="1101" y="176.42834414459608" rx="5" ry="5" fill="white" />
    <rect width="8" height="55.9404680793983" x="1111" y="172.02976596030084" rx="5" ry="5" fill="white" />
    <rect width="8" height="38.07192353895872" x="1121" y="180.96403823052063" rx="5" ry="5" fill="white" />
    <rect width="8" height="30.04680913522581" x="1131" y="184.9765954323871" rx="5" ry="5" fill="white" />
    <rect width="8" height="29.325532318326015" x="1141" y="185.337233840837" rx="5" ry="5" fill="white" />
    <rect width="8" height="31.12256363839501" x="1151" y="184.43871818080248" rx="5" ry="5" fill="white" />
    <rect width="8" height="27.972519715036782" x="1161" y="186.0137401424816" rx="5" ry="5" fill="white" />
    <rect width="8" height="28.080588832509207" x="1171" y="185.9597055837454" rx="5" ry="5" fill="white" />
    <rect width="8" height="33.92769656346884" x="1181" y="183.0361517182656" rx="5" ry="5" fill="white" />
    <rect width="8" height="28.777835281274555" x="1191" y="185.6110823593627" rx="5" ry="5" fill="white" />
    <rect width="8" height="26.65869743274983" x="1201" y="186.6706512836251" rx="5" ry="5" fill="white" />
    <rect width="8" height="28.083363787995307" x="1211" y="185.95831810600234" rx="5" ry="5" fill="white" />
    <rect width="8" height="26.298997952106042" x="1221" y="186.85050102394698" rx="5" ry="5" fill="white" />
    <rect width="8" height="27.257924076572067" x="1231" y="186.37103796171397" rx="5" ry="5" fill="white" />
    <rect width="8" height="14.004414656627514" x="1241" y="192.99779267168626" rx="5" ry="5" fill="white" />
    <rect width="8" height="8" x="1251" y="196" rx="5" ry="5" fill="white" />
    <rect width="8" height="8" x="1261" y="196" rx="5" ry="5" fill="white" />
    <rect width="8" height="8" x="1271" y="196" rx="5" ry="5" fill="white" />
  </g>
</svg>