<svg 
  baseProfile="tiny"
  preserveAspectRatio="keep"
  version="1.2"
  viewBox="0 0 1280.000000 400.000000"
  height="100%" width="100%"
  xmlns="http://www.w3.org/2000/svg"
  xmlns:ev="http://www.w3.org/2001/xml-events"
  xmlns:xlink="http://www.w3.org/1999/xlink"
>
  <g>
    <rect width="8" height="11.633305590952428" x="1" y="194.18334720452378" rx="5" ry="5" fill="white" />
    <rect width="8" height="15.563320214744916" x="11" y="192.21833989262754" rx="5" ry="5" fill="white" />
    <rect width="8" height="17.240165698694838" x="21" y="191.37991715065257" rx="5" ry="5" fill="white" />
    <rect width="8" height="12.650549480450302" x="31" y="193.67472525977485" rx="5" ry="5" fill="white" />
    <rect width="8" height="35.46232914214966" x="41" y="182.26883542892517" rx="5" ry="5" fill="white" />
    <rect width="8" height="23.819124634778095" x="51" y="188.09043768261094" rx="5" ry="5" fill="white" />
    <rect width="8" height="30.076104510574016" x="61" y="184.961947744713" rx="5" ry="5" fill="white" />
    <rect width="8" height="39.631686668225555" x="71" y="180.18415666588723" rx="5" ry="5" fill="white" />
    <rect width="8" height="28.82980682461911" x="81" y="185.58509658769046" rx="5" ry="5" fill="white" />
    <rect width="8" height="45.28941443581337" x="91" y="177.35529278209333" rx="5" ry="5" fill="white" />
    <rect width="8" height="28.55592552423301" x="101" y="185.72203723788348" rx="5" ry="5" fill="white" />
    <rect width="8" height="35.87522899496801" x="111" y="182.062385502516" rx="5" ry="5" fill="white" />
    <rect width="8" height="31.300265697811874" x="121" y="184.34986715109406" rx="5" ry="5" fill="white" />
    <rect width="8" height="27.06553810121402" x="131" y="186.46723094939298" rx="5" ry="5" fill="white" />
    <rect width="8" height="41.35316771719344" x="141" y="179.32341614140327" rx="5" ry="5" fill="white" />
    <rect width="8" height="35.201706240188706" x="151" y="182.39914687990566" rx="5" ry="5" fill="white" />
    <rect width="8" height="43.86254744784203" x="161" y="178.068726276079" rx="5" ry="5" fill="white" />
    <rect width="8" height="36.7941339382977" x="171" y="181.60293303085115" rx="5" ry="5" fill="white" />
    <rect width="8" height="31.651504095924853" x="181" y="184.17424795203758" rx="5" ry="5" fill="white" />
    <rect width="8" height="35.79281833920185" x="191" y="182.10359083039907" rx="5" ry="5" fill="white" />
    <rect width="8" height="29.316522189533657" x="201" y="185.34173890523317" rx="5" ry="5" fill="white" />
    <rect width="8" height="37.9228895523141" x="211" y="181.03855522384293" rx="5" ry="5" fill="white" />
    <rect width="8" height="35.789204710228695" x="221" y="182.10539764488564" rx="5" ry="5" fill="white" />
    <rect width="8" height="28.586026520876057" x="231" y="185.70698673956198" rx="5" ry="5" fill="white" />
    <rect width="8" height="30.052010729794453" x="241" y="184.97399463510277" rx="5" ry="5" fill="white" />
    <rect width="8" height="38.492342419816936" x="251" y="180.75382879009152" rx="5" ry="5" fill="white" />
    <rect width="8" height="41.98765201832586" x="261" y="179.00617399083706" rx="5" ry="5" fill="white" />
    <rect width="8" height="39.25935718112498" x="271" y="180.3703214094375" rx="5" ry="5" fill="white" />
    <rect width="8" height="90.79583763466734" x="281" y="154.60208118266632" rx="5" ry="5" fill="white" />
    <rect width="8" height="100.58609392028939" x="291" y="149.7069530398553" rx="5" ry="5" fill="white" />
    <rect width="8" height="39.521383065739506" x="301" y="180.23930846713026" rx="5" ry="5" fill="white" />
    <rect width="8" height="43.51723876552213" x="311" y="178.24138061723895" rx="5" ry="5" fill="white" />
    <rect width="8" height="50.68060524964583" x="321" y="174.65969737517707" rx="5" ry="5" fill="white" />
    <rect width="8" height="72.0338348428148" x="331" y="163.9830825785926" rx="5" ry="5" fill="white" />
    <rect width="8" height="98.17266423773808" x="341" y="150.91366788113095" rx="5" ry="5" fill="white" />
    <rect width="8" height="42.823222067872855" x="351" y="178.58838896606358" rx="5" ry="5" fill="white" />
    <rect width="8" height="36.38124680681824" x="361" y="181.80937659659088" rx="5" ry="5" fill="white" />
    <rect width="8" height="37.31192892170346" x="371" y="181.34403553914828" rx="5" ry="5" fill="white" />
    <rect width="8" height="66.89337349472501" x="381" y="166.5533132526375" rx="5" ry="5" fill="white" />
    <rect width="8" height="71.50223886920541" x="391" y="164.2488805653973" rx="5" ry="5" fill="white" />
    <rect width="8" height="43.282929551643264" x="401" y="178.35853522417835" rx="5" ry="5" fill="white" />
    <rect width="8" height="30.771270999699368" x="411" y="184.61436450015032" rx="5" ry="5" fill="white" />
    <rect width="8" height="48.906206142320116" x="421" y="175.54689692883994" rx="5" ry="5" fill="white" />
    <rect width="8" height="99.77420688793069" x="431" y="150.11289655603466" rx="5" ry="5" fill="white" />
    <rect width="8" height="33.52861189385597" x="441" y="183.23569405307202" rx="5" ry="5" fill="white" />
    <rect width="8" height="44.655836043108735" x="451" y="177.67208197844565" rx="5" ry="5" fill="white" />
    <rect width="8" height="44.9742749474995" x="461" y="177.51286252625025" rx="5" ry="5" fill="white" />
    <rect width="8" height="64.20303581228896" x="471" y="167.89848209385553" rx="5" ry="5" fill="white" />
    <rect width="8" height="99.91787568813942" x="481" y="150.0410621559303" rx="5" ry="5" fill="white" />
    <rect width="8" height="51.83711322753523" x="491" y="174.0814433862324" rx="5" ry="5" fill="white" />
    <rect width="8" height="52.50756053309876" x="501" y="173.74621973345063" rx="5" ry="5" fill="white" />
    <rect width="8" height="35.93909760054443" x="511" y="182.0304511997278" rx="5" ry="5" fill="white" />
    <rect width="8" height="88.1694903591176" x="521" y="155.9152548204412" rx="5" ry="5" fill="white" />
    <rect width="8" height="102.25498178546589" x="531" y="148.87250910726706" rx="5" ry="5" fill="white" />
    <rect width="8" height="39.95153529805356" x="541" y="180.02423235097322" rx="5" ry="5" fill="white" />
    <rect width="8" height="49.56197580030766" x="551" y="175.21901209984617" rx="5" ry="5" fill="white" />
    <rect width="8" height="43.55597767994483" x="561" y="178.2220111600276" rx="5" ry="5" fill="white" />
    <rect width="8" height="99.02393115788335" x="571" y="150.48803442105833" rx="5" ry="5" fill="white" />
    <rect width="8" height="102.33000211290364" x="581" y="148.8349989435482" rx="5" ry="5" fill="white" />
    <rect width="8" height="47.65759625241739" x="591" y="176.1712018737913" rx="5" ry="5" fill="white" />
    <rect width="8" height="48.07101591649946" x="601" y="175.96449204175028" rx="5" ry="5" fill="white" />
    <rect width="8" height="76.39532801149232" x="611" y="161.80233599425384" rx="5" ry="5" fill="white" />
    <rect width="8" height="103.15380318211326" x="621" y="148.42309840894336" rx="5" ry="5" fill="white" />
    <rect width="8" height="104.72422830305983" x="631" y="147.6378858484701" rx="5" ry="5" fill="white" />
    <rect width="8" height="51.93616520183338" x="641" y="174.0319173990833" rx="5" ry="5" fill="white" />
    <rect width="8" height="55.94085789025459" x="651" y="172.0295710548727" rx="5" ry="5" fill="white" />
    <rect width="8" height="58.98174878638882" x="661" y="170.50912560680558" rx="5" ry="5" fill="white" />
    <rect width="8" height="60.97832930692607" x="671" y="169.51083534653696" rx="5" ry="5" fill="white" />
    <rect width="8" height="55.79265588237858" x="681" y="172.1036720588107" rx="5" ry="5" fill="white" />
    <rect width="8" height="62.44046885550577" x="691" y="168.77976557224713" rx="5" ry="5" fill="white" />
    <rect width="8" height="57.221972630036376" x="701" y="171.38901368498182" rx="5" ry="5" fill="white" />
    <rect width="8" height="57.861205827468176" x="711" y="171.06939708626592" rx="5" ry="5" fill="white" />
    <rect width="8" height="60.24547724788894" x="721" y="169.87726137605551" rx="5" ry="5" fill="white" />
    <rect width="8" height="66.02260125214407" x="731" y="166.98869937392797" rx="5" ry="5" fill="white" />
    <rect width="8" height="67.3857258957081" x="741" y="166.30713705214595" rx="5" ry="5" fill="white" />
    <rect width="8" height="60.92033634765463" x="751" y="169.53983182617267" rx="5" ry="5" fill="white" />
    <rect width="8" height="59.09354598596415" x="761" y="170.45322700701792" rx="5" ry="5" fill="white" />
    <rect width="8" height="59.73462854925792" x="771" y="170.13268572537103" rx="5" ry="5" fill="white" />
    <rect width="8" height="63.56990501879767" x="781" y="168.21504749060117" rx="5" ry="5" fill="white" />
    <rect width="8" height="62.297144141493064" x="791" y="168.85142792925348" rx="5" ry="5" fill="white" />
    <rect width="8" height="59.10692410438627" x="801" y="170.44653794780686" rx="5" ry="5" fill="white" />
    <rect width="8" height="57.654248381806596" x="811" y="171.1728758090967" rx="5" ry="5" fill="white" />
    <rect width="8" height="48.35824829454671" x="821" y="175.82087585272666" rx="5" ry="5" fill="white" />
    <rect width="8" height="56.90833297874166" x="831" y="171.54583351062917" rx="5" ry="5" fill="white" />
    <rect width="8" height="57.673543931639934" x="841" y="171.16322803418004" rx="5" ry="5" fill="white" />
    <rect width="8" height="42.25616619177192" x="851" y="178.87191690411404" rx="5" ry="5" fill="white" />
    <rect width="8" height="95.80813800666537" x="861" y="152.0959309966673" rx="5" ry="5" fill="white" />
    <rect width="8" height="28.90166777210792" x="871" y="185.54916611394603" rx="5" ry="5" fill="white" />
    <rect width="8" height="37.67745173993521" x="881" y="181.16127413003238" rx="5" ry="5" fill="white" />
    <rect width="8" height="41.3837937690246" x="891" y="179.3081031154877" rx="5" ry="5" fill="white" />
    <rect width="8" height="44.59068838542849" x="901" y="177.70465580728575" rx="5" ry="5" fill="white" />
    <rect width="8" height="72.1457888035065" x="911" y="163.92710559824675" rx="5" ry="5" fill="white" />
    <rect width="8" height="37.692072176687205" x="921" y="181.1539639116564" rx="5" ry="5" fill="white" />
    <rect width="8" height="38.11281730677042" x="931" y="180.9435913466148" rx="5" ry="5" fill="white" />
    <rect width="8" height="36.93276838748471" x="941" y="181.53361580625764" rx="5" ry="5" fill="white" />
    <rect width="8" height="59.35106444649053" x="951" y="170.32446777675474" rx="5" ry="5" fill="white" />
    <rect width="8" height="68.36247837024413" x="961" y="165.81876081487792" rx="5" ry="5" fill="white" />
    <rect width="8" height="58.88190403452701" x="971" y="170.5590479827365" rx="5" ry="5" fill="white" />
    <rect width="8" height="59.36126830122529" x="981" y="170.31936584938737" rx="5" ry="5" fill="white" />
    <rect width="8" height="62.019540705375185" x="991" y="168.99022964731242" rx="5" ry="5" fill="white" />
    <rect width="8" height="66.77250196446653" x="1001" y="166.61374901776674" rx="5" ry="5" fill="white" />
    <rect width="8" height="94.63750663355788" x="1011" y="152.68124668322105" rx="5" ry="5" fill="white" />
    <rect width="8" height="62.787192552772595" x="1021" y="168.6064037236137" rx="5" ry="5" fill="white" />
    <rect width="8" height="60.28081427957935" x="1031" y="169.8595928602103" rx="5" ry="5" fill="white" />
    <rect width="8" height="74.47115840489438" x="1041" y="162.76442079755282" rx="5" ry="5" fill="white" />
    <rect width="8" height="83.15581734982635" x="1051" y="158.42209132508683" rx="5" ry="5" fill="white" />
    <rect width="8" height="82.7567273435488" x="1061" y="158.6216363282256" rx="5" ry="5" fill="white" />
    <rect width="8" height="63.64531538660072" x="1071" y="168.17734230669964" rx="5" ry="5" fill="white" />
    <rect width="8" height="64.73610168459672" x="1081" y="167.63194915770163" rx="5" ry="5" fill="white" />
    <rect width="8" height="59.00045036659963" x="1091" y="170.49977481670018" rx="5" ry="5" fill="white" />
    <rect width="8" height="84.75026530831128" x="1101" y="157.62486734584436" rx="5" ry="5" fill="white" />
    <rect width="8" height="69.60626567109836" x="1111" y="165.19686716445082" rx="5" ry="5" fill="white" />
    <rect width="8" height="70.76559175742919" x="1121" y="164.6172041212854" rx="5" ry="5" fill="white" />
    <rect width="8" height="76.72377892286062" x="1131" y="161.6381105385697" rx="5" ry="5" fill="white" />
    <rect width="8" height="59.0031812503869" x="1141" y="170.49840937480656" rx="5" ry="5" fill="white" />
    <rect width="8" height="93.11288837005907" x="1151" y="153.44355581497047" rx="5" ry="5" fill="white" />
    <rect width="8" height="75.13409376807728" x="1161" y="162.43295311596137" rx="5" ry="5" fill="white" />
    <rect width="8" height="62.7791665845174" x="1171" y="168.6104167077413" rx="5" ry="5" fill="white" />
    <rect width="8" height="72.4258138964386" x="1181" y="163.7870930517807" rx="5" ry="5" fill="white" />
    <rect width="8" height="62.136637045902035" x="1191" y="168.93168147704898" rx="5" ry="5" fill="white" />
    <rect width="8" height="87.11665966145594" x="1201" y="156.44167016927202" rx="5" ry="5" fill="white" />
    <rect width="8" height="74.32029216338405" x="1211" y="162.83985391830797" rx="5" ry="5" fill="white" />
    <rect width="8" height="68.16013212188275" x="1221" y="165.91993393905864" rx="5" ry="5" fill="white" />
    <rect width="8" height="70.42862395210814" x="1231" y="164.78568802394594" rx="5" ry="5" fill="white" />
    <rect width="8" height="39.00365271470949" x="1241" y="180.49817364264527" rx="5" ry="5" fill="white" />
    <rect width="8" height="26.655114162987626" x="1251" y="186.6724429185062" rx="5" ry="5" fill="white" />
    <rect width="8" height="8" x="1261" y="196" rx="5" ry="5" fill="white" />
    <rect width="8" height="8" x="1271" y="196" rx="5" ry="5" fill="white" />
  </g>
</svg>