<svg 
  baseProfile="tiny"
  preserveAspectRatio="keep"
  version="1.2"
  viewBox="0 0 1280.000000 400.000000"
  height="100%" width="100%"
  xmlns="http://www.w3.org/2000/svg"
  xmlns:ev="http://www.w3.org/2001/xml-events"
  xmlns:xlink="http://www.w3.org/1999/xlink"
>
  <g>
    <rect width="8" height="8" x="1" y="196" rx="5" ry="5" fill="white" />
    <rect width="8" height="8" x="11" y="196" rx="5" ry="5" fill="white" />
    <rect width="8" height="31.15681273305293" x="21" y="184.42159363347355" rx="5" ry="5" fill="white" />
    <rect width="8" height="23.327019985385142" x="31" y="188.33649000730742" rx="5" ry="5" fill="white" />
    <rect width="8" height="30.9919548016858" x="41" y="184.5040225991571" rx="5" ry="5" fill="white" />
    <rect width="8" height="12.524802569208221" x="51" y="193.73759871539588" rx="5" ry="5" fill="white" />
    <rect width="8" height="8" x="61" y="196" rx="5" ry="5" fill="white" />
    <rect width="8" height="68.00075277576502" x="71" y="165.9996236121175" rx="5" ry="5" fill="white" />
    <rect width="8" height="54.22590011642359" x="81" y="172.8870499417882" rx="5" ry="5" fill="white" />
    <rect width="8" height="71.3110095064766" x="91" y="164.3444952467617" rx="5" ry="5" fill="white" />
    <rect width="8" height="44.167929643659996" x="101" y="177.91603517817" rx="5" ry="5" fill="white" />
    <rect width="8" height="75.27075950225756" x="111" y="162.36462024887123" rx="5" ry="5" fill="white" />
    <rect width="8" height="39.97702311483239" x="121" y="180.0114884425838" rx="5" ry="5" fill="white" />
    <rect width="8" height="82.4026636661053" x="131" y="158.79866816694735" rx="5" ry="5" fill="white" />
    <rect width="8" height="53.89494705861101" x="141" y="173.0525264706945" rx="5" ry="5" fill="white" />
    <rect width="8" height="77.44806834587911" x="151" y="161.27596582706045" rx="5" ry="5" fill="white" />
    <rect width="8" height="51.25298865134004" x="161" y="174.37350567432998" rx="5" ry="5" fill="white" />
    <rect width="8" height="78.98477304356528" x="171" y="160.50761347821737" rx="5" ry="5" fill="white" />
    <rect width="8" height="51.82708767494065" x="181" y="174.0864561625297" rx="5" ry="5" fill="white" />
    <rect width="8" height="83.30461189877043" x="191" y="158.3476940506148" rx="5" ry="5" fill="white" />
    <rect width="8" height="40.43776416805819" x="201" y="179.7811179159709" rx="5" ry="5" fill="white" />
    <rect width="8" height="75.50596772888193" x="211" y="162.24701613555902" rx="5" ry="5" fill="white" />
    <rect width="8" height="54.14686637773525" x="221" y="172.92656681113237" rx="5" ry="5" fill="white" />
    <rect width="8" height="69.3000755509024" x="231" y="165.3499622245488" rx="5" ry="5" fill="white" />
    <rect width="8" height="54.13002145601587" x="241" y="172.93498927199207" rx="5" ry="5" fill="white" />
    <rect width="8" height="74.5103211646301" x="251" y="162.74483941768494" rx="5" ry="5" fill="white" />
    <rect width="8" height="51.679257434207" x="261" y="174.1603712828965" rx="5" ry="5" fill="white" />
    <rect width="8" height="70.24587968179803" x="271" y="164.87706015910098" rx="5" ry="5" fill="white" />
    <rect width="8" height="56.28751970188506" x="281" y="171.85624014905747" rx="5" ry="5" fill="white" />
    <rect width="8" height="76.5341728429441" x="291" y="161.73291357852796" rx="5" ry="5" fill="white" />
    <rect width="8" height="68.07492997581862" x="301" y="165.96253501209068" rx="5" ry="5" fill="white" />
    <rect width="8" height="66.3535951715926" x="311" y="166.8232024142037" rx="5" ry="5" fill="white" />
    <rect width="8" height="73.14376381768301" x="321" y="163.4281180911585" rx="5" ry="5" fill="white" />
    <rect width="8" height="59.18858425820716" x="331" y="170.40570787089644" rx="5" ry="5" fill="white" />
    <rect width="8" height="65.81462897827413" x="341" y="167.09268551086294" rx="5" ry="5" fill="white" />
    <rect width="8" height="51.14296517282044" x="351" y="174.4285174135898" rx="5" ry="5" fill="white" />
    <rect width="8" height="81.10093826885371" x="361" y="159.44953086557314" rx="5" ry="5" fill="white" />
    <rect width="8" height="60.401269011703484" x="371" y="169.79936549414825" rx="5" ry="5" fill="white" />
    <rect width="8" height="78.91039076944926" x="381" y="160.54480461527538" rx="5" ry="5" fill="white" />
    <rect width="8" height="56.326705643352945" x="391" y="171.83664717832352" rx="5" ry="5" fill="white" />
    <rect width="8" height="73.46321007100234" x="401" y="163.26839496449884" rx="5" ry="5" fill="white" />
    <rect width="8" height="63.10697889488193" x="411" y="168.44651055255903" rx="5" ry="5" fill="white" />
    <rect width="8" height="64.7079203244038" x="421" y="167.6460398377981" rx="5" ry="5" fill="white" />
    <rect width="8" height="64.26034506322613" x="431" y="167.86982746838694" rx="5" ry="5" fill="white" />
    <rect width="8" height="76.58903014750273" x="441" y="161.70548492624863" rx="5" ry="5" fill="white" />
    <rect width="8" height="65.95149525196996" x="451" y="167.02425237401502" rx="5" ry="5" fill="white" />
    <rect width="8" height="72.82995815158007" x="461" y="163.58502092420997" rx="5" ry="5" fill="white" />
    <rect width="8" height="68.85594007623791" x="471" y="165.57202996188104" rx="5" ry="5" fill="white" />
    <rect width="8" height="76.24445840702822" x="481" y="161.8777707964859" rx="5" ry="5" fill="white" />
    <rect width="8" height="57.92495334802542" x="491" y="171.03752332598728" rx="5" ry="5" fill="white" />
    <rect width="8" height="75.11677680325309" x="501" y="162.44161159837347" rx="5" ry="5" fill="white" />
    <rect width="8" height="57.46579088862792" x="511" y="171.26710455568605" rx="5" ry="5" fill="white" />
    <rect width="8" height="61.382367019504066" x="521" y="169.30881649024798" rx="5" ry="5" fill="white" />
    <rect width="8" height="64.17304487943653" x="531" y="167.91347756028173" rx="5" ry="5" fill="white" />
    <rect width="8" height="54.663227683479285" x="541" y="172.66838615826035" rx="5" ry="5" fill="white" />
    <rect width="8" height="61.31012994425856" x="551" y="169.34493502787072" rx="5" ry="5" fill="white" />
    <rect width="8" height="40.94181554837061" x="561" y="179.52909222581468" rx="5" ry="5" fill="white" />
    <rect width="8" height="18.020806798157054" x="571" y="190.98959660092146" rx="5" ry="5" fill="white" />
    <rect width="8" height="16.830990443245927" x="581" y="191.58450477837704" rx="5" ry="5" fill="white" />
    <rect width="8" height="13.00883897826668" x="591" y="193.49558051086666" rx="5" ry="5" fill="white" />
    <rect width="8" height="47.45759458260538" x="601" y="176.2712027086973" rx="5" ry="5" fill="white" />
    <rect width="8" height="8" x="611" y="196" rx="5" ry="5" fill="white" />
    <rect width="8" height="8" x="621" y="196" rx="5" ry="5" fill="white" />
    <rect width="8" height="8" x="631" y="196" rx="5" ry="5" fill="white" />
    <rect width="8" height="65.55592113059181" x="641" y="167.2220394347041" rx="5" ry="5" fill="white" />
    <rect width="8" height="46.22357335022785" x="651" y="176.88821332488607" rx="5" ry="5" fill="white" />
    <rect width="8" height="43.99555104651802" x="661" y="178.002224476741" rx="5" ry="5" fill="white" />
    <rect width="8" height="45.18525138684916" x="671" y="177.40737430657543" rx="5" ry="5" fill="white" />
    <rect width="8" height="60.775886316856884" x="681" y="169.61205684157156" rx="5" ry="5" fill="white" />
    <rect width="8" height="42.28246928393613" x="691" y="178.85876535803195" rx="5" ry="5" fill="white" />
    <rect width="8" height="57.20113768165229" x="701" y="171.39943115917384" rx="5" ry="5" fill="white" />
    <rect width="8" height="54.92156057458429" x="711" y="172.53921971270785" rx="5" ry="5" fill="white" />
    <rect width="8" height="40.82855430866355" x="721" y="179.58572284566822" rx="5" ry="5" fill="white" />
    <rect width="8" height="51.65291802044779" x="731" y="174.17354098977611" rx="5" ry="5" fill="white" />
    <rect width="8" height="37.837878391183125" x="741" y="181.08106080440842" rx="5" ry="5" fill="white" />
    <rect width="8" height="42.24558828329978" x="751" y="178.87720585835012" rx="5" ry="5" fill="white" />
    <rect width="8" height="58.59092722133843" x="761" y="170.70453638933077" rx="5" ry="5" fill="white" />
    <rect width="8" height="46.7046936898895" x="771" y="176.64765315505525" rx="5" ry="5" fill="white" />
    <rect width="8" height="59.46072448791033" x="781" y="170.26963775604483" rx="5" ry="5" fill="white" />
    <rect width="8" height="43.22101890151472" x="791" y="178.38949054924265" rx="5" ry="5" fill="white" />
    <rect width="8" height="43.20191978509476" x="801" y="178.3990401074526" rx="5" ry="5" fill="white" />
    <rect width="8" height="53.099621995794735" x="811" y="173.45018900210263" rx="5" ry="5" fill="white" />
    <rect width="8" height="34.7541016650828" x="821" y="182.62294916745861" rx="5" ry="5" fill="white" />
    <rect width="8" height="64.10010032430421" x="831" y="167.9499498378479" rx="5" ry="5" fill="white" />
    <rect width="8" height="40.067745857535684" x="841" y="179.96612707123217" rx="5" ry="5" fill="white" />
    <rect width="8" height="50.37552912832898" x="851" y="174.8122354358355" rx="5" ry="5" fill="white" />
    <rect width="8" height="51.568415739120354" x="861" y="174.2157921304398" rx="5" ry="5" fill="white" />
    <rect width="8" height="55.59156377512412" x="871" y="172.20421811243793" rx="5" ry="5" fill="white" />
    <rect width="8" height="55.02623649206163" x="881" y="172.4868817539692" rx="5" ry="5" fill="white" />
    <rect width="8" height="54.230723146123815" x="891" y="172.8846384269381" rx="5" ry="5" fill="white" />
    <rect width="8" height="48.66953662196171" x="901" y="175.66523168901915" rx="5" ry="5" fill="white" />
    <rect width="8" height="58.55655230622513" x="911" y="170.72172384688744" rx="5" ry="5" fill="white" />
    <rect width="8" height="46.7240376759419" x="921" y="176.63798116202906" rx="5" ry="5" fill="white" />
    <rect width="8" height="53.1157783359071" x="931" y="173.44211083204644" rx="5" ry="5" fill="white" />
    <rect width="8" height="53.70983861792463" x="941" y="173.1450806910377" rx="5" ry="5" fill="white" />
    <rect width="8" height="62.630655579477555" x="951" y="168.68467221026123" rx="5" ry="5" fill="white" />
    <rect width="8" height="38.02082620534937" x="961" y="180.98958689732532" rx="5" ry="5" fill="white" />
    <rect width="8" height="39.0731809038149" x="971" y="180.46340954809256" rx="5" ry="5" fill="white" />
    <rect width="8" height="57.559017816626344" x="981" y="171.22049109168682" rx="5" ry="5" fill="white" />
    <rect width="8" height="51.695933772952465" x="991" y="174.15203311352377" rx="5" ry="5" fill="white" />
    <rect width="8" height="49.596680488895004" x="1001" y="175.2016597555525" rx="5" ry="5" fill="white" />
    <rect width="8" height="42.911454115367434" x="1011" y="178.5442729423163" rx="5" ry="5" fill="white" />
    <rect width="8" height="57.982931833971264" x="1021" y="171.00853408301435" rx="5" ry="5" fill="white" />
    <rect width="8" height="49.97607746063474" x="1031" y="175.01196126968262" rx="5" ry="5" fill="white" />
    <rect width="8" height="40.002689041021625" x="1041" y="179.99865547948917" rx="5" ry="5" fill="white" />
    <rect width="8" height="46.163424554762386" x="1051" y="176.9182877226188" rx="5" ry="5" fill="white" />
    <rect width="8" height="61.00774679910198" x="1061" y="169.496126600449" rx="5" ry="5" fill="white" />
    <rect width="8" height="48.577128811937776" x="1071" y="175.71143559403112" rx="5" ry="5" fill="white" />
    <rect width="8" height="37.08277923315819" x="1081" y="181.4586103834209" rx="5" ry="5" fill="white" />
    <rect width="8" height="59.80572116139017" x="1091" y="170.0971394193049" rx="5" ry="5" fill="white" />
    <rect width="8" height="44.15753782367903" x="1101" y="177.92123108816048" rx="5" ry="5" fill="white" />
    <rect width="8" height="53.20349884260537" x="1111" y="173.39825057869731" rx="5" ry="5" fill="white" />
    <rect width="8" height="51.086140824303705" x="1121" y="174.45692958784815" rx="5" ry="5" fill="white" />
    <rect width="8" height="30.28497100975854" x="1131" y="184.85751449512074" rx="5" ry="5" fill="white" />
    <rect width="8" height="45.41413082918795" x="1141" y="177.29293458540602" rx="5" ry="5" fill="white" />
    <rect width="8" height="62.15184075614568" x="1151" y="168.92407962192715" rx="5" ry="5" fill="white" />
    <rect width="8" height="49.81361656041385" x="1161" y="175.09319171979308" rx="5" ry="5" fill="white" />
    <rect width="8" height="48.19558973823107" x="1171" y="175.90220513088445" rx="5" ry="5" fill="white" />
    <rect width="8" height="51.030780609152124" x="1181" y="174.48460969542393" rx="5" ry="5" fill="white" />
    <rect width="8" height="45.38991718565635" x="1191" y="177.3050414071718" rx="5" ry="5" fill="white" />
    <rect width="8" height="58.62016443248596" x="1201" y="170.689917783757" rx="5" ry="5" fill="white" />
    <rect width="8" height="51.06362722442014" x="1211" y="174.46818638778993" rx="5" ry="5" fill="white" />
    <rect width="8" height="46.858861143514126" x="1221" y="176.57056942824295" rx="5" ry="5" fill="white" />
    <rect width="8" height="44.36845159063109" x="1231" y="177.81577420468446" rx="5" ry="5" fill="white" />
    <rect width="8" height="15.90615452566458" x="1241" y="192.0469227371677" rx="5" ry="5" fill="white" />
    <rect width="8" height="12.818151980516271" x="1251" y="193.59092400974185" rx="5" ry="5" fill="white" />
    <rect width="8" height="8" x="1261" y="196" rx="5" ry="5" fill="white" />
    <rect width="8" height="8" x="1271" y="196" rx="5" ry="5" fill="white" />
  </g>
</svg>