<svg xmlns="http://www.w3.org/2000/svg" viewBox="0 0 2795.44 1056.11"><title>2019</title><g id="Ebene_3" data-name="Ebene 3"><path d="M248.38,426.68c-8,28.5-16.5,60.5-24,90-7.5-29-16-60-24.5-88.5l-47-153H26.38v356h80.5V526.68c0-57-.5-110.5-2.5-171.5,7,27,14,50,23.5,80.5l61.5,195.5h69l61.5-195.5c1-3.17,1.93-6.24,2.87-9.26L287.22,300.11Z"/><path d="M340.88,526.68v104.5h39.45L341,491.18C340.9,502.94,340.88,514.74,340.88,526.68Z"/><polygon points="26.38 1031.17 110.88 1031.17 110.88 886.67 274.38 886.67 274.38 815.17 110.88 815.17 110.88 750.67 287.88 750.67 287.88 675.17 26.38 675.17 26.38 1031.17"/><polygon points="314.13 1031.17 398.63 1031.17 398.63 900.17 455.98 900.17 438.12 836.67 398.63 836.67 398.63 742.67 411.69 742.67 392.7 675.17 314.13 675.17 314.13 1031.17"/><path d="M1856.06,773.68c0-60.5-48-106.5-132-106.5a228.38,228.38,0,0,0-26.74,1.51l19.24,68.65c1.79-.1,3.62-.16,5.5-.16,32,0,50,16,50,44.5,0,20.19-8.73,34.29-29.92,46.93L1761,895.74C1822.27,866.73,1856.06,835.24,1856.06,773.68Z"/><polygon points="1798.91 1031.17 1859.06 1031.17 1859.06 961.17 1779.3 961.17 1798.91 1031.17"/><path d="M2034,667.18c-100.5,0-152,68-152,186s51.5,186,152,186,151.5-68,151.5-186S2134.46,667.18,2034,667.18Zm0,302c-41,0-64-31.5-64-116s23-116,64-116c40.5,0,63.5,31.5,63.5,116S2075,969.18,2034,969.18Z"/><path d="M2212.3,750.68l-8,.5v57.5h83v222.5h84.5v-356h-66.5C2292.8,731.68,2258.8,747.68,2212.3,750.68Z"/><path d="M2634.94,694.18c-23-17-53.5-26-88-26-79.5,0-139,48-139,126,0,59.5,40,117,121,117,38.5,0,69-14.5,87.5-39.5-3.5,76.5-24.5,107-69,107-31,0-51-12-57-39.5h-77.5c10,64.5,61,101,135.5,101,97,0,145-71.5,145-193.5C2693.44,776.68,2675.94,724.18,2634.94,694.18Zm-88,156.5c-36.5,0-59.5-25.5-59.5-58.5s23-58.5,59.5-58.5c36,0,59,25,59,58.5S2582.94,850.68,2546.94,850.68Z"/><path d="M908,853.18c0-70.5-38-112.5-95-112.5s-94.5,42-94.5,112.5S756,965.68,813,965.68,908,923.68,908,853.18Z"/><path d="M530.12,1031.18c-5.5-10-8-22.5-8.5-39l-1.5-40c-1.5-43-20.5-52-52.5-52H456l36.84,131Z"/><path d="M1668.56,794.18h-80.5c-.45-67.55,33.18-116.44,109.26-125.49L1509.91,0H202.82l84.4,300.11,7.66-24.93h126.5v356H380.33l12.38,44h89.91c89.5,0,129,45.5,129,103,0,37.5-18.5,69-57.5,84.5,41,13.5,49,42.5,50.5,80l2.5,50c.5,15,4,29,10,38.5H754c-75.71-21.89-123.55-87.25-123.55-178,0-112.5,73.5-186,182.5-186,108.5,0,182.5,73.5,182.5,186,0,90.75-48.17,156.11-123.75,178h157.35v-356h126.5l47,153c8.5,28.5,17,59.5,24.5,88.5,7.5-29.5,16-61.5,24-90l46.5-151.5h126.5v356h160l2-31.5c2.5-49,12-111,104.5-147l28-12.5a183.61,183.61,0,0,0,23.58-11.57l-25.58-91.27C1685.13,739.13,1668.56,756.8,1668.56,794.18ZM777.92,495.68c0,94.5-62,143.5-155,143.5-89.5,0-154.5-49-154.5-143.5V275.18h84.5v221.5c0,46.5,27,69.5,70,69.5,43.5,0,70.5-23,70.5-69.5V275.18h84.5Zm183.75,143.5c-101.5,0-155.5-48-156-125h82c1,48.5,33,59,77,59,40,0,60.5-14.5,60.5-41,0-24-15-33.5-64-42.5l-29-5.5c-75-13-119-47-119-111.5,0-60.5,46-105.5,139-105.5,97,0,145.5,43,148.5,116h-80c-2-33-19.5-50-67-50-37,0-54.5,13.5-54.5,36,0,25,16.5,35,60.5,43.5l30,5.5c85.5,15.5,123,48,123,108.5C1112.67,601.68,1052.67,639.18,961.67,639.18Zm268-8h-84.5v-356h84.5Zm210.8,8c-106,0-177.5-71.5-177.5-186s69-186,177.5-186c84.5,0,154.5,46.5,168.5,135.5h-85.5c-11-42-43-62.5-83-62.5-57.5,0-89.5,42.5-89.5,113,0,71,32,113,89.5,113,42,0,77-24.5,85-72H1610C1599,589.18,1528,639.18,1440.51,639.18Z"/><path d="M473.12,836.68c32.5,0,51.5-16.5,51.5-47.5,0-30.5-19-46.5-53-46.5H411.69l26.43,94Z"/><path d="M1107.07,755.18c2,61,2.5,114.5,2.5,171.5v104.5h82.5l-61.5-195.5C1121.07,805.18,1114.07,782.18,1107.07,755.18Z"/><path d="M1753.56,899.18l-29.5,14c-28.5,13.5-42.5,24-45,48h100.23L1761,895.74C1758.53,896.89,1756.07,898,1753.56,899.18Z"/><path d="M322.75,426.42,341,491.18c.22-44.42.94-88.28,2.92-136.5C337.15,378.88,330.83,400.28,322.75,426.42Z"/><path d="M1346.57,754.68c-7.5,27-14.5,50.5-24,81l-61.5,195.5h82.5V926.68C1343.57,869.68,1344.07,815.68,1346.57,754.68Z"/><path d="M1107.07,755.18c2,61,2.5,114.5,2.5,171.5v104.5h82.5l-61.5-195.5C1121.07,805.18,1114.07,782.18,1107.07,755.18Z"/><path d="M520.12,952.18c-1.5-43-20.5-52-52.5-52H456l36.84,131h37.3c-5.5-10-8-22.5-8.5-39Z"/><path d="M524.62,789.18c0-30.5-19-46.5-53-46.5H411.69l26.43,94h35C505.62,836.68,524.62,820.18,524.62,789.18Z"/><path d="M1346.57,754.68c-7.5,27-14.5,50.5-24,81l-61.5,195.5h82.5V926.68C1343.57,869.68,1344.07,815.68,1346.57,754.68Z"/><path d="M1679.06,961.18h100.23L1761,895.74c-2.43,1.15-4.89,2.29-7.4,3.44l-29.5,14C1695.56,926.68,1681.56,937.18,1679.06,961.18Z"/><path d="M341,491.18c.22-44.42.94-88.28,2.92-136.5-6.73,24.2-13.05,45.6-21.13,71.74Z"/><path d="M1690.56,852.68l28-12.5a183.61,183.61,0,0,0,23.58-11.57l-25.58-91.27c-31.43,1.79-48,19.46-48,56.84h-80.5c-.45-67.55,33.18-116.44,109.26-125.49L1509.91,0H202.82l84.4,300.11,7.66-24.93h126.5v356H380.33l12.38,44h89.91c89.5,0,129,45.5,129,103,0,37.5-18.5,69-57.5,84.5,41,13.5,49,42.5,50.5,80l2.5,50c.5,15,4,29,10,38.5H754c-75.71-21.89-123.55-87.25-123.55-178,0-112.5,73.5-186,182.5-186,108.5,0,182.5,73.5,182.5,186,0,90.75-48.17,156.11-123.75,178h157.35v-356h126.5l47,153c8.5,28.5,17,59.5,24.5,88.5,7.5-29.5,16-61.5,24-90l46.5-151.5h126.5v356h160l2-31.5C1588.56,950.68,1598.06,888.68,1690.56,852.68Zm-912.64-357c0,94.5-62,143.5-155,143.5-89.5,0-154.5-49-154.5-143.5V275.18h84.5v221.5c0,46.5,27,69.5,70,69.5,43.5,0,70.5-23,70.5-69.5V275.18h84.5Zm183.75,143.5c-101.5,0-155.5-48-156-125h82c1,48.5,33,59,77,59,40,0,60.5-14.5,60.5-41,0-24-15-33.5-64-42.5l-29-5.5c-75-13-119-47-119-111.5,0-60.5,46-105.5,139-105.5,97,0,145.5,43,148.5,116h-80c-2-33-19.5-50-67-50-37,0-54.5,13.5-54.5,36,0,25,16.5,35,60.5,43.5l30,5.5c85.5,15.5,123,48,123,108.5C1112.67,601.68,1052.67,639.18,961.67,639.18Zm268-8h-84.5v-356h84.5Zm210.8,8c-106,0-177.5-71.5-177.5-186s69-186,177.5-186c84.5,0,154.5,46.5,168.5,135.5h-85.5c-11-42-43-62.5-83-62.5-57.5,0-89.5,42.5-89.5,113,0,71,32,113,89.5,113,42,0,77-24.5,85-72H1610C1599,589.18,1528,639.18,1440.51,639.18Z"/><path d="M908,853.18c0-70.5-38-112.5-95-112.5s-94.5,42-94.5,112.5S756,965.68,813,965.68,908,923.68,908,853.18Z"/></g></svg>