<svg xmlns="http://www.w3.org/2000/svg" viewBox="0 0 2795.44 1034.44"><title>new_arrivals</title><g id="Ebene_2" data-name="Ebene 2"><path d="M878.09,734h-73v94h74.5c32.5,0,51.5-16.5,51.5-47.5C931.09,750,912.09,734,878.09,734Z"/><path d="M1249.08,666.52,1262.87,708,1490.73,6.4H884.67L774.86,344.5l15.48,64c11,46,22,94,31.5,139.5,8.5-45.5,18-93.5,28-139.5l28.5-122h84.5l28.5,122c10.5,46,20,94,28,140.5,9.5-46.5,21-94.5,31.5-140.5l30-122h88l-97.5,356h-94.5l-29.5-126c-10-42-19-85.5-26.5-128.5-8,43-17,86.5-26.5,128.5l-30,126h-94.5l-42-153.29L658.08,704.08c15.8,17.71,23.27,40.44,23.27,65.44,0,37.5-18.5,69-57.5,84.5,41,13.5,49,42.5,50.5,80l2.5,50c.5,15,4,29,10,38.5h-87c-5.5-10-8-22.5-8.5-39l-1.5-40a98.25,98.25,0,0,0-2.72-21l-32.46,100h606.06l59.84-184.27-62-171.73Zm-312.49,356c-5.5-10-8-22.5-8.5-39l-1.5-40c-1.5-43-20.5-52-52.5-52h-69v131h-84.5v-356h168.5c89.5,0,129,45.5,129,103,0,37.5-18.5,69-57.5,84.5,41,13.5,49,42.5,50.5,80l2.5,50c.5,15,4,29,10,38.5Zm205,0h-84.5v-356h84.5Z"/><path d="M107.5,568c0-54.5-.5-106.5-2-164.5,16.5,32.5,35.5,64,55.5,97l87,142h91v-356H258.5V361c0,55,.5,107,2,165.5-16.5-33-38.5-70-55.5-98l-87-142H27v356h80.5Z"/><polygon points="660.55 567.01 473.55 567.01 473.55 497.51 644.05 497.51 644.05 426.51 473.55 426.51 473.55 362.01 661.05 362.01 661.05 286.51 389.05 286.51 389.05 642.51 660.55 642.51 660.55 567.01"/><polygon points="760.84 286.51 672.34 286.51 727.86 489.23 774.86 344.5 760.84 286.51"/><path d="M131,666.52l-131,356H86.5l20.5-62H255l21,62h89.5l-134-356ZM130.5,890,151,829c9-26.5,19.5-59,29.5-90,10,31,20.5,63.5,30,90L231,890Z"/><path d="M552.35,666.52H383.85v356h84.5v-131h69c25.93,0,43.32,5.91,49.78,31l71-218.47C637.55,681.06,602.94,666.52,552.35,666.52ZM542.85,828h-74.5V734h73c34,0,53,16,53,46.5C594.35,811.52,575.35,828,542.85,828Z"/><path d="M1424.58,666.52,1373.08,823c-12,37.5-24.5,80.5-35.5,125-11.5-44.5-24.5-87.5-36.5-125l-38.21-115-42.3,130.24,66.51,184.27h100l124.5-356Z"/><path d="M1599.53,666.52l-131,356H1555l20.5-62h148l21,62H1834l-134-356ZM1599,890l20.5-61c9-26.5,19.5-59,29.5-90,10,31,20.5,63.5,30,90l20.5,61Z"/><polygon points="1936.88 666.51 1852.38 666.51 1852.38 1022.51 2099.88 1022.51 2099.88 947.01 1936.88 947.01 1936.88 666.51"/><path d="M2294.57,809.52l-30-5.5c-44-8.5-60.5-18.5-60.5-43.5,0-22.5,17.5-36,54.5-36,47.5,0,65,17,67,50h80c-3-73-51.5-116-148.5-116-93,0-139,45-139,105.5,0,64.5,44,98.5,119,111.5l29,5.5c49,9,64,18.5,64,42.5,0,26.5-20.5,41-60.5,41-44,0-76-10.5-77-59h-82c.5,77,54.5,125,156,125,91,0,151-37.5,151-112.5C2417.57,857.52,2380.07,825,2294.57,809.52Z"/><path d="M878.09,734h-73v94h74.5c32.5,0,51.5-16.5,51.5-47.5C931.09,750,912.09,734,878.09,734Z"/><path d="M1158.58,666.52h90.5L1262.87,708,1490.73,6.4H884.67L774.86,344.5l15.48,64c11,46,22,94,31.5,139.5,8.5-45.5,18-93.5,28-139.5l28.5-122h84.5l28.5,122c10.5,46,20,94,28,140.5,9.5-46.5,21-94.5,31.5-140.5l30-122h88l-97.5,356h-94.5l-29.5-126c-10-42-19-85.5-26.5-128.5-8,43-17,86.5-26.5,128.5l-30,126h-94.5l-42-153.29L658.08,704.08c15.8,17.71,23.27,40.44,23.27,65.44,0,37.5-18.5,69-57.5,84.5,41,13.5,49,42.5,50.5,80l2.5,50c.5,15,4,29,10,38.5h-87c-5.5-10-8-22.5-8.5-39l-1.5-40a98.25,98.25,0,0,0-2.72-21l-32.46,100h606.06l59.84-184.27Zm-222,356c-5.5-10-8-22.5-8.5-39l-1.5-40c-1.5-43-20.5-52-52.5-52h-69v131h-84.5v-356h168.5c89.5,0,129,45.5,129,103,0,37.5-18.5,69-57.5,84.5,41,13.5,49,42.5,50.5,80l2.5,50c.5,15,4,29,10,38.5Zm205,0h-84.5v-356h84.5Z"/></g></svg>