<svg 
  baseProfile="tiny"
  preserveAspectRatio="keep"
  version="1.2"
  viewBox="-5.000000 -5.000000 2015.000000 805.000000"
  height="100%" width="100%"
  xmlns="http://www.w3.org/2000/svg"
  xmlns:ev="http://www.w3.org/2001/xml-events"
  xmlns:xlink="http://www.w3.org/1999/xlink"
>
  <g style="transform-origin: center center;">
    <path d="M 0 400 C 3.3333333333333335 376.8407990218622, 6.666666666666666 354.5943542794865, 10 352.63986995679403 C 13.333333333333334 350.6853856341016, 16.666666666666668 349.51468569600297, 20 349.51468569600297 C 23.333333333333332 349.51468569600297, 26.666666666666668 354.8740074984391, 30 356.6371732296144 C 33.333333333333336 358.4003389607897, 36.666666666666664 359.7257472909134, 40 360.8440261023813 C 43.333333333333336 361.9623049138492, 46.666666666666664 363.63383987770123, 50 363.63383987770123 C 53.333333333333336 363.63383987770123, 56.666666666666664 359.1234819806558, 60 359.1234819806558 C 63.333333333333336 359.1234819806558, 66.66666666666667 367.15546749841184, 70 367.15546749841184 C 73.33333333333333 367.15546749841184, 76.66666666666667 354.96035064916595, 80 354.96035064916595 C 83.33333333333333 354.96035064916595, 86.66666666666667 355.03205164260896, 90 355.03205164260896 C 93.33333333333333 355.03205164260896, 96.66666666666667 347.49032552504605, 100 347.49032552504605 C 103.33333333333333 347.49032552504605, 106.66666666666667 352.55442856550536, 110 352.55442856550536 C 113.33333333333333 352.55442856550536, 116.66666666666667 335.48780182074694, 120 335.48780182074694 C 123.33333333333333 335.48780182074694, 126.66666666666667 347.05694210758804, 130 347.05694210758804 C 133.33333333333334 347.05694210758804, 136.66666666666666 343.40963550948806, 140 343.40963550948806 C 143.33333333333334 343.40963550948806, 146.66666666666666 351.4132697145036, 150 351.4132697145036 C 153.33333333333334 351.4132697145036, 156.66666666666666 348.79464544602604, 160 348.79464544602604 C 163.33333333333334 348.79464544602604, 166.66666666666666 370.83203482849865, 170 370.83203482849865 C 173.33333333333334 370.83203482849865, 176.66666666666666 347.600261460297, 180 347.600261460297 C 183.33333333333334 347.600261460297, 186.66666666666666 360.28033598742707, 190 360.28033598742707 C 193.33333333333334 360.28033598742707, 196.66666666666666 334.61928028868084, 200 334.61928028868084 C 203.33333333333334 334.61928028868084, 206.66666666666666 344.4052209044102, 210 344.99748543219084 C 213.33333333333334 345.58974995997147, 216.66666666666666 345.47176320603694, 220 345.9690502742785 C 223.33333333333334 346.4663373425201, 226.66666666666666 348.4537290533086, 230 349.1809739112892 C 233.33333333333334 349.90821876926975, 236.66666666666666 350.15276911972575, 240 350.8328783615398 C 243.33333333333334 351.5129876033539, 246.66666666666666 353.5004499218919, 250 353.5004499218919 C 253.33333333333334 353.5004499218919, 256.6666666666667 348.0901611421668, 260 348.0901611421668 C 263.3333333333333 348.0901611421668, 266.6666666666667 351.22555037635755, 270 351.22555037635755 C 273.3333333333333 351.22555037635755, 276.6666666666667 344.8524733251303, 280 343.3175545413071 C 283.3333333333333 341.78263575748394, 286.6666666666667 341.2695146787626, 290 340.0695276277762 C 293.3333333333333 338.8695405767898, 296.6666666666667 337.17845292191896, 300 336.0320978807806 C 303.3333333333333 334.88574283964226, 306.6666666666667 333.03692969142776, 310 333.03692969142776 C 313.3333333333333 333.03692969142776, 316.6666666666667 340.83887038634435, 320 346.03186303577763 C 323.3333333333333 351.2248556852109, 326.6666666666667 365.4776361161918, 330 365.4776361161918 C 333.3333333333333 365.4776361161918, 336.6666666666667 340.2849063289882, 340 340.2849063289882 C 343.3333333333333 340.2849063289882, 346.6666666666667 349.2423892002783, 350 349.2423892002783 C 353.3333333333333 349.2423892002783, 356.6666666666667 335.8693945178776, 360 335.8693945178776 C 363.3333333333333 335.8693945178776, 366.6666666666667 352.1463716135806, 370 352.1463716135806 C 373.3333333333333 352.1463716135806, 376.6666666666667 338.15496734699775, 380 338.15496734699775 C 383.3333333333333 338.15496734699775, 386.6666666666667 349.38579718302947, 390 349.38579718302947 C 393.3333333333333 349.38579718302947, 396.6666666666667 335.1363819368502, 400 335.1363819368502 C 403.3333333333333 335.1363819368502, 406.6666666666667 351.92272167830106, 410 353.8362446156438 C 413.3333333333333 355.74976755298655, 416.6666666666667 355.4847166524632, 420 357.2269808258336 C 423.3333333333333 358.969244999204, 426.6666666666667 368.6265458797268, 430 368.6265458797268 C 433.3333333333333 368.6265458797268, 436.6666666666667 362.3583503958047, 440 362.3583503958047 C 443.3333333333333 362.3583503958047, 446.6666666666667 363.497453637883, 450 363.497453637883 C 453.3333333333333 363.497453637883, 456.6666666666667 360.0063691067456, 460 360.0063691067456 C 463.3333333333333 360.0063691067456, 466.6666666666667 362.414115432325, 470 362.414115432325 C 473.3333333333333 362.414115432325, 476.6666666666667 349.98278041459355, 480 349.98278041459355 C 483.3333333333333 349.98278041459355, 486.6666666666667 355.3271122968252, 490 355.3271122968252 C 493.3333333333333 355.3271122968252, 496.6666666666667 339.1718073212072, 500 339.1718073212072 C 503.3333333333333 339.1718073212072, 506.6666666666667 342.48715167862855, 510 342.48715167862855 C 513.3333333333334 342.48715167862855, 516.6666666666666 336.97240286073526, 520 336.97240286073526 C 523.3333333333334 336.97240286073526, 526.6666666666666 346.75990126060697, 530 346.75990126060697 C 533.3333333333334 346.75990126060697, 536.6666666666666 341.76063976549847, 540 341.76063976549847 C 543.3333333333334 341.76063976549847, 546.6666666666666 362.13750079013033, 550 362.13750079013033 C 553.3333333333334 362.13750079013033, 556.6666666666666 354.4665991606553, 560 354.4665991606553 C 563.3333333333334 354.4665991606553, 566.6666666666666 369.0608219260168, 570 369.0608219260168 C 573.3333333333334 369.0608219260168, 576.6666666666666 340.87203572396203, 580 340.87203572396203 C 583.3333333333334 340.87203572396203, 586.6666666666666 343.02988108813423, 590 343.02988108813423 C 593.3333333333334 343.02988108813423, 596.6666666666666 332.0833813148753, 600 332.0833813148753 C 603.3333333333334 332.0833813148753, 606.6666666666666 341.31687881285166, 610 342.6024607937573 C 613.3333333333334 343.88804277466295, 616.6666666666666 343.79709020868864, 620 344.96369948034067 C 623.3333333333334 346.1303087519927, 626.6666666666666 351.72273257985694, 630 351.72273257985694 C 633.3333333333334 351.72273257985694, 636.6666666666666 343.558714570139, 640 342.05833491034457 C 643.3333333333334 340.55795525055015, 646.6666666666666 339.7481545259018, 650 339.1245741050359 C 653.3333333333334 338.50099368417, 656.6666666666666 337.75139196461583, 660 337.75139196461583 C 663.3333333333334 337.75139196461583, 666.6666666666666 340.1972881476578, 670 341.0358620983582 C 673.3333333333334 341.87443604905866, 676.6666666666666 343.0744429102555, 680 343.0744429102555 C 683.3333333333334 343.0744429102555, 686.6666666666666 341.96701322505464, 690 341.66332407130443 C 693.3333333333334 341.3596349175542, 696.6666666666666 340.99063440351614, 700 340.99063440351614 C 703.3333333333334 340.99063440351614, 706.6666666666666 352.0474850004549, 710 352.0474850004549 C 713.3333333333334 352.0474850004549, 716.6666666666666 342.86537377318865, 720 342.4585462328818 C 723.3333333333334 342.051718692575, 726.6666666666666 342.1930583823254, 730 341.80682959052945 C 733.3333333333334 341.4206007987335, 736.6666666666666 336.5898947511549, 740 336.5898947511549 C 743.3333333333334 336.5898947511549, 746.6666666666666 343.25236380607936, 750 343.25236380607936 C 753.3333333333334 343.25236380607936, 756.6666666666666 337.0545875943731, 760 337.0545875943731 C 763.3333333333334 337.0545875943731, 766.6666666666666 351.4891041716497, 770 351.4891041716497 C 773.3333333333334 351.4891041716497, 776.6666666666666 335.0333359136222, 780 335.0333359136222 C 783.3333333333334 335.0333359136222, 786.6666666666666 350.4549361675083, 790 350.4549361675083 C 793.3333333333334 350.4549361675083, 796.6666666666666 339.9150897572987, 800 339.9150897572987 C 803.3333333333334 339.9150897572987, 806.6666666666666 350.43532612188193, 810 350.43532612188193 C 813.3333333333334 350.43532612188193, 816.6666666666666 350.00498721841967, 820 350.00498721841967 C 823.3333333333334 350.00498721841967, 826.6666666666666 350.2535189079117, 830 350.2983812422571 C 833.3333333333334 350.3432435766025, 836.6666666666666 350.3298252200746, 840 350.38570307144164 C 843.3333333333334 350.44158092280867, 846.6666666666666 352.47384156655824, 850 352.47384156655824 C 853.3333333333334 352.47384156655824, 856.6666666666666 349.7816763313273, 860 348.15927998710174 C 863.3333333333334 346.5368836428762, 866.6666666666666 342.5771017522725, 870 342.5771017522725 C 873.3333333333334 342.5771017522725, 876.6666666666666 344.2672109485293, 880 344.2672109485293 C 883.3333333333334 344.2672109485293, 886.6666666666666 343.35214264638824, 890 342.5756727429809 C 893.3333333333334 341.7992028395735, 896.6666666666666 338.8360788866453, 900 338.8360788866453 C 903.3333333333334 338.8360788866453, 906.6666666666666 343.698553743642, 910 343.698553743642 C 913.3333333333334 343.698553743642, 916.6666666666666 339.7307236748695, 920 339.7307236748695 C 923.3333333333334 339.7307236748695, 926.6666666666666 345.93711904546024, 930 345.93711904546024 C 933.3333333333334 345.93711904546024, 936.6666666666666 344.6771982039977, 940 344.6771982039977 C 943.3333333333334 344.6771982039977, 946.6666666666666 356.03032236299833, 950 356.03032236299833 C 953.3333333333334 356.03032236299833, 956.6666666666666 333.2700919206468, 960 333.2700919206468 C 963.3333333333334 333.2700919206468, 966.6666666666666 335.4660883545781, 970 335.4660883545781 C 973.3333333333334 335.4660883545781, 976.6666666666666 330.43448482070824, 980 330.43448482070824 C 983.3333333333334 330.43448482070824, 986.6666666666666 344.2621183258523, 990 344.2621183258523 C 993.3333333333334 344.2621183258523, 996.6666666666666 337.22949153988446, 1000 337.22949153988446 C 1003.3333333333334 337.22949153988446, 1006.6666666666666 353.12515979543963, 1010 353.12515979543963 C 1013.3333333333334 353.12515979543963, 1016.6666666666666 346.6983395080586, 1020 346.6983395080586 C 1023.3333333333334 346.6983395080586, 1026.6666666666667 352.9669336670342, 1030 352.9669336670342 C 1033.3333333333333 352.9669336670342, 1036.6666666666667 343.07739237115095, 1040 343.01981765380685 C 1043.3333333333333 342.96224293646276, 1046.6666666666667 342.9898738239102, 1050 342.9326992047769 C 1053.3333333333333 342.8755245856436, 1056.6666666666667 337.4248965946591, 1060 337.4248965946591 C 1063.3333333333333 337.4248965946591, 1066.6666666666667 343.35504706872837, 1070 343.35504706872837 C 1073.3333333333333 343.35504706872837, 1076.6666666666667 340.9791339184693, 1080 340.9791339184693 C 1083.3333333333333 340.9791339184693, 1086.6666666666667 351.86170664138047, 1090 351.86170664138047 C 1093.3333333333333 351.86170664138047, 1096.6666666666667 350.0696203763156, 1100 349.137022442533 C 1103.3333333333333 348.20442450875044, 1106.6666666666667 347.88763797500565, 1110 346.2620874613835 C 1113.3333333333333 344.63653694776133, 1116.6666666666667 330.20647553016374, 1120 330.20647553016374 C 1123.3333333333333 330.20647553016374, 1126.6666666666667 347.5264198382558, 1130 347.5264198382558 C 1133.3333333333333 347.5264198382558, 1136.6666666666667 334.0207221415852, 1140 334.0207221415852 C 1143.3333333333333 334.0207221415852, 1146.6666666666667 353.52342490519186, 1150 353.52342490519186 C 1153.3333333333333 353.52342490519186, 1156.6666666666667 340.3192475101661, 1160 340.3192475101661 C 1163.3333333333333 340.3192475101661, 1166.6666666666667 350.04284808223224, 1170 350.04284808223224 C 1173.3333333333333 350.04284808223224, 1176.6666666666667 341.0823721234956, 1180 341.0823721234956 C 1183.3333333333333 341.0823721234956, 1186.6666666666667 358.42103170674136, 1190 358.42103170674136 C 1193.3333333333333 358.42103170674136, 1196.6666666666667 339.4506361267946, 1200 339.4506361267946 C 1203.3333333333333 339.4506361267946, 1206.6666666666667 348.27533463358714, 1210 348.27533463358714 C 1213.3333333333333 348.27533463358714, 1216.6666666666667 344.60873345246046, 1220 342.97414242885475 C 1223.3333333333333 341.33955140524904, 1226.6666666666667 338.41235675302, 1230 338.41235675302 C 1233.3333333333333 338.41235675302, 1236.6666666666667 338.6846395398331, 1240 338.6846395398331 C 1243.3333333333333 338.6846395398331, 1246.6666666666667 330.1303646820317, 1250 330.1303646820317 C 1253.3333333333333 330.1303646820317, 1256.6666666666667 344.36508274274905, 1260 346.1477210440818 C 1263.3333333333333 347.9303593454145, 1266.6666666666667 348.4895593268062, 1270 349.35752760793764 C 1273.3333333333333 350.22549588906907, 1276.6666666666667 350.82957734309633, 1280 351.5479547148354 C 1283.3333333333333 352.26633208657444, 1286.6666666666667 353.66891123817345, 1290 353.66891123817345 C 1293.3333333333333 353.66891123817345, 1296.6666666666667 341.03374399530463, 1300 339.66785258254316 C 1303.3333333333333 338.3019611697817, 1306.6666666666667 338.5096152328134, 1310 337.26780598088254 C 1313.3333333333333 336.02599672895167, 1316.6666666666667 328.9478211469203, 1320 328.9478211469203 C 1323.3333333333333 328.9478211469203, 1326.6666666666667 341.91293449492946, 1330 341.91293449492946 C 1333.3333333333333 341.91293449492946, 1336.6666666666667 336.94306779492643, 1340 336.94306779492643 C 1343.3333333333333 336.94306779492643, 1346.6666666666667 337.19254027693364, 1350 337.19254027693364 C 1353.3333333333333 337.19254027693364, 1356.6666666666667 335.16298572890327, 1360 335.16298572890327 C 1363.3333333333333 335.16298572890327, 1366.6666666666667 343.05218985573737, 1370 343.05218985573737 C 1373.3333333333333 343.05218985573737, 1376.6666666666667 333.99555311799924, 1380 333.99555311799924 C 1383.3333333333333 333.99555311799924, 1386.6666666666667 337.0910627779007, 1390 338.0407817476154 C 1393.3333333333333 338.9905007173302, 1396.6666666666667 339.0168002863766, 1400 340.23975725546734 C 1403.3333333333333 341.46271422455806, 1406.6666666666667 351.305423666141, 1410 351.305423666141 C 1413.3333333333333 351.305423666141, 1416.6666666666667 348.9322276921933, 1420 348.9322276921933 C 1423.3333333333333 348.9322276921933, 1426.6666666666667 349.89119164248353, 1430 349.89119164248353 C 1433.3333333333333 349.89119164248353, 1436.6666666666667 338.97510554902567, 1440 338.97510554902567 C 1443.3333333333333 338.97510554902567, 1446.6666666666667 340.58035886933715, 1450 340.58035886933715 C 1453.3333333333333 340.58035886933715, 1456.6666666666667 335.48132012873003, 1460 334.52018237763014 C 1463.3333333333333 333.55904462653024, 1466.6666666666667 332.628431026633, 1470 332.628431026633 C 1473.3333333333333 332.628431026633, 1476.6666666666667 344.83647399500467, 1480 344.83647399500467 C 1483.3333333333333 344.83647399500467, 1486.6666666666667 341.8248104757415, 1490 338.9101394602674 C 1493.3333333333333 335.99546844479323, 1496.6666666666667 322.240573543377, 1500 322.240573543377 C 1503.3333333333333 322.240573543377, 1506.6666666666667 325.0228431560819, 1510 325.0228431560819 C 1513.3333333333333 325.0228431560819, 1516.6666666666667 323.9454178537747, 1520 323.9454178537747 C 1523.3333333333333 323.9454178537747, 1526.6666666666667 335.4577774603776, 1530 335.4577774603776 C 1533.3333333333333 335.4577774603776, 1536.6666666666667 325.4986138579124, 1540 325.3181013748859 C 1543.3333333333333 325.13758889185937, 1546.6666666666667 325.21976112587345, 1550 325.03990369195105 C 1553.3333333333333 324.86004625802866, 1556.6666666666667 316.1171674286305, 1560 316.1171674286305 C 1563.3333333333333 316.1171674286305, 1566.6666666666667 335.733517345474, 1570 335.733517345474 C 1573.3333333333333 335.733517345474, 1576.6666666666667 318.6528863093725, 1580 318.6528863093725 C 1583.3333333333333 318.6528863093725, 1586.6666666666667 319.40674415984626, 1590 319.7373586481698 C 1593.3333333333333 320.0679731364933, 1596.6666666666667 320.1202144259171, 1600 320.65115160891247 C 1603.3333333333333 321.18208879190786, 1606.6666666666667 325.6531864147638, 1610 326.8507208623997 C 1613.3333333333333 328.04825531003564, 1616.6666666666667 329.3798191751556, 1620 329.3798191751556 C 1623.3333333333333 329.3798191751556, 1626.6666666666667 325.42288794542765, 1630 325.42288794542765 C 1633.3333333333333 325.42288794542765, 1636.6666666666667 326.2618764994771, 1640 327.108619387927 C 1643.3333333333333 327.95536227637683, 1646.6666666666667 330.6331833825751, 1650 332.2601678096523 C 1653.3333333333333 333.88715223672943, 1656.6666666666667 335.3210141724728, 1660 336.89753435738555 C 1663.3333333333333 338.4740545422983, 1666.6666666666667 341.7230290345374, 1670 341.7230290345374 C 1673.3333333333333 341.7230290345374, 1676.6666666666667 341.0546554858424, 1680 340.81979957168556 C 1683.3333333333333 340.58494365752875, 1686.6666666666667 340.55977065778893, 1690 340.24225947221134 C 1693.3333333333333 339.92474828663376, 1696.6666666666667 338.8046894465137, 1700 337.52621185428916 C 1703.3333333333333 336.2477342620646, 1706.6666666666667 331.001840972422, 1710 331.001840972422 C 1713.3333333333333 331.001840972422, 1716.6666666666667 336.721675560332, 1720 337.0830748530661 C 1723.3333333333333 337.44447414580014, 1726.6666666666667 337.6782274301225, 1730 337.6782274301225 C 1733.3333333333333 337.6782274301225, 1736.6666666666667 334.25501284731297, 1740 334.25501284731297 C 1743.3333333333333 334.25501284731297, 1746.6666666666667 338.4384256295599, 1750 338.4384256295599 C 1753.3333333333333 338.4384256295599, 1756.6666666666667 329.93781027640193, 1760 329.93781027640193 C 1763.3333333333333 329.93781027640193, 1766.6666666666667 341.9962482015093, 1770 341.9962482015093 C 1773.3333333333333 341.9962482015093, 1776.6666666666667 333.3061120693902, 1780 333.3061120693902 C 1783.3333333333333 333.3061120693902, 1786.6666666666667 342.29331678652676, 1790 342.29331678652676 C 1793.3333333333333 342.29331678652676, 1796.6666666666667 326.67124129376253, 1800 326.67124129376253 C 1803.3333333333333 326.67124129376253, 1806.6666666666667 338.8005009102517, 1810 338.8005009102517 C 1813.3333333333333 338.8005009102517, 1816.6666666666667 337.8787667419425, 1820 337.43001935130985 C 1823.3333333333333 336.9812719606772, 1826.6666666666667 336.1071740353589, 1830 336.1071740353589 C 1833.3333333333333 336.1071740353589, 1836.6666666666667 336.18015969508673, 1840 336.3183708436185 C 1843.3333333333333 336.45658199215023, 1846.6666666666667 347.6028207824142, 1850 347.6028207824142 C 1853.3333333333333 347.6028207824142, 1856.6666666666667 340.46935693696344, 1860 340.46935693696344 C 1863.3333333333333 340.46935693696344, 1866.6666666666667 345.40087259107355, 1870 345.40087259107355 C 1873.3333333333333 345.40087259107355, 1876.6666666666667 338.9839707779058, 1880 338.2003998776935 C 1883.3333333333333 337.41682897748115, 1886.6666666666667 336.79575956554095, 1890 336.79575956554095 C 1893.3333333333333 336.79575956554095, 1896.6666666666667 340.8588898766918, 1900 340.8588898766918 C 1903.3333333333333 340.8588898766918, 1906.6666666666667 338.59314894680074, 1910 336.70051184903417 C 1913.3333333333333 334.8078747512676, 1916.6666666666667 327.75307321796697, 1920 327.75307321796697 C 1923.3333333333333 327.75307321796697, 1926.6666666666667 335.3252542107693, 1930 335.3252542107693 C 1933.3333333333333 335.3252542107693, 1936.6666666666667 325.5665166900675, 1940 325.5665166900675 C 1943.3333333333333 325.5665166900675, 1946.6666666666667 340.87668837590206, 1950 340.87668837590206 C 1953.3333333333333 340.87668837590206, 1956.6666666666667 337.40988615308737, 1960 337.40988615308737 C 1963.3333333333333 337.40988615308737, 1966.6666666666667 358.5793171798043, 1970 358.5793171798043 C 1973.3333333333333 358.5793171798043, 1976.6666666666667 350.5222347963351, 1980 350.5222347963351 C 1983.3333333333333 350.5222347963351, 1986.6666666666667 368.1634890695452, 1990 368.1634890695452 C 1993.3333333333333 368.1634890695452, 1996.6666666666667 349.33375750253487, 2000 349.33375750253487 C 2003.3333333333333 349.33375750253487, 2006.6666666666667 371.5285901567657, 2010 400 c 0 0, 0 0, 0 0C 2006.6666666666667 428.4714098432343, 2003.3333333333333 450.66624249746513, 2000 450.66624249746513 C 1996.6666666666667 450.66624249746513, 1993.3333333333333 431.8365109304548, 1990 431.8365109304548 C 1986.6666666666667 431.8365109304548, 1983.3333333333333 449.4777652036649, 1980 449.4777652036649 C 1976.6666666666667 449.4777652036649, 1973.3333333333333 441.4206828201957, 1970 441.4206828201957 C 1966.6666666666667 441.4206828201957, 1963.3333333333333 462.59011384691263, 1960 462.59011384691263 C 1956.6666666666667 462.59011384691263, 1953.3333333333333 459.12331162409794, 1950 459.12331162409794 C 1946.6666666666667 459.12331162409794, 1943.3333333333333 474.4334833099325, 1940 474.4334833099325 C 1936.6666666666667 474.4334833099325, 1933.3333333333333 464.6747457892307, 1930 464.6747457892307 C 1926.6666666666667 464.6747457892307, 1923.3333333333333 472.24692678203303, 1920 472.24692678203303 C 1916.6666666666667 472.24692678203303, 1913.3333333333333 465.1921252487324, 1910 463.29948815096583 C 1906.6666666666667 461.40685105319926, 1903.3333333333333 459.1411101233082, 1900 459.1411101233082 C 1896.6666666666667 459.1411101233082, 1893.3333333333333 463.20424043445905, 1890 463.20424043445905 C 1886.6666666666667 463.20424043445905, 1883.3333333333333 462.58317102251885, 1880 461.7996001223065 C 1876.6666666666667 461.0160292220942, 1873.3333333333333 454.59912740892645, 1870 454.59912740892645 C 1866.6666666666667 454.59912740892645, 1863.3333333333333 459.53064306303656, 1860 459.53064306303656 C 1856.6666666666667 459.53064306303656, 1853.3333333333333 452.3971792175858, 1850 452.3971792175858 C 1846.6666666666667 452.3971792175858, 1843.3333333333333 463.54341800784977, 1840 463.6816291563815 C 1836.6666666666667 463.81984030491327, 1833.3333333333333 463.8928259646411, 1830 463.8928259646411 C 1826.6666666666667 463.8928259646411, 1823.3333333333333 463.0187280393228, 1820 462.56998064869015 C 1816.6666666666667 462.1212332580575, 1813.3333333333333 461.1994990897483, 1810 461.1994990897483 C 1806.6666666666667 461.1994990897483, 1803.3333333333333 473.32875870623747, 1800 473.32875870623747 C 1796.6666666666667 473.32875870623747, 1793.3333333333333 457.70668321347324, 1790 457.70668321347324 C 1786.6666666666667 457.70668321347324, 1783.3333333333333 466.6938879306098, 1780 466.6938879306098 C 1776.6666666666667 466.6938879306098, 1773.3333333333333 458.0037517984907, 1770 458.0037517984907 C 1766.6666666666667 458.0037517984907, 1763.3333333333333 470.06218972359807, 1760 470.06218972359807 C 1756.6666666666667 470.06218972359807, 1753.3333333333333 461.5615743704401, 1750 461.5615743704401 C 1746.6666666666667 461.5615743704401, 1743.3333333333333 465.74498715268703, 1740 465.74498715268703 C 1736.6666666666667 465.74498715268703, 1733.3333333333333 462.3217725698775, 1730 462.3217725698775 C 1726.6666666666667 462.3217725698775, 1723.3333333333333 462.55552585419986, 1720 462.9169251469339 C 1716.6666666666667 463.278324439668, 1713.3333333333333 468.998159027578, 1710 468.998159027578 C 1706.6666666666667 468.998159027578, 1703.3333333333333 463.7522657379354, 1700 462.47378814571084 C 1696.6666666666667 461.1953105534863, 1693.3333333333333 460.07525171336624, 1690 459.75774052778866 C 1686.6666666666667 459.44022934221107, 1683.3333333333333 459.41505634247125, 1680 459.18020042831444 C 1676.6666666666667 458.9453445141576, 1673.3333333333333 458.2769709654626, 1670 458.2769709654626 C 1666.6666666666667 458.2769709654626, 1663.3333333333333 461.5259454577017, 1660 463.10246564261445 C 1656.6666666666667 464.6789858275272, 1653.3333333333333 466.11284776327057, 1650 467.7398321903477 C 1646.6666666666667 469.3668166174249, 1643.3333333333333 472.04463772362317, 1640 472.891380612073 C 1636.6666666666667 473.7381235005229, 1633.3333333333333 474.57711205457235, 1630 474.57711205457235 C 1626.6666666666667 474.57711205457235, 1623.3333333333333 470.6201808248444, 1620 470.6201808248444 C 1616.6666666666667 470.6201808248444, 1613.3333333333333 471.95174468996436, 1610 473.1492791376003 C 1606.6666666666667 474.3468135852362, 1603.3333333333333 478.81791120809214, 1600 479.34884839108753 C 1596.6666666666667 479.8797855740829, 1593.3333333333333 479.9320268635067, 1590 480.2626413518302 C 1586.6666666666667 480.59325584015374, 1583.3333333333333 481.3471136906275, 1580 481.3471136906275 C 1576.6666666666667 481.3471136906275, 1573.3333333333333 464.266482654526, 1570 464.266482654526 C 1566.6666666666667 464.266482654526, 1563.3333333333333 483.8828325713695, 1560 483.8828325713695 C 1556.6666666666667 483.8828325713695, 1553.3333333333333 475.13995374197134, 1550 474.96009630804895 C 1546.6666666666667 474.78023887412655, 1543.3333333333333 474.86241110814063, 1540 474.6818986251141 C 1536.6666666666667 474.5013861420876, 1533.3333333333333 464.5422225396224, 1530 464.5422225396224 C 1526.6666666666667 464.5422225396224, 1523.3333333333333 476.0545821462253, 1520 476.0545821462253 C 1516.6666666666667 476.0545821462253, 1513.3333333333333 474.9771568439181, 1510 474.9771568439181 C 1506.6666666666667 474.9771568439181, 1503.3333333333333 477.759426456623, 1500 477.759426456623 C 1496.6666666666667 477.759426456623, 1493.3333333333333 464.00453155520677, 1490 461.0898605397326 C 1486.6666666666667 458.1751895242585, 1483.3333333333333 455.16352600499533, 1480 455.16352600499533 C 1476.6666666666667 455.16352600499533, 1473.3333333333333 467.371568973367, 1470 467.371568973367 C 1466.6666666666667 467.371568973367, 1463.3333333333333 466.44095537346976, 1460 465.47981762236986 C 1456.6666666666667 464.51867987126997, 1453.3333333333333 459.41964113066285, 1450 459.41964113066285 C 1446.6666666666667 459.41964113066285, 1443.3333333333333 461.02489445097433, 1440 461.02489445097433 C 1436.6666666666667 461.02489445097433, 1433.3333333333333 450.10880835751647, 1430 450.10880835751647 C 1426.6666666666667 450.10880835751647, 1423.3333333333333 451.0677723078067, 1420 451.0677723078067 C 1416.6666666666667 451.0677723078067, 1413.3333333333333 448.694576333859, 1410 448.694576333859 C 1406.6666666666667 448.694576333859, 1403.3333333333333 458.53728577544194, 1400 459.76024274453266 C 1396.6666666666667 460.9831997136234, 1393.3333333333333 461.0094992826698, 1390 461.9592182523846 C 1386.6666666666667 462.9089372220993, 1383.3333333333333 466.00444688200076, 1380 466.00444688200076 C 1376.6666666666667 466.00444688200076, 1373.3333333333333 456.94781014426263, 1370 456.94781014426263 C 1366.6666666666667 456.94781014426263, 1363.3333333333333 464.83701427109673, 1360 464.83701427109673 C 1356.6666666666667 464.83701427109673, 1353.3333333333333 462.80745972306636, 1350 462.80745972306636 C 1346.6666666666667 462.80745972306636, 1343.3333333333333 463.05693220507357, 1340 463.05693220507357 C 1336.6666666666667 463.05693220507357, 1333.3333333333333 458.08706550507054, 1330 458.08706550507054 C 1326.6666666666667 458.08706550507054, 1323.3333333333333 471.0521788530797, 1320 471.0521788530797 C 1316.6666666666667 471.0521788530797, 1313.3333333333333 463.97400327104833, 1310 462.73219401911746 C 1306.6666666666667 461.4903847671866, 1303.3333333333333 461.6980388302183, 1300 460.33214741745684 C 1296.6666666666667 458.96625600469537, 1293.3333333333333 446.33108876182655, 1290 446.33108876182655 C 1286.6666666666667 446.33108876182655, 1283.3333333333333 447.73366791342556, 1280 448.4520452851646 C 1276.6666666666667 449.17042265690367, 1273.3333333333333 449.77450411093093, 1270 450.64247239206236 C 1266.6666666666667 451.5104406731938, 1263.3333333333333 452.0696406545855, 1260 453.8522789559182 C 1256.6666666666667 455.63491725725095, 1253.3333333333333 469.8696353179683, 1250 469.8696353179683 C 1246.6666666666667 469.8696353179683, 1243.3333333333333 461.3153604601669, 1240 461.3153604601669 C 1236.6666666666667 461.3153604601669, 1233.3333333333333 461.58764324698, 1230 461.58764324698 C 1226.6666666666667 461.58764324698, 1223.3333333333333 458.66044859475096, 1220 457.02585757114525 C 1216.6666666666667 455.39126654753954, 1213.3333333333333 451.72466536641286, 1210 451.72466536641286 C 1206.6666666666667 451.72466536641286, 1203.3333333333333 460.5493638732054, 1200 460.5493638732054 C 1196.6666666666667 460.5493638732054, 1193.3333333333333 441.57896829325864, 1190 441.57896829325864 C 1186.6666666666667 441.57896829325864, 1183.3333333333333 458.9176278765044, 1180 458.9176278765044 C 1176.6666666666667 458.9176278765044, 1173.3333333333333 449.95715191776776, 1170 449.95715191776776 C 1166.6666666666667 449.95715191776776, 1163.3333333333333 459.6807524898339, 1160 459.6807524898339 C 1156.6666666666667 459.6807524898339, 1153.3333333333333 446.47657509480814, 1150 446.47657509480814 C 1146.6666666666667 446.47657509480814, 1143.3333333333333 465.9792778584148, 1140 465.9792778584148 C 1136.6666666666667 465.9792778584148, 1133.3333333333333 452.4735801617442, 1130 452.4735801617442 C 1126.6666666666667 452.4735801617442, 1123.3333333333333 469.79352446983626, 1120 469.79352446983626 C 1116.6666666666667 469.79352446983626, 1113.3333333333333 455.36346305223867, 1110 453.7379125386165 C 1106.6666666666667 452.11236202499435, 1103.3333333333333 451.79557549124956, 1100 450.862977557467 C 1096.6666666666667 449.9303796236844, 1093.3333333333333 448.13829335861953, 1090 448.13829335861953 C 1086.6666666666667 448.13829335861953, 1083.3333333333333 459.0208660815307, 1080 459.0208660815307 C 1076.6666666666667 459.0208660815307, 1073.3333333333333 456.64495293127163, 1070 456.64495293127163 C 1066.6666666666667 456.64495293127163, 1063.3333333333333 462.5751034053409, 1060 462.5751034053409 C 1056.6666666666667 462.5751034053409, 1053.3333333333333 457.1244754143564, 1050 457.0673007952231 C 1046.6666666666667 457.0101261760898, 1043.3333333333333 457.03775706353724, 1040 456.98018234619315 C 1036.6666666666667 456.92260762884905, 1033.3333333333333 447.0330663329658, 1030 447.0330663329658 C 1026.6666666666667 447.0330663329658, 1023.3333333333334 453.3016604919414, 1020 453.3016604919414 C 1016.6666666666666 453.3016604919414, 1013.3333333333334 446.87484020456037, 1010 446.87484020456037 C 1006.6666666666666 446.87484020456037, 1003.3333333333334 462.77050846011554, 1000 462.77050846011554 C 996.6666666666666 462.77050846011554, 993.3333333333334 455.7378816741477, 990 455.7378816741477 C 986.6666666666666 455.7378816741477, 983.3333333333334 469.56551517929176, 980 469.56551517929176 C 976.6666666666666 469.56551517929176, 973.3333333333334 464.5339116454219, 970 464.5339116454219 C 966.6666666666666 464.5339116454219, 963.3333333333334 466.7299080793532, 960 466.7299080793532 C 956.6666666666666 466.7299080793532, 953.3333333333334 443.96967763700167, 950 443.96967763700167 C 946.6666666666666 443.96967763700167, 943.3333333333334 455.3228017960023, 940 455.3228017960023 C 936.6666666666666 455.3228017960023, 933.3333333333334 454.06288095453976, 930 454.06288095453976 C 926.6666666666666 454.06288095453976, 923.3333333333334 460.2692763251305, 920 460.2692763251305 C 916.6666666666666 460.2692763251305, 913.3333333333334 456.301446256358, 910 456.301446256358 C 906.6666666666666 456.301446256358, 903.3333333333334 461.1639211133547, 900 461.1639211133547 C 896.6666666666666 461.1639211133547, 893.3333333333334 458.2007971604265, 890 457.4243272570191 C 886.6666666666666 456.64785735361176, 883.3333333333334 455.7327890514707, 880 455.7327890514707 C 876.6666666666666 455.7327890514707, 873.3333333333334 457.4228982477275, 870 457.4228982477275 C 866.6666666666666 457.4228982477275, 863.3333333333334 453.4631163571238, 860 451.84072001289826 C 856.6666666666666 450.2183236686727, 853.3333333333334 447.52615843344176, 850 447.52615843344176 C 846.6666666666666 447.52615843344176, 843.3333333333334 449.55841907719133, 840 449.61429692855836 C 836.6666666666666 449.6701747799254, 833.3333333333334 449.6567564233975, 830 449.7016187577429 C 826.6666666666666 449.7464810920883, 823.3333333333334 449.99501278158033, 820 449.99501278158033 C 816.6666666666666 449.99501278158033, 813.3333333333334 449.56467387811807, 810 449.56467387811807 C 806.6666666666666 449.56467387811807, 803.3333333333334 460.0849102427013, 800 460.0849102427013 C 796.6666666666666 460.0849102427013, 793.3333333333334 449.5450638324917, 790 449.5450638324917 C 786.6666666666666 449.5450638324917, 783.3333333333334 464.9666640863778, 780 464.9666640863778 C 776.6666666666666 464.9666640863778, 773.3333333333334 448.5108958283503, 770 448.5108958283503 C 766.6666666666666 448.5108958283503, 763.3333333333334 462.9454124056269, 760 462.9454124056269 C 756.6666666666666 462.9454124056269, 753.3333333333334 456.74763619392064, 750 456.74763619392064 C 746.6666666666666 456.74763619392064, 743.3333333333334 463.4101052488451, 740 463.4101052488451 C 736.6666666666666 463.4101052488451, 733.3333333333334 458.5793992012665, 730 458.19317040947055 C 726.6666666666666 457.8069416176746, 723.3333333333334 457.948281307425, 720 457.5414537671182 C 716.6666666666666 457.13462622681135, 713.3333333333334 447.9525149995451, 710 447.9525149995451 C 706.6666666666666 447.9525149995451, 703.3333333333334 459.00936559648386, 700 459.00936559648386 C 696.6666666666666 459.00936559648386, 693.3333333333334 458.6403650824458, 690 458.33667592869557 C 686.6666666666666 458.03298677494536, 683.3333333333334 456.9255570897445, 680 456.9255570897445 C 676.6666666666666 456.9255570897445, 673.3333333333334 458.12556395094134, 670 458.9641379016418 C 666.6666666666666 459.8027118523422, 663.3333333333334 462.24860803538417, 660 462.24860803538417 C 656.6666666666666 462.24860803538417, 653.3333333333334 461.49900631583, 650 460.8754258949641 C 646.6666666666666 460.2518454740982, 643.3333333333334 459.44204474944985, 640 457.94166508965543 C 636.6666666666666 456.441285429861, 633.3333333333334 448.27726742014306, 630 448.27726742014306 C 626.6666666666666 448.27726742014306, 623.3333333333334 453.8696912480073, 620 455.03630051965933 C 616.6666666666666 456.20290979131136, 613.3333333333334 456.11195722533705, 610 457.3975392062427 C 606.6666666666666 458.68312118714834, 603.3333333333334 467.9166186851247, 600 467.9166186851247 C 596.6666666666666 467.9166186851247, 593.3333333333334 456.97011891186577, 590 456.97011891186577 C 586.6666666666666 456.97011891186577, 583.3333333333334 459.12796427603797, 580 459.12796427603797 C 576.6666666666666 459.12796427603797, 573.3333333333334 430.9391780739832, 570 430.9391780739832 C 566.6666666666666 430.9391780739832, 563.3333333333334 445.5334008393447, 560 445.5334008393447 C 556.6666666666666 445.5334008393447, 553.3333333333334 437.86249920986967, 550 437.86249920986967 C 546.6666666666666 437.86249920986967, 543.3333333333334 458.23936023450153, 540 458.23936023450153 C 536.6666666666666 458.23936023450153, 533.3333333333334 453.24009873939303, 530 453.24009873939303 C 526.6666666666666 453.24009873939303, 523.3333333333334 463.02759713926474, 520 463.02759713926474 C 516.6666666666666 463.02759713926474, 513.3333333333334 457.51284832137145, 510 457.51284832137145 C 506.6666666666667 457.51284832137145, 503.3333333333333 460.8281926787928, 500 460.8281926787928 C 496.6666666666667 460.8281926787928, 493.3333333333333 444.6728877031748, 490 444.6728877031748 C 486.6666666666667 444.6728877031748, 483.3333333333333 450.01721958540645, 480 450.01721958540645 C 476.6666666666667 450.01721958540645, 473.3333333333333 437.585884567675, 470 437.585884567675 C 466.6666666666667 437.585884567675, 463.3333333333333 439.9936308932544, 460 439.9936308932544 C 456.6666666666667 439.9936308932544, 453.3333333333333 436.502546362117, 450 436.502546362117 C 446.6666666666667 436.502546362117, 443.3333333333333 437.6416496041953, 440 437.6416496041953 C 436.6666666666667 437.6416496041953, 433.3333333333333 431.3734541202732, 430 431.3734541202732 C 426.6666666666667 431.3734541202732, 423.3333333333333 441.030755000796, 420 442.7730191741664 C 416.6666666666667 444.5152833475368, 413.3333333333333 444.25023244701345, 410 446.1637553843562 C 406.6666666666667 448.07727832169894, 403.3333333333333 464.8636180631498, 400 464.8636180631498 C 396.6666666666667 464.8636180631498, 393.3333333333333 450.61420281697053, 390 450.61420281697053 C 386.6666666666667 450.61420281697053, 383.3333333333333 461.84503265300225, 380 461.84503265300225 C 376.6666666666667 461.84503265300225, 373.3333333333333 447.8536283864194, 370 447.8536283864194 C 366.6666666666667 447.8536283864194, 363.3333333333333 464.1306054821224, 360 464.1306054821224 C 356.6666666666667 464.1306054821224, 353.3333333333333 450.7576107997217, 350 450.7576107997217 C 346.6666666666667 450.7576107997217, 343.3333333333333 459.7150936710118, 340 459.7150936710118 C 336.6666666666667 459.7150936710118, 333.3333333333333 434.5223638838082, 330 434.5223638838082 C 326.6666666666667 434.5223638838082, 323.3333333333333 448.7751443147891, 320 453.96813696422237 C 316.6666666666667 459.16112961365565, 313.3333333333333 466.96307030857224, 310 466.96307030857224 C 306.6666666666667 466.96307030857224, 303.3333333333333 465.11425716035774, 300 463.9679021192194 C 296.6666666666667 462.82154707808104, 293.3333333333333 461.1304594232102, 290 459.9304723722238 C 286.6666666666667 458.7304853212374, 283.3333333333333 458.21736424251606, 280 456.6824454586929 C 276.6666666666667 455.1475266748697, 273.3333333333333 448.77444962364245, 270 448.77444962364245 C 266.6666666666667 448.77444962364245, 263.3333333333333 451.9098388578332, 260 451.9098388578332 C 256.6666666666667 451.9098388578332, 253.33333333333334 446.4995500781081, 250 446.4995500781081 C 246.66666666666666 446.4995500781081, 243.33333333333334 448.4870123966461, 240 449.1671216384602 C 236.66666666666666 449.84723088027425, 233.33333333333334 450.09178123073025, 230 450.8190260887108 C 226.66666666666666 451.5462709466914, 223.33333333333334 453.5336626574799, 220 454.0309497257215 C 216.66666666666666 454.52823679396306, 213.33333333333334 454.41025004002853, 210 455.00251456780916 C 206.66666666666666 455.5947790955898, 203.33333333333334 465.38071971131916, 200 465.38071971131916 C 196.66666666666666 465.38071971131916, 193.33333333333334 439.71966401257293, 190 439.71966401257293 C 186.66666666666666 439.71966401257293, 183.33333333333334 452.399738539703, 180 452.399738539703 C 176.66666666666666 452.399738539703, 173.33333333333334 429.16796517150135, 170 429.16796517150135 C 166.66666666666666 429.16796517150135, 163.33333333333334 451.20535455397396, 160 451.20535455397396 C 156.66666666666666 451.20535455397396, 153.33333333333334 448.5867302854964, 150 448.5867302854964 C 146.66666666666666 448.5867302854964, 143.33333333333334 456.59036449051194, 140 456.59036449051194 C 136.66666666666666 456.59036449051194, 133.33333333333334 452.94305789241196, 130 452.94305789241196 C 126.66666666666667 452.94305789241196, 123.33333333333333 464.51219817925306, 120 464.51219817925306 C 116.66666666666667 464.51219817925306, 113.33333333333333 447.44557143449464, 110 447.44557143449464 C 106.66666666666667 447.44557143449464, 103.33333333333333 452.50967447495395, 100 452.50967447495395 C 96.66666666666667 452.50967447495395, 93.33333333333333 444.96794835739104, 90 444.96794835739104 C 86.66666666666667 444.96794835739104, 83.33333333333333 445.03964935083405, 80 445.03964935083405 C 76.66666666666667 445.03964935083405, 73.33333333333333 432.84453250158816, 70 432.84453250158816 C 66.66666666666667 432.84453250158816, 63.333333333333336 440.8765180193442, 60 440.8765180193442 C 56.666666666666664 440.8765180193442, 53.333333333333336 436.36616012229877, 50 436.36616012229877 C 46.666666666666664 436.36616012229877, 43.333333333333336 438.0376950861508, 40 439.1559738976187 C 36.666666666666664 440.2742527090866, 33.333333333333336 441.5996610392103, 30 443.3628267703856 C 26.666666666666668 445.1259925015609, 23.333333333333332 450.48531430399703, 20 450.48531430399703 C 16.666666666666668 450.48531430399703, 13.333333333333334 449.3146143658984, 10 447.36013004320597 C 3.3333333333333335 423.1592009781378, 6.666666666666666 445.4056457205135, 10 447.36013004320597 Z" fill="#a0a0a0" stroke="white" stroke-width="5" />
  </g>
</svg>