<svg 
  baseProfile="tiny"
  preserveAspectRatio="keep"
  version="1.2"
  viewBox="-5.000000 -5.000000 2015.000000 805.000000"
  height="100%" width="100%"
  xmlns="http://www.w3.org/2000/svg"
  xmlns:ev="http://www.w3.org/2001/xml-events"
  xmlns:xlink="http://www.w3.org/1999/xlink"
>
  <g style="transform-origin: center center;">
    <path d="M 0 400 C 3.3333333333333335 388.3426237288688, 6.666666666666666 378.2425187429465, 10 372.11166412743853 C 13.333333333333334 365.98080951193054, 16.666666666666668 358.39091413654154, 20 358.39091413654154 C 23.333333333333332 358.39091413654154, 26.666666666666668 361.7932861396338, 30 361.7932861396338 C 33.333333333333336 361.7932861396338, 36.666666666666664 361.6888006814446, 40 361.6888006814446 C 43.333333333333336 361.6888006814446, 46.666666666666664 366.5414895433423, 50 367.7631811517905 C 53.333333333333336 368.98487276023866, 56.666666666666664 370.06100415147745, 60 370.38740117109967 C 63.333333333333336 370.7137981907219, 66.66666666666667 370.9892898853896, 70 370.9892898853896 C 73.33333333333333 370.9892898853896, 76.66666666666667 364.73080869311946, 80 364.73080869311946 C 83.33333333333333 364.73080869311946, 86.66666666666667 365.0057058170445, 90 365.0057058170445 C 93.33333333333333 365.0057058170445, 96.66666666666667 363.8312548289879, 100 363.8312548289879 C 103.33333333333333 363.8312548289879, 106.66666666666667 365.8234764787601, 110 365.8234764787601 C 113.33333333333333 365.8234764787601, 116.66666666666667 355.11768457122895, 120 355.11768457122895 C 123.33333333333333 355.11768457122895, 126.66666666666667 367.0025508571427, 130 367.0025508571427 C 133.33333333333334 367.0025508571427, 136.66666666666666 364.2225241096319, 140 362.0507250942707 C 143.33333333333334 359.87892607890956, 146.66666666666666 355.68940988873874, 150 352.5286802945631 C 153.33333333333334 349.3679507003875, 156.66666666666666 343.08601527266353, 160 343.08601527266353 C 163.33333333333334 343.08601527266353, 166.66666666666666 343.9520351373581, 170 343.9520351373581 C 173.33333333333334 343.9520351373581, 176.66666666666666 343.412164585931, 180 343.0599009851138 C 183.33333333333334 342.7076373842966, 186.66666666666666 341.7639170350884, 190 341.7639170350884 C 193.33333333333334 341.7639170350884, 196.66666666666666 349.1851215082392, 200 349.1851215082392 C 203.33333333333334 349.1851215082392, 206.66666666666666 337.3303116301427, 210 336.42796440521164 C 213.33333333333334 335.52561718028056, 216.66666666666666 335.8271893674568, 220 334.91379142014983 C 223.33333333333334 334.00039347284286, 226.66666666666666 323.13428900561183, 230 320.51470467681014 C 233.33333333333334 317.89512034800845, 236.66666666666666 315.1105978179673, 240 315.1105978179673 C 243.33333333333334 315.1105978179673, 246.66666666666666 317.7295370945284, 250 319.08286465222807 C 253.33333333333334 320.43619220992775, 256.6666666666667 321.29566362726024, 260 323.2345245323606 C 263.3333333333333 325.1733854374609, 266.6666666666667 332.94543190292137, 270 332.94543190292137 C 273.3333333333333 332.94543190292137, 276.6666666666667 329.090869958252, 280 328.50803370320364 C 283.3333333333333 327.9251974481553, 286.6666666666667 328.08571425992795, 290 327.4192719179915 C 293.3333333333333 326.7528295760551, 296.6666666666667 316.5405163874998, 300 315.20359811496024 C 303.3333333333333 313.8666798424207, 306.6666666666667 312.8043498138192, 310 312.8043498138192 C 313.3333333333333 312.8043498138192, 316.6666666666667 320.77592710948727, 320 320.77592710948727 C 323.3333333333333 320.77592710948727, 326.6666666666667 311.8230242046043, 330 311.8230242046043 C 333.3333333333333 311.8230242046043, 336.6666666666667 331.56254289610905, 340 331.56254289610905 C 343.3333333333333 331.56254289610905, 346.6666666666667 329.40088525684416, 350 328.0685208388462 C 353.3333333333333 326.73615642084826, 356.6666666666667 325.5765858545497, 360 323.3991255041775 C 363.3333333333333 321.2216651538053, 366.6666666666667 316.5327769490068, 370 312.5303380661913 C 373.3333333333333 308.5278991833758, 376.6666666666667 299.1180555449142, 380 299.1180555449142 C 383.3333333333333 299.1180555449142, 386.6666666666667 299.8013550378673, 390 300.33578146208055 C 393.3333333333333 300.87020788629377, 396.6666666666667 302.68187506408185, 400 302.68187506408185 C 403.3333333333333 302.68187506408185, 406.6666666666667 302.4420974239083, 410 302.05112385107054 C 413.3333333333333 301.6601502782328, 416.6666666666667 293.6992734886134, 420 293.6992734886134 C 423.3333333333333 293.6992734886134, 426.6666666666667 302.8411540740654, 430 302.8411540740654 C 433.3333333333333 302.8411540740654, 436.6666666666667 297.15645601928384, 440 295.7948488222123 C 443.3333333333333 294.4332416251408, 446.6666666666667 292.9187989691692, 450 292.9187989691692 C 453.3333333333333 292.9187989691692, 456.6666666666667 303.32315310672936, 460 303.32315310672936 C 463.3333333333333 303.32315310672936, 466.6666666666667 299.0790250183619, 470 299.0790250183619 C 473.3333333333333 299.0790250183619, 476.6666666666667 305.19547067290523, 480 305.19547067290523 C 483.3333333333333 305.19547067290523, 486.6666666666667 298.29893004596295, 490 298.29893004596295 C 493.3333333333333 298.29893004596295, 496.6666666666667 306.7148923883316, 500 306.7148923883316 C 503.3333333333333 306.7148923883316, 506.6666666666667 292.6100252425597, 510 292.6100252425597 C 513.3333333333334 292.6100252425597, 516.6666666666666 300.88707128514795, 520 300.88707128514795 C 523.3333333333334 300.88707128514795, 526.6666666666666 299.7202598029935, 530 299.7202598029935 C 533.3333333333334 299.7202598029935, 536.6666666666666 304.2931974166433, 540 304.2931974166433 C 543.3333333333334 304.2931974166433, 546.6666666666666 296.2445931900725, 550 296.2445931900725 C 553.3333333333334 296.2445931900725, 556.6666666666666 309.7705497037023, 560 309.7705497037023 C 563.3333333333334 309.7705497037023, 566.6666666666666 300.0818194808599, 570 300.0818194808599 C 573.3333333333334 300.0818194808599, 576.6666666666666 305.1917305647205, 580 307.3466597896857 C 583.3333333333334 309.5015890146509, 586.6666666666666 313.17012829967587, 590 313.17012829967587 C 593.3333333333334 313.17012829967587, 596.6666666666666 309.2005133884331, 600 305.9034894223619 C 603.3333333333334 302.60646545629066, 606.6666666666666 290.42058112036284, 610 290.42058112036284 C 613.3333333333334 290.42058112036284, 616.6666666666666 307.57261779135604, 620 307.57261779135604 C 623.3333333333334 307.57261779135604, 626.6666666666666 302.82698239747856, 630 302.82698239747856 C 633.3333333333334 302.82698239747856, 636.6666666666666 305.02316690986095, 640 305.82198707252473 C 643.3333333333334 306.6208072351885, 646.6666666666666 307.00047619839376, 650 307.819291308678 C 653.3333333333334 308.6381064189622, 656.6666666666666 311.0089846077602, 660 311.0089846077602 C 663.3333333333334 311.0089846077602, 666.6666666666666 298.555574094417, 670 298.555574094417 C 673.3333333333334 298.555574094417, 676.6666666666666 308.6315398136911, 680 309.25826009617407 C 683.3333333333334 309.884980378657, 686.6666666666666 309.63217686260197, 690 310.2888646321353 C 693.3333333333334 310.94555240166864, 696.6666666666666 332.5647895677903, 700 332.5647895677903 C 703.3333333333334 332.5647895677903, 706.6666666666666 329.23540640219954, 710 326.50091177583545 C 713.3333333333334 323.76641714947135, 716.6666666666666 318.23646066817605, 720 313.82469375300525 C 723.3333333333334 309.41292683783445, 726.6666666666666 302.9282576382879, 730 299.9787183064992 C 733.3333333333334 297.02917897471053, 736.6666666666666 293.47680337643624, 740 293.47680337643624 C 743.3333333333334 293.47680337643624, 746.6666666666666 300.4183176472185, 750 300.4183176472185 C 753.3333333333334 300.4183176472185, 756.6666666666666 297.79064544401, 760 297.79064544401 C 763.3333333333334 297.79064544401, 766.6666666666666 309.99419089555494, 770 309.99419089555494 C 773.3333333333334 309.99419089555494, 776.6666666666666 308.71985212250684, 780 307.8796455595841 C 783.3333333333334 307.0394389966614, 786.6666666666666 306.32644667143336, 790 304.75991765133455 C 793.3333333333334 303.19338863123573, 796.6666666666666 295.2386952418288, 800 295.2386952418288 C 803.3333333333334 295.2386952418288, 806.6666666666666 302.5994047363754, 810 302.5994047363754 C 813.3333333333334 302.5994047363754, 816.6666666666666 294.92552533242036, 820 294.92552533242036 C 823.3333333333334 294.92552533242036, 826.6666666666666 302.1841094871443, 830 305.285259849166 C 833.3333333333334 308.38641021118764, 836.6666666666666 312.2655406356648, 840 313.7278957827307 C 843.3333333333334 315.19025092979655, 846.6666666666666 316.6913927097702, 850 316.6913927097702 C 853.3333333333334 316.6913927097702, 856.6666666666666 306.8521047260209, 860 306.8521047260209 C 863.3333333333334 306.8521047260209, 866.6666666666666 315.33113943991214, 870 315.33113943991214 C 873.3333333333334 315.33113943991214, 876.6666666666666 310.50403545596396, 880 308.916141056675 C 883.3333333333334 307.328246657386, 886.6666666666666 305.1276669597219, 890 305.1276669597219 C 893.3333333333334 305.1276669597219, 896.6666666666666 321.6538394301072, 900 321.6538394301072 C 903.3333333333334 321.6538394301072, 906.6666666666666 314.13625458873963, 910 310.20702265224855 C 913.3333333333334 306.2777907157575, 916.6666666666666 298.05752233564493, 920 298.05752233564493 C 923.3333333333334 298.05752233564493, 926.6666666666666 303.9925503007005, 930 303.9925503007005 C 933.3333333333334 303.9925503007005, 936.6666666666666 301.25737387787683, 940 300.3878554219282 C 943.3333333333334 299.51833696597953, 946.6666666666666 298.34408566648506, 950 298.34408566648506 C 953.3333333333334 298.34408566648506, 956.6666666666666 305.854211870678, 960 305.854211870678 C 963.3333333333334 305.854211870678, 966.6666666666666 305.5792100575078, 970 305.1402653917469 C 973.3333333333334 304.70132072598597, 976.6666666666666 299.1582443245375, 980 296.6749511947573 C 983.3333333333334 294.19165806497705, 986.6666666666666 290.0229904973915, 990 290.0229904973915 C 993.3333333333334 290.0229904973915, 996.6666666666666 293.3150543123313, 1000 293.3150543123313 C 1003.3333333333334 293.3150543123313, 1006.6666666666666 287.19852438705266, 1010 287.19852438705266 C 1013.3333333333334 287.19852438705266, 1016.6666666666666 289.88379613347274, 1020 292.53562990078524 C 1023.3333333333334 295.18746366809773, 1026.6666666666667 308.1530933851727, 1030 308.1530933851727 C 1033.3333333333333 308.1530933851727, 1036.6666666666667 306.8526333341853, 1040 305.49437164349666 C 1043.3333333333333 304.136109952808, 1046.6666666666667 296.7761916791844, 1050 296.7761916791844 C 1053.3333333333333 296.7761916791844, 1056.6666666666667 301.25440814103007, 1060 301.25440814103007 C 1063.3333333333333 301.25440814103007, 1066.6666666666667 293.5617911964905, 1070 293.5617911964905 C 1073.3333333333333 293.5617911964905, 1076.6666666666667 298.12085028194343, 1080 300.0992802058662 C 1083.3333333333333 302.07771012978895, 1086.6666666666667 305.5339561060066, 1090 305.5339561060066 C 1093.3333333333333 305.5339561060066, 1096.6666666666667 305.0624778503918, 1100 304.42145836168373 C 1103.3333333333333 303.78043887297565, 1106.6666666666667 297.3358807538176, 1110 297.3358807538176 C 1113.3333333333333 297.3358807538176, 1116.6666666666667 304.79924591934997, 1120 304.79924591934997 C 1123.3333333333333 304.79924591934997, 1126.6666666666667 289.5016901654865, 1130 289.5016901654865 C 1133.3333333333333 289.5016901654865, 1136.6666666666667 294.10917501887315, 1140 296.09395818578514 C 1143.3333333333333 298.07874135269714, 1146.6666666666667 301.5229561208974, 1150 301.5229561208974 C 1153.3333333333333 301.5229561208974, 1156.6666666666667 291.55464325734187, 1160 291.55464325734187 C 1163.3333333333333 291.55464325734187, 1166.6666666666667 295.2438097798193, 1170 297.3410699818241 C 1173.3333333333333 299.4383301838289, 1176.6666666666667 304.234920630338, 1180 304.234920630338 C 1183.3333333333333 304.234920630338, 1186.6666666666667 303.14658182914997, 1190 301.8348035058922 C 1193.3333333333333 300.5230251826344, 1196.6666666666667 290.91415057042826, 1200 290.91415057042826 C 1203.3333333333333 290.91415057042826, 1206.6666666666667 297.7831601538119, 1210 298.1430307432695 C 1213.3333333333333 298.5029013327271, 1216.6666666666667 298.7263987677503, 1220 298.7263987677503 C 1223.3333333333333 298.7263987677503, 1226.6666666666667 296.3384168904097, 1230 296.3384168904097 C 1233.3333333333333 296.3384168904097, 1236.6666666666667 298.3834019143307, 1240 299.79788194135057 C 1243.3333333333333 301.21236196837043, 1246.6666666666667 305.2847395046151, 1250 305.2847395046151 C 1253.3333333333333 305.2847395046151, 1256.6666666666667 294.7179327164091, 1260 294.6758466413871 C 1263.3333333333333 294.63376056636514, 1266.6666666666667 294.61233962499216, 1270 294.61233962499216 C 1273.3333333333333 294.61233962499216, 1276.6666666666667 297.39930039387673, 1280 298.11112358697187 C 1283.3333333333333 298.822946780067, 1286.6666666666667 299.64781539895125, 1290 299.64781539895125 C 1293.3333333333333 299.64781539895125, 1296.6666666666667 289.2592249476793, 1300 289.2592249476793 C 1303.3333333333333 289.2592249476793, 1306.6666666666667 306.30151513533485, 1310 306.30151513533485 C 1313.3333333333333 306.30151513533485, 1316.6666666666667 295.97999513777086, 1320 295.97999513777086 C 1323.3333333333333 295.97999513777086, 1326.6666666666667 302.99956282948745, 1330 302.99956282948745 C 1333.3333333333333 302.99956282948745, 1336.6666666666667 294.5769603691827, 1340 294.5769603691827 C 1343.3333333333333 294.5769603691827, 1346.6666666666667 299.9123717617946, 1350 299.9123717617946 C 1353.3333333333333 299.9123717617946, 1356.6666666666667 289.71916748300737, 1360 289.71916748300737 C 1363.3333333333333 289.71916748300737, 1366.6666666666667 302.46389267433227, 1370 302.851480576669 C 1373.3333333333333 303.23906847900577, 1376.6666666666667 303.06443491716584, 1380 303.45979308998875 C 1383.3333333333333 303.85515126281166, 1386.6666666666667 327.0765515178129, 1390 327.0765515178129 C 1393.3333333333333 327.0765515178129, 1396.6666666666667 314.4804125754809, 1400 310.7777541350074 C 1403.3333333333333 307.0750956945339, 1406.6666666666667 305.26808997870955, 1410 302.3529125705849 C 1413.3333333333333 299.4377351624603, 1416.6666666666667 293.26130948280775, 1420 293.26130948280775 C 1423.3333333333333 293.26130948280775, 1426.6666666666667 301.6326360933469, 1430 301.6326360933469 C 1433.3333333333333 301.6326360933469, 1436.6666666666667 292.1123861412551, 1440 292.1123861412551 C 1443.3333333333333 292.1123861412551, 1446.6666666666667 298.0805619894085, 1450 300.33980955142283 C 1453.3333333333333 302.59905711343714, 1456.6666666666667 306.10221099604877, 1460 306.10221099604877 C 1463.3333333333333 306.10221099604877, 1466.6666666666667 303.51048565166224, 1470 301.3314148451735 C 1473.3333333333333 299.1523440386848, 1476.6666666666667 290.9506677125803, 1480 290.9506677125803 C 1483.3333333333333 290.9506677125803, 1486.6666666666667 297.2934010796071, 1490 298.73572854917484 C 1493.3333333333333 300.17805601874255, 1496.6666666666667 301.7318509397453, 1500 301.7318509397453 C 1503.3333333333333 301.7318509397453, 1506.6666666666667 297.42855253845755, 1510 297.42855253845755 C 1513.3333333333333 297.42855253845755, 1516.6666666666667 307.16646088418133, 1520 307.3616758221167 C 1523.3333333333333 307.55689076005206, 1526.6666666666667 307.66339265701333, 1530 307.66339265701333 C 1533.3333333333333 307.66339265701333, 1536.6666666666667 302.55230102235424, 1540 299.4637352187035 C 1543.3333333333333 296.37516941505277, 1546.6666666666667 288.81338214573645, 1550 288.81338214573645 C 1553.3333333333333 288.81338214573645, 1556.6666666666667 301.19278873585637, 1560 301.19278873585637 C 1563.3333333333333 301.19278873585637, 1566.6666666666667 294.90714551618134, 1570 294.90714551618134 C 1573.3333333333333 294.90714551618134, 1576.6666666666667 297.48288057026934, 1580 299.4595848131029 C 1583.3333333333333 301.4362890559364, 1586.6666666666667 304.02430394108364, 1590 307.9630396710217 C 1593.3333333333333 311.90177540095976, 1596.6666666666667 326.7805639658782, 1600 327.3204549585772 C 1603.3333333333333 327.86034595127626, 1606.6666666666667 328.16565105688363, 1610 328.16565105688363 C 1613.3333333333333 328.16565105688363, 1616.6666666666667 318.2853551901956, 1620 318.2853551901956 C 1623.3333333333333 318.2853551901956, 1626.6666666666667 326.0895410462606, 1630 326.0895410462606 C 1633.3333333333333 326.0895410462606, 1636.6666666666667 322.9251938426563, 1640 322.9251938426563 C 1643.3333333333333 322.9251938426563, 1646.6666666666667 329.8210580060998, 1650 329.8210580060998 C 1653.3333333333333 329.8210580060998, 1656.6666666666667 312.47848991164904, 1660 312.47848991164904 C 1663.3333333333333 312.47848991164904, 1666.6666666666667 334.5319590488204, 1670 334.5319590488204 C 1673.3333333333333 334.5319590488204, 1676.6666666666667 324.998731442413, 1680 324.998731442413 C 1683.3333333333333 324.998731442413, 1686.6666666666667 341.6311593893422, 1690 341.6311593893422 C 1693.3333333333333 341.6311593893422, 1696.6666666666667 338.639826450087, 1700 336.62656749341954 C 1703.3333333333333 334.6133085367521, 1706.6666666666667 331.41602343991326, 1710 329.0116721269444 C 1713.3333333333333 326.60732081397555, 1716.6666666666667 323.20087130123704, 1720 322.16017476229035 C 1723.3333333333333 321.11947822334366, 1726.6666666666667 320.138515125934, 1730 320.138515125934 C 1733.3333333333333 320.138515125934, 1736.6666666666667 327.423685403694, 1740 327.423685403694 C 1743.3333333333333 327.423685403694, 1746.6666666666667 315.1253124383179, 1750 315.1253124383179 C 1753.3333333333333 315.1253124383179, 1756.6666666666667 332.2601255344447, 1760 332.2601255344447 C 1763.3333333333333 332.2601255344447, 1766.6666666666667 328.7912292050298, 1770 325.99495289693175 C 1773.3333333333333 323.1986765888337, 1776.6666666666667 313.3045619902337, 1780 313.3045619902337 C 1783.3333333333333 313.3045619902337, 1786.6666666666667 332.152046318541, 1790 332.152046318541 C 1793.3333333333333 332.152046318541, 1796.6666666666667 312.7810825078407, 1800 312.7810825078407 C 1803.3333333333333 312.7810825078407, 1806.6666666666667 325.6326847229423, 1810 325.6326847229423 C 1813.3333333333333 325.6326847229423, 1816.6666666666667 321.07036808780526, 1820 321.07036808780526 C 1823.3333333333333 321.07036808780526, 1826.6666666666667 334.2863499810706, 1830 335.2659849406283 C 1833.3333333333333 336.245619900186, 1836.6666666666667 336.90511069246617, 1840 336.90511069246617 C 1843.3333333333333 336.90511069246617, 1846.6666666666667 319.5589537084948, 1850 319.5589537084948 C 1853.3333333333333 319.5589537084948, 1856.6666666666667 329.1614496713629, 1860 329.2684225679782 C 1863.3333333333333 329.37539546459345, 1866.6666666666667 329.32388552669545, 1870 329.4315782345807 C 1873.3333333333333 329.5392709424659, 1876.6666666666667 345.7348910339765, 1880 345.7348910339765 C 1883.3333333333333 345.7348910339765, 1886.6666666666667 332.60688793600457, 1890 332.60688793600457 C 1893.3333333333333 332.60688793600457, 1896.6666666666667 344.34542212216695, 1900 347.50023761959636 C 1903.3333333333333 350.6550531170258, 1906.6666666666667 354.43634416442836, 1910 354.43634416442836 C 1913.3333333333333 354.43634416442836, 1916.6666666666667 338.6698149486371, 1920 338.6698149486371 C 1923.3333333333333 338.6698149486371, 1926.6666666666667 352.5555020570247, 1930 357.70233986790305 C 1933.3333333333333 362.8491776787814, 1936.6666666666667 370.6914217832475, 1940 370.6914217832475 C 1943.3333333333333 370.6914217832475, 1946.6666666666667 369.995178956545, 1950 369.995178956545 C 1953.3333333333333 369.995178956545, 1956.6666666666667 376.48845181151194, 1960 377.6805053659199 C 1963.3333333333333 378.87255892032783, 1966.6666666666667 380.010742363565, 1970 380.010742363565 C 1973.3333333333333 380.010742363565, 1976.6666666666667 378.9120726548057, 1980 378.3554352446878 C 1983.3333333333333 377.7987978345699, 1986.6666666666667 376.9711890189977, 1990 376.6706578808909 C 1993.3333333333333 376.37012674278407, 1996.6666666666667 376.0551765248316, 2000 376.0551765248316 C 2003.3333333333333 376.0551765248316, 2006.6666666666667 387.9250080364059, 2010 400 c 0 0, 0 0, 0 0C 2006.6666666666667 412.0749919635941, 2003.3333333333333 423.9448234751684, 2000 423.9448234751684 C 1996.6666666666667 423.9448234751684, 1993.3333333333333 423.62987325721593, 1990 423.3293421191091 C 1986.6666666666667 423.0288109810023, 1983.3333333333333 422.2012021654301, 1980 421.6445647553122 C 1976.6666666666667 421.0879273451943, 1973.3333333333333 419.989257636435, 1970 419.989257636435 C 1966.6666666666667 419.989257636435, 1963.3333333333333 421.12744107967217, 1960 422.3194946340801 C 1956.6666666666667 423.51154818848806, 1953.3333333333333 430.004821043455, 1950 430.004821043455 C 1946.6666666666667 430.004821043455, 1943.3333333333333 429.3085782167525, 1940 429.3085782167525 C 1936.6666666666667 429.3085782167525, 1933.3333333333333 437.1508223212186, 1930 442.29766013209695 C 1926.6666666666667 447.4444979429753, 1923.3333333333333 461.3301850513629, 1920 461.3301850513629 C 1916.6666666666667 461.3301850513629, 1913.3333333333333 445.56365583557164, 1910 445.56365583557164 C 1906.6666666666667 445.56365583557164, 1903.3333333333333 449.3449468829742, 1900 452.49976238040364 C 1896.6666666666667 455.65457787783305, 1893.3333333333333 467.39311206399543, 1890 467.39311206399543 C 1886.6666666666667 467.39311206399543, 1883.3333333333333 454.2651089660235, 1880 454.2651089660235 C 1876.6666666666667 454.2651089660235, 1873.3333333333333 470.4607290575341, 1870 470.5684217654193 C 1866.6666666666667 470.67611447330455, 1863.3333333333333 470.62460453540655, 1860 470.7315774320218 C 1856.6666666666667 470.8385503286371, 1853.3333333333333 480.4410462915052, 1850 480.4410462915052 C 1846.6666666666667 480.4410462915052, 1843.3333333333333 463.09488930753383, 1840 463.09488930753383 C 1836.6666666666667 463.09488930753383, 1833.3333333333333 463.754380099814, 1830 464.7340150593717 C 1826.6666666666667 465.7136500189294, 1823.3333333333333 478.92963191219474, 1820 478.92963191219474 C 1816.6666666666667 478.92963191219474, 1813.3333333333333 474.3673152770577, 1810 474.3673152770577 C 1806.6666666666667 474.3673152770577, 1803.3333333333333 487.2189174921593, 1800 487.2189174921593 C 1796.6666666666667 487.2189174921593, 1793.3333333333333 467.847953681459, 1790 467.847953681459 C 1786.6666666666667 467.847953681459, 1783.3333333333333 486.6954380097663, 1780 486.6954380097663 C 1776.6666666666667 486.6954380097663, 1773.3333333333333 476.8013234111663, 1770 474.00504710306825 C 1766.6666666666667 471.2087707949702, 1763.3333333333333 467.7398744655553, 1760 467.7398744655553 C 1756.6666666666667 467.7398744655553, 1753.3333333333333 484.8746875616821, 1750 484.8746875616821 C 1746.6666666666667 484.8746875616821, 1743.3333333333333 472.576314596306, 1740 472.576314596306 C 1736.6666666666667 472.576314596306, 1733.3333333333333 479.861484874066, 1730 479.861484874066 C 1726.6666666666667 479.861484874066, 1723.3333333333333 478.88052177665634, 1720 477.83982523770965 C 1716.6666666666667 476.79912869876296, 1713.3333333333333 473.39267918602445, 1710 470.9883278730556 C 1706.6666666666667 468.58397656008674, 1703.3333333333333 465.3866914632479, 1700 463.37343250658046 C 1696.6666666666667 461.360173549913, 1693.3333333333333 458.3688406106578, 1690 458.3688406106578 C 1686.6666666666667 458.3688406106578, 1683.3333333333333 475.001268557587, 1680 475.001268557587 C 1676.6666666666667 475.001268557587, 1673.3333333333333 465.4680409511796, 1670 465.4680409511796 C 1666.6666666666667 465.4680409511796, 1663.3333333333333 487.52151008835096, 1660 487.52151008835096 C 1656.6666666666667 487.52151008835096, 1653.3333333333333 470.1789419939002, 1650 470.1789419939002 C 1646.6666666666667 470.1789419939002, 1643.3333333333333 477.0748061573437, 1640 477.0748061573437 C 1636.6666666666667 477.0748061573437, 1633.3333333333333 473.9104589537394, 1630 473.9104589537394 C 1626.6666666666667 473.9104589537394, 1623.3333333333333 481.7146448098044, 1620 481.7146448098044 C 1616.6666666666667 481.7146448098044, 1613.3333333333333 471.83434894311637, 1610 471.83434894311637 C 1606.6666666666667 471.83434894311637, 1603.3333333333333 472.13965404872374, 1600 472.6795450414228 C 1596.6666666666667 473.2194360341218, 1593.3333333333333 488.09822459904024, 1590 492.0369603289783 C 1586.6666666666667 495.97569605891636, 1583.3333333333333 498.5637109440636, 1580 500.5404151868971 C 1576.6666666666667 502.51711942973066, 1573.3333333333333 505.09285448381866, 1570 505.09285448381866 C 1566.6666666666667 505.09285448381866, 1563.3333333333333 498.80721126414363, 1560 498.80721126414363 C 1556.6666666666667 498.80721126414363, 1553.3333333333333 511.18661785426355, 1550 511.18661785426355 C 1546.6666666666667 511.18661785426355, 1543.3333333333333 503.62483058494723, 1540 500.5362647812965 C 1536.6666666666667 497.44769897764576, 1533.3333333333333 492.33660734298667, 1530 492.33660734298667 C 1526.6666666666667 492.33660734298667, 1523.3333333333333 492.44310923994794, 1520 492.6383241778833 C 1516.6666666666667 492.83353911581867, 1513.3333333333333 502.57144746154245, 1510 502.57144746154245 C 1506.6666666666667 502.57144746154245, 1503.3333333333333 498.2681490602547, 1500 498.2681490602547 C 1496.6666666666667 498.2681490602547, 1493.3333333333333 499.82194398125745, 1490 501.26427145082516 C 1486.6666666666667 502.7065989203929, 1483.3333333333333 509.0493322874197, 1480 509.0493322874197 C 1476.6666666666667 509.0493322874197, 1473.3333333333333 500.8476559613152, 1470 498.6685851548265 C 1466.6666666666667 496.48951434833776, 1463.3333333333333 493.89778900395123, 1460 493.89778900395123 C 1456.6666666666667 493.89778900395123, 1453.3333333333333 497.40094288656286, 1450 499.66019044857717 C 1446.6666666666667 501.9194380105915, 1443.3333333333333 507.8876138587449, 1440 507.8876138587449 C 1436.6666666666667 507.8876138587449, 1433.3333333333333 498.3673639066531, 1430 498.3673639066531 C 1426.6666666666667 498.3673639066531, 1423.3333333333333 506.73869051719225, 1420 506.73869051719225 C 1416.6666666666667 506.73869051719225, 1413.3333333333333 500.5622648375397, 1410 497.6470874294151 C 1406.6666666666667 494.73191002129045, 1403.3333333333333 492.9249043054661, 1400 489.2222458649926 C 1396.6666666666667 485.5195874245191, 1393.3333333333333 472.9234484821871, 1390 472.9234484821871 C 1386.6666666666667 472.9234484821871, 1383.3333333333333 496.14484873718834, 1380 496.54020691001125 C 1376.6666666666667 496.93556508283416, 1373.3333333333333 496.76093152099423, 1370 497.148519423331 C 1366.6666666666667 497.53610732566773, 1363.3333333333333 510.28083251699263, 1360 510.28083251699263 C 1356.6666666666667 510.28083251699263, 1353.3333333333333 500.0876282382054, 1350 500.0876282382054 C 1346.6666666666667 500.0876282382054, 1343.3333333333333 505.4230396308173, 1340 505.4230396308173 C 1336.6666666666667 505.4230396308173, 1333.3333333333333 497.00043717051255, 1330 497.00043717051255 C 1326.6666666666667 497.00043717051255, 1323.3333333333333 504.02000486222914, 1320 504.02000486222914 C 1316.6666666666667 504.02000486222914, 1313.3333333333333 493.69848486466515, 1310 493.69848486466515 C 1306.6666666666667 493.69848486466515, 1303.3333333333333 510.7407750523207, 1300 510.7407750523207 C 1296.6666666666667 510.7407750523207, 1293.3333333333333 500.35218460104875, 1290 500.35218460104875 C 1286.6666666666667 500.35218460104875, 1283.3333333333333 501.177053219933, 1280 501.88887641302813 C 1276.6666666666667 502.60069960612327, 1273.3333333333333 505.38766037500784, 1270 505.38766037500784 C 1266.6666666666667 505.38766037500784, 1263.3333333333333 505.36623943363486, 1260 505.3241533586129 C 1256.6666666666667 505.2820672835909, 1253.3333333333333 494.7152604953849, 1250 494.7152604953849 C 1246.6666666666667 494.7152604953849, 1243.3333333333333 498.78763803162957, 1240 500.20211805864943 C 1236.6666666666667 501.6165980856693, 1233.3333333333333 503.6615831095903, 1230 503.6615831095903 C 1226.6666666666667 503.6615831095903, 1223.3333333333333 501.2736012322497, 1220 501.2736012322497 C 1216.6666666666667 501.2736012322497, 1213.3333333333333 501.4970986672729, 1210 501.8569692567305 C 1206.6666666666667 502.2168398461881, 1203.3333333333333 509.08584942957174, 1200 509.08584942957174 C 1196.6666666666667 509.08584942957174, 1193.3333333333333 499.4769748173656, 1190 498.1651964941078 C 1186.6666666666667 496.85341817085003, 1183.3333333333333 495.765079369662, 1180 495.765079369662 C 1176.6666666666667 495.765079369662, 1173.3333333333333 500.5616698161711, 1170 502.6589300181759 C 1166.6666666666667 504.7561902201807, 1163.3333333333333 508.44535674265813, 1160 508.44535674265813 C 1156.6666666666667 508.44535674265813, 1153.3333333333333 498.4770438791026, 1150 498.4770438791026 C 1146.6666666666667 498.4770438791026, 1143.3333333333333 501.92125864730286, 1140 503.90604181421486 C 1136.6666666666667 505.89082498112685, 1133.3333333333333 510.4983098345135, 1130 510.4983098345135 C 1126.6666666666667 510.4983098345135, 1123.3333333333333 495.20075408065003, 1120 495.20075408065003 C 1116.6666666666667 495.20075408065003, 1113.3333333333333 502.6641192461824, 1110 502.6641192461824 C 1106.6666666666667 502.6641192461824, 1103.3333333333333 496.21956112702435, 1100 495.57854163831627 C 1096.6666666666667 494.9375221496082, 1093.3333333333333 494.4660438939934, 1090 494.4660438939934 C 1086.6666666666667 494.4660438939934, 1083.3333333333333 497.92228987021105, 1080 499.9007197941338 C 1076.6666666666667 501.87914971805657, 1073.3333333333333 506.4382088035095, 1070 506.4382088035095 C 1066.6666666666667 506.4382088035095, 1063.3333333333333 498.74559185896993, 1060 498.74559185896993 C 1056.6666666666667 498.74559185896993, 1053.3333333333333 503.2238083208156, 1050 503.2238083208156 C 1046.6666666666667 503.2238083208156, 1043.3333333333333 495.863890047192, 1040 494.50562835650334 C 1036.6666666666667 493.1473666658147, 1033.3333333333333 491.8469066148273, 1030 491.8469066148273 C 1026.6666666666667 491.8469066148273, 1023.3333333333334 504.81253633190227, 1020 507.46437009921476 C 1016.6666666666666 510.11620386652726, 1013.3333333333334 512.8014756129473, 1010 512.8014756129473 C 1006.6666666666666 512.8014756129473, 1003.3333333333334 506.6849456876687, 1000 506.6849456876687 C 996.6666666666666 506.6849456876687, 993.3333333333334 509.9770095026085, 990 509.9770095026085 C 986.6666666666666 509.9770095026085, 983.3333333333334 505.80834193502295, 980 503.3250488052427 C 976.6666666666666 500.8417556754625, 973.3333333333334 495.29867927401403, 970 494.8597346082531 C 966.6666666666666 494.4207899424922, 963.3333333333334 494.145788129322, 960 494.145788129322 C 956.6666666666666 494.145788129322, 953.3333333333334 501.65591433351494, 950 501.65591433351494 C 946.6666666666666 501.65591433351494, 943.3333333333334 500.48166303402047, 940 499.6121445780718 C 936.6666666666666 498.74262612212317, 933.3333333333334 496.0074496992995, 930 496.0074496992995 C 926.6666666666666 496.0074496992995, 923.3333333333334 501.94247766435507, 920 501.94247766435507 C 916.6666666666666 501.94247766435507, 913.3333333333334 493.7222092842425, 910 489.79297734775145 C 906.6666666666666 485.86374541126037, 903.3333333333334 478.3461605698928, 900 478.3461605698928 C 896.6666666666666 478.3461605698928, 893.3333333333334 494.8723330402781, 890 494.8723330402781 C 886.6666666666666 494.8723330402781, 883.3333333333334 492.671753342614, 880 491.083858943325 C 876.6666666666666 489.49596454403604, 873.3333333333334 484.66886056008786, 870 484.66886056008786 C 866.6666666666666 484.66886056008786, 863.3333333333334 493.1478952739791, 860 493.1478952739791 C 856.6666666666666 493.1478952739791, 853.3333333333334 483.3086072902298, 850 483.3086072902298 C 846.6666666666666 483.3086072902298, 843.3333333333334 484.80974907020345, 840 486.2721042172693 C 836.6666666666666 487.7344593643352, 833.3333333333334 491.61358978881236, 830 494.714740150834 C 826.6666666666666 497.8158905128557, 823.3333333333334 505.07447466757964, 820 505.07447466757964 C 816.6666666666666 505.07447466757964, 813.3333333333334 497.4005952636246, 810 497.4005952636246 C 806.6666666666666 497.4005952636246, 803.3333333333334 504.7613047581712, 800 504.7613047581712 C 796.6666666666666 504.7613047581712, 793.3333333333334 496.80661136876427, 790 495.24008234866545 C 786.6666666666666 493.67355332856664, 783.3333333333334 492.9605610033386, 780 492.1203544404159 C 776.6666666666666 491.28014787749316, 773.3333333333334 490.00580910444506, 770 490.00580910444506 C 766.6666666666666 490.00580910444506, 763.3333333333334 502.20935455599, 760 502.20935455599 C 756.6666666666666 502.20935455599, 753.3333333333334 499.5816823527815, 750 499.5816823527815 C 746.6666666666666 499.5816823527815, 743.3333333333334 506.52319662356376, 740 506.52319662356376 C 736.6666666666666 506.52319662356376, 733.3333333333334 502.97082102528947, 730 500.0212816935008 C 726.6666666666666 497.0717423617121, 723.3333333333334 490.58707316216555, 720 486.17530624699475 C 716.6666666666666 481.76353933182395, 713.3333333333334 476.23358285052865, 710 473.49908822416455 C 706.6666666666666 470.76459359780046, 703.3333333333334 467.4352104322097, 700 467.4352104322097 C 696.6666666666666 467.4352104322097, 693.3333333333334 489.05444759833136, 690 489.7111353678647 C 686.6666666666666 490.36782313739803, 683.3333333333334 490.115019621343, 680 490.74173990382593 C 676.6666666666666 491.3684601863089, 673.3333333333334 501.444425905583, 670 501.444425905583 C 666.6666666666666 501.444425905583, 663.3333333333334 488.9910153922398, 660 488.9910153922398 C 656.6666666666666 488.9910153922398, 653.3333333333334 491.3618935810378, 650 492.180708691322 C 646.6666666666666 492.99952380160624, 643.3333333333334 493.3791927648115, 640 494.17801292747527 C 636.6666666666666 494.97683309013905, 633.3333333333334 497.17301760252144, 630 497.17301760252144 C 626.6666666666666 497.17301760252144, 623.3333333333334 492.42738220864396, 620 492.42738220864396 C 616.6666666666666 492.42738220864396, 613.3333333333334 509.57941887963716, 610 509.57941887963716 C 606.6666666666666 509.57941887963716, 603.3333333333334 497.39353454370934, 600 494.0965105776381 C 596.6666666666666 490.7994866115669, 593.3333333333334 486.82987170032413, 590 486.82987170032413 C 586.6666666666666 486.82987170032413, 583.3333333333334 490.4984109853491, 580 492.6533402103143 C 576.6666666666666 494.8082694352795, 573.3333333333334 499.9181805191401, 570 499.9181805191401 C 566.6666666666666 499.9181805191401, 563.3333333333334 490.2294502962977, 560 490.2294502962977 C 556.6666666666666 490.2294502962977, 553.3333333333334 503.7554068099275, 550 503.7554068099275 C 546.6666666666666 503.7554068099275, 543.3333333333334 495.7068025833567, 540 495.7068025833567 C 536.6666666666666 495.7068025833567, 533.3333333333334 500.2797401970065, 530 500.2797401970065 C 526.6666666666666 500.2797401970065, 523.3333333333334 499.11292871485205, 520 499.11292871485205 C 516.6666666666666 499.11292871485205, 513.3333333333334 507.3899747574403, 510 507.3899747574403 C 506.6666666666667 507.3899747574403, 503.3333333333333 493.2851076116684, 500 493.2851076116684 C 496.6666666666667 493.2851076116684, 493.3333333333333 501.70106995403705, 490 501.70106995403705 C 486.6666666666667 501.70106995403705, 483.3333333333333 494.80452932709477, 480 494.80452932709477 C 476.6666666666667 494.80452932709477, 473.3333333333333 500.9209749816381, 470 500.9209749816381 C 466.6666666666667 500.9209749816381, 463.3333333333333 496.67684689327064, 460 496.67684689327064 C 456.6666666666667 496.67684689327064, 453.3333333333333 507.0812010308308, 450 507.0812010308308 C 446.6666666666667 507.0812010308308, 443.3333333333333 505.5667583748592, 440 504.2051511777877 C 436.6666666666667 502.84354398071616, 433.3333333333333 497.1588459259346, 430 497.1588459259346 C 426.6666666666667 497.1588459259346, 423.3333333333333 506.3007265113866, 420 506.3007265113866 C 416.6666666666667 506.3007265113866, 413.3333333333333 498.3398497217672, 410 497.94887614892946 C 406.6666666666667 497.5579025760917, 403.3333333333333 497.31812493591815, 400 497.31812493591815 C 396.6666666666667 497.31812493591815, 393.3333333333333 499.12979211370623, 390 499.66421853791945 C 386.6666666666667 500.1986449621327, 383.3333333333333 500.8819444550858, 380 500.8819444550858 C 376.6666666666667 500.8819444550858, 373.3333333333333 491.4721008166242, 370 487.4696619338087 C 366.6666666666667 483.4672230509932, 363.3333333333333 478.7783348461947, 360 476.6008744958225 C 356.6666666666667 474.4234141454503, 353.3333333333333 473.26384357915174, 350 471.9314791611538 C 346.6666666666667 470.59911474315584, 343.3333333333333 468.43745710389095, 340 468.43745710389095 C 336.6666666666667 468.43745710389095, 333.3333333333333 488.1769757953957, 330 488.1769757953957 C 326.6666666666667 488.1769757953957, 323.3333333333333 479.22407289051273, 320 479.22407289051273 C 316.6666666666667 479.22407289051273, 313.3333333333333 487.1956501861808, 310 487.1956501861808 C 306.6666666666667 487.1956501861808, 303.3333333333333 486.1333201575793, 300 484.79640188503976 C 296.6666666666667 483.4594836125002, 293.3333333333333 473.2471704239449, 290 472.5807280820085 C 286.6666666666667 471.91428574007205, 283.3333333333333 472.0748025518447, 280 471.49196629679636 C 276.6666666666667 470.909130041748, 273.3333333333333 467.05456809707863, 270 467.05456809707863 C 266.6666666666667 467.05456809707863, 263.3333333333333 474.8266145625391, 260 476.7654754676394 C 256.6666666666667 478.70433637273976, 253.33333333333334 479.56380779007225, 250 480.91713534777193 C 246.66666666666666 482.2704629054716, 243.33333333333334 484.8894021820327, 240 484.8894021820327 C 236.66666666666666 484.8894021820327, 233.33333333333334 482.10487965199155, 230 479.48529532318986 C 226.66666666666666 476.86571099438817, 223.33333333333334 465.99960652715714, 220 465.08620857985017 C 216.66666666666666 464.1728106325432, 213.33333333333334 464.47438281971944, 210 463.57203559478836 C 206.66666666666666 462.6696883698573, 203.33333333333334 450.8148784917608, 200 450.8148784917608 C 196.66666666666666 450.8148784917608, 193.33333333333334 458.2360829649116, 190 458.2360829649116 C 186.66666666666666 458.2360829649116, 183.33333333333334 457.2923626157034, 180 456.9400990148862 C 176.66666666666666 456.587835414069, 173.33333333333334 456.0479648626419, 170 456.0479648626419 C 166.66666666666666 456.0479648626419, 163.33333333333334 456.91398472733647, 160 456.91398472733647 C 156.66666666666666 456.91398472733647, 153.33333333333334 450.6320492996125, 150 447.4713197054369 C 146.66666666666666 444.31059011126126, 143.33333333333334 440.12107392109044, 140 437.9492749057293 C 136.66666666666666 435.7774758903681, 133.33333333333334 432.9974491428573, 130 432.9974491428573 C 126.66666666666667 432.9974491428573, 123.33333333333333 444.88231542877105, 120 444.88231542877105 C 116.66666666666667 444.88231542877105, 113.33333333333333 434.1765235212399, 110 434.1765235212399 C 106.66666666666667 434.1765235212399, 103.33333333333333 436.1687451710121, 100 436.1687451710121 C 96.66666666666667 436.1687451710121, 93.33333333333333 434.9942941829555, 90 434.9942941829555 C 86.66666666666667 434.9942941829555, 83.33333333333333 435.26919130688054, 80 435.26919130688054 C 76.66666666666667 435.26919130688054, 73.33333333333333 429.0107101146104, 70 429.0107101146104 C 66.66666666666667 429.0107101146104, 63.333333333333336 429.2862018092781, 60 429.61259882890033 C 56.666666666666664 429.93899584852255, 53.333333333333336 431.01512723976134, 50 432.2368188482095 C 46.666666666666664 433.4585104566577, 43.333333333333336 438.3111993185554, 40 438.3111993185554 C 36.666666666666664 438.3111993185554, 33.333333333333336 438.2067138603662, 30 438.2067138603662 C 26.666666666666668 438.2067138603662, 23.333333333333332 441.60908586345846, 20 441.60908586345846 C 16.666666666666668 441.60908586345846, 13.333333333333334 434.01919048806946, 10 427.88833587256147 C 3.3333333333333335 411.6573762711312, 6.666666666666666 421.7574812570535, 10 427.88833587256147 Z" fill="#a0a0a0" stroke="white" stroke-width="5" />
  </g>
</svg>