<svg 
  baseProfile="tiny"
  preserveAspectRatio="keep"
  version="1.2"
  viewBox="-5.000000 -5.000000 2015.000000 805.000000"
  height="100%" width="100%"
  xmlns="http://www.w3.org/2000/svg"
  xmlns:ev="http://www.w3.org/2001/xml-events"
  xmlns:xlink="http://www.w3.org/1999/xlink"
>
  <g style="transform-origin: center center;">
    <path d="M 0 400 C 3.3333333333333335 330.3341352707211, 6.666666666666666 265.2850905990539, 10 265.2850905990539 C 13.333333333333334 265.2850905990539, 16.666666666666668 271.78392617603294, 20 279.135550771889 C 23.333333333333332 286.487175367745, 26.666666666666668 333.2389216647967, 30 333.2389216647967 C 33.333333333333336 333.2389216647967, 36.666666666666664 268.43268698703343, 40 268.43268698703343 C 43.333333333333336 268.43268698703343, 46.666666666666664 311.25685497568054, 50 311.25685497568054 C 53.333333333333336 311.25685497568054, 56.666666666666664 301.87091381581075, 60 301.87091381581075 C 63.333333333333336 301.87091381581075, 66.66666666666667 302.14434482410576, 70 302.6551169968602 C 73.33333333333333 303.1658891696147, 76.66666666666667 327.19342148641994, 80 335.9511183171297 C 83.33333333333333 344.7088151478395, 86.66666666666667 357.64785588022414, 90 357.64785588022414 C 93.33333333333333 357.64785588022414, 96.66666666666667 342.3589897655716, 100 342.3589897655716 C 103.33333333333333 342.3589897655716, 106.66666666666667 350.7442653032284, 110 352.78078177368195 C 113.33333333333333 354.8172982441355, 116.66666666666667 357.1022358041666, 120 357.1022358041666 C 123.33333333333333 357.1022358041666, 126.66666666666667 340.9564810949142, 130 340.9564810949142 C 133.33333333333334 340.9564810949142, 136.66666666666666 350.18732192222944, 140 350.18732192222944 C 143.33333333333334 350.18732192222944, 146.66666666666666 346.40831825856543, 150 346.40831825856543 C 153.33333333333334 346.40831825856543, 156.66666666666666 347.10188080554815, 160 347.10188080554815 C 163.33333333333334 347.10188080554815, 166.66666666666666 328.1712627457236, 170 313.12178675500616 C 173.33333333333334 298.0723107642887, 176.66666666666666 245.86928979480336, 180 245.86928979480336 C 183.33333333333334 245.86928979480336, 186.66666666666666 289.9849488514297, 190 300.93943130682146 C 193.33333333333334 311.89391376221323, 196.66666666666666 317.1739762329337, 200 324.35905869737354 C 203.33333333333334 331.5441411618134, 206.66666666666666 344.3248756076552, 210 344.3248756076552 C 213.33333333333334 344.3248756076552, 216.66666666666666 343.91518098014257, 220 343.91518098014257 C 223.33333333333334 343.91518098014257, 226.66666666666666 352.33345568954445, 230 352.33345568954445 C 233.33333333333334 352.33345568954445, 236.66666666666666 350.66844759164877, 240 349.2878034121793 C 243.33333333333334 347.90715923270983, 246.66666666666666 342.81654694462316, 250 342.81654694462316 C 253.33333333333334 342.81654694462316, 256.6666666666667 350.48987589997427, 260 350.48987589997427 C 263.3333333333333 350.48987589997427, 266.6666666666667 343.44459382137893, 270 337.3527315661112 C 273.3333333333333 331.2608693108434, 276.6666666666667 312.71391048620995, 280 307.33673346138374 C 283.3333333333333 301.95955643655753, 286.6666666666667 296.30714631078814, 290 296.30714631078814 C 293.3333333333333 296.30714631078814, 296.6666666666667 320.0333848767782, 300 320.0333848767782 C 303.3333333333333 320.0333848767782, 306.6666666666667 272.62597072805727, 310 272.62597072805727 C 313.3333333333333 272.62597072805727, 316.6666666666667 289.4278865809265, 320 291.1701541287867 C 323.3333333333333 292.9124216766469, 326.6666666666667 292.9717088601698, 330 294.2122768049269 C 333.3333333333333 295.45284474968395, 336.6666666666667 296.40178958544703, 340 299.00452258846553 C 343.3333333333333 301.60725559148403, 346.6666666666667 315.5514919111404, 350 320.0702015551388 C 353.3333333333333 324.5889111991372, 356.6666666666667 326.10198400963696, 360 330.0637893615127 C 363.3333333333333 334.02559471338844, 366.6666666666667 344.7245489322904, 370 344.7245489322904 C 373.3333333333333 344.7245489322904, 376.6666666666667 329.3216537618785, 380 329.3216537618785 C 383.3333333333333 329.3216537618785, 386.6666666666667 341.186864010551, 390 341.186864010551 C 393.3333333333333 341.186864010551, 396.6666666666667 318.6070968142742, 400 318.6070968142742 C 403.3333333333333 318.6070968142742, 406.6666666666667 325.6237773800192, 410 325.6237773800192 C 413.3333333333333 325.6237773800192, 416.6666666666667 309.75924105950617, 420 309.75924105950617 C 423.3333333333333 309.75924105950617, 426.6666666666667 314.4326390424532, 430 314.4326390424532 C 433.3333333333333 314.4326390424532, 436.6666666666667 287.9063120295856, 440 280.6550707763805 C 443.3333333333333 273.40382952317543, 446.6666666666667 264.61216194776046, 450 264.61216194776046 C 453.3333333333333 264.61216194776046, 456.6666666666667 314.122571730999, 460 314.122571730999 C 463.3333333333333 314.122571730999, 466.6666666666667 308.827266543644, 470 308.827266543644 C 473.3333333333333 308.827266543644, 476.6666666666667 318.5417058183804, 480 323.5850906796101 C 483.3333333333333 328.6284755408398, 486.6666666666667 339.1068492883225, 490 339.1068492883225 C 493.3333333333333 339.1068492883225, 496.6666666666667 333.7384536625931, 500 333.7384536625931 C 503.3333333333333 333.7384536625931, 506.6666666666667 345.3102424154317, 510 345.3102424154317 C 513.3333333333334 345.3102424154317, 516.6666666666666 345.0456989193868, 520 344.620288873574 C 523.3333333333334 344.1948788277612, 526.6666666666666 340.82739479081624, 530 336.12718085707877 C 533.3333333333334 331.4269669233413, 536.6666666666666 296.6168481098786, 540 294.62477464595503 C 543.3333333333334 292.63270118203144, 546.6666666666666 293.01802411698833, 550 291.40483358551944 C 553.3333333333334 289.79164305405055, 556.6666666666666 281.6672638863598, 560 281.6672638863598 C 563.3333333333334 281.6672638863598, 566.6666666666666 286.1137934592879, 570 288.3450453915435 C 573.3333333333334 290.57629732379917, 576.6666666666666 295.05485208913313, 580 295.05485208913313 C 583.3333333333334 295.05485208913313, 586.6666666666666 292.5214663459747, 590 292.5214663459747 C 593.3333333333334 292.5214663459747, 596.6666666666666 293.81720458550814, 600 293.81720458550814 C 603.3333333333334 293.81720458550814, 606.6666666666666 268.2644845148855, 610 268.2644845148855 C 613.3333333333334 268.2644845148855, 616.6666666666666 296.3185285441039, 620 299.4357215503839 C 623.3333333333334 302.5529145566639, 626.6666666666666 303.3765936359948, 630 304.93667196772526 C 633.3333333333334 306.4967502994557, 636.6666666666666 309.00929163851197, 640 309.00929163851197 C 643.3333333333334 309.00929163851197, 646.6666666666666 300.0244008428762, 650 300.0244008428762 C 653.3333333333334 300.0244008428762, 656.6666666666666 303.0287261849974, 660 303.0287261849974 C 663.3333333333334 303.0287261849974, 666.6666666666666 290.67343153230235, 670 282.21124142935594 C 673.3333333333334 273.74905132640953, 676.6666666666666 249.68591177578648, 680 249.68591177578648 C 683.3333333333334 249.68591177578648, 686.6666666666666 255.17505286182458, 690 260.4578396112016 C 693.3333333333334 265.7406263605787, 696.6666666666666 290.0249388356988, 700 290.4319472581226 C 703.3333333333334 290.8389556805464, 706.6666666666666 290.6796379407298, 710 291.05515335370194 C 713.3333333333334 291.4306687666741, 716.6666666666666 296.8360422070199, 720 296.9122835054391 C 723.3333333333334 296.98852480385835, 726.6666666666666 297.0289228660856, 730 297.0289228660856 C 733.3333333333334 297.0289228660856, 736.6666666666666 275.54149526196977, 740 275.54149526196977 C 743.3333333333334 275.54149526196977, 746.6666666666666 282.49039778440874, 750 286.6871193357787 C 753.3333333333334 290.8838408871486, 756.6666666666666 297.25928781414103, 760 301.15202342159233 C 763.3333333333334 305.04475902904363, 766.6666666666666 310.9438182909283, 770 310.9438182909283 C 773.3333333333334 310.9438182909283, 776.6666666666666 291.9294033761073, 780 291.9294033761073 C 783.3333333333334 291.9294033761073, 786.6666666666666 306.5478772787481, 790 306.5478772787481 C 793.3333333333334 306.5478772787481, 796.6666666666666 301.8802081019777, 800 297.17340488468733 C 803.3333333333334 292.46660166739696, 806.6666666666666 268.5744234407377, 810 268.5744234407377 C 813.3333333333334 268.5744234407377, 816.6666666666666 270.3540088936791, 820 272.58860712178597 C 823.3333333333334 274.8232053498928, 826.6666666666666 289.79642396252336, 830 292.9047918615174 C 833.3333333333334 296.0131597605115, 836.6666666666666 298.24073886197965, 840 298.95611971433357 C 843.3333333333334 299.6715005666875, 846.6666666666666 299.60869815843216, 850 300.2604932473034 C 853.3333333333334 300.9122883361746, 856.6666666666666 304.16423048930494, 860 304.16423048930494 C 863.3333333333334 304.16423048930494, 866.6666666666666 278.0771227219958, 870 274.93238002434214 C 873.3333333333334 271.78763732668847, 876.6666666666666 269.3076011126286, 880 269.3076011126286 C 883.3333333333334 269.3076011126286, 886.6666666666666 301.1226247853132, 890 301.1226247853132 C 893.3333333333334 301.1226247853132, 896.6666666666666 298.7918503784983, 900 298.7918503784983 C 903.3333333333334 298.7918503784983, 906.6666666666666 305.22875507273085, 910 305.22875507273085 C 913.3333333333334 305.22875507273085, 916.6666666666666 282.7286616365698, 920 282.7286616365698 C 923.3333333333334 282.7286616365698, 926.6666666666666 312.5070315060262, 930 312.5070315060262 C 933.3333333333334 312.5070315060262, 936.6666666666666 276.35538866371263, 940 271.7522982235761 C 943.3333333333334 267.1492077834395, 946.6666666666666 263.4392768584851, 950 263.4392768584851 C 953.3333333333334 263.4392768584851, 956.6666666666666 267.3250109268518, 960 271.46253579550114 C 963.3333333333334 275.6000606641505, 966.6666666666666 298.86783433530377, 970 298.86783433530377 C 973.3333333333334 298.86783433530377, 976.6666666666666 293.4849064919314, 980 293.4849064919314 C 983.3333333333334 293.4849064919314, 986.6666666666666 300.1989647777835, 990 300.1989647777835 C 993.3333333333334 300.1989647777835, 996.6666666666666 294.5793199124989, 1000 289.74078855081257 C 1003.3333333333334 284.90225718912626, 1006.6666666666666 266.0238112440724, 1010 266.0238112440724 C 1013.3333333333334 266.0238112440724, 1016.6666666666666 279.48965515220164, 1020 287.0318466338565 C 1023.3333333333334 294.57403811551137, 1026.6666666666667 310.0800469651732, 1030 311.54717537094615 C 1033.3333333333333 313.0143037767191, 1036.6666666666667 313.9649025720558, 1040 313.9649025720558 C 1043.3333333333333 313.9649025720558, 1046.6666666666667 302.1566170047214, 1050 302.1566170047214 C 1053.3333333333333 302.1566170047214, 1056.6666666666667 304.36819102431963, 1060 304.36819102431963 C 1063.3333333333333 304.36819102431963, 1066.6666666666667 298.29231453901855, 1070 294.9492339968478 C 1073.3333333333333 291.60615345467704, 1076.6666666666667 286.9716227401715, 1080 284.22514399738884 C 1083.3333333333333 281.4786652546062, 1086.6666666666667 277.53560128292725, 1090 277.53560128292725 C 1093.3333333333333 277.53560128292725, 1096.6666666666667 289.13844066324066, 1100 295.6692341942137 C 1103.3333333333333 302.2000277251867, 1106.6666666666667 316.9755899883988, 1110 316.9755899883988 C 1113.3333333333333 316.9755899883988, 1116.6666666666667 285.8818801155426, 1120 285.8818801155426 C 1123.3333333333333 285.8818801155426, 1126.6666666666667 298.37926315372846, 1130 298.37926315372846 C 1133.3333333333333 298.37926315372846, 1136.6666666666667 269.1871578717896, 1140 269.1871578717896 C 1143.3333333333333 269.1871578717896, 1146.6666666666667 277.510047501259, 1150 282.9376368385749 C 1153.3333333333333 288.3652261758908, 1156.6666666666667 300.7887908802078, 1160 302.89592428366245 C 1163.3333333333333 305.0030576871171, 1166.6666666666667 306.65135415287216, 1170 306.65135415287216 C 1173.3333333333333 306.65135415287216, 1176.6666666666667 306.3118242898276, 1180 305.8714023721633 C 1183.3333333333333 305.430980454499, 1186.6666666666667 301.5530440045652, 1190 301.5530440045652 C 1193.3333333333333 301.5530440045652, 1196.6666666666667 304.5815935609265, 1200 304.5815935609265 C 1203.3333333333333 304.5815935609265, 1206.6666666666667 253.7236170420589, 1210 253.7236170420589 C 1213.3333333333333 253.7236170420589, 1216.6666666666667 260.3480913184612, 1220 264.8493704631821 C 1223.3333333333333 269.350649607903, 1226.6666666666667 276.2557251419844, 1230 282.0242725453974 C 1233.3333333333333 287.79281994881046, 1236.6666666666667 296.7200685863339, 1240 299.4626606122049 C 1243.3333333333333 302.2052526380759, 1246.6666666666667 304.8466957304717, 1250 304.8466957304717 C 1253.3333333333333 304.8466957304717, 1256.6666666666667 290.59768755573594, 1260 289.32894101608247 C 1263.3333333333333 288.060194476429, 1266.6666666666667 288.48334127330435, 1270 287.15979387391707 C 1273.3333333333333 285.8362464745298, 1276.6666666666667 263.73300670006086, 1280 263.73300670006086 C 1283.3333333333333 263.73300670006086, 1286.6666666666667 300.89194513014917, 1290 300.89194513014917 C 1293.3333333333333 300.89194513014917, 1296.6666666666667 300.3569318474889, 1300 300.3569318474889 C 1303.3333333333333 300.3569318474889, 1306.6666666666667 312.39210594757924, 1310 312.39210594757924 C 1313.3333333333333 312.39210594757924, 1316.6666666666667 308.71859489173005, 1320 306.00371360077287 C 1323.3333333333333 303.2888323098157, 1326.6666666666667 298.0692981758753, 1330 294.7710713736765 C 1333.3333333333333 291.47284457147765, 1336.6666666666667 285.92953881581883, 1340 285.92953881581883 C 1343.3333333333333 285.92953881581883, 1346.6666666666667 288.0899507061398, 1350 288.59041597831094 C 1353.3333333333333 289.0908812504821, 1356.6666666666667 289.63613716682346, 1360 289.63613716682346 C 1363.3333333333333 289.63613716682346, 1366.6666666666667 280.35764686336574, 1370 280.35764686336574 C 1373.3333333333333 280.35764686336574, 1376.6666666666667 301.5803569655158, 1380 301.5803569655158 C 1383.3333333333333 301.5803569655158, 1386.6666666666667 298.4829894100475, 1390 294.85662179745316 C 1393.3333333333333 291.23025418485884, 1396.6666666666667 275.9222122328105, 1400 266.37619351194337 C 1403.3333333333333 256.8301747910762, 1406.6666666666667 237.5787549460538, 1410 237.5787549460538 C 1413.3333333333333 237.5787549460538, 1416.6666666666667 270.2497144705534, 1420 275.8429845182632 C 1423.3333333333333 281.43625456597306, 1426.6666666666667 284.5253475838832, 1430 286.5891104680055 C 1433.3333333333333 288.6528733521278, 1436.6666666666667 288.7789252192372, 1440 290.93735747540086 C 1443.3333333333333 293.09578973156454, 1446.6666666666667 303.61348961201975, 1450 303.61348961201975 C 1453.3333333333333 303.61348961201975, 1456.6666666666667 292.1917355502952, 1460 292.1917355502952 C 1463.3333333333333 292.1917355502952, 1466.6666666666667 293.16331780947786, 1470 293.16331780947786 C 1473.3333333333333 293.16331780947786, 1476.6666666666667 231.47654681161097, 1480 231.47654681161097 C 1483.3333333333333 231.47654681161097, 1486.6666666666667 281.90024114385284, 1490 281.90024114385284 C 1493.3333333333333 281.90024114385284, 1496.6666666666667 279.50183997195643, 1500 279.50183997195643 C 1503.3333333333333 279.50183997195643, 1506.6666666666667 288.4378674948612, 1510 292.8341779724003 C 1513.3333333333333 297.2304884499394, 1516.6666666666667 305.88275505350316, 1520 305.88275505350316 C 1523.3333333333333 305.88275505350316, 1526.6666666666667 297.8909385140693, 1530 293.54498988529383 C 1533.3333333333333 289.19904125651834, 1536.6666666666667 282.72791179973615, 1540 279.72283466750685 C 1543.3333333333333 276.71775753527754, 1546.6666666666667 273.0338337013733, 1550 273.0338337013733 C 1553.3333333333333 273.0338337013733, 1556.6666666666667 300.2039354322893, 1560 302.13099523997505 C 1563.3333333333333 304.0580550476608, 1566.6666666666667 304.10695953658075, 1570 305.3404175304281 C 1573.3333333333333 306.5738755242755, 1576.6666666666667 309.70907347327767, 1580 309.70907347327767 C 1583.3333333333333 309.70907347327767, 1586.6666666666667 306.585065595299, 1590 304.38622540638994 C 1593.3333333333333 302.1873852174809, 1596.6666666666667 295.71476224916614, 1600 295.71476224916614 C 1603.3333333333333 295.71476224916614, 1606.6666666666667 297.8502609951723, 1610 299.2699768412524 C 1613.3333333333333 300.6896926873325, 1616.6666666666667 302.0071405624787, 1620 304.5806354706455 C 1623.3333333333333 307.15413037881234, 1626.6666666666667 317.348812460547, 1630 318.7148050032422 C 1633.3333333333333 320.0807975459374, 1636.6666666666667 321.1111907869991, 1640 321.1111907869991 C 1643.3333333333333 321.1111907869991, 1646.6666666666667 320.10678024058075, 1650 320.10678024058075 C 1653.3333333333333 320.10678024058075, 1656.6666666666667 321.17565140043706, 1660 321.56700556777724 C 1663.3333333333333 321.9583597351174, 1666.6666666666667 322.54868641509233, 1670 322.54868641509233 C 1673.3333333333333 322.54868641509233, 1676.6666666666667 306.84737972328395, 1680 306.84737972328395 C 1683.3333333333333 306.84737972328395, 1686.6666666666667 310.79727341997324, 1690 310.9072234824701 C 1693.3333333333333 311.01717354496697, 1696.6666666666667 310.96833898107406, 1700 311.07913210755027 C 1703.3333333333333 311.1899252340265, 1706.6666666666667 316.0747194387268, 1710 316.0747194387268 C 1713.3333333333333 316.0747194387268, 1716.6666666666667 308.38744542036966, 1720 308.38744542036966 C 1723.3333333333333 308.38744542036966, 1726.6666666666667 314.7000387870354, 1730 314.7000387870354 C 1733.3333333333333 314.7000387870354, 1736.6666666666667 306.62843747278043, 1740 306.62843747278043 C 1743.3333333333333 306.62843747278043, 1746.6666666666667 312.6601234673126, 1750 312.6601234673126 C 1753.3333333333333 312.6601234673126, 1756.6666666666667 304.9256941450786, 1760 304.9256941450786 C 1763.3333333333333 304.9256941450786, 1766.6666666666667 306.9502235658856, 1770 308.67798168563354 C 1773.3333333333333 310.4057398053815, 1776.6666666666667 312.47352345334514, 1780 317.056532389669 C 1783.3333333333333 321.6395413259928, 1786.6666666666667 351.8230610238435, 1790 355.3524304650026 C 1793.3333333333333 358.88179990616175, 1796.6666666666667 358.1712174437308, 1800 361.4957404907713 C 1803.3333333333333 364.8202635378118, 1806.6666666666667 387.98487958470173, 1810 387.98487958470173 C 1813.3333333333333 387.98487958470173, 1816.6666666666667 369.4858156211786, 1820 369.4858156211786 C 1823.3333333333333 369.4858156211786, 1826.6666666666667 393.04306791650924, 1830 393.04306791650924 C 1833.3333333333333 393.04306791650924, 1836.6666666666667 368.63715215711534, 1840 368.63715215711534 C 1843.3333333333333 368.63715215711534, 1846.6666666666667 387.4860091966204, 1850 387.4860091966204 C 1853.3333333333333 387.4860091966204, 1856.6666666666667 366.379865372539, 1860 366.379865372539 C 1863.3333333333333 366.379865372539, 1866.6666666666667 384.2644379024693, 1870 384.2644379024693 C 1873.3333333333333 384.2644379024693, 1876.6666666666667 305.027659598005, 1880 305.027659598005 C 1883.3333333333333 305.027659598005, 1886.6666666666667 367.50852069860264, 1890 367.50852069860264 C 1893.3333333333333 367.50852069860264, 1896.6666666666667 366.5408583224489, 1900 366.5408583224489 C 1903.3333333333333 366.5408583224489, 1906.6666666666667 384.7425457409665, 1910 384.7425457409665 C 1913.3333333333333 384.7425457409665, 1916.6666666666667 359.78025046614135, 1920 359.78025046614135 C 1923.3333333333333 359.78025046614135, 1926.6666666666667 384.30803720407357, 1930 384.30803720407357 C 1933.3333333333333 384.30803720407357, 1936.6666666666667 341.75186887033146, 1940 341.75186887033146 C 1943.3333333333333 341.75186887033146, 1946.6666666666667 343.95398133846146, 1950 346.26029487544855 C 1953.3333333333333 348.56660841243564, 1956.6666666666667 355.4037425254551, 1960 361.12914576644823 C 1963.3333333333333 366.8545490074414, 1966.6666666666667 381.46036916280707, 1970 381.46036916280707 C 1973.3333333333333 381.46036916280707, 1976.6666666666667 377.9142131129341, 1980 375.11946380877646 C 1983.3333333333333 372.32471450461884, 1986.6666666666667 367.28425986889016, 1990 362.74879582638084 C 1993.3333333333333 358.2133317838715, 1996.6666666666667 347.63240530767473, 2000 347.63240530767473 C 2003.3333333333333 347.63240530767473, 2006.6666666666667 371.296804234053, 2010 400 c 0 0, 0 0, 0 0C 2006.6666666666667 428.703195765947, 2003.3333333333333 452.36759469232527, 2000 452.36759469232527 C 1996.6666666666667 452.36759469232527, 1993.3333333333333 441.7866682161285, 1990 437.25120417361916 C 1986.6666666666667 432.71574013110984, 1983.3333333333333 427.67528549538116, 1980 424.88053619122354 C 1976.6666666666667 422.0857868870659, 1973.3333333333333 418.53963083719293, 1970 418.53963083719293 C 1966.6666666666667 418.53963083719293, 1963.3333333333333 433.1454509925586, 1960 438.87085423355177 C 1956.6666666666667 444.5962574745449, 1953.3333333333333 451.43339158756436, 1950 453.73970512455145 C 1946.6666666666667 456.04601866153854, 1943.3333333333333 458.24813112966854, 1940 458.24813112966854 C 1936.6666666666667 458.24813112966854, 1933.3333333333333 415.69196279592643, 1930 415.69196279592643 C 1926.6666666666667 415.69196279592643, 1923.3333333333333 440.21974953385865, 1920 440.21974953385865 C 1916.6666666666667 440.21974953385865, 1913.3333333333333 415.2574542590335, 1910 415.2574542590335 C 1906.6666666666667 415.2574542590335, 1903.3333333333333 433.4591416775511, 1900 433.4591416775511 C 1896.6666666666667 433.4591416775511, 1893.3333333333333 432.49147930139736, 1890 432.49147930139736 C 1886.6666666666667 432.49147930139736, 1883.3333333333333 494.972340401995, 1880 494.972340401995 C 1876.6666666666667 494.972340401995, 1873.3333333333333 415.7355620975307, 1870 415.7355620975307 C 1866.6666666666667 415.7355620975307, 1863.3333333333333 433.620134627461, 1860 433.620134627461 C 1856.6666666666667 433.620134627461, 1853.3333333333333 412.5139908033796, 1850 412.5139908033796 C 1846.6666666666667 412.5139908033796, 1843.3333333333333 431.36284784288466, 1840 431.36284784288466 C 1836.6666666666667 431.36284784288466, 1833.3333333333333 406.95693208349076, 1830 406.95693208349076 C 1826.6666666666667 406.95693208349076, 1823.3333333333333 430.5141843788214, 1820 430.5141843788214 C 1816.6666666666667 430.5141843788214, 1813.3333333333333 412.01512041529827, 1810 412.01512041529827 C 1806.6666666666667 412.01512041529827, 1803.3333333333333 435.1797364621882, 1800 438.5042595092287 C 1796.6666666666667 441.8287825562692, 1793.3333333333333 441.11820009383825, 1790 444.6475695349974 C 1786.6666666666667 448.1769389761565, 1783.3333333333333 478.3604586740072, 1780 482.943467610331 C 1776.6666666666667 487.52647654665486, 1773.3333333333333 489.5942601946185, 1770 491.32201831436646 C 1766.6666666666667 493.0497764341144, 1763.3333333333333 495.0743058549214, 1760 495.0743058549214 C 1756.6666666666667 495.0743058549214, 1753.3333333333333 487.3398765326874, 1750 487.3398765326874 C 1746.6666666666667 487.3398765326874, 1743.3333333333333 493.37156252721957, 1740 493.37156252721957 C 1736.6666666666667 493.37156252721957, 1733.3333333333333 485.2999612129646, 1730 485.2999612129646 C 1726.6666666666667 485.2999612129646, 1723.3333333333333 491.61255457963034, 1720 491.61255457963034 C 1716.6666666666667 491.61255457963034, 1713.3333333333333 483.9252805612732, 1710 483.9252805612732 C 1706.6666666666667 483.9252805612732, 1703.3333333333333 488.8100747659735, 1700 488.92086789244973 C 1696.6666666666667 489.03166101892594, 1693.3333333333333 488.98282645503303, 1690 489.0927765175299 C 1686.6666666666667 489.20272658002676, 1683.3333333333333 493.15262027671605, 1680 493.15262027671605 C 1676.6666666666667 493.15262027671605, 1673.3333333333333 477.45131358490767, 1670 477.45131358490767 C 1666.6666666666667 477.45131358490767, 1663.3333333333333 478.0416402648826, 1660 478.43299443222276 C 1656.6666666666667 478.82434859956294, 1653.3333333333333 479.89321975941925, 1650 479.89321975941925 C 1646.6666666666667 479.89321975941925, 1643.3333333333333 478.8888092130009, 1640 478.8888092130009 C 1636.6666666666667 478.8888092130009, 1633.3333333333333 479.9192024540626, 1630 481.2851949967578 C 1626.6666666666667 482.651187539453, 1623.3333333333333 492.84586962118766, 1620 495.4193645293545 C 1616.6666666666667 497.9928594375213, 1613.3333333333333 499.3103073126675, 1610 500.7300231587476 C 1606.6666666666667 502.1497390048277, 1603.3333333333333 504.28523775083386, 1600 504.28523775083386 C 1596.6666666666667 504.28523775083386, 1593.3333333333333 497.8126147825191, 1590 495.61377459361006 C 1586.6666666666667 493.414934404701, 1583.3333333333333 490.29092652672233, 1580 490.29092652672233 C 1576.6666666666667 490.29092652672233, 1573.3333333333333 493.4261244757245, 1570 494.6595824695719 C 1566.6666666666667 495.89304046341925, 1563.3333333333333 495.9419449523392, 1560 497.86900476002495 C 1556.6666666666667 499.7960645677107, 1553.3333333333333 526.9661662986267, 1550 526.9661662986267 C 1546.6666666666667 526.9661662986267, 1543.3333333333333 523.2822424647225, 1540 520.2771653324932 C 1536.6666666666667 517.2720882002639, 1533.3333333333333 510.80095874348166, 1530 506.45501011470617 C 1526.6666666666667 502.1090614859307, 1523.3333333333333 494.11724494649684, 1520 494.11724494649684 C 1516.6666666666667 494.11724494649684, 1513.3333333333333 502.7695115500606, 1510 507.1658220275997 C 1506.6666666666667 511.5621325051388, 1503.3333333333333 520.4981600280436, 1500 520.4981600280436 C 1496.6666666666667 520.4981600280436, 1493.3333333333333 518.0997588561472, 1490 518.0997588561472 C 1486.6666666666667 518.0997588561472, 1483.3333333333333 568.523453188389, 1480 568.523453188389 C 1476.6666666666667 568.523453188389, 1473.3333333333333 506.83668219052214, 1470 506.83668219052214 C 1466.6666666666667 506.83668219052214, 1463.3333333333333 507.8082644497048, 1460 507.8082644497048 C 1456.6666666666667 507.8082644497048, 1453.3333333333333 496.38651038798025, 1450 496.38651038798025 C 1446.6666666666667 496.38651038798025, 1443.3333333333333 506.90421026843546, 1440 509.06264252459914 C 1436.6666666666667 511.2210747807628, 1433.3333333333333 511.3471266478722, 1430 513.4108895319945 C 1426.6666666666667 515.4746524161168, 1423.3333333333333 518.5637454340269, 1420 524.1570154817368 C 1416.6666666666667 529.7502855294466, 1413.3333333333333 562.4212450539462, 1410 562.4212450539462 C 1406.6666666666667 562.4212450539462, 1403.3333333333333 543.1698252089238, 1400 533.6238064880566 C 1396.6666666666667 524.0777877671894, 1393.3333333333333 508.76974581514116, 1390 505.14337820254684 C 1386.6666666666667 501.5170105899525, 1383.3333333333333 498.4196430344842, 1380 498.4196430344842 C 1376.6666666666667 498.4196430344842, 1373.3333333333333 519.6423531366343, 1370 519.6423531366343 C 1366.6666666666667 519.6423531366343, 1363.3333333333333 510.36386283317654, 1360 510.36386283317654 C 1356.6666666666667 510.36386283317654, 1353.3333333333333 510.9091187495179, 1350 511.40958402168906 C 1346.6666666666667 511.9100492938602, 1343.3333333333333 514.0704611841811, 1340 514.0704611841811 C 1336.6666666666667 514.0704611841811, 1333.3333333333333 508.52715542852235, 1330 505.2289286263235 C 1326.6666666666667 501.9307018241247, 1323.3333333333333 496.7111676901843, 1320 493.99628639922713 C 1316.6666666666667 491.28140510826995, 1313.3333333333333 487.60789405242076, 1310 487.60789405242076 C 1306.6666666666667 487.60789405242076, 1303.3333333333333 499.6430681525111, 1300 499.6430681525111 C 1296.6666666666667 499.6430681525111, 1293.3333333333333 499.10805486985083, 1290 499.10805486985083 C 1286.6666666666667 499.10805486985083, 1283.3333333333333 536.2669932999391, 1280 536.2669932999391 C 1276.6666666666667 536.2669932999391, 1273.3333333333333 514.1637535254702, 1270 512.8402061260829 C 1266.6666666666667 511.51665872669565, 1263.3333333333333 511.939805523571, 1260 510.67105898391753 C 1256.6666666666667 509.40231244426406, 1253.3333333333333 495.1533042695283, 1250 495.1533042695283 C 1246.6666666666667 495.1533042695283, 1243.3333333333333 497.7947473619241, 1240 500.5373393877951 C 1236.6666666666667 503.2799314136661, 1233.3333333333333 512.2071800511895, 1230 517.9757274546025 C 1226.6666666666667 523.7442748580156, 1223.3333333333333 530.649350392097, 1220 535.1506295368179 C 1216.6666666666667 539.6519086815388, 1213.3333333333333 546.2763829579411, 1210 546.2763829579411 C 1206.6666666666667 546.2763829579411, 1203.3333333333333 495.4184064390735, 1200 495.4184064390735 C 1196.6666666666667 495.4184064390735, 1193.3333333333333 498.4469559954348, 1190 498.4469559954348 C 1186.6666666666667 498.4469559954348, 1183.3333333333333 494.569019545501, 1180 494.1285976278367 C 1176.6666666666667 493.6881757101724, 1173.3333333333333 493.34864584712784, 1170 493.34864584712784 C 1166.6666666666667 493.34864584712784, 1163.3333333333333 494.9969423128829, 1160 497.10407571633755 C 1156.6666666666667 499.2112091197922, 1153.3333333333333 511.6347738241092, 1150 517.0623631614251 C 1146.6666666666667 522.489952498741, 1143.3333333333333 530.8128421282104, 1140 530.8128421282104 C 1136.6666666666667 530.8128421282104, 1133.3333333333333 501.62073684627154, 1130 501.62073684627154 C 1126.6666666666667 501.62073684627154, 1123.3333333333333 514.1181198844574, 1120 514.1181198844574 C 1116.6666666666667 514.1181198844574, 1113.3333333333333 483.0244100116012, 1110 483.0244100116012 C 1106.6666666666667 483.0244100116012, 1103.3333333333333 497.7999722748133, 1100 504.3307658057863 C 1096.6666666666667 510.86155933675934, 1093.3333333333333 522.4643987170728, 1090 522.4643987170728 C 1086.6666666666667 522.4643987170728, 1083.3333333333333 518.5213347453938, 1080 515.7748560026112 C 1076.6666666666667 513.0283772598285, 1073.3333333333333 508.39384654532296, 1070 505.0507660031522 C 1066.6666666666667 501.70768546098145, 1063.3333333333333 495.63180897568037, 1060 495.63180897568037 C 1056.6666666666667 495.63180897568037, 1053.3333333333333 497.8433829952786, 1050 497.8433829952786 C 1046.6666666666667 497.8433829952786, 1043.3333333333333 486.0350974279442, 1040 486.0350974279442 C 1036.6666666666667 486.0350974279442, 1033.3333333333333 486.9856962232809, 1030 488.45282462905385 C 1026.6666666666667 489.9199530348268, 1023.3333333333334 505.42596188448863, 1020 512.9681533661435 C 1016.6666666666666 520.5103448477984, 1013.3333333333334 533.9761887559275, 1010 533.9761887559275 C 1006.6666666666666 533.9761887559275, 1003.3333333333334 515.0977428108738, 1000 510.25921144918743 C 996.6666666666666 505.4206800875011, 993.3333333333334 499.8010352222165, 990 499.8010352222165 C 986.6666666666666 499.8010352222165, 983.3333333333334 506.5150935080686, 980 506.5150935080686 C 976.6666666666666 506.5150935080686, 973.3333333333334 501.13216566469623, 970 501.13216566469623 C 966.6666666666666 501.13216566469623, 963.3333333333334 524.3999393358495, 960 528.5374642044989 C 956.6666666666666 532.6749890731483, 953.3333333333334 536.5607231415149, 950 536.5607231415149 C 946.6666666666666 536.5607231415149, 943.3333333333334 532.8507922165604, 940 528.2477017764239 C 936.6666666666666 523.6446113362874, 933.3333333333334 487.4929684939738, 930 487.4929684939738 C 926.6666666666666 487.4929684939738, 923.3333333333334 517.2713383634302, 920 517.2713383634302 C 916.6666666666666 517.2713383634302, 913.3333333333334 494.77124492726915, 910 494.77124492726915 C 906.6666666666666 494.77124492726915, 903.3333333333334 501.2081496215017, 900 501.2081496215017 C 896.6666666666666 501.2081496215017, 893.3333333333334 498.8773752146868, 890 498.8773752146868 C 886.6666666666666 498.8773752146868, 883.3333333333334 530.6923988873714, 880 530.6923988873714 C 876.6666666666666 530.6923988873714, 873.3333333333334 528.2123626733115, 870 525.0676199756579 C 866.6666666666666 521.9228772780042, 863.3333333333334 495.83576951069506, 860 495.83576951069506 C 856.6666666666666 495.83576951069506, 853.3333333333334 499.0877116638254, 850 499.7395067526966 C 846.6666666666666 500.39130184156784, 843.3333333333334 500.3284994333125, 840 501.04388028566643 C 836.6666666666666 501.75926113802035, 833.3333333333334 503.9868402394885, 830 507.0952081384826 C 826.6666666666666 510.20357603747664, 823.3333333333334 525.1767946501072, 820 527.411392878214 C 816.6666666666666 529.6459911063209, 813.3333333333334 531.4255765592623, 810 531.4255765592623 C 806.6666666666666 531.4255765592623, 803.3333333333334 507.53339833260304, 800 502.82659511531267 C 796.6666666666666 498.1197918980223, 793.3333333333334 493.4521227212519, 790 493.4521227212519 C 786.6666666666666 493.4521227212519, 783.3333333333334 508.0705966238927, 780 508.0705966238927 C 776.6666666666666 508.0705966238927, 773.3333333333334 489.0561817090717, 770 489.0561817090717 C 766.6666666666666 489.0561817090717, 763.3333333333334 494.95524097095637, 760 498.84797657840767 C 756.6666666666666 502.74071218585897, 753.3333333333334 509.1161591128514, 750 513.3128806642213 C 746.6666666666666 517.5096022155913, 743.3333333333334 524.4585047380302, 740 524.4585047380302 C 736.6666666666666 524.4585047380302, 733.3333333333334 502.9710771339144, 730 502.9710771339144 C 726.6666666666666 502.9710771339144, 723.3333333333334 503.01147519614165, 720 503.0877164945609 C 716.6666666666666 503.1639577929801, 713.3333333333334 508.5693312333259, 710 508.94484664629806 C 706.6666666666666 509.3203620592702, 703.3333333333334 509.1610443194536, 700 509.5680527418774 C 696.6666666666666 509.9750611643012, 693.3333333333334 534.2593736394213, 690 539.5421603887984 C 686.6666666666666 544.8249471381754, 683.3333333333334 550.3140882242135, 680 550.3140882242135 C 676.6666666666666 550.3140882242135, 673.3333333333334 526.2509486735905, 670 517.7887585706441 C 666.6666666666666 509.32656846769765, 663.3333333333334 496.9712738150026, 660 496.9712738150026 C 656.6666666666666 496.9712738150026, 653.3333333333334 499.9755991571238, 650 499.9755991571238 C 646.6666666666666 499.9755991571238, 643.3333333333334 490.99070836148803, 640 490.99070836148803 C 636.6666666666666 490.99070836148803, 633.3333333333334 493.5032497005443, 630 495.06332803227474 C 626.6666666666666 496.6234063640052, 623.3333333333334 497.4470854433361, 620 500.5642784496161 C 616.6666666666666 503.6814714558961, 613.3333333333334 531.7355154851145, 610 531.7355154851145 C 606.6666666666666 531.7355154851145, 603.3333333333334 506.18279541449186, 600 506.18279541449186 C 596.6666666666666 506.18279541449186, 593.3333333333334 507.4785336540253, 590 507.4785336540253 C 586.6666666666666 507.4785336540253, 583.3333333333334 504.94514791086687, 580 504.94514791086687 C 576.6666666666666 504.94514791086687, 573.3333333333334 509.42370267620083, 570 511.6549546084565 C 566.6666666666666 513.8862065407121, 563.3333333333334 518.3327361136402, 560 518.3327361136402 C 556.6666666666666 518.3327361136402, 553.3333333333334 510.20835694594945, 550 508.59516641448056 C 546.6666666666666 506.98197588301167, 543.3333333333334 507.36729881796856, 540 505.37522535404497 C 536.6666666666666 503.3831518901214, 533.3333333333334 468.5730330766587, 530 463.87281914292123 C 526.6666666666666 459.17260520918376, 523.3333333333334 455.8051211722388, 520 455.379711126426 C 516.6666666666666 454.9543010806132, 513.3333333333334 454.6897575845683, 510 454.6897575845683 C 506.6666666666667 454.6897575845683, 503.3333333333333 466.2615463374069, 500 466.2615463374069 C 496.6666666666667 466.2615463374069, 493.3333333333333 460.8931507116775, 490 460.8931507116775 C 486.6666666666667 460.8931507116775, 483.3333333333333 471.3715244591602, 480 476.4149093203899 C 476.6666666666667 481.4582941816196, 473.3333333333333 491.172733456356, 470 491.172733456356 C 466.6666666666667 491.172733456356, 463.3333333333333 485.877428269001, 460 485.877428269001 C 456.6666666666667 485.877428269001, 453.3333333333333 535.3878380522395, 450 535.3878380522395 C 446.6666666666667 535.3878380522395, 443.3333333333333 526.5961704768246, 440 519.3449292236195 C 436.6666666666667 512.0936879704144, 433.3333333333333 485.5673609575468, 430 485.5673609575468 C 426.6666666666667 485.5673609575468, 423.3333333333333 490.24075894049383, 420 490.24075894049383 C 416.6666666666667 490.24075894049383, 413.3333333333333 474.3762226199808, 410 474.3762226199808 C 406.6666666666667 474.3762226199808, 403.3333333333333 481.3929031857258, 400 481.3929031857258 C 396.6666666666667 481.3929031857258, 393.3333333333333 458.813135989449, 390 458.813135989449 C 386.6666666666667 458.813135989449, 383.3333333333333 470.6783462381215, 380 470.6783462381215 C 376.6666666666667 470.6783462381215, 373.3333333333333 455.2754510677096, 370 455.2754510677096 C 366.6666666666667 455.2754510677096, 363.3333333333333 465.97440528661156, 360 469.9362106384873 C 356.6666666666667 473.89801599036304, 353.3333333333333 475.4110888008628, 350 479.9297984448612 C 346.6666666666667 484.4485080888596, 343.3333333333333 498.39274440851597, 340 500.99547741153447 C 336.6666666666667 503.59821041455297, 333.3333333333333 504.54715525031605, 330 505.7877231950731 C 326.6666666666667 507.0282911398302, 323.3333333333333 507.0875783233531, 320 508.8298458712133 C 316.6666666666667 510.5721134190735, 313.3333333333333 527.3740292719427, 310 527.3740292719427 C 306.6666666666667 527.3740292719427, 303.3333333333333 479.9666151232218, 300 479.9666151232218 C 296.6666666666667 479.9666151232218, 293.3333333333333 503.69285368921186, 290 503.69285368921186 C 286.6666666666667 503.69285368921186, 283.3333333333333 498.04044356344247, 280 492.66326653861626 C 276.6666666666667 487.28608951379005, 273.3333333333333 468.7391306891566, 270 462.6472684338888 C 266.6666666666667 456.55540617862107, 263.3333333333333 449.51012410002573, 260 449.51012410002573 C 256.6666666666667 449.51012410002573, 253.33333333333334 457.18345305537684, 250 457.18345305537684 C 246.66666666666666 457.18345305537684, 243.33333333333334 452.09284076729017, 240 450.7121965878207 C 236.66666666666666 449.33155240835123, 233.33333333333334 447.66654431045555, 230 447.66654431045555 C 226.66666666666666 447.66654431045555, 223.33333333333334 456.08481901985743, 220 456.08481901985743 C 216.66666666666666 456.08481901985743, 213.33333333333334 455.6751243923448, 210 455.6751243923448 C 206.66666666666666 455.6751243923448, 203.33333333333334 468.4558588381866, 200 475.64094130262646 C 196.66666666666666 482.8260237670663, 193.33333333333334 488.10608623778677, 190 499.06056869317854 C 186.66666666666666 510.0150511485703, 183.33333333333334 554.1307102051967, 180 554.1307102051967 C 176.66666666666666 554.1307102051967, 173.33333333333334 501.9276892357113, 170 486.87821324499384 C 166.66666666666666 471.8287372542764, 163.33333333333334 452.89811919445185, 160 452.89811919445185 C 156.66666666666666 452.89811919445185, 153.33333333333334 453.59168174143457, 150 453.59168174143457 C 146.66666666666666 453.59168174143457, 143.33333333333334 449.81267807777056, 140 449.81267807777056 C 136.66666666666666 449.81267807777056, 133.33333333333334 459.0435189050858, 130 459.0435189050858 C 126.66666666666667 459.0435189050858, 123.33333333333333 442.8977641958334, 120 442.8977641958334 C 116.66666666666667 442.8977641958334, 113.33333333333333 445.1827017558645, 110 447.21921822631805 C 106.66666666666667 449.2557346967716, 103.33333333333333 457.6410102344284, 100 457.6410102344284 C 96.66666666666667 457.6410102344284, 93.33333333333333 442.35214411977586, 90 442.35214411977586 C 86.66666666666667 442.35214411977586, 83.33333333333333 455.2911848521605, 80 464.0488816828703 C 76.66666666666667 472.80657851358006, 73.33333333333333 496.8341108303853, 70 497.3448830031398 C 66.66666666666667 497.85565517589424, 63.333333333333336 498.12908618418925, 60 498.12908618418925 C 56.666666666666664 498.12908618418925, 53.333333333333336 488.74314502431946, 50 488.74314502431946 C 46.666666666666664 488.74314502431946, 43.333333333333336 531.5673130129666, 40 531.5673130129666 C 36.666666666666664 531.5673130129666, 33.333333333333336 466.7610783352033, 30 466.7610783352033 C 26.666666666666668 466.7610783352033, 23.333333333333332 513.5128246322549, 20 520.864449228111 C 16.666666666666668 528.216073823967, 13.333333333333334 534.7149094009461, 10 534.7149094009461 C 3.3333333333333335 469.6658647292789, 6.666666666666666 534.7149094009461, 10 534.7149094009461 Z" fill="#a0a0a0" stroke="white" stroke-width="5" />
  </g>
</svg>