<svg 
  baseProfile="tiny"
  preserveAspectRatio="keep"
  version="1.2"
  viewBox="-5.000000 -5.000000 2015.000000 805.000000"
  height="100%" width="100%"
  xmlns="http://www.w3.org/2000/svg"
  xmlns:ev="http://www.w3.org/2001/xml-events"
  xmlns:xlink="http://www.w3.org/1999/xlink"
>
  <g style="transform-origin: center center;">
    <path d="M 0 400 C 3.3333333333333335 397.1991535250164, 6.666666666666666 393.51891931346813, 10 389.35072294229474 C 13.333333333333334 385.18252657112134, 16.666666666666668 377.3317554909135, 20 374.20797061908047 C 23.333333333333332 371.08418574724743, 26.666666666666668 369.8820388714043, 30 367.42270314870046 C 33.333333333333336 364.96336742599664, 36.666666666666664 363.10597350173714, 40 359.33848392967144 C 43.333333333333336 355.57099435760574, 46.666666666666664 340.56080136262665, 50 340.56080136262665 C 53.333333333333336 340.56080136262665, 56.666666666666664 347.50971409561174, 60 349.1098822667651 C 63.333333333333336 350.7100504379185, 66.66666666666667 351.06214697395677, 70 352.4470952401296 C 73.33333333333333 353.83204350630245, 76.66666666666667 357.95023292385935, 80 357.95023292385935 C 83.33333333333333 357.95023292385935, 86.66666666666667 348.5770684266415, 90 348.5770684266415 C 93.33333333333333 348.5770684266415, 96.66666666666667 350.9180785504004, 100 351.5131272119085 C 103.33333333333333 352.1081758734166, 106.66666666666667 352.1077520313999, 110 352.79556665161203 C 113.33333333333333 353.48338127182416, 116.66666666666667 358.0729040720845, 120 358.0729040720845 C 123.33333333333333 358.0729040720845, 126.66666666666667 353.63436269125066, 130 353.63436269125066 C 133.33333333333334 353.63436269125066, 136.66666666666666 363.2970755611405, 140 363.2970755611405 C 143.33333333333334 363.2970755611405, 146.66666666666666 360.60163451747746, 150 360.60163451747746 C 153.33333333333334 360.60163451747746, 156.66666666666666 370.2639689207309, 160 370.2639689207309 C 163.33333333333334 370.2639689207309, 166.66666666666666 358.13918905390045, 170 358.13918905390045 C 173.33333333333334 358.13918905390045, 176.66666666666666 359.1742042185825, 180 359.6121942105465 C 183.33333333333334 360.0501842025105, 186.66666666666666 360.0810178069401, 190 360.7981235689165 C 193.33333333333334 361.51522933089285, 196.66666666666666 372.36651831076597, 200 372.36651831076597 C 203.33333333333334 372.36651831076597, 206.66666666666666 371.6463478568339, 210 370.35137635281166 C 213.33333333333334 369.0564048487894, 216.66666666666666 323.7968056292132, 220 316.49785539557445 C 223.33333333333334 309.19890516193567, 226.66666666666666 302.75563560277004, 230 302.75563560277004 C 233.33333333333334 302.75563560277004, 236.66666666666666 321.80072688248526, 240 321.80072688248526 C 243.33333333333334 321.80072688248526, 246.66666666666666 321.0690907389531, 250 320.1611213354529 C 253.33333333333334 319.2531519319527, 256.6666666666667 312.1184204172093, 260 312.1184204172093 C 263.3333333333333 312.1184204172093, 266.6666666666667 316.67665644779214, 270 318.63861148798594 C 273.3333333333333 320.60056652817974, 276.6666666666667 324.0026304833307, 280 324.0026304833307 C 283.3333333333333 324.0026304833307, 286.6666666666667 317.6789912525816, 290 316.3529552589031 C 293.3333333333333 315.02691926522454, 296.6666666666667 313.66497872725245, 300 313.66497872725245 C 303.3333333333333 313.66497872725245, 306.6666666666667 314.78774811904384, 310 315.76806891881716 C 313.3333333333333 316.7483897185905, 316.6666666666667 320.6566408921205, 320 320.6566408921205 C 323.3333333333333 320.6566408921205, 326.6666666666667 318.303664790824, 330 317.1538533492091 C 333.3333333333333 316.0040419075942, 336.6666666666667 313.75617131262015, 340 313.75617131262015 C 343.3333333333333 313.75617131262015, 346.6666666666667 319.7841999711423, 350 320.62590187608174 C 353.3333333333333 321.4676037810212, 356.6666666666667 322.17274030482764, 360 322.17274030482764 C 363.3333333333333 322.17274030482764, 366.6666666666667 319.01897761638014, 370 319.01897761638014 C 373.3333333333333 319.01897761638014, 376.6666666666667 326.63833564418525, 380 326.63833564418525 C 383.3333333333333 326.63833564418525, 386.6666666666667 305.52845096737275, 390 305.52845096737275 C 393.3333333333333 305.52845096737275, 396.6666666666667 306.1651080542706, 400 307.1135108294386 C 403.3333333333333 308.0619136046066, 406.6666666666667 320.9936810389813, 410 320.9936810389813 C 413.3333333333333 320.9936810389813, 416.6666666666667 311.4167326134396, 420 311.4167326134396 C 423.3333333333333 311.4167326134396, 426.6666666666667 318.02257046706814, 430 318.02257046706814 C 433.3333333333333 318.02257046706814, 436.6666666666667 316.82785631392625, 440 316.30673283156807 C 443.3333333333333 315.7856093492099, 446.6666666666667 314.8709447219584, 450 314.8709447219584 C 453.3333333333333 314.8709447219584, 456.6666666666667 319.8912024448131, 460 319.8912024448131 C 463.3333333333333 319.8912024448131, 466.6666666666667 302.3668936442662, 470 302.3668936442662 C 473.3333333333333 302.3668936442662, 476.6666666666667 316.43188284827926, 480 316.43188284827926 C 483.3333333333333 316.43188284827926, 486.6666666666667 311.83457862874627, 490 311.83457862874627 C 493.3333333333333 311.83457862874627, 496.6666666666667 316.41506996078766, 500 316.41506996078766 C 503.3333333333333 316.41506996078766, 506.6666666666667 316.4034447261946, 510 316.3810981185416 C 513.3333333333334 316.3587515108886, 516.6666666666666 313.8613910545564, 520 313.8613910545564 C 523.3333333333334 313.8613910545564, 526.6666666666666 318.1944288910879, 530 318.1944288910879 C 533.3333333333334 318.1944288910879, 536.6666666666666 316.38237556359206, 540 316.38237556359206 C 543.3333333333334 316.38237556359206, 546.6666666666666 316.89284292451146, 550 316.89284292451146 C 553.3333333333334 316.89284292451146, 556.6666666666666 311.61413660955486, 560 309.6404236379903 C 563.3333333333334 307.66671066642573, 566.6666666666666 304.6376178814621, 570 304.6376178814621 C 573.3333333333334 304.6376178814621, 576.6666666666666 313.47234887656043, 580 315.1384045301017 C 583.3333333333334 316.80446018364296, 586.6666666666666 318.4179991228838, 590 318.4179991228838 C 593.3333333333334 318.4179991228838, 596.6666666666666 310.81045641943933, 600 310.81045641943933 C 603.3333333333334 310.81045641943933, 606.6666666666666 315.0080405472744, 610 316.2876653019797 C 613.3333333333334 317.567290056685, 616.6666666666666 319.2426491644942, 620 319.2426491644942 C 623.3333333333334 319.2426491644942, 626.6666666666666 318.26691918780534, 630 317.46821498332895 C 633.3333333333334 316.66951077885255, 636.6666666666666 314.0698325721603, 640 313.77988453931084 C 643.3333333333334 313.4899365064614, 646.6666666666666 313.2868212529111, 650 313.2868212529111 C 653.3333333333334 313.2868212529111, 656.6666666666666 314.0041033796248, 660 314.31884464246025 C 663.3333333333334 314.6335859052957, 666.6666666666666 314.71855579825586, 670 315.18903666646236 C 673.3333333333334 315.65951753466885, 676.6666666666666 318.9229112559276, 680 318.9229112559276 C 683.3333333333334 318.9229112559276, 686.6666666666666 310.9786946334533, 690 310.9786946334533 C 693.3333333333334 310.9786946334533, 696.6666666666666 313.6979749041245, 700 313.6979749041245 C 703.3333333333334 313.6979749041245, 706.6666666666666 309.8569633721963, 710 309.8569633721963 C 713.3333333333334 309.8569633721963, 716.6666666666666 315.7146684062531, 720 315.7146684062531 C 723.3333333333334 315.7146684062531, 726.6666666666666 314.5132885414513, 730 313.54190365052216 C 733.3333333333334 312.570518759593, 736.6666666666666 309.11834359154795, 740 309.11834359154795 C 743.3333333333334 309.11834359154795, 746.6666666666666 312.3818527834795, 750 313.1569171151354 C 753.3333333333334 313.9319814467913, 756.6666666666666 314.78948628753767, 760 314.78948628753767 C 763.3333333333334 314.78948628753767, 766.6666666666666 302.5531165875278, 770 302.5531165875278 C 773.3333333333334 302.5531165875278, 776.6666666666666 315.1242408022922, 780 315.1242408022922 C 783.3333333333334 315.1242408022922, 786.6666666666666 311.7169051813613, 790 311.7169051813613 C 793.3333333333334 311.7169051813613, 796.6666666666666 319.5785886343798, 800 319.5785886343798 C 803.3333333333334 319.5785886343798, 806.6666666666666 308.80720935879083, 810 308.80720935879083 C 813.3333333333334 308.80720935879083, 816.6666666666666 315.7641312471361, 820 315.7641312471361 C 823.3333333333334 315.7641312471361, 826.6666666666666 307.83209082555425, 830 305.1626748691664 C 833.3333333333334 302.4932589127785, 836.6666666666666 298.72832498779917, 840 298.72832498779917 C 843.3333333333334 298.72832498779917, 846.6666666666666 306.70664191176985, 850 308.71044091166397 C 853.3333333333334 310.7142399115581, 856.6666666666666 312.583483579581, 860 313.0111054267034 C 863.3333333333334 313.4387272738258, 866.6666666666666 313.40784557132395, 870 313.7649760062089 C 873.3333333333334 314.1221064410938, 876.6666666666666 315.61599159760596, 880 315.61599159760596 C 883.3333333333334 315.61599159760596, 886.6666666666666 315.5707661068918, 890 315.4877752990096 C 893.3333333333334 315.40478449112743, 896.6666666666666 313.04313668141504, 900 311.20874312699937 C 903.3333333333334 309.3743495725837, 906.6666666666666 303.5003360100197, 910 303.5003360100197 C 913.3333333333334 303.5003360100197, 916.6666666666666 315.2802324884034, 920 315.2802324884034 C 923.3333333333334 315.2802324884034, 926.6666666666666 314.5494980701323, 930 313.87721893264666 C 933.3333333333334 313.204939795161, 936.6666666666666 310.2917055474399, 940 310.2917055474399 C 943.3333333333334 310.2917055474399, 946.6666666666666 310.8413053408975, 950 311.463343229643 C 953.3333333333334 312.08538111838845, 956.6666666666666 316.04545679622385, 960 316.04545679622385 C 963.3333333333334 316.04545679622385, 966.6666666666666 311.8555314306104, 970 311.158793264883 C 973.3333333333334 310.4620550991556, 976.6666666666666 310.4807939574865, 980 309.82936136225453 C 983.3333333333334 309.17792876702254, 986.6666666666666 306.141834925542, 990 306.141834925542 C 993.3333333333334 306.141834925542, 996.6666666666666 317.0044257931213, 1000 317.4805743659101 C 1003.3333333333334 317.95672293869893, 1006.6666666666666 317.9531563407734, 1010 318.2428101665464 C 1013.3333333333334 318.53246399231944, 1016.6666666666666 319.2532500105439, 1020 319.2532500105439 C 1023.3333333333334 319.2532500105439, 1026.6666666666667 316.9541783391747, 1030 316.9541783391747 C 1033.3333333333333 316.9541783391747, 1036.6666666666667 320.0728248087545, 1040 320.0728248087545 C 1043.3333333333333 320.0728248087545, 1046.6666666666667 319.1109874034526, 1050 319.0950233307933 C 1053.3333333333333 319.079059258134, 1056.6666666666667 319.07047606553436, 1060 319.07047606553436 C 1063.3333333333333 319.07047606553436, 1066.6666666666667 328.7351481172657, 1070 331.1462851114336 C 1073.3333333333333 333.5574221056015, 1076.6666666666667 335.9679995925466, 1080 336.3093197764506 C 1083.3333333333333 336.65063996035457, 1086.6666666666667 336.51823323911816, 1090 336.87765798341917 C 1093.3333333333333 337.2370827277202, 1096.6666666666667 347.370835349348, 1100 347.370835349348 C 1103.3333333333333 347.370835349348, 1106.6666666666667 344.54890745791823, 1110 343.0535341393097 C 1113.3333333333333 341.5581608207012, 1116.6666666666667 339.52754485043033, 1120 338.384855585028 C 1123.3333333333333 337.24216631962565, 1126.6666666666667 335.67648478833854, 1130 335.67648478833854 C 1133.3333333333333 335.67648478833854, 1136.6666666666667 344.15914121791906, 1140 345.0026280471918 C 1143.3333333333333 345.8461148764646, 1146.6666666666667 346.4664471565477, 1150 346.4664471565477 C 1153.3333333333333 346.4664471565477, 1156.6666666666667 332.8996799793471, 1160 332.8996799793471 C 1163.3333333333333 332.8996799793471, 1166.6666666666667 334.476432059555, 1170 335.67502037409565 C 1173.3333333333333 336.8736086886363, 1176.6666666666667 340.16954905678296, 1180 340.7798292174593 C 1183.3333333333333 341.3901093781356, 1186.6666666666667 341.89527726615654, 1190 341.89527726615654 C 1193.3333333333333 341.89527726615654, 1196.6666666666667 336.9198655611227, 1200 336.9198655611227 C 1203.3333333333333 336.9198655611227, 1206.6666666666667 338.6438960850713, 1210 339.80667002709754 C 1213.3333333333333 340.9694439691238, 1216.6666666666667 344.21316363589256, 1220 344.21316363589256 C 1223.3333333333333 344.21316363589256, 1226.6666666666667 342.7627982313494, 1230 342.0978640380039 C 1233.3333333333333 341.43292984465836, 1236.6666666666667 341.0506536862828, 1240 340.21057023600474 C 1243.3333333333333 339.37048678572665, 1246.6666666666667 336.41856545051513, 1250 336.41856545051513 C 1253.3333333333333 336.41856545051513, 1256.6666666666667 346.17186815162256, 1260 346.17186815162256 C 1263.3333333333333 346.17186815162256, 1266.6666666666667 344.34394667887585, 1270 344.34394667887585 C 1273.3333333333333 344.34394667887585, 1276.6666666666667 349.6912304973047, 1280 349.6912304973047 C 1283.3333333333333 349.6912304973047, 1286.6666666666667 335.2956393304788, 1290 335.2956393304788 C 1293.3333333333333 335.2956393304788, 1296.6666666666667 344.06048113637576, 1300 344.06048113637576 C 1303.3333333333333 344.06048113637576, 1306.6666666666667 339.23876110125894, 1310 339.23876110125894 C 1313.3333333333333 339.23876110125894, 1316.6666666666667 344.0113229741034, 1320 344.0113229741034 C 1323.3333333333333 344.0113229741034, 1326.6666666666667 334.15523721437586, 1330 334.15523721437586 C 1333.3333333333333 334.15523721437586, 1336.6666666666667 338.5698826442524, 1340 338.5698826442524 C 1343.3333333333333 338.5698826442524, 1346.6666666666667 333.5143175215545, 1350 333.5143175215545 C 1353.3333333333333 333.5143175215545, 1356.6666666666667 339.73072284845045, 1360 339.73072284845045 C 1363.3333333333333 339.73072284845045, 1366.6666666666667 334.23879330248747, 1370 334.23879330248747 C 1373.3333333333333 334.23879330248747, 1376.6666666666667 340.6339272603847, 1380 340.6339272603847 C 1383.3333333333333 340.6339272603847, 1386.6666666666667 335.9129374146113, 1390 335.9129374146113 C 1393.3333333333333 335.9129374146113, 1396.6666666666667 341.3624967280241, 1400 341.3624967280241 C 1403.3333333333333 341.3624967280241, 1406.6666666666667 339.9533733608508, 1410 339.4957169923934 C 1413.3333333333333 339.038060623936, 1416.6666666666667 339.0420683087949, 1420 338.40995855645644 C 1423.3333333333333 337.777848804118, 1426.6666666666667 330.9279521835406, 1430 330.9279521835406 C 1433.3333333333333 330.9279521835406, 1436.6666666666667 336.0997018117616, 1440 336.0997018117616 C 1443.3333333333333 336.0997018117616, 1446.6666666666667 333.18445204334944, 1450 333.18445204334944 C 1453.3333333333333 333.18445204334944, 1456.6666666666667 334.7539340464665, 1460 334.7539340464665 C 1463.3333333333333 334.7539340464665, 1466.6666666666667 330.9363554742956, 1470 330.9363554742956 C 1473.3333333333333 330.9363554742956, 1476.6666666666667 336.48260023102546, 1480 336.48260023102546 C 1483.3333333333333 336.48260023102546, 1486.6666666666667 329.3992274792204, 1490 329.3992274792204 C 1493.3333333333333 329.3992274792204, 1496.6666666666667 337.61090762568125, 1500 337.61090762568125 C 1503.3333333333333 337.61090762568125, 1506.6666666666667 337.54434849365856, 1510 337.4194101496647 C 1513.3333333333333 337.29447180567087, 1516.6666666666667 328.64473605202625, 1520 328.64473605202625 C 1523.3333333333333 328.64473605202625, 1526.6666666666667 332.6125867252506, 1530 334.5351070066009 C 1533.3333333333333 336.45762728795125, 1536.6666666666667 340.1848741609158, 1540 340.1848741609158 C 1543.3333333333333 340.1848741609158, 1546.6666666666667 337.14959287608633, 1550 337.14959287608633 C 1553.3333333333333 337.14959287608633, 1556.6666666666667 337.2503940963724, 1560 337.3703278437417 C 1563.3333333333333 337.49026159111094, 1566.6666666666667 337.88891893186087, 1570 338.34280226967167 C 1573.3333333333333 338.79668560748246, 1576.6666666666667 340.61294190975696, 1580 340.61294190975696 C 1583.3333333333333 340.61294190975696, 1586.6666666666667 333.61469941321786, 1590 333.61469941321786 C 1593.3333333333333 333.61469941321786, 1596.6666666666667 338.4194847217206, 1600 338.4194847217206 C 1603.3333333333333 338.4194847217206, 1606.6666666666667 333.6687511153119, 1610 333.6687511153119 C 1613.3333333333333 333.6687511153119, 1616.6666666666667 336.42000018585134, 1620 336.53542242859135 C 1623.3333333333333 336.65084467133136, 1626.6666666666667 336.6044336203378, 1630 336.7196843389976 C 1633.3333333333333 336.8349350576574, 1636.6666666666667 339.51741358957196, 1640 339.51741358957196 C 1643.3333333333333 339.51741358957196, 1646.6666666666667 332.6967149323218, 1650 332.6967149323218 C 1653.3333333333333 332.6967149323218, 1656.6666666666667 336.4280016883738, 1660 336.4280016883738 C 1663.3333333333333 336.4280016883738, 1666.6666666666667 334.5142155811343, 1670 334.5142155811343 C 1673.3333333333333 334.5142155811343, 1676.6666666666667 337.9299799616578, 1680 337.9299799616578 C 1683.3333333333333 337.9299799616578, 1686.6666666666667 328.43239984226193, 1690 328.43239984226193 C 1693.3333333333333 328.43239984226193, 1696.6666666666667 339.2969119210763, 1700 339.2996578508929 C 1703.3333333333333 339.30240378070954, 1706.6666666666667 339.3037783073482, 1710 339.3037783073482 C 1713.3333333333333 339.3037783073482, 1716.6666666666667 337.5153872813868, 1720 336.24027056993253 C 1723.3333333333333 334.9651538584783, 1726.6666666666667 331.1487442177314, 1730 331.1487442177314 C 1733.3333333333333 331.1487442177314, 1736.6666666666667 337.1426983471563, 1740 337.1426983471563 C 1743.3333333333333 337.1426983471563, 1746.6666666666667 330.55585073290655, 1750 330.55585073290655 C 1753.3333333333333 330.55585073290655, 1756.6666666666667 339.9835755632599, 1760 339.9835755632599 C 1763.3333333333333 339.9835755632599, 1766.6666666666667 334.26985427837815, 1770 334.26985427837815 C 1773.3333333333333 334.26985427837815, 1776.6666666666667 338.3163454853233, 1780 339.3669879036732 C 1783.3333333333333 340.41763032202306, 1786.6666666666667 340.41404790114075, 1790 341.6483026948322 C 1793.3333333333333 342.8825574885236, 1796.6666666666667 350.84827091389315, 1800 351.4721345448763 C 1803.3333333333333 352.0959981758595, 1806.6666666666667 351.8482527691825, 1810 352.50645716629504 C 1813.3333333333333 353.16466156340755, 1816.6666666666667 374.22657344340297, 1820 374.22657344340297 C 1823.3333333333333 374.22657344340297, 1826.6666666666667 370.86312295631535, 1830 370.86312295631535 C 1833.3333333333333 370.86312295631535, 1836.6666666666667 399.2551820316911, 1840 399.2551820316911 C 1843.3333333333333 399.2551820316911, 1846.6666666666667 373.16634380666716, 1850 373.16634380666716 C 1853.3333333333333 373.16634380666716, 1856.6666666666667 392.8907871356378, 1860 392.8907871356378 C 1863.3333333333333 392.8907871356378, 1866.6666666666667 370.93227979111884, 1870 370.93227979111884 C 1873.3333333333333 370.93227979111884, 1876.6666666666667 385.1244254133996, 1880 385.1244254133996 C 1883.3333333333333 385.1244254133996, 1886.6666666666667 368.50628091677635, 1890 368.50628091677635 C 1893.3333333333333 368.50628091677635, 1896.6666666666667 379.175536256097, 1900 379.175536256097 C 1903.3333333333333 379.175536256097, 1906.6666666666667 365.27189576207303, 1910 365.27189576207303 C 1913.3333333333333 365.27189576207303, 1916.6666666666667 378.0427295685493, 1920 378.0427295685493 C 1923.3333333333333 378.0427295685493, 1926.6666666666667 365.4535915508581, 1930 365.4535915508581 C 1933.3333333333333 365.4535915508581, 1936.6666666666667 381.1165757784163, 1940 381.1165757784163 C 1943.3333333333333 381.1165757784163, 1946.6666666666667 365.19477268202604, 1950 365.19477268202604 C 1953.3333333333333 365.19477268202604, 1956.6666666666667 378.37539315930934, 1960 378.37539315930934 C 1963.3333333333333 378.37539315930934, 1966.6666666666667 363.8065596218109, 1970 363.8065596218109 C 1973.3333333333333 363.8065596218109, 1976.6666666666667 379.85657198936315, 1980 379.85657198936315 C 1983.3333333333333 379.85657198936315, 1986.6666666666667 364.67224789074186, 1990 364.67224789074186 C 1993.3333333333333 364.67224789074186, 1996.6666666666667 374.8355516512292, 2000 380.67120076791775 C 2003.3333333333333 386.5068498846063, 2006.6666666666667 393.00209253015487, 2010 400 c 0 0, 0 0, 0 0C 2006.6666666666667 406.99790746984513, 2003.3333333333333 413.4931501153937, 2000 419.32879923208225 C 1996.6666666666667 425.1644483487708, 1993.3333333333333 435.32775210925814, 1990 435.32775210925814 C 1986.6666666666667 435.32775210925814, 1983.3333333333333 420.14342801063685, 1980 420.14342801063685 C 1976.6666666666667 420.14342801063685, 1973.3333333333333 436.1934403781891, 1970 436.1934403781891 C 1966.6666666666667 436.1934403781891, 1963.3333333333333 421.62460684069066, 1960 421.62460684069066 C 1956.6666666666667 421.62460684069066, 1953.3333333333333 434.80522731797396, 1950 434.80522731797396 C 1946.6666666666667 434.80522731797396, 1943.3333333333333 418.8834242215837, 1940 418.8834242215837 C 1936.6666666666667 418.8834242215837, 1933.3333333333333 434.5464084491419, 1930 434.5464084491419 C 1926.6666666666667 434.5464084491419, 1923.3333333333333 421.9572704314507, 1920 421.9572704314507 C 1916.6666666666667 421.9572704314507, 1913.3333333333333 434.72810423792697, 1910 434.72810423792697 C 1906.6666666666667 434.72810423792697, 1903.3333333333333 420.824463743903, 1900 420.824463743903 C 1896.6666666666667 420.824463743903, 1893.3333333333333 431.49371908322365, 1890 431.49371908322365 C 1886.6666666666667 431.49371908322365, 1883.3333333333333 414.8755745866004, 1880 414.8755745866004 C 1876.6666666666667 414.8755745866004, 1873.3333333333333 429.06772020888116, 1870 429.06772020888116 C 1866.6666666666667 429.06772020888116, 1863.3333333333333 407.1092128643622, 1860 407.1092128643622 C 1856.6666666666667 407.1092128643622, 1853.3333333333333 426.83365619333284, 1850 426.83365619333284 C 1846.6666666666667 426.83365619333284, 1843.3333333333333 400.7448179683089, 1840 400.7448179683089 C 1836.6666666666667 400.7448179683089, 1833.3333333333333 429.13687704368465, 1830 429.13687704368465 C 1826.6666666666667 429.13687704368465, 1823.3333333333333 425.77342655659703, 1820 425.77342655659703 C 1816.6666666666667 425.77342655659703, 1813.3333333333333 446.83533843659245, 1810 447.49354283370496 C 1806.6666666666667 448.1517472308175, 1803.3333333333333 447.9040018241405, 1800 448.5278654551237 C 1796.6666666666667 449.15172908610685, 1793.3333333333333 457.1174425114764, 1790 458.3516973051678 C 1786.6666666666667 459.58595209885925, 1783.3333333333333 459.58236967797694, 1780 460.6330120963268 C 1776.6666666666667 461.6836545146767, 1773.3333333333333 465.73014572162185, 1770 465.73014572162185 C 1766.6666666666667 465.73014572162185, 1763.3333333333333 460.0164244367401, 1760 460.0164244367401 C 1756.6666666666667 460.0164244367401, 1753.3333333333333 469.44414926709345, 1750 469.44414926709345 C 1746.6666666666667 469.44414926709345, 1743.3333333333333 462.8573016528437, 1740 462.8573016528437 C 1736.6666666666667 462.8573016528437, 1733.3333333333333 468.8512557822686, 1730 468.8512557822686 C 1726.6666666666667 468.8512557822686, 1723.3333333333333 465.0348461415217, 1720 463.75972943006747 C 1716.6666666666667 462.4846127186132, 1713.3333333333333 460.6962216926518, 1710 460.6962216926518 C 1706.6666666666667 460.6962216926518, 1703.3333333333333 460.69759621929046, 1700 460.7003421491071 C 1696.6666666666667 460.7030880789237, 1693.3333333333333 471.56760015773807, 1690 471.56760015773807 C 1686.6666666666667 471.56760015773807, 1683.3333333333333 462.0700200383422, 1680 462.0700200383422 C 1676.6666666666667 462.0700200383422, 1673.3333333333333 465.4857844188657, 1670 465.4857844188657 C 1666.6666666666667 465.4857844188657, 1663.3333333333333 463.5719983116262, 1660 463.5719983116262 C 1656.6666666666667 463.5719983116262, 1653.3333333333333 467.3032850676782, 1650 467.3032850676782 C 1646.6666666666667 467.3032850676782, 1643.3333333333333 460.48258641042804, 1640 460.48258641042804 C 1636.6666666666667 460.48258641042804, 1633.3333333333333 463.1650649423426, 1630 463.2803156610024 C 1626.6666666666667 463.3955663796622, 1623.3333333333333 463.34915532866864, 1620 463.46457757140865 C 1616.6666666666667 463.57999981414866, 1613.3333333333333 466.3312488846881, 1610 466.3312488846881 C 1606.6666666666667 466.3312488846881, 1603.3333333333333 461.5805152782794, 1600 461.5805152782794 C 1596.6666666666667 461.5805152782794, 1593.3333333333333 466.38530058678214, 1590 466.38530058678214 C 1586.6666666666667 466.38530058678214, 1583.3333333333333 459.38705809024304, 1580 459.38705809024304 C 1576.6666666666667 459.38705809024304, 1573.3333333333333 461.20331439251754, 1570 461.65719773032833 C 1566.6666666666667 462.11108106813913, 1563.3333333333333 462.50973840888906, 1560 462.6296721562583 C 1556.6666666666667 462.7496059036276, 1553.3333333333333 462.85040712391367, 1550 462.85040712391367 C 1546.6666666666667 462.85040712391367, 1543.3333333333333 459.8151258390842, 1540 459.8151258390842 C 1536.6666666666667 459.8151258390842, 1533.3333333333333 463.54237271204875, 1530 465.4648929933991 C 1526.6666666666667 467.3874132747494, 1523.3333333333333 471.35526394797375, 1520 471.35526394797375 C 1516.6666666666667 471.35526394797375, 1513.3333333333333 462.70552819432913, 1510 462.5805898503353 C 1506.6666666666667 462.45565150634144, 1503.3333333333333 462.38909237431875, 1500 462.38909237431875 C 1496.6666666666667 462.38909237431875, 1493.3333333333333 470.6007725207796, 1490 470.6007725207796 C 1486.6666666666667 470.6007725207796, 1483.3333333333333 463.51739976897454, 1480 463.51739976897454 C 1476.6666666666667 463.51739976897454, 1473.3333333333333 469.0636445257044, 1470 469.0636445257044 C 1466.6666666666667 469.0636445257044, 1463.3333333333333 465.2460659535335, 1460 465.2460659535335 C 1456.6666666666667 465.2460659535335, 1453.3333333333333 466.81554795665056, 1450 466.81554795665056 C 1446.6666666666667 466.81554795665056, 1443.3333333333333 463.9002981882384, 1440 463.9002981882384 C 1436.6666666666667 463.9002981882384, 1433.3333333333333 469.0720478164594, 1430 469.0720478164594 C 1426.6666666666667 469.0720478164594, 1423.3333333333333 462.222151195882, 1420 461.59004144354356 C 1416.6666666666667 460.9579316912051, 1413.3333333333333 460.961939376064, 1410 460.5042830076066 C 1406.6666666666667 460.0466266391492, 1403.3333333333333 458.6375032719759, 1400 458.6375032719759 C 1396.6666666666667 458.6375032719759, 1393.3333333333333 464.0870625853887, 1390 464.0870625853887 C 1386.6666666666667 464.0870625853887, 1383.3333333333333 459.3660727396153, 1380 459.3660727396153 C 1376.6666666666667 459.3660727396153, 1373.3333333333333 465.76120669751253, 1370 465.76120669751253 C 1366.6666666666667 465.76120669751253, 1363.3333333333333 460.26927715154955, 1360 460.26927715154955 C 1356.6666666666667 460.26927715154955, 1353.3333333333333 466.4856824784455, 1350 466.4856824784455 C 1346.6666666666667 466.4856824784455, 1343.3333333333333 461.4301173557476, 1340 461.4301173557476 C 1336.6666666666667 461.4301173557476, 1333.3333333333333 465.84476278562414, 1330 465.84476278562414 C 1326.6666666666667 465.84476278562414, 1323.3333333333333 455.9886770258966, 1320 455.9886770258966 C 1316.6666666666667 455.9886770258966, 1313.3333333333333 460.76123889874106, 1310 460.76123889874106 C 1306.6666666666667 460.76123889874106, 1303.3333333333333 455.93951886362424, 1300 455.93951886362424 C 1296.6666666666667 455.93951886362424, 1293.3333333333333 464.7043606695212, 1290 464.7043606695212 C 1286.6666666666667 464.7043606695212, 1283.3333333333333 450.3087695026953, 1280 450.3087695026953 C 1276.6666666666667 450.3087695026953, 1273.3333333333333 455.65605332112415, 1270 455.65605332112415 C 1266.6666666666667 455.65605332112415, 1263.3333333333333 453.82813184837744, 1260 453.82813184837744 C 1256.6666666666667 453.82813184837744, 1253.3333333333333 463.58143454948487, 1250 463.58143454948487 C 1246.6666666666667 463.58143454948487, 1243.3333333333333 460.62951321427335, 1240 459.78942976399526 C 1236.6666666666667 458.9493463137172, 1233.3333333333333 458.56707015534164, 1230 457.9021359619961 C 1226.6666666666667 457.2372017686506, 1223.3333333333333 455.78683636410744, 1220 455.78683636410744 C 1216.6666666666667 455.78683636410744, 1213.3333333333333 459.0305560308762, 1210 460.19332997290246 C 1206.6666666666667 461.3561039149287, 1203.3333333333333 463.0801344388773, 1200 463.0801344388773 C 1196.6666666666667 463.0801344388773, 1193.3333333333333 458.10472273384346, 1190 458.10472273384346 C 1186.6666666666667 458.10472273384346, 1183.3333333333333 458.6098906218644, 1180 459.2201707825407 C 1176.6666666666667 459.83045094321704, 1173.3333333333333 463.1263913113637, 1170 464.32497962590435 C 1166.6666666666667 465.523567940445, 1163.3333333333333 467.1003200206529, 1160 467.1003200206529 C 1156.6666666666667 467.1003200206529, 1153.3333333333333 453.5335528434523, 1150 453.5335528434523 C 1146.6666666666667 453.5335528434523, 1143.3333333333333 454.1538851235354, 1140 454.9973719528082 C 1136.6666666666667 455.84085878208094, 1133.3333333333333 464.32351521166146, 1130 464.32351521166146 C 1126.6666666666667 464.32351521166146, 1123.3333333333333 462.75783368037435, 1120 461.615144414972 C 1116.6666666666667 460.47245514956967, 1113.3333333333333 458.4418391792988, 1110 456.9464658606903 C 1106.6666666666667 455.45109254208177, 1103.3333333333333 452.629164650652, 1100 452.629164650652 C 1096.6666666666667 452.629164650652, 1093.3333333333333 462.7629172722798, 1090 463.12234201658083 C 1086.6666666666667 463.48176676088184, 1083.3333333333333 463.34936003964543, 1080 463.6906802235494 C 1076.6666666666667 464.0320004074534, 1073.3333333333333 466.4425778943985, 1070 468.8537148885664 C 1066.6666666666667 471.2648518827343, 1063.3333333333333 480.92952393446564, 1060 480.92952393446564 C 1056.6666666666667 480.92952393446564, 1053.3333333333333 480.920940741866, 1050 480.9049766692067 C 1046.6666666666667 480.8890125965474, 1043.3333333333333 479.9271751912455, 1040 479.9271751912455 C 1036.6666666666667 479.9271751912455, 1033.3333333333333 483.0458216608253, 1030 483.0458216608253 C 1026.6666666666667 483.0458216608253, 1023.3333333333334 480.7467499894561, 1020 480.7467499894561 C 1016.6666666666666 480.7467499894561, 1013.3333333333334 481.46753600768056, 1010 481.7571898334536 C 1006.6666666666666 482.0468436592266, 1003.3333333333334 482.04327706130107, 1000 482.5194256340899 C 996.6666666666666 482.9955742068787, 993.3333333333334 493.858165074458, 990 493.858165074458 C 986.6666666666666 493.858165074458, 983.3333333333334 490.82207123297746, 980 490.17063863774547 C 976.6666666666666 489.5192060425135, 973.3333333333334 489.5379449008444, 970 488.841206735117 C 966.6666666666666 488.1444685693896, 963.3333333333334 483.95454320377615, 960 483.95454320377615 C 956.6666666666666 483.95454320377615, 953.3333333333334 487.91461888161155, 950 488.536656770357 C 946.6666666666666 489.1586946591025, 943.3333333333334 489.7082944525601, 940 489.7082944525601 C 936.6666666666666 489.7082944525601, 933.3333333333334 486.795060204839, 930 486.12278106735334 C 926.6666666666666 485.4505019298677, 923.3333333333334 484.7197675115966, 920 484.7197675115966 C 916.6666666666666 484.7197675115966, 913.3333333333334 496.4996639899803, 910 496.4996639899803 C 906.6666666666666 496.4996639899803, 903.3333333333334 490.6256504274163, 900 488.79125687300063 C 896.6666666666666 486.95686331858496, 893.3333333333334 484.59521550887257, 890 484.5122247009904 C 886.6666666666666 484.4292338931082, 883.3333333333334 484.38400840239404, 880 484.38400840239404 C 876.6666666666666 484.38400840239404, 873.3333333333334 485.8778935589062, 870 486.2350239937911 C 866.6666666666666 486.59215442867605, 863.3333333333334 486.5612727261742, 860 486.9888945732966 C 856.6666666666666 487.416516420419, 853.3333333333334 489.2857600884419, 850 491.28955908833603 C 846.6666666666666 493.29335808823015, 843.3333333333334 501.27167501220083, 840 501.27167501220083 C 836.6666666666666 501.27167501220083, 833.3333333333334 497.5067410872215, 830 494.8373251308336 C 826.6666666666666 492.16790917444575, 823.3333333333334 484.2358687528639, 820 484.2358687528639 C 816.6666666666666 484.2358687528639, 813.3333333333334 491.19279064120917, 810 491.19279064120917 C 806.6666666666666 491.19279064120917, 803.3333333333334 480.4214113656202, 800 480.4214113656202 C 796.6666666666666 480.4214113656202, 793.3333333333334 488.2830948186387, 790 488.2830948186387 C 786.6666666666666 488.2830948186387, 783.3333333333334 484.8757591977078, 780 484.8757591977078 C 776.6666666666666 484.8757591977078, 773.3333333333334 497.4468834124722, 770 497.4468834124722 C 766.6666666666666 497.4468834124722, 763.3333333333334 485.21051371246233, 760 485.21051371246233 C 756.6666666666666 485.21051371246233, 753.3333333333334 486.0680185532087, 750 486.8430828848646 C 746.6666666666666 487.6181472165205, 743.3333333333334 490.88165640845205, 740 490.88165640845205 C 736.6666666666666 490.88165640845205, 733.3333333333334 487.429481240407, 730 486.45809634947784 C 726.6666666666666 485.4867114585487, 723.3333333333334 484.2853315937469, 720 484.2853315937469 C 716.6666666666666 484.2853315937469, 713.3333333333334 490.1430366278037, 710 490.1430366278037 C 706.6666666666666 490.1430366278037, 703.3333333333334 486.3020250958755, 700 486.3020250958755 C 696.6666666666666 486.3020250958755, 693.3333333333334 489.0213053665467, 690 489.0213053665467 C 686.6666666666666 489.0213053665467, 683.3333333333334 481.0770887440724, 680 481.0770887440724 C 676.6666666666666 481.0770887440724, 673.3333333333334 484.34048246533115, 670 484.81096333353764 C 666.6666666666666 485.28144420174414, 663.3333333333334 485.3664140947043, 660 485.68115535753975 C 656.6666666666666 485.9958966203752, 653.3333333333334 486.7131787470889, 650 486.7131787470889 C 646.6666666666666 486.7131787470889, 643.3333333333334 486.5100634935386, 640 486.22011546068916 C 636.6666666666666 485.9301674278397, 633.3333333333334 483.33048922114745, 630 482.53178501667105 C 626.6666666666666 481.73308081219466, 623.3333333333334 480.7573508355058, 620 480.7573508355058 C 616.6666666666666 480.7573508355058, 613.3333333333334 482.432709943315, 610 483.7123346980203 C 606.6666666666666 484.9919594527256, 603.3333333333334 489.18954358056067, 600 489.18954358056067 C 596.6666666666666 489.18954358056067, 593.3333333333334 481.5820008771162, 590 481.5820008771162 C 586.6666666666666 481.5820008771162, 583.3333333333334 483.19553981635704, 580 484.8615954698983 C 576.6666666666666 486.52765112343957, 573.3333333333334 495.3623821185379, 570 495.3623821185379 C 566.6666666666666 495.3623821185379, 563.3333333333334 492.33328933357427, 560 490.3595763620097 C 556.6666666666666 488.38586339044514, 553.3333333333334 483.10715707548854, 550 483.10715707548854 C 546.6666666666666 483.10715707548854, 543.3333333333334 483.61762443640794, 540 483.61762443640794 C 536.6666666666666 483.61762443640794, 533.3333333333334 481.8055711089121, 530 481.8055711089121 C 526.6666666666666 481.8055711089121, 523.3333333333334 486.1386089454436, 520 486.1386089454436 C 516.6666666666666 486.1386089454436, 513.3333333333334 483.6412484891114, 510 483.6189018814584 C 506.6666666666667 483.5965552738054, 503.3333333333333 483.58493003921234, 500 483.58493003921234 C 496.6666666666667 483.58493003921234, 493.3333333333333 488.16542137125373, 490 488.16542137125373 C 486.6666666666667 488.16542137125373, 483.3333333333333 483.56811715172074, 480 483.56811715172074 C 476.6666666666667 483.56811715172074, 473.3333333333333 497.6331063557338, 470 497.6331063557338 C 466.6666666666667 497.6331063557338, 463.3333333333333 480.1087975551869, 460 480.1087975551869 C 456.6666666666667 480.1087975551869, 453.3333333333333 485.1290552780416, 450 485.1290552780416 C 446.6666666666667 485.1290552780416, 443.3333333333333 484.2143906507901, 440 483.69326716843193 C 436.6666666666667 483.17214368607375, 433.3333333333333 481.97742953293186, 430 481.97742953293186 C 426.6666666666667 481.97742953293186, 423.3333333333333 488.5832673865604, 420 488.5832673865604 C 416.6666666666667 488.5832673865604, 413.3333333333333 479.0063189610187, 410 479.0063189610187 C 406.6666666666667 479.0063189610187, 403.3333333333333 491.9380863953934, 400 492.8864891705614 C 396.6666666666667 493.8348919457294, 393.3333333333333 494.47154903262725, 390 494.47154903262725 C 386.6666666666667 494.47154903262725, 383.3333333333333 473.36166435581475, 380 473.36166435581475 C 376.6666666666667 473.36166435581475, 373.3333333333333 480.98102238361986, 370 480.98102238361986 C 366.6666666666667 480.98102238361986, 363.3333333333333 477.82725969517236, 360 477.82725969517236 C 356.6666666666667 477.82725969517236, 353.3333333333333 478.5323962189788, 350 479.37409812391826 C 346.6666666666667 480.2158000288577, 343.3333333333333 486.24382868737985, 340 486.24382868737985 C 336.6666666666667 486.24382868737985, 333.3333333333333 483.9959580924058, 330 482.8461466507909 C 326.6666666666667 481.696335209176, 323.3333333333333 479.3433591078795, 320 479.3433591078795 C 316.6666666666667 479.3433591078795, 313.3333333333333 483.2516102814095, 310 484.23193108118284 C 306.6666666666667 485.21225188095616, 303.3333333333333 486.33502127274755, 300 486.33502127274755 C 296.6666666666667 486.33502127274755, 293.3333333333333 484.97308073477546, 290 483.6470447410969 C 286.6666666666667 482.3210087474184, 283.3333333333333 475.9973695166693, 280 475.9973695166693 C 276.6666666666667 475.9973695166693, 273.3333333333333 479.39943347182026, 270 481.36138851201406 C 266.6666666666667 483.32334355220786, 263.3333333333333 487.8815795827907, 260 487.8815795827907 C 256.6666666666667 487.8815795827907, 253.33333333333334 480.7468480680473, 250 479.8388786645471 C 246.66666666666666 478.9309092610469, 243.33333333333334 478.19927311751474, 240 478.19927311751474 C 236.66666666666666 478.19927311751474, 233.33333333333334 497.24436439722996, 230 497.24436439722996 C 226.66666666666666 497.24436439722996, 223.33333333333334 490.80109483806433, 220 483.50214460442555 C 216.66666666666666 476.2031943707868, 213.33333333333334 430.9435951512106, 210 429.64862364718834 C 206.66666666666666 428.3536521431661, 203.33333333333334 427.63348168923403, 200 427.63348168923403 C 196.66666666666666 427.63348168923403, 193.33333333333334 438.48477066910715, 190 439.2018764310835 C 186.66666666666666 439.9189821930599, 183.33333333333334 439.9498157974895, 180 440.3878057894535 C 176.66666666666666 440.8257957814175, 173.33333333333334 441.86081094609955, 170 441.86081094609955 C 166.66666666666666 441.86081094609955, 163.33333333333334 429.7360310792691, 160 429.7360310792691 C 156.66666666666666 429.7360310792691, 153.33333333333334 439.39836548252254, 150 439.39836548252254 C 146.66666666666666 439.39836548252254, 143.33333333333334 436.7029244388595, 140 436.7029244388595 C 136.66666666666666 436.7029244388595, 133.33333333333334 446.36563730874934, 130 446.36563730874934 C 126.66666666666667 446.36563730874934, 123.33333333333333 441.9270959279155, 120 441.9270959279155 C 116.66666666666667 441.9270959279155, 113.33333333333333 446.51661872817584, 110 447.20443334838797 C 106.66666666666667 447.8922479686001, 103.33333333333333 447.8918241265834, 100 448.4868727880915 C 96.66666666666667 449.0819214495996, 93.33333333333333 451.4229315733585, 90 451.4229315733585 C 86.66666666666667 451.4229315733585, 83.33333333333333 442.04976707614065, 80 442.04976707614065 C 76.66666666666667 442.04976707614065, 73.33333333333333 446.16795649369755, 70 447.5529047598704 C 66.66666666666667 448.93785302604323, 63.333333333333336 449.2899495620815, 60 450.8901177332349 C 56.666666666666664 452.49028590438826, 53.333333333333336 459.43919863737335, 50 459.43919863737335 C 46.666666666666664 459.43919863737335, 43.333333333333336 444.42900564239426, 40 440.66151607032856 C 36.666666666666664 436.89402649826286, 33.333333333333336 435.03663257400336, 30 432.57729685129954 C 26.666666666666668 430.1179611285957, 23.333333333333332 428.91581425275257, 20 425.79202938091953 C 16.666666666666668 422.6682445090865, 13.333333333333334 414.81747342887866, 10 410.64927705770526 C 3.3333333333333335 402.8008464749836, 6.666666666666666 406.48108068653187, 10 410.64927705770526 Z" fill="#a0a0a0" stroke="white" stroke-width="5" />
  </g>
</svg>