<svg 
  baseProfile="tiny"
  preserveAspectRatio="keep"
  version="1.2"
  viewBox="-5.000000 -5.000000 2015.000000 805.000000"
  height="100%" width="100%"
  xmlns="http://www.w3.org/2000/svg"
  xmlns:ev="http://www.w3.org/2001/xml-events"
  xmlns:xlink="http://www.w3.org/1999/xlink"
>
  <g style="transform-origin: center center;">
    <path d="M 0 400 C 3.3333333333333335 394.01249516192075, 6.666666666666666 388.75009799494165, 10 384.8590366527812 C 13.333333333333334 380.9679753106207, 16.666666666666668 375.36117563960033, 20 375.36117563960033 C 23.333333333333332 375.36117563960033, 26.666666666666668 388.8908204775774, 30 388.8908204775774 C 33.333333333333336 388.8908204775774, 36.666666666666664 379.861656826861, 40 379.861656826861 C 43.333333333333336 379.861656826861, 46.666666666666664 395.69997365356795, 50 395.69997365356795 C 53.333333333333336 395.69997365356795, 56.666666666666664 371.61808608913196, 60 371.61808608913196 C 63.333333333333336 371.61808608913196, 66.66666666666667 376.0871976121332, 70 376.0871976121332 C 73.33333333333333 376.0871976121332, 76.66666666666667 370.243184881378, 80 370.243184881378 C 83.33333333333333 370.243184881378, 86.66666666666667 375.06376862391113, 90 375.06376862391113 C 93.33333333333333 375.06376862391113, 96.66666666666667 365.192734092523, 100 365.192734092523 C 103.33333333333333 365.192734092523, 106.66666666666667 368.3826929561854, 110 368.3826929561854 C 113.33333333333333 368.3826929561854, 116.66666666666667 361.37813440138495, 120 361.37813440138495 C 123.33333333333333 361.37813440138495, 126.66666666666667 371.1880662087933, 130 371.1880662087933 C 133.33333333333334 371.1880662087933, 136.66666666666666 362.49913235129077, 140 362.49913235129077 C 143.33333333333334 362.49913235129077, 146.66666666666666 362.65590239942935, 150 362.8849656440764 C 153.33333333333334 363.1140288887234, 156.66666666666666 366.02358495455894, 160 366.02358495455894 C 163.33333333333334 366.02358495455894, 166.66666666666666 365.999763030294, 170 365.9554535890954 C 173.33333333333334 365.9111441478968, 176.66666666666666 363.23935225664843, 180 363.23935225664843 C 183.33333333333334 363.23935225664843, 186.66666666666666 365.78701623149306, 190 365.78701623149306 C 193.33333333333334 365.78701623149306, 196.66666666666666 358.03122602264256, 200 358.03122602264256 C 203.33333333333334 358.03122602264256, 206.66666666666666 371.3206824840123, 210 371.3206824840123 C 213.33333333333334 371.3206824840123, 216.66666666666666 364.75267389973425, 220 363.73649181815705 C 223.33333333333334 362.72030973657985, 226.66666666666666 362.659786411272, 230 361.82881272782345 C 233.33333333333334 360.99783904437487, 236.66666666666666 358.23265435283804, 240 358.23265435283804 C 243.33333333333334 358.23265435283804, 246.66666666666666 364.54597405364325, 250 364.54597405364325 C 253.33333333333334 364.54597405364325, 256.6666666666667 355.8394756467149, 260 355.8394756467149 C 263.3333333333333 355.8394756467149, 266.6666666666667 362.3925438231676, 270 362.3925438231676 C 273.3333333333333 362.3925438231676, 276.6666666666667 355.77630313688303, 280 355.77630313688303 C 283.3333333333333 355.77630313688303, 286.6666666666667 368.67241678354077, 290 368.67241678354077 C 293.3333333333333 368.67241678354077, 296.6666666666667 361.3781499985966, 300 360.6998257727385 C 303.3333333333333 360.0215015468804, 306.6666666666667 359.99935240885117, 310 359.53348783524234 C 313.3333333333333 359.0676232616335, 316.6666666666667 357.79025429095503, 320 357.79025429095503 C 323.3333333333333 357.79025429095503, 326.6666666666667 371.115578102392, 330 371.115578102392 C 333.3333333333333 371.115578102392, 336.6666666666667 365.9259388043301, 340 363.2787765827487 C 343.3333333333333 360.63161436116735, 346.6666666666667 355.22977010796245, 350 355.22977010796245 C 353.3333333333333 355.22977010796245, 356.6666666666667 356.3015039302483, 360 357.69307533701266 C 363.3333333333333 359.084646743777, 366.6666666666667 371.36995633674354, 370 371.36995633674354 C 373.3333333333333 371.36995633674354, 376.6666666666667 367.48394682338903, 380 363.11853132007946 C 383.3333333333333 358.7531158167699, 386.6666666666667 331.3969953872478, 390 331.3969953872478 C 393.3333333333333 331.3969953872478, 396.6666666666667 352.5899871274958, 400 352.5899871274958 C 403.3333333333333 352.5899871274958, 406.6666666666667 312.1791416147085, 410 312.1791416147085 C 413.3333333333333 312.1791416147085, 416.6666666666667 359.57217633359875, 420 359.57217633359875 C 423.3333333333333 359.57217633359875, 426.6666666666667 329.9792518177493, 430 329.9792518177493 C 433.3333333333333 329.9792518177493, 436.6666666666667 354.3084098066613, 440 354.3084098066613 C 443.3333333333333 354.3084098066613, 446.6666666666667 311.89838070486496, 450 311.89838070486496 C 453.3333333333333 311.89838070486496, 456.6666666666667 354.7032626212009, 460 354.7032626212009 C 463.3333333333333 354.7032626212009, 466.6666666666667 310.5827902734818, 470 310.5827902734818 C 473.3333333333333 310.5827902734818, 476.6666666666667 355.1382208720894, 480 355.1382208720894 C 483.3333333333333 355.1382208720894, 486.6666666666667 308.89987026955566, 490 308.89987026955566 C 493.3333333333333 308.89987026955566, 496.6666666666667 350.81273775933147, 500 350.81273775933147 C 503.3333333333333 350.81273775933147, 506.6666666666667 323.9137294985146, 510 323.9137294985146 C 513.3333333333334 323.9137294985146, 516.6666666666666 339.6458567369437, 520 339.6458567369437 C 523.3333333333334 339.6458567369437, 526.6666666666666 307.2166403942449, 530 307.2166403942449 C 533.3333333333334 307.2166403942449, 536.6666666666666 349.3068235344462, 540 349.3068235344462 C 543.3333333333334 349.3068235344462, 546.6666666666666 309.6899779147833, 550 309.6899779147833 C 553.3333333333334 309.6899779147833, 556.6666666666666 339.0785816679599, 560 339.0785816679599 C 563.3333333333334 339.0785816679599, 566.6666666666666 320.0075682180174, 570 320.0075682180174 C 573.3333333333334 320.0075682180174, 576.6666666666666 351.6041501540855, 580 351.6041501540855 C 583.3333333333334 351.6041501540855, 586.6666666666666 335.6722562193064, 590 333.34482516956564 C 593.3333333333334 331.01739411982487, 596.6666666666666 329.02838355401417, 600 329.02838355401417 C 603.3333333333334 329.02838355401417, 606.6666666666666 330.845134104439, 610 330.845134104439 C 613.3333333333334 330.845134104439, 616.6666666666666 326.57158556003947, 620 326.57158556003947 C 623.3333333333334 326.57158556003947, 626.6666666666666 331.4189360107846, 630 331.4189360107846 C 633.3333333333334 331.4189360107846, 636.6666666666666 326.8323908996158, 640 326.8323908996158 C 643.3333333333334 326.8323908996158, 646.6666666666666 330.45037136481596, 650 334.2036051389045 C 653.3333333333334 337.956838912993, 656.6666666666666 358.0348348022451, 660 358.0348348022451 C 663.3333333333334 358.0348348022451, 666.6666666666666 326.3191616167128, 670 326.03628468913826 C 673.3333333333334 325.7534077615637, 676.6666666666666 325.60626706768494, 680 325.60626706768494 C 683.3333333333334 325.60626706768494, 686.6666666666666 332.29657550553475, 690 332.29657550553475 C 693.3333333333334 332.29657550553475, 696.6666666666666 328.28689829044816, 700 328.28689829044816 C 703.3333333333334 328.28689829044816, 706.6666666666666 346.4883966140499, 710 347.4237236481087 C 713.3333333333334 348.3590506821675, 716.6666666666666 348.16066986384226, 720 348.9377100727861 C 723.3333333333334 349.71475028172995, 726.6666666666666 354.002320429526, 730 354.002320429526 C 733.3333333333334 354.002320429526, 736.6666666666666 325.3796752262573, 740 325.3796752262573 C 743.3333333333334 325.3796752262573, 746.6666666666666 340.9964724703584, 750 340.9964724703584 C 753.3333333333334 340.9964724703584, 756.6666666666666 326.6810705647017, 760 325.79943213461365 C 763.3333333333334 324.9177937045256, 766.6666666666666 325.24979572391504, 770 324.35092426785206 C 773.3333333333334 323.4520528117891, 776.6666666666666 304.8597041385465, 780 304.8597041385465 C 783.3333333333334 304.8597041385465, 786.6666666666666 348.2798376948033, 790 348.2798376948033 C 793.3333333333334 348.2798376948033, 796.6666666666666 327.48840560578674, 800 327.48840560578674 C 803.3333333333334 327.48840560578674, 806.6666666666666 327.7261965858672, 810 327.7261965858672 C 813.3333333333334 327.7261965858672, 816.6666666666666 320.0390791400762, 820 320.0390791400762 C 823.3333333333334 320.0390791400762, 826.6666666666666 353.0445929887459, 830 353.0445929887459 C 833.3333333333334 353.0445929887459, 836.6666666666666 326.06467929585466, 840 326.06467929585466 C 843.3333333333334 326.06467929585466, 846.6666666666666 328.6144554184631, 850 328.6144554184631 C 853.3333333333334 328.6144554184631, 856.6666666666666 307.87102067352924, 860 307.87102067352924 C 863.3333333333334 307.87102067352924, 866.6666666666666 349.1322929018584, 870 349.1322929018584 C 873.3333333333334 349.1322929018584, 876.6666666666666 315.7954038070817, 880 315.7954038070817 C 883.3333333333334 315.7954038070817, 886.6666666666666 332.2780432290766, 890 332.2780432290766 C 893.3333333333334 332.2780432290766, 896.6666666666666 325.4036776667381, 900 325.4036776667381 C 903.3333333333334 325.4036776667381, 906.6666666666666 352.0290959212606, 910 352.0290959212606 C 913.3333333333334 352.0290959212606, 916.6666666666666 305.0291561252933, 920 305.0291561252933 C 923.3333333333334 305.0291561252933, 926.6666666666666 344.36025422993475, 930 344.36025422993475 C 933.3333333333334 344.36025422993475, 936.6666666666666 307.0955822605154, 940 307.0955822605154 C 943.3333333333334 307.0955822605154, 946.6666666666666 348.5438352220802, 950 348.5438352220802 C 953.3333333333334 348.5438352220802, 956.6666666666666 303.02539802471966, 960 303.02539802471966 C 963.3333333333334 303.02539802471966, 966.6666666666666 351.97032090678346, 970 351.97032090678346 C 973.3333333333334 351.97032090678346, 976.6666666666666 323.296151863383, 980 323.296151863383 C 983.3333333333334 323.296151863383, 986.6666666666666 344.59021299229124, 990 344.59021299229124 C 993.3333333333334 344.59021299229124, 996.6666666666666 302.82488299627227, 1000 302.82488299627227 C 1003.3333333333334 302.82488299627227, 1006.6666666666666 347.64714803074617, 1010 347.64714803074617 C 1013.3333333333334 347.64714803074617, 1016.6666666666666 320.42969905004054, 1020 320.42969905004054 C 1023.3333333333334 320.42969905004054, 1026.6666666666667 339.4627611473324, 1030 339.4627611473324 C 1033.3333333333333 339.4627611473324, 1036.6666666666667 335.3632771856586, 1040 335.3632771856586 C 1043.3333333333333 335.3632771856586, 1046.6666666666667 340.5125858255901, 1050 340.5125858255901 C 1053.3333333333333 340.5125858255901, 1056.6666666666667 338.25065954311845, 1060 338.25065954311845 C 1063.3333333333333 338.25065954311845, 1066.6666666666667 347.1939835700206, 1070 347.1939835700206 C 1073.3333333333333 347.1939835700206, 1076.6666666666667 332.4708559175343, 1080 332.4708559175343 C 1083.3333333333333 332.4708559175343, 1086.6666666666667 337.3860971616027, 1090 337.5501011983972 C 1093.3333333333333 337.7141052351917, 1096.6666666666667 337.8086286654962, 1100 337.8086286654962 C 1103.3333333333333 337.8086286654962, 1106.6666666666667 337.356189377963, 1110 337.09471702578685 C 1113.3333333333333 336.8332446736107, 1116.6666666666667 336.22434237425404, 1120 336.22434237425404 C 1123.3333333333333 336.22434237425404, 1126.6666666666667 344.25116965178154, 1130 344.25116965178154 C 1133.3333333333333 344.25116965178154, 1136.6666666666667 335.3369474725573, 1140 335.3369474725573 C 1143.3333333333333 335.3369474725573, 1146.6666666666667 337.5684134044758, 1150 337.5684134044758 C 1153.3333333333333 337.5684134044758, 1156.6666666666667 333.084658947306, 1160 333.084658947306 C 1163.3333333333333 333.084658947306, 1166.6666666666667 338.6091420848617, 1170 338.6091420848617 C 1173.3333333333333 338.6091420848617, 1176.6666666666667 332.1676995537084, 1180 332.1676995537084 C 1183.3333333333333 332.1676995537084, 1186.6666666666667 337.1306511460123, 1190 337.225232289458 C 1193.3333333333333 337.3198134329037, 1196.6666666666667 337.2773342885093, 1200 337.37119858793494 C 1203.3333333333333 337.4650628873606, 1206.6666666666667 341.3464665645966, 1210 341.3464665645966 C 1213.3333333333333 341.3464665645966, 1216.6666666666667 334.07617593584666, 1220 334.07617593584666 C 1223.3333333333333 334.07617593584666, 1226.6666666666667 340.6358796427812, 1230 340.6358796427812 C 1233.3333333333333 340.6358796427812, 1236.6666666666667 336.9872940184989, 1240 336.9872940184989 C 1243.3333333333333 336.9872940184989, 1246.6666666666667 338.3778457604915, 1250 338.3778457604915 C 1253.3333333333333 338.3778457604915, 1256.6666666666667 336.300466364627, 1260 336.300466364627 C 1263.3333333333333 336.300466364627, 1266.6666666666667 343.5781363011246, 1270 343.5781363011246 C 1273.3333333333333 343.5781363011246, 1276.6666666666667 342.62895742838435, 1280 342.3413897749195 C 1283.3333333333333 342.05382212145463, 1286.6666666666667 341.88132877405457, 1290 341.67901613933304 C 1293.3333333333333 341.4767035046115, 1296.6666666666667 341.11895146947205, 1300 341.11895146947205 C 1303.3333333333333 341.11895146947205, 1306.6666666666667 341.79279324597957, 1310 341.79279324597957 C 1313.3333333333333 341.79279324597957, 1316.6666666666667 338.9521706926837, 1320 338.9521706926837 C 1323.3333333333333 338.9521706926837, 1326.6666666666667 346.04507228064995, 1330 346.04507228064995 C 1333.3333333333333 346.04507228064995, 1336.6666666666667 326.5737361391487, 1340 326.5737361391487 C 1343.3333333333333 326.5737361391487, 1346.6666666666667 332.0844534002461, 1350 332.23386022512614 C 1353.3333333333333 332.38326705000617, 1356.6666666666667 332.3133852410255, 1360 332.4672098426005 C 1363.3333333333333 332.62103444417545, 1366.6666666666667 353.07503181991996, 1370 353.07503181991996 C 1373.3333333333333 353.07503181991996, 1376.6666666666667 341.81267011913434, 1380 338.80740327151386 C 1383.3333333333333 335.8021364238934, 1386.6666666666667 333.11508496920163, 1390 332.2173584689586 C 1393.3333333333333 331.31963196871556, 1396.6666666666667 331.5509318767418, 1400 330.52494636716006 C 1403.3333333333333 329.4989608575783, 1406.6666666666667 313.54964624611046, 1410 313.54964624611046 C 1413.3333333333333 313.54964624611046, 1416.6666666666667 346.54358048231956, 1420 346.54358048231956 C 1423.3333333333333 346.54358048231956, 1426.6666666666667 331.8004261047686, 1430 331.4685160479346 C 1433.3333333333333 331.1366059911006, 1436.6666666666667 330.9552865632866, 1440 330.95364703503094 C 1443.3333333333333 330.95200750677526, 1446.6666666666667 330.9511759393603, 1450 330.9511759393603 C 1453.3333333333333 330.9511759393603, 1456.6666666666667 351.06148465937986, 1460 351.06148465937986 C 1463.3333333333333 351.06148465937986, 1466.6666666666667 333.38824215471226, 1470 332.8564498786393 C 1473.3333333333333 332.32465760256633, 1476.6666666666667 332.55655533534133, 1480 332.02220754111136 C 1483.3333333333333 331.4878597468814, 1486.6666666666667 311.5866902952725, 1490 311.5866902952725 C 1493.3333333333333 311.5866902952725, 1496.6666666666667 343.0871609696872, 1500 343.0871609696872 C 1503.3333333333333 343.0871609696872, 1506.6666666666667 322.17940325537967, 1510 322.17940325537967 C 1513.3333333333333 322.17940325537967, 1516.6666666666667 322.4590159314702, 1520 322.4590159314702 C 1523.3333333333333 322.4590159314702, 1526.6666666666667 321.11272500220787, 1530 321.11272500220787 C 1533.3333333333333 321.11272500220787, 1536.6666666666667 342.4506934501052, 1540 342.4506934501052 C 1543.3333333333333 342.4506934501052, 1546.6666666666667 313.03279698547055, 1550 313.03279698547055 C 1553.3333333333333 313.03279698547055, 1556.6666666666667 332.3121427641531, 1560 332.3121427641531 C 1563.3333333333333 332.3121427641531, 1566.6666666666667 304.6227687745943, 1570 304.6227687745943 C 1573.3333333333333 304.6227687745943, 1576.6666666666667 330.05562797095206, 1580 330.05562797095206 C 1583.3333333333333 330.05562797095206, 1586.6666666666667 303.2620901723783, 1590 303.2620901723783 C 1593.3333333333333 303.2620901723783, 1596.6666666666667 333.1106022571887, 1600 333.1106022571887 C 1603.3333333333333 333.1106022571887, 1606.6666666666667 319.2483733598177, 1610 319.2483733598177 C 1613.3333333333333 319.2483733598177, 1616.6666666666667 340.32255067376417, 1620 340.32255067376417 C 1623.3333333333333 340.32255067376417, 1626.6666666666667 304.5653923607038, 1630 304.5653923607038 C 1633.3333333333333 304.5653923607038, 1636.6666666666667 329.0017681406641, 1640 329.0017681406641 C 1643.3333333333333 329.0017681406641, 1646.6666666666667 310.08837303633624, 1650 310.08837303633624 C 1653.3333333333333 310.08837303633624, 1656.6666666666667 328.67241695553537, 1660 328.67241695553537 C 1663.3333333333333 328.67241695553537, 1666.6666666666667 321.6520942247859, 1670 321.5241369214457 C 1673.3333333333333 321.39617961810546, 1676.6666666666667 321.3269051658816, 1680 321.3269051658816 C 1683.3333333333333 321.3269051658816, 1686.6666666666667 334.2337655624155, 1690 334.2337655624155 C 1693.3333333333333 334.2337655624155, 1696.6666666666667 333.76899667465716, 1700 333.76899667465716 C 1703.3333333333333 333.76899667465716, 1706.6666666666667 336.667018670799, 1710 336.667018670799 C 1713.3333333333333 336.667018670799, 1716.6666666666667 334.0033305174287, 1720 332.072813294403 C 1723.3333333333333 330.14229607137725, 1726.6666666666667 324.2398190017308, 1730 324.2398190017308 C 1733.3333333333333 324.2398190017308, 1736.6666666666667 327.29739794831494, 1740 328.9230305746944 C 1743.3333333333333 330.54866320107385, 1746.6666666666667 334.0103267208365, 1750 334.0103267208365 C 1753.3333333333333 334.0103267208365, 1756.6666666666667 332.88938427130734, 1760 331.4123524581974 C 1763.3333333333333 329.9353206450875, 1766.6666666666667 316.36126340832595, 1770 316.36126340832595 C 1773.3333333333333 316.36126340832595, 1776.6666666666667 319.00469973240075, 1780 321.6253320632372 C 1783.3333333333333 324.2459643940736, 1786.6666666666667 337.14740081963225, 1790 337.14740081963225 C 1793.3333333333333 337.14740081963225, 1796.6666666666667 335.2778961938281, 1800 333.0251912586093 C 1803.3333333333333 330.7724863233905, 1806.6666666666667 314.2818120197994, 1810 314.2818120197994 C 1813.3333333333333 314.2818120197994, 1816.6666666666667 322.8168202907964, 1820 325.6426051527328 C 1823.3333333333333 328.46839001466924, 1826.6666666666667 331.7418895019623, 1830 332.403901509541 C 1833.3333333333333 333.0659135171197, 1836.6666666666667 333.5678691027165, 1840 333.5678691027165 C 1843.3333333333333 333.5678691027165, 1846.6666666666667 323.8857105705282, 1850 323.8857105705282 C 1853.3333333333333 323.8857105705282, 1856.6666666666667 324.96823474336617, 1860 326.3727772850107 C 1863.3333333333333 327.7773198266553, 1866.6666666666667 340.15251829112293, 1870 340.15251829112293 C 1873.3333333333333 340.15251829112293, 1876.6666666666667 338.5584069022148, 1880 336.5329977936432 C 1883.3333333333333 334.50758868507154, 1886.6666666666667 317.6193661994602, 1890 317.6193661994602 C 1893.3333333333333 317.6193661994602, 1896.6666666666667 319.5125975000686, 1900 322.02967892980246 C 1903.3333333333333 324.54676035953634, 1906.6666666666667 348.2655721089083, 1910 348.2655721089083 C 1913.3333333333333 348.2655721089083, 1916.6666666666667 337.60900404017156, 1920 333.2954687875674 C 1923.3333333333333 328.9819335349633, 1926.6666666666667 321.8997774094471, 1930 321.8997774094471 C 1933.3333333333333 321.8997774094471, 1936.6666666666667 326.2664072508133, 1940 330.865444108717 C 1943.3333333333333 335.46448096662067, 1946.6666666666667 356.4298745157114, 1950 360.7864957931993 C 1953.3333333333333 365.14311707068725, 1956.6666666666667 365.4113841236534, 1960 369.1475252225281 C 1963.3333333333333 372.88366632140276, 1966.6666666666667 386.14428824487146, 1970 386.14428824487146 C 1973.3333333333333 386.14428824487146, 1976.6666666666667 374.05737341384156, 1980 374.05737341384156 C 1983.3333333333333 374.05737341384156, 1986.6666666666667 399.0709429747263, 1990 399.0709429747263 C 1993.3333333333333 399.0709429747263, 1996.6666666666667 388.99408845938916, 2000 388.99408845938916 C 2003.3333333333333 388.99408845938916, 2006.6666666666667 392.81756847713837, 2010 400 c 0 0, 0 0, 0 0C 2006.6666666666667 407.18243152286163, 2003.3333333333333 411.00591154061084, 2000 411.00591154061084 C 1996.6666666666667 411.00591154061084, 1993.3333333333333 400.9290570252737, 1990 400.9290570252737 C 1986.6666666666667 400.9290570252737, 1983.3333333333333 425.94262658615844, 1980 425.94262658615844 C 1976.6666666666667 425.94262658615844, 1973.3333333333333 413.85571175512854, 1970 413.85571175512854 C 1966.6666666666667 413.85571175512854, 1963.3333333333333 427.11633367859724, 1960 430.8524747774719 C 1956.6666666666667 434.5886158763466, 1953.3333333333333 434.85688292931275, 1950 439.2135042068007 C 1946.6666666666667 443.5701254842886, 1943.3333333333333 464.53551903337933, 1940 469.134555891283 C 1936.6666666666667 473.7335927491867, 1933.3333333333333 478.1002225905529, 1930 478.1002225905529 C 1926.6666666666667 478.1002225905529, 1923.3333333333333 471.0180664650367, 1920 466.7045312124326 C 1916.6666666666667 462.39099595982844, 1913.3333333333333 451.7344278910917, 1910 451.7344278910917 C 1906.6666666666667 451.7344278910917, 1903.3333333333333 475.45323964046366, 1900 477.97032107019754 C 1896.6666666666667 480.4874024999314, 1893.3333333333333 482.3806338005398, 1890 482.3806338005398 C 1886.6666666666667 482.3806338005398, 1883.3333333333333 465.49241131492846, 1880 463.4670022063568 C 1876.6666666666667 461.4415930977852, 1873.3333333333333 459.84748170887707, 1870 459.84748170887707 C 1866.6666666666667 459.84748170887707, 1863.3333333333333 472.2226801733447, 1860 473.6272227149893 C 1856.6666666666667 475.03176525663383, 1853.3333333333333 476.1142894294718, 1850 476.1142894294718 C 1846.6666666666667 476.1142894294718, 1843.3333333333333 466.4321308972835, 1840 466.4321308972835 C 1836.6666666666667 466.4321308972835, 1833.3333333333333 466.9340864828803, 1830 467.596098490459 C 1826.6666666666667 468.2581104980377, 1823.3333333333333 471.53160998533076, 1820 474.3573948472672 C 1816.6666666666667 477.1831797092036, 1813.3333333333333 485.7181879802006, 1810 485.7181879802006 C 1806.6666666666667 485.7181879802006, 1803.3333333333333 469.2275136766095, 1800 466.9748087413907 C 1796.6666666666667 464.7221038061719, 1793.3333333333333 462.85259918036775, 1790 462.85259918036775 C 1786.6666666666667 462.85259918036775, 1783.3333333333333 475.7540356059264, 1780 478.3746679367628 C 1776.6666666666667 480.99530026759925, 1773.3333333333333 483.63873659167405, 1770 483.63873659167405 C 1766.6666666666667 483.63873659167405, 1763.3333333333333 470.0646793549125, 1760 468.5876475418026 C 1756.6666666666667 467.11061572869266, 1753.3333333333333 465.9896732791635, 1750 465.9896732791635 C 1746.6666666666667 465.9896732791635, 1743.3333333333333 469.45133679892615, 1740 471.0769694253056 C 1736.6666666666667 472.70260205168506, 1733.3333333333333 475.7601809982692, 1730 475.7601809982692 C 1726.6666666666667 475.7601809982692, 1723.3333333333333 469.85770392862275, 1720 467.927186705597 C 1716.6666666666667 465.9966694825713, 1713.3333333333333 463.332981329201, 1710 463.332981329201 C 1706.6666666666667 463.332981329201, 1703.3333333333333 466.23100332534284, 1700 466.23100332534284 C 1696.6666666666667 466.23100332534284, 1693.3333333333333 465.7662344375845, 1690 465.7662344375845 C 1686.6666666666667 465.7662344375845, 1683.3333333333333 478.6730948341184, 1680 478.6730948341184 C 1676.6666666666667 478.6730948341184, 1673.3333333333333 478.60382038189454, 1670 478.4758630785543 C 1666.6666666666667 478.3479057752141, 1663.3333333333333 471.32758304446463, 1660 471.32758304446463 C 1656.6666666666667 471.32758304446463, 1653.3333333333333 489.91162696366376, 1650 489.91162696366376 C 1646.6666666666667 489.91162696366376, 1643.3333333333333 470.9982318593359, 1640 470.9982318593359 C 1636.6666666666667 470.9982318593359, 1633.3333333333333 495.4346076392962, 1630 495.4346076392962 C 1626.6666666666667 495.4346076392962, 1623.3333333333333 459.67744932623583, 1620 459.67744932623583 C 1616.6666666666667 459.67744932623583, 1613.3333333333333 480.7516266401823, 1610 480.7516266401823 C 1606.6666666666667 480.7516266401823, 1603.3333333333333 466.8893977428113, 1600 466.8893977428113 C 1596.6666666666667 466.8893977428113, 1593.3333333333333 496.7379098276217, 1590 496.7379098276217 C 1586.6666666666667 496.7379098276217, 1583.3333333333333 469.94437202904794, 1580 469.94437202904794 C 1576.6666666666667 469.94437202904794, 1573.3333333333333 495.3772312254057, 1570 495.3772312254057 C 1566.6666666666667 495.3772312254057, 1563.3333333333333 467.6878572358469, 1560 467.6878572358469 C 1556.6666666666667 467.6878572358469, 1553.3333333333333 486.96720301452945, 1550 486.96720301452945 C 1546.6666666666667 486.96720301452945, 1543.3333333333333 457.5493065498948, 1540 457.5493065498948 C 1536.6666666666667 457.5493065498948, 1533.3333333333333 478.88727499779213, 1530 478.88727499779213 C 1526.6666666666667 478.88727499779213, 1523.3333333333333 477.5409840685298, 1520 477.5409840685298 C 1516.6666666666667 477.5409840685298, 1513.3333333333333 477.82059674462033, 1510 477.82059674462033 C 1506.6666666666667 477.82059674462033, 1503.3333333333333 456.9128390303128, 1500 456.9128390303128 C 1496.6666666666667 456.9128390303128, 1493.3333333333333 488.4133097047275, 1490 488.4133097047275 C 1486.6666666666667 488.4133097047275, 1483.3333333333333 468.5121402531186, 1480 467.97779245888864 C 1476.6666666666667 467.44344466465867, 1473.3333333333333 467.67534239743367, 1470 467.1435501213607 C 1466.6666666666667 466.61175784528774, 1463.3333333333333 448.93851534062014, 1460 448.93851534062014 C 1456.6666666666667 448.93851534062014, 1453.3333333333333 469.0488240606397, 1450 469.0488240606397 C 1446.6666666666667 469.0488240606397, 1443.3333333333333 469.04799249322474, 1440 469.04635296496906 C 1436.6666666666667 469.0447134367134, 1433.3333333333333 468.8633940088994, 1430 468.5314839520654 C 1426.6666666666667 468.1995738952314, 1423.3333333333333 453.45641951768044, 1420 453.45641951768044 C 1416.6666666666667 453.45641951768044, 1413.3333333333333 486.45035375388954, 1410 486.45035375388954 C 1406.6666666666667 486.45035375388954, 1403.3333333333333 470.5010391424217, 1400 469.47505363283994 C 1396.6666666666667 468.4490681232582, 1393.3333333333333 468.68036803128444, 1390 467.7826415310414 C 1386.6666666666667 466.88491503079837, 1383.3333333333333 464.1978635761066, 1380 461.19259672848614 C 1376.6666666666667 458.18732988086566, 1373.3333333333333 446.92496818008004, 1370 446.92496818008004 C 1366.6666666666667 446.92496818008004, 1363.3333333333333 467.37896555582455, 1360 467.5327901573995 C 1356.6666666666667 467.6866147589745, 1353.3333333333333 467.61673294999383, 1350 467.76613977487386 C 1346.6666666666667 467.9155465997539, 1343.3333333333333 473.4262638608513, 1340 473.4262638608513 C 1336.6666666666667 473.4262638608513, 1333.3333333333333 453.95492771935005, 1330 453.95492771935005 C 1326.6666666666667 453.95492771935005, 1323.3333333333333 461.0478293073163, 1320 461.0478293073163 C 1316.6666666666667 461.0478293073163, 1313.3333333333333 458.20720675402043, 1310 458.20720675402043 C 1306.6666666666667 458.20720675402043, 1303.3333333333333 458.88104853052795, 1300 458.88104853052795 C 1296.6666666666667 458.88104853052795, 1293.3333333333333 458.5232964953885, 1290 458.32098386066696 C 1286.6666666666667 458.11867122594543, 1283.3333333333333 457.94617787854537, 1280 457.6586102250805 C 1276.6666666666667 457.37104257161565, 1273.3333333333333 456.4218636988754, 1270 456.4218636988754 C 1266.6666666666667 456.4218636988754, 1263.3333333333333 463.699533635373, 1260 463.699533635373 C 1256.6666666666667 463.699533635373, 1253.3333333333333 461.6221542395085, 1250 461.6221542395085 C 1246.6666666666667 461.6221542395085, 1243.3333333333333 463.0127059815011, 1240 463.0127059815011 C 1236.6666666666667 463.0127059815011, 1233.3333333333333 459.3641203572188, 1230 459.3641203572188 C 1226.6666666666667 459.3641203572188, 1223.3333333333333 465.92382406415334, 1220 465.92382406415334 C 1216.6666666666667 465.92382406415334, 1213.3333333333333 458.6535334354034, 1210 458.6535334354034 C 1206.6666666666667 458.6535334354034, 1203.3333333333333 462.5349371126394, 1200 462.62880141206506 C 1196.6666666666667 462.7226657114907, 1193.3333333333333 462.6801865670963, 1190 462.774767710542 C 1186.6666666666667 462.8693488539877, 1183.3333333333333 467.8323004462916, 1180 467.8323004462916 C 1176.6666666666667 467.8323004462916, 1173.3333333333333 461.3908579151383, 1170 461.3908579151383 C 1166.6666666666667 461.3908579151383, 1163.3333333333333 466.915341052694, 1160 466.915341052694 C 1156.6666666666667 466.915341052694, 1153.3333333333333 462.4315865955242, 1150 462.4315865955242 C 1146.6666666666667 462.4315865955242, 1143.3333333333333 464.6630525274427, 1140 464.6630525274427 C 1136.6666666666667 464.6630525274427, 1133.3333333333333 455.74883034821846, 1130 455.74883034821846 C 1126.6666666666667 455.74883034821846, 1123.3333333333333 463.77565762574596, 1120 463.77565762574596 C 1116.6666666666667 463.77565762574596, 1113.3333333333333 463.1667553263893, 1110 462.90528297421315 C 1106.6666666666667 462.643810622037, 1103.3333333333333 462.1913713345038, 1100 462.1913713345038 C 1096.6666666666667 462.1913713345038, 1093.3333333333333 462.2858947648083, 1090 462.4498988016028 C 1086.6666666666667 462.6139028383973, 1083.3333333333333 467.5291440824657, 1080 467.5291440824657 C 1076.6666666666667 467.5291440824657, 1073.3333333333333 452.8060164299794, 1070 452.8060164299794 C 1066.6666666666667 452.8060164299794, 1063.3333333333333 461.74934045688155, 1060 461.74934045688155 C 1056.6666666666667 461.74934045688155, 1053.3333333333333 459.4874141744099, 1050 459.4874141744099 C 1046.6666666666667 459.4874141744099, 1043.3333333333333 464.6367228143414, 1040 464.6367228143414 C 1036.6666666666667 464.6367228143414, 1033.3333333333333 460.5372388526676, 1030 460.5372388526676 C 1026.6666666666667 460.5372388526676, 1023.3333333333334 479.57030094995946, 1020 479.57030094995946 C 1016.6666666666666 479.57030094995946, 1013.3333333333334 452.35285196925383, 1010 452.35285196925383 C 1006.6666666666666 452.35285196925383, 1003.3333333333334 497.17511700372773, 1000 497.17511700372773 C 996.6666666666666 497.17511700372773, 993.3333333333334 455.40978700770876, 990 455.40978700770876 C 986.6666666666666 455.40978700770876, 983.3333333333334 476.703848136617, 980 476.703848136617 C 976.6666666666666 476.703848136617, 973.3333333333334 448.02967909321654, 970 448.02967909321654 C 966.6666666666666 448.02967909321654, 963.3333333333334 496.97460197528034, 960 496.97460197528034 C 956.6666666666666 496.97460197528034, 953.3333333333334 451.4561647779198, 950 451.4561647779198 C 946.6666666666666 451.4561647779198, 943.3333333333334 492.9044177394846, 940 492.9044177394846 C 936.6666666666666 492.9044177394846, 933.3333333333334 455.63974577006525, 930 455.63974577006525 C 926.6666666666666 455.63974577006525, 923.3333333333334 494.9708438747067, 920 494.9708438747067 C 916.6666666666666 494.9708438747067, 913.3333333333334 447.9709040787394, 910 447.9709040787394 C 906.6666666666666 447.9709040787394, 903.3333333333334 474.5963223332619, 900 474.5963223332619 C 896.6666666666666 474.5963223332619, 893.3333333333334 467.7219567709234, 890 467.7219567709234 C 886.6666666666666 467.7219567709234, 883.3333333333334 484.2045961929183, 880 484.2045961929183 C 876.6666666666666 484.2045961929183, 873.3333333333334 450.8677070981416, 870 450.8677070981416 C 866.6666666666666 450.8677070981416, 863.3333333333334 492.12897932647076, 860 492.12897932647076 C 856.6666666666666 492.12897932647076, 853.3333333333334 471.3855445815369, 850 471.3855445815369 C 846.6666666666666 471.3855445815369, 843.3333333333334 473.93532070414534, 840 473.93532070414534 C 836.6666666666666 473.93532070414534, 833.3333333333334 446.9554070112541, 830 446.9554070112541 C 826.6666666666666 446.9554070112541, 823.3333333333334 479.9609208599238, 820 479.9609208599238 C 816.6666666666666 479.9609208599238, 813.3333333333334 472.2738034141328, 810 472.2738034141328 C 806.6666666666666 472.2738034141328, 803.3333333333334 472.51159439421326, 800 472.51159439421326 C 796.6666666666666 472.51159439421326, 793.3333333333334 451.7201623051967, 790 451.7201623051967 C 786.6666666666666 451.7201623051967, 783.3333333333334 495.1402958614535, 780 495.1402958614535 C 776.6666666666666 495.1402958614535, 773.3333333333334 476.5479471882109, 770 475.64907573214794 C 766.6666666666666 474.75020427608496, 763.3333333333334 475.0822062954744, 760 474.20056786538635 C 756.6666666666666 473.3189294352983, 753.3333333333334 459.0035275296416, 750 459.0035275296416 C 746.6666666666666 459.0035275296416, 743.3333333333334 474.6203247737427, 740 474.6203247737427 C 736.6666666666666 474.6203247737427, 733.3333333333334 445.997679570474, 730 445.997679570474 C 726.6666666666666 445.997679570474, 723.3333333333334 450.28524971827005, 720 451.0622899272139 C 716.6666666666666 451.83933013615774, 713.3333333333334 451.6409493178325, 710 452.5762763518913 C 706.6666666666666 453.5116033859501, 703.3333333333334 471.71310170955184, 700 471.71310170955184 C 696.6666666666666 471.71310170955184, 693.3333333333334 467.70342449446525, 690 467.70342449446525 C 686.6666666666666 467.70342449446525, 683.3333333333334 474.39373293231506, 680 474.39373293231506 C 676.6666666666666 474.39373293231506, 673.3333333333334 474.2465922384363, 670 473.96371531086174 C 666.6666666666666 473.6808383832872, 663.3333333333334 441.9651651977549, 660 441.9651651977549 C 656.6666666666666 441.9651651977549, 653.3333333333334 462.043161087007, 650 465.7963948610955 C 646.6666666666666 469.54962863518404, 643.3333333333334 473.1676091003842, 640 473.1676091003842 C 636.6666666666666 473.1676091003842, 633.3333333333334 468.5810639892154, 630 468.5810639892154 C 626.6666666666666 468.5810639892154, 623.3333333333334 473.42841443996053, 620 473.42841443996053 C 616.6666666666666 473.42841443996053, 613.3333333333334 469.154865895561, 610 469.154865895561 C 606.6666666666666 469.154865895561, 603.3333333333334 470.97161644598583, 600 470.97161644598583 C 596.6666666666666 470.97161644598583, 593.3333333333334 468.98260588017513, 590 466.65517483043436 C 586.6666666666666 464.3277437806936, 583.3333333333334 448.3958498459145, 580 448.3958498459145 C 576.6666666666666 448.3958498459145, 573.3333333333334 479.9924317819826, 570 479.9924317819826 C 566.6666666666666 479.9924317819826, 563.3333333333334 460.9214183320401, 560 460.9214183320401 C 556.6666666666666 460.9214183320401, 553.3333333333334 490.3100220852167, 550 490.3100220852167 C 546.6666666666666 490.3100220852167, 543.3333333333334 450.6931764655538, 540 450.6931764655538 C 536.6666666666666 450.6931764655538, 533.3333333333334 492.7833596057551, 530 492.7833596057551 C 526.6666666666666 492.7833596057551, 523.3333333333334 460.3541432630563, 520 460.3541432630563 C 516.6666666666666 460.3541432630563, 513.3333333333334 476.0862705014854, 510 476.0862705014854 C 506.6666666666667 476.0862705014854, 503.3333333333333 449.18726224066853, 500 449.18726224066853 C 496.6666666666667 449.18726224066853, 493.3333333333333 491.10012973044434, 490 491.10012973044434 C 486.6666666666667 491.10012973044434, 483.3333333333333 444.8617791279106, 480 444.8617791279106 C 476.6666666666667 444.8617791279106, 473.3333333333333 489.4172097265182, 470 489.4172097265182 C 466.6666666666667 489.4172097265182, 463.3333333333333 445.2967373787991, 460 445.2967373787991 C 456.6666666666667 445.2967373787991, 453.3333333333333 488.10161929513504, 450 488.10161929513504 C 446.6666666666667 488.10161929513504, 443.3333333333333 445.6915901933387, 440 445.6915901933387 C 436.6666666666667 445.6915901933387, 433.3333333333333 470.0207481822507, 430 470.0207481822507 C 426.6666666666667 470.0207481822507, 423.3333333333333 440.42782366640125, 420 440.42782366640125 C 416.6666666666667 440.42782366640125, 413.3333333333333 487.8208583852915, 410 487.8208583852915 C 406.6666666666667 487.8208583852915, 403.3333333333333 447.4100128725042, 400 447.4100128725042 C 396.6666666666667 447.4100128725042, 393.3333333333333 468.6030046127522, 390 468.6030046127522 C 386.6666666666667 468.6030046127522, 383.3333333333333 441.2468841832301, 380 436.88146867992054 C 376.6666666666667 432.51605317661097, 373.3333333333333 428.63004366325646, 370 428.63004366325646 C 366.6666666666667 428.63004366325646, 363.3333333333333 440.915353256223, 360 442.30692466298734 C 356.6666666666667 443.6984960697517, 353.3333333333333 444.77022989203755, 350 444.77022989203755 C 346.6666666666667 444.77022989203755, 343.3333333333333 439.36838563883265, 340 436.7212234172513 C 336.6666666666667 434.0740611956699, 333.3333333333333 428.884421897608, 330 428.884421897608 C 326.6666666666667 428.884421897608, 323.3333333333333 442.20974570904497, 320 442.20974570904497 C 316.6666666666667 442.20974570904497, 313.3333333333333 440.9323767383665, 310 440.46651216475766 C 306.6666666666667 440.00064759114883, 303.3333333333333 439.9784984531196, 300 439.3001742272615 C 296.6666666666667 438.6218500014034, 293.3333333333333 431.32758321645923, 290 431.32758321645923 C 286.6666666666667 431.32758321645923, 283.3333333333333 444.22369686311697, 280 444.22369686311697 C 276.6666666666667 444.22369686311697, 273.3333333333333 437.6074561768324, 270 437.6074561768324 C 266.6666666666667 437.6074561768324, 263.3333333333333 444.1605243532851, 260 444.1605243532851 C 256.6666666666667 444.1605243532851, 253.33333333333334 435.45402594635675, 250 435.45402594635675 C 246.66666666666666 435.45402594635675, 243.33333333333334 441.76734564716196, 240 441.76734564716196 C 236.66666666666666 441.76734564716196, 233.33333333333334 439.00216095562513, 230 438.17118727217655 C 226.66666666666666 437.340213588728, 223.33333333333334 437.27969026342015, 220 436.26350818184295 C 216.66666666666666 435.24732610026575, 213.33333333333334 428.6793175159877, 210 428.6793175159877 C 206.66666666666666 428.6793175159877, 203.33333333333334 441.96877397735744, 200 441.96877397735744 C 196.66666666666666 441.96877397735744, 193.33333333333334 434.21298376850694, 190 434.21298376850694 C 186.66666666666666 434.21298376850694, 183.33333333333334 436.76064774335157, 180 436.76064774335157 C 176.66666666666666 436.76064774335157, 173.33333333333334 434.0888558521032, 170 434.0445464109046 C 166.66666666666666 434.000236969706, 163.33333333333334 433.97641504544106, 160 433.97641504544106 C 156.66666666666666 433.97641504544106, 153.33333333333334 436.8859711112766, 150 437.1150343559236 C 146.66666666666666 437.34409760057065, 143.33333333333334 437.50086764870923, 140 437.50086764870923 C 136.66666666666666 437.50086764870923, 133.33333333333334 428.8119337912067, 130 428.8119337912067 C 126.66666666666667 428.8119337912067, 123.33333333333333 438.62186559861505, 120 438.62186559861505 C 116.66666666666667 438.62186559861505, 113.33333333333333 431.6173070438146, 110 431.6173070438146 C 106.66666666666667 431.6173070438146, 103.33333333333333 434.807265907477, 100 434.807265907477 C 96.66666666666667 434.807265907477, 93.33333333333333 424.93623137608887, 90 424.93623137608887 C 86.66666666666667 424.93623137608887, 83.33333333333333 429.756815118622, 80 429.756815118622 C 76.66666666666667 429.756815118622, 73.33333333333333 423.9128023878668, 70 423.9128023878668 C 66.66666666666667 423.9128023878668, 63.333333333333336 428.38191391086804, 60 428.38191391086804 C 56.666666666666664 428.38191391086804, 53.333333333333336 404.30002634643205, 50 404.30002634643205 C 46.666666666666664 404.30002634643205, 43.333333333333336 420.138343173139, 40 420.138343173139 C 36.666666666666664 420.138343173139, 33.333333333333336 411.1091795224226, 30 411.1091795224226 C 26.666666666666668 411.1091795224226, 23.333333333333332 424.63882436039967, 20 424.63882436039967 C 16.666666666666668 424.63882436039967, 13.333333333333334 419.0320246893793, 10 415.1409633472188 C 3.3333333333333335 405.98750483807925, 6.666666666666666 411.24990200505835, 10 415.1409633472188 Z" fill="#a0a0a0" stroke="white" stroke-width="5" />
  </g>
</svg>