<svg 
  baseProfile="tiny"
  preserveAspectRatio="keep"
  version="1.2"
  viewBox="-5.000000 -5.000000 2015.000000 805.000000"
  height="100%" width="100%"
  xmlns="http://www.w3.org/2000/svg"
  xmlns:ev="http://www.w3.org/2001/xml-events"
  xmlns:xlink="http://www.w3.org/1999/xlink"
>
  <g style="transform-origin: center center;">
    <path d="M 0 400 C 3.3333333333333335 397.5895667506685, 6.666666666666666 395.3312622157043, 10 395.3312622157043 C 13.333333333333334 395.3312622157043, 16.666666666666668 395.78764835880645, 20 395.78764835880645 C 23.333333333333332 395.78764835880645, 26.666666666666668 366.7440291364331, 30 361.959597580434 C 33.333333333333336 357.1751660244349, 36.666666666666664 352.85043411969224, 40 352.85043411969224 C 43.333333333333336 352.85043411969224, 46.666666666666664 356.4530966648275, 50 359.6911769263738 C 53.333333333333336 362.92925718792014, 56.666666666666664 374.7038390821688, 60 376.4414975238701 C 63.333333333333336 378.1791559655714, 66.66666666666667 379.5283201823375, 70 379.5283201823375 C 73.33333333333333 379.5283201823375, 76.66666666666667 371.89791043512236, 80 371.89791043512236 C 83.33333333333333 371.89791043512236, 86.66666666666667 380.3992058775483, 90 383.83093288509593 C 93.33333333333333 387.26265989264357, 96.66666666666667 392.8836083360078, 100 392.8836083360078 C 103.33333333333333 392.8836083360078, 106.66666666666667 378.2793880118243, 110 368.97203098809155 C 113.33333333333333 359.66467396435877, 116.66666666666667 335.42306577965803, 120 335.42306577965803 C 123.33333333333333 335.42306577965803, 126.66666666666667 336.96003604979336, 130 337.7142370661966 C 133.33333333333334 338.4684380825998, 136.66666666666666 339.94897552965165, 140 339.94897552965165 C 143.33333333333334 339.94897552965165, 146.66666666666666 332.6727140352149, 150 332.6727140352149 C 153.33333333333334 332.6727140352149, 156.66666666666666 347.5053360556721, 160 347.5053360556721 C 163.33333333333334 347.5053360556721, 166.66666666666666 345.253418285819, 170 343.4944476317117 C 173.33333333333334 341.7354769776044, 176.66666666666666 335.7836472877748, 180 335.7836472877748 C 183.33333333333334 335.7836472877748, 186.66666666666666 339.1167301160631, 190 340.877340270617 C 193.33333333333334 342.63795042517097, 196.66666666666666 346.36173908298866, 200 346.36173908298866 C 203.33333333333334 346.36173908298866, 206.66666666666666 333.4392563110599, 210 333.4392563110599 C 213.33333333333334 333.4392563110599, 216.66666666666666 334.20515415394124, 220 334.20515415394124 C 223.33333333333334 334.20515415394124, 226.66666666666666 332.4897948675083, 230 332.4897948675083 C 233.33333333333334 332.4897948675083, 236.66666666666666 343.24826532226416, 240 343.24826532226416 C 243.33333333333334 343.24826532226416, 246.66666666666666 329.69908918460055, 250 329.69908918460055 C 253.33333333333334 329.69908918460055, 256.6666666666667 334.97653394252467, 260 337.2923129857251 C 263.3333333333333 339.60809202892557, 266.6666666666667 343.6950291311213, 270 343.6950291311213 C 273.3333333333333 343.6950291311213, 276.6666666666667 335.3693904930763, 280 335.3693904930763 C 283.3333333333333 335.3693904930763, 286.6666666666667 336.1476064532551, 290 336.1476064532551 C 293.3333333333333 336.1476064532551, 296.6666666666667 334.68305559761325, 300 333.27584386722526 C 303.3333333333333 331.8686321368373, 306.6666666666667 325.3097397821478, 310 325.3097397821478 C 313.3333333333333 325.3097397821478, 316.6666666666667 348.37915752328183, 320 348.37915752328183 C 323.3333333333333 348.37915752328183, 326.6666666666667 343.25124627913624, 330 341.5685474771824 C 333.3333333333333 339.88584867522854, 336.6666666666667 337.70505245753094, 340 337.55826868577395 C 343.3333333333333 337.41148491401697, 346.6666666666667 337.32530252653356, 350 337.32530252653356 C 353.3333333333333 337.32530252653356, 356.6666666666667 340.4022604534613, 360 340.56554023853755 C 363.3333333333333 340.7288200236138, 366.6666666666667 340.66014741138827, 370 340.8304863867284 C 373.3333333333333 341.00082536206855, 376.6666666666667 348.0034299431907, 380 348.0034299431907 C 383.3333333333333 348.0034299431907, 386.6666666666667 345.3538341136663, 390 344.5097404550852 C 393.3333333333333 343.66564679650406, 396.6666666666667 343.6071311902528, 400 342.52392478392477 C 403.3333333333333 341.44071837759674, 406.6666666666667 333.5862012169867, 410 333.5862012169867 C 413.3333333333333 333.5862012169867, 416.6666666666667 349.2392729031329, 420 349.2392729031329 C 423.3333333333333 349.2392729031329, 426.6666666666667 345.50252746694446, 430 342.3787207872842 C 433.3333333333333 339.2549141076239, 436.6666666666667 327.5976211192684, 440 327.5976211192684 C 443.3333333333333 327.5976211192684, 446.6666666666667 340.36332514409844, 450 340.36332514409844 C 453.3333333333333 340.36332514409844, 456.6666666666667 334.8608804662548, 460 331.95027520622756 C 463.3333333333333 329.0396699462003, 466.6666666666667 322.8745865674382, 470 322.8745865674382 C 473.3333333333333 322.8745865674382, 476.6666666666667 333.97266175653283, 480 334.65459960152043 C 483.3333333333333 335.33653744650803, 486.6666666666667 335.77477586035263, 490 335.77477586035263 C 493.3333333333333 335.77477586035263, 496.6666666666667 331.10667873656445, 500 330.38717951549046 C 503.3333333333333 329.66768029441647, 506.6666666666667 329.0375769027717, 510 329.0375769027717 C 513.3333333333334 329.0375769027717, 516.6666666666666 337.89953064444404, 520 337.89953064444404 C 523.3333333333334 337.89953064444404, 526.6666666666666 331.77564405681034, 530 331.77564405681034 C 533.3333333333334 331.77564405681034, 536.6666666666666 338.5312902439782, 540 338.5312902439782 C 543.3333333333334 338.5312902439782, 546.6666666666666 337.64313789984027, 550 336.9961765356514 C 553.3333333333334 336.3492151714625, 556.6666666666666 334.3579373808919, 560 334.3579373808919 C 563.3333333333334 334.3579373808919, 566.6666666666666 335.66644847245163, 570 335.66644847245163 C 573.3333333333334 335.66644847245163, 576.6666666666666 334.2806098862496, 580 333.0162633338357 C 583.3333333333334 331.7519167814218, 586.6666666666666 326.3473499604261, 590 326.3473499604261 C 593.3333333333334 326.3473499604261, 596.6666666666666 339.49190501125764, 600 339.49190501125764 C 603.3333333333334 339.49190501125764, 606.6666666666666 326.33167069492237, 610 326.33167069492237 C 613.3333333333334 326.33167069492237, 616.6666666666666 335.4390410703265, 620 335.4390410703265 C 623.3333333333334 335.4390410703265, 626.6666666666666 325.18427831547876, 630 325.18427831547876 C 633.3333333333334 325.18427831547876, 636.6666666666666 333.043642521057, 640 333.043642521057 C 643.3333333333334 333.043642521057, 646.6666666666666 327.6448446130965, 650 327.6448446130965 C 653.3333333333334 327.6448446130965, 656.6666666666666 329.075912950166, 660 330.6253010270179 C 663.3333333333334 332.17468910386975, 666.6666666666666 341.1784647649553, 670 341.1784647649553 C 673.3333333333334 341.1784647649553, 676.6666666666666 337.05314012326903, 680 335.3611070644668 C 683.3333333333334 333.6690740056646, 686.6666666666666 330.8587114948516, 690 330.8587114948516 C 693.3333333333334 330.8587114948516, 696.6666666666666 332.04558534349326, 700 332.04558534349326 C 703.3333333333334 332.04558534349326, 706.6666666666666 322.11343199409026, 710 322.11343199409026 C 713.3333333333334 322.11343199409026, 716.6666666666666 326.5654565066256, 720 328.4213347291147 C 723.3333333333334 330.27721295160376, 726.6666666666666 333.4042017637316, 730 333.4042017637316 C 733.3333333333334 333.4042017637316, 736.6666666666666 328.7519210572876, 740 327.5197117137113 C 743.3333333333334 326.287502370135, 746.6666666666666 324.82498647394533, 750 324.82498647394533 C 753.3333333333334 324.82498647394533, 756.6666666666666 336.0721021619572, 760 336.0721021619572 C 763.3333333333334 336.0721021619572, 766.6666666666666 329.7081960803275, 770 329.7081960803275 C 773.3333333333334 329.7081960803275, 776.6666666666666 335.72689282692204, 780 335.72689282692204 C 783.3333333333334 335.72689282692204, 786.6666666666666 326.6015481298708, 790 326.6015481298708 C 793.3333333333334 326.6015481298708, 796.6666666666666 332.9961791389404, 800 334.8785799137732 C 803.3333333333334 336.76098068860597, 806.6666666666666 339.164145860501, 810 339.164145860501 C 813.3333333333334 339.164145860501, 816.6666666666666 322.89985911623717, 820 322.89985911623717 C 823.3333333333334 322.89985911623717, 826.6666666666666 339.72813386783014, 830 339.72813386783014 C 833.3333333333334 339.72813386783014, 836.6666666666666 338.6336646787547, 840 337.9879696031084 C 843.3333333333334 337.3422745274621, 846.6666666666666 335.80370838897, 850 335.80370838897 C 853.3333333333334 335.80370838897, 856.6666666666666 337.52111384624993, 860 337.52111384624993 C 863.3333333333334 337.52111384624993, 866.6666666666666 334.0850449150647, 870 334.0850449150647 C 873.3333333333334 334.0850449150647, 876.6666666666666 334.8611597111533, 880 336.05369498417485 C 883.3333333333334 337.24623025719643, 886.6666666666666 348.60254236987913, 890 355.6343599206789 C 893.3333333333334 362.66617747147865, 896.6666666666666 378.49862413693916, 900 378.49862413693916 C 903.3333333333334 378.49862413693916, 906.6666666666666 372.55429520416646, 910 372.55429520416646 C 913.3333333333334 372.55429520416646, 916.6666666666666 384.0820220553569, 920 384.0820220553569 C 923.3333333333334 384.0820220553569, 926.6666666666666 376.4390091239632, 930 376.4390091239632 C 933.3333333333334 376.4390091239632, 936.6666666666666 389.15225731578175, 940 389.15225731578175 C 943.3333333333334 389.15225731578175, 946.6666666666666 361.8425736479511, 950 361.8425736479511 C 953.3333333333334 361.8425736479511, 956.6666666666666 398.5914040606531, 960 398.5914040606531 C 963.3333333333334 398.5914040606531, 966.6666666666666 359.2333656652985, 970 359.2333656652985 C 973.3333333333334 359.2333656652985, 976.6666666666666 387.67735941881534, 980 391.4558168888583 C 983.3333333333334 395.23427435890125, 986.6666666666666 398.33317928185755, 990 398.33317928185755 C 993.3333333333334 398.33317928185755, 996.6666666666666 382.72841743202116, 1000 371.8670893428333 C 1003.3333333333334 361.00576125364546, 1006.6666666666666 329.4863950196112, 1010 329.4863950196112 C 1013.3333333333334 329.4863950196112, 1016.6666666666666 350.08884388585653, 1020 350.366435833364 C 1023.3333333333334 350.64402778087145, 1026.6666666666667 350.7912962840354, 1030 350.7912962840354 C 1033.3333333333333 350.7912962840354, 1036.6666666666667 349.8829273981237, 1040 349.8829273981237 C 1043.3333333333333 349.8829273981237, 1046.6666666666667 356.94252670722545, 1050 356.94252670722545 C 1053.3333333333333 356.94252670722545, 1056.6666666666667 356.26644670828966, 1060 355.2305659359027 C 1063.3333333333333 354.1946851635157, 1066.6666666666667 338.4094746039257, 1070 338.4094746039257 C 1073.3333333333333 338.4094746039257, 1076.6666666666667 350.59308405745765, 1080 350.59308405745765 C 1083.3333333333333 350.59308405745765, 1086.6666666666667 350.3141000813363, 1090 350.3141000813363 C 1093.3333333333333 350.3141000813363, 1096.6666666666667 350.83382949856093, 1100 350.83382949856093 C 1103.3333333333333 350.83382949856093, 1106.6666666666667 341.570603489734, 1110 341.570603489734 C 1113.3333333333333 341.570603489734, 1116.6666666666667 345.61739003934576, 1120 347.2726813844708 C 1123.3333333333333 348.9279727295958, 1126.6666666666667 349.6930079192371, 1130 351.67071825931464 C 1133.3333333333333 353.64842859939216, 1136.6666666666667 360.78516150045755, 1140 360.78516150045755 C 1143.3333333333333 360.78516150045755, 1146.6666666666667 351.63461606356606, 1150 351.63461606356606 C 1153.3333333333333 351.63461606356606, 1156.6666666666667 362.50850159414625, 1160 362.50850159414625 C 1163.3333333333333 362.50850159414625, 1166.6666666666667 346.4788941134425, 1170 346.4788941134425 C 1173.3333333333333 346.4788941134425, 1176.6666666666667 355.0415476480811, 1180 355.0415476480811 C 1183.3333333333333 355.0415476480811, 1186.6666666666667 341.9220531230908, 1190 341.9220531230908 C 1193.3333333333333 341.9220531230908, 1196.6666666666667 345.0375873738755, 1200 346.41166588633456 C 1203.3333333333333 347.7857443987936, 1206.6666666666667 349.860645444133, 1210 350.2221001930141 C 1213.3333333333333 350.5835549418952, 1216.6666666666667 350.85422686111303, 1220 350.85422686111303 C 1223.3333333333333 350.85422686111303, 1226.6666666666667 344.3892005655946, 1230 344.3892005655946 C 1233.3333333333333 344.3892005655946, 1236.6666666666667 352.07235127259895, 1240 353.95331436059433 C 1243.3333333333333 355.8342774485897, 1246.6666666666667 357.95538192083046, 1250 357.95538192083046 C 1253.3333333333333 357.95538192083046, 1256.6666666666667 348.6043121344753, 1260 347.2089416963364 C 1263.3333333333333 345.8135712581975, 1266.6666666666667 344.60962378415627, 1270 344.60962378415627 C 1273.3333333333333 344.60962378415627, 1276.6666666666667 348.803097501498, 1280 349.8931578359155 C 1283.3333333333333 350.983218170333, 1286.6666666666667 352.2610323074104, 1290 352.2610323074104 C 1293.3333333333333 352.2610323074104, 1296.6666666666667 351.6500999941551, 1300 350.82083502115955 C 1303.3333333333333 349.991570048164, 1306.6666666666667 341.6947049825987, 1310 341.6947049825987 C 1313.3333333333333 341.6947049825987, 1316.6666666666667 346.0766692525245, 1320 349.08768805113476 C 1323.3333333333333 352.09870684974504, 1326.6666666666667 360.6959412647682, 1330 360.6959412647682 C 1333.3333333333333 360.6959412647682, 1336.6666666666667 353.75400784212894, 1340 349.4741032650452 C 1343.3333333333333 345.19419868796143, 1346.6666666666667 334.4714217226485, 1350 334.4714217226485 C 1353.3333333333333 334.4714217226485, 1356.6666666666667 347.9611338411983, 1360 347.9611338411983 C 1363.3333333333333 347.9611338411983, 1366.6666666666667 338.55593929198005, 1370 338.55593929198005 C 1373.3333333333333 338.55593929198005, 1376.6666666666667 353.1499841611816, 1380 353.1499841611816 C 1383.3333333333333 353.1499841611816, 1386.6666666666667 340.88538644222393, 1390 340.88538644222393 C 1393.3333333333333 340.88538644222393, 1396.6666666666667 349.29835245554847, 1400 349.29835245554847 C 1403.3333333333333 349.29835245554847, 1406.6666666666667 344.47398476729325, 1410 344.47398476729325 C 1413.3333333333333 344.47398476729325, 1416.6666666666667 354.71398884482375, 1420 354.71398884482375 C 1423.3333333333333 354.71398884482375, 1426.6666666666667 346.84118795976013, 1430 345.76440556362553 C 1433.3333333333333 344.6876231674909, 1436.6666666666667 344.07020559972574, 1440 343.7935406662732 C 1443.3333333333333 343.51687573282067, 1446.6666666666667 343.26785077944754, 1450 343.26785077944754 C 1453.3333333333333 343.26785077944754, 1456.6666666666667 346.7045079317612, 1460 346.7045079317612 C 1463.3333333333333 346.7045079317612, 1466.6666666666667 341.40695537960056, 1470 341.0067488008785 C 1473.3333333333333 340.6065422221564, 1476.6666666666667 340.33574241005647, 1480 340.33574241005647 C 1483.3333333333333 340.33574241005647, 1486.6666666666667 349.11382349728825, 1490 349.11382349728825 C 1493.3333333333333 349.11382349728825, 1496.6666666666667 341.9910028624252, 1500 341.9910028624252 C 1503.3333333333333 341.9910028624252, 1506.6666666666667 358.8601477338102, 1510 358.8601477338102 C 1513.3333333333333 358.8601477338102, 1516.6666666666667 358.2669083692044, 1520 357.64491918636793 C 1523.3333333333333 357.0229300035315, 1526.6666666666667 354.4967391545224, 1530 353.6278792817141 C 1533.3333333333333 352.75901940890583, 1536.6666666666667 352.8366331956619, 1540 351.6986791023278 C 1543.3333333333333 350.5607250089937, 1546.6666666666667 336.8832469998685, 1550 336.8832469998685 C 1553.3333333333333 336.8832469998685, 1556.6666666666667 348.18479577734803, 1560 348.18479577734803 C 1563.3333333333333 348.18479577734803, 1566.6666666666667 344.709069614337, 1570 344.709069614337 C 1573.3333333333333 344.709069614337, 1576.6666666666667 359.49359323311296, 1580 359.49359323311296 C 1583.3333333333333 359.49359323311296, 1586.6666666666667 356.1520371647532, 1590 354.91617693771315 C 1593.3333333333333 353.6803167106731, 1596.6666666666667 353.33183083700544, 1600 351.80063528337695 C 1603.3333333333333 350.26943972974846, 1606.6666666666667 343.0607635992834, 1610 343.0607635992834 C 1613.3333333333333 343.0607635992834, 1616.6666666666667 351.15404224693543, 1620 351.15404224693543 C 1623.3333333333333 351.15404224693543, 1626.6666666666667 350.82987619896, 1630 350.458388957521 C 1633.3333333333333 350.08690171608197, 1636.6666666666667 348.99339462555434, 1640 347.65797944362606 C 1643.3333333333333 346.3225642616978, 1646.6666666666667 340.6221618610404, 1650 340.6221618610404 C 1653.3333333333333 340.6221618610404, 1656.6666666666667 359.6455046841516, 1660 359.6455046841516 C 1663.3333333333333 359.6455046841516, 1666.6666666666667 342.9013886384866, 1670 339.4093548318822 C 1673.3333333333333 335.9173210252778, 1676.6666666666667 332.3419272803427, 1680 332.3419272803427 C 1683.3333333333333 332.3419272803427, 1686.6666666666667 343.23537228677685, 1690 347.0608181395729 C 1693.3333333333333 350.886263992369, 1696.6666666666667 356.46534922739613, 1700 356.46534922739613 C 1703.3333333333333 356.46534922739613, 1706.6666666666667 352.57073759686267, 1710 350.86266355892155 C 1713.3333333333333 349.15458952098044, 1716.6666666666667 346.71553495881267, 1720 346.14161417404205 C 1723.3333333333333 345.5676933892714, 1726.6666666666667 345.08874229562633, 1730 345.08874229562633 C 1733.3333333333333 345.08874229562633, 1736.6666666666667 348.29232878075203, 1740 348.29232878075203 C 1743.3333333333333 348.29232878075203, 1746.6666666666667 342.99853871110895, 1750 342.99853871110895 C 1753.3333333333333 342.99853871110895, 1756.6666666666667 348.80996691990777, 1760 348.9041661970618 C 1763.3333333333333 348.9983654742158, 1766.6666666666667 348.9549122394629, 1770 349.0489287223604 C 1773.3333333333333 349.14294520525794, 1776.6666666666667 354.5107217622947, 1780 354.5107217622947 C 1783.3333333333333 354.5107217622947, 1786.6666666666667 354.50486490174427, 1790 354.50486490174427 C 1793.3333333333333 354.50486490174427, 1796.6666666666667 362.93869163875206, 1800 362.93869163875206 C 1803.3333333333333 362.93869163875206, 1806.6666666666667 334.0636465553729, 1810 334.0636465553729 C 1813.3333333333333 334.0636465553729, 1816.6666666666667 351.41423756729085, 1820 351.41423756729085 C 1823.3333333333333 351.41423756729085, 1826.6666666666667 346.1096635112439, 1830 346.1096635112439 C 1833.3333333333333 346.1096635112439, 1836.6666666666667 353.9131235837045, 1840 353.9131235837045 C 1843.3333333333333 353.9131235837045, 1846.6666666666667 353.66172740024234, 1850 353.42098650734135 C 1853.3333333333333 353.18024561444037, 1856.6666666666667 352.701320523309, 1860 352.0646401677343 C 1863.3333333333333 351.4279598121596, 1866.6666666666667 348.83699174712825, 1870 348.83699174712825 C 1873.3333333333333 348.83699174712825, 1876.6666666666667 363.29638740859735, 1880 363.29638740859735 C 1883.3333333333333 363.29638740859735, 1886.6666666666667 339.19833575927106, 1890 339.19833575927106 C 1893.3333333333333 339.19833575927106, 1896.6666666666667 345.7778865426927, 1900 348.6252553205449 C 1903.3333333333333 351.4726240983971, 1906.6666666666667 356.43439379785843, 1910 356.43439379785843 C 1913.3333333333333 356.43439379785843, 1916.6666666666667 356.26567310669566, 1920 356.02171811366424 C 1923.3333333333333 355.7777631206328, 1926.6666666666667 352.7910565888569, 1930 352.7910565888569 C 1933.3333333333333 352.7910565888569, 1936.6666666666667 370.83917192438395, 1940 370.83917192438395 C 1943.3333333333333 370.83917192438395, 1946.6666666666667 369.48655534307636, 1950 369.48655534307636 C 1953.3333333333333 369.48655534307636, 1956.6666666666667 385.4883604086071, 1960 385.4883604086071 C 1963.3333333333333 385.4883604086071, 1966.6666666666667 372.0193237294445, 1970 372.0193237294445 C 1973.3333333333333 372.0193237294445, 1976.6666666666667 389.6784746550332, 1980 389.6784746550332 C 1983.3333333333333 389.6784746550332, 1986.6666666666667 384.4600797429639, 1990 384.4600797429639 C 1993.3333333333333 384.4600797429639, 1996.6666666666667 399.2090566980608, 2000 399.5194908996519 C 2003.3333333333333 399.82992510124296, 2006.6666666666667 400, 2010 400 c 0 0, 0 0, 0 0C 2006.6666666666667 400, 2003.3333333333333 400.17007489875704, 2000 400.4805091003481 C 1996.6666666666667 400.7909433019392, 1993.3333333333333 415.5399202570361, 1990 415.5399202570361 C 1986.6666666666667 415.5399202570361, 1983.3333333333333 410.3215253449668, 1980 410.3215253449668 C 1976.6666666666667 410.3215253449668, 1973.3333333333333 427.9806762705555, 1970 427.9806762705555 C 1966.6666666666667 427.9806762705555, 1963.3333333333333 414.5116395913929, 1960 414.5116395913929 C 1956.6666666666667 414.5116395913929, 1953.3333333333333 430.51344465692364, 1950 430.51344465692364 C 1946.6666666666667 430.51344465692364, 1943.3333333333333 429.16082807561605, 1940 429.16082807561605 C 1936.6666666666667 429.16082807561605, 1933.3333333333333 447.2089434111431, 1930 447.2089434111431 C 1926.6666666666667 447.2089434111431, 1923.3333333333333 444.2222368793672, 1920 443.97828188633576 C 1916.6666666666667 443.73432689330434, 1913.3333333333333 443.56560620214157, 1910 443.56560620214157 C 1906.6666666666667 443.56560620214157, 1903.3333333333333 448.5273759016029, 1900 451.3747446794551 C 1896.6666666666667 454.2221134573073, 1893.3333333333333 460.80166424072894, 1890 460.80166424072894 C 1886.6666666666667 460.80166424072894, 1883.3333333333333 436.70361259140265, 1880 436.70361259140265 C 1876.6666666666667 436.70361259140265, 1873.3333333333333 451.16300825287175, 1870 451.16300825287175 C 1866.6666666666667 451.16300825287175, 1863.3333333333333 448.5720401878404, 1860 447.9353598322657 C 1856.6666666666667 447.298679476691, 1853.3333333333333 446.81975438555963, 1850 446.57901349265865 C 1846.6666666666667 446.33827259975766, 1843.3333333333333 446.0868764162955, 1840 446.0868764162955 C 1836.6666666666667 446.0868764162955, 1833.3333333333333 453.8903364887561, 1830 453.8903364887561 C 1826.6666666666667 453.8903364887561, 1823.3333333333333 448.58576243270915, 1820 448.58576243270915 C 1816.6666666666667 448.58576243270915, 1813.3333333333333 465.9363534446271, 1810 465.9363534446271 C 1806.6666666666667 465.9363534446271, 1803.3333333333333 437.06130836124794, 1800 437.06130836124794 C 1796.6666666666667 437.06130836124794, 1793.3333333333333 445.49513509825573, 1790 445.49513509825573 C 1786.6666666666667 445.49513509825573, 1783.3333333333333 445.4892782377053, 1780 445.4892782377053 C 1776.6666666666667 445.4892782377053, 1773.3333333333333 450.85705479474206, 1770 450.9510712776396 C 1766.6666666666667 451.0450877605371, 1763.3333333333333 451.0016345257842, 1760 451.0958338029382 C 1756.6666666666667 451.19003308009223, 1753.3333333333333 457.00146128889105, 1750 457.00146128889105 C 1746.6666666666667 457.00146128889105, 1743.3333333333333 451.70767121924797, 1740 451.70767121924797 C 1736.6666666666667 451.70767121924797, 1733.3333333333333 454.91125770437367, 1730 454.91125770437367 C 1726.6666666666667 454.91125770437367, 1723.3333333333333 454.4323066107286, 1720 453.85838582595795 C 1716.6666666666667 453.28446504118733, 1713.3333333333333 450.84541047901956, 1710 449.13733644107845 C 1706.6666666666667 447.42926240313733, 1703.3333333333333 443.53465077260387, 1700 443.53465077260387 C 1696.6666666666667 443.53465077260387, 1693.3333333333333 449.113736007631, 1690 452.9391818604271 C 1686.6666666666667 456.76462771322315, 1683.3333333333333 467.6580727196573, 1680 467.6580727196573 C 1676.6666666666667 467.6580727196573, 1673.3333333333333 464.0826789747222, 1670 460.5906451681178 C 1666.6666666666667 457.0986113615134, 1663.3333333333333 440.3544953158484, 1660 440.3544953158484 C 1656.6666666666667 440.3544953158484, 1653.3333333333333 459.3778381389596, 1650 459.3778381389596 C 1646.6666666666667 459.3778381389596, 1643.3333333333333 453.6774357383022, 1640 452.34202055637394 C 1636.6666666666667 451.00660537444566, 1633.3333333333333 449.91309828391803, 1630 449.541611042479 C 1626.6666666666667 449.17012380104, 1623.3333333333333 448.84595775306457, 1620 448.84595775306457 C 1616.6666666666667 448.84595775306457, 1613.3333333333333 456.9392364007166, 1610 456.9392364007166 C 1606.6666666666667 456.9392364007166, 1603.3333333333333 449.73056027025154, 1600 448.19936471662305 C 1596.6666666666667 446.66816916299456, 1593.3333333333333 446.3196832893269, 1590 445.08382306228685 C 1586.6666666666667 443.8479628352468, 1583.3333333333333 440.50640676688704, 1580 440.50640676688704 C 1576.6666666666667 440.50640676688704, 1573.3333333333333 455.290930385663, 1570 455.290930385663 C 1566.6666666666667 455.290930385663, 1563.3333333333333 451.81520422265197, 1560 451.81520422265197 C 1556.6666666666667 451.81520422265197, 1553.3333333333333 463.1167530001315, 1550 463.1167530001315 C 1546.6666666666667 463.1167530001315, 1543.3333333333333 449.4392749910063, 1540 448.3013208976722 C 1536.6666666666667 447.1633668043381, 1533.3333333333333 447.24098059109417, 1530 446.3721207182859 C 1526.6666666666667 445.5032608454776, 1523.3333333333333 442.9770699964685, 1520 442.35508081363207 C 1516.6666666666667 441.7330916307956, 1513.3333333333333 441.1398522661898, 1510 441.1398522661898 C 1506.6666666666667 441.1398522661898, 1503.3333333333333 458.0089971375748, 1500 458.0089971375748 C 1496.6666666666667 458.0089971375748, 1493.3333333333333 450.88617650271175, 1490 450.88617650271175 C 1486.6666666666667 450.88617650271175, 1483.3333333333333 459.66425758994353, 1480 459.66425758994353 C 1476.6666666666667 459.66425758994353, 1473.3333333333333 459.3934577778436, 1470 458.9932511991215 C 1466.6666666666667 458.59304462039944, 1463.3333333333333 453.2954920682388, 1460 453.2954920682388 C 1456.6666666666667 453.2954920682388, 1453.3333333333333 456.73214922055246, 1450 456.73214922055246 C 1446.6666666666667 456.73214922055246, 1443.3333333333333 456.48312426717933, 1440 456.2064593337268 C 1436.6666666666667 455.92979440027426, 1433.3333333333333 455.3123768325091, 1430 454.23559443637447 C 1426.6666666666667 453.15881204023987, 1423.3333333333333 445.28601115517625, 1420 445.28601115517625 C 1416.6666666666667 445.28601115517625, 1413.3333333333333 455.52601523270675, 1410 455.52601523270675 C 1406.6666666666667 455.52601523270675, 1403.3333333333333 450.70164754445153, 1400 450.70164754445153 C 1396.6666666666667 450.70164754445153, 1393.3333333333333 459.11461355777607, 1390 459.11461355777607 C 1386.6666666666667 459.11461355777607, 1383.3333333333333 446.8500158388184, 1380 446.8500158388184 C 1376.6666666666667 446.8500158388184, 1373.3333333333333 461.44406070801995, 1370 461.44406070801995 C 1366.6666666666667 461.44406070801995, 1363.3333333333333 452.0388661588017, 1360 452.0388661588017 C 1356.6666666666667 452.0388661588017, 1353.3333333333333 465.5285782773515, 1350 465.5285782773515 C 1346.6666666666667 465.5285782773515, 1343.3333333333333 454.80580131203857, 1340 450.5258967349548 C 1336.6666666666667 446.24599215787106, 1333.3333333333333 439.3040587352318, 1330 439.3040587352318 C 1326.6666666666667 439.3040587352318, 1323.3333333333333 447.90129315025496, 1320 450.91231194886524 C 1316.6666666666667 453.9233307474755, 1313.3333333333333 458.3052950174013, 1310 458.3052950174013 C 1306.6666666666667 458.3052950174013, 1303.3333333333333 450.008429951836, 1300 449.17916497884045 C 1296.6666666666667 448.3499000058449, 1293.3333333333333 447.7389676925896, 1290 447.7389676925896 C 1286.6666666666667 447.7389676925896, 1283.3333333333333 449.016781829667, 1280 450.1068421640845 C 1276.6666666666667 451.196902498502, 1273.3333333333333 455.39037621584373, 1270 455.39037621584373 C 1266.6666666666667 455.39037621584373, 1263.3333333333333 454.1864287418025, 1260 452.7910583036636 C 1256.6666666666667 451.3956878655247, 1253.3333333333333 442.04461807916954, 1250 442.04461807916954 C 1246.6666666666667 442.04461807916954, 1243.3333333333333 444.1657225514103, 1240 446.04668563940567 C 1236.6666666666667 447.92764872740105, 1233.3333333333333 455.6107994344054, 1230 455.6107994344054 C 1226.6666666666667 455.6107994344054, 1223.3333333333333 449.14577313888697, 1220 449.14577313888697 C 1216.6666666666667 449.14577313888697, 1213.3333333333333 449.4164450581048, 1210 449.7778998069859 C 1206.6666666666667 450.139354555867, 1203.3333333333333 452.2142556012064, 1200 453.58833411366544 C 1196.6666666666667 454.9624126261245, 1193.3333333333333 458.0779468769092, 1190 458.0779468769092 C 1186.6666666666667 458.0779468769092, 1183.3333333333333 444.9584523519189, 1180 444.9584523519189 C 1176.6666666666667 444.9584523519189, 1173.3333333333333 453.5211058865575, 1170 453.5211058865575 C 1166.6666666666667 453.5211058865575, 1163.3333333333333 437.49149840585375, 1160 437.49149840585375 C 1156.6666666666667 437.49149840585375, 1153.3333333333333 448.36538393643394, 1150 448.36538393643394 C 1146.6666666666667 448.36538393643394, 1143.3333333333333 439.21483849954245, 1140 439.21483849954245 C 1136.6666666666667 439.21483849954245, 1133.3333333333333 446.35157140060784, 1130 448.32928174068536 C 1126.6666666666667 450.3069920807629, 1123.3333333333333 451.0720272704042, 1120 452.7273186155292 C 1116.6666666666667 454.38260996065424, 1113.3333333333333 458.429396510266, 1110 458.429396510266 C 1106.6666666666667 458.429396510266, 1103.3333333333333 449.16617050143907, 1100 449.16617050143907 C 1096.6666666666667 449.16617050143907, 1093.3333333333333 449.6858999186637, 1090 449.6858999186637 C 1086.6666666666667 449.6858999186637, 1083.3333333333333 449.40691594254235, 1080 449.40691594254235 C 1076.6666666666667 449.40691594254235, 1073.3333333333333 461.5905253960743, 1070 461.5905253960743 C 1066.6666666666667 461.5905253960743, 1063.3333333333333 445.8053148364843, 1060 444.7694340640973 C 1056.6666666666667 443.73355329171034, 1053.3333333333333 443.05747329277455, 1050 443.05747329277455 C 1046.6666666666667 443.05747329277455, 1043.3333333333333 450.1170726018763, 1040 450.1170726018763 C 1036.6666666666667 450.1170726018763, 1033.3333333333333 449.2087037159646, 1030 449.2087037159646 C 1026.6666666666667 449.2087037159646, 1023.3333333333334 449.35597221912855, 1020 449.633564166636 C 1016.6666666666666 449.91115611414347, 1013.3333333333334 470.5136049803888, 1010 470.5136049803888 C 1006.6666666666666 470.5136049803888, 1003.3333333333334 438.99423874635454, 1000 428.1329106571667 C 996.6666666666666 417.27158256797884, 993.3333333333334 401.66682071814245, 990 401.66682071814245 C 986.6666666666666 401.66682071814245, 983.3333333333334 404.76572564109875, 980 408.5441831111417 C 976.6666666666666 412.32264058118466, 973.3333333333334 440.7666343347015, 970 440.7666343347015 C 966.6666666666666 440.7666343347015, 963.3333333333334 401.4085959393469, 960 401.4085959393469 C 956.6666666666666 401.4085959393469, 953.3333333333334 438.1574263520489, 950 438.1574263520489 C 946.6666666666666 438.1574263520489, 943.3333333333334 410.84774268421825, 940 410.84774268421825 C 936.6666666666666 410.84774268421825, 933.3333333333334 423.5609908760368, 930 423.5609908760368 C 926.6666666666666 423.5609908760368, 923.3333333333334 415.9179779446431, 920 415.9179779446431 C 916.6666666666666 415.9179779446431, 913.3333333333334 427.44570479583354, 910 427.44570479583354 C 906.6666666666666 427.44570479583354, 903.3333333333334 421.50137586306084, 900 421.50137586306084 C 896.6666666666666 421.50137586306084, 893.3333333333334 437.33382252852135, 890 444.3656400793211 C 886.6666666666666 451.39745763012087, 883.3333333333334 462.75376974280357, 880 463.94630501582515 C 876.6666666666666 465.1388402888467, 873.3333333333334 465.9149550849353, 870 465.9149550849353 C 866.6666666666666 465.9149550849353, 863.3333333333334 462.47888615375007, 860 462.47888615375007 C 856.6666666666666 462.47888615375007, 853.3333333333334 464.19629161103, 850 464.19629161103 C 846.6666666666666 464.19629161103, 843.3333333333334 462.6577254725379, 840 462.0120303968916 C 836.6666666666666 461.3663353212453, 833.3333333333334 460.27186613216986, 830 460.27186613216986 C 826.6666666666666 460.27186613216986, 823.3333333333334 477.10014088376283, 820 477.10014088376283 C 816.6666666666666 477.10014088376283, 813.3333333333334 460.835854139499, 810 460.835854139499 C 806.6666666666666 460.835854139499, 803.3333333333334 463.23901931139403, 800 465.1214200862268 C 796.6666666666666 467.0038208610596, 793.3333333333334 473.3984518701292, 790 473.3984518701292 C 786.6666666666666 473.3984518701292, 783.3333333333334 464.27310717307796, 780 464.27310717307796 C 776.6666666666666 464.27310717307796, 773.3333333333334 470.2918039196725, 770 470.2918039196725 C 766.6666666666666 470.2918039196725, 763.3333333333334 463.9278978380428, 760 463.9278978380428 C 756.6666666666666 463.9278978380428, 753.3333333333334 475.17501352605467, 750 475.17501352605467 C 746.6666666666666 475.17501352605467, 743.3333333333334 473.712497629865, 740 472.4802882862887 C 736.6666666666666 471.2480789427124, 733.3333333333334 466.5957982362684, 730 466.5957982362684 C 726.6666666666666 466.5957982362684, 723.3333333333334 469.72278704839624, 720 471.5786652708853 C 716.6666666666666 473.4345434933744, 713.3333333333334 477.88656800590974, 710 477.88656800590974 C 706.6666666666666 477.88656800590974, 703.3333333333334 467.95441465650674, 700 467.95441465650674 C 696.6666666666666 467.95441465650674, 693.3333333333334 469.1412885051484, 690 469.1412885051484 C 686.6666666666666 469.1412885051484, 683.3333333333334 466.3309259943354, 680 464.6388929355332 C 676.6666666666666 462.94685987673097, 673.3333333333334 458.8215352350447, 670 458.8215352350447 C 666.6666666666666 458.8215352350447, 663.3333333333334 467.82531089613025, 660 469.3746989729821 C 656.6666666666666 470.924087049834, 653.3333333333334 472.3551553869035, 650 472.3551553869035 C 646.6666666666666 472.3551553869035, 643.3333333333334 466.956357478943, 640 466.956357478943 C 636.6666666666666 466.956357478943, 633.3333333333334 474.81572168452124, 630 474.81572168452124 C 626.6666666666666 474.81572168452124, 623.3333333333334 464.5609589296735, 620 464.5609589296735 C 616.6666666666666 464.5609589296735, 613.3333333333334 473.66832930507763, 610 473.66832930507763 C 606.6666666666666 473.66832930507763, 603.3333333333334 460.50809498874236, 600 460.50809498874236 C 596.6666666666666 460.50809498874236, 593.3333333333334 473.6526500395739, 590 473.6526500395739 C 586.6666666666666 473.6526500395739, 583.3333333333334 468.2480832185782, 580 466.9837366661643 C 576.6666666666666 465.7193901137504, 573.3333333333334 464.33355152754837, 570 464.33355152754837 C 566.6666666666666 464.33355152754837, 563.3333333333334 465.6420626191081, 560 465.6420626191081 C 556.6666666666666 465.6420626191081, 553.3333333333334 463.6507848285375, 550 463.0038234643486 C 546.6666666666666 462.35686210015973, 543.3333333333334 461.4687097560218, 540 461.4687097560218 C 536.6666666666666 461.4687097560218, 533.3333333333334 468.22435594318966, 530 468.22435594318966 C 526.6666666666666 468.22435594318966, 523.3333333333334 462.10046935555596, 520 462.10046935555596 C 516.6666666666666 462.10046935555596, 513.3333333333334 470.9624230972283, 510 470.9624230972283 C 506.6666666666667 470.9624230972283, 503.3333333333333 470.33231970558353, 500 469.61282048450954 C 496.6666666666667 468.89332126343555, 493.3333333333333 464.22522413964737, 490 464.22522413964737 C 486.6666666666667 464.22522413964737, 483.3333333333333 464.66346255349197, 480 465.34540039847957 C 476.6666666666667 466.02733824346717, 473.3333333333333 477.1254134325618, 470 477.1254134325618 C 466.6666666666667 477.1254134325618, 463.3333333333333 470.9603300537997, 460 468.04972479377244 C 456.6666666666667 465.1391195337452, 453.3333333333333 459.63667485590156, 450 459.63667485590156 C 446.6666666666667 459.63667485590156, 443.3333333333333 472.4023788807316, 440 472.4023788807316 C 436.6666666666667 472.4023788807316, 433.3333333333333 460.7450858923761, 430 457.6212792127158 C 426.6666666666667 454.49747253305554, 423.3333333333333 450.7607270968671, 420 450.7607270968671 C 416.6666666666667 450.7607270968671, 413.3333333333333 466.4137987830133, 410 466.4137987830133 C 406.6666666666667 466.4137987830133, 403.3333333333333 458.55928162240326, 400 457.47607521607523 C 396.6666666666667 456.3928688097472, 393.3333333333333 456.33435320349594, 390 455.4902595449148 C 386.6666666666667 454.6461658863337, 383.3333333333333 451.9965700568093, 380 451.9965700568093 C 376.6666666666667 451.9965700568093, 373.3333333333333 458.99917463793145, 370 459.1695136132716 C 366.6666666666667 459.33985258861173, 363.3333333333333 459.2711799763862, 360 459.43445976146245 C 356.6666666666667 459.5977395465387, 353.3333333333333 462.67469747346644, 350 462.67469747346644 C 346.6666666666667 462.67469747346644, 343.3333333333333 462.58851508598303, 340 462.44173131422605 C 336.6666666666667 462.29494754246906, 333.3333333333333 460.11415132477146, 330 458.4314525228176 C 326.6666666666667 456.74875372086376, 323.3333333333333 451.62084247671817, 320 451.62084247671817 C 316.6666666666667 451.62084247671817, 313.3333333333333 474.6902602178522, 310 474.6902602178522 C 306.6666666666667 474.6902602178522, 303.3333333333333 468.1313678631627, 300 466.72415613277474 C 296.6666666666667 465.31694440238675, 293.3333333333333 463.8523935467449, 290 463.8523935467449 C 286.6666666666667 463.8523935467449, 283.3333333333333 464.6306095069237, 280 464.6306095069237 C 276.6666666666667 464.6306095069237, 273.3333333333333 456.3049708688787, 270 456.3049708688787 C 266.6666666666667 456.3049708688787, 263.3333333333333 460.39190797107443, 260 462.7076870142749 C 256.6666666666667 465.02346605747533, 253.33333333333334 470.30091081539945, 250 470.30091081539945 C 246.66666666666666 470.30091081539945, 243.33333333333334 456.75173467773584, 240 456.75173467773584 C 236.66666666666666 456.75173467773584, 233.33333333333334 467.5102051324917, 230 467.5102051324917 C 226.66666666666666 467.5102051324917, 223.33333333333334 465.79484584605876, 220 465.79484584605876 C 216.66666666666666 465.79484584605876, 213.33333333333334 466.5607436889401, 210 466.5607436889401 C 206.66666666666666 466.5607436889401, 203.33333333333334 453.63826091701134, 200 453.63826091701134 C 196.66666666666666 453.63826091701134, 193.33333333333334 457.36204957482903, 190 459.122659729383 C 186.66666666666666 460.8832698839369, 183.33333333333334 464.2163527122252, 180 464.2163527122252 C 176.66666666666666 464.2163527122252, 173.33333333333334 458.2645230223956, 170 456.5055523682883 C 166.66666666666666 454.746581714181, 163.33333333333334 452.4946639443279, 160 452.4946639443279 C 156.66666666666666 452.4946639443279, 153.33333333333334 467.3272859647851, 150 467.3272859647851 C 146.66666666666666 467.3272859647851, 143.33333333333334 460.05102447034835, 140 460.05102447034835 C 136.66666666666666 460.05102447034835, 133.33333333333334 461.5315619174002, 130 462.2857629338034 C 126.66666666666667 463.03996395020664, 123.33333333333333 464.57693422034197, 120 464.57693422034197 C 116.66666666666667 464.57693422034197, 113.33333333333333 440.33532603564123, 110 431.02796901190845 C 106.66666666666667 421.7206119881757, 103.33333333333333 407.1163916639922, 100 407.1163916639922 C 96.66666666666667 407.1163916639922, 93.33333333333333 412.73734010735643, 90 416.16906711490407 C 86.66666666666667 419.6007941224517, 83.33333333333333 428.10208956487764, 80 428.10208956487764 C 76.66666666666667 428.10208956487764, 73.33333333333333 420.4716798176625, 70 420.4716798176625 C 66.66666666666667 420.4716798176625, 63.333333333333336 421.8208440344286, 60 423.5585024761299 C 56.666666666666664 425.2961609178312, 53.333333333333336 437.07074281207986, 50 440.3088230736262 C 46.666666666666664 443.5469033351725, 43.333333333333336 447.14956588030776, 40 447.14956588030776 C 36.666666666666664 447.14956588030776, 33.333333333333336 442.8248339755651, 30 438.040402419566 C 26.666666666666668 433.2559708635669, 23.333333333333332 404.21235164119355, 20 404.21235164119355 C 16.666666666666668 404.21235164119355, 13.333333333333334 404.6687377842957, 10 404.6687377842957 C 3.3333333333333335 402.4104332493315, 6.666666666666666 404.6687377842957, 10 404.6687377842957 Z" fill="#a0a0a0" stroke="white" stroke-width="5" />
  </g>
</svg>