<svg 
  baseProfile="tiny"
  preserveAspectRatio="keep"
  version="1.2"
  viewBox="-0.000000 -0.000000 2010.000000 800.000000"
  height="100%" width="100%"
  xmlns="http://www.w3.org/2000/svg"
  xmlns:ev="http://www.w3.org/2001/xml-events"
  xmlns:xlink="http://www.w3.org/1999/xlink"
>
  <g style="transform-origin: center center;">
    <path d="M 0 400 C 3.3333333333333335 387.545475720765, 6.666666666666666 375.6072040353087, 10 374.49716277906407 C 13.333333333333334 373.3871215228194, 16.666666666666668 372.82118135325413, 20 372.7157967916662 C 23.333333333333332 372.6104122300783, 26.666666666666668 372.54232633430564, 30 372.54232633430564 C 33.333333333333336 372.54232633430564, 36.666666666666664 373.77067883683253, 40 374.5732207929399 C 43.333333333333336 375.3757627490472, 46.666666666666664 377.52917730372866, 50 377.52917730372866 C 53.333333333333336 377.52917730372866, 56.666666666666664 361.26728755108127, 60 361.26728755108127 C 63.333333333333336 361.26728755108127, 66.66666666666667 367.3288420350047, 70 367.3288420350047 C 73.33333333333333 367.3288420350047, 76.66666666666667 344.80796637750046, 80 344.80796637750046 C 83.33333333333333 344.80796637750046, 86.66666666666667 346.1660444857962, 90 346.9394294604847 C 93.33333333333333 347.7128144351732, 96.66666666666667 348.2122678294897, 100 349.4849296515447 C 103.33333333333333 350.7575914735997, 106.66666666666667 354.99329923012596, 110 357.11931210204176 C 113.33333333333333 359.24532497395757, 116.66666666666667 362.5960734502631, 120 362.5960734502631 C 123.33333333333333 362.5960734502631, 126.66666666666667 360.7898326504372, 130 358.57070923000487 C 133.33333333333334 356.35158580957255, 136.66666666666666 343.63866101754604, 140 339.3377937811939 C 143.33333333333334 335.0369265448418, 146.66666666666666 329.63030941333614, 150 329.63030941333614 C 153.33333333333334 329.63030941333614, 156.66666666666666 338.64372297032753, 160 341.8790234627692 C 163.33333333333334 345.1143239552109, 166.66666666666666 347.4143318255538, 170 349.9163826096332 C 173.33333333333334 352.41843339371263, 176.66666666666666 356.95719231781277, 180 356.95719231781277 C 183.33333333333334 356.95719231781277, 186.66666666666666 346.21988015496305, 190 345.96098814166 C 193.33333333333334 345.7020961283569, 196.66666666666666 345.8030593601143, 200 345.55843365106733 C 203.33333333333334 345.3138079420204, 206.66666666666666 343.3658305640447, 210 341.4110541249135 C 213.33333333333334 339.4562776857823, 216.66666666666666 331.40393522071656, 220 331.40393522071656 C 223.33333333333334 331.40393522071656, 226.66666666666666 341.13168520265276, 230 343.6364462950502 C 233.33333333333334 346.1412073874476, 236.66666666666666 346.80065677467854, 240 349.0591334180651 C 243.33333333333334 351.3176100614516, 246.66666666666666 355.97480646462645, 250 358.0865386559941 C 253.33333333333334 360.19827084736175, 256.6666666666667 362.966425247463, 260 362.966425247463 C 263.3333333333333 362.966425247463, 266.6666666666667 357.6940882349501, 270 354.2527845323069 C 273.3333333333333 350.81148082966376, 276.6666666666667 343.0939365599482, 280 341.58853529751116 C 283.3333333333333 340.0831340350741, 286.6666666666667 338.84043225405713, 290 338.84043225405713 C 293.3333333333333 338.84043225405713, 296.6666666666667 345.34096225155787, 300 347.33879652135954 C 303.3333333333333 349.3366307911612, 306.6666666666667 350.82954162460345, 310 351.9678908781873 C 313.3333333333333 353.10624013177113, 316.6666666666667 354.6733841129064, 320 354.6733841129064 C 323.3333333333333 354.6733841129064, 326.6666666666667 339.09461007466547, 330 339.09461007466547 C 333.3333333333333 339.09461007466547, 336.6666666666667 359.2166407460875, 340 359.2166407460875 C 343.3333333333333 359.2166407460875, 346.6666666666667 344.19616967675796, 350 343.9860498123178 C 353.3333333333333 343.7759299478776, 356.6666666666667 343.79830259128755, 360 343.66420990395767 C 363.3333333333333 343.5301172166278, 366.6666666666667 343.1278876442023, 370 343.1278876442023 C 373.3333333333333 343.1278876442023, 376.6666666666667 343.504761765287, 380 343.504761765287 C 383.3333333333333 343.504761765287, 386.6666666666667 333.12947577464536, 390 333.12947577464536 C 393.3333333333333 333.12947577464536, 396.6666666666667 356.7921802993386, 400 356.7921802993386 C 403.3333333333333 356.7921802993386, 406.6666666666667 345.984434765911, 410 343.31633653019725 C 413.3333333333333 340.6482382944835, 416.6666666666667 337.62348865836145, 420 337.62348865836145 C 423.3333333333333 337.62348865836145, 426.6666666666667 342.17613274681855, 430 344.59839638511585 C 433.3333333333333 347.02066002341314, 436.6666666666667 350.1825939136908, 440 352.18256666731537 C 443.3333333333333 354.1825394209399, 446.6666666666667 357.14573265850754, 450 357.14573265850754 C 453.3333333333333 357.14573265850754, 456.6666666666667 344.2285836616576, 460 341.0309133710775 C 463.3333333333333 337.83324308049737, 466.6666666666667 334.2017319820519, 470 334.2017319820519 C 473.3333333333333 334.2017319820519, 476.6666666666667 352.577921789406, 480 352.577921789406 C 483.3333333333333 352.577921789406, 486.6666666666667 346.1926149784251, 490 346.1926149784251 C 493.3333333333333 346.1926149784251, 496.6666666666667 347.03365042765944, 500 347.03365042765944 C 503.3333333333333 347.03365042765944, 506.6666666666667 345.65757059717333, 510 345.65757059717333 C 513.3333333333334 345.65757059717333, 516.6666666666666 350.69951831881684, 520 352.4405451696326 C 523.3333333333334 354.1815720204484, 526.6666666666666 354.93005112992785, 530 356.68704889727474 C 533.3333333333334 358.4440466646216, 536.6666666666666 362.8640640834942, 540 363.6340366015214 C 543.3333333333334 364.4040091195486, 546.6666666666666 364.3760788742027, 550 365.01929978370737 C 553.3333333333334 365.66252069321206, 556.6666666666666 368.198282222542, 560 368.198282222542 C 563.3333333333334 368.198282222542, 566.6666666666666 366.7707118945896, 570 366.4041982148673 C 573.3333333333334 366.03768453514493, 576.6666666666666 365.63359778940105, 580 365.6115245787494 C 583.3333333333334 365.5894513680978, 586.6666666666666 365.599723712446, 590 365.57697148719063 C 593.3333333333334 365.55421926193526, 596.6666666666666 362.80068101332995, 600 362.80068101332995 C 603.3333333333334 362.80068101332995, 606.6666666666666 365.0996904424606, 610 365.9976438215738 C 613.3333333333334 366.89559720068695, 616.6666666666666 368.3252163248767, 620 368.3252163248767 C 623.3333333333334 368.3252163248767, 626.6666666666666 364.56195171784617, 630 364.3514143269793 C 633.3333333333334 364.1408769361124, 636.6666666666666 364.1720309898639, 640 364.00834372574934 C 643.3333333333334 363.84465646163477, 646.6666666666666 363.14475251312393, 650 363.14475251312393 C 653.3333333333334 363.14475251312393, 656.6666666666666 370.6108637174535, 660 371.9758621258748 C 663.3333333333334 373.3408605342961, 666.6666666666666 374.641355943723, 670 374.641355943723 C 673.3333333333334 374.641355943723, 676.6666666666666 374.0121305238447, 680 373.8970303485759 C 683.3333333333334 373.78193017330716, 686.6666666666666 373.7206914276015, 690 373.6722384038487 C 693.3333333333334 373.62378538009597, 696.6666666666666 373.63107921798746, 700 373.5648324778443 C 703.3333333333334 373.4985857377011, 706.6666666666666 372.71734279682147, 710 372.2366613270634 C 713.3333333333334 371.75597985730536, 716.6666666666666 371.42333594071226, 720 370.6593862657236 C 723.3333333333334 369.8954365907349, 726.6666666666666 366.4692022946873, 730 366.4692022946873 C 733.3333333333334 366.4692022946873, 736.6666666666666 371.38216984333644, 740 371.38216984333644 C 743.3333333333334 371.38216984333644, 746.6666666666666 371.272604392443, 750 371.0850414194437 C 753.3333333333334 370.89747844644444, 756.6666666666666 367.15108430132295, 760 365.78881584923295 C 763.3333333333334 364.42654739714294, 766.6666666666666 362.4617605888497, 770 362.4617605888497 C 773.3333333333334 362.4617605888497, 776.6666666666666 362.5672056043153, 780 362.5672056043153 C 783.3333333333334 362.5672056043153, 786.6666666666666 361.84407362224033, 790 361.84407362224033 C 793.3333333333334 361.84407362224033, 796.6666666666666 364.10788547595246, 800 364.10788547595246 C 803.3333333333334 364.10788547595246, 806.6666666666666 360.90770102328713, 810 360.90770102328713 C 813.3333333333334 360.90770102328713, 816.6666666666666 366.6755705272475, 820 366.6755705272475 C 823.3333333333334 366.6755705272475, 826.6666666666666 366.1810365328559, 830 366.1810365328559 C 833.3333333333334 366.1810365328559, 836.6666666666666 367.88050210930317, 840 367.88050210930317 C 843.3333333333334 367.88050210930317, 846.6666666666666 366.1598615818592, 850 364.9819766211814 C 853.3333333333334 363.80409166050356, 856.6666666666666 360.4567462525326, 860 360.4567462525326 C 863.3333333333334 360.4567462525326, 866.6666666666666 363.24565640155754, 870 363.24565640155754 C 873.3333333333334 363.24565640155754, 876.6666666666666 361.07428947524596, 880 361.07428947524596 C 883.3333333333334 361.07428947524596, 886.6666666666666 367.99406744066795, 890 368.41284121664575 C 893.3333333333334 368.83161499262354, 896.6666666666666 369.09980408978356, 900 369.09980408978356 C 903.3333333333334 369.09980408978356, 906.6666666666666 367.1787858677207, 910 365.7712879235311 C 913.3333333333334 364.36378997934145, 916.6666666666666 360.2459013008179, 920 359.9982681154746 C 923.3333333333334 359.75063493013135, 926.6666666666666 359.60127484976636, 930 359.60127484976636 C 933.3333333333334 359.60127484976636, 936.6666666666666 362.5328113616332, 940 362.5328113616332 C 943.3333333333334 362.5328113616332, 946.6666666666666 360.68883378976057, 950 360.30419070234274 C 953.3333333333334 359.9195476149249, 956.6666666666666 359.8795608576455, 960 359.52567794019177 C 963.3333333333334 359.171795022738, 966.6666666666666 357.8572365649598, 970 357.8572365649598 C 973.3333333333334 357.8572365649598, 976.6666666666666 363.4360074225574, 980 363.4360074225574 C 983.3333333333334 363.4360074225574, 986.6666666666666 362.6304571624918, 990 362.6304571624918 C 993.3333333333334 362.6304571624918, 996.6666666666666 364.55600154424707, 1000 365.4652110688771 C 1003.3333333333334 366.3744205935072, 1006.6666666666666 367.30955776378295, 1010 368.09351601518966 C 1013.3333333333334 368.8774742665964, 1016.6666666666666 369.80443427027535, 1020 370.2215737399358 C 1023.3333333333334 370.6387132095963, 1026.6666666666667 370.8033543312871, 1030 371.1078829339135 C 1033.3333333333333 371.41241153653993, 1036.6666666666667 371.55416809219116, 1040 372.050477568612 C 1043.3333333333333 372.54678704503283, 1046.6666666666667 375.4621473992973, 1050 375.59222534362897 C 1053.3333333333333 375.72230328796064, 1056.6666666666667 375.7987180624521, 1060 375.7987180624521 C 1063.3333333333333 375.7987180624521, 1066.6666666666667 375.6914352624907, 1070 375.6914352624907 C 1073.3333333333333 375.6914352624907, 1076.6666666666667 376.94105078603826, 1080 377.5720500451404 C 1083.3333333333333 378.2030493042425, 1086.6666666666667 379.4775949707781, 1090 379.4775949707781 C 1093.3333333333333 379.4775949707781, 1096.6666666666667 368.5391223172627, 1100 367.15313857703313 C 1103.3333333333333 365.76715483680357, 1106.6666666666667 366.00959011985316, 1110 364.6523048148088 C 1113.3333333333333 363.2950195097645, 1116.6666666666667 353.7005865898962, 1120 353.7005865898962 C 1123.3333333333333 353.7005865898962, 1126.6666666666667 354.47925552871135, 1130 355.401067039123 C 1133.3333333333333 356.32287854953466, 1136.6666666666667 362.80055130373665, 1140 362.80055130373665 C 1143.3333333333333 362.80055130373665, 1146.6666666666667 355.00578570067665, 1150 353.57043451169346 C 1153.3333333333333 352.1350833227103, 1156.6666666666667 350.76240343623607, 1160 350.76240343623607 C 1163.3333333333333 350.76240343623607, 1166.6666666666667 358.795722887757, 1170 359.1020656119034 C 1173.3333333333333 359.40840833604983, 1176.6666666666667 359.28394972913736, 1180 359.5883752853427 C 1183.3333333333333 359.892800841548, 1186.6666666666667 365.86186250783373, 1190 367.07262256703615 C 1193.3333333333333 368.28338262623856, 1196.6666666666667 369.2278347424285, 1200 369.47067910694307 C 1203.3333333333333 369.7135234714576, 1206.6666666666667 369.65743754894254, 1210 369.900188435686 C 1213.3333333333333 370.14293932242947, 1216.6666666666667 371.65918828762767, 1220 372.2921811388014 C 1223.3333333333333 372.9251739899752, 1226.6666666666667 373.1234960174627, 1230 373.8666463221785 C 1233.3333333333333 374.6097966268943, 1236.6666666666667 376.3093445649077, 1240 377.6842333627831 C 1243.3333333333333 379.05912216065855, 1246.6666666666667 381.31267917555, 1250 382.1697022386444 C 1253.3333333333333 383.0267253017388, 1256.6666666666667 383.3923728024731, 1260 383.9716846877684 C 1263.3333333333333 384.5509965730637, 1266.6666666666667 385.64997004285135, 1270 385.64997004285135 C 1273.3333333333333 385.64997004285135, 1276.6666666666667 385.6478532394443, 1280 385.64381072615504 C 1283.3333333333333 385.63976821286576, 1286.6666666666667 385.44859848066665, 1290 385.2529164826211 C 1293.3333333333333 385.0572344845756, 1296.6666666666667 384.07457632509556, 1300 384.07457632509556 C 1303.3333333333333 384.07457632509556, 1306.6666666666667 384.18105616972656, 1310 384.33557437760345 C 1313.3333333333333 384.49009258548034, 1316.6666666666667 386.40579660899357, 1320 386.40579660899357 C 1323.3333333333333 386.40579660899357, 1326.6666666666667 386.02224457609617, 1330 385.35148882987676 C 1333.3333333333333 384.68073308365734, 1336.6666666666667 363.3319143035123, 1340 363.3319143035123 C 1343.3333333333333 363.3319143035123, 1346.6666666666667 364.47377891797294, 1350 364.75680691916943 C 1353.3333333333333 365.03983492036593, 1356.6666666666667 365.00593316044893, 1360 365.36152166119166 C 1363.3333333333333 365.7171101619344, 1366.6666666666667 369.8832574018128, 1370 369.8832574018128 C 1373.3333333333333 369.8832574018128, 1376.6666666666667 369.7415702690203, 1380 369.7415702690203 C 1383.3333333333333 369.7415702690203, 1386.6666666666667 371.005693060913, 1390 371.005693060913 C 1393.3333333333333 371.005693060913, 1396.6666666666667 369.1262083651653, 1400 369.1262083651653 C 1403.3333333333333 369.1262083651653, 1406.6666666666667 374.0680440875606, 1410 374.0680440875606 C 1413.3333333333333 374.0680440875606, 1416.6666666666667 372.8182135037548, 1420 372.8182135037548 C 1423.3333333333333 372.8182135037548, 1426.6666666666667 373.9586717466602, 1430 375.141207653683 C 1433.3333333333333 376.32374356070585, 1436.6666666666667 381.2570339608675, 1440 382.64413709493044 C 1443.3333333333333 384.0312402289934, 1446.6666666666667 384.96235906962664, 1450 385.5231880766723 C 1453.3333333333333 386.0840170837179, 1456.6666666666667 386.3810230419733, 1460 386.7117120119543 C 1463.3333333333333 387.0424009819353, 1466.6666666666667 387.202231126645, 1470 387.56305603861864 C 1473.3333333333333 387.92388095059226, 1476.6666666666667 389.04892932539843, 1480 389.04892932539843 C 1483.3333333333333 389.04892932539843, 1486.6666666666667 388.6397570361928, 1490 388.6397570361928 C 1493.3333333333333 388.6397570361928, 1496.6666666666667 388.72241277423336, 1500 388.82336964085636 C 1503.3333333333333 388.92432650747935, 1506.6666666666667 389.68750136640404, 1510 389.68750136640404 C 1513.3333333333333 389.68750136640404, 1516.6666666666667 389.4315855893266, 1520 388.97561111467587 C 1523.3333333333333 388.51963664002517, 1526.6666666666667 374.5967214724729, 1530 371.5416285422529 C 1533.3333333333333 368.4865356120329, 1536.6666666666667 367.18259215561636, 1540 365.3248732776134 C 1543.3333333333333 363.4671543996104, 1546.6666666666667 360.2745578895073, 1550 360.2745578895073 C 1553.3333333333333 360.2745578895073, 1556.6666666666667 363.37439666840953, 1560 363.37439666840953 C 1563.3333333333333 363.37439666840953, 1566.6666666666667 357.7516361603028, 1570 357.7516361603028 C 1573.3333333333333 357.7516361603028, 1576.6666666666667 359.0769825705641, 1580 360.3054345101432 C 1583.3333333333333 361.5338864497223, 1586.6666666666667 366.9229180423434, 1590 366.9229180423434 C 1593.3333333333333 366.9229180423434, 1596.6666666666667 366.83378027486486, 1600 366.6835632099022 C 1603.3333333333333 366.53334614493957, 1606.6666666666667 362.8392501998361, 1610 362.8392501998361 C 1613.3333333333333 362.8392501998361, 1616.6666666666667 368.55473051732724, 1620 369.775536383475 C 1623.3333333333333 370.9963422496228, 1626.6666666666667 371.28545258250307, 1630 372.26360607114907 C 1633.3333333333333 373.24175955979507, 1636.6666666666667 375.8396542447021, 1640 375.8396542447021 C 1643.3333333333333 375.8396542447021, 1646.6666666666667 370.3541663117159, 1650 370.3541663117159 C 1653.3333333333333 370.3541663117159, 1656.6666666666667 372.72947921629924, 1660 372.9244317306318 C 1663.3333333333333 373.11938424496435, 1666.6666666666667 373.0830564333898, 1670 373.25440252100077 C 1673.3333333333333 373.42574860861174, 1676.6666666666667 374.11667892361834, 1680 374.41693682318373 C 1683.3333333333333 374.7171947227491, 1686.6666666666667 375.1521640005541, 1690 375.1521640005541 C 1693.3333333333333 375.1521640005541, 1696.6666666666667 370.56779958402404, 1700 370.56779958402404 C 1703.3333333333333 370.56779958402404, 1706.6666666666667 372.0045728043005, 1710 372.0045728043005 C 1713.3333333333333 372.0045728043005, 1716.6666666666667 371.98858445620624, 1720 371.96018448700005 C 1723.3333333333333 371.93178451779386, 1726.6666666666667 371.48503984400685, 1730 370.90282658631963 C 1733.3333333333333 370.3206133286324, 1736.6666666666667 365.8853214468977, 1740 365.8853214468977 C 1743.3333333333333 365.8853214468977, 1746.6666666666667 366.9071852941423, 1750 367.64697791920935 C 1753.3333333333333 368.3867705442764, 1756.6666666666667 370.64542584045887, 1760 370.64542584045887 C 1763.3333333333333 370.64542584045887, 1766.6666666666667 369.5834041055333, 1770 368.23040782243913 C 1773.3333333333333 366.87741153934496, 1776.6666666666667 355.51713764349245, 1780 355.51713764349245 C 1783.3333333333333 355.51713764349245, 1786.6666666666667 357.8989544651704, 1790 357.8989544651704 C 1793.3333333333333 357.8989544651704, 1796.6666666666667 357.64136663889633, 1800 357.43072724723635 C 1803.3333333333333 357.22008785557637, 1806.6666666666667 357.06022119920647, 1810 356.4591474157579 C 1813.3333333333333 355.85807363230936, 1816.6666666666667 345.3195189330048, 1820 343.93953457352734 C 1823.3333333333333 342.55955021404986, 1826.6666666666667 341.9084657466557, 1830 341.4595147803015 C 1833.3333333333333 341.01056381394733, 1836.6666666666667 340.74760330628277, 1840 340.53506162101775 C 1843.3333333333333 340.3225199357527, 1846.6666666666667 340.36471884402033, 1850 340.0484244415412 C 1853.3333333333333 339.7321300390621, 1856.6666666666667 321.1168931678841, 1860 321.1168931678841 C 1863.3333333333333 321.1168931678841, 1866.6666666666667 327.68309865761296, 1870 327.68309865761296 C 1873.3333333333333 327.68309865761296, 1876.6666666666667 327.28401718550134, 1880 326.7132317667147 C 1883.3333333333333 326.1424463479281, 1886.6666666666667 322.5747905583996, 1890 319.4092661031034 C 1893.3333333333333 316.24374164780716, 1896.6666666666667 305.8389690683179, 1900 305.8389690683179 C 1903.3333333333333 305.8389690683179, 1906.6666666666667 311.15023738717804, 1910 312.2657152917801 C 1913.3333333333333 313.3811931963822, 1916.6666666666667 314.52789551344546, 1920 314.52789551344546 C 1923.3333333333333 314.52789551344546, 1926.6666666666667 311.49976261562193, 1930 311.49976261562193 C 1933.3333333333333 311.49976261562193, 1936.6666666666667 317.09619576306, 1940 317.09619576306 C 1943.3333333333333 317.09619576306, 1946.6666666666667 309.7660393940324, 1950 309.7660393940324 C 1953.3333333333333 309.7660393940324, 1956.6666666666667 316.2491012708663, 1960 318.89556082337185 C 1963.3333333333333 321.5420203758774, 1966.6666666666667 324.3208095361141, 1970 325.9193094819062 C 1973.3333333333333 327.51780942769835, 1976.6666666666667 327.4794573699199, 1980 329.5598623056295 C 1983.3333333333333 331.64026724133913, 1986.6666666666667 351.409725107204, 1990 351.409725107204 C 1993.3333333333333 351.409725107204, 1996.6666666666667 341.08638352435196, 2000 341.08638352435196 C 2003.3333333333333 341.08638352435196, 2006.6666666666667 368.8226348317006, 2010 400 c 0 0, 0 0, 0 0C 2006.6666666666667 431.1773651682994, 2003.3333333333333 458.91361647564804, 2000 458.91361647564804 C 1996.6666666666667 458.91361647564804, 1993.3333333333333 448.590274892796, 1990 448.590274892796 C 1986.6666666666667 448.590274892796, 1983.3333333333333 468.35973275866087, 1980 470.4401376943705 C 1976.6666666666667 472.5205426300801, 1973.3333333333333 472.48219057230165, 1970 474.0806905180938 C 1966.6666666666667 475.6791904638859, 1963.3333333333333 478.4579796241226, 1960 481.10443917662815 C 1956.6666666666667 483.7508987291337, 1953.3333333333333 490.2339606059676, 1950 490.2339606059676 C 1946.6666666666667 490.2339606059676, 1943.3333333333333 482.90380423694, 1940 482.90380423694 C 1936.6666666666667 482.90380423694, 1933.3333333333333 488.50023738437807, 1930 488.50023738437807 C 1926.6666666666667 488.50023738437807, 1923.3333333333333 485.47210448655454, 1920 485.47210448655454 C 1916.6666666666667 485.47210448655454, 1913.3333333333333 486.6188068036178, 1910 487.7342847082199 C 1906.6666666666667 488.84976261282196, 1903.3333333333333 494.1610309316821, 1900 494.1610309316821 C 1896.6666666666667 494.1610309316821, 1893.3333333333333 483.75625835219284, 1890 480.5907338968966 C 1886.6666666666667 477.4252094416004, 1883.3333333333333 473.8575536520719, 1880 473.2867682332853 C 1876.6666666666667 472.71598281449866, 1873.3333333333333 472.31690134238704, 1870 472.31690134238704 C 1866.6666666666667 472.31690134238704, 1863.3333333333333 478.8831068321159, 1860 478.8831068321159 C 1856.6666666666667 478.8831068321159, 1853.3333333333333 460.2678699609379, 1850 459.9515755584588 C 1846.6666666666667 459.63528115597967, 1843.3333333333333 459.6774800642473, 1840 459.46493837898225 C 1836.6666666666667 459.25239669371723, 1833.3333333333333 458.98943618605267, 1830 458.5404852196985 C 1826.6666666666667 458.0915342533443, 1823.3333333333333 457.44044978595014, 1820 456.06046542647266 C 1816.6666666666667 454.6804810669952, 1813.3333333333333 444.14192636769064, 1810 443.5408525842421 C 1806.6666666666667 442.93977880079353, 1803.3333333333333 442.77991214442363, 1800 442.56927275276365 C 1796.6666666666667 442.35863336110367, 1793.3333333333333 442.1010455348296, 1790 442.1010455348296 C 1786.6666666666667 442.1010455348296, 1783.3333333333333 444.48286235650755, 1780 444.48286235650755 C 1776.6666666666667 444.48286235650755, 1773.3333333333333 433.12258846065504, 1770 431.76959217756087 C 1766.6666666666667 430.4165958944667, 1763.3333333333333 429.35457415954113, 1760 429.35457415954113 C 1756.6666666666667 429.35457415954113, 1753.3333333333333 431.6132294557236, 1750 432.35302208079065 C 1746.6666666666667 433.0928147058577, 1743.3333333333333 434.1146785531023, 1740 434.1146785531023 C 1736.6666666666667 434.1146785531023, 1733.3333333333333 429.6793866713676, 1730 429.09717341368037 C 1726.6666666666667 428.51496015599315, 1723.3333333333333 428.06821548220614, 1720 428.03981551299995 C 1716.6666666666667 428.01141554379376, 1713.3333333333333 427.9954271956995, 1710 427.9954271956995 C 1706.6666666666667 427.9954271956995, 1703.3333333333333 429.43220041597596, 1700 429.43220041597596 C 1696.6666666666667 429.43220041597596, 1693.3333333333333 424.8478359994459, 1690 424.8478359994459 C 1686.6666666666667 424.8478359994459, 1683.3333333333333 425.2828052772509, 1680 425.58306317681627 C 1676.6666666666667 425.88332107638166, 1673.3333333333333 426.57425139138826, 1670 426.74559747899923 C 1666.6666666666667 426.9169435666102, 1663.3333333333333 426.88061575503565, 1660 427.0755682693682 C 1656.6666666666667 427.27052078370076, 1653.3333333333333 429.6458336882841, 1650 429.6458336882841 C 1646.6666666666667 429.6458336882841, 1643.3333333333333 424.1603457552979, 1640 424.1603457552979 C 1636.6666666666667 424.1603457552979, 1633.3333333333333 426.75824044020493, 1630 427.73639392885093 C 1626.6666666666667 428.71454741749693, 1623.3333333333333 429.0036577503772, 1620 430.224463616525 C 1616.6666666666667 431.44526948267276, 1613.3333333333333 437.1607498001639, 1610 437.1607498001639 C 1606.6666666666667 437.1607498001639, 1603.3333333333333 433.46665385506043, 1600 433.3164367900978 C 1596.6666666666667 433.16621972513514, 1593.3333333333333 433.0770819576566, 1590 433.0770819576566 C 1586.6666666666667 433.0770819576566, 1583.3333333333333 438.4661135502777, 1580 439.6945654898568 C 1576.6666666666667 440.9230174294359, 1573.3333333333333 442.2483638396972, 1570 442.2483638396972 C 1566.6666666666667 442.2483638396972, 1563.3333333333333 436.62560333159047, 1560 436.62560333159047 C 1556.6666666666667 436.62560333159047, 1553.3333333333333 439.7254421104927, 1550 439.7254421104927 C 1546.6666666666667 439.7254421104927, 1543.3333333333333 436.5328456003896, 1540 434.6751267223866 C 1536.6666666666667 432.81740784438364, 1533.3333333333333 431.5134643879671, 1530 428.4583714577471 C 1526.6666666666667 425.4032785275271, 1523.3333333333333 411.48036335997483, 1520 411.02438888532413 C 1516.6666666666667 410.5684144106734, 1513.3333333333333 410.31249863359596, 1510 410.31249863359596 C 1506.6666666666667 410.31249863359596, 1503.3333333333333 411.07567349252065, 1500 411.17663035914364 C 1496.6666666666667 411.27758722576664, 1493.3333333333333 411.3602429638072, 1490 411.3602429638072 C 1486.6666666666667 411.3602429638072, 1483.3333333333333 410.95107067460157, 1480 410.95107067460157 C 1476.6666666666667 410.95107067460157, 1473.3333333333333 412.07611904940774, 1470 412.43694396138136 C 1466.6666666666667 412.797768873355, 1463.3333333333333 412.9575990180647, 1460 413.2882879880457 C 1456.6666666666667 413.6189769580267, 1453.3333333333333 413.9159829162821, 1450 414.4768119233277 C 1446.6666666666667 415.03764093037336, 1443.3333333333333 415.9687597710066, 1440 417.35586290506956 C 1436.6666666666667 418.7429660391325, 1433.3333333333333 423.67625643929415, 1430 424.858792346317 C 1426.6666666666667 426.0413282533398, 1423.3333333333333 427.1817864962452, 1420 427.1817864962452 C 1416.6666666666667 427.1817864962452, 1413.3333333333333 425.9319559124394, 1410 425.9319559124394 C 1406.6666666666667 425.9319559124394, 1403.3333333333333 430.8737916348347, 1400 430.8737916348347 C 1396.6666666666667 430.8737916348347, 1393.3333333333333 428.994306939087, 1390 428.994306939087 C 1386.6666666666667 428.994306939087, 1383.3333333333333 430.2584297309797, 1380 430.2584297309797 C 1376.6666666666667 430.2584297309797, 1373.3333333333333 430.1167425981872, 1370 430.1167425981872 C 1366.6666666666667 430.1167425981872, 1363.3333333333333 434.2828898380656, 1360 434.63847833880834 C 1356.6666666666667 434.99406683955107, 1353.3333333333333 434.96016507963407, 1350 435.24319308083057 C 1346.6666666666667 435.52622108202706, 1343.3333333333333 436.6680856964877, 1340 436.6680856964877 C 1336.6666666666667 436.6680856964877, 1333.3333333333333 415.31926691634266, 1330 414.64851117012324 C 1326.6666666666667 413.97775542390383, 1323.3333333333333 413.59420339100643, 1320 413.59420339100643 C 1316.6666666666667 413.59420339100643, 1313.3333333333333 415.50990741451966, 1310 415.66442562239655 C 1306.6666666666667 415.81894383027344, 1303.3333333333333 415.92542367490444, 1300 415.92542367490444 C 1296.6666666666667 415.92542367490444, 1293.3333333333333 414.9427655154244, 1290 414.7470835173789 C 1286.6666666666667 414.55140151933335, 1283.3333333333333 414.36023178713424, 1280 414.35618927384496 C 1276.6666666666667 414.3521467605557, 1273.3333333333333 414.35002995714865, 1270 414.35002995714865 C 1266.6666666666667 414.35002995714865, 1263.3333333333333 415.4490034269363, 1260 416.0283153122316 C 1256.6666666666667 416.6076271975269, 1253.3333333333333 416.9732746982612, 1250 417.8302977613556 C 1246.6666666666667 418.68732082445, 1243.3333333333333 420.94087783934145, 1240 422.3157666372169 C 1236.6666666666667 423.6906554350923, 1233.3333333333333 425.3902033731057, 1230 426.1333536778215 C 1226.6666666666667 426.8765039825373, 1223.3333333333333 427.0748260100248, 1220 427.7078188611986 C 1216.6666666666667 428.34081171237233, 1213.3333333333333 429.85706067757053, 1210 430.099811564314 C 1206.6666666666667 430.34256245105746, 1203.3333333333333 430.2864765285424, 1200 430.52932089305693 C 1196.6666666666667 430.7721652575715, 1193.3333333333333 431.71661737376144, 1190 432.92737743296385 C 1186.6666666666667 434.13813749216627, 1183.3333333333333 440.107199158452, 1180 440.4116247146573 C 1176.6666666666667 440.71605027086264, 1173.3333333333333 440.59159166395017, 1170 440.8979343880966 C 1166.6666666666667 441.204277112243, 1163.3333333333333 449.23759656376393, 1160 449.23759656376393 C 1156.6666666666667 449.23759656376393, 1153.3333333333333 447.8649166772897, 1150 446.42956548830654 C 1146.6666666666667 444.99421429932335, 1143.3333333333333 437.19944869626335, 1140 437.19944869626335 C 1136.6666666666667 437.19944869626335, 1133.3333333333333 443.67712145046534, 1130 444.598932960877 C 1126.6666666666667 445.52074447128865, 1123.3333333333333 446.2994134101038, 1120 446.2994134101038 C 1116.6666666666667 446.2994134101038, 1113.3333333333333 436.7049804902355, 1110 435.3476951851912 C 1106.6666666666667 433.99040988014684, 1103.3333333333333 434.23284516319643, 1100 432.84686142296687 C 1096.6666666666667 431.4608776827373, 1093.3333333333333 420.5224050292219, 1090 420.5224050292219 C 1086.6666666666667 420.5224050292219, 1083.3333333333333 421.7969506957575, 1080 422.4279499548596 C 1076.6666666666667 423.05894921396174, 1073.3333333333333 424.3085647375093, 1070 424.3085647375093 C 1066.6666666666667 424.3085647375093, 1063.3333333333333 424.2012819375479, 1060 424.2012819375479 C 1056.6666666666667 424.2012819375479, 1053.3333333333333 424.27769671203936, 1050 424.40777465637103 C 1046.6666666666667 424.5378526007027, 1043.3333333333333 427.45321295496717, 1040 427.949522431388 C 1036.6666666666667 428.44583190780884, 1033.3333333333333 428.58758846346007, 1030 428.8921170660865 C 1026.6666666666667 429.1966456687129, 1023.3333333333334 429.3612867904037, 1020 429.7784262600642 C 1016.6666666666666 430.19556572972465, 1013.3333333333334 431.1225257334036, 1010 431.90648398481034 C 1006.6666666666666 432.69044223621705, 1003.3333333333334 433.6255794064928, 1000 434.5347889311229 C 996.6666666666666 435.44399845575293, 993.3333333333334 437.3695428375082, 990 437.3695428375082 C 986.6666666666666 437.3695428375082, 983.3333333333334 436.5639925774426, 980 436.5639925774426 C 976.6666666666666 436.5639925774426, 973.3333333333334 442.1427634350402, 970 442.1427634350402 C 966.6666666666666 442.1427634350402, 963.3333333333334 440.828204977262, 960 440.47432205980823 C 956.6666666666666 440.1204391423545, 953.3333333333334 440.0804523850751, 950 439.69580929765726 C 946.6666666666666 439.31116621023943, 943.3333333333334 437.4671886383668, 940 437.4671886383668 C 936.6666666666666 437.4671886383668, 933.3333333333334 440.39872515023364, 930 440.39872515023364 C 926.6666666666666 440.39872515023364, 923.3333333333334 440.24936506986865, 920 440.0017318845254 C 916.6666666666666 439.7540986991821, 913.3333333333334 435.63621002065855, 910 434.2287120764689 C 906.6666666666666 432.8212141322793, 903.3333333333334 430.90019591021644, 900 430.90019591021644 C 896.6666666666666 430.90019591021644, 893.3333333333334 431.16838500737646, 890 431.58715878335425 C 886.6666666666666 432.00593255933205, 883.3333333333334 438.92571052475404, 880 438.92571052475404 C 876.6666666666666 438.92571052475404, 873.3333333333334 436.75434359844246, 870 436.75434359844246 C 866.6666666666666 436.75434359844246, 863.3333333333334 439.5432537474674, 860 439.5432537474674 C 856.6666666666666 439.5432537474674, 853.3333333333334 436.19590833949644, 850 435.0180233788186 C 846.6666666666666 433.8401384181408, 843.3333333333334 432.11949789069683, 840 432.11949789069683 C 836.6666666666666 432.11949789069683, 833.3333333333334 433.8189634671441, 830 433.8189634671441 C 826.6666666666666 433.8189634671441, 823.3333333333334 433.3244294727525, 820 433.3244294727525 C 816.6666666666666 433.3244294727525, 813.3333333333334 439.09229897671287, 810 439.09229897671287 C 806.6666666666666 439.09229897671287, 803.3333333333334 435.89211452404754, 800 435.89211452404754 C 796.6666666666666 435.89211452404754, 793.3333333333334 438.15592637775967, 790 438.15592637775967 C 786.6666666666666 438.15592637775967, 783.3333333333334 437.4327943956847, 780 437.4327943956847 C 776.6666666666666 437.4327943956847, 773.3333333333334 437.5382394111503, 770 437.5382394111503 C 766.6666666666666 437.5382394111503, 763.3333333333334 435.57345260285706, 760 434.21118415076705 C 756.6666666666666 432.84891569867705, 753.3333333333334 429.10252155355556, 750 428.9149585805563 C 746.6666666666666 428.727395607557, 743.3333333333334 428.61783015666356, 740 428.61783015666356 C 736.6666666666666 428.61783015666356, 733.3333333333334 433.5307977053127, 730 433.5307977053127 C 726.6666666666666 433.5307977053127, 723.3333333333334 430.1045634092651, 720 429.3406137342764 C 716.6666666666666 428.57666405928774, 713.3333333333334 428.24402014269464, 710 427.7633386729366 C 706.6666666666666 427.28265720317853, 703.3333333333334 426.5014142622989, 700 426.4351675221557 C 696.6666666666666 426.36892078201254, 693.3333333333334 426.37621461990403, 690 426.3277615961513 C 686.6666666666666 426.2793085723985, 683.3333333333334 426.21806982669284, 680 426.1029696514241 C 676.6666666666666 425.9878694761553, 673.3333333333334 425.358644056277, 670 425.358644056277 C 666.6666666666666 425.358644056277, 663.3333333333334 426.6591394657039, 660 428.0241378741252 C 656.6666666666666 429.3891362825465, 653.3333333333334 436.85524748687607, 650 436.85524748687607 C 646.6666666666666 436.85524748687607, 643.3333333333334 436.15534353836523, 640 435.99165627425066 C 636.6666666666666 435.8279690101361, 633.3333333333334 435.8591230638876, 630 435.6485856730207 C 626.6666666666666 435.43804828215383, 623.3333333333334 431.6747836751233, 620 431.6747836751233 C 616.6666666666666 431.6747836751233, 613.3333333333334 433.10440279931305, 610 434.0023561784262 C 606.6666666666666 434.9003095575394, 603.3333333333334 437.19931898667005, 600 437.19931898667005 C 596.6666666666666 437.19931898667005, 593.3333333333334 434.44578073806474, 590 434.42302851280937 C 586.6666666666666 434.400276287554, 583.3333333333334 434.4105486319022, 580 434.3884754212506 C 576.6666666666666 434.36640221059895, 573.3333333333334 433.96231546485507, 570 433.5958017851327 C 566.6666666666666 433.2292881054104, 563.3333333333334 431.801717777458, 560 431.801717777458 C 556.6666666666666 431.801717777458, 553.3333333333334 434.33747930678794, 550 434.98070021629263 C 546.6666666666666 435.6239211257973, 543.3333333333334 435.5959908804514, 540 436.3659633984786 C 536.6666666666666 437.1359359165058, 533.3333333333334 441.5559533353784, 530 443.31295110272526 C 526.6666666666666 445.06994887007215, 523.3333333333334 445.8184279795516, 520 447.5594548303674 C 516.6666666666666 449.30048168118316, 513.3333333333334 454.34242940282667, 510 454.34242940282667 C 506.6666666666667 454.34242940282667, 503.3333333333333 452.96634957234056, 500 452.96634957234056 C 496.6666666666667 452.96634957234056, 493.3333333333333 453.8073850215749, 490 453.8073850215749 C 486.6666666666667 453.8073850215749, 483.3333333333333 447.422078210594, 480 447.422078210594 C 476.6666666666667 447.422078210594, 473.3333333333333 465.7982680179481, 470 465.7982680179481 C 466.6666666666667 465.7982680179481, 463.3333333333333 462.16675691950263, 460 458.9690866289225 C 456.6666666666667 455.7714163383424, 453.3333333333333 442.85426734149246, 450 442.85426734149246 C 446.6666666666667 442.85426734149246, 443.3333333333333 445.8174605790601, 440 447.81743333268463 C 436.6666666666667 449.8174060863092, 433.3333333333333 452.97933997658686, 430 455.40160361488415 C 426.6666666666667 457.82386725318145, 423.3333333333333 462.37651134163855, 420 462.37651134163855 C 416.6666666666667 462.37651134163855, 413.3333333333333 459.3517617055165, 410 456.68366346980275 C 406.6666666666667 454.015565234089, 403.3333333333333 443.2078197006614, 400 443.2078197006614 C 396.6666666666667 443.2078197006614, 393.3333333333333 466.87052422535464, 390 466.87052422535464 C 386.6666666666667 466.87052422535464, 383.3333333333333 456.495238234713, 380 456.495238234713 C 376.6666666666667 456.495238234713, 373.3333333333333 456.8721123557977, 370 456.8721123557977 C 366.6666666666667 456.8721123557977, 363.3333333333333 456.4698827833722, 360 456.33579009604233 C 356.6666666666667 456.20169740871245, 353.3333333333333 456.2240700521224, 350 456.0139501876822 C 346.6666666666667 455.80383032324204, 343.3333333333333 440.7833592539125, 340 440.7833592539125 C 336.6666666666667 440.7833592539125, 333.3333333333333 460.90538992533453, 330 460.90538992533453 C 326.6666666666667 460.90538992533453, 323.3333333333333 445.3266158870936, 320 445.3266158870936 C 316.6666666666667 445.3266158870936, 313.3333333333333 446.89375986822887, 310 448.0321091218127 C 306.6666666666667 449.17045837539655, 303.3333333333333 450.6633692088388, 300 452.66120347864046 C 296.6666666666667 454.65903774844213, 293.3333333333333 461.15956774594287, 290 461.15956774594287 C 286.6666666666667 461.15956774594287, 283.3333333333333 459.9168659649259, 280 458.41146470248884 C 276.6666666666667 456.9060634400518, 273.3333333333333 449.18851917033624, 270 445.7472154676931 C 266.6666666666667 442.3059117650499, 263.3333333333333 437.033574752537, 260 437.033574752537 C 256.6666666666667 437.033574752537, 253.33333333333334 439.80172915263825, 250 441.9134613440059 C 246.66666666666666 444.02519353537355, 243.33333333333334 448.6823899385484, 240 450.9408665819349 C 236.66666666666666 453.19934322532146, 233.33333333333334 453.8587926125524, 230 456.3635537049498 C 226.66666666666666 458.86831479734724, 223.33333333333334 468.59606477928344, 220 468.59606477928344 C 216.66666666666666 468.59606477928344, 213.33333333333334 460.5437223142177, 210 458.5889458750865 C 206.66666666666666 456.6341694359553, 203.33333333333334 454.6861920579796, 200 454.44156634893267 C 196.66666666666666 454.1969406398857, 193.33333333333334 454.2979038716431, 190 454.03901185834 C 186.66666666666666 453.78011984503695, 183.33333333333334 443.04280768218723, 180 443.04280768218723 C 176.66666666666666 443.04280768218723, 173.33333333333334 447.58156660628737, 170 450.0836173903668 C 166.66666666666666 452.5856681744462, 163.33333333333334 454.8856760447891, 160 458.1209765372308 C 156.66666666666666 461.35627702967247, 153.33333333333334 470.36969058666386, 150 470.36969058666386 C 146.66666666666666 470.36969058666386, 143.33333333333334 464.9630734551582, 140 460.6622062188061 C 136.66666666666666 456.36133898245396, 133.33333333333334 443.64841419042745, 130 441.42929076999513 C 126.66666666666667 439.2101673495628, 123.33333333333333 437.4039265497369, 120 437.4039265497369 C 116.66666666666667 437.4039265497369, 113.33333333333333 440.75467502604243, 110 442.88068789795824 C 106.66666666666667 445.00670076987404, 103.33333333333333 449.2424085264003, 100 450.5150703484553 C 96.66666666666667 451.7877321705103, 93.33333333333333 452.2871855648268, 90 453.0605705395153 C 86.66666666666667 453.8339555142038, 83.33333333333333 455.19203362249954, 80 455.19203362249954 C 76.66666666666667 455.19203362249954, 73.33333333333333 432.6711579649953, 70 432.6711579649953 C 66.66666666666667 432.6711579649953, 63.333333333333336 438.73271244891873, 60 438.73271244891873 C 56.666666666666664 438.73271244891873, 53.333333333333336 422.47082269627134, 50 422.47082269627134 C 46.666666666666664 422.47082269627134, 43.333333333333336 424.6242372509528, 40 425.4267792070601 C 36.666666666666664 426.22932116316747, 33.333333333333336 427.45767366569436, 30 427.45767366569436 C 26.666666666666668 427.45767366569436, 23.333333333333332 427.3895877699217, 20 427.2842032083338 C 16.666666666666668 427.17881864674587, 13.333333333333334 426.6128784771806, 10 425.50283722093593 C 3.3333333333333335 412.454524279235, 6.666666666666666 424.3927959646913, 10 425.50283722093593 Z" fill="white" stroke="transparent" stroke-width="0" />
  </g>
</svg>