<svg 
  baseProfile="tiny"
  preserveAspectRatio="keep"
  version="1.2"
  viewBox="-0.000000 -0.000000 2010.000000 800.000000"
  height="100%" width="100%"
  xmlns="http://www.w3.org/2000/svg"
  xmlns:ev="http://www.w3.org/2001/xml-events"
  xmlns:xlink="http://www.w3.org/1999/xlink"
>
  <g style="transform-origin: center center;">
    <path d="M 0 400 C 3.3333333333333335 350.3911478961902, 6.666666666666666 309.4577732465189, 10 309.4577732465189 C 13.333333333333334 309.4577732465189, 16.666666666666668 335.4842056089343, 20 335.4842056089343 C 23.333333333333332 335.4842056089343, 26.666666666666668 308.13665609502596, 30 308.13665609502596 C 33.333333333333336 308.13665609502596, 36.666666666666664 329.5811991308306, 40 329.5811991308306 C 43.333333333333336 329.5811991308306, 46.666666666666664 323.38940576374546, 50 323.38940576374546 C 53.333333333333336 323.38940576374546, 56.666666666666664 334.14984266626277, 60 334.14984266626277 C 63.333333333333336 334.14984266626277, 66.66666666666667 334.1201124059235, 70 334.1201124059235 C 73.33333333333333 334.1201124059235, 76.66666666666667 336.2696979184685, 80 336.2696979184685 C 83.33333333333333 336.2696979184685, 86.66666666666667 331.5223628947725, 90 331.5223628947725 C 93.33333333333333 331.5223628947725, 96.66666666666667 331.8385734873249, 100 331.8385734873249 C 103.33333333333333 331.8385734873249, 106.66666666666667 326.51226932918155, 110 326.51226932918155 C 113.33333333333333 326.51226932918155, 116.66666666666667 328.0093389968428, 120 329.4557819479659 C 123.33333333333333 330.90222489908894, 126.66666666666667 336.6536050473334, 130 337.70860812714767 C 133.33333333333334 338.76361120696197, 136.66666666666666 338.8093637488874, 140 339.66655504738134 C 143.33333333333334 340.5237463458753, 146.66666666666666 343.4119470633171, 150 343.4119470633171 C 153.33333333333334 343.4119470633171, 156.66666666666666 319.2466881403902, 160 308.02337716171843 C 163.33333333333334 296.8000661830467, 166.66666666666666 279.0947257479138, 170 275.9128823041248 C 173.33333333333334 272.73103886033584, 176.66666666666666 270.306862600355, 180 270.306862600355 C 183.33333333333334 270.306862600355, 186.66666666666666 276.1263229488434, 190 276.1263229488434 C 193.33333333333334 276.1263229488434, 196.66666666666666 275.9250886337802, 200 275.9250886337802 C 203.33333333333334 275.9250886337802, 206.66666666666666 276.6761222960241, 210 276.6761222960241 C 213.33333333333334 276.6761222960241, 216.66666666666666 275.7279364516728, 220 275.7279364516728 C 223.33333333333334 275.7279364516728, 226.66666666666666 276.38158743510024, 230 276.38158743510024 C 233.33333333333334 276.38158743510024, 236.66666666666666 275.8682961390496, 240 275.3836955913481 C 243.33333333333334 274.8990950436466, 246.66666666666666 273.0842062184259, 250 272.7069707494872 C 253.33333333333334 272.3297352805485, 256.6666666666667 271.9894314643799, 260 271.9894314643799 C 263.3333333333333 271.9894314643799, 266.6666666666667 274.91959597016665, 270 275.4152168895564 C 273.3333333333333 275.91083780894616, 276.6666666666667 275.9020517999854, 280 276.36469497459797 C 283.3333333333333 276.82733814921056, 286.6666666666667 278.9434424355154, 290 278.9434424355154 C 293.3333333333333 278.9434424355154, 296.6666666666667 276.50261068644045, 300 276.50261068644045 C 303.3333333333333 276.50261068644045, 306.6666666666667 277.9103484977277, 310 277.9103484977277 C 313.3333333333333 277.9103484977277, 316.6666666666667 277.8616060656145, 320 277.8616060656145 C 323.3333333333333 277.8616060656145, 326.6666666666667 281.56823840169164, 330 281.56823840169164 C 333.3333333333333 281.56823840169164, 336.6666666666667 281.4106879854179, 340 281.1554814214461 C 343.3333333333333 280.9002748574743, 346.6666666666667 277.62824137841613, 350 275.8792691966938 C 353.3333333333333 274.1302970149715, 356.6666666666667 270.66132480437057, 360 270.66132480437057 C 363.3333333333333 270.66132480437057, 366.6666666666667 275.54553351514147, 370 275.54553351514147 C 373.3333333333333 275.54553351514147, 376.6666666666667 275.4750205320355, 380 275.4750205320355 C 383.3333333333333 275.4750205320355, 386.6666666666667 276.5825195076498, 390 276.65817323180266 C 393.3333333333333 276.7338269559555, 396.6666666666667 276.77720708280316, 400 276.7836928749429 C 403.3333333333333 276.79017866708267, 406.6666666666667 276.79423896183744, 410 276.79423896183744 C 413.3333333333333 276.79423896183744, 416.6666666666667 273.27698655221076, 420 273.27698655221076 C 423.3333333333333 273.27698655221076, 426.6666666666667 275.6127114389883, 430 275.6127114389883 C 433.3333333333333 275.6127114389883, 436.6666666666667 272.70151033373713, 440 272.70151033373713 C 443.3333333333333 272.70151033373713, 446.6666666666667 275.2973202914594, 450 276.6666310510809 C 453.3333333333333 278.0359418107024, 456.6666666666667 280.9280465254299, 460 280.9280465254299 C 463.3333333333333 280.9280465254299, 466.6666666666667 278.1728623764552, 470 278.1728623764552 C 473.3333333333333 278.1728623764552, 476.6666666666667 278.24864171966414, 480 278.24864171966414 C 483.3333333333333 278.24864171966414, 486.6666666666667 276.8852620337908, 490 276.6226358723854 C 493.3333333333333 276.36000971097997, 496.6666666666667 276.10273905150564, 500 276.10273905150564 C 503.3333333333333 276.10273905150564, 506.6666666666667 277.10843705877585, 510 277.10843705877585 C 513.3333333333334 277.10843705877585, 516.6666666666666 276.3849768324977, 520 276.3356815410691 C 523.3333333333334 276.2863862496405, 526.6666666666666 276.306671334486, 530 276.2539145347761 C 533.3333333333334 276.20115773506615, 536.6666666666666 273.7952809688564, 540 273.7952809688564 C 543.3333333333334 273.7952809688564, 546.6666666666666 276.6672162073501, 550 276.6672162073501 C 553.3333333333334 276.6672162073501, 556.6666666666666 275.5523570768883, 560 275.5523570768883 C 563.3333333333334 275.5523570768883, 566.6666666666666 279.1453022567007, 570 279.1453022567007 C 573.3333333333334 279.1453022567007, 576.6666666666666 277.3296928157943, 580 276.07505712924564 C 583.3333333333334 274.82042144269695, 586.6666666666666 271.21256490381046, 590 271.21256490381046 C 593.3333333333334 271.21256490381046, 596.6666666666666 272.1899371294895, 600 272.1899371294895 C 603.3333333333334 272.1899371294895, 606.6666666666666 269.6355924374883, 610 269.6355924374883 C 613.3333333333334 269.6355924374883, 616.6666666666666 271.40493751744464, 620 272.712935266279 C 623.3333333333334 274.0209330151133, 626.6666666666666 278.1262645165956, 630 278.1262645165956 C 633.3333333333334 278.1262645165956, 636.6666666666666 274.004253324913, 640 274.004253324913 C 643.3333333333334 274.004253324913, 646.6666666666666 276.60839875138885, 650 276.60839875138885 C 653.3333333333334 276.60839875138885, 656.6666666666666 273.26582333562914, 660 273.26582333562914 C 663.3333333333334 273.26582333562914, 666.6666666666666 278.9749166002781, 670 278.9749166002781 C 673.3333333333334 278.9749166002781, 676.6666666666666 275.1380026130647, 680 275.1380026130647 C 683.3333333333334 275.1380026130647, 686.6666666666666 276.1019889615851, 690 276.1019889615851 C 693.3333333333334 276.1019889615851, 696.6666666666666 274.9148132901902, 700 274.9148132901902 C 703.3333333333334 274.9148132901902, 706.6666666666666 278.01234725707394, 710 278.01234725707394 C 713.3333333333334 278.01234725707394, 716.6666666666666 276.41161550901484, 720 275.86355633793505 C 723.3333333333334 275.31549716685527, 726.6666666666666 274.5320616702876, 730 274.5320616702876 C 733.3333333333334 274.5320616702876, 736.6666666666666 279.1934989619805, 740 279.1934989619805 C 743.3333333333334 279.1934989619805, 746.6666666666666 278.71689973860236, 750 278.18155178215267 C 753.3333333333334 277.64620382570297, 756.6666666666666 275.74760494565624, 760 274.29204679898135 C 763.3333333333334 272.83648865230646, 766.6666666666666 269.31475137671964, 770 269.31475137671964 C 773.3333333333334 269.31475137671964, 776.6666666666666 270.0447909623451, 780 270.0447909623451 C 783.3333333333334 270.0447909623451, 786.6666666666666 268.3668167764897, 790 268.3668167764897 C 793.3333333333334 268.3668167764897, 796.6666666666666 273.2663637190762, 800 273.66433525498746 C 803.3333333333334 274.06230679089873, 806.6666666666666 273.9509265216782, 810 274.33710436289243 C 813.3333333333334 274.7232822041067, 816.6666666666666 276.2841040117347, 820 278.50505093228617 C 823.3333333333334 280.7259978528376, 826.6666666666666 291.3854607914041, 830 295.10367311202975 C 833.3333333333334 298.8218854326554, 836.6666666666666 301.6738869014197, 840 303.50338740819194 C 843.3333333333334 305.3328879149642, 846.6666666666666 307.57925531815357, 850 307.57925531815357 C 853.3333333333334 307.57925531815357, 856.6666666666666 297.37826944471374, 860 297.37826944471374 C 863.3333333333334 297.37826944471374, 866.6666666666666 301.60902225925923, 870 304.31867533976674 C 873.3333333333334 307.02832842027425, 876.6666666666666 311.6465009942175, 880 314.1273893434668 C 883.3333333333334 316.6082776927161, 886.6666666666666 320.12364348990326, 890 320.12364348990326 C 893.3333333333334 320.12364348990326, 896.6666666666666 317.3605169351937, 900 317.3605169351937 C 903.3333333333334 317.3605169351937, 906.6666666666666 321.9071638096167, 910 321.9071638096167 C 913.3333333333334 321.9071638096167, 916.6666666666666 316.0698882456454, 920 313.1213564836851 C 923.3333333333334 310.17282472172474, 926.6666666666666 304.2151539409896, 930 304.2151539409896 C 933.3333333333334 304.2151539409896, 936.6666666666666 306.9478574987514, 940 306.9478574987514 C 943.3333333333334 306.9478574987514, 946.6666666666666 283.24558928707415, 950 283.24558928707415 C 953.3333333333334 283.24558928707415, 956.6666666666666 317.291091376354, 960 317.291091376354 C 963.3333333333334 317.291091376354, 966.6666666666666 310.4149342452083, 970 310.4149342452083 C 973.3333333333334 310.4149342452083, 976.6666666666666 321.32951357824584, 980 321.32951357824584 C 983.3333333333334 321.32951357824584, 986.6666666666666 316.8151633923156, 990 316.8151633923156 C 993.3333333333334 316.8151633923156, 996.6666666666666 317.5567103140938, 1000 317.5567103140938 C 1003.3333333333334 317.5567103140938, 1006.6666666666666 302.85061020784866, 1010 302.85061020784866 C 1013.3333333333334 302.85061020784866, 1016.6666666666666 303.04002119947444, 1020 303.04002119947444 C 1023.3333333333334 303.04002119947444, 1026.6666666666667 281.8620271825589, 1030 281.8620271825589 C 1033.3333333333333 281.8620271825589, 1036.6666666666667 314.00774170581445, 1040 314.00774170581445 C 1043.3333333333333 314.00774170581445, 1046.6666666666667 304.24062641939577, 1050 304.24062641939577 C 1053.3333333333333 304.24062641939577, 1056.6666666666667 314.5128064120711, 1060 314.8741502245266 C 1063.3333333333333 315.2354940369821, 1066.6666666666667 315.44527765146825, 1070 315.44527765146825 C 1073.3333333333333 315.44527765146825, 1076.6666666666667 314.75957532514053, 1080 313.787026212421 C 1083.3333333333333 312.81447709970143, 1086.6666666666667 301.6568376787212, 1090 301.6568376787212 C 1093.3333333333333 301.6568376787212, 1096.6666666666667 302.43755045598016, 1100 302.43755045598016 C 1103.3333333333333 302.43755045598016, 1106.6666666666667 291.3012636544886, 1110 291.3012636544886 C 1113.3333333333333 291.3012636544886, 1116.6666666666667 297.5229976111286, 1120 300.46015006372 C 1123.3333333333333 303.3973025163114, 1126.6666666666667 305.3507065314817, 1130 308.9495734763316 C 1133.3333333333333 312.54844042118145, 1136.6666666666667 318.0239878054077, 1140 323.77540150707006 C 1143.3333333333333 329.5268152087324, 1146.6666666666667 344.40941370406597, 1150 344.40941370406597 C 1153.3333333333333 344.40941370406597, 1156.6666666666667 342.45125925146516, 1160 339.5924433651511 C 1163.3333333333333 336.73362747883704, 1166.6666666666667 300.5259973002483, 1170 300.5259973002483 C 1173.3333333333333 300.5259973002483, 1176.6666666666667 310.1947841026288, 1180 310.1947841026288 C 1183.3333333333333 310.1947841026288, 1186.6666666666667 266.33898645888866, 1190 266.33898645888866 C 1193.3333333333333 266.33898645888866, 1196.6666666666667 267.53662476793335, 1200 268.11620134627447 C 1203.3333333333333 268.6957779246156, 1206.6666666666667 269.0482715523561, 1210 269.818077373469 C 1213.3333333333333 270.58788319458193, 1216.6666666666667 273.40961349942535, 1220 273.40961349942535 C 1223.3333333333333 273.40961349942535, 1226.6666666666667 271.4479871947418, 1230 271.4479871947418 C 1233.3333333333333 271.4479871947418, 1236.6666666666667 271.67963231976046, 1240 271.67963231976046 C 1243.3333333333333 271.67963231976046, 1246.6666666666667 270.62083403351414, 1250 270.62083403351414 C 1253.3333333333333 270.62083403351414, 1256.6666666666667 271.12084767143665, 1260 271.4220898610979 C 1263.3333333333333 271.72333205075915, 1266.6666666666667 272.45834005340663, 1270 272.45834005340663 C 1273.3333333333333 272.45834005340663, 1276.6666666666667 271.5070468955688, 1280 271.5070468955688 C 1283.3333333333333 271.5070468955688, 1286.6666666666667 274.27020601524987, 1290 274.27020601524987 C 1293.3333333333333 274.27020601524987, 1296.6666666666667 273.98241512955826, 1300 273.72940748416465 C 1303.3333333333333 273.47639983877104, 1306.6666666666667 272.4568984517455, 1310 272.4568984517455 C 1313.3333333333333 272.4568984517455, 1316.6666666666667 273.1835238316811, 1320 273.6260319111411 C 1323.3333333333333 274.06853999060115, 1326.6666666666667 275.16158891821004, 1330 275.16158891821004 C 1333.3333333333333 275.16158891821004, 1336.6666666666667 274.509526905936, 1340 274.3498924488504 C 1343.3333333333333 274.19025799176484, 1346.6666666666667 274.15874731799124, 1350 274.0102439394494 C 1353.3333333333333 273.8617405609076, 1356.6666666666667 273.3630012394649, 1360 273.3630012394649 C 1363.3333333333333 273.3630012394649, 1366.6666666666667 273.6510889230764, 1370 273.6510889230764 C 1373.3333333333333 273.6510889230764, 1376.6666666666667 272.3875454610079, 1380 272.3875454610079 C 1383.3333333333333 272.3875454610079, 1386.6666666666667 276.12498440026013, 1390 276.12498440026013 C 1393.3333333333333 276.12498440026013, 1396.6666666666667 274.41499677149807, 1400 274.41499677149807 C 1403.3333333333333 274.41499677149807, 1406.6666666666667 275.7728668064001, 1410 275.7728668064001 C 1413.3333333333333 275.7728668064001, 1416.6666666666667 271.67780560487256, 1420 271.67780560487256 C 1423.3333333333333 271.67780560487256, 1426.6666666666667 272.6334552710242, 1430 272.6334552710242 C 1433.3333333333333 272.6334552710242, 1436.6666666666667 268.98638312787267, 1440 268.98638312787267 C 1443.3333333333333 268.98638312787267, 1446.6666666666667 270.2763015390338, 1450 271.13636730106396 C 1453.3333333333333 271.9964330630941, 1456.6666666666667 273.82555759728547, 1460 274.36201951541346 C 1463.3333333333333 274.89848143354146, 1466.6666666666667 275.4341810017081, 1470 275.4341810017081 C 1473.3333333333333 275.4341810017081, 1476.6666666666667 272.914324213864, 1480 272.914324213864 C 1483.3333333333333 272.914324213864, 1486.6666666666667 272.9839886863299, 1490 273.11921664279896 C 1493.3333333333333 273.254444599268, 1496.6666666666667 288.774864765426, 1500 293.38787970756334 C 1503.3333333333333 298.0008946497007, 1506.6666666666667 303.894134156683, 1510 303.894134156683 C 1513.3333333333333 303.894134156683, 1516.6666666666667 280.6996726739811, 1520 277.6216074721932 C 1523.3333333333333 274.5435422704053, 1526.6666666666667 274.2080135329692, 1530 272.0201102269569 C 1533.3333333333333 269.8322069209446, 1536.6666666666667 264.0950514274038, 1540 264.0950514274038 C 1543.3333333333333 264.0950514274038, 1546.6666666666667 269.98426118453176, 1550 269.98426118453176 C 1553.3333333333333 269.98426118453176, 1556.6666666666667 269.76131940344123, 1560 269.76131940344123 C 1563.3333333333333 269.76131940344123, 1566.6666666666667 271.2536871598241, 1570 271.2536871598241 C 1573.3333333333333 271.2536871598241, 1576.6666666666667 268.73855204358796, 1580 268.73855204358796 C 1583.3333333333333 268.73855204358796, 1586.6666666666667 269.90507521383586, 1590 269.90507521383586 C 1593.3333333333333 269.90507521383586, 1596.6666666666667 267.89297881727487, 1600 267.89297881727487 C 1603.3333333333333 267.89297881727487, 1606.6666666666667 271.1821628390986, 1610 271.1821628390986 C 1613.3333333333333 271.1821628390986, 1616.6666666666667 268.24239340346963, 1620 268.24239340346963 C 1623.3333333333333 268.24239340346963, 1626.6666666666667 271.43994947009844, 1630 272.1353943608997 C 1633.3333333333333 272.8308392517009, 1636.6666666666667 273.560407880406, 1640 273.560407880406 C 1643.3333333333333 273.560407880406, 1646.6666666666667 268.92633958057166, 1650 268.89868748694636 C 1653.3333333333333 268.87103539332105, 1656.6666666666667 268.85683697726023, 1660 268.85683697726023 C 1663.3333333333333 268.85683697726023, 1666.6666666666667 301.17409034283463, 1670 302.89359458768115 C 1673.3333333333333 304.61309883252767, 1676.6666666666667 305.68432876295225, 1680 305.68432876295225 C 1683.3333333333333 305.68432876295225, 1686.6666666666667 288.93971522148564, 1690 288.93971522148564 C 1693.3333333333333 288.93971522148564, 1696.6666666666667 295.2856227890672, 1700 297.8664585545406 C 1703.3333333333333 300.447294320014, 1706.6666666666667 303.08213186454134, 1710 304.7021341960755 C 1713.3333333333333 306.3221365276097, 1716.6666666666667 308.47243647267317, 1720 308.47243647267317 C 1723.3333333333333 308.47243647267317, 1726.6666666666667 303.9599988957429, 1730 303.9599988957429 C 1733.3333333333333 303.9599988957429, 1736.6666666666667 307.49332246332466, 1740 307.49332246332466 C 1743.3333333333333 307.49332246332466, 1746.6666666666667 303.3223590058502, 1750 303.3223590058502 C 1753.3333333333333 303.3223590058502, 1756.6666666666667 310.26133325219564, 1760 310.26133325219564 C 1763.3333333333333 310.26133325219564, 1766.6666666666667 304.2280023518095, 1770 304.2280023518095 C 1773.3333333333333 304.2280023518095, 1776.6666666666667 311.85505613600463, 1780 311.85505613600463 C 1783.3333333333333 311.85505613600463, 1786.6666666666667 307.52401904603687, 1790 307.52401904603687 C 1793.3333333333333 307.52401904603687, 1796.6666666666667 311.8645063095807, 1800 311.8645063095807 C 1803.3333333333333 311.8645063095807, 1806.6666666666667 311.7471281890893, 1810 311.5422382085012 C 1813.3333333333333 311.3373482279131, 1816.6666666666667 304.9097200322918, 1820 304.9097200322918 C 1823.3333333333333 304.9097200322918, 1826.6666666666667 310.33443368499314, 1830 313.0596321542896 C 1833.3333333333333 315.78483062358606, 1836.6666666666667 321.26107323423344, 1840 321.26107323423344 C 1843.3333333333333 321.26107323423344, 1846.6666666666667 317.2363979681616, 1850 317.2363979681616 C 1853.3333333333333 317.2363979681616, 1856.6666666666667 319.4369886042743, 1860 319.4369886042743 C 1863.3333333333333 319.4369886042743, 1866.6666666666667 317.50376412057193, 1870 317.33957248786794 C 1873.3333333333333 317.17538085516395, 1876.6666666666667 317.06051718823926, 1880 317.06051718823926 C 1883.3333333333333 317.06051718823926, 1886.6666666666667 321.67177876128295, 1890 321.67177876128295 C 1893.3333333333333 321.67177876128295, 1896.6666666666667 319.1700390338096, 1900 317.17729842209405 C 1903.3333333333333 315.1845578103785, 1906.6666666666667 310.29088195709295, 1910 308.25291078821357 C 1913.3333333333333 306.2149396193342, 1916.6666666666667 305.3065287251145, 1920 303.6032664034777 C 1923.3333333333333 301.90000408184085, 1926.6666666666667 300.5635067239098, 1930 297.93225983111506 C 1933.3333333333333 295.3010129383203, 1936.6666666666667 284.95026501933467, 1940 284.95026501933467 C 1943.3333333333333 284.95026501933467, 1946.6666666666667 289.43950792694375, 1950 290.69206193475804 C 1953.3333333333333 291.94461594257234, 1956.6666666666667 293.484700124333, 1960 293.484700124333 C 1963.3333333333333 293.484700124333, 1966.6666666666667 285.08456589408365, 1970 285.08456589408365 C 1973.3333333333333 285.08456589408365, 1976.6666666666667 289.67942568545794, 1980 289.67942568545794 C 1983.3333333333333 289.67942568545794, 1986.6666666666667 288.9181053292286, 1990 288.9181053292286 C 1993.3333333333333 288.9181053292286, 1996.6666666666667 290.48913840636885, 2000 293.2874699300587 C 2003.3333333333333 296.08580145374856, 2006.6666666666667 347.37196239850107, 2010 400 c 0 0, 0 0, 0 0C 2006.6666666666667 452.62803760149893, 2003.3333333333333 503.91419854625144, 2000 506.7125300699413 C 1996.6666666666667 509.51086159363115, 1993.3333333333333 511.0818946707714, 1990 511.0818946707714 C 1986.6666666666667 511.0818946707714, 1983.3333333333333 510.32057431454206, 1980 510.32057431454206 C 1976.6666666666667 510.32057431454206, 1973.3333333333333 514.9154341059163, 1970 514.9154341059163 C 1966.6666666666667 514.9154341059163, 1963.3333333333333 506.515299875667, 1960 506.515299875667 C 1956.6666666666667 506.515299875667, 1953.3333333333333 508.05538405742766, 1950 509.30793806524196 C 1946.6666666666667 510.56049207305625, 1943.3333333333333 515.0497349806653, 1940 515.0497349806653 C 1936.6666666666667 515.0497349806653, 1933.3333333333333 504.6989870616797, 1930 502.06774016888494 C 1926.6666666666667 499.4364932760902, 1923.3333333333333 498.09999591815915, 1920 496.3967335965223 C 1916.6666666666667 494.6934712748855, 1913.3333333333333 493.7850603806658, 1910 491.74708921178643 C 1906.6666666666667 489.70911804290705, 1903.3333333333333 484.8154421896215, 1900 482.82270157790595 C 1896.6666666666667 480.8299609661904, 1893.3333333333333 478.32822123871705, 1890 478.32822123871705 C 1886.6666666666667 478.32822123871705, 1883.3333333333333 482.93948281176074, 1880 482.93948281176074 C 1876.6666666666667 482.93948281176074, 1873.3333333333333 482.82461914483605, 1870 482.66042751213206 C 1866.6666666666667 482.49623587942807, 1863.3333333333333 480.5630113957257, 1860 480.5630113957257 C 1856.6666666666667 480.5630113957257, 1853.3333333333333 482.7636020318384, 1850 482.7636020318384 C 1846.6666666666667 482.7636020318384, 1843.3333333333333 478.73892676576656, 1840 478.73892676576656 C 1836.6666666666667 478.73892676576656, 1833.3333333333333 484.21516937641394, 1830 486.9403678457104 C 1826.6666666666667 489.66556631500686, 1823.3333333333333 495.0902799677082, 1820 495.0902799677082 C 1816.6666666666667 495.0902799677082, 1813.3333333333333 488.6626517720869, 1810 488.4577617914988 C 1806.6666666666667 488.2528718109107, 1803.3333333333333 488.1354936904193, 1800 488.1354936904193 C 1796.6666666666667 488.1354936904193, 1793.3333333333333 492.47598095396313, 1790 492.47598095396313 C 1786.6666666666667 492.47598095396313, 1783.3333333333333 488.14494386399537, 1780 488.14494386399537 C 1776.6666666666667 488.14494386399537, 1773.3333333333333 495.7719976481905, 1770 495.7719976481905 C 1766.6666666666667 495.7719976481905, 1763.3333333333333 489.73866674780436, 1760 489.73866674780436 C 1756.6666666666667 489.73866674780436, 1753.3333333333333 496.6776409941498, 1750 496.6776409941498 C 1746.6666666666667 496.6776409941498, 1743.3333333333333 492.50667753667534, 1740 492.50667753667534 C 1736.6666666666667 492.50667753667534, 1733.3333333333333 496.0400011042571, 1730 496.0400011042571 C 1726.6666666666667 496.0400011042571, 1723.3333333333333 491.52756352732683, 1720 491.52756352732683 C 1716.6666666666667 491.52756352732683, 1713.3333333333333 493.6778634723903, 1710 495.2978658039245 C 1706.6666666666667 496.91786813545866, 1703.3333333333333 499.552705679986, 1700 502.1335414454594 C 1696.6666666666667 504.7143772109328, 1693.3333333333333 511.06028477851436, 1690 511.06028477851436 C 1686.6666666666667 511.06028477851436, 1683.3333333333333 494.31567123704775, 1680 494.31567123704775 C 1676.6666666666667 494.31567123704775, 1673.3333333333333 495.38690116747233, 1670 497.10640541231885 C 1666.6666666666667 498.82590965716537, 1663.3333333333333 531.1431630227398, 1660 531.1431630227398 C 1656.6666666666667 531.1431630227398, 1653.3333333333333 531.1289646066789, 1650 531.1013125130537 C 1646.6666666666667 531.0736604194283, 1643.3333333333333 526.439592119594, 1640 526.439592119594 C 1636.6666666666667 526.439592119594, 1633.3333333333333 527.1691607482991, 1630 527.8646056391003 C 1626.6666666666667 528.5600505299016, 1623.3333333333333 531.7576065965304, 1620 531.7576065965304 C 1616.6666666666667 531.7576065965304, 1613.3333333333333 528.8178371609014, 1610 528.8178371609014 C 1606.6666666666667 528.8178371609014, 1603.3333333333333 532.1070211827251, 1600 532.1070211827251 C 1596.6666666666667 532.1070211827251, 1593.3333333333333 530.0949247861641, 1590 530.0949247861641 C 1586.6666666666667 530.0949247861641, 1583.3333333333333 531.261447956412, 1580 531.261447956412 C 1576.6666666666667 531.261447956412, 1573.3333333333333 528.746312840176, 1570 528.746312840176 C 1566.6666666666667 528.746312840176, 1563.3333333333333 530.2386805965588, 1560 530.2386805965588 C 1556.6666666666667 530.2386805965588, 1553.3333333333333 530.0157388154682, 1550 530.0157388154682 C 1546.6666666666667 530.0157388154682, 1543.3333333333333 535.9049485725961, 1540 535.9049485725961 C 1536.6666666666667 535.9049485725961, 1533.3333333333333 530.1677930790554, 1530 527.9798897730432 C 1526.6666666666667 525.7919864670308, 1523.3333333333333 525.4564577295947, 1520 522.3783925278068 C 1516.6666666666667 519.3003273260189, 1513.3333333333333 496.105865843317, 1510 496.105865843317 C 1506.6666666666667 496.105865843317, 1503.3333333333333 501.9991053502993, 1500 506.61212029243666 C 1496.6666666666667 511.225135234574, 1493.3333333333333 526.745555400732, 1490 526.880783357201 C 1486.6666666666667 527.0160113136701, 1483.3333333333333 527.085675786136, 1480 527.085675786136 C 1476.6666666666667 527.085675786136, 1473.3333333333333 524.5658189982919, 1470 524.5658189982919 C 1466.6666666666667 524.5658189982919, 1463.3333333333333 525.1015185664585, 1460 525.6379804845865 C 1456.6666666666667 526.1744424027145, 1453.3333333333333 528.0035669369058, 1450 528.863632698936 C 1446.6666666666667 529.7236984609663, 1443.3333333333333 531.0136168721274, 1440 531.0136168721274 C 1436.6666666666667 531.0136168721274, 1433.3333333333333 527.3665447289758, 1430 527.3665447289758 C 1426.6666666666667 527.3665447289758, 1423.3333333333333 528.3221943951274, 1420 528.3221943951274 C 1416.6666666666667 528.3221943951274, 1413.3333333333333 524.2271331935999, 1410 524.2271331935999 C 1406.6666666666667 524.2271331935999, 1403.3333333333333 525.5850032285019, 1400 525.5850032285019 C 1396.6666666666667 525.5850032285019, 1393.3333333333333 523.8750155997399, 1390 523.8750155997399 C 1386.6666666666667 523.8750155997399, 1383.3333333333333 527.6124545389921, 1380 527.6124545389921 C 1376.6666666666667 527.6124545389921, 1373.3333333333333 526.3489110769236, 1370 526.3489110769236 C 1366.6666666666667 526.3489110769236, 1363.3333333333333 526.6369987605351, 1360 526.6369987605351 C 1356.6666666666667 526.6369987605351, 1353.3333333333333 526.1382594390924, 1350 525.9897560605506 C 1346.6666666666667 525.8412526820088, 1343.3333333333333 525.8097420082352, 1340 525.6501075511496 C 1336.6666666666667 525.490473094064, 1333.3333333333333 524.8384110817899, 1330 524.8384110817899 C 1326.6666666666667 524.8384110817899, 1323.3333333333333 525.9314600093988, 1320 526.3739680888589 C 1316.6666666666667 526.8164761683189, 1313.3333333333333 527.5431015482545, 1310 527.5431015482545 C 1306.6666666666667 527.5431015482545, 1303.3333333333333 526.523600161229, 1300 526.2705925158353 C 1296.6666666666667 526.0175848704417, 1293.3333333333333 525.7297939847501, 1290 525.7297939847501 C 1286.6666666666667 525.7297939847501, 1283.3333333333333 528.4929531044312, 1280 528.4929531044312 C 1276.6666666666667 528.4929531044312, 1273.3333333333333 527.5416599465934, 1270 527.5416599465934 C 1266.6666666666667 527.5416599465934, 1263.3333333333333 528.2766679492408, 1260 528.5779101389021 C 1256.6666666666667 528.8791523285634, 1253.3333333333333 529.3791659664859, 1250 529.3791659664859 C 1246.6666666666667 529.3791659664859, 1243.3333333333333 528.3203676802395, 1240 528.3203676802395 C 1236.6666666666667 528.3203676802395, 1233.3333333333333 528.5520128052582, 1230 528.5520128052582 C 1226.6666666666667 528.5520128052582, 1223.3333333333333 526.5903865005746, 1220 526.5903865005746 C 1216.6666666666667 526.5903865005746, 1213.3333333333333 529.412116805418, 1210 530.181922626531 C 1206.6666666666667 530.951728447644, 1203.3333333333333 531.3042220753844, 1200 531.8837986537255 C 1196.6666666666667 532.4633752320667, 1193.3333333333333 533.6610135411113, 1190 533.6610135411113 C 1186.6666666666667 533.6610135411113, 1183.3333333333333 489.8052158973712, 1180 489.8052158973712 C 1176.6666666666667 489.8052158973712, 1173.3333333333333 499.4740026997517, 1170 499.4740026997517 C 1166.6666666666667 499.4740026997517, 1163.3333333333333 463.26637252116296, 1160 460.4075566348489 C 1156.6666666666667 457.54874074853484, 1153.3333333333333 455.59058629593403, 1150 455.59058629593403 C 1146.6666666666667 455.59058629593403, 1143.3333333333333 470.4731847912676, 1140 476.22459849292994 C 1136.6666666666667 481.9760121945923, 1133.3333333333333 487.45155957881855, 1130 491.0504265236684 C 1126.6666666666667 494.6492934685183, 1123.3333333333333 496.6026974836886, 1120 499.53984993628 C 1116.6666666666667 502.4770023888714, 1113.3333333333333 508.6987363455114, 1110 508.6987363455114 C 1106.6666666666667 508.6987363455114, 1103.3333333333333 497.56244954401984, 1100 497.56244954401984 C 1096.6666666666667 497.56244954401984, 1093.3333333333333 498.3431623212788, 1090 498.3431623212788 C 1086.6666666666667 498.3431623212788, 1083.3333333333333 487.18552290029857, 1080 486.212973787579 C 1076.6666666666667 485.24042467485947, 1073.3333333333333 484.55472234853175, 1070 484.55472234853175 C 1066.6666666666667 484.55472234853175, 1063.3333333333333 484.7645059630179, 1060 485.1258497754734 C 1056.6666666666667 485.4871935879289, 1053.3333333333333 495.75937358060423, 1050 495.75937358060423 C 1046.6666666666667 495.75937358060423, 1043.3333333333333 485.99225829418555, 1040 485.99225829418555 C 1036.6666666666667 485.99225829418555, 1033.3333333333333 518.1379728174411, 1030 518.1379728174411 C 1026.6666666666667 518.1379728174411, 1023.3333333333334 496.95997880052556, 1020 496.95997880052556 C 1016.6666666666666 496.95997880052556, 1013.3333333333334 497.14938979215134, 1010 497.14938979215134 C 1006.6666666666666 497.14938979215134, 1003.3333333333334 482.4432896859062, 1000 482.4432896859062 C 996.6666666666666 482.4432896859062, 993.3333333333334 483.1848366076844, 990 483.1848366076844 C 986.6666666666666 483.1848366076844, 983.3333333333334 478.67048642175416, 980 478.67048642175416 C 976.6666666666666 478.67048642175416, 973.3333333333334 489.5850657547917, 970 489.5850657547917 C 966.6666666666666 489.5850657547917, 963.3333333333334 482.708908623646, 960 482.708908623646 C 956.6666666666666 482.708908623646, 953.3333333333334 516.7544107129258, 950 516.7544107129258 C 946.6666666666666 516.7544107129258, 943.3333333333334 493.0521425012486, 940 493.0521425012486 C 936.6666666666666 493.0521425012486, 933.3333333333334 495.7848460590104, 930 495.7848460590104 C 926.6666666666666 495.7848460590104, 923.3333333333334 489.82717527827526, 920 486.8786435163149 C 916.6666666666666 483.9301117543546, 913.3333333333334 478.0928361903833, 910 478.0928361903833 C 906.6666666666666 478.0928361903833, 903.3333333333334 482.6394830648063, 900 482.6394830648063 C 896.6666666666666 482.6394830648063, 893.3333333333334 479.87635651009674, 890 479.87635651009674 C 886.6666666666666 479.87635651009674, 883.3333333333334 483.3917223072839, 880 485.8726106565332 C 876.6666666666666 488.3534990057825, 873.3333333333334 492.97167157972575, 870 495.68132466023326 C 866.6666666666666 498.39097774074077, 863.3333333333334 502.62173055528626, 860 502.62173055528626 C 856.6666666666666 502.62173055528626, 853.3333333333334 492.42074468184643, 850 492.42074468184643 C 846.6666666666666 492.42074468184643, 843.3333333333334 494.6671120850358, 840 496.49661259180806 C 836.6666666666666 498.3261130985803, 833.3333333333334 501.1781145673446, 830 504.89632688797025 C 826.6666666666666 508.6145392085959, 823.3333333333334 519.2740021471624, 820 521.4949490677138 C 816.6666666666666 523.7158959882653, 813.3333333333334 525.2767177958933, 810 525.6628956371076 C 806.6666666666666 526.0490734783218, 803.3333333333334 525.9376932091013, 800 526.3356647450125 C 796.6666666666666 526.7336362809237, 793.3333333333334 531.6331832235103, 790 531.6331832235103 C 786.6666666666666 531.6331832235103, 783.3333333333334 529.9552090376549, 780 529.9552090376549 C 776.6666666666666 529.9552090376549, 773.3333333333334 530.6852486232804, 770 530.6852486232804 C 766.6666666666666 530.6852486232804, 763.3333333333334 527.1635113476935, 760 525.7079532010187 C 756.6666666666666 524.2523950543438, 753.3333333333334 522.353796174297, 750 521.8184482178474 C 746.6666666666666 521.2831002613976, 743.3333333333334 520.8065010380195, 740 520.8065010380195 C 736.6666666666666 520.8065010380195, 733.3333333333334 525.4679383297124, 730 525.4679383297124 C 726.6666666666666 525.4679383297124, 723.3333333333334 524.6845028331447, 720 524.136443662065 C 716.6666666666666 523.5883844909852, 713.3333333333334 521.987652742926, 710 521.987652742926 C 706.6666666666666 521.987652742926, 703.3333333333334 525.0851867098098, 700 525.0851867098098 C 696.6666666666666 525.0851867098098, 693.3333333333334 523.8980110384149, 690 523.8980110384149 C 686.6666666666666 523.8980110384149, 683.3333333333334 524.8619973869353, 680 524.8619973869353 C 676.6666666666666 524.8619973869353, 673.3333333333334 521.0250833997219, 670 521.0250833997219 C 666.6666666666666 521.0250833997219, 663.3333333333334 526.7341766643708, 660 526.7341766643708 C 656.6666666666666 526.7341766643708, 653.3333333333334 523.3916012486111, 650 523.3916012486111 C 646.6666666666666 523.3916012486111, 643.3333333333334 525.995746675087, 640 525.995746675087 C 636.6666666666666 525.995746675087, 633.3333333333334 521.8737354834044, 630 521.8737354834044 C 626.6666666666666 521.8737354834044, 623.3333333333334 525.9790669848867, 620 527.2870647337211 C 616.6666666666666 528.5950624825554, 613.3333333333334 530.3644075625117, 610 530.3644075625117 C 606.6666666666666 530.3644075625117, 603.3333333333334 527.8100628705105, 600 527.8100628705105 C 596.6666666666666 527.8100628705105, 593.3333333333334 528.7874350961895, 590 528.7874350961895 C 586.6666666666666 528.7874350961895, 583.3333333333334 525.1795785573031, 580 523.9249428707544 C 576.6666666666666 522.6703071842057, 573.3333333333334 520.8546977432993, 570 520.8546977432993 C 566.6666666666666 520.8546977432993, 563.3333333333334 524.4476429231117, 560 524.4476429231117 C 556.6666666666666 524.4476429231117, 553.3333333333334 523.3327837926499, 550 523.3327837926499 C 546.6666666666666 523.3327837926499, 543.3333333333334 526.2047190311437, 540 526.2047190311437 C 536.6666666666666 526.2047190311437, 533.3333333333334 523.7988422649339, 530 523.7460854652239 C 526.6666666666666 523.693328665514, 523.3333333333334 523.7136137503595, 520 523.6643184589309 C 516.6666666666666 523.6150231675023, 513.3333333333334 522.8915629412242, 510 522.8915629412242 C 506.6666666666667 522.8915629412242, 503.3333333333333 523.8972609484944, 500 523.8972609484944 C 496.6666666666667 523.8972609484944, 493.3333333333333 523.63999028902, 490 523.3773641276146 C 486.6666666666667 523.1147379662092, 483.3333333333333 521.7513582803358, 480 521.7513582803358 C 476.6666666666667 521.7513582803358, 473.3333333333333 521.8271376235448, 470 521.8271376235448 C 466.6666666666667 521.8271376235448, 463.3333333333333 519.0719534745701, 460 519.0719534745701 C 456.6666666666667 519.0719534745701, 453.3333333333333 521.9640581892976, 450 523.3333689489191 C 446.6666666666667 524.7026797085406, 443.3333333333333 527.2984896662629, 440 527.2984896662629 C 436.6666666666667 527.2984896662629, 433.3333333333333 524.3872885610117, 430 524.3872885610117 C 426.6666666666667 524.3872885610117, 423.3333333333333 526.7230134477893, 420 526.7230134477893 C 416.6666666666667 526.7230134477893, 413.3333333333333 523.2057610381626, 410 523.2057610381626 C 406.6666666666667 523.2057610381626, 403.3333333333333 523.2098213329173, 400 523.216307125057 C 396.6666666666667 523.2227929171968, 393.3333333333333 523.2661730440445, 390 523.3418267681973 C 386.6666666666667 523.4174804923503, 383.3333333333333 524.5249794679645, 380 524.5249794679645 C 376.6666666666667 524.5249794679645, 373.3333333333333 524.4544664848586, 370 524.4544664848586 C 366.6666666666667 524.4544664848586, 363.3333333333333 529.3386751956294, 360 529.3386751956294 C 356.6666666666667 529.3386751956294, 353.3333333333333 525.8697029850284, 350 524.1207308033062 C 346.6666666666667 522.3717586215839, 343.3333333333333 519.0997251425257, 340 518.8445185785539 C 336.6666666666667 518.5893120145821, 333.3333333333333 518.4317615983084, 330 518.4317615983084 C 326.6666666666667 518.4317615983084, 323.3333333333333 522.1383939343855, 320 522.1383939343855 C 316.6666666666667 522.1383939343855, 313.3333333333333 522.0896515022723, 310 522.0896515022723 C 306.6666666666667 522.0896515022723, 303.3333333333333 523.4973893135596, 300 523.4973893135596 C 296.6666666666667 523.4973893135596, 293.3333333333333 521.0565575644846, 290 521.0565575644846 C 286.6666666666667 521.0565575644846, 283.3333333333333 523.1726618507894, 280 523.635305025402 C 276.6666666666667 524.0979482000146, 273.3333333333333 524.0891621910539, 270 524.5847831104436 C 266.6666666666667 525.0804040298333, 263.3333333333333 528.0105685356201, 260 528.0105685356201 C 256.6666666666667 528.0105685356201, 253.33333333333334 527.6702647194516, 250 527.2930292505127 C 246.66666666666666 526.9157937815742, 243.33333333333334 525.1009049563534, 240 524.6163044086519 C 236.66666666666666 524.1317038609504, 233.33333333333334 523.6184125648997, 230 523.6184125648997 C 226.66666666666666 523.6184125648997, 223.33333333333334 524.2720635483272, 220 524.2720635483272 C 216.66666666666666 524.2720635483272, 213.33333333333334 523.3238777039759, 210 523.3238777039759 C 206.66666666666666 523.3238777039759, 203.33333333333334 524.0749113662198, 200 524.0749113662198 C 196.66666666666666 524.0749113662198, 193.33333333333334 523.8736770511566, 190 523.8736770511566 C 186.66666666666666 523.8736770511566, 183.33333333333334 529.693137399645, 180 529.693137399645 C 176.66666666666666 529.693137399645, 173.33333333333334 527.2689611396642, 170 524.0871176958751 C 166.66666666666666 520.9052742520862, 163.33333333333334 503.1999338169533, 160 491.97662283828157 C 156.66666666666666 480.7533118596098, 153.33333333333334 456.5880529366829, 150 456.5880529366829 C 146.66666666666666 456.5880529366829, 143.33333333333334 459.4762536541247, 140 460.33344495261866 C 136.66666666666666 461.1906362511126, 133.33333333333334 461.23638879303803, 130 462.29139187285233 C 126.66666666666667 463.3463949526666, 123.33333333333333 469.09777510091106, 120 470.5442180520341 C 116.66666666666667 471.9906610031572, 113.33333333333333 473.48773067081845, 110 473.48773067081845 C 106.66666666666667 473.48773067081845, 103.33333333333333 468.1614265126751, 100 468.1614265126751 C 96.66666666666667 468.1614265126751, 93.33333333333333 468.4776371052275, 90 468.4776371052275 C 86.66666666666667 468.4776371052275, 83.33333333333333 463.7303020815315, 80 463.7303020815315 C 76.66666666666667 463.7303020815315, 73.33333333333333 465.8798875940765, 70 465.8798875940765 C 66.66666666666667 465.8798875940765, 63.333333333333336 465.85015733373723, 60 465.85015733373723 C 56.666666666666664 465.85015733373723, 53.333333333333336 476.61059423625454, 50 476.61059423625454 C 46.666666666666664 476.61059423625454, 43.333333333333336 470.4188008691694, 40 470.4188008691694 C 36.666666666666664 470.4188008691694, 33.333333333333336 491.86334390497404, 30 491.86334390497404 C 26.666666666666668 491.86334390497404, 23.333333333333332 464.5157943910657, 20 464.5157943910657 C 16.666666666666668 464.5157943910657, 13.333333333333334 490.5422267534811, 10 490.5422267534811 C 3.3333333333333335 449.6088521038098, 6.666666666666666 490.5422267534811, 10 490.5422267534811 Z" fill="white" stroke="transparent" stroke-width="0" />
  </g>
</svg>