<svg 
  baseProfile="tiny"
  preserveAspectRatio="keep"
  version="1.2"
  viewBox="-0.000000 -0.000000 2010.000000 800.000000"
  height="100%" width="100%"
  xmlns="http://www.w3.org/2000/svg"
  xmlns:ev="http://www.w3.org/2001/xml-events"
  xmlns:xlink="http://www.w3.org/1999/xlink"
>
  <g style="transform-origin: center center;">
    <path d="M 0 400 C 3.3333333333333335 345.86258907742774, 6.666666666666666 294.32997716093354, 10 294.32997716093354 C 13.333333333333334 294.32997716093354, 16.666666666666668 299.35574700689597, 20 302.1443741791678 C 23.333333333333332 304.93300135143966, 26.666666666666668 311.1454903846853, 30 311.1454903846853 C 33.333333333333336 311.1454903846853, 36.666666666666664 301.9827527617406, 40 301.5977678895615 C 43.333333333333336 301.21278301738243, 46.666666666666664 300.98311433531313, 50 300.98311433531313 C 53.333333333333336 300.98311433531313, 56.666666666666664 309.34611602408916, 60 309.34611602408916 C 63.333333333333336 309.34611602408916, 66.66666666666667 307.31766852033763, 70 306.4603069142681 C 73.33333333333333 305.6029453081985, 76.66666666666667 305.34965169696716, 80 304.1404230848656 C 83.33333333333333 302.931194472764, 86.66666666666667 295.8250778996267, 90 295.8250778996267 C 93.33333333333333 295.8250778996267, 96.66666666666667 298.0878573163421, 100 298.0878573163421 C 103.33333333333333 298.0878573163421, 106.66666666666667 297.9534040138672, 110 297.7624374107853 C 113.33333333333333 297.5714708077034, 116.66666666666667 295.3704307729821, 120 295.3704307729821 C 123.33333333333333 295.3704307729821, 126.66666666666667 298.8312602079569, 130 298.8312602079569 C 133.33333333333334 298.8312602079569, 136.66666666666666 294.7436262766893, 140 292.294968079791 C 143.33333333333334 289.8463098828926, 146.66666666666666 283.91034983367757, 150 283.91034983367757 C 153.33333333333334 283.91034983367757, 156.66666666666666 296.2903303913322, 160 296.2903303913322 C 163.33333333333334 296.2903303913322, 166.66666666666666 293.8544856425883, 170 293.8544856425883 C 173.33333333333334 293.8544856425883, 176.66666666666666 294.245541466191, 180 294.7360998900185 C 183.33333333333334 295.22665831384603, 186.66666666666666 299.18623037356247, 190 299.18623037356247 C 193.33333333333334 299.18623037356247, 196.66666666666666 298.53954317314225, 200 298.125890044617 C 203.33333333333334 297.71223691609174, 206.66666666666666 297.20600076237923, 210 296.6301443754843 C 213.33333333333334 296.05428798858935, 216.66666666666666 295.10072320620463, 220 294.5857114696801 C 223.33333333333334 294.0706997331556, 226.66666666666666 293.8738419758787, 230 293.3439932434147 C 233.33333333333334 292.81414451095065, 236.66666666666666 291.1359274619101, 240 291.1359274619101 C 243.33333333333334 291.1359274619101, 246.66666666666666 292.6291028783681, 250 293.707846136499 C 253.33333333333334 294.78658939462986, 256.6666666666667 298.0710704715451, 260 298.0710704715451 C 263.3333333333333 298.0710704715451, 266.6666666666667 289.4768171804854, 270 289.4768171804854 C 273.3333333333333 289.4768171804854, 276.6666666666667 291.79318545227017, 280 293.5366281750456 C 283.3333333333333 295.2800708978211, 286.6666666666667 300.8858785870696, 290 300.8858785870696 C 293.3333333333333 300.8858785870696, 296.6666666666667 293.11909096480036, 300 293.11909096480036 C 303.3333333333333 293.11909096480036, 306.6666666666667 293.8496244774804, 310 293.8496244774804 C 313.3333333333333 293.8496244774804, 316.6666666666667 290.2687222687239, 320 290.2687222687239 C 323.3333333333333 290.2687222687239, 326.6666666666667 292.32149972906717, 330 293.08134544471375 C 333.3333333333333 293.8411911603603, 336.6666666666667 294.9976742757892, 340 294.9976742757892 C 343.3333333333333 294.9976742757892, 346.6666666666667 293.99093233821617, 350 293.2115198332615 C 353.3333333333333 292.4321073283068, 356.6666666666667 289.82723151271506, 360 289.82723151271506 C 363.3333333333333 289.82723151271506, 366.6666666666667 293.80136186155266, 370 293.80136186155266 C 373.3333333333333 293.80136186155266, 376.6666666666667 287.5599715010542, 380 287.5599715010542 C 383.3333333333333 287.5599715010542, 386.6666666666667 296.8875648339741, 390 296.8875648339741 C 393.3333333333333 296.8875648339741, 396.6666666666667 271.900288019752, 400 271.900288019752 C 403.3333333333333 271.900288019752, 406.6666666666667 274.4230240356229, 410 274.4230240356229 C 413.3333333333333 274.4230240356229, 416.6666666666667 269.8717986701942, 420 269.8717986701942 C 423.3333333333333 269.8717986701942, 426.6666666666667 274.6567658884793, 430 277.0423579895204 C 433.3333333333333 279.42795009056147, 436.6666666666667 283.15397796420785, 440 284.1854041613191 C 443.3333333333333 285.2168303584304, 446.6666666666667 285.39896966287046, 450 286.1602918189908 C 453.3333333333333 286.92161397511114, 456.6666666666667 288.86803178391744, 460 288.86803178391744 C 463.3333333333333 288.86803178391744, 466.6666666666667 277.3951160867282, 470 277.3951160867282 C 473.3333333333333 277.3951160867282, 476.6666666666667 287.443364013492, 480 287.443364013492 C 483.3333333333333 287.443364013492, 486.6666666666667 279.4711358158944, 490 279.4711358158944 C 493.3333333333333 279.4711358158944, 496.6666666666667 280.43656565333146, 500 280.43656565333146 C 503.3333333333333 280.43656565333146, 506.6666666666667 279.78684580854815, 510 279.78684580854815 C 513.3333333333334 279.78684580854815, 516.6666666666666 282.13983460496496, 520 283.74043563959196 C 523.3333333333334 285.34103667421897, 526.6666666666666 289.3745521118511, 530 289.8538198190432 C 533.3333333333334 290.3330875262354, 536.6666666666666 290.5262906897695, 540 290.66852657388574 C 543.3333333333334 290.810762458002, 546.6666666666666 290.9575761404036, 550 290.9575761404036 C 553.3333333333334 290.9575761404036, 556.6666666666666 290.31518990476343, 560 289.34062314829293 C 563.3333333333334 288.36605639182244, 566.6666666666666 274.1007817367404, 570 274.1007817367404 C 573.3333333333334 274.1007817367404, 576.6666666666666 278.0175765106868, 580 278.0175765106868 C 583.3333333333334 278.0175765106868, 586.6666666666666 275.84373590968994, 590 274.66930491833426 C 593.3333333333334 273.4948739269786, 596.6666666666666 270.9516838693996, 600 270.9516838693996 C 603.3333333333334 270.9516838693996, 606.6666666666666 277.4569663204593, 610 279.02756541823095 C 613.3333333333334 280.5981645160026, 616.6666666666666 281.36976255011723, 620 282.3537918662553 C 623.3333333333334 283.3378211823933, 626.6666666666666 285.0073985104285, 630 285.0073985104285 C 633.3333333333334 285.0073985104285, 636.6666666666666 281.3287165281638, 640 281.3287165281638 C 643.3333333333334 281.3287165281638, 646.6666666666666 282.93584399984576, 650 283.066825530526 C 653.3333333333334 283.1978070612062, 656.6666666666666 283.2883370351645, 660 283.2883370351645 C 663.3333333333334 283.2883370351645, 666.6666666666666 272.97872444429777, 670 272.97872444429777 C 673.3333333333334 272.97872444429777, 676.6666666666666 280.33985914368424, 680 282.3726148778089 C 683.3333333333334 284.4053706119336, 686.6666666666666 284.7668585367968, 690 286.8870868621034 C 693.3333333333334 289.00731518741, 696.6666666666666 295.36633737276713, 700 297.648836078954 C 703.3333333333334 299.93133478514085, 706.6666666666666 302.67002879948683, 710 302.67002879948683 C 713.3333333333334 302.67002879948683, 716.6666666666666 300.00659502257747, 720 300.00659502257747 C 723.3333333333334 300.00659502257747, 726.6666666666666 300.78790654522874, 730 301.73637050002014 C 733.3333333333334 302.68483445481155, 736.6666666666666 309.75040000272327, 740 309.75040000272327 C 743.3333333333334 309.75040000272327, 746.6666666666666 305.9392128180666, 750 305.9392128180666 C 753.3333333333334 305.9392128180666, 756.6666666666666 311.27011468754984, 760 312.7917837175984 C 763.3333333333334 314.3134527476469, 766.6666666666666 314.45135129036646, 770 316.2142753698895 C 773.3333333333334 317.9771994494125, 776.6666666666666 327.8455889061343, 780 327.8455889061343 C 783.3333333333334 327.8455889061343, 786.6666666666666 319.8487943155694, 790 319.8487943155694 C 793.3333333333334 319.8487943155694, 796.6666666666666 328.458462617866, 800 330.1192184176633 C 803.3333333333334 331.7799742174606, 806.6666666666666 331.8977748861585, 810 333.4080787464934 C 813.3333333333334 334.9183826068283, 816.6666666666666 340.6884526329291, 820 340.6884526329291 C 823.3333333333334 340.6884526329291, 826.6666666666666 335.77024733535006, 830 335.77024733535006 C 833.3333333333334 335.77024733535006, 836.6666666666666 338.72431197364017, 840 340.88639092706603 C 843.3333333333334 343.0484698804919, 846.6666666666666 349.74492626011994, 850 349.74492626011994 C 853.3333333333334 349.74492626011994, 856.6666666666666 343.9467632200673, 860 341.0953071705995 C 863.3333333333334 338.2438511211317, 866.6666666666666 335.9096052726512, 870 332.634114977235 C 873.3333333333334 329.3586246818188, 876.6666666666666 320.9169965617665, 880 320.9169965617665 C 883.3333333333334 320.9169965617665, 886.6666666666666 326.62048385317723, 890 326.62048385317723 C 893.3333333333334 326.62048385317723, 896.6666666666666 311.21027828382165, 900 311.21027828382165 C 903.3333333333334 311.21027828382165, 906.6666666666666 317.2146243135027, 910 317.2146243135027 C 913.3333333333334 317.2146243135027, 916.6666666666666 313.4080178276092, 920 313.4080178276092 C 923.3333333333334 313.4080178276092, 926.6666666666666 328.7569522870587, 930 328.7569522870587 C 933.3333333333334 328.7569522870587, 936.6666666666666 306.75605999462823, 940 306.75605999462823 C 943.3333333333334 306.75605999462823, 946.6666666666666 314.9896456085763, 950 316.53337711431584 C 953.3333333333334 318.07710862005536, 956.6666666666666 318.3117944750904, 960 319.5675742083394 C 963.3333333333334 320.82335394158844, 966.6666666666666 324.5352302227308, 970 324.5352302227308 C 973.3333333333334 324.5352302227308, 976.6666666666666 307.2887250025801, 980 307.2887250025801 C 983.3333333333334 307.2887250025801, 986.6666666666666 311.28154103238586, 990 312.83035805945633 C 993.3333333333334 314.3791750865268, 996.6666666666666 316.83061700407825, 1000 316.83061700407825 C 1003.3333333333334 316.83061700407825, 1006.6666666666666 312.3438649630432, 1010 311.29266621778265 C 1013.3333333333334 310.2414674725221, 1016.6666666666666 309.7601741538932, 1020 309.08819920835555 C 1023.3333333333334 308.4162242628179, 1026.6666666666667 308.0836892348026, 1030 307.23110654495184 C 1033.3333333333333 306.3785238551011, 1036.6666666666667 304.65523416909303, 1040 303.1236851133091 C 1043.3333333333333 301.5921360575251, 1046.6666666666667 297.9106652019228, 1050 297.9106652019228 C 1053.3333333333333 297.9106652019228, 1056.6666666666667 298.01192224861427, 1060 298.122990170761 C 1063.3333333333333 298.23405809290773, 1066.6666666666667 298.4625757792317, 1070 298.8966417995813 C 1073.3333333333333 299.33070781993086, 1076.6666666666667 303.0069081871805, 1080 303.0069081871805 C 1083.3333333333333 303.0069081871805, 1086.6666666666667 297.4701882247129, 1090 297.4701882247129 C 1093.3333333333333 297.4701882247129, 1096.6666666666667 303.7369923674374, 1100 304.55501188358755 C 1103.3333333333333 305.3730313997377, 1106.6666666666667 306.02781778913646, 1110 306.0390663691707 C 1113.3333333333333 306.05031494920496, 1116.6666666666667 306.0561332804647, 1120 306.0561332804647 C 1123.3333333333333 306.0561332804647, 1126.6666666666667 303.2744041269359, 1130 303.2744041269359 C 1133.3333333333333 303.2744041269359, 1136.6666666666667 304.28202772364915, 1140 304.28202772364915 C 1143.3333333333333 304.28202772364915, 1146.6666666666667 303.33509221598314, 1150 302.9711149702804 C 1153.3333333333333 302.6071377245776, 1156.6666666666667 302.32831332762424, 1160 302.0354766479344 C 1163.3333333333333 301.74263996824453, 1166.6666666666667 301.207520052231, 1170 301.207520052231 C 1173.3333333333333 301.207520052231, 1176.6666666666667 305.10177560367197, 1180 305.10177560367197 C 1183.3333333333333 305.10177560367197, 1186.6666666666667 300.4711761628056, 1190 300.4711761628056 C 1193.3333333333333 300.4711761628056, 1196.6666666666667 302.1256036269782, 1200 302.86238443542345 C 1203.3333333333333 303.5991652438687, 1206.6666666666667 304.917297648028, 1210 304.917297648028 C 1213.3333333333333 304.917297648028, 1216.6666666666667 287.74113411637705, 1220 281.03020567812257 C 1223.3333333333333 274.3192772398681, 1226.6666666666667 263.6318930620477, 1230 263.6318930620477 C 1233.3333333333333 263.6318930620477, 1236.6666666666667 264.04962097031836, 1240 264.5229052426492 C 1243.3333333333333 264.99618951498, 1246.6666666666667 266.83133951700677, 1250 268.0160183124769 C 1253.3333333333333 269.200697107947, 1256.6666666666667 270.3519222851948, 1260 271.6331408623813 C 1263.3333333333333 272.9143594395678, 1266.6666666666667 275.7336001957601, 1270 275.7336001957601 C 1273.3333333333333 275.7336001957601, 1276.6666666666667 272.60378628835315, 1280 272.60378628835315 C 1283.3333333333333 272.60378628835315, 1286.6666666666667 277.0154366404722, 1290 277.0154366404722 C 1293.3333333333333 277.0154366404722, 1296.6666666666667 274.64093231188303, 1300 274.044191754675 C 1303.3333333333333 273.447451197467, 1306.6666666666667 272.7631600731479, 1310 272.7631600731479 C 1313.3333333333333 272.7631600731479, 1316.6666666666667 276.2272851466852, 1320 276.2272851466852 C 1323.3333333333333 276.2272851466852, 1326.6666666666667 273.90037967032544, 1330 273.90037967032544 C 1333.3333333333333 273.90037967032544, 1336.6666666666667 274.5485060488838, 1340 275.0938808912711 C 1343.3333333333333 275.63925573365844, 1346.6666666666667 277.694458937958, 1350 277.694458937958 C 1353.3333333333333 277.694458937958, 1356.6666666666667 271.31953477051724, 1360 271.1805125800868 C 1363.3333333333333 271.0414903896564, 1366.6666666666667 270.9650826596412, 1370 270.9650826596412 C 1373.3333333333333 270.9650826596412, 1376.6666666666667 278.3694992912335, 1380 278.3694992912335 C 1383.3333333333333 278.3694992912335, 1386.6666666666667 278.0278986433355, 1390 277.5287377405422 C 1393.3333333333333 277.02957683774895, 1396.6666666666667 272.48895461853067, 1400 270.68770755424146 C 1403.3333333333333 268.88646048995224, 1406.6666666666667 266.222168618528, 1410 266.222168618528 C 1413.3333333333333 266.222168618528, 1416.6666666666667 273.4784983555444, 1420 273.8172847743599 C 1423.3333333333333 274.1560711931754, 1426.6666666666667 274.36190420044716, 1430 274.36190420044716 C 1433.3333333333333 274.36190420044716, 1436.6666666666667 272.92883131992687, 1440 272.92883131992687 C 1443.3333333333333 272.92883131992687, 1446.6666666666667 275.057993828319, 1450 275.2077552796625 C 1453.3333333333333 275.35751673100594, 1456.6666666666667 275.4285783649766, 1460 275.45696278560115 C 1463.3333333333333 275.4853472062257, 1466.6666666666667 275.4755287188345, 1470 275.5083124012234 C 1473.3333333333333 275.54109608361233, 1476.6666666666667 276.66978311584046, 1480 276.66978311584046 C 1483.3333333333333 276.66978311584046, 1486.6666666666667 274.1756553044082, 1490 274.1756553044082 C 1493.3333333333333 274.1756553044082, 1496.6666666666667 275.732903737958, 1500 275.732903737958 C 1503.3333333333333 275.732903737958, 1506.6666666666667 272.82033273569857, 1510 272.82033273569857 C 1513.3333333333333 272.82033273569857, 1516.6666666666667 276.4783139750835, 1520 276.4783139750835 C 1523.3333333333333 276.4783139750835, 1526.6666666666667 276.02363735918016, 1530 275.3735499154466 C 1533.3333333333333 274.723462471713, 1536.6666666666667 267.063237373295, 1540 267.063237373295 C 1543.3333333333333 267.063237373295, 1546.6666666666667 280.4078299142753, 1550 280.4078299142753 C 1553.3333333333333 280.4078299142753, 1556.6666666666667 280.2259583614261, 1560 279.99827670753933 C 1563.3333333333333 279.7705950536526, 1566.6666666666667 277.942270023294, 1570 277.942270023294 C 1573.3333333333333 277.942270023294, 1576.6666666666667 289.41416110948524, 1580 293.9238947016276 C 1583.3333333333333 298.43362829376997, 1586.6666666666667 301.9974570259171, 1590 305.65320137376295 C 1593.3333333333333 309.30894572160884, 1596.6666666666667 313.6288020893665, 1600 315.9513459034656 C 1603.3333333333333 318.2738897175647, 1606.6666666666667 320.10882804622776, 1610 321.21625735977847 C 1613.3333333333333 322.3236866733292, 1616.6666666666667 323.47956563638314, 1620 323.6430998111748 C 1623.3333333333333 323.80663398596647, 1626.6666666666667 323.91598373351485, 1630 323.91598373351485 C 1633.3333333333333 323.91598373351485, 1636.6666666666667 323.3546391688156, 1640 322.81806281074313 C 1643.3333333333333 322.28148645267066, 1646.6666666666667 321.60878074620865, 1650 319.80267854163964 C 1653.3333333333333 317.9965763370706, 1656.6666666666667 293.1262830391895, 1660 293.1262830391895 C 1663.3333333333333 293.1262830391895, 1666.6666666666667 298.21363120453907, 1670 298.21363120453907 C 1673.3333333333333 298.21363120453907, 1676.6666666666667 296.1257143649832, 1680 296.1257143649832 C 1683.3333333333333 296.1257143649832, 1686.6666666666667 299.591034992665, 1690 301.64585174561165 C 1693.3333333333333 303.7006684985583, 1696.6666666666667 307.32249498804856, 1700 308.6248995534189 C 1703.3333333333333 309.92730411878927, 1706.6666666666667 310.8593722247867, 1710 311.3379581087646 C 1713.3333333333333 311.81654399274254, 1716.6666666666667 312.25267214827977, 1720 312.31413447113044 C 1723.3333333333333 312.3755967939811, 1726.6666666666667 312.3505934090378, 1730 312.41594311736674 C 1733.3333333333333 312.4812928256957, 1736.6666666666667 313.6713499808125, 1740 315.053238875999 C 1743.3333333333333 316.4351277711855, 1746.6666666666667 324.73798391789535, 1750 324.73798391789535 C 1753.3333333333333 324.73798391789535, 1756.6666666666667 319.38534503578137, 1760 319.38534503578137 C 1763.3333333333333 319.38534503578137, 1766.6666666666667 325.7910299868846, 1770 327.3956574828007 C 1773.3333333333333 329.00028497871676, 1776.6666666666667 329.01012692433795, 1780 330.83650598382934 C 1783.3333333333333 332.6628850433207, 1786.6666666666667 342.53571707188223, 1790 344.2782719823162 C 1793.3333333333333 346.02082689275016, 1796.6666666666667 347.5230760427886, 1800 347.5230760427886 C 1803.3333333333333 347.5230760427886, 1806.6666666666667 337.04716180692674, 1810 337.04716180692674 C 1813.3333333333333 337.04716180692674, 1816.6666666666667 354.72168256408526, 1820 354.72168256408526 C 1823.3333333333333 354.72168256408526, 1826.6666666666667 346.1124760715622, 1830 346.1124760715622 C 1833.3333333333333 346.1124760715622, 1836.6666666666667 355.2271079591895, 1840 358.6999306567433 C 1843.3333333333333 362.1727533542971, 1846.6666666666667 367.5870324499872, 1850 367.5870324499872 C 1853.3333333333333 367.5870324499872, 1856.6666666666667 365.9699285272285, 1860 364.2974365965977 C 1863.3333333333333 362.62494466596695, 1866.6666666666667 353.7286337803133, 1870 353.7286337803133 C 1873.3333333333333 353.7286337803133, 1876.6666666666667 374.9804184117272, 1880 374.9804184117272 C 1883.3333333333333 374.9804184117272, 1886.6666666666667 366.9423717559083, 1890 366.9423717559083 C 1893.3333333333333 366.9423717559083, 1896.6666666666667 373.75132943015956, 1900 374.91917749102123 C 1903.3333333333333 376.0870255518829, 1906.6666666666667 375.9775072744749, 1910 377.1639116505393 C 1913.3333333333333 378.35031602660376, 1916.6666666666667 385.3158669309269, 1920 385.7524015278416 C 1923.3333333333333 386.18893612475625, 1926.6666666666667 386.461247081492, 1930 386.461247081492 C 1933.3333333333333 386.461247081492, 1936.6666666666667 382.86965381366844, 1940 382.86965381366844 C 1943.3333333333333 382.86965381366844, 1946.6666666666667 383.18190195497925, 1950 383.18190195497925 C 1953.3333333333333 383.18190195497925, 1956.6666666666667 377.8491546093491, 1960 376.35600490823447 C 1963.3333333333333 374.8628552071198, 1966.6666666666667 373.02247804695656, 1970 373.02247804695656 C 1973.3333333333333 373.02247804695656, 1976.6666666666667 382.70378987946617, 1980 382.70378987946617 C 1983.3333333333333 382.70378987946617, 1986.6666666666667 372.4418184359739, 1990 372.4418184359739 C 1993.3333333333333 372.4418184359739, 1996.6666666666667 375.1558382260555, 2000 378.1877790067357 C 2003.3333333333333 381.2197197874159, 2006.6666666666667 390.05154959849483, 2010 400 c 0 0, 0 0, 0 0C 2006.6666666666667 409.94845040150517, 2003.3333333333333 418.7802802125841, 2000 421.8122209932643 C 1996.6666666666667 424.8441617739445, 1993.3333333333333 427.5581815640261, 1990 427.5581815640261 C 1986.6666666666667 427.5581815640261, 1983.3333333333333 417.29621012053383, 1980 417.29621012053383 C 1976.6666666666667 417.29621012053383, 1973.3333333333333 426.97752195304344, 1970 426.97752195304344 C 1966.6666666666667 426.97752195304344, 1963.3333333333333 425.1371447928802, 1960 423.64399509176553 C 1956.6666666666667 422.1508453906509, 1953.3333333333333 416.81809804502075, 1950 416.81809804502075 C 1946.6666666666667 416.81809804502075, 1943.3333333333333 417.13034618633156, 1940 417.13034618633156 C 1936.6666666666667 417.13034618633156, 1933.3333333333333 413.538752918508, 1930 413.538752918508 C 1926.6666666666667 413.538752918508, 1923.3333333333333 413.81106387524375, 1920 414.2475984721584 C 1916.6666666666667 414.6841330690731, 1913.3333333333333 421.64968397339624, 1910 422.8360883494607 C 1906.6666666666667 424.0224927255251, 1903.3333333333333 423.9129744481171, 1900 425.08082250897877 C 1896.6666666666667 426.24867056984044, 1893.3333333333333 433.0576282440917, 1890 433.0576282440917 C 1886.6666666666667 433.0576282440917, 1883.3333333333333 425.0195815882728, 1880 425.0195815882728 C 1876.6666666666667 425.0195815882728, 1873.3333333333333 446.2713662196867, 1870 446.2713662196867 C 1866.6666666666667 446.2713662196867, 1863.3333333333333 437.37505533403305, 1860 435.7025634034023 C 1856.6666666666667 434.0300714727715, 1853.3333333333333 432.4129675500128, 1850 432.4129675500128 C 1846.6666666666667 432.4129675500128, 1843.3333333333333 437.8272466457029, 1840 441.3000693432567 C 1836.6666666666667 444.7728920408105, 1833.3333333333333 453.8875239284378, 1830 453.8875239284378 C 1826.6666666666667 453.8875239284378, 1823.3333333333333 445.27831743591474, 1820 445.27831743591474 C 1816.6666666666667 445.27831743591474, 1813.3333333333333 462.95283819307326, 1810 462.95283819307326 C 1806.6666666666667 462.95283819307326, 1803.3333333333333 452.4769239572114, 1800 452.4769239572114 C 1796.6666666666667 452.4769239572114, 1793.3333333333333 453.97917310724984, 1790 455.7217280176838 C 1786.6666666666667 457.46428292811777, 1783.3333333333333 467.3371149566793, 1780 469.16349401617066 C 1776.6666666666667 470.98987307566205, 1773.3333333333333 470.99971502128324, 1770 472.6043425171993 C 1766.6666666666667 474.2089700131154, 1763.3333333333333 480.61465496421863, 1760 480.61465496421863 C 1756.6666666666667 480.61465496421863, 1753.3333333333333 475.26201608210465, 1750 475.26201608210465 C 1746.6666666666667 475.26201608210465, 1743.3333333333333 483.5648722288145, 1740 484.946761124001 C 1736.6666666666667 486.3286500191875, 1733.3333333333333 487.5187071743043, 1730 487.58405688263326 C 1726.6666666666667 487.6494065909622, 1723.3333333333333 487.6244032060189, 1720 487.68586552886956 C 1716.6666666666667 487.74732785172023, 1713.3333333333333 488.18345600725746, 1710 488.6620418912354 C 1706.6666666666667 489.1406277752133, 1703.3333333333333 490.07269588121073, 1700 491.3751004465811 C 1696.6666666666667 492.67750501195144, 1693.3333333333333 496.2993315014417, 1690 498.35414825438835 C 1686.6666666666667 500.408965007335, 1683.3333333333333 503.8742856350168, 1680 503.8742856350168 C 1676.6666666666667 503.8742856350168, 1673.3333333333333 501.78636879546093, 1670 501.78636879546093 C 1666.6666666666667 501.78636879546093, 1663.3333333333333 506.8737169608105, 1660 506.8737169608105 C 1656.6666666666667 506.8737169608105, 1653.3333333333333 482.0034236629294, 1650 480.19732145836036 C 1646.6666666666667 478.39121925379135, 1643.3333333333333 477.71851354732934, 1640 477.18193718925687 C 1636.6666666666667 476.6453608311844, 1633.3333333333333 476.08401626648515, 1630 476.08401626648515 C 1626.6666666666667 476.08401626648515, 1623.3333333333333 476.19336601403353, 1620 476.3569001888252 C 1616.6666666666667 476.52043436361686, 1613.3333333333333 477.6763133266708, 1610 478.78374264022153 C 1606.6666666666667 479.89117195377224, 1603.3333333333333 481.7261102824353, 1600 484.0486540965344 C 1596.6666666666667 486.3711979106335, 1593.3333333333333 490.69105427839116, 1590 494.34679862623705 C 1586.6666666666667 498.0025429740829, 1583.3333333333333 501.56637170623003, 1580 506.0761052983724 C 1576.6666666666667 510.58583889051476, 1573.3333333333333 522.057729976706, 1570 522.057729976706 C 1566.6666666666667 522.057729976706, 1563.3333333333333 520.2294049463474, 1560 520.0017232924606 C 1556.6666666666667 519.7740416385739, 1553.3333333333333 519.5921700857248, 1550 519.5921700857248 C 1546.6666666666667 519.5921700857248, 1543.3333333333333 532.936762626705, 1540 532.936762626705 C 1536.6666666666667 532.936762626705, 1533.3333333333333 525.276537528287, 1530 524.6264500845534 C 1526.6666666666667 523.9763626408198, 1523.3333333333333 523.5216860249166, 1520 523.5216860249166 C 1516.6666666666667 523.5216860249166, 1513.3333333333333 527.1796672643014, 1510 527.1796672643014 C 1506.6666666666667 527.1796672643014, 1503.3333333333333 524.2670962620421, 1500 524.2670962620421 C 1496.6666666666667 524.2670962620421, 1493.3333333333333 525.8243446955918, 1490 525.8243446955918 C 1486.6666666666667 525.8243446955918, 1483.3333333333333 523.3302168841595, 1480 523.3302168841595 C 1476.6666666666667 523.3302168841595, 1473.3333333333333 524.4589039163877, 1470 524.4916875987766 C 1466.6666666666667 524.5244712811655, 1463.3333333333333 524.5146527937743, 1460 524.5430372143989 C 1456.6666666666667 524.5714216350234, 1453.3333333333333 524.642483268994, 1450 524.7922447203375 C 1446.6666666666667 524.942006171681, 1443.3333333333333 527.0711686800731, 1440 527.0711686800731 C 1436.6666666666667 527.0711686800731, 1433.3333333333333 525.6380957995528, 1430 525.6380957995528 C 1426.6666666666667 525.6380957995528, 1423.3333333333333 525.8439288068246, 1420 526.1827152256401 C 1416.6666666666667 526.5215016444556, 1413.3333333333333 533.777831381472, 1410 533.777831381472 C 1406.6666666666667 533.777831381472, 1403.3333333333333 531.1135395100478, 1400 529.3122924457585 C 1396.6666666666667 527.5110453814693, 1393.3333333333333 522.9704231622511, 1390 522.4712622594577 C 1386.6666666666667 521.9721013566646, 1383.3333333333333 521.6305007087665, 1380 521.6305007087665 C 1376.6666666666667 521.6305007087665, 1373.3333333333333 529.0349173403588, 1370 529.0349173403588 C 1366.6666666666667 529.0349173403588, 1363.3333333333333 528.9585096103435, 1360 528.8194874199132 C 1356.6666666666667 528.6804652294827, 1353.3333333333333 522.305541062042, 1350 522.305541062042 C 1346.6666666666667 522.305541062042, 1343.3333333333333 524.3607442663415, 1340 524.906119108729 C 1336.6666666666667 525.4514939511162, 1333.3333333333333 526.0996203296745, 1330 526.0996203296745 C 1326.6666666666667 526.0996203296745, 1323.3333333333333 523.7727148533148, 1320 523.7727148533148 C 1316.6666666666667 523.7727148533148, 1313.3333333333333 527.2368399268521, 1310 527.2368399268521 C 1306.6666666666667 527.2368399268521, 1303.3333333333333 526.552548802533, 1300 525.955808245325 C 1296.6666666666667 525.359067688117, 1293.3333333333333 522.9845633595278, 1290 522.9845633595278 C 1286.6666666666667 522.9845633595278, 1283.3333333333333 527.3962137116469, 1280 527.3962137116469 C 1276.6666666666667 527.3962137116469, 1273.3333333333333 524.2663998042399, 1270 524.2663998042399 C 1266.6666666666667 524.2663998042399, 1263.3333333333333 527.0856405604322, 1260 528.3668591376187 C 1256.6666666666667 529.6480777148051, 1253.3333333333333 530.799302892053, 1250 531.983981687523 C 1246.6666666666667 533.1686604829932, 1243.3333333333333 535.00381048502, 1240 535.4770947573509 C 1236.6666666666667 535.9503790296817, 1233.3333333333333 536.3681069379522, 1230 536.3681069379522 C 1226.6666666666667 536.3681069379522, 1223.3333333333333 525.6807227601319, 1220 518.9697943218774 C 1216.6666666666667 512.258865883623, 1213.3333333333333 495.082702351972, 1210 495.082702351972 C 1206.6666666666667 495.082702351972, 1203.3333333333333 496.4008347561313, 1200 497.13761556457655 C 1196.6666666666667 497.8743963730218, 1193.3333333333333 499.5288238371944, 1190 499.5288238371944 C 1186.6666666666667 499.5288238371944, 1183.3333333333333 494.89822439632803, 1180 494.89822439632803 C 1176.6666666666667 494.89822439632803, 1173.3333333333333 498.792479947769, 1170 498.792479947769 C 1166.6666666666667 498.792479947769, 1163.3333333333333 498.25736003175547, 1160 497.9645233520656 C 1156.6666666666667 497.67168667237576, 1153.3333333333333 497.3928622754224, 1150 497.0288850297196 C 1146.6666666666667 496.66490778401686, 1143.3333333333333 495.71797227635085, 1140 495.71797227635085 C 1136.6666666666667 495.71797227635085, 1133.3333333333333 496.7255958730641, 1130 496.7255958730641 C 1126.6666666666667 496.7255958730641, 1123.3333333333333 493.9438667195353, 1120 493.9438667195353 C 1116.6666666666667 493.9438667195353, 1113.3333333333333 493.94968505079504, 1110 493.9609336308293 C 1106.6666666666667 493.97218221086354, 1103.3333333333333 494.6269686002623, 1100 495.44498811641245 C 1096.6666666666667 496.2630076325626, 1093.3333333333333 502.5298117752871, 1090 502.5298117752871 C 1086.6666666666667 502.5298117752871, 1083.3333333333333 496.9930918128195, 1080 496.9930918128195 C 1076.6666666666667 496.9930918128195, 1073.3333333333333 500.66929218006914, 1070 501.1033582004187 C 1066.6666666666667 501.5374242207683, 1063.3333333333333 501.76594190709227, 1060 501.877009829239 C 1056.6666666666667 501.98807775138573, 1053.3333333333333 502.0893347980772, 1050 502.0893347980772 C 1046.6666666666667 502.0893347980772, 1043.3333333333333 498.4078639424749, 1040 496.8763148866909 C 1036.6666666666667 495.34476583090697, 1033.3333333333333 493.6214761448989, 1030 492.76889345504816 C 1026.6666666666667 491.9163107651974, 1023.3333333333334 491.5837757371821, 1020 490.91180079164445 C 1016.6666666666666 490.2398258461068, 1013.3333333333334 489.7585325274779, 1010 488.70733378221735 C 1006.6666666666666 487.6561350369568, 1003.3333333333334 483.16938299592175, 1000 483.16938299592175 C 996.6666666666666 483.16938299592175, 993.3333333333334 485.6208249134732, 990 487.16964194054367 C 986.6666666666666 488.71845896761414, 983.3333333333334 492.7112749974199, 980 492.7112749974199 C 976.6666666666666 492.7112749974199, 973.3333333333334 475.4647697772692, 970 475.4647697772692 C 966.6666666666666 475.4647697772692, 963.3333333333334 479.17664605841156, 960 480.4324257916606 C 956.6666666666666 481.6882055249096, 953.3333333333334 481.92289137994464, 950 483.46662288568416 C 946.6666666666666 485.0103543914237, 943.3333333333334 493.24394000537177, 940 493.24394000537177 C 936.6666666666666 493.24394000537177, 933.3333333333334 471.2430477129413, 930 471.2430477129413 C 926.6666666666666 471.2430477129413, 923.3333333333334 486.5919821723908, 920 486.5919821723908 C 916.6666666666666 486.5919821723908, 913.3333333333334 482.7853756864973, 910 482.7853756864973 C 906.6666666666666 482.7853756864973, 903.3333333333334 488.78972171617835, 900 488.78972171617835 C 896.6666666666666 488.78972171617835, 893.3333333333334 473.37951614682277, 890 473.37951614682277 C 886.6666666666666 473.37951614682277, 883.3333333333334 479.0830034382335, 880 479.0830034382335 C 876.6666666666666 479.0830034382335, 873.3333333333334 470.6413753181812, 870 467.365885022765 C 866.6666666666666 464.0903947273488, 863.3333333333334 461.7561488788683, 860 458.9046928294005 C 856.6666666666666 456.0532367799327, 853.3333333333334 450.25507373988006, 850 450.25507373988006 C 846.6666666666666 450.25507373988006, 843.3333333333334 456.9515301195081, 840 459.11360907293397 C 836.6666666666666 461.27568802635983, 833.3333333333334 464.22975266464994, 830 464.22975266464994 C 826.6666666666666 464.22975266464994, 823.3333333333334 459.3115473670709, 820 459.3115473670709 C 816.6666666666666 459.3115473670709, 813.3333333333334 465.0816173931717, 810 466.5919212535066 C 806.6666666666666 468.1022251138415, 803.3333333333334 468.2200257825394, 800 469.8807815823367 C 796.6666666666666 471.541537382134, 793.3333333333334 480.1512056844306, 790 480.1512056844306 C 786.6666666666666 480.1512056844306, 783.3333333333334 472.1544110938657, 780 472.1544110938657 C 776.6666666666666 472.1544110938657, 773.3333333333334 482.0228005505875, 770 483.7857246301105 C 766.6666666666666 485.54864870963354, 763.3333333333334 485.6865472523531, 760 487.2082162824016 C 756.6666666666666 488.72988531245016, 753.3333333333334 494.0607871819334, 750 494.0607871819334 C 746.6666666666666 494.0607871819334, 743.3333333333334 490.24959999727673, 740 490.24959999727673 C 736.6666666666666 490.24959999727673, 733.3333333333334 497.31516554518845, 730 498.26362949997986 C 726.6666666666666 499.21209345477126, 723.3333333333334 499.99340497742253, 720 499.99340497742253 C 716.6666666666666 499.99340497742253, 713.3333333333334 497.32997120051317, 710 497.32997120051317 C 706.6666666666666 497.32997120051317, 703.3333333333334 500.06866521485915, 700 502.351163921046 C 696.6666666666666 504.63366262723287, 693.3333333333334 510.99268481259, 690 513.1129131378966 C 686.6666666666666 515.2331414632032, 683.3333333333334 515.5946293880663, 680 517.6273851221911 C 676.6666666666666 519.6601408563158, 673.3333333333334 527.0212755557022, 670 527.0212755557022 C 666.6666666666666 527.0212755557022, 663.3333333333334 516.7116629648356, 660 516.7116629648356 C 656.6666666666666 516.7116629648356, 653.3333333333334 516.8021929387937, 650 516.933174469474 C 646.6666666666666 517.0641560001543, 643.3333333333334 518.6712834718362, 640 518.6712834718362 C 636.6666666666666 518.6712834718362, 633.3333333333334 514.9926014895715, 630 514.9926014895715 C 626.6666666666666 514.9926014895715, 623.3333333333334 516.6621788176067, 620 517.6462081337447 C 616.6666666666666 518.6302374498828, 613.3333333333334 519.4018354839974, 610 520.972434581769 C 606.6666666666666 522.5430336795407, 603.3333333333334 529.0483161306004, 600 529.0483161306004 C 596.6666666666666 529.0483161306004, 593.3333333333334 526.5051260730214, 590 525.3306950816657 C 586.6666666666666 524.1562640903101, 583.3333333333334 521.9824234893132, 580 521.9824234893132 C 576.6666666666666 521.9824234893132, 573.3333333333334 525.8992182632596, 570 525.8992182632596 C 566.6666666666666 525.8992182632596, 563.3333333333334 511.63394360817756, 560 510.65937685170707 C 556.6666666666666 509.68481009523657, 553.3333333333334 509.0424238595964, 550 509.0424238595964 C 546.6666666666666 509.0424238595964, 543.3333333333334 509.189237541998, 540 509.33147342611426 C 536.6666666666666 509.4737093102305, 533.3333333333334 509.6669124737646, 530 510.1461801809568 C 526.6666666666666 510.6254478881489, 523.3333333333334 514.6589633257811, 520 516.259564360408 C 516.6666666666666 517.860165395035, 513.3333333333334 520.2131541914518, 510 520.2131541914518 C 506.6666666666667 520.2131541914518, 503.3333333333333 519.5634343466686, 500 519.5634343466686 C 496.6666666666667 519.5634343466686, 493.3333333333333 520.5288641841056, 490 520.5288641841056 C 486.6666666666667 520.5288641841056, 483.3333333333333 512.556635986508, 480 512.556635986508 C 476.6666666666667 512.556635986508, 473.3333333333333 522.6048839132718, 470 522.6048839132718 C 466.6666666666667 522.6048839132718, 463.3333333333333 511.13196821608256, 460 511.13196821608256 C 456.6666666666667 511.13196821608256, 453.3333333333333 513.0783860248889, 450 513.8397081810092 C 446.6666666666667 514.6010303371295, 443.3333333333333 514.7831696415697, 440 515.8145958386808 C 436.6666666666667 516.8460220357922, 433.3333333333333 520.5720499094385, 430 522.9576420104796 C 426.6666666666667 525.3432341115207, 423.3333333333333 530.1282013298057, 420 530.1282013298057 C 416.6666666666667 530.1282013298057, 413.3333333333333 525.5769759643771, 410 525.5769759643771 C 406.6666666666667 525.5769759643771, 403.3333333333333 528.099711980248, 400 528.099711980248 C 396.6666666666667 528.099711980248, 393.3333333333333 503.1124351660259, 390 503.1124351660259 C 386.6666666666667 503.1124351660259, 383.3333333333333 512.4400284989458, 380 512.4400284989458 C 376.6666666666667 512.4400284989458, 373.3333333333333 506.19863813844734, 370 506.19863813844734 C 366.6666666666667 506.19863813844734, 363.3333333333333 510.17276848728494, 360 510.17276848728494 C 356.6666666666667 510.17276848728494, 353.3333333333333 507.5678926716932, 350 506.7884801667385 C 346.6666666666667 506.00906766178383, 343.3333333333333 505.0023257242108, 340 505.0023257242108 C 336.6666666666667 505.0023257242108, 333.3333333333333 506.1588088396397, 330 506.91865455528625 C 326.6666666666667 507.67850027093283, 323.3333333333333 509.7312777312761, 320 509.7312777312761 C 316.6666666666667 509.7312777312761, 313.3333333333333 506.1503755225196, 310 506.1503755225196 C 306.6666666666667 506.1503755225196, 303.3333333333333 506.88090903519964, 300 506.88090903519964 C 296.6666666666667 506.88090903519964, 293.3333333333333 499.1141214129304, 290 499.1141214129304 C 286.6666666666667 499.1141214129304, 283.3333333333333 504.7199291021789, 280 506.4633718249544 C 276.6666666666667 508.20681454772983, 273.3333333333333 510.5231828195146, 270 510.5231828195146 C 266.6666666666667 510.5231828195146, 263.3333333333333 501.9289295284549, 260 501.9289295284549 C 256.6666666666667 501.9289295284549, 253.33333333333334 505.21341060537014, 250 506.292153863501 C 246.66666666666666 507.3708971216319, 243.33333333333334 508.8640725380899, 240 508.8640725380899 C 236.66666666666666 508.8640725380899, 233.33333333333334 507.18585548904935, 230 506.6560067565853 C 226.66666666666666 506.1261580241213, 223.33333333333334 505.9293002668444, 220 505.4142885303199 C 216.66666666666666 504.89927679379537, 213.33333333333334 503.94571201141065, 210 503.3698556245157 C 206.66666666666666 502.79399923762077, 203.33333333333334 502.28776308390826, 200 501.874109955383 C 196.66666666666666 501.46045682685775, 193.33333333333334 500.81376962643753, 190 500.81376962643753 C 186.66666666666666 500.81376962643753, 183.33333333333334 504.77334168615397, 180 505.2639001099815 C 176.66666666666666 505.754458533809, 173.33333333333334 506.1455143574117, 170 506.1455143574117 C 166.66666666666666 506.1455143574117, 163.33333333333334 503.7096696086678, 160 503.7096696086678 C 156.66666666666666 503.7096696086678, 153.33333333333334 516.0896501663224, 150 516.0896501663224 C 146.66666666666666 516.0896501663224, 143.33333333333334 510.1536901171074, 140 507.705031920209 C 136.66666666666666 505.2563737233107, 133.33333333333334 501.1687397920431, 130 501.1687397920431 C 126.66666666666667 501.1687397920431, 123.33333333333333 504.6295692270179, 120 504.6295692270179 C 116.66666666666667 504.6295692270179, 113.33333333333333 502.4285291922966, 110 502.2375625892147 C 106.66666666666667 502.0465959861328, 103.33333333333333 501.9121426836579, 100 501.9121426836579 C 96.66666666666667 501.9121426836579, 93.33333333333333 504.1749221003733, 90 504.1749221003733 C 86.66666666666667 504.1749221003733, 83.33333333333333 497.068805527236, 80 495.8595769151344 C 76.66666666666667 494.65034830303284, 73.33333333333333 494.3970546918015, 70 493.5396930857319 C 66.66666666666667 492.68233147966237, 63.333333333333336 490.65388397591084, 60 490.65388397591084 C 56.666666666666664 490.65388397591084, 53.333333333333336 499.01688566468687, 50 499.01688566468687 C 46.666666666666664 499.01688566468687, 43.333333333333336 498.78721698261757, 40 498.4022321104385 C 36.666666666666664 498.0172472382594, 33.333333333333336 488.8545096153147, 30 488.8545096153147 C 26.666666666666668 488.8545096153147, 23.333333333333332 495.06699864856034, 20 497.8556258208322 C 16.666666666666668 500.64425299310403, 13.333333333333334 505.67002283906646, 10 505.67002283906646 C 3.3333333333333335 454.13741092257226, 6.666666666666666 505.67002283906646, 10 505.67002283906646 Z" fill="white" stroke="transparent" stroke-width="0" />
  </g>
</svg>