<svg 
  baseProfile="tiny"
  preserveAspectRatio="keep"
  version="1.2"
  viewBox="-0.000000 -0.000000 2010.000000 800.000000"
  height="100%" width="100%"
  xmlns="http://www.w3.org/2000/svg"
  xmlns:ev="http://www.w3.org/2001/xml-events"
  xmlns:xlink="http://www.w3.org/1999/xlink"
>
  <g style="transform-origin: center center;">
    <path d="M 0 400 C 3.3333333333333335 381.1649436995981, 6.666666666666666 367.52530023271015, 10 367.52530023271015 C 13.333333333333334 367.52530023271015, 16.666666666666668 383.1115387332522, 20 383.1115387332522 C 23.333333333333332 383.1115387332522, 26.666666666666668 370.1989233196627, 30 370.1989233196627 C 33.333333333333336 370.1989233196627, 36.666666666666664 378.4070019666176, 40 379.4887973569972 C 43.333333333333336 380.57059274737685, 46.666666666666664 381.05740674530483, 50 381.45491951597967 C 53.333333333333336 381.8524322866545, 56.666666666666664 382.3107325103751, 60 382.3107325103751 C 63.333333333333336 382.3107325103751, 66.66666666666667 374.3674757267591, 70 373.95483043955187 C 73.33333333333333 373.54218515234464, 76.66666666666667 373.6871075332391, 80 373.28634401828486 C 83.33333333333333 372.88558050333063, 86.66666666666667 370.45839905673967, 90 367.3188566977183 C 93.33333333333333 364.1793143386969, 96.66666666666667 344.9826983457929, 100 344.9826983457929 C 103.33333333333333 344.9826983457929, 106.66666666666667 346.73784761293587, 110 347.81346708116956 C 113.33333333333333 348.88908654940326, 116.66666666666667 349.9198620012168, 120 351.5652921216366 C 123.33333333333333 353.2107222420564, 126.66666666666667 358.7789667938934, 130 358.7789667938934 C 133.33333333333334 358.7789667938934, 136.66666666666666 343.53580311576815, 140 343.53580311576815 C 143.33333333333334 343.53580311576815, 146.66666666666666 354.0698382374471, 150 354.0698382374471 C 153.33333333333334 354.0698382374471, 156.66666666666666 350.92557888988676, 160 350.92557888988676 C 163.33333333333334 350.92557888988676, 166.66666666666666 365.682522291168, 170 365.682522291168 C 173.33333333333334 365.682522291168, 176.66666666666666 314.6693197343308, 180 309.16270655076517 C 183.33333333333334 303.6560933671995, 186.66666666666666 301.82316915320575, 190 299.48906067156025 C 193.33333333333334 297.15495218991475, 196.66666666666666 294.0019645576299, 200 294.0019645576299 C 203.33333333333334 294.0019645576299, 206.66666666666666 300.1812237291372, 210 300.1812237291372 C 213.33333333333334 300.1812237291372, 216.66666666666666 291.48090453448447, 220 291.48090453448447 C 223.33333333333334 291.48090453448447, 226.66666666666666 293.07378682728756, 230 293.07378682728756 C 233.33333333333334 293.07378682728756, 236.66666666666666 286.3472828242366, 240 286.3472828242366 C 243.33333333333334 286.3472828242366, 246.66666666666666 289.84164015382584, 250 289.84164015382584 C 253.33333333333334 289.84164015382584, 256.6666666666667 283.3509529936367, 260 283.3509529936367 C 263.3333333333333 283.3509529936367, 266.6666666666667 296.34187516553743, 270 296.34187516553743 C 273.3333333333333 296.34187516553743, 276.6666666666667 289.39348648402364, 280 289.39348648402364 C 283.3333333333333 289.39348648402364, 286.6666666666667 305.33406696471724, 290 305.33406696471724 C 293.3333333333333 305.33406696471724, 296.6666666666667 282.6363526911522, 300 282.6363526911522 C 303.3333333333333 282.6363526911522, 306.6666666666667 311.32102950421836, 310 311.32102950421836 C 313.3333333333333 311.32102950421836, 316.6666666666667 288.83505556345017, 320 288.83505556345017 C 323.3333333333333 288.83505556345017, 326.6666666666667 300.5568273496581, 330 300.5568273496581 C 333.3333333333333 300.5568273496581, 336.6666666666667 298.6698298702414, 340 296.9506830132185 C 343.3333333333333 295.2315361561956, 346.6666666666667 287.89966114474225, 350 287.89966114474225 C 353.3333333333333 287.89966114474225, 356.6666666666667 299.6485359604946, 360 299.6485359604946 C 363.3333333333333 299.6485359604946, 366.6666666666667 291.7640994999273, 370 291.7640994999273 C 373.3333333333333 291.7640994999273, 376.6666666666667 308.5503406052244, 380 308.5503406052244 C 383.3333333333333 308.5503406052244, 386.6666666666667 288.53658687937127, 390 288.53658687937127 C 393.3333333333333 288.53658687937127, 396.6666666666667 300.03334925850044, 400 300.03334925850044 C 403.3333333333333 300.03334925850044, 406.6666666666667 290.6377702683874, 410 290.6377702683874 C 413.3333333333333 290.6377702683874, 416.6666666666667 297.80146005091797, 420 297.80146005091797 C 423.3333333333333 297.80146005091797, 426.6666666666667 294.3998497995, 430 294.3998497995 C 433.3333333333333 294.3998497995, 436.6666666666667 322.27484160513626, 440 322.27484160513626 C 443.3333333333333 322.27484160513626, 446.6666666666667 314.1608665928482, 450 311.8217178549349 C 453.3333333333333 309.48256911702157, 456.6666666666667 306.5401797172234, 460 306.5401797172234 C 463.3333333333333 306.5401797172234, 466.6666666666667 306.9004212634875, 470 306.9004212634875 C 473.3333333333333 306.9004212634875, 476.6666666666667 302.858453380944, 480 302.858453380944 C 483.3333333333333 302.858453380944, 486.6666666666667 312.5970658713453, 490 315.73487133882065 C 493.3333333333333 318.872676806296, 496.6666666666667 321.66979749994766, 500 323.15319387532844 C 503.3333333333333 324.6365902507092, 506.6666666666667 326.33165421396995, 510 326.33165421396995 C 513.3333333333334 326.33165421396995, 516.6666666666666 313.17764381737436, 520 313.17764381737436 C 523.3333333333334 313.17764381737436, 526.6666666666666 317.636449962835, 530 317.636449962835 C 533.3333333333334 317.636449962835, 536.6666666666666 310.32812469079505, 540 308.7280809858038 C 543.3333333333334 307.1280372808125, 546.6666666666666 307.13552959099707, 550 305.4429438038231 C 553.3333333333334 303.7503580166491, 556.6666666666666 294.26643493849815, 560 294.26643493849815 C 563.3333333333334 294.26643493849815, 566.6666666666666 295.68752781643843, 570 295.7155407312552 C 573.3333333333334 295.743553646072, 576.6666666666666 295.73189727609963, 580 295.7588149145683 C 583.3333333333334 295.78573255303695, 586.6666666666666 296.36179065046, 590 296.36179065046 C 593.3333333333334 296.36179065046, 596.6666666666666 284.79656524972273, 600 284.79656524972273 C 603.3333333333334 284.79656524972273, 606.6666666666666 304.30222616940233, 610 304.30222616940233 C 613.3333333333334 304.30222616940233, 616.6666666666666 285.6434062014164, 620 285.6434062014164 C 623.3333333333334 285.6434062014164, 626.6666666666666 310.8260779530857, 630 310.8260779530857 C 633.3333333333334 310.8260779530857, 636.6666666666666 283.22032842062185, 640 283.22032842062185 C 643.3333333333334 283.22032842062185, 646.6666666666666 303.3085421542125, 650 303.3085421542125 C 653.3333333333334 303.3085421542125, 656.6666666666666 298.72957636806746, 660 297.1231834589273 C 663.3333333333334 295.5167905497872, 666.6666666666666 293.1758622075323, 670 293.1758622075323 C 673.3333333333334 293.1758622075323, 676.6666666666666 300.61483338549704, 680 300.61483338549704 C 683.3333333333334 300.61483338549704, 686.6666666666666 290.919412383713, 690 290.919412383713 C 693.3333333333334 290.919412383713, 696.6666666666666 307.4614945750062, 700 307.4614945750062 C 703.3333333333334 307.4614945750062, 706.6666666666666 296.38329328086394, 710 295.18887593195024 C 713.3333333333334 293.99445858303653, 716.6666666666666 294.1199531755767, 720 293.09098847666246 C 723.3333333333334 292.0620237777482, 726.6666666666666 287.25090510559664, 730 287.25090510559664 C 733.3333333333334 287.25090510559664, 736.6666666666666 298.50996362826515, 740 298.50996362826515 C 743.3333333333334 298.50996362826515, 746.6666666666666 288.03327769960146, 750 288.03327769960146 C 753.3333333333334 288.03327769960146, 756.6666666666666 297.3492163585287, 760 299.2278067119046 C 763.3333333333334 301.1063970652805, 766.6666666666666 302.9936231020294, 770 302.9936231020294 C 773.3333333333334 302.9936231020294, 776.6666666666666 301.7164793674661, 780 299.98228451496493 C 783.3333333333334 298.24808966246377, 786.6666666666666 280.8786572991223, 790 280.8786572991223 C 793.3333333333334 280.8786572991223, 796.6666666666666 305.917768982512, 800 305.917768982512 C 803.3333333333334 305.917768982512, 806.6666666666666 281.43597120494724, 810 281.43597120494724 C 813.3333333333334 281.43597120494724, 816.6666666666666 297.21646734180473, 820 297.21646734180473 C 823.3333333333334 297.21646734180473, 826.6666666666666 296.75463953726654, 830 296.0523428563187 C 833.3333333333334 295.3500461753709, 836.6666666666666 284.9722282757325, 840 284.9722282757325 C 843.3333333333334 284.9722282757325, 846.6666666666666 299.1955258653102, 850 299.1955258653102 C 853.3333333333334 299.1955258653102, 856.6666666666666 291.93555045924757, 860 291.93555045924757 C 863.3333333333334 291.93555045924757, 866.6666666666666 303.4785569869736, 870 303.4785569869736 C 873.3333333333334 303.4785569869736, 876.6666666666666 283.634606355995, 880 283.634606355995 C 883.3333333333334 283.634606355995, 886.6666666666666 290.2920681783089, 890 290.2920681783089 C 893.3333333333334 290.2920681783089, 896.6666666666666 281.22849976298164, 900 281.22849976298164 C 903.3333333333334 281.22849976298164, 906.6666666666666 294.53316590709244, 910 294.53316590709244 C 913.3333333333334 294.53316590709244, 916.6666666666666 287.02825761910856, 920 287.02825761910856 C 923.3333333333334 287.02825761910856, 926.6666666666666 297.34652267193087, 930 297.34652267193087 C 933.3333333333334 297.34652267193087, 936.6666666666666 285.9125966063791, 940 285.9125966063791 C 943.3333333333334 285.9125966063791, 946.6666666666666 297.5168437159728, 950 297.5168437159728 C 953.3333333333334 297.5168437159728, 956.6666666666666 272.81169242906094, 960 272.81169242906094 C 963.3333333333334 272.81169242906094, 966.6666666666666 286.5161754796076, 970 286.5161754796076 C 973.3333333333334 286.5161754796076, 976.6666666666666 281.2632328764658, 980 278.8160168790536 C 983.3333333333334 276.36880088164145, 986.6666666666666 271.80098096376554, 990 271.80098096376554 C 993.3333333333334 271.80098096376554, 996.6666666666666 280.46854234056735, 1000 280.8573044773184 C 1003.3333333333334 281.24606661406943, 1006.6666666666666 281.07765000073545, 1010 281.4805809010603 C 1013.3333333333334 281.88351180138517, 1016.6666666666666 301.43315157035966, 1020 301.43315157035966 C 1023.3333333333334 301.43315157035966, 1026.6666666666667 285.7733120699518, 1030 285.7733120699518 C 1033.3333333333333 285.7733120699518, 1036.6666666666667 288.6729948329207, 1040 288.6729948329207 C 1043.3333333333333 288.6729948329207, 1046.6666666666667 276.29978115687925, 1050 276.29978115687925 C 1053.3333333333333 276.29978115687925, 1056.6666666666667 287.92510205231196, 1060 287.92510205231196 C 1063.3333333333333 287.92510205231196, 1066.6666666666667 276.04566886182045, 1070 276.04566886182045 C 1073.3333333333333 276.04566886182045, 1076.6666666666667 280.558549806389, 1080 280.558549806389 C 1083.3333333333333 280.558549806389, 1086.6666666666667 272.82019569745955, 1090 272.82019569745955 C 1093.3333333333333 272.82019569745955, 1096.6666666666667 283.82732488708666, 1100 283.82732488708666 C 1103.3333333333333 283.82732488708666, 1106.6666666666667 280.1579634383796, 1110 280.1579634383796 C 1113.3333333333333 280.1579634383796, 1116.6666666666667 296.90424602539963, 1120 296.90424602539963 C 1123.3333333333333 296.90424602539963, 1126.6666666666667 271.3493094361312, 1130 271.3493094361312 C 1133.3333333333333 271.3493094361312, 1136.6666666666667 293.807967674062, 1140 293.807967674062 C 1143.3333333333333 293.807967674062, 1146.6666666666667 288.7072240679823, 1150 287.26203708466005 C 1153.3333333333333 285.8168501013378, 1156.6666666666667 284.0209100900489, 1160 284.0209100900489 C 1163.3333333333333 284.0209100900489, 1166.6666666666667 290.5229284522564, 1170 290.5229284522564 C 1173.3333333333333 290.5229284522564, 1176.6666666666667 280.9741960030717, 1180 280.9741960030717 C 1183.3333333333333 280.9741960030717, 1186.6666666666667 291.4820450867787, 1190 291.4820450867787 C 1193.3333333333333 291.4820450867787, 1196.6666666666667 284.05463888591584, 1200 283.7295732838106 C 1203.3333333333333 283.4045076817054, 1206.6666666666667 283.5046302125168, 1210 283.20924861142856 C 1213.3333333333333 282.9138670103403, 1216.6666666666667 280.22498031764565, 1220 280.22498031764565 C 1223.3333333333333 280.22498031764565, 1226.6666666666667 285.4335794134201, 1230 285.4335794134201 C 1233.3333333333333 285.4335794134201, 1236.6666666666667 276.1065908530185, 1240 276.1065908530185 C 1243.3333333333333 276.1065908530185, 1246.6666666666667 286.6686738238328, 1250 286.6686738238328 C 1253.3333333333333 286.6686738238328, 1256.6666666666667 282.6635641690722, 1260 282.6635641690722 C 1263.3333333333333 282.6635641690722, 1266.6666666666667 286.39911800907606, 1270 286.39911800907606 C 1273.3333333333333 286.39911800907606, 1276.6666666666667 273.4442686565153, 1280 273.4442686565153 C 1283.3333333333333 273.4442686565153, 1286.6666666666667 296.530979441745, 1290 296.530979441745 C 1293.3333333333333 296.530979441745, 1296.6666666666667 280.4090098374363, 1300 280.4090098374363 C 1303.3333333333333 280.4090098374363, 1306.6666666666667 285.5144102533715, 1310 285.5144102533715 C 1313.3333333333333 285.5144102533715, 1316.6666666666667 285.0957578557886, 1320 284.5509451846697 C 1323.3333333333333 284.00613251355077, 1326.6666666666667 279.1671286529974, 1330 279.1671286529974 C 1333.3333333333333 279.1671286529974, 1336.6666666666667 284.0025743162167, 1340 284.0025743162167 C 1343.3333333333333 284.0025743162167, 1346.6666666666667 279.8074660077609, 1350 279.8074660077609 C 1353.3333333333333 279.8074660077609, 1356.6666666666667 298.1853819874776, 1360 298.1853819874776 C 1363.3333333333333 298.1853819874776, 1366.6666666666667 275.9078366264956, 1370 275.9078366264956 C 1373.3333333333333 275.9078366264956, 1376.6666666666667 289.409948264416, 1380 289.409948264416 C 1383.3333333333333 289.409948264416, 1386.6666666666667 276.94693843933356, 1390 276.94693843933356 C 1393.3333333333333 276.94693843933356, 1396.6666666666667 284.9511851272773, 1400 284.9511851272773 C 1403.3333333333333 284.9511851272773, 1406.6666666666667 277.8216093112221, 1410 277.8216093112221 C 1413.3333333333333 277.8216093112221, 1416.6666666666667 285.5889356827489, 1420 285.5889356827489 C 1423.3333333333333 285.5889356827489, 1426.6666666666667 280.56822726107885, 1430 280.56822726107885 C 1433.3333333333333 280.56822726107885, 1436.6666666666667 302.4698590384346, 1440 302.4698590384346 C 1443.3333333333333 302.4698590384346, 1446.6666666666667 276.00788962689387, 1450 276.00788962689387 C 1453.3333333333333 276.00788962689387, 1456.6666666666667 290.3767965573031, 1460 290.3767965573031 C 1463.3333333333333 290.3767965573031, 1466.6666666666667 282.105548224534, 1470 282.105548224534 C 1473.3333333333333 282.105548224534, 1476.6666666666667 285.41934404881414, 1480 285.41934404881414 C 1483.3333333333333 285.41934404881414, 1486.6666666666667 283.91422614468735, 1490 283.2248223155589 C 1493.3333333333333 282.5354184864305, 1496.6666666666667 281.2691723163953, 1500 281.2691723163953 C 1503.3333333333333 281.2691723163953, 1506.6666666666667 285.1263294242501, 1510 286.34748785340025 C 1513.3333333333333 287.5686462825504, 1516.6666666666667 287.88663554032377, 1520 289.21270225503275 C 1523.3333333333333 290.53876896974174, 1526.6666666666667 295.71778724270604, 1530 295.71778724270604 C 1533.3333333333333 295.71778724270604, 1536.6666666666667 281.89962213791654, 1540 281.89962213791654 C 1543.3333333333333 281.89962213791654, 1546.6666666666667 290.3672701535651, 1550 290.3672701535651 C 1553.3333333333333 290.3672701535651, 1556.6666666666667 279.1371851756189, 1560 279.1371851756189 C 1563.3333333333333 279.1371851756189, 1566.6666666666667 284.37266719570755, 1570 284.37266719570755 C 1573.3333333333333 284.37266719570755, 1576.6666666666667 277.05289487025595, 1580 277.05289487025595 C 1583.3333333333333 277.05289487025595, 1586.6666666666667 289.50465951595487, 1590 289.50465951595487 C 1593.3333333333333 289.50465951595487, 1596.6666666666667 276.4567962874014, 1600 276.4567962874014 C 1603.3333333333333 276.4567962874014, 1606.6666666666667 300.20437442554237, 1610 300.20437442554237 C 1613.3333333333333 300.20437442554237, 1616.6666666666667 279.94084276046345, 1620 279.94084276046345 C 1623.3333333333333 279.94084276046345, 1626.6666666666667 297.7508413827816, 1630 297.7508413827816 C 1633.3333333333333 297.7508413827816, 1636.6666666666667 289.1208342880712, 1640 287.54660056071396 C 1643.3333333333333 285.9723668333567, 1646.6666666666667 284.47429055936743, 1650 284.47429055936743 C 1653.3333333333333 284.47429055936743, 1656.6666666666667 291.3733233790822, 1660 291.3733233790822 C 1663.3333333333333 291.3733233790822, 1666.6666666666667 289.912266957518, 1670 289.912266957518 C 1673.3333333333333 289.912266957518, 1676.6666666666667 300.00705265824115, 1680 300.00705265824115 C 1683.3333333333333 300.00705265824115, 1686.6666666666667 285.8265569919896, 1690 285.8265569919896 C 1693.3333333333333 285.8265569919896, 1696.6666666666667 293.40445477005784, 1700 293.40445477005784 C 1703.3333333333333 293.40445477005784, 1706.6666666666667 285.21019099264106, 1710 285.21019099264106 C 1713.3333333333333 285.21019099264106, 1716.6666666666667 295.03440619778513, 1720 295.03440619778513 C 1723.3333333333333 295.03440619778513, 1726.6666666666667 277.902735919485, 1730 277.902735919485 C 1733.3333333333333 277.902735919485, 1736.6666666666667 287.5105564877282, 1740 287.5105564877282 C 1743.3333333333333 287.5105564877282, 1746.6666666666667 282.3721175916713, 1750 282.3721175916713 C 1753.3333333333333 282.3721175916713, 1756.6666666666667 295.5557114781564, 1760 295.5557114781564 C 1763.3333333333333 295.5557114781564, 1766.6666666666667 279.0697204732769, 1770 279.0697204732769 C 1773.3333333333333 279.0697204732769, 1776.6666666666667 300.05715904963506, 1780 300.05715904963506 C 1783.3333333333333 300.05715904963506, 1786.6666666666667 283.0382681739991, 1790 283.0382681739991 C 1793.3333333333333 283.0382681739991, 1796.6666666666667 300.4522186256136, 1800 306.07507099446354 C 1803.3333333333333 311.69792336331346, 1806.6666666666667 319.3809082873511, 1810 319.3809082873511 C 1813.3333333333333 319.3809082873511, 1816.6666666666667 310.28548257980844, 1820 310.1667711166777 C 1823.3333333333333 310.04805965354694, 1826.6666666666667 310.1046017199523, 1830 309.9851948825528 C 1833.3333333333333 309.86578804515324, 1836.6666666666667 296.7968511675752, 1840 296.7968511675752 C 1843.3333333333333 296.7968511675752, 1846.6666666666667 302.3869389025958, 1850 304.17059912100575 C 1853.3333333333333 305.9542593394157, 1856.6666666666667 306.0769932427182, 1860 308.3696858673929 C 1863.3333333333333 310.6623784920676, 1866.6666666666667 327.3695732989363, 1870 327.3695732989363 C 1873.3333333333333 327.3695732989363, 1876.6666666666667 326.0773379744978, 1880 324.81883157296625 C 1883.3333333333333 323.56032517143467, 1886.6666666666667 318.6725910107636, 1890 317.5559099733526 C 1893.3333333333333 316.43922893594157, 1896.6666666666667 315.37878616207485, 1900 315.37878616207485 C 1903.3333333333333 315.37878616207485, 1906.6666666666667 321.1646124080761, 1910 323.78884046262476 C 1913.3333333333333 326.41306851717343, 1916.6666666666667 331.18870192780685, 1920 331.18870192780685 C 1923.3333333333333 331.18870192780685, 1926.6666666666667 310.3489487659528, 1930 308.16631233322545 C 1933.3333333333333 305.9836759004981, 1936.6666666666667 306.0858940770293, 1940 304.3495916839987 C 1943.3333333333333 302.6132892909681, 1946.6666666666667 296.1496891000006, 1950 296.1496891000006 C 1953.3333333333333 296.1496891000006, 1956.6666666666667 316.3416733619495, 1960 325.82016727737357 C 1963.3333333333333 335.2986611927976, 1966.6666666666667 346.3816723889904, 1970 353.1193545994971 C 1973.3333333333333 359.8570368100038, 1976.6666666666667 365.2856241975044, 1980 369.1668893544498 C 1983.3333333333333 373.0481545113952, 1986.6666666666667 378.30344545070307, 1990 378.30344545070307 C 1993.3333333333333 378.30344545070307, 1996.6666666666667 377.35317748590296, 2000 377.35317748590296 C 2003.3333333333333 377.35317748590296, 2006.6666666666667 388.51821074881815, 2010 400 c 0 0, 0 0, 0 0C 2006.6666666666667 411.48178925118185, 2003.3333333333333 422.64682251409704, 2000 422.64682251409704 C 1996.6666666666667 422.64682251409704, 1993.3333333333333 421.69655454929693, 1990 421.69655454929693 C 1986.6666666666667 421.69655454929693, 1983.3333333333333 426.9518454886048, 1980 430.8331106455502 C 1976.6666666666667 434.7143758024956, 1973.3333333333333 440.1429631899962, 1970 446.8806454005029 C 1966.6666666666667 453.6183276110096, 1963.3333333333333 464.7013388072024, 1960 474.17983272262643 C 1956.6666666666667 483.6583266380505, 1953.3333333333333 503.8503108999994, 1950 503.8503108999994 C 1946.6666666666667 503.8503108999994, 1943.3333333333333 497.3867107090319, 1940 495.6504083160013 C 1936.6666666666667 493.9141059229707, 1933.3333333333333 494.0163240995019, 1930 491.83368766677455 C 1926.6666666666667 489.6510512340472, 1923.3333333333333 468.81129807219315, 1920 468.81129807219315 C 1916.6666666666667 468.81129807219315, 1913.3333333333333 473.58693148282657, 1910 476.21115953737524 C 1906.6666666666667 478.8353875919239, 1903.3333333333333 484.62121383792515, 1900 484.62121383792515 C 1896.6666666666667 484.62121383792515, 1893.3333333333333 483.56077106405843, 1890 482.4440900266474 C 1886.6666666666667 481.3274089892364, 1883.3333333333333 476.43967482856533, 1880 475.18116842703375 C 1876.6666666666667 473.9226620255022, 1873.3333333333333 472.6304267010637, 1870 472.6304267010637 C 1866.6666666666667 472.6304267010637, 1863.3333333333333 489.3376215079324, 1860 491.6303141326071 C 1856.6666666666667 493.9230067572818, 1853.3333333333333 494.0457406605843, 1850 495.82940087899425 C 1846.6666666666667 497.6130610974042, 1843.3333333333333 503.2031488324248, 1840 503.2031488324248 C 1836.6666666666667 503.2031488324248, 1833.3333333333333 490.13421195484676, 1830 490.0148051174472 C 1826.6666666666667 489.8953982800477, 1823.3333333333333 489.95194034645306, 1820 489.8332288833223 C 1816.6666666666667 489.71451742019156, 1813.3333333333333 480.6190917126489, 1810 480.6190917126489 C 1806.6666666666667 480.6190917126489, 1803.3333333333333 488.30207663668654, 1800 493.92492900553646 C 1796.6666666666667 499.5477813743864, 1793.3333333333333 516.9617318260009, 1790 516.9617318260009 C 1786.6666666666667 516.9617318260009, 1783.3333333333333 499.94284095036494, 1780 499.94284095036494 C 1776.6666666666667 499.94284095036494, 1773.3333333333333 520.9302795267231, 1770 520.9302795267231 C 1766.6666666666667 520.9302795267231, 1763.3333333333333 504.4442885218436, 1760 504.4442885218436 C 1756.6666666666667 504.4442885218436, 1753.3333333333333 517.6278824083287, 1750 517.6278824083287 C 1746.6666666666667 517.6278824083287, 1743.3333333333333 512.4894435122718, 1740 512.4894435122718 C 1736.6666666666667 512.4894435122718, 1733.3333333333333 522.0972640805151, 1730 522.0972640805151 C 1726.6666666666667 522.0972640805151, 1723.3333333333333 504.96559380221487, 1720 504.96559380221487 C 1716.6666666666667 504.96559380221487, 1713.3333333333333 514.7898090073589, 1710 514.7898090073589 C 1706.6666666666667 514.7898090073589, 1703.3333333333333 506.59554522994216, 1700 506.59554522994216 C 1696.6666666666667 506.59554522994216, 1693.3333333333333 514.1734430080104, 1690 514.1734430080104 C 1686.6666666666667 514.1734430080104, 1683.3333333333333 499.99294734175885, 1680 499.99294734175885 C 1676.6666666666667 499.99294734175885, 1673.3333333333333 510.087733042482, 1670 510.087733042482 C 1666.6666666666667 510.087733042482, 1663.3333333333333 508.6266766209178, 1660 508.6266766209178 C 1656.6666666666667 508.6266766209178, 1653.3333333333333 515.5257094406326, 1650 515.5257094406326 C 1646.6666666666667 515.5257094406326, 1643.3333333333333 514.0276331666432, 1640 512.453399439286 C 1636.6666666666667 510.8791657119288, 1633.3333333333333 502.2491586172184, 1630 502.2491586172184 C 1626.6666666666667 502.2491586172184, 1623.3333333333333 520.0591572395365, 1620 520.0591572395365 C 1616.6666666666667 520.0591572395365, 1613.3333333333333 499.79562557445763, 1610 499.79562557445763 C 1606.6666666666667 499.79562557445763, 1603.3333333333333 523.5432037125986, 1600 523.5432037125986 C 1596.6666666666667 523.5432037125986, 1593.3333333333333 510.49534048404513, 1590 510.49534048404513 C 1586.6666666666667 510.49534048404513, 1583.3333333333333 522.947105129744, 1580 522.947105129744 C 1576.6666666666667 522.947105129744, 1573.3333333333333 515.6273328042925, 1570 515.6273328042925 C 1566.6666666666667 515.6273328042925, 1563.3333333333333 520.8628148243811, 1560 520.8628148243811 C 1556.6666666666667 520.8628148243811, 1553.3333333333333 509.6327298464349, 1550 509.6327298464349 C 1546.6666666666667 509.6327298464349, 1543.3333333333333 518.1003778620834, 1540 518.1003778620834 C 1536.6666666666667 518.1003778620834, 1533.3333333333333 504.28221275729396, 1530 504.28221275729396 C 1526.6666666666667 504.28221275729396, 1523.3333333333333 509.46123103025826, 1520 510.78729774496725 C 1516.6666666666667 512.1133644596762, 1513.3333333333333 512.4313537174496, 1510 513.6525121465997 C 1506.6666666666667 514.8736705757499, 1503.3333333333333 518.7308276836047, 1500 518.7308276836047 C 1496.6666666666667 518.7308276836047, 1493.3333333333333 517.4645815135696, 1490 516.7751776844411 C 1486.6666666666667 516.0857738553127, 1483.3333333333333 514.5806559511859, 1480 514.5806559511859 C 1476.6666666666667 514.5806559511859, 1473.3333333333333 517.894451775466, 1470 517.894451775466 C 1466.6666666666667 517.894451775466, 1463.3333333333333 509.6232034426969, 1460 509.6232034426969 C 1456.6666666666667 509.6232034426969, 1453.3333333333333 523.9921103731061, 1450 523.9921103731061 C 1446.6666666666667 523.9921103731061, 1443.3333333333333 497.5301409615654, 1440 497.5301409615654 C 1436.6666666666667 497.5301409615654, 1433.3333333333333 519.4317727389212, 1430 519.4317727389212 C 1426.6666666666667 519.4317727389212, 1423.3333333333333 514.4110643172511, 1420 514.4110643172511 C 1416.6666666666667 514.4110643172511, 1413.3333333333333 522.1783906887779, 1410 522.1783906887779 C 1406.6666666666667 522.1783906887779, 1403.3333333333333 515.0488148727227, 1400 515.0488148727227 C 1396.6666666666667 515.0488148727227, 1393.3333333333333 523.0530615606665, 1390 523.0530615606665 C 1386.6666666666667 523.0530615606665, 1383.3333333333333 510.590051735584, 1380 510.590051735584 C 1376.6666666666667 510.590051735584, 1373.3333333333333 524.0921633735044, 1370 524.0921633735044 C 1366.6666666666667 524.0921633735044, 1363.3333333333333 501.8146180125224, 1360 501.8146180125224 C 1356.6666666666667 501.8146180125224, 1353.3333333333333 520.1925339922391, 1350 520.1925339922391 C 1346.6666666666667 520.1925339922391, 1343.3333333333333 515.9974256837834, 1340 515.9974256837834 C 1336.6666666666667 515.9974256837834, 1333.3333333333333 520.8328713470025, 1330 520.8328713470025 C 1326.6666666666667 520.8328713470025, 1323.3333333333333 515.9938674864493, 1320 515.4490548153303 C 1316.6666666666667 514.9042421442114, 1313.3333333333333 514.4855897466284, 1310 514.4855897466284 C 1306.6666666666667 514.4855897466284, 1303.3333333333333 519.5909901625637, 1300 519.5909901625637 C 1296.6666666666667 519.5909901625637, 1293.3333333333333 503.469020558255, 1290 503.469020558255 C 1286.6666666666667 503.469020558255, 1283.3333333333333 526.5557313434847, 1280 526.5557313434847 C 1276.6666666666667 526.5557313434847, 1273.3333333333333 513.6008819909239, 1270 513.6008819909239 C 1266.6666666666667 513.6008819909239, 1263.3333333333333 517.3364358309278, 1260 517.3364358309278 C 1256.6666666666667 517.3364358309278, 1253.3333333333333 513.3313261761672, 1250 513.3313261761672 C 1246.6666666666667 513.3313261761672, 1243.3333333333333 523.8934091469815, 1240 523.8934091469815 C 1236.6666666666667 523.8934091469815, 1233.3333333333333 514.5664205865799, 1230 514.5664205865799 C 1226.6666666666667 514.5664205865799, 1223.3333333333333 519.7750196823544, 1220 519.7750196823544 C 1216.6666666666667 519.7750196823544, 1213.3333333333333 517.0861329896597, 1210 516.7907513885714 C 1206.6666666666667 516.4953697874832, 1203.3333333333333 516.5954923182946, 1200 516.2704267161894 C 1196.6666666666667 515.9453611140841, 1193.3333333333333 508.5179549132213, 1190 508.5179549132213 C 1186.6666666666667 508.5179549132213, 1183.3333333333333 519.0258039969283, 1180 519.0258039969283 C 1176.6666666666667 519.0258039969283, 1173.3333333333333 509.4770715477436, 1170 509.4770715477436 C 1166.6666666666667 509.4770715477436, 1163.3333333333333 515.9790899099511, 1160 515.9790899099511 C 1156.6666666666667 515.9790899099511, 1153.3333333333333 514.1831498986621, 1150 512.73796291534 C 1146.6666666666667 511.2927759320177, 1143.3333333333333 506.192032325938, 1140 506.192032325938 C 1136.6666666666667 506.192032325938, 1133.3333333333333 528.6506905638688, 1130 528.6506905638688 C 1126.6666666666667 528.6506905638688, 1123.3333333333333 503.09575397460037, 1120 503.09575397460037 C 1116.6666666666667 503.09575397460037, 1113.3333333333333 519.8420365616204, 1110 519.8420365616204 C 1106.6666666666667 519.8420365616204, 1103.3333333333333 516.1726751129133, 1100 516.1726751129133 C 1096.6666666666667 516.1726751129133, 1093.3333333333333 527.1798043025404, 1090 527.1798043025404 C 1086.6666666666667 527.1798043025404, 1083.3333333333333 519.441450193611, 1080 519.441450193611 C 1076.6666666666667 519.441450193611, 1073.3333333333333 523.9543311381796, 1070 523.9543311381796 C 1066.6666666666667 523.9543311381796, 1063.3333333333333 512.074897947688, 1060 512.074897947688 C 1056.6666666666667 512.074897947688, 1053.3333333333333 523.7002188431208, 1050 523.7002188431208 C 1046.6666666666667 523.7002188431208, 1043.3333333333333 511.3270051670793, 1040 511.3270051670793 C 1036.6666666666667 511.3270051670793, 1033.3333333333333 514.2266879300482, 1030 514.2266879300482 C 1026.6666666666667 514.2266879300482, 1023.3333333333334 498.56684842964034, 1020 498.56684842964034 C 1016.6666666666666 498.56684842964034, 1013.3333333333334 518.1164881986149, 1010 518.5194190989397 C 1006.6666666666666 518.9223499992645, 1003.3333333333334 518.7539333859306, 1000 519.1426955226816 C 996.6666666666666 519.5314576594326, 993.3333333333334 528.1990190362344, 990 528.1990190362344 C 986.6666666666666 528.1990190362344, 983.3333333333334 523.6311991183586, 980 521.1839831209463 C 976.6666666666666 518.7367671235343, 973.3333333333334 513.4838245203923, 970 513.4838245203923 C 966.6666666666666 513.4838245203923, 963.3333333333334 527.1883075709391, 960 527.1883075709391 C 956.6666666666666 527.1883075709391, 953.3333333333334 502.4831562840272, 950 502.4831562840272 C 946.6666666666666 502.4831562840272, 943.3333333333334 514.0874033936209, 940 514.0874033936209 C 936.6666666666666 514.0874033936209, 933.3333333333334 502.65347732806913, 930 502.65347732806913 C 926.6666666666666 502.65347732806913, 923.3333333333334 512.9717423808914, 920 512.9717423808914 C 916.6666666666666 512.9717423808914, 913.3333333333334 505.46683409290756, 910 505.46683409290756 C 906.6666666666666 505.46683409290756, 903.3333333333334 518.7715002370184, 900 518.7715002370184 C 896.6666666666666 518.7715002370184, 893.3333333333334 509.7079318216911, 890 509.7079318216911 C 886.6666666666666 509.7079318216911, 883.3333333333334 516.365393644005, 880 516.365393644005 C 876.6666666666666 516.365393644005, 873.3333333333334 496.5214430130264, 870 496.5214430130264 C 866.6666666666666 496.5214430130264, 863.3333333333334 508.06444954075243, 860 508.06444954075243 C 856.6666666666666 508.06444954075243, 853.3333333333334 500.8044741346898, 850 500.8044741346898 C 846.6666666666666 500.8044741346898, 843.3333333333334 515.0277717242675, 840 515.0277717242675 C 836.6666666666666 515.0277717242675, 833.3333333333334 504.6499538246291, 830 503.9476571436813 C 826.6666666666666 503.24536046273346, 823.3333333333334 502.78353265819527, 820 502.78353265819527 C 816.6666666666666 502.78353265819527, 813.3333333333334 518.5640287950528, 810 518.5640287950528 C 806.6666666666666 518.5640287950528, 803.3333333333334 494.082231017488, 800 494.082231017488 C 796.6666666666666 494.082231017488, 793.3333333333334 519.1213427008777, 790 519.1213427008777 C 786.6666666666666 519.1213427008777, 783.3333333333334 501.75191033753623, 780 500.01771548503507 C 776.6666666666666 498.2835206325339, 773.3333333333334 497.0063768979706, 770 497.0063768979706 C 766.6666666666666 497.0063768979706, 763.3333333333334 498.8936029347195, 760 500.7721932880954 C 756.6666666666666 502.6507836414713, 753.3333333333334 511.96672230039854, 750 511.96672230039854 C 746.6666666666666 511.96672230039854, 743.3333333333334 501.49003637173485, 740 501.49003637173485 C 736.6666666666666 501.49003637173485, 733.3333333333334 512.7490948944034, 730 512.7490948944034 C 726.6666666666666 512.7490948944034, 723.3333333333334 507.9379762222518, 720 506.90901152333754 C 716.6666666666666 505.8800468244233, 713.3333333333334 506.00554141696347, 710 504.81112406804976 C 706.6666666666666 503.61670671913606, 703.3333333333334 492.5385054249938, 700 492.5385054249938 C 696.6666666666666 492.5385054249938, 693.3333333333334 509.080587616287, 690 509.080587616287 C 686.6666666666666 509.080587616287, 683.3333333333334 499.38516661450296, 680 499.38516661450296 C 676.6666666666666 499.38516661450296, 673.3333333333334 506.8241377924677, 670 506.8241377924677 C 666.6666666666666 506.8241377924677, 663.3333333333334 504.4832094502128, 660 502.8768165410727 C 656.6666666666666 501.27042363193254, 653.3333333333334 496.6914578457875, 650 496.6914578457875 C 646.6666666666666 496.6914578457875, 643.3333333333334 516.7796715793781, 640 516.7796715793781 C 636.6666666666666 516.7796715793781, 633.3333333333334 489.1739220469143, 630 489.1739220469143 C 626.6666666666666 489.1739220469143, 623.3333333333334 514.3565937985836, 620 514.3565937985836 C 616.6666666666666 514.3565937985836, 613.3333333333334 495.69777383059767, 610 495.69777383059767 C 606.6666666666666 495.69777383059767, 603.3333333333334 515.2034347502772, 600 515.2034347502772 C 596.6666666666666 515.2034347502772, 593.3333333333334 503.63820934954, 590 503.63820934954 C 586.6666666666666 503.63820934954, 583.3333333333334 504.21426744696305, 580 504.2411850854317 C 576.6666666666666 504.26810272390037, 573.3333333333334 504.256446353928, 570 504.2844592687448 C 566.6666666666666 504.31247218356157, 563.3333333333334 505.73356506150185, 560 505.73356506150185 C 556.6666666666666 505.73356506150185, 553.3333333333334 496.2496419833509, 550 494.5570561961769 C 546.6666666666666 492.86447040900293, 543.3333333333334 492.8719627191875, 540 491.2719190141962 C 536.6666666666666 489.67187530920495, 533.3333333333334 482.363550037165, 530 482.363550037165 C 526.6666666666666 482.363550037165, 523.3333333333334 486.82235618262564, 520 486.82235618262564 C 516.6666666666666 486.82235618262564, 513.3333333333334 473.66834578603005, 510 473.66834578603005 C 506.6666666666667 473.66834578603005, 503.3333333333333 475.3634097492908, 500 476.84680612467156 C 496.6666666666667 478.33020250005234, 493.3333333333333 481.127323193704, 490 484.26512866117935 C 486.6666666666667 487.4029341286547, 483.3333333333333 497.141546619056, 480 497.141546619056 C 476.6666666666667 497.141546619056, 473.3333333333333 493.0995787365125, 470 493.0995787365125 C 466.6666666666667 493.0995787365125, 463.3333333333333 493.4598202827766, 460 493.4598202827766 C 456.6666666666667 493.4598202827766, 453.3333333333333 490.51743088297843, 450 488.1782821450651 C 446.6666666666667 485.8391334071518, 443.3333333333333 477.72515839486374, 440 477.72515839486374 C 436.6666666666667 477.72515839486374, 433.3333333333333 505.6001502005, 430 505.6001502005 C 426.6666666666667 505.6001502005, 423.3333333333333 502.19853994908203, 420 502.19853994908203 C 416.6666666666667 502.19853994908203, 413.3333333333333 509.3622297316126, 410 509.3622297316126 C 406.6666666666667 509.3622297316126, 403.3333333333333 499.96665074149956, 400 499.96665074149956 C 396.6666666666667 499.96665074149956, 393.3333333333333 511.46341312062873, 390 511.46341312062873 C 386.6666666666667 511.46341312062873, 383.3333333333333 491.4496593947756, 380 491.4496593947756 C 376.6666666666667 491.4496593947756, 373.3333333333333 508.2359005000727, 370 508.2359005000727 C 366.6666666666667 508.2359005000727, 363.3333333333333 500.3514640395054, 360 500.3514640395054 C 356.6666666666667 500.3514640395054, 353.3333333333333 512.1003388552577, 350 512.1003388552577 C 346.6666666666667 512.1003388552577, 343.3333333333333 504.7684638438044, 340 503.0493169867815 C 336.6666666666667 501.3301701297586, 333.3333333333333 499.4431726503419, 330 499.4431726503419 C 326.6666666666667 499.4431726503419, 323.3333333333333 511.16494443654983, 320 511.16494443654983 C 316.6666666666667 511.16494443654983, 313.3333333333333 488.67897049578164, 310 488.67897049578164 C 306.6666666666667 488.67897049578164, 303.3333333333333 517.3636473088478, 300 517.3636473088478 C 296.6666666666667 517.3636473088478, 293.3333333333333 494.66593303528276, 290 494.66593303528276 C 286.6666666666667 494.66593303528276, 283.3333333333333 510.60651351597636, 280 510.60651351597636 C 276.6666666666667 510.60651351597636, 273.3333333333333 503.65812483446257, 270 503.65812483446257 C 266.6666666666667 503.65812483446257, 263.3333333333333 516.6490470063633, 260 516.6490470063633 C 256.6666666666667 516.6490470063633, 253.33333333333334 510.15835984617416, 250 510.15835984617416 C 246.66666666666666 510.15835984617416, 243.33333333333334 513.6527171757634, 240 513.6527171757634 C 236.66666666666666 513.6527171757634, 233.33333333333334 506.92621317271244, 230 506.92621317271244 C 226.66666666666666 506.92621317271244, 223.33333333333334 508.51909546551553, 220 508.51909546551553 C 216.66666666666666 508.51909546551553, 213.33333333333334 499.8187762708628, 210 499.8187762708628 C 206.66666666666666 499.8187762708628, 203.33333333333334 505.9980354423701, 200 505.9980354423701 C 196.66666666666666 505.9980354423701, 193.33333333333334 502.84504781008525, 190 500.51093932843975 C 186.66666666666666 498.17683084679425, 183.33333333333334 496.3439066328005, 180 490.83729344923483 C 176.66666666666666 485.3306802656692, 173.33333333333334 434.317477708832, 170 434.317477708832 C 166.66666666666666 434.317477708832, 163.33333333333334 449.07442111011324, 160 449.07442111011324 C 156.66666666666666 449.07442111011324, 153.33333333333334 445.9301617625529, 150 445.9301617625529 C 146.66666666666666 445.9301617625529, 143.33333333333334 456.46419688423185, 140 456.46419688423185 C 136.66666666666666 456.46419688423185, 133.33333333333334 441.2210332061066, 130 441.2210332061066 C 126.66666666666667 441.2210332061066, 123.33333333333333 446.7892777579436, 120 448.4347078783634 C 116.66666666666667 450.0801379987832, 113.33333333333333 451.11091345059674, 110 452.18653291883044 C 106.66666666666667 453.26215238706413, 103.33333333333333 455.0173016542071, 100 455.0173016542071 C 96.66666666666667 455.0173016542071, 93.33333333333333 435.8206856613031, 90 432.6811433022817 C 86.66666666666667 429.54160094326033, 83.33333333333333 427.11441949666937, 80 426.71365598171514 C 76.66666666666667 426.3128924667609, 73.33333333333333 426.45781484765536, 70 426.04516956044813 C 66.66666666666667 425.6325242732409, 63.333333333333336 417.6892674896249, 60 417.6892674896249 C 56.666666666666664 417.6892674896249, 53.333333333333336 418.1475677133455, 50 418.54508048402033 C 46.666666666666664 418.94259325469517, 43.333333333333336 419.42940725262315, 40 420.5112026430028 C 36.666666666666664 421.5929980333824, 33.333333333333336 429.8010766803373, 30 429.8010766803373 C 26.666666666666668 429.8010766803373, 23.333333333333332 416.8884612667478, 20 416.8884612667478 C 16.666666666666668 416.8884612667478, 13.333333333333334 432.47469976728985, 10 432.47469976728985 C 3.3333333333333335 418.8350563004019, 6.666666666666666 432.47469976728985, 10 432.47469976728985 Z" fill="white" stroke="transparent" stroke-width="0" />
  </g>
</svg>