<svg 
  baseProfile="tiny"
  preserveAspectRatio="keep"
  version="1.2"
  viewBox="-0.000000 -0.000000 2010.000000 800.000000"
  height="100%" width="100%"
  xmlns="http://www.w3.org/2000/svg"
  xmlns:ev="http://www.w3.org/2001/xml-events"
  xmlns:xlink="http://www.w3.org/1999/xlink"
>
  <g style="transform-origin: center center;">
    <path d="M 0 400 C 3.3333333333333335 386.83686000127904, 6.666666666666666 375.3277933804993, 10 370.3297079917681 C 13.333333333333334 365.33162260303686, 16.666666666666668 361.28283125719537, 20 360.29767195939826 C 23.333333333333332 359.31251266160115, 26.666666666666668 358.5646563520126, 30 358.5646563520126 C 33.333333333333336 358.5646563520126, 36.666666666666664 366.13643114666127, 40 366.13643114666127 C 43.333333333333336 366.13643114666127, 46.666666666666664 361.1125169450699, 50 361.1125169450699 C 53.333333333333336 361.1125169450699, 56.666666666666664 365.04323161197476, 60 365.04323161197476 C 63.333333333333336 365.04323161197476, 66.66666666666667 348.83579484084567, 70 333.6261971987304 C 73.33333333333333 318.4165995566151, 76.66666666666667 250.3074892674086, 80 250.3074892674086 C 83.33333333333333 250.3074892674086, 86.66666666666667 266.33449874417914, 90 266.33449874417914 C 93.33333333333333 266.33449874417914, 96.66666666666667 253.65418141329786, 100 253.65418141329786 C 103.33333333333333 253.65418141329786, 106.66666666666667 263.1030382012407, 110 263.1030382012407 C 113.33333333333333 263.1030382012407, 116.66666666666667 259.8987338459186, 120 259.56534507729526 C 123.33333333333333 259.2319563086719, 126.66666666666667 258.9829330005563, 130 258.9829330005563 C 133.33333333333334 258.9829330005563, 136.66666666666666 267.94301884975596, 140 267.94301884975596 C 143.33333333333334 267.94301884975596, 146.66666666666666 258.3526131723339, 150 258.3526131723339 C 153.33333333333334 258.3526131723339, 156.66666666666666 264.73908404763097, 160 268.0349350943078 C 163.33333333333334 271.3307861409846, 166.66666666666666 278.13660822515897, 170 278.13660822515897 C 173.33333333333334 278.13660822515897, 176.66666666666666 268.32157443606695, 180 268.32157443606695 C 183.33333333333334 268.32157443606695, 186.66666666666666 273.47914295921026, 190 273.47914295921026 C 193.33333333333334 273.47914295921026, 196.66666666666666 265.6828979823829, 200 265.6828979823829 C 203.33333333333334 265.6828979823829, 206.66666666666666 276.1227319294063, 210 276.1227319294063 C 213.33333333333334 276.1227319294063, 216.66666666666666 269.6672377039207, 220 268.7095384685093 C 223.33333333333334 267.75183923309794, 226.66666666666666 266.9277001188902, 230 266.9277001188902 C 233.33333333333334 266.9277001188902, 236.66666666666666 271.95311027311175, 240 272.9232625697492 C 243.33333333333334 273.8934148663867, 246.66666666666666 274.8449082043343, 250 274.8449082043343 C 253.33333333333334 274.8449082043343, 256.6666666666667 265.961576006068, 260 265.961576006068 C 263.3333333333333 265.961576006068, 266.6666666666667 271.26278157942085, 270 272.3375259169753 C 273.3333333333333 273.4122702545298, 276.6666666666667 274.4951945888153, 280 274.4951945888153 C 283.3333333333333 274.4951945888153, 286.6666666666667 274.46471174945947, 290 274.40769316880596 C 293.3333333333333 274.35067458815246, 296.6666666666667 270.61563629524005, 300 270.61563629524005 C 303.3333333333333 270.61563629524005, 306.6666666666667 270.9470215536225, 310 271.37337693017923 C 313.3333333333333 271.79973230673596, 316.6666666666667 275.472946781636, 320 275.472946781636 C 323.3333333333333 275.472946781636, 326.6666666666667 268.5667407055162, 330 268.5667407055162 C 333.3333333333333 268.5667407055162, 336.6666666666667 269.8917653079448, 340 270.83382082286994 C 343.3333333333333 271.77587633779507, 346.6666666666667 274.40846076247516, 350 274.5850911113716 C 353.3333333333333 274.761721460268, 356.6666666666667 274.87017134248697, 360 274.87017134248697 C 363.3333333333333 274.87017134248697, 366.6666666666667 271.1544344914324, 370 271.1544344914324 C 373.3333333333333 271.1544344914324, 376.6666666666667 273.0771581040638, 380 274.0798087110725 C 383.3333333333333 275.08245931808113, 386.6666666666667 277.1751355644417, 390 277.1751355644417 C 393.3333333333333 277.1751355644417, 396.6666666666667 275.6207396709783, 400 275.6207396709783 C 403.3333333333333 275.6207396709783, 406.6666666666667 276.1555011491157, 410 276.6114953558976 C 413.3333333333333 277.0674895626795, 416.6666666666667 277.5345781443303, 420 278.8205793786082 C 423.3333333333333 280.10658061288615, 426.6666666666667 292.8153608421042, 430 294.03513998437955 C 433.3333333333333 295.2549191266549, 436.6666666666667 296.1149181217435, 440 296.1149181217435 C 443.3333333333333 296.1149181217435, 446.6666666666667 284.23816400382077, 450 283.4750415959558 C 453.3333333333333 282.71191918809086, 456.6666666666667 282.2163711567148, 460 282.2163711567148 C 463.3333333333333 282.2163711567148, 466.6666666666667 286.5729975772168, 470 286.5729975772168 C 473.3333333333333 286.5729975772168, 476.6666666666667 279.6217948203182, 480 279.6217948203182 C 483.3333333333333 279.6217948203182, 486.6666666666667 283.642289431702, 490 284.0276682719019 C 493.3333333333333 284.4130471121018, 496.6666666666667 284.6930353619142, 500 284.6930353619142 C 503.3333333333333 284.6930353619142, 506.6666666666667 282.63604707785476, 510 282.63604707785476 C 513.3333333333334 282.63604707785476, 516.6666666666666 284.59484069555594, 520 284.59484069555594 C 523.3333333333334 284.59484069555594, 526.6666666666666 280.5829180493945, 530 280.5829180493945 C 533.3333333333334 280.5829180493945, 536.6666666666666 288.1475173415091, 540 288.1475173415091 C 543.3333333333334 288.1475173415091, 546.6666666666666 280.96051514405707, 550 280.96051514405707 C 553.3333333333334 280.96051514405707, 556.6666666666666 283.60426474523746, 560 283.60426474523746 C 563.3333333333334 283.60426474523746, 566.6666666666666 282.4153251488575, 570 282.4153251488575 C 573.3333333333334 282.4153251488575, 576.6666666666666 287.1318352258521, 580 287.1318352258521 C 583.3333333333334 287.1318352258521, 586.6666666666666 278.31047452414066, 590 278.31047452414066 C 593.3333333333334 278.31047452414066, 596.6666666666666 283.21724456779197, 600 283.21724456779197 C 603.3333333333334 283.21724456779197, 606.6666666666666 282.95965275865825, 610 282.8280106058234 C 613.3333333333334 282.69636845298857, 616.6666666666666 282.42722267548424, 620 282.42722267548424 C 623.3333333333334 282.42722267548424, 626.6666666666666 283.54754352158636, 630 283.54754352158636 C 633.3333333333334 283.54754352158636, 636.6666666666666 279.1460402376424, 640 279.1460402376424 C 643.3333333333334 279.1460402376424, 646.6666666666666 287.48891578878136, 650 287.48891578878136 C 653.3333333333334 287.48891578878136, 656.6666666666666 279.8378113503701, 660 279.8378113503701 C 663.3333333333334 279.8378113503701, 666.6666666666666 282.84766039330066, 670 282.84766039330066 C 673.3333333333334 282.84766039330066, 676.6666666666666 281.7691320942308, 680 281.7691320942308 C 683.3333333333334 281.7691320942308, 686.6666666666666 284.2306039925926, 690 284.2306039925926 C 693.3333333333334 284.2306039925926, 696.6666666666666 279.2584154978853, 700 279.2584154978853 C 703.3333333333334 279.2584154978853, 706.6666666666666 284.72104926589043, 710 284.72104926589043 C 713.3333333333334 284.72104926589043, 716.6666666666666 283.9568003298696, 720 283.4216076028761 C 723.3333333333334 282.8864148758826, 726.6666666666666 281.3211904329927, 730 281.3211904329927 C 733.3333333333334 281.3211904329927, 736.6666666666666 282.23189351738904, 740 282.23189351738904 C 743.3333333333334 282.23189351738904, 746.6666666666666 279.108909273051, 750 279.108909273051 C 753.3333333333334 279.108909273051, 756.6666666666666 284.6659094030019, 760 284.6659094030019 C 763.3333333333334 284.6659094030019, 766.6666666666666 278.8194056043676, 770 278.8194056043676 C 773.3333333333334 278.8194056043676, 776.6666666666666 281.74830074802685, 780 281.74830074802685 C 783.3333333333334 281.74830074802685, 786.6666666666666 281.03833537471246, 790 281.03833537471246 C 793.3333333333334 281.03833537471246, 796.6666666666666 282.59261989000777, 800 282.59261989000777 C 803.3333333333334 282.59261989000777, 806.6666666666666 280.6574475025712, 810 280.6574475025712 C 813.3333333333334 280.6574475025712, 816.6666666666666 284.58133940990797, 820 284.58133940990797 C 823.3333333333334 284.58133940990797, 826.6666666666666 282.5055298710877, 830 282.5055298710877 C 833.3333333333334 282.5055298710877, 836.6666666666666 283.13782933339496, 840 283.13782933339496 C 843.3333333333334 283.13782933339496, 846.6666666666666 279.2905393311425, 850 279.2905393311425 C 853.3333333333334 279.2905393311425, 856.6666666666666 279.3055605020702, 860 279.3350770059107 C 863.3333333333334 279.3645935097512, 866.6666666666666 286.8350850559561, 870 286.8350850559561 C 873.3333333333334 286.8350850559561, 876.6666666666666 279.4557434494686, 880 278.48376768706663 C 883.3333333333334 277.51179192466464, 886.6666666666666 276.71744064434336, 890 276.71744064434336 C 893.3333333333334 276.71744064434336, 896.6666666666666 277.0315457823279, 900 277.4688125494239 C 903.3333333333334 277.9060793165199, 906.6666666666666 282.6308099238376, 910 282.6308099238376 C 913.3333333333334 282.6308099238376, 916.6666666666666 276.7778755975298, 920 276.7778755975298 C 923.3333333333334 276.7778755975298, 926.6666666666666 280.1324701144881, 930 280.73982600316947 C 933.3333333333334 281.3471818918508, 936.6666666666666 281.92290354015904, 940 281.92290354015904 C 943.3333333333334 281.92290354015904, 946.6666666666666 279.4149906020182, 950 279.4149906020182 C 953.3333333333334 279.4149906020182, 956.6666666666666 279.60182865702654, 960 279.84462144915415 C 963.3333333333334 280.08741424128175, 966.6666666666666 282.2355588423053, 970 282.2355588423053 C 973.3333333333334 282.2355588423053, 976.6666666666666 281.66226304462174, 980 281.1647176090172 C 983.3333333333334 280.66717217341267, 986.6666666666666 278.96175802221563, 990 278.70206302028384 C 993.3333333333334 278.44236801835206, 996.6666666666666 278.2393245900648, 1000 278.2393245900648 C 1003.3333333333334 278.2393245900648, 1006.6666666666666 285.59423747188066, 1010 285.59423747188066 C 1013.3333333333334 285.59423747188066, 1016.6666666666666 285.2487841101763, 1020 284.68292425421254 C 1023.3333333333334 284.1170643982488, 1026.6666666666667 272.3113492609908, 1030 272.3113492609908 C 1033.3333333333333 272.3113492609908, 1036.6666666666667 284.4435876456807, 1040 284.4435876456807 C 1043.3333333333333 284.4435876456807, 1046.6666666666667 283.20726411597815, 1050 282.0860287191991 C 1053.3333333333333 280.96479332242, 1056.6666666666667 276.44993569918165, 1060 276.21799030100095 C 1063.3333333333333 275.98604490282025, 1066.6666666666667 275.84814387692336, 1070 275.84814387692336 C 1073.3333333333333 275.84814387692336, 1076.6666666666667 278.3419440352872, 1080 279.9864366428819 C 1083.3333333333333 281.63092925047664, 1086.6666666666667 286.0933818451767, 1090 286.0933818451767 C 1093.3333333333333 286.0933818451767, 1096.6666666666667 276.881471521351, 1100 276.881471521351 C 1103.3333333333333 276.881471521351, 1106.6666666666667 286.22287710866954, 1110 286.22287710866954 C 1113.3333333333333 286.22287710866954, 1116.6666666666667 284.2444415648146, 1120 283.181515880613 C 1123.3333333333333 282.1185901964114, 1126.6666666666667 279.8303044579813, 1130 279.8303044579813 C 1133.3333333333333 279.8303044579813, 1136.6666666666667 281.10972412137164, 1140 281.5715125963181 C 1143.3333333333333 282.03330107126453, 1146.6666666666667 282.15625380319034, 1150 282.72179922393656 C 1153.3333333333333 283.2873446446828, 1156.6666666666667 284.0434346886305, 1160 285.95329195746916 C 1163.3333333333333 287.8631492263078, 1166.6666666666667 311.19834894910645, 1170 311.19834894910645 C 1173.3333333333333 311.19834894910645, 1176.6666666666667 281.4579758205907, 1180 281.4579758205907 C 1183.3333333333333 281.4579758205907, 1186.6666666666667 281.9685771544281, 1190 282.61988535379965 C 1193.3333333333333 283.2711935531712, 1196.6666666666667 288.75753760941416, 1200 288.75753760941416 C 1203.3333333333333 288.75753760941416, 1206.6666666666667 283.29555820597346, 1210 283.29555820597346 C 1213.3333333333333 283.29555820597346, 1216.6666666666667 284.4832561239233, 1220 284.4832561239233 C 1223.3333333333333 284.4832561239233, 1226.6666666666667 280.60802889057436, 1230 280.60802889057436 C 1233.3333333333333 280.60802889057436, 1236.6666666666667 286.872448435052, 1240 286.872448435052 C 1243.3333333333333 286.872448435052, 1246.6666666666667 279.7609951680708, 1250 279.7609951680708 C 1253.3333333333333 279.7609951680708, 1256.6666666666667 281.2732546394776, 1260 282.03229974753026 C 1263.3333333333333 282.7913448555829, 1266.6666666666667 283.52785051487103, 1270 284.31529583004925 C 1273.3333333333333 285.10274114522747, 1276.6666666666667 286.7626847020145, 1280 286.7626847020145 C 1283.3333333333333 286.7626847020145, 1286.6666666666667 280.8628503395635, 1290 280.8628503395635 C 1293.3333333333333 280.8628503395635, 1296.6666666666667 281.9192776968433, 1300 282.7745506706368 C 1303.3333333333333 283.6298236444303, 1306.6666666666667 286.67495469406754, 1310 286.67495469406754 C 1313.3333333333333 286.67495469406754, 1316.6666666666667 280.9802851767715, 1320 280.9802851767715 C 1323.3333333333333 280.9802851767715, 1326.6666666666667 282.84159990989133, 1330 282.84159990989133 C 1333.3333333333333 282.84159990989133, 1336.6666666666667 280.8578092511866, 1340 280.8578092511866 C 1343.3333333333333 280.8578092511866, 1346.6666666666667 287.5423114024454, 1350 287.5423114024454 C 1353.3333333333333 287.5423114024454, 1356.6666666666667 280.12412860291545, 1360 280.12412860291545 C 1363.3333333333333 280.12412860291545, 1366.6666666666667 283.22092817069574, 1370 283.22092817069574 C 1373.3333333333333 283.22092817069574, 1376.6666666666667 281.5649617699313, 1380 281.5649617699313 C 1383.3333333333333 281.5649617699313, 1386.6666666666667 284.65757152550583, 1390 284.65757152550583 C 1393.3333333333333 284.65757152550583, 1396.6666666666667 276.83567533522626, 1400 276.83567533522626 C 1403.3333333333333 276.83567533522626, 1406.6666666666667 285.15850221327537, 1410 285.15850221327537 C 1413.3333333333333 285.15850221327537, 1416.6666666666667 279.6065020696721, 1420 279.6065020696721 C 1423.3333333333333 279.6065020696721, 1426.6666666666667 280.92938609119466, 1430 281.9470646145784 C 1433.3333333333333 282.9647431379621, 1436.6666666666667 286.3361480264341, 1440 286.3361480264341 C 1443.3333333333333 286.3361480264341, 1446.6666666666667 286.2668602931923, 1450 286.1588889193297 C 1453.3333333333333 286.0509175454671, 1456.6666666666667 285.1575024945203, 1460 284.2827761823131 C 1463.3333333333333 283.4080498701059, 1466.6666666666667 279.918368009488, 1470 279.918368009488 C 1473.3333333333333 279.918368009488, 1476.6666666666667 281.95497829414944, 1480 281.95497829414944 C 1483.3333333333333 281.95497829414944, 1486.6666666666667 279.51507985888503, 1490 279.51507985888503 C 1493.3333333333333 279.51507985888503, 1496.6666666666667 285.47080331655343, 1500 285.47080331655343 C 1503.3333333333333 285.47080331655343, 1506.6666666666667 278.901928996641, 1510 278.901928996641 C 1513.3333333333333 278.901928996641, 1516.6666666666667 283.5281047638943, 1520 283.5736683235361 C 1523.3333333333333 283.61923188317786, 1526.6666666666667 283.64302836767945, 1530 283.64302836767945 C 1533.3333333333333 283.64302836767945, 1536.6666666666667 281.30582093477506, 1540 281.30582093477506 C 1543.3333333333333 281.30582093477506, 1546.6666666666667 282.6199555499884, 1550 282.6199555499884 C 1553.3333333333333 282.6199555499884, 1556.6666666666667 281.811019145672, 1560 281.4931800356243 C 1563.3333333333333 281.17534092557656, 1566.6666666666667 281.0676829713468, 1570 280.66673993542037 C 1573.3333333333333 280.2657968994939, 1576.6666666666667 278.4579547004914, 1580 278.4579547004914 C 1583.3333333333333 278.4579547004914, 1586.6666666666667 286.63530779678234, 1590 286.63530779678234 C 1593.3333333333333 286.63530779678234, 1596.6666666666667 281.3547806937057, 1600 281.3547806937057 C 1603.3333333333333 281.3547806937057, 1606.6666666666667 282.6784955316309, 1610 284.6497453794749 C 1613.3333333333333 286.6209952273189, 1616.6666666666667 304.12386417459896, 1620 313.46692551315545 C 1623.3333333333333 322.8099868517119, 1626.6666666666667 336.2951943222294, 1630 340.7500613375359 C 1633.3333333333333 345.2049283528424, 1636.6666666666667 349.5999021386351, 1640 349.5999021386351 C 1643.3333333333333 349.5999021386351, 1646.6666666666667 346.34197128095667, 1650 346.34197128095667 C 1653.3333333333333 346.34197128095667, 1656.6666666666667 348.20765402400707, 1660 348.856350642586 C 1663.3333333333333 349.5050472611649, 1666.6666666666667 349.528543315065, 1670 350.44367914896384 C 1673.3333333333333 351.35881498286267, 1676.6666666666667 360.59596465375785, 1680 360.59596465375785 C 1683.3333333333333 360.59596465375785, 1686.6666666666667 360.52917618078817, 1690 360.4439871262535 C 1693.3333333333333 360.3587980717188, 1696.6666666666667 360.11536388250073, 1700 359.64129735184093 C 1703.3333333333333 359.16723082118114, 1706.6666666666667 354.44962202245, 1710 353.40925597944823 C 1713.3333333333333 352.36888993644646, 1716.6666666666667 351.3273931200781, 1720 351.3273931200781 C 1723.3333333333333 351.3273931200781, 1726.6666666666667 352.41711744942955, 1730 352.8491196954174 C 1733.3333333333333 353.2811219414053, 1736.6666666666667 353.4264927399015, 1740 353.9777196230762 C 1743.3333333333333 354.5289465062509, 1746.6666666666667 357.0701545340251, 1750 357.0701545340251 C 1753.3333333333333 357.0701545340251, 1756.6666666666667 355.3272850702353, 1760 354.3545867274076 C 1763.3333333333333 353.3818883845799, 1766.6666666666667 352.2036891927234, 1770 351.20132093294325 C 1773.3333333333333 350.1989526731631, 1776.6666666666667 348.3274276210779, 1780 348.3274276210779 C 1783.3333333333333 348.3274276210779, 1786.6666666666667 352.1193331872036, 1790 353.6557281161031 C 1793.3333333333333 355.1921230450026, 1796.6666666666667 356.6321651239795, 1800 357.7168214417147 C 1803.3333333333333 358.80147775944994, 1806.6666666666667 360.43129980265417, 1810 360.43129980265417 C 1813.3333333333333 360.43129980265417, 1816.6666666666667 360.3198224344561, 1820 360.1312053419101 C 1823.3333333333333 359.9425882493641, 1826.6666666666667 356.4923669189885, 1830 355.18593784582066 C 1833.3333333333333 353.8795087726528, 1836.6666666666667 351.94006287423724, 1840 351.94006287423724 C 1843.3333333333333 351.94006287423724, 1846.6666666666667 355.8111220189681, 1850 356.4148163708755 C 1853.3333333333333 357.0185107227829, 1856.6666666666667 356.9115901448879, 1860 357.55010201756573 C 1863.3333333333333 358.1886138902436, 1866.6666666666667 363.6753458842609, 1870 363.6753458842609 C 1873.3333333333333 363.6753458842609, 1876.6666666666667 358.4184089139663, 1880 356.5995378928621 C 1883.3333333333333 354.7806668717579, 1886.6666666666667 353.5697392550641, 1890 352.15906252133163 C 1893.3333333333333 350.74838578759915, 1896.6666666666667 348.39856681295885, 1900 348.11678524195753 C 1903.3333333333333 347.8350036709562, 1906.6666666666667 347.6447561394134, 1910 347.6447561394134 C 1913.3333333333333 347.6447561394134, 1916.6666666666667 351.4106690612675, 1920 354.2561900287991 C 1923.3333333333333 357.10171099633067, 1926.6666666666667 366.2995638092806, 1930 366.2995638092806 C 1933.3333333333333 366.2995638092806, 1936.6666666666667 365.51020995566415, 1940 364.52028026236906 C 1943.3333333333333 363.53035056907396, 1946.6666666666667 355.5455958778465, 1950 355.5455958778465 C 1953.3333333333333 355.5455958778465, 1956.6666666666667 357.3340825917664, 1960 359.5974251807751 C 1963.3333333333333 361.86076776978376, 1966.6666666666667 374.35767841749913, 1970 380.540929749086 C 1973.3333333333333 386.72418108067285, 1976.6666666666667 396.8971547869733, 1980 397.18799707421636 C 1983.3333333333333 397.4788393614594, 1986.6666666666667 397.63600118014864, 1990 397.63600118014864 C 1993.3333333333333 397.63600118014864, 1996.6666666666667 394.1966005104303, 2000 394.1966005104303 C 2003.3333333333333 394.1966005104303, 2006.6666666666667 396.5250668102621, 2010 400 c 0 0, 0 0, 0 0C 2006.6666666666667 403.4749331897379, 2003.3333333333333 405.8033994895697, 2000 405.8033994895697 C 1996.6666666666667 405.8033994895697, 1993.3333333333333 402.36399881985136, 1990 402.36399881985136 C 1986.6666666666667 402.36399881985136, 1983.3333333333333 402.5211606385406, 1980 402.81200292578364 C 1976.6666666666667 403.1028452130267, 1973.3333333333333 413.27581891932715, 1970 419.459070250914 C 1966.6666666666667 425.64232158250087, 1963.3333333333333 438.13923223021624, 1960 440.4025748192249 C 1956.6666666666667 442.6659174082336, 1953.3333333333333 444.4544041221535, 1950 444.4544041221535 C 1946.6666666666667 444.4544041221535, 1943.3333333333333 436.46964943092604, 1940 435.47971973763094 C 1936.6666666666667 434.48979004433585, 1933.3333333333333 433.7004361907194, 1930 433.7004361907194 C 1926.6666666666667 433.7004361907194, 1923.3333333333333 442.89828900366933, 1920 445.7438099712009 C 1916.6666666666667 448.5893309387325, 1913.3333333333333 452.3552438605866, 1910 452.3552438605866 C 1906.6666666666667 452.3552438605866, 1903.3333333333333 452.1649963290438, 1900 451.88321475804247 C 1896.6666666666667 451.60143318704115, 1893.3333333333333 449.25161421240085, 1890 447.84093747866837 C 1886.6666666666667 446.4302607449359, 1883.3333333333333 445.2193331282421, 1880 443.4004621071379 C 1876.6666666666667 441.5815910860337, 1873.3333333333333 436.3246541157391, 1870 436.3246541157391 C 1866.6666666666667 436.3246541157391, 1863.3333333333333 441.8113861097564, 1860 442.44989798243427 C 1856.6666666666667 443.0884098551121, 1853.3333333333333 442.9814892772171, 1850 443.5851836291245 C 1846.6666666666667 444.1888779810319, 1843.3333333333333 448.05993712576276, 1840 448.05993712576276 C 1836.6666666666667 448.05993712576276, 1833.3333333333333 446.1204912273472, 1830 444.81406215417934 C 1826.6666666666667 443.5076330810115, 1823.3333333333333 440.0574117506359, 1820 439.8687946580899 C 1816.6666666666667 439.6801775655439, 1813.3333333333333 439.56870019734583, 1810 439.56870019734583 C 1806.6666666666667 439.56870019734583, 1803.3333333333333 441.19852224055006, 1800 442.2831785582853 C 1796.6666666666667 443.3678348760205, 1793.3333333333333 444.8078769549974, 1790 446.3442718838969 C 1786.6666666666667 447.8806668127964, 1783.3333333333333 451.6725723789221, 1780 451.6725723789221 C 1776.6666666666667 451.6725723789221, 1773.3333333333333 449.8010473268369, 1770 448.79867906705675 C 1766.6666666666667 447.7963108072766, 1763.3333333333333 446.6181116154201, 1760 445.6454132725924 C 1756.6666666666667 444.6727149297647, 1753.3333333333333 442.9298454659749, 1750 442.9298454659749 C 1746.6666666666667 442.9298454659749, 1743.3333333333333 445.4710534937491, 1740 446.0222803769238 C 1736.6666666666667 446.5735072600985, 1733.3333333333333 446.7188780585947, 1730 447.1508803045826 C 1726.6666666666667 447.58288255057045, 1723.3333333333333 448.6726068799219, 1720 448.6726068799219 C 1716.6666666666667 448.6726068799219, 1713.3333333333333 447.63111006355354, 1710 446.59074402055177 C 1706.6666666666667 445.55037797755, 1703.3333333333333 440.83276917881886, 1700 440.35870264815907 C 1696.6666666666667 439.88463611749927, 1693.3333333333333 439.6412019282812, 1690 439.5560128737465 C 1686.6666666666667 439.47082381921183, 1683.3333333333333 439.40403534624215, 1680 439.40403534624215 C 1676.6666666666667 439.40403534624215, 1673.3333333333333 448.64118501713733, 1670 449.55632085103616 C 1666.6666666666667 450.471456684935, 1663.3333333333333 450.4949527388351, 1660 451.143649357414 C 1656.6666666666667 451.79234597599293, 1653.3333333333333 453.65802871904333, 1650 453.65802871904333 C 1646.6666666666667 453.65802871904333, 1643.3333333333333 450.4000978613649, 1640 450.4000978613649 C 1636.6666666666667 450.4000978613649, 1633.3333333333333 454.7950716471576, 1630 459.2499386624641 C 1626.6666666666667 463.7048056777706, 1623.3333333333333 477.1900131482881, 1620 486.53307448684455 C 1616.6666666666667 495.87613582540104, 1613.3333333333333 513.3790047726811, 1610 515.3502546205251 C 1606.6666666666667 517.3215044683691, 1603.3333333333333 518.6452193062943, 1600 518.6452193062943 C 1596.6666666666667 518.6452193062943, 1593.3333333333333 513.3646922032176, 1590 513.3646922032176 C 1586.6666666666667 513.3646922032176, 1583.3333333333333 521.5420452995086, 1580 521.5420452995086 C 1576.6666666666667 521.5420452995086, 1573.3333333333333 519.7342031005061, 1570 519.3332600645797 C 1566.6666666666667 518.9323170286532, 1563.3333333333333 518.8246590744234, 1560 518.5068199643757 C 1556.6666666666667 518.1889808543281, 1553.3333333333333 517.3800444500116, 1550 517.3800444500116 C 1546.6666666666667 517.3800444500116, 1543.3333333333333 518.694179065225, 1540 518.694179065225 C 1536.6666666666667 518.694179065225, 1533.3333333333333 516.3569716323206, 1530 516.3569716323206 C 1526.6666666666667 516.3569716323206, 1523.3333333333333 516.3807681168221, 1520 516.4263316764639 C 1516.6666666666667 516.4718952361056, 1513.3333333333333 521.098071003359, 1510 521.098071003359 C 1506.6666666666667 521.098071003359, 1503.3333333333333 514.5291966834466, 1500 514.5291966834466 C 1496.6666666666667 514.5291966834466, 1493.3333333333333 520.484920141115, 1490 520.484920141115 C 1486.6666666666667 520.484920141115, 1483.3333333333333 518.0450217058506, 1480 518.0450217058506 C 1476.6666666666667 518.0450217058506, 1473.3333333333333 520.081631990512, 1470 520.081631990512 C 1466.6666666666667 520.081631990512, 1463.3333333333333 516.591950129894, 1460 515.7172238176869 C 1456.6666666666667 514.8424975054797, 1453.3333333333333 513.9490824545329, 1450 513.8411110806703 C 1446.6666666666667 513.7331397068077, 1443.3333333333333 513.6638519735659, 1440 513.6638519735659 C 1436.6666666666667 513.6638519735659, 1433.3333333333333 517.0352568620378, 1430 518.0529353854216 C 1426.6666666666667 519.0706139088054, 1423.3333333333333 520.3934979303278, 1420 520.3934979303278 C 1416.6666666666667 520.3934979303278, 1413.3333333333333 514.8414977867246, 1410 514.8414977867246 C 1406.6666666666667 514.8414977867246, 1403.3333333333333 523.1643246647737, 1400 523.1643246647737 C 1396.6666666666667 523.1643246647737, 1393.3333333333333 515.3424284744942, 1390 515.3424284744942 C 1386.6666666666667 515.3424284744942, 1383.3333333333333 518.4350382300687, 1380 518.4350382300687 C 1376.6666666666667 518.4350382300687, 1373.3333333333333 516.7790718293043, 1370 516.7790718293043 C 1366.6666666666667 516.7790718293043, 1363.3333333333333 519.8758713970846, 1360 519.8758713970846 C 1356.6666666666667 519.8758713970846, 1353.3333333333333 512.4576885975546, 1350 512.4576885975546 C 1346.6666666666667 512.4576885975546, 1343.3333333333333 519.1421907488134, 1340 519.1421907488134 C 1336.6666666666667 519.1421907488134, 1333.3333333333333 517.1584000901087, 1330 517.1584000901087 C 1326.6666666666667 517.1584000901087, 1323.3333333333333 519.0197148232285, 1320 519.0197148232285 C 1316.6666666666667 519.0197148232285, 1313.3333333333333 513.3250453059325, 1310 513.3250453059325 C 1306.6666666666667 513.3250453059325, 1303.3333333333333 516.3701763555697, 1300 517.2254493293632 C 1296.6666666666667 518.0807223031567, 1293.3333333333333 519.1371496604365, 1290 519.1371496604365 C 1286.6666666666667 519.1371496604365, 1283.3333333333333 513.2373152979856, 1280 513.2373152979856 C 1276.6666666666667 513.2373152979856, 1273.3333333333333 514.8972588547725, 1270 515.6847041699507 C 1266.6666666666667 516.472149485129, 1263.3333333333333 517.2086551444171, 1260 517.9677002524697 C 1256.6666666666667 518.7267453605224, 1253.3333333333333 520.2390048319292, 1250 520.2390048319292 C 1246.6666666666667 520.2390048319292, 1243.3333333333333 513.127551564948, 1240 513.127551564948 C 1236.6666666666667 513.127551564948, 1233.3333333333333 519.3919711094256, 1230 519.3919711094256 C 1226.6666666666667 519.3919711094256, 1223.3333333333333 515.5167438760767, 1220 515.5167438760767 C 1216.6666666666667 515.5167438760767, 1213.3333333333333 516.7044417940265, 1210 516.7044417940265 C 1206.6666666666667 516.7044417940265, 1203.3333333333333 511.24246239058584, 1200 511.24246239058584 C 1196.6666666666667 511.24246239058584, 1193.3333333333333 516.7288064468288, 1190 517.3801146462004 C 1186.6666666666667 518.0314228455719, 1183.3333333333333 518.5420241794093, 1180 518.5420241794093 C 1176.6666666666667 518.5420241794093, 1173.3333333333333 488.80165105089355, 1170 488.80165105089355 C 1166.6666666666667 488.80165105089355, 1163.3333333333333 512.1368507736922, 1160 514.0467080425308 C 1156.6666666666667 515.9565653113696, 1153.3333333333333 516.7126553553172, 1150 517.2782007760634 C 1146.6666666666667 517.8437461968097, 1143.3333333333333 517.9666989287355, 1140 518.4284874036819 C 1136.6666666666667 518.8902758786284, 1133.3333333333333 520.1696955420186, 1130 520.1696955420186 C 1126.6666666666667 520.1696955420186, 1123.3333333333333 517.8814098035887, 1120 516.818484119387 C 1116.6666666666667 515.7555584351853, 1113.3333333333333 513.7771228913305, 1110 513.7771228913305 C 1106.6666666666667 513.7771228913305, 1103.3333333333333 523.1185284786491, 1100 523.1185284786491 C 1096.6666666666667 523.1185284786491, 1093.3333333333333 513.9066181548233, 1090 513.9066181548233 C 1086.6666666666667 513.9066181548233, 1083.3333333333333 518.3690707495234, 1080 520.0135633571181 C 1076.6666666666667 521.6580559647127, 1073.3333333333333 524.1518561230766, 1070 524.1518561230766 C 1066.6666666666667 524.1518561230766, 1063.3333333333333 524.0139550971797, 1060 523.782009698999 C 1056.6666666666667 523.5500643008183, 1053.3333333333333 519.0352066775799, 1050 517.913971280801 C 1046.6666666666667 516.7927358840218, 1043.3333333333333 515.5564123543193, 1040 515.5564123543193 C 1036.6666666666667 515.5564123543193, 1033.3333333333333 527.6886507390092, 1030 527.6886507390092 C 1026.6666666666667 527.6886507390092, 1023.3333333333334 515.8829356017512, 1020 515.3170757457874 C 1016.6666666666666 514.7512158898237, 1013.3333333333334 514.4057625281193, 1010 514.4057625281193 C 1006.6666666666666 514.4057625281193, 1003.3333333333334 521.7606754099352, 1000 521.7606754099352 C 996.6666666666666 521.7606754099352, 993.3333333333334 521.557631981648, 990 521.2979369797162 C 986.6666666666666 521.0382419777843, 983.3333333333334 519.3328278265874, 980 518.8352823909828 C 976.6666666666666 518.3377369553782, 973.3333333333334 517.7644411576947, 970 517.7644411576947 C 966.6666666666666 517.7644411576947, 963.3333333333334 519.9125857587183, 960 520.1553785508459 C 956.6666666666666 520.3981713429735, 953.3333333333334 520.5850093979818, 950 520.5850093979818 C 946.6666666666666 520.5850093979818, 943.3333333333334 518.077096459841, 940 518.077096459841 C 936.6666666666666 518.077096459841, 933.3333333333334 518.6528181081492, 930 519.2601739968305 C 926.6666666666666 519.8675298855119, 923.3333333333334 523.2221244024702, 920 523.2221244024702 C 916.6666666666666 523.2221244024702, 913.3333333333334 517.3691900761623, 910 517.3691900761623 C 906.6666666666666 517.3691900761623, 903.3333333333334 522.0939206834801, 900 522.5311874505761 C 896.6666666666666 522.9684542176722, 893.3333333333334 523.2825593556566, 890 523.2825593556566 C 886.6666666666666 523.2825593556566, 883.3333333333334 522.4882080753354, 880 521.5162323129334 C 876.6666666666666 520.5442565505314, 873.3333333333334 513.1649149440439, 870 513.1649149440439 C 866.6666666666666 513.1649149440439, 863.3333333333334 520.6354064902488, 860 520.6649229940892 C 856.6666666666666 520.6944394979298, 853.3333333333334 520.7094606688574, 850 520.7094606688574 C 846.6666666666666 520.7094606688574, 843.3333333333334 516.862170666605, 840 516.862170666605 C 836.6666666666666 516.862170666605, 833.3333333333334 517.4944701289123, 830 517.4944701289123 C 826.6666666666666 517.4944701289123, 823.3333333333334 515.418660590092, 820 515.418660590092 C 816.6666666666666 515.418660590092, 813.3333333333334 519.3425524974289, 810 519.3425524974289 C 806.6666666666666 519.3425524974289, 803.3333333333334 517.4073801099922, 800 517.4073801099922 C 796.6666666666666 517.4073801099922, 793.3333333333334 518.9616646252875, 790 518.9616646252875 C 786.6666666666666 518.9616646252875, 783.3333333333334 518.2516992519732, 780 518.2516992519732 C 776.6666666666666 518.2516992519732, 773.3333333333334 521.1805943956324, 770 521.1805943956324 C 766.6666666666666 521.1805943956324, 763.3333333333334 515.3340905969981, 760 515.3340905969981 C 756.6666666666666 515.3340905969981, 753.3333333333334 520.891090726949, 750 520.891090726949 C 746.6666666666666 520.891090726949, 743.3333333333334 517.768106482611, 740 517.768106482611 C 736.6666666666666 517.768106482611, 733.3333333333334 518.6788095670073, 730 518.6788095670073 C 726.6666666666666 518.6788095670073, 723.3333333333334 517.1135851241174, 720 516.5783923971239 C 716.6666666666666 516.0431996701304, 713.3333333333334 515.2789507341096, 710 515.2789507341096 C 706.6666666666666 515.2789507341096, 703.3333333333334 520.7415845021146, 700 520.7415845021146 C 696.6666666666666 520.7415845021146, 693.3333333333334 515.7693960074074, 690 515.7693960074074 C 686.6666666666666 515.7693960074074, 683.3333333333334 518.2308679057692, 680 518.2308679057692 C 676.6666666666666 518.2308679057692, 673.3333333333334 517.1523396066993, 670 517.1523396066993 C 666.6666666666666 517.1523396066993, 663.3333333333334 520.1621886496299, 660 520.1621886496299 C 656.6666666666666 520.1621886496299, 653.3333333333334 512.5110842112186, 650 512.5110842112186 C 646.6666666666666 512.5110842112186, 643.3333333333334 520.8539597623576, 640 520.8539597623576 C 636.6666666666666 520.8539597623576, 633.3333333333334 516.4524564784136, 630 516.4524564784136 C 626.6666666666666 516.4524564784136, 623.3333333333334 517.5727773245158, 620 517.5727773245158 C 616.6666666666666 517.5727773245158, 613.3333333333334 517.3036315470115, 610 517.1719893941765 C 606.6666666666666 517.0403472413418, 603.3333333333334 516.782755432208, 600 516.782755432208 C 596.6666666666666 516.782755432208, 593.3333333333334 521.6895254758593, 590 521.6895254758593 C 586.6666666666666 521.6895254758593, 583.3333333333334 512.8681647741479, 580 512.8681647741479 C 576.6666666666666 512.8681647741479, 573.3333333333334 517.5846748511425, 570 517.5846748511425 C 566.6666666666666 517.5846748511425, 563.3333333333334 516.3957352547625, 560 516.3957352547625 C 556.6666666666666 516.3957352547625, 553.3333333333334 519.0394848559429, 550 519.0394848559429 C 546.6666666666666 519.0394848559429, 543.3333333333334 511.8524826584909, 540 511.8524826584909 C 536.6666666666666 511.8524826584909, 533.3333333333334 519.4170819506055, 530 519.4170819506055 C 526.6666666666666 519.4170819506055, 523.3333333333334 515.405159304444, 520 515.405159304444 C 516.6666666666666 515.405159304444, 513.3333333333334 517.3639529221452, 510 517.3639529221452 C 506.6666666666667 517.3639529221452, 503.3333333333333 515.3069646380858, 500 515.3069646380858 C 496.6666666666667 515.3069646380858, 493.3333333333333 515.5869528878982, 490 515.9723317280981 C 486.6666666666667 516.357710568298, 483.3333333333333 520.3782051796818, 480 520.3782051796818 C 476.6666666666667 520.3782051796818, 473.3333333333333 513.4270024227832, 470 513.4270024227832 C 466.6666666666667 513.4270024227832, 463.3333333333333 517.7836288432852, 460 517.7836288432852 C 456.6666666666667 517.7836288432852, 453.3333333333333 517.2880808119091, 450 516.5249584040441 C 446.6666666666667 515.7618359961792, 443.3333333333333 503.8850818782565, 440 503.8850818782565 C 436.6666666666667 503.8850818782565, 433.3333333333333 504.7450808733451, 430 505.96486001562045 C 426.6666666666667 507.1846391578958, 423.3333333333333 519.8934193871139, 420 521.1794206213917 C 416.6666666666667 522.4654218556698, 413.3333333333333 522.9325104373205, 410 523.3885046441023 C 406.6666666666667 523.8444988508843, 403.3333333333333 524.3792603290217, 400 524.3792603290217 C 396.6666666666667 524.3792603290217, 393.3333333333333 522.8248644355583, 390 522.8248644355583 C 386.6666666666667 522.8248644355583, 383.3333333333333 524.9175406819188, 380 525.9201912889275 C 376.6666666666667 526.9228418959362, 373.3333333333333 528.8455655085676, 370 528.8455655085676 C 366.6666666666667 528.8455655085676, 363.3333333333333 525.129828657513, 360 525.129828657513 C 356.6666666666667 525.129828657513, 353.3333333333333 525.2382785397319, 350 525.4149088886284 C 346.6666666666667 525.5915392375248, 343.3333333333333 528.2241236622049, 340 529.1661791771301 C 336.6666666666667 530.1082346920552, 333.3333333333333 531.4332592944838, 330 531.4332592944838 C 326.6666666666667 531.4332592944838, 323.3333333333333 524.527053218364, 320 524.527053218364 C 316.6666666666667 524.527053218364, 313.3333333333333 528.2002676932641, 310 528.6266230698208 C 306.6666666666667 529.0529784463774, 303.3333333333333 529.38436370476, 300 529.38436370476 C 296.6666666666667 529.38436370476, 293.3333333333333 525.6493254118475, 290 525.592306831194 C 286.6666666666667 525.5352882505406, 283.3333333333333 525.5048054111846, 280 525.5048054111846 C 276.6666666666667 525.5048054111846, 273.3333333333333 526.5877297454701, 270 527.6624740830247 C 266.6666666666667 528.7372184205792, 263.3333333333333 534.0384239939319, 260 534.0384239939319 C 256.6666666666667 534.0384239939319, 253.33333333333334 525.1550917956657, 250 525.1550917956657 C 246.66666666666666 525.1550917956657, 243.33333333333334 526.1065851336133, 240 527.0767374302508 C 236.66666666666666 528.0468897268883, 233.33333333333334 533.0722998811098, 230 533.0722998811098 C 226.66666666666666 533.0722998811098, 223.33333333333334 532.2481607669021, 220 531.2904615314907 C 216.66666666666666 530.3327622960793, 213.33333333333334 523.8772680705937, 210 523.8772680705937 C 206.66666666666666 523.8772680705937, 203.33333333333334 534.3171020176171, 200 534.3171020176171 C 196.66666666666666 534.3171020176171, 193.33333333333334 526.5208570407897, 190 526.5208570407897 C 186.66666666666666 526.5208570407897, 183.33333333333334 531.678425563933, 180 531.678425563933 C 176.66666666666666 531.678425563933, 173.33333333333334 521.863391774841, 170 521.863391774841 C 166.66666666666666 521.863391774841, 163.33333333333334 528.6692138590154, 160 531.9650649056922 C 156.66666666666666 535.260915952369, 153.33333333333334 541.6473868276661, 150 541.6473868276661 C 146.66666666666666 541.6473868276661, 143.33333333333334 532.056981150244, 140 532.056981150244 C 136.66666666666666 532.056981150244, 133.33333333333334 541.0170669994437, 130 541.0170669994437 C 126.66666666666667 541.0170669994437, 123.33333333333333 540.7680436913281, 120 540.4346549227048 C 116.66666666666667 540.1012661540814, 113.33333333333333 536.8969617987593, 110 536.8969617987593 C 106.66666666666667 536.8969617987593, 103.33333333333333 546.3458185867021, 100 546.3458185867021 C 96.66666666666667 546.3458185867021, 93.33333333333333 533.6655012558208, 90 533.6655012558208 C 86.66666666666667 533.6655012558208, 83.33333333333333 549.6925107325914, 80 549.6925107325914 C 76.66666666666667 549.6925107325914, 73.33333333333333 481.5834004433849, 70 466.3738028012696 C 66.66666666666667 451.16420515915433, 63.333333333333336 434.95676838802524, 60 434.95676838802524 C 56.666666666666664 434.95676838802524, 53.333333333333336 438.8874830549301, 50 438.8874830549301 C 46.666666666666664 438.8874830549301, 43.333333333333336 433.86356885333873, 40 433.86356885333873 C 36.666666666666664 433.86356885333873, 33.333333333333336 441.4353436479874, 30 441.4353436479874 C 26.666666666666668 441.4353436479874, 23.333333333333332 440.68748733839885, 20 439.70232804060174 C 16.666666666666668 438.71716874280463, 13.333333333333334 434.66837739696314, 10 429.6702920082319 C 3.3333333333333335 413.16313999872096, 6.666666666666666 424.6722066195007, 10 429.6702920082319 Z" fill="white" stroke="transparent" stroke-width="0" />
  </g>
</svg>