<svg 
  baseProfile="tiny"
  preserveAspectRatio="keep"
  version="1.2"
  viewBox="-0.000000 -0.000000 2010.000000 800.000000"
  height="100%" width="100%"
  xmlns="http://www.w3.org/2000/svg"
  xmlns:ev="http://www.w3.org/2001/xml-events"
  xmlns:xlink="http://www.w3.org/1999/xlink"
>
  <g style="transform-origin: center center;">
    <path d="M 0 400 C 3.3333333333333335 390.88324762291535, 6.666666666666666 382.7233429414558, 10 382.7233429414558 C 13.333333333333334 382.7233429414558, 16.666666666666668 384.9648989249768, 20 385.5938860283312 C 23.333333333333332 386.2228731316856, 26.666666666666668 386.9992903510705, 30 386.9992903510705 C 33.333333333333336 386.9992903510705, 36.666666666666664 354.38188658623886, 40 354.38188658623886 C 43.333333333333336 354.38188658623886, 46.666666666666664 367.81563052275953, 50 368.92099346882753 C 53.333333333333336 370.02635641489553, 56.666666666666664 370.79246060080806, 60 370.79246060080806 C 63.333333333333336 370.79246060080806, 66.66666666666667 369.7938007872507, 70 369.7938007872507 C 73.33333333333333 369.7938007872507, 76.66666666666667 373.06565434931287, 80 374.5762927308042 C 83.33333333333333 376.08693111229553, 86.66666666666667 378.882581552915, 90 378.882581552915 C 93.33333333333333 378.882581552915, 96.66666666666667 357.79980900175644, 100 357.79980900175644 C 103.33333333333333 357.79980900175644, 106.66666666666667 358.34091324781934, 110 358.8836042308727 C 113.33333333333333 359.4262952139261, 116.66666666666667 362.15411476163655, 120 362.15411476163655 C 123.33333333333333 362.15411476163655, 126.66666666666667 362.12547902824224, 130 362.12547902824224 C 133.33333333333334 362.12547902824224, 136.66666666666666 362.20027635094027, 140 362.20027635094027 C 143.33333333333334 362.20027635094027, 146.66666666666666 352.57315930154857, 150 352.57315930154857 C 153.33333333333334 352.57315930154857, 156.66666666666666 362.7432945992802, 160 362.7432945992802 C 163.33333333333334 362.7432945992802, 166.66666666666666 358.6974855069015, 170 358.23975653846406 C 173.33333333333334 357.7820275700266, 176.66666666666666 357.42965839354105, 180 357.42965839354105 C 183.33333333333334 357.42965839354105, 186.66666666666666 364.98952544273743, 190 364.98952544273743 C 193.33333333333334 364.98952544273743, 196.66666666666666 361.88139362505626, 200 361.88139362505626 C 203.33333333333334 361.88139362505626, 206.66666666666666 375.83193649679424, 210 375.83193649679424 C 213.33333333333334 375.83193649679424, 216.66666666666666 372.1684331296794, 220 368.9037408404784 C 223.33333333333334 365.6390485512774, 226.66666666666666 352.2001395486615, 230 352.2001395486615 C 233.33333333333334 352.2001395486615, 236.66666666666666 355.60278557840695, 240 357.24691377885887 C 243.33333333333334 358.8910419793108, 246.66666666666666 362.0699793081483, 250 362.0699793081483 C 253.33333333333334 362.0699793081483, 256.6666666666667 354.0373116177637, 260 354.0373116177637 C 263.3333333333333 354.0373116177637, 266.6666666666667 359.7465836699633, 270 360.5005571604662 C 273.3333333333333 361.2545306509691, 276.6666666666667 361.8713903552295, 280 361.8713903552295 C 283.3333333333333 361.8713903552295, 286.6666666666667 357.20043861656524, 290 357.20043861656524 C 293.3333333333333 357.20043861656524, 296.6666666666667 361.63029373699885, 300 362.1430868854769 C 303.3333333333333 362.655880033955, 306.6666666666667 362.5063245879875, 310 363.0540422021216 C 313.3333333333333 363.6017598162557, 316.6666666666667 371.427600693858, 320 371.427600693858 C 323.3333333333333 371.427600693858, 326.6666666666667 368.06048295250554, 330 368.06048295250554 C 333.3333333333333 368.06048295250554, 336.6666666666667 371.5081262580802, 340 372.00683733955987 C 343.3333333333333 372.5055484210395, 346.6666666666667 372.9298737307388, 350 372.9298737307388 C 353.3333333333333 372.9298737307388, 356.6666666666667 348.4288905437117, 360 348.4288905437117 C 363.3333333333333 348.4288905437117, 366.6666666666667 357.73887699070076, 370 357.73887699070076 C 373.3333333333333 357.73887699070076, 376.6666666666667 356.88528494372673, 380 356.88528494372673 C 383.3333333333333 356.88528494372673, 386.6666666666667 358.37464105368366, 390 359.21463123054366 C 393.3333333333333 360.05462140740366, 396.6666666666667 360.5785723943741, 400 361.95920667332194 C 403.3333333333333 363.3398409522698, 406.6666666666667 370.3969734403514, 410 370.3969734403514 C 413.3333333333333 370.3969734403514, 416.6666666666667 355.74570464811706, 420 355.74570464811706 C 423.3333333333333 355.74570464811706, 426.6666666666667 360.9653473440409, 430 360.9653473440409 C 433.3333333333333 360.9653473440409, 436.6666666666667 358.60302163861724, 440 356.64441205378483 C 443.3333333333333 354.68580246895243, 446.6666666666667 347.4655646531341, 450 347.4655646531341 C 453.3333333333333 347.4655646531341, 456.6666666666667 355.63258275494763, 460 358.07688103708574 C 463.3333333333333 360.52117931922385, 466.6666666666667 363.6789786191552, 470 363.6789786191552 C 473.3333333333333 363.6789786191552, 476.6666666666667 361.69297033688, 480 359.4477401199689 C 483.3333333333333 357.2025099030578, 486.6666666666667 342.94291099680873, 490 342.94291099680873 C 493.3333333333333 342.94291099680873, 496.6666666666667 352.3156075256681, 500 354.74974165914267 C 503.3333333333333 357.18387579261724, 506.6666666666667 360.03555245832473, 510 360.03555245832473 C 513.3333333333334 360.03555245832473, 516.6666666666666 356.77481413349784, 520 356.77481413349784 C 523.3333333333334 356.77481413349784, 526.6666666666666 359.8433708795511, 530 361.1844728956181 C 533.3333333333334 362.5255749116851, 536.6666666666666 364.8836731283064, 540 364.8836731283064 C 543.3333333333334 364.8836731283064, 546.6666666666666 348.89803367444387, 550 348.89803367444387 C 553.3333333333334 348.89803367444387, 556.6666666666666 350.79825731663647, 560 350.79825731663647 C 563.3333333333334 350.79825731663647, 566.6666666666666 345.50945783064395, 570 342.2954241748922 C 573.3333333333334 339.0813905191405, 576.6666666666666 331.8640547447129, 580 331.1615274632434 C 583.3333333333334 330.45900018177383, 586.6666666666666 329.99757149605676, 590 329.99757149605676 C 593.3333333333334 329.99757149605676, 596.6666666666666 346.28360205162244, 600 346.28360205162244 C 603.3333333333334 346.28360205162244, 606.6666666666666 338.4228949491574, 610 338.4228949491574 C 613.3333333333334 338.4228949491574, 616.6666666666666 341.3232330068091, 620 343.0261400847526 C 623.3333333333334 344.72904716269613, 626.6666666666666 348.76504238850293, 630 348.76504238850293 C 633.3333333333334 348.76504238850293, 636.6666666666666 342.879820215697, 640 342.879820215697 C 643.3333333333334 342.879820215697, 646.6666666666666 350.9341650900432, 650 350.9341650900432 C 653.3333333333334 350.9341650900432, 656.6666666666666 345.58931916178244, 660 345.58931916178244 C 663.3333333333334 345.58931916178244, 666.6666666666666 349.0455277152497, 670 349.4481990558639 C 673.3333333333334 349.85087039647806, 676.6666666666666 350.164291694193, 680 350.164291694193 C 683.3333333333334 350.164291694193, 686.6666666666666 349.23644477125305, 690 347.9019904431597 C 693.3333333333334 346.5675361150664, 696.6666666666666 330.5400709953735, 700 330.5264600418269 C 703.3333333333334 330.5128490882803, 706.6666666666666 330.50601959376627, 710 330.50601959376627 C 713.3333333333334 330.50601959376627, 716.6666666666666 336.3343134079311, 720 338.39560728444354 C 723.3333333333334 340.45690116095597, 726.6666666666666 341.66457396635656, 730 343.48021205496065 C 733.3333333333334 345.29585014356473, 736.6666666666666 349.34503088699444, 740 349.34503088699444 C 743.3333333333334 349.34503088699444, 746.6666666666666 341.1865046007432, 750 341.1865046007432 C 753.3333333333334 341.1865046007432, 756.6666666666666 347.88984628646904, 760 349.4486283886653 C 763.3333333333334 351.0074104908616, 766.6666666666666 352.7096744745649, 770 352.7096744745649 C 773.3333333333334 352.7096744745649, 776.6666666666666 349.14153680619296, 780 349.14153680619296 C 783.3333333333334 349.14153680619296, 786.6666666666666 349.34411907669175, 790 349.34411907669175 C 793.3333333333334 349.34411907669175, 796.6666666666666 343.33574451535367, 800 343.33574451535367 C 803.3333333333334 343.33574451535367, 806.6666666666666 349.3806854225394, 810 349.3806854225394 C 813.3333333333334 349.3806854225394, 816.6666666666666 347.5402025285363, 820 345.3745148836064 C 823.3333333333334 343.2088272386765, 826.6666666666666 330.90061670300616, 830 328.1972446656729 C 833.3333333333334 325.4938726283396, 836.6666666666666 322.8890826638892, 840 322.8890826638892 C 843.3333333333334 322.8890826638892, 846.6666666666666 326.88148915296614, 850 331.120422258231 C 853.3333333333334 335.3593553634958, 856.6666666666666 359.0648030908887, 860 359.0648030908887 C 863.3333333333334 359.0648030908887, 866.6666666666666 333.8888925971096, 870 333.8888925971096 C 873.3333333333334 333.8888925971096, 876.6666666666666 341.46668438477803, 880 344.76489600356217 C 883.3333333333334 348.0631076223463, 886.6666666666666 353.7881198028055, 890 353.8406071137143 C 893.3333333333334 353.89309442462314, 896.6666666666666 353.92002704070273, 900 353.92002704070273 C 903.3333333333334 353.92002704070273, 906.6666666666666 346.97095598871863, 910 346.97095598871863 C 913.3333333333334 346.97095598871863, 916.6666666666666 349.1949967262724, 920 349.1949967262724 C 923.3333333333334 349.1949967262724, 926.6666666666666 327.2761991480612, 930 327.12429778114824 C 933.3333333333334 326.9723964142353, 936.6666666666666 326.8940689088788, 940 326.8940689088788 C 943.3333333333334 326.8940689088788, 946.6666666666666 345.9249718533816, 950 345.9249718533816 C 953.3333333333334 345.9249718533816, 956.6666666666666 337.9057823245742, 960 336.2873737324902 C 963.3333333333334 334.6689651404062, 966.6666666666666 333.0423799282684, 970 333.0423799282684 C 973.3333333333334 333.0423799282684, 976.6666666666666 341.7065524404192, 980 343.16489408762544 C 983.3333333333334 344.62323573483167, 986.6666666666666 345.9554575718772, 990 345.9554575718772 C 993.3333333333334 345.9554575718772, 996.6666666666666 331.9585116726317, 1000 331.9585116726317 C 1003.3333333333334 331.9585116726317, 1006.6666666666666 335.7578613200845, 1010 338.97527468612856 C 1013.3333333333334 342.1926880521726, 1016.6666666666666 354.4336315287654, 1020 354.4336315287654 C 1023.3333333333334 354.4336315287654, 1026.6666666666667 334.4624073109954, 1030 334.4624073109954 C 1033.3333333333333 334.4624073109954, 1036.6666666666667 338.2625574758181, 1040 338.2625574758181 C 1043.3333333333333 338.2625574758181, 1046.6666666666667 336.05252515856387, 1050 336.05252515856387 C 1053.3333333333333 336.05252515856387, 1056.6666666666667 344.23716008177144, 1060 344.23716008177144 C 1063.3333333333333 344.23716008177144, 1066.6666666666667 340.2593559199211, 1070 340.2593559199211 C 1073.3333333333333 340.2593559199211, 1076.6666666666667 342.4751634820751, 1080 342.4751634820751 C 1083.3333333333333 342.4751634820751, 1086.6666666666667 338.2984855989635, 1090 338.2984855989635 C 1093.3333333333333 338.2984855989635, 1096.6666666666667 341.120960324213, 1100 341.120960324213 C 1103.3333333333333 341.120960324213, 1106.6666666666667 334.14157306179004, 1110 334.14157306179004 C 1113.3333333333333 334.14157306179004, 1116.6666666666667 339.03964737648204, 1120 339.03964737648204 C 1123.3333333333333 339.03964737648204, 1126.6666666666667 337.9519892106908, 1130 337.9519892106908 C 1133.3333333333333 337.9519892106908, 1136.6666666666667 338.76680995582814, 1140 339.78452827365606 C 1143.3333333333333 340.802246591484, 1146.6666666666667 347.7687986919203, 1150 348.9278749705517 C 1153.3333333333333 350.08695124918313, 1156.6666666666667 351.0747121277446, 1160 351.0747121277446 C 1163.3333333333333 351.0747121277446, 1166.6666666666667 350.12849988744694, 1170 349.2463795009331 C 1173.3333333333333 348.3642591144192, 1176.6666666666667 344.45729819495733, 1180 344.45729819495733 C 1183.3333333333333 344.45729819495733, 1186.6666666666667 347.11870702910693, 1190 347.11870702910693 C 1193.3333333333333 347.11870702910693, 1196.6666666666667 346.945751448778, 1200 346.69230865438146 C 1203.3333333333333 346.4388658599849, 1206.6666666666667 344.71714121698255, 1210 343.1862146250587 C 1213.3333333333333 341.65528803313487, 1216.6666666666667 339.3287044848889, 1220 336.5305716466449 C 1223.3333333333333 333.7324388084009, 1226.6666666666667 325.1676677383201, 1230 325.1676677383201 C 1233.3333333333333 325.1676677383201, 1236.6666666666667 347.9484796190455, 1240 347.9484796190455 C 1243.3333333333333 347.9484796190455, 1246.6666666666667 338.81242675159405, 1250 338.81242675159405 C 1253.3333333333333 338.81242675159405, 1256.6666666666667 340.22335220048114, 1260 341.60215197702945 C 1263.3333333333333 342.98095175357776, 1266.6666666666667 349.5986930438363, 1270 349.5986930438363 C 1273.3333333333333 349.5986930438363, 1276.6666666666667 345.88254652475706, 1280 345.59348079986864 C 1283.3333333333333 345.3044150749802, 1286.6666666666667 345.1072427747324, 1290 345.1072427747324 C 1293.3333333333333 345.1072427747324, 1296.6666666666667 347.4078468393303, 1300 347.4078468393303 C 1303.3333333333333 347.4078468393303, 1306.6666666666667 341.50970864252423, 1310 341.50970864252423 C 1313.3333333333333 341.50970864252423, 1316.6666666666667 343.2122881709897, 1320 343.2122881709897 C 1323.3333333333333 343.2122881709897, 1326.6666666666667 335.8397162805506, 1330 333.6403742454916 C 1333.3333333333333 331.44103221043264, 1336.6666666666667 328.60636053823777, 1340 328.60636053823777 C 1343.3333333333333 328.60636053823777, 1346.6666666666667 337.75345102387337, 1350 337.75345102387337 C 1353.3333333333333 337.75345102387337, 1356.6666666666667 333.7747018566397, 1360 333.7747018566397 C 1363.3333333333333 333.7747018566397, 1366.6666666666667 345.96936761984296, 1370 345.96936761984296 C 1373.3333333333333 345.96936761984296, 1376.6666666666667 338.35481967192004, 1380 336.2444732652505 C 1383.3333333333333 334.134126858581, 1386.6666666666667 331.5512906093761, 1390 331.5512906093761 C 1393.3333333333333 331.5512906093761, 1396.6666666666667 333.34730888690564, 1400 333.34730888690564 C 1403.3333333333333 333.34730888690564, 1406.6666666666667 330.8174654957922, 1410 330.8174654957922 C 1413.3333333333333 330.8174654957922, 1416.6666666666667 334.05420622687285, 1420 334.05420622687285 C 1423.3333333333333 334.05420622687285, 1426.6666666666667 332.50957384723245, 1430 332.50957384723245 C 1433.3333333333333 332.50957384723245, 1436.6666666666667 332.74889626072877, 1440 333.16610918549173 C 1443.3333333333333 333.5833221102547, 1446.6666666666667 346.54262946615347, 1450 346.54262946615347 C 1453.3333333333333 346.54262946615347, 1456.6666666666667 325.3877859143514, 1460 325.3877859143514 C 1463.3333333333333 325.3877859143514, 1466.6666666666667 337.1780541268977, 1470 337.1780541268977 C 1473.3333333333333 337.1780541268977, 1476.6666666666667 329.13402535067246, 1480 329.13402535067246 C 1483.3333333333333 329.13402535067246, 1486.6666666666667 331.971050765731, 1490 333.96477145064847 C 1493.3333333333333 335.95849213556596, 1496.6666666666667 340.4586960412639, 1500 341.81555497532935 C 1503.3333333333333 343.1724139093948, 1506.6666666666667 344.5631471076862, 1510 344.5631471076862 C 1513.3333333333333 344.5631471076862, 1516.6666666666667 341.31876076190895, 1520 339.3959223600827 C 1523.3333333333333 337.47308395825644, 1526.6666666666667 332.8677481387118, 1530 332.8677481387118 C 1533.3333333333333 332.8677481387118, 1536.6666666666667 335.8725563627105, 1540 335.8725563627105 C 1543.3333333333333 335.8725563627105, 1546.6666666666667 330.3023347755656, 1550 330.3023347755656 C 1553.3333333333333 330.3023347755656, 1556.6666666666667 332.28195815653714, 1560 332.31897660005023 C 1563.3333333333333 332.3559950435633, 1566.6666666666667 332.3387696049066, 1570 332.3760764948588 C 1573.3333333333333 332.413383384811, 1576.6666666666667 334.4122764945168, 1580 335.1800794202241 C 1583.3333333333333 335.9478823459314, 1586.6666666666667 337.1345582282288, 1590 337.1345582282288 C 1593.3333333333333 337.1345582282288, 1596.6666666666667 323.70948132978754, 1600 323.70948132978754 C 1603.3333333333333 323.70948132978754, 1606.6666666666667 330.2356615863559, 1610 332.2455754112007 C 1613.3333333333333 334.25548923604555, 1616.6666666666667 336.90671998958464, 1620 336.90671998958464 C 1623.3333333333333 336.90671998958464, 1626.6666666666667 323.05767528625023, 1630 323.05767528625023 C 1633.3333333333333 323.05767528625023, 1636.6666666666667 348.40792955529014, 1640 350.156569663815 C 1643.3333333333333 351.90520977233984, 1646.6666666666667 353.06061899587354, 1650 353.06061899587354 C 1653.3333333333333 353.06061899587354, 1656.6666666666667 352.79379341580216, 1660 352.79379341580216 C 1663.3333333333333 352.79379341580216, 1666.6666666666667 356.6999986161914, 1670 358.703577615112 C 1673.3333333333333 360.7071566140326, 1676.6666666666667 364.8187763654679, 1680 364.8187763654679 C 1683.3333333333333 364.8187763654679, 1686.6666666666667 364.1016504542731, 1690 363.03892644585557 C 1693.3333333333333 361.976202437438, 1696.6666666666667 352.00023818567195, 1700 347.76559424983105 C 1703.3333333333333 343.53095031399016, 1706.6666666666667 336.8910620125321, 1710 336.8910620125321 C 1713.3333333333333 336.8910620125321, 1716.6666666666667 352.3140570021258, 1720 352.5738668707072 C 1723.3333333333333 352.8336767392886, 1726.6666666666667 352.88430195673135, 1730 352.9735128011034 C 1733.3333333333333 353.0627236454755, 1736.6666666666667 353.17469097504625, 1740 353.17469097504625 C 1743.3333333333333 353.17469097504625, 1746.6666666666667 346.9275364976686, 1750 346.9275364976686 C 1753.3333333333333 346.9275364976686, 1756.6666666666667 357.51957201800883, 1760 359.1073255118943 C 1763.3333333333333 360.6950790057798, 1766.6666666666667 360.7290831735846, 1770 362.0678566192229 C 1773.3333333333333 363.40663006486113, 1776.6666666666667 366.7568015926716, 1780 368.3104039340992 C 1783.3333333333333 369.86400627552683, 1786.6666666666667 372.0289927490418, 1790 372.0289927490418 C 1793.3333333333333 372.0289927490418, 1796.6666666666667 371.8835826399952, 1800 371.6996153811184 C 1803.3333333333333 371.5156481222416, 1806.6666666666667 369.99836203379016, 1810 369.99836203379016 C 1813.3333333333333 369.99836203379016, 1816.6666666666667 371.51593616634705, 1820 371.51593616634705 C 1823.3333333333333 371.51593616634705, 1826.6666666666667 370.845598070061, 1830 370.845598070061 C 1833.3333333333333 370.845598070061, 1836.6666666666667 371.07805560709824, 1840 371.07805560709824 C 1843.3333333333333 371.07805560709824, 1846.6666666666667 370.0806802740872, 1850 369.32149152073765 C 1853.3333333333333 368.56230276738813, 1856.6666666666667 366.08353876768297, 1860 366.08353876768297 C 1863.3333333333333 366.08353876768297, 1866.6666666666667 371.6206188909142, 1870 371.6206188909142 C 1873.3333333333333 371.6206188909142, 1876.6666666666667 370.57307455311997, 1880 370.57307455311997 C 1883.3333333333333 370.57307455311997, 1886.6666666666667 371.4708622353304, 1890 371.4708622353304 C 1893.3333333333333 371.4708622353304, 1896.6666666666667 370.3836375612021, 1900 370.3836375612021 C 1903.3333333333333 370.3836375612021, 1906.6666666666667 371.5071981832319, 1910 372.0319933297668 C 1913.3333333333333 372.55678847630173, 1916.6666666666667 373.53876218442605, 1920 373.53876218442605 C 1923.3333333333333 373.53876218442605, 1926.6666666666667 373.52410480667555, 1930 373.52410480667555 C 1933.3333333333333 373.52410480667555, 1936.6666666666667 373.6760452798118, 1940 373.9483711843788 C 1943.3333333333333 374.2206970889458, 1946.6666666666667 383.0287136193736, 1950 384.93286546876664 C 1953.3333333333333 386.83701731815967, 1956.6666666666667 387.4019401736152, 1960 388.79275584264235 C 1963.3333333333333 390.1835715116695, 1966.6666666666667 391.84597726114146, 1970 393.33283839915407 C 1973.3333333333333 394.8196995371667, 1976.6666666666667 397.7166588983966, 1980 397.7166588983966 C 1983.3333333333333 397.7166588983966, 1986.6666666666667 397.395620332366, 1990 397.395620332366 C 1993.3333333333333 397.395620332366, 1996.6666666666667 397.6608794658319, 2000 397.9529035978174 C 2003.3333333333333 398.2449277298029, 2006.6666666666667 399.0693323431506, 2010 400 c 0 0, 0 0, 0 0C 2006.6666666666667 400.9306676568494, 2003.3333333333333 401.7550722701971, 2000 402.0470964021826 C 1996.6666666666667 402.3391205341681, 1993.3333333333333 402.604379667634, 1990 402.604379667634 C 1986.6666666666667 402.604379667634, 1983.3333333333333 402.2833411016034, 1980 402.2833411016034 C 1976.6666666666667 402.2833411016034, 1973.3333333333333 405.1803004628333, 1970 406.66716160084593 C 1966.6666666666667 408.15402273885854, 1963.3333333333333 409.8164284883305, 1960 411.20724415735765 C 1956.6666666666667 412.5980598263848, 1953.3333333333333 413.16298268184033, 1950 415.06713453123336 C 1946.6666666666667 416.9712863806264, 1943.3333333333333 425.7793029110542, 1940 426.0516288156212 C 1936.6666666666667 426.3239547201882, 1933.3333333333333 426.47589519332445, 1930 426.47589519332445 C 1926.6666666666667 426.47589519332445, 1923.3333333333333 426.46123781557395, 1920 426.46123781557395 C 1916.6666666666667 426.46123781557395, 1913.3333333333333 427.44321152369827, 1910 427.9680066702332 C 1906.6666666666667 428.4928018167681, 1903.3333333333333 429.6163624387979, 1900 429.6163624387979 C 1896.6666666666667 429.6163624387979, 1893.3333333333333 428.5291377646696, 1890 428.5291377646696 C 1886.6666666666667 428.5291377646696, 1883.3333333333333 429.42692544688003, 1880 429.42692544688003 C 1876.6666666666667 429.42692544688003, 1873.3333333333333 428.3793811090858, 1870 428.3793811090858 C 1866.6666666666667 428.3793811090858, 1863.3333333333333 433.91646123231703, 1860 433.91646123231703 C 1856.6666666666667 433.91646123231703, 1853.3333333333333 431.43769723261187, 1850 430.67850847926235 C 1846.6666666666667 429.9193197259128, 1843.3333333333333 428.92194439290176, 1840 428.92194439290176 C 1836.6666666666667 428.92194439290176, 1833.3333333333333 429.154401929939, 1830 429.154401929939 C 1826.6666666666667 429.154401929939, 1823.3333333333333 428.48406383365295, 1820 428.48406383365295 C 1816.6666666666667 428.48406383365295, 1813.3333333333333 430.00163796620984, 1810 430.00163796620984 C 1806.6666666666667 430.00163796620984, 1803.3333333333333 428.4843518777584, 1800 428.3003846188816 C 1796.6666666666667 428.1164173600048, 1793.3333333333333 427.9710072509582, 1790 427.9710072509582 C 1786.6666666666667 427.9710072509582, 1783.3333333333333 430.13599372447317, 1780 431.6895960659008 C 1776.6666666666667 433.2431984073284, 1773.3333333333333 436.59336993513887, 1770 437.9321433807771 C 1766.6666666666667 439.2709168264154, 1763.3333333333333 439.3049209942202, 1760 440.8926744881057 C 1756.6666666666667 442.48042798199117, 1753.3333333333333 453.0724635023314, 1750 453.0724635023314 C 1746.6666666666667 453.0724635023314, 1743.3333333333333 446.82530902495375, 1740 446.82530902495375 C 1736.6666666666667 446.82530902495375, 1733.3333333333333 446.9372763545245, 1730 447.0264871988966 C 1726.6666666666667 447.11569804326865, 1723.3333333333333 447.1663232607114, 1720 447.4261331292928 C 1716.6666666666667 447.6859429978742, 1713.3333333333333 463.1089379874679, 1710 463.1089379874679 C 1706.6666666666667 463.1089379874679, 1703.3333333333333 456.46904968600984, 1700 452.23440575016895 C 1696.6666666666667 447.99976181432805, 1693.3333333333333 438.023797562562, 1690 436.96107355414443 C 1686.6666666666667 435.8983495457269, 1683.3333333333333 435.1812236345321, 1680 435.1812236345321 C 1676.6666666666667 435.1812236345321, 1673.3333333333333 439.2928433859674, 1670 441.296422384888 C 1666.6666666666667 443.3000013838086, 1663.3333333333333 447.20620658419784, 1660 447.20620658419784 C 1656.6666666666667 447.20620658419784, 1653.3333333333333 446.93938100412646, 1650 446.93938100412646 C 1646.6666666666667 446.93938100412646, 1643.3333333333333 448.09479022766016, 1640 449.843430336185 C 1636.6666666666667 451.59207044470986, 1633.3333333333333 476.94232471374977, 1630 476.94232471374977 C 1626.6666666666667 476.94232471374977, 1623.3333333333333 463.09328001041536, 1620 463.09328001041536 C 1616.6666666666667 463.09328001041536, 1613.3333333333333 465.74451076395445, 1610 467.7544245887993 C 1606.6666666666667 469.7643384136441, 1603.3333333333333 476.29051867021246, 1600 476.29051867021246 C 1596.6666666666667 476.29051867021246, 1593.3333333333333 462.8654417717712, 1590 462.8654417717712 C 1586.6666666666667 462.8654417717712, 1583.3333333333333 464.0521176540686, 1580 464.8199205797759 C 1576.6666666666667 465.5877235054832, 1573.3333333333333 467.586616615189, 1570 467.6239235051412 C 1566.6666666666667 467.6612303950934, 1563.3333333333333 467.6440049564367, 1560 467.68102339994977 C 1556.6666666666667 467.71804184346286, 1553.3333333333333 469.6976652244344, 1550 469.6976652244344 C 1546.6666666666667 469.6976652244344, 1543.3333333333333 464.1274436372895, 1540 464.1274436372895 C 1536.6666666666667 464.1274436372895, 1533.3333333333333 467.1322518612882, 1530 467.1322518612882 C 1526.6666666666667 467.1322518612882, 1523.3333333333333 462.52691604174356, 1520 460.6040776399173 C 1516.6666666666667 458.68123923809105, 1513.3333333333333 455.4368528923138, 1510 455.4368528923138 C 1506.6666666666667 455.4368528923138, 1503.3333333333333 456.8275860906052, 1500 458.18444502467065 C 1496.6666666666667 459.5413039587361, 1493.3333333333333 464.04150786443404, 1490 466.03522854935153 C 1486.6666666666667 468.028949234269, 1483.3333333333333 470.86597464932754, 1480 470.86597464932754 C 1476.6666666666667 470.86597464932754, 1473.3333333333333 462.8219458731023, 1470 462.8219458731023 C 1466.6666666666667 462.8219458731023, 1463.3333333333333 474.6122140856486, 1460 474.6122140856486 C 1456.6666666666667 474.6122140856486, 1453.3333333333333 453.45737053384653, 1450 453.45737053384653 C 1446.6666666666667 453.45737053384653, 1443.3333333333333 466.4166778897453, 1440 466.83389081450827 C 1436.6666666666667 467.25110373927123, 1433.3333333333333 467.49042615276755, 1430 467.49042615276755 C 1426.6666666666667 467.49042615276755, 1423.3333333333333 465.94579377312715, 1420 465.94579377312715 C 1416.6666666666667 465.94579377312715, 1413.3333333333333 469.1825345042078, 1410 469.1825345042078 C 1406.6666666666667 469.1825345042078, 1403.3333333333333 466.65269111309436, 1400 466.65269111309436 C 1396.6666666666667 466.65269111309436, 1393.3333333333333 468.4487093906239, 1390 468.4487093906239 C 1386.6666666666667 468.4487093906239, 1383.3333333333333 465.865873141419, 1380 463.7555267347495 C 1376.6666666666667 461.64518032807996, 1373.3333333333333 454.03063238015704, 1370 454.03063238015704 C 1366.6666666666667 454.03063238015704, 1363.3333333333333 466.2252981433603, 1360 466.2252981433603 C 1356.6666666666667 466.2252981433603, 1353.3333333333333 462.24654897612663, 1350 462.24654897612663 C 1346.6666666666667 462.24654897612663, 1343.3333333333333 471.39363946176223, 1340 471.39363946176223 C 1336.6666666666667 471.39363946176223, 1333.3333333333333 468.55896778956736, 1330 466.3596257545084 C 1326.6666666666667 464.1602837194494, 1323.3333333333333 456.7877118290103, 1320 456.7877118290103 C 1316.6666666666667 456.7877118290103, 1313.3333333333333 458.49029135747577, 1310 458.49029135747577 C 1306.6666666666667 458.49029135747577, 1303.3333333333333 452.5921531606697, 1300 452.5921531606697 C 1296.6666666666667 452.5921531606697, 1293.3333333333333 454.8927572252676, 1290 454.8927572252676 C 1286.6666666666667 454.8927572252676, 1283.3333333333333 454.6955849250198, 1280 454.40651920013136 C 1276.6666666666667 454.11745347524294, 1273.3333333333333 450.4013069561637, 1270 450.4013069561637 C 1266.6666666666667 450.4013069561637, 1263.3333333333333 457.01904824642224, 1260 458.39784802297055 C 1256.6666666666667 459.77664779951886, 1253.3333333333333 461.18757324840595, 1250 461.18757324840595 C 1246.6666666666667 461.18757324840595, 1243.3333333333333 452.0515203809545, 1240 452.0515203809545 C 1236.6666666666667 452.0515203809545, 1233.3333333333333 474.8323322616799, 1230 474.8323322616799 C 1226.6666666666667 474.8323322616799, 1223.3333333333333 466.2675611915991, 1220 463.4694283533551 C 1216.6666666666667 460.6712955151111, 1213.3333333333333 458.34471196686513, 1210 456.8137853749413 C 1206.6666666666667 455.28285878301745, 1203.3333333333333 453.5611341400151, 1200 453.30769134561854 C 1196.6666666666667 453.054248551222, 1193.3333333333333 452.88129297089307, 1190 452.88129297089307 C 1186.6666666666667 452.88129297089307, 1183.3333333333333 455.54270180504267, 1180 455.54270180504267 C 1176.6666666666667 455.54270180504267, 1173.3333333333333 451.6357408855808, 1170 450.7536204990669 C 1166.6666666666667 449.87150011255306, 1163.3333333333333 448.9252878722554, 1160 448.9252878722554 C 1156.6666666666667 448.9252878722554, 1153.3333333333333 449.91304875081687, 1150 451.0721250294483 C 1146.6666666666667 452.2312013080797, 1143.3333333333333 459.197753408516, 1140 460.21547172634394 C 1136.6666666666667 461.23319004417186, 1133.3333333333333 462.0480107893092, 1130 462.0480107893092 C 1126.6666666666667 462.0480107893092, 1123.3333333333333 460.96035262351796, 1120 460.96035262351796 C 1116.6666666666667 460.96035262351796, 1113.3333333333333 465.85842693820996, 1110 465.85842693820996 C 1106.6666666666667 465.85842693820996, 1103.3333333333333 458.879039675787, 1100 458.879039675787 C 1096.6666666666667 458.879039675787, 1093.3333333333333 461.7015144010365, 1090 461.7015144010365 C 1086.6666666666667 461.7015144010365, 1083.3333333333333 457.5248365179249, 1080 457.5248365179249 C 1076.6666666666667 457.5248365179249, 1073.3333333333333 459.7406440800789, 1070 459.7406440800789 C 1066.6666666666667 459.7406440800789, 1063.3333333333333 455.76283991822856, 1060 455.76283991822856 C 1056.6666666666667 455.76283991822856, 1053.3333333333333 463.94747484143613, 1050 463.94747484143613 C 1046.6666666666667 463.94747484143613, 1043.3333333333333 461.7374425241819, 1040 461.7374425241819 C 1036.6666666666667 461.7374425241819, 1033.3333333333333 465.5375926890046, 1030 465.5375926890046 C 1026.6666666666667 465.5375926890046, 1023.3333333333334 445.5663684712346, 1020 445.5663684712346 C 1016.6666666666666 445.5663684712346, 1013.3333333333334 457.8073119478274, 1010 461.02472531387144 C 1006.6666666666666 464.2421386799155, 1003.3333333333334 468.0414883273683, 1000 468.0414883273683 C 996.6666666666666 468.0414883273683, 993.3333333333334 454.0445424281228, 990 454.0445424281228 C 986.6666666666666 454.0445424281228, 983.3333333333334 455.37676426516833, 980 456.83510591237456 C 976.6666666666666 458.2934475595808, 973.3333333333334 466.9576200717316, 970 466.9576200717316 C 966.6666666666666 466.9576200717316, 963.3333333333334 465.3310348595938, 960 463.7126262675098 C 956.6666666666666 462.0942176754258, 953.3333333333334 454.0750281466184, 950 454.0750281466184 C 946.6666666666666 454.0750281466184, 943.3333333333334 473.1059310911212, 940 473.1059310911212 C 936.6666666666666 473.1059310911212, 933.3333333333334 473.0276035857647, 930 472.87570221885176 C 926.6666666666666 472.7238008519388, 923.3333333333334 450.8050032737276, 920 450.8050032737276 C 916.6666666666666 450.8050032737276, 913.3333333333334 453.02904401128137, 910 453.02904401128137 C 906.6666666666666 453.02904401128137, 903.3333333333334 446.07997295929727, 900 446.07997295929727 C 896.6666666666666 446.07997295929727, 893.3333333333334 446.10690557537686, 890 446.1593928862857 C 886.6666666666666 446.2118801971945, 883.3333333333334 451.9368923776537, 880 455.23510399643783 C 876.6666666666666 458.53331561522197, 873.3333333333334 466.1111074028904, 870 466.1111074028904 C 866.6666666666666 466.1111074028904, 863.3333333333334 440.9351969091113, 860 440.9351969091113 C 856.6666666666666 440.9351969091113, 853.3333333333334 464.6406446365042, 850 468.879577741769 C 846.6666666666666 473.11851084703386, 843.3333333333334 477.1109173361108, 840 477.1109173361108 C 836.6666666666666 477.1109173361108, 833.3333333333334 474.5061273716604, 830 471.8027553343271 C 826.6666666666666 469.09938329699384, 823.3333333333334 456.7911727613235, 820 454.6254851163936 C 816.6666666666666 452.4597974714637, 813.3333333333334 450.6193145774606, 810 450.6193145774606 C 806.6666666666666 450.6193145774606, 803.3333333333334 456.66425548464633, 800 456.66425548464633 C 796.6666666666666 456.66425548464633, 793.3333333333334 450.65588092330825, 790 450.65588092330825 C 786.6666666666666 450.65588092330825, 783.3333333333334 450.85846319380704, 780 450.85846319380704 C 776.6666666666666 450.85846319380704, 773.3333333333334 447.2903255254351, 770 447.2903255254351 C 766.6666666666666 447.2903255254351, 763.3333333333334 448.9925895091384, 760 450.5513716113347 C 756.6666666666666 452.11015371353096, 753.3333333333334 458.8134953992568, 750 458.8134953992568 C 746.6666666666666 458.8134953992568, 743.3333333333334 450.65496911300556, 740 450.65496911300556 C 736.6666666666666 450.65496911300556, 733.3333333333334 454.70414985643527, 730 456.51978794503935 C 726.6666666666666 458.33542603364344, 723.3333333333334 459.54309883904403, 720 461.60439271555646 C 716.6666666666666 463.6656865920689, 713.3333333333334 469.49398040623373, 710 469.49398040623373 C 706.6666666666666 469.49398040623373, 703.3333333333334 469.4871509117197, 700 469.4735399581731 C 696.6666666666666 469.4599290046265, 693.3333333333334 453.4324638849336, 690 452.0980095568403 C 686.6666666666666 450.76355522874695, 683.3333333333334 449.835708305807, 680 449.835708305807 C 676.6666666666666 449.835708305807, 673.3333333333334 450.14912960352194, 670 450.5518009441361 C 666.6666666666666 450.9544722847503, 663.3333333333334 454.41068083821756, 660 454.41068083821756 C 656.6666666666666 454.41068083821756, 653.3333333333334 449.0658349099568, 650 449.0658349099568 C 646.6666666666666 449.0658349099568, 643.3333333333334 457.120179784303, 640 457.120179784303 C 636.6666666666666 457.120179784303, 633.3333333333334 451.23495761149707, 630 451.23495761149707 C 626.6666666666666 451.23495761149707, 623.3333333333334 455.27095283730387, 620 456.9738599152474 C 616.6666666666666 458.6767669931909, 613.3333333333334 461.5771050508426, 610 461.5771050508426 C 606.6666666666666 461.5771050508426, 603.3333333333334 453.71639794837756, 600 453.71639794837756 C 596.6666666666666 453.71639794837756, 593.3333333333334 470.00242850394324, 590 470.00242850394324 C 586.6666666666666 470.00242850394324, 583.3333333333334 469.54099981822617, 580 468.8384725367566 C 576.6666666666666 468.1359452552871, 573.3333333333334 460.9186094808595, 570 457.7045758251078 C 566.6666666666666 454.49054216935605, 563.3333333333334 449.20174268336353, 560 449.20174268336353 C 556.6666666666666 449.20174268336353, 553.3333333333334 451.10196632555613, 550 451.10196632555613 C 546.6666666666666 451.10196632555613, 543.3333333333334 435.1163268716936, 540 435.1163268716936 C 536.6666666666666 435.1163268716936, 533.3333333333334 437.4744250883149, 530 438.8155271043819 C 526.6666666666666 440.1566291204489, 523.3333333333334 443.22518586650216, 520 443.22518586650216 C 516.6666666666666 443.22518586650216, 513.3333333333334 439.96444754167527, 510 439.96444754167527 C 506.6666666666667 439.96444754167527, 503.3333333333333 442.81612420738276, 500 445.25025834085733 C 496.6666666666667 447.6843924743319, 493.3333333333333 457.05708900319127, 490 457.05708900319127 C 486.6666666666667 457.05708900319127, 483.3333333333333 442.7974900969422, 480 440.5522598800311 C 476.6666666666667 438.30702966312, 473.3333333333333 436.3210213808448, 470 436.3210213808448 C 466.6666666666667 436.3210213808448, 463.3333333333333 439.47882068077615, 460 441.92311896291426 C 456.6666666666667 444.36741724505237, 453.3333333333333 452.5344353468659, 450 452.5344353468659 C 446.6666666666667 452.5344353468659, 443.3333333333333 445.31419753104757, 440 443.35558794621517 C 436.6666666666667 441.39697836138276, 433.3333333333333 439.0346526559591, 430 439.0346526559591 C 426.6666666666667 439.0346526559591, 423.3333333333333 444.25429535188294, 420 444.25429535188294 C 416.6666666666667 444.25429535188294, 413.3333333333333 429.6030265596486, 410 429.6030265596486 C 406.6666666666667 429.6030265596486, 403.3333333333333 436.6601590477302, 400 438.04079332667806 C 396.6666666666667 439.4214276056259, 393.3333333333333 439.94537859259634, 390 440.78536876945634 C 386.6666666666667 441.62535894631634, 383.3333333333333 443.11471505627327, 380 443.11471505627327 C 376.6666666666667 443.11471505627327, 373.3333333333333 442.26112300929924, 370 442.26112300929924 C 366.6666666666667 442.26112300929924, 363.3333333333333 451.5711094562883, 360 451.5711094562883 C 356.6666666666667 451.5711094562883, 353.3333333333333 427.0701262692612, 350 427.0701262692612 C 346.6666666666667 427.0701262692612, 343.3333333333333 427.4944515789605, 340 427.99316266044013 C 336.6666666666667 428.4918737419198, 333.3333333333333 431.93951704749446, 330 431.93951704749446 C 326.6666666666667 431.93951704749446, 323.3333333333333 428.572399306142, 320 428.572399306142 C 316.6666666666667 428.572399306142, 313.3333333333333 436.3982401837443, 310 436.9459577978784 C 306.6666666666667 437.4936754120125, 303.3333333333333 437.344119966045, 300 437.8569131145231 C 296.6666666666667 438.36970626300115, 293.3333333333333 442.79956138343476, 290 442.79956138343476 C 286.6666666666667 442.79956138343476, 283.3333333333333 438.1286096447705, 280 438.1286096447705 C 276.6666666666667 438.1286096447705, 273.3333333333333 438.7454693490309, 270 439.4994428395338 C 266.6666666666667 440.2534163300367, 263.3333333333333 445.9626883822363, 260 445.9626883822363 C 256.6666666666667 445.9626883822363, 253.33333333333334 437.9300206918517, 250 437.9300206918517 C 246.66666666666666 437.9300206918517, 243.33333333333334 441.1089580206892, 240 442.75308622114113 C 236.66666666666666 444.39721442159305, 233.33333333333334 447.7998604513385, 230 447.7998604513385 C 226.66666666666666 447.7998604513385, 223.33333333333334 434.3609514487226, 220 431.0962591595216 C 216.66666666666666 427.8315668703206, 213.33333333333334 424.16806350320576, 210 424.16806350320576 C 206.66666666666666 424.16806350320576, 203.33333333333334 438.11860637494374, 200 438.11860637494374 C 196.66666666666666 438.11860637494374, 193.33333333333334 435.01047455726257, 190 435.01047455726257 C 186.66666666666666 435.01047455726257, 183.33333333333334 442.57034160645895, 180 442.57034160645895 C 176.66666666666666 442.57034160645895, 173.33333333333334 442.2179724299734, 170 441.76024346153594 C 166.66666666666666 441.3025144930985, 163.33333333333334 437.2567054007198, 160 437.2567054007198 C 156.66666666666666 437.2567054007198, 153.33333333333334 447.42684069845143, 150 447.42684069845143 C 146.66666666666666 447.42684069845143, 143.33333333333334 437.79972364905973, 140 437.79972364905973 C 136.66666666666666 437.79972364905973, 133.33333333333334 437.87452097175776, 130 437.87452097175776 C 126.66666666666667 437.87452097175776, 123.33333333333333 437.84588523836345, 120 437.84588523836345 C 116.66666666666667 437.84588523836345, 113.33333333333333 440.5737047860739, 110 441.1163957691273 C 106.66666666666667 441.65908675218066, 103.33333333333333 442.20019099824356, 100 442.20019099824356 C 96.66666666666667 442.20019099824356, 93.33333333333333 421.117418447085, 90 421.117418447085 C 86.66666666666667 421.117418447085, 83.33333333333333 423.91306888770447, 80 425.4237072691958 C 76.66666666666667 426.93434565068713, 73.33333333333333 430.2061992127493, 70 430.2061992127493 C 66.66666666666667 430.2061992127493, 63.333333333333336 429.20753939919194, 60 429.20753939919194 C 56.666666666666664 429.20753939919194, 53.333333333333336 429.97364358510447, 50 431.07900653117247 C 46.666666666666664 432.18436947724047, 43.333333333333336 445.61811341376114, 40 445.61811341376114 C 36.666666666666664 445.61811341376114, 33.333333333333336 413.0007096489295, 30 413.0007096489295 C 26.666666666666668 413.0007096489295, 23.333333333333332 413.7771268683144, 20 414.4061139716688 C 16.666666666666668 415.0351010750232, 13.333333333333334 417.2766570585442, 10 417.2766570585442 C 3.3333333333333335 409.11675237708465, 6.666666666666666 417.2766570585442, 10 417.2766570585442 Z" fill="white" stroke="transparent" stroke-width="0" />
  </g>
</svg>