<svg 
  baseProfile="tiny"
  preserveAspectRatio="keep"
  version="1.2"
  viewBox="-0.000000 -0.000000 2010.000000 800.000000"
  height="100%" width="100%"
  xmlns="http://www.w3.org/2000/svg"
  xmlns:ev="http://www.w3.org/2001/xml-events"
  xmlns:xlink="http://www.w3.org/1999/xlink"
>
  <g style="transform-origin: center center;">
    <path d="M 0 400 C 3.3333333333333335 362.48098222982765, 6.666666666666666 325.95082971879447, 10 323.8854671626004 C 13.333333333333334 321.8201046064063, 16.666666666666668 322.12302874629654, 20 320.6559752714357 C 23.333333333333332 319.18892179657485, 26.666666666666668 313.74891405580837, 30 313.74891405580837 C 33.333333333333336 313.74891405580837, 36.666666666666664 327.87661404640374, 40 328.67689465327436 C 43.333333333333336 329.477175260145, 46.666666666666664 329.17499812120866, 50 329.9822876339802 C 53.333333333333336 330.78957714675175, 56.666666666666664 346.7170606278082, 60 346.7170606278082 C 63.333333333333336 346.7170606278082, 66.66666666666667 341.80727790816087, 70 338.3991479180859 C 73.33333333333333 334.9910179280109, 76.66666666666667 327.7574396069479, 80 325.1344766980329 C 83.33333333333333 322.51151378911794, 86.66666666666667 321.1243272999653, 90 319.5409245030657 C 93.33333333333333 317.9575217061661, 96.66666666666667 315.4130749038957, 100 315.4130749038957 C 103.33333333333333 315.4130749038957, 106.66666666666667 324.6513859274528, 110 327.40382477728264 C 113.33333333333333 330.1562636271125, 116.66666666666667 330.6118381662365, 120 333.70058538659725 C 123.33333333333333 336.789332606958, 126.66666666666667 351.23662480821656, 130 351.23662480821656 C 133.33333333333334 351.23662480821656, 136.66666666666666 339.56829010975883, 140 335.8351541180316 C 143.33333333333334 332.10201812630436, 146.66666666666666 329.9987293777703, 150 327.0363651389216 C 153.33333333333334 324.0740009000729, 156.66666666666666 318.0591783024684, 160 318.0591783024684 C 163.33333333333334 318.0591783024684, 166.66666666666666 320.1017513641852, 170 321.9089162496472 C 173.33333333333334 323.71608113510916, 176.66666666666666 327.5173115764032, 180 331.0711224000808 C 183.33333333333334 334.62493322375843, 186.66666666666666 342.36977635225844, 190 343.81841448849576 C 193.33333333333334 345.2670526247331, 196.66666666666666 346.4379002985497, 200 346.4379002985497 C 203.33333333333334 346.4379002985497, 206.66666666666666 336.7068635321293, 210 329.4159614892844 C 213.33333333333334 322.12505944643954, 216.66666666666666 300.53851653097183, 220 298.8259837193563 C 223.33333333333334 297.1134509077408, 226.66666666666666 297.1405013608412, 230 296.02169371388254 C 233.33333333333334 294.9028860669239, 236.66666666666666 291.8424189056018, 240 291.8424189056018 C 243.33333333333334 291.8424189056018, 246.66666666666666 300.7807421617207, 250 305.3092872369614 C 253.33333333333334 309.83783231220207, 256.6666666666667 319.01580285240163, 260 319.01580285240163 C 263.3333333333333 319.01580285240163, 266.6666666666667 296.15740931732796, 270 296.15740931732796 C 273.3333333333333 296.15740931732796, 276.6666666666667 312.79540822439947, 280 314.5011967499421 C 283.3333333333333 316.2069852754847, 286.6666666666667 317.47462861713393, 290 317.47462861713393 C 293.3333333333333 317.47462861713393, 296.6666666666667 296.7943835830704, 300 296.7943835830704 C 303.3333333333333 296.7943835830704, 306.6666666666667 309.99920120201256, 310 317.1167995928086 C 313.3333333333333 324.23439798360465, 316.6666666666667 339.6100381193303, 320 339.6100381193303 C 323.3333333333333 339.6100381193303, 326.6666666666667 314.9388147922235, 330 314.9388147922235 C 333.3333333333333 314.9388147922235, 336.6666666666667 316.78026890962536, 340 316.78026890962536 C 343.3333333333333 316.78026890962536, 346.6666666666667 271.216972611921, 350 271.216972611921 C 353.3333333333333 271.216972611921, 356.6666666666667 296.66041989272355, 360 307.9209706814264 C 363.3333333333333 319.18152147012927, 366.6666666666667 338.0472331627917, 370 339.21130900626196 C 373.3333333333333 340.3753848497322, 376.6666666666667 341.0606210556154, 380 341.0606210556154 C 383.3333333333333 341.0606210556154, 386.6666666666667 332.7595193094742, 390 332.7595193094742 C 393.3333333333333 332.7595193094742, 396.6666666666667 341.97351639616886, 400 341.97351639616886 C 403.3333333333333 341.97351639616886, 406.6666666666667 305.1304090898852, 410 295.76874795914875 C 413.3333333333333 286.40708682841233, 416.6666666666667 275.59511154889174, 420 275.59511154889174 C 423.3333333333333 275.59511154889174, 426.6666666666667 307.11066474316266, 430 316.06688665180997 C 433.3333333333333 325.0231085604573, 436.6666666666667 333.38860211004936, 440 336.17645520724756 C 443.3333333333333 338.96430830444575, 446.6666666666667 341.45614499645586, 450 341.45614499645586 C 453.3333333333333 341.45614499645586, 456.6666666666667 332.9810798182408, 460 332.9810798182408 C 463.3333333333333 332.9810798182408, 466.6666666666667 334.9764602709857, 470 334.9764602709857 C 473.3333333333333 334.9764602709857, 476.6666666666667 286.0307550750935, 480 286.0307550750935 C 483.3333333333333 286.0307550750935, 486.6666666666667 287.16307014210247, 490 288.2843240915751 C 493.3333333333333 289.40557804104776, 496.6666666666667 291.3782296490693, 500 294.91422384187666 C 503.3333333333333 298.45021803468404, 506.6666666666667 316.7074768285697, 510 321.43561016368966 C 513.3333333333334 326.1637434988096, 516.6666666666666 331.1166628363591, 520 331.1166628363591 C 523.3333333333334 331.1166628363591, 526.6666666666666 307.14357179029, 530 307.14357179029 C 533.3333333333334 307.14357179029, 536.6666666666666 320.46537947021176, 540 320.46537947021176 C 543.3333333333334 320.46537947021176, 546.6666666666666 304.96069163550993, 550 300.2377978998166 C 553.3333333333334 295.51490416412327, 556.6666666666666 289.33492563323176, 560 289.33492563323176 C 563.3333333333334 289.33492563323176, 566.6666666666666 290.6172492108607, 570 292.3589051799933 C 573.3333333333334 294.10056114912595, 576.6666666666666 305.62734543203464, 580 311.55740493409894 C 583.3333333333334 317.48746443616324, 586.6666666666666 328.1317585252319, 590 328.1317585252319 C 593.3333333333334 328.1317585252319, 596.6666666666666 305.40321760180126, 600 305.40321760180126 C 603.3333333333334 305.40321760180126, 606.6666666666666 311.263699269971, 610 311.263699269971 C 613.3333333333334 311.263699269971, 616.6666666666666 303.207838329153, 620 303.207838329153 C 623.3333333333334 303.207838329153, 626.6666666666666 321.64899894318273, 630 321.64899894318273 C 633.3333333333334 321.64899894318273, 636.6666666666666 320.3398880865977, 640 319.3853361766872 C 643.3333333333334 318.4307842667767, 646.6666666666666 315.4889194485877, 650 315.4889194485877 C 653.3333333333334 315.4889194485877, 656.6666666666666 325.592995678377, 660 325.592995678377 C 663.3333333333334 325.592995678377, 666.6666666666666 311.25689661027405, 670 310.34208498390973 C 673.3333333333334 309.4272733575454, 676.6666666666666 309.26558643987136, 680 308.83419333737487 C 683.3333333333334 308.4028002348784, 686.6666666666666 307.7006677512198, 690 307.7006677512198 C 693.3333333333334 307.7006677512198, 696.6666666666666 313.0057631269241, 700 314.64651216043126 C 703.3333333333334 316.28726119393843, 706.6666666666666 318.45825023501845, 710 318.45825023501845 C 713.3333333333334 318.45825023501845, 716.6666666666666 316.64947967563876, 720 316.4158400935435 C 723.3333333333334 316.1822005114483, 726.6666666666666 315.99278890832045, 730 315.99278890832045 C 733.3333333333334 315.99278890832045, 736.6666666666666 328.35887474675474, 740 328.35887474675474 C 743.3333333333334 328.35887474675474, 746.6666666666666 328.01796998929143, 750 327.4992674306185 C 753.3333333333334 326.98056487194555, 756.6666666666666 319.2982588793866, 760 319.2982588793866 C 763.3333333333334 319.2982588793866, 766.6666666666666 323.60934639848165, 770 326.3025447856478 C 773.3333333333334 328.99574317281395, 776.6666666666666 335.8474962754141, 780 335.8474962754141 C 783.3333333333334 335.8474962754141, 786.6666666666666 292.3186300844727, 790 292.3186300844727 C 793.3333333333334 292.3186300844727, 796.6666666666666 293.96889141005875, 800 295.86608398883556 C 803.3333333333334 297.76327656761237, 806.6666666666666 310.25372525719956, 810 310.25372525719956 C 813.3333333333334 310.25372525719956, 816.6666666666666 291.60510199011577, 820 291.60510199011577 C 823.3333333333334 291.60510199011577, 826.6666666666666 292.37574881055474, 830 293.46695200015455 C 833.3333333333334 294.55815518975436, 836.6666666666666 307.0086078855963, 840 307.0086078855963 C 843.3333333333334 307.0086078855963, 846.6666666666666 301.81539235613474, 850 299.0808012450856 C 853.3333333333334 296.3462101340364, 856.6666666666666 290.581155519244, 860 290.581155519244 C 863.3333333333334 290.581155519244, 866.6666666666666 313.46514454789275, 870 313.46514454789275 C 873.3333333333334 313.46514454789275, 876.6666666666666 300.3834117605651, 880 300.3834117605651 C 883.3333333333334 300.3834117605651, 886.6666666666666 310.9486949397219, 890 312.172503107801 C 893.3333333333334 313.39631127588007, 896.6666666666666 313.2663911089056, 900 314.3467777155152 C 903.3333333333334 315.4271643221248, 906.6666666666666 320.7105477893483, 910 320.7105477893483 C 913.3333333333334 320.7105477893483, 916.6666666666666 314.54080714331855, 920 314.54080714331855 C 923.3333333333334 314.54080714331855, 926.6666666666666 316.73978356245993, 930 318.54984503422304 C 933.3333333333334 320.35990650598615, 936.6666666666666 326.9620277699961, 940 326.9620277699961 C 943.3333333333334 326.9620277699961, 946.6666666666666 319.4200518056814, 950 319.4200518056814 C 953.3333333333334 319.4200518056814, 956.6666666666666 321.39357819311726, 960 322.90310469350777 C 963.3333333333334 324.4126311938983, 966.6666666666666 329.3741249546795, 970 329.3741249546795 C 973.3333333333334 329.3741249546795, 976.6666666666666 315.0755989741303, 980 314.6269326128115 C 983.3333333333334 314.17826625149274, 986.6666666666666 314.171410507874, 990 313.92175158874466 C 993.3333333333334 313.6720926696153, 996.6666666666666 313.12317895012166, 1000 313.12317895012166 C 1003.3333333333334 313.12317895012166, 1006.6666666666666 320.6895042247424, 1010 320.6895042247424 C 1013.3333333333334 320.6895042247424, 1016.6666666666666 317.80291174092065, 1020 316.26770567907215 C 1023.3333333333334 314.73249961722365, 1026.6666666666667 311.4623217336944, 1030 311.4623217336944 C 1033.3333333333333 311.4623217336944, 1036.6666666666667 325.694751704537, 1040 325.694751704537 C 1043.3333333333333 325.694751704537, 1046.6666666666667 315.8820792472826, 1050 315.8820792472826 C 1053.3333333333333 315.8820792472826, 1056.6666666666667 315.96542462089974, 1060 316.10575798144 C 1063.3333333333333 316.2460913419802, 1066.6666666666667 319.67852361371513, 1070 319.67852361371513 C 1073.3333333333333 319.67852361371513, 1076.6666666666667 316.31530872898793, 1080 316.31530872898793 C 1083.3333333333333 316.31530872898793, 1086.6666666666667 318.3467413741191, 1090 319.7990705134012 C 1093.3333333333333 321.2513996526833, 1096.6666666666667 323.28150973127003, 1100 325.61347237708037 C 1103.3333333333333 327.9454350228907, 1106.6666666666667 334.3934514887076, 1110 334.3934514887076 C 1113.3333333333333 334.3934514887076, 1116.6666666666667 322.4072793517982, 1120 321.14066016498737 C 1123.3333333333333 319.87404097817654, 1126.6666666666667 318.9227737458002, 1130 318.9227737458002 C 1133.3333333333333 318.9227737458002, 1136.6666666666667 324.18030379850813, 1140 325.5621359359907 C 1143.3333333333333 326.94396807347323, 1146.6666666666667 328.57568735910314, 1150 328.57568735910314 C 1153.3333333333333 328.57568735910314, 1156.6666666666667 325.20338775619064, 1160 322.96481164319175 C 1163.3333333333333 320.72623553019287, 1166.6666666666667 317.9454349108856, 1170 314.602422841429 C 1173.3333333333333 311.25941077197245, 1176.6666666666667 306.24677704754293, 1180 302.07704362920043 C 1183.3333333333333 297.90731021085793, 1186.6666666666667 289.5839805887686, 1190 289.5839805887686 C 1193.3333333333333 289.5839805887686, 1196.6666666666667 291.52652658927553, 1200 291.52652658927553 C 1203.3333333333333 291.52652658927553, 1206.6666666666667 289.06024296176156, 1210 289.06024296176156 C 1213.3333333333333 289.06024296176156, 1216.6666666666667 306.89446854991826, 1220 306.89446854991826 C 1223.3333333333333 306.89446854991826, 1226.6666666666667 290.93113361772157, 1230 290.93113361772157 C 1233.3333333333333 290.93113361772157, 1236.6666666666667 316.216658561292, 1240 316.216658561292 C 1243.3333333333333 316.216658561292, 1246.6666666666667 291.6185000986019, 1250 291.6185000986019 C 1253.3333333333333 291.6185000986019, 1256.6666666666667 311.18027781303425, 1260 311.18027781303425 C 1263.3333333333333 311.18027781303425, 1266.6666666666667 310.8825761378555, 1270 310.8825761378555 C 1273.3333333333333 310.8825761378555, 1276.6666666666667 312.62662246076826, 1280 314.25003275798343 C 1283.3333333333333 315.8734430551986, 1286.6666666666667 323.0452526354305, 1290 323.0452526354305 C 1293.3333333333333 323.0452526354305, 1296.6666666666667 321.78505574120885, 1300 320.49256364633095 C 1303.3333333333333 319.20007155145305, 1306.6666666666667 312.4316650669507, 1310 312.4316650669507 C 1313.3333333333333 312.4316650669507, 1316.6666666666667 317.4092204713634, 1320 318.6227699966414 C 1323.3333333333333 319.8363195219194, 1326.6666666666667 320.8619462202304, 1330 321.20121526677167 C 1333.3333333333333 321.54048431331296, 1336.6666666666667 321.4841134920506, 1340 321.835259027442 C 1343.3333333333333 322.18640456283345, 1346.6666666666667 324.94693878379735, 1350 324.94693878379735 C 1353.3333333333333 324.94693878379735, 1356.6666666666667 315.38370405736714, 1360 315.38370405736714 C 1363.3333333333333 315.38370405736714, 1366.6666666666667 325.1981123090043, 1370 325.1981123090043 C 1373.3333333333333 325.1981123090043, 1376.6666666666667 314.50468604371406, 1380 314.50468604371406 C 1383.3333333333333 314.50468604371406, 1386.6666666666667 320.1684902230844, 1390 320.1684902230844 C 1393.3333333333333 320.1684902230844, 1396.6666666666667 315.246641585311, 1400 315.246641585311 C 1403.3333333333333 315.246641585311, 1406.6666666666667 321.4273144818071, 1410 322.9667347352844 C 1413.3333333333333 324.50615498876164, 1416.6666666666667 326.26128736653436, 1420 326.26128736653436 C 1423.3333333333333 326.26128736653436, 1426.6666666666667 320.8434134028628, 1430 320.8434134028628 C 1433.3333333333333 320.8434134028628, 1436.6666666666667 325.1317792451897, 1440 325.1317792451897 C 1443.3333333333333 325.1317792451897, 1446.6666666666667 319.65173578673864, 1450 319.65173578673864 C 1453.3333333333333 319.65173578673864, 1456.6666666666667 325.0197279979362, 1460 325.0197279979362 C 1463.3333333333333 325.0197279979362, 1466.6666666666667 324.7627966259345, 1470 324.7627966259345 C 1473.3333333333333 324.7627966259345, 1476.6666666666667 327.2991539812521, 1480 327.96460079979835 C 1483.3333333333333 328.6300476183446, 1486.6666666666667 329.4149077382059, 1490 329.4149077382059 C 1493.3333333333333 329.4149077382059, 1496.6666666666667 326.6183446977093, 1500 325.1958059940797 C 1503.3333333333333 323.7732672904501, 1506.6666666666667 322.20520590907967, 1510 320.8785468294742 C 1513.3333333333333 319.55188774986874, 1516.6666666666667 317.18697060842396, 1520 317.18697060842396 C 1523.3333333333333 317.18697060842396, 1526.6666666666667 329.1586642140797, 1530 329.1586642140797 C 1533.3333333333333 329.1586642140797, 1536.6666666666667 325.97918076721623, 1540 324.74532029379463 C 1543.3333333333333 323.51145982037303, 1546.6666666666667 321.5578056322762, 1550 321.5578056322762 C 1553.3333333333333 321.5578056322762, 1556.6666666666667 329.43470916621243, 1560 329.43470916621243 C 1563.3333333333333 329.43470916621243, 1566.6666666666667 328.61865703045464, 1570 328.61865703045464 C 1573.3333333333333 328.61865703045464, 1576.6666666666667 336.3412638055034, 1580 336.4621361044783 C 1583.3333333333333 336.5830084034532, 1586.6666666666667 336.5295634621621, 1590 336.6477348193796 C 1593.3333333333333 336.76590617659707, 1596.6666666666667 340.5916264220756, 1600 340.5916264220756 C 1603.3333333333333 340.5916264220756, 1606.6666666666667 340.58623963108664, 1610 340.58623963108664 C 1613.3333333333333 340.58623963108664, 1616.6666666666667 341.84862310959124, 1620 343.1398294979533 C 1623.3333333333333 344.4310358863154, 1626.6666666666667 351.1585963906988, 1630 351.1585963906988 C 1633.3333333333333 351.1585963906988, 1636.6666666666667 350.9608538352482, 1640 350.9608538352482 C 1643.3333333333333 350.9608538352482, 1646.6666666666667 355.2753134086348, 1650 355.2753134086348 C 1653.3333333333333 355.2753134086348, 1656.6666666666667 353.81105873779467, 1660 353.81105873779467 C 1663.3333333333333 353.81105873779467, 1666.6666666666667 354.29018994231643, 1670 354.7328614528985 C 1673.3333333333333 355.1755329634805, 1676.6666666666667 356.51525355875293, 1680 357.1071613187683 C 1683.3333333333333 357.6990690787837, 1686.6666666666667 358.52534993647345, 1690 358.52534993647345 C 1693.3333333333333 358.52534993647345, 1696.6666666666667 357.4912309774874, 1700 357.4912309774874 C 1703.3333333333333 357.4912309774874, 1706.6666666666667 357.9842340650645, 1710 358.27871879201064 C 1713.3333333333333 358.57320351895675, 1716.6666666666667 359.2847749366212, 1720 359.2847749366212 C 1723.3333333333333 359.2847749366212, 1726.6666666666667 356.2254796410626, 1730 356.2254796410626 C 1733.3333333333333 356.2254796410626, 1736.6666666666667 357.1372573163771, 1740 357.1372573163771 C 1743.3333333333333 357.1372573163771, 1746.6666666666667 355.9380111315033, 1750 355.9380111315033 C 1753.3333333333333 355.9380111315033, 1756.6666666666667 357.52056306791417, 1760 357.52056306791417 C 1763.3333333333333 357.52056306791417, 1766.6666666666667 357.0310052687822, 1770 356.7575642584507 C 1773.3333333333333 356.4841232481192, 1776.6666666666667 356.3781638310542, 1780 355.8706037433242 C 1783.3333333333333 355.36304365559414, 1786.6666666666667 352.3179101463186, 1790 350.49505388172764 C 1793.3333333333333 348.6721976171367, 1796.6666666666667 346.08652152685346, 1800 344.93019025570015 C 1803.3333333333333 343.77385898454685, 1806.6666666666667 342.58437632147627, 1810 342.41026476211994 C 1813.3333333333333 342.2361532027636, 1816.6666666666667 342.1189001313386, 1820 342.1189001313386 C 1823.3333333333333 342.1189001313386, 1826.6666666666667 342.48581184988427, 1830 342.86726048586024 C 1833.3333333333333 343.2487091218362, 1836.6666666666667 344.302736289693, 1840 345.2975793016258 C 1843.3333333333333 346.2924223135586, 1846.6666666666667 347.5505197266662, 1850 349.1637505288127 C 1853.3333333333333 350.77698133095925, 1856.6666666666667 353.4253921166683, 1860 355.6322410894228 C 1863.3333333333333 357.83909006217726, 1866.6666666666667 360.44760915966236, 1870 362.4121653110376 C 1873.3333333333333 364.37672146241283, 1876.6666666666667 366.3239863644489, 1880 367.6244908190595 C 1883.3333333333333 368.92499527367005, 1886.6666666666667 369.71660309374056, 1890 370.74200246919196 C 1893.3333333333333 371.76740184464336, 1896.6666666666667 372.8927609914023, 1900 373.7779677312871 C 1903.3333333333333 374.6631744711719, 1906.6666666666667 374.9702052991835, 1910 376.1379321424484 C 1913.3333333333333 377.3056589857133, 1916.6666666666667 382.1029349732832, 1920 382.9325842713727 C 1923.3333333333333 383.76223356946224, 1926.6666666666667 384.4560970807506, 1930 384.4560970807506 C 1933.3333333333333 384.4560970807506, 1936.6666666666667 379.3097856105753, 1940 379.3097856105753 C 1943.3333333333333 379.3097856105753, 1946.6666666666667 379.8009906721952, 1950 380.4277175521923 C 1953.3333333333333 381.05444443218937, 1956.6666666666667 386.1766925027095, 1960 386.3372284256675 C 1963.3333333333333 386.4977643486255, 1966.6666666666667 386.58826154066304, 1970 386.58826154066304 C 1973.3333333333333 386.58826154066304, 1976.6666666666667 381.7607713748867, 1980 381.7607713748867 C 1983.3333333333333 381.7607713748867, 1986.6666666666667 386.0153962736783, 1990 387.13217772624955 C 1993.3333333333333 388.2489591788208, 1996.6666666666667 388.2506661780656, 2000 389.5665555446436 C 2003.3333333333333 390.8824449112216, 2006.6666666666667 395.18900740872084, 2010 400 c 0 0, 0 0, 0 0C 2006.6666666666667 404.81099259127916, 2003.3333333333333 409.1175550887784, 2000 410.4334444553564 C 1996.6666666666667 411.7493338219344, 1993.3333333333333 411.7510408211792, 1990 412.86782227375045 C 1986.6666666666667 413.9846037263217, 1983.3333333333333 418.2392286251133, 1980 418.2392286251133 C 1976.6666666666667 418.2392286251133, 1973.3333333333333 413.41173845933696, 1970 413.41173845933696 C 1966.6666666666667 413.41173845933696, 1963.3333333333333 413.5022356513745, 1960 413.6627715743325 C 1956.6666666666667 413.8233074972905, 1953.3333333333333 418.94555556781063, 1950 419.5722824478077 C 1946.6666666666667 420.1990093278048, 1943.3333333333333 420.6902143894247, 1940 420.6902143894247 C 1936.6666666666667 420.6902143894247, 1933.3333333333333 415.5439029192494, 1930 415.5439029192494 C 1926.6666666666667 415.5439029192494, 1923.3333333333333 416.23776643053776, 1920 417.0674157286273 C 1916.6666666666667 417.8970650267168, 1913.3333333333333 422.6943410142867, 1910 423.8620678575516 C 1906.6666666666667 425.0297947008165, 1903.3333333333333 425.3368255288281, 1900 426.2220322687129 C 1896.6666666666667 427.1072390085977, 1893.3333333333333 428.23259815535664, 1890 429.25799753080804 C 1886.6666666666667 430.28339690625944, 1883.3333333333333 431.07500472632995, 1880 432.3755091809405 C 1876.6666666666667 433.6760136355511, 1873.3333333333333 435.62327853758717, 1870 437.5878346889624 C 1866.6666666666667 439.55239084033764, 1863.3333333333333 442.16090993782274, 1860 444.3677589105772 C 1856.6666666666667 446.5746078833317, 1853.3333333333333 449.22301866904075, 1850 450.8362494711873 C 1846.6666666666667 452.4494802733338, 1843.3333333333333 453.7075776864414, 1840 454.7024206983742 C 1836.6666666666667 455.697263710307, 1833.3333333333333 456.7512908781638, 1830 457.13273951413976 C 1826.6666666666667 457.51418815011573, 1823.3333333333333 457.8810998686614, 1820 457.8810998686614 C 1816.6666666666667 457.8810998686614, 1813.3333333333333 457.7638467972364, 1810 457.58973523788006 C 1806.6666666666667 457.41562367852373, 1803.3333333333333 456.22614101545315, 1800 455.06980974429985 C 1796.6666666666667 453.91347847314654, 1793.3333333333333 451.3278023828633, 1790 449.50494611827236 C 1786.6666666666667 447.6820898536814, 1783.3333333333333 444.63695634440586, 1780 444.1293962566758 C 1776.6666666666667 443.6218361689458, 1773.3333333333333 443.5158767518808, 1770 443.2424357415493 C 1766.6666666666667 442.9689947312178, 1763.3333333333333 442.47943693208583, 1760 442.47943693208583 C 1756.6666666666667 442.47943693208583, 1753.3333333333333 444.0619888684967, 1750 444.0619888684967 C 1746.6666666666667 444.0619888684967, 1743.3333333333333 442.8627426836229, 1740 442.8627426836229 C 1736.6666666666667 442.8627426836229, 1733.3333333333333 443.7745203589374, 1730 443.7745203589374 C 1726.6666666666667 443.7745203589374, 1723.3333333333333 440.7152250633788, 1720 440.7152250633788 C 1716.6666666666667 440.7152250633788, 1713.3333333333333 441.42679648104325, 1710 441.72128120798936 C 1706.6666666666667 442.0157659349355, 1703.3333333333333 442.5087690225126, 1700 442.5087690225126 C 1696.6666666666667 442.5087690225126, 1693.3333333333333 441.47465006352655, 1690 441.47465006352655 C 1686.6666666666667 441.47465006352655, 1683.3333333333333 442.3009309212163, 1680 442.8928386812317 C 1676.6666666666667 443.48474644124707, 1673.3333333333333 444.8244670365195, 1670 445.2671385471015 C 1666.6666666666667 445.70981005768357, 1663.3333333333333 446.18894126220533, 1660 446.18894126220533 C 1656.6666666666667 446.18894126220533, 1653.3333333333333 444.7246865913652, 1650 444.7246865913652 C 1646.6666666666667 444.7246865913652, 1643.3333333333333 449.0391461647518, 1640 449.0391461647518 C 1636.6666666666667 449.0391461647518, 1633.3333333333333 448.8414036093012, 1630 448.8414036093012 C 1626.6666666666667 448.8414036093012, 1623.3333333333333 455.5689641136846, 1620 456.8601705020467 C 1616.6666666666667 458.15137689040876, 1613.3333333333333 459.41376036891336, 1610 459.41376036891336 C 1606.6666666666667 459.41376036891336, 1603.3333333333333 459.4083735779244, 1600 459.4083735779244 C 1596.6666666666667 459.4083735779244, 1593.3333333333333 463.23409382340293, 1590 463.3522651806204 C 1586.6666666666667 463.4704365378379, 1583.3333333333333 463.4169915965468, 1580 463.5378638955217 C 1576.6666666666667 463.6587361944966, 1573.3333333333333 471.38134296954536, 1570 471.38134296954536 C 1566.6666666666667 471.38134296954536, 1563.3333333333333 470.56529083378757, 1560 470.56529083378757 C 1556.6666666666667 470.56529083378757, 1553.3333333333333 478.4421943677238, 1550 478.4421943677238 C 1546.6666666666667 478.4421943677238, 1543.3333333333333 476.48854017962697, 1540 475.25467970620537 C 1536.6666666666667 474.02081923278377, 1533.3333333333333 470.8413357859203, 1530 470.8413357859203 C 1526.6666666666667 470.8413357859203, 1523.3333333333333 482.81302939157604, 1520 482.81302939157604 C 1516.6666666666667 482.81302939157604, 1513.3333333333333 480.44811225013126, 1510 479.1214531705258 C 1506.6666666666667 477.79479409092033, 1503.3333333333333 476.2267327095499, 1500 474.8041940059203 C 1496.6666666666667 473.3816553022907, 1493.3333333333333 470.5850922617941, 1490 470.5850922617941 C 1486.6666666666667 470.5850922617941, 1483.3333333333333 471.3699523816554, 1480 472.03539920020165 C 1476.6666666666667 472.7008460187479, 1473.3333333333333 475.2372033740655, 1470 475.2372033740655 C 1466.6666666666667 475.2372033740655, 1463.3333333333333 474.9802720020638, 1460 474.9802720020638 C 1456.6666666666667 474.9802720020638, 1453.3333333333333 480.34826421326136, 1450 480.34826421326136 C 1446.6666666666667 480.34826421326136, 1443.3333333333333 474.8682207548103, 1440 474.8682207548103 C 1436.6666666666667 474.8682207548103, 1433.3333333333333 479.1565865971372, 1430 479.1565865971372 C 1426.6666666666667 479.1565865971372, 1423.3333333333333 473.73871263346564, 1420 473.73871263346564 C 1416.6666666666667 473.73871263346564, 1413.3333333333333 475.49384501123836, 1410 477.0332652647156 C 1406.6666666666667 478.5726855181929, 1403.3333333333333 484.753358414689, 1400 484.753358414689 C 1396.6666666666667 484.753358414689, 1393.3333333333333 479.8315097769156, 1390 479.8315097769156 C 1386.6666666666667 479.8315097769156, 1383.3333333333333 485.49531395628594, 1380 485.49531395628594 C 1376.6666666666667 485.49531395628594, 1373.3333333333333 474.8018876909957, 1370 474.8018876909957 C 1366.6666666666667 474.8018876909957, 1363.3333333333333 484.61629594263286, 1360 484.61629594263286 C 1356.6666666666667 484.61629594263286, 1353.3333333333333 475.05306121620265, 1350 475.05306121620265 C 1346.6666666666667 475.05306121620265, 1343.3333333333333 477.81359543716655, 1340 478.164740972558 C 1336.6666666666667 478.5158865079494, 1333.3333333333333 478.45951568668704, 1330 478.79878473322833 C 1326.6666666666667 479.1380537797696, 1323.3333333333333 480.1636804780806, 1320 481.3772300033586 C 1316.6666666666667 482.5907795286366, 1313.3333333333333 487.5683349330493, 1310 487.5683349330493 C 1306.6666666666667 487.5683349330493, 1303.3333333333333 480.79992844854695, 1300 479.50743635366905 C 1296.6666666666667 478.21494425879115, 1293.3333333333333 476.9547473645695, 1290 476.9547473645695 C 1286.6666666666667 476.9547473645695, 1283.3333333333333 484.1265569448014, 1280 485.74996724201657 C 1276.6666666666667 487.37337753923174, 1273.3333333333333 489.1174238621445, 1270 489.1174238621445 C 1266.6666666666667 489.1174238621445, 1263.3333333333333 488.81972218696575, 1260 488.81972218696575 C 1256.6666666666667 488.81972218696575, 1253.3333333333333 508.3814999013981, 1250 508.3814999013981 C 1246.6666666666667 508.3814999013981, 1243.3333333333333 483.783341438708, 1240 483.783341438708 C 1236.6666666666667 483.783341438708, 1233.3333333333333 509.06886638227843, 1230 509.06886638227843 C 1226.6666666666667 509.06886638227843, 1223.3333333333333 493.10553145008174, 1220 493.10553145008174 C 1216.6666666666667 493.10553145008174, 1213.3333333333333 510.93975703823844, 1210 510.93975703823844 C 1206.6666666666667 510.93975703823844, 1203.3333333333333 508.47347341072447, 1200 508.47347341072447 C 1196.6666666666667 508.47347341072447, 1193.3333333333333 510.4160194112314, 1190 510.4160194112314 C 1186.6666666666667 510.4160194112314, 1183.3333333333333 502.09268978914207, 1180 497.92295637079957 C 1176.6666666666667 493.75322295245707, 1173.3333333333333 488.74058922802755, 1170 485.397577158571 C 1166.6666666666667 482.0545650891144, 1163.3333333333333 479.27376446980713, 1160 477.03518835680825 C 1156.6666666666667 474.79661224380936, 1153.3333333333333 471.42431264089686, 1150 471.42431264089686 C 1146.6666666666667 471.42431264089686, 1143.3333333333333 473.05603192652677, 1140 474.4378640640093 C 1136.6666666666667 475.81969620149187, 1133.3333333333333 481.0772262541998, 1130 481.0772262541998 C 1126.6666666666667 481.0772262541998, 1123.3333333333333 480.12595902182346, 1120 478.85933983501263 C 1116.6666666666667 477.5927206482018, 1113.3333333333333 465.6065485112924, 1110 465.6065485112924 C 1106.6666666666667 465.6065485112924, 1103.3333333333333 472.0545649771093, 1100 474.38652762291963 C 1096.6666666666667 476.71849026872997, 1093.3333333333333 478.7486003473167, 1090 480.2009294865988 C 1086.6666666666667 481.6532586258809, 1083.3333333333333 483.68469127101207, 1080 483.68469127101207 C 1076.6666666666667 483.68469127101207, 1073.3333333333333 480.32147638628487, 1070 480.32147638628487 C 1066.6666666666667 480.32147638628487, 1063.3333333333333 483.7539086580198, 1060 483.89424201856 C 1056.6666666666667 484.03457537910026, 1053.3333333333333 484.1179207527174, 1050 484.1179207527174 C 1046.6666666666667 484.1179207527174, 1043.3333333333333 474.305248295463, 1040 474.305248295463 C 1036.6666666666667 474.305248295463, 1033.3333333333333 488.5376782663056, 1030 488.5376782663056 C 1026.6666666666667 488.5376782663056, 1023.3333333333334 485.26750038277635, 1020 483.73229432092785 C 1016.6666666666666 482.19708825907935, 1013.3333333333334 479.3104957752576, 1010 479.3104957752576 C 1006.6666666666666 479.3104957752576, 1003.3333333333334 486.87682104987834, 1000 486.87682104987834 C 996.6666666666666 486.87682104987834, 993.3333333333334 486.3279073303847, 990 486.07824841125534 C 986.6666666666666 485.828589492126, 983.3333333333334 485.82173374850726, 980 485.3730673871885 C 976.6666666666666 484.9244010258697, 973.3333333333334 470.6258750453205, 970 470.6258750453205 C 966.6666666666666 470.6258750453205, 963.3333333333334 475.5873688061017, 960 477.09689530649223 C 956.6666666666666 478.60642180688274, 953.3333333333334 480.5799481943186, 950 480.5799481943186 C 946.6666666666666 480.5799481943186, 943.3333333333334 473.0379722300039, 940 473.0379722300039 C 936.6666666666666 473.0379722300039, 933.3333333333334 479.64009349401385, 930 481.45015496577696 C 926.6666666666666 483.26021643754007, 923.3333333333334 485.45919285668145, 920 485.45919285668145 C 916.6666666666666 485.45919285668145, 913.3333333333334 479.2894522106517, 910 479.2894522106517 C 906.6666666666666 479.2894522106517, 903.3333333333334 484.5728356778752, 900 485.6532222844848 C 896.6666666666666 486.7336088910944, 893.3333333333334 486.60368872411993, 890 487.827496892199 C 886.6666666666666 489.0513050602781, 883.3333333333334 499.6165882394349, 880 499.6165882394349 C 876.6666666666666 499.6165882394349, 873.3333333333334 486.53485545210725, 870 486.53485545210725 C 866.6666666666666 486.53485545210725, 863.3333333333334 509.418844480756, 860 509.418844480756 C 856.6666666666666 509.418844480756, 853.3333333333334 503.6537898659636, 850 500.9191987549144 C 846.6666666666666 498.18460764386526, 843.3333333333334 492.9913921144037, 840 492.9913921144037 C 836.6666666666666 492.9913921144037, 833.3333333333334 505.44184481024564, 830 506.53304799984545 C 826.6666666666666 507.62425118944526, 823.3333333333334 508.39489800988423, 820 508.39489800988423 C 816.6666666666666 508.39489800988423, 813.3333333333334 489.74627474280044, 810 489.74627474280044 C 806.6666666666666 489.74627474280044, 803.3333333333334 502.23672343238763, 800 504.13391601116444 C 796.6666666666666 506.03110858994125, 793.3333333333334 507.6813699155273, 790 507.6813699155273 C 786.6666666666666 507.6813699155273, 783.3333333333334 464.1525037245859, 780 464.1525037245859 C 776.6666666666666 464.1525037245859, 773.3333333333334 471.00425682718605, 770 473.6974552143522 C 766.6666666666666 476.39065360151835, 763.3333333333334 480.7017411206134, 760 480.7017411206134 C 756.6666666666666 480.7017411206134, 753.3333333333334 473.01943512805445, 750 472.5007325693815 C 746.6666666666666 471.98203001070857, 743.3333333333334 471.64112525324526, 740 471.64112525324526 C 736.6666666666666 471.64112525324526, 733.3333333333334 484.00721109167955, 730 484.00721109167955 C 726.6666666666666 484.00721109167955, 723.3333333333334 483.8177994885517, 720 483.5841599064565 C 716.6666666666666 483.35052032436124, 713.3333333333334 481.54174976498155, 710 481.54174976498155 C 706.6666666666666 481.54174976498155, 703.3333333333334 483.71273880606157, 700 485.35348783956874 C 696.6666666666666 486.9942368730759, 693.3333333333334 492.2993322487802, 690 492.2993322487802 C 686.6666666666666 492.2993322487802, 683.3333333333334 491.5971997651216, 680 491.16580666262513 C 676.6666666666666 490.73441356012864, 673.3333333333334 490.5727266424546, 670 489.65791501609027 C 666.6666666666666 488.74310338972595, 663.3333333333334 474.407004321623, 660 474.407004321623 C 656.6666666666666 474.407004321623, 653.3333333333334 484.5110805514123, 650 484.5110805514123 C 646.6666666666666 484.5110805514123, 643.3333333333334 481.5692157332233, 640 480.6146638233128 C 636.6666666666666 479.6601119134023, 633.3333333333334 478.35100105681727, 630 478.35100105681727 C 626.6666666666666 478.35100105681727, 623.3333333333334 496.792161670847, 620 496.792161670847 C 616.6666666666666 496.792161670847, 613.3333333333334 488.736300730029, 610 488.736300730029 C 606.6666666666666 488.736300730029, 603.3333333333334 494.59678239819874, 600 494.59678239819874 C 596.6666666666666 494.59678239819874, 593.3333333333334 471.8682414747681, 590 471.8682414747681 C 586.6666666666666 471.8682414747681, 583.3333333333334 482.51253556383676, 580 488.44259506590106 C 576.6666666666666 494.37265456796536, 573.3333333333334 505.89943885087405, 570 507.6410948200067 C 566.6666666666666 509.3827507891393, 563.3333333333334 510.66507436676824, 560 510.66507436676824 C 556.6666666666666 510.66507436676824, 553.3333333333334 504.48509583587673, 550 499.7622021001834 C 546.6666666666666 495.03930836449007, 543.3333333333334 479.53462052978824, 540 479.53462052978824 C 536.6666666666666 479.53462052978824, 533.3333333333334 492.85642820971, 530 492.85642820971 C 526.6666666666666 492.85642820971, 523.3333333333334 468.8833371636409, 520 468.8833371636409 C 516.6666666666666 468.8833371636409, 513.3333333333334 473.8362565011904, 510 478.56438983631034 C 506.6666666666667 483.2925231714303, 503.3333333333333 501.54978196531596, 500 505.08577615812334 C 496.6666666666667 508.6217703509307, 493.3333333333333 510.59442195895224, 490 511.7156759084249 C 486.6666666666667 512.8369298578975, 483.3333333333333 513.9692449249064, 480 513.9692449249064 C 476.6666666666667 513.9692449249064, 473.3333333333333 465.0235397290143, 470 465.0235397290143 C 466.6666666666667 465.0235397290143, 463.3333333333333 467.0189201817592, 460 467.0189201817592 C 456.6666666666667 467.0189201817592, 453.3333333333333 458.54385500354414, 450 458.54385500354414 C 446.6666666666667 458.54385500354414, 443.3333333333333 461.03569169555425, 440 463.82354479275244 C 436.6666666666667 466.61139788995064, 433.3333333333333 474.9768914395427, 430 483.93311334819003 C 426.6666666666667 492.88933525683734, 423.3333333333333 524.4048884511083, 420 524.4048884511083 C 416.6666666666667 524.4048884511083, 413.3333333333333 513.5929131715877, 410 504.23125204085125 C 406.6666666666667 494.8695909101148, 403.3333333333333 458.02648360383114, 400 458.02648360383114 C 396.6666666666667 458.02648360383114, 393.3333333333333 467.2404806905258, 390 467.2404806905258 C 386.6666666666667 467.2404806905258, 383.3333333333333 458.9393789443846, 380 458.9393789443846 C 376.6666666666667 458.9393789443846, 373.3333333333333 459.6246151502678, 370 460.78869099373804 C 366.6666666666667 461.9527668372083, 363.3333333333333 480.81847852987073, 360 492.0790293185736 C 356.6666666666667 503.33958010727645, 353.3333333333333 528.7830273880791, 350 528.7830273880791 C 346.6666666666667 528.7830273880791, 343.3333333333333 483.21973109037464, 340 483.21973109037464 C 336.6666666666667 483.21973109037464, 333.3333333333333 485.0611852077765, 330 485.0611852077765 C 326.6666666666667 485.0611852077765, 323.3333333333333 460.3899618806697, 320 460.3899618806697 C 316.6666666666667 460.3899618806697, 313.3333333333333 475.76560201639535, 310 482.8832004071914 C 306.6666666666667 490.00079879798744, 303.3333333333333 503.2056164169296, 300 503.2056164169296 C 296.6666666666667 503.2056164169296, 293.3333333333333 482.52537138286607, 290 482.52537138286607 C 286.6666666666667 482.52537138286607, 283.3333333333333 483.7930147245153, 280 485.4988032500579 C 276.6666666666667 487.20459177560053, 273.3333333333333 503.84259068267204, 270 503.84259068267204 C 266.6666666666667 503.84259068267204, 263.3333333333333 480.98419714759837, 260 480.98419714759837 C 256.6666666666667 480.98419714759837, 253.33333333333334 490.16216768779793, 250 494.6907127630386 C 246.66666666666666 499.2192578382793, 243.33333333333334 508.1575810943982, 240 508.1575810943982 C 236.66666666666666 508.1575810943982, 233.33333333333334 505.0971139330761, 230 503.97830628611746 C 226.66666666666666 502.8594986391588, 223.33333333333334 502.8865490922592, 220 501.1740162806437 C 216.66666666666666 499.46148346902817, 213.33333333333334 477.87494055356046, 210 470.5840385107156 C 206.66666666666666 463.2931364678707, 203.33333333333334 453.5620997014503, 200 453.5620997014503 C 196.66666666666666 453.5620997014503, 193.33333333333334 454.7329473752669, 190 456.18158551150424 C 186.66666666666666 457.63022364774156, 183.33333333333334 465.37506677624157, 180 468.9288775999192 C 176.66666666666666 472.4826884235968, 173.33333333333334 476.28391886489084, 170 478.0910837503528 C 166.66666666666666 479.8982486358148, 163.33333333333334 481.9408216975316, 160 481.9408216975316 C 156.66666666666666 481.9408216975316, 153.33333333333334 475.9259990999271, 150 472.9636348610784 C 146.66666666666666 470.0012706222297, 143.33333333333334 467.89798187369564, 140 464.1648458819684 C 136.66666666666666 460.43170989024117, 133.33333333333334 448.76337519178344, 130 448.76337519178344 C 126.66666666666667 448.76337519178344, 123.33333333333333 463.210667393042, 120 466.29941461340275 C 116.66666666666667 469.3881618337635, 113.33333333333333 469.8437363728875, 110 472.59617522271736 C 106.66666666666667 475.3486140725472, 103.33333333333333 484.5869250961043, 100 484.5869250961043 C 96.66666666666667 484.5869250961043, 93.33333333333333 482.0424782938339, 90 480.4590754969343 C 86.66666666666667 478.8756727000347, 83.33333333333333 477.48848621088206, 80 474.8655233019671 C 76.66666666666667 472.2425603930521, 73.33333333333333 465.0089820719891, 70 461.6008520819141 C 66.66666666666667 458.19272209183913, 63.333333333333336 453.2829393721918, 60 453.2829393721918 C 56.666666666666664 453.2829393721918, 53.333333333333336 469.21042285324825, 50 470.0177123660198 C 46.666666666666664 470.82500187879134, 43.333333333333336 470.522824739855, 40 471.32310534672564 C 36.666666666666664 472.12338595359626, 33.333333333333336 486.25108594419163, 30 486.25108594419163 C 26.666666666666668 486.25108594419163, 23.333333333333332 480.81107820342515, 20 479.3440247285643 C 16.666666666666668 477.87697125370346, 13.333333333333334 478.1798953935937, 10 476.1145328373996 C 3.3333333333333335 437.51901777017235, 6.666666666666666 474.04917028120553, 10 476.1145328373996 Z" fill="white" stroke="transparent" stroke-width="0" />
  </g>
</svg>