<svg 
  baseProfile="tiny"
  preserveAspectRatio="keep"
  version="1.2"
  viewBox="-0.000000 -0.000000 2010.000000 800.000000"
  height="100%" width="100%"
  xmlns="http://www.w3.org/2000/svg"
  xmlns:ev="http://www.w3.org/2001/xml-events"
  xmlns:xlink="http://www.w3.org/1999/xlink"
>
  <g style="transform-origin: center center;">
    <path d="M 0 400 C 3.3333333333333335 400, 6.666666666666666 399.7246778631537, 10 399.3706096176293 C 13.333333333333334 399.01654137210494, 16.666666666666668 396.7964910140494, 20 395.9696789368265 C 23.333333333333332 395.14286685960354, 26.666666666666668 394.9788285416197, 30 394.01759335662797 C 33.333333333333336 393.05635817163625, 36.666666666666664 388.5012486591718, 40 388.5012486591718 C 43.333333333333336 388.5012486591718, 46.666666666666664 398.42144276646076, 50 398.42144276646076 C 53.333333333333336 398.42144276646076, 56.666666666666664 394.65684840695275, 60 391.0517030730219 C 63.333333333333336 387.446557739091, 66.66666666666667 370.7392497736478, 70 370.7392497736478 C 73.33333333333333 370.7392497736478, 76.66666666666667 392.0233584291579, 80 392.0233584291579 C 83.33333333333333 392.0233584291579, 86.66666666666667 380.04678571062163, 90 378.2586265043159 C 93.33333333333333 376.47046729801013, 96.66666666666667 374.9272192310412, 100 374.9272192310412 C 103.33333333333333 374.9272192310412, 106.66666666666667 378.11293382469063, 110 379.85590799143137 C 113.33333333333333 381.5988821581721, 116.66666666666667 383.9563611302452, 120 385.42401472279784 C 123.33333333333333 386.89166831535044, 126.66666666666667 388.0484994678834, 130 389.06507153303187 C 133.33333333333334 390.08164359818034, 136.66666666666666 391.60344216365036, 140 391.688688553744 C 143.33333333333334 391.7739349438376, 146.66666666666666 391.82310953530015, 150 391.82310953530015 C 153.33333333333334 391.82310953530015, 156.66666666666666 377.7471850060753, 160 369.5461567875815 C 163.33333333333334 361.34512856908765, 166.66666666666666 342.07451746431946, 170 342.07451746431946 C 173.33333333333334 342.07451746431946, 176.66666666666666 348.1717197861267, 180 350.913102669713 C 183.33333333333334 353.6544855532993, 186.66666666666666 355.9607972518817, 190 358.6026902361907 C 193.33333333333334 361.24458322049975, 196.66666666666666 366.7794170849445, 200 366.7794170849445 C 203.33333333333334 366.7794170849445, 206.66666666666666 359.6889173955898, 210 354.97033839587334 C 213.33333333333334 350.2517593961569, 216.66666666666666 337.3040114489256, 220 337.3040114489256 C 223.33333333333334 337.3040114489256, 226.66666666666666 345.6365183970266, 230 348.54763542056236 C 233.33333333333334 351.45875244409814, 236.66666666666666 353.4062988072561, 240 355.6870313575311 C 243.33333333333334 357.9677639078061, 246.66666666666666 362.2557853654365, 250 362.2557853654365 C 253.33333333333334 362.2557853654365, 256.6666666666667 344.849172218436, 260 344.849172218436 C 263.3333333333333 344.849172218436, 266.6666666666667 344.902504639949, 270 345.00461176137986 C 273.3333333333333 345.10671888281075, 276.6666666666667 352.64250279718334, 280 355.4515975782648 C 283.3333333333333 358.26069235934625, 286.6666666666667 360.32959182695913, 290 362.5135955218276 C 293.3333333333333 364.69759921669606, 296.6666666666667 368.6243168204605, 300 368.6243168204605 C 303.3333333333333 368.6243168204605, 306.6666666666667 271.1618183212407, 310 271.1618183212407 C 313.3333333333333 271.1618183212407, 316.6666666666667 276.421613467486, 320 276.421613467486 C 323.3333333333333 276.421613467486, 326.6666666666667 276.16026799214205, 330 275.8063357319599 C 333.3333333333333 275.45240347177776, 336.6666666666667 272.9033461975525, 340 271.93512817064527 C 343.3333333333333 270.96691014373806, 346.6666666666667 269.80385905729264, 350 269.61080525703176 C 353.3333333333333 269.4177514567709, 356.6666666666667 269.28001197379126, 360 269.28001197379126 C 363.3333333333333 269.28001197379126, 366.6666666666667 275.1006305882765, 370 275.43428102095385 C 373.3333333333333 275.7679314536312, 376.6666666666667 275.9790589388395, 380 275.9790589388395 C 383.3333333333333 275.9790589388395, 386.6666666666667 274.19239360770047, 390 273.41095038048724 C 393.3333333333333 272.629507153274, 396.6666666666667 271.2545263630275, 400 271.2545263630275 C 403.3333333333333 271.2545263630275, 406.6666666666667 278.67601840395383, 410 280.2772324646029 C 413.3333333333333 281.87844652525195, 416.6666666666667 283.5503486383046, 420 283.5503486383046 C 423.3333333333333 283.5503486383046, 426.6666666666667 283.2032176881136, 430 282.806831675131 C 433.3333333333333 282.41044566214833, 436.6666666666667 279.83861836464246, 440 279.83861836464246 C 443.3333333333333 279.83861836464246, 446.6666666666667 286.0591073391223, 450 290.3203034248713 C 453.3333333333333 294.58149951062035, 456.6666666666667 304.3744371618874, 460 306.7013693619411 C 463.3333333333333 309.0283015619948, 466.6666666666667 310.5059094410333, 470 311.1368607042351 C 473.3333333333333 311.76781196743696, 476.6666666666667 312.3400108211756, 480 312.3400108211756 C 483.3333333333333 312.3400108211756, 486.6666666666667 311.6210219604811, 490 311.0687443444994 C 493.3333333333333 310.51646672851774, 496.6666666666667 308.69065265839834, 500 308.69065265839834 C 503.3333333333333 308.69065265839834, 506.6666666666667 310.8950134255091, 510 310.9945799587986 C 513.3333333333334 311.09414649208816, 516.6666666666666 311.154282304759, 520 311.154282304759 C 523.3333333333334 311.154282304759, 526.6666666666666 310.6217695879569, 530 310.2585079210614 C 533.3333333333334 309.89524625416584, 536.6666666666666 309.75739808250256, 540 308.8674393967749 C 543.3333333333334 307.97748071104724, 546.6666666666666 276.96573171756046, 550 275.783992503013 C 553.3333333333334 274.60225328846553, 556.6666666666666 273.9110305054646, 560 273.9110305054646 C 563.3333333333334 273.9110305054646, 566.6666666666666 277.69849348644095, 570 277.69849348644095 C 573.3333333333334 277.69849348644095, 576.6666666666666 276.93764828036933, 580 276.35469030848276 C 583.3333333333334 275.7717323365962, 586.6666666666666 273.8511629721218, 590 273.8511629721218 C 593.3333333333334 273.8511629721218, 596.6666666666666 275.60609921794463, 600 277.0458967946287 C 603.3333333333334 278.4856943713127, 606.6666666666666 282.06542541331413, 610 283.7119888996305 C 613.3333333333334 285.3585523859469, 616.6666666666666 287.635546372094, 620 287.635546372094 C 623.3333333333334 287.635546372094, 626.6666666666666 286.54272980256764, 630 286.54272980256764 C 633.3333333333334 286.54272980256764, 636.6666666666666 286.86847704679644, 640 287.42942432099795 C 643.3333333333334 287.99037159519946, 646.6666666666666 301.94861262065643, 650 303.90885587224335 C 653.3333333333334 305.86909912383027, 656.6666666666666 306.2770104503884, 660 307.48779841678464 C 663.3333333333334 308.6985863831809, 666.6666666666666 310.2137413654683, 670 311.17520263189147 C 673.3333333333334 312.1366638983146, 676.6666666666666 313.543773502922, 680 313.543773502922 C 683.3333333333334 313.543773502922, 686.6666666666666 312.9722033873679, 690 312.25165656252767 C 693.3333333333334 311.5311097376874, 696.6666666666666 305.64224847725416, 700 305.64224847725416 C 703.3333333333334 305.64224847725416, 706.6666666666666 308.46772641534795, 710 309.4404223807687 C 713.3333333333334 310.4131183461895, 716.6666666666666 311.7762212926178, 720 311.80955225109443 C 723.3333333333334 311.8428832095711, 726.6666666666666 311.8606265240685, 730 311.8606265240685 C 733.3333333333334 311.8606265240685, 736.6666666666666 297.05471006557974, 740 289.90467759913355 C 743.3333333333334 282.75464513268736, 746.6666666666666 268.9376476421197, 750 268.9376476421197 C 753.3333333333334 268.9376476421197, 756.6666666666666 274.8953799680699, 760 276.5051812980124 C 763.3333333333334 278.11498262795493, 766.6666666666666 280.0514525169696, 770 280.0514525169696 C 773.3333333333334 280.0514525169696, 776.6666666666666 279.41773807814485, 780 278.6243397214929 C 783.3333333333334 277.83094136484095, 786.6666666666666 273.9165950751751, 790 271.45854197303515 C 793.3333333333334 269.0004888708952, 796.6666666666666 263.86354106926876, 800 263.86354106926876 C 803.3333333333334 263.86354106926876, 806.6666666666666 271.5404070335898, 810 274.32618200354113 C 813.3333333333334 277.11195697349245, 816.6666666666666 281.24451455493926, 820 281.28353314583535 C 823.3333333333334 281.32255173673144, 826.6666666666666 281.342557568089, 830 281.342557568089 C 833.3333333333334 281.342557568089, 836.6666666666666 278.2197482047487, 840 277.675576862798 C 843.3333333333334 277.13140552084724, 846.6666666666666 276.62559831700787, 850 276.62559831700787 C 853.3333333333334 276.62559831700787, 856.6666666666666 282.3512113708414, 860 284.26309104308984 C 863.3333333333334 286.1749707153383, 866.6666666666666 288.48939927280435, 870 288.8552191900641 C 873.3333333333334 289.2210391073238, 876.6666666666666 289.0872987333881, 880 289.47841723765146 C 883.3333333333334 289.86953574191483, 886.6666666666666 299.48974026963066, 890 299.48974026963066 C 893.3333333333334 299.48974026963066, 896.6666666666666 299.17489477954797, 900 299.17489477954797 C 903.3333333333334 299.17489477954797, 906.6666666666666 303.0860959967316, 910 304.73099681982757 C 913.3333333333334 306.3758976429235, 916.6666666666666 307.64398344410466, 920 309.16931382613285 C 923.3333333333334 310.69464420816104, 926.6666666666666 312.37797730255926, 930 313.8917936866324 C 933.3333333333334 315.40561007070556, 936.6666666666666 316.6062047061932, 940 318.26557892845284 C 943.3333333333334 319.9249531507125, 946.6666666666666 322.03276733125773, 950 324.04182004115137 C 953.3333333333334 326.050872751045, 956.6666666666666 327.9918030423685, 960 330.34268456571186 C 963.3333333333334 332.69356608905525, 966.6666666666666 337.31528746569234, 970 338.3508088145102 C 973.3333333333334 339.386330163328, 976.6666666666666 340.27786992626704, 980 340.27786992626704 C 983.3333333333334 340.27786992626704, 986.6666666666666 337.80391765353147, 990 337.80391765353147 C 993.3333333333334 337.80391765353147, 996.6666666666666 345.6741186459606, 1000 348.0703293115308 C 1003.3333333333334 350.46653997710104, 1006.6666666666666 352.2235088590606, 1010 353.6009346191318 C 1013.3333333333334 354.978360379203, 1016.6666666666666 356.8992770267611, 1020 356.8992770267611 C 1023.3333333333334 356.8992770267611, 1026.6666666666667 314.11477867546694, 1030 300.6547985173138 C 1033.3333333333333 287.19481835916065, 1036.6666666666667 269.1587554000296, 1040 269.1587554000296 C 1043.3333333333333 269.1587554000296, 1046.6666666666667 275.2109778304915, 1050 276.74451471765974 C 1053.3333333333333 278.27805160482797, 1056.6666666666667 280.0459458983059, 1060 280.0459458983059 C 1063.3333333333333 280.0459458983059, 1066.6666666666667 279.98135772348377, 1070 279.89903678858354 C 1073.3333333333333 279.8167158536833, 1076.6666666666667 279.1247167666332, 1080 279.1247167666332 C 1083.3333333333333 279.1247167666332, 1086.6666666666667 285.07383809135945, 1090 285.9606367799207 C 1093.3333333333333 286.847435468482, 1096.6666666666667 287.39172654007234, 1100 287.61221442707307 C 1103.3333333333333 287.8327023140738, 1106.6666666666667 288.0257595142977, 1110 288.0257595142977 C 1113.3333333333333 288.0257595142977, 1116.6666666666667 286.7524307931351, 1120 286.7524307931351 C 1123.3333333333333 286.7524307931351, 1126.6666666666667 299.1202989654501, 1130 299.1202989654501 C 1133.3333333333333 299.1202989654501, 1136.6666666666667 296.6381050013193, 1140 296.6381050013193 C 1143.3333333333333 296.6381050013193, 1146.6666666666667 296.75636773259686, 1150 296.96896252682177 C 1153.3333333333333 297.1815573210467, 1156.6666666666667 303.9427495836799, 1160 305.7867589938173 C 1163.3333333333333 307.6307684039546, 1166.6666666666667 309.81700133812626, 1170 309.81700133812626 C 1173.3333333333333 309.81700133812626, 1176.6666666666667 301.6759923947957, 1180 301.6759923947957 C 1183.3333333333333 301.6759923947957, 1186.6666666666667 302.2299718782494, 1190 302.8912927719404 C 1193.3333333333333 303.55261366563144, 1196.6666666666667 306.89395020504963, 1200 308.2896471423726 C 1203.3333333333333 309.68534407969554, 1206.6666666666667 311.7094212090962, 1210 311.7094212090962 C 1213.3333333333333 311.7094212090962, 1216.6666666666667 307.5737222615154, 1220 303.39093674420087 C 1223.3333333333333 299.20815122688634, 1226.6666666666667 277.86068359453066, 1230 277.86068359453066 C 1233.3333333333333 277.86068359453066, 1236.6666666666667 281.22731118099, 1240 281.22731118099 C 1243.3333333333333 281.22731118099, 1246.6666666666667 280.6987269302517, 1250 280.4704880634232 C 1253.3333333333333 280.2422491965947, 1256.6666666666667 279.8453332486248, 1260 279.8453332486248 C 1263.3333333333333 279.8453332486248, 1266.6666666666667 284.2731898014395, 1270 287.67268288106595 C 1273.3333333333333 291.0721759606924, 1276.6666666666667 301.7490315468376, 1280 302.3031527560828 C 1283.3333333333333 302.857273965328, 1286.6666666666667 302.6653496138647, 1290 303.18439970408235 C 1293.3333333333333 303.7034497943, 1296.6666666666667 307.6359295643233, 1300 309.86702216814206 C 1303.3333333333333 312.0981147719608, 1306.6666666666667 316.57098936086413, 1310 316.57098936086413 C 1313.3333333333333 316.57098936086413, 1316.6666666666667 303.87334767387455, 1320 296.22874761028675 C 1323.3333333333333 288.58414754669894, 1326.6666666666667 272.48240051885546, 1330 269.9466659809649 C 1333.3333333333333 267.41093144307433, 1336.6666666666667 265.4994536266537, 1340 265.4994536266537 C 1343.3333333333333 265.4994536266537, 1346.6666666666667 269.1082843889547, 1350 271.0457035989117 C 1353.3333333333333 272.9831228088687, 1356.6666666666667 277.1507707146803, 1360 277.1507707146803 C 1363.3333333333333 277.1507707146803, 1366.6666666666667 276.7442573532526, 1370 276.7442573532526 C 1373.3333333333333 276.7442573532526, 1376.6666666666667 283.8943091939916, 1380 285.08057279833736 C 1383.3333333333333 286.2668364026831, 1386.6666666666667 286.56433221812205, 1390 287.3428546811462 C 1393.3333333333333 288.12137714417037, 1396.6666666666667 289.756614633877, 1400 289.756614633877 C 1403.3333333333333 289.756614633877, 1406.6666666666667 288.33916341342587, 1410 288.33916341342587 C 1413.3333333333333 288.33916341342587, 1416.6666666666667 297.8634571750301, 1420 298.24709412962136 C 1423.3333333333333 298.63073108421264, 1426.6666666666667 298.5095809436673, 1430 298.85803306872367 C 1433.3333333333333 299.20648519378005, 1436.6666666666667 300.81769052518223, 1440 302.47599974047597 C 1443.3333333333333 304.1343089557697, 1446.6666666666667 309.9783265680437, 1450 310.4366707091941 C 1453.3333333333333 310.8950148503445, 1456.6666666666667 310.77596719950594, 1460 311.189176400338 C 1463.3333333333333 311.60238560117006, 1466.6666666666667 313.8801044096766, 1470 314.7041871011055 C 1473.3333333333333 315.5282697925344, 1476.6666666666667 316.5741681892636, 1480 316.6108151433816 C 1483.3333333333333 316.6474620974996, 1486.6666666666667 316.6334085972641, 1490 316.6674174898142 C 1493.3333333333333 316.70142638236433, 1496.6666666666667 317.18405208394347, 1500 317.18405208394347 C 1503.3333333333333 317.18405208394347, 1506.6666666666667 315.18205707610605, 1510 313.1047685009698 C 1513.3333333333333 311.0274799258335, 1516.6666666666667 299.9104317915675, 1520 299.9104317915675 C 1523.3333333333333 299.9104317915675, 1526.6666666666667 304.2578651535039, 1530 306.5833273053739 C 1533.3333333333333 308.908789457244, 1536.6666666666667 311.828477052051, 1540 313.8921263235504 C 1543.3333333333333 315.9557755950497, 1546.6666666666667 319.2618037299808, 1550 319.2618037299808 C 1553.3333333333333 319.2618037299808, 1556.6666666666667 304.1714013077395, 1560 295.7296006915474 C 1563.3333333333333 287.2878000753553, 1566.6666666666667 268.31516661387946, 1570 268.31516661387946 C 1573.3333333333333 268.31516661387946, 1576.6666666666667 272.07037605118575, 1580 274.2917277465194 C 1583.3333333333333 276.5130794418531, 1586.6666666666667 281.81709805051486, 1590 281.82200317368756 C 1593.3333333333333 281.82690829686027, 1596.6666666666667 281.82936805452755, 1600 281.82936805452755 C 1603.3333333333333 281.82936805452755, 1606.6666666666667 277.49025459828954, 1610 277.49025459828954 C 1613.3333333333333 277.49025459828954, 1616.6666666666667 279.3823075351784, 1620 280.75971611612005 C 1623.3333333333333 282.13712469706167, 1626.6666666666667 285.2782410282708, 1630 286.3732816814154 C 1633.3333333333333 287.46832233455996, 1636.6666666666667 287.78206637068115, 1640 288.6952693688945 C 1643.3333333333333 289.6084723671079, 1646.6666666666667 292.0356656391743, 1650 292.0356656391743 C 1653.3333333333333 292.0356656391743, 1656.6666666666667 278.26652198903, 1660 278.26652198903 C 1663.3333333333333 278.26652198903, 1666.6666666666667 281.05065756285205, 1670 282.09523959431345 C 1673.3333333333333 283.13982162577486, 1676.6666666666667 284.7475502491583, 1680 284.7475502491583 C 1683.3333333333333 284.7475502491583, 1686.6666666666667 284.6375147402166, 1690 284.6375147402166 C 1693.3333333333333 284.6375147402166, 1696.6666666666667 284.84719035358114, 1700 285.2196538591241 C 1703.3333333333333 285.59211736466705, 1706.6666666666667 297.3401048538614, 1710 299.09272583553525 C 1713.3333333333333 300.8453468172091, 1716.6666666666667 300.98924474254227, 1720 302.33631350918114 C 1723.3333333333333 303.68338227582, 1726.6666666666667 306.41734549972114, 1730 307.6953375553507 C 1733.3333333333333 308.9733296109803, 1736.6666666666667 310.67996216318465, 1740 310.67996216318465 C 1743.3333333333333 310.67996216318465, 1746.6666666666667 305.03530947754155, 1750 303.12585917267216 C 1753.3333333333333 301.2164088678028, 1756.6666666666667 298.51250934281416, 1760 298.51250934281416 C 1763.3333333333333 298.51250934281416, 1766.6666666666667 304.15682913217717, 1770 306.0183506233599 C 1773.3333333333333 307.8798721145426, 1776.6666666666667 308.1375577884921, 1780 310.46476300200754 C 1783.3333333333333 312.791968215523, 1786.6666666666667 320.2894698788543, 1790 326.7074346882396 C 1793.3333333333333 333.12539949762487, 1796.6666666666667 347.2711420800091, 1800 350.34314436706813 C 1803.3333333333333 353.41514665412717, 1806.6666666666667 354.5578404996565, 1810 356.0670834411492 C 1813.3333333333333 357.57632638264187, 1816.6666666666667 358.46429134417383, 1820 359.8121534856026 C 1823.3333333333333 361.1600156270314, 1826.6666666666667 364.20596709286036, 1830 364.20596709286036 C 1833.3333333333333 364.20596709286036, 1836.6666666666667 362.5979627069039, 1840 362.5979627069039 C 1843.3333333333333 362.5979627069039, 1846.6666666666667 364.7224640694162, 1850 365.46955813256415 C 1853.3333333333333 366.2166521957121, 1856.6666666666667 367.30742893510285, 1860 367.30742893510285 C 1863.3333333333333 367.30742893510285, 1866.6666666666667 365.2617982366155, 1870 365.2617982366155 C 1873.3333333333333 365.2617982366155, 1876.6666666666667 365.706501941941, 1880 366.1794319989663 C 1883.3333333333333 366.65236205599166, 1886.6666666666667 367.8334110864556, 1890 369.3054837550514 C 1893.3333333333333 370.7775564236472, 1896.6666666666667 373.5544456539775, 1900 376.8251934560368 C 1903.3333333333333 380.0959412580961, 1906.6666666666667 390.23688321071364, 1910 390.94088842962316 C 1913.3333333333333 391.6448936485327, 1916.6666666666667 392.0822851743655, 1920 392.0822851743655 C 1923.3333333333333 392.0822851743655, 1926.6666666666667 389.8699000693551, 1930 389.5817722479569 C 1933.3333333333333 389.2936444265587, 1936.6666666666667 389.3804782147706, 1940 389.05927070623864 C 1943.3333333333333 388.73806319770665, 1946.6666666666667 382.8723598688239, 1950 382.8723598688239 C 1953.3333333333333 382.8723598688239, 1956.6666666666667 383.5893453841955, 1960 384.30048902802093 C 1963.3333333333333 385.01163267184637, 1966.6666666666667 387.14850363059696, 1970 388.515623896342 C 1973.3333333333333 389.882744162087, 1976.6666666666667 391.1784034307427, 1980 392.5091911314057 C 1983.3333333333333 393.8399788320687, 1986.6666666666667 396.50035082623697, 1990 396.50035082623697 C 1993.3333333333333 396.50035082623697, 1996.6666666666667 395.4708355197545, 2000 395.4708355197545 C 2003.3333333333333 395.4708355197545, 2006.6666666666667 397.5638318754635, 2010 400 c 0 0, 0 0, 0 0C 2006.6666666666667 402.4361681245365, 2003.3333333333333 404.5291644802455, 2000 404.5291644802455 C 1996.6666666666667 404.5291644802455, 1993.3333333333333 403.49964917376303, 1990 403.49964917376303 C 1986.6666666666667 403.49964917376303, 1983.3333333333333 406.1600211679313, 1980 407.4908088685943 C 1976.6666666666667 408.8215965692573, 1973.3333333333333 410.117255837913, 1970 411.484376103658 C 1966.6666666666667 412.85149636940304, 1963.3333333333333 414.98836732815363, 1960 415.69951097197907 C 1956.6666666666667 416.4106546158045, 1953.3333333333333 417.1276401311761, 1950 417.1276401311761 C 1946.6666666666667 417.1276401311761, 1943.3333333333333 411.26193680229335, 1940 410.94072929376136 C 1936.6666666666667 410.6195217852294, 1933.3333333333333 410.7063555734413, 1930 410.4182277520431 C 1926.6666666666667 410.1300999306449, 1923.3333333333333 407.9177148256345, 1920 407.9177148256345 C 1916.6666666666667 407.9177148256345, 1913.3333333333333 408.3551063514673, 1910 409.05911157037684 C 1906.6666666666667 409.76311678928636, 1903.3333333333333 419.9040587419039, 1900 423.1748065439632 C 1896.6666666666667 426.4455543460225, 1893.3333333333333 429.2224435763528, 1890 430.6945162449486 C 1886.6666666666667 432.1665889135444, 1883.3333333333333 433.34763794400834, 1880 433.8205680010337 C 1876.6666666666667 434.293498058059, 1873.3333333333333 434.7382017633845, 1870 434.7382017633845 C 1866.6666666666667 434.7382017633845, 1863.3333333333333 432.69257106489715, 1860 432.69257106489715 C 1856.6666666666667 432.69257106489715, 1853.3333333333333 433.7833478042879, 1850 434.53044186743585 C 1846.6666666666667 435.2775359305838, 1843.3333333333333 437.4020372930961, 1840 437.4020372930961 C 1836.6666666666667 437.4020372930961, 1833.3333333333333 435.79403290713964, 1830 435.79403290713964 C 1826.6666666666667 435.79403290713964, 1823.3333333333333 438.8399843729686, 1820 440.1878465143974 C 1816.6666666666667 441.53570865582617, 1813.3333333333333 442.42367361735813, 1810 443.9329165588508 C 1806.6666666666667 445.4421595003435, 1803.3333333333333 446.58485334587283, 1800 449.65685563293187 C 1796.6666666666667 452.7288579199909, 1793.3333333333333 466.87460050237513, 1790 473.2925653117604 C 1786.6666666666667 479.7105301211457, 1783.3333333333333 487.208031784477, 1780 489.53523699799246 C 1776.6666666666667 491.8624422115079, 1773.3333333333333 492.1201278854574, 1770 493.9816493766401 C 1766.6666666666667 495.84317086782283, 1763.3333333333333 501.48749065718584, 1760 501.48749065718584 C 1756.6666666666667 501.48749065718584, 1753.3333333333333 498.7835911321972, 1750 496.87414082732784 C 1746.6666666666667 494.96469052245845, 1743.3333333333333 489.32003783681535, 1740 489.32003783681535 C 1736.6666666666667 489.32003783681535, 1733.3333333333333 491.0266703890197, 1730 492.3046624446493 C 1726.6666666666667 493.58265450027886, 1723.3333333333333 496.31661772418, 1720 497.66368649081886 C 1716.6666666666667 499.01075525745773, 1713.3333333333333 499.1546531827909, 1710 500.90727416446475 C 1706.6666666666667 502.6598951461386, 1703.3333333333333 514.407882635333, 1700 514.780346140876 C 1696.6666666666667 515.1528096464189, 1693.3333333333333 515.3624852597834, 1690 515.3624852597834 C 1686.6666666666667 515.3624852597834, 1683.3333333333333 515.2524497508417, 1680 515.2524497508417 C 1676.6666666666667 515.2524497508417, 1673.3333333333333 516.8601783742251, 1670 517.9047604056866 C 1666.6666666666667 518.949342437148, 1663.3333333333333 521.73347801097, 1660 521.73347801097 C 1656.6666666666667 521.73347801097, 1653.3333333333333 507.9643343608257, 1650 507.9643343608257 C 1646.6666666666667 507.9643343608257, 1643.3333333333333 510.3915276328921, 1640 511.3047306311055 C 1636.6666666666667 512.2179336293188, 1633.3333333333333 512.53167766544, 1630 513.6267183185846 C 1626.6666666666667 514.7217589717292, 1623.3333333333333 517.8628753029384, 1620 519.24028388388 C 1616.6666666666667 520.6176924648216, 1613.3333333333333 522.5097454017105, 1610 522.5097454017105 C 1606.6666666666667 522.5097454017105, 1603.3333333333333 518.1706319454725, 1600 518.1706319454725 C 1596.6666666666667 518.1706319454725, 1593.3333333333333 518.1730917031398, 1590 518.1779968263124 C 1586.6666666666667 518.1829019494851, 1583.3333333333333 523.486920558147, 1580 525.7082722534806 C 1576.6666666666667 527.9296239488142, 1573.3333333333333 531.6848333861205, 1570 531.6848333861205 C 1566.6666666666667 531.6848333861205, 1563.3333333333333 512.7121999246447, 1560 504.2703993084526 C 1556.6666666666667 495.8285986922605, 1553.3333333333333 480.7381962700192, 1550 480.7381962700192 C 1546.6666666666667 480.7381962700192, 1543.3333333333333 484.0442244049503, 1540 486.1078736764496 C 1536.6666666666667 488.171522947949, 1533.3333333333333 491.091210542756, 1530 493.4166726946261 C 1526.6666666666667 495.7421348464961, 1523.3333333333333 500.0895682084325, 1520 500.0895682084325 C 1516.6666666666667 500.0895682084325, 1513.3333333333333 488.9725200741665, 1510 486.8952314990302 C 1506.6666666666667 484.81794292389395, 1503.3333333333333 482.81594791605653, 1500 482.81594791605653 C 1496.6666666666667 482.81594791605653, 1493.3333333333333 483.29857361763567, 1490 483.3325825101858 C 1486.6666666666667 483.3665914027359, 1483.3333333333333 483.3525379025004, 1480 483.3891848566184 C 1476.6666666666667 483.4258318107364, 1473.3333333333333 484.4717302074656, 1470 485.2958128988945 C 1466.6666666666667 486.1198955903234, 1463.3333333333333 488.39761439882994, 1460 488.810823599662 C 1456.6666666666667 489.22403280049406, 1453.3333333333333 489.1049851496555, 1450 489.5633292908059 C 1446.6666666666667 490.0216734319563, 1443.3333333333333 495.8656910442303, 1440 497.52400025952403 C 1436.6666666666667 499.18230947481777, 1433.3333333333333 500.79351480621995, 1430 501.14196693127633 C 1426.6666666666667 501.4904190563327, 1423.3333333333333 501.36926891578736, 1420 501.75290587037864 C 1416.6666666666667 502.1365428249699, 1413.3333333333333 511.66083658657413, 1410 511.66083658657413 C 1406.6666666666667 511.66083658657413, 1403.3333333333333 510.243385366123, 1400 510.243385366123 C 1396.6666666666667 510.243385366123, 1393.3333333333333 511.87862285582963, 1390 512.6571453188537 C 1386.6666666666667 513.435667781878, 1383.3333333333333 513.7331635973169, 1380 514.9194272016626 C 1376.6666666666667 516.1056908060084, 1373.3333333333333 523.2557426467474, 1370 523.2557426467474 C 1366.6666666666667 523.2557426467474, 1363.3333333333333 522.8492292853198, 1360 522.8492292853198 C 1356.6666666666667 522.8492292853198, 1353.3333333333333 527.0168771911312, 1350 528.9542964010883 C 1346.6666666666667 530.8917156110454, 1343.3333333333333 534.5005463733463, 1340 534.5005463733463 C 1336.6666666666667 534.5005463733463, 1333.3333333333333 532.5890685569257, 1330 530.0533340190351 C 1326.6666666666667 527.5175994811445, 1323.3333333333333 511.41585245330106, 1320 503.77125238971325 C 1316.6666666666667 496.12665232612545, 1313.3333333333333 483.42901063913587, 1310 483.42901063913587 C 1306.6666666666667 483.42901063913587, 1303.3333333333333 487.9018852280392, 1300 490.13297783185794 C 1296.6666666666667 492.3640704356767, 1293.3333333333333 496.2965502057, 1290 496.81560029591765 C 1286.6666666666667 497.3346503861353, 1283.3333333333333 497.142726034672, 1280 497.6968472439172 C 1276.6666666666667 498.2509684531624, 1273.3333333333333 508.9278240393076, 1270 512.327317118934 C 1266.6666666666667 515.7268101985605, 1263.3333333333333 520.1546667513752, 1260 520.1546667513752 C 1256.6666666666667 520.1546667513752, 1253.3333333333333 519.7577508034053, 1250 519.5295119365768 C 1246.6666666666667 519.3012730697483, 1243.3333333333333 518.77268881901, 1240 518.77268881901 C 1236.6666666666667 518.77268881901, 1233.3333333333333 522.1393164054693, 1230 522.1393164054693 C 1226.6666666666667 522.1393164054693, 1223.3333333333333 500.79184877311366, 1220 496.60906325579913 C 1216.6666666666667 492.4262777384846, 1213.3333333333333 488.2905787909038, 1210 488.2905787909038 C 1206.6666666666667 488.2905787909038, 1203.3333333333333 490.31465592030446, 1200 491.7103528576274 C 1196.6666666666667 493.10604979495037, 1193.3333333333333 496.44738633436856, 1190 497.1087072280596 C 1186.6666666666667 497.7700281217506, 1183.3333333333333 498.3240076052043, 1180 498.3240076052043 C 1176.6666666666667 498.3240076052043, 1173.3333333333333 490.18299866187374, 1170 490.18299866187374 C 1166.6666666666667 490.18299866187374, 1163.3333333333333 492.3692315960454, 1160 494.2132410061827 C 1156.6666666666667 496.0572504163201, 1153.3333333333333 502.8184426789533, 1150 503.03103747317823 C 1146.6666666666667 503.24363226740314, 1143.3333333333333 503.3618949986807, 1140 503.3618949986807 C 1136.6666666666667 503.3618949986807, 1133.3333333333333 500.8797010345499, 1130 500.8797010345499 C 1126.6666666666667 500.8797010345499, 1123.3333333333333 513.2475692068649, 1120 513.2475692068649 C 1116.6666666666667 513.2475692068649, 1113.3333333333333 511.9742404857023, 1110 511.9742404857023 C 1106.6666666666667 511.9742404857023, 1103.3333333333333 512.1672976859262, 1100 512.387785572927 C 1096.6666666666667 512.6082734599277, 1093.3333333333333 513.152564531518, 1090 514.0393632200793 C 1086.6666666666667 514.9261619086406, 1083.3333333333333 520.8752832333669, 1080 520.8752832333669 C 1076.6666666666667 520.8752832333669, 1073.3333333333333 520.1832841463167, 1070 520.1009632114165 C 1066.6666666666667 520.0186422765162, 1063.3333333333333 519.954054101694, 1060 519.954054101694 C 1056.6666666666667 519.954054101694, 1053.3333333333333 521.721948395172, 1050 523.2554852823403 C 1046.6666666666667 524.7890221695085, 1043.3333333333333 530.8412445999704, 1040 530.8412445999704 C 1036.6666666666667 530.8412445999704, 1033.3333333333333 512.8051816408394, 1030 499.3452014826862 C 1026.6666666666667 485.88522132453306, 1023.3333333333334 443.1007229732389, 1020 443.1007229732389 C 1016.6666666666666 443.1007229732389, 1013.3333333333334 445.021639620797, 1010 446.3990653808682 C 1006.6666666666666 447.7764911409394, 1003.3333333333334 449.53346002289896, 1000 451.9296706884692 C 996.6666666666666 454.3258813540394, 993.3333333333334 462.19608234646853, 990 462.19608234646853 C 986.6666666666666 462.19608234646853, 983.3333333333334 459.72213007373296, 980 459.72213007373296 C 976.6666666666666 459.72213007373296, 973.3333333333334 460.613669836672, 970 461.6491911854898 C 966.6666666666666 462.68471253430766, 963.3333333333334 467.30643391094475, 960 469.65731543428814 C 956.6666666666666 472.0081969576315, 953.3333333333334 473.949127248955, 950 475.95817995884863 C 946.6666666666666 477.96723266874227, 943.3333333333334 480.0750468492875, 940 481.73442107154716 C 936.6666666666666 483.3937952938068, 933.3333333333334 484.59438992929444, 930 486.1082063133676 C 926.6666666666666 487.62202269744074, 923.3333333333334 489.30535579183896, 920 490.83068617386715 C 916.6666666666666 492.35601655589534, 913.3333333333334 493.6241023570765, 910 495.26900318017243 C 906.6666666666666 496.9139040032684, 903.3333333333334 500.82510522045203, 900 500.82510522045203 C 896.6666666666666 500.82510522045203, 893.3333333333334 500.51025973036934, 890 500.51025973036934 C 886.6666666666666 500.51025973036934, 883.3333333333334 510.13046425808517, 880 510.52158276234854 C 876.6666666666666 510.9127012666119, 873.3333333333334 510.7789608926762, 870 511.1447808099359 C 866.6666666666666 511.51060072719565, 863.3333333333334 513.8250292846617, 860 515.7369089569102 C 856.6666666666666 517.6487886291586, 853.3333333333334 523.3744016829921, 850 523.3744016829921 C 846.6666666666666 523.3744016829921, 843.3333333333334 522.8685944791528, 840 522.3244231372021 C 836.6666666666666 521.7802517952513, 833.3333333333334 518.657442431911, 830 518.657442431911 C 826.6666666666666 518.657442431911, 823.3333333333334 518.6774482632686, 820 518.7164668541647 C 816.6666666666666 518.7554854450607, 813.3333333333334 522.8880430265076, 810 525.6738179964589 C 806.6666666666666 528.4595929664101, 803.3333333333334 536.1364589307312, 800 536.1364589307312 C 796.6666666666666 536.1364589307312, 793.3333333333334 530.9995111291048, 790 528.5414580269648 C 786.6666666666666 526.0834049248249, 783.3333333333334 522.169058635159, 780 521.3756602785071 C 776.6666666666666 520.5822619218552, 773.3333333333334 519.9485474830303, 770 519.9485474830303 C 766.6666666666666 519.9485474830303, 763.3333333333334 521.885017372045, 760 523.4948187019876 C 756.6666666666666 525.1046200319302, 753.3333333333334 531.0623523578803, 750 531.0623523578803 C 746.6666666666666 531.0623523578803, 743.3333333333334 517.2453548673127, 740 510.09532240086645 C 736.6666666666666 502.94528993442026, 733.3333333333334 488.1393734759315, 730 488.1393734759315 C 726.6666666666666 488.1393734759315, 723.3333333333334 488.1571167904289, 720 488.19044774890557 C 716.6666666666666 488.2237787073822, 713.3333333333334 489.5868816538105, 710 490.5595776192313 C 706.6666666666666 491.53227358465205, 703.3333333333334 494.35775152274584, 700 494.35775152274584 C 696.6666666666666 494.35775152274584, 693.3333333333334 488.4688902623126, 690 487.74834343747233 C 686.6666666666666 487.0277966126321, 683.3333333333334 486.456226497078, 680 486.456226497078 C 676.6666666666666 486.456226497078, 673.3333333333334 487.8633361016854, 670 488.82479736810853 C 666.6666666666666 489.7862586345317, 663.3333333333334 491.3014136168191, 660 492.51220158321536 C 656.6666666666666 493.7229895496116, 653.3333333333334 494.13090087616973, 650 496.09114412775665 C 646.6666666666666 498.05138737934357, 643.3333333333334 512.0096284048005, 640 512.5705756790021 C 636.6666666666666 513.1315229532036, 633.3333333333334 513.4572701974323, 630 513.4572701974323 C 626.6666666666666 513.4572701974323, 623.3333333333334 512.364453627906, 620 512.364453627906 C 616.6666666666666 512.364453627906, 613.3333333333334 514.641447614053, 610 516.2880111003694 C 606.6666666666666 517.9345745866858, 603.3333333333334 521.5143056286872, 600 522.9541032053713 C 596.6666666666666 524.3939007820554, 593.3333333333334 526.1488370278782, 590 526.1488370278782 C 586.6666666666666 526.1488370278782, 583.3333333333334 524.2282676634038, 580 523.6453096915172 C 576.6666666666666 523.0623517196307, 573.3333333333334 522.301506513559, 570 522.301506513559 C 566.6666666666666 522.301506513559, 563.3333333333334 526.0889694945354, 560 526.0889694945354 C 556.6666666666666 526.0889694945354, 553.3333333333334 525.3977467115344, 550 524.216007496987 C 546.6666666666666 523.0342682824396, 543.3333333333334 492.02251928895276, 540 491.1325606032251 C 536.6666666666666 490.24260191749744, 533.3333333333334 490.10475374583416, 530 489.7414920789386 C 526.6666666666666 489.3782304120431, 523.3333333333334 488.845717695241, 520 488.845717695241 C 516.6666666666666 488.845717695241, 513.3333333333334 488.90585350791184, 510 489.0054200412014 C 506.6666666666667 489.1049865744909, 503.3333333333333 491.30934734160166, 500 491.30934734160166 C 496.6666666666667 491.30934734160166, 493.3333333333333 489.48353327148226, 490 488.9312556555006 C 486.6666666666667 488.3789780395189, 483.3333333333333 487.6599891788244, 480 487.6599891788244 C 476.6666666666667 487.6599891788244, 473.3333333333333 488.23218803256304, 470 488.8631392957649 C 466.6666666666667 489.4940905589667, 463.3333333333333 490.9716984380052, 460 493.2986306380589 C 456.6666666666667 495.6255628381126, 453.3333333333333 505.41850048937965, 450 509.6796965751287 C 446.6666666666667 513.9408926608777, 443.3333333333333 520.1613816353575, 440 520.1613816353575 C 436.6666666666667 520.1613816353575, 433.3333333333333 517.5895543378517, 430 517.193168324869 C 426.6666666666667 516.7967823118863, 423.3333333333333 516.4496513616954, 420 516.4496513616954 C 416.6666666666667 516.4496513616954, 413.3333333333333 518.121553474748, 410 519.7227675353971 C 406.6666666666667 521.3239815960462, 403.3333333333333 528.7454736369725, 400 528.7454736369725 C 396.6666666666667 528.7454736369725, 393.3333333333333 527.3704928467259, 390 526.5890496195127 C 386.6666666666667 525.8076063922995, 383.3333333333333 524.0209410611606, 380 524.0209410611606 C 376.6666666666667 524.0209410611606, 373.3333333333333 524.2320685463687, 370 524.5657189790461 C 366.6666666666667 524.8993694117235, 363.3333333333333 530.7199880262087, 360 530.7199880262087 C 356.6666666666667 530.7199880262087, 353.3333333333333 530.5822485432291, 350 530.3891947429682 C 346.6666666666667 530.1961409427074, 343.3333333333333 529.033089856262, 340 528.0648718293547 C 336.6666666666667 527.0966538024475, 333.3333333333333 524.5475965282222, 330 524.19366426804 C 326.6666666666667 523.839732007858, 323.3333333333333 523.5783865325141, 320 523.5783865325141 C 316.6666666666667 523.5783865325141, 313.3333333333333 528.8381816787594, 310 528.8381816787594 C 306.6666666666667 528.8381816787594, 303.3333333333333 431.3756831795395, 300 431.3756831795395 C 296.6666666666667 431.3756831795395, 293.3333333333333 435.30240078330394, 290 437.4864044781724 C 286.6666666666667 439.67040817304087, 283.3333333333333 441.73930764065375, 280 444.5484024217352 C 276.6666666666667 447.35749720281666, 273.3333333333333 454.89328111718925, 270 454.99538823862014 C 266.6666666666667 455.097495360051, 263.3333333333333 455.150827781564, 260 455.150827781564 C 256.6666666666667 455.150827781564, 253.33333333333334 437.7442146345635, 250 437.7442146345635 C 246.66666666666666 437.7442146345635, 243.33333333333334 442.0322360921939, 240 444.3129686424689 C 236.66666666666666 446.5937011927439, 233.33333333333334 448.54124755590186, 230 451.45236457943764 C 226.66666666666666 454.3634816029734, 223.33333333333334 462.6959885510744, 220 462.6959885510744 C 216.66666666666666 462.6959885510744, 213.33333333333334 449.7482406038431, 210 445.02966160412666 C 206.66666666666666 440.3110826044102, 203.33333333333334 433.2205829150555, 200 433.2205829150555 C 196.66666666666666 433.2205829150555, 193.33333333333334 438.75541677950025, 190 441.3973097638093 C 186.66666666666666 444.0392027481183, 183.33333333333334 446.3455144467007, 180 449.086897330287 C 176.66666666666666 451.8282802138733, 173.33333333333334 457.92548253568054, 170 457.92548253568054 C 166.66666666666666 457.92548253568054, 163.33333333333334 438.65487143091235, 160 430.4538432124185 C 156.66666666666666 422.2528149939247, 153.33333333333334 408.17689046469985, 150 408.17689046469985 C 146.66666666666666 408.17689046469985, 143.33333333333334 408.2260650561624, 140 408.311311446256 C 136.66666666666666 408.39655783634964, 133.33333333333334 409.91835640181966, 130 410.93492846696813 C 126.66666666666667 411.9515005321166, 123.33333333333333 413.10833168464956, 120 414.57598527720216 C 116.66666666666667 416.0436388697548, 113.33333333333333 418.4011178418279, 110 420.14409200856863 C 106.66666666666667 421.88706617530937, 103.33333333333333 425.0727807689588, 100 425.0727807689588 C 96.66666666666667 425.0727807689588, 93.33333333333333 423.52953270198987, 90 421.7413734956841 C 86.66666666666667 419.95321428937837, 83.33333333333333 407.9766415708421, 80 407.9766415708421 C 76.66666666666667 407.9766415708421, 73.33333333333333 429.2607502263522, 70 429.2607502263522 C 66.66666666666667 429.2607502263522, 63.333333333333336 412.553442260909, 60 408.9482969269781 C 56.666666666666664 405.34315159304725, 53.333333333333336 401.57855723353924, 50 401.57855723353924 C 46.666666666666664 401.57855723353924, 43.333333333333336 411.4987513408282, 40 411.4987513408282 C 36.666666666666664 411.4987513408282, 33.333333333333336 406.94364182836375, 30 405.98240664337203 C 26.666666666666668 405.0211714583803, 23.333333333333332 404.85713314039646, 20 404.0303210631735 C 16.666666666666668 403.2035089859506, 13.333333333333334 400.98345862789506, 10 400.6293903823707 C 3.3333333333333335 400, 6.666666666666666 400.2753221368463, 10 400.6293903823707 Z" fill="white" stroke="transparent" stroke-width="0" />
  </g>
</svg>