<svg 
  baseProfile="tiny"
  preserveAspectRatio="keep"
  version="1.2"
  viewBox="-0.000000 -0.000000 2010.000000 800.000000"
  height="100%" width="100%"
  xmlns="http://www.w3.org/2000/svg"
  xmlns:ev="http://www.w3.org/2001/xml-events"
  xmlns:xlink="http://www.w3.org/1999/xlink"
>
  <g style="transform-origin: center center;">
    <path d="M 0 400 C 3.3333333333333335 382.64661954724676, 6.666666666666666 366.41968337905314, 10 363.86333608041616 C 13.333333333333334 361.3069887817792, 16.666666666666668 361.1902209324624, 20 359.573627038184 C 23.333333333333332 357.95703314390556, 26.666666666666668 353.99556255752225, 30 353.99556255752225 C 33.333333333333336 353.99556255752225, 36.666666666666664 357.28990755350276, 40 357.28990755350276 C 43.333333333333336 357.28990755350276, 46.666666666666664 353.1248842006222, 50 352.67720303984714 C 53.333333333333336 352.2295218790721, 56.666666666666664 352.3246405501465, 60 351.89126350207755 C 63.333333333333336 351.4578864540086, 66.66666666666667 348.4386429129357, 70 348.1310712330566 C 73.33333333333333 347.82349955317756, 76.66666666666667 347.6051906991208, 80 347.6051906991208 C 83.33333333333333 347.6051906991208, 86.66666666666667 352.6942201567358, 90 352.6942201567358 C 93.33333333333333 352.6942201567358, 96.66666666666667 352.5685257348405, 100 352.34457844383985 C 103.33333333333333 352.1206311528392, 106.66666666666667 343.7844235186231, 110 343.7844235186231 C 113.33333333333333 343.7844235186231, 116.66666666666667 348.5836028800451, 120 348.5836028800451 C 123.33333333333333 348.5836028800451, 126.66666666666667 345.1153925215266, 130 345.1153925215266 C 133.33333333333334 345.1153925215266, 136.66666666666666 345.35868036931373, 140 345.35868036931373 C 143.33333333333334 345.35868036931373, 146.66666666666666 338.43006169806745, 150 337.9860656111439 C 153.33333333333334 337.5420695242203, 156.66666666666666 337.70442048406323, 160 337.2539356119918 C 163.33333333333334 336.8034507399203, 166.66666666666666 329.4769189018229, 170 328.48271877203774 C 173.33333333333334 327.4885186422526, 176.66666666666666 327.6539813914334, 180 326.6859238335309 C 183.33333333333334 325.71786627562847, 186.66666666666666 319.5282884292145, 190 319.11691810573285 C 193.33333333333334 318.7055477822512, 196.66666666666666 318.44509274176306, 200 318.44509274176306 C 203.33333333333334 318.44509274176306, 206.66666666666666 320.1575500537499, 210 321.2530852528798 C 213.33333333333334 322.34862045200975, 216.66666666666666 325.2149833472977, 220 325.2149833472977 C 223.33333333333334 325.2149833472977, 226.66666666666666 320.38742740594626, 230 319.6723299080579 C 233.33333333333334 318.9572324101696, 236.66666666666666 318.34228587162045, 240 318.34228587162045 C 243.33333333333334 318.34228587162045, 246.66666666666666 320.4701386462002, 250 320.4701386462002 C 253.33333333333334 320.4701386462002, 256.6666666666667 317.73079571239947, 260 315.81884211549556 C 263.3333333333333 313.90688851859164, 266.6666666666667 310.5098601966861, 270 308.3388331404391 C 273.3333333333333 306.1678060841921, 276.6666666666667 302.57130973421545, 280 302.57130973421545 C 283.3333333333333 302.57130973421545, 286.6666666666667 305.1196998761477, 290 305.1196998761477 C 293.3333333333333 305.1196998761477, 296.6666666666667 299.224127229018, 300 299.224127229018 C 303.3333333333333 299.224127229018, 306.6666666666667 299.5809046765109, 310 299.77604063681224 C 313.3333333333333 299.9711765971136, 316.6666666666667 300.00459469262705, 320 300.3992710724368 C 323.3333333333333 300.7939474522466, 326.6666666666667 312.2189495412154, 330 312.2189495412154 C 333.3333333333333 312.2189495412154, 336.6666666666667 308.4285525285769, 340 308.4285525285769 C 343.3333333333333 308.4285525285769, 346.6666666666667 309.25878900658677, 350 309.25878900658677 C 353.3333333333333 309.25878900658677, 356.6666666666667 307.5720233982353, 360 307.5720233982353 C 363.3333333333333 307.5720233982353, 366.6666666666667 312.1211942581433, 370 312.1211942581433 C 373.3333333333333 312.1211942581433, 376.6666666666667 307.7023869735741, 380 307.7023869735741 C 383.3333333333333 307.7023869735741, 386.6666666666667 308.6935262122774, 390 308.6935262122774 C 393.3333333333333 308.6935262122774, 396.6666666666667 308.4940311175137, 400 308.4940311175137 C 403.3333333333333 308.4940311175137, 406.6666666666667 313.2399744338693, 410 313.2399744338693 C 413.3333333333333 313.2399744338693, 416.6666666666667 308.18508308518483, 420 308.18508308518483 C 423.3333333333333 308.18508308518483, 426.6666666666667 308.3463639840831, 430 308.3463639840831 C 433.3333333333333 308.3463639840831, 436.6666666666667 306.697679630808, 440 306.697679630808 C 443.3333333333333 306.697679630808, 446.6666666666667 311.4418502298487, 450 311.4418502298487 C 453.3333333333333 311.4418502298487, 456.6666666666667 307.4988101029109, 460 307.4988101029109 C 463.3333333333333 307.4988101029109, 466.6666666666667 308.5148437075514, 470 308.5148437075514 C 473.3333333333333 308.5148437075514, 476.6666666666667 306.1119048102858, 480 306.1119048102858 C 483.3333333333333 306.1119048102858, 486.6666666666667 307.77154415823674, 490 307.77154415823674 C 493.3333333333333 307.77154415823674, 496.6666666666667 302.4954663682536, 500 302.4954663682536 C 503.3333333333333 302.4954663682536, 506.6666666666667 303.9520070642366, 510 303.9520070642366 C 513.3333333333334 303.9520070642366, 516.6666666666666 301.9390963375298, 520 301.9390963375298 C 523.3333333333334 301.9390963375298, 526.6666666666666 303.4635905463067, 530 303.4635905463067 C 533.3333333333334 303.4635905463067, 536.6666666666666 301.63718499695665, 540 301.63718499695665 C 543.3333333333334 301.63718499695665, 546.6666666666666 304.1226715749642, 550 304.1226715749642 C 553.3333333333334 304.1226715749642, 556.6666666666666 303.42166944925697, 560 303.42166944925697 C 563.3333333333334 303.42166944925697, 566.6666666666666 306.5616226930678, 570 306.5616226930678 C 573.3333333333334 306.5616226930678, 576.6666666666666 302.2048747076501, 580 302.2048747076501 C 583.3333333333334 302.2048747076501, 586.6666666666666 304.41978133915416, 590 304.41978133915416 C 593.3333333333334 304.41978133915416, 596.6666666666666 300.2940946394261, 600 300.2940946394261 C 603.3333333333334 300.2940946394261, 606.6666666666666 305.50661106149437, 610 305.50661106149437 C 613.3333333333334 305.50661106149437, 616.6666666666666 300.41761138697336, 620 300.41761138697336 C 623.3333333333334 300.41761138697336, 626.6666666666666 303.0845561526123, 630 304.6472223773783 C 633.3333333333334 306.20988860214425, 636.6666666666666 306.7934400430951, 640 309.90504168539314 C 643.3333333333334 313.0166433276912, 646.6666666666666 351.46950417723593, 650 351.46950417723593 C 653.3333333333334 351.46950417723593, 656.6666666666666 343.85700153938814, 660 343.85700153938814 C 663.3333333333334 343.85700153938814, 666.6666666666666 347.31675337025393, 670 347.31675337025393 C 673.3333333333334 347.31675337025393, 676.6666666666666 332.4905327611729, 680 332.4905327611729 C 683.3333333333334 332.4905327611729, 686.6666666666666 334.7490178764227, 690 334.7490178764227 C 693.3333333333334 334.7490178764227, 696.6666666666666 317.04504027155065, 700 317.04504027155065 C 703.3333333333334 317.04504027155065, 706.6666666666666 347.14956416315044, 710 347.14956416315044 C 713.3333333333334 347.14956416315044, 716.6666666666666 325.2468971852712, 720 325.2468971852712 C 723.3333333333334 325.2468971852712, 726.6666666666666 351.8400806899978, 730 351.8400806899978 C 733.3333333333334 351.8400806899978, 736.6666666666666 348.98474631601874, 740 348.98474631601874 C 743.3333333333334 348.98474631601874, 746.6666666666666 349.87374616814657, 750 349.87374616814657 C 753.3333333333334 349.87374616814657, 756.6666666666666 335.46640816101797, 760 335.46640816101797 C 763.3333333333334 335.46640816101797, 766.6666666666666 344.3812070904147, 770 344.3812070904147 C 773.3333333333334 344.3812070904147, 776.6666666666666 313.2448399707057, 780 313.2448399707057 C 783.3333333333334 313.2448399707057, 786.6666666666666 344.16957747109973, 790 344.16957747109973 C 793.3333333333334 344.16957747109973, 796.6666666666666 321.88734114622247, 800 321.88734114622247 C 803.3333333333334 321.88734114622247, 806.6666666666666 336.8186004303409, 810 336.8186004303409 C 813.3333333333334 336.8186004303409, 816.6666666666666 321.8365340770525, 820 321.8365340770525 C 823.3333333333334 321.8365340770525, 826.6666666666666 322.6615813902114, 830 322.6615813902114 C 833.3333333333334 322.6615813902114, 836.6666666666666 322.1417030435959, 840 322.1417030435959 C 843.3333333333334 322.1417030435959, 846.6666666666666 324.97931166108583, 850 324.97931166108583 C 853.3333333333334 324.97931166108583, 856.6666666666666 312.2689602097362, 860 312.2689602097362 C 863.3333333333334 312.2689602097362, 866.6666666666666 328.88861805474687, 870 328.88861805474687 C 873.3333333333334 328.88861805474687, 876.6666666666666 320.989585381153, 880 320.989585381153 C 883.3333333333334 320.989585381153, 886.6666666666666 327.8245924591463, 890 327.8245924591463 C 893.3333333333334 327.8245924591463, 896.6666666666666 316.7758192787049, 900 315.16691189809757 C 903.3333333333334 313.55800451749025, 906.6666666666666 313.6513578175384, 910 312.18501021653935 C 913.3333333333334 310.7186626155403, 916.6666666666666 303.80193010458675, 920 303.80193010458675 C 923.3333333333334 303.80193010458675, 926.6666666666666 307.56538918852846, 930 307.56538918852846 C 933.3333333333334 307.56538918852846, 936.6666666666666 302.4422795573118, 940 302.4422795573118 C 943.3333333333334 302.4422795573118, 946.6666666666666 307.7005200295318, 950 307.7005200295318 C 953.3333333333334 307.7005200295318, 956.6666666666666 305.79489009893734, 960 305.79489009893734 C 963.3333333333334 305.79489009893734, 966.6666666666666 307.0359527003318, 970 307.0359527003318 C 973.3333333333334 307.0359527003318, 976.6666666666666 305.8874483729549, 980 305.40348554828 C 983.3333333333334 304.9195227236051, 986.6666666666666 304.0962046163994, 990 304.0962046163994 C 993.3333333333334 304.0962046163994, 996.6666666666666 309.9638263189936, 1000 309.9638263189936 C 1003.3333333333334 309.9638263189936, 1006.6666666666666 306.3343518152351, 1010 305.1240828599211 C 1013.3333333333334 303.9138139046071, 1016.6666666666666 302.2189575054731, 1020 302.2189575054731 C 1023.3333333333334 302.2189575054731, 1026.6666666666667 302.5075338578991, 1030 302.9277588430344 C 1033.3333333333333 303.3479838281697, 1036.6666666666667 308.62189685915587, 1040 308.62189685915587 C 1043.3333333333333 308.62189685915587, 1046.6666666666667 306.80207230900004, 1050 306.62923360519267 C 1053.3333333333333 306.4563949013853, 1056.6666666666667 306.50581405734425, 1060 306.3311994228617 C 1063.3333333333333 306.1565847883791, 1066.6666666666667 304.1695579677577, 1070 304.1695579677577 C 1073.3333333333333 304.1695579677577, 1076.6666666666667 309.16140447324784, 1080 309.16140447324784 C 1083.3333333333333 309.16140447324784, 1086.6666666666667 302.99503648224413, 1090 302.99503648224413 C 1093.3333333333333 302.99503648224413, 1096.6666666666667 306.3705945331616, 1100 306.3705945331616 C 1103.3333333333333 306.3705945331616, 1106.6666666666667 302.24419765699184, 1110 302.24419765699184 C 1113.3333333333333 302.24419765699184, 1116.6666666666667 306.56446822746597, 1120 306.56446822746597 C 1123.3333333333333 306.56446822746597, 1126.6666666666667 305.3052106482469, 1130 304.8684919330262 C 1133.3333333333333 304.43177321780547, 1136.6666666666667 304.3753936759229, 1140 303.80114753809426 C 1143.3333333333333 303.2269014002656, 1146.6666666666667 299.33761189155507, 1150 299.33761189155507 C 1153.3333333333333 299.33761189155507, 1156.6666666666667 302.72712239389233, 1160 302.72712239389233 C 1163.3333333333333 302.72712239389233, 1166.6666666666667 300.3972743440416, 1170 300.3972743440416 C 1173.3333333333333 300.3972743440416, 1176.6666666666667 301.640448879303, 1180 301.72225730274505 C 1183.3333333333333 301.8040657261871, 1186.6666666666667 301.77626503382004, 1190 301.85749490050085 C 1193.3333333333333 301.93872476718167, 1196.6666666666667 303.0878575461917, 1200 303.0878575461917 C 1203.3333333333333 303.0878575461917, 1206.6666666666667 299.8738710336745, 1210 299.8738710336745 C 1213.3333333333333 299.8738710336745, 1216.6666666666667 302.9855402825027, 1220 302.9855402825027 C 1223.3333333333333 302.9855402825027, 1226.6666666666667 298.709043055389, 1230 298.709043055389 C 1233.3333333333333 298.709043055389, 1236.6666666666667 301.3852247804033, 1240 301.3852247804033 C 1243.3333333333333 301.3852247804033, 1246.6666666666667 300.4560339119849, 1250 299.790494348026 C 1253.3333333333333 299.12495478406714, 1256.6666666666667 297.2825557843011, 1260 297.121181791691 C 1263.3333333333333 296.9598077990809, 1266.6666666666667 296.8549809389311, 1270 296.8549809389311 C 1273.3333333333333 296.8549809389311, 1276.6666666666667 305.1078220001651, 1280 305.1078220001651 C 1283.3333333333333 305.1078220001651, 1286.6666666666667 304.3519125206067, 1290 303.775784826264 C 1293.3333333333333 303.1996571319213, 1296.6666666666667 302.1254494262102, 1300 301.31528251742736 C 1303.3333333333333 300.50511560864453, 1306.6666666666667 298.9140605520087, 1310 298.9140605520087 C 1313.3333333333333 298.9140605520087, 1316.6666666666667 302.5955885127289, 1320 302.5955885127289 C 1323.3333333333333 302.5955885127289, 1326.6666666666667 297.6960868568518, 1330 297.6960868568518 C 1333.3333333333333 297.6960868568518, 1336.6666666666667 300.56583313417434, 1340 300.56583313417434 C 1343.3333333333333 300.56583313417434, 1346.6666666666667 298.20204417033375, 1350 298.20204417033375 C 1353.3333333333333 298.20204417033375, 1356.6666666666667 304.73629816841543, 1360 304.73629816841543 C 1363.3333333333333 304.73629816841543, 1366.6666666666667 301.7107097376099, 1370 301.7107097376099 C 1373.3333333333333 301.7107097376099, 1376.6666666666667 302.9541251036609, 1380 302.9541251036609 C 1383.3333333333333 302.9541251036609, 1386.6666666666667 297.42495566392927, 1390 297.42495566392927 C 1393.3333333333333 297.42495566392927, 1396.6666666666667 299.2836316691821, 1400 299.2836316691821 C 1403.3333333333333 299.2836316691821, 1406.6666666666667 297.09724042105415, 1410 297.09724042105415 C 1413.3333333333333 297.09724042105415, 1416.6666666666667 301.2868372085401, 1420 301.2868372085401 C 1423.3333333333333 301.2868372085401, 1426.6666666666667 301.1171394720599, 1430 301.1171394720599 C 1433.3333333333333 301.1171394720599, 1436.6666666666667 310.44012237941496, 1440 310.44012237941496 C 1443.3333333333333 310.44012237941496, 1446.6666666666667 306.79835513434244, 1450 306.4232876233176 C 1453.3333333333333 306.04822011229277, 1456.6666666666667 306.14688209721567, 1460 305.76905381773344 C 1463.3333333333333 305.3912255382512, 1466.6666666666667 303.45937897738406, 1470 301.53112748992885 C 1473.3333333333333 299.60287600247364, 1476.6666666666667 292.874651878968, 1480 292.42132863625085 C 1483.3333333333333 291.9680053935337, 1486.6666666666667 291.68649328366587, 1490 291.68649328366587 C 1493.3333333333333 291.68649328366587, 1496.6666666666667 296.76121202496535, 1500 297.616518193783 C 1503.3333333333333 298.47182436260067, 1506.6666666666667 298.31705048884413, 1510 299.25367611063257 C 1513.3333333333333 300.190301732421, 1516.6666666666667 309.1585559100341, 1520 309.1585559100341 C 1523.3333333333333 309.1585559100341, 1526.6666666666667 306.4083861513107, 1530 306.30313885911886 C 1533.3333333333333 306.197891566927, 1536.6666666666667 306.2424379149816, 1540 306.13602869669353 C 1543.3333333333333 306.02961947840544, 1546.6666666666667 302.5778775933044, 1550 302.5778775933044 C 1553.3333333333333 302.5778775933044, 1556.6666666666667 305.4388528242491, 1560 305.4388528242491 C 1563.3333333333333 305.4388528242491, 1566.6666666666667 296.6464271310857, 1570 296.6464271310857 C 1573.3333333333333 296.6464271310857, 1576.6666666666667 298.7450279755553, 1580 300.11434251110336 C 1583.3333333333333 301.48365704665144, 1586.6666666666667 302.0652156286477, 1590 305.15202613884065 C 1593.3333333333333 308.2388366490336, 1596.6666666666667 362.39718410923587, 1600 362.39718410923587 C 1603.3333333333333 362.39718410923587, 1606.6666666666667 359.97566012831606, 1610 358.66057856526993 C 1613.3333333333333 357.3454970022238, 1616.6666666666667 356.1098916779971, 1620 354.4820174591384 C 1623.3333333333333 352.85414324027965, 1626.6666666666667 348.6071021575423, 1630 348.6071021575423 C 1633.3333333333333 348.6071021575423, 1636.6666666666667 362.4342992011653, 1640 362.4342992011653 C 1643.3333333333333 362.4342992011653, 1646.6666666666667 322.3850384526349, 1650 322.3850384526349 C 1653.3333333333333 322.3850384526349, 1656.6666666666667 356.6604966577528, 1660 356.6604966577528 C 1663.3333333333333 356.6604966577528, 1666.6666666666667 322.0244242555922, 1670 322.0244242555922 C 1673.3333333333333 322.0244242555922, 1676.6666666666667 356.1893581477837, 1680 356.1893581477837 C 1683.3333333333333 356.1893581477837, 1686.6666666666667 346.8464402003544, 1690 346.8464402003544 C 1693.3333333333333 346.8464402003544, 1696.6666666666667 349.37466834569653, 1700 349.37466834569653 C 1703.3333333333333 349.37466834569653, 1706.6666666666667 348.36238116148996, 1710 348.36238116148996 C 1713.3333333333333 348.36238116148996, 1716.6666666666667 352.3943624916695, 1720 352.3943624916695 C 1723.3333333333333 352.3943624916695, 1726.6666666666667 324.30248494095684, 1730 324.30248494095684 C 1733.3333333333333 324.30248494095684, 1736.6666666666667 351.4226548303971, 1740 351.4226548303971 C 1743.3333333333333 351.4226548303971, 1746.6666666666667 328.7030253706399, 1750 328.7030253706399 C 1753.3333333333333 328.7030253706399, 1756.6666666666667 354.53434326092145, 1760 354.53434326092145 C 1763.3333333333333 354.53434326092145, 1766.6666666666667 340.90169556609555, 1770 340.90169556609555 C 1773.3333333333333 340.90169556609555, 1776.6666666666667 357.39977817117585, 1780 357.39977817117585 C 1783.3333333333333 357.39977817117585, 1786.6666666666667 344.1996326424653, 1790 344.1996326424653 C 1793.3333333333333 344.1996326424653, 1796.6666666666667 350.58158578239494, 1800 350.58158578239494 C 1803.3333333333333 350.58158578239494, 1806.6666666666667 331.2035525399946, 1810 331.2035525399946 C 1813.3333333333333 331.2035525399946, 1816.6666666666667 353.43147207813337, 1820 353.43147207813337 C 1823.3333333333333 353.43147207813337, 1826.6666666666667 332.5452301447483, 1830 332.5452301447483 C 1833.3333333333333 332.5452301447483, 1836.6666666666667 355.72933630644025, 1840 355.72933630644025 C 1843.3333333333333 355.72933630644025, 1846.6666666666667 338.24108900394, 1850 338.24108900394 C 1853.3333333333333 338.24108900394, 1856.6666666666667 351.4473511288338, 1860 351.4473511288338 C 1863.3333333333333 351.4473511288338, 1866.6666666666667 344.68557970015604, 1870 341.24220098180365 C 1873.3333333333333 337.79882226345126, 1876.6666666666667 335.6496243239088, 1880 330.78397936478456 C 1883.3333333333333 325.9183344056603, 1886.6666666666667 306.62735652944195, 1890 306.62735652944195 C 1893.3333333333333 306.62735652944195, 1896.6666666666667 312.0378612909687, 1900 312.0378612909687 C 1903.3333333333333 312.0378612909687, 1906.6666666666667 308.62606643170164, 1910 308.62606643170164 C 1913.3333333333333 308.62606643170164, 1916.6666666666667 309.00925018470156, 1920 309.6715991886201 C 1923.3333333333333 310.3339481925387, 1926.6666666666667 326.25062663997244, 1930 329.64422616131003 C 1933.3333333333333 333.0378256826476, 1936.6666666666667 336.250516944224, 1940 336.4757737034302 C 1943.3333333333333 336.7010304626364, 1946.6666666666667 336.60827803869074, 1950 336.83124004063535 C 1953.3333333333333 337.05420204257996, 1956.6666666666667 339.3770792863878, 1960 342.48606280191075 C 1963.3333333333333 345.5950463174337, 1966.6666666666667 360.74441141490536, 1970 369.0873569409174 C 1973.3333333333333 377.43030246692945, 1976.6666666666667 390.013516279358, 1980 392.7192626544191 C 1983.3333333333333 395.4250090294802, 1986.6666666666667 396.9383898516784, 1990 397.61945744494386 C 1993.3333333333333 398.30052503820934, 1996.6666666666667 398.5162100040424, 2000 398.9101433435904 C 2003.3333333333333 399.30407668313836, 2006.6666666666667 399.6701859882363, 2010 400 c 0 0, 0 0, 0 0C 2006.6666666666667 400.3298140117637, 2003.3333333333333 400.69592331686164, 2000 401.0898566564096 C 1996.6666666666667 401.4837899959576, 1993.3333333333333 401.69947496179066, 1990 402.38054255505614 C 1986.6666666666667 403.0616101483216, 1983.3333333333333 404.5749909705198, 1980 407.2807373455809 C 1976.6666666666667 409.986483720642, 1973.3333333333333 422.56969753307055, 1970 430.9126430590826 C 1966.6666666666667 439.25558858509464, 1963.3333333333333 454.4049536825663, 1960 457.51393719808925 C 1956.6666666666667 460.6229207136122, 1953.3333333333333 462.94579795742004, 1950 463.16875995936465 C 1946.6666666666667 463.39172196130926, 1943.3333333333333 463.2989695373636, 1940 463.5242262965698 C 1936.6666666666667 463.749483055776, 1933.3333333333333 466.9621743173524, 1930 470.35577383868997 C 1926.6666666666667 473.74937336002756, 1923.3333333333333 489.6660518074613, 1920 490.3284008113799 C 1916.6666666666667 490.99074981529844, 1913.3333333333333 491.37393356829836, 1910 491.37393356829836 C 1906.6666666666667 491.37393356829836, 1903.3333333333333 487.9621387090313, 1900 487.9621387090313 C 1896.6666666666667 487.9621387090313, 1893.3333333333333 493.37264347055805, 1890 493.37264347055805 C 1886.6666666666667 493.37264347055805, 1883.3333333333333 474.0816655943397, 1880 469.21602063521544 C 1876.6666666666667 464.3503756760912, 1873.3333333333333 462.20117773654874, 1870 458.75779901819635 C 1866.6666666666667 455.31442029984396, 1863.3333333333333 448.5526488711662, 1860 448.5526488711662 C 1856.6666666666667 448.5526488711662, 1853.3333333333333 461.75891099606, 1850 461.75891099606 C 1846.6666666666667 461.75891099606, 1843.3333333333333 444.27066369355975, 1840 444.27066369355975 C 1836.6666666666667 444.27066369355975, 1833.3333333333333 467.4547698552517, 1830 467.4547698552517 C 1826.6666666666667 467.4547698552517, 1823.3333333333333 446.56852792186663, 1820 446.56852792186663 C 1816.6666666666667 446.56852792186663, 1813.3333333333333 468.7964474600054, 1810 468.7964474600054 C 1806.6666666666667 468.7964474600054, 1803.3333333333333 449.41841421760506, 1800 449.41841421760506 C 1796.6666666666667 449.41841421760506, 1793.3333333333333 455.8003673575347, 1790 455.8003673575347 C 1786.6666666666667 455.8003673575347, 1783.3333333333333 442.60022182882415, 1780 442.60022182882415 C 1776.6666666666667 442.60022182882415, 1773.3333333333333 459.09830443390445, 1770 459.09830443390445 C 1766.6666666666667 459.09830443390445, 1763.3333333333333 445.46565673907855, 1760 445.46565673907855 C 1756.6666666666667 445.46565673907855, 1753.3333333333333 471.2969746293601, 1750 471.2969746293601 C 1746.6666666666667 471.2969746293601, 1743.3333333333333 448.5773451696029, 1740 448.5773451696029 C 1736.6666666666667 448.5773451696029, 1733.3333333333333 475.69751505904316, 1730 475.69751505904316 C 1726.6666666666667 475.69751505904316, 1723.3333333333333 447.6056375083305, 1720 447.6056375083305 C 1716.6666666666667 447.6056375083305, 1713.3333333333333 451.63761883851004, 1710 451.63761883851004 C 1706.6666666666667 451.63761883851004, 1703.3333333333333 450.62533165430347, 1700 450.62533165430347 C 1696.6666666666667 450.62533165430347, 1693.3333333333333 453.1535597996456, 1690 453.1535597996456 C 1686.6666666666667 453.1535597996456, 1683.3333333333333 443.8106418522163, 1680 443.8106418522163 C 1676.6666666666667 443.8106418522163, 1673.3333333333333 477.9755757444078, 1670 477.9755757444078 C 1666.6666666666667 477.9755757444078, 1663.3333333333333 443.3395033422472, 1660 443.3395033422472 C 1656.6666666666667 443.3395033422472, 1653.3333333333333 477.6149615473651, 1650 477.6149615473651 C 1646.6666666666667 477.6149615473651, 1643.3333333333333 437.5657007988347, 1640 437.5657007988347 C 1636.6666666666667 437.5657007988347, 1633.3333333333333 451.3928978424577, 1630 451.3928978424577 C 1626.6666666666667 451.3928978424577, 1623.3333333333333 447.14585675972035, 1620 445.5179825408616 C 1616.6666666666667 443.8901083220029, 1613.3333333333333 442.6545029977762, 1610 441.33942143473007 C 1606.6666666666667 440.02433987168394, 1603.3333333333333 437.60281589076413, 1600 437.60281589076413 C 1596.6666666666667 437.60281589076413, 1593.3333333333333 491.7611633509664, 1590 494.84797386115935 C 1586.6666666666667 497.9347843713523, 1583.3333333333333 498.51634295334856, 1580 499.88565748889664 C 1576.6666666666667 501.2549720244447, 1573.3333333333333 503.3535728689143, 1570 503.3535728689143 C 1566.6666666666667 503.3535728689143, 1563.3333333333333 494.5611471757509, 1560 494.5611471757509 C 1556.6666666666667 494.5611471757509, 1553.3333333333333 497.4221224066956, 1550 497.4221224066956 C 1546.6666666666667 497.4221224066956, 1543.3333333333333 493.97038052159456, 1540 493.86397130330647 C 1536.6666666666667 493.7575620850184, 1533.3333333333333 493.802108433073, 1530 493.69686114088114 C 1526.6666666666667 493.5916138486893, 1523.3333333333333 490.8414440899659, 1520 490.8414440899659 C 1516.6666666666667 490.8414440899659, 1513.3333333333333 499.809698267579, 1510 500.74632388936743 C 1506.6666666666667 501.68294951115587, 1503.3333333333333 501.52817563739933, 1500 502.383481806217 C 1496.6666666666667 503.23878797503465, 1493.3333333333333 508.31350671633413, 1490 508.31350671633413 C 1486.6666666666667 508.31350671633413, 1483.3333333333333 508.0319946064663, 1480 507.57867136374915 C 1476.6666666666667 507.125348121032, 1473.3333333333333 500.39712399752636, 1470 498.46887251007115 C 1466.6666666666667 496.54062102261594, 1463.3333333333333 494.6087744617488, 1460 494.23094618226656 C 1456.6666666666667 493.85311790278433, 1453.3333333333333 493.95177988770723, 1450 493.5767123766824 C 1446.6666666666667 493.20164486565756, 1443.3333333333333 489.55987762058504, 1440 489.55987762058504 C 1436.6666666666667 489.55987762058504, 1433.3333333333333 498.8828605279401, 1430 498.8828605279401 C 1426.6666666666667 498.8828605279401, 1423.3333333333333 498.7131627914599, 1420 498.7131627914599 C 1416.6666666666667 498.7131627914599, 1413.3333333333333 502.90275957894585, 1410 502.90275957894585 C 1406.6666666666667 502.90275957894585, 1403.3333333333333 500.7163683308179, 1400 500.7163683308179 C 1396.6666666666667 500.7163683308179, 1393.3333333333333 502.57504433607073, 1390 502.57504433607073 C 1386.6666666666667 502.57504433607073, 1383.3333333333333 497.0458748963391, 1380 497.0458748963391 C 1376.6666666666667 497.0458748963391, 1373.3333333333333 498.2892902623901, 1370 498.2892902623901 C 1366.6666666666667 498.2892902623901, 1363.3333333333333 495.26370183158457, 1360 495.26370183158457 C 1356.6666666666667 495.26370183158457, 1353.3333333333333 501.79795582966625, 1350 501.79795582966625 C 1346.6666666666667 501.79795582966625, 1343.3333333333333 499.43416686582566, 1340 499.43416686582566 C 1336.6666666666667 499.43416686582566, 1333.3333333333333 502.3039131431482, 1330 502.3039131431482 C 1326.6666666666667 502.3039131431482, 1323.3333333333333 497.4044114872711, 1320 497.4044114872711 C 1316.6666666666667 497.4044114872711, 1313.3333333333333 501.0859394479913, 1310 501.0859394479913 C 1306.6666666666667 501.0859394479913, 1303.3333333333333 499.49488439135547, 1300 498.68471748257264 C 1296.6666666666667 497.8745505737898, 1293.3333333333333 496.8003428680787, 1290 496.224215173736 C 1286.6666666666667 495.6480874793933, 1283.3333333333333 494.8921779998349, 1280 494.8921779998349 C 1276.6666666666667 494.8921779998349, 1273.3333333333333 503.1450190610689, 1270 503.1450190610689 C 1266.6666666666667 503.1450190610689, 1263.3333333333333 503.0401922009191, 1260 502.878818208309 C 1256.6666666666667 502.7174442156989, 1253.3333333333333 500.87504521593286, 1250 500.209505651974 C 1246.6666666666667 499.5439660880151, 1243.3333333333333 498.6147752195967, 1240 498.6147752195967 C 1236.6666666666667 498.6147752195967, 1233.3333333333333 501.290956944611, 1230 501.290956944611 C 1226.6666666666667 501.290956944611, 1223.3333333333333 497.0144597174973, 1220 497.0144597174973 C 1216.6666666666667 497.0144597174973, 1213.3333333333333 500.1261289663255, 1210 500.1261289663255 C 1206.6666666666667 500.1261289663255, 1203.3333333333333 496.9121424538083, 1200 496.9121424538083 C 1196.6666666666667 496.9121424538083, 1193.3333333333333 498.06127523281833, 1190 498.14250509949915 C 1186.6666666666667 498.22373496617996, 1183.3333333333333 498.1959342738129, 1180 498.27774269725495 C 1176.6666666666667 498.359551120697, 1173.3333333333333 499.6027256559584, 1170 499.6027256559584 C 1166.6666666666667 499.6027256559584, 1163.3333333333333 497.27287760610767, 1160 497.27287760610767 C 1156.6666666666667 497.27287760610767, 1153.3333333333333 500.66238810844493, 1150 500.66238810844493 C 1146.6666666666667 500.66238810844493, 1143.3333333333333 496.7730985997344, 1140 496.19885246190574 C 1136.6666666666667 495.6246063240771, 1133.3333333333333 495.56822678219453, 1130 495.1315080669738 C 1126.6666666666667 494.6947893517531, 1123.3333333333333 493.43553177253403, 1120 493.43553177253403 C 1116.6666666666667 493.43553177253403, 1113.3333333333333 497.75580234300816, 1110 497.75580234300816 C 1106.6666666666667 497.75580234300816, 1103.3333333333333 493.6294054668384, 1100 493.6294054668384 C 1096.6666666666667 493.6294054668384, 1093.3333333333333 497.00496351775587, 1090 497.00496351775587 C 1086.6666666666667 497.00496351775587, 1083.3333333333333 490.83859552675216, 1080 490.83859552675216 C 1076.6666666666667 490.83859552675216, 1073.3333333333333 495.8304420322423, 1070 495.8304420322423 C 1066.6666666666667 495.8304420322423, 1063.3333333333333 493.8434152116209, 1060 493.6688005771383 C 1056.6666666666667 493.49418594265575, 1053.3333333333333 493.5436050986147, 1050 493.37076639480733 C 1046.6666666666667 493.19792769099996, 1043.3333333333333 491.37810314084413, 1040 491.37810314084413 C 1036.6666666666667 491.37810314084413, 1033.3333333333333 496.6520161718303, 1030 497.0722411569656 C 1026.6666666666667 497.4924661421009, 1023.3333333333334 497.7810424945269, 1020 497.7810424945269 C 1016.6666666666666 497.7810424945269, 1013.3333333333334 496.0861860953929, 1010 494.8759171400789 C 1006.6666666666666 493.6656481847649, 1003.3333333333334 490.0361736810064, 1000 490.0361736810064 C 996.6666666666666 490.0361736810064, 993.3333333333334 495.9037953836006, 990 495.9037953836006 C 986.6666666666666 495.9037953836006, 983.3333333333334 495.0804772763949, 980 494.59651445172 C 976.6666666666666 494.1125516270451, 973.3333333333334 492.9640472996682, 970 492.9640472996682 C 966.6666666666666 492.9640472996682, 963.3333333333334 494.20510990106266, 960 494.20510990106266 C 956.6666666666666 494.20510990106266, 953.3333333333334 492.2994799704682, 950 492.2994799704682 C 946.6666666666666 492.2994799704682, 943.3333333333334 497.5577204426882, 940 497.5577204426882 C 936.6666666666666 497.5577204426882, 933.3333333333334 492.43461081147154, 930 492.43461081147154 C 926.6666666666666 492.43461081147154, 923.3333333333334 496.19806989541325, 920 496.19806989541325 C 916.6666666666666 496.19806989541325, 913.3333333333334 489.2813373844597, 910 487.81498978346065 C 906.6666666666666 486.3486421824616, 903.3333333333334 486.44199548250975, 900 484.83308810190243 C 896.6666666666666 483.2241807212951, 893.3333333333334 472.1754075408537, 890 472.1754075408537 C 886.6666666666666 472.1754075408537, 883.3333333333334 479.010414618847, 880 479.010414618847 C 876.6666666666666 479.010414618847, 873.3333333333334 471.11138194525313, 870 471.11138194525313 C 866.6666666666666 471.11138194525313, 863.3333333333334 487.7310397902638, 860 487.7310397902638 C 856.6666666666666 487.7310397902638, 853.3333333333334 475.02068833891417, 850 475.02068833891417 C 846.6666666666666 475.02068833891417, 843.3333333333334 477.8582969564041, 840 477.8582969564041 C 836.6666666666666 477.8582969564041, 833.3333333333334 477.3384186097886, 830 477.3384186097886 C 826.6666666666666 477.3384186097886, 823.3333333333334 478.1634659229475, 820 478.1634659229475 C 816.6666666666666 478.1634659229475, 813.3333333333334 463.1813995696591, 810 463.1813995696591 C 806.6666666666666 463.1813995696591, 803.3333333333334 478.11265885377753, 800 478.11265885377753 C 796.6666666666666 478.11265885377753, 793.3333333333334 455.83042252890027, 790 455.83042252890027 C 786.6666666666666 455.83042252890027, 783.3333333333334 486.7551600292943, 780 486.7551600292943 C 776.6666666666666 486.7551600292943, 773.3333333333334 455.6187929095853, 770 455.6187929095853 C 766.6666666666666 455.6187929095853, 763.3333333333334 464.53359183898203, 760 464.53359183898203 C 756.6666666666666 464.53359183898203, 753.3333333333334 450.12625383185343, 750 450.12625383185343 C 746.6666666666666 450.12625383185343, 743.3333333333334 451.01525368398126, 740 451.01525368398126 C 736.6666666666666 451.01525368398126, 733.3333333333334 448.1599193100022, 730 448.1599193100022 C 726.6666666666666 448.1599193100022, 723.3333333333334 474.7531028147288, 720 474.7531028147288 C 716.6666666666666 474.7531028147288, 713.3333333333334 452.85043583684956, 710 452.85043583684956 C 706.6666666666666 452.85043583684956, 703.3333333333334 482.95495972844935, 700 482.95495972844935 C 696.6666666666666 482.95495972844935, 693.3333333333334 465.2509821235773, 690 465.2509821235773 C 686.6666666666666 465.2509821235773, 683.3333333333334 467.5094672388271, 680 467.5094672388271 C 676.6666666666666 467.5094672388271, 673.3333333333334 452.68324662974607, 670 452.68324662974607 C 666.6666666666666 452.68324662974607, 663.3333333333334 456.14299846061186, 660 456.14299846061186 C 656.6666666666666 456.14299846061186, 653.3333333333334 448.53049582276407, 650 448.53049582276407 C 646.6666666666666 448.53049582276407, 643.3333333333334 486.9833566723088, 640 490.09495831460686 C 636.6666666666666 493.2065599569049, 633.3333333333334 493.79011139785575, 630 495.3527776226217 C 626.6666666666666 496.9154438473877, 623.3333333333334 499.58238861302664, 620 499.58238861302664 C 616.6666666666666 499.58238861302664, 613.3333333333334 494.49338893850563, 610 494.49338893850563 C 606.6666666666666 494.49338893850563, 603.3333333333334 499.7059053605739, 600 499.7059053605739 C 596.6666666666666 499.7059053605739, 593.3333333333334 495.58021866084584, 590 495.58021866084584 C 586.6666666666666 495.58021866084584, 583.3333333333334 497.7951252923499, 580 497.7951252923499 C 576.6666666666666 497.7951252923499, 573.3333333333334 493.4383773069322, 570 493.4383773069322 C 566.6666666666666 493.4383773069322, 563.3333333333334 496.57833055074303, 560 496.57833055074303 C 556.6666666666666 496.57833055074303, 553.3333333333334 495.8773284250358, 550 495.8773284250358 C 546.6666666666666 495.8773284250358, 543.3333333333334 498.36281500304335, 540 498.36281500304335 C 536.6666666666666 498.36281500304335, 533.3333333333334 496.5364094536933, 530 496.5364094536933 C 526.6666666666666 496.5364094536933, 523.3333333333334 498.0609036624702, 520 498.0609036624702 C 516.6666666666666 498.0609036624702, 513.3333333333334 496.0479929357634, 510 496.0479929357634 C 506.6666666666667 496.0479929357634, 503.3333333333333 497.5045336317464, 500 497.5045336317464 C 496.6666666666667 497.5045336317464, 493.3333333333333 492.22845584176326, 490 492.22845584176326 C 486.6666666666667 492.22845584176326, 483.3333333333333 493.8880951897142, 480 493.8880951897142 C 476.6666666666667 493.8880951897142, 473.3333333333333 491.4851562924486, 470 491.4851562924486 C 466.6666666666667 491.4851562924486, 463.3333333333333 492.5011898970891, 460 492.5011898970891 C 456.6666666666667 492.5011898970891, 453.3333333333333 488.5581497701513, 450 488.5581497701513 C 446.6666666666667 488.5581497701513, 443.3333333333333 493.302320369192, 440 493.302320369192 C 436.6666666666667 493.302320369192, 433.3333333333333 491.6536360159169, 430 491.6536360159169 C 426.6666666666667 491.6536360159169, 423.3333333333333 491.81491691481517, 420 491.81491691481517 C 416.6666666666667 491.81491691481517, 413.3333333333333 486.7600255661307, 410 486.7600255661307 C 406.6666666666667 486.7600255661307, 403.3333333333333 491.5059688824863, 400 491.5059688824863 C 396.6666666666667 491.5059688824863, 393.3333333333333 491.3064737877226, 390 491.3064737877226 C 386.6666666666667 491.3064737877226, 383.3333333333333 492.2976130264259, 380 492.2976130264259 C 376.6666666666667 492.2976130264259, 373.3333333333333 487.8788057418567, 370 487.8788057418567 C 366.6666666666667 487.8788057418567, 363.3333333333333 492.4279766017647, 360 492.4279766017647 C 356.6666666666667 492.4279766017647, 353.3333333333333 490.74121099341323, 350 490.74121099341323 C 346.6666666666667 490.74121099341323, 343.3333333333333 491.5714474714231, 340 491.5714474714231 C 336.6666666666667 491.5714474714231, 333.3333333333333 487.7810504587846, 330 487.7810504587846 C 326.6666666666667 487.7810504587846, 323.3333333333333 499.2060525477534, 320 499.6007289275632 C 316.6666666666667 499.99540530737295, 313.3333333333333 500.0288234028864, 310 500.22395936318776 C 306.6666666666667 500.4190953234891, 303.3333333333333 500.775872770982, 300 500.775872770982 C 296.6666666666667 500.775872770982, 293.3333333333333 494.8803001238523, 290 494.8803001238523 C 286.6666666666667 494.8803001238523, 283.3333333333333 497.42869026578455, 280 497.42869026578455 C 276.6666666666667 497.42869026578455, 273.3333333333333 493.8321939158079, 270 491.6611668595609 C 266.6666666666667 489.4901398033139, 263.3333333333333 486.09311148140836, 260 484.18115788450444 C 256.6666666666667 482.26920428760053, 253.33333333333334 479.5298613537998, 250 479.5298613537998 C 246.66666666666666 479.5298613537998, 243.33333333333334 481.65771412837955, 240 481.65771412837955 C 236.66666666666666 481.65771412837955, 233.33333333333334 481.0427675898304, 230 480.3276700919421 C 226.66666666666666 479.61257259405374, 223.33333333333334 474.7850166527023, 220 474.7850166527023 C 216.66666666666666 474.7850166527023, 213.33333333333334 477.65137954799025, 210 478.7469147471202 C 206.66666666666666 479.8424499462501, 203.33333333333334 481.55490725823694, 200 481.55490725823694 C 196.66666666666666 481.55490725823694, 193.33333333333334 481.2944522177488, 190 480.88308189426715 C 186.66666666666666 480.4717115707855, 183.33333333333334 474.28213372437153, 180 473.3140761664691 C 176.66666666666666 472.3460186085666, 173.33333333333334 472.5114813577474, 170 471.51728122796226 C 166.66666666666666 470.5230810981771, 163.33333333333334 463.1965492600797, 160 462.7460643880082 C 156.66666666666666 462.29557951593677, 153.33333333333334 462.4579304757797, 150 462.0139343888561 C 146.66666666666666 461.56993830193255, 143.33333333333334 454.64131963068627, 140 454.64131963068627 C 136.66666666666666 454.64131963068627, 133.33333333333334 454.8846074784734, 130 454.8846074784734 C 126.66666666666667 454.8846074784734, 123.33333333333333 451.4163971199549, 120 451.4163971199549 C 116.66666666666667 451.4163971199549, 113.33333333333333 456.2155764813769, 110 456.2155764813769 C 106.66666666666667 456.2155764813769, 103.33333333333333 447.8793688471608, 100 447.65542155616015 C 96.66666666666667 447.4314742651595, 93.33333333333333 447.3057798432642, 90 447.3057798432642 C 86.66666666666667 447.3057798432642, 83.33333333333333 452.3948093008792, 80 452.3948093008792 C 76.66666666666667 452.3948093008792, 73.33333333333333 452.17650044682244, 70 451.8689287669434 C 66.66666666666667 451.5613570870643, 63.333333333333336 448.5421135459914, 60 448.10873649792245 C 56.666666666666664 447.6753594498535, 53.333333333333336 447.7704781209279, 50 447.32279696015286 C 46.666666666666664 446.8751157993778, 43.333333333333336 442.71009244649724, 40 442.71009244649724 C 36.666666666666664 442.71009244649724, 33.333333333333336 446.00443744247775, 30 446.00443744247775 C 26.666666666666668 446.00443744247775, 23.333333333333332 442.04296685609444, 20 440.426372961816 C 16.666666666666668 438.8097790675376, 13.333333333333334 438.6930112182208, 10 436.13666391958384 C 3.3333333333333335 417.35338045275324, 6.666666666666666 433.58031662094686, 10 436.13666391958384 Z" fill="white" stroke="transparent" stroke-width="0" />
  </g>
</svg>