<svg 
  baseProfile="tiny"
  preserveAspectRatio="keep"
  version="1.2"
  viewBox="-5.000000 -5.000000 1015.000000 105.000000"
  height="100%" width="100%"
  xmlns="http://www.w3.org/2000/svg"
  xmlns:ev="http://www.w3.org/2001/xml-events"
  xmlns:xlink="http://www.w3.org/1999/xlink"
>
  <g style="transform-origin: center center;">
    <path d="M -0.250000 50.000000 C 4 50, 8.25 50, 12.5 50 C 14.166666666666666 50, 15.833333333333334 50, 17.5 50 C 19.166666666666668 50, 20.833333333333332 49.87509266708662, 22.5 49.87509266708662 C 24.166666666666668 49.87509266708662, 25.833333333333332 50.12490733291338, 27.5 50.12490733291338 C 29.166666666666668 50.12490733291338, 30.833333333333332 44.54917856084602, 32.5 44.54917856084602 C 34.166666666666664 44.54917856084602, 35.833333333333336 55.45082143915398, 37.5 55.45082143915398 C 39.166666666666664 55.45082143915398, 40.833333333333336 47.975231028176914, 42.5 47.975231028176914 C 44.166666666666664 47.975231028176914, 45.833333333333336 52.024768971823086, 47.5 52.024768971823086 C 49.166666666666664 52.024768971823086, 50.833333333333336 20.417861917798014, 52.5 20.417861917798014 C 54.166666666666664 20.417861917798014, 55.833333333333336 79.582138082202, 57.5 79.582138082202 C 59.166666666666664 79.582138082202, 60.833333333333336 29.438881972477667, 62.5 29.438881972477667 C 64.16666666666667 29.438881972477667, 65.83333333333333 70.56111802752233, 67.5 70.56111802752233 C 69.16666666666667 70.56111802752233, 70.83333333333333 14.874104985903948, 72.5 14.874104985903948 C 74.16666666666667 14.874104985903948, 75.83333333333333 85.12589501409605, 77.5 85.12589501409605 C 79.16666666666667 85.12589501409605, 80.83333333333333 37.36478241239552, 82.5 37.36478241239552 C 84.16666666666667 37.36478241239552, 85.83333333333333 62.63521758760448, 87.5 62.63521758760448 C 89.16666666666667 62.63521758760448, 90.83333333333333 46.60004027656018, 92.5 46.60004027656018 C 94.16666666666667 46.60004027656018, 95.83333333333333 53.39995972343982, 97.5 53.39995972343982 C 99.16666666666667 53.39995972343982, 100.83333333333333 33.660311939801595, 102.5 33.660311939801595 C 104.16666666666667 33.660311939801595, 105.83333333333333 66.3396880601984, 107.5 66.3396880601984 C 109.16666666666667 66.3396880601984, 110.83333333333333 23.82562566056655, 112.5 23.82562566056655 C 114.16666666666667 23.82562566056655, 115.83333333333333 76.17437433943346, 117.5 76.17437433943346 C 119.16666666666667 76.17437433943346, 120.83333333333333 31.53619025915464, 122.5 31.53619025915464 C 124.16666666666667 31.53619025915464, 125.83333333333333 68.46380974084536, 127.5 68.46380974084536 C 129.16666666666666 68.46380974084536, 130.83333333333334 20.663129180448664, 132.5 20.663129180448664 C 134.16666666666666 20.663129180448664, 135.83333333333334 79.33687081955134, 137.5 79.33687081955134 C 139.16666666666666 79.33687081955134, 140.83333333333334 36.80172178683466, 142.5 36.80172178683466 C 144.16666666666666 36.80172178683466, 145.83333333333334 63.19827821316534, 147.5 63.19827821316534 C 149.16666666666666 63.19827821316534, 150.83333333333334 4.941970203523958, 152.5 4.941970203523958 C 154.16666666666666 4.941970203523958, 155.83333333333334 95.05802979647603, 157.5 95.05802979647603 C 159.16666666666666 95.05802979647603, 160.83333333333334 23.67124246492273, 162.5 23.67124246492273 C 164.16666666666666 23.67124246492273, 165.83333333333334 76.32875753507727, 167.5 76.32875753507727 C 169.16666666666666 76.32875753507727, 170.83333333333334 17.53884340495678, 172.5 17.53884340495678 C 174.16666666666666 17.53884340495678, 175.83333333333334 82.46115659504322, 177.5 82.46115659504322 C 179.16666666666666 82.46115659504322, 180.83333333333334 32.70240170304285, 182.5 32.70240170304285 C 184.16666666666666 32.70240170304285, 185.83333333333334 67.29759829695715, 187.5 67.29759829695715 C 189.16666666666666 67.29759829695715, 190.83333333333334 30.07904064073997, 192.5 30.07904064073997 C 194.16666666666666 30.07904064073997, 195.83333333333334 69.92095935926002, 197.5 69.92095935926002 C 199.16666666666666 69.92095935926002, 200.83333333333334 32.21778695464337, 202.5 32.21778695464337 C 204.16666666666666 32.21778695464337, 205.83333333333334 67.78221304535663, 207.5 67.78221304535663 C 209.16666666666666 67.78221304535663, 210.83333333333334 24.35234624962199, 212.5 24.35234624962199 C 214.16666666666666 24.35234624962199, 215.83333333333334 75.64765375037801, 217.5 75.64765375037801 C 219.16666666666666 75.64765375037801, 220.83333333333334 45.68920231303579, 222.5 45.68920231303579 C 224.16666666666666 45.68920231303579, 225.83333333333334 54.31079768696421, 227.5 54.31079768696421 C 229.16666666666666 54.31079768696421, 230.83333333333334 27.4153781546667, 232.5 27.4153781546667 C 234.16666666666666 27.4153781546667, 235.83333333333334 72.5846218453333, 237.5 72.5846218453333 C 239.16666666666666 72.5846218453333, 240.83333333333334 43.09803881654576, 242.5 43.09803881654576 C 244.16666666666666 43.09803881654576, 245.83333333333334 56.90196118345424, 247.5 56.90196118345424 C 249.16666666666666 56.90196118345424, 250.83333333333334 17.85901217185016, 252.5 17.85901217185016 C 254.16666666666666 17.85901217185016, 255.83333333333334 82.14098782814983, 257.5 82.14098782814983 C 259.1666666666667 82.14098782814983, 260.8333333333333 27.06903680939405, 262.5 27.06903680939405 C 264.1666666666667 27.06903680939405, 265.8333333333333 72.93096319060595, 267.5 72.93096319060595 C 269.1666666666667 72.93096319060595, 270.8333333333333 10.963419563648216, 272.5 10.963419563648216 C 274.1666666666667 10.963419563648216, 275.8333333333333 89.03658043635178, 277.5 89.03658043635178 C 279.1666666666667 89.03658043635178, 280.8333333333333 49.373977066641785, 282.5 49.373977066641785 C 284.1666666666667 49.373977066641785, 285.8333333333333 50.626022933358215, 287.5 50.626022933358215 C 289.1666666666667 50.626022933358215, 290.8333333333333 36.09864803941612, 292.5 36.09864803941612 C 294.1666666666667 36.09864803941612, 295.8333333333333 63.90135196058388, 297.5 63.90135196058388 C 299.1666666666667 63.90135196058388, 300.8333333333333 24.078777125029088, 302.5 24.078777125029088 C 304.1666666666667 24.078777125029088, 305.8333333333333 75.92122287497091, 307.5 75.92122287497091 C 309.1666666666667 75.92122287497091, 310.8333333333333 18.893765376556352, 312.5 18.893765376556352 C 314.1666666666667 18.893765376556352, 315.8333333333333 81.10623462344364, 317.5 81.10623462344364 C 319.1666666666667 81.10623462344364, 320.8333333333333 32.34380936354302, 322.5 32.34380936354302 C 324.1666666666667 32.34380936354302, 325.8333333333333 67.65619063645698, 327.5 67.65619063645698 C 329.1666666666667 67.65619063645698, 330.8333333333333 13.16463781338932, 332.5 13.16463781338932 C 334.1666666666667 13.16463781338932, 335.8333333333333 86.83536218661068, 337.5 86.83536218661068 C 339.1666666666667 86.83536218661068, 340.8333333333333 23.449887257131746, 342.5 23.449887257131746 C 344.1666666666667 23.449887257131746, 345.8333333333333 76.55011274286825, 347.5 76.55011274286825 C 349.1666666666667 76.55011274286825, 350.8333333333333 18.353664678552573, 352.5 18.353664678552573 C 354.1666666666667 18.353664678552573, 355.8333333333333 81.64633532144742, 357.5 81.64633532144742 C 359.1666666666667 81.64633532144742, 360.8333333333333 40.4280257148702, 362.5 40.4280257148702 C 364.1666666666667 40.4280257148702, 365.8333333333333 59.5719742851298, 367.5 59.5719742851298 C 369.1666666666667 59.5719742851298, 370.8333333333333 7.191873328105139, 372.5 7.191873328105139 C 374.1666666666667 7.191873328105139, 375.8333333333333 92.80812667189485, 377.5 92.80812667189485 C 379.1666666666667 92.80812667189485, 380.8333333333333 25.415758511720945, 382.5 25.415758511720945 C 384.1666666666667 25.415758511720945, 385.8333333333333 74.58424148827905, 387.5 74.58424148827905 C 389.1666666666667 74.58424148827905, 390.8333333333333 27.694415957557244, 392.5 27.694415957557244 C 394.1666666666667 27.694415957557244, 395.8333333333333 72.30558404244276, 397.5 72.30558404244276 C 399.1666666666667 72.30558404244276, 400.8333333333333 32.07631437236938, 402.5 32.07631437236938 C 404.1666666666667 32.07631437236938, 405.8333333333333 67.92368562763062, 407.5 67.92368562763062 C 409.1666666666667 67.92368562763062, 410.8333333333333 28.082473281521843, 412.5 28.082473281521843 C 414.1666666666667 28.082473281521843, 415.8333333333333 71.91752671847816, 417.5 71.91752671847816 C 419.1666666666667 71.91752671847816, 420.8333333333333 35.84892743191758, 422.5 35.84892743191758 C 424.1666666666667 35.84892743191758, 425.8333333333333 64.15107256808241, 427.5 64.15107256808241 C 429.1666666666667 64.15107256808241, 430.8333333333333 22.48584436809371, 432.5 22.48584436809371 C 434.1666666666667 22.48584436809371, 435.8333333333333 77.51415563190629, 437.5 77.51415563190629 C 439.1666666666667 77.51415563190629, 440.8333333333333 26.741414786527308, 442.5 26.741414786527308 C 444.1666666666667 26.741414786527308, 445.8333333333333 73.25858521347268, 447.5 73.25858521347268 C 449.1666666666667 73.25858521347268, 450.8333333333333 12.005962634609702, 452.5 12.005962634609702 C 454.1666666666667 12.005962634609702, 455.8333333333333 87.9940373653903, 457.5 87.9940373653903 C 459.1666666666667 87.9940373653903, 460.8333333333333 33.408958636914946, 462.5 33.408958636914946 C 464.1666666666667 33.408958636914946, 465.8333333333333 66.59104136308505, 467.5 66.59104136308505 C 469.1666666666667 66.59104136308505, 470.8333333333333 10.69579603408775, 472.5 10.69579603408775 C 474.1666666666667 10.69579603408775, 475.8333333333333 89.30420396591225, 477.5 89.30420396591225 C 479.1666666666667 89.30420396591225, 480.8333333333333 27.536076348983634, 482.5 27.536076348983634 C 484.1666666666667 27.536076348983634, 485.8333333333333 72.46392365101636, 487.5 72.46392365101636 C 489.1666666666667 72.46392365101636, 490.8333333333333 23.275106952840897, 492.5 23.275106952840897 C 494.1666666666667 23.275106952840897, 495.8333333333333 76.7248930471591, 497.5 76.7248930471591 C 499.1666666666667 76.7248930471591, 500.8333333333333 26.81350836613669, 502.5 26.81350836613669 C 504.1666666666667 26.81350836613669, 505.8333333333333 73.18649163386331, 507.5 73.18649163386331 C 509.1666666666667 73.18649163386331, 510.8333333333333 26.23879311491378, 512.5 26.23879311491378 C 514.1666666666666 26.23879311491378, 515.8333333333334 73.76120688508622, 517.5 73.76120688508622 C 519.1666666666666 73.76120688508622, 520.8333333333334 29.26776256831789, 522.5 29.26776256831789 C 524.1666666666666 29.26776256831789, 525.8333333333334 70.73223743168211, 527.5 70.73223743168211 C 529.1666666666666 70.73223743168211, 530.8333333333334 11.655728701187655, 532.5 11.655728701187655 C 534.1666666666666 11.655728701187655, 535.8333333333334 88.34427129881234, 537.5 88.34427129881234 C 539.1666666666666 88.34427129881234, 540.8333333333334 27.567875781845554, 542.5 27.567875781845554 C 544.1666666666666 27.567875781845554, 545.8333333333334 72.43212421815444, 547.5 72.43212421815444 C 549.1666666666666 72.43212421815444, 550.8333333333334 23.944290552548743, 552.5 23.944290552548743 C 554.1666666666666 23.944290552548743, 555.8333333333334 76.05570944745125, 557.5 76.05570944745125 C 559.1666666666666 76.05570944745125, 560.8333333333334 18.939274249752287, 562.5 18.939274249752287 C 564.1666666666666 18.939274249752287, 565.8333333333334 81.06072575024771, 567.5 81.06072575024771 C 569.1666666666666 81.06072575024771, 570.8333333333334 7.884448294032161, 572.5 7.884448294032161 C 574.1666666666666 7.884448294032161, 575.8333333333334 92.11555170596785, 577.5 92.11555170596785 C 579.1666666666666 92.11555170596785, 580.8333333333334 33.929184754984846, 582.5 33.929184754984846 C 584.1666666666666 33.929184754984846, 585.8333333333334 66.07081524501515, 587.5 66.07081524501515 C 589.1666666666666 66.07081524501515, 590.8333333333334 33.71227305036027, 592.5 33.71227305036027 C 594.1666666666666 33.71227305036027, 595.8333333333334 66.28772694963973, 597.5 66.28772694963973 C 599.1666666666666 66.28772694963973, 600.8333333333334 39.03972143817587, 602.5 39.03972143817587 C 604.1666666666666 39.03972143817587, 605.8333333333334 60.96027856182413, 607.5 60.96027856182413 C 609.1666666666666 60.96027856182413, 610.8333333333334 21.25987752822372, 612.5 21.25987752822372 C 614.1666666666666 21.25987752822372, 615.8333333333334 78.74012247177629, 617.5 78.74012247177629 C 619.1666666666666 78.74012247177629, 620.8333333333334 21.53474603187962, 622.5 21.53474603187962 C 624.1666666666666 21.53474603187962, 625.8333333333334 78.46525396812038, 627.5 78.46525396812038 C 629.1666666666666 78.46525396812038, 630.8333333333334 15.19608357260828, 632.5 15.19608357260828 C 634.1666666666666 15.19608357260828, 635.8333333333334 84.80391642739173, 637.5 84.80391642739173 C 639.1666666666666 84.80391642739173, 640.8333333333334 38.763383314301215, 642.5 38.763383314301215 C 644.1666666666666 38.763383314301215, 645.8333333333334 61.236616685698785, 647.5 61.236616685698785 C 649.1666666666666 61.236616685698785, 650.8333333333334 15.018101221883143, 652.5 15.018101221883143 C 654.1666666666666 15.018101221883143, 655.8333333333334 84.98189877811686, 657.5 84.98189877811686 C 659.1666666666666 84.98189877811686, 660.8333333333334 21.440564077876267, 662.5 21.440564077876267 C 664.1666666666666 21.440564077876267, 665.8333333333334 78.55943592212373, 667.5 78.55943592212373 C 669.1666666666666 78.55943592212373, 670.8333333333334 10.074699188554028, 672.5 10.074699188554028 C 674.1666666666666 10.074699188554028, 675.8333333333334 89.92530081144596, 677.5 89.92530081144596 C 679.1666666666666 89.92530081144596, 680.8333333333334 23.028815926684885, 682.5 23.028815926684885 C 684.1666666666666 23.028815926684885, 685.8333333333334 76.97118407331511, 687.5 76.97118407331511 C 689.1666666666666 76.97118407331511, 690.8333333333334 20.873554326157024, 692.5 20.873554326157024 C 694.1666666666666 20.873554326157024, 695.8333333333334 79.12644567384298, 697.5 79.12644567384298 C 699.1666666666666 79.12644567384298, 700.8333333333334 30.131218383750973, 702.5 30.131218383750973 C 704.1666666666666 30.131218383750973, 705.8333333333334 69.86878161624902, 707.5 69.86878161624902 C 709.1666666666666 69.86878161624902, 710.8333333333334 25.641554893412117, 712.5 25.641554893412117 C 714.1666666666666 25.641554893412117, 715.8333333333334 74.35844510658788, 717.5 74.35844510658788 C 719.1666666666666 74.35844510658788, 720.8333333333334 26.512940326807783, 722.5 26.512940326807783 C 724.1666666666666 26.512940326807783, 725.8333333333334 73.48705967319222, 727.5 73.48705967319222 C 729.1666666666666 73.48705967319222, 730.8333333333334 14.099614497063449, 732.5 14.099614497063449 C 734.1666666666666 14.099614497063449, 735.8333333333334 85.90038550293656, 737.5 85.90038550293656 C 739.1666666666666 85.90038550293656, 740.8333333333334 30.002705147947644, 742.5 30.002705147947644 C 744.1666666666666 30.002705147947644, 745.8333333333334 69.99729485205236, 747.5 69.99729485205236 C 749.1666666666666 69.99729485205236, 750.8333333333334 7.656246677957043, 752.5 7.656246677957043 C 754.1666666666666 7.656246677957043, 755.8333333333334 92.34375332204296, 757.5 92.34375332204296 C 759.1666666666666 92.34375332204296, 760.8333333333334 14.22899106822097, 762.5 14.22899106822097 C 764.1666666666666 14.22899106822097, 765.8333333333334 85.77100893177902, 767.5 85.77100893177902 C 769.1666666666666 85.77100893177902, 770.8333333333334 6.474637700567328, 772.5 6.474637700567328 C 774.1666666666666 6.474637700567328, 775.8333333333334 93.52536229943267, 777.5 93.52536229943267 C 779.1666666666666 93.52536229943267, 780.8333333333334 0, 782.5 0 C 784.1666666666666 0, 785.8333333333334 100, 787.5 100 C 789.1666666666666 100, 790.8333333333334 19.213749489003508, 792.5 19.213749489003508 C 794.1666666666666 19.213749489003508, 795.8333333333334 80.7862505109965, 797.5 80.7862505109965 C 799.1666666666666 80.7862505109965, 800.8333333333334 11.082542614579907, 802.5 11.082542614579907 C 804.1666666666666 11.082542614579907, 805.8333333333334 88.9174573854201, 807.5 88.9174573854201 C 809.1666666666666 88.9174573854201, 810.8333333333334 13.798361444684545, 812.5 13.798361444684545 C 814.1666666666666 13.798361444684545, 815.8333333333334 86.20163855531545, 817.5 86.20163855531545 C 819.1666666666666 86.20163855531545, 820.8333333333334 8.929523354393432, 822.5 8.929523354393432 C 824.1666666666666 8.929523354393432, 825.8333333333334 91.07047664560656, 827.5 91.07047664560656 C 829.1666666666666 91.07047664560656, 830.8333333333334 10.299301782220525, 832.5 10.299301782220525 C 834.1666666666666 10.299301782220525, 835.8333333333334 89.70069821777948, 837.5 89.70069821777948 C 839.1666666666666 89.70069821777948, 840.8333333333334 29.796024822538843, 842.5 29.796024822538843 C 844.1666666666666 29.796024822538843, 845.8333333333334 70.20397517746116, 847.5 70.20397517746116 C 849.1666666666666 70.20397517746116, 850.8333333333334 13.891141813644467, 852.5 13.891141813644467 C 854.1666666666666 13.891141813644467, 855.8333333333334 86.10885818635553, 857.5 86.10885818635553 C 859.1666666666666 86.10885818635553, 860.8333333333334 17.786020224664917, 862.5 17.786020224664917 C 864.1666666666666 17.786020224664917, 865.8333333333334 82.21397977533508, 867.5 82.21397977533508 C 869.1666666666666 82.21397977533508, 870.8333333333334 0.6339666799704347, 872.5 0.6339666799704347 C 874.1666666666666 0.6339666799704347, 875.8333333333334 99.36603332002957, 877.5 99.36603332002957 C 879.1666666666666 99.36603332002957, 880.8333333333334 10.234024896559752, 882.5 10.234024896559752 C 884.1666666666666 10.234024896559752, 885.8333333333334 89.76597510344024, 887.5 89.76597510344024 C 889.1666666666666 89.76597510344024, 890.8333333333334 21.578721572405517, 892.5 21.578721572405517 C 894.1666666666666 21.578721572405517, 895.8333333333334 78.42127842759449, 897.5 78.42127842759449 C 899.1666666666666 78.42127842759449, 900.8333333333334 26.093322022419173, 902.5 26.093322022419173 C 904.1666666666666 26.093322022419173, 905.8333333333334 73.90667797758083, 907.5 73.90667797758083 C 909.1666666666666 73.90667797758083, 910.8333333333334 14.048501464390803, 912.5 14.048501464390803 C 914.1666666666666 14.048501464390803, 915.8333333333334 85.9514985356092, 917.5 85.9514985356092 C 919.1666666666666 85.9514985356092, 920.8333333333334 22.293583118710448, 922.5 22.293583118710448 C 924.1666666666666 22.293583118710448, 925.8333333333334 77.70641688128956, 927.5 77.70641688128956 C 929.1666666666666 77.70641688128956, 930.8333333333334 22.688522689755946, 932.5 22.688522689755946 C 934.1666666666666 22.688522689755946, 935.8333333333334 77.31147731024406, 937.5 77.31147731024406 C 939.1666666666666 77.31147731024406, 940.8333333333334 34.57341710333009, 942.5 34.57341710333009 C 944.1666666666666 34.57341710333009, 945.8333333333334 65.42658289666991, 947.5 65.42658289666991 C 949.1666666666666 65.42658289666991, 950.8333333333334 13.94954875030463, 952.5 13.94954875030463 C 954.1666666666666 13.94954875030463, 955.8333333333334 86.05045124969537, 957.5 86.05045124969537 C 959.1666666666666 86.05045124969537, 960.8333333333334 17.586804932827064, 962.5 17.586804932827064 C 964.1666666666666 17.586804932827064, 965.8333333333334 82.41319506717294, 967.5 82.41319506717294 C 969.1666666666666 82.41319506717294, 970.8333333333334 17.070705654234487, 972.5 17.070705654234487 C 974.1666666666666 17.070705654234487, 975.8333333333334 82.92929434576551, 977.5 82.92929434576551 C 979.1666666666666 82.92929434576551, 980.8333333333334 43.43406571252821, 982.5 43.43406571252821 C 984.1666666666666 43.43406571252821, 985.8333333333334 56.56593428747179, 987.5 56.56593428747179 C 989.1666666666666 56.56593428747179, 990.8333333333334 49.79080086695816, 992.5 49.79080086695816 C 994.1666666666666 49.79080086695816, 995.8333333333334 50.20919913304184, 997.5 50.20919913304184 C 999.1666666666666 50.20919913304184, 1000.8333333333334 50, 1002.5 50 C 1004.1666666666666 50, 1005.8333333333334 50, 1007.5 50 C 1008.4166666666666 50, 1009.3333333333334 50, 1010.25 50 " stroke="white" stroke-width="5" fill="transparent" />
  </g>
</svg>