<svg 
  baseProfile="tiny"
  preserveAspectRatio="keep"
  version="1.2"
  viewBox="-5.000000 -5.000000 1015.000000 105.000000"
  height="100%" width="100%"
  xmlns="http://www.w3.org/2000/svg"
  xmlns:ev="http://www.w3.org/2001/xml-events"
  xmlns:xlink="http://www.w3.org/1999/xlink"
>
  <g style="transform-origin: center center;">
    <path d="M -0.250000 50.000000 C 4 50, 8.25 50, 12.5 50 C 14.166666666666666 50, 15.833333333333334 50, 17.5 50 C 19.166666666666668 50, 20.833333333333332 49.80935221315648, 22.5 49.80935221315648 C 24.166666666666668 49.80935221315648, 25.833333333333332 50.19064778684352, 27.5 50.19064778684352 C 29.166666666666668 50.19064778684352, 30.833333333333332 48.57058382493953, 32.5 48.57058382493953 C 34.166666666666664 48.57058382493953, 35.833333333333336 51.42941617506047, 37.5 51.42941617506047 C 39.166666666666664 51.42941617506047, 40.833333333333336 42.83643508720241, 42.5 42.83643508720241 C 44.166666666666664 42.83643508720241, 45.833333333333336 57.16356491279759, 47.5 57.16356491279759 C 49.166666666666664 57.16356491279759, 50.833333333333336 44.54015578927738, 52.5 44.54015578927738 C 54.166666666666664 44.54015578927738, 55.833333333333336 55.45984421072262, 57.5 55.45984421072262 C 59.166666666666664 55.45984421072262, 60.833333333333336 45.45501464954497, 62.5 45.45501464954497 C 64.16666666666667 45.45501464954497, 65.83333333333333 54.54498535045503, 67.5 54.54498535045503 C 69.16666666666667 54.54498535045503, 70.83333333333333 43.42513601562398, 72.5 43.42513601562398 C 74.16666666666667 43.42513601562398, 75.83333333333333 56.57486398437602, 77.5 56.57486398437602 C 79.16666666666667 56.57486398437602, 80.83333333333333 33.4621670106972, 82.5 33.4621670106972 C 84.16666666666667 33.4621670106972, 85.83333333333333 66.5378329893028, 87.5 66.5378329893028 C 89.16666666666667 66.5378329893028, 90.83333333333333 31.76936677186708, 92.5 31.76936677186708 C 94.16666666666667 31.76936677186708, 95.83333333333333 68.23063322813292, 97.5 68.23063322813292 C 99.16666666666667 68.23063322813292, 100.83333333333333 34.98440167252685, 102.5 34.98440167252685 C 104.16666666666667 34.98440167252685, 105.83333333333333 65.01559832747314, 107.5 65.01559832747314 C 109.16666666666667 65.01559832747314, 110.83333333333333 28.403649015823532, 112.5 28.403649015823532 C 114.16666666666667 28.403649015823532, 115.83333333333333 71.59635098417647, 117.5 71.59635098417647 C 119.16666666666667 71.59635098417647, 120.83333333333333 20.62027446032358, 122.5 20.62027446032358 C 124.16666666666667 20.62027446032358, 125.83333333333333 79.37972553967643, 127.5 79.37972553967643 C 129.16666666666666 79.37972553967643, 130.83333333333334 21.768368226753893, 132.5 21.768368226753893 C 134.16666666666666 21.768368226753893, 135.83333333333334 78.23163177324611, 137.5 78.23163177324611 C 139.16666666666666 78.23163177324611, 140.83333333333334 28.915226271247757, 142.5 28.915226271247757 C 144.16666666666666 28.915226271247757, 145.83333333333334 71.08477372875224, 147.5 71.08477372875224 C 149.16666666666666 71.08477372875224, 150.83333333333334 23.00788557924464, 152.5 23.00788557924464 C 154.16666666666666 23.00788557924464, 155.83333333333334 76.99211442075536, 157.5 76.99211442075536 C 159.16666666666666 76.99211442075536, 160.83333333333334 20.429648709267596, 162.5 20.429648709267596 C 164.16666666666666 20.429648709267596, 165.83333333333334 79.5703512907324, 167.5 79.5703512907324 C 169.16666666666666 79.5703512907324, 170.83333333333334 26.027877585419123, 172.5 26.027877585419123 C 174.16666666666666 26.027877585419123, 175.83333333333334 73.97212241458088, 177.5 73.97212241458088 C 179.16666666666666 73.97212241458088, 180.83333333333334 24.551856887315054, 182.5 24.551856887315054 C 184.16666666666666 24.551856887315054, 185.83333333333334 75.44814311268495, 187.5 75.44814311268495 C 189.16666666666666 75.44814311268495, 190.83333333333334 11.71882099319216, 192.5 11.71882099319216 C 194.16666666666666 11.71882099319216, 195.83333333333334 88.28117900680783, 197.5 88.28117900680783 C 199.16666666666666 88.28117900680783, 200.83333333333334 13.371940408022837, 202.5 13.371940408022837 C 204.16666666666666 13.371940408022837, 205.83333333333334 86.62805959197716, 207.5 86.62805959197716 C 209.16666666666666 86.62805959197716, 210.83333333333334 13.255176119012361, 212.5 13.255176119012361 C 214.16666666666666 13.255176119012361, 215.83333333333334 86.74482388098764, 217.5 86.74482388098764 C 219.16666666666666 86.74482388098764, 220.83333333333334 6.037870139865248, 222.5 6.037870139865248 C 224.16666666666666 6.037870139865248, 225.83333333333334 93.96212986013475, 227.5 93.96212986013475 C 229.16666666666666 93.96212986013475, 230.83333333333334 15.275098240479018, 232.5 15.275098240479018 C 234.16666666666666 15.275098240479018, 235.83333333333334 84.72490175952098, 237.5 84.72490175952098 C 239.16666666666666 84.72490175952098, 240.83333333333334 14.95955538267554, 242.5 14.95955538267554 C 244.16666666666666 14.95955538267554, 245.83333333333334 85.04044461732445, 247.5 85.04044461732445 C 249.16666666666666 85.04044461732445, 250.83333333333334 7.612402250498029, 252.5 7.612402250498029 C 254.16666666666666 7.612402250498029, 255.83333333333334 92.38759774950196, 257.5 92.38759774950196 C 259.1666666666667 92.38759774950196, 260.8333333333333 10.891116691808897, 262.5 10.891116691808897 C 264.1666666666667 10.891116691808897, 265.8333333333333 89.10888330819111, 267.5 89.10888330819111 C 269.1666666666667 89.10888330819111, 270.8333333333333 12.346349840980494, 272.5 12.346349840980494 C 274.1666666666667 12.346349840980494, 275.8333333333333 87.6536501590195, 277.5 87.6536501590195 C 279.1666666666667 87.6536501590195, 280.8333333333333 9.607334826661344, 282.5 9.607334826661344 C 284.1666666666667 9.607334826661344, 285.8333333333333 90.39266517333866, 287.5 90.39266517333866 C 289.1666666666667 90.39266517333866, 290.8333333333333 16.693996676739616, 292.5 16.693996676739616 C 294.1666666666667 16.693996676739616, 295.8333333333333 83.30600332326038, 297.5 83.30600332326038 C 299.1666666666667 83.30600332326038, 300.8333333333333 19.57098983916578, 302.5 19.57098983916578 C 304.1666666666667 19.57098983916578, 305.8333333333333 80.42901016083422, 307.5 80.42901016083422 C 309.1666666666667 80.42901016083422, 310.8333333333333 13.144648412220988, 312.5 13.144648412220988 C 314.1666666666667 13.144648412220988, 315.8333333333333 86.85535158777901, 317.5 86.85535158777901 C 319.1666666666667 86.85535158777901, 320.8333333333333 15.38505661174733, 322.5 15.38505661174733 C 324.1666666666667 15.38505661174733, 325.8333333333333 84.61494338825267, 327.5 84.61494338825267 C 329.1666666666667 84.61494338825267, 330.8333333333333 20.45903035836836, 332.5 20.45903035836836 C 334.1666666666667 20.45903035836836, 335.8333333333333 79.54096964163165, 337.5 79.54096964163165 C 339.1666666666667 79.54096964163165, 340.8333333333333 20.21244058883757, 342.5 20.21244058883757 C 344.1666666666667 20.21244058883757, 345.8333333333333 79.78755941116243, 347.5 79.78755941116243 C 349.1666666666667 79.78755941116243, 350.8333333333333 31.79215673111856, 352.5 31.79215673111856 C 354.1666666666667 31.79215673111856, 355.8333333333333 68.20784326888145, 357.5 68.20784326888145 C 359.1666666666667 68.20784326888145, 360.8333333333333 19.526539145717912, 362.5 19.526539145717912 C 364.1666666666667 19.526539145717912, 365.8333333333333 80.47346085428208, 367.5 80.47346085428208 C 369.1666666666667 80.47346085428208, 370.8333333333333 16.34740449528296, 372.5 16.34740449528296 C 374.1666666666667 16.34740449528296, 375.8333333333333 83.65259550471704, 377.5 83.65259550471704 C 379.1666666666667 83.65259550471704, 380.8333333333333 15.449220406010362, 382.5 15.449220406010362 C 384.1666666666667 15.449220406010362, 385.8333333333333 84.55077959398963, 387.5 84.55077959398963 C 389.1666666666667 84.55077959398963, 390.8333333333333 18.12788620243115, 392.5 18.12788620243115 C 394.1666666666667 18.12788620243115, 395.8333333333333 81.87211379756886, 397.5 81.87211379756886 C 399.1666666666667 81.87211379756886, 400.8333333333333 13.571400646203067, 402.5 13.571400646203067 C 404.1666666666667 13.571400646203067, 405.8333333333333 86.42859935379693, 407.5 86.42859935379693 C 409.1666666666667 86.42859935379693, 410.8333333333333 9.800409593683618, 412.5 9.800409593683618 C 414.1666666666667 9.800409593683618, 415.8333333333333 90.19959040631639, 417.5 90.19959040631639 C 419.1666666666667 90.19959040631639, 420.8333333333333 20.80685789015887, 422.5 20.80685789015887 C 424.1666666666667 20.80685789015887, 425.8333333333333 79.19314210984113, 427.5 79.19314210984113 C 429.1666666666667 79.19314210984113, 430.8333333333333 18.469359689531085, 432.5 18.469359689531085 C 434.1666666666667 18.469359689531085, 435.8333333333333 81.53064031046891, 437.5 81.53064031046891 C 439.1666666666667 81.53064031046891, 440.8333333333333 10.038094076314671, 442.5 10.038094076314671 C 444.1666666666667 10.038094076314671, 445.8333333333333 89.96190592368532, 447.5 89.96190592368532 C 449.1666666666667 89.96190592368532, 450.8333333333333 22.840804303904445, 452.5 22.840804303904445 C 454.1666666666667 22.840804303904445, 455.8333333333333 77.15919569609555, 457.5 77.15919569609555 C 459.1666666666667 77.15919569609555, 460.8333333333333 16.784869802916717, 462.5 16.784869802916717 C 464.1666666666667 16.784869802916717, 465.8333333333333 83.21513019708328, 467.5 83.21513019708328 C 469.1666666666667 83.21513019708328, 470.8333333333333 5.7018645977644695, 472.5 5.7018645977644695 C 474.1666666666667 5.7018645977644695, 475.8333333333333 94.29813540223553, 477.5 94.29813540223553 C 479.1666666666667 94.29813540223553, 480.8333333333333 17.82391415751234, 482.5 17.82391415751234 C 484.1666666666667 17.82391415751234, 485.8333333333333 82.17608584248765, 487.5 82.17608584248765 C 489.1666666666667 82.17608584248765, 490.8333333333333 11.29033193869116, 492.5 11.29033193869116 C 494.1666666666667 11.29033193869116, 495.8333333333333 88.70966806130883, 497.5 88.70966806130883 C 499.1666666666667 88.70966806130883, 500.8333333333333 0, 502.5 0 C 504.1666666666667 0, 505.8333333333333 100, 507.5 100 C 509.1666666666667 100, 510.8333333333333 10.881786108142911, 512.5 10.881786108142911 C 514.1666666666666 10.881786108142911, 515.8333333333334 89.1182138918571, 517.5 89.1182138918571 C 519.1666666666666 89.1182138918571, 520.8333333333334 15.283309140023924, 522.5 15.283309140023924 C 524.1666666666666 15.283309140023924, 525.8333333333334 84.71669085997607, 527.5 84.71669085997607 C 529.1666666666666 84.71669085997607, 530.8333333333334 8.261962280192535, 532.5 8.261962280192535 C 534.1666666666666 8.261962280192535, 535.8333333333334 91.73803771980747, 537.5 91.73803771980747 C 539.1666666666666 91.73803771980747, 540.8333333333334 12.932046208565701, 542.5 12.932046208565701 C 544.1666666666666 12.932046208565701, 545.8333333333334 87.06795379143429, 547.5 87.06795379143429 C 549.1666666666666 87.06795379143429, 550.8333333333334 17.25779495648421, 552.5 17.25779495648421 C 554.1666666666666 17.25779495648421, 555.8333333333334 82.74220504351578, 557.5 82.74220504351578 C 559.1666666666666 82.74220504351578, 560.8333333333334 11.256679783639541, 562.5 11.256679783639541 C 564.1666666666666 11.256679783639541, 565.8333333333334 88.74332021636046, 567.5 88.74332021636046 C 569.1666666666666 88.74332021636046, 570.8333333333334 8.678108289292588, 572.5 8.678108289292588 C 574.1666666666666 8.678108289292588, 575.8333333333334 91.3218917107074, 577.5 91.3218917107074 C 579.1666666666666 91.3218917107074, 580.8333333333334 12.087284605204331, 582.5 12.087284605204331 C 584.1666666666666 12.087284605204331, 585.8333333333334 87.91271539479567, 587.5 87.91271539479567 C 589.1666666666666 87.91271539479567, 590.8333333333334 16.574896378325, 592.5 16.574896378325 C 594.1666666666666 16.574896378325, 595.8333333333334 83.42510362167499, 597.5 83.42510362167499 C 599.1666666666666 83.42510362167499, 600.8333333333334 15.430223354989856, 602.5 15.430223354989856 C 604.1666666666666 15.430223354989856, 605.8333333333334 84.56977664501014, 607.5 84.56977664501014 C 609.1666666666666 84.56977664501014, 610.8333333333334 19.343276680139105, 612.5 19.343276680139105 C 614.1666666666666 19.343276680139105, 615.8333333333334 80.6567233198609, 617.5 80.6567233198609 C 619.1666666666666 80.6567233198609, 620.8333333333334 14.347530815508406, 622.5 14.347530815508406 C 624.1666666666666 14.347530815508406, 625.8333333333334 85.6524691844916, 627.5 85.6524691844916 C 629.1666666666666 85.6524691844916, 630.8333333333334 14.084746404304646, 632.5 14.084746404304646 C 634.1666666666666 14.084746404304646, 635.8333333333334 85.91525359569536, 637.5 85.91525359569536 C 639.1666666666666 85.91525359569536, 640.8333333333334 13.059461598544004, 642.5 13.059461598544004 C 644.1666666666666 13.059461598544004, 645.8333333333334 86.940538401456, 647.5 86.940538401456 C 649.1666666666666 86.940538401456, 650.8333333333334 12.002948262243578, 652.5 12.002948262243578 C 654.1666666666666 12.002948262243578, 655.8333333333334 87.99705173775642, 657.5 87.99705173775642 C 659.1666666666666 87.99705173775642, 660.8333333333334 11.413328777878348, 662.5 11.413328777878348 C 664.1666666666666 11.413328777878348, 665.8333333333334 88.58667122212165, 667.5 88.58667122212165 C 669.1666666666666 88.58667122212165, 670.8333333333334 9.909247913550914, 672.5 9.909247913550914 C 674.1666666666666 9.909247913550914, 675.8333333333334 90.09075208644909, 677.5 90.09075208644909 C 679.1666666666666 90.09075208644909, 680.8333333333334 10.978613088119062, 682.5 10.978613088119062 C 684.1666666666666 10.978613088119062, 685.8333333333334 89.02138691188094, 687.5 89.02138691188094 C 689.1666666666666 89.02138691188094, 690.8333333333334 6.070723468247515, 692.5 6.070723468247515 C 694.1666666666666 6.070723468247515, 695.8333333333334 93.92927653175249, 697.5 93.92927653175249 C 699.1666666666666 93.92927653175249, 700.8333333333334 23.57658630241527, 702.5 23.57658630241527 C 704.1666666666666 23.57658630241527, 705.8333333333334 76.42341369758473, 707.5 76.42341369758473 C 709.1666666666666 76.42341369758473, 710.8333333333334 12.153489786718993, 712.5 12.153489786718993 C 714.1666666666666 12.153489786718993, 715.8333333333334 87.84651021328101, 717.5 87.84651021328101 C 719.1666666666666 87.84651021328101, 720.8333333333334 2.2222954704526074, 722.5 2.2222954704526074 C 724.1666666666666 2.2222954704526074, 725.8333333333334 97.77770452954739, 727.5 97.77770452954739 C 729.1666666666666 97.77770452954739, 730.8333333333334 16.201138711245783, 732.5 16.201138711245783 C 734.1666666666666 16.201138711245783, 735.8333333333334 83.79886128875421, 737.5 83.79886128875421 C 739.1666666666666 83.79886128875421, 740.8333333333334 9.580783496013098, 742.5 9.580783496013098 C 744.1666666666666 9.580783496013098, 745.8333333333334 90.4192165039869, 747.5 90.4192165039869 C 749.1666666666666 90.4192165039869, 750.8333333333334 4.5489150979703155, 752.5 4.5489150979703155 C 754.1666666666666 4.5489150979703155, 755.8333333333334 95.45108490202969, 757.5 95.45108490202969 C 759.1666666666666 95.45108490202969, 760.8333333333334 15.952002323169737, 762.5 15.952002323169737 C 764.1666666666666 15.952002323169737, 765.8333333333334 84.04799767683026, 767.5 84.04799767683026 C 769.1666666666666 84.04799767683026, 770.8333333333334 13.949911341907224, 772.5 13.949911341907224 C 774.1666666666666 13.949911341907224, 775.8333333333334 86.05008865809278, 777.5 86.05008865809278 C 779.1666666666666 86.05008865809278, 780.8333333333334 4.934980197060327, 782.5 4.934980197060327 C 784.1666666666666 4.934980197060327, 785.8333333333334 95.06501980293967, 787.5 95.06501980293967 C 789.1666666666666 95.06501980293967, 790.8333333333334 6.911797111976092, 792.5 6.911797111976092 C 794.1666666666666 6.911797111976092, 795.8333333333334 93.08820288802391, 797.5 93.08820288802391 C 799.1666666666666 93.08820288802391, 800.8333333333334 26.392595493472257, 802.5 26.392595493472257 C 804.1666666666666 26.392595493472257, 805.8333333333334 73.60740450652774, 807.5 73.60740450652774 C 809.1666666666666 73.60740450652774, 810.8333333333334 22.324083902310182, 812.5 22.324083902310182 C 814.1666666666666 22.324083902310182, 815.8333333333334 77.67591609768982, 817.5 77.67591609768982 C 819.1666666666666 77.67591609768982, 820.8333333333334 23.545038750394156, 822.5 23.545038750394156 C 824.1666666666666 23.545038750394156, 825.8333333333334 76.45496124960584, 827.5 76.45496124960584 C 829.1666666666666 76.45496124960584, 830.8333333333334 24.79333446487651, 832.5 24.79333446487651 C 834.1666666666666 24.79333446487651, 835.8333333333334 75.20666553512349, 837.5 75.20666553512349 C 839.1666666666666 75.20666553512349, 840.8333333333334 34.319430216012094, 842.5 34.319430216012094 C 844.1666666666666 34.319430216012094, 845.8333333333334 65.6805697839879, 847.5 65.6805697839879 C 849.1666666666666 65.6805697839879, 850.8333333333334 31.900221027801802, 852.5 31.900221027801802 C 854.1666666666666 31.900221027801802, 855.8333333333334 68.0997789721982, 857.5 68.0997789721982 C 859.1666666666666 68.0997789721982, 860.8333333333334 12.178505917860676, 862.5 12.178505917860676 C 864.1666666666666 12.178505917860676, 865.8333333333334 87.82149408213932, 867.5 87.82149408213932 C 869.1666666666666 87.82149408213932, 870.8333333333334 21.49351259760035, 872.5 21.49351259760035 C 874.1666666666666 21.49351259760035, 875.8333333333334 78.50648740239964, 877.5 78.50648740239964 C 879.1666666666666 78.50648740239964, 880.8333333333334 26.213382853875526, 882.5 26.213382853875526 C 884.1666666666666 26.213382853875526, 885.8333333333334 73.78661714612447, 887.5 73.78661714612447 C 889.1666666666666 73.78661714612447, 890.8333333333334 20.957662148082747, 892.5 20.957662148082747 C 894.1666666666666 20.957662148082747, 895.8333333333334 79.04233785191725, 897.5 79.04233785191725 C 899.1666666666666 79.04233785191725, 900.8333333333334 27.88557161162392, 902.5 27.88557161162392 C 904.1666666666666 27.88557161162392, 905.8333333333334 72.11442838837608, 907.5 72.11442838837608 C 909.1666666666666 72.11442838837608, 910.8333333333334 26.024428915247167, 912.5 26.024428915247167 C 914.1666666666666 26.024428915247167, 915.8333333333334 73.97557108475283, 917.5 73.97557108475283 C 919.1666666666666 73.97557108475283, 920.8333333333334 22.997107130760817, 922.5 22.997107130760817 C 924.1666666666666 22.997107130760817, 925.8333333333334 77.00289286923919, 927.5 77.00289286923919 C 929.1666666666666 77.00289286923919, 930.8333333333334 18.94836623775361, 932.5 18.94836623775361 C 934.1666666666666 18.94836623775361, 935.8333333333334 81.05163376224638, 937.5 81.05163376224638 C 939.1666666666666 81.05163376224638, 940.8333333333334 34.074765283499964, 942.5 34.074765283499964 C 944.1666666666666 34.074765283499964, 945.8333333333334 65.92523471650003, 947.5 65.92523471650003 C 949.1666666666666 65.92523471650003, 950.8333333333334 41.72898662158734, 952.5 41.72898662158734 C 954.1666666666666 41.72898662158734, 955.8333333333334 58.27101337841266, 957.5 58.27101337841266 C 959.1666666666666 58.27101337841266, 960.8333333333334 34.47998195296048, 962.5 34.47998195296048 C 964.1666666666666 34.47998195296048, 965.8333333333334 65.52001804703951, 967.5 65.52001804703951 C 969.1666666666666 65.52001804703951, 970.8333333333334 46.527616952875796, 972.5 46.527616952875796 C 974.1666666666666 46.527616952875796, 975.8333333333334 53.472383047124204, 977.5 53.472383047124204 C 979.1666666666666 53.472383047124204, 980.8333333333334 50, 982.5 50 C 984.1666666666666 50, 985.8333333333334 50, 987.5 50 C 989.1666666666666 50, 990.8333333333334 49.91419701752717, 992.5 49.91419701752717 C 994.1666666666666 49.91419701752717, 995.8333333333334 50.08580298247283, 997.5 50.08580298247283 C 999.1666666666666 50.08580298247283, 1000.8333333333334 50, 1002.5 50 C 1004.1666666666666 50, 1005.8333333333334 50, 1007.5 50 C 1008.4166666666666 50, 1009.3333333333334 50, 1010.25 50 " stroke="white" stroke-width="5" fill="transparent" />
  </g>
</svg>