<svg 
  baseProfile="tiny"
  preserveAspectRatio="keep"
  version="1.2"
  viewBox="-5.000000 -5.000000 1015.000000 105.000000"
  height="100%" width="100%"
  xmlns="http://www.w3.org/2000/svg"
  xmlns:ev="http://www.w3.org/2001/xml-events"
  xmlns:xlink="http://www.w3.org/1999/xlink"
>
  <g style="transform-origin: center center;">
    <path d="M -0.250000 50.000000 C 4 50, 8.25 50, 12.5 50 C 14.166666666666666 50, 15.833333333333334 50, 17.5 50 C 19.166666666666668 50, 20.833333333333332 49.53051210891874, 22.5 49.53051210891874 C 24.166666666666668 49.53051210891874, 25.833333333333332 50.46948789108126, 27.5 50.46948789108126 C 29.166666666666668 50.46948789108126, 30.833333333333332 46.791900847937335, 32.5 46.791900847937335 C 34.166666666666664 46.791900847937335, 35.833333333333336 53.208099152062665, 37.5 53.208099152062665 C 39.166666666666664 53.208099152062665, 40.833333333333336 28.037561078629533, 42.5 28.037561078629533 C 44.166666666666664 28.037561078629533, 45.833333333333336 71.96243892137046, 47.5 71.96243892137046 C 49.166666666666664 71.96243892137046, 50.833333333333336 26.158973847117167, 52.5 26.158973847117167 C 54.166666666666664 26.158973847117167, 55.833333333333336 73.84102615288283, 57.5 73.84102615288283 C 59.166666666666664 73.84102615288283, 60.833333333333336 22.961148477439735, 62.5 22.961148477439735 C 64.16666666666667 22.961148477439735, 65.83333333333333 77.03885152256026, 67.5 77.03885152256026 C 69.16666666666667 77.03885152256026, 70.83333333333333 21.725531223049966, 72.5 21.725531223049966 C 74.16666666666667 21.725531223049966, 75.83333333333333 78.27446877695003, 77.5 78.27446877695003 C 79.16666666666667 78.27446877695003, 80.83333333333333 9.121225431135016, 82.5 9.121225431135016 C 84.16666666666667 9.121225431135016, 85.83333333333333 90.87877456886498, 87.5 90.87877456886498 C 89.16666666666667 90.87877456886498, 90.83333333333333 26.23840482315408, 92.5 26.23840482315408 C 94.16666666666667 26.23840482315408, 95.83333333333333 73.76159517684592, 97.5 73.76159517684592 C 99.16666666666667 73.76159517684592, 100.83333333333333 0.47856479748221403, 102.5 0.47856479748221403 C 104.16666666666667 0.47856479748221403, 105.83333333333333 99.52143520251778, 107.5 99.52143520251778 C 109.16666666666667 99.52143520251778, 110.83333333333333 11.830054494737581, 112.5 11.830054494737581 C 114.16666666666667 11.830054494737581, 115.83333333333333 88.16994550526242, 117.5 88.16994550526242 C 119.16666666666667 88.16994550526242, 120.83333333333333 11.088821840347826, 122.5 11.088821840347826 C 124.16666666666667 11.088821840347826, 125.83333333333333 88.91117815965217, 127.5 88.91117815965217 C 129.16666666666666 88.91117815965217, 130.83333333333334 33.05854165249707, 132.5 33.05854165249707 C 134.16666666666666 33.05854165249707, 135.83333333333334 66.94145834750293, 137.5 66.94145834750293 C 139.16666666666666 66.94145834750293, 140.83333333333334 14.59957702502713, 142.5 14.59957702502713 C 144.16666666666666 14.59957702502713, 145.83333333333334 85.40042297497287, 147.5 85.40042297497287 C 149.16666666666666 85.40042297497287, 150.83333333333334 21.794665401086643, 152.5 21.794665401086643 C 154.16666666666666 21.794665401086643, 155.83333333333334 78.20533459891335, 157.5 78.20533459891335 C 159.16666666666666 78.20533459891335, 160.83333333333334 28.435612072612358, 162.5 28.435612072612358 C 164.16666666666666 28.435612072612358, 165.83333333333334 71.56438792738764, 167.5 71.56438792738764 C 169.16666666666666 71.56438792738764, 170.83333333333334 23.180763575484022, 172.5 23.180763575484022 C 174.16666666666666 23.180763575484022, 175.83333333333334 76.81923642451598, 177.5 76.81923642451598 C 179.16666666666666 76.81923642451598, 180.83333333333334 20.713747490123602, 182.5 20.713747490123602 C 184.16666666666666 20.713747490123602, 185.83333333333334 79.28625250987639, 187.5 79.28625250987639 C 189.16666666666666 79.28625250987639, 190.83333333333334 32.38232053251092, 192.5 32.38232053251092 C 194.16666666666666 32.38232053251092, 195.83333333333334 67.61767946748908, 197.5 67.61767946748908 C 199.16666666666666 67.61767946748908, 200.83333333333334 20.176780063148627, 202.5 20.176780063148627 C 204.16666666666666 20.176780063148627, 205.83333333333334 79.82321993685137, 207.5 79.82321993685137 C 209.16666666666666 79.82321993685137, 210.83333333333334 13.714525331737306, 212.5 13.714525331737306 C 214.16666666666666 13.714525331737306, 215.83333333333334 86.2854746682627, 217.5 86.2854746682627 C 219.16666666666666 86.2854746682627, 220.83333333333334 22.204381107193694, 222.5 22.204381107193694 C 224.16666666666666 22.204381107193694, 225.83333333333334 77.7956188928063, 227.5 77.7956188928063 C 229.16666666666666 77.7956188928063, 230.83333333333334 26.70615386993051, 232.5 26.70615386993051 C 234.16666666666666 26.70615386993051, 235.83333333333334 73.29384613006948, 237.5 73.29384613006948 C 239.16666666666666 73.29384613006948, 240.83333333333334 23.906728879326618, 242.5 23.906728879326618 C 244.16666666666666 23.906728879326618, 245.83333333333334 76.09327112067338, 247.5 76.09327112067338 C 249.16666666666666 76.09327112067338, 250.83333333333334 19.497009380534784, 252.5 19.497009380534784 C 254.16666666666666 19.497009380534784, 255.83333333333334 80.50299061946521, 257.5 80.50299061946521 C 259.1666666666667 80.50299061946521, 260.8333333333333 16.898062151882243, 262.5 16.898062151882243 C 264.1666666666667 16.898062151882243, 265.8333333333333 83.10193784811776, 267.5 83.10193784811776 C 269.1666666666667 83.10193784811776, 270.8333333333333 34.41488405631599, 272.5 34.41488405631599 C 274.1666666666667 34.41488405631599, 275.8333333333333 65.585115943684, 277.5 65.585115943684 C 279.1666666666667 65.585115943684, 280.8333333333333 24.146143309871626, 282.5 24.146143309871626 C 284.1666666666667 24.146143309871626, 285.8333333333333 75.85385669012837, 287.5 75.85385669012837 C 289.1666666666667 75.85385669012837, 290.8333333333333 34.59066813077379, 292.5 34.59066813077379 C 294.1666666666667 34.59066813077379, 295.8333333333333 65.40933186922621, 297.5 65.40933186922621 C 299.1666666666667 65.40933186922621, 300.8333333333333 19.97479734910857, 302.5 19.97479734910857 C 304.1666666666667 19.97479734910857, 305.8333333333333 80.02520265089143, 307.5 80.02520265089143 C 309.1666666666667 80.02520265089143, 310.8333333333333 32.76947169113826, 312.5 32.76947169113826 C 314.1666666666667 32.76947169113826, 315.8333333333333 67.23052830886175, 317.5 67.23052830886175 C 319.1666666666667 67.23052830886175, 320.8333333333333 18.19535843807527, 322.5 18.19535843807527 C 324.1666666666667 18.19535843807527, 325.8333333333333 81.80464156192473, 327.5 81.80464156192473 C 329.1666666666667 81.80464156192473, 330.8333333333333 35.08281953718822, 332.5 35.08281953718822 C 334.1666666666667 35.08281953718822, 335.8333333333333 64.91718046281179, 337.5 64.91718046281179 C 339.1666666666667 64.91718046281179, 340.8333333333333 19.298496451160247, 342.5 19.298496451160247 C 344.1666666666667 19.298496451160247, 345.8333333333333 80.70150354883975, 347.5 80.70150354883975 C 349.1666666666667 80.70150354883975, 350.8333333333333 42.86346945565673, 352.5 42.86346945565673 C 354.1666666666667 42.86346945565673, 355.8333333333333 57.13653054434327, 357.5 57.13653054434327 C 359.1666666666667 57.13653054434327, 360.8333333333333 39.2576964195762, 362.5 39.2576964195762 C 364.1666666666667 39.2576964195762, 365.8333333333333 60.7423035804238, 367.5 60.7423035804238 C 369.1666666666667 60.7423035804238, 370.8333333333333 34.898873883515655, 372.5 34.898873883515655 C 374.1666666666667 34.898873883515655, 375.8333333333333 65.10112611648434, 377.5 65.10112611648434 C 379.1666666666667 65.10112611648434, 380.8333333333333 34.18164221089627, 382.5 34.18164221089627 C 384.1666666666667 34.18164221089627, 385.8333333333333 65.81835778910373, 387.5 65.81835778910373 C 389.1666666666667 65.81835778910373, 390.8333333333333 34.620505719970225, 392.5 34.620505719970225 C 394.1666666666667 34.620505719970225, 395.8333333333333 65.37949428002977, 397.5 65.37949428002977 C 399.1666666666667 65.37949428002977, 400.8333333333333 28.34481223951367, 402.5 28.34481223951367 C 404.1666666666667 28.34481223951367, 405.8333333333333 71.65518776048633, 407.5 71.65518776048633 C 409.1666666666667 71.65518776048633, 410.8333333333333 32.510175605144525, 412.5 32.510175605144525 C 414.1666666666667 32.510175605144525, 415.8333333333333 67.48982439485548, 417.5 67.48982439485548 C 419.1666666666667 67.48982439485548, 420.8333333333333 30.165337472826295, 422.5 30.165337472826295 C 424.1666666666667 30.165337472826295, 425.8333333333333 69.8346625271737, 427.5 69.8346625271737 C 429.1666666666667 69.8346625271737, 430.8333333333333 35.791116844466444, 432.5 35.791116844466444 C 434.1666666666667 35.791116844466444, 435.8333333333333 64.20888315553356, 437.5 64.20888315553356 C 439.1666666666667 64.20888315553356, 440.8333333333333 24.60204847826676, 442.5 24.60204847826676 C 444.1666666666667 24.60204847826676, 445.8333333333333 75.39795152173323, 447.5 75.39795152173323 C 449.1666666666667 75.39795152173323, 450.8333333333333 36.846872725300955, 452.5 36.846872725300955 C 454.1666666666667 36.846872725300955, 455.8333333333333 63.153127274699045, 457.5 63.153127274699045 C 459.1666666666667 63.153127274699045, 460.8333333333333 21.328074454633438, 462.5 21.328074454633438 C 464.1666666666667 21.328074454633438, 465.8333333333333 78.67192554536656, 467.5 78.67192554536656 C 469.1666666666667 78.67192554536656, 470.8333333333333 34.47418471171936, 472.5 34.47418471171936 C 474.1666666666667 34.47418471171936, 475.8333333333333 65.52581528828064, 477.5 65.52581528828064 C 479.1666666666667 65.52581528828064, 480.8333333333333 21.312474751074866, 482.5 21.312474751074866 C 484.1666666666667 21.312474751074866, 485.8333333333333 78.68752524892514, 487.5 78.68752524892514 C 489.1666666666667 78.68752524892514, 490.8333333333333 34.20700993762752, 492.5 34.20700993762752 C 494.1666666666667 34.20700993762752, 495.8333333333333 65.79299006237248, 497.5 65.79299006237248 C 499.1666666666667 65.79299006237248, 500.8333333333333 20.647035564029586, 502.5 20.647035564029586 C 504.1666666666667 20.647035564029586, 505.8333333333333 79.35296443597042, 507.5 79.35296443597042 C 509.1666666666667 79.35296443597042, 510.8333333333333 36.49530500180251, 512.5 36.49530500180251 C 514.1666666666666 36.49530500180251, 515.8333333333334 63.50469499819749, 517.5 63.50469499819749 C 519.1666666666666 63.50469499819749, 520.8333333333334 21.232697330148554, 522.5 21.232697330148554 C 524.1666666666666 21.232697330148554, 525.8333333333334 78.76730266985145, 527.5 78.76730266985145 C 529.1666666666666 78.76730266985145, 530.8333333333334 41.9322260327241, 532.5 41.9322260327241 C 534.1666666666666 41.9322260327241, 535.8333333333334 58.0677739672759, 537.5 58.0677739672759 C 539.1666666666666 58.0677739672759, 540.8333333333334 20.06586794344502, 542.5 20.06586794344502 C 544.1666666666666 20.06586794344502, 545.8333333333334 79.93413205655497, 547.5 79.93413205655497 C 549.1666666666666 79.93413205655497, 550.8333333333334 41.94509424867644, 552.5 41.94509424867644 C 554.1666666666666 41.94509424867644, 555.8333333333334 58.05490575132356, 557.5 58.05490575132356 C 559.1666666666666 58.05490575132356, 560.8333333333334 31.489721712810454, 562.5 31.489721712810454 C 564.1666666666666 31.489721712810454, 565.8333333333334 68.51027828718955, 567.5 68.51027828718955 C 569.1666666666666 68.51027828718955, 570.8333333333334 28.671510206169128, 572.5 28.671510206169128 C 574.1666666666666 28.671510206169128, 575.8333333333334 71.32848979383087, 577.5 71.32848979383087 C 579.1666666666666 71.32848979383087, 580.8333333333334 24.3688205430892, 582.5 24.3688205430892 C 584.1666666666666 24.3688205430892, 585.8333333333334 75.6311794569108, 587.5 75.6311794569108 C 589.1666666666666 75.6311794569108, 590.8333333333334 31.761041015831527, 592.5 31.761041015831527 C 594.1666666666666 31.761041015831527, 595.8333333333334 68.23895898416848, 597.5 68.23895898416848 C 599.1666666666666 68.23895898416848, 600.8333333333334 27.92667038950963, 602.5 27.92667038950963 C 604.1666666666666 27.92667038950963, 605.8333333333334 72.07332961049036, 607.5 72.07332961049036 C 609.1666666666666 72.07332961049036, 610.8333333333334 38.226788545717774, 612.5 38.226788545717774 C 614.1666666666666 38.226788545717774, 615.8333333333334 61.773211454282226, 617.5 61.773211454282226 C 619.1666666666666 61.773211454282226, 620.8333333333334 32.700000841879856, 622.5 32.700000841879856 C 624.1666666666666 32.700000841879856, 625.8333333333334 67.29999915812014, 627.5 67.29999915812014 C 629.1666666666666 67.29999915812014, 630.8333333333334 47.10762922985194, 632.5 47.10762922985194 C 634.1666666666666 47.10762922985194, 635.8333333333334 52.89237077014806, 637.5 52.89237077014806 C 639.1666666666666 52.89237077014806, 640.8333333333334 33.38763192052163, 642.5 33.38763192052163 C 644.1666666666666 33.38763192052163, 645.8333333333334 66.61236807947837, 647.5 66.61236807947837 C 649.1666666666666 66.61236807947837, 650.8333333333334 47.61202993465289, 652.5 47.61202993465289 C 654.1666666666666 47.61202993465289, 655.8333333333334 52.38797006534711, 657.5 52.38797006534711 C 659.1666666666666 52.38797006534711, 660.8333333333334 31.049798639435906, 662.5 31.049798639435906 C 664.1666666666666 31.049798639435906, 665.8333333333334 68.9502013605641, 667.5 68.9502013605641 C 669.1666666666666 68.9502013605641, 670.8333333333334 35.712222193326866, 672.5 35.712222193326866 C 674.1666666666666 35.712222193326866, 675.8333333333334 64.28777780667313, 677.5 64.28777780667313 C 679.1666666666666 64.28777780667313, 680.8333333333334 23.180430297875848, 682.5 23.180430297875848 C 684.1666666666666 23.180430297875848, 685.8333333333334 76.81956970212416, 687.5 76.81956970212416 C 689.1666666666666 76.81956970212416, 690.8333333333334 40.55043645820615, 692.5 40.55043645820615 C 694.1666666666666 40.55043645820615, 695.8333333333334 59.44956354179385, 697.5 59.44956354179385 C 699.1666666666666 59.44956354179385, 700.8333333333334 22.554598023196306, 702.5 22.554598023196306 C 704.1666666666666 22.554598023196306, 705.8333333333334 77.4454019768037, 707.5 77.4454019768037 C 709.1666666666666 77.4454019768037, 710.8333333333334 37.43649631015976, 712.5 37.43649631015976 C 714.1666666666666 37.43649631015976, 715.8333333333334 62.56350368984024, 717.5 62.56350368984024 C 719.1666666666666 62.56350368984024, 720.8333333333334 23.195791124172228, 722.5 23.195791124172228 C 724.1666666666666 23.195791124172228, 725.8333333333334 76.80420887582777, 727.5 76.80420887582777 C 729.1666666666666 76.80420887582777, 730.8333333333334 49.91328092192561, 732.5 49.91328092192561 C 734.1666666666666 49.91328092192561, 735.8333333333334 50.08671907807439, 737.5 50.08671907807439 C 739.1666666666666 50.08671907807439, 740.8333333333334 23.433806031711306, 742.5 23.433806031711306 C 744.1666666666666 23.433806031711306, 745.8333333333334 76.5661939682887, 747.5 76.5661939682887 C 749.1666666666666 76.5661939682887, 750.8333333333334 50, 752.5 50 C 754.1666666666666 50, 755.8333333333334 50, 757.5 50 C 759.1666666666666 50, 760.8333333333334 48.973501070356185, 762.5 48.973501070356185 C 764.1666666666666 48.973501070356185, 765.8333333333334 51.026498929643815, 767.5 51.026498929643815 C 769.1666666666666 51.026498929643815, 770.8333333333334 36.71321865455805, 772.5 36.71321865455805 C 774.1666666666666 36.71321865455805, 775.8333333333334 63.28678134544195, 777.5 63.28678134544195 C 779.1666666666666 63.28678134544195, 780.8333333333334 29.758355983453438, 782.5 29.758355983453438 C 784.1666666666666 29.758355983453438, 785.8333333333334 70.24164401654656, 787.5 70.24164401654656 C 789.1666666666666 70.24164401654656, 790.8333333333334 31.804189362524742, 792.5 31.804189362524742 C 794.1666666666666 31.804189362524742, 795.8333333333334 68.19581063747526, 797.5 68.19581063747526 C 799.1666666666666 68.19581063747526, 800.8333333333334 30.98975571042783, 802.5 30.98975571042783 C 804.1666666666666 30.98975571042783, 805.8333333333334 69.01024428957217, 807.5 69.01024428957217 C 809.1666666666666 69.01024428957217, 810.8333333333334 37.29528651965019, 812.5 37.29528651965019 C 814.1666666666666 37.29528651965019, 815.8333333333334 62.70471348034981, 817.5 62.70471348034981 C 819.1666666666666 62.70471348034981, 820.8333333333334 30.905226716229738, 822.5 30.905226716229738 C 824.1666666666666 30.905226716229738, 825.8333333333334 69.09477328377027, 827.5 69.09477328377027 C 829.1666666666666 69.09477328377027, 830.8333333333334 41.76419602914045, 832.5 41.76419602914045 C 834.1666666666666 41.76419602914045, 835.8333333333334 58.23580397085955, 837.5 58.23580397085955 C 839.1666666666666 58.23580397085955, 840.8333333333334 29.875729482967653, 842.5 29.875729482967653 C 844.1666666666666 29.875729482967653, 845.8333333333334 70.12427051703234, 847.5 70.12427051703234 C 849.1666666666666 70.12427051703234, 850.8333333333334 39.723766999937396, 852.5 39.723766999937396 C 854.1666666666666 39.723766999937396, 855.8333333333334 60.276233000062604, 857.5 60.276233000062604 C 859.1666666666666 60.276233000062604, 860.8333333333334 27.001854856387695, 862.5 27.001854856387695 C 864.1666666666666 27.001854856387695, 865.8333333333334 72.9981451436123, 867.5 72.9981451436123 C 869.1666666666666 72.9981451436123, 870.8333333333334 35.65776299998592, 872.5 35.65776299998592 C 874.1666666666666 35.65776299998592, 875.8333333333334 64.34223700001408, 877.5 64.34223700001408 C 879.1666666666666 64.34223700001408, 880.8333333333334 24.90506864914738, 882.5 24.90506864914738 C 884.1666666666666 24.90506864914738, 885.8333333333334 75.09493135085262, 887.5 75.09493135085262 C 889.1666666666666 75.09493135085262, 890.8333333333334 30.602531065154523, 892.5 30.602531065154523 C 894.1666666666666 30.602531065154523, 895.8333333333334 69.39746893484548, 897.5 69.39746893484548 C 899.1666666666666 69.39746893484548, 900.8333333333334 20.383638740421738, 902.5 20.383638740421738 C 904.1666666666666 20.383638740421738, 905.8333333333334 79.61636125957827, 907.5 79.61636125957827 C 909.1666666666666 79.61636125957827, 910.8333333333334 24.269088428853447, 912.5 24.269088428853447 C 914.1666666666666 24.269088428853447, 915.8333333333334 75.73091157114655, 917.5 75.73091157114655 C 919.1666666666666 75.73091157114655, 920.8333333333334 11.975144337812665, 922.5 11.975144337812665 C 924.1666666666666 11.975144337812665, 925.8333333333334 88.02485566218733, 927.5 88.02485566218733 C 929.1666666666666 88.02485566218733, 930.8333333333334 17.971336184709386, 932.5 17.971336184709386 C 934.1666666666666 17.971336184709386, 935.8333333333334 82.02866381529061, 937.5 82.02866381529061 C 939.1666666666666 82.02866381529061, 940.8333333333334 4.612136785208243, 942.5 4.612136785208243 C 944.1666666666666 4.612136785208243, 945.8333333333334 95.38786321479176, 947.5 95.38786321479176 C 949.1666666666666 95.38786321479176, 950.8333333333334 0.8816307046855485, 952.5 0.8816307046855485 C 954.1666666666666 0.8816307046855485, 955.8333333333334 99.11836929531445, 957.5 99.11836929531445 C 959.1666666666666 99.11836929531445, 960.8333333333334 3.5169273226185567, 962.5 3.5169273226185567 C 964.1666666666666 3.5169273226185567, 965.8333333333334 96.48307267738144, 967.5 96.48307267738144 C 969.1666666666666 96.48307267738144, 970.8333333333334 14.571370694446202, 972.5 14.571370694446202 C 974.1666666666666 14.571370694446202, 975.8333333333334 85.4286293055538, 977.5 85.4286293055538 C 979.1666666666666 85.4286293055538, 980.8333333333334 34.63058301234865, 982.5 34.63058301234865 C 984.1666666666666 34.63058301234865, 985.8333333333334 65.36941698765135, 987.5 65.36941698765135 C 989.1666666666666 65.36941698765135, 990.8333333333334 49.11322287055471, 992.5 49.11322287055471 C 994.1666666666666 49.11322287055471, 995.8333333333334 50.88677712944529, 997.5 50.88677712944529 C 999.1666666666666 50.88677712944529, 1000.8333333333334 50, 1002.5 50 C 1004.1666666666666 50, 1005.8333333333334 50, 1007.5 50 C 1008.4166666666666 50, 1009.3333333333334 50, 1010.25 50 " stroke="white" stroke-width="5" fill="transparent" />
  </g>
</svg>