<svg 
  baseProfile="tiny"
  preserveAspectRatio="keep"
  version="1.2"
  viewBox="-5.000000 -5.000000 1015.000000 105.000000"
  height="100%" width="100%"
  xmlns="http://www.w3.org/2000/svg"
  xmlns:ev="http://www.w3.org/2001/xml-events"
  xmlns:xlink="http://www.w3.org/1999/xlink"
>
  <g style="transform-origin: center center;">
    <path d="M -0.250000 50.000000 C 4 50, 8.25 50, 12.5 50 C 14.166666666666666 50, 15.833333333333334 50, 17.5 50 C 19.166666666666668 50, 20.833333333333332 49.472338472082484, 22.5 49.472338472082484 C 24.166666666666668 49.472338472082484, 25.833333333333332 50.527661527917516, 27.5 50.527661527917516 C 29.166666666666668 50.527661527917516, 30.833333333333332 45.80860247301109, 32.5 45.80860247301109 C 34.166666666666664 45.80860247301109, 35.833333333333336 54.19139752698891, 37.5 54.19139752698891 C 39.166666666666664 54.19139752698891, 40.833333333333336 41.779926939045176, 42.5 41.779926939045176 C 44.166666666666664 41.779926939045176, 45.833333333333336 58.220073060954824, 47.5 58.220073060954824 C 49.166666666666664 58.220073060954824, 50.833333333333336 38.76163470282853, 52.5 38.76163470282853 C 54.166666666666664 38.76163470282853, 55.833333333333336 61.23836529717147, 57.5 61.23836529717147 C 59.166666666666664 61.23836529717147, 60.833333333333336 31.70047910790681, 62.5 31.70047910790681 C 64.16666666666667 31.70047910790681, 65.83333333333333 68.2995208920932, 67.5 68.2995208920932 C 69.16666666666667 68.2995208920932, 70.83333333333333 43.9281515762016, 72.5 43.9281515762016 C 74.16666666666667 43.9281515762016, 75.83333333333333 56.0718484237984, 77.5 56.0718484237984 C 79.16666666666667 56.0718484237984, 80.83333333333333 45.161247052862514, 82.5 45.161247052862514 C 84.16666666666667 45.161247052862514, 85.83333333333333 54.838752947137486, 87.5 54.838752947137486 C 89.16666666666667 54.838752947137486, 90.83333333333333 6.015585862918655, 92.5 6.015585862918655 C 94.16666666666667 6.015585862918655, 95.83333333333333 93.98441413708134, 97.5 93.98441413708134 C 99.16666666666667 93.98441413708134, 100.83333333333333 6.269413144552701, 102.5 6.269413144552701 C 104.16666666666667 6.269413144552701, 105.83333333333333 93.7305868554473, 107.5 93.7305868554473 C 109.16666666666667 93.7305868554473, 110.83333333333333 7.038997539961656, 112.5 7.038997539961656 C 114.16666666666667 7.038997539961656, 115.83333333333333 92.96100246003834, 117.5 92.96100246003834 C 119.16666666666667 92.96100246003834, 120.83333333333333 6.7709884784234475, 122.5 6.7709884784234475 C 124.16666666666667 6.7709884784234475, 125.83333333333333 93.22901152157655, 127.5 93.22901152157655 C 129.16666666666666 93.22901152157655, 130.83333333333334 5.249786245128192, 132.5 5.249786245128192 C 134.16666666666666 5.249786245128192, 135.83333333333334 94.75021375487181, 137.5 94.75021375487181 C 139.16666666666666 94.75021375487181, 140.83333333333334 6.339044138076893, 142.5 6.339044138076893 C 144.16666666666666 6.339044138076893, 145.83333333333334 93.6609558619231, 147.5 93.6609558619231 C 149.16666666666666 93.6609558619231, 150.83333333333334 7.404045556523236, 152.5 7.404045556523236 C 154.16666666666666 7.404045556523236, 155.83333333333334 92.59595444347676, 157.5 92.59595444347676 C 159.16666666666666 92.59595444347676, 160.83333333333334 6.225300238950354, 162.5 6.225300238950354 C 164.16666666666666 6.225300238950354, 165.83333333333334 93.77469976104965, 167.5 93.77469976104965 C 169.16666666666666 93.77469976104965, 170.83333333333334 9.460760176735825, 172.5 9.460760176735825 C 174.16666666666666 9.460760176735825, 175.83333333333334 90.53923982326418, 177.5 90.53923982326418 C 179.16666666666666 90.53923982326418, 180.83333333333334 4.863786573226136, 182.5 4.863786573226136 C 184.16666666666666 4.863786573226136, 185.83333333333334 95.13621342677386, 187.5 95.13621342677386 C 189.16666666666666 95.13621342677386, 190.83333333333334 7.53973967436832, 192.5 7.53973967436832 C 194.16666666666666 7.53973967436832, 195.83333333333334 92.46026032563168, 197.5 92.46026032563168 C 199.16666666666666 92.46026032563168, 200.83333333333334 7.994709690547538, 202.5 7.994709690547538 C 204.16666666666666 7.994709690547538, 205.83333333333334 92.00529030945246, 207.5 92.00529030945246 C 209.16666666666666 92.00529030945246, 210.83333333333334 4.149206347315435, 212.5 4.149206347315435 C 214.16666666666666 4.149206347315435, 215.83333333333334 95.85079365268456, 217.5 95.85079365268456 C 219.16666666666666 95.85079365268456, 220.83333333333334 5.0412870512135015, 222.5 5.0412870512135015 C 224.16666666666666 5.0412870512135015, 225.83333333333334 94.9587129487865, 227.5 94.9587129487865 C 229.16666666666666 94.9587129487865, 230.83333333333334 9.76307531028052, 232.5 9.76307531028052 C 234.16666666666666 9.76307531028052, 235.83333333333334 90.23692468971947, 237.5 90.23692468971947 C 239.16666666666666 90.23692468971947, 240.83333333333334 7.742442323293147, 242.5 7.742442323293147 C 244.16666666666666 7.742442323293147, 245.83333333333334 92.25755767670685, 247.5 92.25755767670685 C 249.16666666666666 92.25755767670685, 250.83333333333334 7.321240703700568, 252.5 7.321240703700568 C 254.16666666666666 7.321240703700568, 255.83333333333334 92.67875929629943, 257.5 92.67875929629943 C 259.1666666666667 92.67875929629943, 260.8333333333333 4.743662134703861, 262.5 4.743662134703861 C 264.1666666666667 4.743662134703861, 265.8333333333333 95.25633786529613, 267.5 95.25633786529613 C 269.1666666666667 95.25633786529613, 270.8333333333333 3.9613148297980985, 272.5 3.9613148297980985 C 274.1666666666667 3.9613148297980985, 275.8333333333333 96.0386851702019, 277.5 96.0386851702019 C 279.1666666666667 96.0386851702019, 280.8333333333333 4.94518371805119, 282.5 4.94518371805119 C 284.1666666666667 4.94518371805119, 285.8333333333333 95.0548162819488, 287.5 95.0548162819488 C 289.1666666666667 95.0548162819488, 290.8333333333333 8.34190748502359, 292.5 8.34190748502359 C 294.1666666666667 8.34190748502359, 295.8333333333333 91.6580925149764, 297.5 91.6580925149764 C 299.1666666666667 91.6580925149764, 300.8333333333333 2.857430382263736, 302.5 2.857430382263736 C 304.1666666666667 2.857430382263736, 305.8333333333333 97.14256961773626, 307.5 97.14256961773626 C 309.1666666666667 97.14256961773626, 310.8333333333333 0, 312.5 0 C 314.1666666666667 0, 315.8333333333333 100, 317.5 100 C 319.1666666666667 100, 320.8333333333333 6.591304998476595, 322.5 6.591304998476595 C 324.1666666666667 6.591304998476595, 325.8333333333333 93.4086950015234, 327.5 93.4086950015234 C 329.1666666666667 93.4086950015234, 330.8333333333333 7.892159438120785, 332.5 7.892159438120785 C 334.1666666666667 7.892159438120785, 335.8333333333333 92.10784056187921, 337.5 92.10784056187921 C 339.1666666666667 92.10784056187921, 340.8333333333333 8.32133577102352, 342.5 8.32133577102352 C 344.1666666666667 8.32133577102352, 345.8333333333333 91.67866422897649, 347.5 91.67866422897649 C 349.1666666666667 91.67866422897649, 350.8333333333333 7.073097812324278, 352.5 7.073097812324278 C 354.1666666666667 7.073097812324278, 355.8333333333333 92.92690218767572, 357.5 92.92690218767572 C 359.1666666666667 92.92690218767572, 360.8333333333333 6.098775586116865, 362.5 6.098775586116865 C 364.1666666666667 6.098775586116865, 365.8333333333333 93.90122441388314, 367.5 93.90122441388314 C 369.1666666666667 93.90122441388314, 370.8333333333333 6.775029493632509, 372.5 6.775029493632509 C 374.1666666666667 6.775029493632509, 375.8333333333333 93.2249705063675, 377.5 93.2249705063675 C 379.1666666666667 93.2249705063675, 380.8333333333333 4.851325744672238, 382.5 4.851325744672238 C 384.1666666666667 4.851325744672238, 385.8333333333333 95.14867425532776, 387.5 95.14867425532776 C 389.1666666666667 95.14867425532776, 390.8333333333333 1.8789610925880282, 392.5 1.8789610925880282 C 394.1666666666667 1.8789610925880282, 395.8333333333333 98.12103890741197, 397.5 98.12103890741197 C 399.1666666666667 98.12103890741197, 400.8333333333333 2.6735184898420883, 402.5 2.6735184898420883 C 404.1666666666667 2.6735184898420883, 405.8333333333333 97.32648151015792, 407.5 97.32648151015792 C 409.1666666666667 97.32648151015792, 410.8333333333333 5.90955315777137, 412.5 5.90955315777137 C 414.1666666666667 5.90955315777137, 415.8333333333333 94.09044684222863, 417.5 94.09044684222863 C 419.1666666666667 94.09044684222863, 420.8333333333333 33.19101720447101, 422.5 33.19101720447101 C 424.1666666666667 33.19101720447101, 425.8333333333333 66.80898279552899, 427.5 66.80898279552899 C 429.1666666666667 66.80898279552899, 430.8333333333333 20.098263300800124, 432.5 20.098263300800124 C 434.1666666666667 20.098263300800124, 435.8333333333333 79.90173669919987, 437.5 79.90173669919987 C 439.1666666666667 79.90173669919987, 440.8333333333333 27.632296796018135, 442.5 27.632296796018135 C 444.1666666666667 27.632296796018135, 445.8333333333333 72.36770320398186, 447.5 72.36770320398186 C 449.1666666666667 72.36770320398186, 450.8333333333333 27.278440990936716, 452.5 27.278440990936716 C 454.1666666666667 27.278440990936716, 455.8333333333333 72.72155900906328, 457.5 72.72155900906328 C 459.1666666666667 72.72155900906328, 460.8333333333333 28.497488644652524, 462.5 28.497488644652524 C 464.1666666666667 28.497488644652524, 465.8333333333333 71.50251135534748, 467.5 71.50251135534748 C 469.1666666666667 71.50251135534748, 470.8333333333333 29.434657080884758, 472.5 29.434657080884758 C 474.1666666666667 29.434657080884758, 475.8333333333333 70.56534291911524, 477.5 70.56534291911524 C 479.1666666666667 70.56534291911524, 480.8333333333333 38.478897792590764, 482.5 38.478897792590764 C 484.1666666666667 38.478897792590764, 485.8333333333333 61.521102207409236, 487.5 61.521102207409236 C 489.1666666666667 61.521102207409236, 490.8333333333333 39.052995476339014, 492.5 39.052995476339014 C 494.1666666666667 39.052995476339014, 495.8333333333333 60.947004523660986, 497.5 60.947004523660986 C 499.1666666666667 60.947004523660986, 500.8333333333333 42.889996725604625, 502.5 42.889996725604625 C 504.1666666666667 42.889996725604625, 505.8333333333333 57.110003274395375, 507.5 57.110003274395375 C 509.1666666666667 57.110003274395375, 510.8333333333333 34.07192645428493, 512.5 34.07192645428493 C 514.1666666666666 34.07192645428493, 515.8333333333334 65.92807354571508, 517.5 65.92807354571508 C 519.1666666666666 65.92807354571508, 520.8333333333334 19.222964403127673, 522.5 19.222964403127673 C 524.1666666666666 19.222964403127673, 525.8333333333334 80.77703559687232, 527.5 80.77703559687232 C 529.1666666666666 80.77703559687232, 530.8333333333334 26.648256520463992, 532.5 26.648256520463992 C 534.1666666666666 26.648256520463992, 535.8333333333334 73.35174347953601, 537.5 73.35174347953601 C 539.1666666666666 73.35174347953601, 540.8333333333334 26.847374600064875, 542.5 26.847374600064875 C 544.1666666666666 26.847374600064875, 545.8333333333334 73.15262539993512, 547.5 73.15262539993512 C 549.1666666666666 73.15262539993512, 550.8333333333334 14.642055895749998, 552.5 14.642055895749998 C 554.1666666666666 14.642055895749998, 555.8333333333334 85.35794410425001, 557.5 85.35794410425001 C 559.1666666666666 85.35794410425001, 560.8333333333334 7.629135875158333, 562.5 7.629135875158333 C 564.1666666666666 7.629135875158333, 565.8333333333334 92.37086412484166, 567.5 92.37086412484166 C 569.1666666666666 92.37086412484166, 570.8333333333334 22.944493622976903, 572.5 22.944493622976903 C 574.1666666666666 22.944493622976903, 575.8333333333334 77.0555063770231, 577.5 77.0555063770231 C 579.1666666666666 77.0555063770231, 580.8333333333334 50, 582.5 50 C 584.1666666666666 50, 585.8333333333334 50, 587.5 50 C 589.1666666666666 50, 590.8333333333334 27.20882233226128, 592.5 27.20882233226128 C 594.1666666666666 27.20882233226128, 595.8333333333334 72.79117766773872, 597.5 72.79117766773872 C 599.1666666666666 72.79117766773872, 600.8333333333334 1.4715784211498644, 602.5 1.4715784211498644 C 604.1666666666666 1.4715784211498644, 605.8333333333334 98.52842157885013, 607.5 98.52842157885013 C 609.1666666666666 98.52842157885013, 610.8333333333334 4.032591943050193, 612.5 4.032591943050193 C 614.1666666666666 4.032591943050193, 615.8333333333334 95.96740805694981, 617.5 95.96740805694981 C 619.1666666666666 95.96740805694981, 620.8333333333334 2.891716782646917, 622.5 2.891716782646917 C 624.1666666666666 2.891716782646917, 625.8333333333334 97.10828321735309, 627.5 97.10828321735309 C 629.1666666666666 97.10828321735309, 630.8333333333334 3.666770670305638, 632.5 3.666770670305638 C 634.1666666666666 3.666770670305638, 635.8333333333334 96.33322932969436, 637.5 96.33322932969436 C 639.1666666666666 96.33322932969436, 640.8333333333334 5.706753003328927, 642.5 5.706753003328927 C 644.1666666666666 5.706753003328927, 645.8333333333334 94.29324699667107, 647.5 94.29324699667107 C 649.1666666666666 94.29324699667107, 650.8333333333334 6.334384097120683, 652.5 6.334384097120683 C 654.1666666666666 6.334384097120683, 655.8333333333334 93.66561590287932, 657.5 93.66561590287932 C 659.1666666666666 93.66561590287932, 660.8333333333334 3.977046971232909, 662.5 3.977046971232909 C 664.1666666666666 3.977046971232909, 665.8333333333334 96.02295302876709, 667.5 96.02295302876709 C 669.1666666666666 96.02295302876709, 670.8333333333334 6.062472582045444, 672.5 6.062472582045444 C 674.1666666666666 6.062472582045444, 675.8333333333334 93.93752741795456, 677.5 93.93752741795456 C 679.1666666666666 93.93752741795456, 680.8333333333334 4.087141232962644, 682.5 4.087141232962644 C 684.1666666666666 4.087141232962644, 685.8333333333334 95.91285876703736, 687.5 95.91285876703736 C 689.1666666666666 95.91285876703736, 690.8333333333334 6.189964082101227, 692.5 6.189964082101227 C 694.1666666666666 6.189964082101227, 695.8333333333334 93.81003591789877, 697.5 93.81003591789877 C 699.1666666666666 93.81003591789877, 700.8333333333334 6.734276397687495, 702.5 6.734276397687495 C 704.1666666666666 6.734276397687495, 705.8333333333334 93.2657236023125, 707.5 93.2657236023125 C 709.1666666666666 93.2657236023125, 710.8333333333334 5.656636855395554, 712.5 5.656636855395554 C 714.1666666666666 5.656636855395554, 715.8333333333334 94.34336314460444, 717.5 94.34336314460444 C 719.1666666666666 94.34336314460444, 720.8333333333334 2.6992271498550977, 722.5 2.6992271498550977 C 724.1666666666666 2.6992271498550977, 725.8333333333334 97.30077285014491, 727.5 97.30077285014491 C 729.1666666666666 97.30077285014491, 730.8333333333334 2.810700102264555, 732.5 2.810700102264555 C 734.1666666666666 2.810700102264555, 735.8333333333334 97.18929989773545, 737.5 97.18929989773545 C 739.1666666666666 97.18929989773545, 740.8333333333334 6.707908287355188, 742.5 6.707908287355188 C 744.1666666666666 6.707908287355188, 745.8333333333334 93.2920917126448, 747.5 93.2920917126448 C 749.1666666666666 93.2920917126448, 750.8333333333334 5.451683772525698, 752.5 5.451683772525698 C 754.1666666666666 5.451683772525698, 755.8333333333334 94.5483162274743, 757.5 94.5483162274743 C 759.1666666666666 94.5483162274743, 760.8333333333334 22.90112293876429, 762.5 22.90112293876429 C 764.1666666666666 22.90112293876429, 765.8333333333334 77.09887706123571, 767.5 77.09887706123571 C 769.1666666666666 77.09887706123571, 770.8333333333334 2.7993273571799904, 772.5 2.7993273571799904 C 774.1666666666666 2.7993273571799904, 775.8333333333334 97.20067264282001, 777.5 97.20067264282001 C 779.1666666666666 97.20067264282001, 780.8333333333334 2.499023939323429, 782.5 2.499023939323429 C 784.1666666666666 2.499023939323429, 785.8333333333334 97.50097606067658, 787.5 97.50097606067658 C 789.1666666666666 97.50097606067658, 790.8333333333334 4.642908881504546, 792.5 4.642908881504546 C 794.1666666666666 4.642908881504546, 795.8333333333334 95.35709111849545, 797.5 95.35709111849545 C 799.1666666666666 95.35709111849545, 800.8333333333334 3.8880101702189265, 802.5 3.8880101702189265 C 804.1666666666666 3.8880101702189265, 805.8333333333334 96.11198982978107, 807.5 96.11198982978107 C 809.1666666666666 96.11198982978107, 810.8333333333334 4.223686370763566, 812.5 4.223686370763566 C 814.1666666666666 4.223686370763566, 815.8333333333334 95.77631362923643, 817.5 95.77631362923643 C 819.1666666666666 95.77631362923643, 820.8333333333334 3.9879823509666537, 822.5 3.9879823509666537 C 824.1666666666666 3.9879823509666537, 825.8333333333334 96.01201764903334, 827.5 96.01201764903334 C 829.1666666666666 96.01201764903334, 830.8333333333334 1.651881444232103, 832.5 1.651881444232103 C 834.1666666666666 1.651881444232103, 835.8333333333334 98.3481185557679, 837.5 98.3481185557679 C 839.1666666666666 98.3481185557679, 840.8333333333334 23.13941158327357, 842.5 23.13941158327357 C 844.1666666666666 23.13941158327357, 845.8333333333334 76.86058841672643, 847.5 76.86058841672643 C 849.1666666666666 76.86058841672643, 850.8333333333334 16.045201201284293, 852.5 16.045201201284293 C 854.1666666666666 16.045201201284293, 855.8333333333334 83.9547987987157, 857.5 83.9547987987157 C 859.1666666666666 83.9547987987157, 860.8333333333334 26.06552833529657, 862.5 26.06552833529657 C 864.1666666666666 26.06552833529657, 865.8333333333334 73.93447166470344, 867.5 73.93447166470344 C 869.1666666666666 73.93447166470344, 870.8333333333334 20.55633930720124, 872.5 20.55633930720124 C 874.1666666666666 20.55633930720124, 875.8333333333334 79.44366069279876, 877.5 79.44366069279876 C 879.1666666666666 79.44366069279876, 880.8333333333334 24.599380159510474, 882.5 24.599380159510474 C 884.1666666666666 24.599380159510474, 885.8333333333334 75.40061984048953, 887.5 75.40061984048953 C 889.1666666666666 75.40061984048953, 890.8333333333334 25.52849700794123, 892.5 25.52849700794123 C 894.1666666666666 25.52849700794123, 895.8333333333334 74.47150299205877, 897.5 74.47150299205877 C 899.1666666666666 74.47150299205877, 900.8333333333334 24.573827027083397, 902.5 24.573827027083397 C 904.1666666666666 24.573827027083397, 905.8333333333334 75.4261729729166, 907.5 75.4261729729166 C 909.1666666666666 75.4261729729166, 910.8333333333334 25.555368262425617, 912.5 25.555368262425617 C 914.1666666666666 25.555368262425617, 915.8333333333334 74.44463173757438, 917.5 74.44463173757438 C 919.1666666666666 74.44463173757438, 920.8333333333334 32.179343284248745, 922.5 32.179343284248745 C 924.1666666666666 32.179343284248745, 925.8333333333334 67.82065671575126, 927.5 67.82065671575126 C 929.1666666666666 67.82065671575126, 930.8333333333334 33.59586151156316, 932.5 33.59586151156316 C 934.1666666666666 33.59586151156316, 935.8333333333334 66.40413848843684, 937.5 66.40413848843684 C 939.1666666666666 66.40413848843684, 940.8333333333334 31.88709385919183, 942.5 31.88709385919183 C 944.1666666666666 31.88709385919183, 945.8333333333334 68.11290614080818, 947.5 68.11290614080818 C 949.1666666666666 68.11290614080818, 950.8333333333334 32.94775654978287, 952.5 32.94775654978287 C 954.1666666666666 32.94775654978287, 955.8333333333334 67.05224345021713, 957.5 67.05224345021713 C 959.1666666666666 67.05224345021713, 960.8333333333334 22.208398876787854, 962.5 22.208398876787854 C 964.1666666666666 22.208398876787854, 965.8333333333334 77.79160112321215, 967.5 77.79160112321215 C 969.1666666666666 77.79160112321215, 970.8333333333334 29.310299739119937, 972.5 29.310299739119937 C 974.1666666666666 29.310299739119937, 975.8333333333334 70.68970026088006, 977.5 70.68970026088006 C 979.1666666666666 70.68970026088006, 980.8333333333334 37.43670437203948, 982.5 37.43670437203948 C 984.1666666666666 37.43670437203948, 985.8333333333334 62.56329562796052, 987.5 62.56329562796052 C 989.1666666666666 62.56329562796052, 990.8333333333334 49.290978824539465, 992.5 49.290978824539465 C 994.1666666666666 49.290978824539465, 995.8333333333334 50.709021175460535, 997.5 50.709021175460535 C 999.1666666666666 50.709021175460535, 1000.8333333333334 50, 1002.5 50 C 1004.1666666666666 50, 1005.8333333333334 50, 1007.5 50 C 1008.4166666666666 50, 1009.3333333333334 50, 1010.25 50 " stroke="white" stroke-width="5" fill="transparent" />
  </g>
</svg>