<svg 
  baseProfile="tiny"
  preserveAspectRatio="keep"
  version="1.2"
  viewBox="-5.000000 -5.000000 1015.000000 105.000000"
  height="100%" width="100%"
  xmlns="http://www.w3.org/2000/svg"
  xmlns:ev="http://www.w3.org/2001/xml-events"
  xmlns:xlink="http://www.w3.org/1999/xlink"
>
  <g style="transform-origin: center center;">
    <path d="M -0.250000 50.000000 C 4 50, 8.25 50, 12.5 50 C 14.166666666666666 50, 15.833333333333334 50, 17.5 50 C 19.166666666666668 50, 20.833333333333332 49.32272433348339, 22.5 49.32272433348339 C 24.166666666666668 49.32272433348339, 25.833333333333332 50.67727566651661, 27.5 50.67727566651661 C 29.166666666666668 50.67727566651661, 30.833333333333332 39.93427171642003, 32.5 39.93427171642003 C 34.166666666666664 39.93427171642003, 35.833333333333336 60.06572828357997, 37.5 60.06572828357997 C 39.166666666666664 60.06572828357997, 40.833333333333336 32.88224031324452, 42.5 32.88224031324452 C 44.166666666666664 32.88224031324452, 45.833333333333336 67.11775968675548, 47.5 67.11775968675548 C 49.166666666666664 67.11775968675548, 50.833333333333336 35.66517024550865, 52.5 35.66517024550865 C 54.166666666666664 35.66517024550865, 55.833333333333336 64.33482975449135, 57.5 64.33482975449135 C 59.166666666666664 64.33482975449135, 60.833333333333336 37.07297000816733, 62.5 37.07297000816733 C 64.16666666666667 37.07297000816733, 65.83333333333333 62.92702999183267, 67.5 62.92702999183267 C 69.16666666666667 62.92702999183267, 70.83333333333333 29.44379863647609, 72.5 29.44379863647609 C 74.16666666666667 29.44379863647609, 75.83333333333333 70.55620136352391, 77.5 70.55620136352391 C 79.16666666666667 70.55620136352391, 80.83333333333333 36.04674539388903, 82.5 36.04674539388903 C 84.16666666666667 36.04674539388903, 85.83333333333333 63.95325460611097, 87.5 63.95325460611097 C 89.16666666666667 63.95325460611097, 90.83333333333333 2.5027502065003446, 92.5 2.5027502065003446 C 94.16666666666667 2.5027502065003446, 95.83333333333333 97.49724979349966, 97.5 97.49724979349966 C 99.16666666666667 97.49724979349966, 100.83333333333333 27.122745720587574, 102.5 27.122745720587574 C 104.16666666666667 27.122745720587574, 105.83333333333333 72.87725427941243, 107.5 72.87725427941243 C 109.16666666666667 72.87725427941243, 110.83333333333333 31.367466577261546, 112.5 31.367466577261546 C 114.16666666666667 31.367466577261546, 115.83333333333333 68.63253342273845, 117.5 68.63253342273845 C 119.16666666666667 68.63253342273845, 120.83333333333333 36.45139570204356, 122.5 36.45139570204356 C 124.16666666666667 36.45139570204356, 125.83333333333333 63.54860429795644, 127.5 63.54860429795644 C 129.16666666666666 63.54860429795644, 130.83333333333334 38.812408061167396, 132.5 38.812408061167396 C 134.16666666666666 38.812408061167396, 135.83333333333334 61.187591938832604, 137.5 61.187591938832604 C 139.16666666666666 61.187591938832604, 140.83333333333334 26.346865164973106, 142.5 26.346865164973106 C 144.16666666666666 26.346865164973106, 145.83333333333334 73.65313483502689, 147.5 73.65313483502689 C 149.16666666666666 73.65313483502689, 150.83333333333334 26.973922971833325, 152.5 26.973922971833325 C 154.16666666666666 26.973922971833325, 155.83333333333334 73.02607702816667, 157.5 73.02607702816667 C 159.16666666666666 73.02607702816667, 160.83333333333334 23.72981480652088, 162.5 23.72981480652088 C 164.16666666666666 23.72981480652088, 165.83333333333334 76.27018519347912, 167.5 76.27018519347912 C 169.16666666666666 76.27018519347912, 170.83333333333334 14.23464952989363, 172.5 14.23464952989363 C 174.16666666666666 14.23464952989363, 175.83333333333334 85.76535047010637, 177.5 85.76535047010637 C 179.16666666666666 85.76535047010637, 180.83333333333334 30.758176664015387, 182.5 30.758176664015387 C 184.16666666666666 30.758176664015387, 185.83333333333334 69.2418233359846, 187.5 69.2418233359846 C 189.16666666666666 69.2418233359846, 190.83333333333334 29.18519250456696, 192.5 29.18519250456696 C 194.16666666666666 29.18519250456696, 195.83333333333334 70.81480749543304, 197.5 70.81480749543304 C 199.16666666666666 70.81480749543304, 200.83333333333334 32.763626601931, 202.5 32.763626601931 C 204.16666666666666 32.763626601931, 205.83333333333334 67.23637339806899, 207.5 67.23637339806899 C 209.16666666666666 67.23637339806899, 210.83333333333334 22.99121805415401, 212.5 22.99121805415401 C 214.16666666666666 22.99121805415401, 215.83333333333334 77.00878194584598, 217.5 77.00878194584598 C 219.16666666666666 77.00878194584598, 220.83333333333334 27.45054077276889, 222.5 27.45054077276889 C 224.16666666666666 27.45054077276889, 225.83333333333334 72.54945922723111, 227.5 72.54945922723111 C 229.16666666666666 72.54945922723111, 230.83333333333334 15.788308375763492, 232.5 15.788308375763492 C 234.16666666666666 15.788308375763492, 235.83333333333334 84.21169162423651, 237.5 84.21169162423651 C 239.16666666666666 84.21169162423651, 240.83333333333334 27.529138622822632, 242.5 27.529138622822632 C 244.16666666666666 27.529138622822632, 245.83333333333334 72.47086137717737, 247.5 72.47086137717737 C 249.16666666666666 72.47086137717737, 250.83333333333334 28.652461336738508, 252.5 28.652461336738508 C 254.16666666666666 28.652461336738508, 255.83333333333334 71.34753866326149, 257.5 71.34753866326149 C 259.1666666666667 71.34753866326149, 260.8333333333333 35.225092317957426, 262.5 35.225092317957426 C 264.1666666666667 35.225092317957426, 265.8333333333333 64.77490768204258, 267.5 64.77490768204258 C 269.1666666666667 64.77490768204258, 270.8333333333333 24.09164102951329, 272.5 24.09164102951329 C 274.1666666666667 24.09164102951329, 275.8333333333333 75.90835897048672, 277.5 75.90835897048672 C 279.1666666666667 75.90835897048672, 280.8333333333333 8.624462366336232, 282.5 8.624462366336232 C 284.1666666666667 8.624462366336232, 285.8333333333333 91.37553763366377, 287.5 91.37553763366377 C 289.1666666666667 91.37553763366377, 290.8333333333333 15.36833220092361, 292.5 15.36833220092361 C 294.1666666666667 15.36833220092361, 295.8333333333333 84.63166779907638, 297.5 84.63166779907638 C 299.1666666666667 84.63166779907638, 300.8333333333333 23.653392646368104, 302.5 23.653392646368104 C 304.1666666666667 23.653392646368104, 305.8333333333333 76.3466073536319, 307.5 76.3466073536319 C 309.1666666666667 76.3466073536319, 310.8333333333333 14.228032230918267, 312.5 14.228032230918267 C 314.1666666666667 14.228032230918267, 315.8333333333333 85.77196776908173, 317.5 85.77196776908173 C 319.1666666666667 85.77196776908173, 320.8333333333333 22.320438586976, 322.5 22.320438586976 C 324.1666666666667 22.320438586976, 325.8333333333333 77.679561413024, 327.5 77.679561413024 C 329.1666666666667 77.679561413024, 330.8333333333333 21.32361671014801, 332.5 21.32361671014801 C 334.1666666666667 21.32361671014801, 335.8333333333333 78.676383289852, 337.5 78.676383289852 C 339.1666666666667 78.676383289852, 340.8333333333333 8.040042927855453, 342.5 8.040042927855453 C 344.1666666666667 8.040042927855453, 345.8333333333333 91.95995707214455, 347.5 91.95995707214455 C 349.1666666666667 91.95995707214455, 350.8333333333333 9.86366404220994, 352.5 9.86366404220994 C 354.1666666666667 9.86366404220994, 355.8333333333333 90.13633595779007, 357.5 90.13633595779007 C 359.1666666666667 90.13633595779007, 360.8333333333333 17.05055989734238, 362.5 17.05055989734238 C 364.1666666666667 17.05055989734238, 365.8333333333333 82.94944010265762, 367.5 82.94944010265762 C 369.1666666666667 82.94944010265762, 370.8333333333333 16.02891797171739, 372.5 16.02891797171739 C 374.1666666666667 16.02891797171739, 375.8333333333333 83.97108202828261, 377.5 83.97108202828261 C 379.1666666666667 83.97108202828261, 380.8333333333333 19.907230530552983, 382.5 19.907230530552983 C 384.1666666666667 19.907230530552983, 385.8333333333333 80.09276946944702, 387.5 80.09276946944702 C 389.1666666666667 80.09276946944702, 390.8333333333333 27.165728065825796, 392.5 27.165728065825796 C 394.1666666666667 27.165728065825796, 395.8333333333333 72.83427193417421, 397.5 72.83427193417421 C 399.1666666666667 72.83427193417421, 400.8333333333333 24.667334642896567, 402.5 24.667334642896567 C 404.1666666666667 24.667334642896567, 405.8333333333333 75.33266535710344, 407.5 75.33266535710344 C 409.1666666666667 75.33266535710344, 410.8333333333333 15.336847110641429, 412.5 15.336847110641429 C 414.1666666666667 15.336847110641429, 415.8333333333333 84.66315288935857, 417.5 84.66315288935857 C 419.1666666666667 84.66315288935857, 420.8333333333333 20.0187853325404, 422.5 20.0187853325404 C 424.1666666666667 20.0187853325404, 425.8333333333333 79.9812146674596, 427.5 79.9812146674596 C 429.1666666666667 79.9812146674596, 430.8333333333333 20.281697629922906, 432.5 20.281697629922906 C 434.1666666666667 20.281697629922906, 435.8333333333333 79.7183023700771, 437.5 79.7183023700771 C 439.1666666666667 79.7183023700771, 440.8333333333333 6.844240548622416, 442.5 6.844240548622416 C 444.1666666666667 6.844240548622416, 445.8333333333333 93.15575945137758, 447.5 93.15575945137758 C 449.1666666666667 93.15575945137758, 450.8333333333333 17.325329674536164, 452.5 17.325329674536164 C 454.1666666666667 17.325329674536164, 455.8333333333333 82.67467032546384, 457.5 82.67467032546384 C 459.1666666666667 82.67467032546384, 460.8333333333333 14.66742863027644, 462.5 14.66742863027644 C 464.1666666666667 14.66742863027644, 465.8333333333333 85.33257136972355, 467.5 85.33257136972355 C 469.1666666666667 85.33257136972355, 470.8333333333333 17.679466981601443, 472.5 17.679466981601443 C 474.1666666666667 17.679466981601443, 475.8333333333333 82.32053301839855, 477.5 82.32053301839855 C 479.1666666666667 82.32053301839855, 480.8333333333333 8.770253903016936, 482.5 8.770253903016936 C 484.1666666666667 8.770253903016936, 485.8333333333333 91.22974609698306, 487.5 91.22974609698306 C 489.1666666666667 91.22974609698306, 490.8333333333333 20.49750136125839, 492.5 20.49750136125839 C 494.1666666666667 20.49750136125839, 495.8333333333333 79.50249863874161, 497.5 79.50249863874161 C 499.1666666666667 79.50249863874161, 500.8333333333333 18.78724701462809, 502.5 18.78724701462809 C 504.1666666666667 18.78724701462809, 505.8333333333333 81.2127529853719, 507.5 81.2127529853719 C 509.1666666666667 81.2127529853719, 510.8333333333333 10.809732252842586, 512.5 10.809732252842586 C 514.1666666666666 10.809732252842586, 515.8333333333334 89.1902677471574, 517.5 89.1902677471574 C 519.1666666666666 89.1902677471574, 520.8333333333334 20.918033406110116, 522.5 20.918033406110116 C 524.1666666666666 20.918033406110116, 525.8333333333334 79.08196659388989, 527.5 79.08196659388989 C 529.1666666666666 79.08196659388989, 530.8333333333334 17.39250697670297, 532.5 17.39250697670297 C 534.1666666666666 17.39250697670297, 535.8333333333334 82.60749302329702, 537.5 82.60749302329702 C 539.1666666666666 82.60749302329702, 540.8333333333334 9.956663550946459, 542.5 9.956663550946459 C 544.1666666666666 9.956663550946459, 545.8333333333334 90.04333644905354, 547.5 90.04333644905354 C 549.1666666666666 90.04333644905354, 550.8333333333334 13.650944087454619, 552.5 13.650944087454619 C 554.1666666666666 13.650944087454619, 555.8333333333334 86.34905591254538, 557.5 86.34905591254538 C 559.1666666666666 86.34905591254538, 560.8333333333334 20.59391446394429, 562.5 20.59391446394429 C 564.1666666666666 20.59391446394429, 565.8333333333334 79.40608553605571, 567.5 79.40608553605571 C 569.1666666666666 79.40608553605571, 570.8333333333334 13.741875373134846, 572.5 13.741875373134846 C 574.1666666666666 13.741875373134846, 575.8333333333334 86.25812462686515, 577.5 86.25812462686515 C 579.1666666666666 86.25812462686515, 580.8333333333334 17.94916014070848, 582.5 17.94916014070848 C 584.1666666666666 17.94916014070848, 585.8333333333334 82.05083985929153, 587.5 82.05083985929153 C 589.1666666666666 82.05083985929153, 590.8333333333334 22.358632527735693, 592.5 22.358632527735693 C 594.1666666666666 22.358632527735693, 595.8333333333334 77.6413674722643, 597.5 77.6413674722643 C 599.1666666666666 77.6413674722643, 600.8333333333334 23.942532888743255, 602.5 23.942532888743255 C 604.1666666666666 23.942532888743255, 605.8333333333334 76.05746711125674, 607.5 76.05746711125674 C 609.1666666666666 76.05746711125674, 610.8333333333334 1.8566008315973903, 612.5 1.8566008315973903 C 614.1666666666666 1.8566008315973903, 615.8333333333334 98.14339916840261, 617.5 98.14339916840261 C 619.1666666666666 98.14339916840261, 620.8333333333334 14.587363452465837, 622.5 14.587363452465837 C 624.1666666666666 14.587363452465837, 625.8333333333334 85.41263654753416, 627.5 85.41263654753416 C 629.1666666666666 85.41263654753416, 630.8333333333334 15.532573733094893, 632.5 15.532573733094893 C 634.1666666666666 15.532573733094893, 635.8333333333334 84.46742626690511, 637.5 84.46742626690511 C 639.1666666666666 84.46742626690511, 640.8333333333334 8.438113432287402, 642.5 8.438113432287402 C 644.1666666666666 8.438113432287402, 645.8333333333334 91.5618865677126, 647.5 91.5618865677126 C 649.1666666666666 91.5618865677126, 650.8333333333334 22.94250190332586, 652.5 22.94250190332586 C 654.1666666666666 22.94250190332586, 655.8333333333334 77.05749809667414, 657.5 77.05749809667414 C 659.1666666666666 77.05749809667414, 660.8333333333334 26.187826784980693, 662.5 26.187826784980693 C 664.1666666666666 26.187826784980693, 665.8333333333334 73.8121732150193, 667.5 73.8121732150193 C 669.1666666666666 73.8121732150193, 670.8333333333334 18.539080051599072, 672.5 18.539080051599072 C 674.1666666666666 18.539080051599072, 675.8333333333334 81.46091994840093, 677.5 81.46091994840093 C 679.1666666666666 81.46091994840093, 680.8333333333334 14.402329646844805, 682.5 14.402329646844805 C 684.1666666666666 14.402329646844805, 685.8333333333334 85.5976703531552, 687.5 85.5976703531552 C 689.1666666666666 85.5976703531552, 690.8333333333334 12.58152949668338, 692.5 12.58152949668338 C 694.1666666666666 12.58152949668338, 695.8333333333334 87.41847050331663, 697.5 87.41847050331663 C 699.1666666666666 87.41847050331663, 700.8333333333334 13.580453695766423, 702.5 13.580453695766423 C 704.1666666666666 13.580453695766423, 705.8333333333334 86.41954630423358, 707.5 86.41954630423358 C 709.1666666666666 86.41954630423358, 710.8333333333334 5.596777816570672, 712.5 5.596777816570672 C 714.1666666666666 5.596777816570672, 715.8333333333334 94.40322218342934, 717.5 94.40322218342934 C 719.1666666666666 94.40322218342934, 720.8333333333334 13.749926132680464, 722.5 13.749926132680464 C 724.1666666666666 13.749926132680464, 725.8333333333334 86.25007386731954, 727.5 86.25007386731954 C 729.1666666666666 86.25007386731954, 730.8333333333334 16.75082959018959, 732.5 16.75082959018959 C 734.1666666666666 16.75082959018959, 735.8333333333334 83.2491704098104, 737.5 83.2491704098104 C 739.1666666666666 83.2491704098104, 740.8333333333334 0, 742.5 0 C 744.1666666666666 0, 745.8333333333334 100, 747.5 100 C 749.1666666666666 100, 750.8333333333334 16.054102366571662, 752.5 16.054102366571662 C 754.1666666666666 16.054102366571662, 755.8333333333334 83.94589763342833, 757.5 83.94589763342833 C 759.1666666666666 83.94589763342833, 760.8333333333334 21.87708999706678, 762.5 21.87708999706678 C 764.1666666666666 21.87708999706678, 765.8333333333334 78.12291000293322, 767.5 78.12291000293322 C 769.1666666666666 78.12291000293322, 770.8333333333334 14.249895994790577, 772.5 14.249895994790577 C 774.1666666666666 14.249895994790577, 775.8333333333334 85.75010400520942, 777.5 85.75010400520942 C 779.1666666666666 85.75010400520942, 780.8333333333334 15.611844727805739, 782.5 15.611844727805739 C 784.1666666666666 15.611844727805739, 785.8333333333334 84.38815527219427, 787.5 84.38815527219427 C 789.1666666666666 84.38815527219427, 790.8333333333334 18.512960043180932, 792.5 18.512960043180932 C 794.1666666666666 18.512960043180932, 795.8333333333334 81.48703995681907, 797.5 81.48703995681907 C 799.1666666666666 81.48703995681907, 800.8333333333334 18.17087790695423, 802.5 18.17087790695423 C 804.1666666666666 18.17087790695423, 805.8333333333334 81.82912209304577, 807.5 81.82912209304577 C 809.1666666666666 81.82912209304577, 810.8333333333334 15.6566587734467, 812.5 15.6566587734467 C 814.1666666666666 15.6566587734467, 815.8333333333334 84.34334122655329, 817.5 84.34334122655329 C 819.1666666666666 84.34334122655329, 820.8333333333334 27.500817980717272, 822.5 27.500817980717272 C 824.1666666666666 27.500817980717272, 825.8333333333334 72.49918201928273, 827.5 72.49918201928273 C 829.1666666666666 72.49918201928273, 830.8333333333334 23.7418077627851, 832.5 23.7418077627851 C 834.1666666666666 23.7418077627851, 835.8333333333334 76.2581922372149, 837.5 76.2581922372149 C 839.1666666666666 76.2581922372149, 840.8333333333334 23.630683596009387, 842.5 23.630683596009387 C 844.1666666666666 23.630683596009387, 845.8333333333334 76.36931640399061, 847.5 76.36931640399061 C 849.1666666666666 76.36931640399061, 850.8333333333334 20.874235195898954, 852.5 20.874235195898954 C 854.1666666666666 20.874235195898954, 855.8333333333334 79.12576480410104, 857.5 79.12576480410104 C 859.1666666666666 79.12576480410104, 860.8333333333334 25.231049295483704, 862.5 25.231049295483704 C 864.1666666666666 25.231049295483704, 865.8333333333334 74.7689507045163, 867.5 74.7689507045163 C 869.1666666666666 74.7689507045163, 870.8333333333334 20.796343322446365, 872.5 20.796343322446365 C 874.1666666666666 20.796343322446365, 875.8333333333334 79.20365667755364, 877.5 79.20365667755364 C 879.1666666666666 79.20365667755364, 880.8333333333334 22.656088707787138, 882.5 22.656088707787138 C 884.1666666666666 22.656088707787138, 885.8333333333334 77.34391129221287, 887.5 77.34391129221287 C 889.1666666666666 77.34391129221287, 890.8333333333334 22.50777927115758, 892.5 22.50777927115758 C 894.1666666666666 22.50777927115758, 895.8333333333334 77.49222072884243, 897.5 77.49222072884243 C 899.1666666666666 77.49222072884243, 900.8333333333334 43.03564354272443, 902.5 43.03564354272443 C 904.1666666666666 43.03564354272443, 905.8333333333334 56.96435645727557, 907.5 56.96435645727557 C 909.1666666666666 56.96435645727557, 910.8333333333334 48.95214031744477, 912.5 48.95214031744477 C 914.1666666666666 48.95214031744477, 915.8333333333334 51.04785968255523, 917.5 51.04785968255523 C 919.1666666666666 51.04785968255523, 920.8333333333334 50, 922.5 50 C 924.1666666666666 50, 925.8333333333334 50, 927.5 50 C 929.1666666666666 50, 930.8333333333334 46.22722926949245, 932.5 46.22722926949245 C 934.1666666666666 46.22722926949245, 935.8333333333334 53.77277073050755, 937.5 53.77277073050755 C 939.1666666666666 53.77277073050755, 940.8333333333334 34.5886114312581, 942.5 34.5886114312581 C 944.1666666666666 34.5886114312581, 945.8333333333334 65.4113885687419, 947.5 65.4113885687419 C 949.1666666666666 65.4113885687419, 950.8333333333334 45.8874325917568, 952.5 45.8874325917568 C 954.1666666666666 45.8874325917568, 955.8333333333334 54.1125674082432, 957.5 54.1125674082432 C 959.1666666666666 54.1125674082432, 960.8333333333334 48.825972197983766, 962.5 48.825972197983766 C 964.1666666666666 48.825972197983766, 965.8333333333334 51.174027802016234, 967.5 51.174027802016234 C 969.1666666666666 51.174027802016234, 970.8333333333334 47.424497650463834, 972.5 47.424497650463834 C 974.1666666666666 47.424497650463834, 975.8333333333334 52.575502349536166, 977.5 52.575502349536166 C 979.1666666666666 52.575502349536166, 980.8333333333334 46.3224753741073, 982.5 46.3224753741073 C 984.1666666666666 46.3224753741073, 985.8333333333334 53.6775246258927, 987.5 53.6775246258927 C 989.1666666666666 53.6775246258927, 990.8333333333334 49.86273136049263, 992.5 49.86273136049263 C 994.1666666666666 49.86273136049263, 995.8333333333334 50.13726863950737, 997.5 50.13726863950737 C 999.1666666666666 50.13726863950737, 1000.8333333333334 50, 1002.5 50 C 1004.1666666666666 50, 1005.8333333333334 50, 1007.5 50 C 1008.4166666666666 50, 1009.3333333333334 50, 1010.25 50 " stroke="white" stroke-width="5" fill="transparent" />
  </g>
</svg>