<svg 
  baseProfile="tiny"
  preserveAspectRatio="keep"
  version="1.2"
  viewBox="-5.000000 -5.000000 1015.000000 105.000000"
  height="100%" width="100%"
  xmlns="http://www.w3.org/2000/svg"
  xmlns:ev="http://www.w3.org/2001/xml-events"
  xmlns:xlink="http://www.w3.org/1999/xlink"
>
  <g style="transform-origin: center center;">
    <path d="M -0.250000 50.000000 C 4 50, 8.25 50, 12.5 50 C 14.166666666666666 50, 15.833333333333334 50, 17.5 50 C 19.166666666666668 50, 20.833333333333332 49.31250816162662, 22.5 49.31250816162662 C 24.166666666666668 49.31250816162662, 25.833333333333332 50.68749183837338, 27.5 50.68749183837338 C 29.166666666666668 50.68749183837338, 30.833333333333332 39.49532294135463, 32.5 39.49532294135463 C 34.166666666666664 39.49532294135463, 35.833333333333336 60.50467705864537, 37.5 60.50467705864537 C 39.166666666666664 60.50467705864537, 40.833333333333336 26.128572421194917, 42.5 26.128572421194917 C 44.166666666666664 26.128572421194917, 45.833333333333336 73.87142757880508, 47.5 73.87142757880508 C 49.166666666666664 73.87142757880508, 50.833333333333336 10.509401018621546, 52.5 10.509401018621546 C 54.166666666666664 10.509401018621546, 55.833333333333336 89.49059898137845, 57.5 89.49059898137845 C 59.166666666666664 89.49059898137845, 60.833333333333336 12.533439544931746, 62.5 12.533439544931746 C 64.16666666666667 12.533439544931746, 65.83333333333333 87.46656045506825, 67.5 87.46656045506825 C 69.16666666666667 87.46656045506825, 70.83333333333333 14.487806177772846, 72.5 14.487806177772846 C 74.16666666666667 14.487806177772846, 75.83333333333333 85.51219382222715, 77.5 85.51219382222715 C 79.16666666666667 85.51219382222715, 80.83333333333333 20.949404478752925, 82.5 20.949404478752925 C 84.16666666666667 20.949404478752925, 85.83333333333333 79.05059552124708, 87.5 79.05059552124708 C 89.16666666666667 79.05059552124708, 90.83333333333333 17.61280319079834, 92.5 17.61280319079834 C 94.16666666666667 17.61280319079834, 95.83333333333333 82.38719680920167, 97.5 82.38719680920167 C 99.16666666666667 82.38719680920167, 100.83333333333333 17.842525685822316, 102.5 17.842525685822316 C 104.16666666666667 17.842525685822316, 105.83333333333333 82.15747431417768, 107.5 82.15747431417768 C 109.16666666666667 82.15747431417768, 110.83333333333333 9.786910204235902, 112.5 9.786910204235902 C 114.16666666666667 9.786910204235902, 115.83333333333333 90.21308979576409, 117.5 90.21308979576409 C 119.16666666666667 90.21308979576409, 120.83333333333333 3.243014682018888, 122.5 3.243014682018888 C 124.16666666666667 3.243014682018888, 125.83333333333333 96.7569853179811, 127.5 96.7569853179811 C 129.16666666666666 96.7569853179811, 130.83333333333334 16.84415465444758, 132.5 16.84415465444758 C 134.16666666666666 16.84415465444758, 135.83333333333334 83.15584534555242, 137.5 83.15584534555242 C 139.16666666666666 83.15584534555242, 140.83333333333334 18.146399266425757, 142.5 18.146399266425757 C 144.16666666666666 18.146399266425757, 145.83333333333334 81.85360073357424, 147.5 81.85360073357424 C 149.16666666666666 81.85360073357424, 150.83333333333334 20.06340656713237, 152.5 20.06340656713237 C 154.16666666666666 20.06340656713237, 155.83333333333334 79.93659343286762, 157.5 79.93659343286762 C 159.16666666666666 79.93659343286762, 160.83333333333334 15.286934047065223, 162.5 15.286934047065223 C 164.16666666666666 15.286934047065223, 165.83333333333334 84.71306595293478, 167.5 84.71306595293478 C 169.16666666666666 84.71306595293478, 170.83333333333334 10.386539277678096, 172.5 10.386539277678096 C 174.16666666666666 10.386539277678096, 175.83333333333334 89.6134607223219, 177.5 89.6134607223219 C 179.16666666666666 89.6134607223219, 180.83333333333334 6.584581719333613, 182.5 6.584581719333613 C 184.16666666666666 6.584581719333613, 185.83333333333334 93.41541828066639, 187.5 93.41541828066639 C 189.16666666666666 93.41541828066639, 190.83333333333334 9.553487476382905, 192.5 9.553487476382905 C 194.16666666666666 9.553487476382905, 195.83333333333334 90.44651252361709, 197.5 90.44651252361709 C 199.16666666666666 90.44651252361709, 200.83333333333334 10.22575736093355, 202.5 10.22575736093355 C 204.16666666666666 10.22575736093355, 205.83333333333334 89.77424263906644, 207.5 89.77424263906644 C 209.16666666666666 89.77424263906644, 210.83333333333334 9.523241509457648, 212.5 9.523241509457648 C 214.16666666666666 9.523241509457648, 215.83333333333334 90.47675849054235, 217.5 90.47675849054235 C 219.16666666666666 90.47675849054235, 220.83333333333334 11.849015438531715, 222.5 11.849015438531715 C 224.16666666666666 11.849015438531715, 225.83333333333334 88.15098456146828, 227.5 88.15098456146828 C 229.16666666666666 88.15098456146828, 230.83333333333334 11.432138023711325, 232.5 11.432138023711325 C 234.16666666666666 11.432138023711325, 235.83333333333334 88.56786197628867, 237.5 88.56786197628867 C 239.16666666666666 88.56786197628867, 240.83333333333334 7.051279026759225, 242.5 7.051279026759225 C 244.16666666666666 7.051279026759225, 245.83333333333334 92.94872097324077, 247.5 92.94872097324077 C 249.16666666666666 92.94872097324077, 250.83333333333334 0.7535746275262625, 252.5 0.7535746275262625 C 254.16666666666666 0.7535746275262625, 255.83333333333334 99.24642537247374, 257.5 99.24642537247374 C 259.1666666666667 99.24642537247374, 260.8333333333333 9.385894809452353, 262.5 9.385894809452353 C 264.1666666666667 9.385894809452353, 265.8333333333333 90.61410519054765, 267.5 90.61410519054765 C 269.1666666666667 90.61410519054765, 270.8333333333333 15.701911894815318, 272.5 15.701911894815318 C 274.1666666666667 15.701911894815318, 275.8333333333333 84.29808810518469, 277.5 84.29808810518469 C 279.1666666666667 84.29808810518469, 280.8333333333333 15.160583625022056, 282.5 15.160583625022056 C 284.1666666666667 15.160583625022056, 285.8333333333333 84.83941637497794, 287.5 84.83941637497794 C 289.1666666666667 84.83941637497794, 290.8333333333333 3.5204487091183267, 292.5 3.5204487091183267 C 294.1666666666667 3.5204487091183267, 295.8333333333333 96.47955129088167, 297.5 96.47955129088167 C 299.1666666666667 96.47955129088167, 300.8333333333333 0, 302.5 0 C 304.1666666666667 0, 305.8333333333333 100, 307.5 100 C 309.1666666666667 100, 310.8333333333333 3.6411464719487725, 312.5 3.6411464719487725 C 314.1666666666667 3.6411464719487725, 315.8333333333333 96.35885352805123, 317.5 96.35885352805123 C 319.1666666666667 96.35885352805123, 320.8333333333333 9.282722616634622, 322.5 9.282722616634622 C 324.1666666666667 9.282722616634622, 325.8333333333333 90.71727738336537, 327.5 90.71727738336537 C 329.1666666666667 90.71727738336537, 330.8333333333333 9.962608615382052, 332.5 9.962608615382052 C 334.1666666666667 9.962608615382052, 335.8333333333333 90.03739138461795, 337.5 90.03739138461795 C 339.1666666666667 90.03739138461795, 340.8333333333333 12.984549320201708, 342.5 12.984549320201708 C 344.1666666666667 12.984549320201708, 345.8333333333333 87.01545067979829, 347.5 87.01545067979829 C 349.1666666666667 87.01545067979829, 350.8333333333333 12.368359948645924, 352.5 12.368359948645924 C 354.1666666666667 12.368359948645924, 355.8333333333333 87.63164005135408, 357.5 87.63164005135408 C 359.1666666666667 87.63164005135408, 360.8333333333333 16.525104643087225, 362.5 16.525104643087225 C 364.1666666666667 16.525104643087225, 365.8333333333333 83.47489535691278, 367.5 83.47489535691278 C 369.1666666666667 83.47489535691278, 370.8333333333333 18.098761697184635, 372.5 18.098761697184635 C 374.1666666666667 18.098761697184635, 375.8333333333333 81.90123830281536, 377.5 81.90123830281536 C 379.1666666666667 81.90123830281536, 380.8333333333333 21.464729484830556, 382.5 21.464729484830556 C 384.1666666666667 21.464729484830556, 385.8333333333333 78.53527051516944, 387.5 78.53527051516944 C 389.1666666666667 78.53527051516944, 390.8333333333333 27.768688814984444, 392.5 27.768688814984444 C 394.1666666666667 27.768688814984444, 395.8333333333333 72.23131118501556, 397.5 72.23131118501556 C 399.1666666666667 72.23131118501556, 400.8333333333333 28.364076024149075, 402.5 28.364076024149075 C 404.1666666666667 28.364076024149075, 405.8333333333333 71.63592397585093, 407.5 71.63592397585093 C 409.1666666666667 71.63592397585093, 410.8333333333333 36.57057971460614, 412.5 36.57057971460614 C 414.1666666666667 36.57057971460614, 415.8333333333333 63.42942028539386, 417.5 63.42942028539386 C 419.1666666666667 63.42942028539386, 420.8333333333333 34.3461094634958, 422.5 34.3461094634958 C 424.1666666666667 34.3461094634958, 425.8333333333333 65.65389053650419, 427.5 65.65389053650419 C 429.1666666666667 65.65389053650419, 430.8333333333333 43.09993858990269, 432.5 43.09993858990269 C 434.1666666666667 43.09993858990269, 435.8333333333333 56.90006141009731, 437.5 56.90006141009731 C 439.1666666666667 56.90006141009731, 440.8333333333333 27.2795953879384, 442.5 27.2795953879384 C 444.1666666666667 27.2795953879384, 445.8333333333333 72.7204046120616, 447.5 72.7204046120616 C 449.1666666666667 72.7204046120616, 450.8333333333333 28.6976311755377, 452.5 28.6976311755377 C 454.1666666666667 28.6976311755377, 455.8333333333333 71.30236882446229, 457.5 71.30236882446229 C 459.1666666666667 71.30236882446229, 460.8333333333333 24.579340284871815, 462.5 24.579340284871815 C 464.1666666666667 24.579340284871815, 465.8333333333333 75.42065971512818, 467.5 75.42065971512818 C 469.1666666666667 75.42065971512818, 470.8333333333333 24.619466764996208, 472.5 24.619466764996208 C 474.1666666666667 24.619466764996208, 475.8333333333333 75.3805332350038, 477.5 75.3805332350038 C 479.1666666666667 75.3805332350038, 480.8333333333333 26.02314747594845, 482.5 26.02314747594845 C 484.1666666666667 26.02314747594845, 485.8333333333333 73.97685252405155, 487.5 73.97685252405155 C 489.1666666666667 73.97685252405155, 490.8333333333333 21.744711408162605, 492.5 21.744711408162605 C 494.1666666666667 21.744711408162605, 495.8333333333333 78.2552885918374, 497.5 78.2552885918374 C 499.1666666666667 78.2552885918374, 500.8333333333333 19.62298621948512, 502.5 19.62298621948512 C 504.1666666666667 19.62298621948512, 505.8333333333333 80.37701378051489, 507.5 80.37701378051489 C 509.1666666666667 80.37701378051489, 510.8333333333333 16.010816883138716, 512.5 16.010816883138716 C 514.1666666666666 16.010816883138716, 515.8333333333334 83.98918311686128, 517.5 83.98918311686128 C 519.1666666666666 83.98918311686128, 520.8333333333334 19.996605095177106, 522.5 19.996605095177106 C 524.1666666666666 19.996605095177106, 525.8333333333334 80.0033949048229, 527.5 80.0033949048229 C 529.1666666666666 80.0033949048229, 530.8333333333334 15.589915121273854, 532.5 15.589915121273854 C 534.1666666666666 15.589915121273854, 535.8333333333334 84.41008487872614, 537.5 84.41008487872614 C 539.1666666666666 84.41008487872614, 540.8333333333334 17.123484783802432, 542.5 17.123484783802432 C 544.1666666666666 17.123484783802432, 545.8333333333334 82.87651521619756, 547.5 82.87651521619756 C 549.1666666666666 82.87651521619756, 550.8333333333334 17.190459861108714, 552.5 17.190459861108714 C 554.1666666666666 17.190459861108714, 555.8333333333334 82.8095401388913, 557.5 82.8095401388913 C 559.1666666666666 82.8095401388913, 560.8333333333334 17.561221998884577, 562.5 17.561221998884577 C 564.1666666666666 17.561221998884577, 565.8333333333334 82.43877800111542, 567.5 82.43877800111542 C 569.1666666666666 82.43877800111542, 570.8333333333334 17.043493348378547, 572.5 17.043493348378547 C 574.1666666666666 17.043493348378547, 575.8333333333334 82.95650665162145, 577.5 82.95650665162145 C 579.1666666666666 82.95650665162145, 580.8333333333334 17.442743148086322, 582.5 17.442743148086322 C 584.1666666666666 17.442743148086322, 585.8333333333334 82.55725685191368, 587.5 82.55725685191368 C 589.1666666666666 82.55725685191368, 590.8333333333334 19.002942770624337, 592.5 19.002942770624337 C 594.1666666666666 19.002942770624337, 595.8333333333334 80.99705722937566, 597.5 80.99705722937566 C 599.1666666666666 80.99705722937566, 600.8333333333334 19.72491015222579, 602.5 19.72491015222579 C 604.1666666666666 19.72491015222579, 605.8333333333334 80.27508984777421, 607.5 80.27508984777421 C 609.1666666666666 80.27508984777421, 610.8333333333334 20.913444245247977, 612.5 20.913444245247977 C 614.1666666666666 20.913444245247977, 615.8333333333334 79.08655575475203, 617.5 79.08655575475203 C 619.1666666666666 79.08655575475203, 620.8333333333334 1.1166914243754604, 622.5 1.1166914243754604 C 624.1666666666666 1.1166914243754604, 625.8333333333334 98.88330857562454, 627.5 98.88330857562454 C 629.1666666666666 98.88330857562454, 630.8333333333334 2.2611704821146645, 632.5 2.2611704821146645 C 634.1666666666666 2.2611704821146645, 635.8333333333334 97.73882951788534, 637.5 97.73882951788534 C 639.1666666666666 97.73882951788534, 640.8333333333334 3.326601025720457, 642.5 3.326601025720457 C 644.1666666666666 3.326601025720457, 645.8333333333334 96.67339897427954, 647.5 96.67339897427954 C 649.1666666666666 96.67339897427954, 650.8333333333334 4.881091609582164, 652.5 4.881091609582164 C 654.1666666666666 4.881091609582164, 655.8333333333334 95.11890839041783, 657.5 95.11890839041783 C 659.1666666666666 95.11890839041783, 660.8333333333334 4.964357539647892, 662.5 4.964357539647892 C 664.1666666666666 4.964357539647892, 665.8333333333334 95.03564246035211, 667.5 95.03564246035211 C 669.1666666666666 95.03564246035211, 670.8333333333334 5.597678678662483, 672.5 5.597678678662483 C 674.1666666666666 5.597678678662483, 675.8333333333334 94.40232132133752, 677.5 94.40232132133752 C 679.1666666666666 94.40232132133752, 680.8333333333334 6.125939782826052, 682.5 6.125939782826052 C 684.1666666666666 6.125939782826052, 685.8333333333334 93.87406021717395, 687.5 93.87406021717395 C 689.1666666666666 93.87406021717395, 690.8333333333334 6.686454655034623, 692.5 6.686454655034623 C 694.1666666666666 6.686454655034623, 695.8333333333334 93.31354534496538, 697.5 93.31354534496538 C 699.1666666666666 93.31354534496538, 700.8333333333334 1.0259175772615663, 702.5 1.0259175772615663 C 704.1666666666666 1.0259175772615663, 705.8333333333334 98.97408242273843, 707.5 98.97408242273843 C 709.1666666666666 98.97408242273843, 710.8333333333334 4.6993354157809435, 712.5 4.6993354157809435 C 714.1666666666666 4.6993354157809435, 715.8333333333334 95.30066458421905, 717.5 95.30066458421905 C 719.1666666666666 95.30066458421905, 720.8333333333334 5.800975671570427, 722.5 5.800975671570427 C 724.1666666666666 5.800975671570427, 725.8333333333334 94.19902432842957, 727.5 94.19902432842957 C 729.1666666666666 94.19902432842957, 730.8333333333334 6.72862408245539, 732.5 6.72862408245539 C 734.1666666666666 6.72862408245539, 735.8333333333334 93.27137591754462, 737.5 93.27137591754462 C 739.1666666666666 93.27137591754462, 740.8333333333334 5.78878181112983, 742.5 5.78878181112983 C 744.1666666666666 5.78878181112983, 745.8333333333334 94.21121818887016, 747.5 94.21121818887016 C 749.1666666666666 94.21121818887016, 750.8333333333334 4.348773894181285, 752.5 4.348773894181285 C 754.1666666666666 4.348773894181285, 755.8333333333334 95.65122610581872, 757.5 95.65122610581872 C 759.1666666666666 95.65122610581872, 760.8333333333334 4.073175457590004, 762.5 4.073175457590004 C 764.1666666666666 4.073175457590004, 765.8333333333334 95.92682454241, 767.5 95.92682454241 C 769.1666666666666 95.92682454241, 770.8333333333334 1.6354674191680658, 772.5 1.6354674191680658 C 774.1666666666666 1.6354674191680658, 775.8333333333334 98.36453258083193, 777.5 98.36453258083193 C 779.1666666666666 98.36453258083193, 780.8333333333334 7.239263749857734, 782.5 7.239263749857734 C 784.1666666666666 7.239263749857734, 785.8333333333334 92.76073625014226, 787.5 92.76073625014226 C 789.1666666666666 92.76073625014226, 790.8333333333334 10.774080462597844, 792.5 10.774080462597844 C 794.1666666666666 10.774080462597844, 795.8333333333334 89.22591953740215, 797.5 89.22591953740215 C 799.1666666666666 89.22591953740215, 800.8333333333334 22.238940723810817, 802.5 22.238940723810817 C 804.1666666666666 22.238940723810817, 805.8333333333334 77.76105927618919, 807.5 77.76105927618919 C 809.1666666666666 77.76105927618919, 810.8333333333334 27.904367121333774, 812.5 27.904367121333774 C 814.1666666666666 27.904367121333774, 815.8333333333334 72.09563287866622, 817.5 72.09563287866622 C 819.1666666666666 72.09563287866622, 820.8333333333334 26.558846239881532, 822.5 26.558846239881532 C 824.1666666666666 26.558846239881532, 825.8333333333334 73.44115376011847, 827.5 73.44115376011847 C 829.1666666666666 73.44115376011847, 830.8333333333334 11.980187297421544, 832.5 11.980187297421544 C 834.1666666666666 11.980187297421544, 835.8333333333334 88.01981270257846, 837.5 88.01981270257846 C 839.1666666666666 88.01981270257846, 840.8333333333334 13.249642307396023, 842.5 13.249642307396023 C 844.1666666666666 13.249642307396023, 845.8333333333334 86.75035769260398, 847.5 86.75035769260398 C 849.1666666666666 86.75035769260398, 850.8333333333334 18.08738623694874, 852.5 18.08738623694874 C 854.1666666666666 18.08738623694874, 855.8333333333334 81.91261376305127, 857.5 81.91261376305127 C 859.1666666666666 81.91261376305127, 860.8333333333334 21.779776998138477, 862.5 21.779776998138477 C 864.1666666666666 21.779776998138477, 865.8333333333334 78.22022300186153, 867.5 78.22022300186153 C 869.1666666666666 78.22022300186153, 870.8333333333334 22.352754147181315, 872.5 22.352754147181315 C 874.1666666666666 22.352754147181315, 875.8333333333334 77.64724585281868, 877.5 77.64724585281868 C 879.1666666666666 77.64724585281868, 880.8333333333334 27.0288451472128, 882.5 27.0288451472128 C 884.1666666666666 27.0288451472128, 885.8333333333334 72.97115485278721, 887.5 72.97115485278721 C 889.1666666666666 72.97115485278721, 890.8333333333334 29.860719270541498, 892.5 29.860719270541498 C 894.1666666666666 29.860719270541498, 895.8333333333334 70.1392807294585, 897.5 70.1392807294585 C 899.1666666666666 70.1392807294585, 900.8333333333334 36.89771365482313, 902.5 36.89771365482313 C 904.1666666666666 36.89771365482313, 905.8333333333334 63.10228634517687, 907.5 63.10228634517687 C 909.1666666666666 63.10228634517687, 910.8333333333334 40.35719340711259, 912.5 40.35719340711259 C 914.1666666666666 40.35719340711259, 915.8333333333334 59.64280659288741, 917.5 59.64280659288741 C 919.1666666666666 59.64280659288741, 920.8333333333334 44.29686335032803, 922.5 44.29686335032803 C 924.1666666666666 44.29686335032803, 925.8333333333334 55.70313664967197, 927.5 55.70313664967197 C 929.1666666666666 55.70313664967197, 930.8333333333334 48.38482111500675, 932.5 48.38482111500675 C 934.1666666666666 48.38482111500675, 935.8333333333334 51.61517888499325, 937.5 51.61517888499325 C 939.1666666666666 51.61517888499325, 940.8333333333334 43.42884618387244, 942.5 43.42884618387244 C 944.1666666666666 43.42884618387244, 945.8333333333334 56.57115381612756, 947.5 56.57115381612756 C 949.1666666666666 56.57115381612756, 950.8333333333334 43.68828384366748, 952.5 43.68828384366748 C 954.1666666666666 43.68828384366748, 955.8333333333334 56.31171615633252, 957.5 56.31171615633252 C 959.1666666666666 56.31171615633252, 960.8333333333334 49.41548129020792, 962.5 49.41548129020792 C 964.1666666666666 49.41548129020792, 965.8333333333334 50.58451870979208, 967.5 50.58451870979208 C 969.1666666666666 50.58451870979208, 970.8333333333334 50, 972.5 50 C 974.1666666666666 50, 975.8333333333334 50, 977.5 50 C 979.1666666666666 50, 980.8333333333334 49.60958718260413, 982.5 49.60958718260413 C 984.1666666666666 49.60958718260413, 985.8333333333334 50.39041281739587, 987.5 50.39041281739587 C 989.1666666666666 50.39041281739587, 990.8333333333334 49.94918151150189, 992.5 49.94918151150189 C 994.1666666666666 49.94918151150189, 995.8333333333334 50.05081848849811, 997.5 50.05081848849811 C 999.1666666666666 50.05081848849811, 1000.8333333333334 50, 1002.5 50 C 1004.1666666666666 50, 1005.8333333333334 50, 1007.5 50 C 1008.4166666666666 50, 1009.3333333333334 50, 1010.25 50 " stroke="white" stroke-width="5" fill="transparent" />
  </g>
</svg>