<svg 
  baseProfile="tiny"
  preserveAspectRatio="keep"
  version="1.2"
  viewBox="-5.000000 -5.000000 1015.000000 105.000000"
  height="100%" width="100%"
  xmlns="http://www.w3.org/2000/svg"
  xmlns:ev="http://www.w3.org/2001/xml-events"
  xmlns:xlink="http://www.w3.org/1999/xlink"
>
  <g style="transform-origin: center center;">
    <path d="M -0.250000 50.000000 C 4 50, 8.25 50, 12.5 50 C 14.166666666666666 50, 15.833333333333334 50, 17.5 50 C 19.166666666666668 50, 20.833333333333332 49.76037273843024, 22.5 49.76037273843024 C 24.166666666666668 49.76037273843024, 25.833333333333332 50.23962726156976, 27.5 50.23962726156976 C 29.166666666666668 50.23962726156976, 30.833333333333332 50, 32.5 50 C 34.166666666666664 50, 35.833333333333336 50, 37.5 50 C 39.166666666666664 50, 40.833333333333336 41.67747020527199, 42.5 41.67747020527199 C 44.166666666666664 41.67747020527199, 45.833333333333336 58.32252979472801, 47.5 58.32252979472801 C 49.166666666666664 58.32252979472801, 50.833333333333336 31.48168843889968, 52.5 31.48168843889968 C 54.166666666666664 31.48168843889968, 55.833333333333336 68.51831156110032, 57.5 68.51831156110032 C 59.166666666666664 68.51831156110032, 60.833333333333336 32.66419590161236, 62.5 32.66419590161236 C 64.16666666666667 32.66419590161236, 65.83333333333333 67.33580409838764, 67.5 67.33580409838764 C 69.16666666666667 67.33580409838764, 70.83333333333333 38.15484613426229, 72.5 38.15484613426229 C 74.16666666666667 38.15484613426229, 75.83333333333333 61.84515386573771, 77.5 61.84515386573771 C 79.16666666666667 61.84515386573771, 80.83333333333333 38.13289362070647, 82.5 38.13289362070647 C 84.16666666666667 38.13289362070647, 85.83333333333333 61.86710637929353, 87.5 61.86710637929353 C 89.16666666666667 61.86710637929353, 90.83333333333333 30.93472881429003, 92.5 30.93472881429003 C 94.16666666666667 30.93472881429003, 95.83333333333333 69.06527118570997, 97.5 69.06527118570997 C 99.16666666666667 69.06527118570997, 100.83333333333333 7.41897819229996, 102.5 7.41897819229996 C 104.16666666666667 7.41897819229996, 105.83333333333333 92.58102180770004, 107.5 92.58102180770004 C 109.16666666666667 92.58102180770004, 110.83333333333333 9.504590055195202, 112.5 9.504590055195202 C 114.16666666666667 9.504590055195202, 115.83333333333333 90.4954099448048, 117.5 90.4954099448048 C 119.16666666666667 90.4954099448048, 120.83333333333333 13.644745213839954, 122.5 13.644745213839954 C 124.16666666666667 13.644745213839954, 125.83333333333333 86.35525478616005, 127.5 86.35525478616005 C 129.16666666666666 86.35525478616005, 130.83333333333334 16.781476431197753, 132.5 16.781476431197753 C 134.16666666666666 16.781476431197753, 135.83333333333334 83.21852356880225, 137.5 83.21852356880225 C 139.16666666666666 83.21852356880225, 140.83333333333334 13.953565060686898, 142.5 13.953565060686898 C 144.16666666666666 13.953565060686898, 145.83333333333334 86.0464349393131, 147.5 86.0464349393131 C 149.16666666666666 86.0464349393131, 150.83333333333334 15.201682382893281, 152.5 15.201682382893281 C 154.16666666666666 15.201682382893281, 155.83333333333334 84.79831761710672, 157.5 84.79831761710672 C 159.16666666666666 84.79831761710672, 160.83333333333334 15.497647826340824, 162.5 15.497647826340824 C 164.16666666666666 15.497647826340824, 165.83333333333334 84.50235217365918, 167.5 84.50235217365918 C 169.16666666666666 84.50235217365918, 170.83333333333334 17.279113763815687, 172.5 17.279113763815687 C 174.16666666666666 17.279113763815687, 175.83333333333334 82.72088623618431, 177.5 82.72088623618431 C 179.16666666666666 82.72088623618431, 180.83333333333334 14.051657226876621, 182.5 14.051657226876621 C 184.16666666666666 14.051657226876621, 185.83333333333334 85.94834277312339, 187.5 85.94834277312339 C 189.16666666666666 85.94834277312339, 190.83333333333334 15.450799629054359, 192.5 15.450799629054359 C 194.16666666666666 15.450799629054359, 195.83333333333334 84.54920037094564, 197.5 84.54920037094564 C 199.16666666666666 84.54920037094564, 200.83333333333334 12.910550094043145, 202.5 12.910550094043145 C 204.16666666666666 12.910550094043145, 205.83333333333334 87.08944990595685, 207.5 87.08944990595685 C 209.16666666666666 87.08944990595685, 210.83333333333334 20.503561879313953, 212.5 20.503561879313953 C 214.16666666666666 20.503561879313953, 215.83333333333334 79.49643812068605, 217.5 79.49643812068605 C 219.16666666666666 79.49643812068605, 220.83333333333334 20.421698858965325, 222.5 20.421698858965325 C 224.16666666666666 20.421698858965325, 225.83333333333334 79.57830114103467, 227.5 79.57830114103467 C 229.16666666666666 79.57830114103467, 230.83333333333334 19.863758552296257, 232.5 19.863758552296257 C 234.16666666666666 19.863758552296257, 235.83333333333334 80.13624144770374, 237.5 80.13624144770374 C 239.16666666666666 80.13624144770374, 240.83333333333334 18.838107362324948, 242.5 18.838107362324948 C 244.16666666666666 18.838107362324948, 245.83333333333334 81.16189263767505, 247.5 81.16189263767505 C 249.16666666666666 81.16189263767505, 250.83333333333334 17.95919004171708, 252.5 17.95919004171708 C 254.16666666666666 17.95919004171708, 255.83333333333334 82.04080995828292, 257.5 82.04080995828292 C 259.1666666666667 82.04080995828292, 260.8333333333333 23.057112549111753, 262.5 23.057112549111753 C 264.1666666666667 23.057112549111753, 265.8333333333333 76.94288745088825, 267.5 76.94288745088825 C 269.1666666666667 76.94288745088825, 270.8333333333333 15.904762228083143, 272.5 15.904762228083143 C 274.1666666666667 15.904762228083143, 275.8333333333333 84.09523777191686, 277.5 84.09523777191686 C 279.1666666666667 84.09523777191686, 280.8333333333333 12.969208441526156, 282.5 12.969208441526156 C 284.1666666666667 12.969208441526156, 285.8333333333333 87.03079155847385, 287.5 87.03079155847385 C 289.1666666666667 87.03079155847385, 290.8333333333333 18.329589502033024, 292.5 18.329589502033024 C 294.1666666666667 18.329589502033024, 295.8333333333333 81.67041049796697, 297.5 81.67041049796697 C 299.1666666666667 81.67041049796697, 300.8333333333333 10.148575724871613, 302.5 10.148575724871613 C 304.1666666666667 10.148575724871613, 305.8333333333333 89.85142427512838, 307.5 89.85142427512838 C 309.1666666666667 89.85142427512838, 310.8333333333333 15.61661305599111, 312.5 15.61661305599111 C 314.1666666666667 15.61661305599111, 315.8333333333333 84.38338694400889, 317.5 84.38338694400889 C 319.1666666666667 84.38338694400889, 320.8333333333333 14.5489146006733, 322.5 14.5489146006733 C 324.1666666666667 14.5489146006733, 325.8333333333333 85.4510853993267, 327.5 85.4510853993267 C 329.1666666666667 85.4510853993267, 330.8333333333333 16.81184139799415, 332.5 16.81184139799415 C 334.1666666666667 16.81184139799415, 335.8333333333333 83.18815860200584, 337.5 83.18815860200584 C 339.1666666666667 83.18815860200584, 340.8333333333333 17.53094009632361, 342.5 17.53094009632361 C 344.1666666666667 17.53094009632361, 345.8333333333333 82.4690599036764, 347.5 82.4690599036764 C 349.1666666666667 82.4690599036764, 350.8333333333333 16.436350729652197, 352.5 16.436350729652197 C 354.1666666666667 16.436350729652197, 355.8333333333333 83.56364927034781, 357.5 83.56364927034781 C 359.1666666666667 83.56364927034781, 360.8333333333333 13.449823343622512, 362.5 13.449823343622512 C 364.1666666666667 13.449823343622512, 365.8333333333333 86.55017665637749, 367.5 86.55017665637749 C 369.1666666666667 86.55017665637749, 370.8333333333333 17.49091102799585, 372.5 17.49091102799585 C 374.1666666666667 17.49091102799585, 375.8333333333333 82.50908897200415, 377.5 82.50908897200415 C 379.1666666666667 82.50908897200415, 380.8333333333333 28.444037483990368, 382.5 28.444037483990368 C 384.1666666666667 28.444037483990368, 385.8333333333333 71.55596251600963, 387.5 71.55596251600963 C 389.1666666666667 71.55596251600963, 390.8333333333333 27.970748162833516, 392.5 27.970748162833516 C 394.1666666666667 27.970748162833516, 395.8333333333333 72.02925183716648, 397.5 72.02925183716648 C 399.1666666666667 72.02925183716648, 400.8333333333333 5.929594874058772, 402.5 5.929594874058772 C 404.1666666666667 5.929594874058772, 405.8333333333333 94.07040512594122, 407.5 94.07040512594122 C 409.1666666666667 94.07040512594122, 410.8333333333333 5.7411708062051545, 412.5 5.7411708062051545 C 414.1666666666667 5.7411708062051545, 415.8333333333333 94.25882919379484, 417.5 94.25882919379484 C 419.1666666666667 94.25882919379484, 420.8333333333333 0, 422.5 0 C 424.1666666666667 0, 425.8333333333333 100, 427.5 100 C 429.1666666666667 100, 430.8333333333333 7.301889538063222, 432.5 7.301889538063222 C 434.1666666666667 7.301889538063222, 435.8333333333333 92.69811046193678, 437.5 92.69811046193678 C 439.1666666666667 92.69811046193678, 440.8333333333333 13.864903251123607, 442.5 13.864903251123607 C 444.1666666666667 13.864903251123607, 445.8333333333333 86.13509674887639, 447.5 86.13509674887639 C 449.1666666666667 86.13509674887639, 450.8333333333333 12.973882889063702, 452.5 12.973882889063702 C 454.1666666666667 12.973882889063702, 455.8333333333333 87.0261171109363, 457.5 87.0261171109363 C 459.1666666666667 87.0261171109363, 460.8333333333333 17.91386589259298, 462.5 17.91386589259298 C 464.1666666666667 17.91386589259298, 465.8333333333333 82.08613410740702, 467.5 82.08613410740702 C 469.1666666666667 82.08613410740702, 470.8333333333333 14.123224770886118, 472.5 14.123224770886118 C 474.1666666666667 14.123224770886118, 475.8333333333333 85.87677522911389, 477.5 85.87677522911389 C 479.1666666666667 85.87677522911389, 480.8333333333333 12.864349008635344, 482.5 12.864349008635344 C 484.1666666666667 12.864349008635344, 485.8333333333333 87.13565099136466, 487.5 87.13565099136466 C 489.1666666666667 87.13565099136466, 490.8333333333333 11.996343788807664, 492.5 11.996343788807664 C 494.1666666666667 11.996343788807664, 495.8333333333333 88.00365621119234, 497.5 88.00365621119234 C 499.1666666666667 88.00365621119234, 500.8333333333333 6.6366003500717525, 502.5 6.6366003500717525 C 504.1666666666667 6.6366003500717525, 505.8333333333333 93.36339964992825, 507.5 93.36339964992825 C 509.1666666666667 93.36339964992825, 510.8333333333333 13.169073211848449, 512.5 13.169073211848449 C 514.1666666666666 13.169073211848449, 515.8333333333334 86.83092678815154, 517.5 86.83092678815154 C 519.1666666666666 86.83092678815154, 520.8333333333334 10.325176354515008, 522.5 10.325176354515008 C 524.1666666666666 10.325176354515008, 525.8333333333334 89.67482364548499, 527.5 89.67482364548499 C 529.1666666666666 89.67482364548499, 530.8333333333334 9.70500775721547, 532.5 9.70500775721547 C 534.1666666666666 9.70500775721547, 535.8333333333334 90.29499224278453, 537.5 90.29499224278453 C 539.1666666666666 90.29499224278453, 540.8333333333334 15.238960815182608, 542.5 15.238960815182608 C 544.1666666666666 15.238960815182608, 545.8333333333334 84.76103918481739, 547.5 84.76103918481739 C 549.1666666666666 84.76103918481739, 550.8333333333334 8.616991424769317, 552.5 8.616991424769317 C 554.1666666666666 8.616991424769317, 555.8333333333334 91.38300857523069, 557.5 91.38300857523069 C 559.1666666666666 91.38300857523069, 560.8333333333334 9.774790709054521, 562.5 9.774790709054521 C 564.1666666666666 9.774790709054521, 565.8333333333334 90.22520929094549, 567.5 90.22520929094549 C 569.1666666666666 90.22520929094549, 570.8333333333334 3.3057185407653478, 572.5 3.3057185407653478 C 574.1666666666666 3.3057185407653478, 575.8333333333334 96.69428145923465, 577.5 96.69428145923465 C 579.1666666666666 96.69428145923465, 580.8333333333334 0.9966023889998326, 582.5 0.9966023889998326 C 584.1666666666666 0.9966023889998326, 585.8333333333334 99.00339761100017, 587.5 99.00339761100017 C 589.1666666666666 99.00339761100017, 590.8333333333334 1.8364130128932175, 592.5 1.8364130128932175 C 594.1666666666666 1.8364130128932175, 595.8333333333334 98.16358698710678, 597.5 98.16358698710678 C 599.1666666666666 98.16358698710678, 600.8333333333334 9.665350671949199, 602.5 9.665350671949199 C 604.1666666666666 9.665350671949199, 605.8333333333334 90.3346493280508, 607.5 90.3346493280508 C 609.1666666666666 90.3346493280508, 610.8333333333334 9.49329285388437, 612.5 9.49329285388437 C 614.1666666666666 9.49329285388437, 615.8333333333334 90.50670714611563, 617.5 90.50670714611563 C 619.1666666666666 90.50670714611563, 620.8333333333334 9.67562898898764, 622.5 9.67562898898764 C 624.1666666666666 9.67562898898764, 625.8333333333334 90.32437101101236, 627.5 90.32437101101236 C 629.1666666666666 90.32437101101236, 630.8333333333334 11.418423290323915, 632.5 11.418423290323915 C 634.1666666666666 11.418423290323915, 635.8333333333334 88.58157670967609, 637.5 88.58157670967609 C 639.1666666666666 88.58157670967609, 640.8333333333334 8.676505206343052, 642.5 8.676505206343052 C 644.1666666666666 8.676505206343052, 645.8333333333334 91.32349479365695, 647.5 91.32349479365695 C 649.1666666666666 91.32349479365695, 650.8333333333334 11.398795536205611, 652.5 11.398795536205611 C 654.1666666666666 11.398795536205611, 655.8333333333334 88.60120446379439, 657.5 88.60120446379439 C 659.1666666666666 88.60120446379439, 660.8333333333334 12.07021760497863, 662.5 12.07021760497863 C 664.1666666666666 12.07021760497863, 665.8333333333334 87.92978239502136, 667.5 87.92978239502136 C 669.1666666666666 87.92978239502136, 670.8333333333334 10.013916198951783, 672.5 10.013916198951783 C 674.1666666666666 10.013916198951783, 675.8333333333334 89.98608380104821, 677.5 89.98608380104821 C 679.1666666666666 89.98608380104821, 680.8333333333334 10.414869115822988, 682.5 10.414869115822988 C 684.1666666666666 10.414869115822988, 685.8333333333334 89.585130884177, 687.5 89.585130884177 C 689.1666666666666 89.585130884177, 690.8333333333334 9.548502270296474, 692.5 9.548502270296474 C 694.1666666666666 9.548502270296474, 695.8333333333334 90.45149772970353, 697.5 90.45149772970353 C 699.1666666666666 90.45149772970353, 700.8333333333334 11.211322060494808, 702.5 11.211322060494808 C 704.1666666666666 11.211322060494808, 705.8333333333334 88.78867793950519, 707.5 88.78867793950519 C 709.1666666666666 88.78867793950519, 710.8333333333334 15.98048310700542, 712.5 15.98048310700542 C 714.1666666666666 15.98048310700542, 715.8333333333334 84.01951689299457, 717.5 84.01951689299457 C 719.1666666666666 84.01951689299457, 720.8333333333334 11.176807262691021, 722.5 11.176807262691021 C 724.1666666666666 11.176807262691021, 725.8333333333334 88.82319273730897, 727.5 88.82319273730897 C 729.1666666666666 88.82319273730897, 730.8333333333334 4.04668206204677, 732.5 4.04668206204677 C 734.1666666666666 4.04668206204677, 735.8333333333334 95.95331793795323, 737.5 95.95331793795323 C 739.1666666666666 95.95331793795323, 740.8333333333334 4.3082571896063655, 742.5 4.3082571896063655 C 744.1666666666666 4.3082571896063655, 745.8333333333334 95.69174281039363, 747.5 95.69174281039363 C 749.1666666666666 95.69174281039363, 750.8333333333334 2.022769985615348, 752.5 2.022769985615348 C 754.1666666666666 2.022769985615348, 755.8333333333334 97.97723001438465, 757.5 97.97723001438465 C 759.1666666666666 97.97723001438465, 760.8333333333334 4.969808766129638, 762.5 4.969808766129638 C 764.1666666666666 4.969808766129638, 765.8333333333334 95.03019123387037, 767.5 95.03019123387037 C 769.1666666666666 95.03019123387037, 770.8333333333334 12.559823850101736, 772.5 12.559823850101736 C 774.1666666666666 12.559823850101736, 775.8333333333334 87.44017614989826, 777.5 87.44017614989826 C 779.1666666666666 87.44017614989826, 780.8333333333334 11.57064856480924, 782.5 11.57064856480924 C 784.1666666666666 11.57064856480924, 785.8333333333334 88.42935143519077, 787.5 88.42935143519077 C 789.1666666666666 88.42935143519077, 790.8333333333334 10.961024079688535, 792.5 10.961024079688535 C 794.1666666666666 10.961024079688535, 795.8333333333334 89.03897592031146, 797.5 89.03897592031146 C 799.1666666666666 89.03897592031146, 800.8333333333334 9.539007038990619, 802.5 9.539007038990619 C 804.1666666666666 9.539007038990619, 805.8333333333334 90.46099296100938, 807.5 90.46099296100938 C 809.1666666666666 90.46099296100938, 810.8333333333334 13.248554808999181, 812.5 13.248554808999181 C 814.1666666666666 13.248554808999181, 815.8333333333334 86.75144519100081, 817.5 86.75144519100081 C 819.1666666666666 86.75144519100081, 820.8333333333334 13.98932126596258, 822.5 13.98932126596258 C 824.1666666666666 13.98932126596258, 825.8333333333334 86.01067873403741, 827.5 86.01067873403741 C 829.1666666666666 86.01067873403741, 830.8333333333334 11.041281547424795, 832.5 11.041281547424795 C 834.1666666666666 11.041281547424795, 835.8333333333334 88.9587184525752, 837.5 88.9587184525752 C 839.1666666666666 88.9587184525752, 840.8333333333334 11.974107507214391, 842.5 11.974107507214391 C 844.1666666666666 11.974107507214391, 845.8333333333334 88.0258924927856, 847.5 88.0258924927856 C 849.1666666666666 88.0258924927856, 850.8333333333334 11.307307613869696, 852.5 11.307307613869696 C 854.1666666666666 11.307307613869696, 855.8333333333334 88.6926923861303, 857.5 88.6926923861303 C 859.1666666666666 88.6926923861303, 860.8333333333334 15.015576589334707, 862.5 15.015576589334707 C 864.1666666666666 15.015576589334707, 865.8333333333334 84.9844234106653, 867.5 84.9844234106653 C 869.1666666666666 84.9844234106653, 870.8333333333334 19.39165123821055, 872.5 19.39165123821055 C 874.1666666666666 19.39165123821055, 875.8333333333334 80.60834876178944, 877.5 80.60834876178944 C 879.1666666666666 80.60834876178944, 880.8333333333334 13.085039915269405, 882.5 13.085039915269405 C 884.1666666666666 13.085039915269405, 885.8333333333334 86.9149600847306, 887.5 86.9149600847306 C 889.1666666666666 86.9149600847306, 890.8333333333334 5.668796281937958, 892.5 5.668796281937958 C 894.1666666666666 5.668796281937958, 895.8333333333334 94.33120371806204, 897.5 94.33120371806204 C 899.1666666666666 94.33120371806204, 900.8333333333334 8.875396618228102, 902.5 8.875396618228102 C 904.1666666666666 8.875396618228102, 905.8333333333334 91.12460338177189, 907.5 91.12460338177189 C 909.1666666666666 91.12460338177189, 910.8333333333334 22.216586191307357, 912.5 22.216586191307357 C 914.1666666666666 22.216586191307357, 915.8333333333334 77.78341380869264, 917.5 77.78341380869264 C 919.1666666666666 77.78341380869264, 920.8333333333334 17.37991461941114, 922.5 17.37991461941114 C 924.1666666666666 17.37991461941114, 925.8333333333334 82.62008538058886, 927.5 82.62008538058886 C 929.1666666666666 82.62008538058886, 930.8333333333334 21.03321136140656, 932.5 21.03321136140656 C 934.1666666666666 21.03321136140656, 935.8333333333334 78.96678863859344, 937.5 78.96678863859344 C 939.1666666666666 78.96678863859344, 940.8333333333334 27.95186724213684, 942.5 27.95186724213684 C 944.1666666666666 27.95186724213684, 945.8333333333334 72.04813275786316, 947.5 72.04813275786316 C 949.1666666666666 72.04813275786316, 950.8333333333334 22.986200758882713, 952.5 22.986200758882713 C 954.1666666666666 22.986200758882713, 955.8333333333334 77.01379924111728, 957.5 77.01379924111728 C 959.1666666666666 77.01379924111728, 960.8333333333334 28.086382891519882, 962.5 28.086382891519882 C 964.1666666666666 28.086382891519882, 965.8333333333334 71.91361710848011, 967.5 71.91361710848011 C 969.1666666666666 71.91361710848011, 970.8333333333334 24.748439449653866, 972.5 24.748439449653866 C 974.1666666666666 24.748439449653866, 975.8333333333334 75.25156055034614, 977.5 75.25156055034614 C 979.1666666666666 75.25156055034614, 980.8333333333334 41.05764622439166, 982.5 41.05764622439166 C 984.1666666666666 41.05764622439166, 985.8333333333334 58.94235377560834, 987.5 58.94235377560834 C 989.1666666666666 58.94235377560834, 990.8333333333334 49.786196947225065, 992.5 49.786196947225065 C 994.1666666666666 49.786196947225065, 995.8333333333334 50.213803052774935, 997.5 50.213803052774935 C 999.1666666666666 50.213803052774935, 1000.8333333333334 50, 1002.5 50 C 1004.1666666666666 50, 1005.8333333333334 50, 1007.5 50 C 1008.4166666666666 50, 1009.3333333333334 50, 1010.25 50 " stroke="white" stroke-width="5" fill="transparent" />
  </g>
</svg>