<svg 
  baseProfile="tiny"
  preserveAspectRatio="keep"
  version="1.2"
  viewBox="-5.000000 -5.000000 1015.000000 105.000000"
  height="100%" width="100%"
  xmlns="http://www.w3.org/2000/svg"
  xmlns:ev="http://www.w3.org/2001/xml-events"
  xmlns:xlink="http://www.w3.org/1999/xlink"
>
  <g style="transform-origin: center center;">
    <path d="M -0.250000 50.000000 C 4 50, 8.25 50, 12.5 50 C 14.166666666666666 50, 15.833333333333334 50, 17.5 50 C 19.166666666666668 50, 20.833333333333332 49.70306048126134, 22.5 49.70306048126134 C 24.166666666666668 49.70306048126134, 25.833333333333332 50.29693951873866, 27.5 50.29693951873866 C 29.166666666666668 50.29693951873866, 30.833333333333332 46.13738614180395, 32.5 46.13738614180395 C 34.166666666666664 46.13738614180395, 35.833333333333336 53.86261385819605, 37.5 53.86261385819605 C 39.166666666666664 53.86261385819605, 40.833333333333336 17.35473506763455, 42.5 17.35473506763455 C 44.166666666666664 17.35473506763455, 45.833333333333336 82.64526493236545, 47.5 82.64526493236545 C 49.166666666666664 82.64526493236545, 50.833333333333336 2.198897526501078, 52.5 2.198897526501078 C 54.166666666666664 2.198897526501078, 55.833333333333336 97.80110247349893, 57.5 97.80110247349893 C 59.166666666666664 97.80110247349893, 60.833333333333336 0, 62.5 0 C 64.16666666666667 0, 65.83333333333333 100, 67.5 100 C 69.16666666666667 100, 70.83333333333333 2.4820510763566332, 72.5 2.4820510763566332 C 74.16666666666667 2.4820510763566332, 75.83333333333333 97.51794892364336, 77.5 97.51794892364336 C 79.16666666666667 97.51794892364336, 80.83333333333333 6.521569378774537, 82.5 6.521569378774537 C 84.16666666666667 6.521569378774537, 85.83333333333333 93.47843062122547, 87.5 93.47843062122547 C 89.16666666666667 93.47843062122547, 90.83333333333333 9.104252308796909, 92.5 9.104252308796909 C 94.16666666666667 9.104252308796909, 95.83333333333333 90.8957476912031, 97.5 90.8957476912031 C 99.16666666666667 90.8957476912031, 100.83333333333333 8.864544392403538, 102.5 8.864544392403538 C 104.16666666666667 8.864544392403538, 105.83333333333333 91.13545560759647, 107.5 91.13545560759647 C 109.16666666666667 91.13545560759647, 110.83333333333333 8.59427796682295, 112.5 8.59427796682295 C 114.16666666666667 8.59427796682295, 115.83333333333333 91.40572203317706, 117.5 91.40572203317706 C 119.16666666666667 91.40572203317706, 120.83333333333333 5.834340095277021, 122.5 5.834340095277021 C 124.16666666666667 5.834340095277021, 125.83333333333333 94.16565990472299, 127.5 94.16565990472299 C 129.16666666666666 94.16565990472299, 130.83333333333334 6.102737884335397, 132.5 6.102737884335397 C 134.16666666666666 6.102737884335397, 135.83333333333334 93.8972621156646, 137.5 93.8972621156646 C 139.16666666666666 93.8972621156646, 140.83333333333334 7.602746049259942, 142.5 7.602746049259942 C 144.16666666666666 7.602746049259942, 145.83333333333334 92.39725395074007, 147.5 92.39725395074007 C 149.16666666666666 92.39725395074007, 150.83333333333334 6.276685444453676, 152.5 6.276685444453676 C 154.16666666666666 6.276685444453676, 155.83333333333334 93.72331455554632, 157.5 93.72331455554632 C 159.16666666666666 93.72331455554632, 160.83333333333334 8.819283105278977, 162.5 8.819283105278977 C 164.16666666666666 8.819283105278977, 165.83333333333334 91.18071689472103, 167.5 91.18071689472103 C 169.16666666666666 91.18071689472103, 170.83333333333334 6.533791622902569, 172.5 6.533791622902569 C 174.16666666666666 6.533791622902569, 175.83333333333334 93.46620837709743, 177.5 93.46620837709743 C 179.16666666666666 93.46620837709743, 180.83333333333334 8.960957388932705, 182.5 8.960957388932705 C 184.16666666666666 8.960957388932705, 185.83333333333334 91.03904261106729, 187.5 91.03904261106729 C 189.16666666666666 91.03904261106729, 190.83333333333334 9.608859617446576, 192.5 9.608859617446576 C 194.16666666666666 9.608859617446576, 195.83333333333334 90.39114038255343, 197.5 90.39114038255343 C 199.16666666666666 90.39114038255343, 200.83333333333334 9.67001867439479, 202.5 9.67001867439479 C 204.16666666666666 9.67001867439479, 205.83333333333334 90.32998132560522, 207.5 90.32998132560522 C 209.16666666666666 90.32998132560522, 210.83333333333334 7.562863274975214, 212.5 7.562863274975214 C 214.16666666666666 7.562863274975214, 215.83333333333334 92.43713672502479, 217.5 92.43713672502479 C 219.16666666666666 92.43713672502479, 220.83333333333334 23.401030210770024, 222.5 23.401030210770024 C 224.16666666666666 23.401030210770024, 225.83333333333334 76.59896978922998, 227.5 76.59896978922998 C 229.16666666666666 76.59896978922998, 230.83333333333334 9.996748658751066, 232.5 9.996748658751066 C 234.16666666666666 9.996748658751066, 235.83333333333334 90.00325134124893, 237.5 90.00325134124893 C 239.16666666666666 90.00325134124893, 240.83333333333334 10.546144143660534, 242.5 10.546144143660534 C 244.16666666666666 10.546144143660534, 245.83333333333334 89.45385585633946, 247.5 89.45385585633946 C 249.16666666666666 89.45385585633946, 250.83333333333334 10.961404520543823, 252.5 10.961404520543823 C 254.16666666666666 10.961404520543823, 255.83333333333334 89.03859547945618, 257.5 89.03859547945618 C 259.1666666666667 89.03859547945618, 260.8333333333333 9.839489618440453, 262.5 9.839489618440453 C 264.1666666666667 9.839489618440453, 265.8333333333333 90.16051038155955, 267.5 90.16051038155955 C 269.1666666666667 90.16051038155955, 270.8333333333333 13.659362289991172, 272.5 13.659362289991172 C 274.1666666666667 13.659362289991172, 275.8333333333333 86.34063771000882, 277.5 86.34063771000882 C 279.1666666666667 86.34063771000882, 280.8333333333333 9.042318580901004, 282.5 9.042318580901004 C 284.1666666666667 9.042318580901004, 285.8333333333333 90.957681419099, 287.5 90.957681419099 C 289.1666666666667 90.957681419099, 290.8333333333333 13.631069031248117, 292.5 13.631069031248117 C 294.1666666666667 13.631069031248117, 295.8333333333333 86.36893096875188, 297.5 86.36893096875188 C 299.1666666666667 86.36893096875188, 300.8333333333333 11.971624583567952, 302.5 11.971624583567952 C 304.1666666666667 11.971624583567952, 305.8333333333333 88.02837541643206, 307.5 88.02837541643206 C 309.1666666666667 88.02837541643206, 310.8333333333333 12.60320361262847, 312.5 12.60320361262847 C 314.1666666666667 12.60320361262847, 315.8333333333333 87.39679638737152, 317.5 87.39679638737152 C 319.1666666666667 87.39679638737152, 320.8333333333333 12.944712173651716, 322.5 12.944712173651716 C 324.1666666666667 12.944712173651716, 325.8333333333333 87.05528782634829, 327.5 87.05528782634829 C 329.1666666666667 87.05528782634829, 330.8333333333333 11.468037924115528, 332.5 11.468037924115528 C 334.1666666666667 11.468037924115528, 335.8333333333333 88.53196207588448, 337.5 88.53196207588448 C 339.1666666666667 88.53196207588448, 340.8333333333333 10.983500033262715, 342.5 10.983500033262715 C 344.1666666666667 10.983500033262715, 345.8333333333333 89.01649996673729, 347.5 89.01649996673729 C 349.1666666666667 89.01649996673729, 350.8333333333333 11.424777659467068, 352.5 11.424777659467068 C 354.1666666666667 11.424777659467068, 355.8333333333333 88.57522234053293, 357.5 88.57522234053293 C 359.1666666666667 88.57522234053293, 360.8333333333333 9.824197435295389, 362.5 9.824197435295389 C 364.1666666666667 9.824197435295389, 365.8333333333333 90.17580256470461, 367.5 90.17580256470461 C 369.1666666666667 90.17580256470461, 370.8333333333333 10.776157828332288, 372.5 10.776157828332288 C 374.1666666666667 10.776157828332288, 375.8333333333333 89.22384217166771, 377.5 89.22384217166771 C 379.1666666666667 89.22384217166771, 380.8333333333333 10.941794678621235, 382.5 10.941794678621235 C 384.1666666666667 10.941794678621235, 385.8333333333333 89.05820532137876, 387.5 89.05820532137876 C 389.1666666666667 89.05820532137876, 390.8333333333333 9.2700230789018, 392.5 9.2700230789018 C 394.1666666666667 9.2700230789018, 395.8333333333333 90.7299769210982, 397.5 90.7299769210982 C 399.1666666666667 90.7299769210982, 400.8333333333333 12.670768849593877, 402.5 12.670768849593877 C 404.1666666666667 12.670768849593877, 405.8333333333333 87.32923115040612, 407.5 87.32923115040612 C 409.1666666666667 87.32923115040612, 410.8333333333333 10.852829826284946, 412.5 10.852829826284946 C 414.1666666666667 10.852829826284946, 415.8333333333333 89.14717017371505, 417.5 89.14717017371505 C 419.1666666666667 89.14717017371505, 420.8333333333333 13.80142573888945, 422.5 13.80142573888945 C 424.1666666666667 13.80142573888945, 425.8333333333333 86.19857426111055, 427.5 86.19857426111055 C 429.1666666666667 86.19857426111055, 430.8333333333333 13.93216041458615, 432.5 13.93216041458615 C 434.1666666666667 13.93216041458615, 435.8333333333333 86.06783958541385, 437.5 86.06783958541385 C 439.1666666666667 86.06783958541385, 440.8333333333333 11.542288384731393, 442.5 11.542288384731393 C 444.1666666666667 11.542288384731393, 445.8333333333333 88.45771161526861, 447.5 88.45771161526861 C 449.1666666666667 88.45771161526861, 450.8333333333333 10.753611444482303, 452.5 10.753611444482303 C 454.1666666666667 10.753611444482303, 455.8333333333333 89.2463885555177, 457.5 89.2463885555177 C 459.1666666666667 89.2463885555177, 460.8333333333333 9.423695279522562, 462.5 9.423695279522562 C 464.1666666666667 9.423695279522562, 465.8333333333333 90.57630472047744, 467.5 90.57630472047744 C 469.1666666666667 90.57630472047744, 470.8333333333333 8.928381627522334, 472.5 8.928381627522334 C 474.1666666666667 8.928381627522334, 475.8333333333333 91.07161837247767, 477.5 91.07161837247767 C 479.1666666666667 91.07161837247767, 480.8333333333333 9.686428007568416, 482.5 9.686428007568416 C 484.1666666666667 9.686428007568416, 485.8333333333333 90.31357199243158, 487.5 90.31357199243158 C 489.1666666666667 90.31357199243158, 490.8333333333333 9.852873871408647, 492.5 9.852873871408647 C 494.1666666666667 9.852873871408647, 495.8333333333333 90.14712612859135, 497.5 90.14712612859135 C 499.1666666666667 90.14712612859135, 500.8333333333333 9.362260107602445, 502.5 9.362260107602445 C 504.1666666666667 9.362260107602445, 505.8333333333333 90.63773989239755, 507.5 90.63773989239755 C 509.1666666666667 90.63773989239755, 510.8333333333333 11.495550408823227, 512.5 11.495550408823227 C 514.1666666666666 11.495550408823227, 515.8333333333334 88.50444959117678, 517.5 88.50444959117678 C 519.1666666666666 88.50444959117678, 520.8333333333334 7.130058547466085, 522.5 7.130058547466085 C 524.1666666666666 7.130058547466085, 525.8333333333334 92.86994145253391, 527.5 92.86994145253391 C 529.1666666666666 92.86994145253391, 530.8333333333334 11.365489751063322, 532.5 11.365489751063322 C 534.1666666666666 11.365489751063322, 535.8333333333334 88.63451024893668, 537.5 88.63451024893668 C 539.1666666666666 88.63451024893668, 540.8333333333334 13.948360808232977, 542.5 13.948360808232977 C 544.1666666666666 13.948360808232977, 545.8333333333334 86.05163919176702, 547.5 86.05163919176702 C 549.1666666666666 86.05163919176702, 550.8333333333334 10.928279271484207, 552.5 10.928279271484207 C 554.1666666666666 10.928279271484207, 555.8333333333334 89.0717207285158, 557.5 89.0717207285158 C 559.1666666666666 89.0717207285158, 560.8333333333334 15.924219911801401, 562.5 15.924219911801401 C 564.1666666666666 15.924219911801401, 565.8333333333334 84.0757800881986, 567.5 84.0757800881986 C 569.1666666666666 84.0757800881986, 570.8333333333334 10.08956424168565, 572.5 10.08956424168565 C 574.1666666666666 10.08956424168565, 575.8333333333334 89.91043575831435, 577.5 89.91043575831435 C 579.1666666666666 89.91043575831435, 580.8333333333334 12.298943280118465, 582.5 12.298943280118465 C 584.1666666666666 12.298943280118465, 585.8333333333334 87.70105671988154, 587.5 87.70105671988154 C 589.1666666666666 87.70105671988154, 590.8333333333334 19.443918544772504, 592.5 19.443918544772504 C 594.1666666666666 19.443918544772504, 595.8333333333334 80.5560814552275, 597.5 80.5560814552275 C 599.1666666666666 80.5560814552275, 600.8333333333334 11.478152374432185, 602.5 11.478152374432185 C 604.1666666666666 11.478152374432185, 605.8333333333334 88.52184762556782, 607.5 88.52184762556782 C 609.1666666666666 88.52184762556782, 610.8333333333334 10.286819888524597, 612.5 10.286819888524597 C 614.1666666666666 10.286819888524597, 615.8333333333334 89.7131801114754, 617.5 89.7131801114754 C 619.1666666666666 89.7131801114754, 620.8333333333334 12.734086152207276, 622.5 12.734086152207276 C 624.1666666666666 12.734086152207276, 625.8333333333334 87.26591384779272, 627.5 87.26591384779272 C 629.1666666666666 87.26591384779272, 630.8333333333334 10.227475570357633, 632.5 10.227475570357633 C 634.1666666666666 10.227475570357633, 635.8333333333334 89.77252442964237, 637.5 89.77252442964237 C 639.1666666666666 89.77252442964237, 640.8333333333334 12.140650249062567, 642.5 12.140650249062567 C 644.1666666666666 12.140650249062567, 645.8333333333334 87.85934975093744, 647.5 87.85934975093744 C 649.1666666666666 87.85934975093744, 650.8333333333334 14.079561631427921, 652.5 14.079561631427921 C 654.1666666666666 14.079561631427921, 655.8333333333334 85.92043836857208, 657.5 85.92043836857208 C 659.1666666666666 85.92043836857208, 660.8333333333334 14.511091385252271, 662.5 14.511091385252271 C 664.1666666666666 14.511091385252271, 665.8333333333334 85.48890861474773, 667.5 85.48890861474773 C 669.1666666666666 85.48890861474773, 670.8333333333334 12.437537980262, 672.5 12.437537980262 C 674.1666666666666 12.437537980262, 675.8333333333334 87.562462019738, 677.5 87.562462019738 C 679.1666666666666 87.562462019738, 680.8333333333334 12.190571737236745, 682.5 12.190571737236745 C 684.1666666666666 12.190571737236745, 685.8333333333334 87.80942826276325, 687.5 87.80942826276325 C 689.1666666666666 87.80942826276325, 690.8333333333334 10.347965688307951, 692.5 10.347965688307951 C 694.1666666666666 10.347965688307951, 695.8333333333334 89.65203431169205, 697.5 89.65203431169205 C 699.1666666666666 89.65203431169205, 700.8333333333334 10.634088142803613, 702.5 10.634088142803613 C 704.1666666666666 10.634088142803613, 705.8333333333334 89.36591185719638, 707.5 89.36591185719638 C 709.1666666666666 89.36591185719638, 710.8333333333334 11.71512286165094, 712.5 11.71512286165094 C 714.1666666666666 11.71512286165094, 715.8333333333334 88.28487713834906, 717.5 88.28487713834906 C 719.1666666666666 88.28487713834906, 720.8333333333334 10.846334232608775, 722.5 10.846334232608775 C 724.1666666666666 10.846334232608775, 725.8333333333334 89.15366576739123, 727.5 89.15366576739123 C 729.1666666666666 89.15366576739123, 730.8333333333334 10.86310936656372, 732.5 10.86310936656372 C 734.1666666666666 10.86310936656372, 735.8333333333334 89.13689063343628, 737.5 89.13689063343628 C 739.1666666666666 89.13689063343628, 740.8333333333334 9.33086536627843, 742.5 9.33086536627843 C 744.1666666666666 9.33086536627843, 745.8333333333334 90.66913463372157, 747.5 90.66913463372157 C 749.1666666666666 90.66913463372157, 750.8333333333334 12.346400759656923, 752.5 12.346400759656923 C 754.1666666666666 12.346400759656923, 755.8333333333334 87.65359924034308, 757.5 87.65359924034308 C 759.1666666666666 87.65359924034308, 760.8333333333334 12.426180898776707, 762.5 12.426180898776707 C 764.1666666666666 12.426180898776707, 765.8333333333334 87.5738191012233, 767.5 87.5738191012233 C 769.1666666666666 87.5738191012233, 770.8333333333334 13.651876429610276, 772.5 13.651876429610276 C 774.1666666666666 13.651876429610276, 775.8333333333334 86.34812357038973, 777.5 86.34812357038973 C 779.1666666666666 86.34812357038973, 780.8333333333334 14.306236652350293, 782.5 14.306236652350293 C 784.1666666666666 14.306236652350293, 785.8333333333334 85.6937633476497, 787.5 85.6937633476497 C 789.1666666666666 85.6937633476497, 790.8333333333334 13.355581516433993, 792.5 13.355581516433993 C 794.1666666666666 13.355581516433993, 795.8333333333334 86.644418483566, 797.5 86.644418483566 C 799.1666666666666 86.644418483566, 800.8333333333334 13.099166012227528, 802.5 13.099166012227528 C 804.1666666666666 13.099166012227528, 805.8333333333334 86.90083398777247, 807.5 86.90083398777247 C 809.1666666666666 86.90083398777247, 810.8333333333334 11.4423667580811, 812.5 11.4423667580811 C 814.1666666666666 11.4423667580811, 815.8333333333334 88.5576332419189, 817.5 88.5576332419189 C 819.1666666666666 88.5576332419189, 820.8333333333334 34.17679269457021, 822.5 34.17679269457021 C 824.1666666666666 34.17679269457021, 825.8333333333334 65.82320730542979, 827.5 65.82320730542979 C 829.1666666666666 65.82320730542979, 830.8333333333334 33.79444323432405, 832.5 33.79444323432405 C 834.1666666666666 33.79444323432405, 835.8333333333334 66.20555676567595, 837.5 66.20555676567595 C 839.1666666666666 66.20555676567595, 840.8333333333334 36.55386652204449, 842.5 36.55386652204449 C 844.1666666666666 36.55386652204449, 845.8333333333334 63.44613347795551, 847.5 63.44613347795551 C 849.1666666666666 63.44613347795551, 850.8333333333334 36.771146203501004, 852.5 36.771146203501004 C 854.1666666666666 36.771146203501004, 855.8333333333334 63.228853796498996, 857.5 63.228853796498996 C 859.1666666666666 63.228853796498996, 860.8333333333334 35.040545602093445, 862.5 35.040545602093445 C 864.1666666666666 35.040545602093445, 865.8333333333334 64.95945439790655, 867.5 64.95945439790655 C 869.1666666666666 64.95945439790655, 870.8333333333334 35.110628255823514, 872.5 35.110628255823514 C 874.1666666666666 35.110628255823514, 875.8333333333334 64.88937174417649, 877.5 64.88937174417649 C 879.1666666666666 64.88937174417649, 880.8333333333334 36.77745861947148, 882.5 36.77745861947148 C 884.1666666666666 36.77745861947148, 885.8333333333334 63.22254138052852, 887.5 63.22254138052852 C 889.1666666666666 63.22254138052852, 890.8333333333334 33.863622555625206, 892.5 33.863622555625206 C 894.1666666666666 33.863622555625206, 895.8333333333334 66.1363774443748, 897.5 66.1363774443748 C 899.1666666666666 66.1363774443748, 900.8333333333334 36.85145566943977, 902.5 36.85145566943977 C 904.1666666666666 36.85145566943977, 905.8333333333334 63.14854433056023, 907.5 63.14854433056023 C 909.1666666666666 63.14854433056023, 910.8333333333334 38.63960175854084, 912.5 38.63960175854084 C 914.1666666666666 38.63960175854084, 915.8333333333334 61.36039824145916, 917.5 61.36039824145916 C 919.1666666666666 61.36039824145916, 920.8333333333334 35.3254093640694, 922.5 35.3254093640694 C 924.1666666666666 35.3254093640694, 925.8333333333334 64.6745906359306, 927.5 64.6745906359306 C 929.1666666666666 64.6745906359306, 930.8333333333334 36.86278308363012, 932.5 36.86278308363012 C 934.1666666666666 36.86278308363012, 935.8333333333334 63.13721691636988, 937.5 63.13721691636988 C 939.1666666666666 63.13721691636988, 940.8333333333334 37.98460382126335, 942.5 37.98460382126335 C 944.1666666666666 37.98460382126335, 945.8333333333334 62.01539617873665, 947.5 62.01539617873665 C 949.1666666666666 62.01539617873665, 950.8333333333334 34.60041969305678, 952.5 34.60041969305678 C 954.1666666666666 34.60041969305678, 955.8333333333334 65.39958030694322, 957.5 65.39958030694322 C 959.1666666666666 65.39958030694322, 960.8333333333334 34.61174462662279, 962.5 34.61174462662279 C 964.1666666666666 34.61174462662279, 965.8333333333334 65.3882553733772, 967.5 65.3882553733772 C 969.1666666666666 65.3882553733772, 970.8333333333334 43.24659301495346, 972.5 43.24659301495346 C 974.1666666666666 43.24659301495346, 975.8333333333334 56.75340698504654, 977.5 56.75340698504654 C 979.1666666666666 56.75340698504654, 980.8333333333334 45.75763346311831, 982.5 45.75763346311831 C 984.1666666666666 45.75763346311831, 985.8333333333334 54.24236653688169, 987.5 54.24236653688169 C 989.1666666666666 54.24236653688169, 990.8333333333334 49.987484155953055, 992.5 49.987484155953055 C 994.1666666666666 49.987484155953055, 995.8333333333334 50.012515844046945, 997.5 50.012515844046945 C 999.1666666666666 50.012515844046945, 1000.8333333333334 50, 1002.5 50 C 1004.1666666666666 50, 1005.8333333333334 50, 1007.5 50 C 1008.4166666666666 50, 1009.3333333333334 50, 1010.25 50 " stroke="white" stroke-width="5" fill="transparent" />
  </g>
</svg>