<svg 
  baseProfile="tiny"
  preserveAspectRatio="keep"
  version="1.2"
  viewBox="-5.000000 -5.000000 1015.000000 105.000000"
  height="100%" width="100%"
  xmlns="http://www.w3.org/2000/svg"
  xmlns:ev="http://www.w3.org/2001/xml-events"
  xmlns:xlink="http://www.w3.org/1999/xlink"
>
  <g style="transform-origin: center center;">
    <path d="M -0.250000 50.000000 C 4 50, 8.25 50, 12.5 50 C 14.166666666666666 50, 15.833333333333334 50, 17.5 50 C 19.166666666666668 50, 20.833333333333332 49.58862341336032, 22.5 49.58862341336032 C 24.166666666666668 49.58862341336032, 25.833333333333332 50.41137658663968, 27.5 50.41137658663968 C 29.166666666666668 50.41137658663968, 30.833333333333332 40.05919665890411, 32.5 40.05919665890411 C 34.166666666666664 40.05919665890411, 35.833333333333336 59.94080334109589, 37.5 59.94080334109589 C 39.166666666666664 59.94080334109589, 40.833333333333336 34.52195485144016, 42.5 34.52195485144016 C 44.166666666666664 34.52195485144016, 45.833333333333336 65.47804514855984, 47.5 65.47804514855984 C 49.166666666666664 65.47804514855984, 50.833333333333336 20.52675464816004, 52.5 20.52675464816004 C 54.166666666666664 20.52675464816004, 55.833333333333336 79.47324535183996, 57.5 79.47324535183996 C 59.166666666666664 79.47324535183996, 60.833333333333336 27.85942616643588, 62.5 27.85942616643588 C 64.16666666666667 27.85942616643588, 65.83333333333333 72.14057383356412, 67.5 72.14057383356412 C 69.16666666666667 72.14057383356412, 70.83333333333333 22.15777640447531, 72.5 22.15777640447531 C 74.16666666666667 22.15777640447531, 75.83333333333333 77.84222359552469, 77.5 77.84222359552469 C 79.16666666666667 77.84222359552469, 80.83333333333333 34.330722665957865, 82.5 34.330722665957865 C 84.16666666666667 34.330722665957865, 85.83333333333333 65.66927733404214, 87.5 65.66927733404214 C 89.16666666666667 65.66927733404214, 90.83333333333333 18.11661104927308, 92.5 18.11661104927308 C 94.16666666666667 18.11661104927308, 95.83333333333333 81.88338895072692, 97.5 81.88338895072692 C 99.16666666666667 81.88338895072692, 100.83333333333333 34.225757763953524, 102.5 34.225757763953524 C 104.16666666666667 34.225757763953524, 105.83333333333333 65.77424223604648, 107.5 65.77424223604648 C 109.16666666666667 65.77424223604648, 110.83333333333333 13.111934158520128, 112.5 13.111934158520128 C 114.16666666666667 13.111934158520128, 115.83333333333333 86.88806584147987, 117.5 86.88806584147987 C 119.16666666666667 86.88806584147987, 120.83333333333333 6.140508340044093, 122.5 6.140508340044093 C 124.16666666666667 6.140508340044093, 125.83333333333333 93.8594916599559, 127.5 93.8594916599559 C 129.16666666666666 93.8594916599559, 130.83333333333334 3.687304762258833, 132.5 3.687304762258833 C 134.16666666666666 3.687304762258833, 135.83333333333334 96.31269523774117, 137.5 96.31269523774117 C 139.16666666666666 96.31269523774117, 140.83333333333334 8.33826184644714, 142.5 8.33826184644714 C 144.16666666666666 8.33826184644714, 145.83333333333334 91.66173815355286, 147.5 91.66173815355286 C 149.16666666666666 91.66173815355286, 150.83333333333334 10.809132829668613, 152.5 10.809132829668613 C 154.16666666666666 10.809132829668613, 155.83333333333334 89.19086717033139, 157.5 89.19086717033139 C 159.16666666666666 89.19086717033139, 160.83333333333334 7.395219285950205, 162.5 7.395219285950205 C 164.16666666666666 7.395219285950205, 165.83333333333334 92.6047807140498, 167.5 92.6047807140498 C 169.16666666666666 92.6047807140498, 170.83333333333334 5.658939356556203, 172.5 5.658939356556203 C 174.16666666666666 5.658939356556203, 175.83333333333334 94.3410606434438, 177.5 94.3410606434438 C 179.16666666666666 94.3410606434438, 180.83333333333334 10.389185906930479, 182.5 10.389185906930479 C 184.16666666666666 10.389185906930479, 185.83333333333334 89.61081409306952, 187.5 89.61081409306952 C 189.16666666666666 89.61081409306952, 190.83333333333334 9.938829356435818, 192.5 9.938829356435818 C 194.16666666666666 9.938829356435818, 195.83333333333334 90.06117064356418, 197.5 90.06117064356418 C 199.16666666666666 90.06117064356418, 200.83333333333334 0.41793574224190166, 202.5 0.41793574224190166 C 204.16666666666666 0.41793574224190166, 205.83333333333334 99.5820642577581, 207.5 99.5820642577581 C 209.16666666666666 99.5820642577581, 210.83333333333334 3.5319301293135155, 212.5 3.5319301293135155 C 214.16666666666666 3.5319301293135155, 215.83333333333334 96.46806987068649, 217.5 96.46806987068649 C 219.16666666666666 96.46806987068649, 220.83333333333334 8.096329821309368, 222.5 8.096329821309368 C 224.16666666666666 8.096329821309368, 225.83333333333334 91.90367017869063, 227.5 91.90367017869063 C 229.16666666666666 91.90367017869063, 230.83333333333334 7.484878395930991, 232.5 7.484878395930991 C 234.16666666666666 7.484878395930991, 235.83333333333334 92.51512160406901, 237.5 92.51512160406901 C 239.16666666666666 92.51512160406901, 240.83333333333334 2.116074786412547, 242.5 2.116074786412547 C 244.16666666666666 2.116074786412547, 245.83333333333334 97.88392521358745, 247.5 97.88392521358745 C 249.16666666666666 97.88392521358745, 250.83333333333334 3.516984245769791, 252.5 3.516984245769791 C 254.16666666666666 3.516984245769791, 255.83333333333334 96.48301575423021, 257.5 96.48301575423021 C 259.1666666666667 96.48301575423021, 260.8333333333333 6.610673663692552, 262.5 6.610673663692552 C 264.1666666666667 6.610673663692552, 265.8333333333333 93.38932633630745, 267.5 93.38932633630745 C 269.1666666666667 93.38932633630745, 270.8333333333333 4.4657947571436765, 272.5 4.4657947571436765 C 274.1666666666667 4.4657947571436765, 275.8333333333333 95.53420524285633, 277.5 95.53420524285633 C 279.1666666666667 95.53420524285633, 280.8333333333333 10.093608705416102, 282.5 10.093608705416102 C 284.1666666666667 10.093608705416102, 285.8333333333333 89.9063912945839, 287.5 89.9063912945839 C 289.1666666666667 89.9063912945839, 290.8333333333333 0, 292.5 0 C 294.1666666666667 0, 295.8333333333333 100, 297.5 100 C 299.1666666666667 100, 300.8333333333333 9.731663055718023, 302.5 9.731663055718023 C 304.1666666666667 9.731663055718023, 305.8333333333333 90.26833694428197, 307.5 90.26833694428197 C 309.1666666666667 90.26833694428197, 310.8333333333333 3.7770726204950478, 312.5 3.7770726204950478 C 314.1666666666667 3.7770726204950478, 315.8333333333333 96.22292737950495, 317.5 96.22292737950495 C 319.1666666666667 96.22292737950495, 320.8333333333333 8.209474396208357, 322.5 8.209474396208357 C 324.1666666666667 8.209474396208357, 325.8333333333333 91.79052560379165, 327.5 91.79052560379165 C 329.1666666666667 91.79052560379165, 330.8333333333333 2.7980488403492743, 332.5 2.7980488403492743 C 334.1666666666667 2.7980488403492743, 335.8333333333333 97.20195115965072, 337.5 97.20195115965072 C 339.1666666666667 97.20195115965072, 340.8333333333333 11.39537079654579, 342.5 11.39537079654579 C 344.1666666666667 11.39537079654579, 345.8333333333333 88.60462920345421, 347.5 88.60462920345421 C 349.1666666666667 88.60462920345421, 350.8333333333333 2.723399071243165, 352.5 2.723399071243165 C 354.1666666666667 2.723399071243165, 355.8333333333333 97.27660092875684, 357.5 97.27660092875684 C 359.1666666666667 97.27660092875684, 360.8333333333333 6.399469116107632, 362.5 6.399469116107632 C 364.1666666666667 6.399469116107632, 365.8333333333333 93.60053088389236, 367.5 93.60053088389236 C 369.1666666666667 93.60053088389236, 370.8333333333333 1.6212072660074313, 372.5 1.6212072660074313 C 374.1666666666667 1.6212072660074313, 375.8333333333333 98.37879273399257, 377.5 98.37879273399257 C 379.1666666666667 98.37879273399257, 380.8333333333333 6.78392799731035, 382.5 6.78392799731035 C 384.1666666666667 6.78392799731035, 385.8333333333333 93.21607200268966, 387.5 93.21607200268966 C 389.1666666666667 93.21607200268966, 390.8333333333333 1.2847473402886322, 392.5 1.2847473402886322 C 394.1666666666667 1.2847473402886322, 395.8333333333333 98.71525265971137, 397.5 98.71525265971137 C 399.1666666666667 98.71525265971137, 400.8333333333333 6.879465816693688, 402.5 6.879465816693688 C 404.1666666666667 6.879465816693688, 405.8333333333333 93.12053418330632, 407.5 93.12053418330632 C 409.1666666666667 93.12053418330632, 410.8333333333333 0.5599372316355726, 412.5 0.5599372316355726 C 414.1666666666667 0.5599372316355726, 415.8333333333333 99.44006276836443, 417.5 99.44006276836443 C 419.1666666666667 99.44006276836443, 420.8333333333333 0.6257828319043313, 422.5 0.6257828319043313 C 424.1666666666667 0.6257828319043313, 425.8333333333333 99.37421716809567, 427.5 99.37421716809567 C 429.1666666666667 99.37421716809567, 430.8333333333333 4.150385389030866, 432.5 4.150385389030866 C 434.1666666666667 4.150385389030866, 435.8333333333333 95.84961461096913, 437.5 95.84961461096913 C 439.1666666666667 95.84961461096913, 440.8333333333333 6.23503179595069, 442.5 6.23503179595069 C 444.1666666666667 6.23503179595069, 445.8333333333333 93.76496820404931, 447.5 93.76496820404931 C 449.1666666666667 93.76496820404931, 450.8333333333333 4.799436552811642, 452.5 4.799436552811642 C 454.1666666666667 4.799436552811642, 455.8333333333333 95.20056344718836, 457.5 95.20056344718836 C 459.1666666666667 95.20056344718836, 460.8333333333333 0.5267064170427744, 462.5 0.5267064170427744 C 464.1666666666667 0.5267064170427744, 465.8333333333333 99.47329358295723, 467.5 99.47329358295723 C 469.1666666666667 99.47329358295723, 470.8333333333333 4.113764254423543, 472.5 4.113764254423543 C 474.1666666666667 4.113764254423543, 475.8333333333333 95.88623574557646, 477.5 95.88623574557646 C 479.1666666666667 95.88623574557646, 480.8333333333333 5.277805162284608, 482.5 5.277805162284608 C 484.1666666666667 5.277805162284608, 485.8333333333333 94.72219483771539, 487.5 94.72219483771539 C 489.1666666666667 94.72219483771539, 490.8333333333333 6.781668421782463, 492.5 6.781668421782463 C 494.1666666666667 6.781668421782463, 495.8333333333333 93.21833157821754, 497.5 93.21833157821754 C 499.1666666666667 93.21833157821754, 500.8333333333333 6.896865474014085, 502.5 6.896865474014085 C 504.1666666666667 6.896865474014085, 505.8333333333333 93.10313452598592, 507.5 93.10313452598592 C 509.1666666666667 93.10313452598592, 510.8333333333333 7.242832677908922, 512.5 7.242832677908922 C 514.1666666666666 7.242832677908922, 515.8333333333334 92.75716732209108, 517.5 92.75716732209108 C 519.1666666666666 92.75716732209108, 520.8333333333334 8.055932165529477, 522.5 8.055932165529477 C 524.1666666666666 8.055932165529477, 525.8333333333334 91.94406783447053, 527.5 91.94406783447053 C 529.1666666666666 91.94406783447053, 530.8333333333334 6.67309138031483, 532.5 6.67309138031483 C 534.1666666666666 6.67309138031483, 535.8333333333334 93.32690861968517, 537.5 93.32690861968517 C 539.1666666666666 93.32690861968517, 540.8333333333334 16.141350647213514, 542.5 16.141350647213514 C 544.1666666666666 16.141350647213514, 545.8333333333334 83.85864935278649, 547.5 83.85864935278649 C 549.1666666666666 83.85864935278649, 550.8333333333334 17.17730162551694, 552.5 17.17730162551694 C 554.1666666666666 17.17730162551694, 555.8333333333334 82.82269837448305, 557.5 82.82269837448305 C 559.1666666666666 82.82269837448305, 560.8333333333334 16.089008619231507, 562.5 16.089008619231507 C 564.1666666666666 16.089008619231507, 565.8333333333334 83.9109913807685, 567.5 83.9109913807685 C 569.1666666666666 83.9109913807685, 570.8333333333334 14.913873168186988, 572.5 14.913873168186988 C 574.1666666666666 14.913873168186988, 575.8333333333334 85.086126831813, 577.5 85.086126831813 C 579.1666666666666 85.086126831813, 580.8333333333334 19.33499167306762, 582.5 19.33499167306762 C 584.1666666666666 19.33499167306762, 585.8333333333334 80.66500832693238, 587.5 80.66500832693238 C 589.1666666666666 80.66500832693238, 590.8333333333334 12.58850019688861, 592.5 12.58850019688861 C 594.1666666666666 12.58850019688861, 595.8333333333334 87.41149980311138, 597.5 87.41149980311138 C 599.1666666666666 87.41149980311138, 600.8333333333334 21.044874096047195, 602.5 21.044874096047195 C 604.1666666666666 21.044874096047195, 605.8333333333334 78.9551259039528, 607.5 78.9551259039528 C 609.1666666666666 78.9551259039528, 610.8333333333334 19.156227503876526, 612.5 19.156227503876526 C 614.1666666666666 19.156227503876526, 615.8333333333334 80.84377249612348, 617.5 80.84377249612348 C 619.1666666666666 80.84377249612348, 620.8333333333334 24.610789952959262, 622.5 24.610789952959262 C 624.1666666666666 24.610789952959262, 625.8333333333334 75.38921004704073, 627.5 75.38921004704073 C 629.1666666666666 75.38921004704073, 630.8333333333334 22.718386864845453, 632.5 22.718386864845453 C 634.1666666666666 22.718386864845453, 635.8333333333334 77.28161313515454, 637.5 77.28161313515454 C 639.1666666666666 77.28161313515454, 640.8333333333334 23.85934763163101, 642.5 23.85934763163101 C 644.1666666666666 23.85934763163101, 645.8333333333334 76.14065236836899, 647.5 76.14065236836899 C 649.1666666666666 76.14065236836899, 650.8333333333334 18.879432083156633, 652.5 18.879432083156633 C 654.1666666666666 18.879432083156633, 655.8333333333334 81.12056791684337, 657.5 81.12056791684337 C 659.1666666666666 81.12056791684337, 660.8333333333334 21.470947713117578, 662.5 21.470947713117578 C 664.1666666666666 21.470947713117578, 665.8333333333334 78.52905228688242, 667.5 78.52905228688242 C 669.1666666666666 78.52905228688242, 670.8333333333334 17.567375174650017, 672.5 17.567375174650017 C 674.1666666666666 17.567375174650017, 675.8333333333334 82.43262482534999, 677.5 82.43262482534999 C 679.1666666666666 82.43262482534999, 680.8333333333334 18.040883116237836, 682.5 18.040883116237836 C 684.1666666666666 18.040883116237836, 685.8333333333334 81.95911688376216, 687.5 81.95911688376216 C 689.1666666666666 81.95911688376216, 690.8333333333334 17.85801787899647, 692.5 17.85801787899647 C 694.1666666666666 17.85801787899647, 695.8333333333334 82.14198212100354, 697.5 82.14198212100354 C 699.1666666666666 82.14198212100354, 700.8333333333334 19.986912118750727, 702.5 19.986912118750727 C 704.1666666666666 19.986912118750727, 705.8333333333334 80.01308788124928, 707.5 80.01308788124928 C 709.1666666666666 80.01308788124928, 710.8333333333334 19.647053948849035, 712.5 19.647053948849035 C 714.1666666666666 19.647053948849035, 715.8333333333334 80.35294605115097, 717.5 80.35294605115097 C 719.1666666666666 80.35294605115097, 720.8333333333334 15.345791442523762, 722.5 15.345791442523762 C 724.1666666666666 15.345791442523762, 725.8333333333334 84.65420855747624, 727.5 84.65420855747624 C 729.1666666666666 84.65420855747624, 730.8333333333334 16.192648010090615, 732.5 16.192648010090615 C 734.1666666666666 16.192648010090615, 735.8333333333334 83.80735198990939, 737.5 83.80735198990939 C 739.1666666666666 83.80735198990939, 740.8333333333334 16.92053452024831, 742.5 16.92053452024831 C 744.1666666666666 16.92053452024831, 745.8333333333334 83.07946547975169, 747.5 83.07946547975169 C 749.1666666666666 83.07946547975169, 750.8333333333334 14.0936388157008, 752.5 14.0936388157008 C 754.1666666666666 14.0936388157008, 755.8333333333334 85.9063611842992, 757.5 85.9063611842992 C 759.1666666666666 85.9063611842992, 760.8333333333334 17.175175752297122, 762.5 17.175175752297122 C 764.1666666666666 17.175175752297122, 765.8333333333334 82.82482424770288, 767.5 82.82482424770288 C 769.1666666666666 82.82482424770288, 770.8333333333334 15.445510184919875, 772.5 15.445510184919875 C 774.1666666666666 15.445510184919875, 775.8333333333334 84.55448981508013, 777.5 84.55448981508013 C 779.1666666666666 84.55448981508013, 780.8333333333334 18.11937383024057, 782.5 18.11937383024057 C 784.1666666666666 18.11937383024057, 785.8333333333334 81.88062616975944, 787.5 81.88062616975944 C 789.1666666666666 81.88062616975944, 790.8333333333334 17.947537417044835, 792.5 17.947537417044835 C 794.1666666666666 17.947537417044835, 795.8333333333334 82.05246258295517, 797.5 82.05246258295517 C 799.1666666666666 82.05246258295517, 800.8333333333334 17.641101558475206, 802.5 17.641101558475206 C 804.1666666666666 17.641101558475206, 805.8333333333334 82.35889844152479, 807.5 82.35889844152479 C 809.1666666666666 82.35889844152479, 810.8333333333334 13.0519093517769, 812.5 13.0519093517769 C 814.1666666666666 13.0519093517769, 815.8333333333334 86.9480906482231, 817.5 86.9480906482231 C 819.1666666666666 86.9480906482231, 820.8333333333334 18.315768077123657, 822.5 18.315768077123657 C 824.1666666666666 18.315768077123657, 825.8333333333334 81.68423192287634, 827.5 81.68423192287634 C 829.1666666666666 81.68423192287634, 830.8333333333334 12.692406812989326, 832.5 12.692406812989326 C 834.1666666666666 12.692406812989326, 835.8333333333334 87.30759318701067, 837.5 87.30759318701067 C 839.1666666666666 87.30759318701067, 840.8333333333334 17.835405838599684, 842.5 17.835405838599684 C 844.1666666666666 17.835405838599684, 845.8333333333334 82.16459416140032, 847.5 82.16459416140032 C 849.1666666666666 82.16459416140032, 850.8333333333334 9.443225306887761, 852.5 9.443225306887761 C 854.1666666666666 9.443225306887761, 855.8333333333334 90.55677469311223, 857.5 90.55677469311223 C 859.1666666666666 90.55677469311223, 860.8333333333334 20.602971879411385, 862.5 20.602971879411385 C 864.1666666666666 20.602971879411385, 865.8333333333334 79.39702812058862, 867.5 79.39702812058862 C 869.1666666666666 79.39702812058862, 870.8333333333334 12.372571654218447, 872.5 12.372571654218447 C 874.1666666666666 12.372571654218447, 875.8333333333334 87.62742834578155, 877.5 87.62742834578155 C 879.1666666666666 87.62742834578155, 880.8333333333334 17.596936640365627, 882.5 17.596936640365627 C 884.1666666666666 17.596936640365627, 885.8333333333334 82.40306335963437, 887.5 82.40306335963437 C 889.1666666666666 82.40306335963437, 890.8333333333334 17.573771217000655, 892.5 17.573771217000655 C 894.1666666666666 17.573771217000655, 895.8333333333334 82.42622878299935, 897.5 82.42622878299935 C 899.1666666666666 82.42622878299935, 900.8333333333334 22.92279512317287, 902.5 22.92279512317287 C 904.1666666666666 22.92279512317287, 905.8333333333334 77.07720487682712, 907.5 77.07720487682712 C 909.1666666666666 77.07720487682712, 910.8333333333334 30.473400657565143, 912.5 30.473400657565143 C 914.1666666666666 30.473400657565143, 915.8333333333334 69.52659934243485, 917.5 69.52659934243485 C 919.1666666666666 69.52659934243485, 920.8333333333334 50, 922.5 50 C 924.1666666666666 50, 925.8333333333334 50, 927.5 50 C 929.1666666666666 50, 930.8333333333334 40.21278416057629, 932.5 40.21278416057629 C 934.1666666666666 40.21278416057629, 935.8333333333334 59.78721583942371, 937.5 59.78721583942371 C 939.1666666666666 59.78721583942371, 940.8333333333334 42.393333527146545, 942.5 42.393333527146545 C 944.1666666666666 42.393333527146545, 945.8333333333334 57.606666472853455, 947.5 57.606666472853455 C 949.1666666666666 57.606666472853455, 950.8333333333334 35.21426831794828, 952.5 35.21426831794828 C 954.1666666666666 35.21426831794828, 955.8333333333334 64.78573168205172, 957.5 64.78573168205172 C 959.1666666666666 64.78573168205172, 960.8333333333334 40.43420975277864, 962.5 40.43420975277864 C 964.1666666666666 40.43420975277864, 965.8333333333334 59.56579024722136, 967.5 59.56579024722136 C 969.1666666666666 59.56579024722136, 970.8333333333334 38.37735477456175, 972.5 38.37735477456175 C 974.1666666666666 38.37735477456175, 975.8333333333334 61.62264522543825, 977.5 61.62264522543825 C 979.1666666666666 61.62264522543825, 980.8333333333334 46.9961774256606, 982.5 46.9961774256606 C 984.1666666666666 46.9961774256606, 985.8333333333334 53.0038225743394, 987.5 53.0038225743394 C 989.1666666666666 53.0038225743394, 990.8333333333334 49.569257839167264, 992.5 49.569257839167264 C 994.1666666666666 49.569257839167264, 995.8333333333334 50.430742160832736, 997.5 50.430742160832736 C 999.1666666666666 50.430742160832736, 1000.8333333333334 50, 1002.5 50 C 1004.1666666666666 50, 1005.8333333333334 50, 1007.5 50 C 1008.4166666666666 50, 1009.3333333333334 50, 1010.25 50 " stroke="white" stroke-width="5" fill="transparent" />
  </g>
</svg>