<svg 
  baseProfile="tiny"
  preserveAspectRatio="keep"
  version="1.2"
  viewBox="-5.000000 -5.000000 1015.000000 105.000000"
  height="100%" width="100%"
  xmlns="http://www.w3.org/2000/svg"
  xmlns:ev="http://www.w3.org/2001/xml-events"
  xmlns:xlink="http://www.w3.org/1999/xlink"
>
  <g style="transform-origin: center center;">
    <path d="M -0.250000 50.000000 C 4 50, 8.25 50, 12.5 50 C 14.166666666666666 50, 15.833333333333334 50, 17.5 50 C 19.166666666666668 50, 20.833333333333332 49.837471914938696, 22.5 49.837471914938696 C 24.166666666666668 49.837471914938696, 25.833333333333332 50.162528085061304, 27.5 50.162528085061304 C 29.166666666666668 50.162528085061304, 30.833333333333332 44.298911665773865, 32.5 44.298911665773865 C 34.166666666666664 44.298911665773865, 35.833333333333336 55.701088334226135, 37.5 55.701088334226135 C 39.166666666666664 55.701088334226135, 40.833333333333336 35.96619337435581, 42.5 35.96619337435581 C 44.166666666666664 35.96619337435581, 45.833333333333336 64.03380662564419, 47.5 64.03380662564419 C 49.166666666666664 64.03380662564419, 50.833333333333336 37.591092371354236, 52.5 37.591092371354236 C 54.166666666666664 37.591092371354236, 55.833333333333336 62.408907628645764, 57.5 62.408907628645764 C 59.166666666666664 62.408907628645764, 60.833333333333336 29.658810206919316, 62.5 29.658810206919316 C 64.16666666666667 29.658810206919316, 65.83333333333333 70.34118979308069, 67.5 70.34118979308069 C 69.16666666666667 70.34118979308069, 70.83333333333333 25.157011028838223, 72.5 25.157011028838223 C 74.16666666666667 25.157011028838223, 75.83333333333333 74.84298897116177, 77.5 74.84298897116177 C 79.16666666666667 74.84298897116177, 80.83333333333333 24.41916108757114, 82.5 24.41916108757114 C 84.16666666666667 24.41916108757114, 85.83333333333333 75.58083891242886, 87.5 75.58083891242886 C 89.16666666666667 75.58083891242886, 90.83333333333333 23.65923048768941, 92.5 23.65923048768941 C 94.16666666666667 23.65923048768941, 95.83333333333333 76.34076951231059, 97.5 76.34076951231059 C 99.16666666666667 76.34076951231059, 100.83333333333333 27.460800801199213, 102.5 27.460800801199213 C 104.16666666666667 27.460800801199213, 105.83333333333333 72.53919919880079, 107.5 72.53919919880079 C 109.16666666666667 72.53919919880079, 110.83333333333333 34.77192533462335, 112.5 34.77192533462335 C 114.16666666666667 34.77192533462335, 115.83333333333333 65.22807466537665, 117.5 65.22807466537665 C 119.16666666666667 65.22807466537665, 120.83333333333333 23.267987759437382, 122.5 23.267987759437382 C 124.16666666666667 23.267987759437382, 125.83333333333333 76.73201224056263, 127.5 76.73201224056263 C 129.16666666666666 76.73201224056263, 130.83333333333334 30.72589309233598, 132.5 30.72589309233598 C 134.16666666666666 30.72589309233598, 135.83333333333334 69.27410690766402, 137.5 69.27410690766402 C 139.16666666666666 69.27410690766402, 140.83333333333334 29.391648761308943, 142.5 29.391648761308943 C 144.16666666666666 29.391648761308943, 145.83333333333334 70.60835123869106, 147.5 70.60835123869106 C 149.16666666666666 70.60835123869106, 150.83333333333334 20.625453459961346, 152.5 20.625453459961346 C 154.16666666666666 20.625453459961346, 155.83333333333334 79.37454654003865, 157.5 79.37454654003865 C 159.16666666666666 79.37454654003865, 160.83333333333334 29.955054516414364, 162.5 29.955054516414364 C 164.16666666666666 29.955054516414364, 165.83333333333334 70.04494548358564, 167.5 70.04494548358564 C 169.16666666666666 70.04494548358564, 170.83333333333334 28.021960751832285, 172.5 28.021960751832285 C 174.16666666666666 28.021960751832285, 175.83333333333334 71.97803924816772, 177.5 71.97803924816772 C 179.16666666666666 71.97803924816772, 180.83333333333334 25.045383654514293, 182.5 25.045383654514293 C 184.16666666666666 25.045383654514293, 185.83333333333334 74.9546163454857, 187.5 74.9546163454857 C 189.16666666666666 74.9546163454857, 190.83333333333334 26.362826090479917, 192.5 26.362826090479917 C 194.16666666666666 26.362826090479917, 195.83333333333334 73.63717390952009, 197.5 73.63717390952009 C 199.16666666666666 73.63717390952009, 200.83333333333334 23.720799284502885, 202.5 23.720799284502885 C 204.16666666666666 23.720799284502885, 205.83333333333334 76.27920071549711, 207.5 76.27920071549711 C 209.16666666666666 76.27920071549711, 210.83333333333334 36.58221580428577, 212.5 36.58221580428577 C 214.16666666666666 36.58221580428577, 215.83333333333334 63.41778419571423, 217.5 63.41778419571423 C 219.16666666666666 63.41778419571423, 220.83333333333334 28.32922592270855, 222.5 28.32922592270855 C 224.16666666666666 28.32922592270855, 225.83333333333334 71.67077407729145, 227.5 71.67077407729145 C 229.16666666666666 71.67077407729145, 230.83333333333334 18.056798111177656, 232.5 18.056798111177656 C 234.16666666666666 18.056798111177656, 235.83333333333334 81.94320188882234, 237.5 81.94320188882234 C 239.16666666666666 81.94320188882234, 240.83333333333334 24.743084704710032, 242.5 24.743084704710032 C 244.16666666666666 24.743084704710032, 245.83333333333334 75.25691529528997, 247.5 75.25691529528997 C 249.16666666666666 75.25691529528997, 250.83333333333334 19.413393868805873, 252.5 19.413393868805873 C 254.16666666666666 19.413393868805873, 255.83333333333334 80.58660613119413, 257.5 80.58660613119413 C 259.1666666666667 80.58660613119413, 260.8333333333333 23.64686092678318, 262.5 23.64686092678318 C 264.1666666666667 23.64686092678318, 265.8333333333333 76.35313907321682, 267.5 76.35313907321682 C 269.1666666666667 76.35313907321682, 270.8333333333333 28.496228185135738, 272.5 28.496228185135738 C 274.1666666666667 28.496228185135738, 275.8333333333333 71.50377181486427, 277.5 71.50377181486427 C 279.1666666666667 71.50377181486427, 280.8333333333333 24.02491616508612, 282.5 24.02491616508612 C 284.1666666666667 24.02491616508612, 285.8333333333333 75.97508383491387, 287.5 75.97508383491387 C 289.1666666666667 75.97508383491387, 290.8333333333333 13.407245064685547, 292.5 13.407245064685547 C 294.1666666666667 13.407245064685547, 295.8333333333333 86.59275493531445, 297.5 86.59275493531445 C 299.1666666666667 86.59275493531445, 300.8333333333333 15.82966880886601, 302.5 15.82966880886601 C 304.1666666666667 15.82966880886601, 305.8333333333333 84.17033119113398, 307.5 84.17033119113398 C 309.1666666666667 84.17033119113398, 310.8333333333333 14.562929024431561, 312.5 14.562929024431561 C 314.1666666666667 14.562929024431561, 315.8333333333333 85.43707097556845, 317.5 85.43707097556845 C 319.1666666666667 85.43707097556845, 320.8333333333333 14.646662148667652, 322.5 14.646662148667652 C 324.1666666666667 14.646662148667652, 325.8333333333333 85.35333785133236, 327.5 85.35333785133236 C 329.1666666666667 85.35333785133236, 330.8333333333333 15.712468926359534, 332.5 15.712468926359534 C 334.1666666666667 15.712468926359534, 335.8333333333333 84.28753107364047, 337.5 84.28753107364047 C 339.1666666666667 84.28753107364047, 340.8333333333333 13.138602268295479, 342.5 13.138602268295479 C 344.1666666666667 13.138602268295479, 345.8333333333333 86.86139773170453, 347.5 86.86139773170453 C 349.1666666666667 86.86139773170453, 350.8333333333333 15.36724198328411, 352.5 15.36724198328411 C 354.1666666666667 15.36724198328411, 355.8333333333333 84.63275801671588, 357.5 84.63275801671588 C 359.1666666666667 84.63275801671588, 360.8333333333333 14.383721572290511, 362.5 14.383721572290511 C 364.1666666666667 14.383721572290511, 365.8333333333333 85.61627842770949, 367.5 85.61627842770949 C 369.1666666666667 85.61627842770949, 370.8333333333333 13.045460597947908, 372.5 13.045460597947908 C 374.1666666666667 13.045460597947908, 375.8333333333333 86.95453940205209, 377.5 86.95453940205209 C 379.1666666666667 86.95453940205209, 380.8333333333333 17.80710153618473, 382.5 17.80710153618473 C 384.1666666666667 17.80710153618473, 385.8333333333333 82.19289846381527, 387.5 82.19289846381527 C 389.1666666666667 82.19289846381527, 390.8333333333333 21.380519255034695, 392.5 21.380519255034695 C 394.1666666666667 21.380519255034695, 395.8333333333333 78.6194807449653, 397.5 78.6194807449653 C 399.1666666666667 78.6194807449653, 400.8333333333333 20.901467355168123, 402.5 20.901467355168123 C 404.1666666666667 20.901467355168123, 405.8333333333333 79.09853264483188, 407.5 79.09853264483188 C 409.1666666666667 79.09853264483188, 410.8333333333333 9.104447281206625, 412.5 9.104447281206625 C 414.1666666666667 9.104447281206625, 415.8333333333333 90.89555271879337, 417.5 90.89555271879337 C 419.1666666666667 90.89555271879337, 420.8333333333333 1.8998041150588207, 422.5 1.8998041150588207 C 424.1666666666667 1.8998041150588207, 425.8333333333333 98.10019588494117, 427.5 98.10019588494117 C 429.1666666666667 98.10019588494117, 430.8333333333333 15.708041590028607, 432.5 15.708041590028607 C 434.1666666666667 15.708041590028607, 435.8333333333333 84.29195840997139, 437.5 84.29195840997139 C 439.1666666666667 84.29195840997139, 440.8333333333333 16.64166862765652, 442.5 16.64166862765652 C 444.1666666666667 16.64166862765652, 445.8333333333333 83.35833137234349, 447.5 83.35833137234349 C 449.1666666666667 83.35833137234349, 450.8333333333333 23.035456876411047, 452.5 23.035456876411047 C 454.1666666666667 23.035456876411047, 455.8333333333333 76.96454312358895, 457.5 76.96454312358895 C 459.1666666666667 76.96454312358895, 460.8333333333333 18.826751829802426, 462.5 18.826751829802426 C 464.1666666666667 18.826751829802426, 465.8333333333333 81.17324817019758, 467.5 81.17324817019758 C 469.1666666666667 81.17324817019758, 470.8333333333333 3.646873303290022, 472.5 3.646873303290022 C 474.1666666666667 3.646873303290022, 475.8333333333333 96.35312669670998, 477.5 96.35312669670998 C 479.1666666666667 96.35312669670998, 480.8333333333333 10.2186617783398, 482.5 10.2186617783398 C 484.1666666666667 10.2186617783398, 485.8333333333333 89.7813382216602, 487.5 89.7813382216602 C 489.1666666666667 89.7813382216602, 490.8333333333333 9.04156514120556, 492.5 9.04156514120556 C 494.1666666666667 9.04156514120556, 495.8333333333333 90.95843485879445, 497.5 90.95843485879445 C 499.1666666666667 90.95843485879445, 500.8333333333333 14.235815993416665, 502.5 14.235815993416665 C 504.1666666666667 14.235815993416665, 505.8333333333333 85.76418400658333, 507.5 85.76418400658333 C 509.1666666666667 85.76418400658333, 510.8333333333333 19.97613628671469, 512.5 19.97613628671469 C 514.1666666666666 19.97613628671469, 515.8333333333334 80.02386371328531, 517.5 80.02386371328531 C 519.1666666666666 80.02386371328531, 520.8333333333334 9.713802270614991, 522.5 9.713802270614991 C 524.1666666666666 9.713802270614991, 525.8333333333334 90.28619772938501, 527.5 90.28619772938501 C 529.1666666666666 90.28619772938501, 530.8333333333334 20.638159435917707, 532.5 20.638159435917707 C 534.1666666666666 20.638159435917707, 535.8333333333334 79.36184056408229, 537.5 79.36184056408229 C 539.1666666666666 79.36184056408229, 540.8333333333334 16.85318639197972, 542.5 16.85318639197972 C 544.1666666666666 16.85318639197972, 545.8333333333334 83.14681360802028, 547.5 83.14681360802028 C 549.1666666666666 83.14681360802028, 550.8333333333334 12.95407031087553, 552.5 12.95407031087553 C 554.1666666666666 12.95407031087553, 555.8333333333334 87.04592968912448, 557.5 87.04592968912448 C 559.1666666666666 87.04592968912448, 560.8333333333334 10.601884204833404, 562.5 10.601884204833404 C 564.1666666666666 10.601884204833404, 565.8333333333334 89.3981157951666, 567.5 89.3981157951666 C 569.1666666666666 89.3981157951666, 570.8333333333334 9.410894666850389, 572.5 9.410894666850389 C 574.1666666666666 9.410894666850389, 575.8333333333334 90.5891053331496, 577.5 90.5891053331496 C 579.1666666666666 90.5891053331496, 580.8333333333334 19.462628649677562, 582.5 19.462628649677562 C 584.1666666666666 19.462628649677562, 585.8333333333334 80.53737135032245, 587.5 80.53737135032245 C 589.1666666666666 80.53737135032245, 590.8333333333334 16.143954883208792, 592.5 16.143954883208792 C 594.1666666666666 16.143954883208792, 595.8333333333334 83.85604511679121, 597.5 83.85604511679121 C 599.1666666666666 83.85604511679121, 600.8333333333334 15.287762835852895, 602.5 15.287762835852895 C 604.1666666666666 15.287762835852895, 605.8333333333334 84.7122371641471, 607.5 84.7122371641471 C 609.1666666666666 84.7122371641471, 610.8333333333334 11.825201530384696, 612.5 11.825201530384696 C 614.1666666666666 11.825201530384696, 615.8333333333334 88.1747984696153, 617.5 88.1747984696153 C 619.1666666666666 88.1747984696153, 620.8333333333334 10.232657763652732, 622.5 10.232657763652732 C 624.1666666666666 10.232657763652732, 625.8333333333334 89.76734223634728, 627.5 89.76734223634728 C 629.1666666666666 89.76734223634728, 630.8333333333334 13.168483095913238, 632.5 13.168483095913238 C 634.1666666666666 13.168483095913238, 635.8333333333334 86.83151690408675, 637.5 86.83151690408675 C 639.1666666666666 86.83151690408675, 640.8333333333334 18.221216346487296, 642.5 18.221216346487296 C 644.1666666666666 18.221216346487296, 645.8333333333334 81.7787836535127, 647.5 81.7787836535127 C 649.1666666666666 81.7787836535127, 650.8333333333334 11.60883315036834, 652.5 11.60883315036834 C 654.1666666666666 11.60883315036834, 655.8333333333334 88.39116684963166, 657.5 88.39116684963166 C 659.1666666666666 88.39116684963166, 660.8333333333334 14.14027566606407, 662.5 14.14027566606407 C 664.1666666666666 14.14027566606407, 665.8333333333334 85.85972433393593, 667.5 85.85972433393593 C 669.1666666666666 85.85972433393593, 670.8333333333334 1.6465873435554244, 672.5 1.6465873435554244 C 674.1666666666666 1.6465873435554244, 675.8333333333334 98.35341265644458, 677.5 98.35341265644458 C 679.1666666666666 98.35341265644458, 680.8333333333334 9.91358287154388, 682.5 9.91358287154388 C 684.1666666666666 9.91358287154388, 685.8333333333334 90.08641712845612, 687.5 90.08641712845612 C 689.1666666666666 90.08641712845612, 690.8333333333334 13.78974829237358, 692.5 13.78974829237358 C 694.1666666666666 13.78974829237358, 695.8333333333334 86.21025170762641, 697.5 86.21025170762641 C 699.1666666666666 86.21025170762641, 700.8333333333334 15.99745609029636, 702.5 15.99745609029636 C 704.1666666666666 15.99745609029636, 705.8333333333334 84.00254390970363, 707.5 84.00254390970363 C 709.1666666666666 84.00254390970363, 710.8333333333334 14.971466946036927, 712.5 14.971466946036927 C 714.1666666666666 14.971466946036927, 715.8333333333334 85.02853305396307, 717.5 85.02853305396307 C 719.1666666666666 85.02853305396307, 720.8333333333334 4.165303636524889, 722.5 4.165303636524889 C 724.1666666666666 4.165303636524889, 725.8333333333334 95.8346963634751, 727.5 95.8346963634751 C 729.1666666666666 95.8346963634751, 730.8333333333334 11.78350024403769, 732.5 11.78350024403769 C 734.1666666666666 11.78350024403769, 735.8333333333334 88.2164997559623, 737.5 88.2164997559623 C 739.1666666666666 88.2164997559623, 740.8333333333334 4.038360925455983, 742.5 4.038360925455983 C 744.1666666666666 4.038360925455983, 745.8333333333334 95.96163907454402, 747.5 95.96163907454402 C 749.1666666666666 95.96163907454402, 750.8333333333334 16.42411725232141, 752.5 16.42411725232141 C 754.1666666666666 16.42411725232141, 755.8333333333334 83.57588274767859, 757.5 83.57588274767859 C 759.1666666666666 83.57588274767859, 760.8333333333334 13.408167083173403, 762.5 13.408167083173403 C 764.1666666666666 13.408167083173403, 765.8333333333334 86.5918329168266, 767.5 86.5918329168266 C 769.1666666666666 86.5918329168266, 770.8333333333334 0, 772.5 0 C 774.1666666666666 0, 775.8333333333334 100, 777.5 100 C 779.1666666666666 100, 780.8333333333334 3.4863758021169673, 782.5 3.4863758021169673 C 784.1666666666666 3.4863758021169673, 785.8333333333334 96.51362419788303, 787.5 96.51362419788303 C 789.1666666666666 96.51362419788303, 790.8333333333334 8.503912487425794, 792.5 8.503912487425794 C 794.1666666666666 8.503912487425794, 795.8333333333334 91.4960875125742, 797.5 91.4960875125742 C 799.1666666666666 91.4960875125742, 800.8333333333334 7.2720747286403125, 802.5 7.2720747286403125 C 804.1666666666666 7.2720747286403125, 805.8333333333334 92.72792527135968, 807.5 92.72792527135968 C 809.1666666666666 92.72792527135968, 810.8333333333334 15.315433869973774, 812.5 15.315433869973774 C 814.1666666666666 15.315433869973774, 815.8333333333334 84.68456613002623, 817.5 84.68456613002623 C 819.1666666666666 84.68456613002623, 820.8333333333334 8.040530465108588, 822.5 8.040530465108588 C 824.1666666666666 8.040530465108588, 825.8333333333334 91.95946953489141, 827.5 91.95946953489141 C 829.1666666666666 91.95946953489141, 830.8333333333334 22.27043542778317, 832.5 22.27043542778317 C 834.1666666666666 22.27043542778317, 835.8333333333334 77.72956457221683, 837.5 77.72956457221683 C 839.1666666666666 77.72956457221683, 840.8333333333334 27.992048156834283, 842.5 27.992048156834283 C 844.1666666666666 27.992048156834283, 845.8333333333334 72.00795184316571, 847.5 72.00795184316571 C 849.1666666666666 72.00795184316571, 850.8333333333334 22.652895900859026, 852.5 22.652895900859026 C 854.1666666666666 22.652895900859026, 855.8333333333334 77.34710409914098, 857.5 77.34710409914098 C 859.1666666666666 77.34710409914098, 860.8333333333334 12.966925199471952, 862.5 12.966925199471952 C 864.1666666666666 12.966925199471952, 865.8333333333334 87.03307480052806, 867.5 87.03307480052806 C 869.1666666666666 87.03307480052806, 870.8333333333334 24.832577790195636, 872.5 24.832577790195636 C 874.1666666666666 24.832577790195636, 875.8333333333334 75.16742220980436, 877.5 75.16742220980436 C 879.1666666666666 75.16742220980436, 880.8333333333334 21.459368529837075, 882.5 21.459368529837075 C 884.1666666666666 21.459368529837075, 885.8333333333334 78.54063147016292, 887.5 78.54063147016292 C 889.1666666666666 78.54063147016292, 890.8333333333334 29.523733463246646, 892.5 29.523733463246646 C 894.1666666666666 29.523733463246646, 895.8333333333334 70.47626653675336, 897.5 70.47626653675336 C 899.1666666666666 70.47626653675336, 900.8333333333334 32.427804954911835, 902.5 32.427804954911835 C 904.1666666666666 32.427804954911835, 905.8333333333334 67.57219504508816, 907.5 67.57219504508816 C 909.1666666666666 67.57219504508816, 910.8333333333334 33.22001392151609, 912.5 33.22001392151609 C 914.1666666666666 33.22001392151609, 915.8333333333334 66.77998607848392, 917.5 66.77998607848392 C 919.1666666666666 66.77998607848392, 920.8333333333334 32.290904470951354, 922.5 32.290904470951354 C 924.1666666666666 32.290904470951354, 925.8333333333334 67.70909552904865, 927.5 67.70909552904865 C 929.1666666666666 67.70909552904865, 930.8333333333334 30.904573797055594, 932.5 30.904573797055594 C 934.1666666666666 30.904573797055594, 935.8333333333334 69.09542620294441, 937.5 69.09542620294441 C 939.1666666666666 69.09542620294441, 940.8333333333334 33.999248541571845, 942.5 33.999248541571845 C 944.1666666666666 33.999248541571845, 945.8333333333334 66.00075145842816, 947.5 66.00075145842816 C 949.1666666666666 66.00075145842816, 950.8333333333334 31.839746152325173, 952.5 31.839746152325173 C 954.1666666666666 31.839746152325173, 955.8333333333334 68.16025384767482, 957.5 68.16025384767482 C 959.1666666666666 68.16025384767482, 960.8333333333334 33.99507997670567, 962.5 33.99507997670567 C 964.1666666666666 33.99507997670567, 965.8333333333334 66.00492002329433, 967.5 66.00492002329433 C 969.1666666666666 66.00492002329433, 970.8333333333334 38.79039879527477, 972.5 38.79039879527477 C 974.1666666666666 38.79039879527477, 975.8333333333334 61.20960120472523, 977.5 61.20960120472523 C 979.1666666666666 61.20960120472523, 980.8333333333334 48.386851794288646, 982.5 48.386851794288646 C 984.1666666666666 48.386851794288646, 985.8333333333334 51.613148205711354, 987.5 51.613148205711354 C 989.1666666666666 51.613148205711354, 990.8333333333334 49.97633552934148, 992.5 49.97633552934148 C 994.1666666666666 49.97633552934148, 995.8333333333334 50.02366447065852, 997.5 50.02366447065852 C 999.1666666666666 50.02366447065852, 1000.8333333333334 50, 1002.5 50 C 1004.1666666666666 50, 1005.8333333333334 50, 1007.5 50 C 1008.4166666666666 50, 1009.3333333333334 50, 1010.25 50 " stroke="white" stroke-width="5" fill="transparent" />
  </g>
</svg>