<svg 
  baseProfile="tiny"
  preserveAspectRatio="keep"
  version="1.2"
  viewBox="-5.000000 -5.000000 1015.000000 105.000000"
  height="100%" width="100%"
  xmlns="http://www.w3.org/2000/svg"
  xmlns:ev="http://www.w3.org/2001/xml-events"
  xmlns:xlink="http://www.w3.org/1999/xlink"
>
  <g style="transform-origin: center center;">
    <path d="M -0.250000 50.000000 C 4 50, 8.25 50, 12.5 50 C 14.166666666666666 50, 15.833333333333334 50, 17.5 50 C 19.166666666666668 50, 20.833333333333332 49.34836546503508, 22.5 49.34836546503508 C 24.166666666666668 49.34836546503508, 25.833333333333332 50.65163453496492, 27.5 50.65163453496492 C 29.166666666666668 50.65163453496492, 30.833333333333332 43.250908246593944, 32.5 43.250908246593944 C 34.166666666666664 43.250908246593944, 35.833333333333336 56.749091753406056, 37.5 56.749091753406056 C 39.166666666666664 56.749091753406056, 40.833333333333336 31.501813387136515, 42.5 31.501813387136515 C 44.166666666666664 31.501813387136515, 45.833333333333336 68.49818661286349, 47.5 68.49818661286349 C 49.166666666666664 68.49818661286349, 50.833333333333336 19.800611731427164, 52.5 19.800611731427164 C 54.166666666666664 19.800611731427164, 55.833333333333336 80.19938826857283, 57.5 80.19938826857283 C 59.166666666666664 80.19938826857283, 60.833333333333336 25.223525318595637, 62.5 25.223525318595637 C 64.16666666666667 25.223525318595637, 65.83333333333333 74.77647468140437, 67.5 74.77647468140437 C 69.16666666666667 74.77647468140437, 70.83333333333333 34.52432159973296, 72.5 34.52432159973296 C 74.16666666666667 34.52432159973296, 75.83333333333333 65.47567840026704, 77.5 65.47567840026704 C 79.16666666666667 65.47567840026704, 80.83333333333333 22.337295225852017, 82.5 22.337295225852017 C 84.16666666666667 22.337295225852017, 85.83333333333333 77.66270477414798, 87.5 77.66270477414798 C 89.16666666666667 77.66270477414798, 90.83333333333333 25.701824519169396, 92.5 25.701824519169396 C 94.16666666666667 25.701824519169396, 95.83333333333333 74.29817548083061, 97.5 74.29817548083061 C 99.16666666666667 74.29817548083061, 100.83333333333333 29.33509348259092, 102.5 29.33509348259092 C 104.16666666666667 29.33509348259092, 105.83333333333333 70.66490651740908, 107.5 70.66490651740908 C 109.16666666666667 70.66490651740908, 110.83333333333333 20.991568039996196, 112.5 20.991568039996196 C 114.16666666666667 20.991568039996196, 115.83333333333333 79.0084319600038, 117.5 79.0084319600038 C 119.16666666666667 79.0084319600038, 120.83333333333333 9.588955764077653, 122.5 9.588955764077653 C 124.16666666666667 9.588955764077653, 125.83333333333333 90.41104423592235, 127.5 90.41104423592235 C 129.16666666666666 90.41104423592235, 130.83333333333334 22.03551287685771, 132.5 22.03551287685771 C 134.16666666666666 22.03551287685771, 135.83333333333334 77.96448712314229, 137.5 77.96448712314229 C 139.16666666666666 77.96448712314229, 140.83333333333334 13.479737546524419, 142.5 13.479737546524419 C 144.16666666666666 13.479737546524419, 145.83333333333334 86.52026245347558, 147.5 86.52026245347558 C 149.16666666666666 86.52026245347558, 150.83333333333334 12.685703335776545, 152.5 12.685703335776545 C 154.16666666666666 12.685703335776545, 155.83333333333334 87.31429666422346, 157.5 87.31429666422346 C 159.16666666666666 87.31429666422346, 160.83333333333334 29.39372885296941, 162.5 29.39372885296941 C 164.16666666666666 29.39372885296941, 165.83333333333334 70.60627114703058, 167.5 70.60627114703058 C 169.16666666666666 70.60627114703058, 170.83333333333334 18.946265117981643, 172.5 18.946265117981643 C 174.16666666666666 18.946265117981643, 175.83333333333334 81.05373488201836, 177.5 81.05373488201836 C 179.16666666666666 81.05373488201836, 180.83333333333334 4.361993671261402, 182.5 4.361993671261402 C 184.16666666666666 4.361993671261402, 185.83333333333334 95.6380063287386, 187.5 95.6380063287386 C 189.16666666666666 95.6380063287386, 190.83333333333334 34.980137950232056, 192.5 34.980137950232056 C 194.16666666666666 34.980137950232056, 195.83333333333334 65.01986204976795, 197.5 65.01986204976795 C 199.16666666666666 65.01986204976795, 200.83333333333334 30.199335099799807, 202.5 30.199335099799807 C 204.16666666666666 30.199335099799807, 205.83333333333334 69.80066490020019, 207.5 69.80066490020019 C 209.16666666666666 69.80066490020019, 210.83333333333334 0, 212.5 0 C 214.16666666666666 0, 215.83333333333334 100, 217.5 100 C 219.16666666666666 100, 220.83333333333334 24.395859162546284, 222.5 24.395859162546284 C 224.16666666666666 24.395859162546284, 225.83333333333334 75.60414083745371, 227.5 75.60414083745371 C 229.16666666666666 75.60414083745371, 230.83333333333334 29.4678682377993, 232.5 29.4678682377993 C 234.16666666666666 29.4678682377993, 235.83333333333334 70.53213176220069, 237.5 70.53213176220069 C 239.16666666666666 70.53213176220069, 240.83333333333334 27.144834228017107, 242.5 27.144834228017107 C 244.16666666666666 27.144834228017107, 245.83333333333334 72.8551657719829, 247.5 72.8551657719829 C 249.16666666666666 72.8551657719829, 250.83333333333334 13.27992331794875, 252.5 13.27992331794875 C 254.16666666666666 13.27992331794875, 255.83333333333334 86.72007668205126, 257.5 86.72007668205126 C 259.1666666666667 86.72007668205126, 260.8333333333333 26.652402418928276, 262.5 26.652402418928276 C 264.1666666666667 26.652402418928276, 265.8333333333333 73.34759758107172, 267.5 73.34759758107172 C 269.1666666666667 73.34759758107172, 270.8333333333333 16.630329879469798, 272.5 16.630329879469798 C 274.1666666666667 16.630329879469798, 275.8333333333333 83.3696701205302, 277.5 83.3696701205302 C 279.1666666666667 83.3696701205302, 280.8333333333333 3.0479876467352938, 282.5 3.0479876467352938 C 284.1666666666667 3.0479876467352938, 285.8333333333333 96.9520123532647, 287.5 96.9520123532647 C 289.1666666666667 96.9520123532647, 290.8333333333333 9.79172683853858, 292.5 9.79172683853858 C 294.1666666666667 9.79172683853858, 295.8333333333333 90.20827316146142, 297.5 90.20827316146142 C 299.1666666666667 90.20827316146142, 300.8333333333333 19.440747559574884, 302.5 19.440747559574884 C 304.1666666666667 19.440747559574884, 305.8333333333333 80.55925244042511, 307.5 80.55925244042511 C 309.1666666666667 80.55925244042511, 310.8333333333333 20.11138939750309, 312.5 20.11138939750309 C 314.1666666666667 20.11138939750309, 315.8333333333333 79.88861060249691, 317.5 79.88861060249691 C 319.1666666666667 79.88861060249691, 320.8333333333333 22.151118117638287, 322.5 22.151118117638287 C 324.1666666666667 22.151118117638287, 325.8333333333333 77.84888188236171, 327.5 77.84888188236171 C 329.1666666666667 77.84888188236171, 330.8333333333333 27.202116414188794, 332.5 27.202116414188794 C 334.1666666666667 27.202116414188794, 335.8333333333333 72.7978835858112, 337.5 72.7978835858112 C 339.1666666666667 72.7978835858112, 340.8333333333333 16.697816655846253, 342.5 16.697816655846253 C 344.1666666666667 16.697816655846253, 345.8333333333333 83.30218334415375, 347.5 83.30218334415375 C 349.1666666666667 83.30218334415375, 350.8333333333333 13.298323960147066, 352.5 13.298323960147066 C 354.1666666666667 13.298323960147066, 355.8333333333333 86.70167603985294, 357.5 86.70167603985294 C 359.1666666666667 86.70167603985294, 360.8333333333333 14.917743681132038, 362.5 14.917743681132038 C 364.1666666666667 14.917743681132038, 365.8333333333333 85.08225631886796, 367.5 85.08225631886796 C 369.1666666666667 85.08225631886796, 370.8333333333333 24.207106693608203, 372.5 24.207106693608203 C 374.1666666666667 24.207106693608203, 375.8333333333333 75.79289330639179, 377.5 75.79289330639179 C 379.1666666666667 75.79289330639179, 380.8333333333333 20.635090738304875, 382.5 20.635090738304875 C 384.1666666666667 20.635090738304875, 385.8333333333333 79.36490926169512, 387.5 79.36490926169512 C 389.1666666666667 79.36490926169512, 390.8333333333333 24.644075375724917, 392.5 24.644075375724917 C 394.1666666666667 24.644075375724917, 395.8333333333333 75.35592462427508, 397.5 75.35592462427508 C 399.1666666666667 75.35592462427508, 400.8333333333333 11.918412600503004, 402.5 11.918412600503004 C 404.1666666666667 11.918412600503004, 405.8333333333333 88.081587399497, 407.5 88.081587399497 C 409.1666666666667 88.081587399497, 410.8333333333333 18.07497834283447, 412.5 18.07497834283447 C 414.1666666666667 18.07497834283447, 415.8333333333333 81.92502165716553, 417.5 81.92502165716553 C 419.1666666666667 81.92502165716553, 420.8333333333333 12.884078664002388, 422.5 12.884078664002388 C 424.1666666666667 12.884078664002388, 425.8333333333333 87.11592133599761, 427.5 87.11592133599761 C 429.1666666666667 87.11592133599761, 430.8333333333333 17.777761272974054, 432.5 17.777761272974054 C 434.1666666666667 17.777761272974054, 435.8333333333333 82.22223872702594, 437.5 82.22223872702594 C 439.1666666666667 82.22223872702594, 440.8333333333333 15.500935011998969, 442.5 15.500935011998969 C 444.1666666666667 15.500935011998969, 445.8333333333333 84.49906498800104, 447.5 84.49906498800104 C 449.1666666666667 84.49906498800104, 450.8333333333333 21.67070460627038, 452.5 21.67070460627038 C 454.1666666666667 21.67070460627038, 455.8333333333333 78.32929539372962, 457.5 78.32929539372962 C 459.1666666666667 78.32929539372962, 460.8333333333333 18.943362809896634, 462.5 18.943362809896634 C 464.1666666666667 18.943362809896634, 465.8333333333333 81.05663719010337, 467.5 81.05663719010337 C 469.1666666666667 81.05663719010337, 470.8333333333333 25.709980105930764, 472.5 25.709980105930764 C 474.1666666666667 25.709980105930764, 475.8333333333333 74.29001989406923, 477.5 74.29001989406923 C 479.1666666666667 74.29001989406923, 480.8333333333333 17.072445833450715, 482.5 17.072445833450715 C 484.1666666666667 17.072445833450715, 485.8333333333333 82.92755416654929, 487.5 82.92755416654929 C 489.1666666666667 82.92755416654929, 490.8333333333333 23.44681046042245, 492.5 23.44681046042245 C 494.1666666666667 23.44681046042245, 495.8333333333333 76.55318953957755, 497.5 76.55318953957755 C 499.1666666666667 76.55318953957755, 500.8333333333333 21.441760978030054, 502.5 21.441760978030054 C 504.1666666666667 21.441760978030054, 505.8333333333333 78.55823902196994, 507.5 78.55823902196994 C 509.1666666666667 78.55823902196994, 510.8333333333333 20.949972888705542, 512.5 20.949972888705542 C 514.1666666666666 20.949972888705542, 515.8333333333334 79.05002711129445, 517.5 79.05002711129445 C 519.1666666666666 79.05002711129445, 520.8333333333334 15.289571882333597, 522.5 15.289571882333597 C 524.1666666666666 15.289571882333597, 525.8333333333334 84.7104281176664, 527.5 84.7104281176664 C 529.1666666666666 84.7104281176664, 530.8333333333334 20.953925342175218, 532.5 20.953925342175218 C 534.1666666666666 20.953925342175218, 535.8333333333334 79.04607465782479, 537.5 79.04607465782479 C 539.1666666666666 79.04607465782479, 540.8333333333334 23.8972492681775, 542.5 23.8972492681775 C 544.1666666666666 23.8972492681775, 545.8333333333334 76.1027507318225, 547.5 76.1027507318225 C 549.1666666666666 76.1027507318225, 550.8333333333334 20.01678004172085, 552.5 20.01678004172085 C 554.1666666666666 20.01678004172085, 555.8333333333334 79.98321995827915, 557.5 79.98321995827915 C 559.1666666666666 79.98321995827915, 560.8333333333334 24.51252064959899, 562.5 24.51252064959899 C 564.1666666666666 24.51252064959899, 565.8333333333334 75.487479350401, 567.5 75.487479350401 C 569.1666666666666 75.487479350401, 570.8333333333334 26.126320602171393, 572.5 26.126320602171393 C 574.1666666666666 26.126320602171393, 575.8333333333334 73.87367939782861, 577.5 73.87367939782861 C 579.1666666666666 73.87367939782861, 580.8333333333334 26.65359165293659, 582.5 26.65359165293659 C 584.1666666666666 26.65359165293659, 585.8333333333334 73.3464083470634, 587.5 73.3464083470634 C 589.1666666666666 73.3464083470634, 590.8333333333334 17.825442931688826, 592.5 17.825442931688826 C 594.1666666666666 17.825442931688826, 595.8333333333334 82.17455706831117, 597.5 82.17455706831117 C 599.1666666666666 82.17455706831117, 600.8333333333334 13.336540031140672, 602.5 13.336540031140672 C 604.1666666666666 13.336540031140672, 605.8333333333334 86.66345996885933, 607.5 86.66345996885933 C 609.1666666666666 86.66345996885933, 610.8333333333334 21.58949982316957, 612.5 21.58949982316957 C 614.1666666666666 21.58949982316957, 615.8333333333334 78.41050017683042, 617.5 78.41050017683042 C 619.1666666666666 78.41050017683042, 620.8333333333334 14.413328692349431, 622.5 14.413328692349431 C 624.1666666666666 14.413328692349431, 625.8333333333334 85.58667130765056, 627.5 85.58667130765056 C 629.1666666666666 85.58667130765056, 630.8333333333334 12.60600358365506, 632.5 12.60600358365506 C 634.1666666666666 12.60600358365506, 635.8333333333334 87.39399641634495, 637.5 87.39399641634495 C 639.1666666666666 87.39399641634495, 640.8333333333334 17.877318033463638, 642.5 17.877318033463638 C 644.1666666666666 17.877318033463638, 645.8333333333334 82.12268196653636, 647.5 82.12268196653636 C 649.1666666666666 82.12268196653636, 650.8333333333334 18.96144597279531, 652.5 18.96144597279531 C 654.1666666666666 18.96144597279531, 655.8333333333334 81.0385540272047, 657.5 81.0385540272047 C 659.1666666666666 81.0385540272047, 660.8333333333334 19.500900849139096, 662.5 19.500900849139096 C 664.1666666666666 19.500900849139096, 665.8333333333334 80.4990991508609, 667.5 80.4990991508609 C 669.1666666666666 80.4990991508609, 670.8333333333334 26.115947255297105, 672.5 26.115947255297105 C 674.1666666666666 26.115947255297105, 675.8333333333334 73.8840527447029, 677.5 73.8840527447029 C 679.1666666666666 73.8840527447029, 680.8333333333334 17.759631239995635, 682.5 17.759631239995635 C 684.1666666666666 17.759631239995635, 685.8333333333334 82.24036876000437, 687.5 82.24036876000437 C 689.1666666666666 82.24036876000437, 690.8333333333334 23.690383097955326, 692.5 23.690383097955326 C 694.1666666666666 23.690383097955326, 695.8333333333334 76.30961690204467, 697.5 76.30961690204467 C 699.1666666666666 76.30961690204467, 700.8333333333334 21.735196075814294, 702.5 21.735196075814294 C 704.1666666666666 21.735196075814294, 705.8333333333334 78.26480392418571, 707.5 78.26480392418571 C 709.1666666666666 78.26480392418571, 710.8333333333334 25.11919267105803, 712.5 25.11919267105803 C 714.1666666666666 25.11919267105803, 715.8333333333334 74.88080732894197, 717.5 74.88080732894197 C 719.1666666666666 74.88080732894197, 720.8333333333334 18.91195622654836, 722.5 18.91195622654836 C 724.1666666666666 18.91195622654836, 725.8333333333334 81.08804377345164, 727.5 81.08804377345164 C 729.1666666666666 81.08804377345164, 730.8333333333334 27.012251073772795, 732.5 27.012251073772795 C 734.1666666666666 27.012251073772795, 735.8333333333334 72.9877489262272, 737.5 72.9877489262272 C 739.1666666666666 72.9877489262272, 740.8333333333334 20.68737136461004, 742.5 20.68737136461004 C 744.1666666666666 20.68737136461004, 745.8333333333334 79.31262863538996, 747.5 79.31262863538996 C 749.1666666666666 79.31262863538996, 750.8333333333334 21.766571169900047, 752.5 21.766571169900047 C 754.1666666666666 21.766571169900047, 755.8333333333334 78.23342883009995, 757.5 78.23342883009995 C 759.1666666666666 78.23342883009995, 760.8333333333334 24.08125903832621, 762.5 24.08125903832621 C 764.1666666666666 24.08125903832621, 765.8333333333334 75.91874096167379, 767.5 75.91874096167379 C 769.1666666666666 75.91874096167379, 770.8333333333334 25.35239500861646, 772.5 25.35239500861646 C 774.1666666666666 25.35239500861646, 775.8333333333334 74.64760499138355, 777.5 74.64760499138355 C 779.1666666666666 74.64760499138355, 780.8333333333334 19.7665791849424, 782.5 19.7665791849424 C 784.1666666666666 19.7665791849424, 785.8333333333334 80.2334208150576, 787.5 80.2334208150576 C 789.1666666666666 80.2334208150576, 790.8333333333334 29.196338673058182, 792.5 29.196338673058182 C 794.1666666666666 29.196338673058182, 795.8333333333334 70.80366132694182, 797.5 70.80366132694182 C 799.1666666666666 70.80366132694182, 800.8333333333334 31.37077297217713, 802.5 31.37077297217713 C 804.1666666666666 31.37077297217713, 805.8333333333334 68.62922702782288, 807.5 68.62922702782288 C 809.1666666666666 68.62922702782288, 810.8333333333334 28.47137549938056, 812.5 28.47137549938056 C 814.1666666666666 28.47137549938056, 815.8333333333334 71.52862450061944, 817.5 71.52862450061944 C 819.1666666666666 71.52862450061944, 820.8333333333334 35.69226209538927, 822.5 35.69226209538927 C 824.1666666666666 35.69226209538927, 825.8333333333334 64.30773790461073, 827.5 64.30773790461073 C 829.1666666666666 64.30773790461073, 830.8333333333334 37.71554167144869, 832.5 37.71554167144869 C 834.1666666666666 37.71554167144869, 835.8333333333334 62.28445832855131, 837.5 62.28445832855131 C 839.1666666666666 62.28445832855131, 840.8333333333334 36.128594631255105, 842.5 36.128594631255105 C 844.1666666666666 36.128594631255105, 845.8333333333334 63.871405368744895, 847.5 63.871405368744895 C 849.1666666666666 63.871405368744895, 850.8333333333334 39.36682436124319, 852.5 39.36682436124319 C 854.1666666666666 39.36682436124319, 855.8333333333334 60.63317563875681, 857.5 60.63317563875681 C 859.1666666666666 60.63317563875681, 860.8333333333334 36.03858456485838, 862.5 36.03858456485838 C 864.1666666666666 36.03858456485838, 865.8333333333334 63.96141543514162, 867.5 63.96141543514162 C 869.1666666666666 63.96141543514162, 870.8333333333334 37.89823139225908, 872.5 37.89823139225908 C 874.1666666666666 37.89823139225908, 875.8333333333334 62.10176860774092, 877.5 62.10176860774092 C 879.1666666666666 62.10176860774092, 880.8333333333334 35.17841329883151, 882.5 35.17841329883151 C 884.1666666666666 35.17841329883151, 885.8333333333334 64.82158670116848, 887.5 64.82158670116848 C 889.1666666666666 64.82158670116848, 890.8333333333334 38.609836106451155, 892.5 38.609836106451155 C 894.1666666666666 38.609836106451155, 895.8333333333334 61.390163893548845, 897.5 61.390163893548845 C 899.1666666666666 61.390163893548845, 900.8333333333334 30.747160394482563, 902.5 30.747160394482563 C 904.1666666666666 30.747160394482563, 905.8333333333334 69.25283960551744, 907.5 69.25283960551744 C 909.1666666666666 69.25283960551744, 910.8333333333334 32.91754425089712, 912.5 32.91754425089712 C 914.1666666666666 32.91754425089712, 915.8333333333334 67.08245574910288, 917.5 67.08245574910288 C 919.1666666666666 67.08245574910288, 920.8333333333334 30.015590971186935, 922.5 30.015590971186935 C 924.1666666666666 30.015590971186935, 925.8333333333334 69.98440902881306, 927.5 69.98440902881306 C 929.1666666666666 69.98440902881306, 930.8333333333334 35.768988820232224, 932.5 35.768988820232224 C 934.1666666666666 35.768988820232224, 935.8333333333334 64.23101117976778, 937.5 64.23101117976778 C 939.1666666666666 64.23101117976778, 940.8333333333334 35.02018394082239, 942.5 35.02018394082239 C 944.1666666666666 35.02018394082239, 945.8333333333334 64.97981605917761, 947.5 64.97981605917761 C 949.1666666666666 64.97981605917761, 950.8333333333334 46.40101106720728, 952.5 46.40101106720728 C 954.1666666666666 46.40101106720728, 955.8333333333334 53.59898893279272, 957.5 53.59898893279272 C 959.1666666666666 53.59898893279272, 960.8333333333334 38.77538583791068, 962.5 38.77538583791068 C 964.1666666666666 38.77538583791068, 965.8333333333334 61.22461416208932, 967.5 61.22461416208932 C 969.1666666666666 61.22461416208932, 970.8333333333334 48.51724285640017, 972.5 48.51724285640017 C 974.1666666666666 48.51724285640017, 975.8333333333334 51.48275714359983, 977.5 51.48275714359983 C 979.1666666666666 51.48275714359983, 980.8333333333334 49.38419528771071, 982.5 49.38419528771071 C 984.1666666666666 49.38419528771071, 985.8333333333334 50.61580471228929, 987.5 50.61580471228929 C 989.1666666666666 50.61580471228929, 990.8333333333334 50, 992.5 50 C 994.1666666666666 50, 995.8333333333334 50, 997.5 50 C 999.1666666666666 50, 1000.8333333333334 50, 1002.5 50 C 1004.1666666666666 50, 1005.8333333333334 50, 1007.5 50 C 1008.4166666666666 50, 1009.3333333333334 50, 1010.25 50 " stroke="white" stroke-width="5" fill="transparent" />
  </g>
</svg>