<svg 
  baseProfile="tiny"
  preserveAspectRatio="keep"
  version="1.2"
  viewBox="-5.000000 -5.000000 1015.000000 105.000000"
  height="100%" width="100%"
  xmlns="http://www.w3.org/2000/svg"
  xmlns:ev="http://www.w3.org/2001/xml-events"
  xmlns:xlink="http://www.w3.org/1999/xlink"
>
  <g style="transform-origin: center center;">
    <path d="M -0.250000 50.000000 C 4 50, 8.25 50, 12.5 50 C 14.166666666666666 50, 15.833333333333334 50, 17.5 50 C 19.166666666666668 50, 20.833333333333332 49.96141131810897, 22.5 49.96141131810897 C 24.166666666666668 49.96141131810897, 25.833333333333332 50.03858868189103, 27.5 50.03858868189103 C 29.166666666666668 50.03858868189103, 30.833333333333332 46.43218638251156, 32.5 46.43218638251156 C 34.166666666666664 46.43218638251156, 35.833333333333336 53.56781361748844, 37.5 53.56781361748844 C 39.166666666666664 53.56781361748844, 40.833333333333336 41.5727214418073, 42.5 41.5727214418073 C 44.166666666666664 41.5727214418073, 45.833333333333336 58.4272785581927, 47.5 58.4272785581927 C 49.166666666666664 58.4272785581927, 50.833333333333336 35.8251266516221, 52.5 35.8251266516221 C 54.166666666666664 35.8251266516221, 55.833333333333336 64.1748733483779, 57.5 64.1748733483779 C 59.166666666666664 64.1748733483779, 60.833333333333336 36.31097480499261, 62.5 36.31097480499261 C 64.16666666666667 36.31097480499261, 65.83333333333333 63.68902519500739, 67.5 63.68902519500739 C 69.16666666666667 63.68902519500739, 70.83333333333333 36.885733410930094, 72.5 36.885733410930094 C 74.16666666666667 36.885733410930094, 75.83333333333333 63.114266589069906, 77.5 63.114266589069906 C 79.16666666666667 63.114266589069906, 80.83333333333333 35.07669698655262, 82.5 35.07669698655262 C 84.16666666666667 35.07669698655262, 85.83333333333333 64.92330301344738, 87.5 64.92330301344738 C 89.16666666666667 64.92330301344738, 90.83333333333333 34.23700807579332, 92.5 34.23700807579332 C 94.16666666666667 34.23700807579332, 95.83333333333333 65.76299192420669, 97.5 65.76299192420669 C 99.16666666666667 65.76299192420669, 100.83333333333333 38.40826976984956, 102.5 38.40826976984956 C 104.16666666666667 38.40826976984956, 105.83333333333333 61.59173023015044, 107.5 61.59173023015044 C 109.16666666666667 61.59173023015044, 110.83333333333333 37.8039622699261, 112.5 37.8039622699261 C 114.16666666666667 37.8039622699261, 115.83333333333333 62.1960377300739, 117.5 62.1960377300739 C 119.16666666666667 62.1960377300739, 120.83333333333333 26.325876801087595, 122.5 26.325876801087595 C 124.16666666666667 26.325876801087595, 125.83333333333333 73.67412319891241, 127.5 73.67412319891241 C 129.16666666666666 73.67412319891241, 130.83333333333334 34.61726654584804, 132.5 34.61726654584804 C 134.16666666666666 34.61726654584804, 135.83333333333334 65.38273345415196, 137.5 65.38273345415196 C 139.16666666666666 65.38273345415196, 140.83333333333334 31.163185517587973, 142.5 31.163185517587973 C 144.16666666666666 31.163185517587973, 145.83333333333334 68.83681448241202, 147.5 68.83681448241202 C 149.16666666666666 68.83681448241202, 150.83333333333334 38.234013821152296, 152.5 38.234013821152296 C 154.16666666666666 38.234013821152296, 155.83333333333334 61.765986178847704, 157.5 61.765986178847704 C 159.16666666666666 61.765986178847704, 160.83333333333334 28.921876207466227, 162.5 28.921876207466227 C 164.16666666666666 28.921876207466227, 165.83333333333334 71.07812379253377, 167.5 71.07812379253377 C 169.16666666666666 71.07812379253377, 170.83333333333334 39.05066939803433, 172.5 39.05066939803433 C 174.16666666666666 39.05066939803433, 175.83333333333334 60.94933060196567, 177.5 60.94933060196567 C 179.16666666666666 60.94933060196567, 180.83333333333334 30.299694339762944, 182.5 30.299694339762944 C 184.16666666666666 30.299694339762944, 185.83333333333334 69.70030566023706, 187.5 69.70030566023706 C 189.16666666666666 69.70030566023706, 190.83333333333334 38.765298300377594, 192.5 38.765298300377594 C 194.16666666666666 38.765298300377594, 195.83333333333334 61.234701699622406, 197.5 61.234701699622406 C 199.16666666666666 61.234701699622406, 200.83333333333334 27.38882482469524, 202.5 27.38882482469524 C 204.16666666666666 27.38882482469524, 205.83333333333334 72.61117517530477, 207.5 72.61117517530477 C 209.16666666666666 72.61117517530477, 210.83333333333334 24.577798397881935, 212.5 24.577798397881935 C 214.16666666666666 24.577798397881935, 215.83333333333334 75.42220160211807, 217.5 75.42220160211807 C 219.16666666666666 75.42220160211807, 220.83333333333334 31.87154230714738, 222.5 31.87154230714738 C 224.16666666666666 31.87154230714738, 225.83333333333334 68.12845769285262, 227.5 68.12845769285262 C 229.16666666666666 68.12845769285262, 230.83333333333334 37.91933605074946, 232.5 37.91933605074946 C 234.16666666666666 37.91933605074946, 235.83333333333334 62.08066394925054, 237.5 62.08066394925054 C 239.16666666666666 62.08066394925054, 240.83333333333334 30.8926167689558, 242.5 30.8926167689558 C 244.16666666666666 30.8926167689558, 245.83333333333334 69.1073832310442, 247.5 69.1073832310442 C 249.16666666666666 69.1073832310442, 250.83333333333334 35.85431771807845, 252.5 35.85431771807845 C 254.16666666666666 35.85431771807845, 255.83333333333334 64.14568228192155, 257.5 64.14568228192155 C 259.1666666666667 64.14568228192155, 260.8333333333333 25.700351537029213, 262.5 25.700351537029213 C 264.1666666666667 25.700351537029213, 265.8333333333333 74.2996484629708, 267.5 74.2996484629708 C 269.1666666666667 74.2996484629708, 270.8333333333333 33.377973836493325, 272.5 33.377973836493325 C 274.1666666666667 33.377973836493325, 275.8333333333333 66.62202616350667, 277.5 66.62202616350667 C 279.1666666666667 66.62202616350667, 280.8333333333333 27.945037668228885, 282.5 27.945037668228885 C 284.1666666666667 27.945037668228885, 285.8333333333333 72.05496233177112, 287.5 72.05496233177112 C 289.1666666666667 72.05496233177112, 290.8333333333333 29.962831742164273, 292.5 29.962831742164273 C 294.1666666666667 29.962831742164273, 295.8333333333333 70.03716825783573, 297.5 70.03716825783573 C 299.1666666666667 70.03716825783573, 300.8333333333333 32.94067479573056, 302.5 32.94067479573056 C 304.1666666666667 32.94067479573056, 305.8333333333333 67.05932520426944, 307.5 67.05932520426944 C 309.1666666666667 67.05932520426944, 310.8333333333333 29.899736281543472, 312.5 29.899736281543472 C 314.1666666666667 29.899736281543472, 315.8333333333333 70.10026371845653, 317.5 70.10026371845653 C 319.1666666666667 70.10026371845653, 320.8333333333333 33.739277322488135, 322.5 33.739277322488135 C 324.1666666666667 33.739277322488135, 325.8333333333333 66.26072267751186, 327.5 66.26072267751186 C 329.1666666666667 66.26072267751186, 330.8333333333333 31.564411277531335, 332.5 31.564411277531335 C 334.1666666666667 31.564411277531335, 335.8333333333333 68.43558872246867, 337.5 68.43558872246867 C 339.1666666666667 68.43558872246867, 340.8333333333333 31.2019498257849, 342.5 31.2019498257849 C 344.1666666666667 31.2019498257849, 345.8333333333333 68.79805017421509, 347.5 68.79805017421509 C 349.1666666666667 68.79805017421509, 350.8333333333333 33.08977805807906, 352.5 33.08977805807906 C 354.1666666666667 33.08977805807906, 355.8333333333333 66.91022194192094, 357.5 66.91022194192094 C 359.1666666666667 66.91022194192094, 360.8333333333333 30.960903553279028, 362.5 30.960903553279028 C 364.1666666666667 30.960903553279028, 365.8333333333333 69.03909644672098, 367.5 69.03909644672098 C 369.1666666666667 69.03909644672098, 370.8333333333333 24.343124371322993, 372.5 24.343124371322993 C 374.1666666666667 24.343124371322993, 375.8333333333333 75.656875628677, 377.5 75.656875628677 C 379.1666666666667 75.656875628677, 380.8333333333333 30.82805704133905, 382.5 30.82805704133905 C 384.1666666666667 30.82805704133905, 385.8333333333333 69.17194295866095, 387.5 69.17194295866095 C 389.1666666666667 69.17194295866095, 390.8333333333333 22.361789111369863, 392.5 22.361789111369863 C 394.1666666666667 22.361789111369863, 395.8333333333333 77.63821088863014, 397.5 77.63821088863014 C 399.1666666666667 77.63821088863014, 400.8333333333333 29.043198085872397, 402.5 29.043198085872397 C 404.1666666666667 29.043198085872397, 405.8333333333333 70.9568019141276, 407.5 70.9568019141276 C 409.1666666666667 70.9568019141276, 410.8333333333333 21.744278048931378, 412.5 21.744278048931378 C 414.1666666666667 21.744278048931378, 415.8333333333333 78.25572195106862, 417.5 78.25572195106862 C 419.1666666666667 78.25572195106862, 420.8333333333333 31.052611439906528, 422.5 31.052611439906528 C 424.1666666666667 31.052611439906528, 425.8333333333333 68.94738856009347, 427.5 68.94738856009347 C 429.1666666666667 68.94738856009347, 430.8333333333333 30.525700809815774, 432.5 30.525700809815774 C 434.1666666666667 30.525700809815774, 435.8333333333333 69.47429919018423, 437.5 69.47429919018423 C 439.1666666666667 69.47429919018423, 440.8333333333333 30.48540890447027, 442.5 30.48540890447027 C 444.1666666666667 30.48540890447027, 445.8333333333333 69.51459109552974, 447.5 69.51459109552974 C 449.1666666666667 69.51459109552974, 450.8333333333333 23.879551905624265, 452.5 23.879551905624265 C 454.1666666666667 23.879551905624265, 455.8333333333333 76.12044809437573, 457.5 76.12044809437573 C 459.1666666666667 76.12044809437573, 460.8333333333333 23.460484905693896, 462.5 23.460484905693896 C 464.1666666666667 23.460484905693896, 465.8333333333333 76.5395150943061, 467.5 76.5395150943061 C 469.1666666666667 76.5395150943061, 470.8333333333333 29.74323370110917, 472.5 29.74323370110917 C 474.1666666666667 29.74323370110917, 475.8333333333333 70.25676629889082, 477.5 70.25676629889082 C 479.1666666666667 70.25676629889082, 480.8333333333333 22.20483836894062, 482.5 22.20483836894062 C 484.1666666666667 22.20483836894062, 485.8333333333333 77.79516163105939, 487.5 77.79516163105939 C 489.1666666666667 77.79516163105939, 490.8333333333333 28.6370945226561, 492.5 28.6370945226561 C 494.1666666666667 28.6370945226561, 495.8333333333333 71.3629054773439, 497.5 71.3629054773439 C 499.1666666666667 71.3629054773439, 500.8333333333333 23.281827702010172, 502.5 23.281827702010172 C 504.1666666666667 23.281827702010172, 505.8333333333333 76.71817229798982, 507.5 76.71817229798982 C 509.1666666666667 76.71817229798982, 510.8333333333333 29.083034619614818, 512.5 29.083034619614818 C 514.1666666666666 29.083034619614818, 515.8333333333334 70.91696538038518, 517.5 70.91696538038518 C 519.1666666666666 70.91696538038518, 520.8333333333334 19.075265768494965, 522.5 19.075265768494965 C 524.1666666666666 19.075265768494965, 525.8333333333334 80.92473423150503, 527.5 80.92473423150503 C 529.1666666666666 80.92473423150503, 530.8333333333334 20.63573964996408, 532.5 20.63573964996408 C 534.1666666666666 20.63573964996408, 535.8333333333334 79.36426035003592, 537.5 79.36426035003592 C 539.1666666666666 79.36426035003592, 540.8333333333334 24.294223430652217, 542.5 24.294223430652217 C 544.1666666666666 24.294223430652217, 545.8333333333334 75.70577656934779, 547.5 75.70577656934779 C 549.1666666666666 75.70577656934779, 550.8333333333334 23.933654731709037, 552.5 23.933654731709037 C 554.1666666666666 23.933654731709037, 555.8333333333334 76.06634526829096, 557.5 76.06634526829096 C 559.1666666666666 76.06634526829096, 560.8333333333334 21.296578542974554, 562.5 21.296578542974554 C 564.1666666666666 21.296578542974554, 565.8333333333334 78.70342145702544, 567.5 78.70342145702544 C 569.1666666666666 78.70342145702544, 570.8333333333334 26.533226398502386, 572.5 26.533226398502386 C 574.1666666666666 26.533226398502386, 575.8333333333334 73.46677360149761, 577.5 73.46677360149761 C 579.1666666666666 73.46677360149761, 580.8333333333334 18.459622118144736, 582.5 18.459622118144736 C 584.1666666666666 18.459622118144736, 585.8333333333334 81.54037788185526, 587.5 81.54037788185526 C 589.1666666666666 81.54037788185526, 590.8333333333334 26.948493775348982, 592.5 26.948493775348982 C 594.1666666666666 26.948493775348982, 595.8333333333334 73.05150622465102, 597.5 73.05150622465102 C 599.1666666666666 73.05150622465102, 600.8333333333334 16.537529413196054, 602.5 16.537529413196054 C 604.1666666666666 16.537529413196054, 605.8333333333334 83.46247058680395, 607.5 83.46247058680395 C 609.1666666666666 83.46247058680395, 610.8333333333334 24.70431962470108, 612.5 24.70431962470108 C 614.1666666666666 24.70431962470108, 615.8333333333334 75.29568037529893, 617.5 75.29568037529893 C 619.1666666666666 75.29568037529893, 620.8333333333334 23.790960159895143, 622.5 23.790960159895143 C 624.1666666666666 23.790960159895143, 625.8333333333334 76.20903984010485, 627.5 76.20903984010485 C 629.1666666666666 76.20903984010485, 630.8333333333334 21.094656539441957, 632.5 21.094656539441957 C 634.1666666666666 21.094656539441957, 635.8333333333334 78.90534346055804, 637.5 78.90534346055804 C 639.1666666666666 78.90534346055804, 640.8333333333334 25.609510054683756, 642.5 25.609510054683756 C 644.1666666666666 25.609510054683756, 645.8333333333334 74.39048994531625, 647.5 74.39048994531625 C 649.1666666666666 74.39048994531625, 650.8333333333334 26.473997270109656, 652.5 26.473997270109656 C 654.1666666666666 26.473997270109656, 655.8333333333334 73.52600272989034, 657.5 73.52600272989034 C 659.1666666666666 73.52600272989034, 660.8333333333334 25.994307186392177, 662.5 25.994307186392177 C 664.1666666666666 25.994307186392177, 665.8333333333334 74.00569281360782, 667.5 74.00569281360782 C 669.1666666666666 74.00569281360782, 670.8333333333334 5.2409886012857285, 672.5 5.2409886012857285 C 674.1666666666666 5.2409886012857285, 675.8333333333334 94.75901139871428, 677.5 94.75901139871428 C 679.1666666666666 94.75901139871428, 680.8333333333334 8.492059766494862, 682.5 8.492059766494862 C 684.1666666666666 8.492059766494862, 685.8333333333334 91.50794023350514, 687.5 91.50794023350514 C 689.1666666666666 91.50794023350514, 690.8333333333334 5.755405013946614, 692.5 5.755405013946614 C 694.1666666666666 5.755405013946614, 695.8333333333334 94.24459498605339, 697.5 94.24459498605339 C 699.1666666666666 94.24459498605339, 700.8333333333334 8.765228318372593, 702.5 8.765228318372593 C 704.1666666666666 8.765228318372593, 705.8333333333334 91.23477168162741, 707.5 91.23477168162741 C 709.1666666666666 91.23477168162741, 710.8333333333334 6.264040939647252, 712.5 6.264040939647252 C 714.1666666666666 6.264040939647252, 715.8333333333334 93.73595906035274, 717.5 93.73595906035274 C 719.1666666666666 93.73595906035274, 720.8333333333334 8.968868348191897, 722.5 8.968868348191897 C 724.1666666666666 8.968868348191897, 725.8333333333334 91.0311316518081, 727.5 91.0311316518081 C 729.1666666666666 91.0311316518081, 730.8333333333334 6.565549588779085, 732.5 6.565549588779085 C 734.1666666666666 6.565549588779085, 735.8333333333334 93.43445041122092, 737.5 93.43445041122092 C 739.1666666666666 93.43445041122092, 740.8333333333334 10.19138199296301, 742.5 10.19138199296301 C 744.1666666666666 10.19138199296301, 745.8333333333334 89.80861800703698, 747.5 89.80861800703698 C 749.1666666666666 89.80861800703698, 750.8333333333334 3.219575593117227, 752.5 3.219575593117227 C 754.1666666666666 3.219575593117227, 755.8333333333334 96.78042440688277, 757.5 96.78042440688277 C 759.1666666666666 96.78042440688277, 760.8333333333334 4.596001690809935, 762.5 4.596001690809935 C 764.1666666666666 4.596001690809935, 765.8333333333334 95.40399830919006, 767.5 95.40399830919006 C 769.1666666666666 95.40399830919006, 770.8333333333334 12.276295520307059, 772.5 12.276295520307059 C 774.1666666666666 12.276295520307059, 775.8333333333334 87.72370447969294, 777.5 87.72370447969294 C 779.1666666666666 87.72370447969294, 780.8333333333334 3.162785164380324, 782.5 3.162785164380324 C 784.1666666666666 3.162785164380324, 785.8333333333334 96.83721483561968, 787.5 96.83721483561968 C 789.1666666666666 96.83721483561968, 790.8333333333334 17.264620783376166, 792.5 17.264620783376166 C 794.1666666666666 17.264620783376166, 795.8333333333334 82.73537921662384, 797.5 82.73537921662384 C 799.1666666666666 82.73537921662384, 800.8333333333334 1.2968426249681215, 802.5 1.2968426249681215 C 804.1666666666666 1.2968426249681215, 805.8333333333334 98.70315737503188, 807.5 98.70315737503188 C 809.1666666666666 98.70315737503188, 810.8333333333334 21.418330951785407, 812.5 21.418330951785407 C 814.1666666666666 21.418330951785407, 815.8333333333334 78.5816690482146, 817.5 78.5816690482146 C 819.1666666666666 78.5816690482146, 820.8333333333334 0, 822.5 0 C 824.1666666666666 0, 825.8333333333334 100, 827.5 100 C 829.1666666666666 100, 830.8333333333334 13.234823057543686, 832.5 13.234823057543686 C 834.1666666666666 13.234823057543686, 835.8333333333334 86.76517694245632, 837.5 86.76517694245632 C 839.1666666666666 86.76517694245632, 840.8333333333334 12.162171547747043, 842.5 12.162171547747043 C 844.1666666666666 12.162171547747043, 845.8333333333334 87.83782845225295, 847.5 87.83782845225295 C 849.1666666666666 87.83782845225295, 850.8333333333334 19.761800816720033, 852.5 19.761800816720033 C 854.1666666666666 19.761800816720033, 855.8333333333334 80.23819918327996, 857.5 80.23819918327996 C 859.1666666666666 80.23819918327996, 860.8333333333334 24.092484808789756, 862.5 24.092484808789756 C 864.1666666666666 24.092484808789756, 865.8333333333334 75.90751519121025, 867.5 75.90751519121025 C 869.1666666666666 75.90751519121025, 870.8333333333334 16.3579978809451, 872.5 16.3579978809451 C 874.1666666666666 16.3579978809451, 875.8333333333334 83.6420021190549, 877.5 83.6420021190549 C 879.1666666666666 83.6420021190549, 880.8333333333334 18.70199509659215, 882.5 18.70199509659215 C 884.1666666666666 18.70199509659215, 885.8333333333334 81.29800490340784, 887.5 81.29800490340784 C 889.1666666666666 81.29800490340784, 890.8333333333334 8.104887657603335, 892.5 8.104887657603335 C 894.1666666666666 8.104887657603335, 895.8333333333334 91.89511234239666, 897.5 91.89511234239666 C 899.1666666666666 91.89511234239666, 900.8333333333334 23.644674281214794, 902.5 23.644674281214794 C 904.1666666666666 23.644674281214794, 905.8333333333334 76.35532571878521, 907.5 76.35532571878521 C 909.1666666666666 76.35532571878521, 910.8333333333334 13.041038505893113, 912.5 13.041038505893113 C 914.1666666666666 13.041038505893113, 915.8333333333334 86.95896149410689, 917.5 86.95896149410689 C 919.1666666666666 86.95896149410689, 920.8333333333334 18.137744717163507, 922.5 18.137744717163507 C 924.1666666666666 18.137744717163507, 925.8333333333334 81.86225528283649, 927.5 81.86225528283649 C 929.1666666666666 81.86225528283649, 930.8333333333334 15.758037137574227, 932.5 15.758037137574227 C 934.1666666666666 15.758037137574227, 935.8333333333334 84.24196286242577, 937.5 84.24196286242577 C 939.1666666666666 84.24196286242577, 940.8333333333334 23.459634558959657, 942.5 23.459634558959657 C 944.1666666666666 23.459634558959657, 945.8333333333334 76.54036544104034, 947.5 76.54036544104034 C 949.1666666666666 76.54036544104034, 950.8333333333334 13.625041724460736, 952.5 13.625041724460736 C 954.1666666666666 13.625041724460736, 955.8333333333334 86.37495827553926, 957.5 86.37495827553926 C 959.1666666666666 86.37495827553926, 960.8333333333334 27.131090568556004, 962.5 27.131090568556004 C 964.1666666666666 27.131090568556004, 965.8333333333334 72.868909431444, 967.5 72.868909431444 C 969.1666666666666 72.868909431444, 970.8333333333334 25.92810812670677, 972.5 25.92810812670677 C 974.1666666666666 25.92810812670677, 975.8333333333334 74.07189187329323, 977.5 74.07189187329323 C 979.1666666666666 74.07189187329323, 980.8333333333334 46.86068330695991, 982.5 46.86068330695991 C 984.1666666666666 46.86068330695991, 985.8333333333334 53.13931669304009, 987.5 53.13931669304009 C 989.1666666666666 53.13931669304009, 990.8333333333334 49.76107172496897, 992.5 49.76107172496897 C 994.1666666666666 49.76107172496897, 995.8333333333334 50.23892827503103, 997.5 50.23892827503103 C 999.1666666666666 50.23892827503103, 1000.8333333333334 50, 1002.5 50 C 1004.1666666666666 50, 1005.8333333333334 50, 1007.5 50 C 1008.4166666666666 50, 1009.3333333333334 50, 1010.25 50 " stroke="white" stroke-width="5" fill="transparent" />
  </g>
</svg>