<svg 
  baseProfile="tiny"
  preserveAspectRatio="keep"
  version="1.2"
  viewBox="-5.000000 -5.000000 1015.000000 105.000000"
  height="100%" width="100%"
  xmlns="http://www.w3.org/2000/svg"
  xmlns:ev="http://www.w3.org/2001/xml-events"
  xmlns:xlink="http://www.w3.org/1999/xlink"
>
  <g style="transform-origin: center center;">
    <path d="M -0.250000 50.000000 C 4 50, 8.25 50, 12.5 50 C 14.166666666666666 50, 15.833333333333334 50, 17.5 50 C 19.166666666666668 50, 20.833333333333332 49.98426448120003, 22.5 49.98426448120003 C 24.166666666666668 49.98426448120003, 25.833333333333332 50.01573551879997, 27.5 50.01573551879997 C 29.166666666666668 50.01573551879997, 30.833333333333332 49.849817381349766, 32.5 49.849817381349766 C 34.166666666666664 49.849817381349766, 35.833333333333336 50.150182618650234, 37.5 50.150182618650234 C 39.166666666666664 50.150182618650234, 40.833333333333336 39.3432562982267, 42.5 39.3432562982267 C 44.166666666666664 39.3432562982267, 45.833333333333336 60.6567437017733, 47.5 60.6567437017733 C 49.166666666666664 60.6567437017733, 50.833333333333336 40.063493153676475, 52.5 40.063493153676475 C 54.166666666666664 40.063493153676475, 55.833333333333336 59.936506846323525, 57.5 59.936506846323525 C 59.166666666666664 59.936506846323525, 60.833333333333336 43.67869679195043, 62.5 43.67869679195043 C 64.16666666666667 43.67869679195043, 65.83333333333333 56.32130320804957, 67.5 56.32130320804957 C 69.16666666666667 56.32130320804957, 70.83333333333333 46.74277683214999, 72.5 46.74277683214999 C 74.16666666666667 46.74277683214999, 75.83333333333333 53.25722316785001, 77.5 53.25722316785001 C 79.16666666666667 53.25722316785001, 80.83333333333333 48.49564320435869, 82.5 48.49564320435869 C 84.16666666666667 48.49564320435869, 85.83333333333333 51.50435679564131, 87.5 51.50435679564131 C 89.16666666666667 51.50435679564131, 90.83333333333333 30.61136364655428, 92.5 30.61136364655428 C 94.16666666666667 30.61136364655428, 95.83333333333333 69.38863635344572, 97.5 69.38863635344572 C 99.16666666666667 69.38863635344572, 100.83333333333333 36.97670811066058, 102.5 36.97670811066058 C 104.16666666666667 36.97670811066058, 105.83333333333333 63.02329188933942, 107.5 63.02329188933942 C 109.16666666666667 63.02329188933942, 110.83333333333333 28.043590607730152, 112.5 28.043590607730152 C 114.16666666666667 28.043590607730152, 115.83333333333333 71.95640939226985, 117.5 71.95640939226985 C 119.16666666666667 71.95640939226985, 120.83333333333333 33.085294020964604, 122.5 33.085294020964604 C 124.16666666666667 33.085294020964604, 125.83333333333333 66.9147059790354, 127.5 66.9147059790354 C 129.16666666666666 66.9147059790354, 130.83333333333334 37.10034522380274, 132.5 37.10034522380274 C 134.16666666666666 37.10034522380274, 135.83333333333334 62.89965477619726, 137.5 62.89965477619726 C 139.16666666666666 62.89965477619726, 140.83333333333334 31.157325489621524, 142.5 31.157325489621524 C 144.16666666666666 31.157325489621524, 145.83333333333334 68.84267451037847, 147.5 68.84267451037847 C 149.16666666666666 68.84267451037847, 150.83333333333334 37.33427904124842, 152.5 37.33427904124842 C 154.16666666666666 37.33427904124842, 155.83333333333334 62.66572095875158, 157.5 62.66572095875158 C 159.16666666666666 62.66572095875158, 160.83333333333334 2.811930817764832, 162.5 2.811930817764832 C 164.16666666666666 2.811930817764832, 165.83333333333334 97.18806918223517, 167.5 97.18806918223517 C 169.16666666666666 97.18806918223517, 170.83333333333334 3.3867764413818833, 172.5 3.3867764413818833 C 174.16666666666666 3.3867764413818833, 175.83333333333334 96.61322355861812, 177.5 96.61322355861812 C 179.16666666666666 96.61322355861812, 180.83333333333334 1.7549388597462254, 182.5 1.7549388597462254 C 184.16666666666666 1.7549388597462254, 185.83333333333334 98.24506114025377, 187.5 98.24506114025377 C 189.16666666666666 98.24506114025377, 190.83333333333334 4.966787661312075, 192.5 4.966787661312075 C 194.16666666666666 4.966787661312075, 195.83333333333334 95.03321233868792, 197.5 95.03321233868792 C 199.16666666666666 95.03321233868792, 200.83333333333334 3.012049314072158, 202.5 3.012049314072158 C 204.16666666666666 3.012049314072158, 205.83333333333334 96.98795068592784, 207.5 96.98795068592784 C 209.16666666666666 96.98795068592784, 210.83333333333334 6.5958545139585425, 212.5 6.5958545139585425 C 214.16666666666666 6.5958545139585425, 215.83333333333334 93.40414548604146, 217.5 93.40414548604146 C 219.16666666666666 93.40414548604146, 220.83333333333334 6.546179209828807, 222.5 6.546179209828807 C 224.16666666666666 6.546179209828807, 225.83333333333334 93.45382079017119, 227.5 93.45382079017119 C 229.16666666666666 93.45382079017119, 230.83333333333334 15.254313336078397, 232.5 15.254313336078397 C 234.16666666666666 15.254313336078397, 235.83333333333334 84.7456866639216, 237.5 84.7456866639216 C 239.16666666666666 84.7456866639216, 240.83333333333334 18.312789988739276, 242.5 18.312789988739276 C 244.16666666666666 18.312789988739276, 245.83333333333334 81.68721001126073, 247.5 81.68721001126073 C 249.16666666666666 81.68721001126073, 250.83333333333334 17.008162159824693, 252.5 17.008162159824693 C 254.16666666666666 17.008162159824693, 255.83333333333334 82.99183784017531, 257.5 82.99183784017531 C 259.1666666666667 82.99183784017531, 260.8333333333333 17.52141647110895, 262.5 17.52141647110895 C 264.1666666666667 17.52141647110895, 265.8333333333333 82.47858352889105, 267.5 82.47858352889105 C 269.1666666666667 82.47858352889105, 270.8333333333333 16.734443907025536, 272.5 16.734443907025536 C 274.1666666666667 16.734443907025536, 275.8333333333333 83.26555609297446, 277.5 83.26555609297446 C 279.1666666666667 83.26555609297446, 280.8333333333333 2.3113938931099227, 282.5 2.3113938931099227 C 284.1666666666667 2.3113938931099227, 285.8333333333333 97.68860610689008, 287.5 97.68860610689008 C 289.1666666666667 97.68860610689008, 290.8333333333333 5.170441538059208, 292.5 5.170441538059208 C 294.1666666666667 5.170441538059208, 295.8333333333333 94.82955846194079, 297.5 94.82955846194079 C 299.1666666666667 94.82955846194079, 300.8333333333333 3.4752001549779123, 302.5 3.4752001549779123 C 304.1666666666667 3.4752001549779123, 305.8333333333333 96.52479984502209, 307.5 96.52479984502209 C 309.1666666666667 96.52479984502209, 310.8333333333333 8.911860393153013, 312.5 8.911860393153013 C 314.1666666666667 8.911860393153013, 315.8333333333333 91.088139606847, 317.5 91.088139606847 C 319.1666666666667 91.088139606847, 320.8333333333333 8.41680023377021, 322.5 8.41680023377021 C 324.1666666666667 8.41680023377021, 325.8333333333333 91.5831997662298, 327.5 91.5831997662298 C 329.1666666666667 91.5831997662298, 330.8333333333333 15.082835878075016, 332.5 15.082835878075016 C 334.1666666666667 15.082835878075016, 335.8333333333333 84.91716412192498, 337.5 84.91716412192498 C 339.1666666666667 84.91716412192498, 340.8333333333333 18.050114376796706, 342.5 18.050114376796706 C 344.1666666666667 18.050114376796706, 345.8333333333333 81.9498856232033, 347.5 81.9498856232033 C 349.1666666666667 81.9498856232033, 350.8333333333333 16.472104736912144, 352.5 16.472104736912144 C 354.1666666666667 16.472104736912144, 355.8333333333333 83.52789526308786, 357.5 83.52789526308786 C 359.1666666666667 83.52789526308786, 360.8333333333333 17.354076353060925, 362.5 17.354076353060925 C 364.1666666666667 17.354076353060925, 365.8333333333333 82.64592364693908, 367.5 82.64592364693908 C 369.1666666666667 82.64592364693908, 370.8333333333333 17.620582055962238, 372.5 17.620582055962238 C 374.1666666666667 17.620582055962238, 375.8333333333333 82.37941794403775, 377.5 82.37941794403775 C 379.1666666666667 82.37941794403775, 380.8333333333333 2.610642652038962, 382.5 2.610642652038962 C 384.1666666666667 2.610642652038962, 385.8333333333333 97.38935734796104, 387.5 97.38935734796104 C 389.1666666666667 97.38935734796104, 390.8333333333333 5.312315682433109, 392.5 5.312315682433109 C 394.1666666666667 5.312315682433109, 395.8333333333333 94.68768431756689, 397.5 94.68768431756689 C 399.1666666666667 94.68768431756689, 400.8333333333333 0, 402.5 0 C 404.1666666666667 0, 405.8333333333333 100, 407.5 100 C 409.1666666666667 100, 410.8333333333333 5.96654861350374, 412.5 5.96654861350374 C 414.1666666666667 5.96654861350374, 415.8333333333333 94.03345138649627, 417.5 94.03345138649627 C 419.1666666666667 94.03345138649627, 420.8333333333333 5.778058928823839, 422.5 5.778058928823839 C 424.1666666666667 5.778058928823839, 425.8333333333333 94.22194107117616, 427.5 94.22194107117616 C 429.1666666666667 94.22194107117616, 430.8333333333333 6.7118257600880185, 432.5 6.7118257600880185 C 434.1666666666667 6.7118257600880185, 435.8333333333333 93.28817423991198, 437.5 93.28817423991198 C 439.1666666666667 93.28817423991198, 440.8333333333333 9.087914579507569, 442.5 9.087914579507569 C 444.1666666666667 9.087914579507569, 445.8333333333333 90.91208542049243, 447.5 90.91208542049243 C 449.1666666666667 90.91208542049243, 450.8333333333333 12.863975442938305, 452.5 12.863975442938305 C 454.1666666666667 12.863975442938305, 455.8333333333333 87.13602455706169, 457.5 87.13602455706169 C 459.1666666666667 87.13602455706169, 460.8333333333333 15.372510411797734, 462.5 15.372510411797734 C 464.1666666666667 15.372510411797734, 465.8333333333333 84.62748958820227, 467.5 84.62748958820227 C 469.1666666666667 84.62748958820227, 470.8333333333333 21.772359465158637, 472.5 21.772359465158637 C 474.1666666666667 21.772359465158637, 475.8333333333333 78.22764053484136, 477.5 78.22764053484136 C 479.1666666666667 78.22764053484136, 480.8333333333333 23.0002812475712, 482.5 23.0002812475712 C 484.1666666666667 23.0002812475712, 485.8333333333333 76.9997187524288, 487.5 76.9997187524288 C 489.1666666666667 76.9997187524288, 490.8333333333333 29.777634209660572, 492.5 29.777634209660572 C 494.1666666666667 29.777634209660572, 495.8333333333333 70.22236579033942, 497.5 70.22236579033942 C 499.1666666666667 70.22236579033942, 500.8333333333333 29.189446741035415, 502.5 29.189446741035415 C 504.1666666666667 29.189446741035415, 505.8333333333333 70.81055325896459, 507.5 70.81055325896459 C 509.1666666666667 70.81055325896459, 510.8333333333333 34.25552929480696, 512.5 34.25552929480696 C 514.1666666666666 34.25552929480696, 515.8333333333334 65.74447070519304, 517.5 65.74447070519304 C 519.1666666666666 65.74447070519304, 520.8333333333334 2.73950685902291, 522.5 2.73950685902291 C 524.1666666666666 2.73950685902291, 525.8333333333334 97.26049314097709, 527.5 97.26049314097709 C 529.1666666666666 97.26049314097709, 530.8333333333334 5.479050695295584, 532.5 5.479050695295584 C 534.1666666666666 5.479050695295584, 535.8333333333334 94.52094930470442, 537.5 94.52094930470442 C 539.1666666666666 94.52094930470442, 540.8333333333334 6.006638956740652, 542.5 6.006638956740652 C 544.1666666666666 6.006638956740652, 545.8333333333334 93.99336104325934, 547.5 93.99336104325934 C 549.1666666666666 93.99336104325934, 550.8333333333334 9.78497229951536, 552.5 9.78497229951536 C 554.1666666666666 9.78497229951536, 555.8333333333334 90.21502770048464, 557.5 90.21502770048464 C 559.1666666666666 90.21502770048464, 560.8333333333334 8.544128369023433, 562.5 8.544128369023433 C 564.1666666666666 8.544128369023433, 565.8333333333334 91.45587163097656, 567.5 91.45587163097656 C 569.1666666666666 91.45587163097656, 570.8333333333334 12.034023080710938, 572.5 12.034023080710938 C 574.1666666666666 12.034023080710938, 575.8333333333334 87.96597691928906, 577.5 87.96597691928906 C 579.1666666666666 87.96597691928906, 580.8333333333334 14.51007283969787, 582.5 14.51007283969787 C 584.1666666666666 14.51007283969787, 585.8333333333334 85.48992716030213, 587.5 85.48992716030213 C 589.1666666666666 85.48992716030213, 590.8333333333334 16.809494841159193, 592.5 16.809494841159193 C 594.1666666666666 16.809494841159193, 595.8333333333334 83.1905051588408, 597.5 83.1905051588408 C 599.1666666666666 83.1905051588408, 600.8333333333334 15.270169777854505, 602.5 15.270169777854505 C 604.1666666666666 15.270169777854505, 605.8333333333334 84.7298302221455, 607.5 84.7298302221455 C 609.1666666666666 84.7298302221455, 610.8333333333334 18.199920174539812, 612.5 18.199920174539812 C 614.1666666666666 18.199920174539812, 615.8333333333334 81.80007982546019, 617.5 81.80007982546019 C 619.1666666666666 81.80007982546019, 620.8333333333334 5.561947976078649, 622.5 5.561947976078649 C 624.1666666666666 5.561947976078649, 625.8333333333334 94.43805202392136, 627.5 94.43805202392136 C 629.1666666666666 94.43805202392136, 630.8333333333334 6.206822237308373, 632.5 6.206822237308373 C 634.1666666666666 6.206822237308373, 635.8333333333334 93.79317776269163, 637.5 93.79317776269163 C 639.1666666666666 93.79317776269163, 640.8333333333334 14.415755788578132, 642.5 14.415755788578132 C 644.1666666666666 14.415755788578132, 645.8333333333334 85.58424421142186, 647.5 85.58424421142186 C 649.1666666666666 85.58424421142186, 650.8333333333334 15.57103961662677, 652.5 15.57103961662677 C 654.1666666666666 15.57103961662677, 655.8333333333334 84.42896038337324, 657.5 84.42896038337324 C 659.1666666666666 84.42896038337324, 660.8333333333334 19.892966186509987, 662.5 19.892966186509987 C 664.1666666666666 19.892966186509987, 665.8333333333334 80.10703381349, 667.5 80.10703381349 C 669.1666666666666 80.10703381349, 670.8333333333334 0.5045642141767317, 672.5 0.5045642141767317 C 674.1666666666666 0.5045642141767317, 675.8333333333334 99.49543578582328, 677.5 99.49543578582328 C 679.1666666666666 99.49543578582328, 680.8333333333334 4.623539195964533, 682.5 4.623539195964533 C 684.1666666666666 4.623539195964533, 685.8333333333334 95.37646080403547, 687.5 95.37646080403547 C 689.1666666666666 95.37646080403547, 690.8333333333334 6.224577222991975, 692.5 6.224577222991975 C 694.1666666666666 6.224577222991975, 695.8333333333334 93.77542277700803, 697.5 93.77542277700803 C 699.1666666666666 93.77542277700803, 700.8333333333334 9.258987983349954, 702.5 9.258987983349954 C 704.1666666666666 9.258987983349954, 705.8333333333334 90.74101201665005, 707.5 90.74101201665005 C 709.1666666666666 90.74101201665005, 710.8333333333334 9.93276297759224, 712.5 9.93276297759224 C 714.1666666666666 9.93276297759224, 715.8333333333334 90.06723702240777, 717.5 90.06723702240777 C 719.1666666666666 90.06723702240777, 720.8333333333334 12.955666412385241, 722.5 12.955666412385241 C 724.1666666666666 12.955666412385241, 725.8333333333334 87.04433358761476, 727.5 87.04433358761476 C 729.1666666666666 87.04433358761476, 730.8333333333334 17.91167035110928, 732.5 17.91167035110928 C 734.1666666666666 17.91167035110928, 735.8333333333334 82.08832964889072, 737.5 82.08832964889072 C 739.1666666666666 82.08832964889072, 740.8333333333334 19.279469786158632, 742.5 19.279469786158632 C 744.1666666666666 19.279469786158632, 745.8333333333334 80.72053021384137, 747.5 80.72053021384137 C 749.1666666666666 80.72053021384137, 750.8333333333334 19.493199372355623, 752.5 19.493199372355623 C 754.1666666666666 19.493199372355623, 755.8333333333334 80.50680062764438, 757.5 80.50680062764438 C 759.1666666666666 80.50680062764438, 760.8333333333334 14.199633313715324, 762.5 14.199633313715324 C 764.1666666666666 14.199633313715324, 765.8333333333334 85.80036668628468, 767.5 85.80036668628468 C 769.1666666666666 85.80036668628468, 770.8333333333334 17.14889503126868, 772.5 17.14889503126868 C 774.1666666666666 17.14889503126868, 775.8333333333334 82.85110496873132, 777.5 82.85110496873132 C 779.1666666666666 82.85110496873132, 780.8333333333334 20.5082714121129, 782.5 20.5082714121129 C 784.1666666666666 20.5082714121129, 785.8333333333334 79.4917285878871, 787.5 79.4917285878871 C 789.1666666666666 79.4917285878871, 790.8333333333334 1.602811877649927, 792.5 1.602811877649927 C 794.1666666666666 1.602811877649927, 795.8333333333334 98.39718812235007, 797.5 98.39718812235007 C 799.1666666666666 98.39718812235007, 800.8333333333334 6.942979548506052, 802.5 6.942979548506052 C 804.1666666666666 6.942979548506052, 805.8333333333334 93.05702045149394, 807.5 93.05702045149394 C 809.1666666666666 93.05702045149394, 810.8333333333334 5.604896337951928, 812.5 5.604896337951928 C 814.1666666666666 5.604896337951928, 815.8333333333334 94.39510366204807, 817.5 94.39510366204807 C 819.1666666666666 94.39510366204807, 820.8333333333334 8.410279704625104, 822.5 8.410279704625104 C 824.1666666666666 8.410279704625104, 825.8333333333334 91.58972029537489, 827.5 91.58972029537489 C 829.1666666666666 91.58972029537489, 830.8333333333334 9.48514201318936, 832.5 9.48514201318936 C 834.1666666666666 9.48514201318936, 835.8333333333334 90.51485798681064, 837.5 90.51485798681064 C 839.1666666666666 90.51485798681064, 840.8333333333334 7.603540143138474, 842.5 7.603540143138474 C 844.1666666666666 7.603540143138474, 845.8333333333334 92.39645985686153, 847.5 92.39645985686153 C 849.1666666666666 92.39645985686153, 850.8333333333334 8.104160537353053, 852.5 8.104160537353053 C 854.1666666666666 8.104160537353053, 855.8333333333334 91.89583946264695, 857.5 91.89583946264695 C 859.1666666666666 91.89583946264695, 860.8333333333334 13.801824568972485, 862.5 13.801824568972485 C 864.1666666666666 13.801824568972485, 865.8333333333334 86.19817543102752, 867.5 86.19817543102752 C 869.1666666666666 86.19817543102752, 870.8333333333334 17.32750494784063, 872.5 17.32750494784063 C 874.1666666666666 17.32750494784063, 875.8333333333334 82.67249505215938, 877.5 82.67249505215938 C 879.1666666666666 82.67249505215938, 880.8333333333334 14.076780867882746, 882.5 14.076780867882746 C 884.1666666666666 14.076780867882746, 885.8333333333334 85.92321913211725, 887.5 85.92321913211725 C 889.1666666666666 85.92321913211725, 890.8333333333334 16.83022118849081, 892.5 16.83022118849081 C 894.1666666666666 16.83022118849081, 895.8333333333334 83.16977881150919, 897.5 83.16977881150919 C 899.1666666666666 83.16977881150919, 900.8333333333334 30.637463294336424, 902.5 30.637463294336424 C 904.1666666666666 30.637463294336424, 905.8333333333334 69.36253670566357, 907.5 69.36253670566357 C 909.1666666666666 69.36253670566357, 910.8333333333334 34.656387043149614, 912.5 34.656387043149614 C 914.1666666666666 34.656387043149614, 915.8333333333334 65.3436129568504, 917.5 65.3436129568504 C 919.1666666666666 65.3436129568504, 920.8333333333334 37.527172397544035, 922.5 37.527172397544035 C 924.1666666666666 37.527172397544035, 925.8333333333334 62.472827602455965, 927.5 62.472827602455965 C 929.1666666666666 62.472827602455965, 930.8333333333334 38.16960352283431, 932.5 38.16960352283431 C 934.1666666666666 38.16960352283431, 935.8333333333334 61.83039647716569, 937.5 61.83039647716569 C 939.1666666666666 61.83039647716569, 940.8333333333334 37.30562971198246, 942.5 37.30562971198246 C 944.1666666666666 37.30562971198246, 945.8333333333334 62.69437028801754, 947.5 62.69437028801754 C 949.1666666666666 62.69437028801754, 950.8333333333334 38.906353181298854, 952.5 38.906353181298854 C 954.1666666666666 38.906353181298854, 955.8333333333334 61.093646818701146, 957.5 61.093646818701146 C 959.1666666666666 61.093646818701146, 960.8333333333334 47.180988120483995, 962.5 47.180988120483995 C 964.1666666666666 47.180988120483995, 965.8333333333334 52.819011879516005, 967.5 52.819011879516005 C 969.1666666666666 52.819011879516005, 970.8333333333334 47.18308904498978, 972.5 47.18308904498978 C 974.1666666666666 47.18308904498978, 975.8333333333334 52.81691095501022, 977.5 52.81691095501022 C 979.1666666666666 52.81691095501022, 980.8333333333334 48.095317743136306, 982.5 48.095317743136306 C 984.1666666666666 48.095317743136306, 985.8333333333334 51.904682256863694, 987.5 51.904682256863694 C 989.1666666666666 51.904682256863694, 990.8333333333334 49.91336639980743, 992.5 49.91336639980743 C 994.1666666666666 49.91336639980743, 995.8333333333334 50.08663360019257, 997.5 50.08663360019257 C 999.1666666666666 50.08663360019257, 1000.8333333333334 50, 1002.5 50 C 1004.1666666666666 50, 1005.8333333333334 50, 1007.5 50 C 1008.4166666666666 50, 1009.3333333333334 50, 1010.25 50 " stroke="white" stroke-width="5" fill="transparent" />
  </g>
</svg>