<svg 
  baseProfile="tiny"
  preserveAspectRatio="keep"
  version="1.2"
  viewBox="-5.000000 -5.000000 1015.000000 105.000000"
  height="100%" width="100%"
  xmlns="http://www.w3.org/2000/svg"
  xmlns:ev="http://www.w3.org/2001/xml-events"
  xmlns:xlink="http://www.w3.org/1999/xlink"
>
  <g style="transform-origin: center center;">
    <path d="M -0.250000 50.000000 C 4 50, 8.25 50, 12.5 50 C 14.166666666666666 50, 15.833333333333334 50, 17.5 50 C 19.166666666666668 50, 20.833333333333332 49.1310993983956, 22.5 49.1310993983956 C 24.166666666666668 49.1310993983956, 25.833333333333332 50.8689006016044, 27.5 50.8689006016044 C 29.166666666666668 50.8689006016044, 30.833333333333332 43.563516611648005, 32.5 43.563516611648005 C 34.166666666666664 43.563516611648005, 35.833333333333336 56.436483388351995, 37.5 56.436483388351995 C 39.166666666666664 56.436483388351995, 40.833333333333336 38.36784047816334, 42.5 38.36784047816334 C 44.166666666666664 38.36784047816334, 45.833333333333336 61.63215952183666, 47.5 61.63215952183666 C 49.166666666666664 61.63215952183666, 50.833333333333336 25.40416183749286, 52.5 25.40416183749286 C 54.166666666666664 25.40416183749286, 55.833333333333336 74.59583816250714, 57.5 74.59583816250714 C 59.166666666666664 74.59583816250714, 60.833333333333336 46.000227388151345, 62.5 46.000227388151345 C 64.16666666666667 46.000227388151345, 65.83333333333333 53.999772611848655, 67.5 53.999772611848655 C 69.16666666666667 53.999772611848655, 70.83333333333333 15.204133773260658, 72.5 15.204133773260658 C 74.16666666666667 15.204133773260658, 75.83333333333333 84.79586622673935, 77.5 84.79586622673935 C 79.16666666666667 84.79586622673935, 80.83333333333333 15.328454973331645, 82.5 15.328454973331645 C 84.16666666666667 15.328454973331645, 85.83333333333333 84.67154502666835, 87.5 84.67154502666835 C 89.16666666666667 84.67154502666835, 90.83333333333333 15.7333284143864, 92.5 15.7333284143864 C 94.16666666666667 15.7333284143864, 95.83333333333333 84.26667158561361, 97.5 84.26667158561361 C 99.16666666666667 84.26667158561361, 100.83333333333333 16.059800137138666, 102.5 16.059800137138666 C 104.16666666666667 16.059800137138666, 105.83333333333333 83.94019986286133, 107.5 83.94019986286133 C 109.16666666666667 83.94019986286133, 110.83333333333333 0.3860806067400162, 112.5 0.3860806067400162 C 114.16666666666667 0.3860806067400162, 115.83333333333333 99.61391939325998, 117.5 99.61391939325998 C 119.16666666666667 99.61391939325998, 120.83333333333333 14.174743527351048, 122.5 14.174743527351048 C 124.16666666666667 14.174743527351048, 125.83333333333333 85.82525647264896, 127.5 85.82525647264896 C 129.16666666666666 85.82525647264896, 130.83333333333334 11.2017710668214, 132.5 11.2017710668214 C 134.16666666666666 11.2017710668214, 135.83333333333334 88.79822893317859, 137.5 88.79822893317859 C 139.16666666666666 88.79822893317859, 140.83333333333334 17.20698629388425, 142.5 17.20698629388425 C 144.16666666666666 17.20698629388425, 145.83333333333334 82.79301370611574, 147.5 82.79301370611574 C 149.16666666666666 82.79301370611574, 150.83333333333334 14.736556848748563, 152.5 14.736556848748563 C 154.16666666666666 14.736556848748563, 155.83333333333334 85.26344315125144, 157.5 85.26344315125144 C 159.16666666666666 85.26344315125144, 160.83333333333334 16.081310517545766, 162.5 16.081310517545766 C 164.16666666666666 16.081310517545766, 165.83333333333334 83.91868948245423, 167.5 83.91868948245423 C 169.16666666666666 83.91868948245423, 170.83333333333334 16.5842122389031, 172.5 16.5842122389031 C 174.16666666666666 16.5842122389031, 175.83333333333334 83.41578776109691, 177.5 83.41578776109691 C 179.16666666666666 83.41578776109691, 180.83333333333334 16.98089706633239, 182.5 16.98089706633239 C 184.16666666666666 16.98089706633239, 185.83333333333334 83.01910293366761, 187.5 83.01910293366761 C 189.16666666666666 83.01910293366761, 190.83333333333334 14.044368525139888, 192.5 14.044368525139888 C 194.16666666666666 14.044368525139888, 195.83333333333334 85.95563147486011, 197.5 85.95563147486011 C 199.16666666666666 85.95563147486011, 200.83333333333334 17.86241448329468, 202.5 17.86241448329468 C 204.16666666666666 17.86241448329468, 205.83333333333334 82.13758551670531, 207.5 82.13758551670531 C 209.16666666666666 82.13758551670531, 210.83333333333334 11.253783197139953, 212.5 11.253783197139953 C 214.16666666666666 11.253783197139953, 215.83333333333334 88.74621680286005, 217.5 88.74621680286005 C 219.16666666666666 88.74621680286005, 220.83333333333334 9.80368189011947, 222.5 9.80368189011947 C 224.16666666666666 9.80368189011947, 225.83333333333334 90.19631810988054, 227.5 90.19631810988054 C 229.16666666666666 90.19631810988054, 230.83333333333334 12.803912450912598, 232.5 12.803912450912598 C 234.16666666666666 12.803912450912598, 235.83333333333334 87.1960875490874, 237.5 87.1960875490874 C 239.16666666666666 87.1960875490874, 240.83333333333334 19.465379703947438, 242.5 19.465379703947438 C 244.16666666666666 19.465379703947438, 245.83333333333334 80.53462029605257, 247.5 80.53462029605257 C 249.16666666666666 80.53462029605257, 250.83333333333334 13.67772240068792, 252.5 13.67772240068792 C 254.16666666666666 13.67772240068792, 255.83333333333334 86.32227759931209, 257.5 86.32227759931209 C 259.1666666666667 86.32227759931209, 260.8333333333333 16.789849556797463, 262.5 16.789849556797463 C 264.1666666666667 16.789849556797463, 265.8333333333333 83.21015044320254, 267.5 83.21015044320254 C 269.1666666666667 83.21015044320254, 270.8333333333333 16.116147992942174, 272.5 16.116147992942174 C 274.1666666666667 16.116147992942174, 275.8333333333333 83.88385200705783, 277.5 83.88385200705783 C 279.1666666666667 83.88385200705783, 280.8333333333333 12.500325939671121, 282.5 12.500325939671121 C 284.1666666666667 12.500325939671121, 285.8333333333333 87.49967406032889, 287.5 87.49967406032889 C 289.1666666666667 87.49967406032889, 290.8333333333333 0, 292.5 0 C 294.1666666666667 0, 295.8333333333333 100, 297.5 100 C 299.1666666666667 100, 300.8333333333333 6.947994052622789, 302.5 6.947994052622789 C 304.1666666666667 6.947994052622789, 305.8333333333333 93.05200594737721, 307.5 93.05200594737721 C 309.1666666666667 93.05200594737721, 310.8333333333333 7.2636736166847555, 312.5 7.2636736166847555 C 314.1666666666667 7.2636736166847555, 315.8333333333333 92.73632638331524, 317.5 92.73632638331524 C 319.1666666666667 92.73632638331524, 320.8333333333333 14.22499464355353, 322.5 14.22499464355353 C 324.1666666666667 14.22499464355353, 325.8333333333333 85.77500535644647, 327.5 85.77500535644647 C 329.1666666666667 85.77500535644647, 330.8333333333333 12.526932841810158, 332.5 12.526932841810158 C 334.1666666666667 12.526932841810158, 335.8333333333333 87.47306715818985, 337.5 87.47306715818985 C 339.1666666666667 87.47306715818985, 340.8333333333333 21.274884045315208, 342.5 21.274884045315208 C 344.1666666666667 21.274884045315208, 345.8333333333333 78.7251159546848, 347.5 78.7251159546848 C 349.1666666666667 78.7251159546848, 350.8333333333333 15.509346978594785, 352.5 15.509346978594785 C 354.1666666666667 15.509346978594785, 355.8333333333333 84.49065302140522, 357.5 84.49065302140522 C 359.1666666666667 84.49065302140522, 360.8333333333333 10.249050888133063, 362.5 10.249050888133063 C 364.1666666666667 10.249050888133063, 365.8333333333333 89.75094911186693, 367.5 89.75094911186693 C 369.1666666666667 89.75094911186693, 370.8333333333333 8.627438928796302, 372.5 8.627438928796302 C 374.1666666666667 8.627438928796302, 375.8333333333333 91.3725610712037, 377.5 91.3725610712037 C 379.1666666666667 91.3725610712037, 380.8333333333333 8.027018785477928, 382.5 8.027018785477928 C 384.1666666666667 8.027018785477928, 385.8333333333333 91.97298121452206, 387.5 91.97298121452206 C 389.1666666666667 91.97298121452206, 390.8333333333333 6.951667614367437, 392.5 6.951667614367437 C 394.1666666666667 6.951667614367437, 395.8333333333333 93.04833238563256, 397.5 93.04833238563256 C 399.1666666666667 93.04833238563256, 400.8333333333333 7.060490703125446, 402.5 7.060490703125446 C 404.1666666666667 7.060490703125446, 405.8333333333333 92.93950929687455, 407.5 92.93950929687455 C 409.1666666666667 92.93950929687455, 410.8333333333333 3.7398370051967476, 412.5 3.7398370051967476 C 414.1666666666667 3.7398370051967476, 415.8333333333333 96.26016299480325, 417.5 96.26016299480325 C 419.1666666666667 96.26016299480325, 420.8333333333333 19.880946259882403, 422.5 19.880946259882403 C 424.1666666666667 19.880946259882403, 425.8333333333333 80.1190537401176, 427.5 80.1190537401176 C 429.1666666666667 80.1190537401176, 430.8333333333333 11.3633696192, 432.5 11.3633696192 C 434.1666666666667 11.3633696192, 435.8333333333333 88.6366303808, 437.5 88.6366303808 C 439.1666666666667 88.6366303808, 440.8333333333333 18.292587615081572, 442.5 18.292587615081572 C 444.1666666666667 18.292587615081572, 445.8333333333333 81.70741238491843, 447.5 81.70741238491843 C 449.1666666666667 81.70741238491843, 450.8333333333333 26.183688348832177, 452.5 26.183688348832177 C 454.1666666666667 26.183688348832177, 455.8333333333333 73.81631165116782, 457.5 73.81631165116782 C 459.1666666666667 73.81631165116782, 460.8333333333333 42.60834412875025, 462.5 42.60834412875025 C 464.1666666666667 42.60834412875025, 465.8333333333333 57.39165587124975, 467.5 57.39165587124975 C 469.1666666666667 57.39165587124975, 470.8333333333333 38.01711716436887, 472.5 38.01711716436887 C 474.1666666666667 38.01711716436887, 475.8333333333333 61.98288283563113, 477.5 61.98288283563113 C 479.1666666666667 61.98288283563113, 480.8333333333333 36.280061621321735, 482.5 36.280061621321735 C 484.1666666666667 36.280061621321735, 485.8333333333333 63.719938378678265, 487.5 63.719938378678265 C 489.1666666666667 63.719938378678265, 490.8333333333333 18.75026168152976, 492.5 18.75026168152976 C 494.1666666666667 18.75026168152976, 495.8333333333333 81.24973831847024, 497.5 81.24973831847024 C 499.1666666666667 81.24973831847024, 500.8333333333333 49.9585276937701, 502.5 49.9585276937701 C 504.1666666666667 49.9585276937701, 505.8333333333333 50.0414723062299, 507.5 50.0414723062299 C 509.1666666666667 50.0414723062299, 510.8333333333333 16.130548152838642, 512.5 16.130548152838642 C 514.1666666666666 16.130548152838642, 515.8333333333334 83.86945184716136, 517.5 83.86945184716136 C 519.1666666666666 83.86945184716136, 520.8333333333334 24.98822833129344, 522.5 24.98822833129344 C 524.1666666666666 24.98822833129344, 525.8333333333334 75.01177166870656, 527.5 75.01177166870656 C 529.1666666666666 75.01177166870656, 530.8333333333334 16.892652946448997, 532.5 16.892652946448997 C 534.1666666666666 16.892652946448997, 535.8333333333334 83.107347053551, 537.5 83.107347053551 C 539.1666666666666 83.107347053551, 540.8333333333334 17.165635247900376, 542.5 17.165635247900376 C 544.1666666666666 17.165635247900376, 545.8333333333334 82.83436475209962, 547.5 82.83436475209962 C 549.1666666666666 82.83436475209962, 550.8333333333334 21.742538563278075, 552.5 21.742538563278075 C 554.1666666666666 21.742538563278075, 555.8333333333334 78.25746143672193, 557.5 78.25746143672193 C 559.1666666666666 78.25746143672193, 560.8333333333334 21.57025078101823, 562.5 21.57025078101823 C 564.1666666666666 21.57025078101823, 565.8333333333334 78.42974921898177, 567.5 78.42974921898177 C 569.1666666666666 78.42974921898177, 570.8333333333334 21.813727742280655, 572.5 21.813727742280655 C 574.1666666666666 21.813727742280655, 575.8333333333334 78.18627225771934, 577.5 78.18627225771934 C 579.1666666666666 78.18627225771934, 580.8333333333334 20.55265873804964, 582.5 20.55265873804964 C 584.1666666666666 20.55265873804964, 585.8333333333334 79.44734126195036, 587.5 79.44734126195036 C 589.1666666666666 79.44734126195036, 590.8333333333334 13.44850966275429, 592.5 13.44850966275429 C 594.1666666666666 13.44850966275429, 595.8333333333334 86.55149033724571, 597.5 86.55149033724571 C 599.1666666666666 86.55149033724571, 600.8333333333334 23.557495913373305, 602.5 23.557495913373305 C 604.1666666666666 23.557495913373305, 605.8333333333334 76.4425040866267, 607.5 76.4425040866267 C 609.1666666666666 76.4425040866267, 610.8333333333334 21.329991128039396, 612.5 21.329991128039396 C 614.1666666666666 21.329991128039396, 615.8333333333334 78.6700088719606, 617.5 78.6700088719606 C 619.1666666666666 78.6700088719606, 620.8333333333334 21.308859501351947, 622.5 21.308859501351947 C 624.1666666666666 21.308859501351947, 625.8333333333334 78.69114049864805, 627.5 78.69114049864805 C 629.1666666666666 78.69114049864805, 630.8333333333334 14.229029191403107, 632.5 14.229029191403107 C 634.1666666666666 14.229029191403107, 635.8333333333334 85.7709708085969, 637.5 85.7709708085969 C 639.1666666666666 85.7709708085969, 640.8333333333334 16.15166666868614, 642.5 16.15166666868614 C 644.1666666666666 16.15166666868614, 645.8333333333334 83.84833333131385, 647.5 83.84833333131385 C 649.1666666666666 83.84833333131385, 650.8333333333334 23.92458436332089, 652.5 23.92458436332089 C 654.1666666666666 23.92458436332089, 655.8333333333334 76.07541563667911, 657.5 76.07541563667911 C 659.1666666666666 76.07541563667911, 660.8333333333334 30.790529126404376, 662.5 30.790529126404376 C 664.1666666666666 30.790529126404376, 665.8333333333334 69.20947087359562, 667.5 69.20947087359562 C 669.1666666666666 69.20947087359562, 670.8333333333334 17.662610410020434, 672.5 17.662610410020434 C 674.1666666666666 17.662610410020434, 675.8333333333334 82.33738958997957, 677.5 82.33738958997957 C 679.1666666666666 82.33738958997957, 680.8333333333334 20.42322305963214, 682.5 20.42322305963214 C 684.1666666666666 20.42322305963214, 685.8333333333334 79.57677694036786, 687.5 79.57677694036786 C 689.1666666666666 79.57677694036786, 690.8333333333334 20.19696772127983, 692.5 20.19696772127983 C 694.1666666666666 20.19696772127983, 695.8333333333334 79.80303227872017, 697.5 79.80303227872017 C 699.1666666666666 79.80303227872017, 700.8333333333334 20.644924788879155, 702.5 20.644924788879155 C 704.1666666666666 20.644924788879155, 705.8333333333334 79.35507521112085, 707.5 79.35507521112085 C 709.1666666666666 79.35507521112085, 710.8333333333334 21.771964286953548, 712.5 21.771964286953548 C 714.1666666666666 21.771964286953548, 715.8333333333334 78.22803571304645, 717.5 78.22803571304645 C 719.1666666666666 78.22803571304645, 720.8333333333334 16.409448004001327, 722.5 16.409448004001327 C 724.1666666666666 16.409448004001327, 725.8333333333334 83.59055199599868, 727.5 83.59055199599868 C 729.1666666666666 83.59055199599868, 730.8333333333334 10.855183129022464, 732.5 10.855183129022464 C 734.1666666666666 10.855183129022464, 735.8333333333334 89.14481687097754, 737.5 89.14481687097754 C 739.1666666666666 89.14481687097754, 740.8333333333334 11.887100131208918, 742.5 11.887100131208918 C 744.1666666666666 11.887100131208918, 745.8333333333334 88.11289986879109, 747.5 88.11289986879109 C 749.1666666666666 88.11289986879109, 750.8333333333334 18.12768546333482, 752.5 18.12768546333482 C 754.1666666666666 18.12768546333482, 755.8333333333334 81.87231453666519, 757.5 81.87231453666519 C 759.1666666666666 81.87231453666519, 760.8333333333334 26.372733021369587, 762.5 26.372733021369587 C 764.1666666666666 26.372733021369587, 765.8333333333334 73.62726697863042, 767.5 73.62726697863042 C 769.1666666666666 73.62726697863042, 770.8333333333334 20.914204238785576, 772.5 20.914204238785576 C 774.1666666666666 20.914204238785576, 775.8333333333334 79.08579576121443, 777.5 79.08579576121443 C 779.1666666666666 79.08579576121443, 780.8333333333334 22.754164943031796, 782.5 22.754164943031796 C 784.1666666666666 22.754164943031796, 785.8333333333334 77.2458350569682, 787.5 77.2458350569682 C 789.1666666666666 77.2458350569682, 790.8333333333334 18.600921298197143, 792.5 18.600921298197143 C 794.1666666666666 18.600921298197143, 795.8333333333334 81.39907870180286, 797.5 81.39907870180286 C 799.1666666666666 81.39907870180286, 800.8333333333334 23.06406054952675, 802.5 23.06406054952675 C 804.1666666666666 23.06406054952675, 805.8333333333334 76.93593945047326, 807.5 76.93593945047326 C 809.1666666666666 76.93593945047326, 810.8333333333334 21.860793554250595, 812.5 21.860793554250595 C 814.1666666666666 21.860793554250595, 815.8333333333334 78.13920644574941, 817.5 78.13920644574941 C 819.1666666666666 78.13920644574941, 820.8333333333334 25.561657900814897, 822.5 25.561657900814897 C 824.1666666666666 25.561657900814897, 825.8333333333334 74.4383420991851, 827.5 74.4383420991851 C 829.1666666666666 74.4383420991851, 830.8333333333334 20.78978792313915, 832.5 20.78978792313915 C 834.1666666666666 20.78978792313915, 835.8333333333334 79.21021207686084, 837.5 79.21021207686084 C 839.1666666666666 79.21021207686084, 840.8333333333334 15.278578015908202, 842.5 15.278578015908202 C 844.1666666666666 15.278578015908202, 845.8333333333334 84.72142198409179, 847.5 84.72142198409179 C 849.1666666666666 84.72142198409179, 850.8333333333334 19.05497950231952, 852.5 19.05497950231952 C 854.1666666666666 19.05497950231952, 855.8333333333334 80.94502049768047, 857.5 80.94502049768047 C 859.1666666666666 80.94502049768047, 860.8333333333334 18.38259098696451, 862.5 18.38259098696451 C 864.1666666666666 18.38259098696451, 865.8333333333334 81.61740901303548, 867.5 81.61740901303548 C 869.1666666666666 81.61740901303548, 870.8333333333334 17.647556561006567, 872.5 17.647556561006567 C 874.1666666666666 17.647556561006567, 875.8333333333334 82.35244343899343, 877.5 82.35244343899343 C 879.1666666666666 82.35244343899343, 880.8333333333334 23.689724180435768, 882.5 23.689724180435768 C 884.1666666666666 23.689724180435768, 885.8333333333334 76.31027581956423, 887.5 76.31027581956423 C 889.1666666666666 76.31027581956423, 890.8333333333334 26.225568175402415, 892.5 26.225568175402415 C 894.1666666666666 26.225568175402415, 895.8333333333334 73.77443182459758, 897.5 73.77443182459758 C 899.1666666666666 73.77443182459758, 900.8333333333334 26.041564345101424, 902.5 26.041564345101424 C 904.1666666666666 26.041564345101424, 905.8333333333334 73.95843565489858, 907.5 73.95843565489858 C 909.1666666666666 73.95843565489858, 910.8333333333334 12.549368826547031, 912.5 12.549368826547031 C 914.1666666666666 12.549368826547031, 915.8333333333334 87.45063117345296, 917.5 87.45063117345296 C 919.1666666666666 87.45063117345296, 920.8333333333334 25.284453337243235, 922.5 25.284453337243235 C 924.1666666666666 25.284453337243235, 925.8333333333334 74.71554666275676, 927.5 74.71554666275676 C 929.1666666666666 74.71554666275676, 930.8333333333334 17.859600068599384, 932.5 17.859600068599384 C 934.1666666666666 17.859600068599384, 935.8333333333334 82.14039993140062, 937.5 82.14039993140062 C 939.1666666666666 82.14039993140062, 940.8333333333334 27.195256948528232, 942.5 27.195256948528232 C 944.1666666666666 27.195256948528232, 945.8333333333334 72.80474305147177, 947.5 72.80474305147177 C 949.1666666666666 72.80474305147177, 950.8333333333334 18.442910812808694, 952.5 18.442910812808694 C 954.1666666666666 18.442910812808694, 955.8333333333334 81.55708918719131, 957.5 81.55708918719131 C 959.1666666666666 81.55708918719131, 960.8333333333334 21.580012276384288, 962.5 21.580012276384288 C 964.1666666666666 21.580012276384288, 965.8333333333334 78.41998772361572, 967.5 78.41998772361572 C 969.1666666666666 78.41998772361572, 970.8333333333334 28.343711580649238, 972.5 28.343711580649238 C 974.1666666666666 28.343711580649238, 975.8333333333334 71.65628841935076, 977.5 71.65628841935076 C 979.1666666666666 71.65628841935076, 980.8333333333334 47.524201333314664, 982.5 47.524201333314664 C 984.1666666666666 47.524201333314664, 985.8333333333334 52.475798666685336, 987.5 52.475798666685336 C 989.1666666666666 52.475798666685336, 990.8333333333334 49.64453576743763, 992.5 49.64453576743763 C 994.1666666666666 49.64453576743763, 995.8333333333334 50.35546423256237, 997.5 50.35546423256237 C 999.1666666666666 50.35546423256237, 1000.8333333333334 50, 1002.5 50 C 1004.1666666666666 50, 1005.8333333333334 50, 1007.5 50 C 1008.4166666666666 50, 1009.3333333333334 50, 1010.25 50 " stroke="white" stroke-width="5" fill="transparent" />
  </g>
</svg>