<svg 
  baseProfile="tiny"
  preserveAspectRatio="keep"
  version="1.2"
  viewBox="-5.000000 -5.000000 1015.000000 105.000000"
  height="100%" width="100%"
  xmlns="http://www.w3.org/2000/svg"
  xmlns:ev="http://www.w3.org/2001/xml-events"
  xmlns:xlink="http://www.w3.org/1999/xlink"
>
  <g style="transform-origin: center center;">
    <path d="M -0.250000 50.000000 C 4 50, 8.25 50, 12.5 50 C 14.166666666666666 50, 15.833333333333334 50, 17.5 50 C 19.166666666666668 50, 20.833333333333332 49.475336001396386, 22.5 49.475336001396386 C 24.166666666666668 49.475336001396386, 25.833333333333332 50.524663998603614, 27.5 50.524663998603614 C 29.166666666666668 50.524663998603614, 30.833333333333332 43.362413371280674, 32.5 43.362413371280674 C 34.166666666666664 43.362413371280674, 35.833333333333336 56.637586628719326, 37.5 56.637586628719326 C 39.166666666666664 56.637586628719326, 40.833333333333336 32.53362933052172, 42.5 32.53362933052172 C 44.166666666666664 32.53362933052172, 45.833333333333336 67.46637066947828, 47.5 67.46637066947828 C 49.166666666666664 67.46637066947828, 50.833333333333336 29.514866556572464, 52.5 29.514866556572464 C 54.166666666666664 29.514866556572464, 55.833333333333336 70.48513344342754, 57.5 70.48513344342754 C 59.166666666666664 70.48513344342754, 60.833333333333336 25.020580768272836, 62.5 25.020580768272836 C 64.16666666666667 25.020580768272836, 65.83333333333333 74.97941923172716, 67.5 74.97941923172716 C 69.16666666666667 74.97941923172716, 70.83333333333333 24.434738390976086, 72.5 24.434738390976086 C 74.16666666666667 24.434738390976086, 75.83333333333333 75.5652616090239, 77.5 75.5652616090239 C 79.16666666666667 75.5652616090239, 80.83333333333333 20.978053005542247, 82.5 20.978053005542247 C 84.16666666666667 20.978053005542247, 85.83333333333333 79.02194699445775, 87.5 79.02194699445775 C 89.16666666666667 79.02194699445775, 90.83333333333333 17.1706860383197, 92.5 17.1706860383197 C 94.16666666666667 17.1706860383197, 95.83333333333333 82.8293139616803, 97.5 82.8293139616803 C 99.16666666666667 82.8293139616803, 100.83333333333333 12.677373323656141, 102.5 12.677373323656141 C 104.16666666666667 12.677373323656141, 105.83333333333333 87.32262667634386, 107.5 87.32262667634386 C 109.16666666666667 87.32262667634386, 110.83333333333333 13.863722894754957, 112.5 13.863722894754957 C 114.16666666666667 13.863722894754957, 115.83333333333333 86.13627710524504, 117.5 86.13627710524504 C 119.16666666666667 86.13627710524504, 120.83333333333333 13.096438541002414, 122.5 13.096438541002414 C 124.16666666666667 13.096438541002414, 125.83333333333333 86.90356145899759, 127.5 86.90356145899759 C 129.16666666666666 86.90356145899759, 130.83333333333334 13.966724885169171, 132.5 13.966724885169171 C 134.16666666666666 13.966724885169171, 135.83333333333334 86.03327511483083, 137.5 86.03327511483083 C 139.16666666666666 86.03327511483083, 140.83333333333334 7.253120095393143, 142.5 7.253120095393143 C 144.16666666666666 7.253120095393143, 145.83333333333334 92.74687990460686, 147.5 92.74687990460686 C 149.16666666666666 92.74687990460686, 150.83333333333334 6.352607805441366, 152.5 6.352607805441366 C 154.16666666666666 6.352607805441366, 155.83333333333334 93.64739219455863, 157.5 93.64739219455863 C 159.16666666666666 93.64739219455863, 160.83333333333334 5.423778504012148, 162.5 5.423778504012148 C 164.16666666666666 5.423778504012148, 165.83333333333334 94.57622149598785, 167.5 94.57622149598785 C 169.16666666666666 94.57622149598785, 170.83333333333334 12.722937199867005, 172.5 12.722937199867005 C 174.16666666666666 12.722937199867005, 175.83333333333334 87.277062800133, 177.5 87.277062800133 C 179.16666666666666 87.277062800133, 180.83333333333334 12.188748416310915, 182.5 12.188748416310915 C 184.16666666666666 12.188748416310915, 185.83333333333334 87.81125158368909, 187.5 87.81125158368909 C 189.16666666666666 87.81125158368909, 190.83333333333334 12.358636362545248, 192.5 12.358636362545248 C 194.16666666666666 12.358636362545248, 195.83333333333334 87.64136363745476, 197.5 87.64136363745476 C 199.16666666666666 87.64136363745476, 200.83333333333334 12.199278519198735, 202.5 12.199278519198735 C 204.16666666666666 12.199278519198735, 205.83333333333334 87.80072148080126, 207.5 87.80072148080126 C 209.16666666666666 87.80072148080126, 210.83333333333334 13.304290288540777, 212.5 13.304290288540777 C 214.16666666666666 13.304290288540777, 215.83333333333334 86.69570971145922, 217.5 86.69570971145922 C 219.16666666666666 86.69570971145922, 220.83333333333334 12.101622843327817, 222.5 12.101622843327817 C 224.16666666666666 12.101622843327817, 225.83333333333334 87.89837715667218, 227.5 87.89837715667218 C 229.16666666666666 87.89837715667218, 230.83333333333334 10.441173918924626, 232.5 10.441173918924626 C 234.16666666666666 10.441173918924626, 235.83333333333334 89.55882608107538, 237.5 89.55882608107538 C 239.16666666666666 89.55882608107538, 240.83333333333334 8.477718761871458, 242.5 8.477718761871458 C 244.16666666666666 8.477718761871458, 245.83333333333334 91.52228123812854, 247.5 91.52228123812854 C 249.16666666666666 91.52228123812854, 250.83333333333334 8.932331544630486, 252.5 8.932331544630486 C 254.16666666666666 8.932331544630486, 255.83333333333334 91.06766845536951, 257.5 91.06766845536951 C 259.1666666666667 91.06766845536951, 260.8333333333333 5.756906391307069, 262.5 5.756906391307069 C 264.1666666666667 5.756906391307069, 265.8333333333333 94.24309360869293, 267.5 94.24309360869293 C 269.1666666666667 94.24309360869293, 270.8333333333333 5.311907600137069, 272.5 5.311907600137069 C 274.1666666666667 5.311907600137069, 275.8333333333333 94.68809239986294, 277.5 94.68809239986294 C 279.1666666666667 94.68809239986294, 280.8333333333333 6.690740737785966, 282.5 6.690740737785966 C 284.1666666666667 6.690740737785966, 285.8333333333333 93.30925926221403, 287.5 93.30925926221403 C 289.1666666666667 93.30925926221403, 290.8333333333333 7.070824699638187, 292.5 7.070824699638187 C 294.1666666666667 7.070824699638187, 295.8333333333333 92.9291753003618, 297.5 92.9291753003618 C 299.1666666666667 92.9291753003618, 300.8333333333333 5.172970148822735, 302.5 5.172970148822735 C 304.1666666666667 5.172970148822735, 305.8333333333333 94.82702985117726, 307.5 94.82702985117726 C 309.1666666666667 94.82702985117726, 310.8333333333333 6.456775450213101, 312.5 6.456775450213101 C 314.1666666666667 6.456775450213101, 315.8333333333333 93.5432245497869, 317.5 93.5432245497869 C 319.1666666666667 93.5432245497869, 320.8333333333333 6.201438786864486, 322.5 6.201438786864486 C 324.1666666666667 6.201438786864486, 325.8333333333333 93.79856121313551, 327.5 93.79856121313551 C 329.1666666666667 93.79856121313551, 330.8333333333333 27.781612817985383, 332.5 27.781612817985383 C 334.1666666666667 27.781612817985383, 335.8333333333333 72.21838718201462, 337.5 72.21838718201462 C 339.1666666666667 72.21838718201462, 340.8333333333333 27.19985527448628, 342.5 27.19985527448628 C 344.1666666666667 27.19985527448628, 345.8333333333333 72.80014472551372, 347.5 72.80014472551372 C 349.1666666666667 72.80014472551372, 350.8333333333333 22.026684727530625, 352.5 22.026684727530625 C 354.1666666666667 22.026684727530625, 355.8333333333333 77.97331527246938, 357.5 77.97331527246938 C 359.1666666666667 77.97331527246938, 360.8333333333333 23.233415711362888, 362.5 23.233415711362888 C 364.1666666666667 23.233415711362888, 365.8333333333333 76.76658428863712, 367.5 76.76658428863712 C 369.1666666666667 76.76658428863712, 370.8333333333333 28.97690700146034, 372.5 28.97690700146034 C 374.1666666666667 28.97690700146034, 375.8333333333333 71.02309299853965, 377.5 71.02309299853965 C 379.1666666666667 71.02309299853965, 380.8333333333333 27.93653279046399, 382.5 27.93653279046399 C 384.1666666666667 27.93653279046399, 385.8333333333333 72.06346720953601, 387.5 72.06346720953601 C 389.1666666666667 72.06346720953601, 390.8333333333333 22.909068388190484, 392.5 22.909068388190484 C 394.1666666666667 22.909068388190484, 395.8333333333333 77.09093161180951, 397.5 77.09093161180951 C 399.1666666666667 77.09093161180951, 400.8333333333333 22.019389685552092, 402.5 22.019389685552092 C 404.1666666666667 22.019389685552092, 405.8333333333333 77.98061031444792, 407.5 77.98061031444792 C 409.1666666666667 77.98061031444792, 410.8333333333333 18.41816738866286, 412.5 18.41816738866286 C 414.1666666666667 18.41816738866286, 415.8333333333333 81.58183261133715, 417.5 81.58183261133715 C 419.1666666666667 81.58183261133715, 420.8333333333333 12.846904133581106, 422.5 12.846904133581106 C 424.1666666666667 12.846904133581106, 425.8333333333333 87.1530958664189, 427.5 87.1530958664189 C 429.1666666666667 87.1530958664189, 430.8333333333333 10.15265571464029, 432.5 10.15265571464029 C 434.1666666666667 10.15265571464029, 435.8333333333333 89.84734428535971, 437.5 89.84734428535971 C 439.1666666666667 89.84734428535971, 440.8333333333333 11.373414071160276, 442.5 11.373414071160276 C 444.1666666666667 11.373414071160276, 445.8333333333333 88.62658592883972, 447.5 88.62658592883972 C 449.1666666666667 88.62658592883972, 450.8333333333333 10.880242824255468, 452.5 10.880242824255468 C 454.1666666666667 10.880242824255468, 455.8333333333333 89.11975717574452, 457.5 89.11975717574452 C 459.1666666666667 89.11975717574452, 460.8333333333333 0, 462.5 0 C 464.1666666666667 0, 465.8333333333333 100, 467.5 100 C 469.1666666666667 100, 470.8333333333333 0.11081702946589189, 472.5 0.11081702946589189 C 474.1666666666667 0.11081702946589189, 475.8333333333333 99.88918297053411, 477.5 99.88918297053411 C 479.1666666666667 99.88918297053411, 480.8333333333333 1.3402544865894512, 482.5 1.3402544865894512 C 484.1666666666667 1.3402544865894512, 485.8333333333333 98.65974551341054, 487.5 98.65974551341054 C 489.1666666666667 98.65974551341054, 490.8333333333333 2.859595271259124, 492.5 2.859595271259124 C 494.1666666666667 2.859595271259124, 495.8333333333333 97.14040472874088, 497.5 97.14040472874088 C 499.1666666666667 97.14040472874088, 500.8333333333333 3.0480252343878718, 502.5 3.0480252343878718 C 504.1666666666667 3.0480252343878718, 505.8333333333333 96.95197476561214, 507.5 96.95197476561214 C 509.1666666666667 96.95197476561214, 510.8333333333333 3.1639208240824814, 512.5 3.1639208240824814 C 514.1666666666666 3.1639208240824814, 515.8333333333334 96.83607917591752, 517.5 96.83607917591752 C 519.1666666666666 96.83607917591752, 520.8333333333334 3.570558295096035, 522.5 3.570558295096035 C 524.1666666666666 3.570558295096035, 525.8333333333334 96.42944170490397, 527.5 96.42944170490397 C 529.1666666666666 96.42944170490397, 530.8333333333334 3.953763941558428, 532.5 3.953763941558428 C 534.1666666666666 3.953763941558428, 535.8333333333334 96.04623605844156, 537.5 96.04623605844156 C 539.1666666666666 96.04623605844156, 540.8333333333334 5.046030510033006, 542.5 5.046030510033006 C 544.1666666666666 5.046030510033006, 545.8333333333334 94.953969489967, 547.5 94.953969489967 C 549.1666666666666 94.953969489967, 550.8333333333334 2.62489705585984, 552.5 2.62489705585984 C 554.1666666666666 2.62489705585984, 555.8333333333334 97.37510294414017, 557.5 97.37510294414017 C 559.1666666666666 97.37510294414017, 560.8333333333334 3.0857242542178227, 562.5 3.0857242542178227 C 564.1666666666666 3.0857242542178227, 565.8333333333334 96.91427574578218, 567.5 96.91427574578218 C 569.1666666666666 96.91427574578218, 570.8333333333334 3.3090211895101476, 572.5 3.3090211895101476 C 574.1666666666666 3.3090211895101476, 575.8333333333334 96.69097881048985, 577.5 96.69097881048985 C 579.1666666666666 96.69097881048985, 580.8333333333334 1.4118454351618865, 582.5 1.4118454351618865 C 584.1666666666666 1.4118454351618865, 585.8333333333334 98.5881545648381, 587.5 98.5881545648381 C 589.1666666666666 98.5881545648381, 590.8333333333334 2.45308599129325, 592.5 2.45308599129325 C 594.1666666666666 2.45308599129325, 595.8333333333334 97.54691400870675, 597.5 97.54691400870675 C 599.1666666666666 97.54691400870675, 600.8333333333334 3.726245299180846, 602.5 3.726245299180846 C 604.1666666666666 3.726245299180846, 605.8333333333334 96.27375470081915, 607.5 96.27375470081915 C 609.1666666666666 96.27375470081915, 610.8333333333334 4.290591224437115, 612.5 4.290591224437115 C 614.1666666666666 4.290591224437115, 615.8333333333334 95.70940877556288, 617.5 95.70940877556288 C 619.1666666666666 95.70940877556288, 620.8333333333334 3.7278541560188785, 622.5 3.7278541560188785 C 624.1666666666666 3.7278541560188785, 625.8333333333334 96.27214584398112, 627.5 96.27214584398112 C 629.1666666666666 96.27214584398112, 630.8333333333334 4.27844290486572, 632.5 4.27844290486572 C 634.1666666666666 4.27844290486572, 635.8333333333334 95.72155709513427, 637.5 95.72155709513427 C 639.1666666666666 95.72155709513427, 640.8333333333334 6.940061314858589, 642.5 6.940061314858589 C 644.1666666666666 6.940061314858589, 645.8333333333334 93.05993868514142, 647.5 93.05993868514142 C 649.1666666666666 93.05993868514142, 650.8333333333334 4.9674844343275595, 652.5 4.9674844343275595 C 654.1666666666666 4.9674844343275595, 655.8333333333334 95.03251556567244, 657.5 95.03251556567244 C 659.1666666666666 95.03251556567244, 660.8333333333334 7.43772634442648, 662.5 7.43772634442648 C 664.1666666666666 7.43772634442648, 665.8333333333334 92.56227365557352, 667.5 92.56227365557352 C 669.1666666666666 92.56227365557352, 670.8333333333334 5.918175270415091, 672.5 5.918175270415091 C 674.1666666666666 5.918175270415091, 675.8333333333334 94.08182472958491, 677.5 94.08182472958491 C 679.1666666666666 94.08182472958491, 680.8333333333334 7.233908948953051, 682.5 7.233908948953051 C 684.1666666666666 7.233908948953051, 685.8333333333334 92.76609105104694, 687.5 92.76609105104694 C 689.1666666666666 92.76609105104694, 690.8333333333334 8.156095043484576, 692.5 8.156095043484576 C 694.1666666666666 8.156095043484576, 695.8333333333334 91.84390495651542, 697.5 91.84390495651542 C 699.1666666666666 91.84390495651542, 700.8333333333334 6.105084557706178, 702.5 6.105084557706178 C 704.1666666666666 6.105084557706178, 705.8333333333334 93.89491544229382, 707.5 93.89491544229382 C 709.1666666666666 93.89491544229382, 710.8333333333334 4.927049981756639, 712.5 4.927049981756639 C 714.1666666666666 4.927049981756639, 715.8333333333334 95.07295001824336, 717.5 95.07295001824336 C 719.1666666666666 95.07295001824336, 720.8333333333334 8.965448547023165, 722.5 8.965448547023165 C 724.1666666666666 8.965448547023165, 725.8333333333334 91.03455145297684, 727.5 91.03455145297684 C 729.1666666666666 91.03455145297684, 730.8333333333334 7.708847333831272, 732.5 7.708847333831272 C 734.1666666666666 7.708847333831272, 735.8333333333334 92.29115266616873, 737.5 92.29115266616873 C 739.1666666666666 92.29115266616873, 740.8333333333334 3.415866557072441, 742.5 3.415866557072441 C 744.1666666666666 3.415866557072441, 745.8333333333334 96.58413344292757, 747.5 96.58413344292757 C 749.1666666666666 96.58413344292757, 750.8333333333334 2.174224649686188, 752.5 2.174224649686188 C 754.1666666666666 2.174224649686188, 755.8333333333334 97.82577535031382, 757.5 97.82577535031382 C 759.1666666666666 97.82577535031382, 760.8333333333334 7.698476130339387, 762.5 7.698476130339387 C 764.1666666666666 7.698476130339387, 765.8333333333334 92.30152386966061, 767.5 92.30152386966061 C 769.1666666666666 92.30152386966061, 770.8333333333334 6.150259391306463, 772.5 6.150259391306463 C 774.1666666666666 6.150259391306463, 775.8333333333334 93.84974060869354, 777.5 93.84974060869354 C 779.1666666666666 93.84974060869354, 780.8333333333334 5.458164199294465, 782.5 5.458164199294465 C 784.1666666666666 5.458164199294465, 785.8333333333334 94.54183580070554, 787.5 94.54183580070554 C 789.1666666666666 94.54183580070554, 790.8333333333334 3.372433393144931, 792.5 3.372433393144931 C 794.1666666666666 3.372433393144931, 795.8333333333334 96.62756660685507, 797.5 96.62756660685507 C 799.1666666666666 96.62756660685507, 800.8333333333334 22.66454353230748, 802.5 22.66454353230748 C 804.1666666666666 22.66454353230748, 805.8333333333334 77.33545646769252, 807.5 77.33545646769252 C 809.1666666666666 77.33545646769252, 810.8333333333334 32.26971239762179, 812.5 32.26971239762179 C 814.1666666666666 32.26971239762179, 815.8333333333334 67.73028760237821, 817.5 67.73028760237821 C 819.1666666666666 67.73028760237821, 820.8333333333334 30.996970670512308, 822.5 30.996970670512308 C 824.1666666666666 30.996970670512308, 825.8333333333334 69.00302932948769, 827.5 69.00302932948769 C 829.1666666666666 69.00302932948769, 830.8333333333334 19.515025318838475, 832.5 19.515025318838475 C 834.1666666666666 19.515025318838475, 835.8333333333334 80.48497468116153, 837.5 80.48497468116153 C 839.1666666666666 80.48497468116153, 840.8333333333334 21.0258369929405, 842.5 21.0258369929405 C 844.1666666666666 21.0258369929405, 845.8333333333334 78.9741630070595, 847.5 78.9741630070595 C 849.1666666666666 78.9741630070595, 850.8333333333334 27.369472223309348, 852.5 27.369472223309348 C 854.1666666666666 27.369472223309348, 855.8333333333334 72.63052777669066, 857.5 72.63052777669066 C 859.1666666666666 72.63052777669066, 860.8333333333334 28.937608448415094, 862.5 28.937608448415094 C 864.1666666666666 28.937608448415094, 865.8333333333334 71.06239155158491, 867.5 71.06239155158491 C 869.1666666666666 71.06239155158491, 870.8333333333334 21.51605727362301, 872.5 21.51605727362301 C 874.1666666666666 21.51605727362301, 875.8333333333334 78.483942726377, 877.5 78.483942726377 C 879.1666666666666 78.483942726377, 880.8333333333334 24.907080459467373, 882.5 24.907080459467373 C 884.1666666666666 24.907080459467373, 885.8333333333334 75.09291954053262, 887.5 75.09291954053262 C 889.1666666666666 75.09291954053262, 890.8333333333334 26.449654412512903, 892.5 26.449654412512903 C 894.1666666666666 26.449654412512903, 895.8333333333334 73.5503455874871, 897.5 73.5503455874871 C 899.1666666666666 73.5503455874871, 900.8333333333334 27.719035225149984, 902.5 27.719035225149984 C 904.1666666666666 27.719035225149984, 905.8333333333334 72.28096477485002, 907.5 72.28096477485002 C 909.1666666666666 72.28096477485002, 910.8333333333334 23.292008899271476, 912.5 23.292008899271476 C 914.1666666666666 23.292008899271476, 915.8333333333334 76.70799110072852, 917.5 76.70799110072852 C 919.1666666666666 76.70799110072852, 920.8333333333334 25.984804325557747, 922.5 25.984804325557747 C 924.1666666666666 25.984804325557747, 925.8333333333334 74.01519567444225, 927.5 74.01519567444225 C 929.1666666666666 74.01519567444225, 930.8333333333334 22.81024999436435, 932.5 22.81024999436435 C 934.1666666666666 22.81024999436435, 935.8333333333334 77.18975000563564, 937.5 77.18975000563564 C 939.1666666666666 77.18975000563564, 940.8333333333334 18.940327125650718, 942.5 18.940327125650718 C 944.1666666666666 18.940327125650718, 945.8333333333334 81.05967287434927, 947.5 81.05967287434927 C 949.1666666666666 81.05967287434927, 950.8333333333334 11.834712246456562, 952.5 11.834712246456562 C 954.1666666666666 11.834712246456562, 955.8333333333334 88.16528775354344, 957.5 88.16528775354344 C 959.1666666666666 88.16528775354344, 960.8333333333334 10.811006494216059, 962.5 10.811006494216059 C 964.1666666666666 10.811006494216059, 965.8333333333334 89.18899350578394, 967.5 89.18899350578394 C 969.1666666666666 89.18899350578394, 970.8333333333334 29.553003076450974, 972.5 29.553003076450974 C 974.1666666666666 29.553003076450974, 975.8333333333334 70.44699692354902, 977.5 70.44699692354902 C 979.1666666666666 70.44699692354902, 980.8333333333334 42.0061464733116, 982.5 42.0061464733116 C 984.1666666666666 42.0061464733116, 985.8333333333334 57.9938535266884, 987.5 57.9938535266884 C 989.1666666666666 57.9938535266884, 990.8333333333334 49.87746152090525, 992.5 49.87746152090525 C 994.1666666666666 49.87746152090525, 995.8333333333334 50.12253847909475, 997.5 50.12253847909475 C 999.1666666666666 50.12253847909475, 1000.8333333333334 50, 1002.5 50 C 1004.1666666666666 50, 1005.8333333333334 50, 1007.5 50 C 1008.4166666666666 50, 1009.3333333333334 50, 1010.25 50 " stroke="white" stroke-width="5" fill="transparent" />
  </g>
</svg>