<svg 
  baseProfile="tiny"
  preserveAspectRatio="keep"
  version="1.2"
  viewBox="0 0 1280.000000 400.000000"
  height="100%" width="100%"
  xmlns="http://www.w3.org/2000/svg"
  xmlns:ev="http://www.w3.org/2001/xml-events"
  xmlns:xlink="http://www.w3.org/1999/xlink"
>
  <g>
    <rect width="8" height="26.83401091162963" x="1" y="186.5829945441852" rx="5" ry="5" fill="white" />
    <rect width="8" height="41.11866742219687" x="11" y="179.44066628890155" rx="5" ry="5" fill="white" />
    <rect width="8" height="28.069518196768893" x="21" y="185.96524090161554" rx="5" ry="5" fill="white" />
    <rect width="8" height="22.245780375447303" x="31" y="188.87710981227636" rx="5" ry="5" fill="white" />
    <rect width="8" height="36.95563693940617" x="41" y="181.5221815302969" rx="5" ry="5" fill="white" />
    <rect width="8" height="34.11922474901526" x="51" y="182.94038762549238" rx="5" ry="5" fill="white" />
    <rect width="8" height="39.59017659040835" x="61" y="180.20491170479582" rx="5" ry="5" fill="white" />
    <rect width="8" height="52.62290233217737" x="71" y="173.6885488339113" rx="5" ry="5" fill="white" />
    <rect width="8" height="32.828467969080684" x="81" y="183.58576601545965" rx="5" ry="5" fill="white" />
    <rect width="8" height="55.875581071300395" x="91" y="172.0622094643498" rx="5" ry="5" fill="white" />
    <rect width="8" height="53.570348128853304" x="101" y="173.21482593557334" rx="5" ry="5" fill="white" />
    <rect width="8" height="53.394702980984746" x="111" y="173.30264850950763" rx="5" ry="5" fill="white" />
    <rect width="8" height="51.35609737046859" x="121" y="174.3219513147657" rx="5" ry="5" fill="white" />
    <rect width="8" height="62.929841160364916" x="131" y="168.53507941981755" rx="5" ry="5" fill="white" />
    <rect width="8" height="84.96939970268342" x="141" y="157.5153001486583" rx="5" ry="5" fill="white" />
    <rect width="8" height="82.48809718082329" x="151" y="158.75595140958836" rx="5" ry="5" fill="white" />
    <rect width="8" height="75.45959557131468" x="161" y="162.27020221434265" rx="5" ry="5" fill="white" />
    <rect width="8" height="71.54403798431154" x="171" y="164.22798100784422" rx="5" ry="5" fill="white" />
    <rect width="8" height="75.98289332025328" x="181" y="162.00855333987334" rx="5" ry="5" fill="white" />
    <rect width="8" height="86.62262799314469" x="191" y="156.68868600342765" rx="5" ry="5" fill="white" />
    <rect width="8" height="88.30248022245543" x="201" y="155.8487598887723" rx="5" ry="5" fill="white" />
    <rect width="8" height="65.36607406259496" x="211" y="167.3169629687025" rx="5" ry="5" fill="white" />
    <rect width="8" height="70.5467765283185" x="221" y="164.72661173584075" rx="5" ry="5" fill="white" />
    <rect width="8" height="94.60428919504234" x="231" y="152.69785540247884" rx="5" ry="5" fill="white" />
    <rect width="8" height="83.7261550795845" x="241" y="158.13692246020776" rx="5" ry="5" fill="white" />
    <rect width="8" height="96.31621441423046" x="251" y="151.84189279288478" rx="5" ry="5" fill="white" />
    <rect width="8" height="107.20450270911464" x="261" y="146.39774864544268" rx="5" ry="5" fill="white" />
    <rect width="8" height="109.94503550878463" x="271" y="145.0274822456077" rx="5" ry="5" fill="white" />
    <rect width="8" height="104.33937345777325" x="281" y="147.83031327111337" rx="5" ry="5" fill="white" />
    <rect width="8" height="93.49742672979532" x="291" y="153.25128663510233" rx="5" ry="5" fill="white" />
    <rect width="8" height="84.07091251253732" x="301" y="157.96454374373133" rx="5" ry="5" fill="white" />
    <rect width="8" height="98.53270934960725" x="311" y="150.7336453251964" rx="5" ry="5" fill="white" />
    <rect width="8" height="114.08732188198857" x="321" y="142.9563390590057" rx="5" ry="5" fill="white" />
    <rect width="8" height="106.08347468273232" x="331" y="146.95826265863383" rx="5" ry="5" fill="white" />
    <rect width="8" height="97.52961395461062" x="341" y="151.2351930226947" rx="5" ry="5" fill="white" />
    <rect width="8" height="59.29783345173279" x="351" y="170.3510832741336" rx="5" ry="5" fill="white" />
    <rect width="8" height="95.41340355448415" x="361" y="152.29329822275793" rx="5" ry="5" fill="white" />
    <rect width="8" height="96.63259346449296" x="371" y="151.68370326775351" rx="5" ry="5" fill="white" />
    <rect width="8" height="96.91344512826346" x="381" y="151.54327743586828" rx="5" ry="5" fill="white" />
    <rect width="8" height="96.69724001532441" x="391" y="151.6513799923378" rx="5" ry="5" fill="white" />
    <rect width="8" height="66.045963307377" x="401" y="166.9770183463115" rx="5" ry="5" fill="white" />
    <rect width="8" height="100.19190909959602" x="411" y="149.90404545020198" rx="5" ry="5" fill="white" />
    <rect width="8" height="100.03582076050152" x="421" y="149.98208961974925" rx="5" ry="5" fill="white" />
    <rect width="8" height="114.10296847367829" x="431" y="142.94851576316086" rx="5" ry="5" fill="white" />
    <rect width="8" height="68.29529005961069" x="441" y="165.85235497019465" rx="5" ry="5" fill="white" />
    <rect width="8" height="85.30769454785792" x="451" y="157.34615272607104" rx="5" ry="5" fill="white" />
    <rect width="8" height="87.4742424783002" x="461" y="156.2628787608499" rx="5" ry="5" fill="white" />
    <rect width="8" height="121.37727696326618" x="471" y="139.3113615183669" rx="5" ry="5" fill="white" />
    <rect width="8" height="106.89818966938157" x="481" y="146.55090516530922" rx="5" ry="5" fill="white" />
    <rect width="8" height="93.43016143238515" x="491" y="153.28491928380743" rx="5" ry="5" fill="white" />
    <rect width="8" height="100.41948129670726" x="501" y="149.79025935164637" rx="5" ry="5" fill="white" />
    <rect width="8" height="79.34245042463151" x="511" y="160.32877478768424" rx="5" ry="5" fill="white" />
    <rect width="8" height="106.56535452971283" x="521" y="146.71732273514357" rx="5" ry="5" fill="white" />
    <rect width="8" height="98.08844929387273" x="531" y="150.95577535306364" rx="5" ry="5" fill="white" />
    <rect width="8" height="91.50539074764426" x="541" y="154.24730462617788" rx="5" ry="5" fill="white" />
    <rect width="8" height="91.58824217483577" x="551" y="154.2058789125821" rx="5" ry="5" fill="white" />
    <rect width="8" height="79.40907776355547" x="561" y="160.29546111822225" rx="5" ry="5" fill="white" />
    <rect width="8" height="84.59115652749638" x="571" y="157.70442173625182" rx="5" ry="5" fill="white" />
    <rect width="8" height="97.72457398999614" x="581" y="151.13771300500193" rx="5" ry="5" fill="white" />
    <rect width="8" height="116.38098198641109" x="591" y="141.80950900679446" rx="5" ry="5" fill="white" />
    <rect width="8" height="102.68276617011772" x="601" y="148.65861691494115" rx="5" ry="5" fill="white" />
    <rect width="8" height="90.65844070829696" x="611" y="154.67077964585152" rx="5" ry="5" fill="white" />
    <rect width="8" height="87.96901578531916" x="621" y="156.01549210734044" rx="5" ry="5" fill="white" />
    <rect width="8" height="113.25482128899465" x="631" y="143.37258935550267" rx="5" ry="5" fill="white" />
    <rect width="8" height="122.09937936720443" x="641" y="138.95031031639778" rx="5" ry="5" fill="white" />
    <rect width="8" height="98.67829584500498" x="651" y="150.6608520774975" rx="5" ry="5" fill="white" />
    <rect width="8" height="97.98704017843171" x="661" y="151.00647991078415" rx="5" ry="5" fill="white" />
    <rect width="8" height="80.85686611662959" x="671" y="159.5715669416852" rx="5" ry="5" fill="white" />
    <rect width="8" height="102.80894942723886" x="681" y="148.59552528638056" rx="5" ry="5" fill="white" />
    <rect width="8" height="102.31755683940212" x="691" y="148.84122158029894" rx="5" ry="5" fill="white" />
    <rect width="8" height="97.72182193040855" x="701" y="151.13908903479572" rx="5" ry="5" fill="white" />
    <rect width="8" height="99.9942710858749" x="711" y="150.00286445706254" rx="5" ry="5" fill="white" />
    <rect width="8" height="89.20943941189718" x="721" y="155.39528029405142" rx="5" ry="5" fill="white" />
    <rect width="8" height="108.92779294911443" x="731" y="145.5361035254428" rx="5" ry="5" fill="white" />
    <rect width="8" height="97.54358449965012" x="741" y="151.22820775017493" rx="5" ry="5" fill="white" />
    <rect width="8" height="117.79512255575861" x="751" y="141.1024387221207" rx="5" ry="5" fill="white" />
    <rect width="8" height="109.58304771600993" x="761" y="145.20847614199505" rx="5" ry="5" fill="white" />
    <rect width="8" height="99.12852644423852" x="771" y="150.43573677788075" rx="5" ry="5" fill="white" />
    <rect width="8" height="86.29792686105621" x="781" y="156.8510365694719" rx="5" ry="5" fill="white" />
    <rect width="8" height="100.01735781916223" x="791" y="149.9913210904189" rx="5" ry="5" fill="white" />
    <rect width="8" height="111.91216573532921" x="801" y="144.0439171323354" rx="5" ry="5" fill="white" />
    <rect width="8" height="106.29353499770649" x="811" y="146.85323250114675" rx="5" ry="5" fill="white" />
    <rect width="8" height="104.11008232866932" x="821" y="147.94495883566535" rx="5" ry="5" fill="white" />
    <rect width="8" height="70.26479069698529" x="831" y="164.86760465150735" rx="5" ry="5" fill="white" />
    <rect width="8" height="102.25382649579615" x="841" y="148.87308675210193" rx="5" ry="5" fill="white" />
    <rect width="8" height="109.30640846697757" x="851" y="145.3467957665112" rx="5" ry="5" fill="white" />
    <rect width="8" height="107.84159751921906" x="861" y="146.07920124039046" rx="5" ry="5" fill="white" />
    <rect width="8" height="100.41964949743851" x="871" y="149.79017525128074" rx="5" ry="5" fill="white" />
    <rect width="8" height="69.29108121609036" x="881" y="165.35445939195483" rx="5" ry="5" fill="white" />
    <rect width="8" height="104.60674210624761" x="891" y="147.6966289468762" rx="5" ry="5" fill="white" />
    <rect width="8" height="104.59813440717652" x="901" y="147.70093279641173" rx="5" ry="5" fill="white" />
    <rect width="8" height="118.6219452561029" x="911" y="140.68902737194855" rx="5" ry="5" fill="white" />
    <rect width="8" height="99.42828778421865" x="921" y="150.28585610789068" rx="5" ry="5" fill="white" />
    <rect width="8" height="93.5657674652809" x="931" y="153.21711626735956" rx="5" ry="5" fill="white" />
    <rect width="8" height="96.26079044872507" x="941" y="151.86960477563747" rx="5" ry="5" fill="white" />
    <rect width="8" height="103.42640381094992" x="951" y="148.28679809452504" rx="5" ry="5" fill="white" />
    <rect width="8" height="107.54683596759685" x="961" y="146.22658201620158" rx="5" ry="5" fill="white" />
    <rect width="8" height="98.20122459353806" x="971" y="150.89938770323096" rx="5" ry="5" fill="white" />
    <rect width="8" height="104.99843400390145" x="981" y="147.50078299804926" rx="5" ry="5" fill="white" />
    <rect width="8" height="76.29078143575502" x="991" y="161.85460928212248" rx="5" ry="5" fill="white" />
    <rect width="8" height="119.02091040711451" x="1001" y="140.48954479644274" rx="5" ry="5" fill="white" />
    <rect width="8" height="97.16274485986361" x="1011" y="151.4186275700682" rx="5" ry="5" fill="white" />
    <rect width="8" height="61.992314690223374" x="1021" y="169.0038426548883" rx="5" ry="5" fill="white" />
    <rect width="8" height="73.50488141263448" x="1031" y="163.24755929368277" rx="5" ry="5" fill="white" />
    <rect width="8" height="80.69803780702361" x="1041" y="159.65098109648818" rx="5" ry="5" fill="white" />
    <rect width="8" height="68.04313042660847" x="1051" y="165.97843478669577" rx="5" ry="5" fill="white" />
    <rect width="8" height="70.27875295492102" x="1061" y="164.8606235225395" rx="5" ry="5" fill="white" />
    <rect width="8" height="67.45795186199595" x="1071" y="166.271024069002" rx="5" ry="5" fill="white" />
    <rect width="8" height="68.11365379605793" x="1081" y="165.94317310197104" rx="5" ry="5" fill="white" />
    <rect width="8" height="97.73807465366245" x="1091" y="151.13096267316877" rx="5" ry="5" fill="white" />
    <rect width="8" height="95.9628762453543" x="1101" y="152.01856187732284" rx="5" ry="5" fill="white" />
    <rect width="8" height="86.29551351971728" x="1111" y="156.85224324014138" rx="5" ry="5" fill="white" />
    <rect width="8" height="72.65533878914376" x="1121" y="163.67233060542813" rx="5" ry="5" fill="white" />
    <rect width="8" height="77.3354092286165" x="1131" y="161.33229538569174" rx="5" ry="5" fill="white" />
    <rect width="8" height="64.16998894292479" x="1141" y="167.91500552853762" rx="5" ry="5" fill="white" />
    <rect width="8" height="72.02118347449776" x="1151" y="163.9894082627511" rx="5" ry="5" fill="white" />
    <rect width="8" height="61.71803443517343" x="1161" y="169.1409827824133" rx="5" ry="5" fill="white" />
    <rect width="8" height="57.164505379542994" x="1171" y="171.4177473102285" rx="5" ry="5" fill="white" />
    <rect width="8" height="81.43283411552974" x="1181" y="159.2835829422351" rx="5" ry="5" fill="white" />
    <rect width="8" height="71.48812542250326" x="1191" y="164.25593728874838" rx="5" ry="5" fill="white" />
    <rect width="8" height="73.33575732424482" x="1201" y="163.3321213378776" rx="5" ry="5" fill="white" />
    <rect width="8" height="68.98683057181002" x="1211" y="165.506584714095" rx="5" ry="5" fill="white" />
    <rect width="8" height="60.02040316130416" x="1221" y="169.98979841934792" rx="5" ry="5" fill="white" />
    <rect width="8" height="29.31753777263568" x="1231" y="185.34123111368217" rx="5" ry="5" fill="white" />
    <rect width="8" height="40.91395258209929" x="1241" y="179.54302370895036" rx="5" ry="5" fill="white" />
    <rect width="8" height="12.968120594612564" x="1251" y="193.51593970269371" rx="5" ry="5" fill="white" />
    <rect width="8" height="13.695798889002578" x="1261" y="193.15210055549872" rx="5" ry="5" fill="white" />
    <rect width="8" height="15.291647203739744" x="1271" y="192.35417639813014" rx="5" ry="5" fill="white" />
  </g>
</svg>