<svg 
  baseProfile="tiny"
  preserveAspectRatio="keep"
  version="1.2"
  viewBox="0 0 1280.000000 400.000000"
  height="100%" width="100%"
  xmlns="http://www.w3.org/2000/svg"
  xmlns:ev="http://www.w3.org/2001/xml-events"
  xmlns:xlink="http://www.w3.org/1999/xlink"
>
  <g>
    <rect width="8" height="27.02435780034743" x="1" y="186.48782109982628" rx="5" ry="5" fill="white" />
    <rect width="8" height="25.610081413683705" x="11" y="187.19495929315815" rx="5" ry="5" fill="white" />
    <rect width="8" height="22.618931785378326" x="21" y="188.69053410731084" rx="5" ry="5" fill="white" />
    <rect width="8" height="40.60223028853478" x="31" y="179.69888485573262" rx="5" ry="5" fill="white" />
    <rect width="8" height="51.391857509138546" x="41" y="174.30407124543072" rx="5" ry="5" fill="white" />
    <rect width="8" height="52.32448143511991" x="51" y="173.83775928244006" rx="5" ry="5" fill="white" />
    <rect width="8" height="45.043675751781414" x="61" y="177.4781621241093" rx="5" ry="5" fill="white" />
    <rect width="8" height="35.21077214937531" x="71" y="182.39461392531234" rx="5" ry="5" fill="white" />
    <rect width="8" height="48.17397433989651" x="81" y="175.91301283005174" rx="5" ry="5" fill="white" />
    <rect width="8" height="65.48070445489549" x="91" y="167.25964777255226" rx="5" ry="5" fill="white" />
    <rect width="8" height="51.864366486950274" x="101" y="174.06781675652485" rx="5" ry="5" fill="white" />
    <rect width="8" height="39.90448195014028" x="111" y="180.04775902492986" rx="5" ry="5" fill="white" />
    <rect width="8" height="49.60394308757819" x="121" y="175.19802845621092" rx="5" ry="5" fill="white" />
    <rect width="8" height="71.84158064994351" x="131" y="164.07920967502824" rx="5" ry="5" fill="white" />
    <rect width="8" height="54.077174472527545" x="141" y="172.96141276373623" rx="5" ry="5" fill="white" />
    <rect width="8" height="43.907133306612494" x="151" y="178.04643334669376" rx="5" ry="5" fill="white" />
    <rect width="8" height="36.90105484129875" x="161" y="181.54947257935063" rx="5" ry="5" fill="white" />
    <rect width="8" height="57.34138499816155" x="171" y="171.3293075009192" rx="5" ry="5" fill="white" />
    <rect width="8" height="57.95670559579646" x="181" y="171.02164720210178" rx="5" ry="5" fill="white" />
    <rect width="8" height="48.44613155424264" x="191" y="175.77693422287868" rx="5" ry="5" fill="white" />
    <rect width="8" height="43.53003160762665" x="201" y="178.23498419618667" rx="5" ry="5" fill="white" />
    <rect width="8" height="32.73000945855765" x="211" y="183.63499527072116" rx="5" ry="5" fill="white" />
    <rect width="8" height="62.0015845529325" x="221" y="168.99920772353374" rx="5" ry="5" fill="white" />
    <rect width="8" height="59.31344784382209" x="231" y="170.34327607808896" rx="5" ry="5" fill="white" />
    <rect width="8" height="75.5082728479506" x="241" y="162.2458635760247" rx="5" ry="5" fill="white" />
    <rect width="8" height="40.97346853640907" x="251" y="179.51326573179546" rx="5" ry="5" fill="white" />
    <rect width="8" height="62.93084349402316" x="261" y="168.5345782529884" rx="5" ry="5" fill="white" />
    <rect width="8" height="46.239437503998495" x="271" y="176.88028124800076" rx="5" ry="5" fill="white" />
    <rect width="8" height="46.12754883213209" x="281" y="176.93622558393395" rx="5" ry="5" fill="white" />
    <rect width="8" height="81.31870482874746" x="291" y="159.34064758562627" rx="5" ry="5" fill="white" />
    <rect width="8" height="59.736405826136874" x="301" y="170.13179708693156" rx="5" ry="5" fill="white" />
    <rect width="8" height="61.61880524395117" x="311" y="169.19059737802442" rx="5" ry="5" fill="white" />
    <rect width="8" height="49.351272075309964" x="321" y="175.32436396234502" rx="5" ry="5" fill="white" />
    <rect width="8" height="45.35874405612047" x="331" y="177.32062797193976" rx="5" ry="5" fill="white" />
    <rect width="8" height="35.81999602132627" x="341" y="182.09000198933686" rx="5" ry="5" fill="white" />
    <rect width="8" height="32.616264465304134" x="351" y="183.69186776734793" rx="5" ry="5" fill="white" />
    <rect width="8" height="36.66563515044251" x="361" y="181.66718242477873" rx="5" ry="5" fill="white" />
    <rect width="8" height="35.268693210543226" x="371" y="182.36565339472838" rx="5" ry="5" fill="white" />
    <rect width="8" height="32.232848689785385" x="381" y="183.8835756551073" rx="5" ry="5" fill="white" />
    <rect width="8" height="27.28170810706587" x="391" y="186.35914594646707" rx="5" ry="5" fill="white" />
    <rect width="8" height="38.18035593120252" x="401" y="180.90982203439873" rx="5" ry="5" fill="white" />
    <rect width="8" height="35.86039981426513" x="411" y="182.06980009286744" rx="5" ry="5" fill="white" />
    <rect width="8" height="27.13197391078977" x="421" y="186.4340130446051" rx="5" ry="5" fill="white" />
    <rect width="8" height="24.854857775395395" x="431" y="187.5725711123023" rx="5" ry="5" fill="white" />
    <rect width="8" height="25.946602295342093" x="441" y="187.02669885232896" rx="5" ry="5" fill="white" />
    <rect width="8" height="28.852014868348164" x="451" y="185.5739925658259" rx="5" ry="5" fill="white" />
    <rect width="8" height="33.332204658460824" x="461" y="183.3338976707696" rx="5" ry="5" fill="white" />
    <rect width="8" height="28.137405588910823" x="471" y="185.93129720554458" rx="5" ry="5" fill="white" />
    <rect width="8" height="34.52400925555848" x="481" y="182.73799537222075" rx="5" ry="5" fill="white" />
    <rect width="8" height="40.49989949635195" x="491" y="179.75005025182404" rx="5" ry="5" fill="white" />
    <rect width="8" height="41.447422505200485" x="501" y="179.27628874739975" rx="5" ry="5" fill="white" />
    <rect width="8" height="35.42015314017702" x="511" y="182.28992342991148" rx="5" ry="5" fill="white" />
    <rect width="8" height="33.19007363447356" x="521" y="183.40496318276323" rx="5" ry="5" fill="white" />
    <rect width="8" height="32.760734630648955" x="531" y="183.61963268467554" rx="5" ry="5" fill="white" />
    <rect width="8" height="38.46339391068172" x="541" y="180.76830304465915" rx="5" ry="5" fill="white" />
    <rect width="8" height="37.777955545453636" x="551" y="181.11102222727317" rx="5" ry="5" fill="white" />
    <rect width="8" height="33.59408631107541" x="561" y="183.2029568444623" rx="5" ry="5" fill="white" />
    <rect width="8" height="29.63116344523746" x="571" y="185.18441827738127" rx="5" ry="5" fill="white" />
    <rect width="8" height="41.141794511431634" x="581" y="179.4291027442842" rx="5" ry="5" fill="white" />
    <rect width="8" height="36.55159398736731" x="591" y="181.72420300631634" rx="5" ry="5" fill="white" />
    <rect width="8" height="40.52974699250415" x="601" y="179.73512650374792" rx="5" ry="5" fill="white" />
    <rect width="8" height="43.529456633602734" x="611" y="178.23527168319862" rx="5" ry="5" fill="white" />
    <rect width="8" height="38.58821840058821" x="621" y="180.70589079970588" rx="5" ry="5" fill="white" />
    <rect width="8" height="34.99077059170592" x="631" y="182.50461470414703" rx="5" ry="5" fill="white" />
    <rect width="8" height="30.009846333847673" x="641" y="184.99507683307615" rx="5" ry="5" fill="white" />
    <rect width="8" height="26.79771864666313" x="651" y="186.60114067666842" rx="5" ry="5" fill="white" />
    <rect width="8" height="27.88780784060091" x="661" y="186.05609607969956" rx="5" ry="5" fill="white" />
    <rect width="8" height="23.832952410037333" x="671" y="188.08352379498135" rx="5" ry="5" fill="white" />
    <rect width="8" height="25.552804179645555" x="681" y="187.22359791017723" rx="5" ry="5" fill="white" />
    <rect width="8" height="18.194607890837773" x="691" y="190.9026960545811" rx="5" ry="5" fill="white" />
    <rect width="8" height="38.53120841123637" x="701" y="180.7343957943818" rx="5" ry="5" fill="white" />
    <rect width="8" height="43.649830270068456" x="711" y="178.17508486496578" rx="5" ry="5" fill="white" />
    <rect width="8" height="37.25884963624435" x="721" y="181.37057518187783" rx="5" ry="5" fill="white" />
    <rect width="8" height="48.80282411605547" x="731" y="175.59858794197226" rx="5" ry="5" fill="white" />
    <rect width="8" height="41.43761091746087" x="741" y="179.28119454126957" rx="5" ry="5" fill="white" />
    <rect width="8" height="35.08396912132266" x="751" y="182.45801543933868" rx="5" ry="5" fill="white" />
    <rect width="8" height="26.138985238509665" x="761" y="186.93050738074515" rx="5" ry="5" fill="white" />
    <rect width="8" height="29.8947621989048" x="771" y="185.0526189005476" rx="5" ry="5" fill="white" />
    <rect width="8" height="27.812453642978124" x="781" y="186.09377317851093" rx="5" ry="5" fill="white" />
    <rect width="8" height="16.80905693370606" x="791" y="191.59547153314696" rx="5" ry="5" fill="white" />
    <rect width="8" height="16.426975729245164" x="801" y="191.78651213537742" rx="5" ry="5" fill="white" />
    <rect width="8" height="14.576302020184642" x="811" y="192.71184898990768" rx="5" ry="5" fill="white" />
    <rect width="8" height="15.537532950474159" x="821" y="192.23123352476293" rx="5" ry="5" fill="white" />
    <rect width="8" height="14.82371663387918" x="831" y="192.5881416830604" rx="5" ry="5" fill="white" />
    <rect width="8" height="14.573986783232506" x="841" y="192.71300660838375" rx="5" ry="5" fill="white" />
    <rect width="8" height="34.13594426975669" x="851" y="182.93202786512165" rx="5" ry="5" fill="white" />
    <rect width="8" height="32.243118436271025" x="861" y="183.8784407818645" rx="5" ry="5" fill="white" />
    <rect width="8" height="29.887335996143516" x="871" y="185.05633200192824" rx="5" ry="5" fill="white" />
    <rect width="8" height="26.288314998407564" x="881" y="186.85584250079623" rx="5" ry="5" fill="white" />
    <rect width="8" height="32.96702466083457" x="891" y="183.51648766958272" rx="5" ry="5" fill="white" />
    <rect width="8" height="23.524313983140345" x="901" y="188.23784300842982" rx="5" ry="5" fill="white" />
    <rect width="8" height="18.932779573208105" x="911" y="190.53361021339595" rx="5" ry="5" fill="white" />
    <rect width="8" height="16.155848121157156" x="921" y="191.92207593942143" rx="5" ry="5" fill="white" />
    <rect width="8" height="10.880834354280559" x="931" y="194.5595828228597" rx="5" ry="5" fill="white" />
    <rect width="8" height="10.44507666360277" x="941" y="194.7774616681986" rx="5" ry="5" fill="white" />
    <rect width="8" height="11.889146147106661" x="951" y="194.05542692644667" rx="5" ry="5" fill="white" />
    <rect width="8" height="10.383404390973766" x="961" y="194.80829780451313" rx="5" ry="5" fill="white" />
    <rect width="8" height="22.448683371011867" x="971" y="188.77565831449408" rx="5" ry="5" fill="white" />
    <rect width="8" height="39.0873292812506" x="981" y="180.4563353593747" rx="5" ry="5" fill="white" />
    <rect width="8" height="37.35419621461922" x="991" y="181.3229018926904" rx="5" ry="5" fill="white" />
    <rect width="8" height="37.325325971252525" x="1001" y="181.33733701437373" rx="5" ry="5" fill="white" />
    <rect width="8" height="33.83556029751835" x="1011" y="183.08221985124084" rx="5" ry="5" fill="white" />
    <rect width="8" height="41.78857941456049" x="1021" y="179.10571029271975" rx="5" ry="5" fill="white" />
    <rect width="8" height="29.35551196372863" x="1031" y="185.32224401813568" rx="5" ry="5" fill="white" />
    <rect width="8" height="23.743998250590312" x="1041" y="188.12800087470484" rx="5" ry="5" fill="white" />
    <rect width="8" height="27.129921009389772" x="1051" y="186.43503949530512" rx="5" ry="5" fill="white" />
    <rect width="8" height="25.54795268731057" x="1061" y="187.22602365634472" rx="5" ry="5" fill="white" />
    <rect width="8" height="21.36596739227634" x="1071" y="189.31701630386183" rx="5" ry="5" fill="white" />
    <rect width="8" height="18.857551019048305" x="1081" y="190.57122449047586" rx="5" ry="5" fill="white" />
    <rect width="8" height="26.756847065137286" x="1091" y="186.62157646743137" rx="5" ry="5" fill="white" />
    <rect width="8" height="20.840383658835407" x="1101" y="189.57980817058228" rx="5" ry="5" fill="white" />
    <rect width="8" height="24.25122392918114" x="1111" y="187.87438803540942" rx="5" ry="5" fill="white" />
    <rect width="8" height="27.320068093759126" x="1121" y="186.33996595312044" rx="5" ry="5" fill="white" />
    <rect width="8" height="34.51253131971371" x="1131" y="182.74373434014313" rx="5" ry="5" fill="white" />
    <rect width="8" height="45.72875632055421" x="1141" y="177.1356218397229" rx="5" ry="5" fill="white" />
    <rect width="8" height="60.944214825420495" x="1151" y="169.52789258728976" rx="5" ry="5" fill="white" />
    <rect width="8" height="71.64529372845873" x="1161" y="164.17735313577063" rx="5" ry="5" fill="white" />
    <rect width="8" height="74.92776141580933" x="1171" y="162.53611929209535" rx="5" ry="5" fill="white" />
    <rect width="8" height="74.94694660731156" x="1181" y="162.5265266963442" rx="5" ry="5" fill="white" />
    <rect width="8" height="69.76423780313732" x="1191" y="165.11788109843133" rx="5" ry="5" fill="white" />
    <rect width="8" height="85.45457557762359" x="1201" y="157.2727122111882" rx="5" ry="5" fill="white" />
    <rect width="8" height="103.08064341332665" x="1211" y="148.45967829333668" rx="5" ry="5" fill="white" />
    <rect width="8" height="83.5891028555098" x="1221" y="158.2054485722451" rx="5" ry="5" fill="white" />
    <rect width="8" height="90.91771720052326" x="1231" y="154.54114139973836" rx="5" ry="5" fill="white" />
    <rect width="8" height="94.96534375531529" x="1241" y="152.51732812234235" rx="5" ry="5" fill="white" />
    <rect width="8" height="76.32554627536254" x="1251" y="161.83722686231874" rx="5" ry="5" fill="white" />
    <rect width="8" height="83.31392041563845" x="1261" y="158.34303979218078" rx="5" ry="5" fill="white" />
    <rect width="8" height="69.62615672382388" x="1271" y="165.18692163808805" rx="5" ry="5" fill="white" />
  </g>
</svg>