<svg 
  baseProfile="tiny"
  preserveAspectRatio="keep"
  version="1.2"
  viewBox="0 0 1280.000000 400.000000"
  height="100%" width="100%"
  xmlns="http://www.w3.org/2000/svg"
  xmlns:ev="http://www.w3.org/2001/xml-events"
  xmlns:xlink="http://www.w3.org/1999/xlink"
>
  <g>
    <rect width="8" height="105.14390788011872" x="1" y="147.42804605994064" rx="5" ry="5" fill="white" />
    <rect width="8" height="57.845294323854745" x="11" y="171.0773528380726" rx="5" ry="5" fill="white" />
    <rect width="8" height="114.75370559655948" x="21" y="142.62314720172026" rx="5" ry="5" fill="white" />
    <rect width="8" height="90.777579269719" x="31" y="154.6112103651405" rx="5" ry="5" fill="white" />
    <rect width="8" height="73.968894420885" x="41" y="163.0155527895575" rx="5" ry="5" fill="white" />
    <rect width="8" height="43.247726212113804" x="51" y="178.3761368939431" rx="5" ry="5" fill="white" />
    <rect width="8" height="40.50478396273478" x="61" y="179.7476080186326" rx="5" ry="5" fill="white" />
    <rect width="8" height="40.10829066629966" x="71" y="179.94585466685018" rx="5" ry="5" fill="white" />
    <rect width="8" height="37.78809627231748" x="81" y="181.10595186384126" rx="5" ry="5" fill="white" />
    <rect width="8" height="65.2455404795078" x="91" y="167.3772297602461" rx="5" ry="5" fill="white" />
    <rect width="8" height="56.97261141112254" x="101" y="171.51369429443872" rx="5" ry="5" fill="white" />
    <rect width="8" height="94.80453491918972" x="111" y="152.59773254040513" rx="5" ry="5" fill="white" />
    <rect width="8" height="68.91684612142596" x="121" y="165.541576939287" rx="5" ry="5" fill="white" />
    <rect width="8" height="43.51931711357287" x="131" y="178.24034144321357" rx="5" ry="5" fill="white" />
    <rect width="8" height="63.85423209209298" x="141" y="168.07288395395352" rx="5" ry="5" fill="white" />
    <rect width="8" height="54.44789535991041" x="151" y="172.77605232004478" rx="5" ry="5" fill="white" />
    <rect width="8" height="52.717022305192515" x="161" y="173.64148884740374" rx="5" ry="5" fill="white" />
    <rect width="8" height="73.70930087088985" x="171" y="163.1453495645551" rx="5" ry="5" fill="white" />
    <rect width="8" height="70.78396014953584" x="181" y="164.60801992523207" rx="5" ry="5" fill="white" />
    <rect width="8" height="123.0039152217478" x="191" y="138.4980423891261" rx="5" ry="5" fill="white" />
    <rect width="8" height="98.872088522435" x="201" y="150.5639557387825" rx="5" ry="5" fill="white" />
    <rect width="8" height="84.85848828086824" x="211" y="157.57075585956588" rx="5" ry="5" fill="white" />
    <rect width="8" height="67.04895360004694" x="221" y="166.47552319997652" rx="5" ry="5" fill="white" />
    <rect width="8" height="57.59639654142198" x="231" y="171.201801729289" rx="5" ry="5" fill="white" />
    <rect width="8" height="55.54254395122871" x="241" y="172.22872802438565" rx="5" ry="5" fill="white" />
    <rect width="8" height="78.2147405400224" x="251" y="160.8926297299888" rx="5" ry="5" fill="white" />
    <rect width="8" height="80.85653025299209" x="261" y="159.57173487350394" rx="5" ry="5" fill="white" />
    <rect width="8" height="68.7569261180593" x="271" y="165.62153694097034" rx="5" ry="5" fill="white" />
    <rect width="8" height="107.77504936635466" x="281" y="146.11247531682267" rx="5" ry="5" fill="white" />
    <rect width="8" height="92.97209881698733" x="291" y="153.51395059150633" rx="5" ry="5" fill="white" />
    <rect width="8" height="75.5393971838301" x="301" y="162.23030140808496" rx="5" ry="5" fill="white" />
    <rect width="8" height="68.72006386502446" x="311" y="165.63996806748776" rx="5" ry="5" fill="white" />
    <rect width="8" height="54.786864150833296" x="321" y="172.60656792458335" rx="5" ry="5" fill="white" />
    <rect width="8" height="56.08664731791837" x="331" y="171.9566763410408" rx="5" ry="5" fill="white" />
    <rect width="8" height="105.60541974489432" x="341" y="147.19729012755283" rx="5" ry="5" fill="white" />
    <rect width="8" height="100.13174809266276" x="351" y="149.93412595366863" rx="5" ry="5" fill="white" />
    <rect width="8" height="87.30085436901908" x="361" y="156.34957281549046" rx="5" ry="5" fill="white" />
    <rect width="8" height="85.56286382078073" x="371" y="157.21856808960962" rx="5" ry="5" fill="white" />
    <rect width="8" height="111.67939846375717" x="381" y="144.16030076812143" rx="5" ry="5" fill="white" />
    <rect width="8" height="89.10621113164689" x="391" y="155.44689443417656" rx="5" ry="5" fill="white" />
    <rect width="8" height="72.30096868723614" x="401" y="163.84951565638193" rx="5" ry="5" fill="white" />
    <rect width="8" height="71.6179920987535" x="411" y="164.19100395062324" rx="5" ry="5" fill="white" />
    <rect width="8" height="97.72959601453888" x="421" y="151.13520199273057" rx="5" ry="5" fill="white" />
    <rect width="8" height="111.94972965840586" x="431" y="144.02513517079706" rx="5" ry="5" fill="white" />
    <rect width="8" height="79.61885269791728" x="441" y="160.19057365104135" rx="5" ry="5" fill="white" />
    <rect width="8" height="89.74140931587976" x="451" y="155.12929534206012" rx="5" ry="5" fill="white" />
    <rect width="8" height="90.37355901877454" x="461" y="154.81322049061274" rx="5" ry="5" fill="white" />
    <rect width="8" height="93.49917978565824" x="471" y="153.25041010717086" rx="5" ry="5" fill="white" />
    <rect width="8" height="79.76843110062333" x="481" y="160.11578444968833" rx="5" ry="5" fill="white" />
    <rect width="8" height="97.86060917216297" x="491" y="151.0696954139185" rx="5" ry="5" fill="white" />
    <rect width="8" height="65.24040703070622" x="501" y="167.37979648464687" rx="5" ry="5" fill="white" />
    <rect width="8" height="106.42908526057732" x="511" y="146.78545736971134" rx="5" ry="5" fill="white" />
    <rect width="8" height="109.66063788782452" x="521" y="145.16968105608774" rx="5" ry="5" fill="white" />
    <rect width="8" height="72.3494934363025" x="531" y="163.82525328184875" rx="5" ry="5" fill="white" />
    <rect width="8" height="99.11867783108268" x="541" y="150.44066108445867" rx="5" ry="5" fill="white" />
    <rect width="8" height="97.2134835371112" x="551" y="151.3932582314444" rx="5" ry="5" fill="white" />
    <rect width="8" height="86.83817251488767" x="561" y="156.58091374255616" rx="5" ry="5" fill="white" />
    <rect width="8" height="72.93370873540488" x="571" y="163.53314563229756" rx="5" ry="5" fill="white" />
    <rect width="8" height="100.33074026067452" x="581" y="149.83462986966273" rx="5" ry="5" fill="white" />
    <rect width="8" height="90.95902682520818" x="591" y="154.5204865873959" rx="5" ry="5" fill="white" />
    <rect width="8" height="118.16408323534779" x="601" y="140.9179583823261" rx="5" ry="5" fill="white" />
    <rect width="8" height="87.96872659677676" x="611" y="156.0156367016116" rx="5" ry="5" fill="white" />
    <rect width="8" height="81.0241578130077" x="621" y="159.48792109349614" rx="5" ry="5" fill="white" />
    <rect width="8" height="89.65251265546135" x="631" y="155.17374367226932" rx="5" ry="5" fill="white" />
    <rect width="8" height="108.58329570388878" x="641" y="145.7083521480556" rx="5" ry="5" fill="white" />
    <rect width="8" height="82.00586136888016" x="651" y="158.9970693155599" rx="5" ry="5" fill="white" />
    <rect width="8" height="78.60121510561629" x="661" y="160.69939244719185" rx="5" ry="5" fill="white" />
    <rect width="8" height="81.42016774802417" x="671" y="159.28991612598793" rx="5" ry="5" fill="white" />
    <rect width="8" height="119.21834484568683" x="681" y="140.39082757715659" rx="5" ry="5" fill="white" />
    <rect width="8" height="98.22305103666686" x="691" y="150.88847448166658" rx="5" ry="5" fill="white" />
    <rect width="8" height="96.85410649221683" x="701" y="151.57294675389159" rx="5" ry="5" fill="white" />
    <rect width="8" height="88.88012347308067" x="711" y="155.55993826345966" rx="5" ry="5" fill="white" />
    <rect width="8" height="108.5659864169159" x="721" y="145.71700679154205" rx="5" ry="5" fill="white" />
    <rect width="8" height="88.2089346784091" x="731" y="155.89553266079545" rx="5" ry="5" fill="white" />
    <rect width="8" height="81.67471011327186" x="741" y="159.16264494336406" rx="5" ry="5" fill="white" />
    <rect width="8" height="79.06174954972602" x="751" y="160.469125225137" rx="5" ry="5" fill="white" />
    <rect width="8" height="81.76005613865317" x="761" y="159.11997193067342" rx="5" ry="5" fill="white" />
    <rect width="8" height="104.23588154198377" x="771" y="147.88205922900812" rx="5" ry="5" fill="white" />
    <rect width="8" height="88.1465823787713" x="781" y="155.92670881061434" rx="5" ry="5" fill="white" />
    <rect width="8" height="75.22000103699618" x="791" y="162.38999948150192" rx="5" ry="5" fill="white" />
    <rect width="8" height="91.06668587431922" x="801" y="154.4666570628404" rx="5" ry="5" fill="white" />
    <rect width="8" height="111.15781094301013" x="811" y="144.42109452849493" rx="5" ry="5" fill="white" />
    <rect width="8" height="82.07435327109714" x="821" y="158.96282336445142" rx="5" ry="5" fill="white" />
    <rect width="8" height="81.37981121047773" x="831" y="159.31009439476114" rx="5" ry="5" fill="white" />
    <rect width="8" height="85.24912494757409" x="841" y="157.37543752621295" rx="5" ry="5" fill="white" />
    <rect width="8" height="108.1011751075885" x="851" y="145.94941244620574" rx="5" ry="5" fill="white" />
    <rect width="8" height="113.19520700649488" x="861" y="143.40239649675254" rx="5" ry="5" fill="white" />
    <rect width="8" height="95.2413561251971" x="871" y="152.37932193740144" rx="5" ry="5" fill="white" />
    <rect width="8" height="103.79476998102868" x="881" y="148.10261500948565" rx="5" ry="5" fill="white" />
    <rect width="8" height="111.93773298003495" x="891" y="144.0311335099825" rx="5" ry="5" fill="white" />
    <rect width="8" height="102.00399103099971" x="901" y="148.99800448450014" rx="5" ry="5" fill="white" />
    <rect width="8" height="84.56046149092413" x="911" y="157.71976925453794" rx="5" ry="5" fill="white" />
    <rect width="8" height="79.23462206033787" x="921" y="160.38268896983107" rx="5" ry="5" fill="white" />
    <rect width="8" height="80.36575929030359" x="931" y="159.8171203548482" rx="5" ry="5" fill="white" />
    <rect width="8" height="125.17391564538669" x="941" y="137.41304217730666" rx="5" ry="5" fill="white" />
    <rect width="8" height="86.3752763705627" x="951" y="156.81236181471866" rx="5" ry="5" fill="white" />
    <rect width="8" height="78.59949775587549" x="961" y="160.70025112206224" rx="5" ry="5" fill="white" />
    <rect width="8" height="86.0042860393069" x="971" y="156.99785698034654" rx="5" ry="5" fill="white" />
    <rect width="8" height="99.47910075503287" x="981" y="150.26044962248358" rx="5" ry="5" fill="white" />
    <rect width="8" height="74.49147470309076" x="991" y="162.7542626484546" rx="5" ry="5" fill="white" />
    <rect width="8" height="79.99439950865515" x="1001" y="160.00280024567243" rx="5" ry="5" fill="white" />
    <rect width="8" height="81.37720230694701" x="1011" y="159.3113988465265" rx="5" ry="5" fill="white" />
    <rect width="8" height="73.65148619767538" x="1021" y="163.17425690116232" rx="5" ry="5" fill="white" />
    <rect width="8" height="64.092537668317" x="1031" y="167.9537311658415" rx="5" ry="5" fill="white" />
    <rect width="8" height="63.15887597530426" x="1041" y="168.42056201234786" rx="5" ry="5" fill="white" />
    <rect width="8" height="64.30144822966714" x="1051" y="167.84927588516643" rx="5" ry="5" fill="white" />
    <rect width="8" height="64.48386701909273" x="1061" y="167.75806649045364" rx="5" ry="5" fill="white" />
    <rect width="8" height="72.01647883430947" x="1071" y="163.99176058284527" rx="5" ry="5" fill="white" />
    <rect width="8" height="69.24781144658253" x="1081" y="165.37609427670873" rx="5" ry="5" fill="white" />
    <rect width="8" height="69.45560469389896" x="1091" y="165.2721976530505" rx="5" ry="5" fill="white" />
    <rect width="8" height="70.39333733708256" x="1101" y="164.8033313314587" rx="5" ry="5" fill="white" />
    <rect width="8" height="74.82489775067906" x="1111" y="162.58755112466048" rx="5" ry="5" fill="white" />
    <rect width="8" height="75.92091730970272" x="1121" y="162.03954134514865" rx="5" ry="5" fill="white" />
    <rect width="8" height="70.8345740286172" x="1131" y="164.5827129856914" rx="5" ry="5" fill="white" />
    <rect width="8" height="40.403632898996236" x="1141" y="179.79818355050188" rx="5" ry="5" fill="white" />
    <rect width="8" height="20.812417168234898" x="1151" y="189.59379141588255" rx="5" ry="5" fill="white" />
    <rect width="8" height="10.292299727991649" x="1161" y="194.85385013600418" rx="5" ry="5" fill="white" />
    <rect width="8" height="8" x="1171" y="196" rx="5" ry="5" fill="white" />
    <rect width="8" height="10.505516841742748" x="1181" y="194.74724157912863" rx="5" ry="5" fill="white" />
    <rect width="8" height="17.69491047831383" x="1191" y="191.15254476084309" rx="5" ry="5" fill="white" />
    <rect width="8" height="48.07528430531679" x="1201" y="175.9623578473416" rx="5" ry="5" fill="white" />
    <rect width="8" height="18.313527772132783" x="1211" y="190.8432361139336" rx="5" ry="5" fill="white" />
    <rect width="8" height="36.31004192633685" x="1221" y="181.84497903683157" rx="5" ry="5" fill="white" />
    <rect width="8" height="16.175357846938038" x="1231" y="191.912321076531" rx="5" ry="5" fill="white" />
    <rect width="8" height="32.85180276543464" x="1241" y="183.5740986172827" rx="5" ry="5" fill="white" />
    <rect width="8" height="26.27606228125878" x="1251" y="186.86196885937062" rx="5" ry="5" fill="white" />
    <rect width="8" height="36.79582821310976" x="1261" y="181.60208589344512" rx="5" ry="5" fill="white" />
    <rect width="8" height="78.81319383228998" x="1271" y="160.593403083855" rx="5" ry="5" fill="white" />
  </g>
</svg>