<svg 
  baseProfile="tiny"
  preserveAspectRatio="keep"
  version="1.2"
  viewBox="0 0 1280.000000 400.000000"
  height="100%" width="100%"
  xmlns="http://www.w3.org/2000/svg"
  xmlns:ev="http://www.w3.org/2001/xml-events"
  xmlns:xlink="http://www.w3.org/1999/xlink"
>
  <g>
    <rect width="8" height="36.41892976695428" x="1" y="181.79053511652285" rx="5" ry="5" fill="white" />
    <rect width="8" height="42.12910520132983" x="11" y="178.9354473993351" rx="5" ry="5" fill="white" />
    <rect width="8" height="29.037381137730062" x="21" y="185.48130943113497" rx="5" ry="5" fill="white" />
    <rect width="8" height="34.578939306341844" x="31" y="182.71053034682907" rx="5" ry="5" fill="white" />
    <rect width="8" height="148.09736921624238" x="41" y="125.95131539187881" rx="5" ry="5" fill="white" />
    <rect width="8" height="148.50285769528097" x="51" y="125.74857115235952" rx="5" ry="5" fill="white" />
    <rect width="8" height="127.02233292964709" x="61" y="136.48883353517647" rx="5" ry="5" fill="white" />
    <rect width="8" height="158.7157282943556" x="71" y="120.6421358528222" rx="5" ry="5" fill="white" />
    <rect width="8" height="115.41245872466757" x="81" y="142.29377063766623" rx="5" ry="5" fill="white" />
    <rect width="8" height="142.1667384224924" x="91" y="128.91663078875382" rx="5" ry="5" fill="white" />
    <rect width="8" height="135.41312883836528" x="101" y="132.29343558081734" rx="5" ry="5" fill="white" />
    <rect width="8" height="143.19373013303925" x="111" y="128.40313493348037" rx="5" ry="5" fill="white" />
    <rect width="8" height="131.01366464624792" x="121" y="134.49316767687606" rx="5" ry="5" fill="white" />
    <rect width="8" height="128.6172322521042" x="131" y="135.6913838739479" rx="5" ry="5" fill="white" />
    <rect width="8" height="133.62437016885522" x="141" y="133.1878149155724" rx="5" ry="5" fill="white" />
    <rect width="8" height="117.65361091842894" x="151" y="141.17319454078552" rx="5" ry="5" fill="white" />
    <rect width="8" height="118.69143135661828" x="161" y="140.65428432169085" rx="5" ry="5" fill="white" />
    <rect width="8" height="122.07435586681355" x="171" y="138.96282206659322" rx="5" ry="5" fill="white" />
    <rect width="8" height="129.45284155659067" x="181" y="135.27357922170467" rx="5" ry="5" fill="white" />
    <rect width="8" height="130.43274100153187" x="191" y="134.78362949923405" rx="5" ry="5" fill="white" />
    <rect width="8" height="129.72019249150705" x="201" y="135.13990375424646" rx="5" ry="5" fill="white" />
    <rect width="8" height="128.9375460603579" x="211" y="135.53122696982103" rx="5" ry="5" fill="white" />
    <rect width="8" height="122.40151097506384" x="221" y="138.79924451246808" rx="5" ry="5" fill="white" />
    <rect width="8" height="128.36264392947217" x="231" y="135.81867803526393" rx="5" ry="5" fill="white" />
    <rect width="8" height="126.09313295753546" x="241" y="136.95343352123228" rx="5" ry="5" fill="white" />
    <rect width="8" height="124.72568824945844" x="251" y="137.63715587527076" rx="5" ry="5" fill="white" />
    <rect width="8" height="123.62907639398357" x="261" y="138.18546180300822" rx="5" ry="5" fill="white" />
    <rect width="8" height="81.01955660767747" x="271" y="159.49022169616126" rx="5" ry="5" fill="white" />
    <rect width="8" height="109.17961380263618" x="281" y="145.4101930986819" rx="5" ry="5" fill="white" />
    <rect width="8" height="116.16511580477955" x="291" y="141.91744209761023" rx="5" ry="5" fill="white" />
    <rect width="8" height="126.56021584959329" x="301" y="136.71989207520335" rx="5" ry="5" fill="white" />
    <rect width="8" height="117.28289499713331" x="311" y="141.35855250143334" rx="5" ry="5" fill="white" />
    <rect width="8" height="120.3131602484401" x="321" y="139.84341987577994" rx="5" ry="5" fill="white" />
    <rect width="8" height="124.95063220511288" x="331" y="137.52468389744357" rx="5" ry="5" fill="white" />
    <rect width="8" height="114.44796059141228" x="341" y="142.77601970429384" rx="5" ry="5" fill="white" />
    <rect width="8" height="105.97627709074379" x="351" y="147.0118614546281" rx="5" ry="5" fill="white" />
    <rect width="8" height="110.52084915127485" x="361" y="144.73957542436258" rx="5" ry="5" fill="white" />
    <rect width="8" height="121.77133229127757" x="371" y="139.1143338543612" rx="5" ry="5" fill="white" />
    <rect width="8" height="119.26698094046941" x="381" y="140.3665095297653" rx="5" ry="5" fill="white" />
    <rect width="8" height="118.82746170753073" x="391" y="140.58626914623463" rx="5" ry="5" fill="white" />
    <rect width="8" height="121.82257078636391" x="401" y="139.08871460681803" rx="5" ry="5" fill="white" />
    <rect width="8" height="113.93484773877827" x="411" y="143.03257613061086" rx="5" ry="5" fill="white" />
    <rect width="8" height="110.83660219805019" x="421" y="144.5816989009749" rx="5" ry="5" fill="white" />
    <rect width="8" height="116.152054043888" x="431" y="141.92397297805599" rx="5" ry="5" fill="white" />
    <rect width="8" height="117.5337714521478" x="441" y="141.2331142739261" rx="5" ry="5" fill="white" />
    <rect width="8" height="121.44575391793617" x="451" y="139.27712304103193" rx="5" ry="5" fill="white" />
    <rect width="8" height="115.87801981068601" x="461" y="142.060990094657" rx="5" ry="5" fill="white" />
    <rect width="8" height="119.05571976805562" x="471" y="140.4721401159722" rx="5" ry="5" fill="white" />
    <rect width="8" height="114.05064300994687" x="481" y="142.97467849502658" rx="5" ry="5" fill="white" />
    <rect width="8" height="117.8242371024891" x="491" y="141.08788144875544" rx="5" ry="5" fill="white" />
    <rect width="8" height="116.20009710637649" x="501" y="141.89995144681177" rx="5" ry="5" fill="white" />
    <rect width="8" height="115.0077895577452" x="511" y="142.4961052211274" rx="5" ry="5" fill="white" />
    <rect width="8" height="118.95018331072617" x="521" y="140.5249083446369" rx="5" ry="5" fill="white" />
    <rect width="8" height="121.34384060607368" x="531" y="139.32807969696316" rx="5" ry="5" fill="white" />
    <rect width="8" height="113.72899979660534" x="541" y="143.13550010169735" rx="5" ry="5" fill="white" />
    <rect width="8" height="109.12414423701892" x="551" y="145.43792788149054" rx="5" ry="5" fill="white" />
    <rect width="8" height="120.72889999949939" x="561" y="139.6355500002503" rx="5" ry="5" fill="white" />
    <rect width="8" height="119.80459115682594" x="571" y="140.09770442158703" rx="5" ry="5" fill="white" />
    <rect width="8" height="122.0451786776108" x="581" y="138.9774106611946" rx="5" ry="5" fill="white" />
    <rect width="8" height="122.3842616000844" x="591" y="138.8078691999578" rx="5" ry="5" fill="white" />
    <rect width="8" height="127.6869200752776" x="601" y="136.1565399623612" rx="5" ry="5" fill="white" />
    <rect width="8" height="111.7935706498454" x="611" y="144.1032146750773" rx="5" ry="5" fill="white" />
    <rect width="8" height="117.9597738821457" x="621" y="141.02011305892717" rx="5" ry="5" fill="white" />
    <rect width="8" height="133.5642795086047" x="631" y="133.21786024569764" rx="5" ry="5" fill="white" />
    <rect width="8" height="113.96729432709655" x="641" y="143.01635283645172" rx="5" ry="5" fill="white" />
    <rect width="8" height="127.02664263828713" x="651" y="136.48667868085644" rx="5" ry="5" fill="white" />
    <rect width="8" height="125.44343129865258" x="661" y="137.27828435067372" rx="5" ry="5" fill="white" />
    <rect width="8" height="128.0369764717398" x="671" y="135.98151176413012" rx="5" ry="5" fill="white" />
    <rect width="8" height="112.9376794586534" x="681" y="143.5311602706733" rx="5" ry="5" fill="white" />
    <rect width="8" height="113.92364876260032" x="691" y="143.03817561869982" rx="5" ry="5" fill="white" />
    <rect width="8" height="116.6684350480734" x="701" y="141.66578247596328" rx="5" ry="5" fill="white" />
    <rect width="8" height="122.71232338089611" x="711" y="138.64383830955194" rx="5" ry="5" fill="white" />
    <rect width="8" height="126.9445723957179" x="721" y="136.52771380214105" rx="5" ry="5" fill="white" />
    <rect width="8" height="120.94934378019968" x="731" y="139.52532810990016" rx="5" ry="5" fill="white" />
    <rect width="8" height="82.30174176704013" x="741" y="158.84912911647993" rx="5" ry="5" fill="white" />
    <rect width="8" height="105.4186785901863" x="751" y="147.29066070490686" rx="5" ry="5" fill="white" />
    <rect width="8" height="111.0631676650161" x="761" y="144.46841616749197" rx="5" ry="5" fill="white" />
    <rect width="8" height="119.47888276130915" x="771" y="140.26055861934543" rx="5" ry="5" fill="white" />
    <rect width="8" height="120.36951336251256" x="781" y="139.8152433187437" rx="5" ry="5" fill="white" />
    <rect width="8" height="116.87697171156373" x="791" y="141.56151414421814" rx="5" ry="5" fill="white" />
    <rect width="8" height="119.04837283104968" x="801" y="140.47581358447516" rx="5" ry="5" fill="white" />
    <rect width="8" height="110.74278633560475" x="811" y="144.62860683219762" rx="5" ry="5" fill="white" />
    <rect width="8" height="116.75230937418131" x="821" y="141.62384531290934" rx="5" ry="5" fill="white" />
    <rect width="8" height="111.52004614768585" x="831" y="144.23997692615708" rx="5" ry="5" fill="white" />
    <rect width="8" height="121.78652946630892" x="841" y="139.10673526684553" rx="5" ry="5" fill="white" />
    <rect width="8" height="118.91997044122893" x="851" y="140.54001477938553" rx="5" ry="5" fill="white" />
    <rect width="8" height="116.6811822620819" x="861" y="141.65940886895905" rx="5" ry="5" fill="white" />
    <rect width="8" height="114.77652616924362" x="871" y="142.61173691537817" rx="5" ry="5" fill="white" />
    <rect width="8" height="111.25195348497343" x="881" y="144.37402325751327" rx="5" ry="5" fill="white" />
    <rect width="8" height="122.47854831967948" x="891" y="138.76072584016026" rx="5" ry="5" fill="white" />
    <rect width="8" height="122.9287288544759" x="901" y="138.53563557276203" rx="5" ry="5" fill="white" />
    <rect width="8" height="120.64224721251557" x="911" y="139.6788763937422" rx="5" ry="5" fill="white" />
    <rect width="8" height="113.5355607844696" x="921" y="143.23221960776522" rx="5" ry="5" fill="white" />
    <rect width="8" height="119.88647818044878" x="931" y="140.05676090977562" rx="5" ry="5" fill="white" />
    <rect width="8" height="111.72096656442187" x="941" y="144.13951671778906" rx="5" ry="5" fill="white" />
    <rect width="8" height="111.35030803057822" x="951" y="144.3248459847109" rx="5" ry="5" fill="white" />
    <rect width="8" height="125.2088808350316" x="961" y="137.3955595824842" rx="5" ry="5" fill="white" />
    <rect width="8" height="113.13335326403976" x="971" y="143.4333233679801" rx="5" ry="5" fill="white" />
    <rect width="8" height="120.50884023444101" x="981" y="139.7455798827795" rx="5" ry="5" fill="white" />
    <rect width="8" height="117.41249863545558" x="991" y="141.29375068227222" rx="5" ry="5" fill="white" />
    <rect width="8" height="114.71149639615135" x="1001" y="142.64425180192433" rx="5" ry="5" fill="white" />
    <rect width="8" height="110.86547007257303" x="1011" y="144.56726496371348" rx="5" ry="5" fill="white" />
    <rect width="8" height="116.07114946392352" x="1021" y="141.96442526803824" rx="5" ry="5" fill="white" />
    <rect width="8" height="73.59112013053654" x="1031" y="163.20443993473174" rx="5" ry="5" fill="white" />
    <rect width="8" height="49.2024827486922" x="1041" y="175.3987586256539" rx="5" ry="5" fill="white" />
    <rect width="8" height="50.491953390021806" x="1051" y="174.7540233049891" rx="5" ry="5" fill="white" />
    <rect width="8" height="52.39573506041092" x="1061" y="173.80213246979454" rx="5" ry="5" fill="white" />
    <rect width="8" height="32.34523624062186" x="1071" y="183.82738187968909" rx="5" ry="5" fill="white" />
    <rect width="8" height="39.82509991042746" x="1081" y="180.08745004478627" rx="5" ry="5" fill="white" />
    <rect width="8" height="48.289046836342926" x="1091" y="175.85547658182853" rx="5" ry="5" fill="white" />
    <rect width="8" height="44.19568590599363" x="1101" y="177.9021570470032" rx="5" ry="5" fill="white" />
    <rect width="8" height="43.365927987637335" x="1111" y="178.31703600618133" rx="5" ry="5" fill="white" />
    <rect width="8" height="47.11280663967128" x="1121" y="176.44359668016438" rx="5" ry="5" fill="white" />
    <rect width="8" height="50.935188407582324" x="1131" y="174.53240579620885" rx="5" ry="5" fill="white" />
    <rect width="8" height="42.36075077394529" x="1141" y="178.81962461302734" rx="5" ry="5" fill="white" />
    <rect width="8" height="40.71614165637378" x="1151" y="179.6419291718131" rx="5" ry="5" fill="white" />
    <rect width="8" height="38.65649183389676" x="1161" y="180.6717540830516" rx="5" ry="5" fill="white" />
    <rect width="8" height="48.90804841991677" x="1171" y="175.5459757900416" rx="5" ry="5" fill="white" />
    <rect width="8" height="42.047379667430974" x="1181" y="178.97631016628452" rx="5" ry="5" fill="white" />
    <rect width="8" height="35.73068205480245" x="1191" y="182.13465897259877" rx="5" ry="5" fill="white" />
    <rect width="8" height="45.83411969249603" x="1201" y="177.082940153752" rx="5" ry="5" fill="white" />
    <rect width="8" height="54.20269759224388" x="1211" y="172.89865120387805" rx="5" ry="5" fill="white" />
    <rect width="8" height="45.263252886799826" x="1221" y="177.3683735566001" rx="5" ry="5" fill="white" />
    <rect width="8" height="32.500089139177696" x="1231" y="183.74995543041115" rx="5" ry="5" fill="white" />
    <rect width="8" height="45.28272557047382" x="1241" y="177.3586372147631" rx="5" ry="5" fill="white" />
    <rect width="8" height="30.48361698419987" x="1251" y="184.75819150790005" rx="5" ry="5" fill="white" />
    <rect width="8" height="8" x="1261" y="196" rx="5" ry="5" fill="white" />
    <rect width="8" height="8" x="1271" y="196" rx="5" ry="5" fill="white" />
  </g>
</svg>