<svg 
  baseProfile="tiny"
  preserveAspectRatio="keep"
  version="1.2"
  viewBox="0 0 1280.000000 400.000000"
  height="100%" width="100%"
  xmlns="http://www.w3.org/2000/svg"
  xmlns:ev="http://www.w3.org/2001/xml-events"
  xmlns:xlink="http://www.w3.org/1999/xlink"
>
  <g>
    <rect width="8" height="14.368591247179022" x="1" y="192.81570437641048" rx="5" ry="5" fill="white" />
    <rect width="8" height="31.270495549315854" x="11" y="184.36475222534207" rx="5" ry="5" fill="white" />
    <rect width="8" height="56.95132202662004" x="21" y="171.52433898668997" rx="5" ry="5" fill="white" />
    <rect width="8" height="48.6884751337547" x="31" y="175.65576243312265" rx="5" ry="5" fill="white" />
    <rect width="8" height="43.35511719618662" x="41" y="178.3224414019067" rx="5" ry="5" fill="white" />
    <rect width="8" height="48.82993295707781" x="51" y="175.5850335214611" rx="5" ry="5" fill="white" />
    <rect width="8" height="46.126386567472224" x="61" y="176.9368067162639" rx="5" ry="5" fill="white" />
    <rect width="8" height="41.33102401431107" x="71" y="179.33448799284446" rx="5" ry="5" fill="white" />
    <rect width="8" height="35.49426990616186" x="81" y="182.25286504691906" rx="5" ry="5" fill="white" />
    <rect width="8" height="34.52861001361253" x="91" y="182.73569499319373" rx="5" ry="5" fill="white" />
    <rect width="8" height="32.20472642420844" x="101" y="183.89763678789578" rx="5" ry="5" fill="white" />
    <rect width="8" height="39.58352930265798" x="111" y="180.208235348671" rx="5" ry="5" fill="white" />
    <rect width="8" height="27.967607467270827" x="121" y="186.01619626636457" rx="5" ry="5" fill="white" />
    <rect width="8" height="70.21673597730246" x="131" y="164.89163201134878" rx="5" ry="5" fill="white" />
    <rect width="8" height="92.30667516243778" x="141" y="153.8466624187811" rx="5" ry="5" fill="white" />
    <rect width="8" height="80.87925397439538" x="151" y="159.5603730128023" rx="5" ry="5" fill="white" />
    <rect width="8" height="89.95739732227062" x="161" y="155.0213013388647" rx="5" ry="5" fill="white" />
    <rect width="8" height="75.73671491196826" x="171" y="162.13164254401588" rx="5" ry="5" fill="white" />
    <rect width="8" height="71.31630539038522" x="181" y="164.3418473048074" rx="5" ry="5" fill="white" />
    <rect width="8" height="76.45505063890991" x="191" y="161.77247468054503" rx="5" ry="5" fill="white" />
    <rect width="8" height="81.45548986359485" x="201" y="159.27225506820258" rx="5" ry="5" fill="white" />
    <rect width="8" height="87.6790782850363" x="211" y="156.16046085748184" rx="5" ry="5" fill="white" />
    <rect width="8" height="77.22538108206165" x="221" y="161.38730945896918" rx="5" ry="5" fill="white" />
    <rect width="8" height="81.01978645922242" x="231" y="159.4901067703888" rx="5" ry="5" fill="white" />
    <rect width="8" height="94.2271972092221" x="241" y="152.88640139538896" rx="5" ry="5" fill="white" />
    <rect width="8" height="86.20858180898331" x="251" y="156.89570909550835" rx="5" ry="5" fill="white" />
    <rect width="8" height="90.81539875269412" x="261" y="154.59230062365293" rx="5" ry="5" fill="white" />
    <rect width="8" height="81.88389022408232" x="271" y="159.05805488795883" rx="5" ry="5" fill="white" />
    <rect width="8" height="79.63167176860746" x="281" y="160.18416411569626" rx="5" ry="5" fill="white" />
    <rect width="8" height="85.97646645928324" x="291" y="157.01176677035838" rx="5" ry="5" fill="white" />
    <rect width="8" height="82.49305906986464" x="301" y="158.75347046506766" rx="5" ry="5" fill="white" />
    <rect width="8" height="86.06865463664015" x="311" y="156.96567268167993" rx="5" ry="5" fill="white" />
    <rect width="8" height="83.31269590066636" x="321" y="158.34365204966682" rx="5" ry="5" fill="white" />
    <rect width="8" height="73.2161558749071" x="331" y="163.39192206254646" rx="5" ry="5" fill="white" />
    <rect width="8" height="81.66571555599393" x="341" y="159.16714222200304" rx="5" ry="5" fill="white" />
    <rect width="8" height="89.74964686696875" x="351" y="155.12517656651562" rx="5" ry="5" fill="white" />
    <rect width="8" height="90.56769289268422" x="361" y="154.71615355365788" rx="5" ry="5" fill="white" />
    <rect width="8" height="80.68645945657092" x="371" y="159.65677027171455" rx="5" ry="5" fill="white" />
    <rect width="8" height="85.5449828436313" x="381" y="157.22750857818434" rx="5" ry="5" fill="white" />
    <rect width="8" height="77.71702358581106" x="391" y="161.14148820709448" rx="5" ry="5" fill="white" />
    <rect width="8" height="79.67038269960955" x="401" y="160.16480865019523" rx="5" ry="5" fill="white" />
    <rect width="8" height="81.54140042319972" x="411" y="159.22929978840014" rx="5" ry="5" fill="white" />
    <rect width="8" height="89.26958984379608" x="421" y="155.36520507810195" rx="5" ry="5" fill="white" />
    <rect width="8" height="88.85366354774175" x="431" y="155.57316822612913" rx="5" ry="5" fill="white" />
    <rect width="8" height="83.52006924179128" x="441" y="158.23996537910438" rx="5" ry="5" fill="white" />
    <rect width="8" height="83.4946437112291" x="451" y="158.25267814438544" rx="5" ry="5" fill="white" />
    <rect width="8" height="85.06426036345044" x="461" y="157.46786981827478" rx="5" ry="5" fill="white" />
    <rect width="8" height="94.74292105210762" x="471" y="152.6285394739462" rx="5" ry="5" fill="white" />
    <rect width="8" height="84.36598940108131" x="481" y="157.81700529945934" rx="5" ry="5" fill="white" />
    <rect width="8" height="83.28066599466008" x="491" y="158.35966700266997" rx="5" ry="5" fill="white" />
    <rect width="8" height="86.27810242844691" x="501" y="156.86094878577654" rx="5" ry="5" fill="white" />
    <rect width="8" height="87.63230630580226" x="511" y="156.18384684709886" rx="5" ry="5" fill="white" />
    <rect width="8" height="85.95368899574973" x="521" y="157.02315550212512" rx="5" ry="5" fill="white" />
    <rect width="8" height="99.19599450505748" x="531" y="150.40200274747127" rx="5" ry="5" fill="white" />
    <rect width="8" height="86.09481734793216" x="541" y="156.9525913260339" rx="5" ry="5" fill="white" />
    <rect width="8" height="82.48189316775579" x="551" y="158.7590534161221" rx="5" ry="5" fill="white" />
    <rect width="8" height="82.09812426100072" x="561" y="158.95093786949963" rx="5" ry="5" fill="white" />
    <rect width="8" height="93.72694686128439" x="571" y="153.1365265693578" rx="5" ry="5" fill="white" />
    <rect width="8" height="93.43740407555872" x="581" y="153.28129796222063" rx="5" ry="5" fill="white" />
    <rect width="8" height="82.40826831324722" x="591" y="158.7958658433764" rx="5" ry="5" fill="white" />
    <rect width="8" height="80.63350108480816" x="601" y="159.68324945759593" rx="5" ry="5" fill="white" />
    <rect width="8" height="95.6866989137497" x="611" y="152.15665054312515" rx="5" ry="5" fill="white" />
    <rect width="8" height="90.2185846086511" x="621" y="154.89070769567445" rx="5" ry="5" fill="white" />
    <rect width="8" height="82.38689259862608" x="631" y="158.80655370068695" rx="5" ry="5" fill="white" />
    <rect width="8" height="80.92631092382857" x="641" y="159.53684453808572" rx="5" ry="5" fill="white" />
    <rect width="8" height="81.45933635261402" x="651" y="159.270331823693" rx="5" ry="5" fill="white" />
    <rect width="8" height="78.88425409964373" x="661" y="160.55787295017814" rx="5" ry="5" fill="white" />
    <rect width="8" height="79.53321425969607" x="671" y="160.23339287015196" rx="5" ry="5" fill="white" />
    <rect width="8" height="66.3768030336348" x="681" y="166.8115984831826" rx="5" ry="5" fill="white" />
    <rect width="8" height="67.38102320584971" x="691" y="166.30948839707514" rx="5" ry="5" fill="white" />
    <rect width="8" height="50.35727057453136" x="701" y="174.82136471273432" rx="5" ry="5" fill="white" />
    <rect width="8" height="61.360705327487594" x="711" y="169.3196473362562" rx="5" ry="5" fill="white" />
    <rect width="8" height="53.85333593651276" x="721" y="173.07333203174363" rx="5" ry="5" fill="white" />
    <rect width="8" height="49.70494518202852" x="731" y="175.14752740898575" rx="5" ry="5" fill="white" />
    <rect width="8" height="60.001013330620864" x="741" y="169.99949333468956" rx="5" ry="5" fill="white" />
    <rect width="8" height="62.94516355448378" x="751" y="168.52741822275812" rx="5" ry="5" fill="white" />
    <rect width="8" height="65.51954186752154" x="761" y="167.24022906623924" rx="5" ry="5" fill="white" />
    <rect width="8" height="45.90023371660364" x="771" y="177.0498831416982" rx="5" ry="5" fill="white" />
    <rect width="8" height="53.044185076709326" x="781" y="173.47790746164534" rx="5" ry="5" fill="white" />
    <rect width="8" height="61.15181237049969" x="791" y="169.42409381475017" rx="5" ry="5" fill="white" />
    <rect width="8" height="53.857114317186394" x="801" y="173.0714428414068" rx="5" ry="5" fill="white" />
    <rect width="8" height="50.4566641786096" x="811" y="174.77166791069521" rx="5" ry="5" fill="white" />
    <rect width="8" height="60.34315479274175" x="821" y="169.82842260362912" rx="5" ry="5" fill="white" />
    <rect width="8" height="55.08898165338585" x="831" y="172.45550917330706" rx="5" ry="5" fill="white" />
    <rect width="8" height="53.398841942430685" x="841" y="173.30057902878465" rx="5" ry="5" fill="white" />
    <rect width="8" height="61.9932930552355" x="851" y="169.00335347238226" rx="5" ry="5" fill="white" />
    <rect width="8" height="60.95807680580646" x="861" y="169.52096159709677" rx="5" ry="5" fill="white" />
    <rect width="8" height="59.80339866861605" x="871" y="170.09830066569197" rx="5" ry="5" fill="white" />
    <rect width="8" height="60.25131026087794" x="881" y="169.874344869561" rx="5" ry="5" fill="white" />
    <rect width="8" height="58.64826742467891" x="891" y="170.67586628766054" rx="5" ry="5" fill="white" />
    <rect width="8" height="62.39360245864142" x="901" y="168.8031987706793" rx="5" ry="5" fill="white" />
    <rect width="8" height="66.9686107284096" x="911" y="166.5156946357952" rx="5" ry="5" fill="white" />
    <rect width="8" height="61.34567531274051" x="921" y="169.32716234362974" rx="5" ry="5" fill="white" />
    <rect width="8" height="61.94293157708387" x="931" y="169.02853421145807" rx="5" ry="5" fill="white" />
    <rect width="8" height="65.2571828946851" x="941" y="167.37140855265744" rx="5" ry="5" fill="white" />
    <rect width="8" height="61.74242742928867" x="951" y="169.12878628535566" rx="5" ry="5" fill="white" />
    <rect width="8" height="63.25269225889764" x="961" y="168.37365387055118" rx="5" ry="5" fill="white" />
    <rect width="8" height="65.98400727543905" x="971" y="167.00799636228047" rx="5" ry="5" fill="white" />
    <rect width="8" height="60.394632599734464" x="981" y="169.80268370013277" rx="5" ry="5" fill="white" />
    <rect width="8" height="62.02835841267267" x="991" y="168.98582079366366" rx="5" ry="5" fill="white" />
    <rect width="8" height="54.547989965793434" x="1001" y="172.7260050171033" rx="5" ry="5" fill="white" />
    <rect width="8" height="64.83329300007541" x="1011" y="167.5833534999623" rx="5" ry="5" fill="white" />
    <rect width="8" height="63.60783430219623" x="1021" y="168.19608284890188" rx="5" ry="5" fill="white" />
    <rect width="8" height="63.328145834079116" x="1031" y="168.33592708296044" rx="5" ry="5" fill="white" />
    <rect width="8" height="60.751783850805744" x="1041" y="169.62410807459713" rx="5" ry="5" fill="white" />
    <rect width="8" height="66.23350609315713" x="1051" y="166.88324695342143" rx="5" ry="5" fill="white" />
    <rect width="8" height="63.11340587669011" x="1061" y="168.44329706165496" rx="5" ry="5" fill="white" />
    <rect width="8" height="63.41550227825123" x="1071" y="168.2922488608744" rx="5" ry="5" fill="white" />
    <rect width="8" height="57.011183811418384" x="1081" y="171.4944080942908" rx="5" ry="5" fill="white" />
    <rect width="8" height="63.91984871588134" x="1091" y="168.04007564205932" rx="5" ry="5" fill="white" />
    <rect width="8" height="67.80604979647997" x="1101" y="166.09697510176002" rx="5" ry="5" fill="white" />
    <rect width="8" height="65.53655236447" x="1111" y="167.231723817765" rx="5" ry="5" fill="white" />
    <rect width="8" height="60.1569751801197" x="1121" y="169.92151240994014" rx="5" ry="5" fill="white" />
    <rect width="8" height="61.67658848058791" x="1131" y="169.16170575970605" rx="5" ry="5" fill="white" />
    <rect width="8" height="54.183649501844656" x="1141" y="172.90817524907766" rx="5" ry="5" fill="white" />
    <rect width="8" height="40.10170034126047" x="1151" y="179.94914982936976" rx="5" ry="5" fill="white" />
    <rect width="8" height="12.273938934675284" x="1161" y="193.86303053266235" rx="5" ry="5" fill="white" />
    <rect width="8" height="8" x="1171" y="196" rx="5" ry="5" fill="white" />
    <rect width="8" height="8" x="1181" y="196" rx="5" ry="5" fill="white" />
    <rect width="8" height="14.84301083616122" x="1191" y="192.5784945819194" rx="5" ry="5" fill="white" />
    <rect width="8" height="15.822881234419187" x="1201" y="192.0885593827904" rx="5" ry="5" fill="white" />
    <rect width="8" height="23.736068334654174" x="1211" y="188.1319658326729" rx="5" ry="5" fill="white" />
    <rect width="8" height="23.702002806201573" x="1221" y="188.14899859689922" rx="5" ry="5" fill="white" />
    <rect width="8" height="20.623851865331837" x="1231" y="189.68807406733407" rx="5" ry="5" fill="white" />
    <rect width="8" height="20.452240092882256" x="1241" y="189.77387995355886" rx="5" ry="5" fill="white" />
    <rect width="8" height="21.877727524197475" x="1251" y="189.06113623790125" rx="5" ry="5" fill="white" />
    <rect width="8" height="18.563854339044713" x="1261" y="190.71807283047764" rx="5" ry="5" fill="white" />
    <rect width="8" height="19.417803079656608" x="1271" y="190.2910984601717" rx="5" ry="5" fill="white" />
  </g>
</svg>