<svg 
  baseProfile="tiny"
  preserveAspectRatio="keep"
  version="1.2"
  viewBox="0 0 1280.000000 400.000000"
  height="100%" width="100%"
  xmlns="http://www.w3.org/2000/svg"
  xmlns:ev="http://www.w3.org/2001/xml-events"
  xmlns:xlink="http://www.w3.org/1999/xlink"
>
  <g>
    <rect width="8" height="74.19035128463634" x="1" y="162.90482435768183" rx="5" ry="5" fill="white" />
    <rect width="8" height="91.82197488266019" x="11" y="154.0890125586699" rx="5" ry="5" fill="white" />
    <rect width="8" height="71.77846240831867" x="21" y="164.11076879584067" rx="5" ry="5" fill="white" />
    <rect width="8" height="49.27196150529962" x="31" y="175.3640192473502" rx="5" ry="5" fill="white" />
    <rect width="8" height="70.6595735970803" x="41" y="164.67021320145986" rx="5" ry="5" fill="white" />
    <rect width="8" height="78.44871997118652" x="51" y="160.77564001440675" rx="5" ry="5" fill="white" />
    <rect width="8" height="76.99612765197948" x="61" y="161.50193617401027" rx="5" ry="5" fill="white" />
    <rect width="8" height="66.23383027390943" x="71" y="166.88308486304527" rx="5" ry="5" fill="white" />
    <rect width="8" height="56.58168272520806" x="81" y="171.70915863739597" rx="5" ry="5" fill="white" />
    <rect width="8" height="73.98332736719158" x="91" y="163.0083363164042" rx="5" ry="5" fill="white" />
    <rect width="8" height="82.50828762715354" x="101" y="158.74585618642323" rx="5" ry="5" fill="white" />
    <rect width="8" height="61.555108832344" x="111" y="169.222445583828" rx="5" ry="5" fill="white" />
    <rect width="8" height="47.219296229327256" x="121" y="176.39035188533637" rx="5" ry="5" fill="white" />
    <rect width="8" height="89.41083459876883" x="131" y="155.2945827006156" rx="5" ry="5" fill="white" />
    <rect width="8" height="104.84429343818763" x="141" y="147.5778532809062" rx="5" ry="5" fill="white" />
    <rect width="8" height="98.76432930061479" x="151" y="150.6178353496926" rx="5" ry="5" fill="white" />
    <rect width="8" height="91.03405368822123" x="161" y="154.4829731558894" rx="5" ry="5" fill="white" />
    <rect width="8" height="93.15766163168466" x="171" y="153.42116918415766" rx="5" ry="5" fill="white" />
    <rect width="8" height="100.37038176636712" x="181" y="149.81480911681643" rx="5" ry="5" fill="white" />
    <rect width="8" height="85.34970727454218" x="191" y="157.3251463627289" rx="5" ry="5" fill="white" />
    <rect width="8" height="81.75186480396567" x="201" y="159.12406759801718" rx="5" ry="5" fill="white" />
    <rect width="8" height="80.54506413134308" x="211" y="159.72746793432844" rx="5" ry="5" fill="white" />
    <rect width="8" height="95.93941007775199" x="221" y="152.030294961124" rx="5" ry="5" fill="white" />
    <rect width="8" height="56.42794532240993" x="231" y="171.78602733879504" rx="5" ry="5" fill="white" />
    <rect width="8" height="70.95996105557815" x="241" y="164.52001947221092" rx="5" ry="5" fill="white" />
    <rect width="8" height="54.392540494627454" x="251" y="172.80372975268628" rx="5" ry="5" fill="white" />
    <rect width="8" height="130.7474467743179" x="261" y="134.62627661284105" rx="5" ry="5" fill="white" />
    <rect width="8" height="70.25646053602208" x="271" y="164.87176973198896" rx="5" ry="5" fill="white" />
    <rect width="8" height="56.3191906190667" x="281" y="171.84040469046664" rx="5" ry="5" fill="white" />
    <rect width="8" height="62.60211024306794" x="291" y="168.69894487846602" rx="5" ry="5" fill="white" />
    <rect width="8" height="108.26666984108124" x="301" y="145.86666507945938" rx="5" ry="5" fill="white" />
    <rect width="8" height="105.27148325428735" x="311" y="147.36425837285634" rx="5" ry="5" fill="white" />
    <rect width="8" height="69.83049954809049" x="321" y="165.08475022595476" rx="5" ry="5" fill="white" />
    <rect width="8" height="89.73034340105791" x="331" y="155.13482829947105" rx="5" ry="5" fill="white" />
    <rect width="8" height="76.27780861185812" x="341" y="161.86109569407094" rx="5" ry="5" fill="white" />
    <rect width="8" height="113.0504363344755" x="351" y="143.47478183276223" rx="5" ry="5" fill="white" />
    <rect width="8" height="109.08646622166044" x="361" y="145.45676688916978" rx="5" ry="5" fill="white" />
    <rect width="8" height="76.02698992570728" x="371" y="161.98650503714634" rx="5" ry="5" fill="white" />
    <rect width="8" height="88.71662989020616" x="381" y="155.64168505489693" rx="5" ry="5" fill="white" />
    <rect width="8" height="108.90602994602492" x="391" y="145.54698502698756" rx="5" ry="5" fill="white" />
    <rect width="8" height="71.91238448944307" x="401" y="164.04380775527846" rx="5" ry="5" fill="white" />
    <rect width="8" height="77.8962645525163" x="411" y="161.05186772374185" rx="5" ry="5" fill="white" />
    <rect width="8" height="102.69114727169972" x="421" y="148.65442636415014" rx="5" ry="5" fill="white" />
    <rect width="8" height="87.3337766552994" x="431" y="156.3331116723503" rx="5" ry="5" fill="white" />
    <rect width="8" height="87.22193608684854" x="441" y="156.38903195657574" rx="5" ry="5" fill="white" />
    <rect width="8" height="100.92901662848031" x="451" y="149.53549168575984" rx="5" ry="5" fill="white" />
    <rect width="8" height="65.44583343269844" x="461" y="167.27708328365077" rx="5" ry="5" fill="white" />
    <rect width="8" height="66.1535457007501" x="471" y="166.92322714962495" rx="5" ry="5" fill="white" />
    <rect width="8" height="82.1361126398585" x="481" y="158.93194368007076" rx="5" ry="5" fill="white" />
    <rect width="8" height="58.42353451332254" x="491" y="170.78823274333874" rx="5" ry="5" fill="white" />
    <rect width="8" height="101.28368848667218" x="501" y="149.3581557566639" rx="5" ry="5" fill="white" />
    <rect width="8" height="99.9227051950725" x="511" y="150.03864740246377" rx="5" ry="5" fill="white" />
    <rect width="8" height="92.83682022931212" x="521" y="153.58158988534393" rx="5" ry="5" fill="white" />
    <rect width="8" height="82.22996447223036" x="531" y="158.88501776388483" rx="5" ry="5" fill="white" />
    <rect width="8" height="113.04571941955719" x="541" y="143.4771402902214" rx="5" ry="5" fill="white" />
    <rect width="8" height="70.51654618492833" x="551" y="164.74172690753585" rx="5" ry="5" fill="white" />
    <rect width="8" height="76.10681710586651" x="561" y="161.94659144706674" rx="5" ry="5" fill="white" />
    <rect width="8" height="93.05141625460604" x="571" y="153.474291872697" rx="5" ry="5" fill="white" />
    <rect width="8" height="88.15547250317542" x="581" y="155.9222637484123" rx="5" ry="5" fill="white" />
    <rect width="8" height="77.17812477302869" x="591" y="161.41093761348566" rx="5" ry="5" fill="white" />
    <rect width="8" height="76.74714882463334" x="601" y="161.62642558768334" rx="5" ry="5" fill="white" />
    <rect width="8" height="64.57320853480623" x="611" y="167.7133957325969" rx="5" ry="5" fill="white" />
    <rect width="8" height="83.74272631805253" x="621" y="158.12863684097374" rx="5" ry="5" fill="white" />
    <rect width="8" height="71.70443613722098" x="631" y="164.14778193138952" rx="5" ry="5" fill="white" />
    <rect width="8" height="87.56977207496284" x="641" y="156.2151139625186" rx="5" ry="5" fill="white" />
    <rect width="8" height="83.55430996982017" x="651" y="158.22284501508992" rx="5" ry="5" fill="white" />
    <rect width="8" height="62.21199406796699" x="661" y="168.8940029660165" rx="5" ry="5" fill="white" />
    <rect width="8" height="81.26159909321298" x="671" y="159.36920045339352" rx="5" ry="5" fill="white" />
    <rect width="8" height="72.0514092442197" x="681" y="163.97429537789014" rx="5" ry="5" fill="white" />
    <rect width="8" height="71.15631862157005" x="691" y="164.42184068921497" rx="5" ry="5" fill="white" />
    <rect width="8" height="73.85445629073426" x="701" y="163.07277185463286" rx="5" ry="5" fill="white" />
    <rect width="8" height="77.20577725700318" x="711" y="161.3971113714984" rx="5" ry="5" fill="white" />
    <rect width="8" height="56.29831457753536" x="721" y="171.85084271123233" rx="5" ry="5" fill="white" />
    <rect width="8" height="70.80684029269109" x="731" y="164.59657985365445" rx="5" ry="5" fill="white" />
    <rect width="8" height="79.38545201786701" x="741" y="160.3072739910665" rx="5" ry="5" fill="white" />
    <rect width="8" height="99.96851033047768" x="751" y="150.01574483476116" rx="5" ry="5" fill="white" />
    <rect width="8" height="115.95099525873714" x="761" y="142.02450237063144" rx="5" ry="5" fill="white" />
    <rect width="8" height="81.53501552878623" x="771" y="159.23249223560688" rx="5" ry="5" fill="white" />
    <rect width="8" height="126.35223965128857" x="781" y="136.8238801743557" rx="5" ry="5" fill="white" />
    <rect width="8" height="108.16689642414134" x="791" y="145.91655178792934" rx="5" ry="5" fill="white" />
    <rect width="8" height="85.34939632217645" x="801" y="157.32530183891177" rx="5" ry="5" fill="white" />
    <rect width="8" height="77.57422767167381" x="811" y="161.21288616416308" rx="5" ry="5" fill="white" />
    <rect width="8" height="80.00837626934728" x="821" y="159.99581186532635" rx="5" ry="5" fill="white" />
    <rect width="8" height="86.74873850196806" x="831" y="156.62563074901595" rx="5" ry="5" fill="white" />
    <rect width="8" height="79.67880337963803" x="841" y="160.160598310181" rx="5" ry="5" fill="white" />
    <rect width="8" height="82.3453001213555" x="851" y="158.82734993932223" rx="5" ry="5" fill="white" />
    <rect width="8" height="82.78720915532138" x="861" y="158.60639542233932" rx="5" ry="5" fill="white" />
    <rect width="8" height="79.55174618659356" x="871" y="160.22412690670322" rx="5" ry="5" fill="white" />
    <rect width="8" height="91.40660298235834" x="881" y="154.29669850882084" rx="5" ry="5" fill="white" />
    <rect width="8" height="86.42532926822996" x="891" y="156.787335365885" rx="5" ry="5" fill="white" />
    <rect width="8" height="72.31370061376934" x="901" y="163.84314969311532" rx="5" ry="5" fill="white" />
    <rect width="8" height="90.65089745531434" x="911" y="154.67455127234282" rx="5" ry="5" fill="white" />
    <rect width="8" height="90.83336189263528" x="921" y="154.58331905368237" rx="5" ry="5" fill="white" />
    <rect width="8" height="70.56703761648185" x="931" y="164.71648119175907" rx="5" ry="5" fill="white" />
    <rect width="8" height="80.75561396211704" x="941" y="159.6221930189415" rx="5" ry="5" fill="white" />
    <rect width="8" height="81.30811338622966" x="951" y="159.34594330688518" rx="5" ry="5" fill="white" />
    <rect width="8" height="73.72454821129128" x="961" y="163.13772589435436" rx="5" ry="5" fill="white" />
    <rect width="8" height="77.63495582492371" x="971" y="161.18252208753813" rx="5" ry="5" fill="white" />
    <rect width="8" height="80.32798448787898" x="981" y="159.8360077560605" rx="5" ry="5" fill="white" />
    <rect width="8" height="69.07426451603574" x="991" y="165.46286774198214" rx="5" ry="5" fill="white" />
    <rect width="8" height="63.733049821936795" x="1001" y="168.1334750890316" rx="5" ry="5" fill="white" />
    <rect width="8" height="73.60505191821018" x="1011" y="163.19747404089492" rx="5" ry="5" fill="white" />
    <rect width="8" height="53.25007394288483" x="1021" y="173.37496302855757" rx="5" ry="5" fill="white" />
    <rect width="8" height="56.260178290575084" x="1031" y="171.86991085471246" rx="5" ry="5" fill="white" />
    <rect width="8" height="54.9740961405357" x="1041" y="172.51295192973214" rx="5" ry="5" fill="white" />
    <rect width="8" height="42.204509713851444" x="1051" y="178.89774514307427" rx="5" ry="5" fill="white" />
    <rect width="8" height="44.320164902647505" x="1061" y="177.83991754867625" rx="5" ry="5" fill="white" />
    <rect width="8" height="44.67903225071831" x="1071" y="177.66048387464085" rx="5" ry="5" fill="white" />
    <rect width="8" height="40.93298041910602" x="1081" y="179.533509790447" rx="5" ry="5" fill="white" />
    <rect width="8" height="42.33864374820141" x="1091" y="178.83067812589928" rx="5" ry="5" fill="white" />
    <rect width="8" height="41.304823238616194" x="1101" y="179.3475883806919" rx="5" ry="5" fill="white" />
    <rect width="8" height="44.65502401745515" x="1111" y="177.67248799127242" rx="5" ry="5" fill="white" />
    <rect width="8" height="41.22829875616241" x="1121" y="179.3858506219188" rx="5" ry="5" fill="white" />
    <rect width="8" height="42.36173600626578" x="1131" y="178.8191319968671" rx="5" ry="5" fill="white" />
    <rect width="8" height="52.98586351534813" x="1141" y="173.50706824232594" rx="5" ry="5" fill="white" />
    <rect width="8" height="56.194201582386604" x="1151" y="171.9028992088067" rx="5" ry="5" fill="white" />
    <rect width="8" height="57.521134284879075" x="1161" y="171.23943285756047" rx="5" ry="5" fill="white" />
    <rect width="8" height="53.716831164353565" x="1171" y="173.14158441782322" rx="5" ry="5" fill="white" />
    <rect width="8" height="48.26798788528439" x="1181" y="175.8660060573578" rx="5" ry="5" fill="white" />
    <rect width="8" height="37.94539603587929" x="1191" y="181.02730198206035" rx="5" ry="5" fill="white" />
    <rect width="8" height="30.575768677650288" x="1201" y="184.71211566117486" rx="5" ry="5" fill="white" />
    <rect width="8" height="23.970545953827155" x="1211" y="188.01472702308644" rx="5" ry="5" fill="white" />
    <rect width="8" height="8" x="1221" y="196" rx="5" ry="5" fill="white" />
    <rect width="8" height="16.646961608335673" x="1231" y="191.67651919583216" rx="5" ry="5" fill="white" />
    <rect width="8" height="22.649245609136294" x="1241" y="188.67537719543185" rx="5" ry="5" fill="white" />
    <rect width="8" height="20.46366704839881" x="1251" y="189.7681664758006" rx="5" ry="5" fill="white" />
    <rect width="8" height="20.45759019907269" x="1261" y="189.77120490046366" rx="5" ry="5" fill="white" />
    <rect width="8" height="13.950387878944644" x="1271" y="193.02480606052768" rx="5" ry="5" fill="white" />
  </g>
</svg>