<svg 
  baseProfile="tiny"
  preserveAspectRatio="keep"
  version="1.2"
  viewBox="0 0 1280.000000 400.000000"
  height="100%" width="100%"
  xmlns="http://www.w3.org/2000/svg"
  xmlns:ev="http://www.w3.org/2001/xml-events"
  xmlns:xlink="http://www.w3.org/1999/xlink"
>
  <g>
    <rect width="8" height="38.599765781079206" x="1" y="180.7001171094604" rx="5" ry="5" fill="white" />
    <rect width="8" height="41.61956069767733" x="11" y="179.19021965116133" rx="5" ry="5" fill="white" />
    <rect width="8" height="46.72673831559686" x="21" y="176.63663084220155" rx="5" ry="5" fill="white" />
    <rect width="8" height="49.50642068858849" x="31" y="175.24678965570575" rx="5" ry="5" fill="white" />
    <rect width="8" height="53.80212529305709" x="41" y="173.09893735347146" rx="5" ry="5" fill="white" />
    <rect width="8" height="49.526502179231386" x="51" y="175.2367489103843" rx="5" ry="5" fill="white" />
    <rect width="8" height="52.1819010582243" x="61" y="173.90904947088785" rx="5" ry="5" fill="white" />
    <rect width="8" height="51.53692532132267" x="71" y="174.23153733933867" rx="5" ry="5" fill="white" />
    <rect width="8" height="56.48141556921009" x="81" y="171.75929221539496" rx="5" ry="5" fill="white" />
    <rect width="8" height="63.215136402651936" x="91" y="168.39243179867404" rx="5" ry="5" fill="white" />
    <rect width="8" height="73.03339817443685" x="101" y="163.48330091278157" rx="5" ry="5" fill="white" />
    <rect width="8" height="76.8546454491577" x="111" y="161.57267727542114" rx="5" ry="5" fill="white" />
    <rect width="8" height="82.01530815318746" x="121" y="158.99234592340628" rx="5" ry="5" fill="white" />
    <rect width="8" height="77.17655364451936" x="131" y="161.41172317774033" rx="5" ry="5" fill="white" />
    <rect width="8" height="81.4149442396759" x="141" y="159.29252788016205" rx="5" ry="5" fill="white" />
    <rect width="8" height="77.19828735808052" x="151" y="161.40085632095975" rx="5" ry="5" fill="white" />
    <rect width="8" height="91.21114111148735" x="161" y="154.39442944425633" rx="5" ry="5" fill="white" />
    <rect width="8" height="97.21690487871126" x="171" y="151.39154756064437" rx="5" ry="5" fill="white" />
    <rect width="8" height="98.20476458429702" x="181" y="150.89761770785148" rx="5" ry="5" fill="white" />
    <rect width="8" height="104.69250049083185" x="191" y="147.65374975458408" rx="5" ry="5" fill="white" />
    <rect width="8" height="79.3749621868932" x="201" y="160.3125189065534" rx="5" ry="5" fill="white" />
    <rect width="8" height="99.4516117518321" x="211" y="150.27419412408395" rx="5" ry="5" fill="white" />
    <rect width="8" height="80.53300451736479" x="221" y="159.7334977413176" rx="5" ry="5" fill="white" />
    <rect width="8" height="89.08730961821144" x="231" y="155.4563451908943" rx="5" ry="5" fill="white" />
    <rect width="8" height="95.2840612133209" x="241" y="152.35796939333954" rx="5" ry="5" fill="white" />
    <rect width="8" height="87.15087733259178" x="251" y="156.4245613337041" rx="5" ry="5" fill="white" />
    <rect width="8" height="99.96133728274106" x="261" y="150.01933135862947" rx="5" ry="5" fill="white" />
    <rect width="8" height="79.86982463602651" x="271" y="160.06508768198674" rx="5" ry="5" fill="white" />
    <rect width="8" height="91.43233713023407" x="281" y="154.28383143488296" rx="5" ry="5" fill="white" />
    <rect width="8" height="92.52311613792936" x="291" y="153.7384419310353" rx="5" ry="5" fill="white" />
    <rect width="8" height="99.94608779859684" x="301" y="150.02695610070157" rx="5" ry="5" fill="white" />
    <rect width="8" height="94.32647324721573" x="311" y="152.83676337639213" rx="5" ry="5" fill="white" />
    <rect width="8" height="88.35793176612071" x="321" y="155.82103411693964" rx="5" ry="5" fill="white" />
    <rect width="8" height="98.78471735118973" x="331" y="150.60764132440514" rx="5" ry="5" fill="white" />
    <rect width="8" height="87.91810137579493" x="341" y="156.04094931210253" rx="5" ry="5" fill="white" />
    <rect width="8" height="101.52032613860172" x="351" y="149.23983693069914" rx="5" ry="5" fill="white" />
    <rect width="8" height="96.13093591293571" x="361" y="151.93453204353216" rx="5" ry="5" fill="white" />
    <rect width="8" height="95.89498836774524" x="371" y="152.0525058161274" rx="5" ry="5" fill="white" />
    <rect width="8" height="97.90270323811369" x="381" y="151.04864838094315" rx="5" ry="5" fill="white" />
    <rect width="8" height="89.4656632296927" x="391" y="155.26716838515364" rx="5" ry="5" fill="white" />
    <rect width="8" height="103.17595450625343" x="401" y="148.41202274687328" rx="5" ry="5" fill="white" />
    <rect width="8" height="50.69266674215329" x="411" y="174.65366662892336" rx="5" ry="5" fill="white" />
    <rect width="8" height="46.97566632860438" x="421" y="176.5121668356978" rx="5" ry="5" fill="white" />
    <rect width="8" height="61.28054113683875" x="431" y="169.35972943158063" rx="5" ry="5" fill="white" />
    <rect width="8" height="100.50919856982965" x="441" y="149.74540071508517" rx="5" ry="5" fill="white" />
    <rect width="8" height="57.0399759572738" x="451" y="171.4800120213631" rx="5" ry="5" fill="white" />
    <rect width="8" height="46.92870362982691" x="461" y="176.53564818508653" rx="5" ry="5" fill="white" />
    <rect width="8" height="44.51103472564146" x="471" y="177.74448263717926" rx="5" ry="5" fill="white" />
    <rect width="8" height="53.72349418819658" x="481" y="173.1382529059017" rx="5" ry="5" fill="white" />
    <rect width="8" height="101.31538083732427" x="491" y="149.34230958133787" rx="5" ry="5" fill="white" />
    <rect width="8" height="57.353510996296784" x="501" y="171.3232445018516" rx="5" ry="5" fill="white" />
    <rect width="8" height="60.545278944003776" x="511" y="169.72736052799812" rx="5" ry="5" fill="white" />
    <rect width="8" height="75.0620880496331" x="521" y="162.46895597518346" rx="5" ry="5" fill="white" />
    <rect width="8" height="74.35259464351056" x="531" y="162.82370267824473" rx="5" ry="5" fill="white" />
    <rect width="8" height="92.82872658508909" x="541" y="153.58563670745545" rx="5" ry="5" fill="white" />
    <rect width="8" height="76.80911279828842" x="551" y="161.5954436008558" rx="5" ry="5" fill="white" />
    <rect width="8" height="72.86882168551034" x="561" y="163.56558915724483" rx="5" ry="5" fill="white" />
    <rect width="8" height="85.70541452925518" x="571" y="157.14729273537242" rx="5" ry="5" fill="white" />
    <rect width="8" height="86.20340072975617" x="581" y="156.89829963512193" rx="5" ry="5" fill="white" />
    <rect width="8" height="107.48760515647061" x="591" y="146.25619742176468" rx="5" ry="5" fill="white" />
    <rect width="8" height="80.33175215085896" x="601" y="159.83412392457052" rx="5" ry="5" fill="white" />
    <rect width="8" height="89.34430728774795" x="611" y="155.32784635612603" rx="5" ry="5" fill="white" />
    <rect width="8" height="99.33747185158244" x="621" y="150.33126407420878" rx="5" ry="5" fill="white" />
    <rect width="8" height="92.80413699097116" x="631" y="153.5979315045144" rx="5" ry="5" fill="white" />
    <rect width="8" height="101.00979838242527" x="641" y="149.49510080878736" rx="5" ry="5" fill="white" />
    <rect width="8" height="84.91901291929106" x="651" y="157.54049354035448" rx="5" ry="5" fill="white" />
    <rect width="8" height="93.85777895763182" x="661" y="153.0711105211841" rx="5" ry="5" fill="white" />
    <rect width="8" height="89.61406004403662" x="671" y="155.1929699779817" rx="5" ry="5" fill="white" />
    <rect width="8" height="100.32315029728393" x="681" y="149.83842485135804" rx="5" ry="5" fill="white" />
    <rect width="8" height="95.1792792934909" x="691" y="152.41036035325456" rx="5" ry="5" fill="white" />
    <rect width="8" height="94.09450826031593" x="701" y="152.95274586984203" rx="5" ry="5" fill="white" />
    <rect width="8" height="94.37715535632012" x="711" y="152.81142232183993" rx="5" ry="5" fill="white" />
    <rect width="8" height="92.23994131759706" x="721" y="153.88002934120146" rx="5" ry="5" fill="white" />
    <rect width="8" height="104.35557057716038" x="731" y="147.8222147114198" rx="5" ry="5" fill="white" />
    <rect width="8" height="96.52119597414817" x="741" y="151.73940201292592" rx="5" ry="5" fill="white" />
    <rect width="8" height="96.22812158393039" x="751" y="151.8859392080348" rx="5" ry="5" fill="white" />
    <rect width="8" height="101.0905892429917" x="761" y="149.45470537850414" rx="5" ry="5" fill="white" />
    <rect width="8" height="90.87214389550944" x="771" y="154.56392805224527" rx="5" ry="5" fill="white" />
    <rect width="8" height="107.84421228484567" x="781" y="146.07789385757718" rx="5" ry="5" fill="white" />
    <rect width="8" height="94.61142497429842" x="791" y="152.6942875128508" rx="5" ry="5" fill="white" />
    <rect width="8" height="105.11059096693019" x="801" y="147.4447045165349" rx="5" ry="5" fill="white" />
    <rect width="8" height="98.86556862602328" x="811" y="150.56721568698836" rx="5" ry="5" fill="white" />
    <rect width="8" height="99.77937633602498" x="821" y="150.1103118319875" rx="5" ry="5" fill="white" />
    <rect width="8" height="107.316288210236" x="831" y="146.341855894882" rx="5" ry="5" fill="white" />
    <rect width="8" height="91.40058985093289" x="841" y="154.29970507453356" rx="5" ry="5" fill="white" />
    <rect width="8" height="100.90111507259702" x="851" y="149.5494424637015" rx="5" ry="5" fill="white" />
    <rect width="8" height="95.50026326389023" x="861" y="152.24986836805488" rx="5" ry="5" fill="white" />
    <rect width="8" height="103.28160867486595" x="871" y="148.35919566256703" rx="5" ry="5" fill="white" />
    <rect width="8" height="100.95027222258348" x="881" y="149.52486388870827" rx="5" ry="5" fill="white" />
    <rect width="8" height="95.87928562201638" x="891" y="152.06035718899182" rx="5" ry="5" fill="white" />
    <rect width="8" height="100.2176732825315" x="901" y="149.89116335873425" rx="5" ry="5" fill="white" />
    <rect width="8" height="83.67350632451466" x="911" y="158.16324683774266" rx="5" ry="5" fill="white" />
    <rect width="8" height="97.0381328200269" x="921" y="151.48093358998653" rx="5" ry="5" fill="white" />
    <rect width="8" height="93.84991266382852" x="931" y="153.07504366808575" rx="5" ry="5" fill="white" />
    <rect width="8" height="111.97881404900917" x="941" y="144.0105929754954" rx="5" ry="5" fill="white" />
    <rect width="8" height="107.34512003712457" x="951" y="146.32743998143772" rx="5" ry="5" fill="white" />
    <rect width="8" height="82.06302234865339" x="961" y="158.96848882567332" rx="5" ry="5" fill="white" />
    <rect width="8" height="102.12758926455498" x="971" y="148.9362053677225" rx="5" ry="5" fill="white" />
    <rect width="8" height="86.88309094397106" x="981" y="156.55845452801447" rx="5" ry="5" fill="white" />
    <rect width="8" height="95.10058393308411" x="991" y="152.44970803345794" rx="5" ry="5" fill="white" />
    <rect width="8" height="105.22656767542186" x="1001" y="147.38671616228908" rx="5" ry="5" fill="white" />
    <rect width="8" height="89.62643704939109" x="1011" y="155.18678147530446" rx="5" ry="5" fill="white" />
    <rect width="8" height="27.91597946366266" x="1021" y="186.04201026816867" rx="5" ry="5" fill="white" />
    <rect width="8" height="47.64535771333026" x="1031" y="176.17732114333486" rx="5" ry="5" fill="white" />
    <rect width="8" height="43.05036646532038" x="1041" y="178.4748167673398" rx="5" ry="5" fill="white" />
    <rect width="8" height="79.06046537186023" x="1051" y="160.46976731406988" rx="5" ry="5" fill="white" />
    <rect width="8" height="91.05761070625842" x="1061" y="154.4711946468708" rx="5" ry="5" fill="white" />
    <rect width="8" height="40.44719727940301" x="1071" y="179.7764013602985" rx="5" ry="5" fill="white" />
    <rect width="8" height="51.88050177654131" x="1081" y="174.05974911172933" rx="5" ry="5" fill="white" />
    <rect width="8" height="49.008948737657285" x="1091" y="175.49552563117135" rx="5" ry="5" fill="white" />
    <rect width="8" height="76.27150420455014" x="1101" y="161.86424789772494" rx="5" ry="5" fill="white" />
    <rect width="8" height="77.960271482711" x="1111" y="161.0198642586445" rx="5" ry="5" fill="white" />
    <rect width="8" height="41.24856927031155" x="1121" y="179.3757153648442" rx="5" ry="5" fill="white" />
    <rect width="8" height="43.07300398180613" x="1131" y="178.46349800909692" rx="5" ry="5" fill="white" />
    <rect width="8" height="46.63987621899859" x="1141" y="176.6800618905007" rx="5" ry="5" fill="white" />
    <rect width="8" height="75.9510824386068" x="1151" y="162.0244587806966" rx="5" ry="5" fill="white" />
    <rect width="8" height="53.838839811528516" x="1161" y="173.08058009423576" rx="5" ry="5" fill="white" />
    <rect width="8" height="45.599801991203186" x="1171" y="177.2000990043984" rx="5" ry="5" fill="white" />
    <rect width="8" height="54.713036387893176" x="1181" y="172.64348180605342" rx="5" ry="5" fill="white" />
    <rect width="8" height="53.301950697890966" x="1191" y="173.34902465105452" rx="5" ry="5" fill="white" />
    <rect width="8" height="100.14515334872213" x="1201" y="149.92742332563893" rx="5" ry="5" fill="white" />
    <rect width="8" height="94.27769006199856" x="1211" y="152.86115496900072" rx="5" ry="5" fill="white" />
    <rect width="8" height="98.54932776223468" x="1221" y="150.72533611888267" rx="5" ry="5" fill="white" />
    <rect width="8" height="65.7735543376716" x="1231" y="167.1132228311642" rx="5" ry="5" fill="white" />
    <rect width="8" height="70.67145390435226" x="1241" y="164.66427304782388" rx="5" ry="5" fill="white" />
    <rect width="8" height="47.70579678621329" x="1251" y="176.14710160689336" rx="5" ry="5" fill="white" />
    <rect width="8" height="8" x="1261" y="196" rx="5" ry="5" fill="white" />
    <rect width="8" height="8" x="1271" y="196" rx="5" ry="5" fill="white" />
  </g>
</svg>